<?xml version="1.0" ?>
<svg xmlns="http://www.w3.org/2000/svg" version="1.1" width="600" height="600">
  <defs/>
  <g>
    <path d="M 385.6720886230469 104.93701171875 C 352.8229675292969 59.93617248535156 277.3379821777344 31.15111541748047 217.55374145507812 48.22519302368164 C 256.172119140625 56.713314056396484 201.19476318359375 82.17411041259766 165.88864135742188 52.300533294677734 C 216.57008361816406 20.817880630493164 289.4052429199219 79.42330932617188 325.9131774902344 41.985755920410156 C 273.86773681640625 62.38380432128906 391.32574462890625 -8.727981567382812 385.6720886230469 104.93701171875" stroke-width="0.0" fill="rgb(9, 153, 1)" opacity="0.9478426"/>
    <path d="M 20.24919891357422 0.8483363389968872 C 17.569705963134766 10.848336219787598 10.249197959899902 18.16884422302246 0.24919827282428741 20.848337173461914 C -9.750802040100098 18.16884422302246 -17.071308135986328 10.848336219787598 -19.75080108642578 0.8483363389968872 C -17.071308135986328 -9.151663780212402 -9.750802040100098 -16.472169876098633 0.24919827282428741 -19.151662826538086 C 10.249197959899902 -16.472169876098633 17.569705963134766 -9.151663780212402 20.24919891357422 0.8483363389968872" stroke-width="0.0" fill="rgb(130, 81, 151)" opacity="0.8305787" stroke="rgb(234, 87, 13)" stroke-opacity="0.20424211" stroke-linecap="round" stroke-linejoin="round"/>
    <path d="M 20.59545135498047 0.9500396251678467 C 17.915958404541016 10.950039863586426 10.595452308654785 18.270545959472656 0.5954523086547852 20.95003890991211 C -9.404547691345215 18.270545959472656 -16.725055694580078 10.950039863586426 -19.40454864501953 0.9500396251678467 C -16.725055694580078 -9.049960136413574 -9.404547691345215 -16.370468139648438 0.5954523086547852 -19.04996109008789 C 10.595452308654785 -16.370468139648438 17.915958404541016 -9.049960136413574 20.59545135498047 0.9500396251678467" stroke-width="0.0" fill="rgb(28, 9, 253)" opacity="0.71614915" stroke="rgb(48, 9, 99)" stroke-opacity="0.8024018" stroke-linecap="round" stroke-linejoin="round"/>
    <path d="M 599.552734375 207.26593017578125 C 695.26220703125 365.5373840332031 716.2595825195312 421.9597473144531 489.9652404785156 573.8994750976562 C 166.01824951171875 419.4087829589844 89.44342803955078 407.8005676269531 -42.127166748046875 285.1883239746094 C 249.25564575195312 108.91278076171875 319.95758056640625 123.38895416259766 352.79486083984375 132.94813537597656 C 361.3613586425781 194.8488311767578 361.15875244140625 194.2840118408203 599.552734375 207.26593017578125" stroke-width="0.0" fill="rgb(243, 239, 178)" opacity="0.59200114"/>
    <path d="M 411.1162414550781 449.5134582519531 C 353.9916076660156 486.3043212890625 376.9724426269531 440.9305725097656 369.0113830566406 576.920166015625 C 377.9283142089844 582.0758666992188 275.416748046875 588.9345092773438 214.30563354492188 422.1705627441406 C 218.7543182373047 334.640869140625 269.7613525390625 352.8381042480469 387.668701171875 351.1243896484375 C 488.0517578125 371.921875 409.78863525390625 416.03466796875 411.1162414550781 449.5134582519531" stroke-width="0.0" fill="rgb(3, 164, 136)" opacity="1.0"/>
    <path d="M 20.474674224853516 0.2591915428638458 C 17.795181274414062 10.259191513061523 10.474674224853516 17.57969856262207 0.47467443346977234 20.259191513061523 C -9.525325775146484 17.57969856262207 -16.84583282470703 10.259191513061523 -19.525325775146484 0.2591915428638458 C -16.84583282470703 -9.740808486938477 -9.525325775146484 -17.061315536499023 0.47467443346977234 -19.740808486938477 C 10.474674224853516 -17.061315536499023 17.795181274414062 -9.740808486938477 20.474674224853516 0.2591915428638458" stroke-width="0.0" fill="rgb(223, 230, 125)" opacity="0.7320402" stroke="rgb(243, 15, 75)" stroke-opacity="0.2980662" stroke-linecap="round" stroke-linejoin="round"/>
    <path d="M 252.48663330078125 184.4870147705078 C 219.9346160888672 293.9707336425781 286.6661682128906 228.2371368408203 231.0158233642578 268.56378173828125 C 151.4862518310547 261.4801025390625 221.41107177734375 251.35813903808594 228.85870361328125 211.56918334960938 C 242.77146911621094 172.86813354492188 194.46124267578125 140.76258850097656 253.15309143066406 189.81919860839844 C 385.467529296875 157.17994689941406 431.8369445800781 204.7947235107422 252.48663330078125 184.4870147705078" stroke-width="0.0" fill="rgb(0, 3, 19)" opacity="0.9911751"/>
    <path d="M 268.70343017578125 349.8816833496094 C 262.9180908203125 464.1273498535156 202.9521026611328 428.5249328613281 86.34514617919922 359.82891845703125 C -81.27342987060547 538.4620971679688 147.1299591064453 370.49578857421875 144.99009704589844 344.8346252441406 C -97.93399047851562 526.5372924804688 -13.866278648376465 496.7733459472656 158.60101318359375 388.5506286621094 C 141.72743225097656 308.0061950683594 77.1067123413086 363.8722229003906 268.70343017578125 349.8816833496094" stroke-width="0.0" fill="rgb(0, 176, 191)" opacity="0.19074355"/>
    <path d="M 20.336130142211914 0.6791418790817261 C 17.65663719177246 10.679141998291016 10.336129188537598 17.999649047851562 0.3361295461654663 20.679141998291016 C -9.663870811462402 17.999649047851562 -16.984376907348633 10.679141998291016 -19.663869857788086 0.6791418790817261 C -16.984376907348633 -9.320858001708984 -9.663870811462402 -16.64136505126953 0.3361295461654663 -19.320858001708984 C 10.336129188537598 -16.64136505126953 17.65663719177246 -9.320858001708984 20.336130142211914 0.6791418790817261" stroke-width="0.0" fill="rgb(113, 31, 52)" opacity="0.71177953" stroke="rgb(249, 61, 169)" stroke-opacity="0.8390997" stroke-linecap="round" stroke-linejoin="round"/>
    <path d="M 264.6156311035156 355.4405517578125 C 249.94427490234375 637.8460693359375 311.5080261230469 689.6398315429688 62.72254943847656 673.6869506835938 C -122.0583724975586 516.509521484375 65.9987564086914 414.676513671875 -39.391395568847656 477.2839050292969 C 90.44052124023438 348.991455078125 104.65963745117188 339.285400390625 121.87635040283203 393.8523864746094 C 161.67825317382812 436.1572265625 201.80340576171875 397.64666748046875 264.6156311035156 355.4405517578125" stroke-width="0.0" fill="rgb(255, 248, 166)" opacity="0.55688125"/>
    <path d="M 409.0567932128906 152.8810577392578 C 431.65435791015625 46.73270034790039 363.95849609375 127.18103790283203 356.59051513671875 203.1032257080078 C 349.0162048339844 185.32655334472656 392.724609375 146.1342010498047 359.6196594238281 179.9763946533203 C 368.73468017578125 165.80966186523438 332.8571472167969 134.86569213867188 362.08953857421875 91.28349304199219 C 351.3478088378906 164.16732788085938 366.7038879394531 197.92803955078125 409.0567932128906 152.8810577392578" stroke-width="0.0" fill="rgb(13, 3, 0)" opacity="0.92769325"/>
    <path d="M 443.6852111816406 312.1671447753906 C 435.1211853027344 305.27606201171875 477.2351379394531 314.6146240234375 425.87579345703125 420.09649658203125 C 432.4095458984375 395.5228576660156 406.3470458984375 386.52642822265625 399.0279846191406 368.5172119140625 C 414.6270751953125 280.42681884765625 387.7858581542969 237.1472930908203 431.0372619628906 269.9921569824219 C 476.5782775878906 348.116943359375 419.9081726074219 387.0065612792969 443.6852111816406 312.1671447753906" stroke-width="0.0" fill="rgb(0, 0, 31)" opacity="0.9796801"/>
    <path d="M 587.7055053710938 285.7855529785156 C 330.99578857421875 254.79673767089844 348.0110168457031 257.2362976074219 336.6873779296875 175.35800170898438 C 164.37557983398438 195.81069946289062 -9.680853843688965 395.32391357421875 -122.71643829345703 136.7646942138672 C 46.77122116088867 -123.09132385253906 124.25569152832031 -40.16429138183594 474.7937316894531 -46.232933044433594 C 654.809814453125 -44.029903411865234 634.2955322265625 0.04238060116767883 587.7055053710938 285.7855529785156" stroke-width="0.0" fill="rgb(255, 249, 197)" opacity="0.9180011"/>
    <path d="M 483.587158203125 507.56414794921875 C 540.35888671875 529.7714233398438 555.242431640625 479.06719970703125 408.2196350097656 644.5701904296875 C 241.38479614257812 653.1616821289062 266.3276672363281 669.4228515625 217.44361877441406 429.4886779785156 C 225.0943145751953 360.2080993652344 263.9012451171875 367.2801208496094 351.2722473144531 406.65032958984375 C 412.7767028808594 575.6731567382812 315.4351806640625 587.4096069335938 483.587158203125 507.56414794921875" stroke-width="0.0" fill="rgb(106, 138, 91)" opacity="0.1615043"/>
    <path d="M 294.1606140136719 145.36729431152344 C 255.71510314941406 192.3185577392578 214.5223388671875 128.3411865234375 149.9949493408203 174.14108276367188 C 206.0411376953125 116.51378631591797 191.90737915039062 114.93866729736328 62.07395553588867 349.3858947753906 C 329.5124816894531 222.6540069580078 179.5064697265625 110.50297546386719 269.54400634765625 -24.6368465423584 C 303.17633056640625 144.8226318359375 276.75311279296875 168.9287109375 294.1606140136719 145.36729431152344" stroke-width="0.0" fill="rgb(255, 253, 195)" opacity="0.35443607"/>
    <path d="M 616.3237915039062 170.60076904296875 C 501.44268798828125 297.25457763671875 438.8735656738281 290.21942138671875 452.05029296875 362.4197692871094 C 402.1559753417969 346.9751892089844 351.5523376464844 356.5818786621094 379.07708740234375 370.9892272949219 C 391.9111022949219 193.25137329101562 313.34844970703125 200.11521911621094 420.73504638671875 283.6509094238281 C 505.20013427734375 326.279541015625 436.1739196777344 347.496337890625 616.3237915039062 170.60076904296875" stroke-width="0.0" fill="rgb(17, 85, 24)" opacity="0.0884159"/>
    <path d="M 288.4022216796875 59.12875747680664 C 272.2451171875 45.06085968017578 271.4805908203125 70.1927490234375 279.7620849609375 72.73180389404297 C 253.052734375 45.903343200683594 223.45091247558594 58.459957122802734 185.8835906982422 39.59279251098633 C 271.43963623046875 16.95785903930664 191.30801391601562 33.70730209350586 279.5099792480469 86.33765411376953 C 304.70758056640625 6.621403694152832 236.3048858642578 70.88056945800781 288.4022216796875 59.12875747680664" stroke-width="0.0" fill="rgb(37, 63, 16)" opacity="0.8245976"/>
    <path d="M 290.3114013671875 63.97972869873047 C 245.3813934326172 83.14167022705078 263.8462219238281 120.55130767822266 254.2002410888672 166.48924255371094 C 188.67337036132812 170.0211181640625 238.7989501953125 150.05532836914062 234.17735290527344 121.74028778076172 C 230.72259521484375 71.46670532226562 189.87359619140625 85.52568054199219 144.51095581054688 52.908931732177734 C 283.7344055175781 1.9484144449234009 280.2427673339844 57.72084426879883 290.3114013671875 63.97972869873047" stroke-width="0.0" fill="rgb(0, 0, 18)" opacity="1.0"/>
    <path d="M 146.66168212890625 510.5080871582031 C 439.9438171386719 512.7747192382812 397.32574462890625 497.4961853027344 350.1246337890625 513.8597412109375 C 361.1573791503906 498.5178527832031 244.0936737060547 522.626220703125 167.11448669433594 426.0931396484375 C 162.5403594970703 317.845458984375 191.69410705566406 477.8665466308594 342.5846252441406 424.3813171386719 C 509.7599792480469 502.8206481933594 190.1443634033203 508.7257385253906 146.66168212890625 510.5080871582031" stroke-width="0.0" fill="rgb(24, 157, 140)" opacity="0.88178116"/>
    <path d="M 265.08154296875 124.84980010986328 C 250.44378662109375 109.29720306396484 255.63751220703125 149.00169372558594 201.351806640625 177.62075805664062 C 190.76153564453125 133.47457885742188 205.92909240722656 110.53997039794922 218.67620849609375 133.7845001220703 C 237.16976928710938 162.59017944335938 223.33119201660156 123.79107666015625 225.46263122558594 111.12704467773438 C 232.53208923339844 135.0264129638672 239.44090270996094 176.6066436767578 265.08154296875 124.84980010986328" stroke-width="0.0" fill="rgb(6, 5, 0)" opacity="0.95812094"/>
    <path d="M 400.3898620605469 586.4702758789062 C 394.38812255859375 579.2861328125 370.1595153808594 614.8945922851562 394.6676330566406 584.939453125 C 383.5719299316406 586.5261840820312 139.96322631835938 611.373291015625 200.2886505126953 567.111083984375 C 307.7489318847656 583.3495483398438 385.8518371582031 568.5159301757812 373.5702819824219 558.9938354492188 C 350.8955993652344 542.4645385742188 394.1834411621094 494.18603515625 400.3898620605469 586.4702758789062" stroke-width="0.0" fill="rgb(0, 0, 22)" opacity="1.0"/>
    <path d="M 207.1545867919922 446.6666259765625 C 245.00057983398438 474.7268371582031 278.6993713378906 551.610595703125 210.26303100585938 471.217041015625 C 159.23992919921875 438.4558410644531 156.26959228515625 398.2125549316406 150.9986572265625 395.1228332519531 C 141.08255004882812 364.4229431152344 129.5604705810547 311.1390380859375 158.94374084472656 289.45880126953125 C 137.64804077148438 384.1342468261719 195.34991455078125 436.87957763671875 207.1545867919922 446.6666259765625" stroke-width="0.0" fill="rgb(1, 0, 24)" opacity="0.9975887"/>
    <path d="M 417.2035217285156 141.58016967773438 C 185.63937377929688 161.16732788085938 292.840087890625 107.4012680053711 239.6133575439453 232.18585205078125 C 209.05197143554688 240.4792022705078 233.87078857421875 154.8561553955078 216.13949584960938 103.40737915039062 C 208.9282989501953 124.75092315673828 258.6922302246094 74.1528549194336 396.8051452636719 138.74050903320312 C 135.1477508544922 138.21461486816406 78.23221588134766 150.42503356933594 417.2035217285156 141.58016967773438" stroke-width="0.0" fill="rgb(2, 9, 27)" opacity="1.0"/>
    <path d="M 431.1124572753906 341.7646179199219 C 412.3326110839844 400.7543640136719 440.8104553222656 442.7795104980469 362.8567199707031 426.74041748046875 C 427.1643371582031 406.36260986328125 463.52410888671875 422.39556884765625 383.7982482910156 400.1771240234375 C 382.5917053222656 328.6571044921875 417.5948486328125 348.5723876953125 440.337890625 375.0835876464844 C 427.1453857421875 373.8852844238281 462.0611572265625 371.62530517578125 431.1124572753906 341.7646179199219" stroke-width="0.0" fill="rgb(102, 105, 196)" opacity="0.10229643"/>
    <path d="M 414.08221435546875 445.4892578125 C 409.8963623046875 456.3026123046875 386.17852783203125 457.66168212890625 363.0182189941406 508.9447326660156 C 231.0301055908203 522.0863037109375 128.82594299316406 490.13726806640625 339.7406005859375 496.61572265625 C 387.12066650390625 467.9235534667969 409.8377990722656 422.5837707519531 442.83062744140625 367.4603271484375 C 450.53448486328125 379.6432800292969 425.890625 430.4554138183594 414.08221435546875 445.4892578125" stroke-width="0.0" fill="rgb(0, 0, 26)" opacity="1.0"/>
    <path d="M 373.3837585449219 72.56986236572266 C 374.9715881347656 160.9386444091797 420.0598449707031 140.9761962890625 258.69921875 130.59332275390625 C 248.45217895507812 95.65733337402344 240.66517639160156 64.05963134765625 218.24981689453125 60.7224235534668 C 256.2789001464844 67.38753509521484 263.5107421875 46.70944595336914 245.76983642578125 58.0040168762207 C 286.32220458984375 48.25127410888672 320.08013916015625 30.62604522705078 373.3837585449219 72.56986236572266" stroke-width="0.0" fill="rgb(0, 151, 130)" opacity="0.9963033"/>
    <path d="M 452.467529296875 307.0496826171875 C 444.32183837890625 304.4065856933594 460.8681640625 311.6199035644531 435.77618408203125 393.9136047363281 C 379.9078369140625 375.632080078125 454.9601745605469 199.14535522460938 291.3762512207031 208.72137451171875 C 349.0469665527344 212.06228637695312 347.9850158691406 167.23265075683594 378.3186950683594 249.9302978515625 C 474.75885009765625 295.84259033203125 438.74884033203125 308.6403503417969 452.467529296875 307.0496826171875" stroke-width="0.0" fill="rgb(0, 6, 20)" opacity="1.0"/>
    <path d="M 441.5007629394531 51.99644088745117 C 351.090576171875 274.12554931640625 326.7349853515625 196.01966857910156 359.7048034667969 70.06057739257812 C 326.21356201171875 62.867576599121094 298.77685546875 84.46035766601562 311.6726379394531 65.47343444824219 C 287.455810546875 43.343753814697266 284.28765869140625 85.88819122314453 260.59906005859375 37.633445739746094 C 292.4750061035156 46.05990982055664 262.8204040527344 39.404808044433594 441.5007629394531 51.99644088745117" stroke-width="0.0" fill="rgb(0, 0, 20)" opacity="1.0"/>
    <path d="M 429.51568603515625 269.6253356933594 C 342.78533935546875 272.4880065917969 241.0023193359375 270.6808776855469 253.0406036376953 272.555419921875 C 218.21990966796875 265.19061279296875 164.94139099121094 267.5582580566406 169.095458984375 268.455810546875 C 220.02041625976562 252.53611755371094 281.76019287109375 258.9468994140625 368.43292236328125 253.80308532714844 C 263.05462646484375 268.3711242675781 417.7974548339844 238.01007080078125 429.51568603515625 269.6253356933594" stroke-width="0.0" fill="rgb(0, 0, 38)" opacity="1.0"/>
    <path d="M 318.3272705078125 55.045963287353516 C 320.52154541015625 51.630615234375 326.60205078125 48.63695526123047 349.22454833984375 57.03505325317383 C 343.9805908203125 50.259117126464844 268.8680419921875 80.85420227050781 195.25506591796875 46.2143669128418 C 259.96917724609375 41.60527801513672 308.8711853027344 49.381736755371094 345.647705078125 49.96406936645508 C 348.30963134765625 47.87311935424805 334.18963623046875 43.84613037109375 318.3272705078125 55.045963287353516" stroke-width="0.0" fill="rgb(0, 0, 16)" opacity="1.0"/>
    <path d="M 111.1133041381836 389.84027099609375 C 143.8638916015625 452.9142150878906 115.35033416748047 410.635986328125 -74.23259735107422 557.4052124023438 C 59.61871337890625 342.5360412597656 119.37748718261719 412.1623229980469 -98.10321807861328 495.5539855957031 C -1.3298410177230835 352.28961181640625 22.87969207763672 365.23626708984375 144.20716857910156 387.1071472167969 C 197.0887451171875 466.6841735839844 53.89672088623047 520.927978515625 111.1133041381836 389.84027099609375" stroke-width="0.0" fill="rgb(255, 255, 197)" opacity="0.5185353"/>
    <path d="M 436.2959899902344 346.8551025390625 C 417.04949951171875 454.26544189453125 408.78717041015625 371.40875244140625 344.9545593261719 445.3712463378906 C 415.4034729003906 321.4910583496094 304.233642578125 336.46234130859375 257.6800842285156 374.1395263671875 C 335.96136474609375 316.89111328125 366.14495849609375 385.38134765625 384.6875 280.0813903808594 C 385.3084411621094 281.1559143066406 444.95465087890625 261.6748046875 436.2959899902344 346.8551025390625" stroke-width="0.0" fill="rgb(17, 164, 139)" opacity="0.9987827"/>
    <path d="M 239.30433654785156 508.9612731933594 C 149.5106201171875 526.6642456054688 118.71903991699219 502.42559814453125 72.94420623779297 602.6273803710938 C -11.545477867126465 623.0941162109375 163.9555206298828 491.9212341308594 63.79280090332031 509.5063171386719 C 132.75308227539062 509.02008056640625 160.12905883789062 510.1260070800781 109.92367553710938 542.0441284179688 C 166.2523651123047 473.86279296875 176.04869079589844 460.4258728027344 239.30433654785156 508.9612731933594" stroke-width="0.0" fill="rgb(255, 251, 203)" opacity="1.0"/>
    <path d="M 438.64453125 269.0974426269531 C 433.6122131347656 263.3345947265625 405.0586853027344 256.74713134765625 440.0591735839844 275.69378662109375 C 402.38531494140625 256.0491943359375 428.0105285644531 262.5091857910156 482.8114013671875 217.2158203125 C 371.7086181640625 285.0307922363281 439.3275451660156 264.40447998046875 352.7825622558594 217.3108673095703 C 365.54296875 278.1341857910156 421.1825256347656 274.92181396484375 438.64453125 269.0974426269531" stroke-width="0.0" fill="rgb(0, 2, 24)" opacity="1.0"/>
    <path d="M 429.89776611328125 266.849609375 C 508.64801025390625 170.76072692871094 469.7530212402344 222.3899383544922 427.2877197265625 280.8604431152344 C 404.8140869140625 277.3540344238281 364.7808532714844 250.49005126953125 354.95770263671875 207.0384063720703 C 362.1092834472656 214.8992919921875 385.3863525390625 257.9301452636719 393.63116455078125 259.3755187988281 C 357.88330078125 250.90248107910156 387.1217041015625 244.07237243652344 429.89776611328125 266.849609375" stroke-width="0.0" fill="rgb(0, 3, 5)" opacity="0.36698458"/>
    <path d="M 243.0502166748047 190.24537658691406 C 197.65306091308594 280.2510681152344 264.0730285644531 144.3555145263672 136.4796905517578 252.4677276611328 C 91.83525085449219 259.7037353515625 117.0445556640625 202.5765838623047 -6.995388031005859 238.84722900390625 C 130.2663116455078 180.876953125 158.08651733398438 190.2721405029297 163.82708740234375 146.09580993652344 C 196.4296875 124.51117706298828 253.62774658203125 29.35968017578125 243.0502166748047 190.24537658691406" stroke-width="0.0" fill="rgb(254, 252, 200)" opacity="0.99214816"/>
    <path d="M 299.7251892089844 540.1520385742188 C 272.9528503417969 504.8089599609375 238.9335479736328 485.9302673339844 241.73495483398438 538.681396484375 C 316.1466979980469 561.0952758789062 274.7421875 547.2648315429688 220.34942626953125 465.8116760253906 C 221.21861267089844 546.646728515625 318.3959045410156 536.3289184570312 241.9775848388672 525.4530639648438 C 248.86582946777344 558.7902221679688 254.9564971923828 535.5545043945312 299.7251892089844 540.1520385742188" stroke-width="0.0" fill="rgb(10, 6, 11)" opacity="0.966867"/>
    <path d="M 202.48960876464844 499.3810119628906 C 167.06741333007812 445.4825744628906 161.146484375 461.987548828125 112.40153503417969 503.72821044921875 C 141.2889404296875 468.1802673339844 154.3096160888672 519.6085815429688 -42.32733154296875 679.7160034179688 C 103.8251724243164 399.4579772949219 149.41439819335938 401.9470520019531 131.0780029296875 508.8973083496094 C 87.16340637207031 566.2714233398438 114.43456268310547 550.4658203125 202.48960876464844 499.3810119628906" stroke-width="0.0" fill="rgb(255, 252, 206)" opacity="0.25596967"/>
    <path d="M 355.65185546875 344.5150451660156 C 348.4011535644531 356.2130432128906 344.20648193359375 368.9928283691406 180.4244384765625 368.9511413574219 C 385.97332763671875 332.6260986328125 391.84686279296875 370.87255859375 222.63006591796875 361.06512451171875 C 185.7314453125 376.164306640625 288.563232421875 350.1723327636719 331.4543762207031 390.6222839355469 C 298.1513671875 359.1664733886719 298.02020263671875 360.5061950683594 355.65185546875 344.5150451660156" stroke-width="0.0" fill="rgb(176, 94, 37)" opacity="0.7368657"/>
    <path d="M 524.7816772460938 274.5308837890625 C 686.5390014648438 119.9840316772461 650.2915649414062 168.31539916992188 574.7399291992188 270.11968994140625 C 521.0339965820312 172.38687133789062 588.6596069335938 160.03387451171875 562.1083374023438 174.0762939453125 C 628.1207885742188 87.78186798095703 669.655517578125 116.69115447998047 554.403564453125 249.99610900878906 C 651.8395385742188 97.67915344238281 693.465576171875 139.55029296875 524.7816772460938 274.5308837890625" stroke-width="0.0" fill="rgb(245, 253, 206)" opacity="0.54389995"/>
    <path d="M 20.24724006652832 0.6376614570617676 C 17.567747116088867 10.63766098022461 10.24724006652832 17.958168029785156 0.24723973870277405 20.63766098022461 C -9.75275993347168 17.958168029785156 -17.073266983032227 10.63766098022461 -19.75275993347168 0.6376614570617676 C -17.073266983032227 -9.36233901977539 -9.75275993347168 -16.682846069335938 0.24723973870277405 -19.36233901977539 C 10.24724006652832 -16.682846069335938 17.567747116088867 -9.36233901977539 20.24724006652832 0.6376614570617676" stroke-width="0.0" fill="rgb(81, 41, 199)" opacity="0.890472" stroke="rgb(31, 17, 231)" stroke-opacity="0.19012877" stroke-linecap="round" stroke-linejoin="round"/>
    <path d="M 493.2608947753906 78.35445404052734 C 441.6083984375 127.24246215820312 390.6514892578125 187.5055389404297 389.14373779296875 194.484375 C 394.84661865234375 209.38441467285156 390.5552978515625 201.35804748535156 397.3893737792969 165.36636352539062 C 372.2084655761719 151.36083984375 339.4761962890625 162.7285614013672 443.7921142578125 67.57523345947266 C 364.9331359863281 206.64833068847656 320.027587890625 265.8880615234375 493.2608947753906 78.35445404052734" stroke-width="0.0" fill="rgb(255, 255, 207)" opacity="0.4489779"/>
    <path d="M 295.4533386230469 65.1186294555664 C 244.70750427246094 81.83030700683594 258.0023498535156 128.43641662597656 251.06312561035156 105.04766082763672 C 233.8604736328125 64.11141967773438 200.76414489746094 64.84515380859375 243.02809143066406 74.13961791992188 C 231.69032287597656 76.1689682006836 199.01876831054688 64.42871856689453 201.97213745117188 62.10317611694336 C 240.9788055419922 66.53411865234375 270.9506530761719 79.89692687988281 295.4533386230469 65.1186294555664" stroke-width="0.0" fill="rgb(123, 255, 226)" opacity="0.94495535"/>
    <path d="M 330.9721984863281 371.7038879394531 C 353.9638366699219 358.5012512207031 356.5189208984375 339.2757873535156 306.8385009765625 306.523681640625 C 215.8120574951172 360.95257568359375 232.6721649169922 375.2702331542969 227.22921752929688 367.6437683105469 C 251.51828002929688 365.95513916015625 227.54611206054688 378.5257568359375 295.4906921386719 344.5008544921875 C 213.8014373779297 373.5475158691406 226.432373046875 377.2033996582031 330.9721984863281 371.7038879394531" stroke-width="0.0" fill="rgb(204, 71, 40)" opacity="0.9434647"/>
    <path d="M 352.9218444824219 613.2969970703125 C 386.942626953125 604.9185791015625 342.02838134765625 600.501708984375 350.0694580078125 623.1878051757812 C 322.3534240722656 605.950927734375 315.91009521484375 579.9451904296875 302.0404357910156 646.7266235351562 C 336.96923828125 589.669921875 351.4247131347656 608.9192504882812 329.4181213378906 601.4321899414062 C 307.2349853515625 598.8038940429688 345.391357421875 649.152587890625 352.9218444824219 613.2969970703125" stroke-width="0.0" fill="rgb(237, 223, 195)" opacity="0.32752383"/>
    <path d="M 48.728248596191406 589.0181274414062 C 129.77806091308594 412.2314453125 144.98341369628906 486.51495361328125 31.922489166259766 609.3283081054688 C 71.6347427368164 507.2200622558594 77.1954345703125 584.9963989257812 -36.00638198852539 662.32958984375 C 71.73590850830078 497.06719970703125 100.09095764160156 467.66644287109375 160.56480407714844 461.0976867675781 C 236.1075439453125 538.7947998046875 101.8697280883789 591.0883178710938 48.728248596191406 589.0181274414062" stroke-width="0.0" fill="rgb(255, 251, 208)" opacity="0.3556845"/>
    <path d="M 612.544921875 204.8877410888672 C 559.974853515625 225.18988037109375 527.2040405273438 221.83885192871094 472.9815979003906 255.54745483398438 C 551.8816528320312 159.7542724609375 593.920166015625 222.4025421142578 420.38055419921875 261.71337890625 C 449.42742919921875 130.43978881835938 495.2638854980469 142.15435791015625 584.3369750976562 51.47547149658203 C 512.8565673828125 171.1566162109375 548.8342895507812 96.80375671386719 612.544921875 204.8877410888672" stroke-width="0.0" fill="rgb(255, 248, 210)" opacity="0.9311238"/>
    <path d="M 639.9781494140625 480.6165771484375 C 635.4866333007812 676.2804565429688 549.9269409179688 742.9630737304688 376.20501708984375 600.057861328125 C 528.30419921875 456.57366943359375 519.0812377929688 454.3037109375 408.39691162109375 578.09912109375 C 375.5009765625 552.4281005859375 352.91754150390625 557.6395263671875 366.6676330566406 508.42901611328125 C 404.9964904785156 515.1344604492188 472.1708068847656 554.5859985351562 639.9781494140625 480.6165771484375" stroke-width="0.0" fill="rgb(211, 198, 158)" opacity="0.99991167"/>
    <path d="M 20.467390060424805 0.12762778997421265 C 17.78789710998535 10.1276273727417 10.467390060424805 17.448135375976562 0.46739014983177185 20.127628326416016 C -9.532609939575195 17.448135375976562 -16.853116989135742 10.1276273727417 -19.532609939575195 0.12762778997421265 C -16.853116989135742 -9.8723726272583 -9.532609939575195 -17.19287872314453 0.46739014983177185 -19.872371673583984 C 10.467390060424805 -17.19287872314453 17.78789710998535 -9.8723726272583 20.467390060424805 0.12762778997421265" stroke-width="0.0" fill="rgb(165, 17, 228)" opacity="0.79835284" stroke="rgb(208, 152, 100)" stroke-opacity="0.47343567" stroke-linecap="round" stroke-linejoin="round"/>
    <path d="M 20.4075984954834 0.5426111221313477 C 17.728105545043945 10.542611122131348 10.407599449157715 17.863117218017578 0.4075993597507477 20.54261016845703 C -9.592400550842285 17.863117218017578 -16.91290855407715 10.542611122131348 -19.5924015045166 0.5426111221313477 C -16.91290855407715 -9.457388877868652 -9.592400550842285 -16.777896881103516 0.4075993597507477 -19.45738983154297 C 10.407599449157715 -16.777896881103516 17.728105545043945 -9.457388877868652 20.4075984954834 0.5426111221313477" stroke-width="0.0" fill="rgb(37, 152, 207)" opacity="0.7396806" stroke="rgb(50, 60, 76)" stroke-opacity="0.6427951" stroke-linecap="round" stroke-linejoin="round"/>
    <path d="M 20.622257232666016 0.026966452598571777 C 17.942764282226562 10.026966094970703 10.622257232666016 17.34747314453125 0.6222569346427917 20.026966094970703 C -9.377742767333984 17.34747314453125 -16.69824981689453 10.026966094970703 -19.377742767333984 0.026966452598571777 C -16.69824981689453 -9.973033905029297 -9.377742767333984 -17.293540954589844 0.6222569346427917 -19.973033905029297 C 10.622257232666016 -17.293540954589844 17.942764282226562 -9.973033905029297 20.622257232666016 0.026966452598571777" stroke-width="0.0" fill="rgb(217, 86, 221)" opacity="0.93303955" stroke="rgb(216, 46, 109)" stroke-opacity="0.16549978" stroke-linecap="round" stroke-linejoin="round"/>
    <path d="M 544.7175903320312 126.37288665771484 C 427.6071472167969 258.039794921875 415.3535461425781 260.3935852050781 427.3821105957031 224.0229034423828 C 432.44219970703125 262.67340087890625 441.6004638671875 248.6663818359375 436.5249938964844 231.0327911376953 C 408.537353515625 253.33978271484375 421.78582763671875 197.65695190429688 415.0604248046875 260.5873107910156 C 464.2359619140625 309.5336608886719 447.3416442871094 219.39883422851562 544.7175903320312 126.37288665771484" stroke-width="0.0" fill="rgb(253, 247, 205)" opacity="0.988454"/>
    <path d="M 217.11460876464844 -63.07516098022461 C 134.08297729492188 9.200065612792969 117.586669921875 62.66240310668945 -91.32151794433594 249.4713592529297 C 85.6328125 48.76715850830078 145.55929565429688 26.5747127532959 219.5329132080078 -34.22840881347656 C 119.40799713134766 24.037803649902344 65.72691345214844 5.449621677398682 29.798063278198242 14.441356658935547 C 130.5677490234375 -52.93721389770508 120.225830078125 10.131612777709961 217.11460876464844 -63.07516098022461" stroke-width="0.0" fill="rgb(255, 248, 209)" opacity="0.040979326"/>
    <path d="M 547.9730224609375 -20.243680953979492 C 501.85247802734375 71.0481948852539 401.68231201171875 68.16287994384766 544.2034912109375 11.886859893798828 C 476.0830383300781 42.84806442260742 521.4817504882812 56.409908294677734 378.50836181640625 137.455322265625 C 471.3087158203125 24.581567764282227 572.5078125 -34.14907455444336 553.3211669921875 8.965766906738281 C 453.701904296875 50.256038665771484 478.12921142578125 23.756404876708984 547.9730224609375 -20.243680953979492" stroke-width="0.0" fill="rgb(255, 254, 193)" opacity="0.044627316"/>
    <path d="M 662.3081665039062 27.0372314453125 C 590.1588134765625 109.69662475585938 555.8541870117188 144.5955352783203 515.5585327148438 115.90351104736328 C 667.7914428710938 -36.48387908935547 647.5887451171875 -39.436100006103516 438.82281494140625 105.9681396484375 C 506.5504455566406 26.16795539855957 576.6295166015625 -12.467766761779785 524.1372680664062 54.187660217285156 C 485.0041809082031 47.93828201293945 545.3302612304688 -75.49357604980469 662.3081665039062 27.0372314453125" stroke-width="0.0" fill="rgb(253, 254, 185)" opacity="0.01020019"/>
    <path d="M 462.8550109863281 230.8768768310547 C 419.735107421875 212.68698120117188 388.3812561035156 248.04139709472656 463.2297058105469 216.11212158203125 C 542.203369140625 178.02073669433594 465.9869689941406 286.740478515625 401.0965576171875 237.99403381347656 C 363.2213439941406 179.5067901611328 440.8945007324219 143.72618103027344 436.6489562988281 156.3694610595703 C 371.9957580566406 257.2579345703125 414.0055847167969 293.1451416015625 462.8550109863281 230.8768768310547" stroke-width="0.0" fill="rgb(255, 254, 200)" opacity="0.6858855"/>
    <path d="M 20.27171516418457 0.31970956921577454 C 17.592222213745117 10.319709777832031 10.27171516418457 17.640216827392578 0.27171510457992554 20.31970977783203 C -9.72828483581543 17.640216827392578 -17.048791885375977 10.319709777832031 -19.72828483581543 0.31970956921577454 C -17.048791885375977 -9.680290222167969 -9.72828483581543 -17.000797271728516 0.27171510457992554 -19.68029022216797 C 10.27171516418457 -17.000797271728516 17.592222213745117 -9.680290222167969 20.27171516418457 0.31970956921577454" stroke-width="0.0" fill="rgb(188, 164, 39)" opacity="0.72623396" stroke="rgb(96, 105, 10)" stroke-opacity="0.2739881" stroke-linecap="round" stroke-linejoin="round"/>
    <path d="M 20.027101516723633 0.6427496671676636 C 17.34760856628418 10.642749786376953 10.02710247039795 17.9632568359375 0.027102045714855194 20.642749786376953 C -9.97289752960205 17.9632568359375 -17.293405532836914 10.642749786376953 -19.972898483276367 0.6427496671676636 C -17.293405532836914 -9.357250213623047 -9.97289752960205 -16.677757263183594 0.027102045714855194 -19.357250213623047 C 10.02710247039795 -16.677757263183594 17.34760856628418 -9.357250213623047 20.027101516723633 0.6427496671676636" stroke-width="0.0" fill="rgb(170, 111, 243)" opacity="0.97904956" stroke="rgb(134, 66, 13)" stroke-opacity="0.7260848" stroke-linecap="round" stroke-linejoin="round"/>
    <path d="M 593.0089111328125 4.448201656341553 C 613.309326171875 147.21670532226562 584.9509887695312 206.87530517578125 452.01495361328125 293.8323974609375 C 419.1322937011719 106.97895050048828 636.5382080078125 154.57412719726562 417.9095764160156 259.52001953125 C 409.8061218261719 59.545169830322266 433.4967346191406 58.734336853027344 506.20355224609375 43.296043395996094 C 463.7445983886719 197.50949096679688 441.61773681640625 159.7443389892578 593.0089111328125 4.448201656341553" stroke-width="0.0" fill="rgb(255, 250, 204)" opacity="0.7264868"/>
    <path d="M 20.546133041381836 0.6032525897026062 C 17.866640090942383 10.603252410888672 10.54613208770752 17.92375946044922 0.5461323261260986 20.603252410888672 C -9.45386791229248 17.92375946044922 -16.77437400817871 10.603252410888672 -19.453866958618164 0.6032525897026062 C -16.77437400817871 -9.396747589111328 -9.45386791229248 -16.717254638671875 0.5461323261260986 -19.396747589111328 C 10.54613208770752 -16.717254638671875 17.866640090942383 -9.396747589111328 20.546133041381836 0.6032525897026062" stroke-width="0.0" fill="rgb(205, 215, 100)" opacity="0.8205629" stroke="rgb(171, 114, 190)" stroke-opacity="0.35698244" stroke-linecap="round" stroke-linejoin="round"/>
    <path d="M 122.24142456054688 57.650211334228516 C 196.7788848876953 -98.855224609375 202.87887573242188 -39.701881408691406 73.7411117553711 28.53218650817871 C 154.18502807617188 -7.109928607940674 203.27178955078125 1.0580159425735474 -29.864473342895508 172.2344970703125 C -7.154785633087158 75.37333679199219 124.661865234375 -26.598772048950195 138.85745239257812 -24.753162384033203 C 122.34822082519531 91.347900390625 168.7946014404297 19.42340850830078 122.24142456054688 57.650211334228516" stroke-width="0.0" fill="rgb(255, 250, 209)" opacity="0.023706917"/>
    <path d="M 20.89142608642578 0.6126523017883301 C 18.211933135986328 10.612651824951172 10.891426086425781 17.93315887451172 0.8914259076118469 20.612651824951172 C -9.108573913574219 17.93315887451172 -16.429080963134766 10.612651824951172 -19.10857391357422 0.6126523017883301 C -16.429080963134766 -9.387348175048828 -9.108573913574219 -16.707855224609375 0.8914259076118469 -19.387348175048828 C 10.891426086425781 -16.707855224609375 18.211933135986328 -9.387348175048828 20.89142608642578 0.6126523017883301" stroke-width="0.0" fill="rgb(87, 113, 172)" opacity="0.9584337" stroke="rgb(220, 2, 198)" stroke-opacity="0.4607336" stroke-linecap="round" stroke-linejoin="round"/>
    <path d="M 235.307373046875 -34.721736907958984 C 183.0536346435547 38.7254638671875 87.52068328857422 107.85175323486328 -69.45684051513672 254.07696533203125 C 14.543204307556152 23.283592224121094 54.5570182800293 61.37758255004883 107.36882781982422 57.88863754272461 C -84.18342590332031 244.4345703125 -47.66368103027344 188.2223358154297 105.91002655029297 45.4514274597168 C 97.4930648803711 77.47346496582031 33.35371398925781 65.75664520263672 235.307373046875 -34.721736907958984" stroke-width="0.0" fill="rgb(255, 250, 202)" opacity="0.23239881"/>
    <path d="M 188.50225830078125 22.224788665771484 C 246.00021362304688 4.782374858856201 239.07496643066406 -4.2271904945373535 251.63719177246094 -29.86896514892578 C 198.28457641601562 18.97532081604004 216.5575408935547 21.887828826904297 242.55142211914062 -8.65259075164795 C 212.2795867919922 -4.284999370574951 225.05819702148438 -10.368642807006836 226.68141174316406 -24.665353775024414 C 205.06834411621094 17.248414993286133 190.75572204589844 42.66071701049805 188.50225830078125 22.224788665771484" stroke-width="0.0" fill="rgb(97, 68, 36)" opacity="0.16562428"/>
    <path d="M 20.76581382751465 0.5212998390197754 C 18.086320877075195 10.521299362182617 10.765813827514648 17.841806411743164 0.7658137083053589 20.521299362182617 C -9.234186172485352 17.841806411743164 -16.5546932220459 10.521299362182617 -19.23418617248535 0.5212998390197754 C -16.5546932220459 -9.478700637817383 -9.234186172485352 -16.79920768737793 0.7658137083053589 -19.478700637817383 C 10.765813827514648 -16.79920768737793 18.086320877075195 -9.478700637817383 20.76581382751465 0.5212998390197754" stroke-width="0.0" fill="rgb(209, 138, 19)" opacity="0.7740883" stroke="rgb(219, 43, 217)" stroke-opacity="0.013228813" stroke-linecap="round" stroke-linejoin="round"/>
    <path d="M 158.19825744628906 442.1543884277344 C 133.11463928222656 511.7291259765625 89.51145935058594 466.8515930175781 57.78253173828125 554.508056640625 C -59.1988410949707 660.0877075195312 -95.5910873413086 556.567626953125 41.862510681152344 432.40380859375 C 83.73076629638672 422.6341552734375 98.26419830322266 463.99615478515625 80.92475891113281 448.3964538574219 C 138.77122497558594 373.57891845703125 144.62548828125 390.44049072265625 158.19825744628906 442.1543884277344" stroke-width="0.0" fill="rgb(255, 250, 205)" opacity="0.49325812"/>
    <path d="M 128.90966796875 329.0174865722656 C 52.39787292480469 349.56109619140625 12.904627799987793 354.2875671386719 48.67786407470703 347.6678771972656 C -2.3086273670196533 360.2472229003906 -4.579361915588379 338.42083740234375 159.6018524169922 182.31056213378906 C 72.80839538574219 211.46238708496094 143.42005920410156 347.11572265625 -49.9507942199707 368.0019226074219 C 82.52838897705078 438.05438232421875 140.57154846191406 402.2989501953125 128.90966796875 329.0174865722656" stroke-width="0.0" fill="rgb(255, 250, 210)" opacity="0.04407134"/>
    <path d="M 287.15155029296875 411.07855224609375 C 238.17787170410156 444.00830078125 258.5547180175781 402.53741455078125 189.86012268066406 412.8646240234375 C 199.43751525878906 433.5431213378906 195.4850311279297 433.5865783691406 192.31703186035156 379.6973876953125 C 138.0370635986328 354.853271484375 68.89273834228516 281.9337158203125 275.1032409667969 300.8365478515625 C 261.4552001953125 398.31317138671875 235.92359924316406 274.35443115234375 287.15155029296875 411.07855224609375" stroke-width="0.0" fill="rgb(159, 255, 216)" opacity="0.99693114"/>
    <path d="M 589.5751953125 102.50389099121094 C 550.1358642578125 72.99323272705078 573.908935546875 72.46297454833984 627.941162109375 104.6651611328125 C 557.73486328125 121.15383911132812 552.1358642578125 90.06192016601562 553.57177734375 31.843202590942383 C 577.923583984375 44.399070739746094 579.3136596679688 53.73934555053711 590.814697265625 89.09131622314453 C 641.2553100585938 37.40329360961914 672.3359985351562 43.21044158935547 589.5751953125 102.50389099121094" stroke-width="0.0" fill="rgb(247, 246, 212)" opacity="0.016559118"/>
    <path d="M 437.9079284667969 178.85130310058594 C 433.48187255859375 163.37948608398438 432.60369873046875 169.65798950195312 433.409912109375 183.42897033691406 C 386.5832824707031 244.24815368652344 365.8537902832031 230.00192260742188 355.0126647949219 169.22682189941406 C 359.1387939453125 91.53125762939453 383.28155517578125 95.81893920898438 380.8892822265625 94.81562805175781 C 442.5200500488281 48.54903030395508 501.29168701171875 92.65130615234375 437.9079284667969 178.85130310058594" stroke-width="0.0" fill="rgb(254, 251, 198)" opacity="0.9991406"/>
    <path d="M 338.85662841796875 385.0011291503906 C 338.3111877441406 369.0015563964844 332.3660583496094 373.01171875 338.325439453125 401.5542907714844 C 328.37445068359375 362.47943115234375 358.4955749511719 372.1739196777344 276.2858581542969 368.3614501953125 C 240.3013458251953 388.203369140625 332.7798767089844 390.5990295410156 334.9191589355469 378.6959228515625 C 336.0193786621094 368.6497497558594 337.01812744140625 370.375 338.85662841796875 385.0011291503906" stroke-width="0.0" fill="rgb(224, 69, 2)" opacity="0.97946256"/>
    <path d="M 636.6408081054688 196.79714965820312 C 486.11370849609375 300.499267578125 493.68402099609375 322.1775817871094 542.5013427734375 347.6434326171875 C 654.3271484375 261.8529968261719 606.6746215820312 192.9457550048828 481.7107238769531 306.60394287109375 C 467.7255554199219 326.5950012207031 472.49603271484375 339.58746337890625 460.6971740722656 315.75408935546875 C 469.8352966308594 278.9726257324219 503.6690673828125 245.169677734375 636.6408081054688 196.79714965820312" stroke-width="0.0" fill="rgb(253, 245, 212)" opacity="0.5735583"/>
    <path d="M 283.58660888671875 40.87313461303711 C 220.73106384277344 37.51882553100586 212.5021209716797 32.33677291870117 174.3492889404297 35.992828369140625 C 180.74273681640625 -48.26077651977539 184.912353515625 -72.3687515258789 240.60995483398438 -32.821632385253906 C 137.50018310546875 44.74674606323242 179.7714080810547 -24.467304229736328 220.6102752685547 -43.95096969604492 C 256.5310974121094 3.9498589038848877 319.20281982421875 25.627159118652344 283.58660888671875 40.87313461303711" stroke-width="0.0" fill="rgb(255, 255, 178)" opacity="0.9793703"/>
    <path d="M 20.540151596069336 0.13837406039237976 C 17.860658645629883 10.138374328613281 10.540152549743652 17.458881378173828 0.5401522517204285 20.13837432861328 C -9.459847450256348 17.458881378173828 -16.78035545349121 10.138374328613281 -19.459848403930664 0.13837406039237976 C -16.78035545349121 -9.861625671386719 -9.459847450256348 -17.182132720947266 0.5401522517204285 -19.86162567138672 C 10.540152549743652 -17.182132720947266 17.860658645629883 -9.861625671386719 20.540151596069336 0.13837406039237976" stroke-width="0.0" fill="rgb(243, 243, 89)" opacity="0.7537285" stroke="rgb(100, 241, 36)" stroke-opacity="0.76351583" stroke-linecap="round" stroke-linejoin="round"/>
    <path d="M 486.167236328125 157.03355407714844 C 427.3555603027344 148.91600036621094 436.9559631347656 111.9432373046875 436.9988708496094 41.738887786865234 C 506.07122802734375 -30.38608741760254 550.6864624023438 -1.3834378719329834 413.7084655761719 96.23027801513672 C 410.56695556640625 71.59100341796875 426.2931213378906 111.89310455322266 479.5515441894531 16.491485595703125 C 551.2352294921875 -9.502653121948242 526.1076049804688 34.4207878112793 486.167236328125 157.03355407714844" stroke-width="0.0" fill="rgb(255, 252, 203)" opacity="0.31502056"/>
    <path d="M 435.8061828613281 97.52838897705078 C 389.8571472167969 109.93326568603516 305.9284362792969 134.7341766357422 409.65472412109375 82.22329711914062 C 439.0269470214844 76.04644012451172 385.3028869628906 83.37621307373047 380.71173095703125 107.29779052734375 C 460.12762451171875 40.523250579833984 411.9375 126.24559020996094 428.1866455078125 84.32007598876953 C 471.8978576660156 36.20991516113281 482.2319030761719 112.85562896728516 435.8061828613281 97.52838897705078" stroke-width="0.0" fill="rgb(255, 251, 198)" opacity="0.3097621"/>
    <path d="M 101.83699798583984 402.4305725097656 C 92.02147674560547 373.6835021972656 94.90299224853516 392.7453308105469 89.58863830566406 419.0121765136719 C 48.70504379272461 472.93121337890625 7.824587821960449 519.2239990234375 -133.97824096679688 417.5229187011719 C -28.959516525268555 297.974365234375 22.89096450805664 321.58782958984375 116.07897186279297 335.8315124511719 C 115.81314849853516 361.67840576171875 121.84949493408203 382.8885803222656 101.83699798583984 402.4305725097656" stroke-width="0.0" fill="rgb(254, 251, 202)" opacity="1.0"/>
    <path d="M 216.4197540283203 266.9980163574219 C 173.63351440429688 274.5144348144531 161.7422637939453 289.1704406738281 155.95172119140625 316.5296630859375 C 156.78155517578125 345.46881103515625 158.22113037109375 409.72735595703125 138.09469604492188 340.16741943359375 C 144.44810485839844 287.0438537597656 157.6829071044922 273.69708251953125 174.30313110351562 262.35736083984375 C 186.08511352539062 261.3408508300781 226.40499877929688 243.71072387695312 216.4197540283203 266.9980163574219" stroke-width="0.0" fill="rgb(0, 6, 25)" opacity="1.0"/>
    <path d="M 20.85344886779785 0.9534303545951843 C 18.1739559173584 10.95343017578125 10.853447914123535 18.273937225341797 0.8534479737281799 20.95343017578125 C -9.146552085876465 18.273937225341797 -16.467058181762695 10.95343017578125 -19.14655113220215 0.9534303545951843 C -16.467058181762695 -9.04656982421875 -9.146552085876465 -16.367076873779297 0.8534479737281799 -19.04656982421875 C 10.853447914123535 -16.367076873779297 18.1739559173584 -9.04656982421875 20.85344886779785 0.9534303545951843" stroke-width="0.0" fill="rgb(108, 87, 245)" opacity="0.8467145" stroke="rgb(89, 231, 145)" stroke-opacity="0.7621746" stroke-linecap="round" stroke-linejoin="round"/>
    <path d="M 20.220539093017578 0.2194216400384903 C 17.541046142578125 10.21942138671875 10.220539093017578 17.539928436279297 0.2205386906862259 20.21942138671875 C -9.779460906982422 17.539928436279297 -17.09996795654297 10.21942138671875 -19.779460906982422 0.2194216400384903 C -17.09996795654297 -9.78057861328125 -9.779460906982422 -17.101085662841797 0.2205386906862259 -19.78057861328125 C 10.220539093017578 -17.101085662841797 17.541046142578125 -9.78057861328125 20.220539093017578 0.2194216400384903" stroke-width="0.0" fill="rgb(161, 47, 191)" opacity="0.7612193" stroke="rgb(74, 190, 123)" stroke-opacity="0.21603145" stroke-linecap="round" stroke-linejoin="round"/>
    <path d="M 333.1446838378906 140.55699157714844 C 333.3143310546875 128.85862731933594 292.92535400390625 142.8118896484375 299.88128662109375 130.79640197753906 C 259.1033630371094 132.63525390625 260.73760986328125 149.02658081054688 253.47633361816406 116.63124084472656 C 243.36880493164062 90.72259521484375 240.28875732421875 85.39818572998047 262.6494445800781 83.09784698486328 C 293.7613220214844 107.44007110595703 298.5889587402344 116.76913452148438 333.1446838378906 140.55699157714844" stroke-width="0.0" fill="rgb(167, 254, 219)" opacity="0.9782594"/>
    <path d="M 487.48431396484375 418.0585021972656 C 712.914306640625 243.228271484375 504.4191589355469 511.5133972167969 520.8967895507812 426.13177490234375 C 384.20263671875 513.9876708984375 527.2727661132812 307.4835205078125 466.3125 436.7785949707031 C 460.8026123046875 362.0169372558594 463.2620849609375 367.07733154296875 540.0259399414062 379.3456726074219 C 501.1934814453125 516.3204956054688 506.71502685546875 421.06103515625 487.48431396484375 418.0585021972656" stroke-width="0.0" fill="rgb(246, 231, 237)" opacity="0.09675648"/>
    <path d="M 342.3381042480469 6.651465892791748 C 341.3986511230469 57.84235763549805 239.47694396972656 50.49053192138672 300.4475402832031 -15.846142768859863 C 306.0033264160156 4.334807395935059 234.32888793945312 83.80079650878906 235.6322784423828 12.463494300842285 C 230.40457153320312 8.413166999816895 249.7415313720703 -19.53923797607422 280.392333984375 -19.07636070251465 C 323.4841613769531 -9.06788444519043 355.1908874511719 -16.057270050048828 342.3381042480469 6.651465892791748" stroke-width="0.0" fill="rgb(255, 255, 180)" opacity="0.72909945"/>
    <path d="M 583.7171630859375 225.31735229492188 C 528.318115234375 318.3392333984375 490.3045654296875 356.9574890136719 452.5776672363281 301.42559814453125 C 460.2242431640625 216.61947631835938 478.79486083984375 170.3758087158203 455.01153564453125 260.28692626953125 C 424.13909912109375 232.18417358398438 424.3169860839844 246.467041015625 555.2506713867188 212.7508087158203 C 533.8453979492188 309.5587158203125 483.77581787109375 176.48556518554688 583.7171630859375 225.31735229492188" stroke-width="0.0" fill="rgb(255, 248, 204)" opacity="0.76377195"/>
    <path d="M 361.6656799316406 216.07211303710938 C 349.91552734375 208.23635864257812 363.3202819824219 225.7493896484375 363.39324951171875 253.4832305908203 C 342.4615783691406 201.8563690185547 270.40240478515625 175.2561798095703 256.38983154296875 190.9235076904297 C 244.7559051513672 147.79298400878906 324.014404296875 160.2767333984375 357.3370056152344 151.36402893066406 C 335.266845703125 156.23297119140625 370.16619873046875 198.1251983642578 361.6656799316406 216.07211303710938" stroke-width="0.0" fill="rgb(63, 219, 172)" opacity="0.99688286"/>
    <path d="M 106.24671936035156 -19.78169059753418 C 52.27711868286133 13.996027946472168 50.574302673339844 30.710477828979492 -6.2491021156311035 116.42672729492188 C -22.606647491455078 97.91773223876953 -10.7504301071167 78.45696258544922 -30.92392921447754 2.7843496799468994 C 1.6504952907562256 -22.22439193725586 34.81382751464844 2.7974607944488525 60.62288284301758 -9.032517433166504 C 89.3299789428711 -18.802209854125977 101.432373046875 -26.179790496826172 106.24671936035156 -19.78169059753418" stroke-width="0.0" fill="rgb(251, 254, 201)" opacity="0.18955523"/>
    <path d="M 20.719274520874023 0.5047781467437744 C 18.03978157043457 10.504777908325195 10.719273567199707 17.825284957885742 0.7192739844322205 20.504777908325195 C -9.280726432800293 17.825284957885742 -16.601232528686523 10.504777908325195 -19.280725479125977 0.5047781467437744 C -16.601232528686523 -9.495222091674805 -9.280726432800293 -16.81572914123535 0.7192739844322205 -19.495222091674805 C 10.719273567199707 -16.81572914123535 18.03978157043457 -9.495222091674805 20.719274520874023 0.5047781467437744" stroke-width="0.0" fill="rgb(252, 123, 251)" opacity="0.7745815" stroke="rgb(137, 252, 218)" stroke-opacity="0.09736689" stroke-linecap="round" stroke-linejoin="round"/>
    <path d="M 388.561279296875 68.0072250366211 C 358.1428527832031 82.92244720458984 354.25311279296875 97.2513427734375 351.0310974121094 119.24072265625 C 325.6690368652344 81.26438903808594 284.00909423828125 109.66756439208984 234.0639190673828 65.90867614746094 C 334.4929504394531 55.11662292480469 341.8601379394531 69.46715545654297 330.033447265625 68.67977142333984 C 312.5968017578125 58.524898529052734 373.26031494140625 67.83003997802734 388.561279296875 68.0072250366211" stroke-width="0.0" fill="rgb(0, 156, 132)" opacity="1.0"/>
    <path d="M 323.9328918457031 567.4261474609375 C 298.9184265136719 571.3850708007812 262.5812072753906 563.62646484375 227.483154296875 566.6410522460938 C 258.7732238769531 523.9370727539062 264.6925354003906 532.7162475585938 290.45343017578125 546.74609375 C 265.565673828125 555.751220703125 224.93959045410156 561.5460205078125 243.7307586669922 520.1050415039062 C 283.74896240234375 518.3145141601562 306.0511779785156 527.5438842773438 323.9328918457031 567.4261474609375" stroke-width="0.0" fill="rgb(162, 255, 229)" opacity="1.0"/>
    <path d="M 300.66192626953125 538.4982299804688 C 313.3923034667969 573.038330078125 302.8804931640625 581.56298828125 271.8259582519531 569.8627319335938 C 181.236572265625 566.134033203125 218.78761291503906 587.97607421875 234.64663696289062 516.0928955078125 C 257.03387451171875 512.8710327148438 301.8558654785156 505.3536376953125 303.4822082519531 548.8285522460938 C 275.069580078125 544.3168334960938 246.58543395996094 546.0359497070312 300.66192626953125 538.4982299804688" stroke-width="0.0" fill="rgb(173, 254, 218)" opacity="1.0"/>
    <path d="M 367.8451232910156 90.37049102783203 C 341.7933044433594 100.46037292480469 336.0758972167969 155.9695281982422 344.499755859375 201.1225128173828 C 363.3360900878906 263.7378234863281 393.8996887207031 260.65185546875 361.6395263671875 202.1050262451172 C 351.6830749511719 164.50570678710938 356.445556640625 146.52061462402344 354.7848815917969 125.57413482666016 C 335.2638854980469 117.73986053466797 363.21014404296875 161.01589965820312 367.8451232910156 90.37049102783203" stroke-width="0.0" fill="rgb(0, 3, 18)" opacity="0.9935569"/>
    <path d="M 355.062744140625 172.00186157226562 C 412.4573669433594 104.25421142578125 386.14337158203125 138.23284912109375 349.00164794921875 180.1537628173828 C 387.1907958984375 150.211181640625 312.914306640625 186.09609985351562 243.1865692138672 162.74900817871094 C 305.125244140625 115.16796112060547 384.9190368652344 148.07667541503906 353.8229675292969 121.74601745605469 C 362.4076232910156 101.10501861572266 351.3941650390625 166.83828735351562 355.062744140625 172.00186157226562" stroke-width="0.0" fill="rgb(32, 2, 1)" opacity="0.46901843"/>
    <path d="M 20.435836791992188 0.029024820774793625 C 17.756343841552734 10.029025077819824 10.435835838317871 17.349531173706055 0.43583598732948303 20.029024124145508 C -9.564164161682129 17.349531173706055 -16.88467025756836 10.029025077819824 -19.564163208007812 0.029024820774793625 C -16.88467025756836 -9.970974922180176 -9.564164161682129 -17.29148292541504 0.43583598732948303 -19.970975875854492 C 10.435835838317871 -17.29148292541504 17.756343841552734 -9.970974922180176 20.435836791992188 0.029024820774793625" stroke-width="0.0" fill="rgb(246, 182, 244)" opacity="0.84253013" stroke="rgb(228, 133, 180)" stroke-opacity="0.2521729" stroke-linecap="round" stroke-linejoin="round"/>
    <path d="M 584.9287719726562 406.9404602050781 C 568.5000610351562 396.1536560058594 570.5916748046875 407.79425048828125 505.1987609863281 408.61505126953125 C 465.94439697265625 411.22039794921875 514.541748046875 363.1496887207031 503.64312744140625 325.8019104003906 C 498.33416748046875 361.20660400390625 507.83966064453125 315.5563049316406 565.1837768554688 329.5954895019531 C 582.1412353515625 346.2360534667969 575.6044921875 355.6513671875 584.9287719726562 406.9404602050781" stroke-width="0.0" fill="rgb(252, 240, 218)" opacity="0.2357044"/>
    <path d="M 582.955322265625 304.4004821777344 C 557.4384155273438 269.0340576171875 568.8663330078125 315.63037109375 562.720458984375 302.8239440917969 C 457.7525329589844 372.22137451171875 434.42547607421875 324.9308776855469 486.68304443359375 249.14910888671875 C 574.8067626953125 256.41748046875 592.2935180664062 241.13844299316406 583.189453125 289.8228454589844 C 655.2894287109375 261.2541198730469 662.4821166992188 263.6068420410156 582.955322265625 304.4004821777344" stroke-width="0.0" fill="rgb(251, 248, 208)" opacity="0.64945006"/>
    <path d="M 595.1053466796875 268.6476745605469 C 551.16357421875 276.3290100097656 537.2276000976562 257.71795654296875 533.3853149414062 258.6901550292969 C 552.759033203125 284.8370056152344 535.4086303710938 267.33929443359375 531.531982421875 184.956787109375 C 596.0769653320312 194.79388427734375 589.3287353515625 216.53184509277344 565.4802856445312 219.71566772460938 C 627.002685546875 176.81082153320312 664.79638671875 208.70318603515625 595.1053466796875 268.6476745605469" stroke-width="0.0" fill="rgb(254, 249, 205)" opacity="0.68435186"/>
    <path d="M 20.830568313598633 0.5478719472885132 C 18.15107536315918 10.547871589660645 10.83056926727295 17.868379592895508 0.8305691480636597 20.54787254333496 C -9.16943073272705 17.868379592895508 -16.489938735961914 10.547871589660645 -19.169431686401367 0.5478719472885132 C -16.489938735961914 -9.452128410339355 -9.16943073272705 -16.772634506225586 0.8305691480636597 -19.45212745666504 C 10.83056926727295 -16.772634506225586 18.15107536315918 -9.452128410339355 20.830568313598633 0.5478719472885132" stroke-width="0.0" fill="rgb(180, 88, 1)" opacity="0.77042633" stroke="rgb(208, 86, 211)" stroke-opacity="0.00059793884" stroke-linecap="round" stroke-linejoin="round"/>
    <path d="M 20.856731414794922 0.7655946016311646 C 18.17723846435547 10.765594482421875 10.856732368469238 18.086101531982422 0.8567320108413696 20.765594482421875 C -9.143267631530762 18.086101531982422 -16.463775634765625 10.765594482421875 -19.143268585205078 0.7655946016311646 C -16.463775634765625 -9.234405517578125 -9.143267631530762 -16.554912567138672 0.8567320108413696 -19.234405517578125 C 10.856732368469238 -16.554912567138672 18.17723846435547 -9.234405517578125 20.856731414794922 0.7655946016311646" stroke-width="0.0" fill="rgb(78, 236, 41)" opacity="0.7617383" stroke="rgb(189, 139, 225)" stroke-opacity="0.5539933" stroke-linecap="round" stroke-linejoin="round"/>
    <path d="M 104.90447235107422 311.6856994628906 C 89.67689514160156 250.5582275390625 114.8487548828125 223.9718475341797 116.0035629272461 330.15850830078125 C 102.84489440917969 367.2525939941406 88.38166809082031 444.3976745605469 -79.7168197631836 320.13262939453125 C 17.766550064086914 245.33529663085938 8.04029369354248 230.34962463378906 81.91460418701172 177.79100036621094 C 113.09078216552734 224.2725830078125 173.31016540527344 214.463623046875 104.90447235107422 311.6856994628906" stroke-width="0.0" fill="rgb(255, 251, 203)" opacity="0.6834975"/>
    <path d="M 578.4583740234375 436.1592102050781 C 692.3497314453125 324.4341735839844 465.90008544921875 541.26513671875 603.4675903320312 399.042236328125 C 494.26776123046875 531.554931640625 443.7715148925781 489.529541015625 534.4714965820312 362.825927734375 C 584.3406372070312 397.2417297363281 578.4091796875 382.53948974609375 575.4495849609375 416.70941162109375 C 605.9437255859375 319.1639709472656 582.86572265625 331.6908264160156 578.4583740234375 436.1592102050781" stroke-width="0.0" fill="rgb(250, 234, 225)" opacity="0.104259685"/>
    <path d="M 325.6886291503906 595.7694702148438 C 320.8103332519531 583.2527465820312 300.8861083984375 593.9305419921875 283.1988220214844 599.9878540039062 C 298.1072082519531 598.1558227539062 260.91082763671875 609.6428833007812 275.4762268066406 615.4495239257812 C 360.33880615234375 559.3628540039062 236.26748657226562 680.2328491210938 314.9286804199219 613.060546875 C 372.02398681640625 595.7769165039062 355.7860412597656 587.5819091796875 325.6886291503906 595.7694702148438" stroke-width="0.0" fill="rgb(240, 240, 133)" opacity="0.63758975"/>
    <path d="M 166.2332000732422 253.7328643798828 C 86.815185546875 269.231689453125 46.37828826904297 271.1929016113281 39.94497299194336 283.8114318847656 C 42.937477111816406 352.0142822265625 -76.01957702636719 245.54434204101562 -17.7767391204834 230.26490783691406 C 33.76785659790039 206.45852661132812 27.350799560546875 227.12513732910156 15.420068740844727 200.2515106201172 C 105.37395477294922 125.72236633300781 197.2364959716797 135.13616943359375 166.2332000732422 253.7328643798828" stroke-width="0.0" fill="rgb(254, 248, 202)" opacity="0.56287986"/>
    <path d="M 20.380380630493164 0.005896083544939756 C 17.70088768005371 10.005895614624023 10.380380630493164 17.32640266418457 0.3803810179233551 20.005895614624023 C -9.619619369506836 17.32640266418457 -16.940126419067383 10.005895614624023 -19.619619369506836 0.005896083544939756 C -16.940126419067383 -9.994104385375977 -9.619619369506836 -17.314611434936523 0.3803810179233551 -19.994104385375977 C 10.380380630493164 -17.314611434936523 17.70088768005371 -9.994104385375977 20.380380630493164 0.005896083544939756" stroke-width="0.0" fill="rgb(136, 49, 42)" opacity="0.79835147" stroke="rgb(94, 193, 86)" stroke-opacity="0.9520624" stroke-linecap="round" stroke-linejoin="round"/>
    <path d="M 20.62674903869629 0.2745974361896515 C 17.947256088256836 10.27459716796875 10.626748085021973 17.595104217529297 0.6267484426498413 20.27459716796875 C -9.373251914978027 17.595104217529297 -16.693758010864258 10.27459716796875 -19.37325096130371 0.2745974361896515 C -16.693758010864258 -9.72540283203125 -9.373251914978027 -17.045909881591797 0.6267484426498413 -19.72540283203125 C 10.626748085021973 -17.045909881591797 17.947256088256836 -9.72540283203125 20.62674903869629 0.2745974361896515" stroke-width="0.0" fill="rgb(130, 196, 238)" opacity="0.94588745" stroke="rgb(226, 50, 72)" stroke-opacity="0.28896853" stroke-linecap="round" stroke-linejoin="round"/>
    <path d="M 20.45646095275879 0.8014165759086609 C 17.776968002319336 10.801416397094727 10.456461906433105 18.121923446655273 0.4564618170261383 20.801416397094727 C -9.543538093566895 18.121923446655273 -16.864046096801758 10.801416397094727 -19.54353904724121 0.8014165759086609 C -16.864046096801758 -9.198583602905273 -9.543538093566895 -16.51909065246582 0.4564618170261383 -19.198583602905273 C 10.456461906433105 -16.51909065246582 17.776968002319336 -9.198583602905273 20.45646095275879 0.8014165759086609" stroke-width="0.0" fill="rgb(106, 56, 0)" opacity="0.9531638" stroke="rgb(189, 42, 30)" stroke-opacity="0.06760475" stroke-linecap="round" stroke-linejoin="round"/>
    <path d="M 290.0115661621094 247.55825805664062 C 264.07470703125 259.8584899902344 235.21871948242188 266.3915710449219 228.14085388183594 249.31118774414062 C 254.28518676757812 253.96189880371094 237.43251037597656 257.5931701660156 223.0827178955078 253.97727966308594 C 244.28001403808594 229.5927276611328 238.9745635986328 221.7141876220703 288.7266540527344 230.37562561035156 C 296.43780517578125 229.302978515625 295.453857421875 274.58612060546875 290.0115661621094 247.55825805664062" stroke-width="0.0" fill="rgb(210, 249, 213)" opacity="0.95254743"/>
    <path d="M 20.897207260131836 0.7436554431915283 C 18.217714309692383 10.74365520477295 10.897208213806152 18.064163208007812 0.8972080945968628 20.743656158447266 C -9.102791786193848 18.064163208007812 -16.42329978942871 10.74365520477295 -19.102792739868164 0.7436554431915283 C -16.42329978942871 -9.25634479522705 -9.102791786193848 -16.57685089111328 0.8972080945968628 -19.256343841552734 C 10.897208213806152 -16.57685089111328 18.217714309692383 -9.25634479522705 20.897207260131836 0.7436554431915283" stroke-width="0.0" fill="rgb(78, 61, 59)" opacity="0.75613725" stroke="rgb(141, 74, 106)" stroke-opacity="0.37686688" stroke-linecap="round" stroke-linejoin="round"/>
    <path d="M 281.7882995605469 252.53077697753906 C 234.27304077148438 251.79354858398438 253.28912353515625 251.29669189453125 252.5962371826172 237.75674438476562 C 281.4261474609375 251.35345458984375 302.76422119140625 252.1380157470703 287.4540100097656 246.34674072265625 C 208.11468505859375 258.3194274902344 248.07406616210938 227.744140625 306.2491455078125 232.62930297851562 C 322.164306640625 240.41900634765625 330.12261962890625 248.79183959960938 281.7882995605469 252.53077697753906" stroke-width="0.0" fill="rgb(90, 252, 190)" opacity="1.0"/>
    <path d="M 294.03814697265625 253.4846954345703 C 253.1031036376953 251.91847229003906 259.51129150390625 263.755126953125 216.1417999267578 256.1893615722656 C 251.82432556152344 225.54629516601562 251.39974975585938 190.99685668945312 241.02874755859375 247.8267059326172 C 244.30807495117188 265.6494140625 203.17698669433594 226.88027954101562 274.75701904296875 236.71417236328125 C 262.13665771484375 216.18336486816406 272.5804138183594 243.21334838867188 294.03814697265625 253.4846954345703" stroke-width="0.0" fill="rgb(196, 254, 220)" opacity="0.97698754"/>
    <path d="M 249.7123565673828 351.8739929199219 C 243.0076446533203 347.7063903808594 244.24264526367188 357.0608825683594 267.7663269042969 339.0354919433594 C 248.85009765625 363.2945556640625 234.50306701660156 350.2431945800781 249.17349243164062 354.8902282714844 C 244.8985137939453 355.7462158203125 232.40785217285156 355.9165954589844 259.59967041015625 350.0800476074219 C 281.0901184082031 351.18017578125 253.85511779785156 362.40277099609375 249.7123565673828 351.8739929199219" stroke-width="0.0" fill="rgb(145, 52, 59)" opacity="0.34075537"/>
    <path d="M 20.415773391723633 0.20683439075946808 C 17.73628044128418 10.20683479309082 10.41577434539795 17.527341842651367 0.41577422618865967 20.20683479309082 C -9.58422565460205 17.527341842651367 -16.904733657836914 10.20683479309082 -19.584226608276367 0.20683439075946808 C -16.904733657836914 -9.79316520690918 -9.58422565460205 -17.113672256469727 0.41577422618865967 -19.79316520690918 C 10.41577434539795 -17.113672256469727 17.73628044128418 -9.79316520690918 20.415773391723633 0.20683439075946808" stroke-width="0.0" fill="rgb(153, 177, 92)" opacity="0.7612263" stroke="rgb(119, 204, 45)" stroke-opacity="0.10986312" stroke-linecap="round" stroke-linejoin="round"/>
    <path d="M 248.4322509765625 458.919921875 C 189.80743408203125 447.95062255859375 189.94558715820312 438.2370300292969 165.45851135253906 388.2003479003906 C 201.2876739501953 406.96710205078125 218.98214721679688 398.4429931640625 217.5498809814453 425.6177062988281 C 176.93492126464844 430.01751708984375 173.2522430419922 410.7994689941406 198.76947021484375 408.2987365722656 C 177.30931091308594 422.143310546875 182.76678466796875 441.07244873046875 248.4322509765625 458.919921875" stroke-width="0.0" fill="rgb(65, 178, 164)" opacity="0.7584551"/>
    <path d="M 20.420143127441406 0.904838502407074 C 17.740650177001953 10.904838562011719 10.420143127441406 18.225345611572266 0.4201435148715973 20.90483856201172 C -9.579856872558594 18.225345611572266 -16.90036392211914 10.904838562011719 -19.579856872558594 0.904838502407074 C -16.90036392211914 -9.095161437988281 -9.579856872558594 -16.415668487548828 0.4201435148715973 -19.09516143798828 C 10.420143127441406 -16.415668487548828 17.740650177001953 -9.095161437988281 20.420143127441406 0.904838502407074" stroke-width="0.0" fill="rgb(225, 87, 174)" opacity="0.9070141" stroke="rgb(80, 14, 155)" stroke-opacity="0.24080382" stroke-linecap="round" stroke-linejoin="round"/>
    <path d="M 20.394020080566406 0.5643919706344604 C 17.714527130126953 10.56439208984375 10.394020080566406 17.884899139404297 0.3940202593803406 20.56439208984375 C -9.605979919433594 17.884899139404297 -16.92648696899414 10.56439208984375 -19.605979919433594 0.5643919706344604 C -16.92648696899414 -9.43560791015625 -9.605979919433594 -16.756114959716797 0.3940202593803406 -19.43560791015625 C 10.394020080566406 -16.756114959716797 17.714527130126953 -9.43560791015625 20.394020080566406 0.5643919706344604" stroke-width="0.0" fill="rgb(180, 136, 162)" opacity="0.76352376" stroke="rgb(10, 82, 142)" stroke-opacity="0.8579349" stroke-linecap="round" stroke-linejoin="round"/>
    <path d="M 20.404315948486328 0.16504472494125366 C 17.724822998046875 10.165044784545898 10.404316902160645 17.485551834106445 0.40431666374206543 20.1650447845459 C -9.595683097839355 17.485551834106445 -16.91619110107422 10.165044784545898 -19.595684051513672 0.16504472494125366 C -16.91619110107422 -9.834955215454102 -9.595683097839355 -17.15546226501465 0.40431666374206543 -19.8349552154541 C 10.404316902160645 -17.15546226501465 17.724822998046875 -9.834955215454102 20.404315948486328 0.16504472494125366" stroke-width="0.0" fill="rgb(140, 39, 185)" opacity="0.9193752" stroke="rgb(196, 248, 146)" stroke-opacity="0.3416411" stroke-linecap="round" stroke-linejoin="round"/>
    <path d="M 20.58407974243164 0.6955229640007019 C 17.904586791992188 10.695523262023926 10.58407974243164 18.016029357910156 0.584079384803772 20.69552230834961 C -9.41592025756836 18.016029357910156 -16.736427307128906 10.695523262023926 -19.41592025756836 0.6955229640007019 C -16.736427307128906 -9.304476737976074 -9.41592025756836 -16.624984741210938 0.584079384803772 -19.30447769165039 C 10.58407974243164 -16.624984741210938 17.904586791992188 -9.304476737976074 20.58407974243164 0.6955229640007019" stroke-width="0.0" fill="rgb(98, 20, 37)" opacity="0.7269279" stroke="rgb(232, 1, 123)" stroke-opacity="0.12324746" stroke-linecap="round" stroke-linejoin="round"/>
    <path d="M 20.077484130859375 0.2857281565666199 C 17.397991180419922 10.285728454589844 10.077483177185059 17.60623550415039 0.07748335599899292 20.285728454589844 C -9.922516822814941 17.60623550415039 -17.243022918701172 10.285728454589844 -19.922515869140625 0.2857281565666199 C -17.243022918701172 -9.714271545410156 -9.922516822814941 -17.034778594970703 0.07748335599899292 -19.714271545410156 C 10.077483177185059 -17.034778594970703 17.397991180419922 -9.714271545410156 20.077484130859375 0.2857281565666199" stroke-width="0.0" fill="rgb(96, 100, 138)" opacity="0.907374" stroke="rgb(42, 79, 128)" stroke-opacity="0.79644054" stroke-linecap="round" stroke-linejoin="round"/>
    <path d="M 413.1511535644531 277.2971496582031 C 459.230712890625 323.10101318359375 444.3310241699219 390.39129638671875 344.66412353515625 335.479736328125 C 274.8523864746094 265.48992919921875 272.5405578613281 391.1968078613281 274.3553161621094 278.5026550292969 C 360.1227111816406 267.5332946777344 364.87469482421875 268.8898620605469 370.7986755371094 288.43231201171875 C 345.08868408203125 270.9603576660156 355.4601745605469 261.6695251464844 413.1511535644531 277.2971496582031" stroke-width="0.0" fill="rgb(0, 193, 180)" opacity="0.3881392"/>
    <path d="M 202.72439575195312 420.2354736328125 C 181.10923767089844 423.7861022949219 165.31126403808594 434.1795654296875 215.237060546875 434.8194274902344 C 176.82357788085938 415.7690734863281 173.58428955078125 390.2692565917969 148.88101196289062 398.12664794921875 C 178.1314239501953 389.2281799316406 160.4360809326172 422.6192321777344 131.4066925048828 379.0538635253906 C 184.52545166015625 387.85186767578125 194.88287353515625 421.07330322265625 202.72439575195312 420.2354736328125" stroke-width="0.0" fill="rgb(16, 28, 73)" opacity="0.008531506"/>
    <path d="M 20.419021606445312 0.7475156784057617 C 17.73952865600586 10.747515678405762 10.419021606445312 18.068023681640625 0.41902127861976624 20.747516632080078 C -9.580978393554688 18.068023681640625 -16.901485443115234 10.747515678405762 -19.580978393554688 0.7475156784057617 C -16.901485443115234 -9.252484321594238 -9.580978393554688 -16.57299041748047 0.41902127861976624 -19.252483367919922 C 10.419021606445312 -16.57299041748047 17.73952865600586 -9.252484321594238 20.419021606445312 0.7475156784057617" stroke-width="0.0" fill="rgb(207, 87, 110)" opacity="0.8089766" stroke="rgb(202, 239, 158)" stroke-opacity="0.7416273" stroke-linecap="round" stroke-linejoin="round"/>
    <path d="M 20.23126220703125 0.693949818611145 C 17.551769256591797 10.693949699401855 10.231261253356934 18.01445770263672 0.2312614768743515 20.693950653076172 C -9.768738746643066 18.01445770263672 -17.089244842529297 10.693949699401855 -19.76873779296875 0.693949818611145 C -17.089244842529297 -9.306050300598145 -9.768738746643066 -16.626556396484375 0.2312614768743515 -19.306049346923828 C 10.231261253356934 -16.626556396484375 17.551769256591797 -9.306050300598145 20.23126220703125 0.693949818611145" stroke-width="0.0" fill="rgb(27, 250, 97)" opacity="0.80277735" stroke="rgb(160, 48, 37)" stroke-opacity="0.93806416" stroke-linecap="round" stroke-linejoin="round"/>
    <path d="M 354.93365478515625 235.14491271972656 C 408.7056579589844 263.3916015625 351.4143371582031 269.46484375 297.697265625 238.29014587402344 C 308.36376953125 239.65074157714844 278.5213928222656 262.7005615234375 293.9141540527344 240.00657653808594 C 317.74127197265625 225.30987548828125 308.5134582519531 266.0024719238281 302.3033447265625 174.23912048339844 C 312.3828125 181.2530517578125 351.10955810546875 169.07752990722656 354.93365478515625 235.14491271972656" stroke-width="0.0" fill="rgb(13, 196, 189)" opacity="0.9982469"/>
    <path d="M 20.35175895690918 0.7534751296043396 C 17.672266006469727 10.753475189208984 10.35175895690918 18.07398223876953 0.35175880789756775 20.753475189208984 C -9.64824104309082 18.07398223876953 -16.968748092651367 10.753475189208984 -19.64824104309082 0.7534751296043396 C -16.968748092651367 -9.246524810791016 -9.64824104309082 -16.567031860351562 0.35175880789756775 -19.246524810791016 C 10.35175895690918 -16.567031860351562 17.672266006469727 -9.246524810791016 20.35175895690918 0.7534751296043396" stroke-width="0.0" fill="rgb(188, 152, 224)" opacity="0.7771188" stroke="rgb(118, 57, 189)" stroke-opacity="0.91920805" stroke-linecap="round" stroke-linejoin="round"/>
    <path d="M 236.13232421875 460.7188415527344 C 236.82139587402344 480.9460144042969 233.5460968017578 495.0785827636719 314.6741638183594 496.1660461425781 C 294.06121826171875 403.97332763671875 255.49317932128906 418.29278564453125 173.2904052734375 399.2926330566406 C 187.05870056152344 452.64788818359375 214.14971923828125 450.22271728515625 192.41270446777344 439.6869812011719 C 201.8450927734375 451.5004577636719 222.46852111816406 462.414794921875 236.13232421875 460.7188415527344" stroke-width="0.0" fill="rgb(33, 155, 143)" opacity="0.9704842"/>
    <path d="M 20.667577743530273 0.9878924489021301 C 17.98808479309082 10.987892150878906 10.667577743530273 18.308399200439453 0.6675777435302734 20.987892150878906 C -9.332422256469727 18.308399200439453 -16.652929306030273 10.987892150878906 -19.332422256469727 0.9878924489021301 C -16.652929306030273 -9.012107849121094 -9.332422256469727 -16.33261489868164 0.6675777435302734 -19.012107849121094 C 10.667577743530273 -16.33261489868164 17.98808479309082 -9.012107849121094 20.667577743530273 0.9878924489021301" stroke-width="0.0" fill="rgb(184, 236, 109)" opacity="0.85371786" stroke="rgb(88, 95, 158)" stroke-opacity="0.7187181" stroke-linecap="round" stroke-linejoin="round"/>
    <path d="M 139.10533142089844 357.1126403808594 C 143.81407165527344 410.0983581542969 163.23057556152344 442.36407470703125 89.68741607666016 469.8790588378906 C 6.065088272094727 441.2186584472656 33.2020263671875 380.73626708984375 37.381797790527344 346.2494812011719 C 66.1050796508789 347.0057373046875 86.20075225830078 350.8677673339844 95.07054901123047 329.644287109375 C 137.4896697998047 321.5819091796875 139.40869140625 315.92083740234375 139.10533142089844 357.1126403808594" stroke-width="0.0" fill="rgb(254, 251, 201)" opacity="0.99701977"/>
    <path d="M 20.706418991088867 0.0642288476228714 C 18.026926040649414 10.064229011535645 10.706418991088867 17.384735107421875 0.7064191699028015 20.064228057861328 C -9.293581008911133 17.384735107421875 -16.61408805847168 10.064229011535645 -19.293581008911133 0.0642288476228714 C -16.61408805847168 -9.935770988464355 -9.293581008911133 -17.25627899169922 0.7064191699028015 -19.935771942138672 C 10.706418991088867 -17.25627899169922 18.026926040649414 -9.935770988464355 20.706418991088867 0.0642288476228714" stroke-width="0.0" fill="rgb(234, 226, 159)" opacity="0.72071105" stroke="rgb(85, 79, 162)" stroke-opacity="0.35595778" stroke-linecap="round" stroke-linejoin="round"/>
    <path d="M 525.9415893554688 287.1488952636719 C 527.7797241210938 300.479248046875 513.9208984375 300.7787780761719 454.737548828125 299.6545104980469 C 443.6626892089844 254.99794006347656 459.6749572753906 248.7700958251953 470.11029052734375 267.54180908203125 C 450.1763610839844 291.5118713378906 432.6155700683594 311.6135559082031 417.6302490234375 212.74502563476562 C 554.7900390625 190.61656188964844 570.2911376953125 204.61679077148438 525.9415893554688 287.1488952636719" stroke-width="0.0" fill="rgb(254, 248, 204)" opacity="0.7214435"/>
  </g>
</svg>
