<?xml version="1.0" ?>
<svg xmlns="http://www.w3.org/2000/svg" version="1.1" width="600" height="600">
  <defs/>
  <g>
    <path d="M 371.8662414550781 97.427734375 C 350.913818359375 59.35303497314453 279.7645263671875 30.150175094604492 220.86911010742188 48.12432098388672 C 258.2415771484375 51.44077682495117 228.13255310058594 67.69560241699219 200.80242919921875 32.67814636230469 C 213.59213256835938 12.694936752319336 255.55796813964844 48.47665786743164 293.0254211425781 20.51637840270996 C 270.2354431152344 52.594383239746094 389.2657470703125 -16.422109603881836 371.8662414550781 97.427734375" stroke-width="0.0" fill="rgb(0, 0, 0)" opacity="1.0"/>
    <path d="M 275.33551025390625 516.4306640625 C 213.77944946289062 572.4710083007812 279.0087585449219 575.8552856445312 213.967529296875 574.376708984375 C 187.70932006835938 577.9285278320312 211.0986785888672 518.1271362304688 192.02085876464844 523.8889770507812 C 140.63525390625 474.31341552734375 127.9506607055664 436.2557678222656 151.94390869140625 440.0389709472656 C 194.23046875 546.3681640625 254.0107879638672 533.8386840820312 275.33551025390625 516.4306640625" stroke-width="0.0" fill="rgb(212, 254, 254)" opacity="0.0"/>
    <path d="M 130.5640869140625 300.5033874511719 C 116.35975646972656 317.38470458984375 130.13304138183594 335.88909912109375 104.22499084472656 372.22308349609375 C 99.75921630859375 322.46929931640625 165.09817504882812 258.1705627441406 -27.84280776977539 451.8277587890625 C 7.9070892333984375 387.2249450683594 114.33049774169922 324.4753112792969 142.2574920654297 259.18365478515625 C 207.31649780273438 267.0162353515625 164.16854858398438 275.96148681640625 130.5640869140625 300.5033874511719" stroke-width="0.0" fill="rgb(17, 15, 19)" opacity="0.5194322"/>
    <path d="M 578.2907104492188 166.46971130371094 C 638.3572387695312 330.4532775878906 666.7183227539062 383.567626953125 518.851806640625 504.2630920410156 C 187.6737060546875 407.60137939453125 107.1437759399414 420.74176025390625 8.971576690673828 260.9687194824219 C 215.385986328125 82.30797576904297 283.7697448730469 104.5101318359375 366.0054931640625 125.20026397705078 C 377.54949951171875 168.56373596191406 391.47802734375 159.18359375 578.2907104492188 166.46971130371094" stroke-width="0.0" fill="rgb(56, 92, 33)" opacity="0.47922042"/>
    <path d="M 459.69122314453125 475.45703125 C 428.2343444824219 512.0758056640625 465.0432434082031 467.6541748046875 401.6583251953125 531.07177734375 C 392.45452880859375 543.8637084960938 265.2971496582031 569.4479370117188 191.5850067138672 413.3309020996094 C 212.48350524902344 315.62774658203125 257.8060302734375 340.1729736328125 377.90948486328125 346.0423583984375 C 499.8289794921875 395.6364440917969 423.28985595703125 408.8961181640625 459.69122314453125 475.45703125" stroke-width="0.0" fill="rgb(126, 163, 136)" opacity="0.9912342"/>
    <path d="M 504.66229248046875 -16.467330932617188 C 415.31134033203125 100.57749938964844 365.5506286621094 97.44737243652344 386.0552062988281 134.9550323486328 C 329.86712646484375 144.49600219726562 335.4983215332031 115.05397033691406 309.3031921386719 95.67562103271484 C 324.1692199707031 71.75794982910156 320.0693664550781 4.672725200653076 464.11114501953125 -52.727725982666016 C 501.2649230957031 14.128517150878906 416.5241394042969 57.622066497802734 504.66229248046875 -16.467330932617188" stroke-width="0.0" fill="rgb(18, 128, 0)" opacity="0.12484809"/>
    <path d="M 238.25485229492188 191.42665100097656 C 231.76251220703125 252.0856170654297 273.20184326171875 182.2742919921875 196.13539123535156 264.6914978027344 C 159.0497283935547 266.2826843261719 213.04498291015625 239.9458770751953 223.753173828125 210.10487365722656 C 223.1381378173828 170.3687744140625 214.80154418945312 111.68535614013672 238.2518310546875 186.76654052734375 C 389.3656005859375 178.68112182617188 406.1459655761719 197.24783325195312 238.25485229492188 191.42665100097656" stroke-width="0.0" fill="rgb(7, 6, 8)" opacity="0.9986033"/>
    <path d="M 247.31829833984375 354.65740966796875 C 248.0050506591797 469.63623046875 190.39077758789062 439.7796630859375 90.31024169921875 387.4217834472656 C -85.42097473144531 532.8355712890625 127.84504699707031 352.7553405761719 123.9157485961914 323.3265380859375 C -88.5811538696289 538.7952880859375 -40.20205307006836 473.2987365722656 104.4692153930664 337.6532287597656 C 120.87480926513672 329.56146240234375 51.28095245361328 373.8808898925781 247.31829833984375 354.65740966796875" stroke-width="0.0" fill="rgb(1, 3, 14)" opacity="0.5680929"/>
    <path d="M 247.85818481445312 271.5855712890625 C 217.2913818359375 275.4561462402344 172.52182006835938 268.9397888183594 147.78546142578125 279.03643798828125 C 129.23281860351562 313.23394775390625 91.24590301513672 395.10809326171875 110.67926788330078 320.2463073730469 C 170.89590454101562 224.58233642578125 237.49197387695312 192.79335021972656 154.4660186767578 267.60162353515625 C 232.2921600341797 225.91160583496094 136.15890502929688 275.74566650390625 247.85818481445312 271.5855712890625" stroke-width="0.0" fill="rgb(23, 21, 23)" opacity="0.8864335"/>
    <path d="M 291.8502502441406 375.2318115234375 C 224.11123657226562 578.497314453125 251.44691467285156 616.4304809570312 0.5819559693336487 599.3521728515625 C -80.20378112792969 525.663818359375 114.62651062011719 438.2458801269531 -13.749112129211426 500.1733093261719 C 110.79695892333984 373.76177978515625 111.62735748291016 381.93817138671875 112.79656982421875 362.4500732421875 C 168.34756469726562 384.716064453125 230.45501708984375 370.2397766113281 291.8502502441406 375.2318115234375" stroke-width="0.0" fill="rgb(124, 135, 119)" opacity="0.9190066"/>
    <path d="M 411.6448669433594 147.04885864257812 C 473.94622802734375 89.869384765625 391.8074035644531 156.29666137695312 374.5693054199219 226.0766143798828 C 344.59283447265625 185.70169067382812 383.5879821777344 153.84939575195312 353.3923645019531 157.2031707763672 C 378.6856384277344 148.21363830566406 353.0582275390625 142.5389862060547 384.12762451171875 95.0522689819336 C 380.19415283203125 169.04454040527344 367.0086669921875 197.77862548828125 411.6448669433594 147.04885864257812" stroke-width="0.0" fill="rgb(6, 6, 6)" opacity="0.97545755"/>
    <path d="M 508.26531982421875 335.8978271484375 C 471.1844177246094 354.2484436035156 525.237060546875 361.7175598144531 459.2071533203125 459.4165344238281 C 423.94512939453125 411.4757385253906 408.1434326171875 386.3805236816406 422.5193786621094 377.6634521484375 C 453.17095947265625 318.6268005371094 395.3638916015625 253.49888610839844 451.2024841308594 272.57421875 C 521.59619140625 335.177001953125 472.5831298828125 370.3030090332031 508.26531982421875 335.8978271484375" stroke-width="0.0" fill="rgb(11, 11, 12)" opacity="0.94795966"/>
    <path d="M 601.600830078125 244.8643341064453 C 370.46112060546875 204.6654815673828 374.4835510253906 217.07115173339844 341.6115417480469 153.38497924804688 C 170.48033142089844 186.53671264648438 51.15681076049805 380.0681457519531 -23.800186157226562 104.52896118164062 C 59.11143493652344 -109.29487609863281 137.67115783691406 -25.668188095092773 472.7121887207031 -43.17268371582031 C 631.2630004882812 -60.392208099365234 615.2871704101562 -17.735885620117188 601.600830078125 244.8643341064453" stroke-width="0.0" fill="rgb(87, 87, 79)" opacity="0.7361119"/>
    <path d="M 461.17547607421875 488.38885498046875 C 507.1579284667969 500.2213134765625 510.6524658203125 456.5531921386719 372.3927307128906 607.3468017578125 C 222.83985900878906 668.4957885742188 235.37030029296875 697.515625 185.75645446777344 484.2416687011719 C 241.33653259277344 398.65789794921875 248.07276916503906 402.5762023925781 343.4310302734375 438.6123046875 C 461.5924072265625 541.4634399414062 339.9970397949219 590.841064453125 461.17547607421875 488.38885498046875" stroke-width="0.0" fill="rgb(0, 17, 0)" opacity="0.5167498"/>
    <path d="M 335.0638732910156 159.2301483154297 C 272.5733642578125 186.24098205566406 240.9832305908203 139.9420623779297 181.1852264404297 196.5524139404297 C 240.819580078125 147.37948608398438 227.08935546875 149.6713104248047 48.62495422363281 328.34039306640625 C 300.30059814453125 189.05972290039062 160.3975372314453 82.17345428466797 271.4482421875 -0.049773577600717545 C 327.7972412109375 139.18572998046875 314.9117736816406 163.7458953857422 335.0638732910156 159.2301483154297" stroke-width="0.0" fill="rgb(241, 245, 212)" opacity="0.92685384"/>
    <path d="M 624.185546875 172.7194366455078 C 516.1724243164062 302.4023742675781 443.6278991699219 293.5061950683594 479.18017578125 375.73101806640625 C 402.56512451171875 359.8997497558594 372.7438049316406 373.7172546386719 345.5157165527344 354.7762145996094 C 374.2082214355469 165.79666137695312 317.6327209472656 201.18385314941406 460.5268859863281 279.397216796875 C 518.4785766601562 333.5415344238281 430.3215026855469 349.2100524902344 624.185546875 172.7194366455078" stroke-width="0.0" fill="rgb(41, 46, 56)" opacity="0.31830928"/>
    <path d="M 284.1159362792969 44.988529205322266 C 280.6686096191406 52.87193298339844 257.0872802734375 49.63612365722656 264.7064514160156 47.86503982543945 C 261.42913818359375 47.47340774536133 242.96176147460938 37.80884552001953 196.40982055664062 39.47075653076172 C 293.5341796875 10.8195219039917 214.24240112304688 30.272340774536133 257.18182373046875 28.40902328491211 C 310.6933288574219 -16.067996978759766 233.9494171142578 49.210445404052734 284.1159362792969 44.988529205322266" stroke-width="0.0" fill="rgb(55, 53, 54)" opacity="0.8283581"/>
    <path d="M 230.67422485351562 77.15747833251953 C 225.92201232910156 98.34260559082031 240.36776733398438 119.8991928100586 224.3719024658203 140.41412353515625 C 215.3839874267578 105.73810577392578 217.26858520507812 88.11758422851562 214.2269744873047 93.28266906738281 C 217.68792724609375 95.33214569091797 213.7153778076172 71.29841613769531 204.72970581054688 28.842418670654297 C 284.0528564453125 21.153718948364258 256.12689208984375 72.290771484375 230.67422485351562 77.15747833251953" stroke-width="0.0" fill="rgb(1, 0, 0)" opacity="0.9795691"/>
    <path d="M 134.03060913085938 498.3482360839844 C 482.7342834472656 502.67974853515625 449.3021545410156 489.3712158203125 371.6790466308594 526.2828979492188 C 344.9710693359375 527.8645629882812 217.06101989746094 558.136474609375 180.57672119140625 487.96881103515625 C 210.554443359375 341.182861328125 215.78616333007812 492.0018615722656 367.85980224609375 423.57086181640625 C 553.6136474609375 531.0225219726562 224.4818572998047 472.66656494140625 134.03060913085938 498.3482360839844" stroke-width="0.0" fill="rgb(151, 202, 163)" opacity="1.0"/>
    <path d="M 233.22116088867188 141.45721435546875 C 231.2104034423828 132.67535400390625 242.16262817382812 157.34262084960938 223.47067260742188 185.9221954345703 C 217.1784210205078 137.913818359375 220.19898986816406 122.9417495727539 218.53187561035156 118.18707275390625 C 218.99322509765625 136.49127197265625 214.05479431152344 105.98301696777344 223.2790069580078 79.83924102783203 C 232.1966094970703 112.6245346069336 234.65664672851562 130.46630859375 233.22116088867188 141.45721435546875" stroke-width="0.0" fill="rgb(0, 0, 0)" opacity="0.944958"/>
    <path d="M 400.45135498046875 572.7032470703125 C 363.9249572753906 565.485595703125 349.3883972167969 609.8988647460938 376.0244140625 575.5145263671875 C 386.596923828125 577.6737060546875 166.87135314941406 587.7337646484375 205.72915649414062 556.3555908203125 C 289.4315185546875 572.496337890625 385.1222229003906 557.30078125 387.8797302246094 556.3880615234375 C 383.3619384765625 528.1021118164062 403.05517578125 470.5318298339844 400.45135498046875 572.7032470703125" stroke-width="0.0" fill="rgb(1, 0, 0)" opacity="0.9659165"/>
    <path d="M 167.9980010986328 475.9984436035156 C 201.4814910888672 513.53369140625 252.3498077392578 577.0400390625 173.08029174804688 505.5716247558594 C 136.97808837890625 455.9690856933594 121.7446517944336 426.2669677734375 120.29397583007812 424.77239990234375 C 98.46920776367188 387.0167541503906 99.32019805908203 320.73516845703125 121.23331451416016 316.1754455566406 C 100.9256820678711 415.60931396484375 165.2479705810547 451.3347473144531 167.9980010986328 475.9984436035156" stroke-width="0.0" fill="rgb(2, 0, 1)" opacity="0.9824376"/>
    <path d="M 425.91510009765625 150.0600128173828 C 160.77392578125 177.45851135253906 260.3446044921875 119.37946319580078 229.31723022460938 217.15846252441406 C 216.9805908203125 196.09976196289062 231.53761291503906 142.82901000976562 211.0095977783203 132.4063262939453 C 234.2368621826172 150.10389709472656 270.9276428222656 79.69083404541016 378.042236328125 140.92593383789062 C 102.15157318115234 137.56405639648438 70.69269561767578 152.8255157470703 425.91510009765625 150.0600128173828" stroke-width="0.0" fill="rgb(2, 0, 3)" opacity="0.9552701"/>
    <path d="M 478.98809814453125 383.6081237792969 C 467.0486755371094 410.6552429199219 480.3417053222656 428.028564453125 411.208251953125 404.6650085449219 C 481.9822692871094 409.29144287109375 504.16436767578125 392.04522705078125 427.6165466308594 396.4652404785156 C 419.78753662109375 375.8620910644531 439.23712158203125 387.39752197265625 434.71722412109375 383.2069396972656 C 422.4110412597656 383.7047424316406 453.13427734375 383.7997741699219 478.98809814453125 383.6081237792969" stroke-width="0.0" fill="rgb(182, 190, 155)" opacity="1.0"/>
    <path d="M 448.1842041015625 478.39166259765625 C 443.40325927734375 484.52825927734375 435.50128173828125 501.5381164550781 391.278564453125 537.2294921875 C 270.0394287109375 562.5061645507812 191.29188537597656 528.6489868164062 353.4820251464844 535.489990234375 C 441.01165771484375 502.744384765625 429.7648620605469 457.12060546875 470.7247619628906 422.5441589355469 C 483.9639587402344 424.8489990234375 458.7824401855469 460.54779052734375 448.1842041015625 478.39166259765625" stroke-width="0.0" fill="rgb(2, 2, 2)" opacity="0.9790078"/>
    <path d="M 379.37396240234375 58.41041946411133 C 375.389892578125 149.25294494628906 420.7574462890625 131.13795471191406 232.8647918701172 133.4254608154297 C 230.9354248046875 107.22020721435547 227.36962890625 79.37195587158203 225.82818603515625 67.00626373291016 C 223.3247528076172 55.70076370239258 221.3657684326172 35.73030471801758 222.0997314453125 41.50449752807617 C 291.58392333984375 50.94176483154297 323.3931579589844 38.134273529052734 379.37396240234375 58.41041946411133" stroke-width="0.0" fill="rgb(136, 210, 166)" opacity="0.6694067"/>
    <path d="M 484.48291015625 309.21429443359375 C 484.2114562988281 326.9757385253906 503.13348388671875 335.9775695800781 490.2238464355469 394.70361328125 C 419.8851318359375 350.995361328125 464.0531921386719 199.12196350097656 269.1402587890625 229.59178161621094 C 336.55950927734375 194.50096130371094 359.9641418457031 142.0876922607422 390.5074157714844 237.82557678222656 C 495.27691650390625 293.892822265625 469.9734802246094 298.29876708984375 484.48291015625 309.21429443359375" stroke-width="0.0" fill="rgb(0, 0, 0)" opacity="0.77660054"/>
    <path d="M 395.5775451660156 28.351621627807617 C 362.2131042480469 244.28524780273438 369.7850646972656 179.07418823242188 362.1355895996094 61.623966217041016 C 315.87994384765625 39.096107482910156 297.2106018066406 50.26045608520508 299.7375183105469 27.979368209838867 C 313.56341552734375 17.98581886291504 321.1206970214844 41.662471771240234 304.45635986328125 22.109649658203125 C 326.22802734375 33.26553726196289 288.3148498535156 28.12340545654297 395.5775451660156 28.351621627807617" stroke-width="0.0" fill="rgb(4, 4, 4)" opacity="1.0"/>
    <path d="M 447.3092346191406 270.83221435546875 C 327.6969909667969 274.0149841308594 251.71852111816406 271.57513427734375 281.31402587890625 273.1195068359375 C 260.7407531738281 270.8240051269531 220.10910034179688 277.3164367675781 163.5160675048828 264.2656555175781 C 252.539306640625 264.60540771484375 290.73809814453125 266.2687072753906 359.93243408203125 264.8121032714844 C 261.1354675292969 273.11871337890625 420.2483215332031 256.3331604003906 447.3092346191406 270.83221435546875" stroke-width="0.0" fill="rgb(2, 0, 4)" opacity="0.9739985"/>
    <path d="M 327.4252624511719 44.04796600341797 C 331.90313720703125 34.17975616455078 319.0795593261719 38.09560012817383 331.2054443359375 43.63951110839844 C 329.1257629394531 34.11907958984375 290.5281982421875 61.40061569213867 207.0325927734375 30.21405792236328 C 292.81793212890625 25.40460968017578 319.6962585449219 31.86952781677246 323.39019775390625 31.70269775390625 C 317.6907653808594 31.956844329833984 324.21038818359375 39.91959762573242 327.4252624511719 44.04796600341797" stroke-width="0.0" fill="rgb(1, 0, 0)" opacity="0.9769728"/>
    <path d="M 119.54832458496094 426.1905517578125 C 131.73912048339844 437.5818176269531 129.6112518310547 423.32257080078125 -34.725379943847656 593.9453735351562 C 93.38985443115234 375.32391357421875 124.15811920166016 413.8144836425781 -49.376686096191406 546.101318359375 C 65.79236602783203 423.85125732421875 87.28241729736328 409.7134094238281 104.97950744628906 389.9618225097656 C 137.57395935058594 425.35650634765625 10.40861988067627 513.8298950195312 119.54832458496094 426.1905517578125" stroke-width="0.0" fill="rgb(244, 243, 201)" opacity="0.8488232"/>
    <path d="M 476.9651184082031 351.2325439453125 C 497.51904296875 414.65838623046875 429.3503112792969 325.0331115722656 340.1650695800781 434.9421081542969 C 416.3290710449219 342.46820068359375 293.3460998535156 347.6507568359375 243.17872619628906 343.93902587890625 C 337.12579345703125 272.2034606933594 348.6048889160156 351.3092346191406 354.802001953125 272.2108459472656 C 418.3148498535156 277.6972351074219 434.8872375488281 245.79385375976562 476.9651184082031 351.2325439453125" stroke-width="0.0" fill="rgb(113, 171, 136)" opacity="1.0"/>
    <path d="M 184.2181396484375 518.2061157226562 C 164.59181213378906 538.5963745117188 156.10986328125 541.0550537109375 83.79419708251953 618.5010986328125 C -12.362188339233398 635.7645874023438 174.08792114257812 520.1405639648438 90.99642944335938 544.5693359375 C 124.4043197631836 516.5302734375 132.30982971191406 493.4157409667969 110.2281494140625 550.6386108398438 C 174.2749786376953 492.2763671875 158.41812133789062 488.5466613769531 184.2181396484375 518.2061157226562" stroke-width="0.0" fill="rgb(254, 255, 210)" opacity="0.8755311"/>
    <path d="M 442.0557861328125 268.6763000488281 C 429.7808532714844 261.2799987792969 411.0379943847656 250.0904998779297 429.9841613769531 261.0516357421875 C 386.6490478515625 239.33255004882812 425.8434753417969 253.26995849609375 481.2926025390625 171.87841796875 C 379.7891540527344 259.2890319824219 431.7542724609375 260.611328125 370.2145690917969 227.11439514160156 C 394.5049133300781 265.28668212890625 420.4241638183594 269.28192138671875 442.0557861328125 268.6763000488281" stroke-width="0.0" fill="rgb(0, 0, 0)" opacity="1.0"/>
    <path d="M 420.64825439453125 257.2278137207031 C 508.9361267089844 167.2255096435547 464.82122802734375 216.15338134765625 413.1611328125 270.65960693359375 C 411.79132080078125 260.86676025390625 364.02423095703125 247.46481323242188 363.89959716796875 203.14256286621094 C 375.8470458984375 198.78854370117188 392.4436950683594 246.6791534423828 403.3209533691406 242.1522979736328 C 392.9270935058594 241.6631317138672 404.96820068359375 241.02880859375 420.64825439453125 257.2278137207031" stroke-width="0.0" fill="rgb(0, 0, 0)" opacity="0.5238837"/>
    <path d="M 220.70266723632812 175.61636352539062 C 150.85000610351562 248.25360107421875 246.7465362548828 122.67951202392578 122.26133728027344 248.88119506835938 C 85.82757568359375 283.8036804199219 119.22509765625 213.408447265625 27.31377410888672 279.0708923339844 C 124.42644500732422 175.0205535888672 140.38600158691406 170.33741760253906 175.67730712890625 135.61814880371094 C 199.6863555908203 172.3135223388672 221.54319763183594 61.543888092041016 220.70266723632812 175.61636352539062" stroke-width="0.0" fill="rgb(231, 230, 193)" opacity="1.0"/>
    <path d="M 298.01806640625 534.804931640625 C 238.81016540527344 535.7796020507812 228.2689971923828 516.4938354492188 248.4978790283203 545.281982421875 C 331.6441955566406 549.0861206054688 270.2776184082031 549.82958984375 174.6417694091797 504.52508544921875 C 208.33567810058594 556.917236328125 314.9834289550781 549.8744506835938 239.68885803222656 531.5786743164062 C 251.9414520263672 559.0453491210938 264.1331481933594 538.7950439453125 298.01806640625 534.804931640625" stroke-width="0.0" fill="rgb(2, 1, 1)" opacity="0.9870466"/>
    <path d="M 163.05577087402344 492.14080810546875 C 149.7502899169922 480.05242919921875 167.1992645263672 474.2474060058594 121.3424301147461 515.4611206054688 C 145.72808837890625 472.2720031738281 141.7530059814453 499.1067199707031 -45.905784606933594 668.4342041015625 C 151.24851989746094 449.21124267578125 179.6548614501953 446.067626953125 127.46574401855469 504.5834045410156 C 95.48004913330078 563.4715576171875 107.83891296386719 542.944580078125 163.05577087402344 492.14080810546875" stroke-width="0.0" fill="rgb(241, 243, 200)" opacity="0.99996793"/>
    <path d="M 373.0061340332031 345.3757629394531 C 382.81134033203125 392.5414123535156 376.75274658203125 375.7327880859375 202.90969848632812 380.62969970703125 C 418.9786071777344 331.7222900390625 429.3381652832031 347.624755859375 227.01785278320312 344.1694030761719 C 199.3000030517578 361.2044677734375 314.08837890625 340.495849609375 390.70892333984375 362.905029296875 C 335.7224426269531 348.7623596191406 324.0346984863281 356.584228515625 373.0061340332031 345.3757629394531" stroke-width="0.0" fill="rgb(6, 2, 4)" opacity="0.95708764"/>
    <path d="M 510.3142395019531 260.7926330566406 C 673.5338745117188 109.17112731933594 640.9251708984375 159.52525329589844 539.081298828125 251.17984008789062 C 494.3490295410156 221.9263153076172 590.9391479492188 185.6818084716797 555.1160888671875 173.35903930664062 C 635.9664306640625 97.70195770263672 646.2767944335938 96.00869750976562 525.9357299804688 225.3677520751953 C 655.5882568359375 101.60409545898438 661.9752807617188 108.20747375488281 510.3142395019531 260.7926330566406" stroke-width="0.0" fill="rgb(237, 237, 194)" opacity="1.0"/>
    <path d="M 173.01475524902344 439.06549072265625 C 94.02394104003906 480.2811279296875 211.38731384277344 406.3684387207031 135.7816162109375 415.7364196777344 C 108.82415008544922 433.5293884277344 135.29200744628906 418.3634338378906 161.60536193847656 422.61767578125 C 156.56201171875 385.11737060546875 156.3174285888672 418.4690246582031 107.53559875488281 395.68707275390625 C 227.71495056152344 400.84942626953125 145.98060607910156 376.4592590332031 173.01475524902344 439.06549072265625" stroke-width="0.0" fill="rgb(0, 0, 2)" opacity="0.95151913"/>
    <path d="M 507.83782958984375 79.72817993164062 C 466.8349914550781 148.4580535888672 402.7850646972656 196.99192810058594 383.6272277832031 222.87960815429688 C 373.1368103027344 195.78578186035156 378.5919189453125 203.17007446289062 379.1192321777344 180.04415893554688 C 380.97650146484375 148.49923706054688 366.373046875 180.11431884765625 455.0338134765625 85.77140808105469 C 371.92559814453125 224.6494598388672 315.88702392578125 271.44647216796875 507.83782958984375 79.72817993164062" stroke-width="0.0" fill="rgb(251, 252, 212)" opacity="0.9378002"/>
    <path d="M 325.1937255859375 47.6402473449707 C 252.4505157470703 83.60498809814453 251.3242950439453 105.7578125 231.91665649414062 115.39911651611328 C 228.76181030273438 71.04330444335938 225.4226837158203 64.4631118774414 225.21304321289062 58.60663604736328 C 226.62306213378906 70.54191589355469 223.81842041015625 53.07460403442383 222.99093627929688 42.877227783203125 C 259.259521484375 47.72615432739258 283.68048095703125 45.53660583496094 325.1937255859375 47.6402473449707" stroke-width="0.0" fill="rgb(178, 224, 187)" opacity="1.0"/>
    <path d="M 367.2639465332031 352.53802490234375 C 371.488037109375 378.5313720703125 365.4245910644531 371.2843017578125 292.4945373535156 372.8429260253906 C 224.1290283203125 371.416015625 229.94949340820312 378.9993896484375 230.65234375 352.8126220703125 C 285.8148498535156 349.0932312011719 253.7471466064453 367.3787536621094 292.0159912109375 323.8407897949219 C 250.1112060546875 366.0272216796875 267.7603454589844 349.87249755859375 367.2639465332031 352.53802490234375" stroke-width="0.0" fill="rgb(200, 211, 168)" opacity="0.96105045"/>
    <path d="M 353.877685546875 577.6937255859375 C 391.2455749511719 567.8226318359375 351.6335144042969 589.5259399414062 346.2851867675781 603.4100952148438 C 320.53948974609375 597.1254272460938 317.11065673828125 575.1339111328125 309.2189636230469 620.8936767578125 C 351.0305480957031 567.6580810546875 358.9269104003906 578.8286743164062 336.3069152832031 577.5297241210938 C 310.6949462890625 586.951171875 329.36773681640625 617.8103637695312 353.877685546875 577.6937255859375" stroke-width="0.0" fill="rgb(255, 255, 215)" opacity="0.91041213"/>
    <path d="M 44.68829345703125 593.2963256835938 C 162.8689422607422 467.11859130859375 150.9396209716797 510.67291259765625 35.76564407348633 615.5494384765625 C 74.7259750366211 495.3450012207031 61.71906661987305 565.7854614257812 -49.28857421875 644.383544921875 C 79.64362335205078 504.8323974609375 111.27313232421875 478.49078369140625 136.09744262695312 455.0605773925781 C 170.8570098876953 463.2887268066406 35.961669921875 534.509521484375 44.68829345703125 593.2963256835938" stroke-width="0.0" fill="rgb(246, 247, 202)" opacity="0.9618228"/>
    <path d="M 565.6265869140625 182.03211975097656 C 540.409423828125 198.0515899658203 533.3842163085938 223.16452026367188 470.2345275878906 260.42138671875 C 561.9703979492188 159.66651916503906 557.6016845703125 182.38182067871094 426.07965087890625 258.2661437988281 C 500.3997497558594 179.5669403076172 517.7913818359375 162.02862548828125 609.612060546875 74.83707427978516 C 511.4291076660156 212.73748779296875 524.8331298828125 134.1456756591797 565.6265869140625 182.03211975097656" stroke-width="0.0" fill="rgb(255, 254, 210)" opacity="0.82402223"/>
    <path d="M 599.1505126953125 443.09088134765625 C 636.3761596679688 667.740234375 558.0753173828125 716.9840087890625 379.8033752441406 595.9069213867188 C 538.8161010742188 446.06964111328125 534.5528564453125 434.78173828125 401.643798828125 567.976318359375 C 399.5238342285156 545.359619140625 398.3671875 557.0604248046875 422.5713195800781 531.2461547851562 C 500.2309265136719 450.879150390625 466.8934631347656 504.00738525390625 599.1505126953125 443.09088134765625" stroke-width="0.0" fill="rgb(243, 245, 201)" opacity="0.9074352"/>
    <path d="M 207.52313232421875 54.087669372558594 C 227.3240966796875 105.7992172241211 189.25924682617188 107.7955322265625 214.46922302246094 68.77301025390625 C 79.72061157226562 186.55116271972656 13.938986778259277 283.7931823730469 -26.708219528198242 251.91920471191406 C 170.88710021972656 76.41310119628906 216.3214874267578 16.814624786376953 207.3342742919922 51.858642578125 C 112.79732513427734 139.36795043945312 220.2257843017578 53.32453155517578 207.52313232421875 54.087669372558594" stroke-width="0.0" fill="rgb(228, 229, 192)" opacity="1.0"/>
    <path d="M 111.07508087158203 193.86585998535156 C 252.63308715820312 54.38306427001953 221.59716796875 103.3043441772461 193.80615234375 134.94677734375 C 86.02703857421875 196.31246948242188 -20.303089141845703 296.98211669921875 157.8909149169922 128.26658630371094 C 209.10910034179688 75.52995300292969 218.09986877441406 86.95738220214844 158.20742797851562 86.09387969970703 C 248.89410400390625 90.52391815185547 228.65911865234375 60.494537353515625 111.07508087158203 193.86585998535156" stroke-width="0.0" fill="rgb(254, 255, 209)" opacity="0.84074557"/>
    <path d="M 148.31442260742188 35.900718688964844 C 115.57049560546875 65.84657287597656 121.51982879638672 61.13722229003906 36.716835021972656 139.718505859375 C -73.99517059326172 217.37261962890625 99.43328857421875 69.58509826660156 113.33509826660156 51.30464172363281 C 59.48872375488281 77.1706314086914 110.09354400634766 26.09568214416504 206.35159301757812 -47.441837310791016 C 110.77546691894531 59.06122970581055 63.679359436035156 73.53968811035156 148.31442260742188 35.900718688964844" stroke-width="0.0" fill="rgb(252, 255, 210)" opacity="0.91860545"/>
    <path d="M 583.5497436523438 139.204833984375 C 444.89593505859375 274.579833984375 439.5933532714844 291.19512939453125 445.60064697265625 252.5039825439453 C 432.7240295410156 274.07318115234375 432.1815185546875 255.97657775878906 423.7015075683594 253.77960205078125 C 394.3058166503906 254.31460571289062 443.0674133300781 215.99012756347656 421.4273986816406 250.3570556640625 C 441.1170654296875 277.92529296875 445.28070068359375 192.46011352539062 583.5497436523438 139.204833984375" stroke-width="0.0" fill="rgb(244, 245, 208)" opacity="0.98539203"/>
    <path d="M 261.34521484375 -11.028170585632324 C 173.5436248779297 48.907257080078125 145.0411834716797 90.5684814453125 -62.12171936035156 278.71209716796875 C 113.50013732910156 76.05554962158203 177.42909240722656 59.1009521484375 224.2657012939453 -19.189632415771484 C 156.8878631591797 58.37162780761719 112.27549743652344 36.31572723388672 90.18505096435547 77.53295135498047 C 188.0552215576172 0.5103681683540344 169.09190368652344 56.09097671508789 261.34521484375 -11.028170585632324" stroke-width="0.0" fill="rgb(249, 250, 205)" opacity="0.8814068"/>
    <path d="M 558.4894409179688 -3.5897927284240723 C 495.23712158203125 66.96501159667969 431.83599853515625 104.34204864501953 540.5306396484375 0.3392644226551056 C 463.1790466308594 25.76271629333496 493.5331726074219 29.282203674316406 380.13671875 125.56721496582031 C 464.6244812011719 13.34361743927002 560.6801147460938 -53.326011657714844 521.5956420898438 -14.377312660217285 C 456.8775634765625 62.55807113647461 477.03192138671875 11.630163192749023 558.4894409179688 -3.5897927284240723" stroke-width="0.0" fill="rgb(255, 255, 209)" opacity="0.9102881"/>
    <path d="M 629.5908813476562 -2.927720308303833 C 549.2724609375 73.33629608154297 522.026611328125 118.09554290771484 505.794921875 106.63095092773438 C 653.5025024414062 -47.57475662231445 650.352294921875 -32.01428985595703 451.078857421875 114.72462463378906 C 522.7755737304688 43.729434967041016 574.7648315429688 -19.60272789001465 518.751220703125 59.80084228515625 C 520.836669921875 84.84107208251953 588.6835327148438 -35.13787841796875 629.5908813476562 -2.927720308303833" stroke-width="0.0" fill="rgb(252, 255, 214)" opacity="0.9089882"/>
    <path d="M 455.9391174316406 207.15748596191406 C 433.6535949707031 249.23094177246094 402.94134521484375 276.2872314453125 435.795166015625 217.35760498046875 C 496.59002685546875 114.61396026611328 413.6347961425781 243.02426147460938 389.0269470214844 231.17092895507812 C 391.6567687988281 211.76632690429688 473.0609130859375 146.02381896972656 463.6163330078125 166.22564697265625 C 368.76470947265625 252.99754333496094 391.7343444824219 267.52783203125 455.9391174316406 207.15748596191406" stroke-width="0.0" fill="rgb(255, 255, 221)" opacity="0.7862583"/>
    <path d="M 580.11572265625 78.94463348388672 C 663.4574584960938 -6.28886604309082 550.6387329101562 153.13526916503906 582.743896484375 67.94900512695312 C 425.1195068359375 227.2925262451172 456.6453857421875 195.2178497314453 520.5238037109375 106.95769500732422 C 476.2911682128906 158.1839599609375 509.5090026855469 87.01655578613281 536.0475463867188 87.87285614013672 C 441.1728820800781 208.6516876220703 590.0890502929688 23.04720115661621 580.11572265625 78.94463348388672" stroke-width="0.0" fill="rgb(245, 246, 204)" opacity="0.97456896"/>
    <path d="M 593.871337890625 -25.74913215637207 C 591.9415283203125 -8.548826217651367 554.582763671875 21.87551498413086 518.2271728515625 62.579017639160156 C 570.9705200195312 -61.407623291015625 550.8696899414062 -6.8185014724731445 352.2767028808594 181.48211669921875 C 437.32318115234375 51.412105560302734 600.6114501953125 -26.224407196044922 533.5045776367188 -100.99442291259766 C 563.570068359375 59.27267074584961 481.1299743652344 62.31309127807617 593.871337890625 -25.74913215637207" stroke-width="0.0" fill="rgb(247, 251, 212)" opacity="0.9451765"/>
    <path d="M 619.2012939453125 42.22050476074219 C 581.68701171875 101.23155975341797 523.8073120117188 148.93911743164062 421.2089538574219 255.67803955078125 C 469.3756103515625 104.88240051269531 585.1246948242188 89.64131164550781 400.25537109375 213.1620330810547 C 478.674072265625 131.9805908203125 498.66864013671875 113.67601013183594 521.1573486328125 90.74417877197266 C 453.4818420410156 227.2628631591797 452.6333923339844 197.8140106201172 619.2012939453125 42.22050476074219" stroke-width="0.0" fill="rgb(255, 255, 221)" opacity="0.7799773"/>
    <path d="M 590.9636840820312 10.01525592803955 C 464.3097229003906 141.39251708984375 411.7689514160156 198.50637817382812 529.0624389648438 53.851844787597656 C 386.10614013671875 190.09022521972656 508.0608825683594 88.27465057373047 430.3612060546875 125.91024017333984 C 432.6291198730469 108.26187896728516 487.9250183105469 43.477943420410156 529.9088134765625 26.511606216430664 C 404.8064880371094 156.00704956054688 391.03692626953125 159.07923889160156 590.9636840820312 10.01525592803955" stroke-width="0.0" fill="rgb(242, 243, 204)" opacity="0.9872004"/>
    <path d="M 115.26972198486328 49.99600601196289 C 234.3096466064453 -61.73786544799805 226.02999877929688 -18.616060256958008 109.69037628173828 64.78611755371094 C 144.53128051757812 -27.46367645263672 168.34780883789062 -24.768173217773438 -39.320899963378906 162.656982421875 C 6.788619041442871 89.41241455078125 140.75457763671875 -9.279324531555176 153.1962890625 -36.8268928527832 C 112.24234771728516 41.64033126831055 151.82269287109375 -30.216876983642578 115.26972198486328 49.99600601196289" stroke-width="0.0" fill="rgb(249, 250, 203)" opacity="0.9598649"/>
    <path d="M 574.5556640625 131.22984313964844 C 431.48809814453125 275.3807373046875 408.0880432128906 300.7784423828125 452.697021484375 245.9463653564453 C 456.58697509765625 240.84576416015625 441.1103820800781 262.2325134277344 421.5716552734375 248.49942016601562 C 398.401123046875 237.37432861328125 441.4848937988281 220.68446350097656 415.49560546875 244.4840545654297 C 455.2399597167969 274.3247985839844 454.82781982421875 225.44650268554688 574.5556640625 131.22984313964844" stroke-width="0.0" fill="rgb(66, 69, 67)" opacity="0.6261659"/>
    <path d="M 236.5859375 -31.208206176757812 C 182.03073120117188 37.88740158081055 87.02629852294922 106.9908447265625 -61.163516998291016 261.896484375 C 74.37472534179688 79.1551513671875 110.14668273925781 115.80320739746094 100.22042083740234 57.4179801940918 C -88.69644165039062 238.18768310546875 -54.47572708129883 180.95254516601562 100.51081848144531 42.593055725097656 C 104.80165100097656 114.01736450195312 65.95433807373047 104.63555145263672 236.5859375 -31.208206176757812" stroke-width="0.0" fill="rgb(247, 249, 205)" opacity="0.9643817"/>
    <path d="M 225.81918334960938 42.710487365722656 C 254.58572387695312 15.802898406982422 258.86297607421875 15.056818008422852 275.31146240234375 -10.808954238891602 C 226.3013916015625 36.89513397216797 236.61297607421875 32.12480545043945 249.51719665527344 -4.814555644989014 C 222.43553161621094 -3.9231340885162354 233.11309814453125 -9.50291633605957 235.89854431152344 -9.627143859863281 C 218.83074951171875 -2.04730486869812 213.9614715576172 12.114558219909668 225.81918334960938 42.710487365722656" stroke-width="0.0" fill="rgb(1, 0, 10)" opacity="0.44356564"/>
    <path d="M 458.5309143066406 462.5017395019531 C 446.6890563964844 473.8161926269531 301.3187255859375 465.2499694824219 342.09515380859375 469.4900207519531 C 366.9712829589844 465.958740234375 116.25420379638672 473.8829040527344 146.80079650878906 461.4622497558594 C 408.4928283691406 459.9613342285156 298.7259826660156 469.6998291015625 351.5924987792969 432.08563232421875 C 319.27508544921875 477.8077697753906 341.0914611816406 453.80059814453125 458.5309143066406 462.5017395019531" stroke-width="0.0" fill="rgb(0, 0, 4)" opacity="0.94079524"/>
    <path d="M 134.48477172851562 448.82391357421875 C 102.9293441772461 478.7753601074219 102.97665405273438 479.7868957519531 42.75874710083008 538.9844360351562 C -65.01668548583984 652.0823974609375 -44.825531005859375 606.616455078125 83.42481231689453 483.3604431152344 C 81.85506439208984 463.08148193359375 81.73182678222656 461.6243896484375 83.41153717041016 482.869384765625 C 142.4566650390625 427.1784973144531 123.2117919921875 438.2131042480469 134.48477172851562 448.82391357421875" stroke-width="0.0" fill="rgb(252, 254, 212)" opacity="0.899216"/>
    <path d="M 114.0055923461914 311.030029296875 C 76.38434600830078 351.5060119628906 58.98694610595703 355.1917724609375 88.06904602050781 355.6413269042969 C 21.497726440429688 385.48309326171875 36.12984848022461 379.4182434082031 203.30409240722656 217.19110107421875 C 81.629638671875 221.19224548339844 148.97608947753906 356.3453063964844 -36.5919303894043 350.95440673828125 C 64.68730163574219 389.6240234375 106.1451416015625 349.4389953613281 114.0055923461914 311.030029296875" stroke-width="0.0" fill="rgb(225, 225, 190)" opacity="1.0"/>
    <path d="M 259.6938781738281 423.6473693847656 C 237.6709747314453 449.6170349121094 262.8371276855469 405.35809326171875 200.83726501464844 414.3031005859375 C 167.7898712158203 451.8946838378906 168.4582061767578 430.3929138183594 185.48939514160156 386.6879577636719 C 126.64469909667969 347.71343994140625 59.57714080810547 268.8467712402344 226.52366638183594 273.511474609375 C 228.6392822265625 416.28704833984375 202.96827697753906 325.10174560546875 259.6938781738281 423.6473693847656" stroke-width="0.0" fill="rgb(178, 238, 202)" opacity="0.83323634"/>
    <path d="M 584.45556640625 66.63473510742188 C 584.5934448242188 71.15835571289062 584.8124389648438 74.21994018554688 584.4119873046875 67.1022720336914 C 528.0027465820312 101.85066223144531 543.6890869140625 91.75357055664062 575.4810791015625 58.445499420166016 C 567.8680419921875 51.554290771484375 568.7948608398438 52.49075698852539 575.84228515625 58.70979690551758 C 616.2613525390625 13.372147560119629 638.7613525390625 13.186264038085938 584.45556640625 66.63473510742188" stroke-width="0.0" fill="rgb(248, 247, 200)" opacity="0.96497315"/>
    <path d="M 429.25079345703125 152.32537841796875 C 441.6646423339844 154.34188842773438 442.4164123535156 154.3798065185547 429.84259033203125 152.43499755859375 C 367.4630126953125 212.78883361816406 371.73162841796875 215.80706787109375 385.8429260253906 185.2808837890625 C 421.025146484375 141.81114196777344 427.1239318847656 139.79037475585938 423.3626708984375 143.20289611816406 C 472.5418395996094 89.11510467529297 486.93988037109375 98.63780212402344 429.25079345703125 152.32537841796875" stroke-width="0.0" fill="rgb(247, 250, 213)" opacity="0.96168774"/>
    <path d="M 356.59246826171875 395.46807861328125 C 339.8695983886719 396.2623596191406 354.9942932128906 392.3003845214844 334.8985595703125 445.5093078613281 C 328.98779296875 383.467041015625 377.6788330078125 400.74774169921875 251.49781799316406 397.3890686035156 C 196.231201171875 386.196044921875 328.6568908691406 394.13531494140625 349.5406494140625 390.3185119628906 C 347.0826416015625 370.3918762207031 358.6376953125 361.01824951171875 356.59246826171875 395.46807861328125" stroke-width="0.0" fill="rgb(0, 0, 2)" opacity="0.93818164"/>
    <path d="M 643.8341064453125 201.94293212890625 C 495.5307922363281 331.4143981933594 490.9187927246094 363.0756530761719 493.4035949707031 327.27105712890625 C 612.1185302734375 221.84939575195312 606.159423828125 198.2517852783203 485.22747802734375 312.1911926269531 C 487.9394226074219 328.5585021972656 503.69134521484375 319.7799377441406 481.3126525878906 324.521728515625 C 510.46258544921875 322.3119201660156 523.9171142578125 264.78289794921875 643.8341064453125 201.94293212890625" stroke-width="0.0" fill="rgb(255, 253, 211)" opacity="0.85949486"/>
    <path d="M 242.61656188964844 19.923124313354492 C 233.8347930908203 29.61858558654785 236.76918029785156 28.474973678588867 218.02169799804688 28.13730812072754 C 234.01998901367188 11.375876426696777 251.8032684326172 -0.5938536524772644 249.9550323486328 -7.495389938354492 C 148.66436767578125 80.86946105957031 194.6378173828125 16.472003936767578 236.96707153320312 -9.093941688537598 C 262.5050964355469 -0.5923317074775696 282.9700927734375 -18.089462280273438 242.61656188964844 19.923124313354492" stroke-width="0.0" fill="rgb(247, 246, 201)" opacity="0.9631656"/>
    <path d="M 337.0052795410156 435.31231689453125 C 282.57867431640625 436.47418212890625 269.3370361328125 434.4275817871094 310.06292724609375 437.50250244140625 C 328.58282470703125 439.35064697265625 236.00228881835938 429.2867126464844 260.724853515625 443.38653564453125 C 394.78131103515625 442.6348571777344 296.64892578125 446.42974853515625 389.9914855957031 418.6383361816406 C 342.713134765625 399.0315856933594 321.99847412109375 471.8085632324219 337.0052795410156 435.31231689453125" stroke-width="0.0" fill="rgb(0, 0, 1)" opacity="0.8439268"/>
    <path d="M 425.65753173828125 62.66779708862305 C 428.88214111328125 83.01493072509766 421.1646423339844 75.65492248535156 430.5143737792969 41.31413269042969 C 502.9935302734375 -25.68820571899414 500.0867919921875 -40.524444580078125 387.63232421875 78.0479965209961 C 393.2860107421875 43.31159591674805 382.4806823730469 68.5089111328125 450.5135498046875 -3.3907928466796875 C 526.5210571289062 -27.595430374145508 492.9361877441406 -7.133682727813721 425.65753173828125 62.66779708862305" stroke-width="0.0" fill="rgb(253, 255, 210)" opacity="0.90982145"/>
    <path d="M 416.6517639160156 71.31605529785156 C 421.3244323730469 119.29405975341797 335.3370361328125 152.96109008789062 417.26824951171875 77.66737365722656 C 420.57501220703125 63.432762145996094 379.4451904296875 72.98812103271484 384.93414306640625 102.78827667236328 C 452.30206298828125 40.95295333862305 375.02410888671875 92.28424072265625 407.35284423828125 65.07676696777344 C 457.0719299316406 11.580646514892578 450.6076354980469 39.0738525390625 416.6517639160156 71.31605529785156" stroke-width="0.0" fill="rgb(248, 250, 207)" opacity="0.93392754"/>
    <path d="M 104.44667053222656 383.2030334472656 C 103.1266098022461 386.41961669921875 88.81871795654297 398.0046081542969 78.41596984863281 410.3369140625 C 24.431934356689453 457.525390625 -4.788379669189453 508.91058349609375 -41.42713928222656 490.98321533203125 C 64.56800842285156 374.7256164550781 82.1019287109375 369.33184814453125 104.42310333251953 340.1631164550781 C 102.55213928222656 378.8365478515625 109.87612915039062 379.18060302734375 104.44667053222656 383.2030334472656" stroke-width="0.0" fill="rgb(236, 237, 174)" opacity="0.60162425"/>
    <path d="M 192.55490112304688 268.37841796875 C 170.25714111328125 275.685546875 151.19717407226562 287.3167419433594 145.42376708984375 294.4591979980469 C 125.1004409790039 308.4882507324219 121.52803039550781 346.3591003417969 115.0124282836914 310.01629638671875 C 132.36407470703125 274.90966796875 153.42904663085938 271.46441650390625 161.7092742919922 265.019287109375 C 175.8961181640625 259.1622619628906 188.8511962890625 242.5292510986328 192.55490112304688 268.37841796875" stroke-width="0.0" fill="rgb(1, 0, 0)" opacity="0.966947"/>
    <path d="M 320.9279479980469 259.8627014160156 C 278.8565368652344 222.88235473632812 299.9785461425781 247.9720916748047 271.8825988769531 256.33184814453125 C 260.2931213378906 206.9473114013672 242.4097442626953 296.2752685546875 217.80667114257812 233.83865356445312 C 388.78839111328125 231.33645629882812 75.78828430175781 215.84446716308594 302.5220947265625 216.68296813964844 C 235.1729736328125 277.3436279296875 304.5351867675781 196.78073120117188 320.9279479980469 259.8627014160156" stroke-width="0.0" fill="rgb(4, 1, 6)" opacity="0.9529734"/>
    <path d="M 540.661376953125 378.4814147949219 C 638.9210815429688 322.2530212402344 397.14324951171875 530.4132080078125 542.7451171875 379.1642761230469 C 523.142333984375 344.3164367675781 577.7155151367188 312.978759765625 495.483154296875 393.67999267578125 C 480.071044921875 384.9560546875 521.6314697265625 349.466552734375 655.0781860351562 220.83352661132812 C 504.8567199707031 408.9236755371094 542.8509521484375 308.22259521484375 540.661376953125 378.4814147949219" stroke-width="0.0" fill="rgb(255, 254, 210)" opacity="0.8819548"/>
    <path d="M 350.4222412109375 131.59254455566406 C 318.3451232910156 131.79222106933594 294.2272644042969 131.98037719726562 278.251953125 132.0943145751953 C 256.8479309082031 131.9807586669922 235.25318908691406 131.9891815185547 233.25889587402344 132.02622985839844 C 262.46044921875 120.95635223388672 270.15008544921875 110.05122375488281 297.2370300292969 71.24063873291016 C 321.96868896484375 54.51350784301758 304.56512451171875 98.53717041015625 350.4222412109375 131.59254455566406" stroke-width="0.0" fill="rgb(155, 209, 171)" opacity="0.8681454"/>
    <path d="M 516.7665405273438 432.9875183105469 C 709.3252563476562 230.73776245117188 494.49127197265625 502.9687194824219 514.65087890625 427.1000061035156 C 389.9805603027344 535.98046875 560.06787109375 369.52923583984375 468.52001953125 447.0292053222656 C 484.37896728515625 407.6548767089844 502.34222412109375 397.3443908691406 521.4424438476562 375.3171081542969 C 465.6575622558594 476.19525146484375 491.2253112792969 402.42529296875 516.7665405273438 432.9875183105469" stroke-width="0.0" fill="rgb(255, 254, 216)" opacity="0.8717824"/>
    <path d="M 345.635986328125 -0.3682944178581238 C 329.26727294921875 40.07366180419922 247.271728515625 40.512760162353516 337.2120666503906 -11.982171058654785 C 307.8633728027344 -16.7040958404541 257.2641296386719 71.7623062133789 285.9969177246094 1.2002105712890625 C 260.6719970703125 29.2829647064209 261.03570556640625 -2.1749415397644043 283.1641845703125 -13.363740921020508 C 313.7606201171875 -16.747528076171875 346.37738037109375 -24.331518173217773 345.635986328125 -0.3682944178581238" stroke-width="0.0" fill="rgb(255, 255, 209)" opacity="0.75582147"/>
    <path d="M 565.5712280273438 226.80322265625 C 496.8341064453125 289.09161376953125 478.1564636230469 321.0801696777344 477.97528076171875 294.7266845703125 C 516.5027465820312 263.6890869140625 554.552978515625 209.0062255859375 473.2820129394531 293.5888671875 C 461.023681640625 279.6926574707031 464.3482360839844 291.315673828125 545.127197265625 206.71697998046875 C 488.9209289550781 312.42755126953125 504.9120788574219 247.43434143066406 565.5712280273438 226.80322265625" stroke-width="0.0" fill="rgb(245, 244, 205)" opacity="0.97990733"/>
    <path d="M 365.2225646972656 195.129638671875 C 360.11114501953125 198.86875915527344 364.6845397949219 210.86898803710938 363.42120361328125 216.1625518798828 C 360.5243225097656 217.36801147460938 277.9556884765625 220.9249725341797 236.37158203125 216.18421936035156 C 234.8436737060547 179.59182739257812 307.0417785644531 198.3258819580078 392.6845703125 190.13131713867188 C 354.13427734375 191.2369384765625 362.5448913574219 209.96878051757812 365.2225646972656 195.129638671875" stroke-width="0.0" fill="rgb(151, 222, 176)" opacity="0.7476217"/>
    <path d="M 118.9428482055664 -5.3493332862854 C 72.45613861083984 33.41866683959961 64.68695831298828 44.116783142089844 -8.412843704223633 112.4453125 C -14.62975025177002 90.55491638183594 -8.57450008392334 76.91386413574219 -30.93064308166504 2.782052993774414 C 1.6504952907562256 -22.22439193725586 34.81382751464844 2.7974607944488525 55.161441802978516 -2.6251869201660156 C 76.82363891601562 -7.233750343322754 90.58089447021484 -14.322710037231445 118.9428482055664 -5.3493332862854" stroke-width="0.0" fill="rgb(239, 242, 197)" opacity="0.79861975"/>
    <path d="M 338.8155212402344 421.7532653808594 C 320.26995849609375 424.1566467285156 290.9719543457031 420.90008544921875 264.8416442871094 421.8626403808594 C 279.3600769042969 390.359130859375 259.4508972167969 447.49810791015625 254.10736083984375 388.4592590332031 C 236.2051239013672 457.55780029296875 292.39691162109375 394.708251953125 272.4921569824219 414.6402893066406 C 326.7308044433594 415.99078369140625 358.5672302246094 410.9283447265625 338.8155212402344 421.7532653808594" stroke-width="0.0" fill="rgb(5, 0, 4)" opacity="0.97033095"/>
    <path d="M 378.1760559082031 44.23135757446289 C 371.59442138671875 84.24579620361328 368.9950256347656 99.93927764892578 366.01910400390625 135.72525024414062 C 366.3714599609375 60.308204650878906 304.96368408203125 94.37518310546875 310.3719482421875 45.77345657348633 C 339.3309326171875 44.74921417236328 360.0551452636719 46.362335205078125 326.2217712402344 44.64692687988281 C 328.9899597167969 44.9818000793457 371.12677001953125 44.18366241455078 378.1760559082031 44.23135757446289" stroke-width="0.0" fill="rgb(149, 210, 169)" opacity="0.8426"/>
    <path d="M 295.79339599609375 554.8070068359375 C 286.6879577636719 556.305419921875 275.5338439941406 556.38818359375 285.3847961425781 554.606689453125 C 291.45306396484375 554.763427734375 280.44189453125 555.9773559570312 269.2931213378906 558.001708984375 C 276.2969665527344 556.6264038085938 284.3699645996094 554.6098022460938 256.2503662109375 547.8268432617188 C 276.131591796875 546.8047485351562 290.8780212402344 549.6393432617188 295.79339599609375 554.8070068359375" stroke-width="0.0" fill="rgb(131, 241, 169)" opacity="0.635263"/>
    <path d="M 339.3981628417969 548.2880859375 C 345.06402587890625 566.6671142578125 293.5148620605469 562.425048828125 260.5735168457031 562.1532592773438 C 194.09600830078125 556.1162719726562 215.59109497070312 562.6762084960938 214.34347534179688 536.1880493164062 C 235.25938415527344 548.5462646484375 297.5244140625 547.4631958007812 280.2667236328125 548.0451049804688 C 266.73236083984375 547.8856811523438 278.8573303222656 548.1698608398438 339.3981628417969 548.2880859375" stroke-width="0.0" fill="rgb(154, 208, 169)" opacity="1.0"/>
    <path d="M 379.1327209472656 143.0950164794922 C 358.77288818359375 144.9242401123047 366.8518371582031 169.75157165527344 362.4837646484375 199.15594482421875 C 379.5478210449219 206.90267944335938 373.937255859375 204.44973754882812 378.62005615234375 185.74790954589844 C 372.8509216308594 167.08396911621094 369.1401672363281 163.53724670410156 372.9665222167969 170.9245147705078 C 381.16363525390625 186.1652374267578 375.8889465332031 195.36767578125 379.1327209472656 143.0950164794922" stroke-width="0.0" fill="rgb(2, 1, 1)" opacity="0.999008"/>
    <path d="M 377.4818420410156 182.17977905273438 C 458.116455078125 96.54798889160156 416.3350830078125 154.6313934326172 366.1494445800781 196.93545532226562 C 406.14776611328125 158.69583129882812 342.3082275390625 184.75665283203125 217.10105895996094 170.9928436279297 C 321.8655700683594 158.53074645996094 407.32177734375 186.1566162109375 369.4061279296875 136.21768188476562 C 390.3577575683594 93.44574737548828 375.91229248046875 169.44207763671875 377.4818420410156 182.17977905273438" stroke-width="0.0" fill="rgb(0, 0, 0)" opacity="0.7643834"/>
    <path d="M 570.8624877929688 349.6766052246094 C 688.96923828125 255.1813201904297 471.4185791015625 477.803955078125 590.6980590820312 323.3692321777344 C 528.2872314453125 381.0619201660156 533.6419067382812 390.9725036621094 543.1676025390625 342.7253112792969 C 538.3837280273438 345.7445373535156 544.2398071289062 339.50274658203125 540.4661865234375 355.85760498046875 C 619.6539916992188 277.3351135253906 636.540283203125 264.67205810546875 570.8624877929688 349.6766052246094" stroke-width="0.0" fill="rgb(255, 250, 203)" opacity="0.8995104"/>
    <path d="M 539.6475219726562 371.865234375 C 542.186767578125 374.28662109375 533.6175537109375 377.9783020019531 498.0643005371094 418.01776123046875 C 487.9232177734375 428.90948486328125 516.2606811523438 383.70965576171875 525.0179443359375 364.4502258300781 C 522.3157348632812 369.29345703125 528.7789916992188 357.8719482421875 517.3017578125 379.5544738769531 C 539.2708129882812 359.0618896484375 543.6500244140625 347.3389892578125 539.6475219726562 371.865234375" stroke-width="0.0" fill="rgb(250, 249, 205)" opacity="0.94564855"/>
    <path d="M 570.9017944335938 292.0853576660156 C 607.5802612304688 272.8236083984375 601.0013427734375 275.1263427734375 567.7907104492188 294.3315124511719 C 478.6761779785156 394.1614074707031 469.5896911621094 369.81396484375 546.176513671875 301.7660827636719 C 580.7611694335938 266.4039306640625 583.4889526367188 265.070068359375 570.24462890625 278.4964294433594 C 621.5282592773438 224.42208862304688 634.0399169921875 235.9564666748047 570.9017944335938 292.0853576660156" stroke-width="0.0" fill="rgb(255, 254, 212)" opacity="0.8859301"/>
    <path d="M 579.9607543945312 236.76243591308594 C 567.2611694335938 243.73373413085938 570.1968994140625 248.8235321044922 535.04150390625 274.7375183105469 C 509.0181579589844 285.0182189941406 534.854736328125 267.7158508300781 569.1736450195312 230.56947326660156 C 556.5772094726562 227.79443359375 556.7594604492188 227.84149169921875 570.1117553710938 230.6978759765625 C 624.8130493164062 175.5326385498047 635.8963623046875 184.27000427246094 579.9607543945312 236.76243591308594" stroke-width="0.0" fill="rgb(249, 251, 213)" opacity="0.958503"/>
    <path d="M 196.34475708007812 521.5523071289062 C 208.16549682617188 541.4395141601562 194.33961486816406 547.4591674804688 203.69857788085938 571.4209594726562 C 218.46775817871094 590.0017700195312 214.094482421875 521.9182739257812 206.8388214111328 516.3565673828125 C 195.29556274414062 541.820068359375 201.89317321777344 533.3935546875 202.39468383789062 522.989501953125 C 213.94219970703125 531.6246948242188 219.21011352539062 535.7972412109375 196.34475708007812 521.5523071289062" stroke-width="0.0" fill="rgb(1, 0, 0)" opacity="0.95825344"/>
    <path d="M 286.1716613769531 491.1475524902344 C 252.0145721435547 492.69085693359375 235.48248291015625 491.0862731933594 285.8828125 491.0032653808594 C 269.8161926269531 495.4475402832031 168.0424346923828 484.076904296875 159.23028564453125 497.5852966308594 C 326.5050354003906 497.6822204589844 461.5841979980469 502.45123291015625 433.3426513671875 490.8333435058594 C 255.45188903808594 490.7261657714844 258.6982116699219 492.0767822265625 286.1716613769531 491.1475524902344" stroke-width="0.0" fill="rgb(2, 0, 2)" opacity="0.9179268"/>
    <path d="M 75.41297149658203 293.77264404296875 C 87.7003173828125 293.3803405761719 91.620849609375 290.22833251953125 76.05331420898438 294.28375244140625 C 31.932748794555664 320.5688781738281 53.23908615112305 404.4612121582031 -49.9539794921875 318.0904541015625 C 65.53910064697266 290.72137451171875 55.00883102416992 273.42303466796875 91.37891387939453 226.1405029296875 C 81.23530578613281 289.7364807128906 147.75064086914062 224.03814697265625 75.41297149658203 293.77264404296875" stroke-width="0.0" fill="rgb(210, 211, 182)" opacity="1.0"/>
    <path d="M 576.3300170898438 423.3480224609375 C 689.8163452148438 320.3024597167969 483.19329833984375 553.3148803710938 598.1337890625 392.0458679199219 C 474.6280517578125 525.755859375 454.4400329589844 518.2557373046875 562.6865234375 413.0890808105469 C 572.2625732421875 391.8116149902344 569.6004028320312 397.2322998046875 563.6520385742188 411.1012268066406 C 632.1306762695312 342.0703430175781 615.6865844726562 367.6407775878906 576.3300170898438 423.3480224609375" stroke-width="0.0" fill="rgb(254, 254, 210)" opacity="0.93577135"/>
    <path d="M 300.59246826171875 605.8894653320312 C 323.6558837890625 600.6284790039062 315.1059265136719 607.3922729492188 302.0664978027344 613.51953125 C 298.7048034667969 605.5862426757812 266.751220703125 618.3782958984375 270.5469055175781 596.9228515625 C 341.124755859375 533.1349487304688 234.8524169921875 659.8765258789062 309.8929443359375 579.3345336914062 C 336.7470397949219 577.1105346679688 320.2427062988281 578.9617309570312 300.59246826171875 605.8894653320312" stroke-width="0.0" fill="rgb(255, 255, 217)" opacity="0.9284974"/>
    <path d="M 92.53820037841797 206.28102111816406 C 62.664878845214844 237.5644073486328 42.3570442199707 254.7490692138672 20.552841186523438 276.84869384765625 C 22.897430419921875 366.314453125 -72.693115234375 273.8922424316406 17.15760040283203 264.5546875 C 58.91811752319336 224.53573608398438 59.043949127197266 217.43312072753906 38.769615173339844 244.1099395751953 C 104.45403289794922 172.80026245117188 145.70040893554688 160.68109130859375 92.53820037841797 206.28102111816406" stroke-width="0.0" fill="rgb(228, 229, 195)" opacity="1.0"/>
    <path d="M 332.79522705078125 434.25604248046875 C 322.4933166503906 436.8426818847656 265.5915222167969 434.1606140136719 269.4963684082031 436.4776916503906 C 263.5550231933594 434.2247619628906 269.5172424316406 445.94183349609375 260.48046875 429.9627990722656 C 257.2183532714844 417.8929138183594 291.0119934082031 425.57781982421875 245.95994567871094 420.76666259765625 C 315.6398010253906 428.56427001953125 343.1291809082031 413.5155334472656 332.79522705078125 434.25604248046875" stroke-width="0.0" fill="rgb(223, 229, 182)" opacity="1.0"/>
    <path d="M 604.4195556640625 415.2361145019531 C 536.878662109375 490.0696105957031 394.0467529296875 638.439453125 362.27734375 635.5717163085938 C 584.34130859375 422.2471618652344 605.7125244140625 385.60748291015625 393.1914367675781 599.5482788085938 C 360.6427917480469 584.8982543945312 476.1882629394531 511.13226318359375 385.3603820800781 587.966064453125 C 403.2665710449219 625.6094360351562 393.3185119628906 618.477294921875 604.4195556640625 415.2361145019531" stroke-width="0.0" fill="rgb(57, 59, 65)" opacity="0.8099351"/>
    <path d="M 222.08026123046875 240.457275390625 C 205.6989288330078 254.3696746826172 194.22860717773438 262.82568359375 191.6978302001953 264.7667541503906 C 215.21148681640625 261.17095947265625 214.8036346435547 254.3678436279297 203.2760467529297 263.7238464355469 C 210.19383239746094 263.37335205078125 220.51959228515625 263.7147216796875 231.8369598388672 263.857421875 C 219.56399536132812 242.72654724121094 226.05923461914062 246.9951171875 222.08026123046875 240.457275390625" stroke-width="0.0" fill="rgb(227, 255, 231)" opacity="0.6386048"/>
    <path d="M 260.08123779296875 249.39430236816406 C 261.94866943359375 248.56378173828125 250.01907348632812 254.60826110839844 266.757080078125 254.82347106933594 C 272.4244079589844 252.54629516601562 260.6867370605469 249.468017578125 256.44403076171875 252.46559143066406 C 249.99716186523438 251.6586151123047 254.74673461914062 242.71299743652344 263.18023681640625 241.48512268066406 C 266.17694091796875 246.80682373046875 265.9809265136719 256.0058898925781 260.08123779296875 249.39430236816406" stroke-width="0.0" fill="rgb(176, 244, 208)" opacity="1.0"/>
    <path d="M 241.71719360351562 263.6018981933594 C 224.06517028808594 264.4034729003906 215.84580993652344 260.9970397949219 211.42062377929688 251.007568359375 C 199.82351684570312 259.61090087890625 188.5107421875 268.2482604980469 197.84683227539062 263.471435546875 C 216.73011779785156 264.8937683105469 220.2473907470703 253.0514373779297 224.7740478515625 251.73617553710938 C 213.82357788085938 231.37600708007812 230.54791259765625 233.61451721191406 241.71719360351562 263.6018981933594" stroke-width="0.0" fill="rgb(207, 236, 205)" opacity="0.9533695"/>
    <path d="M 277.8481140136719 250.03843688964844 C 265.34027099609375 212.1193084716797 269.77587890625 245.41714477539062 253.43508911132812 260.1620788574219 C 252.70533752441406 264.3716125488281 257.16473388671875 261.3828430175781 268.06854248046875 232.6545867919922 C 222.60028076171875 242.057373046875 235.2181854248047 222.4443817138672 267.67315673828125 225.93055725097656 C 303.9205017089844 228.3834991455078 289.697021484375 218.56829833984375 277.8481140136719 250.03843688964844" stroke-width="0.0" fill="rgb(213, 229, 191)" opacity="0.9091209"/>
    <path d="M 265.3660583496094 241.37493896484375 C 275.32159423828125 269.480712890625 298.6150817871094 263.9352111816406 235.5720977783203 262.43505859375 C 267.5193786621094 241.08570861816406 269.2077941894531 212.8905029296875 241.55569458007812 250.62852478027344 C 243.06619262695312 238.8148193359375 203.93666076660156 219.18032836914062 263.25177001953125 226.53123474121094 C 259.0649108886719 248.56768798828125 244.15182495117188 248.57150268554688 265.3660583496094 241.37493896484375" stroke-width="0.0" fill="rgb(214, 238, 209)" opacity="0.91895026"/>
    <path d="M 220.36129760742188 373.3525085449219 C 227.04241943359375 362.12310791015625 217.47947692871094 371.6133728027344 230.34417724609375 378.50262451171875 C 231.3319854736328 374.7818603515625 228.50860595703125 362.0673828125 229.4860076904297 357.00390625 C 222.51283264160156 361.55181884765625 213.83326721191406 353.47637939453125 227.25038146972656 342.7966613769531 C 233.3938751220703 357.9921875 221.05825805664062 371.72650146484375 220.36129760742188 373.3525085449219" stroke-width="0.0" fill="rgb(0, 0, 4)" opacity="0.6305546"/>
    <path d="M 226.99404907226562 376.609130859375 C 233.59918212890625 362.32208251953125 227.91329956054688 372.07666015625 228.80117797851562 369.02972412109375 C 222.282958984375 363.4081115722656 214.42189025878906 358.37835693359375 240.0470428466797 377.2173767089844 C 222.09803771972656 382.0203857421875 230.1322784423828 355.68914794921875 231.591552734375 345.1022033691406 C 216.4100799560547 342.84326171875 223.2000732421875 365.99078369140625 226.99404907226562 376.609130859375" stroke-width="0.0" fill="rgb(1, 0, 0)" opacity="0.9081231"/>
    <path d="M 200.5826416015625 459.890380859375 C 155.83734130859375 459.00421142578125 163.2721405029297 464.73565673828125 152.19212341308594 446.154541015625 C 157.61895751953125 454.1551818847656 155.57937622070312 448.91546630859375 151.9513702392578 448.255859375 C 163.7589874267578 438.9543762207031 163.76708984375 435.7781677246094 178.76406860351562 444.8819580078125 C 179.89076232910156 439.5908508300781 174.51785278320312 455.0070495605469 200.5826416015625 459.890380859375" stroke-width="0.0" fill="rgb(165, 235, 194)" opacity="0.8718435"/>
    <path d="M 562.03515625 467.1192932128906 C 563.3118286132812 463.67425537109375 558.592041015625 480.0375671386719 567.6179809570312 448.9360046386719 C 515.2667236328125 501.47100830078125 510.19561767578125 487.8918151855469 544.7450561523438 455.94964599609375 C 543.8558959960938 443.7399597167969 543.61376953125 441.87481689453125 544.7616577148438 455.67095947265625 C 584.2326049804688 418.4789733886719 577.5513305664062 412.3612976074219 562.03515625 467.1192932128906" stroke-width="0.0" fill="rgb(249, 251, 208)" opacity="0.9820241"/>
    <path d="M 179.750244140625 383.9403991699219 C 155.5778045654297 363.2505187988281 121.26134490966797 390.7383117675781 141.2791748046875 382.1277770996094 C 160.1100616455078 371.9623718261719 153.7640838623047 379.1875 90.26432037353516 374.8125915527344 C 145.11085510253906 391.9492492675781 130.12730407714844 379.73126220703125 150.46728515625 376.8341064453125 C 136.29287719726562 387.3633728027344 122.832763671875 381.8319396972656 179.750244140625 383.9403991699219" stroke-width="0.0" fill="rgb(2, 0, 2)" opacity="0.9631677"/>
    <path d="M 326.35455322265625 332.45123291015625 C 350.95379638671875 360.2366638183594 337.1953125 353.3346252441406 310.3846435546875 334.9108581542969 C 298.2408142089844 345.94091796875 274.58489990234375 359.45452880859375 252.12985229492188 346.5705871582031 C 274.0089111328125 303.730712890625 307.9540100097656 323.9375 289.64739990234375 317.59478759765625 C 304.51885986328125 318.404296875 307.75341796875 317.39715576171875 326.35455322265625 332.45123291015625" stroke-width="0.0" fill="rgb(8, 6, 7)" opacity="1.0"/>
    <path d="M 257.7969055175781 443.0600891113281 C 263.5624084472656 438.7059020996094 249.0138397216797 447.59576416015625 272.6167907714844 443.6943359375 C 248.06503295898438 428.9170837402344 269.3267822265625 416.4859313964844 249.6815185546875 436.01214599609375 C 249.1578826904297 436.20947265625 253.9429931640625 430.38397216796875 236.10426330566406 424.9562683105469 C 248.2696075439453 443.3622131347656 252.38038635253906 426.54388427734375 257.7969055175781 443.0600891113281" stroke-width="0.0" fill="rgb(2, 0, 10)" opacity="0.85529214"/>
    <path d="M 622.6174926757812 501.57183837890625 C 628.4683837890625 532.9397583007812 504.7778625488281 641.0164184570312 548.269775390625 588.7577514648438 C 656.0272827148438 498.3505859375 599.2338256835938 472.0870361328125 476.12615966796875 631.5145874023438 C 472.2112731933594 608.1275634765625 613.33349609375 481.5498046875 631.0264892578125 458.5570068359375 C 476.99853515625 659.4285278320312 461.7310791015625 656.4592895507812 622.6174926757812 501.57183837890625" stroke-width="0.0" fill="rgb(106, 112, 109)" opacity="0.86313033"/>
    <path d="M 423.5675964355469 272.6180725097656 C 459.3710632324219 330.71258544921875 436.4327392578125 428.6011962890625 371.6789855957031 345.82440185546875 C 270.88433837890625 278.8558654785156 208.42698669433594 372.94024658203125 209.6536407470703 273.47198486328125 C 364.2744140625 272.3188781738281 374.1241149902344 274.38336181640625 357.2938537597656 273.6052551269531 C 346.4546203613281 272.5782165527344 355.0493469238281 273.2789611816406 423.5675964355469 272.6180725097656" stroke-width="0.0" fill="rgb(175, 255, 207)" opacity="0.41890427"/>
    <path d="M 206.77056884765625 413.55706787109375 C 201.82969665527344 409.7798156738281 181.1621551513672 427.11334228515625 194.20175170898438 455.61181640625 C 156.5255126953125 444.22796630859375 168.1226348876953 398.94482421875 171.72544860839844 389.1873474121094 C 213.80191040039062 379.6329345703125 185.55490112304688 396.6811828613281 145.1268310546875 334.75396728515625 C 196.9951629638672 375.50469970703125 195.48582458496094 414.01519775390625 206.77056884765625 413.55706787109375" stroke-width="0.0" fill="rgb(0, 36, 23)" opacity="0.7399547"/>
    <path d="M 201.1184539794922 408.1975402832031 C 198.2434539794922 420.01837158203125 193.85122680664062 428.2937927246094 182.73239135742188 434.1933288574219 C 150.41592407226562 441.172119140625 176.0375213623047 403.83270263671875 164.0252227783203 381.39788818359375 C 139.3529052734375 404.1025695800781 174.1592559814453 398.53076171875 176.90667724609375 380.6695251464844 C 188.86964416503906 380.989990234375 192.2078399658203 393.7879943847656 201.1184539794922 408.1975402832031" stroke-width="0.0" fill="rgb(135, 255, 195)" opacity="0.6089663"/>
    <path d="M 166.7725067138672 399.15484619140625 C 184.0204620361328 398.53076171875 171.8110809326172 397.4384460449219 168.31822204589844 399.1327209472656 C 175.2609100341797 407.1562805175781 167.29608154296875 399.9914855957031 163.26026916503906 394.893310546875 C 170.26773071289062 398.2956237792969 188.2437286376953 381.3265075683594 129.5248565673828 354.5091247558594 C 183.34808349609375 370.95428466796875 190.42213439941406 403.45458984375 166.7725067138672 399.15484619140625" stroke-width="0.0" fill="rgb(2, 7, 9)" opacity="0.93642104"/>
    <path d="M 314.2043151855469 255.43435668945312 C 377.9173583984375 237.3226776123047 306.33599853515625 287.0627136230469 283.4310607910156 251.2866973876953 C 277.34515380859375 256.2702941894531 252.4430389404297 266.2167663574219 294.3298034667969 263.56622314453125 C 307.10418701171875 265.4779052734375 284.6185302734375 259.3648986816406 283.41253662109375 249.9736328125 C 288.51275634765625 246.81417846679688 288.929443359375 229.85491943359375 314.2043151855469 255.43435668945312" stroke-width="0.0" fill="rgb(196, 239, 206)" opacity="0.7930294"/>
    <path d="M 244.02809143066406 436.26373291015625 C 260.9861145019531 440.2375183105469 243.74313354492188 429.3365783691406 265.25054931640625 438.1156921386719 C 220.27085876464844 417.7486267089844 195.93667602539062 410.55560302734375 180.93458557128906 451.88818359375 C 176.9420623779297 393.46026611328125 256.2803039550781 414.3293762207031 249.1193084716797 435.5354919433594 C 232.69097900390625 418.1490783691406 237.24642944335938 427.0121765136719 244.02809143066406 436.26373291015625" stroke-width="0.0" fill="rgb(0, 0, 3)" opacity="0.93415207"/>
    <path d="M 180.37179565429688 490.6405944824219 C 194.01979064941406 490.0423889160156 186.44525146484375 493.1663818359375 290.1160583496094 487.1834411621094 C 228.34445190429688 458.13995361328125 192.5872039794922 473.38525390625 162.6367645263672 468.2493896484375 C 174.4661407470703 475.8010559082031 177.7147216796875 476.987060546875 163.7017364501953 469.1192932128906 C 169.474609375 473.07763671875 174.2944793701172 486.08062744140625 180.37179565429688 490.6405944824219" stroke-width="0.0" fill="rgb(172, 224, 186)" opacity="0.9511133"/>
    <path d="M 92.2840576171875 385.8528137207031 C 95.82318878173828 382.8894958496094 89.29015350341797 390.2075500488281 99.7574462890625 384.4185485839844 C 80.38945007324219 377.670654296875 70.22559356689453 409.5279541015625 19.909412384033203 447.2524719238281 C 79.55889892578125 378.31536865234375 92.13021087646484 378.5406799316406 103.83778381347656 359.4163513183594 C 106.89035034179688 372.9859924316406 101.26081085205078 386.0396728515625 92.2840576171875 385.8528137207031" stroke-width="0.0" fill="rgb(77, 80, 92)" opacity="0.6394454"/>
    <path d="M 104.13753509521484 373.9195251464844 C 109.22052764892578 379.3526611328125 102.14311218261719 391.37158203125 69.46372985839844 405.3341064453125 C 45.5030632019043 422.3338928222656 65.98056030273438 407.953125 96.44743347167969 375.4239196777344 C 79.27049255371094 376.5299377441406 82.01627349853516 375.73291015625 95.78712463378906 375.76251220703125 C 103.06478881835938 371.2209777832031 104.12337493896484 362.0341796875 104.13753509521484 373.9195251464844" stroke-width="0.0" fill="rgb(244, 246, 205)" opacity="0.9907277"/>
    <path d="M 325.50579833984375 344.6504211425781 C 302.6699523925781 344.5337219238281 289.2498474121094 344.2820739746094 301.937255859375 344.56915283203125 C 310.05364990234375 344.4606018066406 290.7948303222656 344.69317626953125 264.4158630371094 344.6768798828125 C 275.832763671875 320.4469909667969 302.11383056640625 327.97607421875 306.1227722167969 331.02191162109375 C 303.61444091796875 327.46307373046875 314.6413269042969 331.1802673339844 325.50579833984375 344.6504211425781" stroke-width="0.0" fill="rgb(219, 224, 177)" opacity="1.0"/>
    <path d="M 480.77880859375 262.52227783203125 C 480.0306091308594 269.9817199707031 472.8033142089844 266.3824768066406 463.1977233886719 281.5289306640625 C 448.8475036621094 268.931396484375 452.4682922363281 281.1477966308594 466.60687255859375 260.60650634765625 C 457.7275695800781 254.4735870361328 457.6809997558594 254.32711791992188 466.566650390625 260.598388671875 C 513.269287109375 227.74044799804688 527.021240234375 219.4473876953125 480.77880859375 262.52227783203125" stroke-width="0.0" fill="rgb(251, 251, 217)" opacity="0.95306855"/>
  </g>
</svg>
