<?xml version="1.0" ?>
<svg xmlns="http://www.w3.org/2000/svg" version="1.1" width="600" height="600">
  <defs/>
  <g>
    <path d="M 209.73472595214844 287.97314453125 C 70.3376235961914 433.70550537109375 42.50877380371094 419.4384765625 19.6378231048584 474.3495178222656 C 28.656612396240234 529.4491577148438 6.915670394897461 524.6397094726562 -1.2529441118240356 506.94866943359375 C 22.050701141357422 414.745361328125 50.28392791748047 417.64886474609375 207.3981475830078 228.358642578125 C 197.1208953857422 200.4003143310547 221.8027801513672 217.72164916992188 209.73472595214844 287.97314453125" stroke-width="0.0" fill="rgb(145, 141, 55)" opacity="0.49783647"/>
    <path d="M 609.2594604492188 224.51889038085938 C 521.7138061523438 359.8834533691406 516.6051635742188 371.673828125 442.2341003417969 396.4119873046875 C 350.29351806640625 384.60888671875 306.55950927734375 414.336181640625 204.09091186523438 159.43099975585938 C 98.8072280883789 121.56583404541016 103.55752563476562 137.53533935546875 267.2014465332031 121.85105895996094 C 585.083251953125 134.75631713867188 581.5133056640625 153.3807830810547 609.2594604492188 224.51889038085938" stroke-width="0.0" fill="rgb(210, 131, 57)" opacity="0.8154607"/>
    <path d="M 591.7886352539062 352.12457275390625 C 644.5414428710938 418.7763366699219 620.1307983398438 428.27630615234375 529.1312866210938 419.77923583984375 C 467.67608642578125 423.07391357421875 455.0827941894531 443.0314636230469 448.7093811035156 396.1613464355469 C 500.3220520019531 320.8941345214844 530.6402587890625 332.2514953613281 607.9421997070312 290.29840087890625 C 608.2205200195312 243.99134826660156 587.2451171875 281.44134521484375 591.7886352539062 352.12457275390625" stroke-width="0.0" fill="rgb(52, 97, 60)" opacity="0.9810806"/>
    <path d="M 306.2935485839844 318.17144775390625 C 168.8856658935547 522.4374389648438 157.97686767578125 569.4315795898438 44.570579528808594 625.0589599609375 C -69.35599517822266 610.406005859375 -54.608978271484375 593.12060546875 -39.01062774658203 541.3627319335938 C 35.38058853149414 418.9096984863281 54.82929992675781 423.7753601074219 187.4117889404297 279.9779968261719 C 275.7996520996094 253.71173095703125 301.9953918457031 238.39193725585938 306.2935485839844 318.17144775390625" stroke-width="0.0" fill="rgb(0, 41, 20)" opacity="1.0"/>
    <path d="M 565.7243041992188 510.1238708496094 C 550.0551147460938 527.5623168945312 510.0306701660156 517.4644775390625 470.3759460449219 532.468017578125 C 429.4990234375 530.6824951171875 420.2030029296875 530.9114990234375 424.58258056640625 467.7162170410156 C 443.0871887207031 422.33099365234375 449.7502746582031 410.1929626464844 510.2030334472656 327.3819274902344 C 544.0200805664062 402.4090576171875 535.763916015625 438.4635009765625 565.7243041992188 510.1238708496094" stroke-width="0.0" fill="rgb(52, 101, 66)" opacity="1.0"/>
    <path d="M 353.8268737792969 510.3492126464844 C 323.6343688964844 654.9498901367188 307.7135925292969 642.6795043945312 182.4212188720703 632.8323974609375 C 80.49778747558594 657.987060546875 55.08189010620117 692.2592163085938 76.16523742675781 607.607666015625 C 114.61029052734375 467.6617126464844 85.28172302246094 396.6794128417969 258.80316162109375 345.2259216308594 C 353.2666015625 389.399169921875 340.465576171875 441.57086181640625 353.8268737792969 510.3492126464844" stroke-width="0.0" fill="rgb(200, 253, 202)" opacity="0.98837334"/>
    <path d="M 635.1276245117188 331.9312744140625 C 640.491943359375 385.1060485839844 639.2998657226562 393.3435363769531 582.1644897460938 399.04559326171875 C 554.221435546875 393.4178161621094 545.2681274414062 376.1183166503906 534.9522094726562 375.8743896484375 C 539.98388671875 283.859130859375 519.0037231445312 242.85533142089844 612.5978393554688 189.63494873046875 C 672.4868774414062 216.71621704101562 639.4356689453125 257.9864807128906 635.1276245117188 331.9312744140625" stroke-width="0.0" fill="rgb(65, 109, 43)" opacity="0.932672"/>
    <path d="M 479.55413818359375 464.48150634765625 C 499.76922607421875 550.4364624023438 517.2853393554688 578.69189453125 331.7954406738281 697.5392456054688 C 272.8394775390625 608.9340209960938 275.0109558105469 597.5438842773438 318.3571472167969 440.6208190917969 C 364.3248291015625 370.1725769042969 335.275390625 338.71966552734375 347.6285400390625 334.8719787597656 C 513.3629760742188 379.5209045410156 500.41912841796875 399.7872619628906 479.55413818359375 464.48150634765625" stroke-width="0.0" fill="rgb(31, 116, 53)" opacity="0.998757"/>
    <path d="M 216.38143920898438 147.46005249023438 C 99.26348876953125 411.0365295410156 49.968475341796875 405.4995422363281 14.883889198303223 442.95233154296875 C -32.75947570800781 427.2824401855469 -25.667898178100586 403.6535949707031 -22.33009147644043 235.96954345703125 C -140.7387237548828 20.238296508789062 -269.0851135253906 -33.017642974853516 211.4710235595703 -4.561164379119873 C 91.0921859741211 216.1322784423828 142.63516235351562 145.23135375976562 216.38143920898438 147.46005249023438" stroke-width="0.0" fill="rgb(33, 117, 58)" opacity="0.99585664"/>
    <path d="M 634.847412109375 383.1265869140625 C 628.4415893554688 420.9385681152344 646.2671508789062 455.3990478515625 585.75927734375 542.3209228515625 C 505.0255432128906 516.9269409179688 527.7221069335938 479.8048095703125 521.9917602539062 400.37109375 C 510.5815734863281 314.9832763671875 530.4053955078125 331.6961364746094 573.7774047851562 350.95587158203125 C 605.9122924804688 358.9171142578125 622.985107421875 367.53912353515625 634.847412109375 383.1265869140625" stroke-width="0.0" fill="rgb(77, 93, 62)" opacity="0.98329353"/>
    <path d="M 306.0377197265625 214.44052124023438 C 131.11595153808594 449.0165710449219 59.99883270263672 422.3982849121094 -11.59321403503418 466.7698059082031 C -19.886573791503906 478.6387939453125 -19.96553611755371 463.25665283203125 -9.948877334594727 437.3832092285156 C 44.07417297363281 418.9874267578125 41.302162170410156 392.6589050292969 207.1932830810547 145.4700469970703 C 248.74803161621094 163.60963439941406 281.93927001953125 168.7307586669922 306.0377197265625 214.44052124023438" stroke-width="0.0" fill="rgb(255, 251, 206)" opacity="1.0"/>
    <path d="M 704.5051879882812 411.77947998046875 C 620.4589233398438 550.7457275390625 624.854736328125 572.4957885742188 566.01220703125 624.7587280273438 C 441.39593505859375 528.5928955078125 424.18841552734375 516.7274169921875 390.3555908203125 400.8176574707031 C 420.37457275390625 352.9028625488281 415.96649169921875 337.3069152832031 512.0628051757812 311.2597961425781 C 651.3226318359375 299.1298522949219 653.8892822265625 306.9932861328125 704.5051879882812 411.77947998046875" stroke-width="0.0" fill="rgb(31, 117, 56)" opacity="0.95087576"/>
    <path d="M 584.2847900390625 581.0565795898438 C 554.7210083007812 591.6534423828125 504.7261657714844 571.8624267578125 457.9593811035156 583.441162109375 C 485.44390869140625 527.283447265625 453.8872375488281 529.9595947265625 467.0137634277344 536.7907104492188 C 463.65545654296875 503.1688232421875 460.87445068359375 498.205078125 501.375244140625 497.67822265625 C 525.0014038085938 482.4405822753906 551.305908203125 483.4923400878906 584.2847900390625 581.0565795898438" stroke-width="0.0" fill="rgb(91, 85, 62)" opacity="0.72038895"/>
    <path d="M 505.43408203125 529.2403564453125 C 510.49664306640625 561.4844360351562 513.786376953125 581.8152465820312 435.9798583984375 666.2999267578125 C 375.1534423828125 618.4886474609375 354.989990234375 620.8604125976562 308.2037658691406 577.481201171875 C 344.62811279296875 453.5910339355469 340.30743408203125 487.6057434082031 428.060546875 496.841796875 C 504.8874206542969 489.1855163574219 504.39373779296875 496.6781311035156 505.43408203125 529.2403564453125" stroke-width="0.0" fill="rgb(35, 121, 61)" opacity="0.7771257"/>
    <path d="M 644.3765258789062 574.18994140625 C 598.1554565429688 631.7920532226562 569.1505737304688 623.4213256835938 492.11248779296875 622.1473388671875 C 403.8284606933594 619.837646484375 392.7423400878906 610.6197509765625 436.572998046875 639.4552612304688 C 471.7946472167969 551.9735717773438 451.99456787109375 514.7994384765625 451.345458984375 468.3376770019531 C 562.80224609375 465.71722412109375 630.97509765625 424.8345947265625 644.3765258789062 574.18994140625" stroke-width="0.0" fill="rgb(40, 111, 61)" opacity="1.0"/>
    <path d="M 662.1986083984375 153.185791015625 C 685.2252197265625 202.1987762451172 682.62890625 209.96112060546875 477.500732421875 196.17852783203125 C 461.6170349121094 116.0428466796875 445.6709289550781 -137.2390594482422 153.91552734375 120.77542877197266 C 77.24462890625 -168.9763641357422 278.97088623046875 -44.45769119262695 506.1352233886719 -9.442619323730469 C 590.9710693359375 -51.64054870605469 614.131591796875 -75.06906127929688 662.1986083984375 153.185791015625" stroke-width="0.0" fill="rgb(34, 120, 66)" opacity="0.99004436"/>
    <path d="M 557.09130859375 4.197793960571289 C 538.428466796875 2.491656541824341 535.5582275390625 -14.99236011505127 537.958984375 13.7401123046875 C 516.2864379882812 -7.42575740814209 519.7200927734375 -0.8841179013252258 515.23046875 -20.27216911315918 C 487.0064697265625 -14.931418418884277 498.6019287109375 -26.894371032714844 518.086669921875 -44.61473083496094 C 520.4951171875 -24.809255599975586 535.6882934570312 -24.100574493408203 557.09130859375 4.197793960571289" stroke-width="0.0" fill="rgb(75, 101, 75)" opacity="0.44424987"/>
    <path d="M 596.4558715820312 -13.572615623474121 C 567.1325073242188 -6.934847831726074 537.1817016601562 -10.112459182739258 539.2843627929688 20.34661865234375 C 542.1983642578125 16.73949432373047 511.5884704589844 20.175186157226562 528.616455078125 24.229408264160156 C 525.6231079101562 -28.769031524658203 532.826904296875 -36.20197677612305 549.59228515625 -30.84952163696289 C 581.1778564453125 -17.832780838012695 590.0841674804688 -11.480278968811035 596.4558715820312 -13.572615623474121" stroke-width="0.0" fill="rgb(62, 81, 113)" opacity="0.6276267"/>
    <path d="M 618.3216552734375 61.919395446777344 C 619.4501953125 79.59722137451172 615.7831420898438 99.11185455322266 573.172607421875 122.5863265991211 C 560.16845703125 113.87306213378906 559.8256225585938 102.86575317382812 549.19140625 69.81230163574219 C 547.5166625976562 30.339536666870117 571.723876953125 30.029340744018555 592.6844482421875 -7.289109706878662 C 617.5121459960938 12.199437141418457 617.15087890625 32.357574462890625 618.3216552734375 61.919395446777344" stroke-width="0.0" fill="rgb(73, 84, 75)" opacity="0.25197834"/>
    <path d="M 558.5415649414062 38.672306060791016 C 564.07275390625 97.8447265625 565.5568237304688 99.69145965576172 486.43609619140625 67.27861022949219 C 448.9265441894531 56.22536087036133 453.1192321777344 68.83030700683594 458.4401550292969 27.10647201538086 C 518.2130737304688 27.820919036865234 528.7142944335938 35.182308197021484 521.4317626953125 22.5710506439209 C 522.5965576171875 10.374086380004883 532.5352783203125 10.441729545593262 558.5415649414062 38.672306060791016" stroke-width="0.0" fill="rgb(66, 96, 72)" opacity="0.15723349"/>
    <path d="M 458.14398193359375 28.45505714416504 C 468.4887390136719 42.69119644165039 475.66510009765625 37.45997619628906 476.0941162109375 25.57868194580078 C 493.92138671875 -2.440609931945801 470.5772399902344 15.956761360168457 434.8096923828125 21.03937530517578 C 418.00604248046875 -38.76477813720703 424.466552734375 -40.02683639526367 461.22039794921875 -46.631622314453125 C 462.6487731933594 -35.942344665527344 462.2666320800781 -11.47436809539795 458.14398193359375 28.45505714416504" stroke-width="0.0" fill="rgb(63, 78, 98)" opacity="0.38871112"/>
    <path d="M 621.9491577148438 35.18659210205078 C 628.0792236328125 55.19002914428711 623.0198364257812 63.355003356933594 615.212158203125 40.094730377197266 C 562.4996948242188 47.93122863769531 561.9686889648438 42.60826873779297 569.8980102539062 33.97751998901367 C 568.5114135742188 -0.4434960186481476 572.202880859375 -7.738630771636963 591.9027099609375 -25.959091186523438 C 608.9694213867188 -4.728126049041748 611.1870727539062 8.572429656982422 621.9491577148438 35.18659210205078" stroke-width="0.0" fill="rgb(40, 113, 88)" opacity="0.22842352"/>
    <path d="M 522.9434814453125 53.569091796875 C 520.6351928710938 104.4498062133789 528.5584106445312 93.73311614990234 484.0477294921875 81.82000732421875 C 467.2779541015625 61.13895034790039 475.7945251464844 39.0114860534668 440.1055908203125 23.71570587158203 C 428.2061767578125 18.678190231323242 451.4678649902344 -1.5965880155563354 518.1054077148438 -12.096946716308594 C 520.6830444335938 3.89146089553833 529.6539916992188 14.824299812316895 522.9434814453125 53.569091796875" stroke-width="0.0" fill="rgb(31, 115, 64)" opacity="0.400104"/>
    <path d="M 492.1408386230469 58.70780563354492 C 489.0107727050781 84.7269287109375 524.0711059570312 107.09129333496094 426.334228515625 100.18804931640625 C 405.5219421386719 90.44210815429688 418.6811218261719 66.7046127319336 422.46038818359375 32.79806137084961 C 428.9676513671875 4.8362555503845215 413.89080810546875 24.99811363220215 461.2765197753906 5.376071453094482 C 484.1853332519531 25.407745361328125 472.84490966796875 28.811479568481445 492.1408386230469 58.70780563354492" stroke-width="0.0" fill="rgb(32, 118, 65)" opacity="0.9834301"/>
    <path d="M 582.6441650390625 30.42156410217285 C 587.05322265625 59.41316223144531 597.6426391601562 94.54876708984375 555.3020629882812 138.82861328125 C 510.3463134765625 116.78195190429688 504.6278381347656 96.34320831298828 508.5011291503906 34.52745819091797 C 499.7053527832031 0.26290804147720337 514.1248168945312 8.56959342956543 598.7621459960938 -12.14167594909668 C 618.568359375 46.66490936279297 580.2883911132812 42.856990814208984 582.6441650390625 30.42156410217285" stroke-width="0.0" fill="rgb(43, 111, 61)" opacity="0.39329207"/>
    <path d="M 569.3087158203125 66.1077880859375 C 573.568603515625 105.21028900146484 581.405029296875 118.45679473876953 482.09515380859375 152.29966735839844 C 475.059326171875 78.61996459960938 480.7767639160156 31.208908081054688 490.0975341796875 40.44758224487305 C 498.3754577636719 28.405057907104492 503.9337158203125 10.233777046203613 524.1202392578125 -28.250938415527344 C 555.3554077148438 7.553866386413574 566.4265747070312 22.55958366394043 569.3087158203125 66.1077880859375" stroke-width="0.0" fill="rgb(40, 115, 59)" opacity="0.5843487"/>
    <path d="M 18.868967056274414 -0.8411588668823242 C 14.706740379333496 -4.887536525726318 -7.611425399780273 -3.444627046585083 -14.336990356445312 3.850306510925293 C -14.417314529418945 23.149911880493164 -18.505390167236328 13.558812141418457 -19.08062171936035 0.42106571793556213 C -16.384170532226562 -9.630928993225098 -9.063663482666016 -16.951435089111328 0.917888343334198 -20.865764617919922 C 11.376679420471191 -19.608352661132812 17.35826301574707 -11.127397537231445 18.868967056274414 -0.8411588668823242" stroke-width="0.0" fill="rgb(64, 183, 89)" opacity="0.77952397"/>
    <path d="M 699.4140014648438 196.78773498535156 C 696.751220703125 247.06707763671875 701.0375366210938 272.99041748046875 426.4200134277344 397.54461669921875 C 412.9772033691406 386.9831237792969 424.9974060058594 321.183837890625 442.66619873046875 130.9803009033203 C 541.3482666015625 138.86492919921875 504.8386535644531 84.47892761230469 556.791748046875 88.443603515625 C 638.5376586914062 78.73155975341797 645.09619140625 82.94152069091797 699.4140014648438 196.78773498535156" stroke-width="0.0" fill="rgb(34, 116, 57)" opacity="1.0"/>
    <path d="M 490.8267517089844 4.607936382293701 C 473.40887451171875 -10.435420989990234 455.2124938964844 17.889236450195312 438.63787841796875 17.510404586791992 C 414.09991455078125 27.391725540161133 416.93902587890625 28.617088317871094 411.4258728027344 -0.4067874550819397 C 409.4357604980469 -7.918534278869629 424.3768310546875 -7.668241024017334 468.1142272949219 -17.536409378051758 C 493.7600402832031 -31.14227867126465 490.77447509765625 -18.591510772705078 490.8267517089844 4.607936382293701" stroke-width="0.0" fill="rgb(26, 121, 50)" opacity="0.42233482"/>
    <path d="M 443.8443908691406 19.116615295410156 C 441.5644226074219 75.5294189453125 467.37261962890625 67.94252014160156 433.0241394042969 68.4336929321289 C 343.20416259765625 59.505157470703125 415.4645080566406 77.94198608398438 150.4005889892578 57.951271057128906 C 157.13168334960938 -159.1406707763672 271.8853759765625 -79.30170440673828 386.8962097167969 -32.60607147216797 C 432.9176940917969 -18.36774253845215 437.9681091308594 -10.588565826416016 443.8443908691406 19.116615295410156" stroke-width="0.0" fill="rgb(30, 117, 65)" opacity="0.9968027"/>
    <path d="M 586.9638061523438 17.992116928100586 C 582.4580078125 16.901140213012695 587.228515625 13.797625541687012 562.2222290039062 8.686201095581055 C 507.91912841796875 -0.8204702734947205 470.5954284667969 15.364736557006836 465.21014404296875 19.225170135498047 C 471.6308898925781 -29.94728660583496 478.9349670410156 -39.55094528198242 521.0972290039062 -56.01418685913086 C 571.972900390625 -24.2268009185791 574.86865234375 -13.885456085205078 586.9638061523438 17.992116928100586" stroke-width="0.0" fill="rgb(54, 98, 85)" opacity="0.52257603"/>
    <path d="M 11.918691635131836 -10.2188138961792 C 4.281781196594238 -6.242671489715576 -7.3508219718933105 -0.6626553535461426 -17.115398406982422 3.030226707458496 C -2.0352141857147217 10.162870407104492 -10.238554000854492 3.198319435119629 -18.659658432006836 -1.549019694328308 C -16.589744567871094 -9.89757251739502 -9.26923656463623 -17.218080520629883 0.7307633757591248 -19.897573471069336 C 10.73076343536377 -17.218080520629883 18.05126953125 -9.89757251739502 11.918691635131836 -10.2188138961792" stroke-width="0.0" fill="rgb(134, 213, 40)" opacity="0.6866599"/>
    <path d="M 179.7361602783203 314.88677978515625 C 159.80868530273438 303.4814758300781 148.2274627685547 310.1060791015625 133.89710998535156 313.3696594238281 C 153.1727294921875 332.9127197265625 129.3506622314453 315.2784118652344 129.6478729248047 323.99383544921875 C 125.02913665771484 275.74407958984375 122.2990951538086 250.8968963623047 170.48460388183594 200.8136749267578 C 175.2184600830078 249.0842742919922 182.62847900390625 282.3525390625 179.7361602783203 314.88677978515625" stroke-width="0.0" fill="rgb(42, 111, 66)" opacity="0.9967574"/>
    <path d="M 166.45887756347656 361.34796142578125 C 171.02011108398438 440.6563415527344 188.0675506591797 480.6654968261719 104.74134826660156 473.9654235839844 C 27.64426612854004 426.1719665527344 49.18175506591797 375.31475830078125 67.09333038330078 346.3031921386719 C 105.60406494140625 343.5497741699219 100.7359848022461 337.6971130371094 106.99928283691406 310.6861267089844 C 108.03633880615234 312.8504638671875 128.48797607421875 323.93597412109375 166.45887756347656 361.34796142578125" stroke-width="0.0" fill="rgb(59, 120, 137)" opacity="0.9147133"/>
    <path d="M 148.21286010742188 293.8584289550781 C 165.9768829345703 314.15997314453125 146.49423217773438 325.3236999511719 134.44248962402344 303.2320861816406 C 157.50474548339844 290.1078796386719 166.35179138183594 280.79473876953125 144.50863647460938 276.3728332519531 C 143.44410705566406 296.7530517578125 150.71437072753906 276.9378356933594 180.34519958496094 286.4947509765625 C 172.81832885742188 259.08563232421875 160.7854461669922 275.2691650390625 148.21286010742188 293.8584289550781" stroke-width="0.0" fill="rgb(13, 95, 83)" opacity="0.45686036"/>
    <path d="M 218.35684204101562 508.6218566894531 C 280.5702819824219 625.0452880859375 255.22218322753906 660.5538330078125 69.6213150024414 676.320556640625 C -45.08148956298828 511.1491394042969 -23.265628814697266 469.9903564453125 8.476672172546387 446.6323547363281 C -0.9699172377586365 403.3417053222656 -4.623688220977783 368.5349426269531 105.01799011230469 295.0448303222656 C 144.91036987304688 340.51416015625 119.79303741455078 387.18255615234375 218.35684204101562 508.6218566894531" stroke-width="0.0" fill="rgb(30, 116, 60)" opacity="1.0"/>
    <path d="M 167.2440948486328 341.0027160644531 C 197.7254180908203 342.4446716308594 184.46902465820312 347.4327087402344 144.9799041748047 346.13525390625 C 99.25566101074219 350.98065185546875 118.53266143798828 356.4674377441406 89.88080596923828 311.2384948730469 C 119.62893676757812 287.83056640625 119.21503448486328 265.4187927246094 150.56546020507812 193.1188201904297 C 182.529052734375 205.6387176513672 168.24713134765625 265.4058532714844 167.2440948486328 341.0027160644531" stroke-width="0.0" fill="rgb(25, 120, 54)" opacity="0.45376417"/>
    <path d="M 222.7016143798828 323.2340087890625 C 248.2291259765625 303.6784973144531 275.82830810546875 331.99609375 170.99734497070312 340.8767395019531 C 139.4850616455078 339.4336242675781 155.6810760498047 327.71917724609375 152.2277374267578 345.03070068359375 C 154.1549835205078 360.030517578125 148.52334594726562 334.28912353515625 143.4833984375 283.1577453613281 C 134.26876831054688 304.52294921875 137.08746337890625 339.5628967285156 222.7016143798828 323.2340087890625" stroke-width="0.0" fill="rgb(254, 252, 251)" opacity="0.99344736"/>
    <path d="M 15.963644027709961 368.36163330078125 C 1.2939839363098145 484.5347900390625 38.27516174316406 569.2427978515625 6.937870979309082 699.7706909179688 C -55.669864654541016 494.3627014160156 -27.74614906311035 456.02593994140625 -23.935230255126953 410.1175842285156 C -31.371538162231445 381.66339111328125 -42.632591247558594 357.080322265625 16.004358291625977 339.43658447265625 C 47.94774627685547 345.160400390625 42.52777099609375 371.9313659667969 15.963644027709961 368.36163330078125" stroke-width="0.0" fill="rgb(36, 114, 61)" opacity="0.9778666"/>
    <path d="M 175.92648315429688 307.4998779296875 C 195.2720947265625 343.8839111328125 196.04754638671875 360.4244079589844 160.85040283203125 344.7855224609375 C 136.64744567871094 335.7193908691406 112.12613677978516 311.70123291015625 140.24468994140625 294.69989013671875 C 142.22767639160156 315.084228515625 149.3649139404297 306.50018310546875 151.58383178710938 296.65631103515625 C 154.4187469482422 312.73516845703125 185.17623901367188 315.5767822265625 175.92648315429688 307.4998779296875" stroke-width="0.0" fill="rgb(135, 115, 128)" opacity="0.53644246"/>
    <path d="M 173.8466033935547 349.1722106933594 C 200.2515106201172 392.7544860839844 179.4035186767578 395.40545654296875 166.69969177246094 369.2964172363281 C 162.36428833007812 325.719970703125 156.35707092285156 310.72735595703125 136.6909637451172 304.5871276855469 C 159.2348175048828 330.754150390625 164.29464721679688 321.0629577636719 167.2601318359375 296.70379638671875 C 188.8152618408203 295.4820861816406 181.28384399414062 300.4422912597656 173.8466033935547 349.1722106933594" stroke-width="0.0" fill="rgb(67, 147, 162)" opacity="0.555496"/>
    <path d="M 10.465165138244629 -15.118375778198242 C -3.614819049835205 -7.336933612823486 -9.560202598571777 4.576894283294678 -17.5068302154541 2.887712240219116 C -10.422188758850098 18.150121688842773 -17.100177764892578 10.54361343383789 -19.77355194091797 0.6766713857650757 C -17.094316482543945 -9.320016860961914 -9.773809432983398 -16.64052391052246 0.2369721382856369 -19.3286075592041 C 12.121500968933105 -18.34123420715332 20.61302947998047 -12.957947731018066 10.465165138244629 -15.118375778198242" stroke-width="0.0" fill="rgb(134, 208, 72)" opacity="0.79007477"/>
    <path d="M 142.16693115234375 364.7308349609375 C 150.53343200683594 399.914794921875 188.74864196777344 402.0808410644531 123.55400848388672 394.4996643066406 C 21.48207664489746 394.57769775390625 -9.819186210632324 421.4136657714844 3.87961483001709 376.61077880859375 C 24.242027282714844 303.0970764160156 46.2874755859375 317.8000183105469 98.89813995361328 305.792724609375 C 148.83969116210938 304.7322998046875 139.57606506347656 324.3311462402344 142.16693115234375 364.7308349609375" stroke-width="0.0" fill="rgb(31, 117, 57)" opacity="0.57324576"/>
    <path d="M 132.88568115234375 297.33697509765625 C 154.54148864746094 325.80621337890625 152.3734588623047 332.8737487792969 141.91505432128906 358.06231689453125 C 89.9363021850586 351.43939208984375 37.75341033935547 381.9300842285156 8.732210159301758 302.82635498046875 C 107.34017944335938 289.00897216796875 134.469970703125 290.75347900390625 141.74562072753906 304.9151611328125 C 172.82322692871094 312.4382019042969 173.0449981689453 298.9273376464844 132.88568115234375 297.33697509765625" stroke-width="0.0" fill="rgb(30, 117, 58)" opacity="0.40992877"/>
    <path d="M 160.45669555664062 340.1913146972656 C 180.5364532470703 336.482177734375 164.54818725585938 350.406982421875 142.5314483642578 339.780517578125 C 140.17510986328125 355.44287109375 156.02520751953125 377.9902038574219 151.16299438476562 400.0916748046875 C 136.95729064941406 343.1827697753906 117.93989562988281 303.9200439453125 124.16399383544922 314.74005126953125 C 173.54322814941406 308.8128356933594 174.4691925048828 311.1742248535156 160.45669555664062 340.1913146972656" stroke-width="0.0" fill="rgb(178, 197, 156)" opacity="0.8653543"/>
    <path d="M 218.13287353515625 356.43109130859375 C 313.26629638671875 514.0491333007812 313.91217041015625 514.2018432617188 201.07789611816406 448.4926452636719 C 138.67147827148438 371.97003173828125 152.4797821044922 323.7599792480469 157.4119873046875 326.10650634765625 C 129.53077697753906 320.7383117675781 167.25686645507812 341.2889709472656 152.01461791992188 322.0567932128906 C 178.4197998046875 311.88507080078125 212.3964385986328 314.7174072265625 218.13287353515625 356.43109130859375" stroke-width="0.0" fill="rgb(255, 244, 215)" opacity="1.0"/>
    <path d="M 182.39358520507812 289.5003356933594 C 187.9441680908203 344.052001953125 190.87811279296875 387.2242431640625 212.35964965820312 513.3978271484375 C 109.99607849121094 403.1405944824219 143.10997009277344 350.73040771484375 95.64643859863281 300.33349609375 C 86.38021850585938 244.57623291015625 69.2812271118164 257.598876953125 172.04234313964844 256.1448669433594 C 181.8242645263672 263.2806396484375 178.4250946044922 280.9684753417969 182.39358520507812 289.5003356933594" stroke-width="0.0" fill="rgb(31, 114, 60)" opacity="1.0"/>
    <path d="M 151.2464141845703 358.78338623046875 C 148.64334106445312 393.5628662109375 157.69094848632812 356.85748291015625 148.79322814941406 373.4149169921875 C 74.9326400756836 381.70391845703125 51.1636962890625 361.7025146484375 82.67239379882812 368.2778625488281 C 72.5987548828125 308.94219970703125 59.53828430175781 248.48379516601562 80.77241516113281 251.2783203125 C 171.5659942626953 220.81356811523438 154.63128662109375 234.4427947998047 151.2464141845703 358.78338623046875" stroke-width="0.0" fill="rgb(28, 117, 59)" opacity="0.556361"/>
    <path d="M 271.8771667480469 291.988037109375 C 239.3321990966797 319.5562438964844 277.9979553222656 320.330078125 238.41156005859375 306.2061767578125 C 222.78436279296875 303.2607116699219 218.20755004882812 314.53118896484375 222.25381469726562 308.18792724609375 C 222.26901245117188 331.4113464355469 213.22804260253906 312.9716796875 222.09207153320312 284.9420166015625 C 235.58506774902344 296.8025207519531 253.39895629882812 271.8176574707031 271.8771667480469 291.988037109375" stroke-width="0.0" fill="rgb(254, 255, 255)" opacity="1.0"/>
    <path d="M 400.8183898925781 338.69024658203125 C 351.5122375488281 248.39419555664062 422.270751953125 320.47247314453125 320.3849792480469 310.51715087890625 C 326.67022705078125 267.2834167480469 363.97747802734375 253.67698669433594 267.57891845703125 311.1905822753906 C 352.75054931640625 196.39942932128906 260.59466552734375 247.83322143554688 292.77886962890625 217.1950225830078 C 358.6929931640625 213.77955627441406 409.648681640625 252.6840057373047 400.8183898925781 338.69024658203125" stroke-width="0.0" fill="rgb(0, 19, 0)" opacity="1.0"/>
    <path d="M 303.8636779785156 287.4931640625 C 248.05894470214844 290.81683349609375 284.69049072265625 260.8856201171875 261.587646484375 275.4234619140625 C 239.47532653808594 301.4683837890625 216.5859375 292.674560546875 230.3916473388672 283.3317565917969 C 231.3888702392578 257.63726806640625 240.9530487060547 225.2664337158203 299.4270935058594 223.2583770751953 C 340.541259765625 280.47540283203125 259.1138916015625 247.60568237304688 303.8636779785156 287.4931640625" stroke-width="0.0" fill="rgb(0, 23, 4)" opacity="1.0"/>
    <path d="M 401.7242126464844 526.8082885742188 C 368.43890380859375 522.0039672851562 405.23504638671875 518.0321655273438 397.49102783203125 525.0653076171875 C 314.3349914550781 516.8569946289062 295.88262939453125 572.2724609375 217.3747100830078 455.8773498535156 C 267.669189453125 388.90008544921875 314.5685119628906 514.0779418945312 428.5466613769531 254.8914031982422 C 414.97802734375 485.7205505371094 397.7796936035156 519.1524047851562 401.7242126464844 526.8082885742188" stroke-width="0.0" fill="rgb(222, 145, 68)" opacity="0.959548"/>
    <path d="M 403.50018310546875 576.4814453125 C 400.1632080078125 595.9234008789062 388.2538146972656 607.1117553710938 341.98529052734375 602.70703125 C 302.88690185546875 622.7560424804688 292.46795654296875 608.8980102539062 276.9136962890625 533.5755615234375 C 295.2740783691406 528.7002563476562 318.2176513671875 540.401611328125 364.780029296875 525.6947021484375 C 412.52740478515625 519.6843872070312 417.458984375 521.5546264648438 403.50018310546875 576.4814453125" stroke-width="0.0" fill="rgb(18, 121, 64)" opacity="0.25767246"/>
    <path d="M 293.3809509277344 285.8656921386719 C 258.3356018066406 299.2234802246094 264.7242431640625 270.63323974609375 232.7865447998047 298.8848571777344 C 219.09396362304688 340.7093200683594 205.55686950683594 330.6710510253906 219.76461791992188 281.9144592285156 C 223.22718811035156 277.3736572265625 226.7970428466797 263.4897766113281 241.64183044433594 248.36807250976562 C 262.9622802734375 225.19163513183594 259.0351867675781 236.72242736816406 293.3809509277344 285.8656921386719" stroke-width="0.0" fill="rgb(0, 23, 3)" opacity="0.9988038"/>
    <path d="M 356.6274108886719 528.3412475585938 C 249.3295135498047 552.6961059570312 220.38482666015625 534.2486572265625 232.4348907470703 532.2322998046875 C 239.74000549316406 540.4188842773438 253.0753631591797 548.6148071289062 222.284423828125 557.8082885742188 C 212.83116149902344 547.4164428710938 208.1258544921875 511.6671142578125 200.84130859375 414.4273376464844 C 308.5000305175781 398.8572692871094 324.7320556640625 428.3027038574219 356.6274108886719 528.3412475585938" stroke-width="0.0" fill="rgb(255, 237, 177)" opacity="1.0"/>
    <path d="M 391.9772644042969 179.80450439453125 C 233.04518127441406 199.2005615234375 210.2454376220703 171.43023681640625 176.1138458251953 196.6916961669922 C 165.35110473632812 211.41775512695312 174.4127960205078 202.7863311767578 161.37802124023438 170.34088134765625 C 142.0880584716797 160.0646514892578 144.57235717773438 155.58267211914062 148.72232055664062 120.25505828857422 C 314.297119140625 129.023681640625 398.99969482421875 73.1917724609375 391.9772644042969 179.80450439453125" stroke-width="0.0" fill="rgb(213, 158, 89)" opacity="0.99892753"/>
    <path d="M 285.09814453125 388.6748352050781 C 234.99819946289062 473.9898681640625 300.8586120605469 315.5174865722656 257.7166748046875 411.6317138671875 C 226.87501525878906 387.6777038574219 267.9747619628906 421.8702087402344 246.14605712890625 375.1790771484375 C 255.80776977539062 377.5835266113281 273.42059326171875 396.4605407714844 238.65272521972656 398.0891418457031 C 242.8052520751953 368.26922607421875 284.7873840332031 338.5389709472656 285.09814453125 388.6748352050781" stroke-width="0.0" fill="rgb(0, 0, 13)" opacity="1.0"/>
    <path d="M 428.1028137207031 60.925209045410156 C 457.9955139160156 163.85646057128906 372.41143798828125 110.71965789794922 144.55642700195312 135.42279052734375 C 133.5085906982422 167.24327087402344 135.55413818359375 89.36941528320312 170.70066833496094 100.31796264648438 C 177.5048065185547 96.48817443847656 167.8092803955078 110.19489288330078 178.34715270996094 61.60692596435547 C 178.48648071289062 62.33253860473633 242.68063354492188 52.86798095703125 428.1028137207031 60.925209045410156" stroke-width="0.0" fill="rgb(252, 253, 255)" opacity="0.9930438"/>
    <path d="M 389.2091979980469 357.248779296875 C 333.47222900390625 325.797607421875 370.60540771484375 359.99530029296875 386.74578857421875 362.1036682128906 C 372.1417541503906 405.7318420410156 380.6754455566406 373.756103515625 321.6544494628906 362.3970947265625 C 331.41839599609375 328.87615966796875 313.20111083984375 322.9537658691406 366.61328125 331.43585205078125 C 386.0258483886719 323.4370422363281 411.57989501953125 306.64410400390625 389.2091979980469 357.248779296875" stroke-width="0.0" fill="rgb(0, 0, 0)" opacity="1.0"/>
    <path d="M 332.7323913574219 334.5329895019531 C 344.5405578613281 404.283935546875 317.6187438964844 328.64276123046875 327.7001953125 336.1382141113281 C 339.01361083984375 373.5459289550781 286.3392333984375 380.7208557128906 269.8531188964844 287.5561828613281 C 287.2645568847656 315.51312255859375 315.18994140625 301.6610412597656 351.6718444824219 303.7857971191406 C 361.3172302246094 318.2168273925781 324.4278869628906 331.1136169433594 332.7323913574219 334.5329895019531" stroke-width="0.0" fill="rgb(255, 255, 254)" opacity="0.9998128"/>
    <path d="M 18.2092342376709 -5.121810436248779 C 10.43592643737793 -2.1104800701141357 -18.396665573120117 -2.656104326248169 -26.59735870361328 1.0574816465377808 C -13.743449211120605 22.43665313720703 -17.47939682006836 12.031990051269531 -19.045866012573242 0.3119164705276489 C -16.37025260925293 -9.672710418701172 -9.049745559692383 -16.99321746826172 -1.0792464017868042 -18.530309677124023 C 3.957414150238037 -10.610376358032227 10.194334030151367 -2.330902099609375 18.2092342376709 -5.121810436248779" stroke-width="0.0" fill="rgb(99, 74, 180)" opacity="0.8028655"/>
    <path d="M 382.8593444824219 376.0802917480469 C 363.7906799316406 347.8492736816406 372.33721923828125 393.1031188964844 345.6751708984375 388.5876159667969 C 363.90283203125 398.32415771484375 394.5877380371094 390.8816833496094 331.56591796875 383.15106201171875 C 382.54461669921875 335.0132751464844 310.66571044921875 358.6216125488281 343.211669921875 299.004638671875 C 361.6770324707031 382.1246643066406 392.4806823730469 379.4555358886719 382.8593444824219 376.0802917480469" stroke-width="0.0" fill="rgb(246, 255, 255)" opacity="1.0"/>
    <path d="M 401.14111328125 302.4927673339844 C 341.4096984863281 253.50775146484375 400.65020751953125 395.9145812988281 356.2778625488281 357.2813720703125 C 353.8005676269531 334.9991455078125 337.7189025878906 343.0909423828125 345.9750061035156 318.1365966796875 C 349.4795227050781 286.2474060058594 330.2317810058594 282.6988220214844 305.64556884765625 309.75921630859375 C 403.29473876953125 251.08160400390625 381.90655517578125 414.6897888183594 401.14111328125 302.4927673339844" stroke-width="0.0" fill="rgb(0, 3, 7)" opacity="1.0"/>
    <path d="M 374.086181640625 575.89501953125 C 370.7404479980469 637.705810546875 360.9230651855469 655.6151123046875 317.09912109375 663.8641967773438 C 270.2890319824219 633.84619140625 235.32302856445312 659.6156616210938 217.60372924804688 561.9371948242188 C 177.74331665039062 506.3689880371094 204.60110473632812 528.0762939453125 332.8226318359375 522.8992919921875 C 389.04254150390625 523.7117919921875 366.8241271972656 516.8348388671875 374.086181640625 575.89501953125" stroke-width="0.0" fill="rgb(27, 120, 60)" opacity="0.99311537"/>
    <path d="M 339.9112854003906 348.08050537109375 C 352.94873046875 373.796875 325.6673278808594 391.7103576660156 306.65313720703125 420.0450439453125 C 288.2244567871094 392.0858154296875 281.70343017578125 380.4864501953125 265.4238586425781 355.013671875 C 279.0751953125 349.02520751953125 270.610595703125 335.3137512207031 273.197509765625 335.7165222167969 C 298.9277038574219 310.6721496582031 323.15252685546875 323.2390441894531 339.9112854003906 348.08050537109375" stroke-width="0.0" fill="rgb(255, 255, 255)" opacity="0.97267056"/>
    <path d="M 343.25213623046875 383.39984130859375 C 376.3273620605469 408.9685363769531 346.2548522949219 413.6383056640625 313.7602844238281 410.60919189453125 C 317.4674072265625 434.4820251464844 281.542724609375 422.68731689453125 307.1714172363281 397.0322570800781 C 319.2904052734375 423.41912841796875 323.2507019042969 402.26275634765625 338.8100280761719 330.678955078125 C 315.306640625 313.2740173339844 343.63629150390625 339.17584228515625 343.25213623046875 383.39984130859375" stroke-width="0.0" fill="rgb(221, 254, 255)" opacity="1.0"/>
    <path d="M 168.58059692382812 171.34432983398438 C 168.0139923095703 218.28909301757812 176.94381713867188 221.85601806640625 162.974853515625 196.46798706054688 C 124.05620574951172 196.27268981933594 136.06808471679688 194.94627380371094 130.45045471191406 145.584228515625 C 146.22389221191406 135.2654266357422 98.38390350341797 128.94532775878906 163.0628662109375 136.88040161132812 C 163.6630096435547 131.2032012939453 162.24754333496094 134.75640869140625 168.58059692382812 171.34432983398438" stroke-width="0.0" fill="rgb(37, 115, 66)" opacity="0.9946627"/>
    <path d="M 279.9505615234375 332.1626892089844 C 262.0609436035156 361.7407531738281 257.730224609375 333.71630859375 251.04246520996094 371.08282470703125 C 240.35153198242188 380.81121826171875 239.30491638183594 358.33056640625 230.33164978027344 351.1939697265625 C 246.46389770507812 347.0500793457031 225.8643341064453 316.2336730957031 279.2605285644531 272.1232604980469 C 266.6402893066406 326.62921142578125 278.8768615722656 325.4227600097656 279.9505615234375 332.1626892089844" stroke-width="0.0" fill="rgb(0, 4, 10)" opacity="0.9957238"/>
    <path d="M 338.44793701171875 402.55926513671875 C 351.2428283691406 411.83984375 340.4930725097656 424.8276672363281 291.95806884765625 424.08331298828125 C 249.5680389404297 416.6944580078125 253.00665283203125 419.7135925292969 272.3879699707031 415.7090148925781 C 260.6155700683594 405.0216369628906 290.0685729980469 402.2044677734375 276.4054260253906 374.6160583496094 C 310.9678649902344 375.4374694824219 311.973876953125 414.5120849609375 338.44793701171875 402.55926513671875" stroke-width="0.0" fill="rgb(243, 248, 245)" opacity="0.9387111"/>
    <path d="M 372.76068115234375 387.83251953125 C 353.9131164550781 407.980712890625 376.21112060546875 367.0590515136719 350.8592529296875 407.0960388183594 C 327.60015869140625 340.5628662109375 345.9883728027344 410.97552490234375 329.1510314941406 385.9244079589844 C 339.9522705078125 359.1448059082031 364.5371398925781 329.6695861816406 335.8837585449219 397.94793701171875 C 342.0416259765625 361.35986328125 318.0785217285156 358.0393981933594 372.76068115234375 387.83251953125" stroke-width="0.0" fill="rgb(0, 0, 3)" opacity="1.0"/>
    <path d="M 315.1298828125 383.598388671875 C 327.6534423828125 391.4418029785156 342.4635314941406 426.6811828613281 298.87469482421875 422.9893493652344 C 283.79193115234375 421.8885498046875 291.645751953125 389.57586669921875 276.37518310546875 370.7422180175781 C 242.94924926757812 359.1767883300781 253.46815490722656 345.1610107421875 292.6387939453125 368.60546875 C 301.9253845214844 400.4627990722656 286.9821472167969 397.6676330566406 315.1298828125 383.598388671875" stroke-width="0.0" fill="rgb(252, 253, 254)" opacity="0.7972778"/>
    <path d="M 296.8271789550781 380.37554931640625 C 302.769775390625 386.4150695800781 275.3669738769531 447.6663818359375 280.12005615234375 403.5824279785156 C 307.86431884765625 367.9976501464844 248.51255798339844 379.1139221191406 270.9692687988281 302.226318359375 C 247.70840454101562 361.1540832519531 264.887939453125 387.54852294921875 269.1388244628906 359.708740234375 C 333.9288635253906 308.567626953125 251.29754638671875 337.51019287109375 296.8271789550781 380.37554931640625" stroke-width="0.0" fill="rgb(3, 0, 7)" opacity="0.9922262"/>
    <path d="M 336.2437744140625 308.9818115234375 C 274.7102966308594 255.48716735839844 420.923095703125 243.33767700195312 307.4720153808594 293.70611572265625 C 213.97824096679688 293.69122314453125 363.2500305175781 278.3525695800781 312.13140869140625 259.09161376953125 C 300.675048828125 252.95947265625 275.9451904296875 302.0700988769531 307.4132995605469 228.91744995117188 C 331.1864318847656 292.326416015625 307.93865966796875 268.4136962890625 336.2437744140625 308.9818115234375" stroke-width="0.0" fill="rgb(255, 255, 255)" opacity="1.0"/>
    <path d="M 336.91937255859375 324.3214111328125 C 352.63665771484375 367.0419616699219 317.62353515625 333.42608642578125 336.0209045410156 310.6647644042969 C 307.6824645996094 293.7861022949219 304.0118103027344 328.3243103027344 308.48358154296875 298.820556640625 C 303.8598327636719 290.7408752441406 356.28515625 292.4090881347656 287.8465881347656 275.38922119140625 C 358.8216552734375 272.9176330566406 353.97003173828125 296.17926025390625 336.91937255859375 324.3214111328125" stroke-width="0.0" fill="rgb(0, 0, 4)" opacity="1.0"/>
    <path d="M 343.1559753417969 251.9899139404297 C 313.89666748046875 297.3990173339844 329.93194580078125 263.6766052246094 273.0824890136719 284.095703125 C 268.043701171875 285.213623046875 275.23687744140625 279.5416564941406 260.7578430175781 261.1658020019531 C 273.0184326171875 261.2057800292969 291.6658020019531 279.49774169921875 270.9903259277344 254.2239532470703 C 312.2575988769531 257.0872497558594 275.72930908203125 283.0119934082031 343.1559753417969 251.9899139404297" stroke-width="0.0" fill="rgb(255, 255, 255)" opacity="1.0"/>
    <path d="M 282.3915710449219 325.9651184082031 C 304.0606384277344 336.0296325683594 257.366455078125 339.94427490234375 283.5069580078125 378.7671813964844 C 239.46849060058594 359.1561279296875 296.7243957519531 320.00054931640625 255.03602600097656 354.3755187988281 C 282.21136474609375 296.5117492675781 272.8047180175781 370.0477294921875 267.6312255859375 293.7427673339844 C 253.0643768310547 312.8835144042969 285.3446960449219 375.3017578125 282.3915710449219 325.9651184082031" stroke-width="0.0" fill="rgb(184, 255, 152)" opacity="0.95815367"/>
    <path d="M 345.8912353515625 312.9027404785156 C 332.84149169921875 328.7735595703125 343.8224182128906 360.19677734375 339.7140808105469 312.823974609375 C 324.1635437011719 319.26165771484375 353.7039794921875 309.5093688964844 327.14306640625 279.9883117675781 C 342.4566955566406 341.2844543457031 307.19573974609375 335.709228515625 348.1666259765625 307.06170654296875 C 328.267578125 269.8740539550781 346.4275817871094 291.6434631347656 345.8912353515625 312.9027404785156" stroke-width="0.0" fill="rgb(135, 255, 230)" opacity="0.9008328"/>
    <path d="M 340.9772033691406 413.62725830078125 C 325.552001953125 359.3513488769531 313.2483215332031 379.993896484375 332.8561096191406 413.7520751953125 C 319.5920104980469 432.5736389160156 324.283447265625 414.9594421386719 311.8122253417969 391.2425537109375 C 302.5520324707031 380.3733825683594 344.87310791015625 345.8641357421875 328.6671447753906 370.11175537109375 C 307.95587158203125 380.8980712890625 366.1012878417969 399.3110656738281 340.9772033691406 413.62725830078125" stroke-width="0.0" fill="rgb(1, 16, 0)" opacity="1.0"/>
    <path d="M 380.3223876953125 272.8428649902344 C 381.2629699707031 296.94573974609375 405.3105163574219 320.28289794921875 402.4875793457031 311.8693542480469 C 340.5116882324219 307.8666076660156 395.0338439941406 331.9382019042969 348.1380310058594 286.2611083984375 C 383.2918395996094 273.40594482421875 360.5626525878906 308.2564392089844 370.0608825683594 281.9762268066406 C 395.1954650878906 249.01263427734375 370.0080261230469 302.5892639160156 380.3223876953125 272.8428649902344" stroke-width="0.0" fill="rgb(251, 254, 254)" opacity="0.9919007"/>
    <path d="M 326.99951171875 284.09130859375 C 353.2383728027344 313.3787841796875 287.3096618652344 345.12554931640625 283.87689208984375 332.94219970703125 C 302.9534912109375 360.228759765625 262.5292663574219 291.81158447265625 287.6028747558594 282.1293029785156 C 267.3355712890625 359.0728759765625 360.3939514160156 319.5278625488281 308.8296813964844 315.0139465332031 C 276.183349609375 316.1898193359375 336.3386535644531 334.83984375 326.99951171875 284.09130859375" stroke-width="0.0" fill="rgb(22, 1, 0)" opacity="1.0"/>
    <path d="M 245.85638427734375 314.279541015625 C 246.35377502441406 301.5991516113281 235.8369140625 309.7051086425781 215.06614685058594 316.4349365234375 C 207.06553649902344 316.61810302734375 232.69366455078125 302.8445739746094 233.47808837890625 274.1436767578125 C 239.37478637695312 300.08135986328125 229.3291778564453 266.5115966796875 230.91036987304688 274.833984375 C 247.02725219726562 275.8778076171875 243.7073974609375 316.8205261230469 245.85638427734375 314.279541015625" stroke-width="0.0" fill="rgb(253, 254, 252)" opacity="0.99376464"/>
    <path d="M 266.6520080566406 412.16656494140625 C 274.72601318359375 406.21685791015625 285.6635437011719 390.67889404296875 277.9000549316406 392.740966796875 C 288.4290771484375 390.30755615234375 271.568115234375 401.3256530761719 268.42095947265625 414.30255126953125 C 276.6567077636719 423.6039123535156 269.681884765625 408.5889892578125 258.25811767578125 415.2914733886719 C 285.1500549316406 426.4817199707031 284.9967346191406 410.7159729003906 266.6520080566406 412.16656494140625" stroke-width="0.0" fill="rgb(222, 254, 255)" opacity="0.5678011"/>
    <path d="M 264.9903869628906 373.01513671875 C 261.08807373046875 372.62725830078125 271.3988952636719 362.16168212890625 263.68804931640625 374.98736572265625 C 244.89991760253906 389.4881896972656 244.38534545898438 386.4905700683594 234.3680419921875 362.8231201171875 C 235.1544952392578 374.9436340332031 251.94285583496094 379.87103271484375 222.25108337402344 378.9586486816406 C 242.601806640625 371.2442626953125 256.6355895996094 352.3900146484375 264.9903869628906 373.01513671875" stroke-width="0.0" fill="rgb(245, 255, 255)" opacity="1.0"/>
    <path d="M 312.964599609375 388.63262939453125 C 336.16595458984375 350.2599182128906 326.4370422363281 346.6754150390625 330.44696044921875 364.79534912109375 C 326.6026306152344 359.20330810546875 311.42523193359375 343.06158447265625 327.85931396484375 311.7053527832031 C 306.4400634765625 334.6965026855469 312.9690246582031 323.7139892578125 285.7991943359375 334.71014404296875 C 349.1641845703125 334.4578857421875 345.366455078125 366.4051208496094 312.964599609375 388.63262939453125" stroke-width="0.0" fill="rgb(2, 0, 0)" opacity="0.9943527"/>
    <path d="M 399.66156005859375 317.5129699707031 C 409.16192626953125 346.4544677734375 339.0876770019531 311.329833984375 401.5589599609375 345.9917907714844 C 363.07135009765625 350.47406005859375 378.51678466796875 313.983642578125 373.0382385253906 307.5368347167969 C 390.1556091308594 321.64630126953125 387.5076904296875 327.00421142578125 373.9336853027344 325.09600830078125 C 377.5205383300781 304.70330810546875 394.7022705078125 333.09613037109375 399.66156005859375 317.5129699707031" stroke-width="0.0" fill="rgb(254, 253, 228)" opacity="0.99095285"/>
    <path d="M 9.588750839233398 -5.792573928833008 C 15.950268745422363 -5.869368553161621 0.8038868308067322 -2.3513617515563965 -15.571953773498535 0.29947802424430847 C -4.526665210723877 11.299609184265137 -16.79220962524414 9.998318672180176 -19.730714797973633 0.8256155848503113 C -17.051969528198242 -9.171656608581543 -9.731463432312012 -16.492162704467773 -4.377927303314209 -28.45511817932129 C 1.7626479864120483 -33.39752197265625 1.9012130498886108 -24.221792221069336 9.588750839233398 -5.792573928833008" stroke-width="0.0" fill="rgb(89, 10, 226)" opacity="0.98184085"/>
    <path d="M 20.05557632446289 6.408808708190918 C 25.9787654876709 6.446098804473877 4.124664306640625 8.581443786621094 -16.127546310424805 13.602799415588379 C -13.689826965332031 22.365089416503906 -19.055612564086914 11.83759880065918 -20.00282096862793 0.8580843210220337 C -17.183378219604492 -9.226539611816406 -9.862871170043945 -16.547046661376953 -2.966261863708496 -20.78310203552246 C 9.988725662231445 -23.44414520263672 20.00409698486328 -7.293659687042236 20.05557632446289 6.408808708190918" stroke-width="0.0" fill="rgb(62, 65, 121)" opacity="0.79105574"/>
    <path d="M 0.4406830370426178 -21.749746322631836 C 2.4033403396606445 -6.828889846801758 -8.060724258422852 -2.8445894718170166 -19.105642318725586 5.576258182525635 C -9.997527122497559 18.094642639160156 -17.31803321838379 10.77413558959961 -19.997526168823242 0.7741352915763855 C -17.31803321838379 -9.22586441040039 -9.997527122497559 -16.546371459960938 0.0024731336161494255 -19.22586441040039 C 10.002460479736328 -16.54637336730957 17.31947898864746 -9.225082397460938 0.4406830370426178 -21.749746322631836" stroke-width="0.0" fill="rgb(48, 90, 87)" opacity="0.73940843"/>
    <path d="M 14.041022300720215 -9.944461822509766 C 21.04844093322754 -5.140081882476807 5.677188873291016 -1.613503098487854 7.906309127807617 -12.261751174926758 C 0.6593034267425537 -3.5934879779815674 -10.688454627990723 -9.135284423828125 -16.729482650756836 -13.646624565124512 C -16.631916046142578 -9.868086814880371 -9.311408042907715 -17.188594818115234 1.0221794843673706 -20.41636848449707 C 8.61742877960205 -16.9415340423584 9.093928337097168 -2.246680498123169 14.041022300720215 -9.944461822509766" stroke-width="0.0" fill="rgb(130, 88, 188)" opacity="0.72149116"/>
    <path d="M 399.809814453125 319.3898620605469 C 364.9264831542969 308.8962097167969 342.7519226074219 313.067626953125 400.1502990722656 329.9948425292969 C 389.47357177734375 338.3446350097656 356.82305908203125 334.43536376953125 363.3770751953125 318.1471252441406 C 358.40057373046875 292.1708068847656 397.47320556640625 310.26116943359375 402.5619201660156 315.3559875488281 C 402.8785095214844 313.9157409667969 404.5290222167969 297.0267639160156 399.809814453125 319.3898620605469" stroke-width="0.0" fill="rgb(0, 3, 4)" opacity="1.0"/>
    <path d="M 231.7539520263672 369.40521240234375 C 237.68748474121094 348.9507141113281 258.01849365234375 407.5934143066406 231.53729248046875 385.12005615234375 C 258.89013671875 361.2405700683594 222.9938507080078 383.90386962890625 225.31985473632812 374.356689453125 C 234.7344970703125 363.9637145996094 244.96646118164062 339.1443786621094 228.38389587402344 352.43194580078125 C 213.17398071289062 338.21173095703125 213.27767944335938 366.14776611328125 231.7539520263672 369.40521240234375" stroke-width="0.0" fill="rgb(0, 63, 37)" opacity="0.99881494"/>
    <path d="M 7.8163557052612305 -20.69133949279785 C -4.748016357421875 -11.313523292541504 -2.821176052093506 9.025127410888672 -8.569276809692383 19.84359359741211 C -9.990713119506836 18.016103744506836 -17.311220169067383 10.695596694946289 -19.990713119506836 0.6955971121788025 C -17.311220169067383 -9.304403305053711 -9.990713119506836 -16.624910354614258 3.8739521503448486 -21.391036987304688 C 14.504552841186523 -22.769817352294922 18.633554458618164 -13.33894157409668 7.8163557052612305 -20.69133949279785" stroke-width="0.0" fill="rgb(2, 148, 114)" opacity="0.6227605"/>
    <path d="M -1.6495543718338013 -14.190481185913086 C -1.298763632774353 9.480731964111328 -7.02353572845459 22.511842727661133 -19.415212631225586 4.969146251678467 C -17.120450973510742 24.333208084106445 -19.983854293823242 9.409478187561035 -22.169553756713867 -1.7996731996536255 C -16.982751846313477 -9.422066688537598 -9.66224479675293 -16.742572784423828 0.3374638855457306 -19.421993255615234 C 10.126450538635254 -16.683223724365234 11.373098373413086 -5.081841945648193 -1.6495543718338013 -14.190481185913086" stroke-width="0.0" fill="rgb(216, 203, 197)" opacity="0.9023948"/>
    <path d="M 233.8088836669922 336.18951416015625 C 201.55117797851562 356.4716796875 176.29434204101562 372.88739013671875 237.64852905273438 358.5132141113281 C 214.54396057128906 389.92828369140625 200.72213745117188 368.7328796386719 219.2146759033203 362.3774719238281 C 185.97703552246094 372.7769470214844 214.33853149414062 383.8246154785156 215.4348907470703 368.2548522949219 C 227.83653259277344 333.5079650878906 244.1648406982422 358.0159606933594 233.8088836669922 336.18951416015625" stroke-width="0.0" fill="rgb(255, 255, 211)" opacity="0.9965935"/>
    <path d="M 182.51805114746094 359.0002136230469 C 183.55397033691406 383.8445129394531 168.64295959472656 375.9076232910156 190.9750518798828 384.0723571777344 C 184.60671997070312 335.6036682128906 178.23416137695312 321.8763732910156 191.46229553222656 336.5980529785156 C 156.3382568359375 350.2757873535156 166.14730834960938 346.73809814453125 164.5250701904297 339.8056640625 C 191.5352325439453 336.370849609375 189.57913208007812 364.2711181640625 182.51805114746094 359.0002136230469" stroke-width="0.0" fill="rgb(43, 105, 89)" opacity="0.058191873"/>
    <path d="M 1.4487375020980835 -17.683034896850586 C 0.5495925545692444 -5.706902027130127 -4.920546531677246 4.140809059143066 -12.534130096435547 10.339658737182617 C -2.7261085510253906 10.102691650390625 -16.001182556152344 8.493780136108398 -19.4298095703125 0.4710913598537445 C -16.754364013671875 -9.51466178894043 -9.433857917785645 -16.835168838500977 0.5397959351539612 -19.507158279418945 C 7.801626682281494 -15.661714553833008 10.024018287658691 -2.470365047454834 1.4487375020980835 -17.683034896850586" stroke-width="0.0" fill="rgb(85, 74, 253)" opacity="0.9393229"/>
    <path d="M 16.495460510253906 -27.78276252746582 C 12.292427062988281 -1.8776425123214722 19.87105941772461 -0.5563042163848877 7.135746479034424 -12.785393714904785 C -26.976423263549805 20.542734146118164 -20.44188117980957 17.03707504272461 -18.26665496826172 3.4025697708129883 C -16.97676658630371 -9.317447662353516 -9.65626049041748 -16.637954711914062 0.3425072431564331 -19.31711769104004 C 9.761104583740234 -16.463905334472656 10.498075485229492 -3.632179021835327 16.495460510253906 -27.78276252746582" stroke-width="0.0" fill="rgb(75, 93, 85)" opacity="0.77250624"/>
    <path d="M 3.886796236038208 -19.582612991333008 C 0.47456875443458557 -9.995354652404785 -1.633897066116333 7.2052764892578125 -4.5968170166015625 18.089366912841797 C -4.189857482910156 9.88720989227295 -11.478177070617676 2.63167142868042 -17.346736907958984 -3.826768398284912 C -16.36247444152832 -9.79768180847168 -9.04196834564209 -17.118188858032227 0.9581605195999146 -19.797712326049805 C 11.035548210144043 -17.139610290527344 23.023149490356445 -12.40562915802002 3.886796236038208 -19.582612991333008" stroke-width="0.0" fill="rgb(185, 192, 234)" opacity="0.6955375"/>
    <path d="M 6.0751166343688965 -19.66910171508789 C -0.8358707427978516 -6.898869514465332 -6.676384925842285 0.39166274666786194 -16.82276153564453 6.896914958953857 C -14.240007400512695 22.36359977722168 -19.870058059692383 14.124380111694336 -19.399457931518555 0.8309007287025452 C -16.387781143188477 -9.725980758666992 -9.06727409362793 -17.04648780822754 -1.275866985321045 -18.19225311279297 C 4.016260623931885 -10.60134506225586 8.1393461227417 -0.6524931192398071 6.0751166343688965 -19.66910171508789" stroke-width="0.0" fill="rgb(1, 57, 72)" opacity="0.8254431"/>
    <path d="M 31.8147029876709 -12.006155967712402 C 16.90157127380371 -3.3713552951812744 -22.451948165893555 1.528579831123352 -44.17823028564453 4.367199897766113 C -2.8386647701263428 -0.19980326294898987 -13.699810028076172 -4.863246917724609 -16.667722702026367 -8.963445663452148 C -16.587783813476562 -9.269067764282227 -9.2672758102417 -16.589574813842773 1.9062832593917847 -27.51654815673828 C 16.724292755126953 -30.20606803894043 27.963909149169922 -25.119937896728516 31.8147029876709 -12.006155967712402" stroke-width="0.0" fill="rgb(136, 85, 135)" opacity="0.6048122"/>
    <path d="M -9.904346466064453 -6.668354034423828 C -0.6646022200584412 20.119356155395508 -6.504930019378662 22.023448944091797 -13.700776100158691 6.030580520629883 C -7.881455421447754 15.310236930847168 -19.392765045166016 13.735580444335938 -19.487159729003906 1.411309838294983 C -16.503398895263672 -9.011844635009766 -9.182890892028809 -16.332351684570312 -0.22518137097358704 -18.65320587158203 C 4.070816516876221 -10.545406341552734 10.66401195526123 -1.6013435125350952 -9.904346466064453 -6.668354034423828" stroke-width="0.0" fill="rgb(55, 168, 24)" opacity="0.5234403"/>
    <path d="M -3.361358404159546 -12.81451416015625 C -4.604730606079102 -4.8575358390808105 -3.2248687744140625 12.490291595458984 -2.9134395122528076 9.549155235290527 C -16.35910987854004 12.179144859313965 -25.205577850341797 5.58241605758667 -21.49451446533203 -0.9435390830039978 C -17.272098541259766 -9.90042495727539 -9.951590538024902 -17.220932006835938 -5.2946696281433105 -16.071992874145508 C 2.015277624130249 -10.798320770263672 9.015355110168457 -2.9987244606018066 -3.361358404159546 -12.81451416015625" stroke-width="0.0" fill="rgb(95, 216, 26)" opacity="0.54806775"/>
    <path d="M 2.9898386001586914 -21.130752563476562 C -3.0189151763916016 5.859861373901367 0.9368246793746948 8.475275993347168 -10.24604320526123 8.522194862365723 C -5.564699649810791 13.925823211669922 -11.07571792602539 4.836030006408691 -17.099916458129883 -3.6233901977539062 C -17.007156372070312 -9.119010925292969 -9.68664836883545 -16.439517974853516 0.31784898042678833 -19.120325088500977 C 10.894862174987793 -16.62279510498047 23.61334800720215 -13.138907432556152 2.9898386001586914 -21.130752563476562" stroke-width="0.0" fill="rgb(106, 172, 111)" opacity="0.73262537"/>
    <path d="M 13.484631538391113 -1.3286113739013672 C -0.5997763872146606 -8.849441528320312 -1.4286242723464966 1.7173234224319458 -13.630691528320312 4.841918468475342 C -17.002918243408203 25.971120834350586 -19.401866912841797 15.374358177185059 -19.255233764648438 0.5913438200950623 C -16.536617279052734 -9.54041862487793 -9.216110229492188 -16.860925674438477 3.2034921646118164 -26.430498123168945 C 10.632536888122559 -23.264619827270508 18.04517364501953 -17.32710838317871 13.484631538391113 -1.3286113739013672" stroke-width="0.0" fill="rgb(211, 160, 174)" opacity="0.8364139"/>
    <path d="M 5.25960111618042 -17.696895599365234 C 11.182463645935059 20.32164764404297 21.38239860534668 14.895583152770996 -3.2131314277648926 8.965457916259766 C -14.890887260437012 18.87652587890625 -26.05546760559082 14.464747428894043 -33.19563674926758 12.127411842346191 C -16.862058639526367 -9.335856437683105 -9.541550636291504 -16.656362533569336 7.548734664916992 -26.46819496154785 C 16.508148193359375 -23.501718521118164 19.53341293334961 -11.245643615722656 5.25960111618042 -17.696895599365234" stroke-width="0.0" fill="rgb(46, 95, 69)" opacity="0.71509403"/>
    <path d="M 6.210338592529297 -13.851105690002441 C 2.985321283340454 -4.792414665222168 -4.627699375152588 2.4726855754852295 -14.49572467803955 5.543625831604004 C -6.454142093658447 12.62391185760498 -16.927011489868164 9.926372528076172 -19.64171600341797 0.06307400017976761 C -16.962284088134766 -9.93666934967041 -9.641777038574219 -17.25717544555664 0.3582158088684082 -19.936668395996094 C 10.347696304321289 -17.25432777404785 14.82712173461914 -8.711397171020508 6.210338592529297 -13.851105690002441" stroke-width="0.0" fill="rgb(194, 119, 85)" opacity="0.7566205"/>
    <path d="M 11.471097946166992 -7.7615861892700195 C 7.8196120262146 -5.577041149139404 -5.197860240936279 1.959449291229248 -16.808374404907227 3.8572208881378174 C -1.4878394603729248 9.657591819763184 -13.84555435180664 5.401522636413574 -19.68025016784668 0.6479824781417847 C -17.014997482299805 -9.300559043884277 -9.694490432739258 -16.621065139770508 0.6922212243080139 -19.562395095825195 C 8.166705131530762 -14.48614501953125 10.487192153930664 -4.219265460968018 11.471097946166992 -7.7615861892700195" stroke-width="0.0" fill="rgb(136, 150, 27)" opacity="0.7880972"/>
    <path d="M 22.307876586914062 4.769479274749756 C 10.59033489227295 3.2829349040985107 5.502824783325195 28.327239990234375 3.58721923828125 38.5753173828125 C -14.44428539276123 40.8264274597168 -23.703876495361328 27.21116828918457 -30.746618270874023 7.6001505851745605 C -16.898193359375 -9.86782455444336 -9.577686309814453 -17.188331604003906 -6.188846588134766 -15.317998886108398 C 2.307499647140503 -9.772727012634277 8.573219299316406 -0.26982662081718445 22.307876586914062 4.769479274749756" stroke-width="0.0" fill="rgb(60, 63, 37)" opacity="0.48617366"/>
    <path d="M 11.67266845703125 -10.00045394897461 C -1.0948950052261353 -9.343792915344238 -11.448897361755371 -4.578169345855713 -18.71436309814453 4.10395622253418 C -4.215190410614014 11.464673042297363 -16.29853630065918 8.822165489196777 -19.46319007873535 0.20938324928283691 C -16.786083221435547 -9.782170295715332 -9.465575218200684 -17.102676391601562 0.5347535610198975 -19.782255172729492 C 10.707259178161621 -17.151226043701172 23.057632446289062 -13.30302906036377 11.67266845703125 -10.00045394897461" stroke-width="0.0" fill="rgb(104, 39, 45)" opacity="0.7433827"/>
    <path d="M 285.22882080078125 272.11138916015625 C 294.36297607421875 258.6553955078125 313.31195068359375 250.66030883789062 328.2881774902344 240.86505126953125 C 299.7345275878906 233.86871337890625 315.0144958496094 236.7841033935547 289.89556884765625 241.29031372070312 C 322.7813415527344 269.9464416503906 334.355224609375 281.44000244140625 313.9652099609375 251.14649963378906 C 297.9389343261719 254.09278869628906 298.6194152832031 258.5802917480469 285.22882080078125 272.11138916015625" stroke-width="0.0" fill="rgb(252, 254, 255)" opacity="1.0"/>
    <path d="M 1.3281046152114868 -18.80423355102539 C -0.5999733209609985 0.8564534783363342 -6.889001846313477 14.147574424743652 -4.2155890464782715 7.4659953117370605 C -13.622127532958984 15.363255500793457 -22.30884552001953 8.831085205078125 -27.257909774780273 0.5566766858100891 C -16.670509338378906 -9.841022491455078 -9.350003242492676 -17.161529541015625 0.6486448645591736 -19.840662002563477 C 9.746393203735352 -16.88080406188965 10.623953819274902 -3.2553069591522217 1.3281046152114868 -18.80423355102539" stroke-width="0.0" fill="rgb(154, 113, 129)" opacity="0.48352715"/>
    <path d="M 3.443800926208496 -16.676820755004883 C -0.26480913162231445 -6.458913326263428 -6.1834917068481445 2.966932773590088 -13.87176513671875 7.398200988769531 C -16.021137237548828 25.610767364501953 -17.324771881103516 11.300971031188965 -19.875892639160156 0.8581628799438477 C -17.196269989013672 -9.142348289489746 -9.875762939453125 -16.46285629272461 0.5520720481872559 -19.275619506835938 C 16.64447593688965 -21.242359161376953 25.774599075317383 -17.27588653564453 3.443800926208496 -16.676820755004883" stroke-width="0.0" fill="rgb(150, 178, 19)" opacity="0.68428344"/>
    <path d="M 8.677952766418457 -12.060917854309082 C 8.755820274353027 -3.776752471923828 -14.9564208984375 -4.04551887512207 -28.67673683166504 4.663766384124756 C -1.9331997632980347 9.756897926330566 -15.720054626464844 7.525107383728027 -19.76197624206543 0.6413949131965637 C -17.086362838745117 -9.344514846801758 -9.76585578918457 -16.665021896362305 5.722766399383545 -28.458778381347656 C 13.970022201538086 -24.667497634887695 17.608917236328125 -13.499138832092285 8.677952766418457 -12.060917854309082" stroke-width="0.0" fill="rgb(173, 196, 169)" opacity="0.68199104"/>
    <path d="M -5.516159534454346 -25.926029205322266 C -0.811750590801239 -9.238776206970215 -8.18380355834961 -1.9997388124465942 -20.03998374938965 -0.4346085488796234 C -7.907722473144531 14.801484107971191 -13.543510437011719 6.17613410949707 -16.525941848754883 -3.561816453933716 C -17.249679565429688 -9.61693000793457 -9.929171562194824 -16.937437057495117 0.07082830369472504 -19.61693000793457 C 10.070828437805176 -16.937437057495117 17.391334533691406 -9.61693000793457 -5.516159534454346 -25.926029205322266" stroke-width="0.0" fill="rgb(42, 164, 146)" opacity="0.83247685"/>
    <path d="M 42.07171630859375 14.302711486816406 C 15.182265281677246 26.12798309326172 38.156307220458984 30.999019622802734 -1.4174611568450928 35.49216079711914 C -19.82253074645996 20.39247703552246 -40.21451187133789 17.50577735900879 -42.3141975402832 8.60112190246582 C -16.879220962524414 -9.999323844909668 -9.558713912963867 -17.31983184814453 46.01777648925781 -68.63334655761719 C 47.105247497558594 -74.56214141845703 43.47444534301758 -62.54987716674805 42.07171630859375 14.302711486816406" stroke-width="0.0" fill="rgb(30, 84, 85)" opacity="0.7378983"/>
    <path d="M 4.1674981117248535 -21.232677459716797 C -4.031499862670898 -1.8944286108016968 -5.178900718688965 14.133421897888184 -8.869224548339844 27.54150390625 C -2.374539613723755 7.953949928283691 -8.043184280395508 -0.7340713143348694 -11.023984909057617 -9.371781349182129 C -16.616809844970703 -9.998913764953613 -9.29630184173584 -17.319419860839844 0.7036980390548706 -19.998912811279297 C 10.70369815826416 -17.319419860839844 18.02420425415039 -9.998913764953613 4.1674981117248535 -21.232677459716797" stroke-width="0.0" fill="rgb(184, 128, 80)" opacity="0.6749077"/>
    <path d="M 628.0718994140625 390.8551940917969 C 631.2841186523438 414.4380798339844 627.3831176757812 426.9202880859375 607.1116943359375 433.20599365234375 C 600.212646484375 398.3761291503906 599.6796264648438 386.8551940917969 605.0408325195312 387.8542785644531 C 600.414306640625 390.3363342285156 626.0548706054688 391.0190124511719 635.988037109375 385.78253173828125 C 617.4514770507812 361.978759765625 621.0321044921875 373.6606140136719 628.0718994140625 390.8551940917969" stroke-width="0.0" fill="rgb(38, 85, 76)" opacity="0.38989958"/>
    <path d="M 599.1446533203125 347.83184814453125 C 576.7959594726562 337.5872497558594 573.4974365234375 312.50860595703125 581.1630859375 322.3661193847656 C 554.5415649414062 294.14825439453125 555.0643310546875 303.1152648925781 574.9274291992188 349.67816162109375 C 568.5809326171875 246.67825317382812 560.3314208984375 257.7288818359375 574.181884765625 277.061279296875 C 602.62060546875 273.6673278808594 621.044921875 273.7590637207031 599.1446533203125 347.83184814453125" stroke-width="0.0" fill="rgb(67, 104, 65)" opacity="0.05132097"/>
    <path d="M 526.6834106445312 107.01313781738281 C 520.6749267578125 125.41743469238281 512.1215209960938 153.24072265625 499.419921875 112.59556579589844 C 458.61016845703125 91.59373474121094 471.3042297363281 117.00393676757812 470.29345703125 69.94048309326172 C 466.322021484375 3.7008659839630127 435.4607238769531 -0.2414226233959198 492.99609375 11.156245231628418 C 508.49163818359375 34.811485290527344 502.17254638671875 66.48816680908203 526.6834106445312 107.01313781738281" stroke-width="0.0" fill="rgb(33, 118, 61)" opacity="0.42084154"/>
    <path d="M -4.213956832885742 -22.8499755859375 C -6.7095112800598145 -11.935361862182617 -6.493020534515381 4.845157623291016 -4.611961364746094 21.420120239257812 C -7.148736953735352 16.6961727142334 -12.65185546875 4.383805274963379 -19.767900466918945 0.15025319159030914 C -17.15498161315918 -9.603658676147461 -9.834474563598633 -16.924165725708008 0.1768731027841568 -19.606826782226562 C 12.229004859924316 -17.70429229736328 25.32863426208496 -16.587955474853516 -4.213956832885742 -22.8499755859375" stroke-width="0.0" fill="rgb(121, 79, 86)" opacity="0.8465237"/>
    <path d="M 1.225455403327942 -17.20005226135254 C 1.4594964981079102 2.355192184448242 -8.03707218170166 0.6512017250061035 -25.608402252197266 12.720185279846191 C -9.098435401916504 16.792957305908203 -16.662092208862305 10.237000465393066 -19.345394134521484 0.2503153085708618 C -16.665918350219727 -9.749610900878906 -9.345412254333496 -17.070117950439453 1.1273276805877686 -21.07950210571289 C 9.478120803833008 -17.50815773010254 12.140294075012207 -5.751738548278809 1.225455403327942 -17.20005226135254" stroke-width="0.0" fill="rgb(86, 125, 106)" opacity="0.81783104"/>
    <path d="M 611.431884765625 44.05978775024414 C 604.4190063476562 60.09747314453125 599.0166015625 62.73668670654297 557.2955322265625 32.33068084716797 C 514.8135986328125 37.894256591796875 515.8687133789062 41.152557373046875 512.6580810546875 -3.2573721408843994 C 524.171142578125 -10.35323429107666 542.8901977539062 -25.905672073364258 562.3993530273438 -32.73759841918945 C 602.1646118164062 -16.37346076965332 611.335693359375 -10.386114120483398 611.431884765625 44.05978775024414" stroke-width="0.0" fill="rgb(47, 105, 76)" opacity="0.24917006"/>
    <path d="M -0.5112254023551941 -38.66783905029297 C -5.438819885253906 -23.596410751342773 -2.820420026779175 9.032684326171875 -2.4468631744384766 15.538982391357422 C 0.16167566180229187 13.573206901550293 -2.969871997833252 -0.12033542990684509 -10.159332275390625 -11.153839111328125 C -16.94866371154785 -9.096199989318848 -9.628156661987305 -16.416706085205078 -0.06459157913923264 -18.959434509277344 C 4.332093715667725 -11.853849411010742 10.264076232910156 -1.8073152303695679 -0.5112254023551941 -38.66783905029297" stroke-width="0.0" fill="rgb(96, 149, 143)" opacity="0.52061695"/>
    <path d="M 305.0347900390625 455.15911865234375 C 307.34124755859375 521.6875 306.1414489746094 517.0986938476562 235.62786865234375 504.0142822265625 C 228.24769592285156 486.18450927734375 251.43673706054688 429.8615417480469 248.4794921875 417.5823059082031 C 198.8191680908203 417.5292053222656 193.50033569335938 423.17584228515625 213.62667846679688 448.923095703125 C 250.1481170654297 441.218994140625 268.3432922363281 437.244384765625 305.0347900390625 455.15911865234375" stroke-width="0.0" fill="rgb(255, 229, 198)" opacity="0.22037506"/>
    <path d="M -1.5051506757736206 -27.295515060424805 C -7.440863132476807 4.357161045074463 -9.743095397949219 12.49826717376709 -10.999534606933594 9.70691967010498 C -17.367298126220703 21.005653381347656 -28.24803352355957 20.018749237060547 -34.196502685546875 11.08430290222168 C -16.843700408935547 -9.867300033569336 -9.523193359375 -17.187807083129883 10.729820251464844 -32.08877182006836 C 20.128889083862305 -29.095293045043945 24.337600708007812 -16.473905563354492 -1.5051506757736206 -27.295515060424805" stroke-width="0.0" fill="rgb(40, 94, 50)" opacity="0.5335329"/>
    <path d="M 426.775634765625 204.68968200683594 C 396.2597961425781 191.1396026611328 417.4054260253906 220.39019775390625 429.2371520996094 285.94146728515625 C 384.3851318359375 219.76707458496094 355.41864013671875 216.4377899169922 317.58447265625 168.63824462890625 C 325.0185241699219 160.22894287109375 334.95916748046875 161.1658935546875 433.1297302246094 168.93284606933594 C 442.73809814453125 151.11801147460938 418.0382080078125 165.37387084960938 426.775634765625 204.68968200683594" stroke-width="0.0" fill="rgb(213, 171, 61)" opacity="0.2142891"/>
    <path d="M 7.846127033233643 333.144775390625 C 9.162250518798828 368.6015930175781 15.3050537109375 355.2564697265625 26.38418197631836 389.33294677734375 C 26.82999610900879 394.65618896484375 3.753183603286743 382.76495361328125 -17.24207878112793 375.8672790527344 C -31.628896713256836 335.1602478027344 -28.59893226623535 333.0556640625 1.5011736154556274 355.7608642578125 C 43.07483673095703 357.7202453613281 47.69335174560547 351.54119873046875 7.846127033233643 333.144775390625" stroke-width="0.0" fill="rgb(49, 107, 78)" opacity="0.10143509"/>
    <path d="M 1.3633257150650024 -17.844783782958984 C 3.0569751262664795 -4.22769021987915 -6.428194046020508 4.531664848327637 -16.844436645507812 7.09566068649292 C -4.938283443450928 11.633002281188965 -16.695980072021484 9.577446937561035 -19.56963348388672 0.2092563658952713 C -16.8908634185791 -9.788148880004883 -9.570357322692871 -17.10865592956543 0.4291006326675415 -19.788007736206055 C 10.134435653686523 -17.024288177490234 11.930827140808105 -5.319332599639893 1.3633257150650024 -17.844783782958984" stroke-width="0.0" fill="rgb(160, 139, 144)" opacity="0.57534224"/>
  </g>
</svg>
