<?xml version="1.0" ?>
<svg xmlns="http://www.w3.org/2000/svg" version="1.1" width="600" height="600">
  <defs/>
  <g>
    <path d="M 265.4427490234375 320.642578125 C 95.68742370605469 457.6919860839844 72.30110931396484 450.43206787109375 28.638343811035156 493.3235778808594 C -2.309420108795166 511.4280090332031 -15.611526489257812 507.0473327636719 -18.631500244140625 490.0433654785156 C 10.860520362854004 404.3249816894531 43.53133773803711 411.7358093261719 227.45925903320312 242.49964904785156 C 259.14862060546875 227.01321411132812 264.4016418457031 233.29934692382812 265.4427490234375 320.642578125" stroke-width="0.0" fill="rgb(0, 83, 10)" opacity="1.0"/>
    <path d="M 622.7714233398438 181.51565551757812 C 522.054931640625 361.4628601074219 522.0304565429688 383.6742248535156 399.65557861328125 397.9322509765625 C 304.6279602050781 411.20477294921875 257.1526794433594 454.6583557128906 169.90101623535156 190.2550506591797 C 112.60977172851562 123.50724792480469 109.80748748779297 137.09913635253906 245.4232635498047 135.51556396484375 C 620.1532592773438 136.4385528564453 625.5658569335938 128.5326690673828 622.7714233398438 181.51565551757812" stroke-width="0.0" fill="rgb(33, 157, 5)" opacity="0.6107673"/>
    <path d="M 578.4841918945312 363.5032958984375 C 586.4505004882812 397.29180908203125 589.780029296875 413.44561767578125 508.7679443359375 418.5062561035156 C 478.89410400390625 417.1351623535156 463.70635986328125 415.67840576171875 445.5191650390625 368.9051208496094 C 473.5001220703125 291.9032287597656 483.4815368652344 280.7908630371094 543.0719604492188 254.84408569335938 C 601.8181762695312 267.1376953125 584.4522705078125 298.9538269042969 578.4841918945312 363.5032958984375" stroke-width="0.0" fill="rgb(109, 103, 106)" opacity="0.98324454"/>
    <path d="M 301.8935241699219 341.7582092285156 C 183.007080078125 535.6591796875 168.0929718017578 577.9356079101562 41.561832427978516 617.2769165039062 C -69.35599517822266 610.406005859375 -54.608978271484375 593.12060546875 -32.52434539794922 546.9632568359375 C 42.405418395996094 426.616455078125 58.69464874267578 426.832275390625 207.05270385742188 310.9224853515625 C 266.7440490722656 274.5657958984375 284.9325866699219 254.70054626464844 301.8935241699219 341.7582092285156" stroke-width="0.0" fill="rgb(31, 78, 105)" opacity="0.58582485"/>
    <path d="M 563.8531494140625 529.6417846679688 C 548.5924682617188 535.2164306640625 522.7446899414062 524.6474609375 486.82354736328125 517.378662109375 C 455.35650634765625 513.1795043945312 446.5964050292969 506.94091796875 443.459716796875 475.5296936035156 C 440.01336669921875 443.38287353515625 438.8132629394531 426.30194091796875 450.5476379394531 417.7442932128906 C 507.259521484375 447.3759460449219 524.44677734375 452.3323669433594 563.8531494140625 529.6417846679688" stroke-width="0.0" fill="rgb(104, 102, 101)" opacity="1.0"/>
    <path d="M 345.4849548339844 507.12530517578125 C 342.3645324707031 686.81689453125 320.9173889160156 659.5684814453125 189.5303955078125 627.5795288085938 C 86.525146484375 658.873291015625 56.5260009765625 691.2701416015625 47.82108688354492 584.34228515625 C 114.24830627441406 469.6580810546875 93.21519470214844 406.6606750488281 281.4046936035156 361.8089294433594 C 340.0169677734375 399.2442626953125 331.8460693359375 452.7479553222656 345.4849548339844 507.12530517578125" stroke-width="0.0" fill="rgb(169, 221, 172)" opacity="0.8283147"/>
    <path d="M 618.6189575195312 323.2945556640625 C 613.0603637695312 378.2632751464844 604.0924072265625 384.96099853515625 556.4329223632812 399.3597412109375 C 541.62451171875 394.0331115722656 541.6109008789062 378.6616516113281 536.852783203125 329.5928649902344 C 510.5303649902344 272.8805236816406 485.30780029296875 232.1990509033203 596.5729370117188 190.75022888183594 C 670.330078125 218.8903350830078 637.5467529296875 259.6666564941406 618.6189575195312 323.2945556640625" stroke-width="0.0" fill="rgb(109, 105, 106)" opacity="1.0"/>
    <path d="M 478.0233154296875 456.1505126953125 C 473.3261413574219 506.9447021484375 466.57379150390625 517.092041015625 332.7718811035156 617.1080932617188 C 311.1395263671875 613.979248046875 304.81121826171875 602.5701904296875 312.416748046875 452.6324768066406 C 314.5849609375 349.69171142578125 303.48828125 326.4320373535156 335.0280456542969 344.73773193359375 C 499.7785949707031 392.19366455078125 488.3924560546875 414.5536193847656 478.0233154296875 456.1505126953125" stroke-width="0.0" fill="rgb(91, 118, 107)" opacity="1.0"/>
    <path d="M 233.60984802246094 160.94769287109375 C 102.0722885131836 413.3686828613281 48.967308044433594 401.76611328125 -3.247983932495117 419.90069580078125 C -21.5092830657959 414.2278137207031 -20.931949615478516 398.3310241699219 -32.94350051879883 247.54946899414062 C -156.75790405273438 34.16707992553711 -283.87359619140625 -13.879037857055664 199.92864990234375 1.2684681415557861 C 87.9875717163086 219.64671325683594 141.113525390625 174.7139129638672 233.60984802246094 160.94769287109375" stroke-width="0.0" fill="rgb(96, 92, 92)" opacity="0.91530156"/>
    <path d="M 620.3968505859375 391.9176025390625 C 624.9645385742188 418.2042236328125 644.6113891601562 454.1069030761719 601.8892211914062 492.40252685546875 C 535.8842163085938 476.96148681640625 536.0640869140625 452.9261474609375 531.791015625 419.62847900390625 C 541.6678466796875 354.01702880859375 564.9865112304688 355.1244201660156 591.0967407226562 350.94256591796875 C 615.1737670898438 364.5714111328125 617.2931518554688 379.2334289550781 620.3968505859375 391.9176025390625" stroke-width="0.0" fill="rgb(108, 101, 103)" opacity="0.9946568"/>
    <path d="M 281.8975830078125 233.077880859375 C 139.77882385253906 456.6689758300781 65.46443939208984 426.4302978515625 -3.410057306289673 477.5601501464844 C -15.21035099029541 474.0345153808594 -19.782503128051758 462.9300842285156 -16.31778907775879 433.4876403808594 C 2.9214396476745605 376.5958251953125 13.100115776062012 364.06378173828125 218.89584350585938 159.2850799560547 C 259.3635559082031 176.516845703125 266.3509216308594 189.8484649658203 281.8975830078125 233.077880859375" stroke-width="0.0" fill="rgb(120, 204, 92)" opacity="0.9864316"/>
    <path d="M 619.920166015625 483.3451232910156 C 621.1983032226562 552.2571411132812 619.0773315429688 567.82373046875 606.146484375 575.72705078125 C 481.15557861328125 482.6617736816406 454.3200988769531 479.0640869140625 412.35394287109375 389.57421875 C 418.3130187988281 358.2323303222656 424.77178955078125 348.2182312011719 472.7173156738281 352.2854919433594 C 563.5529174804688 382.7389221191406 571.1881103515625 390.8540344238281 619.920166015625 483.3451232910156" stroke-width="0.0" fill="rgb(109, 105, 106)" opacity="1.0"/>
    <path d="M 590.650390625 555.3524169921875 C 566.0478515625 583.2594604492188 516.5977172851562 551.991455078125 482.1692810058594 542.7845458984375 C 470.0 539.3204956054688 462.67950439453125 532.0 459.84039306640625 521.662841796875 C 460.820068359375 508.624267578125 464.4429626464844 496.8446044921875 496.3743896484375 486.2070617675781 C 516.9113159179688 482.4830322265625 551.50634765625 472.66845703125 590.650390625 555.3524169921875" stroke-width="0.0" fill="rgb(106, 103, 104)" opacity="1.0"/>
    <path d="M 487.1912841796875 521.582763671875 C 484.32110595703125 532.00048828125 477.20166015625 539.5418090820312 390.28448486328125 618.6845703125 C 367.21771240234375 623.587890625 348.5965881347656 625.6217041015625 331.5563049316406 601.88623046875 C 382.79400634765625 470.2396545410156 427.71710205078125 477.9985656738281 448.6135559082031 480.5929870605469 C 484.2547912597656 494.3980407714844 486.6538391113281 507.6463623046875 487.1912841796875 521.582763671875" stroke-width="0.0" fill="rgb(108, 105, 104)" opacity="0.9902482"/>
    <path d="M 616.0475463867188 596.8318481445312 C 598.1554565429688 631.7920532226562 569.1505737304688 623.4213256835938 490.5265808105469 620.6069946289062 C 403.812744140625 619.897705078125 396.10784912109375 613.2791748046875 402.090576171875 595.4559936523438 C 463.6799621582031 524.0001831054688 471.0 516.6795043945312 492.5414733886719 511.0390319824219 C 563.6694946289062 484.9919738769531 605.1763305664062 444.8084411621094 616.0475463867188 596.8318481445312" stroke-width="0.0" fill="rgb(109, 105, 105)" opacity="1.0"/>
    <path d="M 621.4033813476562 115.2653579711914 C 646.16650390625 162.949951171875 655.5664672851562 182.71029663085938 472.6460876464844 191.40350341796875 C 462.331787109375 110.4893569946289 445.8182373046875 -134.08737182617188 171.26116943359375 99.65675354003906 C 116.04065704345703 -233.5819549560547 292.6463317871094 -80.70359802246094 501.79803466796875 -23.259227752685547 C 591.4490966796875 -50.890724182128906 614.131591796875 -75.06765747070312 621.4033813476562 115.2653579711914" stroke-width="0.0" fill="rgb(69, 64, 66)" opacity="0.7674096"/>
    <path d="M 544.0567626953125 6.706139087677002 C 535.4525146484375 27.683059692382812 527.7011108398438 36.156986236572266 513.3703002929688 38.86271286010742 C 485.3956604003906 26.423723220825195 477.884521484375 18.52536964416504 477.0761413574219 6.368953704833984 C 484.67950439453125 -8.0 492.0 -15.320507049560547 503.4698791503906 -21.055891036987305 C 512.2523193359375 -13.209768295288086 527.6420288085938 -13.03129768371582 544.0567626953125 6.706139087677002" stroke-width="0.0" fill="rgb(108, 108, 108)" opacity="0.9965865"/>
    <path d="M 598.642822265625 -1.1198228597640991 C 587.2728881835938 12.374588012695312 579.309326171875 20.04815101623535 565.0138549804688 30.64814567565918 C 554.7066040039062 24.13426399230957 544.6375732421875 17.219045639038086 532.1422729492188 -0.02706208825111389 C 545.9038696289062 -11.352642059326172 558.4024658203125 -15.629620552062988 568.9845581054688 -18.00986671447754 C 579.1058959960938 -15.362713813781738 588.2442626953125 -8.848594665527344 598.642822265625 -1.1198228597640991" stroke-width="0.0" fill="rgb(109, 105, 106)" opacity="0.98211896"/>
    <path d="M 612.9358520507812 65.1463851928711 C 619.0175170898438 92.00848388671875 618.9373779296875 107.3763198852539 576.4313354492188 113.67185974121094 C 545.9708862304688 106.76782989501953 540.6148071289062 95.93389892578125 544.9505004882812 76.22467041015625 C 566.7925415039062 48.63207244873047 573.210693359375 40.55241012573242 585.9517822265625 32.51096725463867 C 600.8221435546875 34.913429260253906 608.3529663085938 42.15343475341797 612.9358520507812 65.1463851928711" stroke-width="0.0" fill="rgb(111, 109, 105)" opacity="1.0"/>
    <path d="M 528.17333984375 51.68754577636719 C 525.3204956054688 61.99802017211914 518.0 69.3183364868164 491.9223937988281 90.06533813476562 C 474.7962646484375 93.65206146240234 467.48370361328125 85.62419128417969 469.37689208984375 67.78933715820312 C 491.5303039550781 42.11487579345703 496.2306213378906 30.47291374206543 514.986572265625 13.5746431350708 C 525.23388671875 24.44900131225586 527.3368530273438 38.62398147583008 528.17333984375 51.68754577636719" stroke-width="0.0" fill="rgb(105, 99, 101)" opacity="0.99332035"/>
    <path d="M 492.0268859863281 6.37715482711792 C 491.08795166015625 18.33921241760254 483.2575988769531 25.7338924407959 463.35736083984375 33.55146408081055 C 450.1933898925781 28.61359405517578 446.7098693847656 16.548492431640625 446.5788269042969 2.700221061706543 C 449.67950439453125 -8.0 457.0 -15.320507049560547 467.0 -18.0 C 477.0 -15.320507049560547 484.32049560546875 -7.999995231628418 492.0268859863281 6.37715482711792" stroke-width="0.0" fill="rgb(114, 109, 106)" opacity="0.9920516"/>
    <path d="M 611.1434936523438 24.139719009399414 C 610.7855834960938 38.66046142578125 606.3060302734375 49.158546447753906 595.3743286132812 52.19397735595703 C 574.5151977539062 46.57637023925781 565.4219970703125 40.24140167236328 560.163818359375 29.553173065185547 C 571.05224609375 13.335466384887695 579.6453857421875 6.001453876495361 601.0196533203125 -10.79365062713623 C 608.9694213867188 -4.728126049041748 611.1870727539062 8.572429656982422 611.1434936523438 24.139719009399414" stroke-width="0.0" fill="rgb(109, 108, 106)" opacity="0.99953985"/>
    <path d="M 516.3701171875 26.505250930786133 C 501.26678466796875 46.21495056152344 494.69207763671875 54.76758575439453 486.44598388671875 60.28144073486328 C 474.0 53.32026290893555 466.67950439453125 46.0 462.2771301269531 34.186676025390625 C 462.70086669921875 21.718547821044922 469.1479797363281 12.991909980773926 486.7378845214844 6.714318752288818 C 502.2158508300781 10.761574745178223 512.5598754882812 16.525543212890625 516.3701171875 26.505250930786133" stroke-width="0.0" fill="rgb(115, 111, 112)" opacity="0.99667895"/>
    <path d="M 496.44195556640625 49.42343521118164 C 502.14520263671875 72.4548110961914 506.6064147949219 105.19625091552734 452.5933837890625 103.8253173828125 C 446.7769775390625 83.81854248046875 448.2821044921875 60.122562408447266 448.9941101074219 50.021358489990234 C 448.427734375 27.04786491394043 453.7419128417969 17.163599014282227 464.1924743652344 14.521193504333496 C 482.0 26.67960548400879 489.32049560546875 33.998435974121094 496.44195556640625 49.42343521118164" stroke-width="0.0" fill="rgb(110, 102, 108)" opacity="0.8980237"/>
    <path d="M 586.9791259765625 45.12199020385742 C 576.3603515625 59.564212799072266 576.7265014648438 77.27494812011719 553.944580078125 96.32369995117188 C 533.635986328125 84.1463394165039 530.4761962890625 71.53389739990234 534.39990234375 53.855228424072266 C 542.6795043945312 38.0 550.0 30.679492950439453 565.2125854492188 21.666290283203125 C 576.6920166015625 23.316970825195312 583.720703125 31.59920883178711 586.9791259765625 45.12199020385742" stroke-width="0.0" fill="rgb(109, 105, 107)" opacity="0.9999042"/>
    <path d="M 554.3992919921875 57.11899185180664 C 556.0872802734375 71.97945404052734 549.221435546875 80.08497619628906 535.1984252929688 79.04417419433594 C 516.9926147460938 67.32901000976562 509.6663513183594 60.009613037109375 506.00823974609375 48.648136138916016 C 504.0562438964844 32.66792297363281 505.78387451171875 19.07693862915039 513.7332153320312 13.941697120666504 C 537.0 32.67949295043945 544.3204956054688 40.0 554.3992919921875 57.11899185180664" stroke-width="0.0" fill="rgb(110, 103, 105)" opacity="1.0"/>
    <path d="M 572.0631103515625 98.83209228515625 C 566.1945190429688 116.78363800048828 559.2757568359375 131.9300537109375 459.74798583984375 209.47244262695312 C 412.6327819824219 151.0651092529297 428.009033203125 132.2974090576172 381.0347595214844 77.8121566772461 C 463.861083984375 37.97105026245117 501.83514404296875 54.75611114501953 519.7489624023438 56.00634765625 C 536.9873657226562 54.8427619934082 554.4307250976562 54.807926177978516 572.0631103515625 98.83209228515625" stroke-width="0.0" fill="rgb(97, 126, 92)" opacity="0.12669405"/>
    <path d="M 618.8018798828125 119.48646545410156 C 618.9749145507812 171.07667541503906 621.3988647460938 194.0303497314453 412.6924133300781 387.93060302734375 C 416.037841796875 369.8472900390625 422.2615966796875 309.41363525390625 440.77679443359375 135.40689086914062 C 545.7899780273438 139.72923278808594 539.1439208984375 93.62306213378906 576.3707275390625 78.350830078125 C 612.3065185546875 83.83291625976562 617.4790649414062 94.65679168701172 618.8018798828125 119.48646545410156" stroke-width="0.0" fill="rgb(108, 105, 104)" opacity="0.998133"/>
    <path d="M 464.740234375 17.24691390991211 C 461.98333740234375 27.2261962890625 451.8948974609375 32.291404724121094 439.4613037109375 33.28935241699219 C 429.0 30.320507049560547 421.67950439453125 22.999998092651367 407.4240417480469 3.1211769580841064 C 409.6324157714844 -7.582934379577637 420.46002197265625 -11.655488014221191 436.3459777832031 -9.194581985473633 C 449.0 -4.320504665374756 456.3204650878906 3.000049591064453 464.740234375 17.24691390991211" stroke-width="0.0" fill="rgb(110, 107, 108)" opacity="1.0"/>
    <path d="M 433.2486572265625 27.303909301757812 C 447.3079528808594 60.36654281616211 455.9734191894531 77.53429412841797 394.69378662109375 67.7152099609375 C 339.8728332519531 37.0549201965332 433.7558898925781 51.67338180541992 141.28871154785156 46.018638610839844 C 188.53553771972656 -127.30699920654297 300.1579895019531 -49.18117904663086 386.92193603515625 -17.48874855041504 C 427.0734558105469 -7.766014099121094 430.750244140625 3.758913993835449 433.2486572265625 27.303909301757812" stroke-width="0.0" fill="rgb(107, 105, 106)" opacity="0.96483475"/>
    <path d="M 575.1508178710938 23.02833366394043 C 563.5518188476562 39.093223571777344 556.0062255859375 46.322967529296875 546.0 48.99980163574219 C 535.9910278320312 46.324283599853516 528.11962890625 39.25355911254883 508.90802001953125 15.658559799194336 C 511.9744567871094 2.237347364425659 518.09130859375 -8.29236888885498 530.2461547851562 -13.583819389343262 C 560.83544921875 4.957396507263184 569.5498046875 14.1553373336792 575.1508178710938 23.02833366394043" stroke-width="0.0" fill="rgb(110, 104, 106)" opacity="0.9992188"/>
    <path d="M 469.4815979003906 26.515880584716797 C 467.7834167480469 72.85798645019531 478.73126220703125 70.46196746826172 421.8089294433594 70.54325103759766 C 389.1204833984375 69.58674621582031 392.3125305175781 76.91024780273438 394.7532653808594 49.33266067504883 C 420.67950439453125 19.999967575073242 428.0 12.679492950439453 438.33172607421875 9.816400527954102 C 451.2030029296875 10.76851749420166 463.72222900390625 14.101927757263184 469.4815979003906 26.515880584716797" stroke-width="0.0" fill="rgb(107, 105, 106)" opacity="0.9302953"/>
    <path d="M 184.77577209472656 303.654052734375 C 188.02273559570312 320.9889831542969 182.22381591796875 320.13519287109375 164.84034729003906 317.1614990234375 C 153.0 313.32049560546875 145.6794891357422 306.0 139.4589080810547 292.1171875 C 131.1505584716797 269.5498046875 123.0408935546875 244.53311157226562 173.51524353027344 204.9060821533203 C 178.30050659179688 244.41268920898438 181.71177673339844 267.61322021484375 184.77577209472656 303.654052734375" stroke-width="0.0" fill="rgb(107, 105, 104)" opacity="0.9303063"/>
    <path d="M 146.77040100097656 362.36279296875 C 153.34532165527344 395.8630065917969 149.8026885986328 412.5147705078125 124.82537078857422 417.5738525390625 C 87.53931427001953 366.8073425292969 81.6817855834961 358.6440734863281 76.9869613647461 349.3662109375 C 80.67948913574219 339.0 88.0 331.67950439453125 108.88771057128906 314.8830261230469 C 123.34685516357422 315.0806579589844 132.00204467773438 323.58221435546875 146.77040100097656 362.36279296875" stroke-width="0.0" fill="rgb(110, 104, 106)" opacity="0.9910929"/>
    <path d="M 183.44175720214844 304.0360412597656 C 178.61097717285156 314.2643127441406 169.59376525878906 320.6255187988281 159.04722595214844 323.02374267578125 C 149.0 320.32049560546875 141.6794891357422 313.0 139.0 303.0 C 141.6795654296875 293.0001525878906 149.00047302246094 285.68035888671875 159.03070068359375 282.976806640625 C 169.23426818847656 285.4987487792969 177.09889221191406 292.43951416015625 183.44175720214844 304.0360412597656" stroke-width="0.0" fill="rgb(110, 109, 106)" opacity="0.99937904"/>
    <path d="M 227.71543884277344 500.3755187988281 C 275.9117126464844 600.5050048828125 242.72372436523438 620.7723999023438 54.976139068603516 659.8388671875 C -33.976131439208984 529.048828125 4.724991321563721 479.5856018066406 16.3060302734375 440.3623352050781 C 25.475238800048828 401.3344421386719 27.523454666137695 385.0324401855469 60.96500778198242 371.44427490234375 C 103.58580780029297 382.21563720703125 125.84713745117188 379.201416015625 227.71543884277344 500.3755187988281" stroke-width="0.0" fill="rgb(108, 108, 104)" opacity="1.0"/>
    <path d="M 156.63381958007812 290.08770751953125 C 149.3205108642578 305.0 142.0 312.32049560546875 128.33596801757812 318.42828369140625 C 109.2898178100586 323.65216064453125 94.71004486083984 321.8016662597656 82.59911346435547 301.4460144042969 C 98.23851013183594 271.0088806152344 108.11744689941406 262.2252197265625 144.8111572265625 231.7915496826172 C 163.2574005126953 252.22019958496094 162.45135498046875 269.804443359375 156.63381958007812 290.08770751953125" stroke-width="0.0" fill="rgb(110, 105, 106)" opacity="0.9998516"/>
    <path d="M 223.298828125 336.2680969238281 C 243.14407348632812 320.82537841796875 269.39593505859375 345.95172119140625 175.6646270751953 347.72003173828125 C 156.00196838378906 342.2998352050781 148.6794891357422 334.9999084472656 146.0 325.0 C 148.6794891357422 315.0 156.0 307.67950439453125 166.0200653076172 307.673828125 C 171.6606903076172 328.6947326660156 146.52523803710938 340.2565612792969 223.298828125 336.2680969238281" stroke-width="0.0" fill="rgb(232, 245, 243)" opacity="0.98768693"/>
    <path d="M 58.93840789794922 411.2934875488281 C 53.53321838378906 459.4461975097656 81.36956024169922 503.4841613769531 7.499515056610107 620.598876953125 C -44.1439323425293 482.9318542480469 -16.374542236328125 444.8094482421875 -12.252202033996582 422.21844482421875 C -11.815747261047363 402.5756530761719 -15.453924179077148 382.62188720703125 24.7257080078125 356.0479431152344 C 53.940643310546875 368.4598693847656 60.22442626953125 381.0799255371094 58.93840789794922 411.2934875488281" stroke-width="0.0" fill="rgb(109, 105, 104)" opacity="0.9980487"/>
    <path d="M 177.18685913085938 323.0418701171875 C 174.3654327392578 333.0154724121094 167.00643920898438 340.32110595703125 157.0 343.0 C 147.0 340.32049560546875 139.6794891357422 333.0 137.0 323.0 C 139.6794891357422 313.0 147.0 305.67950439453125 157.0 303.0 C 167.0 305.67950439453125 174.32386779785156 313.0 177.18685913085938 323.0418701171875" stroke-width="0.0" fill="rgb(110, 103, 106)" opacity="1.0"/>
    <path d="M 188.37753295898438 338.9845275878906 C 197.7913055419922 349.25439453125 178.05865478515625 347.33868408203125 163.65087890625 343.5630187988281 C 153.0 339.32049560546875 145.6794891357422 332.0 143.0 322.0 C 145.6794891357422 312.0 153.0 304.67950439453125 164.75665283203125 301.2625427246094 C 183.5030059814453 299.1182556152344 186.57962036132812 302.0784912109375 188.37753295898438 338.9845275878906" stroke-width="0.0" fill="rgb(110, 109, 108)" opacity="0.95293"/>
    <path d="M 80.75524139404297 331.6197204589844 C 79.12393951416016 348.2333679199219 77.10183715820312 363.2009582519531 38.01412582397461 393.7851867675781 C 16.436782836914062 383.2083740234375 14.048613548278809 367.3824157714844 24.95580291748047 342.5444641113281 C 40.105674743652344 322.4497375488281 47.4330940246582 314.96533203125 59.28030014038086 310.1387023925781 C 73.05746459960938 310.6446228027344 80.3935317993164 317.89312744140625 80.75524139404297 331.6197204589844" stroke-width="0.0" fill="rgb(109, 105, 106)" opacity="0.9988165"/>
    <path d="M 114.4337387084961 357.8320007324219 C 125.16104888916016 382.9765625 131.38702392578125 405.67938232421875 103.209228515625 416.84490966796875 C 52.15950012207031 403.0333251953125 41.24513626098633 394.7829284667969 38.76319122314453 378.05096435546875 C 70.30068969726562 342.2446594238281 80.55012512207031 336.45947265625 90.97962951660156 333.989990234375 C 101.0 336.67950439453125 108.32069396972656 344.0 114.4337387084961 357.8320007324219" stroke-width="0.0" fill="rgb(110, 106, 105)" opacity="1.0"/>
    <path d="M 160.0 308.0 C 157.3205108642578 318.0 150.0 325.32049560546875 131.3515625 338.7198791503906 C 115.61382293701172 340.54718017578125 105.13740539550781 333.9842529296875 98.41761016845703 320.4291076660156 C 121.82186126708984 297.4141845703125 129.9698944091797 290.6588439941406 139.99917602539062 288.00177001953125 C 149.9998321533203 290.679931640625 157.3205108642578 298.0000305175781 160.0 308.0" stroke-width="0.0" fill="rgb(109, 101, 105)" opacity="1.0"/>
    <path d="M 175.04884338378906 329.9893493652344 C 172.32093811035156 340.0006408691406 165.00091552734375 347.3219909667969 155.00076293945312 350.0013122558594 C 145.0 347.32049560546875 137.6794891357422 340.0 135.00006103515625 330.0000305175781 C 137.67962646484375 320.0000915527344 145.0000762939453 312.6795349121094 155.0 310.0 C 165.0019073486328 312.67950439453125 172.33840942382812 319.9959716796875 175.04884338378906 329.9893493652344" stroke-width="0.0" fill="rgb(110, 106, 108)" opacity="0.99987394"/>
    <path d="M 210.08824157714844 350.4735107421875 C 311.9028625488281 513.579833984375 304.20941162109375 535.871826171875 174.80014038085938 473.05963134765625 C 137.70652770996094 363.9739990234375 137.5106201171875 347.558349609375 135.9460906982422 336.0716247558594 C 138.6794891357422 326.0 146.0 318.67950439453125 149.8329315185547 336.9065246582031 C 178.0404510498047 324.6029052734375 214.5694122314453 323.3173828125 210.08824157714844 350.4735107421875" stroke-width="0.0" fill="rgb(119, 204, 95)" opacity="1.0"/>
    <path d="M 177.69456481933594 335.0452880859375 C 183.04908752441406 350.1090087890625 196.31715393066406 376.4693298339844 207.05433654785156 504.62847900390625 C 107.00946807861328 395.731689453125 113.13919830322266 367.5718078613281 110.67709350585938 342.0198974609375 C 123.421630859375 319.3384704589844 137.72943115234375 316.72393798828125 150.64979553222656 315.7910461425781 C 161.02365112304688 318.65960693359375 168.49209594726562 325.8504638671875 177.69456481933594 335.0452880859375" stroke-width="0.0" fill="rgb(109, 106, 106)" opacity="0.9810305"/>
    <path d="M 116.63520050048828 327.3923034667969 C 102.32145690917969 347.00030517578125 95.00003051757812 354.32049560546875 84.36123657226562 357.57818603515625 C 72.95498657226562 356.1851806640625 65.22528839111328 349.23358154296875 62.74940872192383 336.72393798828125 C 61.833229064941406 319.7290954589844 63.03349304199219 304.42559814453125 91.61528778076172 284.953369140625 C 114.4106674194336 297.8426208496094 120.16387176513672 309.6030578613281 116.63520050048828 327.3923034667969" stroke-width="0.0" fill="rgb(109, 105, 106)" opacity="0.9971619"/>
    <path d="M 265.51031494140625 305.1903381347656 C 234.27882385253906 332.1177062988281 257.2885437011719 326.25860595703125 238.2579803466797 322.7466735839844 C 228.8359375 323.3896484375 206.2362060546875 341.4788818359375 215.2063446044922 320.4013977050781 C 227.27012634277344 313.2497253417969 229.8614044189453 299.7134094238281 225.49839782714844 298.0023498535156 C 238.53565979003906 306.66864013671875 258.5538635253906 301.23260498046875 265.51031494140625 305.1903381347656" stroke-width="0.0" fill="rgb(245, 255, 253)" opacity="0.9728643"/>
    <path d="M 398.4443054199219 336.36065673828125 C 347.1655578613281 255.22250366210938 413.4376525878906 326.3537292480469 333.2087097167969 303.8345031738281 C 345.1832275390625 290.0611572265625 370.8567199707031 277.03533935546875 272.9713134765625 304.9354248046875 C 379.59454345703125 225.24932861328125 295.2244567871094 290.9518737792969 298.1095886230469 238.64498901367188 C 350.2386169433594 235.36941528320312 395.61688232421875 265.5170593261719 398.4443054199219 336.36065673828125" stroke-width="0.0" fill="rgb(0, 61, 35)" opacity="0.9668374"/>
    <path d="M 308.8408203125 279.9524230957031 C 257.19207763671875 288.6537170410156 279.5338134765625 260.8596496582031 258.9264221191406 285.79534912109375 C 250.4061737060547 291.5274963378906 243.35475158691406 283.43212890625 232.5299835205078 267.9092712402344 C 238.74761962890625 267.8473815917969 252.63629150390625 239.81497192382812 302.33355712890625 238.20115661621094 C 339.76617431640625 288.5823669433594 248.32357788085938 238.52294921875 308.8408203125 279.9524230957031" stroke-width="0.0" fill="rgb(4, 66, 41)" opacity="0.9999275"/>
    <path d="M 396.0840759277344 530.4116821289062 C 392.8944396972656 530.111328125 402.6182861328125 537.1232299804688 381.6533508300781 536.49755859375 C 356.4721984863281 536.4329833984375 333.3814697265625 583.9899291992188 210.57638549804688 439.8656921386719 C 311.0835266113281 381.52508544921875 343.5010681152344 537.0460815429688 425.29962158203125 275.3512878417969 C 403.80926513671875 475.2960510253906 396.53289794921875 512.74658203125 396.0840759277344 530.4116821289062" stroke-width="0.0" fill="rgb(116, 206, 87)" opacity="1.0"/>
    <path d="M 377.9061584472656 547.0553588867188 C 369.1105041503906 563.5316772460938 361.37835693359375 570.6389770507812 347.580078125 579.0263671875 C 337.6927185058594 574.5993041992188 327.8259582519531 567.4273681640625 291.4839172363281 538.4708251953125 C 318.2583923339844 540.5408325195312 335.38214111328125 538.7144775390625 354.4691162109375 538.1400146484375 C 371.91119384765625 538.46240234375 381.7937927246094 532.5519409179688 377.9061584472656 547.0553588867188" stroke-width="0.0" fill="rgb(107, 104, 106)" opacity="0.8338829"/>
    <path d="M 273.32623291015625 305.0751647949219 C 252.10415649414062 319.9254150390625 283.54302978515625 288.80230712890625 222.67152404785156 316.8821716308594 C 203.5852508544922 343.2066955566406 205.3975067138672 335.68212890625 217.44761657714844 295.05792236328125 C 221.5389862060547 284.932373046875 227.4331817626953 272.6867370605469 236.2630157470703 265.28155517578125 C 242.16590881347656 268.01361083984375 256.88946533203125 272.0903625488281 273.32623291015625 305.0751647949219" stroke-width="0.0" fill="rgb(0, 58, 33)" opacity="0.9236594"/>
    <path d="M 323.9800720214844 539.4320068359375 C 234.0674591064453 540.147705078125 219.66114807128906 534.9961547851562 214.78353881835938 535.4637451171875 C 208.16627502441406 536.148193359375 211.72857666015625 528.6356201171875 209.93408203125 526.6585083007812 C 212.34188842773438 528.0673217773438 206.61814880371094 511.8412780761719 203.36505126953125 442.99005126953125 C 253.6932373046875 467.49755859375 279.0591735839844 473.8039245605469 323.9800720214844 539.4320068359375" stroke-width="0.0" fill="rgb(120, 205, 88)" opacity="0.98425573"/>
    <path d="M 391.213623046875 226.4564971923828 C 231.93885803222656 255.74786376953125 202.25257873535156 226.6361541748047 183.4048309326172 221.4824676513672 C 171.47425842285156 209.03504943847656 173.33731079101562 197.94985961914062 170.71499633789062 182.86666870117188 C 169.15550231933594 172.4365692138672 172.33743286132812 156.62901306152344 166.22938537597656 133.694580078125 C 293.3781433105469 152.453857421875 362.12872314453125 92.12843322753906 391.213623046875 226.4564971923828" stroke-width="0.0" fill="rgb(119, 205, 85)" opacity="0.9334131"/>
    <path d="M 276.6797790527344 403.2408142089844 C 225.87554931640625 493.2864685058594 297.6420593261719 331.3295593261719 251.4542694091797 425.9267883300781 C 229.9322967529297 396.3073425292969 253.39076232910156 436.8985900878906 226.20030212402344 398.8797302246094 C 274.95208740234375 382.1001892089844 249.26148986816406 383.23687744140625 268.6138916015625 397.49554443359375 C 249.1732635498047 367.5103454589844 263.7005310058594 358.807861328125 276.6797790527344 403.2408142089844" stroke-width="0.0" fill="rgb(7, 77, 47)" opacity="1.0"/>
    <path d="M 436.30450439453125 76.47705841064453 C 425.3577880859375 166.6352081298828 347.15655517578125 123.15545654296875 147.81646728515625 137.3452911376953 C 134.59336853027344 161.4878387451172 143.85292053222656 87.77281951904297 151.88768005371094 106.06111145019531 C 160.6680450439453 53.55853271484375 155.84080505371094 72.32405090332031 158.09506225585938 70.36860656738281 C 181.759033203125 70.80428314208984 206.33998107910156 68.98837280273438 436.30450439453125 76.47705841064453" stroke-width="0.0" fill="rgb(234, 237, 238)" opacity="0.8943873"/>
    <path d="M 389.7684326171875 369.79736328125 C 322.6202392578125 342.91851806640625 369.9600830078125 372.87225341796875 389.91705322265625 376.5713195800781 C 371.2289123535156 420.1594543457031 379.5930480957031 381.2485046386719 344.7996826171875 361.9483642578125 C 349.9859313964844 354.700439453125 354.3578186035156 349.5097961425781 361.5484619140625 359.598876953125 C 367.7552490234375 349.60321044921875 403.0978698730469 363.6459655761719 389.7684326171875 369.79736328125" stroke-width="0.0" fill="rgb(8, 81, 56)" opacity="0.97814"/>
    <path d="M 338.1808776855469 321.2547302246094 C 320.29010009765625 381.33514404296875 314.7874755859375 351.0765075683594 337.37945556640625 315.774658203125 C 319.3266296386719 352.2276916503906 287.1910095214844 365.0272521972656 282.5669860839844 316.5257873535156 C 288.1490173339844 340.4258728027344 303.79736328125 305.3392333984375 327.54095458984375 310.7841491699219 C 328.9018249511719 336.8299865722656 304.6180725097656 352.2861633300781 338.1808776855469 321.2547302246094" stroke-width="0.0" fill="rgb(230, 243, 240)" opacity="1.0"/>
    <path d="M 289.5574951171875 253.5639190673828 C 252.88351440429688 268.98760986328125 276.9714050292969 282.3004150390625 275.804443359375 288.335205078125 C 244.1066131591797 272.9870910644531 226.63998413085938 279.1419982910156 231.44580078125 269.9172058105469 C 238.7200927734375 260.5556945800781 250.61572265625 253.0509796142578 257.0623779296875 249.6960906982422 C 283.938232421875 240.3488311767578 305.33612060546875 232.87057495117188 289.5574951171875 253.5639190673828" stroke-width="0.0" fill="rgb(0, 65, 33)" opacity="0.9251173"/>
    <path d="M 383.3740234375 389.76507568359375 C 359.8099060058594 374.26025390625 380.85943603515625 397.56976318359375 356.7216796875 394.50006103515625 C 336.522705078125 381.217041015625 353.57684326171875 385.49822998046875 331.36163330078125 404.29547119140625 C 372.36077880859375 349.2080078125 313.22930908203125 376.7013244628906 347.3267822265625 320.3409423828125 C 342.8511657714844 392.36041259765625 397.9087219238281 374.76348876953125 383.3740234375 389.76507568359375" stroke-width="0.0" fill="rgb(239, 248, 248)" opacity="0.9738282"/>
    <path d="M 398.90045166015625 350.6065673828125 C 342.8550109863281 305.1136474609375 395.8648681640625 406.08026123046875 353.33642578125 377.3083801269531 C 345.5780944824219 351.6331787109375 334.6553649902344 361.8939514160156 344.463623046875 334.879150390625 C 346.05145263671875 312.40576171875 348.9670715332031 292.9465026855469 260.2408447265625 304.260498046875 C 381.89508056640625 263.2990417480469 360.1529235839844 380.7452392578125 398.90045166015625 350.6065673828125" stroke-width="0.0" fill="rgb(0, 63, 38)" opacity="0.953052"/>
    <path d="M 354.0205383300781 576.8049926757812 C 348.76263427734375 594.810302734375 342.8077392578125 604.7949829101562 319.6874694824219 613.6647338867188 C 286.0051574707031 620.2211303710938 249.41017150878906 636.1915283203125 205.95738220214844 581.5087890625 C 221.09104919433594 517.7363891601562 246.10365295410156 543.7157592773438 308.59967041015625 539.0995483398438 C 339.300048828125 554.0869140625 347.4073791503906 564.055419921875 354.0205383300781 576.8049926757812" stroke-width="0.0" fill="rgb(108, 105, 105)" opacity="0.98286664"/>
    <path d="M 320.831298828125 366.2358703613281 C 329.7384033203125 382.2372741699219 315.0517883300781 386.6298828125 309.9823303222656 404.0016174316406 C 292.2914733886719 386.6649475097656 279.8162841796875 383.3618469238281 279.4456787109375 376.05987548828125 C 297.4523010253906 354.6462707519531 290.6050720214844 344.01263427734375 302.9193115234375 356.56719970703125 C 318.03363037109375 350.7427978515625 309.91619873046875 348.13690185546875 320.831298828125 366.2358703613281" stroke-width="0.0" fill="rgb(250, 255, 254)" opacity="0.97881275"/>
    <path d="M 340.07275390625 400.02349853515625 C 356.5544128417969 438.7913513183594 351.44940185546875 419.3309020996094 330.4474182128906 435.1135559082031 C 336.2750549316406 414.3575744628906 307.93511962890625 406.8657531738281 327.4635009765625 389.5479431152344 C 312.7328186035156 404.362548828125 326.1737976074219 399.10821533203125 332.4362487792969 371.2282409667969 C 300.12603759765625 323.9007873535156 344.3837890625 341.5578308105469 340.07275390625 400.02349853515625" stroke-width="0.0" fill="rgb(241, 253, 252)" opacity="0.93377244"/>
    <path d="M 167.3601837158203 153.66143798828125 C 168.28570556640625 174.333740234375 175.3463592529297 188.2458038330078 165.38040161132812 193.15316772460938 C 137.80328369140625 174.90237426757812 132.61888122558594 164.9674835205078 130.4960174560547 149.38148498535156 C 128.86007690429688 134.40664672851562 135.90957641601562 135.584228515625 151.54440307617188 135.44818115234375 C 171.03280639648438 135.99790954589844 162.54429626464844 132.19418334960938 167.3601837158203 153.66143798828125" stroke-width="0.0" fill="rgb(108, 107, 105)" opacity="0.98744977"/>
    <path d="M 268.3435974121094 351.27655029296875 C 263.0344543457031 356.53228759765625 260.963134765625 356.8066101074219 251.70143127441406 375.51812744140625 C 224.09886169433594 392.4383544921875 236.8367156982422 370.6353454589844 231.33596801757812 339.8800048828125 C 253.2012939453125 346.2352294921875 226.3777618408203 326.5522155761719 284.8346252441406 295.85211181640625 C 250.21917724609375 323.0576477050781 264.084716796875 334.8590087890625 268.3435974121094 351.27655029296875" stroke-width="0.0" fill="rgb(0, 66, 33)" opacity="0.96320033"/>
    <path d="M 321.6319580078125 420.37945556640625 C 320.65704345703125 441.1871032714844 326.9302062988281 434.04669189453125 300.448486328125 434.7937316894531 C 281.288818359375 433.6202697753906 282.78302001953125 437.9059753417969 283.576416015625 424.666259765625 C 277.8472595214844 409.9853515625 302.0361633300781 416.1541748046875 289.4180908203125 387.5533142089844 C 312.7397766113281 389.2799987792969 314.17315673828125 417.7730407714844 321.6319580078125 420.37945556640625" stroke-width="0.0" fill="rgb(253, 255, 255)" opacity="0.9732166"/>
    <path d="M 378.4900817871094 399.4013671875 C 365.4642639160156 420.33819580078125 372.2314147949219 380.1181945800781 352.931640625 424.975341796875 C 326.61126708984375 383.9268493652344 351.6976013183594 414.1160583496094 326.2508850097656 403.00042724609375 C 341.7706298828125 373.5132751464844 357.4546813964844 342.5680236816406 331.55206298828125 414.693359375 C 357.4078063964844 382.4043273925781 320.446044921875 385.7734069824219 378.4900817871094 399.4013671875" stroke-width="0.0" fill="rgb(0, 65, 35)" opacity="0.91842765"/>
    <path d="M 311.23675537109375 386.418212890625 C 310.4735107421875 403.0821838378906 319.60443115234375 416.7609558105469 300.2524719238281 416.48748779296875 C 294.0664367675781 402.132568359375 289.565185546875 390.5294189453125 280.1606140136719 377.5862121582031 C 277.35687255859375 371.1355285644531 285.425048828125 366.8653259277344 297.02374267578125 366.31884765625 C 308.3253173828125 371.53936767578125 317.03997802734375 378.44732666015625 311.23675537109375 386.418212890625" stroke-width="0.0" fill="rgb(253, 254, 255)" opacity="0.8296509"/>
    <path d="M 289.82763671875 392.684814453125 C 299.251953125 399.2139587402344 269.7590637207031 458.46533203125 273.6022644042969 421.65814208984375 C 305.3586120605469 383.8670654296875 245.2353057861328 392.42578125 287.55230712890625 339.14569091796875 C 257.1988830566406 370.28155517578125 254.9065704345703 376.80633544921875 264.613037109375 375.2691955566406 C 341.6752624511719 315.3542175292969 257.7550048828125 367.9498291015625 289.82763671875 392.684814453125" stroke-width="0.0" fill="rgb(0, 58, 42)" opacity="0.92940974"/>
    <path d="M 342.9925842285156 294.2789306640625 C 228.96253967285156 305.36614990234375 391.3758239746094 291.116943359375 299.28558349609375 317.7460021972656 C 231.7473907470703 317.5264587402344 367.14398193359375 284.79705810546875 294.7159729003906 278.848388671875 C 306.61083984375 258.6609191894531 281.9115295410156 286.11309814453125 306.7566223144531 250.6345977783203 C 329.8732604980469 288.65625 297.6634521484375 276.7433776855469 342.9925842285156 294.2789306640625" stroke-width="0.0" fill="rgb(247, 252, 255)" opacity="0.90224093"/>
    <path d="M 344.0360412597656 320.8756408691406 C 330.6935729980469 371.3067626953125 323.170654296875 361.3628845214844 337.42474365234375 327.19232177734375 C 331.82440185546875 310.9193115234375 302.8291320800781 337.10211181640625 307.329833984375 314.5810241699219 C 308.90484619140625 308.2691650390625 352.2013244628906 313.5264892578125 295.7266540527344 294.8741455078125 C 335.5528259277344 291.1309814453125 332.85858154296875 306.7490234375 344.0360412597656 320.8756408691406" stroke-width="0.0" fill="rgb(5, 52, 36)" opacity="0.9573634"/>
    <path d="M 341.4661865234375 277.830078125 C 315.96710205078125 310.3783874511719 320.9031982421875 282.2124328613281 272.55328369140625 302.2505187988281 C 274.93804931640625 306.59246826171875 269.52679443359375 294.3607177734375 262.0090637207031 284.3827819824219 C 273.6242370605469 285.0535583496094 286.661376953125 301.4457702636719 269.2057189941406 274.4189453125 C 295.8179016113281 272.5223083496094 283.34991455078125 304.38287353515625 341.4661865234375 277.830078125" stroke-width="0.0" fill="rgb(250, 254, 255)" opacity="0.9381774"/>
    <path d="M 279.19403076171875 334.2621765136719 C 299.80255126953125 370.7903137207031 255.11624145507812 361.9082946777344 280.9278259277344 396.49261474609375 C 240.93507385253906 376.95257568359375 299.9056396484375 329.4801940917969 256.10797119140625 368.5087585449219 C 275.7735290527344 330.20953369140625 279.5433349609375 398.2809143066406 279.9106140136719 305.991455078125 C 262.1027526855469 319.4891052246094 281.9830322265625 364.9844665527344 279.19403076171875 334.2621765136719" stroke-width="0.0" fill="rgb(249, 255, 255)" opacity="0.90144503"/>
    <path d="M 345.2104187011719 318.93585205078125 C 347.6537170410156 333.41961669921875 341.31500244140625 342.69287109375 342.6946105957031 320.612548828125 C 329.67681884765625 329.4744567871094 345.92236328125 319.3689880371094 324.18963623046875 300.5488586425781 C 342.37109375 330.2956848144531 319.1274108886719 335.1778564453125 342.72247314453125 320.72796630859375 C 332.5409851074219 296.5966491699219 342.271728515625 314.4154052734375 345.2104187011719 318.93585205078125" stroke-width="0.0" fill="rgb(207, 232, 235)" opacity="0.9662826"/>
    <path d="M 341.0817565917969 433.07568359375 C 323.156005859375 382.2408447265625 312.1222229003906 391.0025939941406 330.6539001464844 426.0296630859375 C 324.2270812988281 451.4468688964844 320.8760070800781 412.9966735839844 312.95672607421875 404.7198486328125 C 307.8973693847656 398.0066833496094 345.7590637207031 350.3390197753906 327.89605712890625 387.26177978515625 C 304.4325256347656 400.7163391113281 361.70489501953125 409.208984375 341.0817565917969 433.07568359375" stroke-width="0.0" fill="rgb(0, 70, 36)" opacity="0.8796543"/>
    <path d="M 380.9160461425781 292.4329528808594 C 372.5786437988281 311.0987243652344 396.34808349609375 324.290771484375 395.10626220703125 330.4412536621094 C 335.7086181640625 315.8543395996094 384.0044250488281 341.8611755371094 345.47540283203125 305.8441467285156 C 379.85693359375 302.0117492675781 358.19085693359375 324.9632568359375 370.5660095214844 295.8114318847656 C 387.787109375 275.81884765625 371.39617919921875 319.84796142578125 380.9160461425781 292.4329528808594" stroke-width="0.0" fill="rgb(248, 252, 255)" opacity="0.9656267"/>
    <path d="M 319.318115234375 299.5439758300781 C 355.1497497558594 331.0241394042969 298.6885986328125 365.416259765625 304.02825927734375 354.34588623046875 C 306.80889892578125 361.76422119140625 259.3008117675781 332.4722900390625 283.34442138671875 305.10296630859375 C 269.705078125 365.6060791015625 355.63275146484375 351.90728759765625 297.5672912597656 332.935791015625 C 288.9034729003906 340.927978515625 343.8367614746094 357.77001953125 319.318115234375 299.5439758300781" stroke-width="0.0" fill="rgb(0, 31, 24)" opacity="0.70762026"/>
    <path d="M 240.2609100341797 310.9347839355469 C 242.96229553222656 309.17242431640625 238.63839721679688 316.5837707519531 223.76429748535156 324.86566162109375 C 217.34637451171875 317.6279602050781 232.70018005371094 307.93408203125 229.09361267089844 294.71051025390625 C 232.43670654296875 306.5814208984375 228.63218688964844 298.31134033203125 231.671630859375 289.5597229003906 C 236.855224609375 288.3401794433594 244.91835021972656 309.0606689453125 240.2609100341797 310.9347839355469" stroke-width="0.0" fill="rgb(250, 255, 255)" opacity="0.95839286"/>
    <path d="M 272.5882568359375 432.86767578125 C 270.9248046875 407.34490966796875 281.48126220703125 404.95391845703125 270.9887390136719 381.0337219238281 C 290.3808898925781 400.9301452636719 279.36187744140625 411.3120422363281 276.7412414550781 415.40692138671875 C 269.9878845214844 428.1898498535156 274.22308349609375 413.90765380859375 274.3440246582031 408.501953125 C 267.02789306640625 423.7657165527344 259.4210510253906 430.6189880371094 272.5882568359375 432.86767578125" stroke-width="0.0" fill="rgb(249, 252, 255)" opacity="0.9231946"/>
    <path d="M 269.0887145996094 357.10107421875 C 248.3104248046875 374.59613037109375 258.534423828125 362.9363098144531 259.8351745605469 384.6020812988281 C 254.92613220214844 394.8559265136719 222.25094604492188 401.2049255371094 219.67491149902344 384.2687072753906 C 238.44544982910156 366.3110656738281 234.1120147705078 385.1201171875 237.5038299560547 382.3544921875 C 245.66268920898438 381.8902893066406 255.40296936035156 376.54571533203125 269.0887145996094 357.10107421875" stroke-width="0.0" fill="rgb(253, 255, 255)" opacity="0.86120075"/>
    <path d="M 324.1419982910156 387.8580017089844 C 340.7056884765625 369.6364440917969 321.2564697265625 362.35845947265625 327.99163818359375 363.6954650878906 C 324.01348876953125 364.3456726074219 315.3897399902344 348.24700927734375 332.5350341796875 322.73736572265625 C 314.4707946777344 343.04583740234375 325.89263916015625 339.6095886230469 307.1571044921875 348.775146484375 C 325.1608581542969 356.3490905761719 327.7186279296875 388.7582092285156 324.1419982910156 387.8580017089844" stroke-width="0.0" fill="rgb(0, 58, 28)" opacity="0.887513"/>
    <path d="M 396.62640380859375 337.0215148925781 C 409.9220275878906 361.3031005859375 325.6684875488281 322.3167419433594 399.1448059082031 359.3345642089844 C 364.3596496582031 363.1048889160156 370.2522888183594 338.7586669921875 366.0956726074219 332.770263671875 C 377.3692932128906 327.64044189453125 385.17596435546875 332.3554992675781 395.654541015625 328.77264404296875 C 371.8498840332031 322.2799987792969 374.4732666015625 340.348876953125 396.62640380859375 337.0215148925781" stroke-width="0.0" fill="rgb(246, 250, 255)" opacity="0.9177191"/>
    <path d="M 302.741943359375 312.8442687988281 C 270.2650451660156 305.14581298828125 297.850830078125 328.9107971191406 278.08514404296875 316.13482666015625 C 275.9515686035156 350.0103454589844 292.474853515625 317.975341796875 272.5605163574219 316.4505310058594 C 272.69989013671875 295.9478759765625 298.6965637207031 289.6893005371094 269.03643798828125 315.3507995605469 C 304.71148681640625 324.6803894042969 302.923828125 329.37445068359375 302.741943359375 312.8442687988281" stroke-width="0.0" fill="rgb(0, 61, 42)" opacity="0.94947296"/>
    <path d="M 231.94378662109375 363.6204528808594 C 242.0010986328125 374.8194885253906 230.5167236328125 379.1343688964844 218.92921447753906 382.8505554199219 C 209.01536560058594 374.3153076171875 233.84446716308594 366.379638671875 214.66123962402344 368.8824768066406 C 207.1161346435547 362.8961486816406 220.02603149414062 358.4637451171875 222.4266357421875 357.62652587890625 C 227.51373291015625 355.42535400390625 237.98648071289062 350.7522277832031 231.94378662109375 363.6204528808594" stroke-width="0.0" fill="rgb(2, 74, 52)" opacity="0.945884"/>
    <path d="M 267.21990966796875 319.4323425292969 C 262.974609375 341.23248291015625 281.4915771484375 339.07421875 263.98834228515625 372.5830383300781 C 290.6650695800781 345.5874328613281 272.0632629394531 338.1528625488281 266.8849182128906 316.0669860839844 C 263.74835205078125 334.6861572265625 259.7220764160156 325.6434631347656 276.76788330078125 307.8096618652344 C 264.448974609375 323.1332092285156 279.4913635253906 343.0312805175781 267.21990966796875 319.4323425292969" stroke-width="0.0" fill="rgb(0, 44, 32)" opacity="0.86804944"/>
    <path d="M 344.8563537597656 358.82794189453125 C 335.53485107421875 360.858154296875 337.65283203125 351.6791687011719 346.79730224609375 374.63629150390625 C 344.26104736328125 391.1571960449219 341.1993408203125 368.91729736328125 328.96685791015625 356.1420593261719 C 326.93878173828125 337.458251953125 336.02081298828125 346.19189453125 338.80169677734375 364.9838562011719 C 336.19061279296875 355.3062438964844 341.1363830566406 360.5918884277344 344.8563537597656 358.82794189453125" stroke-width="0.0" fill="rgb(0, 81, 52)" opacity="0.85995865"/>
    <path d="M 393.33587646484375 337.83001708984375 C 342.36138916015625 321.0416259765625 325.2773742675781 328.8923645019531 387.02569580078125 343.768798828125 C 378.3975524902344 357.7147521972656 351.947021484375 343.1474304199219 363.19842529296875 329.9130859375 C 366.28411865234375 316.2689208984375 383.927490234375 327.61822509765625 398.3356628417969 337.04632568359375 C 386.67919921875 317.42364501953125 395.4392395019531 308.5630187988281 393.33587646484375 337.83001708984375" stroke-width="0.0" fill="rgb(0, 62, 40)" opacity="0.8982383"/>
    <path d="M 234.65277099609375 369.85723876953125 C 225.22984313964844 370.8760986328125 252.8736114501953 400.9839172363281 216.4750213623047 390.2458190917969 C 251.2957000732422 370.79541015625 245.45010375976562 390.81329345703125 225.25926208496094 371.626220703125 C 206.28286743164062 362.70050048828125 205.05479431152344 356.7025451660156 229.6946258544922 364.87628173828125 C 238.1693878173828 343.0694885253906 232.99505615234375 355.032470703125 234.65277099609375 369.85723876953125" stroke-width="0.0" fill="rgb(22, 92, 66)" opacity="0.9846537"/>
    <path d="M 268.02874755859375 416.9858703613281 C 280.59271240234375 421.53759765625 271.5725402832031 427.4268798828125 268.16424560546875 415.9897766113281 C 271.7436828613281 386.89404296875 254.52615356445312 384.3232116699219 267.7743225097656 403.85052490234375 C 265.208251953125 410.7654724121094 263.0980529785156 413.19219970703125 253.0828094482422 427.972900390625 C 265.8752746582031 391.97369384765625 270.681640625 398.7904968261719 268.02874755859375 416.9858703613281" stroke-width="0.0" fill="rgb(253, 251, 255)" opacity="0.8363119"/>
    <path d="M 271.56805419921875 310.79437255859375 C 253.5461883544922 334.265625 286.26751708984375 351.0452880859375 262.5050354003906 358.938232421875 C 267.118408203125 353.7616271972656 268.4483642578125 350.05621337890625 264.415771484375 336.3719787597656 C 261.0378112792969 325.9375915527344 265.0941467285156 315.5531921386719 269.1583251953125 314.35491943359375 C 263.4591979980469 319.60699462890625 267.58087158203125 313.7960510253906 271.56805419921875 310.79437255859375" stroke-width="0.0" fill="rgb(249, 255, 254)" opacity="0.86940336"/>
    <path d="M 234.95729064941406 347.6235656738281 C 211.0982208251953 357.3834228515625 192.1121826171875 355.0155944824219 236.2448272705078 365.8444519042969 C 218.83331298828125 380.4892883300781 198.64015197753906 374.42291259765625 229.7554168701172 364.43499755859375 C 212.94467163085938 358.8957824707031 213.5524139404297 362.6293029785156 226.8014678955078 357.0579528808594 C 226.40390014648438 355.9555358886719 241.9344482421875 356.055908203125 234.95729064941406 347.6235656738281" stroke-width="0.0" fill="rgb(254, 255, 254)" opacity="0.8741131"/>
    <path d="M 190.21377563476562 351.4043884277344 C 190.31027221679688 353.4914855957031 192.97235107421875 369.1824035644531 194.9541015625 399.8346862792969 C 172.47958374023438 366.6440124511719 166.4677276611328 358.0372619628906 165.908203125 348.5408935546875 C 165.32888793945312 337.3885498046875 170.12417602539062 327.37799072265625 185.7687225341797 323.3578796386719 C 190.05499267578125 334.64013671875 188.86280822753906 348.9744873046875 190.21377563476562 351.4043884277344" stroke-width="0.0" fill="rgb(108, 106, 105)" opacity="0.9270002"/>
    <path d="M 357.6802673339844 405.51031494140625 C 382.6056823730469 408.6560974121094 357.8036804199219 418.8199768066406 361.3168029785156 416.32147216796875 C 360.2978210449219 410.4001159667969 352.35882568359375 407.66815185546875 355.3689880371094 404.4732666015625 C 354.5000915527344 410.7660217285156 363.0237731933594 405.4893798828125 354.1998596191406 402.573974609375 C 357.0706481933594 407.28924560546875 361.1642761230469 411.0931701660156 357.6802673339844 405.51031494140625" stroke-width="0.0" fill="rgb(2, 67, 37)" opacity="0.99090034"/>
    <path d="M 387.5654296875 370.12933349609375 C 370.9116516113281 361.4692687988281 372.0002746582031 365.42462158203125 372.73223876953125 370.6174011230469 C 390.68017578125 370.62200927734375 398.49407958984375 369.005859375 386.287841796875 370.8820495605469 C 386.9278564453125 370.2454833984375 396.7738037109375 370.7557678222656 387.9603271484375 376.5804748535156 C 374.5359802246094 368.33026123046875 370.0086364746094 371.43719482421875 387.5654296875 370.12933349609375" stroke-width="0.0" fill="rgb(236, 246, 244)" opacity="0.9992185"/>
    <path d="M 316.9862976074219 288.1841735839844 C 337.45538330078125 266.102783203125 353.671142578125 280.4352111816406 322.2551574707031 289.4601745605469 C 317.5090026855469 274.13116455078125 313.6931457519531 273.2532958984375 312.7131652832031 276.7215881347656 C 323.89208984375 261.193603515625 338.85699462890625 261.80322265625 305.43389892578125 262.6785888671875 C 302.12274169921875 270.04302978515625 304.1896667480469 281.51934814453125 316.9862976074219 288.1841735839844" stroke-width="0.0" fill="rgb(254, 254, 255)" opacity="0.8811959"/>
    <path d="M 348.3403625488281 285.6328125 C 335.5209655761719 283.5060119628906 337.9891357421875 297.3081970214844 337.5822448730469 302.8177490234375 C 333.17620849609375 297.7886962890625 320.8515319824219 296.57403564453125 316.0645751953125 292.3348388671875 C 326.1423034667969 282.32403564453125 332.7427062988281 272.828125 342.8108825683594 275.900146484375 C 324.9891662597656 299.05914306640625 339.3661193847656 299.95037841796875 348.3403625488281 285.6328125" stroke-width="0.0" fill="rgb(251, 253, 255)" opacity="0.7928202"/>
    <path d="M 379.4264831542969 391.72357177734375 C 373.29119873046875 391.9833068847656 372.3275146484375 404.9754333496094 364.1297302246094 408.96002197265625 C 369.3473815917969 407.3266296386719 367.2117004394531 414.5816955566406 375.45880126953125 406.4184875488281 C 366.1733703613281 406.8130798339844 375.74346923828125 392.1208190917969 372.5752868652344 387.1295471191406 C 372.62884521484375 388.5533752441406 372.27203369140625 394.9017028808594 379.4264831542969 391.72357177734375" stroke-width="0.0" fill="rgb(78, 173, 253)" opacity="0.21807137"/>
    <path d="M 241.41305541992188 413.8819274902344 C 249.21804809570312 405.8320617675781 250.43003845214844 419.6836242675781 241.32398986816406 416.5162048339844 C 242.7677001953125 408.0262451171875 233.7464141845703 402.194580078125 235.4156036376953 411.0086669921875 C 232.8875732421875 403.73712158203125 248.17849731445312 409.59918212890625 238.0775909423828 401.307373046875 C 223.66294860839844 413.48944091796875 240.31167602539062 399.51727294921875 241.41305541992188 413.8819274902344" stroke-width="0.0" fill="rgb(249, 255, 232)" opacity="0.8206735"/>
    <path d="M 324.23309326171875 302.8619384765625 C 322.7526550292969 316.8443908691406 314.4964904785156 317.38922119140625 335.5286560058594 310.9350891113281 C 320.61944580078125 316.6378479003906 309.5099792480469 315.7180480957031 312.9576721191406 321.049560546875 C 334.0231628417969 312.8078308105469 319.83197021484375 316.1526184082031 324.8592224121094 301.1019287109375 C 327.4365234375 303.3837585449219 338.21728515625 311.5903625488281 324.23309326171875 302.8619384765625" stroke-width="0.0" fill="rgb(82, 186, 161)" opacity="0.9980597"/>
    <path d="M 346.8506164550781 284.0881652832031 C 340.65313720703125 298.576171875 334.95672607421875 309.3079528808594 334.0223083496094 298.60321044921875 C 338.2484130859375 303.4808044433594 328.15252685546875 296.12353515625 336.0111999511719 302.8428039550781 C 326.7951965332031 298.2024841308594 329.6763610839844 279.2629699707031 334.8849792480469 290.59088134765625 C 340.8576965332031 289.3202819824219 349.3702392578125 283.72894287109375 346.8506164550781 284.0881652832031" stroke-width="0.0" fill="rgb(250, 255, 255)" opacity="0.81686866"/>
    <path d="M 240.59024047851562 417.3323974609375 C 239.14913940429688 416.8539123535156 235.81826782226562 415.5077209472656 242.8480682373047 418.1505126953125 C 247.5924835205078 416.86004638671875 223.04400634765625 410.6620788574219 241.74325561523438 403.3260803222656 C 238.32872009277344 400.8072509765625 237.71543884277344 399.557861328125 230.3413848876953 406.29852294921875 C 240.57199096679688 414.4198303222656 244.93592834472656 422.1429443359375 240.59024047851562 417.3323974609375" stroke-width="0.0" fill="rgb(216, 255, 198)" opacity="0.6267168"/>
    <path d="M 365.87408447265625 393.2689208984375 C 374.52545166015625 393.9244079589844 361.9695129394531 413.027587890625 357.0956726074219 412.5392761230469 C 368.7408447265625 423.1197814941406 354.95123291015625 416.5235595703125 356.27655029296875 414.2598571777344 C 377.0367736816406 399.23309326171875 361.0177001953125 390.3932189941406 377.339599609375 400.6038513183594 C 383.9490051269531 399.3648681640625 376.00933837890625 390.0584411621094 365.87408447265625 393.2689208984375" stroke-width="0.0" fill="rgb(229, 255, 255)" opacity="0.8371631"/>
    <path d="M 304.8506164550781 269.037109375 C 291.7922058105469 276.086181640625 289.6068420410156 283.171142578125 294.9860534667969 293.07501220703125 C 287.07684326171875 299.759033203125 278.1158142089844 286.6531677246094 293.5748291015625 289.93743896484375 C 297.58856201171875 288.1108093261719 301.2662658691406 277.6630554199219 309.6156005859375 281.13433837890625 C 300.9229431152344 270.3630065917969 310.11773681640625 277.711181640625 304.8506164550781 269.037109375" stroke-width="0.0" fill="rgb(247, 252, 253)" opacity="0.9568145"/>
    <path d="M 296.9958801269531 539.349853515625 C 293.70208740234375 540.6881713867188 287.62384033203125 542.6011352539062 285.5322570800781 539.2236328125 C 282.0048522949219 542.337646484375 276.6460876464844 540.221435546875 277.6912841796875 537.736328125 C 277.88775634765625 540.6311645507812 286.27191162109375 536.4663696289062 286.0916442871094 540.8936767578125 C 282.48291015625 537.425048828125 291.034912109375 539.1600952148438 296.9958801269531 539.349853515625" stroke-width="0.0" fill="rgb(100, 131, 96)" opacity="0.7175497"/>
    <path d="M 293.12652587890625 347.50091552734375 C 269.14154052734375 328.2614440917969 295.5070495605469 345.9017333984375 281.4627380371094 360.9002685546875 C 305.37274169921875 348.578857421875 294.12176513671875 344.1838684082031 281.36810302734375 336.0624694824219 C 293.7463073730469 350.5611877441406 298.2010498046875 348.7463073730469 280.2667236328125 344.7620544433594 C 285.0068359375 345.8942565917969 291.4077453613281 347.5413818359375 293.12652587890625 347.50091552734375" stroke-width="0.0" fill="rgb(3, 62, 38)" opacity="1.0"/>
    <path d="M 363.3006896972656 407.8031921386719 C 362.8844299316406 423.2148132324219 352.0452575683594 416.58697509765625 356.0401306152344 412.4006042480469 C 366.0376281738281 416.2262268066406 360.9103088378906 416.15771484375 357.96185302734375 417.6714782714844 C 362.5633850097656 424.7451171875 361.8126525878906 411.7320861816406 364.63861083984375 402.67742919921875 C 362.60760498046875 401.12359619140625 383.95196533203125 412.3151550292969 363.3006896972656 407.8031921386719" stroke-width="0.0" fill="rgb(225, 255, 255)" opacity="0.7695571"/>
    <path d="M 300.2471618652344 271.7561950683594 C 304.8226623535156 273.0320129394531 312.3644104003906 275.16912841796875 308.7139587402344 254.99156188964844 C 300.1230773925781 250.94290161132812 311.215087890625 264.27178955078125 287.0487976074219 263.0792236328125 C 303.3583068847656 273.6842956542969 298.61334228515625 282.70672607421875 308.08819580078125 273.81158447265625 C 285.8971862792969 267.5999450683594 295.77642822265625 267.34442138671875 300.2471618652344 271.7561950683594" stroke-width="0.0" fill="rgb(254, 254, 255)" opacity="0.89424443"/>
    <path d="M 282.08489990234375 307.4306945800781 C 281.9039611816406 296.3349609375 281.15869140625 303.2090148925781 283.6703186035156 314.9162292480469 C 271.2379455566406 337.1617736816406 282.3955383300781 294.4458312988281 283.4212951660156 314.73284912109375 C 288.6400451660156 307.2707214355469 287.3725280761719 304.338623046875 297.5794372558594 300.2612609863281 C 281.5511474609375 301.7394104003906 284.947509765625 304.3523864746094 282.08489990234375 307.4306945800781" stroke-width="0.0" fill="rgb(0, 33, 38)" opacity="0.9137623"/>
    <path d="M 349.2586975097656 297.6808776855469 C 355.125732421875 288.4883117675781 346.8840637207031 298.3073425292969 323.5621337890625 311.9791564941406 C 317.4483337402344 299.21343994140625 359.9107971191406 307.7484436035156 348.5874938964844 271.6761474609375 C 300.1990966796875 279.866943359375 330.3513488769531 272.5889587402344 341.6053771972656 267.1329345703125 C 344.4439697265625 276.7291564941406 347.48565673828125 287.4681396484375 349.2586975097656 297.6808776855469" stroke-width="0.0" fill="rgb(0, 54, 38)" opacity="0.30505842"/>
    <path d="M 490.1656494140625 137.0751495361328 C 486.9754943847656 146.6776580810547 479.8849182128906 153.757080078125 470.4088439941406 156.0950927734375 C 461.7097473144531 153.28067016601562 454.0545349121094 148.16946411132812 466.8303527832031 150.69924926757812 C 469.76849365234375 143.0680694580078 474.85345458984375 133.96754455566406 478.1982421875 125.44757843017578 C 481.0791320800781 120.24552917480469 488.97283935546875 127.5014877319336 490.1656494140625 137.0751495361328" stroke-width="0.0" fill="rgb(110, 104, 106)" opacity="0.82222015"/>
    <path d="M 453.6424865722656 576.54833984375 C 450.9914855957031 586.554931640625 443.6692810058594 593.8734741210938 433.63226318359375 596.6395263671875 C 423.62847900390625 593.886474609375 416.3865661621094 586.5215454101562 413.0473327636719 576.0571899414062 C 415.8753662109375 566.2393798828125 423.4178466796875 558.97119140625 433.49041748046875 555.72607421875 C 443.6299743652344 559.20068359375 450.9399719238281 566.5516357421875 453.6424865722656 576.54833984375" stroke-width="0.0" fill="rgb(109, 105, 105)" opacity="0.97618335"/>
    <path d="M 249.16209411621094 277.48614501953125 C 255.42335510253906 279.82159423828125 255.07040405273438 290.79840087890625 269.5832214355469 299.21923828125 C 262.18414306640625 298.31890869140625 254.5985565185547 289.3070373535156 253.0085906982422 283.610107421875 C 246.36143493652344 286.0771484375 253.5568389892578 282.3278503417969 257.7052001953125 279.1106872558594 C 260.442626953125 284.1230163574219 263.3783264160156 293.27880859375 249.16209411621094 277.48614501953125" stroke-width="0.0" fill="rgb(0, 65, 36)" opacity="0.75216466"/>
    <path d="M 410.7939758300781 110.462158203125 C 405.347900390625 121.4096908569336 397.3678894042969 128.02127075195312 387.7922668457031 128.04306030273438 C 378.048095703125 127.16617584228516 369.9727783203125 120.86200714111328 359.5272521972656 107.90691375732422 C 365.8514709472656 98.20931243896484 376.44476318359375 93.50718688964844 387.1324462890625 92.49617004394531 C 397.4361267089844 94.31913757324219 406.20269775390625 100.39213562011719 410.7939758300781 110.462158203125" stroke-width="0.0" fill="rgb(232, 235, 235)" opacity="0.78374696"/>
    <path d="M 616.6580810546875 391.2650146484375 C 613.995849609375 401.29150390625 606.8366088867188 408.9175109863281 595.5525512695312 416.88873291015625 C 584.1155395507812 411.6800537109375 576.0838623046875 404.0501403808594 566.8492431640625 390.78314208984375 C 574.8737182617188 377.37005615234375 582.9041748046875 369.3701477050781 595.1444091796875 363.5727233886719 C 606.9889526367188 373.4288635253906 614.01025390625 381.212890625 616.6580810546875 391.2650146484375" stroke-width="0.0" fill="rgb(109, 105, 106)" opacity="1.0"/>
    <path d="M 601.3279418945312 298.0613098144531 C 598.6795654296875 308.0289611816406 591.3585205078125 315.3265380859375 581.3486328125 318.0441589355469 C 571.326416015625 315.4471740722656 563.9783325195312 308.1510009765625 561.2173461914062 298.05010986328125 C 564.0302734375 288.0568542480469 571.4136962890625 280.79248046875 581.4776611328125 278.0491027832031 C 591.3508911132812 280.78851318359375 598.6632080078125 288.1217346191406 601.3279418945312 298.0613098144531" stroke-width="0.0" fill="rgb(108, 105, 105)" opacity="0.98089606"/>
    <path d="M 525.9271240234375 74.36248016357422 C 513.9388427734375 89.79541015625 505.4885559082031 97.46685028076172 493.2740478515625 103.1430435180664 C 480.9007568359375 92.8714370727539 473.7596435546875 85.17435455322266 470.77264404296875 74.97147369384766 C 473.741943359375 64.65322875976562 480.94232177734375 57.0427131652832 493.9717712402344 47.550865173339844 C 506.87945556640625 49.72000503540039 515.4755249023438 58.33171844482422 525.9271240234375 74.36248016357422" stroke-width="0.0" fill="rgb(109, 105, 106)" opacity="0.9980205"/>
    <path d="M 168.24452209472656 349.1485290527344 C 165.04347229003906 359.31781005859375 157.8793487548828 366.95587158203125 147.61367797851562 370.92529296875 C 137.1637420654297 367.108642578125 129.68699645996094 359.7036437988281 126.45194244384766 349.37554931640625 C 129.99111938476562 338.9284973144531 137.2992401123047 331.36444091796875 147.40292358398438 327.65362548828125 C 157.88075256347656 331.5555114746094 165.18556213378906 339.0098571777344 168.24452209472656 349.1485290527344" stroke-width="0.0" fill="rgb(109, 105, 106)" opacity="0.9685776"/>
    <path d="M 63.36745834350586 200.18223571777344 C 60.34501647949219 210.37916564941406 52.75852584838867 217.46319580078125 42.481502532958984 219.6431427001953 C 32.57408905029297 217.3192596435547 25.208755493164062 210.04412841796875 22.282548904418945 199.99652099609375 C 25.1312313079834 189.97885131835938 32.48516845703125 182.65953063964844 42.57624435424805 179.89163208007812 C 52.76646423339844 182.5072784423828 60.156211853027344 189.80999755859375 63.36745834350586 200.18223571777344" stroke-width="0.0" fill="rgb(109, 105, 106)" opacity="0.9860824"/>
    <path d="M 601.2640380859375 13.856345176696777 C 598.1451416015625 25.33699607849121 590.8168334960938 33.32190704345703 579.8162841796875 36.73990249633789 C 568.0730590820312 31.766084671020508 560.5280151367188 24.382776260375977 556.6807861328125 13.606109619140625 C 560.7726440429688 3.0484728813171387 568.5005493164062 -4.022964000701904 578.9157104492188 -6.6161980628967285 C 589.4512329101562 -4.271631717681885 597.2471923828125 2.7418463230133057 601.2640380859375 13.856345176696777" stroke-width="0.0" fill="rgb(108, 105, 106)" opacity="0.8683421"/>
    <path d="M 564.0225219726562 551.0673217773438 C 561.2264404296875 561.1104125976562 553.8860473632812 568.44482421875 543.9031372070312 571.0836181640625 C 533.9007568359375 568.3327026367188 526.5836791992188 561.0198974609375 523.8876953125 551.06298828125 C 526.5624389648438 541.09521484375 533.8684692382812 533.7711181640625 543.8499145507812 531.229248046875 C 553.8880615234375 533.7284545898438 561.246337890625 541.0165405273438 564.0225219726562 551.0673217773438" stroke-width="0.0" fill="rgb(109, 105, 105)" opacity="0.9823777"/>
    <path d="M 267.0859680175781 463.551513671875 C 263.72021484375 474.3714904785156 256.3940734863281 481.9610595703125 245.74118041992188 485.8217468261719 C 235.05235290527344 481.70245361328125 227.47216796875 474.3118591308594 223.36021423339844 463.6865539550781 C 227.37416076660156 452.9328918457031 234.8960723876953 445.4950866699219 245.84097290039062 441.1304016113281 C 256.56915283203125 445.2185974121094 263.9874267578125 452.8105773925781 267.0859680175781 463.551513671875" stroke-width="0.0" fill="rgb(118, 206, 85)" opacity="1.0"/>
    <path d="M 104.5719223022461 27.23430061340332 C 101.49797821044922 37.49030303955078 93.85639190673828 44.49762725830078 83.70277404785156 46.69614028930664 C 73.55581665039062 44.8138542175293 65.8934097290039 37.72747039794922 62.89442825317383 27.546985626220703 C 66.42756652832031 17.179948806762695 73.53874969482422 9.48013687133789 83.65252685546875 5.769395351409912 C 94.19367218017578 9.495201110839844 101.5373306274414 16.992002487182617 104.5719223022461 27.23430061340332" stroke-width="0.0" fill="rgb(108, 104, 106)" opacity="0.995094"/>
    <path d="M 433.7283020019531 200.18409729003906 C 424.14349365234375 223.8978729248047 436.5391845703125 248.40524291992188 410.84368896484375 320.24407958984375 C 359.1957092285156 248.2196044921875 357.43524169921875 230.05958557128906 359.3582458496094 199.0434112548828 C 353.0880126953125 162.17393493652344 344.1341857910156 130.6036834716797 409.2411193847656 136.78082275390625 C 458.20867919921875 136.7761993408203 428.565673828125 168.63040161132812 433.7283020019531 200.18409729003906" stroke-width="0.0" fill="rgb(118, 208, 83)" opacity="0.8279933"/>
    <path d="M 28.143455505371094 357.79345703125 C 25.283536911010742 367.8193359375 17.887773513793945 375.0903015136719 7.822652816772461 377.6556091308594 C -2.1826698780059814 375.0304870605469 -9.50475025177002 367.7160949707031 -12.188549995422363 357.7130126953125 C -9.54869556427002 347.6368408203125 -2.374908447265625 340.02215576171875 7.7078680992126465 336.470947265625 C 17.852705001831055 340.28948974609375 25.175525665283203 347.7041320800781 28.143455505371094 357.79345703125" stroke-width="0.0" fill="rgb(109, 105, 105)" opacity="1.0"/>
    <path d="M 301.1636047363281 417.8625183105469 C 296.84539794921875 422.2666320800781 290.0219421386719 428.9564514160156 293.6361999511719 424.7673645019531 C 306.8344421386719 426.5436706542969 299.2088623046875 423.8620300292969 294.7126770019531 422.57904052734375 C 292.9466247558594 430.5194091796875 297.81988525390625 420.4752197265625 300.8334655761719 416.2353820800781 C 305.2412109375 418.4615478515625 312.91363525390625 422.8100280761719 301.1636047363281 417.8625183105469" stroke-width="0.0" fill="rgb(254, 255, 255)" opacity="0.7426565"/>
  </g>
</svg>
