<?xml version="1.0" ?>
<svg xmlns="http://www.w3.org/2000/svg" version="1.1" width="600" height="600">
  <defs/>
  <g>
    <path d="M 377.6800537109375 599.4439086914062 C 378.028564453125 626.526611328125 362.3362121582031 623.7218627929688 251.86370849609375 627.4111938476562 C 211.01548767089844 610.609130859375 220.20994567871094 571.7515258789062 205.52183532714844 490.258056640625 C 182.09347534179688 489.1321105957031 192.86956787109375 513.0963134765625 304.0312194824219 475.7210388183594 C 354.3455505371094 437.2449951171875 360.62811279296875 451.7641906738281 377.6800537109375 599.4439086914062" stroke-width="0.0" fill="rgb(5, 104, 153)" opacity="1.0"/>
    <path d="M 397.2929992675781 2.7749388217926025 C 347.4459228515625 87.93512725830078 317.61822509765625 79.43321990966797 231.00656127929688 90.4943618774414 C 190.34796142578125 89.49034881591797 163.31161499023438 91.29435729980469 172.31544494628906 21.706825256347656 C 226.54725646972656 -7.386934280395508 231.6978759765625 -14.749293327331543 300.53448486328125 -30.71358871459961 C 354.7070617675781 -23.892066955566406 365.3222351074219 -25.641597747802734 397.2929992675781 2.7749388217926025" stroke-width="0.0" fill="rgb(12, 39, 182)" opacity="0.98919135"/>
    <path d="M 246.4756317138672 591.6878662109375 C 248.71844482421875 667.986083984375 218.7659912109375 654.1049194335938 165.7555389404297 635.3198852539062 C 89.94401550292969 633.1734008789062 68.69668579101562 638.4296875 30.828882217407227 583.0077514648438 C 44.029632568359375 494.93511962890625 65.08311462402344 485.95611572265625 146.11953735351562 474.58868408203125 C 229.80380249023438 480.61273193359375 230.60060119628906 491.3988952636719 246.4756317138672 591.6878662109375" stroke-width="0.0" fill="rgb(17, 103, 156)" opacity="0.98816526"/>
    <path d="M 605.4157104492188 202.99398803710938 C 638.9567260742188 336.55670166015625 675.612548828125 369.2751770019531 559.3936157226562 328.164794921875 C 477.8387145996094 236.17160034179688 508.0576171875 167.14894104003906 452.7463073730469 135.3519287109375 C 404.7296142578125 56.9259147644043 444.0345153808594 72.59788513183594 608.9906005859375 33.4096794128418 C 608.5359497070312 42.57866287231445 624.0925903320312 43.717689514160156 605.4157104492188 202.99398803710938" stroke-width="0.0" fill="rgb(10, 38, 174)" opacity="0.9927646"/>
    <path d="M 401.1235656738281 394.94879150390625 C 345.5709533691406 549.611328125 329.73529052734375 543.0474853515625 281.3507995605469 526.2390747070312 C 210.50991821289062 524.9935913085938 171.3175048828125 548.4310302734375 161.29183959960938 396.7957458496094 C 131.65792846679688 301.0331726074219 94.41828155517578 254.274169921875 293.5386657714844 246.82533264160156 C 433.9388732910156 342.1312561035156 437.2699279785156 353.9111328125 401.1235656738281 394.94879150390625" stroke-width="0.0" fill="rgb(84, 120, 18)" opacity="0.9571525"/>
    <path d="M 581.9459838867188 222.39486694335938 C 581.9253540039062 321.30517578125 560.6119384765625 325.2988586425781 337.7691955566406 332.43634033203125 C 281.6042175292969 302.7481994628906 282.74212646484375 235.92076110839844 139.40277099609375 96.12234497070312 C 232.37379455566406 30.892343521118164 298.23443603515625 84.96244812011719 390.4236755371094 72.90223693847656 C 440.10064697265625 98.54192352294922 441.9682922363281 117.4040756225586 581.9459838867188 222.39486694335938" stroke-width="0.0" fill="rgb(255, 255, 246)" opacity="1.0"/>
    <path d="M 466.39947509765625 103.87251281738281 C 420.9680480957031 153.3275146484375 411.958984375 166.4615936279297 373.6408996582031 263.8808288574219 C 316.00732421875 177.12184143066406 293.8548278808594 173.63124084472656 296.5960388183594 160.4920196533203 C 338.24249267578125 86.42623901367188 338.9972229003906 63.27045822143555 399.7415771484375 82.74819946289062 C 438.60247802734375 53.81194305419922 449.69964599609375 42.952144622802734 466.39947509765625 103.87251281738281" stroke-width="0.0" fill="rgb(1, 3, 115)" opacity="0.9105068"/>
    <path d="M 230.9523162841797 377.6523742675781 C 224.46832275390625 588.7949829101562 220.36346435546875 595.7890625 130.4119415283203 577.3585815429688 C -3.6341633796691895 595.5914306640625 -33.35887908935547 607.18798828125 -49.85292434692383 375.698486328125 C -51.11810302734375 298.3934020996094 -77.29419708251953 266.86279296875 151.53929138183594 181.7855682373047 C 257.6898193359375 240.3915252685547 228.67274475097656 281.361328125 230.9523162841797 377.6523742675781" stroke-width="0.0" fill="rgb(21, 107, 137)" opacity="0.9600955"/>
    <path d="M 230.68626403808594 166.7118377685547 C 240.55799865722656 155.8937225341797 252.37648010253906 211.74505615234375 204.6447296142578 341.0407409667969 C -57.090187072753906 273.0914611816406 -54.933197021484375 269.6932373046875 -20.35716438293457 251.68836975097656 C 78.96891021728516 51.28541946411133 107.6444091796875 49.4427604675293 133.7292938232422 45.14358901977539 C 114.88056945800781 60.215579986572266 138.0336456298828 53.27830505371094 230.68626403808594 166.7118377685547" stroke-width="0.0" fill="rgb(38, 42, 0)" opacity="1.0"/>
    <path d="M 192.56434631347656 36.34450149536133 C 183.3325958251953 108.10460662841797 156.038818359375 101.58892059326172 20.072830200195312 184.44863891601562 C -71.63326263427734 186.8503875732422 -82.42748260498047 180.34059143066406 -71.37847137451172 91.33133697509766 C -10.15634822845459 -47.66112518310547 14.742843627929688 -33.53483581542969 88.81415557861328 -21.894962310791016 C 144.5882110595703 -16.27824592590332 162.5287322998047 -12.533842086791992 192.56434631347656 36.34450149536133" stroke-width="0.0" fill="rgb(13, 37, 178)" opacity="0.9990386"/>
    <path d="M 246.8893585205078 501.2102966308594 C 212.13113403320312 617.6201171875 180.8968963623047 600.8091430664062 62.959495544433594 635.0038452148438 C 0.24179629981517792 625.30712890625 -13.247808456420898 623.430908203125 -95.4468765258789 544.2141723632812 C -82.26953887939453 431.1131591796875 -22.855628967285156 467.1202697753906 78.47112274169922 456.86151123046875 C 152.4081268310547 450.7623596191406 202.23068237304688 450.55828857421875 246.8893585205078 501.2102966308594" stroke-width="0.0" fill="rgb(7, 112, 145)" opacity="0.9917904"/>
    <path d="M 694.202880859375 78.60270690917969 C 624.4692993164062 174.7882537841797 565.1636352539062 153.52334594726562 459.2470397949219 178.50860595703125 C 425.9950256347656 153.9120635986328 426.7364501953125 122.85978698730469 419.5830993652344 113.45211029052734 C 435.8356628417969 38.04951477050781 439.110595703125 3.452501058578491 526.1561279296875 -36.145606994628906 C 586.9144287109375 -28.21131134033203 607.3119506835938 -33.91307067871094 694.202880859375 78.60270690917969" stroke-width="0.0" fill="rgb(11, 35, 181)" opacity="1.0"/>
    <path d="M 633.3181762695312 378.0624084472656 C 615.0821533203125 682.791015625 603.6884765625 678.2999267578125 506.7167663574219 693.9011840820312 C 318.12017822265625 662.375244140625 337.4225158691406 631.6713256835938 323.3280334472656 537.6466064453125 C 304.33551025390625 399.00836181640625 291.6396789550781 401.29522705078125 524.7391357421875 392.70770263671875 C 608.4556884765625 308.5060729980469 623.885009765625 311.3602600097656 633.3181762695312 378.0624084472656" stroke-width="0.0" fill="rgb(9, 105, 140)" opacity="0.9940658"/>
    <path d="M 181.99069213867188 8.293839454650879 C 167.95472717285156 101.05931854248047 250.82447814941406 92.987548828125 286.19525146484375 348.7823181152344 C 172.6964874267578 134.92555236816406 142.90606689453125 103.46974182128906 107.7568130493164 21.577754974365234 C 94.29818725585938 -41.159645080566406 99.85136413574219 -47.40776443481445 179.6229248046875 -28.48335838317871 C 247.25062561035156 -9.068909645080566 254.98646545410156 17.123220443725586 181.99069213867188 8.293839454650879" stroke-width="0.0" fill="rgb(26, 45, 0)" opacity="1.0"/>
    <path d="M 365.6171569824219 26.269298553466797 C 351.0286865234375 144.5126953125 358.93408203125 189.8574981689453 323.45556640625 148.15927124023438 C 301.8005065917969 127.51904296875 281.17596435546875 105.21234130859375 215.6258544921875 77.92425537109375 C 234.0356903076172 10.35428237915039 254.9217987060547 29.8060302734375 376.8576354980469 51.191307067871094 C 416.972412109375 34.20814514160156 402.3946533203125 16.10329246520996 365.6171569824219 26.269298553466797" stroke-width="0.0" fill="rgb(22, 0, 197)" opacity="0.9990619"/>
    <path d="M 473.05609130859375 -45.81922912597656 C 452.717529296875 48.552669525146484 468.592041015625 92.87246704101562 439.89990234375 128.67025756835938 C 356.3085021972656 112.1413803100586 370.76885986328125 88.24398040771484 356.03302001953125 -19.09872055053711 C 338.94970703125 -42.82296371459961 357.9593811035156 -37.32992935180664 411.2666015625 -31.219757080078125 C 478.4912109375 -22.091154098510742 497.2428894042969 -22.827869415283203 473.05609130859375 -45.81922912597656" stroke-width="0.0" fill="rgb(7, 37, 177)" opacity="0.9911548"/>
    <path d="M 235.23231506347656 -0.3555603623390198 C 182.06039428710938 111.62256622314453 138.0003662109375 88.85987091064453 95.6823959350586 93.24798583984375 C 96.36641693115234 106.4702377319336 92.42903137207031 83.25653076171875 93.6611328125 124.71932220458984 C 101.0504150390625 65.05242919921875 77.26528930664062 -4.966103553771973 121.65150451660156 -76.4357681274414 C 214.48741149902344 -36.6052131652832 229.38665771484375 -35.08896255493164 235.23231506347656 -0.3555603623390198" stroke-width="0.0" fill="rgb(12, 37, 185)" opacity="1.0"/>
    <path d="M 366.7672424316406 86.9747543334961 C 378.2773132324219 170.8695526123047 376.63079833984375 193.40591430664062 367.0366516113281 235.0786895751953 C 324.8999938964844 145.41737365722656 303.8758850097656 127.33517456054688 301.48052978515625 80.66218566894531 C 245.98715209960938 16.159605026245117 243.60606384277344 18.095142364501953 338.2850646972656 15.32757568359375 C 404.0666809082031 9.591599464416504 392.68756103515625 22.66432762145996 366.7672424316406 86.9747543334961" stroke-width="0.0" fill="rgb(10, 33, 191)" opacity="0.9259924"/>
    <path d="M 121.50392150878906 122.62126922607422 C 130.60214233398438 173.16937255859375 118.64579010009766 191.38534545898438 116.92827606201172 198.81591796875 C 63.286048889160156 173.49224853515625 71.15718078613281 169.48284912109375 58.65291976928711 139.02371215820312 C 72.54822540283203 135.70265197753906 87.71664428710938 133.57498168945312 92.08597564697266 89.82415771484375 C 134.02565002441406 89.94966125488281 143.28915405273438 90.65884399414062 121.50392150878906 122.62126922607422" stroke-width="0.0" fill="rgb(0, 37, 204)" opacity="0.48462853"/>
    <path d="M 189.88575744628906 67.12374877929688 C 197.90830993652344 217.1779022216797 190.8607940673828 210.19696044921875 206.98660278320312 185.286376953125 C 114.94963073730469 127.41028594970703 97.41664123535156 161.24859619140625 93.81826782226562 110.95157623291016 C 128.8555145263672 107.14364624023438 133.3143768310547 108.28205108642578 136.4924774169922 64.41039276123047 C 192.8561248779297 63.839359283447266 258.3619384765625 66.6558609008789 189.88575744628906 67.12374877929688" stroke-width="0.0" fill="rgb(1, 38, 211)" opacity="0.99774384"/>
    <path d="M 465.0084228515625 251.89715576171875 C 448.8382263183594 182.6330108642578 488.1394958496094 219.530517578125 474.62713623046875 250.41390991210938 C 369.1305847167969 282.36126708984375 411.68359375 329.4378356933594 363.6391906738281 213.41558837890625 C 382.25311279296875 142.58128356933594 388.0578918457031 138.22132873535156 420.5281677246094 142.16001892089844 C 488.8910217285156 149.10943603515625 482.14508056640625 146.87725830078125 465.0084228515625 251.89715576171875" stroke-width="0.0" fill="rgb(3, 14, 181)" opacity="0.9848547"/>
    <path d="M 91.0451889038086 174.2180633544922 C 84.9418716430664 181.88766479492188 46.626224517822266 174.50315856933594 21.108802795410156 212.43585205078125 C -9.791533470153809 213.3275909423828 -30.290454864501953 207.56565856933594 -0.07082395255565643 206.45875549316406 C 40.7240104675293 177.19537353515625 37.226837158203125 185.71746826171875 37.605712890625 151.3734588623047 C 72.10926818847656 140.04306030273438 80.33161926269531 144.1262664794922 91.0451889038086 174.2180633544922" stroke-width="0.0" fill="rgb(1, 43, 202)" opacity="0.5061032"/>
    <path d="M 127.30179595947266 213.92095947265625 C 77.45024871826172 203.4915771484375 74.74723815917969 197.17420959472656 43.185977935791016 207.72500610351562 C 23.334152221679688 245.06692504882812 -13.122831344604492 242.04086303710938 8.750687599182129 189.6732940673828 C 46.65460968017578 166.7882080078125 43.3017692565918 146.48411560058594 82.1924057006836 138.37535095214844 C 126.89553833007812 129.43043518066406 133.98719787597656 105.40323638916016 127.30179595947266 213.92095947265625" stroke-width="0.0" fill="rgb(0, 32, 208)" opacity="0.99507666"/>
    <path d="M 332.3663635253906 551.566650390625 C 335.16217041015625 622.4472045898438 349.8124084472656 585.9480590820312 285.0517883300781 603.5545043945312 C 185.20741271972656 613.7876586914062 191.66574096679688 622.4166259765625 158.6349334716797 473.076171875 C 152.2828369140625 405.44769287109375 154.04061889648438 441.4587707519531 299.9160461425781 433.1485900878906 C 352.9347839355469 420.14923095703125 330.2476501464844 425.8078308105469 332.3663635253906 551.566650390625" stroke-width="0.0" fill="rgb(6, 107, 148)" opacity="1.0"/>
    <path d="M 550.30615234375 144.0257110595703 C 540.7509765625 215.7653045654297 454.3212890625 180.31298828125 374.0860595703125 237.35018920898438 C 339.19342041015625 169.13247680664062 348.6693420410156 143.81788635253906 331.4989318847656 120.72543334960938 C 333.22998046875 63.105369567871094 326.6502380371094 47.917808532714844 401.3837890625 25.548675537109375 C 463.9974060058594 21.45314598083496 473.4117736816406 34.116153717041016 550.30615234375 144.0257110595703" stroke-width="0.0" fill="rgb(10, 34, 184)" opacity="0.9694183"/>
    <path d="M 319.19097900390625 115.18633270263672 C 317.75421142578125 171.41351318359375 317.0770263671875 154.55645751953125 298.826171875 126.72140502929688 C 252.47752380371094 88.29342651367188 236.35403442382812 81.68275451660156 199.66116333007812 75.34015655517578 C 164.93638610839844 42.5379524230957 171.75006103515625 21.90873146057129 236.61685180664062 24.700345993041992 C 320.8438415527344 22.613658905029297 294.7508239746094 27.8862247467041 319.19097900390625 115.18633270263672" stroke-width="0.0" fill="rgb(8, 28, 197)" opacity="0.98636687"/>
    <path d="M 62.7662467956543 261.30767822265625 C 73.0262451171875 268.59844970703125 68.90445709228516 274.6633605957031 63.04633331298828 301.2758483886719 C 60.615760803222656 414.10455322265625 7.87724494934082 403.5389404296875 -74.05150604248047 350.5557861328125 C -34.51103210449219 172.83888244628906 -29.957353591918945 165.12435913085938 31.198999404907227 177.69293212890625 C 55.220726013183594 231.37376403808594 67.11829376220703 238.33963012695312 62.7662467956543 261.30767822265625" stroke-width="0.0" fill="rgb(0, 36, 216)" opacity="1.0"/>
    <path d="M 351.3329772949219 145.1002655029297 C 368.7828674316406 172.88656616210938 418.58843994140625 249.87002563476562 325.24932861328125 328.6025390625 C 419.3921813964844 232.33331298828125 366.01788330078125 314.88287353515625 381.3121337890625 224.0350799560547 C 322.7032165527344 138.48692321777344 341.3146667480469 128.15733337402344 324.2011413574219 118.81111145019531 C 372.2880554199219 127.9978256225586 391.4373474121094 162.3907012939453 351.3329772949219 145.1002655029297" stroke-width="0.0" fill="rgb(5, 57, 166)" opacity="0.2034875"/>
    <path d="M 69.7839584350586 96.56934356689453 C 69.06095123291016 144.4464569091797 76.87258911132812 181.64920043945312 75.88709259033203 171.99484252929688 C 19.654815673828125 180.45001220703125 30.292543411254883 191.92315673828125 25.70627212524414 151.90737915039062 C 74.78421020507812 139.94448852539062 78.83814239501953 149.29559326171875 122.14945220947266 128.36183166503906 C 116.77860260009766 97.18539428710938 102.988037109375 112.80409240722656 69.7839584350586 96.56934356689453" stroke-width="0.0" fill="rgb(12, 42, 168)" opacity="0.4328615"/>
    <path d="M 153.98672485351562 86.89787292480469 C 134.15176391601562 168.95330810546875 135.48431396484375 145.26675415039062 137.2961883544922 146.43321228027344 C 62.97725296020508 152.39593505859375 37.060325622558594 167.1177978515625 64.86880493164062 119.22816467285156 C 79.06536102294922 79.8901596069336 78.09835052490234 64.55810546875 86.92327880859375 57.56117630004883 C 161.35052490234375 61.83306121826172 159.43238830566406 44.632484436035156 153.98672485351562 86.89787292480469" stroke-width="0.0" fill="rgb(13, 33, 195)" opacity="0.5872611"/>
    <path d="M 393.0614929199219 51.84573745727539 C 375.5909729003906 143.9191436767578 367.6247863769531 155.16358947753906 354.0155029296875 104.91132354736328 C 271.9650573730469 97.60562896728516 270.32940673828125 108.97881317138672 251.40478515625 75.76652526855469 C 234.54624938964844 7.034522533416748 239.04342651367188 9.032410621643066 290.0153503417969 2.485999584197998 C 376.6143798828125 6.829516410827637 400.7879943847656 0.16458840668201447 393.0614929199219 51.84573745727539" stroke-width="0.0" fill="rgb(12, 40, 178)" opacity="0.4443699"/>
    <path d="M 42.411834716796875 220.90768432617188 C 81.47545623779297 277.42626953125 72.11820220947266 258.150146484375 0.37367188930511475 269.5301513671875 C -40.124916076660156 273.44818115234375 -34.856666564941406 261.1883239746094 -33.18743896484375 215.78627014160156 C -14.837577819824219 175.57151794433594 0.8451470732688904 172.6513671875 51.04515838623047 142.88998413085938 C 101.08770751953125 120.39866638183594 84.20387268066406 126.6705551147461 42.411834716796875 220.90768432617188" stroke-width="0.0" fill="rgb(14, 47, 179)" opacity="0.16100636"/>
    <path d="M 557.8963012695312 343.0485534667969 C 633.4984741210938 318.8259582519531 623.6489868164062 373.22125244140625 552.448486328125 408.15692138671875 C 404.7145080566406 370.2989501953125 364.54638671875 335.03875732421875 475.74755859375 380.0439147949219 C 510.0868835449219 402.4053955078125 500.0923767089844 367.492919921875 583.1614379882812 245.87493896484375 C 583.1493530273438 279.501220703125 567.4381713867188 371.2394714355469 557.8963012695312 343.0485534667969" stroke-width="0.0" fill="rgb(7, 3, 17)" opacity="0.9989104"/>
    <path d="M 412.9522705078125 179.48297119140625 C 403.697021484375 215.28634643554688 423.40966796875 218.12789916992188 351.05096435546875 225.1680450439453 C 317.4580078125 209.62118530273438 313.4916687011719 184.3164520263672 306.5481262207031 176.83724975585938 C 307.7455749511719 86.6609115600586 309.6070251464844 109.93023681640625 383.4835205078125 120.51090240478516 C 382.8052978515625 127.13662719726562 384.901611328125 134.82635498046875 412.9522705078125 179.48297119140625" stroke-width="0.0" fill="rgb(7, 33, 192)" opacity="0.50022703"/>
    <path d="M 421.00848388671875 195.96810913085938 C 433.5149841308594 214.91864013671875 401.6000061035156 213.0853729248047 369.449951171875 248.12892150878906 C 363.8929443359375 230.96453857421875 347.34002685546875 217.99195861816406 310.2584228515625 180.1219482421875 C 329.2189025878906 156.9940185546875 332.5718688964844 160.28082275390625 401.7817687988281 165.7842559814453 C 417.8554992675781 163.44815063476562 403.7230224609375 160.90194702148438 421.00848388671875 195.96810913085938" stroke-width="0.0" fill="rgb(9, 30, 195)" opacity="0.8768605"/>
    <path d="M 555.7215576171875 373.19537353515625 C 487.7298278808594 405.1436462402344 489.32000732421875 417.06219482421875 482.6888427734375 387.2173156738281 C 486.28594970703125 406.63427734375 409.1151428222656 464.1095886230469 224.4029998779297 338.5506591796875 C 464.5184020996094 327.86749267578125 410.446044921875 269.0935363769531 479.7077331542969 371.8975524902344 C 559.3457641601562 401.7112731933594 561.3177490234375 378.0852355957031 555.7215576171875 373.19537353515625" stroke-width="0.0" fill="rgb(0, 0, 16)" opacity="1.0"/>
    <path d="M 205.46527099609375 349.5478210449219 C 211.95339965820312 412.6848449707031 169.59194946289062 375.6587829589844 205.5841064453125 381.7379455566406 C 139.0335693359375 368.17047119140625 111.15756225585938 385.8779296875 43.482608795166016 363.4109191894531 C 109.1115493774414 304.7702941894531 130.78793334960938 283.05963134765625 189.07472229003906 325.749267578125 C 166.69732666015625 317.21002197265625 158.5460205078125 326.4045104980469 205.46527099609375 349.5478210449219" stroke-width="0.0" fill="rgb(254, 101, 0)" opacity="1.0"/>
    <path d="M 365.6048889160156 338.0456848144531 C 447.7198791503906 308.2878723144531 434.1851806640625 325.8142395019531 430.08819580078125 383.54791259765625 C 238.63499450683594 379.3851013183594 272.36517333984375 392.60986328125 184.3690948486328 272.1868591308594 C 246.98040771484375 244.6807098388672 273.6063537597656 259.0708923339844 312.0235900878906 239.69024658203125 C 293.4384765625 324.1197814941406 297.7848205566406 303.2947692871094 365.6048889160156 338.0456848144531" stroke-width="0.0" fill="rgb(0, 4, 0)" opacity="0.31129158"/>
    <path d="M 229.5745391845703 207.39654541015625 C 319.3943176269531 383.9681396484375 279.1445617675781 424.4295349121094 261.6056213378906 387.6492919921875 C 179.68679809570312 333.0282897949219 164.20172119140625 312.7166442871094 203.99005126953125 335.08087158203125 C 202.1870574951172 381.8665771484375 239.12184143066406 346.03155517578125 126.83130645751953 148.00778198242188 C 135.2373809814453 141.11236572265625 240.03341674804688 186.21878051757812 229.5745391845703 207.39654541015625" stroke-width="0.0" fill="rgb(254, 254, 248)" opacity="0.9986797"/>
    <path d="M 185.0879669189453 339.5926513671875 C 199.70555114746094 375.1885070800781 218.83631896972656 346.463623046875 134.49607849121094 308.74761962890625 C 66.62003326416016 307.4901428222656 85.50071716308594 418.1584777832031 23.72749137878418 316.62481689453125 C 137.46803283691406 275.52410888671875 8.818852424621582 290.6437683105469 133.24891662597656 251.18014526367188 C 178.08689880371094 249.99546813964844 154.5164794921875 281.3070068359375 185.0879669189453 339.5926513671875" stroke-width="0.0" fill="rgb(0, 4, 0)" opacity="1.0"/>
    <path d="M 616.8490600585938 359.9657897949219 C 613.7190551757812 455.91046142578125 587.509521484375 438.1316833496094 536.2039184570312 428.6109924316406 C 494.9449768066406 404.2575378417969 475.2791442871094 383.8216247558594 577.477294921875 387.3816223144531 C 521.2489013671875 405.2790222167969 482.1766052246094 327.059814453125 581.8087158203125 349.25286865234375 C 632.6632690429688 350.6862487792969 538.57275390625 353.7620849609375 616.8490600585938 359.9657897949219" stroke-width="0.0" fill="rgb(26, 11, 7)" opacity="0.92426026"/>
    <path d="M 326.0965881347656 430.2825012207031 C 262.56561279296875 455.39715576171875 229.16387939453125 446.9056701660156 141.8019561767578 449.7349853515625 C 38.24240493774414 450.08172607421875 -49.96417236328125 450.1463928222656 -21.627811431884766 451.47705078125 C 112.38482666015625 354.3477783203125 140.0824432373047 388.81671142578125 136.10263061523438 363.78997802734375 C 190.78147888183594 349.88531494140625 224.5407257080078 326.496826171875 326.0965881347656 430.2825012207031" stroke-width="0.0" fill="rgb(185, 110, 51)" opacity="0.9493649"/>
    <path d="M 691.117431640625 443.58990478515625 C 570.6657104492188 456.59649658203125 505.5984802246094 447.3818359375 470.0291748046875 453.9554443359375 C 480.5553894042969 446.35443115234375 406.73992919921875 453.3896789550781 232.9412841796875 449.3585205078125 C 339.9046936035156 321.8379821777344 486.9777526855469 410.8265380859375 477.1302185058594 388.4197692871094 C 527.365234375 396.3028869628906 650.8821411132812 368.5853271484375 691.117431640625 443.58990478515625" stroke-width="0.0" fill="rgb(177, 112, 55)" opacity="1.0"/>
    <path d="M 401.1938171386719 277.5089416503906 C 362.86822509765625 327.3377380371094 351.99969482421875 338.2677917480469 295.1811828613281 393.9335021972656 C 287.7106018066406 339.0139465332031 287.348388671875 297.707763671875 269.45391845703125 250.01504516601562 C 260.5947570800781 181.59129333496094 209.04931640625 157.01202392578125 298.5015869140625 128.0485382080078 C 365.4481201171875 187.89537048339844 389.435302734375 242.75885009765625 401.1938171386719 277.5089416503906" stroke-width="0.0" fill="rgb(255, 255, 242)" opacity="1.0"/>
    <path d="M 201.3531036376953 333.0022277832031 C 166.10243225097656 326.9790344238281 130.6446990966797 251.69578552246094 129.91856384277344 323.4139099121094 C 100.94371795654297 291.2267150878906 105.46076965332031 274.29388427734375 40.53306579589844 202.47750854492188 C 17.32449722290039 187.77032470703125 110.0169677734375 198.3306121826172 149.54257202148438 222.8478546142578 C 147.1316680908203 241.26084899902344 135.10633850097656 178.95382690429688 201.3531036376953 333.0022277832031" stroke-width="0.0" fill="rgb(253, 255, 241)" opacity="1.0"/>
    <path d="M 39.4224967956543 228.87062072753906 C -3.2022533416748047 217.5143280029297 -12.847001075744629 217.3543701171875 -61.04900360107422 228.00970458984375 C -20.834815979003906 261.1520690917969 -24.314119338989258 246.9993133544922 -1.5732831954956055 219.22125244140625 C -10.243500709533691 179.34701538085938 -19.91525650024414 150.25169372558594 34.76713943481445 144.79884338378906 C 41.35774612426758 145.03060913085938 32.896854400634766 190.3561553955078 39.4224967956543 228.87062072753906" stroke-width="0.0" fill="rgb(10, 37, 202)" opacity="0.47437814"/>
    <path d="M 353.6563415527344 400.3894348144531 C 313.0454406738281 371.5449523925781 337.1761474609375 396.7601623535156 269.19708251953125 379.5572814941406 C 246.1290740966797 400.9176025390625 233.14614868164062 399.46038818359375 139.92263793945312 379.99505615234375 C 223.75027465820312 363.83489990234375 221.239501953125 347.6793212890625 218.60411071777344 324.2353515625 C 284.77001953125 396.6329650878906 315.95050048828125 382.618896484375 353.6563415527344 400.3894348144531" stroke-width="0.0" fill="rgb(127, 125, 8)" opacity="0.6230237"/>
    <path d="M 224.15357971191406 341.2139892578125 C 207.8430938720703 424.05914306640625 198.36822509765625 398.1909484863281 124.84967041015625 390.9442138671875 C 63.77537155151367 399.8553161621094 -18.1151065826416 437.04681396484375 20.938926696777344 402.5299072265625 C 51.98474884033203 342.2364807128906 54.827972412109375 363.85205078125 134.96279907226562 364.84027099609375 C 180.06552124023438 362.5179748535156 218.09068298339844 339.7982482910156 224.15357971191406 341.2139892578125" stroke-width="0.0" fill="rgb(126, 13, 67)" opacity="0.25935045"/>
    <path d="M 5.965756893157959 -25.968952178955078 C 13.227568626403809 -5.688406944274902 7.085885047912598 2.6224796772003174 -8.554336547851562 -4.464104175567627 C -14.924125671386719 -0.8420222401618958 -18.917627334594727 5.332236289978027 -19.740039825439453 0.12575826048851013 C -16.982421875 -9.411691665649414 -9.661914825439453 -16.73219871520996 0.4028683602809906 -19.430208206176758 C 14.80246353149414 -19.136451721191406 25.885068893432617 -17.273025512695312 5.965756893157959 -25.968952178955078" stroke-width="0.0" fill="rgb(133, 106, 209)" opacity="0.45689893"/>
    <path d="M 84.27851867675781 374.7705078125 C 79.25675964355469 432.93438720703125 88.61527252197266 440.7704162597656 68.76013946533203 436.3897399902344 C 39.73087692260742 437.22601318359375 -29.73198699951172 460.5314636230469 -55.350868225097656 395.7356262207031 C 65.12696838378906 400.9280090332031 125.18077087402344 400.534912109375 141.121826171875 388.5752258300781 C 128.93630981445312 378.1260986328125 141.67701721191406 397.492431640625 84.27851867675781 374.7705078125" stroke-width="0.0" fill="rgb(180, 117, 55)" opacity="0.98243165"/>
    <path d="M 11.511065483093262 -7.752028465270996 C 7.490123271942139 -4.5448713302612305 -10.794986724853516 -4.032142162322998 -11.851308822631836 13.66728687286377 C -12.019783973693848 20.291475296020508 -17.963672637939453 11.17838191986084 -19.717044830322266 0.08903668820858002 C -17.01299285888672 -9.9420747756958 -9.692485809326172 -17.262582778930664 4.290517330169678 -24.41715431213379 C 3.114889621734619 -11.209005355834961 8.196426391601562 -1.6535558700561523 11.511065483093262 -7.752028465270996" stroke-width="0.0" fill="rgb(45, 175, 218)" opacity="0.8398856"/>
    <path d="M 7.612069606781006 -15.262670516967773 C 1.3960734605789185 -6.107578277587891 -4.768421173095703 2.328716278076172 -14.165040969848633 8.91519546508789 C -7.494129180908203 13.853774070739746 -16.44186782836914 10.003032684326172 -19.140310287475586 0.07065293192863464 C -16.46087074279785 -9.929142951965332 -9.140364646911621 -17.249649047851562 0.8595881462097168 -19.929134368896484 C 10.7965726852417 -17.232444763183594 12.67076587677002 -6.555479526519775 7.612069606781006 -15.262670516967773" stroke-width="0.0" fill="rgb(58, 133, 163)" opacity="0.7386663"/>
    <path d="M 99.57589721679688 359.1852722167969 C 130.92250061035156 388.3934326171875 99.38619995117188 391.9003601074219 122.1431884765625 397.94305419921875 C 97.8113784790039 407.3518981933594 53.41664505004883 395.4596862792969 103.7529525756836 384.056884765625 C 52.98276901245117 374.2630310058594 62.482173919677734 372.6988220214844 212.48143005371094 387.88751220703125 C 23.016279220581055 397.6955261230469 12.679823875427246 383.9023132324219 99.57589721679688 359.1852722167969" stroke-width="0.0" fill="rgb(209, 73, 102)" opacity="0.8418029"/>
    <path d="M 453.7616882324219 375.84869384765625 C 235.7801055908203 413.7660217285156 357.8792419433594 416.4954833984375 325.0821533203125 402.1247863769531 C 114.49919891357422 393.8576965332031 92.69363403320312 408.7038879394531 21.668933868408203 374.293212890625 C 169.67721557617188 338.9781188964844 217.93023681640625 347.11083984375 257.7659912109375 357.69390869140625 C 260.1921691894531 382.1463623046875 301.25836181640625 371.2712707519531 453.7616882324219 375.84869384765625" stroke-width="0.0" fill="rgb(183, 119, 47)" opacity="1.0"/>
    <path d="M 558.3973388671875 368.3980712890625 C 540.3095703125 378.8073425292969 520.2626342773438 383.4809265136719 567.6500854492188 393.83184814453125 C 581.7081298828125 370.3221740722656 607.8108520507812 385.0028991699219 511.1465148925781 385.2227783203125 C 521.7937622070312 353.43304443359375 541.1873779296875 334.930908203125 578.0416259765625 335.7212219238281 C 546.7890014648438 358.5860900878906 558.3095092773438 333.2884521484375 558.3973388671875 368.3980712890625" stroke-width="0.0" fill="rgb(48, 8, 4)" opacity="0.43090397"/>
    <path d="M 661.1239013671875 398.7987976074219 C 577.3455810546875 401.8871154785156 498.3741455078125 401.0094299316406 496.5335998535156 401.0353088378906 C 500.6254577636719 392.3429870605469 471.2678527832031 392.5766296386719 436.84814453125 391.24847412109375 C 435.7314453125 368.2507019042969 465.1800231933594 372.66607666015625 575.0076904296875 374.05517578125 C 644.91748046875 371.32476806640625 628.333984375 351.1044006347656 661.1239013671875 398.7987976074219" stroke-width="0.0" fill="rgb(157, 103, 33)" opacity="1.0"/>
    <path d="M 12.289321899414062 -8.100969314575195 C 15.215215682983398 18.060192108154297 19.342269897460938 22.158414840698242 -3.1133968830108643 22.892732620239258 C -7.630660057067871 15.082793235778809 -16.881881713867188 10.442232131958008 -19.576398849487305 0.4669747054576874 C -16.896928787231445 -9.532975196838379 -9.576421737670898 -16.853483200073242 0.45793071389198303 -19.543766021728516 C 12.69944953918457 -17.797182083129883 26.140987396240234 -16.016557693481445 12.289321899414062 -8.100969314575195" stroke-width="0.0" fill="rgb(113, 175, 0)" opacity="0.9062246"/>
    <path d="M 423.6232604980469 377.200927734375 C 428.0284729003906 386.1524963378906 449.04345703125 401.2195129394531 398.60186767578125 397.25787353515625 C 278.3520202636719 412.17034912109375 298.2288513183594 392.15521240234375 277.4171142578125 375.419921875 C 422.36785888671875 365.7099609375 436.4521179199219 376.7862243652344 436.2346496582031 376.1872253417969 C 427.0508728027344 366.72418212890625 425.365234375 387.5494689941406 423.6232604980469 377.200927734375" stroke-width="0.0" fill="rgb(153, 41, 1)" opacity="0.095317364"/>
    <path d="M 1.8780550956726074 -14.656679153442383 C -9.879861831665039 17.25685691833496 -3.390256404876709 25.97698211669922 -0.7816275954246521 20.665876388549805 C -15.169917106628418 17.33446502685547 -20.854150772094727 11.871720314025879 -19.412477493286133 -1.3860257863998413 C -17.09039306640625 -9.77978229522705 -9.769885063171387 -17.100290298461914 -1.1522223949432373 -20.95516586303711 C 8.069567680358887 -20.578468322753906 22.95226287841797 -19.017498016357422 1.8780550956726074 -14.656679153442383" stroke-width="0.0" fill="rgb(3, 111, 188)" opacity="0.7198765"/>
    <path d="M 485.3599548339844 392.1432189941406 C 470.8317565917969 406.89776611328125 457.6170959472656 410.3207092285156 405.0638427734375 394.8161315917969 C 381.3216552734375 396.28131103515625 331.9117126464844 407.05938720703125 305.32171630859375 384.31939697265625 C 449.1100769042969 395.7935791015625 436.9851989746094 383.1927795410156 427.6687316894531 373.5609130859375 C 463.7396545410156 361.26739501953125 447.640869140625 405.1539001464844 485.3599548339844 392.1432189941406" stroke-width="0.0" fill="rgb(153, 128, 65)" opacity="0.0"/>
    <path d="M 514.5675048828125 385.3031311035156 C 496.9170227050781 384.56024169921875 507.3468322753906 376.0157775878906 522.8796997070312 371.71197509765625 C 467.8684997558594 378.1361999511719 455.63946533203125 380.5858154296875 343.15130615234375 389.9942626953125 C 441.5134582519531 369.3950500488281 451.9853210449219 400.33966064453125 380.3479309082031 380.07110595703125 C 507.1802978515625 378.2867126464844 508.85284423828125 385.39984130859375 514.5675048828125 385.3031311035156" stroke-width="0.0" fill="rgb(195, 86, 33)" opacity="0.64594597"/>
    <path d="M 597.612548828125 246.53469848632812 C 511.959228515625 235.85775756835938 466.0147705078125 251.59498596191406 496.3954162597656 234.38522338867188 C 521.3575439453125 243.9187469482422 489.4761657714844 246.9443817138672 467.31585693359375 250.57872009277344 C 469.7745056152344 180.205322265625 474.80633544921875 170.4220428466797 464.9263610839844 170.33697509765625 C 528.8663940429688 166.19625854492188 588.3773193359375 150.98667907714844 597.612548828125 246.53469848632812" stroke-width="0.0" fill="rgb(12, 34, 184)" opacity="1.0"/>
    <path d="M 47.77825164794922 391.3356018066406 C 155.05287170410156 403.1696472167969 162.15541076660156 409.58856201171875 45.771148681640625 397.6331787109375 C 101.89319610595703 365.3865966796875 110.85565185546875 381.8435363769531 36.23596954345703 358.9836120605469 C 102.24076843261719 383.9939880371094 102.28848266601562 386.5119323730469 82.29574584960938 398.54052734375 C 27.354114532470703 405.869873046875 36.22541427612305 408.78265380859375 47.77825164794922 391.3356018066406" stroke-width="0.0" fill="rgb(230, 49, 82)" opacity="0.23897623"/>
    <path d="M 431.3794860839844 398.0948791503906 C 430.525146484375 403.1263122558594 436.7811279296875 377.4825439453125 482.9690856933594 399.4806213378906 C 450.7029724121094 393.8160705566406 422.0538024902344 385.6653747558594 262.7314758300781 387.8758544921875 C 330.26702880859375 360.216796875 410.7478332519531 401.8846740722656 455.4873046875 376.848388671875 C 386.95538330078125 367.4331359863281 413.4255065917969 379.5007019042969 431.3794860839844 398.0948791503906" stroke-width="0.0" fill="rgb(182, 128, 12)" opacity="0.6908976"/>
    <path d="M 255.80738830566406 355.7764892578125 C 171.25950622558594 333.43603515625 133.96133422851562 340.03753662109375 125.72712707519531 344.7543640136719 C 151.3788604736328 367.01495361328125 119.39186096191406 350.9498596191406 41.31780242919922 364.10455322265625 C 129.75746154785156 384.37054443359375 163.0943603515625 405.0930480957031 155.30215454101562 379.24957275390625 C 112.5238037109375 352.8982238769531 140.40655517578125 370.8012390136719 255.80738830566406 355.7764892578125" stroke-width="0.0" fill="rgb(174, 128, 3)" opacity="0.18603289"/>
    <path d="M 11.453974723815918 -14.091442108154297 C 26.607383728027344 8.19659423828125 15.63771915435791 5.010972499847412 -3.2909927368164062 4.242705345153809 C -16.81184196472168 13.253713607788086 -21.91073226928711 6.993346214294434 -20.904037475585938 -1.157835841178894 C -16.5914306640625 -9.326635360717773 -9.27092456817627 -16.64714241027832 0.742128312587738 -19.317720413208008 C 11.10208511352539 -16.361690521240234 18.704801559448242 -8.868372917175293 11.453974723815918 -14.091442108154297" stroke-width="0.0" fill="rgb(136, 46, 200)" opacity="0.62988317"/>
    <path d="M 272.4673156738281 374.0463562011719 C 272.331298828125 392.263427734375 285.54852294921875 364.29437255859375 235.0452117919922 346.468017578125 C 235.02621459960938 361.8761291503906 241.12876892089844 373.00750732421875 251.3931427001953 376.7749938964844 C 231.7105255126953 331.917724609375 249.0552215576172 346.013916015625 255.61334228515625 341.0846252441406 C 217.8769073486328 347.8497619628906 225.0974884033203 356.6458740234375 272.4673156738281 374.0463562011719" stroke-width="0.0" fill="rgb(164, 135, 41)" opacity="0.18846205"/>
    <path d="M 2.6423778533935547 -16.81160545349121 C 0.18192125856876373 -6.870418071746826 -7.442681312561035 0.7431287169456482 -16.522390365600586 5.188178062438965 C -1.3929160833358765 10.460786819458008 -10.994269371032715 4.206995010375977 -18.962488174438477 0.42818933725357056 C -16.44249725341797 -9.053050994873047 -9.121990203857422 -16.373558044433594 0.8307257294654846 -19.039100646972656 C 8.117667198181152 -15.154083251953125 11.373674392700195 -3.3326563835144043 2.6423778533935547 -16.81160545349121" stroke-width="0.0" fill="rgb(106, 137, 201)" opacity="0.6306397"/>
    <path d="M 254.9558868408203 343.0127868652344 C 238.4910430908203 307.484130859375 213.88766479492188 297.4468994140625 209.38279724121094 349.5835266113281 C 226.12225341796875 352.539794921875 208.0631866455078 320.2864990234375 201.34950256347656 301.5171203613281 C 197.26071166992188 284.3525695800781 171.2838592529297 271.032470703125 236.6831817626953 275.1009521484375 C 269.8200988769531 278.07037353515625 270.0206604003906 293.1215515136719 254.9558868408203 343.0127868652344" stroke-width="0.0" fill="rgb(255, 255, 246)" opacity="0.78812146"/>
    <path d="M 12.064031600952148 -11.955714225769043 C 6.5802130699157715 21.366920471191406 15.212519645690918 8.622003555297852 10.235671997070312 -19.769729614257812 C -8.390881538391113 25.939167022705078 -15.760757446289062 13.282888412475586 -18.195980072021484 2.6321465969085693 C -16.781211853027344 -9.270069122314453 -9.46070384979248 -16.590576171875 9.344189643859863 -34.84756088256836 C 17.841320037841797 -24.653392791748047 23.13970947265625 -18.08673667907715 12.064031600952148 -11.955714225769043" stroke-width="0.0" fill="rgb(35, 59, 76)" opacity="0.5886105"/>
    <path d="M 93.76774597167969 360.4434814453125 C 84.66009521484375 407.713134765625 106.19309997558594 393.38592529296875 26.728107452392578 393.201171875 C 25.26921844482422 370.9551696777344 24.787639617919922 368.035400390625 70.96443939208984 383.9997253417969 C 37.114295959472656 413.5426025390625 38.39323806762695 367.023193359375 29.299972534179688 329.65435791015625 C 172.86001586914062 314.45361328125 153.82791137695312 341.0069274902344 93.76774597167969 360.4434814453125" stroke-width="0.0" fill="rgb(220, 114, 22)" opacity="1.0"/>
    <path d="M 7.336240768432617 -16.62367820739746 C 5.712299823760986 -4.216733932495117 -1.9309368133544922 -0.18359337747097015 -18.460416793823242 1.3969343900680542 C -9.878995895385742 17.545204162597656 -17.19950294494629 10.22469711303711 -19.878995895385742 0.22469733655452728 C -17.19950294494629 -9.77530288696289 -9.878995895385742 -17.095809936523438 0.12100419402122498 -19.77530288696289 C 10.121004104614258 -17.095809936523438 17.441511154174805 -9.77530288696289 7.336240768432617 -16.62367820739746" stroke-width="0.0" fill="rgb(90, 169, 151)" opacity="0.8131145"/>
    <path d="M 2.5564327239990234 -14.574502944946289 C 0.8452069163322449 -2.265359878540039 -4.8259077072143555 3.8720340728759766 -3.676832675933838 27.150733947753906 C -33.05426025390625 27.792631149291992 -24.66798210144043 15.05180835723877 -20.015047073364258 -3.0801584720611572 C -17.223575592041016 -9.568948745727539 -9.903069496154785 -16.889455795288086 1.9117733240127563 -20.320405960083008 C 17.083263397216797 -22.36822509765625 25.937294006347656 -17.302701950073242 2.5564327239990234 -14.574502944946289" stroke-width="0.0" fill="rgb(59, 81, 130)" opacity="0.8855076"/>
    <path d="M -6.984679698944092 11.682893753051758 C -0.1828571856021881 12.729580879211426 -9.253592491149902 11.887784957885742 -20.792510986328125 17.973796844482422 C -18.896944046020508 25.89599609375 -25.97115135192871 18.73531723022461 -22.68186378479004 3.0753402709960938 C -17.234853744506836 -9.514009475708008 -9.914346694946289 -16.834516525268555 6.902117729187012 -26.291475296020508 C 15.12304973602295 -28.688732147216797 8.173592567443848 -18.43814468383789 -6.984679698944092 11.682893753051758" stroke-width="0.0" fill="rgb(110, 50, 106)" opacity="0.44694906"/>
    <path d="M 10.964683532714844 27.05015754699707 C 19.266584396362305 13.663612365722656 12.728371620178223 22.817691802978516 -0.055438876152038574 44.71162033081055 C -1.6442354917526245 -26.26194190979004 -11.551689147949219 -34.23814010620117 -24.626222610473633 -22.6018009185791 C -16.541879653930664 -9.469646453857422 -9.221373558044434 -16.79015350341797 -19.16932487487793 -3.8749916553497314 C -20.73221206665039 7.854531764984131 -17.900394439697266 20.778148651123047 10.964683532714844 27.05015754699707" stroke-width="0.0" fill="rgb(81, 6, 187)" opacity="0.4505879"/>
    <path d="M 5.677915573120117 -13.460976600646973 C -1.6855076551437378 -7.070007801055908 -6.630035400390625 -0.7728642225265503 -11.603110313415527 12.295744895935059 C -15.329435348510742 9.523780822753906 -19.753055572509766 4.249380588531494 -19.502225875854492 -1.1771880388259888 C -16.638795852661133 -9.463029861450195 -9.318289756774902 -16.783536911010742 -0.474869966506958 -20.743982315063477 C 3.5780603885650635 -12.73945426940918 7.3541059494018555 1.0742214918136597 5.677915573120117 -13.460976600646973" stroke-width="0.0" fill="rgb(137, 99, 158)" opacity="0.4814858"/>
    <path d="M 3.51564359664917 -13.809754371643066 C -1.8530452251434326 -2.826371908187866 -5.020822525024414 3.608649253845215 -15.04313850402832 16.039264678955078 C -15.250297546386719 21.753023147583008 -21.214311599731445 12.94140625 -22.53776741027832 2.716356039047241 C -17.082502365112305 -9.331022262573242 -9.761995315551758 -16.65152931213379 3.50339937210083 -22.925804138183594 C 13.113490104675293 -19.698991775512695 22.627038955688477 -13.923898696899414 3.51564359664917 -13.809754371643066" stroke-width="0.0" fill="rgb(11, 79, 159)" opacity="0.7425597"/>
    <path d="M 14.051043510437012 -14.309122085571289 C 10.420883178710938 -1.4994785785675049 -10.658370018005371 -2.079303026199341 -22.300437927246094 2.419283390045166 C -4.336082935333252 11.25937271118164 -16.61431884765625 10.038243293762207 -19.52638053894043 0.7812351584434509 C -16.847835540771484 -9.215380668640137 -9.527328491210938 -16.535886764526367 6.936838626861572 -24.428054809570312 C 19.354095458984375 -23.599294662475586 24.395692825317383 -12.4669771194458 14.051043510437012 -14.309122085571289" stroke-width="0.0" fill="rgb(218, 110, 159)" opacity="0.5825211"/>
    <path d="M 277.18853759765625 368.31658935546875 C 262.20318603515625 360.8088073730469 250.5741729736328 374.56585693359375 193.13621520996094 349.8204345703125 C 183.62896728515625 368.48333740234375 224.06161499023438 355.30999755859375 92.6402359008789 361.7314453125 C 125.01273345947266 264.24920654296875 173.88514709472656 330.4246520996094 199.7942657470703 347.7042236328125 C 223.5297088623047 338.0727844238281 241.0406036376953 336.10321044921875 277.18853759765625 368.31658935546875" stroke-width="0.0" fill="rgb(190, 125, 26)" opacity="0.96109676"/>
    <path d="M 302.5091247558594 398.4756774902344 C 560.026123046875 404.5154113769531 520.2638549804688 388.0328369140625 447.46014404296875 390.44305419921875 C 279.2157287597656 397.14642333984375 300.1737976074219 385.29656982421875 302.930908203125 398.9569091796875 C 312.21435546875 398.31805419921875 317.1461181640625 385.3664245605469 307.4288024902344 384.14410400390625 C 303.3009338378906 382.9435119628906 294.83984375 358.6558837890625 302.5091247558594 398.4756774902344" stroke-width="0.0" fill="rgb(0, 0, 54)" opacity="1.0"/>
    <path d="M 407.0774230957031 305.76312255859375 C 430.18853759765625 316.46502685546875 467.62640380859375 351.6084289550781 407.33538818359375 320.7826843261719 C 374.4481506347656 323.6817932128906 371.13970947265625 317.5301208496094 393.68194580078125 291.0796203613281 C 398.2572937011719 271.3162841796875 402.2030334472656 291.2325744628906 392.2469787597656 293.3382873535156 C 396.0386657714844 274.5574035644531 405.1133728027344 293.1639099121094 407.0774230957031 305.76312255859375" stroke-width="0.0" fill="rgb(122, 89, 12)" opacity="0.36199504"/>
    <path d="M 11.05754566192627 -8.602518081665039 C 6.095116138458252 -1.1377252340316772 -6.165701866149902 0.8166566491127014 -18.982316970825195 1.7849164009094238 C -6.949453830718994 13.04409408569336 -17.248334884643555 10.749545097351074 -19.930788040161133 0.7606006264686584 C -17.25129508972168 -9.239398002624512 -9.930787086486816 -16.559904098510742 0.18982930481433868 -19.25076675415039 C 15.339883804321289 -17.807165145874023 25.98610496520996 -18.587799072265625 11.05754566192627 -8.602518081665039" stroke-width="0.0" fill="rgb(69, 133, 20)" opacity="0.9136375"/>
    <path d="M 282.0331726074219 377.7380065917969 C 257.99493408203125 308.1573486328125 279.49078369140625 333.0169982910156 241.653076171875 319.32501220703125 C 234.7312469482422 315.3818359375 216.81451416015625 311.0603942871094 218.88037109375 306.6248474121094 C 222.26730346679688 353.5485534667969 255.2193145751953 325.3237609863281 224.0618438720703 319.24725341796875 C 217.34683227539062 358.02825927734375 215.0167694091797 340.12359619140625 282.0331726074219 377.7380065917969" stroke-width="0.0" fill="rgb(0, 0, 12)" opacity="1.0"/>
    <path d="M 24.44700813293457 -9.201138496398926 C 6.174626350402832 -7.06132698059082 -12.302767753601074 -0.43010613322257996 -12.137777328491211 8.598196983337402 C -19.233686447143555 19.609066009521484 -18.821533203125 11.157249450683594 -19.822465896606445 0.3413924276828766 C -17.119356155395508 -9.688283920288086 -9.798849105834961 -17.008790969848633 0.32419270277023315 -19.895055770874023 C 14.453919410705566 -21.77875328063965 22.427595138549805 -14.536857604980469 24.44700813293457 -9.201138496398926" stroke-width="0.0" fill="rgb(62, 108, 98)" opacity="0.6035654"/>
    <path d="M 3.258610486984253 -19.434825897216797 C 0.5592403411865234 -2.0569519996643066 -3.173603057861328 6.905174255371094 -18.961767196655273 11.034147262573242 C -17.910120010375977 26.312681198120117 -20.184024810791016 15.896574020385742 -19.74907684326172 0.6981455087661743 C -17.053682327270508 -9.359038352966309 -9.733175277709961 -16.67954444885254 4.027881622314453 -21.857023239135742 C 17.158720016479492 -23.41332244873047 24.913606643676758 -16.588634490966797 3.258610486984253 -19.434825897216797" stroke-width="0.0" fill="rgb(75, 154, 249)" opacity="0.7845745"/>
    <path d="M 493.9064636230469 393.8880310058594 C 484.4892578125 384.6483154296875 460.1005554199219 391.409423828125 466.8560791015625 376.516357421875 C 459.17633056640625 377.9506530761719 434.03741455078125 395.91632080078125 412.7918395996094 383.5474548339844 C 443.4143981933594 363.7409973144531 479.6475830078125 392.15081787109375 448.8118896484375 378.3323059082031 C 477.5928649902344 370.3182373046875 496.23388671875 367.6506652832031 493.9064636230469 393.8880310058594" stroke-width="0.0" fill="rgb(191, 111, 1)" opacity="0.7907545"/>
    <path d="M 2.4574387073516846 -17.440135955810547 C -1.8628437519073486 -6.50300407409668 -5.342134475708008 10.074796676635742 -5.329336643218994 20.1970157623291 C -8.971611022949219 15.288301467895508 -17.1021785736084 10.117321014404297 -19.78575897216797 0.13228929042816162 C -17.10626983642578 -9.867688179016113 -9.785762786865234 -17.188194274902344 0.21423503756523132 -19.867687225341797 C 10.212512016296387 -17.18773078918457 17.03218650817871 -9.720755577087402 2.4574387073516846 -17.440135955810547" stroke-width="0.0" fill="rgb(138, 2, 175)" opacity="0.86514044"/>
    <path d="M 16.95525360107422 -6.821925640106201 C 16.406946182250977 -2.151110887527466 15.864076614379883 -0.14778687059879303 -2.27679443359375 -5.474053859710693 C -9.570313453674316 18.82480812072754 -16.46717071533203 10.27736759185791 -19.13838005065918 0.24885126948356628 C -16.458833694458008 -9.751343727111816 -9.138327598571777 -17.071849822998047 -0.44324788451194763 -19.043899536132812 C 7.117733001708984 -13.91614818572998 13.683747291564941 -5.78134298324585 16.95525360107422 -6.821925640106201" stroke-width="0.0" fill="rgb(17, 152, 90)" opacity="0.6821736"/>
    <path d="M 30.708744049072266 404.3211669921875 C 28.043649673461914 380.283935546875 36.15159225463867 395.2710876464844 30.017810821533203 393.4320068359375 C 19.981754302978516 394.5832824707031 0.8171912431716919 384.63555908203125 38.998104095458984 396.14593505859375 C -2.1292216777801514 395.5513916015625 0.24297180771827698 389.3121643066406 -1.8903549909591675 373.03424072265625 C 16.872913360595703 368.97222900390625 50.83906936645508 379.07464599609375 30.708744049072266 404.3211669921875" stroke-width="0.0" fill="rgb(48, 33, 174)" opacity="0.47180027"/>
    <path d="M 80.90531158447266 336.7563171386719 C 104.75630950927734 358.1812744140625 137.89585876464844 395.9379577636719 133.18994140625 373.9039001464844 C 97.9721908569336 336.9686279296875 69.81629943847656 333.9556579589844 80.13636779785156 356.186279296875 C 103.49972534179688 363.3124694824219 93.69648742675781 336.6931457519531 90.43930053710938 339.5104675292969 C 84.59774780273438 336.5141296386719 106.05870819091797 346.0410461425781 80.90531158447266 336.7563171386719" stroke-width="0.0" fill="rgb(217, 88, 92)" opacity="0.14352964"/>
    <path d="M -7.770511150360107 5.684972763061523 C 9.939464569091797 -6.21676778793335 6.257169723510742 -6.487936973571777 -16.050199508666992 5.278468608856201 C -15.707871437072754 29.490795135498047 -20.810117721557617 22.593603134155273 -19.576126098632812 4.803072452545166 C -16.336341857910156 -9.901581764221191 -9.01583480834961 -17.222089767456055 -6.794814586639404 -25.721860885620117 C -6.0758056640625 -38.19895553588867 -6.940048694610596 -50.116233825683594 -7.770511150360107 5.684972763061523" stroke-width="0.0" fill="rgb(63, 61, 212)" opacity="0.41134495"/>
    <path d="M 145.08547973632812 409.46380615234375 C 152.2561798095703 404.615478515625 154.37738037109375 390.6239013671875 167.77088928222656 403.1513977050781 C 114.1495132446289 411.37359619140625 107.830810546875 414.2833251953125 90.7105484008789 417.02825927734375 C 107.98268127441406 379.10247802734375 64.85778045654297 374.5969543457031 119.19630432128906 391.61944580078125 C 170.7496337890625 393.9085998535156 152.31289672851562 383.6153564453125 145.08547973632812 409.46380615234375" stroke-width="0.0" fill="rgb(170, 134, 12)" opacity="0.22844061"/>
    <path d="M 200.29727172851562 346.2554931640625 C 124.52312469482422 302.5634460449219 134.1276397705078 315.81689453125 125.343505859375 313.3502197265625 C 135.12643432617188 279.8836669921875 126.24223327636719 284.3877868652344 157.16470336914062 297.1506042480469 C 143.25547790527344 304.30810546875 150.7160186767578 299.5566101074219 151.8390350341797 295.9359436035156 C 196.70623779296875 306.7069091796875 164.09506225585938 289.0196228027344 200.29727172851562 346.2554931640625" stroke-width="0.0" fill="rgb(0, 1, 8)" opacity="1.0"/>
    <path d="M 84.16631317138672 398.2073059082031 C 102.46507263183594 387.3276672363281 88.43437194824219 402.57208251953125 109.48750305175781 418.1278076171875 C 113.52859497070312 392.3212890625 114.72697448730469 369.62823486328125 80.8299789428711 358.3978576660156 C 102.24249267578125 400.7148742675781 99.93297576904297 363.408203125 65.05228424072266 343.95953369140625 C 66.22142028808594 332.9527587890625 80.13352966308594 410.701904296875 84.16631317138672 398.2073059082031" stroke-width="0.0" fill="rgb(164, 136, 23)" opacity="0.13873518"/>
    <path d="M 362.8224182128906 334.8724670410156 C 355.82073974609375 359.0428161621094 392.7954406738281 317.71978759765625 388.44659423828125 298.2535400390625 C 368.6498718261719 322.02099609375 355.7296447753906 321.9711608886719 351.83697509765625 350.44561767578125 C 371.9257507324219 317.0517578125 388.8569641113281 311.8331604003906 398.46673583984375 315.19580078125 C 412.559326171875 289.8506164550781 402.7800598144531 290.53155517578125 362.8224182128906 334.8724670410156" stroke-width="0.0" fill="rgb(43, 14, 80)" opacity="0.7858424"/>
    <path d="M 392.3927917480469 349.4584655761719 C 413.3635559082031 318.246826171875 411.90411376953125 315.33685302734375 418.4580078125 303.7955017089844 C 416.9850158691406 320.9059143066406 403.4891662597656 341.7031555175781 430.93212890625 347.3061828613281 C 446.2967224121094 340.0353698730469 406.5104064941406 288.1230773925781 393.19287109375 294.1408996582031 C 395.1148681640625 335.38140869140625 402.5721740722656 339.3109436035156 392.3927917480469 349.4584655761719" stroke-width="0.0" fill="rgb(27, 20, 23)" opacity="0.8659987"/>
    <path d="M 156.33518981933594 220.55947875976562 C 144.6949005126953 208.63668823242188 138.24801635742188 243.57737731933594 129.4393310546875 288.41943359375 C 149.83865356445312 252.22732543945312 147.8490447998047 222.0146026611328 155.68997192382812 231.34913635253906 C 169.8457794189453 276.0664367675781 176.1472625732422 253.90309143066406 158.22898864746094 220.1009063720703 C 154.2123565673828 207.25347900390625 151.55264282226562 219.78392028808594 156.33518981933594 220.55947875976562" stroke-width="0.0" fill="rgb(15, 24, 0)" opacity="0.6348561"/>
    <path d="M 77.31062316894531 281.33221435546875 C 70.99036407470703 279.8426208496094 71.7128677368164 306.6420593261719 48.30019760131836 302.9141845703125 C 8.68299674987793 324.1112365722656 7.063767910003662 321.4819030761719 57.8790168762207 316.5582580566406 C 23.739904403686523 322.35589599609375 51.80354309082031 314.5317077636719 70.08232116699219 283.49322509765625 C 67.27787017822266 286.92010498046875 70.07814025878906 297.0858154296875 77.31062316894531 281.33221435546875" stroke-width="0.0" fill="rgb(157, 155, 43)" opacity="0.6941649"/>
    <path d="M 12.737680435180664 -11.728510856628418 C 22.050508499145508 -4.145543575286865 31.611614227294922 4.503483295440674 27.292112350463867 -18.507883071899414 C -19.14971160888672 5.195223331451416 -21.302000045776367 -2.9241015911102295 -19.06357192993164 -10.980713844299316 C -17.208955764770508 -9.565235137939453 -9.888447761535645 -16.8857421875 0.6630722284317017 -20.340696334838867 C 14.722308158874512 -22.179136276245117 22.31264305114746 -15.078453063964844 12.737680435180664 -11.728510856628418" stroke-width="0.0" fill="rgb(5, 86, 53)" opacity="0.094546385"/>
    <path d="M 6.604468822479248 -14.509465217590332 C -0.2907453775405884 -10.164703369140625 -7.313826560974121 -4.190537929534912 -8.900157928466797 10.810065269470215 C -7.861473560333252 10.91978931427002 -15.899827003479004 5.078436374664307 -18.667070388793945 -0.68198561668396 C -16.866783142089844 -9.046184539794922 -9.546276092529297 -16.36669158935547 0.23104284703731537 -18.829051971435547 C 4.245997905731201 -10.33475112915039 7.0550618171691895 0.16594868898391724 6.604468822479248 -14.509465217590332" stroke-width="0.0" fill="rgb(126, 72, 91)" opacity="0.5675592"/>
    <path d="M 0.03926976025104523 -21.319583892822266 C 4.035571098327637 0.5887981653213501 -17.49342918395996 0.9825688004493713 -14.253162384033203 8.46119499206543 C -14.2337007522583 23.334243774414062 -27.07931137084961 21.382078170776367 -30.706090927124023 12.94836139678955 C -16.44465446472168 -9.736611366271973 -9.124147415161133 -17.057117462158203 6.232400417327881 -21.581317901611328 C 15.031158447265625 -26.657007217407227 17.819686889648438 -24.57123565673828 0.03926976025104523 -21.319583892822266" stroke-width="0.0" fill="rgb(229, 117, 117)" opacity="0.8923101"/>
    <path d="M 14.068999290466309 -16.77914047241211 C 2.659393072128296 -12.64980697631836 -3.8387022018432617 -3.4180333614349365 -5.466159820556641 18.71584701538086 C -14.263092041015625 15.779809951782227 -17.946271896362305 7.378846168518066 -20.823854446411133 -2.868000030517578 C -16.554672241210938 -9.87160873413086 -9.23416519165039 -17.192115783691406 0.7657674551010132 -19.871597290039062 C 10.712876319885254 -17.17760467529297 13.762709617614746 -7.579775810241699 14.068999290466309 -16.77914047241211" stroke-width="0.0" fill="rgb(0, 152, 93)" opacity="0.7999121"/>
    <path d="M 12.033926010131836 -19.09160804748535 C 10.275927543640137 -3.7204105854034424 3.5823862552642822 5.991270065307617 10.103208541870117 -11.477449417114258 C -7.805159091949463 -6.729490756988525 -20.28087043762207 -3.1538925170898438 -21.930130004882812 -4.819513320922852 C -16.845224380493164 -9.450196266174316 -9.524717330932617 -16.77070426940918 12.884623527526855 -31.15993881225586 C 24.41878318786621 -32.93001937866211 31.18840789794922 -26.90509796142578 12.033926010131836 -19.09160804748535" stroke-width="0.0" fill="rgb(101, 143, 187)" opacity="0.68511194"/>
    <path d="M 6.085135459899902 -12.403017044067383 C 3.4085428714752197 -3.0044443607330322 -4.019437313079834 5.20866060256958 -13.813676834106445 7.512994766235352 C -9.980523109436035 18.249605178833008 -17.3010311126709 10.929098129272461 -19.98052406311035 0.9290986061096191 C -17.3010311126709 -9.070901870727539 -9.980523109436035 -16.391408920288086 0.1246582493185997 -19.109901428222656 C 13.833330154418945 -18.716350555419922 23.933671951293945 -15.446219444274902 6.085135459899902 -12.403017044067383" stroke-width="0.0" fill="rgb(44, 70, 222)" opacity="0.7742283"/>
    <path d="M 2.9239184856414795 -6.388999938964844 C -4.272210597991943 -6.9033026695251465 -3.02296781539917 10.400697708129883 -7.729559421539307 15.356195449829102 C -17.18536949157715 25.097997665405273 -21.088361740112305 15.73966121673584 -19.795791625976562 0.3342929184436798 C -17.249513626098633 -9.368897438049316 -9.929006576538086 -16.689403533935547 -1.9738585948944092 -19.52035140991211 C 5.784294605255127 -15.706960678100586 9.572737693786621 -5.051560878753662 2.9239184856414795 -6.388999938964844" stroke-width="0.0" fill="rgb(10, 215, 109)" opacity="0.66804105"/>
    <path d="M 26.023420333862305 -13.853612899780273 C 19.573209762573242 -2.3030283451080322 -0.5746780037879944 1.5065875053405762 -22.198139190673828 -0.19009505212306976 C -26.131540298461914 34.88752365112305 -32.232948303222656 26.629610061645508 -26.598867416381836 12.479584693908691 C -17.022062301635742 -9.361050605773926 -9.701555252075195 -16.681556701660156 8.039142608642578 -26.328065872192383 C 17.40744400024414 -23.530414581298828 23.12779998779297 -16.666484832763672 26.023420333862305 -13.853612899780273" stroke-width="0.0" fill="rgb(40, 111, 87)" opacity="0.65445447"/>
    <path d="M 310.84381103515625 382.0121154785156 C 327.87603759765625 367.29071044921875 317.2536926269531 370.2578125 318.224853515625 401.54229736328125 C 258.0819396972656 404.7183532714844 279.5044860839844 396.40118408203125 282.32708740234375 411.1801452636719 C 262.5184631347656 396.862548828125 254.5611114501953 363.7791748046875 313.524658203125 376.7748107910156 C 314.4783630371094 412.9491271972656 322.8561096191406 418.6052551269531 310.84381103515625 382.0121154785156" stroke-width="0.0" fill="rgb(155, 125, 21)" opacity="1.0"/>
    <path d="M -2.830399751663208 4.277256011962891 C 5.976419448852539 -5.8405680656433105 -16.323753356933594 20.754764556884766 -15.485145568847656 21.772296905517578 C -17.202423095703125 24.61653709411621 -29.244853973388672 22.773662567138672 -27.84173583984375 8.509242057800293 C -16.513010025024414 -9.809590339660645 -9.192502975463867 -17.130096435546875 -3.1845266819000244 -11.535317420959473 C -2.831458568572998 1.781083345413208 -11.68603801727295 21.0214786529541 -2.830399751663208 4.277256011962891" stroke-width="0.0" fill="rgb(17, 98, 64)" opacity="0.6503133"/>
    <path d="M 21.015172958374023 2.3705568313598633 C 12.96019458770752 14.785070419311523 16.268596649169922 0.13978083431720734 3.25793719291687 -13.225072860717773 C -14.738516807556152 22.702892303466797 -17.05862808227539 10.722681999206543 -19.499805450439453 0.17958638072013855 C -16.819921493530273 -9.821348190307617 -9.49941349029541 -17.141855239868164 -1.800262451171875 -27.007080078125 C 9.369699478149414 -21.25300407409668 12.113726615905762 -15.52210807800293 21.015172958374023 2.3705568313598633" stroke-width="0.0" fill="rgb(142, 12, 125)" opacity="0.7675871"/>
    <path d="M 349.499755859375 260.44610595703125 C 350.32440185546875 310.9033508300781 340.60711669921875 334.18603515625 330.7398681640625 344.558349609375 C 349.25518798828125 322.989990234375 359.2225646972656 315.83984375 397.56884765625 309.0317687988281 C 376.07928466796875 315.4623107910156 368.20159912109375 335.3644104003906 401.5862121582031 356.4327697753906 C 385.6018981933594 351.9450988769531 394.0970153808594 330.6785583496094 349.499755859375 260.44610595703125" stroke-width="0.0" fill="rgb(239, 254, 252)" opacity="0.078979164"/>
    <path d="M 25.43085479736328 1.8228074312210083 C 34.95420455932617 23.506450653076172 16.97781753540039 33.559993743896484 -5.949873924255371 21.453245162963867 C -1.3262461423873901 9.488971710205078 -16.870882034301758 6.9414849281311035 -25.988191604614258 0.5318952202796936 C -16.32535743713379 -9.35012149810791 -9.004850387573242 -16.670629501342773 -31.199527740478516 -1.3426874876022339 C -25.767906188964844 -4.784167289733887 6.0916218757629395 -1.7518620491027832 25.43085479736328 1.8228074312210083" stroke-width="0.0" fill="rgb(9, 47, 104)" opacity="0.44170144"/>
    <path d="M 432.985595703125 374.8115539550781 C 467.5908508300781 354.4837646484375 406.90069580078125 324.3089904785156 398.4759216308594 368.833984375 C 344.4954528808594 384.8121337890625 315.5760803222656 364.42352294921875 356.4474792480469 329.182861328125 C 418.81646728515625 318.9762878417969 442.570556640625 328.5355224609375 421.0502624511719 320.1734313964844 C 385.482666015625 346.4848327636719 379.5740966796875 383.39617919921875 432.985595703125 374.8115539550781" stroke-width="0.0" fill="rgb(0, 0, 17)" opacity="0.93040645"/>
    <path d="M 1.5786538124084473 -17.662771224975586 C -1.5869511365890503 -7.336678981781006 -3.4251182079315186 7.003894329071045 -10.097875595092773 12.118559837341309 C -12.562275886535645 19.610401153564453 -15.388622283935547 7.3126678466796875 -18.84197998046875 0.4103895425796509 C -16.44178581237793 -9.1683349609375 -9.121277809143066 -16.488842010498047 0.7887094020843506 -19.15119171142578 C 7.281322956085205 -15.126619338989258 11.83824348449707 -3.547443389892578 1.5786538124084473 -17.662771224975586" stroke-width="0.0" fill="rgb(217, 36, 167)" opacity="0.79027414"/>
    <path d="M 10.232450485229492 -20.813617706298828 C 0.7317007780075073 -7.590473175048828 1.2696857452392578 2.0594542026519775 -18.74736213684082 5.457579612731934 C -4.485646724700928 13.02783203125 -11.473841667175293 4.215944766998291 -18.34969711303711 -2.0150146484375 C -16.917884826660156 -9.660696983337402 -9.597378730773926 -16.981204986572266 0.412230521440506 -19.663362503051758 C 12.551891326904297 -17.798425674438477 25.701948165893555 -16.932260513305664 10.232450485229492 -20.813617706298828" stroke-width="0.0" fill="rgb(56, 71, 119)" opacity="0.84008974"/>
    <path d="M 111.90607452392578 329.1362609863281 C 56.89462661743164 335.228759765625 35.81633377075195 323.5638732910156 42.86602783203125 371.22406005859375 C 102.8403091430664 358.84246826171875 97.01115417480469 341.1174621582031 55.81093978881836 341.505859375 C 65.81016540527344 343.25738525390625 79.18590545654297 345.473876953125 65.17981719970703 359.2951354980469 C 79.91495513916016 372.2098083496094 104.37215423583984 377.2313232421875 111.90607452392578 329.1362609863281" stroke-width="0.0" fill="rgb(191, 133, 0)" opacity="0.5432946"/>
    <path d="M 17.706035614013672 -18.657079696655273 C 24.64317512512207 23.2536678314209 17.698896408081055 26.305017471313477 3.444795846939087 31.814342498779297 C -28.974815368652344 34.69145202636719 -36.0364990234375 30.618375778198242 -26.244571685791016 17.332530975341797 C -16.384992599487305 -9.428956985473633 -9.064485549926758 -16.74946403503418 4.2776713371276855 -25.202035903930664 C 11.857077598571777 -18.63178062438965 18.255861282348633 -8.413558959960938 17.706035614013672 -18.657079696655273" stroke-width="0.0" fill="rgb(12, 82, 144)" opacity="0.4822647"/>
    <path d="M 345.4725341796875 401.90142822265625 C 356.2306213378906 435.0777282714844 350.38543701171875 421.3197021484375 322.745361328125 428.7264404296875 C 322.27044677734375 454.80572509765625 325.4269714355469 438.78466796875 317.26861572265625 401.90850830078125 C 305.94854736328125 406.1295471191406 271.8349609375 411.2223205566406 286.5510559082031 400.2737731933594 C 338.0184020996094 400.2725524902344 368.63995361328125 402.0023193359375 345.4725341796875 401.90142822265625" stroke-width="0.0" fill="rgb(177, 104, 69)" opacity="0.83507216"/>
    <path d="M 2.695059299468994 -20.792631149291992 C 0.36402657628059387 -6.856107234954834 -4.106717109680176 -2.2188968658447266 -17.766921997070312 -7.826144218444824 C -11.758301734924316 19.245189666748047 -20.228309631347656 9.854820251464844 -19.886560440063477 -0.4853655993938446 C -16.711536407470703 -9.847160339355469 -9.391029357910156 -17.167667388916016 8.974032402038574 -26.620624542236328 C 22.856822967529297 -30.264366149902344 28.239158630371094 -23.0900936126709 2.695059299468994 -20.792631149291992" stroke-width="0.0" fill="rgb(174, 43, 18)" opacity="0.7316332"/>
    <path d="M 459.1361389160156 349.16796875 C 402.04388427734375 354.6155700683594 402.2597961425781 361.6592102050781 396.31365966796875 348.3060302734375 C 411.3897399902344 356.9821472167969 369.4385070800781 344.3105163574219 352.2221374511719 335.34881591796875 C 381.52569580078125 322.7773742675781 387.66949462890625 307.908935546875 396.5950012207031 274.8310241699219 C 409.14373779296875 283.9677429199219 411.5513916015625 298.9418640136719 459.1361389160156 349.16796875" stroke-width="0.0" fill="rgb(255, 255, 214)" opacity="1.0"/>
    <path d="M 9.006117820739746 -32.0928955078125 C 8.116511344909668 -11.748056411743164 -6.881216049194336 3.3880012035369873 -10.90181827545166 6.458547115325928 C -5.640143394470215 10.85824203491211 -17.58753204345703 8.500664710998535 -20.93229103088379 -0.5368972420692444 C -16.897369384765625 -9.788201332092285 -9.576862335205078 -17.10870933532715 0.42899808287620544 -19.789804458618164 C 12.406872749328613 -17.839614868164062 25.27507209777832 -16.802953720092773 9.006117820739746 -32.0928955078125" stroke-width="0.0" fill="rgb(174, 113, 158)" opacity="0.36015928"/>
    <path d="M 9.495118141174316 -17.326465606689453 C 8.037001609802246 -1.680434226989746 -12.164875984191895 -2.377375841140747 -28.406234741210938 -1.9350661039352417 C -6.786431312561035 17.695375442504883 -13.155801773071289 7.903697490692139 -16.379295349121094 -3.059117317199707 C -16.407878875732422 -9.129481315612793 -9.087371826171875 -16.449989318847656 6.248263835906982 -22.385807037353516 C 19.522544860839844 -24.627023696899414 27.075414657592773 -18.032182693481445 9.495118141174316 -17.326465606689453" stroke-width="0.0" fill="rgb(123, 92, 81)" opacity="0.3974921"/>
    <path d="M 618.8983154296875 584.9947509765625 C 614.2174682617188 594.5321655273438 608.9349365234375 603.5173950195312 612.7400512695312 598.2728881835938 C 605.808837890625 589.255859375 600.3786010742188 575.4722290039062 605.5166015625 569.4573974609375 C 594.3641967773438 573.6182250976562 614.9928588867188 575.8945922851562 625.7566528320312 571.9218139648438 C 613.294921875 562.4312133789062 618.633056640625 571.0616455078125 618.8983154296875 584.9947509765625" stroke-width="0.0" fill="rgb(84, 125, 173)" opacity="0.46232274"/>
    <path d="M 81.84877014160156 182.050048828125 C 42.6161003112793 189.9628448486328 -6.235596656799316 200.01377868652344 8.104994773864746 190.0392303466797 C 18.346097946166992 194.04872131347656 11.532736778259277 193.8422393798828 -13.476617813110352 164.95603942871094 C -9.220830917358398 164.209228515625 3.329551935195923 161.05470275878906 7.38817834854126 138.63430786132812 C 67.7030258178711 137.76651000976562 75.0017318725586 135.5852813720703 81.84877014160156 182.050048828125" stroke-width="0.0" fill="rgb(15, 33, 197)" opacity="0.28579524"/>
    <path d="M -4.965544700622559 -18.175947189331055 C 0.9989780187606812 -4.762869834899902 14.977892875671387 -2.8473775386810303 4.754899501800537 -6.985631465911865 C -32.94761276245117 3.2818241119384766 -42.949928283691406 -0.4817156195640564 -39.87778091430664 -5.266800403594971 C -16.88240623474121 -9.482423782348633 -9.56190013885498 -16.80293083190918 0.440405935049057 -19.48306655883789 C 10.928556442260742 -16.946744918823242 25.41888427734375 -14.572427749633789 -4.965544700622559 -18.175947189331055" stroke-width="0.0" fill="rgb(76, 115, 8)" opacity="0.66101843"/>
    <path d="M 24.156543731689453 -14.32238483428955 C 11.908008575439453 -0.2936735153198242 -2.843766450881958 -1.989469289779663 -33.75930404663086 3.1180241107940674 C -17.83807945251465 35.02153778076172 -21.916330337524414 31.506067276000977 -21.283552169799805 18.013525009155273 C -16.55799674987793 -9.460620880126953 -9.237489700317383 -16.7811279296875 5.920614719390869 -24.932504653930664 C 15.304906845092773 -21.75505828857422 16.2778263092041 -8.259563446044922 24.156543731689453 -14.32238483428955" stroke-width="0.0" fill="rgb(34, 82, 154)" opacity="0.69459707"/>
    <path d="M 278.8421325683594 152.1555633544922 C 293.15576171875 160.4074249267578 286.9981384277344 179.25936889648438 261.5607604980469 161.2214813232422 C 238.99447631835938 168.9987030029297 238.12774658203125 146.09478759765625 226.58213806152344 140.82810974121094 C 231.34933471679688 156.73196411132812 253.09512329101562 150.70726013183594 257.5149841308594 146.6463165283203 C 246.11700439453125 115.89591979980469 268.19659423828125 119.32618713378906 278.8421325683594 152.1555633544922" stroke-width="0.0" fill="rgb(250, 250, 248)" opacity="0.19796436"/>
    <path d="M 25.77014923095703 -5.448399543762207 C 24.396953582763672 17.957489013671875 16.95088005065918 32.844390869140625 -7.3689961433410645 45.579132080078125 C -24.002853393554688 32.823673248291016 -28.636276245117188 23.01365852355957 -25.988069534301758 9.67876148223877 C -17.09156608581543 -9.094579696655273 -9.771058082580566 -16.41508674621582 -2.890486717224121 -22.5382080078125 C 4.903384208679199 -20.399389266967773 8.534842491149902 -10.736320495605469 25.77014923095703 -5.448399543762207" stroke-width="0.0" fill="rgb(4, 32, 160)" opacity="0.82643825"/>
    <path d="M 212.05458068847656 587.069580078125 C 217.4183807373047 639.7874145507812 218.85105895996094 648.508544921875 143.865478515625 647.6842651367188 C 113.38585662841797 633.7434692382812 112.07994079589844 624.1825561523438 111.74600982666016 583.7518920898438 C 103.39519500732422 548.8016967773438 84.59302520751953 570.2596435546875 171.78834533691406 563.3885498046875 C 184.7545623779297 555.48388671875 186.82469177246094 562.7319946289062 212.05458068847656 587.069580078125" stroke-width="0.0" fill="rgb(21, 113, 138)" opacity="0.15563019"/>
  </g>
</svg>
