<?xml version="1.0" ?>
<svg xmlns="http://www.w3.org/2000/svg" version="1.1" width="600" height="600">
  <defs/>
  <g>
    <path d="M 367.041748046875 615.6148071289062 C 376.0128479003906 620.3700561523438 361.7762451171875 622.1311645507812 242.39773559570312 629.8055419921875 C 198.6880340576172 618.3035888671875 211.23516845703125 583.5829467773438 201.0390167236328 497.5517272949219 C 178.0785369873047 466.12408447265625 195.08970642089844 479.03057861328125 270.0221252441406 481.5733947753906 C 311.91217041015625 483.82281494140625 334.8739929199219 483.3332214355469 367.041748046875 615.6148071289062" stroke-width="0.0" fill="rgb(81, 161, 175)" opacity="0.99409187"/>
    <path d="M 375.1615905761719 25.24822425842285 C 336.60009765625 83.9156265258789 314.5121765136719 87.580322265625 254.4575958251953 110.71504211425781 C 203.04055786132812 104.73377227783203 191.09414672851562 103.99385833740234 203.32467651367188 17.374338150024414 C 218.09573364257812 -15.07471752166748 223.2179412841797 -22.446542739868164 285.6892395019531 -23.646385192871094 C 340.7453918457031 -9.402555465698242 345.27752685546875 -5.376373291015625 375.1615905761719 25.24822425842285" stroke-width="0.0" fill="rgb(59, 121, 166)" opacity="0.81313396"/>
    <path d="M 223.626708984375 573.3536987304688 C 229.25588989257812 653.4503784179688 207.19436645507812 639.0455322265625 152.87286376953125 624.5315551757812 C 96.84429931640625 624.2800903320312 68.66281127929688 635.4387817382812 46.25691223144531 592.9370727539062 C 73.22368621826172 523.429931640625 88.14105224609375 517.1829833984375 178.14483642578125 475.67401123046875 C 215.0935821533203 495.7290344238281 219.8155975341797 508.82647705078125 223.626708984375 573.3536987304688" stroke-width="0.0" fill="rgb(82, 158, 170)" opacity="1.0"/>
    <path d="M 631.1786499023438 202.62445068359375 C 670.4552612304688 329.64678955078125 701.3391723632812 353.3798522949219 513.8603515625 358.61297607421875 C 423.8947448730469 288.3257751464844 448.717529296875 224.68455505371094 404.82879638671875 195.66177368164062 C 429.7282409667969 79.9832763671875 457.1273193359375 82.96580505371094 588.9194946289062 19.118196487426758 C 607.50439453125 43.53464889526367 620.0609741210938 45.702449798583984 631.1786499023438 202.62445068359375" stroke-width="0.0" fill="rgb(73, 158, 190)" opacity="0.9722348"/>
    <path d="M 407.2221984863281 393.76483154296875 C 351.791259765625 556.6544189453125 339.0733947753906 550.505615234375 298.91497802734375 511.4461364746094 C 232.03074645996094 512.6094360351562 200.45150756835938 536.1331787109375 182.5228271484375 384.7533264160156 C 136.825927734375 310.9325256347656 121.16044616699219 279.9560241699219 326.9664611816406 282.3979797363281 C 439.66729736328125 327.7184753417969 442.89141845703125 337.8379211425781 407.2221984863281 393.76483154296875" stroke-width="0.0" fill="rgb(153, 122, 110)" opacity="0.8984311"/>
    <path d="M 534.6702880859375 225.3739471435547 C 560.4942626953125 313.3360595703125 553.25341796875 334.1651611328125 342.4602966308594 359.97369384765625 C 271.1829528808594 313.7459716796875 272.3923645019531 246.1396942138672 166.04977416992188 133.3262939453125 C 271.1268310546875 60.362483978271484 329.1700439453125 94.0426254272461 412.1461486816406 63.957740783691406 C 461.2591857910156 77.14408111572266 466.9040832519531 92.43637084960938 534.6702880859375 225.3739471435547" stroke-width="0.0" fill="rgb(255, 255, 209)" opacity="1.0"/>
    <path d="M 438.4244079589844 90.62823486328125 C 414.5369873046875 145.90673828125 410.1136169433594 164.999755859375 371.7091979980469 257.0901794433594 C 319.1614074707031 175.3249053955078 281.09844970703125 179.77117919921875 298.5103759765625 165.78684997558594 C 329.3638610839844 79.13355255126953 325.39483642578125 53.440284729003906 382.01226806640625 44.99586868286133 C 426.86444091796875 45.30910110473633 438.49530029296875 47.65816116333008 438.4244079589844 90.62823486328125" stroke-width="0.0" fill="rgb(44, 25, 30)" opacity="0.7842777"/>
    <path d="M 206.32437133789062 350.4817199707031 C 184.62823486328125 543.8500366210938 163.88827514648438 539.5638427734375 103.64617919921875 541.3389282226562 C 5.171584606170654 561.5667114257812 -25.10352897644043 579.4660034179688 -43.252296447753906 355.99896240234375 C -60.43885803222656 287.8489685058594 -75.47427368164062 269.8176574707031 178.43031311035156 208.7530059814453 C 272.65234375 237.4079132080078 237.1990966796875 285.7731018066406 206.32437133789062 350.4817199707031" stroke-width="0.0" fill="rgb(79, 143, 152)" opacity="0.8547362"/>
    <path d="M 224.8059844970703 172.40980529785156 C 222.6587677001953 167.0565185546875 224.56283569335938 206.6087646484375 194.04055786132812 299.2320861816406 C -53.69116973876953 269.7132873535156 -53.313232421875 268.6918640136719 -39.94285583496094 225.81578063964844 C 50.410091400146484 26.332412719726562 84.79598999023438 33.733558654785156 142.6854705810547 12.690698623657227 C 150.42527770996094 24.394840240478516 153.64024353027344 37.10121536254883 224.8059844970703 172.40980529785156" stroke-width="0.0" fill="rgb(0, 0, 10)" opacity="1.0"/>
    <path d="M 151.144287109375 -6.297451972961426 C 139.12384033203125 70.43757629394531 132.98081970214844 83.95622253417969 29.85394287109375 184.35629272460938 C -12.229000091552734 154.76132202148438 -17.59686851501465 142.2845916748047 -18.44853401184082 47.96776580810547 C -10.15634822845459 -47.66112518310547 14.742843627929688 -33.53483581542969 89.936279296875 -21.33711051940918 C 151.1575469970703 -21.015972137451172 168.96630859375 -18.41303253173828 151.144287109375 -6.297451972961426" stroke-width="0.0" fill="rgb(106, 138, 197)" opacity="1.0"/>
    <path d="M 209.04049682617188 489.91339111328125 C 161.0128936767578 560.4320678710938 138.4098358154297 564.10546875 37.15292739868164 613.3284301757812 C 0.23427404463291168 625.3421630859375 -13.263816833496094 623.44775390625 -60.04502868652344 558.4581909179688 C -52.07655334472656 439.7231140136719 -3.629251480102539 466.6054382324219 97.72068786621094 474.87860107421875 C 167.89669799804688 467.9937744140625 202.40293884277344 455.4411315917969 209.04049682617188 489.91339111328125" stroke-width="0.0" fill="rgb(81, 161, 164)" opacity="1.0"/>
    <path d="M 649.9054565429688 41.851192474365234 C 591.0853881835938 150.40647888183594 545.845703125 143.65383911132812 457.69049072265625 182.72535705566406 C 405.9353942871094 166.30819702148438 402.7567443847656 147.30599975585938 405.65966796875 102.45304107666016 C 423.7581787109375 30.321245193481445 433.2900085449219 7.051920413970947 531.4240112304688 -26.579811096191406 C 586.9144287109375 -28.326465606689453 607.3668212890625 -33.947147369384766 649.9054565429688 41.851192474365234" stroke-width="0.0" fill="rgb(101, 167, 173)" opacity="1.0"/>
    <path d="M 634.4248657226562 379.4350891113281 C 615.0821533203125 682.791015625 603.6884765625 678.2999267578125 523.560302734375 646.4830322265625 C 316.4102478027344 622.3751220703125 320.3293151855469 603.7973022460938 335.8115539550781 505.074462890625 C 316.1234436035156 370.74041748046875 282.3510437011719 365.02001953125 504.8931884765625 366.35198974609375 C 607.4036865234375 308.96588134765625 626.5601806640625 314.5074157714844 634.4248657226562 379.4350891113281" stroke-width="0.0" fill="rgb(85, 160, 171)" opacity="0.9862113"/>
    <path d="M 203.3851776123047 25.83405113220215 C 154.4927978515625 144.8861083984375 244.29750061035156 111.55393981933594 274.56048583984375 344.90679931640625 C 202.82444763183594 108.55612182617188 144.84190368652344 103.07262420654297 127.8080062866211 40.673919677734375 C 134.42662048339844 -7.833813667297363 136.16395568847656 -15.15421199798584 206.39671325683594 -6.109420299530029 C 268.6474914550781 -2.8708386421203613 271.1326599121094 4.959428787231445 203.3851776123047 25.83405113220215" stroke-width="0.0" fill="rgb(0, 7, 14)" opacity="0.98367554"/>
    <path d="M 393.3443298339844 48.00727081298828 C 357.1734924316406 124.08512878417969 370.6188049316406 163.86976623535156 307.78570556640625 159.7069854736328 C 286.50360107421875 138.19033813476562 265.31353759765625 120.9339828491211 210.25013732910156 106.89682006835938 C 302.43902587890625 82.8634262084961 318.14453125 76.2153091430664 390.6369323730469 43.20757293701172 C 406.0624694824219 44.89044952392578 400.446533203125 30.906410217285156 393.3443298339844 48.00727081298828" stroke-width="0.0" fill="rgb(25, 22, 38)" opacity="0.770077"/>
    <path d="M 502.4091796875 -21.174551010131836 C 466.8648681640625 50.61393356323242 454.15704345703125 71.43344116210938 398.1461181640625 105.52234649658203 C 354.0278015136719 112.56333923339844 352.4268493652344 101.21212768554688 335.57818603515625 16.249956130981445 C 343.2252502441406 -40.8175163269043 358.3558654785156 -38.05577850341797 408.1125183105469 -32.21951675415039 C 478.4967956542969 -22.131013870239258 497.5093994140625 -23.65408706665039 502.4091796875 -21.174551010131836" stroke-width="0.0" fill="rgb(118, 152, 190)" opacity="0.999299"/>
    <path d="M 260.8686828613281 23.814346313476562 C 196.00634765625 129.8093719482422 159.2482147216797 111.37779998779297 123.65484619140625 103.60161590576172 C 118.02949523925781 101.18388366699219 117.6318130493164 93.17742156982422 109.11563110351562 90.94518280029297 C 120.19528198242188 67.3397445678711 96.99201965332031 28.43303108215332 143.2576904296875 -31.227378845214844 C 244.32940673828125 -39.07243728637695 259.6656494140625 -34.41899871826172 260.8686828613281 23.814346313476562" stroke-width="0.0" fill="rgb(102, 137, 196)" opacity="1.0"/>
    <path d="M 367.31610107421875 101.53292083740234 C 365.7510681152344 150.889404296875 364.7884216308594 159.045166015625 357.7783203125 241.21865844726562 C 306.08563232421875 165.37498474121094 282.2579345703125 152.163818359375 274.1342468261719 115.85374450683594 C 251.39016723632812 59.63584518432617 268.94970703125 57.80244827270508 341.2161865234375 55.03407287597656 C 377.5194396972656 64.43241119384766 376.7763671875 74.06196594238281 367.31610107421875 101.53292083740234" stroke-width="0.0" fill="rgb(99, 146, 202)" opacity="0.94463694"/>
    <path d="M 151.27749633789062 136.6863555908203 C 153.27346801757812 196.8336181640625 133.82379150390625 204.79518127441406 126.28591918945312 210.74635314941406 C 68.12608337402344 167.92613220214844 62.58243179321289 171.46786499023438 59.1294059753418 139.75804138183594 C 76.1712646484375 138.642822265625 84.80641174316406 131.31185913085938 101.04327392578125 108.22166442871094 C 123.14112854003906 104.45210266113281 138.09829711914062 109.88216400146484 151.27749633789062 136.6863555908203" stroke-width="0.0" fill="rgb(97, 173, 202)" opacity="0.9590785"/>
    <path d="M 188.07638549804688 71.14701080322266 C 205.06890869140625 200.1822967529297 188.60885620117188 180.97274780273438 198.829345703125 179.65582275390625 C 104.99964141845703 144.18350219726562 92.74231719970703 184.52960205078125 101.36624145507812 125.12213134765625 C 121.46538543701172 91.76264953613281 138.4446563720703 91.85308837890625 146.2335205078125 55.299171447753906 C 159.6258544921875 45.35860824584961 193.15138244628906 48.11936950683594 188.07638549804688 71.14701080322266" stroke-width="0.0" fill="rgb(90, 145, 195)" opacity="0.99103695"/>
    <path d="M 453.2975158691406 237.17007446289062 C 430.74676513671875 183.87892150878906 466.4285888671875 232.34121704101562 449.27392578125 238.77255249023438 C 343.0669860839844 267.086181640625 386.53277587890625 310.6081237792969 362.84039306640625 197.44284057617188 C 388.22076416015625 147.76612854003906 390.4818420410156 137.15093994140625 393.44451904296875 156.12771606445312 C 441.7734069824219 160.30836486816406 434.4486999511719 151.28451538085938 453.2975158691406 237.17007446289062" stroke-width="0.0" fill="rgb(0, 29, 100)" opacity="0.9585931"/>
    <path d="M 97.3521499633789 175.13584899902344 C 83.0816421508789 189.3895263671875 61.880008697509766 184.915771484375 37.090206146240234 207.1936492919922 C 1.2226194143295288 204.87542724609375 -9.642842292785645 201.04678344726562 -23.13088607788086 174.7608642578125 C 9.524240493774414 138.1087646484375 17.41597557067871 137.4636688232422 31.585325241088867 137.6481170654297 C 47.22081756591797 145.51583862304688 60.93844223022461 147.80813598632812 97.3521499633789 175.13584899902344" stroke-width="0.0" fill="rgb(94, 140, 203)" opacity="0.9907903"/>
    <path d="M 145.020751953125 210.65798950195312 C 90.15460205078125 206.8731231689453 81.70740509033203 202.9326171875 48.600311279296875 204.0002899169922 C 43.20587158203125 222.8418426513672 32.463951110839844 205.7487030029297 23.01224136352539 180.48536682128906 C 45.27267837524414 161.0090789794922 51.33533477783203 151.55308532714844 87.21057891845703 132.28793334960938 C 125.49346160888672 115.20228576660156 136.7049102783203 107.8404769897461 145.020751953125 210.65798950195312" stroke-width="0.0" fill="rgb(81, 146, 203)" opacity="1.0"/>
    <path d="M 337.6865234375 524.4734497070312 C 343.36566162109375 561.4137573242188 328.9089660644531 552.421630859375 279.6531066894531 553.6768188476562 C 237.36183166503906 558.6626586914062 218.93035888671875 567.1759643554688 175.0994110107422 473.3009338378906 C 163.79440307617188 418.6232604980469 177.74595642089844 442.4812316894531 311.7458190917969 441.9808654785156 C 360.5389709472656 435.22479248046875 342.334228515625 455.86358642578125 337.6865234375 524.4734497070312" stroke-width="0.0" fill="rgb(80, 162, 174)" opacity="1.0"/>
    <path d="M 531.2628784179688 168.45523071289062 C 530.1251831054688 241.2720184326172 457.9923400878906 199.79977416992188 365.5877685546875 236.6318817138672 C 336.4182434082031 170.07882690429688 331.6905822753906 160.24961853027344 340.752197265625 121.19757080078125 C 341.521728515625 80.39366912841797 335.193115234375 68.33908081054688 371.9193420410156 57.49214172363281 C 422.7146301269531 70.21453857421875 432.5757751464844 75.9581298828125 531.2628784179688 168.45523071289062" stroke-width="0.0" fill="rgb(73, 155, 195)" opacity="1.0"/>
    <path d="M 316.0181884765625 115.81731414794922 C 311.6214294433594 163.03660583496094 293.0057373046875 161.79640197753906 277.1950988769531 143.10025024414062 C 231.0719757080078 109.86994934082031 214.28302001953125 107.85986328125 194.135498046875 97.49639892578125 C 186.4578094482422 52.765357971191406 187.29957580566406 59.32129669189453 248.30010986328125 51.74295425415039 C 292.9012451171875 58.627071380615234 298.7964782714844 57.441986083984375 316.0181884765625 115.81731414794922" stroke-width="0.0" fill="rgb(89, 144, 198)" opacity="1.0"/>
    <path d="M 117.73672485351562 258.56884765625 C 97.7994613647461 281.3940124511719 62.190250396728516 281.2895202636719 64.9330062866211 279.83380126953125 C 61.006568908691406 398.92828369140625 12.636293411254883 385.97998046875 -46.93952178955078 334.881103515625 C 13.867735862731934 216.13143920898438 30.500308990478516 212.11978149414062 84.43305206298828 183.01681518554688 C 88.06062316894531 203.8286590576172 90.58633422851562 221.62350463867188 117.73672485351562 258.56884765625" stroke-width="0.0" fill="rgb(63, 147, 225)" opacity="0.99863726"/>
    <path d="M 385.9018859863281 175.78302001953125 C 390.50579833984375 195.3939666748047 417.69732666015625 252.1090545654297 324.074951171875 336.5273132324219 C 420.64453125 217.49069213867188 363.4787902832031 288.19268798828125 373.1936340332031 192.54112243652344 C 332.005615234375 128.26461791992188 340.97674560546875 132.2654266357422 350.4041442871094 132.53274536132812 C 380.5824279785156 138.24757385253906 390.78753662109375 140.84239196777344 385.9018859863281 175.78302001953125" stroke-width="0.0" fill="rgb(29, 31, 60)" opacity="0.83621824"/>
    <path d="M 108.85994720458984 126.24337768554688 C 99.4827651977539 155.17572021484375 89.68772888183594 165.3021697998047 82.51615905761719 159.279541015625 C 44.714202880859375 162.5094451904297 40.424808502197266 152.49990844726562 41.80903244018555 150.07913208007812 C 60.26532745361328 137.05340576171875 74.02802276611328 132.31629943847656 96.50112915039062 118.36415100097656 C 88.56160736083984 98.36053466796875 98.17354583740234 104.29132843017578 108.85994720458984 126.24337768554688" stroke-width="0.0" fill="rgb(93, 148, 202)" opacity="0.90494263"/>
    <path d="M 127.48389434814453 110.53833770751953 C 131.65589904785156 134.99960327148438 137.9459228515625 137.03138732910156 110.08885192871094 137.57440185546875 C 71.94995880126953 133.87977600097656 61.5172004699707 133.16558837890625 69.80023956298828 118.0984115600586 C 88.97457122802734 99.55474090576172 91.97261047363281 86.07537078857422 103.62726593017578 70.33816528320312 C 116.11759948730469 77.33483123779297 122.1191177368164 90.09587860107422 127.48389434814453 110.53833770751953" stroke-width="0.0" fill="rgb(99, 142, 195)" opacity="0.98716015"/>
    <path d="M 371.380126953125 69.4931640625 C 375.5967102050781 122.48323822021484 360.9079895019531 127.01778411865234 320.288330078125 128.40548706054688 C 266.7344665527344 111.39370727539062 261.5090026855469 109.77079772949219 259.57666015625 89.48402404785156 C 257.8583068847656 29.70435333251953 269.4783020019531 24.830717086791992 321.48907470703125 9.768501281738281 C 363.5562438964844 10.113487243652344 377.4429626464844 16.097517013549805 371.380126953125 69.4931640625" stroke-width="0.0" fill="rgb(92, 144, 193)" opacity="0.6656051"/>
    <path d="M 99.5004653930664 209.78485107421875 C 77.8531494140625 245.27044677734375 53.15769958496094 239.88783264160156 0.850167453289032 264.79150390625 C -23.384492874145508 266.43353271484375 -25.71957778930664 254.24020385742188 -23.074195861816406 220.37098693847656 C -12.942092895507812 174.3766326904297 -4.706806659698486 169.10337829589844 40.47372817993164 158.63204956054688 C 79.56160736083984 153.26144409179688 84.46576690673828 156.80804443359375 99.5004653930664 209.78485107421875" stroke-width="0.0" fill="rgb(78, 138, 209)" opacity="0.45879668"/>
    <path d="M 527.9956665039062 353.3560485839844 C 598.1265258789062 330.5714416503906 575.4237670898438 365.1206359863281 486.155517578125 398.5644836425781 C 392.4509582519531 398.3265075683594 372.2337341308594 363.8946228027344 458.45068359375 361.42889404296875 C 470.8399963378906 359.40142822265625 463.02398681640625 332.8236389160156 562.1790771484375 225.6304473876953 C 550.3861694335938 250.77113342285156 539.5449829101562 343.877685546875 527.9956665039062 353.3560485839844" stroke-width="0.0" fill="rgb(0, 3, 12)" opacity="0.9856751"/>
    <path d="M 407.2227783203125 167.86968994140625 C 412.9983825683594 189.61029052734375 403.89556884765625 188.7474365234375 341.1726379394531 201.49595642089844 C 320.82122802734375 200.90660095214844 313.77215576171875 182.9935760498047 295.3540344238281 152.4033203125 C 294.7857360839844 97.92774200439453 310.20294189453125 104.48743438720703 367.5076599121094 112.91851806640625 C 394.03778076171875 108.80903625488281 395.8420715332031 120.23562622070312 407.2227783203125 167.86968994140625" stroke-width="0.0" fill="rgb(79, 139, 203)" opacity="0.99870455"/>
    <path d="M 410.5088195800781 197.30712890625 C 421.6672058105469 235.9345703125 400.75030517578125 227.3190155029297 366.4482116699219 245.98243713378906 C 359.48211669921875 237.3612823486328 347.585693359375 220.01788330078125 335.3234558105469 199.18026733398438 C 347.1404113769531 164.66659545898438 341.74578857421875 156.08338928222656 375.4452209472656 159.1499481201172 C 404.62738037109375 156.1649169921875 402.05291748046875 159.03758239746094 410.5088195800781 197.30712890625" stroke-width="0.0" fill="rgb(77, 138, 210)" opacity="0.9860633"/>
    <path d="M 559.2547607421875 366.7520751953125 C 504.3475036621094 422.2110290527344 492.8240051269531 432.8357849121094 485.6809387207031 434.5022277832031 C 484.041259765625 433.804443359375 419.80084228515625 470.3265686035156 270.0158386230469 360.1656799316406 C 479.4096984863281 363.28564453125 391.1899719238281 301.541259765625 431.93060302734375 351.8455810546875 C 556.0027465820312 344.80999755859375 547.6433715820312 335.72088623046875 559.2547607421875 366.7520751953125" stroke-width="0.0" fill="rgb(21, 0, 17)" opacity="0.8804506"/>
    <path d="M 217.18434143066406 316.771240234375 C 203.0778350830078 393.5998840332031 166.95472717285156 365.4156188964844 195.34719848632812 372.8037109375 C 135.39669799804688 365.0234680175781 114.57279205322266 381.3517761230469 50.83858871459961 361.76385498046875 C 115.0807113647461 299.90478515625 140.3250274658203 277.732177734375 192.25025939941406 323.00518798828125 C 147.96890258789062 324.3713073730469 140.6497802734375 317.76806640625 217.18434143066406 316.771240234375" stroke-width="0.0" fill="rgb(169, 78, 67)" opacity="0.97568285"/>
    <path d="M 357.5935974121094 343.52130126953125 C 441.6738586425781 319.5373229980469 430.25384521484375 340.74481201171875 416.31103515625 349.85870361328125 C 254.9649200439453 356.0345153808594 285.72314453125 379.4971618652344 227.150390625 312.4249267578125 C 281.9623718261719 278.7189636230469 304.1581726074219 290.1158142089844 331.9974670410156 265.6566467285156 C 285.91888427734375 324.0520935058594 296.67901611328125 303.61669921875 357.5935974121094 343.52130126953125" stroke-width="0.0" fill="rgb(22, 9, 29)" opacity="0.9554643"/>
    <path d="M 226.86643981933594 213.8808135986328 C 315.810302734375 366.0832824707031 257.1767883300781 396.3999938964844 221.36599731445312 374.9884338378906 C 208.65011596679688 326.8107604980469 203.1014862060547 313.7636413574219 173.354248046875 300.8166198730469 C 180.79678344726562 313.035888671875 227.69012451171875 340.56683349609375 141.28018188476562 164.1932830810547 C 130.6905517578125 157.41976928710938 243.93991088867188 200.00758361816406 226.86643981933594 213.8808135986328" stroke-width="0.0" fill="rgb(255, 255, 201)" opacity="1.0"/>
    <path d="M 194.98245239257812 330.3082580566406 C 209.1791229248047 359.91607666015625 232.51730346679688 333.0440673828125 131.98504638671875 302.1562805175781 C 68.27105712890625 302.96307373046875 57.945255279541016 441.61419677734375 50.2138557434082 313.89178466796875 C 154.35409545898438 307.4839782714844 -13.131263732910156 302.817138671875 121.30657196044922 268.78619384765625 C 191.18540954589844 248.01239013671875 168.4755401611328 267.5476989746094 194.98245239257812 330.3082580566406" stroke-width="0.0" fill="rgb(50, 0, 25)" opacity="0.9959415"/>
    <path d="M 562.3301391601562 390.09161376953125 C 591.8252563476562 437.4897766113281 570.406005859375 420.7348937988281 518.7686157226562 410.76287841796875 C 481.19097900390625 401.9159851074219 467.0826110839844 392.90216064453125 577.1583862304688 392.940673828125 C 502.7816467285156 364.2156677246094 474.32684326171875 258.2499694824219 542.2216796875 338.50726318359375 C 580.8643798828125 341.40301513671875 519.1590576171875 334.497802734375 562.3301391601562 390.09161376953125" stroke-width="0.0" fill="rgb(0, 1, 15)" opacity="0.91624093"/>
    <path d="M 311.3284606933594 430.49676513671875 C 249.121826171875 445.9980163574219 205.6985321044922 435.93792724609375 151.07058715820312 440.4966735839844 C 57.97344970703125 429.63372802734375 -24.12137222290039 427.59759521484375 -12.688701629638672 443.5525207519531 C 87.19104766845703 333.34967041015625 112.2773666381836 379.1679992675781 124.90575408935547 394.8141784667969 C 142.7286376953125 403.5206298828125 183.79132080078125 375.4483642578125 311.3284606933594 430.49676513671875" stroke-width="0.0" fill="rgb(207, 155, 99)" opacity="0.92233855"/>
    <path d="M 669.0852661132812 435.8446044921875 C 562.0750732421875 445.7762756347656 510.1141662597656 446.12762451171875 484.3970642089844 440.3072204589844 C 478.3104553222656 440.04998779296875 415.5284118652344 443.15802001953125 215.3706512451172 433.4609375 C 324.49407958984375 305.3573913574219 468.4467468261719 397.5345153808594 475.19866943359375 394.7717590332031 C 518.1423950195312 407.6864013671875 634.991943359375 372.85516357421875 669.0852661132812 435.8446044921875" stroke-width="0.0" fill="rgb(205, 151, 101)" opacity="0.9650867"/>
    <path d="M 362.0146484375 267.1416320800781 C 339.20501708984375 304.58575439453125 332.2624816894531 318.5768737792969 288.8851013183594 364.04571533203125 C 277.1573486328125 342.4145202636719 271.87774658203125 312.67742919921875 267.437744140625 260.8158264160156 C 256.1639709472656 214.57041931152344 220.11398315429688 189.26808166503906 284.350341796875 145.83119201660156 C 350.843994140625 204.7489776611328 370.7792053222656 251.4993133544922 362.0146484375 267.1416320800781" stroke-width="0.0" fill="rgb(255, 255, 223)" opacity="1.0"/>
    <path d="M 203.29612731933594 305.65875244140625 C 158.35089111328125 318.9335021972656 140.4541778564453 244.2156219482422 132.49220275878906 304.31878662109375 C 117.00306701660156 271.38787841796875 112.53067779541016 270.0318908691406 79.03765869140625 205.9873046875 C 71.86669158935547 198.80093383789062 116.30756378173828 200.6700439453125 153.26934814453125 214.50660705566406 C 146.5680389404297 234.99440002441406 145.3911590576172 170.0277557373047 203.29612731933594 305.65875244140625" stroke-width="0.0" fill="rgb(255, 255, 221)" opacity="1.0"/>
    <path d="M 60.24767303466797 204.48304748535156 C 32.32320785522461 224.82374572753906 34.80701446533203 243.869384765625 -4.820803642272949 268.44683837890625 C -20.02359390258789 260.3721008300781 -22.703454971313477 246.93930053710938 -15.270076751708984 213.17178344726562 C -14.780078887939453 188.35845947265625 -12.50191879272461 175.36874389648438 10.289121627807617 177.37257385253906 C 44.505577087402344 179.29141235351562 52.3142204284668 189.33897399902344 60.24767303466797 204.48304748535156" stroke-width="0.0" fill="rgb(78, 141, 221)" opacity="0.9651109"/>
    <path d="M 324.31158447265625 441.0868835449219 C 304.4712829589844 387.81787109375 345.7160339355469 408.02642822265625 299.3500061035156 386.16497802734375 C 238.30873107910156 387.0460510253906 218.46035766601562 390.95257568359375 144.0388946533203 398.0322570800781 C 226.76638793945312 355.1177062988281 228.8772735595703 337.2389831542969 253.7104949951172 298.35198974609375 C 292.7030944824219 393.68865966796875 311.40185546875 391.3468322753906 324.31158447265625 441.0868835449219" stroke-width="0.0" fill="rgb(44, 17, 21)" opacity="0.8568792"/>
    <path d="M 239.28329467773438 364.93353271484375 C 205.95802307128906 404.4925231933594 182.41403198242188 390.6427917480469 123.13641357421875 397.809326171875 C 61.71661376953125 393.2450256347656 -11.638875961303711 437.7846984863281 21.733360290527344 398.9288024902344 C 50.187843322753906 337.7275390625 51.25889205932617 363.2749938964844 141.43240356445312 369.0603942871094 C 188.2674560546875 372.52386474609375 229.778076171875 350.74212646484375 239.28329467773438 364.93353271484375" stroke-width="0.0" fill="rgb(35, 30, 27)" opacity="0.30341938"/>
    <path d="M 534.72998046875 234.9336395263672 C 502.51873779296875 220.86581420898438 488.497314453125 233.9466094970703 487.4617004394531 238.06837463378906 C 507.1544189453125 227.6532440185547 479.8932800292969 220.69110107421875 462.937744140625 231.26597595214844 C 442.44891357421875 190.5740203857422 451.19647216796875 236.2506866455078 477.5193176269531 217.64254760742188 C 511.3388977050781 246.46896362304688 547.6267700195312 213.2904052734375 534.72998046875 234.9336395263672" stroke-width="0.0" fill="rgb(62, 63, 14)" opacity="0.54636073"/>
    <path d="M 119.00402069091797 406.8382263183594 C 107.6978759765625 432.9394226074219 102.59297180175781 434.838623046875 80.02435302734375 422.8040466308594 C 27.304859161376953 435.1848449707031 4.351494312286377 456.3848876953125 -10.002016067504883 395.9512939453125 C 65.9935073852539 399.6102294921875 110.71045684814453 400.05584716796875 121.53206634521484 400.6090087890625 C 82.01068115234375 388.5534362792969 89.36758422851562 403.7485656738281 119.00402069091797 406.8382263183594" stroke-width="0.0" fill="rgb(238, 196, 108)" opacity="1.0"/>
    <path d="M 445.8479309082031 361.4793395996094 C 489.2939758300781 384.93121337890625 490.38226318359375 382.1988830566406 464.659423828125 393.47772216796875 C 455.5657043457031 401.4063415527344 456.6261901855469 386.3836669921875 434.2890319824219 331.3046569824219 C 405.8272705078125 343.5238342285156 428.16998291015625 352.15533447265625 517.3829345703125 349.96307373046875 C 551.7274780273438 334.5885925292969 538.7741088867188 356.4621276855469 445.8479309082031 361.4793395996094" stroke-width="0.0" fill="rgb(167, 119, 83)" opacity="0.961365"/>
    <path d="M 169.57635498046875 395.9635314941406 C 93.36993408203125 399.73419189453125 71.5400619506836 402.701416015625 100.177001953125 390.6416931152344 C 78.94458770751953 397.9149475097656 11.56835651397705 404.963134765625 32.78386688232422 410.3283386230469 C 84.9305648803711 405.748779296875 91.82686614990234 422.65252685546875 93.56307983398438 376.661865234375 C 88.84732818603516 401.3751220703125 64.88330841064453 369.1175842285156 169.57635498046875 395.9635314941406" stroke-width="0.0" fill="rgb(80, 68, 9)" opacity="0.57143694"/>
    <path d="M 108.5813980102539 395.5693359375 C 118.60374450683594 411.14892578125 110.27629852294922 405.74285888671875 105.2923583984375 408.95477294921875 C 81.0446548461914 423.79449462890625 49.378360748291016 412.6014099121094 95.10670471191406 406.10992431640625 C 25.506860733032227 405.9930725097656 63.38166427612305 377.8822326660156 204.13812255859375 419.68316650390625 C 40.23454284667969 420.09210205078125 39.3623046875 404.0204162597656 108.5813980102539 395.5693359375" stroke-width="0.0" fill="rgb(214, 165, 91)" opacity="0.84284186"/>
    <path d="M 427.7466735839844 369.9888610839844 C 225.90283203125 408.84893798828125 341.08514404296875 414.3564453125 308.2212829589844 389.8756408691406 C 144.33932495117188 392.79296875 133.34661865234375 416.4780578613281 55.05772018432617 369.0343017578125 C 219.24612426757812 355.48248291015625 240.73468017578125 354.97119140625 257.051025390625 352.92364501953125 C 268.6345520019531 362.48406982421875 306.15576171875 360.7740783691406 427.7466735839844 369.9888610839844" stroke-width="0.0" fill="rgb(162, 109, 57)" opacity="0.99143624"/>
    <path d="M 555.2432250976562 373.5323486328125 C 543.7705078125 379.6243591308594 531.5780029296875 370.3276672363281 544.6109008789062 384.3247985839844 C 564.6005249023438 360.589599609375 595.3357543945312 363.96661376953125 486.8348388671875 349.3528137207031 C 488.39349365234375 352.9847106933594 530.9658813476562 357.6352233886719 559.7481079101562 350.213623046875 C 541.7073974609375 362.5089111328125 560.2032470703125 347.32391357421875 555.2432250976562 373.5323486328125" stroke-width="0.0" fill="rgb(149, 57, 111)" opacity="0.87189424"/>
    <path d="M 596.4851684570312 400.2340393066406 C 566.3211059570312 413.4394836425781 521.3263549804688 398.4766845703125 499.4858703613281 401.6719665527344 C 512.4676513671875 397.32843017578125 494.031005859375 404.95513916015625 465.6844787597656 400.8492736816406 C 469.637939453125 361.1694030761719 476.80181884765625 365.3369445800781 544.7318725585938 366.1344299316406 C 586.1611328125 369.6918640136719 566.8982543945312 341.91241455078125 596.4851684570312 400.2340393066406" stroke-width="0.0" fill="rgb(162, 84, 82)" opacity="0.9958483"/>
    <path d="M 108.5595932006836 306.7982482910156 C 124.30726623535156 293.5005187988281 94.22157287597656 296.7653503417969 108.64122772216797 284.9553527832031 C 98.75443267822266 282.1974792480469 74.13091278076172 289.7972106933594 61.88861083984375 287.0184631347656 C 87.58055114746094 273.7316589355469 113.13829803466797 259.29779052734375 108.90424346923828 256.3281555175781 C 112.82585906982422 270.6771545410156 103.38861846923828 268.358642578125 108.5595932006836 306.7982482910156" stroke-width="0.0" fill="rgb(246, 243, 210)" opacity="0.9408162"/>
    <path d="M 439.5886535644531 352.45953369140625 C 443.859375 380.0491027832031 457.80828857421875 412.4214782714844 409.4322509765625 400.02294921875 C 292.9505615234375 411.56622314453125 294.0954895019531 400.4590759277344 291.4775390625 375.5743713378906 C 436.8897705078125 371.8329772949219 455.6092224121094 371.5658264160156 438.08734130859375 360.4721374511719 C 431.65875244140625 343.2456970214844 445.4211120605469 363.0884094238281 439.5886535644531 352.45953369140625" stroke-width="0.0" fill="rgb(74, 67, 29)" opacity="0.58915186"/>
    <path d="M 447.8030700683594 374.58660888671875 C 468.2290344238281 362.8246154785156 463.8729248046875 368.9945068359375 464.598876953125 357.7449035644531 C 466.4080810546875 346.81878662109375 456.0727844238281 345.0953674316406 261.5829772949219 346.3173828125 C 409.6741943359375 328.2575378417969 472.72821044921875 353.32183837890625 447.685791015625 352.84857177734375 C 436.6448669433594 354.7633361816406 441.8106689453125 369.7548828125 447.8030700683594 374.58660888671875" stroke-width="0.0" fill="rgb(157, 130, 106)" opacity="0.7651273"/>
    <path d="M 503.5497131347656 405.1516418457031 C 493.17901611328125 407.08856201171875 468.00927734375 404.5409851074219 408.937744140625 401.4524841308594 C 366.6471252441406 402.69366455078125 318.9530029296875 407.1482849121094 306.623046875 401.74700927734375 C 472.0748596191406 407.0215759277344 462.4291076660156 389.73138427734375 444.0569763183594 358.0389709472656 C 464.2530822753906 358.7112121582031 446.55572509765625 400.86712646484375 503.5497131347656 405.1516418457031" stroke-width="0.0" fill="rgb(68, 72, 0)" opacity="0.72407126"/>
    <path d="M 506.46380615234375 372.0257873535156 C 518.9765625 393.4745178222656 521.8238525390625 406.3367919921875 502.31549072265625 403.2403564453125 C 456.001953125 400.74591064453125 478.1523742675781 385.9425048828125 345.7156066894531 370.3144836425781 C 449.53472900390625 355.93939208984375 466.78778076171875 369.6968994140625 406.5118713378906 370.54443359375 C 497.3947448730469 364.1164245605469 496.1815185546875 369.27972412109375 506.46380615234375 372.0257873535156" stroke-width="0.0" fill="rgb(159, 122, 46)" opacity="0.94002146"/>
    <path d="M 569.271240234375 245.66415405273438 C 492.3940124511719 232.64202880859375 469.7562561035156 238.47036743164062 487.4561767578125 234.64491271972656 C 498.9859313964844 240.58070373535156 470.0788269042969 233.67794799804688 442.7933654785156 242.28953552246094 C 433.1552734375 203.66973876953125 458.6462707519531 214.18698120117188 468.6714782714844 198.3187255859375 C 513.5364990234375 179.65501403808594 558.1492919921875 176.86209106445312 569.271240234375 245.66415405273438" stroke-width="0.0" fill="rgb(58, 152, 193)" opacity="1.0"/>
    <path d="M 41.14824676513672 369.22100830078125 C 126.15250396728516 383.1328125 118.546142578125 404.69195556640625 10.815738677978516 392.2281188964844 C 69.75708770751953 367.9227600097656 89.83401489257812 372.9053039550781 -4.534806251525879 374.08599853515625 C 101.37883758544922 384.4216003417969 114.29991912841797 398.4208984375 98.01741027832031 385.40203857421875 C 55.520790100097656 383.5033264160156 63.32957458496094 373.5606384277344 41.14824676513672 369.22100830078125" stroke-width="0.0" fill="rgb(64, 37, 47)" opacity="0.6191918"/>
    <path d="M 436.3223876953125 386.9502868652344 C 434.5195617675781 382.9171142578125 430.7887268066406 380.052734375 497.460693359375 402.8080139160156 C 469.93115234375 396.7596130371094 439.0580139160156 396.6924133300781 243.9360809326172 393.8696594238281 C 298.606201171875 351.2331848144531 382.47222900390625 389.0580749511719 451.8034973144531 365.99658203125 C 401.7586669921875 362.8556213378906 431.7791748046875 374.9906921386719 436.3223876953125 386.9502868652344" stroke-width="0.0" fill="rgb(140, 98, 80)" opacity="0.9961788"/>
    <path d="M 233.52610778808594 369.0801086425781 C 149.5862274169922 346.5392761230469 119.05516815185547 354.7978210449219 134.4498291015625 353.1650085449219 C 155.4606475830078 366.802490234375 127.61131286621094 359.8643493652344 41.377716064453125 360.1971435546875 C 130.77333068847656 359.84423828125 155.7283477783203 365.62890625 148.6186981201172 356.7760009765625 C 119.7905502319336 355.3636474609375 140.19515991210938 369.9327697753906 233.52610778808594 369.0801086425781" stroke-width="0.0" fill="rgb(63, 70, 0)" opacity="0.57093376"/>
    <path d="M 236.38243103027344 324.082763671875 C 261.3733215332031 296.6226806640625 248.52459716796875 306.988037109375 221.9597625732422 295.3421936035156 C 217.08824157714844 295.9172668457031 228.51419067382812 312.62811279296875 206.9925994873047 349.09613037109375 C 229.58184814453125 323.88336181640625 225.63426208496094 285.5643310546875 239.87962341308594 177.94154357910156 C 223.92611694335938 242.94883728027344 207.135009765625 298.1277770996094 236.38243103027344 324.082763671875" stroke-width="0.0" fill="rgb(22, 33, 5)" opacity="0.8023459"/>
    <path d="M 276.1295471191406 338.875 C 276.8177185058594 367.88031005859375 280.11090087890625 358.7061462402344 217.45045471191406 362.6607666015625 C 196.6882781982422 358.5345764160156 217.3168182373047 350.3676452636719 255.49530029296875 358.87432861328125 C 228.94503784179688 324.8900146484375 240.2353973388672 332.1119079589844 244.5760955810547 323.9595031738281 C 238.5752410888672 333.7882385253906 254.11874389648438 335.1909484863281 276.1295471191406 338.875" stroke-width="0.0" fill="rgb(89, 98, 55)" opacity="0.8878588"/>
    <path d="M 293.775390625 346.1639404296875 C 239.77310180664062 349.7266540527344 234.23353576660156 354.6026916503906 236.7530975341797 369.610107421875 C 240.7695770263672 354.1246337890625 245.9847869873047 339.73333740234375 283.05096435546875 351.8509521484375 C 237.6102752685547 333.0498352050781 247.86224365234375 336.3592224121094 247.3725128173828 327.7213134765625 C 279.0679626464844 334.510498046875 270.5654296875 347.5787658691406 293.775390625 346.1639404296875" stroke-width="0.0" fill="rgb(154, 156, 118)" opacity="0.8313239"/>
    <path d="M 267.1619873046875 317.68670654296875 C 261.3015441894531 317.0303955078125 252.28997802734375 314.162353515625 229.20697021484375 314.6827087402344 C 243.40936279296875 314.8480529785156 230.63938903808594 298.4837951660156 224.0404510498047 309.1700439453125 C 233.99647521972656 268.6382751464844 221.82508850097656 256.92022705078125 241.98609924316406 269.51123046875 C 263.7472229003906 296.21002197265625 277.0823974609375 291.59698486328125 267.1619873046875 317.68670654296875" stroke-width="0.0" fill="rgb(253, 255, 209)" opacity="0.99935216"/>
    <path d="M 339.28594970703125 334.25335693359375 C 360.1280822753906 348.8767395019531 296.1165771484375 339.0777587890625 312.17218017578125 346.71356201171875 C 352.4369812011719 348.3600158691406 332.2065124511719 348.63336181640625 302.7290344238281 339.46173095703125 C 311.2572937011719 353.43939208984375 305.97760009765625 331.7787780761719 290.0283508300781 345.5976867675781 C 318.03509521484375 327.38421630859375 379.803466796875 341.28778076171875 339.28594970703125 334.25335693359375" stroke-width="0.0" fill="rgb(125, 97, 124)" opacity="0.5536124"/>
    <path d="M 79.1217041015625 353.8883972167969 C 77.12811279296875 393.96734619140625 106.51293182373047 385.7603759765625 41.55452346801758 390.7492980957031 C 38.239559173583984 356.8389892578125 24.356369018554688 353.4967041015625 67.31067657470703 363.1958312988281 C 56.30521774291992 381.14398193359375 48.02212142944336 342.4317932128906 45.94116973876953 326.6476745605469 C 133.24777221679688 305.6192321777344 135.4165496826172 350.30279541015625 79.1217041015625 353.8883972167969" stroke-width="0.0" fill="rgb(196, 138, 40)" opacity="1.0"/>
    <path d="M 498.06732177734375 337.3597717285156 C 515.4069213867188 336.37542724609375 521.0206909179688 342.4735107421875 510.6309814453125 328.8727722167969 C 512.19873046875 354.0848388671875 495.6999816894531 335.79742431640625 520.552734375 352.2829895019531 C 528.0757446289062 349.53192138671875 508.24761962890625 342.7806396484375 499.84222412109375 344.7437744140625 C 498.8177795410156 327.7667541503906 520.275390625 348.6681213378906 498.06732177734375 337.3597717285156" stroke-width="0.0" fill="rgb(212, 163, 188)" opacity="0.5889086"/>
    <path d="M 257.27001953125 325.1819152832031 C 275.70159912109375 345.02362060546875 256.6224060058594 317.4950256347656 239.49281311035156 335.0221252441406 C 229.52784729003906 342.3770446777344 202.7553253173828 340.1735534667969 217.5513916015625 326.2810363769531 C 231.6216583251953 275.8893127441406 218.6436309814453 244.47808837890625 219.64097595214844 303.5643005371094 C 225.95819091796875 304.3355407714844 251.5135955810547 311.9541931152344 257.27001953125 325.1819152832031" stroke-width="0.0" fill="rgb(45, 0, 8)" opacity="0.4665206"/>
    <path d="M 250.8494873046875 337.58160400390625 C 243.013916015625 347.7716979980469 229.23007202148438 348.04302978515625 220.42572021484375 367.8793029785156 C 221.5293426513672 338.8978271484375 211.31719970703125 333.9145812988281 206.96182250976562 334.4551086425781 C 198.36251831054688 296.70098876953125 194.97882080078125 275.8276672363281 206.93338012695312 329.3302001953125 C 231.4005889892578 329.0353088378906 243.88055419921875 324.60430908203125 250.8494873046875 337.58160400390625" stroke-width="0.0" fill="rgb(16, 13, 26)" opacity="0.9182686"/>
    <path d="M 118.15164184570312 272.2191162109375 C 130.23165893554688 297.46173095703125 143.1513671875 312.21307373046875 111.81488037109375 309.9949035644531 C 107.05389404296875 307.6642150878906 106.0257339477539 291.31390380859375 111.13388061523438 266.2069091796875 C 115.8851089477539 289.09234619140625 113.50878143310547 256.763671875 97.28855895996094 260.5901794433594 C 116.82621002197266 281.95849609375 140.80908203125 285.7391662597656 118.15164184570312 272.2191162109375" stroke-width="0.0" fill="rgb(146, 152, 112)" opacity="0.2226845"/>
    <path d="M 16.217329025268555 -3.328960418701172 C 14.43818187713623 8.03660774230957 9.02074909210205 15.483579635620117 -0.7104756832122803 10.409072875976562 C -15.124104499816895 10.757833480834961 -19.6738224029541 4.885910987854004 -19.498825073242188 -1.1328717470169067 C -16.638795852661133 -9.463029861450195 -9.318289756774902 -16.783536911010742 -0.49774423241615295 -19.142902374267578 C 7.152373790740967 -15.131950378417969 12.524998664855957 -5.812416076660156 16.217329025268555 -3.328960418701172" stroke-width="0.0" fill="rgb(194, 126, 167)" opacity="0.7152634"/>
    <path d="M 244.9244384765625 349.7049255371094 C 238.91749572753906 358.131103515625 245.7744140625 355.5672607421875 255.70718383789062 359.32232666015625 C 211.224365234375 343.0035705566406 210.02444458007812 350.3421936035156 208.69651794433594 346.6579284667969 C 264.5766296386719 347.1595153808594 245.69085693359375 356.4509582519531 242.16143798828125 350.78533935546875 C 247.3936004638672 352.7807922363281 262.833251953125 345.774658203125 244.9244384765625 349.7049255371094" stroke-width="0.0" fill="rgb(148, 135, 68)" opacity="0.7490893"/>
    <path d="M 408.6150207519531 346.99627685546875 C 429.2768859863281 352.80560302734375 364.3418884277344 333.5341796875 434.1542053222656 332.2509765625 C 420.9311218261719 353.3567810058594 403.4720458984375 354.81475830078125 355.6795654296875 352.3450012207031 C 392.5556640625 324.81365966796875 347.8481750488281 341.233642578125 374.4385070800781 339.7947692871094 C 410.3622131347656 332.5684509277344 447.20855712890625 355.3968505859375 408.6150207519531 346.99627685546875" stroke-width="0.0" fill="rgb(172, 144, 216)" opacity="0.47496262"/>
    <path d="M 272.9501647949219 354.4469299316406 C 251.42759704589844 362.83770751953125 241.9835205078125 363.88763427734375 203.7750701904297 356.1002197265625 C 199.63104248046875 371.4453430175781 224.71644592285156 353.7254943847656 85.35586547851562 361.6428527832031 C 117.05955505371094 249.94664001464844 171.9850311279297 313.419189453125 210.13348388671875 327.0616455078125 C 213.81344604492188 325.1481018066406 234.95277404785156 333.2439880371094 272.9501647949219 354.4469299316406" stroke-width="0.0" fill="rgb(190, 130, 61)" opacity="1.0"/>
    <path d="M 310.5533447265625 397.5036926269531 C 497.3125 388.5634765625 460.3655700683594 393.85784912109375 396.6659851074219 385.15380859375 C 273.7202453613281 385.1508483886719 295.0133361816406 382.8994140625 304.337158203125 384.0651550292969 C 312.75408935546875 367.9012451171875 329.61663818359375 378.0409240722656 321.0575256347656 385.3440856933594 C 300.22637939453125 386.8284606933594 303.042236328125 370.93341064453125 310.5533447265625 397.5036926269531" stroke-width="0.0" fill="rgb(49, 39, 74)" opacity="0.6871571"/>
    <path d="M 406.8115539550781 305.3226013183594 C 413.4803771972656 320.3940124511719 447.9400939941406 354.23193359375 413.65380859375 314.520263671875 C 392.93353271484375 307.0930480957031 384.0950012207031 292.9002685546875 376.76568603515625 268.55010986328125 C 362.4270935058594 261.8752746582031 375.265869140625 247.80856323242188 374.475341796875 268.8497009277344 C 391.6769714355469 287.9380798339844 402.0968017578125 299.68157958984375 406.8115539550781 305.3226013183594" stroke-width="0.0" fill="rgb(48, 7, 9)" opacity="0.8711145"/>
    <path d="M 104.43331146240234 361.0138854980469 C 100.79159545898438 357.78717041015625 106.94888305664062 350.7976989746094 100.24932098388672 345.04852294921875 C 96.00457763671875 367.058837890625 87.66947937011719 362.9346618652344 89.62377166748047 341.57952880859375 C 89.3106689453125 352.09375 101.54234313964844 348.0146789550781 105.1348876953125 350.38861083984375 C 97.24836730957031 346.605224609375 97.9296875 341.219970703125 104.43331146240234 361.0138854980469" stroke-width="0.0" fill="rgb(54, 35, 2)" opacity="0.71685684"/>
    <path d="M 270.65789794921875 350.96148681640625 C 258.1116027832031 319.7232971191406 254.69754028320312 318.6595153808594 224.78759765625 312.4403076171875 C 238.9813690185547 317.0050354003906 225.7296600341797 316.68914794921875 227.90158081054688 307.0877685546875 C 230.47467041015625 329.4646911621094 248.35655212402344 308.568359375 226.27899169921875 304.443359375 C 216.49717712402344 336.8448181152344 225.46409606933594 336.2422790527344 270.65789794921875 350.96148681640625" stroke-width="0.0" fill="rgb(0, 0, 23)" opacity="1.0"/>
    <path d="M 310.7289123535156 390.8492736816406 C 297.45733642578125 403.8903503417969 298.1707763671875 405.39935302734375 286.5958557128906 393.84613037109375 C 289.0617980957031 385.66473388671875 282.5950012207031 395.7860107421875 283.4495849609375 390.16033935546875 C 292.04364013671875 389.2889404296875 300.75 384.194580078125 301.8863525390625 371.579345703125 C 308.6376953125 387.04095458984375 311.20849609375 387.4201965332031 310.7289123535156 390.8492736816406" stroke-width="0.0" fill="rgb(146, 89, 101)" opacity="0.7886684"/>
    <path d="M 11.831145286560059 -10.885336875915527 C 12.447004318237305 7.9143853187561035 8.582743644714355 16.321313858032227 -8.934711456298828 18.505754470825195 C -17.591257095336914 25.922941207885742 -20.17290687561035 15.859406471252441 -19.749055862426758 0.6980464458465576 C -17.053682327270508 -9.359038352966309 -9.733175277709961 -16.67954444885254 3.968672275543213 -21.82984161376953 C 16.61027717590332 -22.951019287109375 24.21518898010254 -15.914241790771484 11.831145286560059 -10.885336875915527" stroke-width="0.0" fill="rgb(61, 135, 243)" opacity="0.78121"/>
    <path d="M 491.4117431640625 390.43792724609375 C 494.60302734375 393.82611083984375 467.2180480957031 390.41473388671875 458.4560546875 399.73651123046875 C 461.3131103515625 409.16754150390625 446.33740234375 401.1446533203125 439.3724365234375 389.00732421875 C 427.86553955078125 361.7938537597656 431.84136962890625 368.39752197265625 453.7073059082031 364.4094543457031 C 483.2443542480469 363.40362548828125 489.5020446777344 364.0256042480469 491.4117431640625 390.43792724609375" stroke-width="0.0" fill="rgb(161, 107, 69)" opacity="0.935922"/>
    <path d="M 360.5309143066406 279.5968322753906 C 370.8458557128906 283.0699768066406 372.1100158691406 325.6676940917969 346.7984313964844 364.9086608886719 C 328.4464416503906 345.68182373046875 361.4972229003906 297.485595703125 367.1578369140625 277.541015625 C 332.54193115234375 309.8897705078125 362.642333984375 283.9052429199219 371.00909423828125 272.1268615722656 C 367.6862487792969 308.33074951171875 360.0683898925781 322.0536193847656 360.5309143066406 279.5968322753906" stroke-width="0.0" fill="rgb(42, 4, 47)" opacity="0.8131126"/>
    <path d="M 438.16400146484375 386.18927001953125 C 434.552978515625 389.0133056640625 448.0065002441406 392.33642578125 406.90020751953125 391.5030822753906 C 440.63409423828125 380.1005859375 437.5136413574219 388.3574523925781 424.9735107421875 395.7315368652344 C 416.1117858886719 364.7591247558594 433.4013671875 372.62115478515625 382.3697509765625 370.6351013183594 C 436.03564453125 374.1051330566406 425.8932189941406 384.7641296386719 438.16400146484375 386.18927001953125" stroke-width="0.0" fill="rgb(33, 34, 3)" opacity="0.8034235"/>
    <path d="M 19.34593391418457 382.5907897949219 C 39.62559509277344 369.0984191894531 29.694726943969727 399.5313415527344 31.162431716918945 404.9565124511719 C 28.90243911743164 397.4909362792969 21.537813186645508 388.8921813964844 34.51942825317383 396.1531066894531 C 17.20250129699707 405.18011474609375 8.34880256652832 394.95635986328125 13.756514549255371 380.79461669921875 C 16.165359497070312 377.2142639160156 42.74147415161133 379.27996826171875 19.34593391418457 382.5907897949219" stroke-width="0.0" fill="rgb(1, 17, 69)" opacity="0.7873696"/>
    <path d="M 94.0095443725586 344.86114501953125 C 98.05413055419922 358.63037109375 110.03325653076172 368.9945068359375 92.39740753173828 368.8650817871094 C 98.45265197753906 357.7254333496094 85.72095489501953 357.752685546875 87.88526916503906 370.077880859375 C 85.60086059570312 353.07958984375 82.58392333984375 341.677490234375 84.19009399414062 339.40301513671875 C 82.89079284667969 340.65570068359375 99.56905364990234 344.8808898925781 94.0095443725586 344.86114501953125" stroke-width="0.0" fill="rgb(181, 180, 177)" opacity="0.5422495"/>
    <path d="M 414.3242492675781 387.827392578125 C 413.52630615234375 387.284912109375 407.1610412597656 385.58001708984375 405.21197509765625 383.63458251953125 C 416.2388000488281 391.44354248046875 404.3128662109375 387.5485534667969 406.307861328125 398.6595153808594 C 415.778076171875 392.0041198730469 400.4278869628906 376.6602478027344 416.8906555175781 379.350830078125 C 434.9818115234375 377.4888000488281 434.652099609375 395.72943115234375 414.3242492675781 387.827392578125" stroke-width="0.0" fill="rgb(62, 25, 48)" opacity="0.59471107"/>
    <path d="M 127.2131576538086 384.2113342285156 C 120.6485595703125 369.20416259765625 130.4136199951172 370.037109375 132.7139129638672 394.54833984375 C 120.6246337890625 404.1345520019531 113.6748275756836 397.1544189453125 108.3058853149414 385.3741455078125 C 98.91485595703125 369.7308349609375 98.26719665527344 383.92120361328125 100.57131958007812 387.6025085449219 C 135.58071899414062 389.879150390625 135.8843231201172 403.94195556640625 127.2131576538086 384.2113342285156" stroke-width="0.0" fill="rgb(79, 41, 2)" opacity="0.66080016"/>
    <path d="M 200.30807495117188 322.3658142089844 C 132.57008361816406 294.53814697265625 141.88377380371094 293.55908203125 135.811279296875 289.75469970703125 C 157.7371826171875 291.7445983886719 148.7261199951172 297.7400207519531 151.96376037597656 301.0052185058594 C 137.171875 301.86480712890625 149.0745849609375 310.8581237792969 148.2316436767578 282.0538330078125 C 192.08612060546875 295.18841552734375 185.51182556152344 288.809814453125 200.30807495117188 322.3658142089844" stroke-width="0.0" fill="rgb(0, 0, 21)" opacity="1.0"/>
    <path d="M 94.03491973876953 399.3319091796875 C 102.3538589477539 397.0379638671875 81.8785400390625 400.3408203125 113.81690216064453 396.5383605957031 C 113.87419128417969 401.45135498046875 109.26370239257812 387.3970642089844 104.97742462158203 388.38885498046875 C 102.78072357177734 392.3097839355469 96.85777282714844 365.38232421875 100.96417999267578 346.86468505859375 C 80.39176940917969 347.7984619140625 83.08881378173828 393.81536865234375 94.03491973876953 399.3319091796875" stroke-width="0.0" fill="rgb(98, 82, 23)" opacity="0.16367735"/>
    <path d="M 353.25494384765625 299.79046630859375 C 367.37353515625 325.50946044921875 382.2073059082031 308.2357482910156 370.03228759765625 287.1336975097656 C 363.75799560546875 326.5030822753906 362.3849182128906 326.6366271972656 362.8874206542969 337.8301086425781 C 362.568115234375 303.3941345214844 368.6388244628906 301.60302734375 373.1032409667969 295.7898254394531 C 375.6845703125 269.0231628417969 364.422119140625 261.4571838378906 353.25494384765625 299.79046630859375" stroke-width="0.0" fill="rgb(138, 54, 100)" opacity="0.5419065"/>
    <path d="M 426.125732421875 343.02655029296875 C 422.1373596191406 335.0520324707031 426.8480529785156 339.145263671875 396.3532409667969 335.907958984375 C 400.69970703125 333.2154541015625 393.24493408203125 340.5060119628906 416.5016174316406 349.3135986328125 C 424.3343505859375 349.2862854003906 390.806396484375 306.7901916503906 402.7777099609375 300.5110168457031 C 416.8441467285156 322.333251953125 429.962158203125 334.28314208984375 426.125732421875 343.02655029296875" stroke-width="0.0" fill="rgb(24, 32, 4)" opacity="0.57588685"/>
    <path d="M 160.71771240234375 225.57913208007812 C 162.6344757080078 238.56268310546875 150.5619354248047 260.3962097167969 137.03233337402344 288.0036926269531 C 140.4182891845703 246.692138671875 155.65225219726562 239.97109985351562 148.5686492919922 241.29017639160156 C 142.92149353027344 257.1727294921875 165.1463165283203 240.563720703125 172.4736785888672 207.81158447265625 C 162.6174774169922 252.19363403320312 152.4942169189453 274.4222106933594 160.71771240234375 225.57913208007812" stroke-width="0.0" fill="rgb(48, 21, 0)" opacity="0.54969144"/>
    <path d="M 71.10082244873047 298.3009948730469 C 75.76030731201172 302.1246643066406 84.26270294189453 319.4342346191406 76.17257690429688 304.1690368652344 C 62.27528762817383 311.6244812011719 62.17039489746094 303.4826354980469 58.32776641845703 285.3651428222656 C 64.06788635253906 273.1015319824219 82.42636108398438 281.8160705566406 85.24532318115234 299.82525634765625 C 70.8749008178711 298.5001525878906 86.74552154541016 306.1338195800781 71.10082244873047 298.3009948730469" stroke-width="0.0" fill="rgb(73, 151, 202)" opacity="0.93745035"/>
    <path d="M 14.644782066345215 -9.023390769958496 C 12.221842765808105 7.150913238525391 8.31083869934082 18.650665283203125 -0.325872540473938 22.259864807128906 C -8.846863746643066 15.026347160339355 -17.668840408325195 9.883000373840332 -19.55624008178711 -0.307071715593338 C -17.208955764770508 -9.565235137939453 -9.888447761535645 -16.8857421875 0.1115528866648674 -19.565235137939453 C 10.111727714538574 -16.885787963867188 17.447769165039062 -9.5696439743042 14.644782066345215 -9.023390769958496" stroke-width="0.0" fill="rgb(101, 195, 55)" opacity="0.73661125"/>
    <path d="M 14.996542930603027 -4.921730995178223 C 7.794496536254883 -0.6496883034706116 -1.4755529165267944 2.991642713546753 3.928621292114258 9.461922645568848 C -0.6041280627250671 8.737585067749023 -13.023436546325684 5.223349094390869 -19.094024658203125 1.120032787322998 C -16.866783142089844 -9.046184539794922 -9.546276092529297 -16.36669158935547 0.23494838178157806 -18.832874298095703 C 4.631711006164551 -10.717373847961426 7.965632915496826 -0.7376255393028259 14.996542930603027 -4.921730995178223" stroke-width="0.0" fill="rgb(94, 40, 77)" opacity="0.68547565"/>
    <path d="M 16.062803268432617 -0.009419858455657959 C 15.28022289276123 9.56547737121582 3.397186517715454 15.178339004516602 2.0551419258117676 18.96888542175293 C -11.649065971374512 19.902944564819336 -23.957244873046875 17.64264488220215 -28.100561141967773 9.705825805664062 C -16.44465446472168 -9.736611366271973 -9.124147415161133 -17.057117462158203 3.677194833755493 -21.93426513671875 C 15.473578453063965 -24.056604385375977 23.35805320739746 -16.968862533569336 16.062803268432617 -0.009419858455657959" stroke-width="0.0" fill="rgb(215, 101, 103)" opacity="0.81343305"/>
    <path d="M 408.503662109375 325.39886474609375 C 389.326904296875 320.7805480957031 382.2287902832031 319.5675964355469 385.3332214355469 334.3796691894531 C 398.4876708984375 340.8226013183594 388.119140625 335.7552185058594 398.72686767578125 320.25634765625 C 398.3695983886719 348.280029296875 388.95477294921875 339.1839294433594 366.0337219238281 348.9358215332031 C 395.1080322265625 349.59521484375 403.908935546875 325.9724426269531 408.503662109375 325.39886474609375" stroke-width="0.0" fill="rgb(6, 28, 12)" opacity="0.66349024"/>
    <path d="M 33.53013610839844 370.91998291015625 C 42.9676628112793 371.1125183105469 37.40461730957031 376.2762756347656 44.25851821899414 396.0469665527344 C 27.138607025146484 391.9397888183594 28.755352020263672 389.9445495605469 37.576107025146484 395.3793029785156 C 38.0770378112793 392.20654296875 31.468578338623047 369.3509826660156 35.440757751464844 370.5536193847656 C 31.257984161376953 364.70635986328125 39.324424743652344 369.4748229980469 33.53013610839844 370.91998291015625" stroke-width="0.0" fill="rgb(44, 18, 4)" opacity="0.71649945"/>
    <path d="M 137.47970581054688 276.2417297363281 C 142.41624450683594 286.9170227050781 137.84478759765625 290.9097595214844 141.49217224121094 272.25738525390625 C 142.40733337402344 267.4595947265625 132.90335083007812 293.5295715332031 134.9994659423828 298.0466613769531 C 138.806640625 288.8871765136719 148.104248046875 269.3292236328125 144.48562622070312 270.44732666015625 C 142.04342651367188 275.4161682128906 146.71456909179688 276.11395263671875 137.47970581054688 276.2417297363281" stroke-width="0.0" fill="rgb(201, 100, 133)" opacity="0.7249938"/>
    <path d="M 139.01820373535156 273.7242736816406 C 149.89329528808594 287.7451171875 138.896240234375 297.6157531738281 130.5086212158203 304.5516357421875 C 140.42245483398438 302.7424621582031 143.21432495117188 293.3809814453125 132.799072265625 288.9964904785156 C 135.14437866210938 299.4255065917969 129.5984344482422 280.7351379394531 172.7263946533203 209.29483032226562 C 139.26095581054688 302.50482177734375 140.68942260742188 298.5930480957031 139.01820373535156 273.7242736816406" stroke-width="0.0" fill="rgb(54, 9, 20)" opacity="0.85310054"/>
    <path d="M 20.298444747924805 0.6389495134353638 C 17.61895179748535 10.638949394226074 10.298444747924805 17.959457397460938 0.2984447777271271 20.63895034790039 C -9.701555252075195 17.959457397460938 -17.022062301635742 10.638949394226074 -19.701555252075195 0.6389495134353638 C -17.022062301635742 -9.361050605773926 -9.701555252075195 -16.681556701660156 0.2984447777271271 -19.36104965209961 C 10.298444747924805 -16.681556701660156 17.61895179748535 -9.361050605773926 20.298444747924805 0.6389495134353638" stroke-width="0.0" fill="rgb(52, 28, 68)" opacity="0.85935086"/>
    <path d="M 296.7326354980469 390.087890625 C 294.4967041015625 396.79388427734375 291.49188232421875 400.9888000488281 293.8525695800781 391.6518249511719 C 294.8948669433594 403.84210205078125 303.50286865234375 392.07928466796875 286.9148864746094 379.5592041015625 C 286.1443176269531 393.3042297363281 287.2634582519531 376.706787109375 313.6568603515625 376.0302734375 C 305.611083984375 407.23284912109375 310.0723876953125 418.9090270996094 296.7326354980469 390.087890625" stroke-width="0.0" fill="rgb(143, 115, 71)" opacity="0.7339229"/>
    <path d="M 435.2613525390625 352.1607666015625 C 422.7627258300781 322.9061279296875 421.3860778808594 333.40191650390625 409.040771484375 325.4274597167969 C 384.4057922363281 334.3310546875 403.3929443359375 322.5058898925781 392.35760498046875 336.2668151855469 C 398.2601623535156 324.5771179199219 417.4460754394531 344.0799560546875 423.5406494140625 354.5837707519531 C 401.1011047363281 355.3782958984375 428.57843017578125 352.03179931640625 435.2613525390625 352.1607666015625" stroke-width="0.0" fill="rgb(94, 105, 86)" opacity="0.67611235"/>
    <path d="M 19.6127872467041 -2.7833783626556396 C 10.946205139160156 3.7054922580718994 3.7849273681640625 11.748151779174805 -4.528692245483398 17.159217834472656 C -14.588274955749512 22.455522537231445 -17.05755615234375 10.720012664794922 -19.499805450439453 0.17958210408687592 C -16.819921493530273 -9.821348190307617 -9.49941349029541 -17.141855239868164 0.5003364682197571 -19.821237564086914 C 10.307729721069336 -17.050376892089844 11.317301750183105 -4.605976581573486 19.6127872467041 -2.7833783626556396" stroke-width="0.0" fill="rgb(49, 8, 7)" opacity="0.9615597"/>
    <path d="M 372.2051086425781 266.8982238769531 C 366.9129638671875 319.73974609375 355.44683837890625 338.8800964355469 360.6805114746094 348.4938659667969 C 381.3592529296875 346.61102294921875 370.54669189453125 333.1206359863281 374.9789123535156 322.9326477050781 C 364.4728088378906 327.5179138183594 362.31390380859375 325.2799987792969 389.5917663574219 328.3031311035156 C 385.3204345703125 330.928955078125 393.8854675292969 326.6857604980469 372.2051086425781 266.8982238769531" stroke-width="0.0" fill="rgb(249, 248, 243)" opacity="0.37196812"/>
    <path d="M 263.1168212890625 283.8123779296875 C 262.2031555175781 264.1425476074219 261.4638366699219 267.7811584472656 271.31036376953125 295.7784729003906 C 261.1092529296875 311.3492736816406 264.3357238769531 288.59136962890625 267.0499267578125 274.6006164550781 C 265.6408996582031 276.3486633300781 263.630615234375 291.0135803222656 259.0373229980469 269.3978576660156 C 265.5777587890625 273.1793212890625 271.7853698730469 296.5047912597656 263.1168212890625 283.8123779296875" stroke-width="0.0" fill="rgb(91, 47, 29)" opacity="0.80766606"/>
    <path d="M 391.6337890625 352.1026611328125 C 429.56658935546875 344.8892822265625 385.554931640625 341.1071472167969 377.98529052734375 341.2620849609375 C 354.6595458984375 363.3896179199219 337.50201416015625 353.5 361.589599609375 333.747314453125 C 387.1534118652344 354.79608154296875 404.7830505371094 345.90399169921875 397.1314392089844 332.8023681640625 C 364.9503173828125 338.94586181640625 369.4440002441406 360.12188720703125 391.6337890625 352.1026611328125" stroke-width="0.0" fill="rgb(56, 28, 107)" opacity="0.7866871"/>
    <path d="M 304.9999694824219 378.2760925292969 C 312.2403869628906 358.17266845703125 298.3554382324219 361.4649658203125 299.9840393066406 364.6878356933594 C 305.230712890625 361.66845703125 292.33587646484375 376.416015625 277.6043395996094 384.91339111328125 C 308.1149597167969 384.4176025390625 312.1331481933594 382.75860595703125 285.2998046875 392.77960205078125 C 275.44317626953125 382.5622863769531 280.00225830078125 380.5536193847656 304.9999694824219 378.2760925292969" stroke-width="0.0" fill="rgb(165, 86, 62)" opacity="0.50474215"/>
    <path d="M 351.72943115234375 57.372772216796875 C 359.8122863769531 95.81544494628906 334.33203125 83.48912811279297 275.2497863769531 87.42185974121094 C 268.88470458984375 89.39591979980469 270.8617858886719 73.82217407226562 275.9245910644531 47.30652618408203 C 282.9322814941406 31.4163818359375 288.98468017578125 24.883291244506836 299.0122375488281 35.48943328857422 C 326.89166259765625 34.47611618041992 344.47637939453125 30.70414161682129 351.72943115234375 57.372772216796875" stroke-width="0.0" fill="rgb(93, 145, 191)" opacity="0.6866225"/>
    <path d="M 92.44734191894531 336.3293762207031 C 79.71549224853516 335.2178039550781 57.892250061035156 333.5185546875 69.72073364257812 351.9612731933594 C 87.10873413085938 346.8704833984375 81.35072326660156 330.8653564453125 79.55066680908203 356.06011962890625 C 89.02745819091797 353.78302001953125 91.93415832519531 349.0992736816406 69.87094116210938 347.5279541015625 C 74.13663482666016 361.63995361328125 91.38180541992188 360.2132568359375 92.44734191894531 336.3293762207031" stroke-width="0.0" fill="rgb(184, 143, 49)" opacity="0.5404024"/>
    <path d="M 57.71982955932617 367.8218994140625 C 72.917724609375 373.25274658203125 66.66094970703125 404.75848388671875 56.98267364501953 401.3972473144531 C 55.81867599487305 380.4140930175781 49.0736198425293 379.09307861328125 64.3315200805664 393.5806884765625 C 60.81525802612305 386.05340576171875 60.215030670166016 377.9432678222656 49.10072708129883 370.4063720703125 C 60.97575759887695 379.6784973144531 50.30149459838867 383.3677978515625 57.71982955932617 367.8218994140625" stroke-width="0.0" fill="rgb(95, 85, 50)" opacity="0.16112413"/>
    <path d="M 362.31109619140625 415.72259521484375 C 357.2401428222656 438.94903564453125 344.6561279296875 441.9184265136719 323.9232177734375 440.89739990234375 C 315.8992614746094 441.0012512207031 310.71783447265625 432.9463806152344 303.51519775390625 427.7977294921875 C 299.5083312988281 402.4559020996094 290.1886291503906 396.787841796875 303.8825988769531 397.2770080566406 C 346.9547119140625 392.268310546875 365.7915344238281 398.59869384765625 362.31109619140625 415.72259521484375" stroke-width="0.0" fill="rgb(201, 155, 101)" opacity="1.0"/>
    <path d="M 20.608970642089844 0.1528392732143402 C 17.92947769165039 10.152839660644531 10.608970642089844 17.473346710205078 0.6089702248573303 20.15283966064453 C -9.391029357910156 17.473346710205078 -16.711536407470703 10.152839660644531 -19.391029357910156 0.1528392732143402 C -16.711536407470703 -9.847160339355469 -9.391029357910156 -17.167667388916016 0.6089702248573303 -19.84716033935547 C 10.608970642089844 -17.167667388916016 17.92947769165039 -9.847160339355469 20.608970642089844 0.1528392732143402" stroke-width="0.0" fill="rgb(238, 10, 31)" opacity="0.9801625"/>
    <path d="M 420.50665283203125 334.2696533203125 C 403.861083984375 336.9468994140625 387.62445068359375 341.087646484375 369.8678894042969 339.70648193359375 C 378.9273986816406 330.5321350097656 371.5497131347656 328.6466979980469 362.7237243652344 327.4355163574219 C 365.0486755371094 301.8746643066406 368.8734436035156 292.12548828125 377.422607421875 280.17333984375 C 394.1643371582031 301.3260498046875 403.8741149902344 308.2232360839844 420.50665283203125 334.2696533203125" stroke-width="0.0" fill="rgb(246, 250, 204)" opacity="0.90746504"/>
    <path d="M 113.2829360961914 516.0634765625 C 112.55612182617188 533.5101928710938 115.47628021240234 536.22900390625 100.70604705810547 522.8471069335938 C 90.02516174316406 532.461669921875 88.3061752319336 520.45703125 91.4938735961914 523.8798217773438 C 82.28617095947266 519.6515502929688 88.21461486816406 515.2689819335938 80.70442199707031 513.3417358398438 C 86.60733032226562 519.3107299804688 109.65308380126953 520.7560424804688 113.2829360961914 516.0634765625" stroke-width="0.0" fill="rgb(93, 158, 165)" opacity="0.4132904"/>
    <path d="M 21.491065979003906 -5.953989028930664 C 19.055845260620117 11.333588600158691 10.975933074951172 18.64291763305664 -0.6141884326934814 24.52033233642578 C -10.587287902832031 19.486412048339844 -14.128580093383789 8.549980163574219 -16.427406311035156 -2.942936420440674 C -16.407878875732422 -9.129481315612793 -9.087371826171875 -16.449989318847656 6.189155578613281 -22.368061065673828 C 19.116729736328125 -24.305511474609375 26.613779067993164 -17.573211669921875 21.491065979003906 -5.953989028930664" stroke-width="0.0" fill="rgb(115, 156, 208)" opacity="0.8117437"/>
    <path d="M 617.9760131835938 584.6533813476562 C 615.1087036132812 594.8724975585938 607.8474731445312 602.2750244140625 610.9756469726562 599.3102416992188 C 598.0252685546875 593.6834716796875 586.6829223632812 589.23876953125 579.5927124023438 581.910400390625 C 576.8323974609375 574.5682373046875 595.772705078125 575.0860595703125 609.5473022460938 569.5391235351562 C 613.2534790039062 562.4452514648438 618.6641235351562 571.0630493164062 617.9760131835938 584.6533813476562" stroke-width="0.0" fill="rgb(110, 146, 179)" opacity="0.6464191"/>
    <path d="M 45.953399658203125 163.55612182617188 C 49.88252258300781 178.73544311523438 42.050804138183594 183.16725158691406 12.883387565612793 175.75643920898438 C -9.269027709960938 179.4614715576172 -13.85799503326416 176.2648468017578 -15.090774536132812 150.4335174560547 C -8.918037414550781 130.00070190429688 -1.4930425882339478 124.53846740722656 19.198474884033203 134.48202514648438 C 39.05261993408203 132.04129028320312 38.89581298828125 137.65980529785156 45.953399658203125 163.55612182617188" stroke-width="0.0" fill="rgb(92, 150, 197)" opacity="0.59507304"/>
    <path d="M 268.9484558105469 208.8229522705078 C 265.2444763183594 205.21847534179688 259.0446472167969 208.51727294921875 265.84033203125 212.48992919921875 C 252.1236572265625 210.3299560546875 240.3291015625 189.00779724121094 245.04437255859375 209.18861389160156 C 253.1263885498047 238.8861083984375 266.1877746582031 229.14012145996094 264.71923828125 212.99493408203125 C 256.39471435546875 193.6016387939453 265.6415100097656 200.64002990722656 268.9484558105469 208.8229522705078" stroke-width="0.0" fill="rgb(254, 254, 206)" opacity="0.70125836"/>
    <path d="M 20.762510299682617 0.5393790006637573 C 18.083017349243164 10.539379119873047 10.762510299682617 17.859886169433594 0.7625107765197754 20.539379119873047 C -9.237489700317383 17.859886169433594 -16.55799674987793 10.539379119873047 -19.237489700317383 0.5393790006637573 C -16.55799674987793 -9.460620880126953 -9.237489700317383 -16.7811279296875 0.7625107765197754 -19.460620880126953 C 10.762510299682617 -16.7811279296875 18.083017349243164 -9.460620880126953 20.762510299682617 0.5393790006637573" stroke-width="0.0" fill="rgb(80, 129, 10)" opacity="0.995989"/>
    <path d="M 270.4569091796875 184.09591674804688 C 274.4635925292969 182.13778686523438 277.0220947265625 189.71044921875 244.43930053710938 182.4171600341797 C 231.52783203125 199.6962890625 234.87451171875 171.32627868652344 235.67454528808594 153.70510864257812 C 224.6181640625 147.59776306152344 239.4686737060547 144.10353088378906 246.70985412597656 144.17738342285156 C 255.03184509277344 158.85182189941406 261.57037353515625 165.39869689941406 270.4569091796875 184.09591674804688" stroke-width="0.0" fill="rgb(255, 255, 219)" opacity="0.75575536"/>
    <path d="M 393.87347412109375 435.5009460449219 C 406.06610107421875 434.5451965332031 383.45159912109375 435.7173767089844 374.56793212890625 430.9205322265625 C 362.8677978515625 435.44573974609375 351.994873046875 439.01629638671875 361.09747314453125 423.86663818359375 C 379.9512023925781 429.9737243652344 383.40838623046875 432.9066162109375 387.97900390625 419.33538818359375 C 404.0064697265625 403.264404296875 389.14849853515625 421.0071716308594 393.87347412109375 435.5009460449219" stroke-width="0.0" fill="rgb(216, 138, 128)" opacity="0.4015104"/>
    <path d="M 167.86520385742188 601.567626953125 C 185.92799377441406 607.6644287109375 175.8815155029297 611.2257080078125 136.25140380859375 618.1691284179688 C 110.95938873291016 618.2722778320312 101.34893798828125 613.1948852539062 101.07073211669922 586.230224609375 C 107.11265563964844 564.0191650390625 112.7457504272461 566.5867919921875 128.36012268066406 570.0692749023438 C 146.1103973388672 567.2604370117188 158.24716186523438 576.4423828125 167.86520385742188 601.567626953125" stroke-width="0.0" fill="rgb(87, 160, 166)" opacity="0.6579775"/>
  </g>
</svg>
