<?xml version="1.0" ?>
<svg xmlns="http://www.w3.org/2000/svg" version="1.1" width="600" height="600">
  <defs/>
  <g>
    <path d="M 362.1339111328125 618.3334350585938 C 376.0151672363281 620.3992919921875 361.7762451171875 622.1270141601562 247.12710571289062 626.4426879882812 C 204.7360382080078 613.7620849609375 217.51380920410156 577.5720825195312 203.56494140625 489.8141784667969 C 181.56564331054688 467.1729736328125 190.5502471923828 492.947998046875 288.5758056640625 490.1176452636719 C 323.30328369140625 467.63775634765625 336.0631103515625 476.73944091796875 362.1339111328125 618.3334350585938" stroke-width="0.0" fill="rgb(40, 132, 167)" opacity="0.98906153"/>
    <path d="M 391.8298645019531 15.652926445007324 C 353.179443359375 99.61324310302734 326.3735046386719 96.99658966064453 255.033203125 108.82582092285156 C 193.92486572265625 102.34815979003906 178.41387939453125 95.62671661376953 185.86045837402344 -1.469553828239441 C 217.3942413330078 -16.099058151245117 222.67803955078125 -23.102506637573242 285.0916442871094 -24.658903121948242 C 343.4556579589844 -12.384814262390137 353.4875183105469 -12.939854621887207 391.8298645019531 15.652926445007324" stroke-width="0.0" fill="rgb(16, 101, 206)" opacity="0.9213879"/>
    <path d="M 231.96804809570312 572.1078491210938 C 227.6826934814453 648.5947265625 200.16111755371094 634.8012084960938 144.644287109375 621.348388671875 C 88.1945571899414 633.530517578125 68.22022247314453 638.3309326171875 45.697296142578125 598.6818237304688 C 74.77537536621094 526.2050170898438 94.31217193603516 524.2952880859375 179.58535766601562 493.8200988769531 C 235.7524871826172 484.929931640625 236.23678588867188 496.7788391113281 231.96804809570312 572.1078491210938" stroke-width="0.0" fill="rgb(28, 145, 172)" opacity="1.0"/>
    <path d="M 633.670166015625 193.9540557861328 C 666.2230834960938 325.0910949707031 699.0862426757812 356.2928771972656 522.2467041015625 347.438232421875 C 434.3296813964844 278.635498046875 463.11993408203125 211.14012145996094 411.67718505859375 174.2356719970703 C 410.59674072265625 60.91086959838867 439.91925048828125 67.12948608398438 592.8353881835938 17.658275604248047 C 616.752197265625 33.889732360839844 631.4141235351562 35.574100494384766 633.670166015625 193.9540557861328" stroke-width="0.0" fill="rgb(28, 119, 202)" opacity="0.981502"/>
    <path d="M 406.1415710449219 388.3731384277344 C 340.91741943359375 544.111083984375 325.36431884765625 539.644287109375 280.80352783203125 513.2380981445312 C 222.4431915283203 519.6146850585938 194.44618225097656 539.4345092773438 181.48504638671875 384.2781066894531 C 128.8752899169922 293.9250183105469 94.39765930175781 258.8401794433594 301.7867431640625 260.9152526855469 C 452.6494445800781 329.3822021484375 452.9981384277344 341.6528015136719 406.1415710449219 388.3731384277344" stroke-width="0.0" fill="rgb(130, 123, 99)" opacity="0.9360872"/>
    <path d="M 552.4105224609375 197.86207580566406 C 563.368896484375 301.4682312011719 542.7120971679688 325.1661376953125 335.5990905761719 348.7448425292969 C 268.9757385253906 314.5059509277344 268.2699279785156 250.2685546875 148.76248168945312 126.0514907836914 C 259.7900085449219 50.2952995300293 320.5578918457031 91.27666473388672 405.92254638671875 62.525630950927734 C 457.8291931152344 80.81684875488281 462.2943420410156 97.08748626708984 552.4105224609375 197.86207580566406" stroke-width="0.0" fill="rgb(255, 255, 218)" opacity="1.0"/>
    <path d="M 457.8535461425781 96.38526153564453 C 420.9338073730469 151.66439819335938 413.9295959472656 168.26687622070312 373.965087890625 259.04547119140625 C 319.06890869140625 174.04908752441406 289.8857421875 170.37599182128906 295.011962890625 158.56333923339844 C 331.782958984375 79.7701416015625 326.42083740234375 47.97584533691406 378.1690673828125 53.23597717285156 C 430.4767150878906 51.46982192993164 443.39251708984375 50.092445373535156 457.8535461425781 96.38526153564453" stroke-width="0.0" fill="rgb(28, 39, 66)" opacity="0.75483364"/>
    <path d="M 214.5600128173828 358.58270263671875 C 198.4636688232422 559.34130859375 182.84246826171875 560.8995361328125 122.96444702148438 550.5933227539062 C 1.920579195022583 568.6305541992188 -26.803804397583008 585.2315063476562 -42.395912170410156 360.6431884765625 C -60.40395736694336 288.0334167480469 -81.45380401611328 262.9468078613281 156.91287231445312 190.85511779785156 C 269.83929443359375 241.26210021972656 238.05123901367188 295.2377624511719 214.5600128173828 358.58270263671875" stroke-width="0.0" fill="rgb(39, 139, 169)" opacity="0.98874056"/>
    <path d="M 226.45106506347656 173.2728271484375 C 232.4668426513672 179.69207763671875 242.0308837890625 223.478759765625 212.9475860595703 313.34423828125 C -59.28062057495117 275.79931640625 -58.180381774902344 274.259521484375 -19.066099166870117 245.15672302246094 C 72.47405242919922 44.89595413208008 98.00790405273438 41.2443733215332 139.43931579589844 21.3975772857666 C 140.31710815429688 34.38947677612305 151.03575134277344 39.6781120300293 226.45106506347656 173.2728271484375" stroke-width="0.0" fill="rgb(8, 0, 2)" opacity="1.0"/>
    <path d="M 151.10406494140625 -8.840010643005371 C 134.95359802246094 65.09558868408203 126.31748962402344 77.41411590576172 23.10712242126465 180.31495666503906 C -27.42172622680664 168.4124298095703 -35.640628814697266 158.76206970214844 -38.290592193603516 66.87051391601562 C -10.15634822845459 -47.66112518310547 14.742843627929688 -33.53483581542969 89.936279296875 -21.33711051940918 C 151.1575469970703 -21.015972137451172 168.96649169921875 -18.41303253173828 151.10406494140625 -8.840010643005371" stroke-width="0.0" fill="rgb(47, 139, 170)" opacity="1.0"/>
    <path d="M 219.71371459960938 501.82330322265625 C 187.51490783691406 591.2432250976562 156.55401611328125 576.5668334960938 42.66184616088867 616.45458984375 C 0.23427404463291168 625.3421630859375 -13.263816833496094 623.44775390625 -75.76820373535156 566.3307495117188 C -65.66148376464844 453.0377502441406 -18.453447341918945 480.28289794921875 68.29534912109375 460.9473876953125 C 138.45675659179688 446.4713134765625 185.0154266357422 452.5591735839844 219.71371459960938 501.82330322265625" stroke-width="0.0" fill="rgb(33, 146, 177)" opacity="1.0"/>
    <path d="M 659.8203125 51.21890640258789 C 599.2227172851562 157.4330291748047 550.6328735351562 146.62432861328125 458.0297546386719 180.7056884765625 C 412.0989990234375 162.11990356445312 408.660400390625 136.35638427734375 417.3211669921875 111.63004302978516 C 433.1488342285156 37.54551315307617 440.2275695800781 7.821625232696533 532.2362670898438 -27.17457389831543 C 586.9144287109375 -28.29412841796875 607.3546142578125 -33.93719482421875 659.8203125 51.21890640258789" stroke-width="0.0" fill="rgb(55, 155, 165)" opacity="1.0"/>
    <path d="M 640.2666015625 379.7462158203125 C 615.0821533203125 682.791015625 603.6884765625 678.2999267578125 520.8953857421875 664.6799926757812 C 328.63848876953125 639.05615234375 345.044921875 615.271728515625 344.21533203125 505.3594055175781 C 306.8742370605469 376.93560791015625 277.68060302734375 368.8858642578125 511.95233154296875 371.5082702636719 C 614.409423828125 313.71429443359375 633.4464721679688 317.6226501464844 640.2666015625 379.7462158203125" stroke-width="0.0" fill="rgb(46, 121, 200)" opacity="0.9847825"/>
    <path d="M 184.45193481445312 37.71431350708008 C 148.538330078125 144.66879272460938 243.80194091796875 110.23908996582031 277.44000244140625 346.257568359375 C 186.97894287109375 124.9736328125 127.35761260986328 120.35162353515625 115.5441665649414 39.623146057128906 C 114.991455078125 -30.446041107177734 116.03833770751953 -33.53815841674805 193.78121948242188 -13.506667137145996 C 259.3066711425781 1.2766283750534058 263.6007385253906 19.527820587158203 184.45193481445312 37.71431350708008" stroke-width="0.0" fill="rgb(3, 1, 6)" opacity="0.95541507"/>
    <path d="M 380.3467102050781 40.364227294921875 C 361.19989013671875 129.47195434570312 366.16436767578125 165.99607849121094 308.97607421875 159.06324768066406 C 285.6991271972656 143.67300415039062 258.43194580078125 128.76368713378906 199.32626342773438 103.8631820678711 C 289.44683837890625 68.88529968261719 300.6055603027344 56.84777069091797 392.31744384765625 46.79574966430664 C 410.0422668457031 43.58401107788086 391.6200256347656 27.553991317749023 380.3467102050781 40.364227294921875" stroke-width="0.0" fill="rgb(1, 51, 121)" opacity="0.6709434"/>
    <path d="M 498.59930419921875 -22.969770431518555 C 476.0299377441406 66.79212188720703 483.7054748535156 103.38968658447266 430.5555419921875 132.49838256835938 C 356.4102783203125 112.5704345703125 363.48577880859375 91.15869140625 345.95916748046875 -9.799224853515625 C 339.00079345703125 -42.779136657714844 357.97406005859375 -37.324432373046875 411.2666015625 -31.217628479003906 C 478.4914245605469 -22.093257904052734 497.2852783203125 -23.2740421295166 498.59930419921875 -22.969770431518555" stroke-width="0.0" fill="rgb(59, 156, 167)" opacity="1.0"/>
    <path d="M 248.86920166015625 21.047344207763672 C 201.2794189453125 132.29969787597656 160.32383728027344 110.3709945678711 119.70548248291016 103.49163818359375 C 110.9842529296875 94.64181518554688 111.71416473388672 87.12908935546875 113.81002807617188 96.59930419921875 C 111.26942443847656 56.325042724609375 81.1063232421875 9.880226135253906 124.0044174194336 -52.024654388427734 C 234.5214080810547 -45.85506057739258 247.32028198242188 -42.02069091796875 248.86920166015625 21.047344207763672" stroke-width="0.0" fill="rgb(47, 129, 186)" opacity="1.0"/>
    <path d="M 377.3127746582031 75.56989288330078 C 377.4969787597656 162.96376037597656 384.7341003417969 178.86143493652344 368.98834228515625 235.31103515625 C 316.0565490722656 154.3452911376953 291.5481262207031 140.79383850097656 284.64764404296875 100.46904754638672 C 247.3357696533203 43.8542594909668 258.36614990234375 40.46205520629883 341.74658203125 32.636512756347656 C 390.6898498535156 30.43152618408203 394.11016845703125 36.31988525390625 377.3127746582031 75.56989288330078" stroke-width="0.0" fill="rgb(34, 121, 218)" opacity="1.0"/>
    <path d="M 127.7428970336914 122.34080505371094 C 132.71466064453125 184.21566772460938 120.10401916503906 202.76148986816406 141.74856567382812 197.24232482910156 C 78.55228424072266 157.71778869628906 51.2298583984375 168.59396362304688 40.22869110107422 136.50184631347656 C 62.45169448852539 124.32634735107422 74.41410064697266 119.68264770507812 88.14883422851562 94.31475067138672 C 115.86797332763672 89.95032501220703 133.40382385253906 95.63770294189453 127.7428970336914 122.34080505371094" stroke-width="0.0" fill="rgb(27, 142, 184)" opacity="0.9371823"/>
    <path d="M 185.18104553222656 73.2135009765625 C 207.9329071044922 203.06085205078125 196.85073852539062 189.63534545898438 204.72396850585938 198.361328125 C 84.69817352294922 161.92742919921875 80.03514862060547 201.726318359375 100.03904724121094 132.3585662841797 C 124.64253234863281 98.42682647705078 133.59837341308594 94.55208587646484 142.45716857910156 71.59095001220703 C 150.54144287109375 58.6290168762207 204.6570587158203 58.0451545715332 185.18104553222656 73.2135009765625" stroke-width="0.0" fill="rgb(15, 135, 213)" opacity="0.98655546"/>
    <path d="M 463.48199462890625 235.7672576904297 C 434.1583251953125 191.48158264160156 455.50982666015625 231.947998046875 452.3263854980469 240.6041717529297 C 357.3974304199219 269.7029724121094 394.6745910644531 308.4572448730469 356.72979736328125 192.29298400878906 C 386.9096984863281 145.8974609375 388.93182373046875 136.41885375976562 408.4993896484375 141.87184143066406 C 454.854736328125 143.93748474121094 446.9345703125 137.95071411132812 463.48199462890625 235.7672576904297" stroke-width="0.0" fill="rgb(0, 42, 143)" opacity="1.0"/>
    <path d="M 99.46710205078125 167.9190216064453 C 80.56954956054688 185.1357879638672 52.04914855957031 175.5312042236328 17.746341705322266 213.03646850585938 C -7.544618606567383 214.19448852539062 -18.661836624145508 210.4253387451172 -14.225240707397461 193.24290466308594 C 21.291404724121094 154.39231872558594 22.749605178833008 154.2781982421875 43.06863784790039 144.08834838867188 C 62.63260269165039 131.19720458984375 75.25414276123047 128.0847930908203 99.46710205078125 167.9190216064453" stroke-width="0.0" fill="rgb(47, 109, 187)" opacity="0.911379"/>
    <path d="M 140.33998107910156 230.91346740722656 C 82.01049041748047 218.73707580566406 79.82890319824219 213.25033569335938 44.560081481933594 218.585693359375 C 38.74419403076172 243.7910614013672 30.017629623413086 225.101806640625 7.412916660308838 171.7610321044922 C 34.5095329284668 151.36715698242188 44.82583999633789 146.65704345703125 84.4201889038086 139.0982666015625 C 136.9096221923828 136.30807495117188 145.7794647216797 123.4066390991211 140.33998107910156 230.91346740722656" stroke-width="0.0" fill="rgb(0, 133, 209)" opacity="1.0"/>
    <path d="M 348.50732421875 526.2500610351562 C 340.24603271484375 587.1334838867188 338.2758483886719 564.0040283203125 269.0870056152344 571.5731201171875 C 223.5721893310547 563.3265991210938 209.29495239257812 580.6807250976562 173.63250732421875 475.6968078613281 C 163.1871337890625 416.4134216308594 170.99331665039062 435.42828369140625 303.231689453125 421.65338134765625 C 360.17144775390625 430.51812744140625 342.1207580566406 450.4697265625 348.50732421875 526.2500610351562" stroke-width="0.0" fill="rgb(28, 146, 174)" opacity="0.98835564"/>
    <path d="M 535.98876953125 165.2159881591797 C 535.6840209960938 224.08653259277344 451.4203796386719 186.89996337890625 364.2552795410156 227.6445770263672 C 328.7484130859375 177.02825927734375 320.40032958984375 168.6818084716797 327.914306640625 120.91439819335938 C 338.46087646484375 72.21440887451172 324.5014343261719 57.95245361328125 389.73876953125 15.94606876373291 C 441.2756652832031 45.19879150390625 451.6270446777344 56.45905685424805 535.98876953125 165.2159881591797" stroke-width="0.0" fill="rgb(34, 118, 201)" opacity="1.0"/>
    <path d="M 296.14898681640625 146.227294921875 C 296.5946960449219 188.92007446289062 306.91021728515625 159.10079956054688 278.88177490234375 144.92735290527344 C 227.4559783935547 113.23439025878906 211.0912628173828 108.99835968017578 184.3844757080078 101.76364135742188 C 154.9409942626953 48.88669967651367 157.8083953857422 58.71570587158203 241.79690551757812 51.545654296875 C 285.9623718261719 63.61030960083008 284.1503601074219 64.3373031616211 296.14898681640625 146.227294921875" stroke-width="0.0" fill="rgb(28, 125, 211)" opacity="1.0"/>
    <path d="M 92.75733947753906 235.90316772460938 C 91.0557861328125 282.6613464355469 77.48078155517578 295.917236328125 63.802879333496094 284.1950988769531 C 53.561458587646484 415.636474609375 3.932926654815674 408.5594482421875 -69.31001281738281 360.7033996582031 C -1.077549695968628 196.6546630859375 5.132678031921387 185.14219665527344 55.483524322509766 181.764892578125 C 70.12873077392578 218.04832458496094 82.12317657470703 227.34149169921875 92.75733947753906 235.90316772460938" stroke-width="0.0" fill="rgb(15, 119, 232)" opacity="0.9895534"/>
    <path d="M 366.09405517578125 168.03541564941406 C 378.85186767578125 197.1714324951172 422.5107727050781 266.47674560546875 329.6664123535156 342.3851318359375 C 430.9523620605469 226.13973999023438 374.80499267578125 302.3290710449219 374.8422546386719 204.2953338623047 C 330.1800537109375 132.82057189941406 342.4061584472656 146.1233673095703 335.4530029296875 141.7277374267578 C 376.3445739746094 142.52525329589844 400.0177307128906 150.2324981689453 366.09405517578125 168.03541564941406" stroke-width="0.0" fill="rgb(6, 45, 137)" opacity="0.65015674"/>
    <path d="M 89.15888214111328 104.5782241821289 C 78.60713958740234 138.80108642578125 78.21099090576172 165.77281188964844 71.77307891845703 161.2332763671875 C 23.046804428100586 160.6293487548828 37.9979362487793 161.4615478515625 36.906368255615234 140.480224609375 C 56.799522399902344 133.11451721191406 79.25360107421875 135.91551208496094 100.88478088378906 121.72962951660156 C 102.70767211914062 88.58467102050781 108.8378677368164 101.31182861328125 89.15888214111328 104.5782241821289" stroke-width="0.0" fill="rgb(32, 114, 188)" opacity="0.68354064"/>
    <path d="M 132.73870849609375 98.01595306396484 C 134.99615478515625 135.77996826171875 145.27696228027344 130.7727813720703 121.92520141601562 130.54727172851562 C 50.2415771484375 136.9508056640625 47.46297073364258 151.51889038085938 48.08482360839844 125.11489868164062 C 58.28279113769531 72.22103118896484 66.49765014648438 74.99826049804688 102.58715057373047 84.85946655273438 C 143.8636016845703 76.45390319824219 132.96875 55.76350021362305 132.73870849609375 98.01595306396484" stroke-width="0.0" fill="rgb(48, 130, 185)" opacity="0.99961823"/>
    <path d="M 381.80279541015625 51.036441802978516 C 369.22406005859375 132.31825256347656 367.41583251953125 146.16390991210938 343.48846435546875 109.52254486083984 C 280.4191589355469 96.10260009765625 272.2783203125 99.36591339111328 265.9029846191406 73.03895568847656 C 251.35601806640625 24.426109313964844 263.2109680175781 19.69383430480957 320.24725341796875 17.408071517944336 C 384.902099609375 11.437260627746582 398.728515625 0.9876382946968079 381.80279541015625 51.036441802978516" stroke-width="0.0" fill="rgb(36, 119, 211)" opacity="0.8739085"/>
    <path d="M 84.2479476928711 221.82093811035156 C 87.3322982788086 253.03196716308594 56.53672790527344 241.96954345703125 0.01274784654378891 265.315185546875 C -23.707365036010742 264.446044921875 -25.883525848388672 253.10433959960938 -27.884170532226562 216.689453125 C -18.78289222717285 169.73959350585938 -11.971614837646484 161.4131317138672 42.511558532714844 148.6673126220703 C 82.32622528076172 142.3821563720703 76.14190673828125 148.44912719726562 84.2479476928711 221.82093811035156" stroke-width="0.0" fill="rgb(24, 112, 210)" opacity="0.44591686"/>
    <path d="M 534.7532958984375 336.9082336425781 C 616.2431030273438 319.54339599609375 595.9200439453125 365.0605773925781 504.34820556640625 407.86407470703125 C 401.2254638671875 394.836669921875 377.07659912109375 358.281494140625 469.5025939941406 366.3358459472656 C 488.6028137207031 378.2569885253906 477.7932434082031 345.80853271484375 566.6973876953125 226.9385986328125 C 557.6386108398438 257.2010803222656 545.24072265625 350.0693664550781 534.7532958984375 336.9082336425781" stroke-width="0.0" fill="rgb(0, 0, 24)" opacity="1.0"/>
    <path d="M 405.1997375488281 173.5664520263672 C 411.4031677246094 203.70692443847656 416.00054931640625 196.83482360839844 353.32489013671875 211.4220428466797 C 317.567138671875 209.53941345214844 314.3257141113281 184.51133728027344 285.8878479003906 162.8688201904297 C 283.7340393066406 91.54244232177734 300.0362854003906 102.98241424560547 381.0111389160156 110.98572540283203 C 399.8643493652344 116.04289245605469 393.4342346191406 125.27046203613281 405.1997375488281 173.5664520263672" stroke-width="0.0" fill="rgb(28, 112, 209)" opacity="0.995387"/>
    <path d="M 417.9786071777344 196.0666046142578 C 424.00213623046875 222.14540100097656 391.795166015625 211.1121826171875 368.0028381347656 240.2516632080078 C 355.5689392089844 239.27671813964844 340.82269287109375 224.69708251953125 326.121826171875 199.87136840820312 C 345.1024169921875 165.25978088378906 344.7833557128906 153.81349182128906 397.1791076660156 154.36083984375 C 420.7110900878906 157.50531005859375 415.814208984375 157.00885009765625 417.9786071777344 196.0666046142578" stroke-width="0.0" fill="rgb(23, 110, 217)" opacity="0.9923608"/>
    <path d="M 549.1748046875 365.88128662109375 C 495.8254089355469 413.7011413574219 489.5902404785156 429.01031494140625 478.83746337890625 422.2603454589844 C 484.80120849609375 422.0686950683594 417.7519836425781 465.3934631347656 257.38031005859375 350.984130859375 C 470.1427917480469 351.7239685058594 401.4613342285156 287.0775451660156 453.41900634765625 358.29339599609375 C 568.6366577148438 361.6760559082031 545.5195922851562 350.489501953125 549.1748046875 365.88128662109375" stroke-width="0.0" fill="rgb(1, 0, 37)" opacity="0.99892634"/>
    <path d="M 216.53573608398438 328.66546630859375 C 207.01748657226562 400.4181213378906 170.6919708251953 370.8294372558594 206.3946533203125 374.80902099609375 C 139.89268493652344 364.1590270996094 114.65552520751953 385.7862854003906 56.36404037475586 360.6539001464844 C 115.17195892333984 303.8807373046875 137.48016357421875 284.84429931640625 190.71107482910156 325.6736145019531 C 143.7996368408203 326.3190002441406 144.88986206054688 326.7489318847656 216.53573608398438 328.66546630859375" stroke-width="0.0" fill="rgb(189, 87, 64)" opacity="0.9863045"/>
    <path d="M 362.2153015136719 344.2696228027344 C 447.8818664550781 318.2216796875 430.64984130859375 335.3503112792969 425.4735107421875 365.652099609375 C 251.0872344970703 363.2126770019531 274.7002258300781 384.1121520996094 220.05874633789062 309.39990234375 C 278.083251953125 275.65484619140625 303.1828308105469 288.8653259277344 338.1846618652344 269.3864440917969 C 286.5641784667969 324.5192565917969 294.88555908203125 305.1221008300781 362.2153015136719 344.2696228027344" stroke-width="0.0" fill="rgb(6, 0, 21)" opacity="0.9989625"/>
    <path d="M 225.21482849121094 218.38604736328125 C 312.484619140625 379.8967590332031 264.1482849121094 405.35565185546875 233.56411743164062 380.0557861328125 C 200.74237060546875 337.6640930175781 190.29745483398438 328.23663330078125 180.9243621826172 307.6049499511719 C 194.7819061279297 316.24249267578125 231.7555389404297 344.7461853027344 139.50411987304688 168.88204956054688 C 126.11029815673828 164.7759246826172 245.58885192871094 199.23544311523438 225.21482849121094 218.38604736328125" stroke-width="0.0" fill="rgb(255, 255, 195)" opacity="1.0"/>
    <path d="M 195.1035919189453 326.63616943359375 C 206.722412109375 357.2491149902344 230.84707641601562 332.1628723144531 140.07269287109375 311.25433349609375 C 74.57376861572266 311.7445983886719 73.00749969482422 444.8431396484375 43.21288299560547 304.7138977050781 C 144.39553833007812 285.215087890625 -9.978957176208496 298.6759338378906 137.14599609375 276.3909606933594 C 202.38116455078125 233.9923858642578 175.3611602783203 257.2332458496094 195.1035919189453 326.63616943359375" stroke-width="0.0" fill="rgb(4, 0, 16)" opacity="0.972507"/>
    <path d="M 577.1991577148438 372.42706298828125 C 607.6514282226562 413.0600280761719 574.4041748046875 408.0827941894531 515.781982421875 416.08819580078125 C 481.6059875488281 413.80926513671875 474.10711669921875 397.0388488769531 583.1143188476562 385.8860168457031 C 516.3563232421875 355.59698486328125 483.15924072265625 252.87367248535156 559.7752075195312 323.9444885253906 C 595.0999145507812 341.03704833984375 524.4650268554688 337.8919982910156 577.1991577148438 372.42706298828125" stroke-width="0.0" fill="rgb(42, 1, 21)" opacity="0.8501743"/>
    <path d="M 316.697509765625 430.9589538574219 C 254.86859130859375 452.76788330078125 225.0289764404297 444.9644470214844 149.93252563476562 441.2709655761719 C 53.019046783447266 428.9606018066406 -22.85199546813965 427.9695739746094 -25.208864212036133 437.8684997558594 C 80.81007385253906 326.16094970703125 104.93822479248047 373.8915100097656 128.23117065429688 373.6149597167969 C 167.0648651123047 380.53546142578125 208.36251831054688 352.835205078125 316.697509765625 430.9589538574219" stroke-width="0.0" fill="rgb(216, 170, 83)" opacity="0.96707016"/>
    <path d="M 672.1314086914062 435.0393371582031 C 564.7823486328125 442.47161865234375 505.9217224121094 435.53863525390625 478.64208984375 437.39776611328125 C 486.7132568359375 436.28314208984375 423.74169921875 440.8097839355469 217.38851928710938 439.37335205078125 C 333.8440246582031 310.0950927734375 477.604736328125 398.64227294921875 470.00897216796875 400.60736083984375 C 514.7446899414062 415.0217590332031 639.3820190429688 381.7037353515625 672.1314086914062 435.0393371582031" stroke-width="0.0" fill="rgb(206, 160, 72)" opacity="0.998092"/>
    <path d="M 384.4425048828125 267.5966796875 C 350.26190185546875 315.0301513671875 342.30462646484375 328.5765380859375 288.5367126464844 378.25634765625 C 282.0013732910156 341.4761657714844 275.15728759765625 308.08251953125 262.76708984375 262.5904541015625 C 268.6459655761719 202.1692352294922 227.65513610839844 183.49232482910156 283.2743835449219 148.59532165527344 C 354.57708740234375 201.55508422851562 378.728759765625 248.04559326171875 384.4425048828125 267.5966796875" stroke-width="0.0" fill="rgb(255, 255, 217)" opacity="1.0"/>
    <path d="M 197.88877868652344 317.2508544921875 C 165.3941192626953 315.89398193359375 145.4910888671875 246.1009521484375 136.45521545410156 310.09442138671875 C 114.7756118774414 273.83868408203125 113.95883178710938 266.8100280761719 68.54058074951172 207.00572204589844 C 56.1365852355957 201.26051330566406 110.78823852539062 204.24839782714844 150.24928283691406 219.89051818847656 C 146.31155395507812 233.4978790283203 138.85284423828125 174.06011962890625 197.88877868652344 317.2508544921875" stroke-width="0.0" fill="rgb(255, 255, 208)" opacity="1.0"/>
    <path d="M 63.63197326660156 205.29502868652344 C 10.84057331085205 205.64002990722656 12.465580940246582 222.4774627685547 -29.085538864135742 243.76947021484375 C -20.833322525024414 261.1528625488281 -23.49706268310547 247.7373504638672 -14.228325843811035 212.8081817626953 C -18.163528442382812 181.6753692626953 -20.057336807250977 166.56141662597656 28.533313751220703 161.97108459472656 C 48.326866149902344 169.1603240966797 53.14077377319336 186.26072692871094 63.63197326660156 205.29502868652344" stroke-width="0.0" fill="rgb(37, 132, 218)" opacity="0.91728884"/>
    <path d="M 333.68670654296875 430.4112854003906 C 315.4350280761719 369.6916809082031 344.6298522949219 398.1950988769531 290.4110107421875 389.4353332519531 C 242.32144165039062 395.81646728515625 215.61927795410156 399.1818542480469 128.1076202392578 382.5325927734375 C 213.99655151367188 342.73822021484375 217.21250915527344 325.3677673339844 241.4125518798828 299.53778076171875 C 289.42626953125 396.2823486328125 307.1418151855469 395.0347900390625 333.68670654296875 430.4112854003906" stroke-width="0.0" fill="rgb(52, 60, 0)" opacity="0.768416"/>
    <path d="M 233.64674377441406 359.8003845214844 C 209.42713928222656 418.85870361328125 194.0457000732422 402.9108581542969 121.97258758544922 393.2893981933594 C 56.180747985839844 391.8354797363281 -16.185964584350586 432.0906066894531 15.936427116394043 393.638671875 C 44.24591827392578 333.9664001464844 46.04273986816406 375.40716552734375 142.57131958007812 379.28179931640625 C 189.8383331298828 372.3623962402344 224.4977569580078 348.1296081542969 233.64674377441406 359.8003845214844" stroke-width="0.0" fill="rgb(63, 37, 85)" opacity="0.1580032"/>
    <path d="M 530.7955932617188 229.26829528808594 C 491.8477478027344 224.02293395996094 483.2631530761719 225.59756469726562 485.5780944824219 234.79257202148438 C 506.3046875 228.13674926757812 481.0590515136719 218.67654418945312 461.9981994628906 237.4207305908203 C 443.2423095703125 188.35687255859375 457.3205261230469 237.8207550048828 483.8342590332031 214.8833465576172 C 509.9688415527344 232.78904724121094 541.8646850585938 195.80661010742188 530.7955932617188 229.26829528808594" stroke-width="0.0" fill="rgb(42, 63, 18)" opacity="0.5808164"/>
    <path d="M 112.40190887451172 390.4989318847656 C 107.97601318359375 440.25921630859375 100.84101104736328 450.7096862792969 76.40068817138672 433.0077209472656 C 29.908761978149414 436.5737609863281 -10.260457038879395 456.0030822753906 -34.82986831665039 396.8123474121094 C 71.80631256103516 398.509033203125 137.88958740234375 400.9298400878906 148.8677520751953 397.1724853515625 C 94.82420349121094 360.1870422363281 104.50011444091797 382.4474182128906 112.40190887451172 390.4989318847656" stroke-width="0.0" fill="rgb(237, 200, 69)" opacity="0.9835165"/>
    <path d="M 12.988801002502441 -5.7082743644714355 C 11.773824691772461 0.8090062737464905 -2.468963146209717 5.196322917938232 -3.8858346939086914 21.86027717590332 C -11.896294593811035 20.15384864807129 -17.950620651245117 11.162046432495117 -19.716814041137695 0.08873654901981354 C -17.01299285888672 -9.9420747756958 -9.692485809326172 -17.262582778930664 4.288629055023193 -24.415048599243164 C 3.13863205909729 -11.220295906066895 8.250608444213867 -1.697680115699768 12.988801002502441 -5.7082743644714355" stroke-width="0.0" fill="rgb(45, 176, 218)" opacity="0.84624386"/>
    <path d="M 156.5575408935547 388.69744873046875 C 94.67337036132812 396.725341796875 81.79254913330078 403.39068603515625 97.02482604980469 378.84649658203125 C 68.071533203125 387.3192443847656 12.609789848327637 408.11248779296875 47.0128173828125 396.3904724121094 C 95.60751342773438 395.603271484375 108.30892944335938 414.2298889160156 114.85821533203125 395.3590087890625 C 66.59113311767578 408.3036804199219 40.42715835571289 360.3232727050781 156.5575408935547 388.69744873046875" stroke-width="0.0" fill="rgb(157, 142, 6)" opacity="0.20063691"/>
    <path d="M 107.82162475585938 383.0664978027344 C 131.73977661132812 404.5484619140625 113.95682525634766 403.1521911621094 108.80610656738281 397.96783447265625 C 85.5383529663086 406.2996520996094 55.3533935546875 393.81854248046875 94.78985595703125 405.09442138671875 C 30.755216598510742 396.1592102050781 69.64862823486328 361.6357421875 206.1244354248047 395.0564880371094 C 16.11374855041504 408.7879638671875 12.859952926635742 401.5819091796875 107.82162475585938 383.0664978027344" stroke-width="0.0" fill="rgb(206, 115, 126)" opacity="0.59707206"/>
    <path d="M 448.80181884765625 371.2332763671875 C 233.94332885742188 423.3141784667969 343.15692138671875 434.863037109375 309.7851257324219 400.3099670410156 C 136.2490692138672 398.12799072265625 121.39140319824219 419.42059326171875 33.6158561706543 363.3285217285156 C 190.8227081298828 324.18548583984375 228.90013122558594 327.7646484375 254.56930541992188 347.7668151855469 C 267.7947998046875 365.7320861816406 310.4903564453125 365.31298828125 448.80181884765625 371.2332763671875" stroke-width="0.0" fill="rgb(174, 107, 56)" opacity="0.97865164"/>
    <path d="M 558.6596069335938 371.8888854980469 C 539.3040161132812 372.08209228515625 525.7293701171875 368.75262451171875 552.6812744140625 385.7044982910156 C 576.5541381835938 356.3757629394531 604.6731567382812 360.8206787109375 493.5069885253906 357.97796630859375 C 499.7679748535156 342.77020263671875 544.2826538085938 351.9765930175781 595.5046997070312 352.291259765625 C 562.8404541015625 379.0107727050781 565.83203125 355.175048828125 558.6596069335938 371.8888854980469" stroke-width="0.0" fill="rgb(102, 0, 102)" opacity="0.6786318"/>
    <path d="M 638.436767578125 407.0213623046875 C 580.2587280273438 409.220703125 518.70068359375 401.2685546875 496.0174865722656 407.3784484863281 C 507.6825866699219 380.3128356933594 482.8409729003906 388.87469482421875 452.62286376953125 395.9956359863281 C 465.4507141113281 368.17657470703125 480.2349853515625 374.31756591796875 554.2037963867188 370.78741455078125 C 622.0833740234375 377.9964904785156 599.97998046875 352.0682373046875 638.436767578125 407.0213623046875" stroke-width="0.0" fill="rgb(163, 102, 61)" opacity="0.9769591"/>
    <path d="M 95.9717788696289 284.2001647949219 C 103.06588745117188 282.7718505859375 89.60004425048828 282.99530029296875 99.70824432373047 276.6458435058594 C 105.33184814453125 294.5624694824219 82.94398498535156 300.99114990234375 52.70552444458008 294.8163757324219 C 81.23809051513672 269.4676513671875 114.08590698242188 263.0785827636719 104.81881713867188 263.8150329589844 C 105.96243286132812 279.6123046875 101.53146362304688 279.4598693847656 95.9717788696289 284.2001647949219" stroke-width="0.0" fill="rgb(212, 216, 139)" opacity="0.6356342"/>
    <path d="M 424.5431213378906 383.72454833984375 C 433.83709716796875 393.0684509277344 454.1152038574219 416.09869384765625 406.1108093261719 401.2955322265625 C 296.94049072265625 397.3843688964844 306.2649230957031 383.13543701171875 305.9253234863281 382.2707214355469 C 437.27655029296875 372.3611755371094 442.7818908691406 384.0103454589844 426.39703369140625 369.879150390625 C 415.52166748046875 342.56219482421875 424.46893310546875 365.7158508300781 424.5431213378906 383.72454833984375" stroke-width="0.0" fill="rgb(91, 72, 68)" opacity="0.45275912"/>
    <path d="M 457.72625732421875 395.5604248046875 C 471.90631103515625 371.2086181640625 466.6293029785156 375.08160400390625 465.60107421875 367.4204406738281 C 465.28448486328125 350.4647521972656 449.9325256347656 333.673095703125 290.7301940917969 335.4427185058594 C 438.57916259765625 332.00341796875 484.74078369140625 333.8194885253906 446.2789001464844 337.3115234375 C 452.2989807128906 363.4310302734375 453.02752685546875 384.0926513671875 457.72625732421875 395.5604248046875" stroke-width="0.0" fill="rgb(181, 203, 54)" opacity="0.21048075"/>
    <path d="M 496.91107177734375 409.8287353515625 C 490.8695068359375 404.63189697265625 461.7344970703125 407.313232421875 395.298583984375 399.5285339355469 C 350.748779296875 387.98577880859375 295.632568359375 391.0390319824219 297.8336181640625 394.2773132324219 C 467.5622863769531 402.3939514160156 462.64508056640625 384.4820251464844 436.15606689453125 373.51611328125 C 462.524169921875 364.6227111816406 443.6184387207031 404.3182678222656 496.91107177734375 409.8287353515625" stroke-width="0.0" fill="rgb(81, 58, 31)" opacity="0.619301"/>
    <path d="M 511.2930908203125 367.6178894042969 C 508.70147705078125 395.90252685546875 512.21484375 376.47314453125 517.123046875 372.1282653808594 C 476.9091491699219 379.5828552246094 487.3154296875 380.9361877441406 328.9706726074219 375.86871337890625 C 426.7738037109375 356.3086853027344 448.9725646972656 382.14996337890625 382.4778747558594 370.7835693359375 C 495.3099365234375 364.10760498046875 499.0289306640625 373.03594970703125 511.2930908203125 367.6178894042969" stroke-width="0.0" fill="rgb(196, 110, 67)" opacity="0.9224744"/>
    <path d="M 589.8348388671875 235.4500732421875 C 504.4427185058594 225.33746337890625 467.6519470214844 241.92308044433594 492.494140625 224.57272338867188 C 507.37420654296875 234.89491271972656 472.92083740234375 233.32452392578125 457.1880798339844 238.65786743164062 C 444.39068603515625 184.65023803710938 456.877685546875 193.80136108398438 450.668701171875 188.49136352539062 C 517.9306030273438 167.13613891601562 570.0773315429688 157.42140197753906 589.8348388671875 235.4500732421875" stroke-width="0.0" fill="rgb(26, 116, 206)" opacity="1.0"/>
    <path d="M 43.501094818115234 373.8120422363281 C 128.67669677734375 388.27716064453125 128.6297149658203 405.7701721191406 15.562616348266602 392.7455139160156 C 70.15248107910156 372.70123291015625 84.54911041259766 385.1855773925781 17.292484283447266 385.6675109863281 C 121.5575180053711 373.09820556640625 126.47138977050781 386.6245422363281 109.50635528564453 393.816162109375 C 51.99775695800781 383.52606201171875 54.951351165771484 380.3725891113281 43.501094818115234 373.8120422363281" stroke-width="0.0" fill="rgb(113, 43, 54)" opacity="0.36800316"/>
    <path d="M 433.7750549316406 405.4771423339844 C 422.5730895996094 403.8548278808594 425.033447265625 388.5357360839844 478.6289367675781 408.86798095703125 C 455.06085205078125 397.4920959472656 424.44573974609375 399.8895263671875 242.92173767089844 398.0263977050781 C 308.475830078125 348.92852783203125 383.3560485839844 384.0032653808594 476.1770935058594 364.1493225097656 C 414.115234375 393.5052185058594 434.2528381347656 389.5647277832031 433.7750549316406 405.4771423339844" stroke-width="0.0" fill="rgb(151, 107, 47)" opacity="0.95864224"/>
    <path d="M 231.1420440673828 354.5669860839844 C 152.15924072265625 342.0608215332031 132.2728271484375 344.2946472167969 148.40428161621094 345.2868957519531 C 168.87191772460938 359.28594970703125 144.456298828125 353.4280090332031 56.08366775512695 360.2138671875 C 144.3354034423828 356.9625549316406 171.05755615234375 371.238525390625 165.45230102539062 356.1302795410156 C 129.01654052734375 349.9472351074219 141.26950073242188 360.0368957519531 231.1420440673828 354.5669860839844" stroke-width="0.0" fill="rgb(138, 120, 1)" opacity="0.23084919"/>
    <path d="M 241.42271423339844 334.5624084472656 C 271.6297302246094 310.2092590332031 247.10171508789062 312.9776916503906 234.82394409179688 295.0086364746094 C 226.5130157470703 303.5060119628906 233.48629760742188 321.80322265625 208.73074340820312 357.37664794921875 C 219.2823944091797 314.7197265625 222.5059356689453 281.09967041015625 229.89434814453125 187.33775329589844 C 219.90374755859375 234.73348999023438 209.6599578857422 296.6810607910156 241.42271423339844 334.5624084472656" stroke-width="0.0" fill="rgb(0, 0, 7)" opacity="0.763062"/>
    <path d="M 274.1536865234375 355.03778076171875 C 279.6602783203125 367.24322509765625 279.1817626953125 357.46270751953125 219.0814666748047 357.295166015625 C 201.57872009277344 359.27392578125 217.6885986328125 362.2778015136719 252.813720703125 360.0826416015625 C 235.12327575683594 323.1216125488281 252.6493682861328 336.4737548828125 248.48988342285156 323.9779357910156 C 230.14959716796875 337.2357482910156 244.54208374023438 343.8987121582031 274.1536865234375 355.03778076171875" stroke-width="0.0" fill="rgb(141, 138, 45)" opacity="0.5731868"/>
    <path d="M 9.96962833404541 -9.443926811218262 C 8.100852966308594 1.0805472135543823 1.2899715900421143 9.045726776123047 -7.91961145401001 12.683807373046875 C -1.4064199924468994 10.483033180236816 -10.994668960571289 4.208353519439697 -18.962488174438477 0.42819690704345703 C -16.44249725341797 -9.053050994873047 -9.121990203857422 -16.373558044433594 0.8307262063026428 -19.039100646972656 C 8.117734909057617 -15.154101371765137 11.375190734863281 -3.33315372467041 9.96962833404541 -9.443926811218262" stroke-width="0.0" fill="rgb(106, 137, 201)" opacity="0.63097316"/>
    <path d="M 254.22186279296875 341.59271240234375 C 258.5988464355469 324.92132568359375 244.33961486816406 323.2469787597656 230.10301208496094 329.4681701660156 C 234.38137817382812 329.81463623046875 220.13331604003906 305.6441345214844 211.71034240722656 301.7185974121094 C 216.5463104248047 261.766357421875 194.27984619140625 256.5882263183594 227.74771118164062 272.73309326171875 C 255.7412567138672 300.85516357421875 263.8693542480469 301.7639465332031 254.22186279296875 341.59271240234375" stroke-width="0.0" fill="rgb(254, 254, 210)" opacity="1.0"/>
    <path d="M 13.389047622680664 -5.914961338043213 C 12.812220573425293 6.752708911895752 7.203671455383301 15.478821754455566 -1.6484240293502808 18.14468002319336 C -12.908912658691406 19.843704223632812 -17.157791137695312 10.90903091430664 -19.470197677612305 0.7244783043861389 C -16.781211853027344 -9.270069122314453 -9.46070384979248 -16.590576171875 -1.2771750688552856 -18.93160057067871 C 6.5465874671936035 -12.948208808898926 15.247751235961914 -6.783844947814941 13.389047622680664 -5.914961338043213" stroke-width="0.0" fill="rgb(73, 116, 175)" opacity="0.7486066"/>
    <path d="M 77.4394760131836 355.82379150390625 C 67.87621307373047 401.8454284667969 99.72932434082031 396.9380187988281 35.369686126708984 403.40093994140625 C 40.282588958740234 353.6078796386719 27.676856994628906 348.12322998046875 61.82343292236328 352.1905212402344 C 38.950557708740234 400.65313720703125 36.65678787231445 356.59539794921875 32.124881744384766 330.8243103027344 C 151.66343688964844 315.980224609375 153.1371612548828 356.50555419921875 77.4394760131836 355.82379150390625" stroke-width="0.0" fill="rgb(215, 119, 8)" opacity="0.949728"/>
    <path d="M 20.121004104614258 0.22469733655452728 C 17.441511154174805 10.22469711303711 10.121004104614258 17.545204162597656 0.12100419402122498 20.22469711303711 C -9.878995895385742 17.545204162597656 -17.19950294494629 10.22469711303711 -19.878995895385742 0.22469733655452728 C -17.19950294494629 -9.77530288696289 -9.878995895385742 -17.095809936523438 0.12100419402122498 -19.77530288696289 C 10.121004104614258 -17.095809936523438 17.441511154174805 -9.77530288696289 20.121004104614258 0.22469733655452728" stroke-width="0.0" fill="rgb(101, 147, 136)" opacity="0.929465"/>
    <path d="M 239.08062744140625 336.9246826171875 C 264.38763427734375 347.5893249511719 244.53543090820312 322.3097839355469 224.71412658691406 329.524658203125 C 220.6084747314453 336.88153076171875 209.69444274902344 353.62017822265625 213.98382568359375 334.05633544921875 C 225.78915405273438 263.33245849609375 217.493896484375 237.5238037109375 218.36228942871094 300.1977844238281 C 215.4007568359375 309.7107849121094 237.28602600097656 325.205322265625 239.08062744140625 336.9246826171875" stroke-width="0.0" fill="rgb(56, 31, 20)" opacity="0.30362305"/>
    <path d="M 14.250018119812012 -2.144482135772705 C 9.069393157958984 0.9812978506088257 1.9761459827423096 13.736319541931152 -8.859743118286133 28.32244110107422 C -18.66135025024414 25.66178321838379 -25.785808563232422 18.537141799926758 -22.668447494506836 3.052645444869995 C -17.234853744506836 -9.514009475708008 -9.914346694946289 -16.834516525268555 6.607975006103516 -24.941585540771484 C 16.212787628173828 -22.814863204956055 17.17414665222168 -12.41358757019043 14.250018119812012 -2.144482135772705" stroke-width="0.0" fill="rgb(170, 140, 186)" opacity="0.63148814"/>
    <path d="M 22.014066696166992 -9.403240203857422 C 8.109962463378906 -0.4909774661064148 -1.0358381271362305 6.125059127807617 -11.201801300048828 10.387863159179688 C 3.440858840942383 4.698422908782959 -10.198893547058105 3.7247517108917236 -18.814760208129883 0.12358779460191727 C -16.541879653930664 -9.469646453857422 -9.221373558044434 -16.79015350341797 -5.878478050231934 -13.829033851623535 C 4.240426063537598 -11.935210227966309 17.669580459594727 -11.384963035583496 22.014066696166992 -9.403240203857422" stroke-width="0.0" fill="rgb(212, 24, 217)" opacity="0.8333947"/>
    <path d="M 18.742155075073242 1.4924342632293701 C 17.419771194458008 11.33370304107666 10.820159912109375 12.660638809204102 -4.378206253051758 15.884588241577148 C -15.329435348510742 9.523780822753906 -19.753055572509766 4.249380588531494 -19.502225875854492 -1.1771880388259888 C -16.638795852661133 -9.463029861450195 -9.318289756774902 -16.783536911010742 -1.2936605215072632 -18.300935745239258 C 0.6526607275009155 -8.907669067382812 4.303617477416992 2.475274085998535 18.742155075073242 1.4924342632293701" stroke-width="0.0" fill="rgb(166, 111, 149)" opacity="0.6227176"/>
    <path d="M 11.987217903137207 10.7650785446167 C 15.227136611938477 4.541579246520996 5.282882213592529 12.830900192260742 2.047111749649048 21.257057189941406 C -2.3139419555664062 9.99130916595459 -12.699649810791016 4.374839782714844 -19.931663513183594 0.17320458590984344 C -17.319934844970703 -9.675844192504883 -9.999427795410156 -16.99635124206543 -1.4475221633911133 -19.58175277709961 C 2.38396954536438 -11.392406463623047 5.363264560699463 2.648162364959717 11.987217903137207 10.7650785446167" stroke-width="0.0" fill="rgb(125, 165, 176)" opacity="0.5778988"/>
    <path d="M 421.9888610839844 341.99981689453125 C 447.1875 357.9656982421875 377.80084228515625 344.03033447265625 438.698974609375 340.3229675292969 C 427.9213562011719 346.5578308105469 406.5719909667969 346.1720886230469 342.7784423828125 346.2737731933594 C 383.7082824707031 321.075439453125 338.22674560546875 330.6861877441406 362.0898742675781 328.4350280761719 C 401.5657653808594 323.8128356933594 438.7341613769531 353.39630126953125 421.9888610839844 341.99981689453125" stroke-width="0.0" fill="rgb(29, 47, 246)" opacity="0.14068358"/>
    <path d="M 272.0179748535156 356.8788146972656 C 248.18264770507812 360.6472473144531 240.126953125 371.15216064453125 205.79359436035156 359.6313781738281 C 188.0399932861328 370.03448486328125 215.76907348632812 348.76904296875 90.00817108154297 354.2485656738281 C 131.07041931152344 268.1916809082031 185.05543518066406 322.13818359375 220.85699462890625 335.673095703125 C 224.27992248535156 340.26617431640625 233.5458221435547 342.5496520996094 272.0179748535156 356.8788146972656" stroke-width="0.0" fill="rgb(175, 109, 37)" opacity="0.9456645"/>
    <path d="M 295.2164001464844 401.5123291015625 C 502.1693420410156 400.6396484375 475.1170349121094 388.9563903808594 414.5438232421875 387.9192199707031 C 277.69573974609375 397.23681640625 315.4449768066406 388.5785217285156 306.6141052246094 392.1141357421875 C 307.4916076660156 378.1153869628906 314.8564453125 376.4909362792969 311.6182861328125 370.33782958984375 C 311.8856506347656 386.53704833984375 308.347412109375 365.4241943359375 295.2164001464844 401.5123291015625" stroke-width="0.0" fill="rgb(28, 7, 121)" opacity="0.7954899"/>
    <path d="M 415.8075256347656 298.019775390625 C 423.7209167480469 321.9632263183594 459.0926208496094 355.3235778808594 416.7677917480469 316.1211853027344 C 392.20849609375 300.2268371582031 376.6278076171875 300.69708251953125 382.1150207519531 267.7422790527344 C 379.1692810058594 259.77398681640625 383.5042724609375 254.3464813232422 384.8636474609375 261.4145202636719 C 398.5178527832031 279.0026550292969 410.4078369140625 291.31475830078125 415.8075256347656 298.019775390625" stroke-width="0.0" fill="rgb(59, 54, 11)" opacity="0.71200734"/>
    <path d="M 13.979814529418945 -5.536762237548828 C 10.459882736206055 2.9465997219085693 1.2531062364578247 8.96497631072998 -9.300811767578125 12.017033576965332 C -6.949533462524414 13.044391632080078 -17.248334884643555 10.749545097351074 -19.930788040161133 0.7606006264686584 C -17.25129508972168 -9.239398002624512 -9.930787086486816 -16.559904098510742 0.0691978707909584 -19.239395141601562 C 10.067004203796387 -16.55927276611328 17.265422821044922 -9.203170776367188 13.979814529418945 -5.536762237548828" stroke-width="0.0" fill="rgb(80, 146, 7)" opacity="1.0"/>
    <path d="M 274.93743896484375 362.65447998046875 C 261.03271484375 310.4702453613281 265.36798095703125 321.2320861816406 233.33859252929688 316.04998779296875 C 242.8655242919922 317.0243835449219 229.7686767578125 314.9722900390625 217.87376403808594 304.4967041015625 C 226.6044464111328 338.5260009765625 252.60385131835938 314.06768798828125 215.8810272216797 310.1354064941406 C 205.8935089111328 341.9451904296875 220.94676208496094 336.565185546875 274.93743896484375 362.65447998046875" stroke-width="0.0" fill="rgb(0, 0, 36)" opacity="1.0"/>
    <path d="M 12.599542617797852 -6.98530912399292 C 10.658953666687012 3.6306962966918945 3.639514446258545 12.54719066619873 -4.391348838806152 15.373044967651367 C -9.798808097839355 17.632070541381836 -17.119356155395508 10.311716079711914 -19.79884910583496 0.3117162883281708 C -17.119356155395508 -9.688283920288086 -9.798849105834961 -17.008790969848633 0.2011510580778122 -19.688283920288086 C 10.201162338256836 -17.008790969848633 17.523393630981445 -9.688766479492188 12.599542617797852 -6.98530912399292" stroke-width="0.0" fill="rgb(59, 70, 48)" opacity="0.92661744"/>
    <path d="M 4.699094295501709 -17.866668701171875 C 3.1403427124023438 0.8759828805923462 0.23073792457580566 10.44773006439209 -16.023574829101562 13.739025115966797 C -17.910120010375977 26.312681198120117 -20.184024810791016 15.896574020385742 -19.74907684326172 0.6981455087661743 C -17.053682327270508 -9.359038352966309 -9.733175277709961 -16.67954444885254 4.027881622314453 -21.857023239135742 C 17.158720016479492 -23.41332244873047 24.913606643676758 -16.588634490966797 4.699094295501709 -17.866668701171875" stroke-width="0.0" fill="rgb(70, 143, 243)" opacity="0.7382048"/>
    <path d="M 503.6331787109375 393.56854248046875 C 476.4558410644531 390.5175476074219 456.99676513671875 383.1766662597656 447.2801513671875 386.7412414550781 C 472.4902648925781 393.4369201660156 454.5348205566406 394.7447814941406 438.5050354003906 382.7707214355469 C 435.4909973144531 361.61993408203125 450.2520751953125 387.0262756347656 457.19097900390625 358.9247741699219 C 479.494140625 360.1814880371094 496.4111328125 365.5240173339844 503.6331787109375 393.56854248046875" stroke-width="0.0" fill="rgb(178, 117, 33)" opacity="0.89467597"/>
    <path d="M 386.7190246582031 293.5601806640625 C 381.5805969238281 286.17657470703125 356.3554382324219 311.88299560546875 341.598876953125 369.2669372558594 C 340.0115966796875 355.1612548828125 376.568359375 311.27142333984375 394.3418884277344 303.4804382324219 C 349.8768005371094 329.2954406738281 363.6300354003906 284.26885986328125 389.6874084472656 279.5376281738281 C 380.2743835449219 318.2924499511719 374.6490783691406 336.5191650390625 386.7190246582031 293.5601806640625" stroke-width="0.0" fill="rgb(42, 23, 51)" opacity="0.30708528"/>
    <path d="M 414.69305419921875 391.0609130859375 C 433.7769775390625 399.9567565917969 451.716796875 402.10479736328125 406.135986328125 390.6114196777344 C 429.8702392578125 375.96490478515625 423.7906799316406 382.2674865722656 438.4040222167969 386.75799560546875 C 427.146484375 362.8336181640625 441.8182678222656 373.6614685058594 401.4787292480469 358.1820068359375 C 429.4722595214844 365.7813720703125 403.55267333984375 400.81524658203125 414.69305419921875 391.0609130859375" stroke-width="0.0" fill="rgb(101, 61, 32)" opacity="0.30833423"/>
    <path d="M 19.917247772216797 379.1831970214844 C 41.008094787597656 367.4579772949219 27.544458389282227 396.1366271972656 31.61223030090332 402.8639831542969 C 30.0340518951416 393.976806640625 25.75746726989746 375.0809631347656 43.5246696472168 394.4004821777344 C 7.8700480461120605 398.9776916503906 16.88671875 400.0152893066406 10.23685073852539 383.0005187988281 C 7.32789421081543 384.19000244140625 44.264278411865234 385.4837341308594 19.917247772216797 379.1831970214844" stroke-width="0.0" fill="rgb(12, 30, 116)" opacity="0.6504113"/>
    <path d="M 80.18648529052734 341.3556823730469 C 92.60372161865234 366.38580322265625 100.8892822265625 388.5565185546875 100.12622833251953 372.78216552734375 C 97.6471939086914 344.4476013183594 95.80149841308594 348.7107238769531 91.94355010986328 359.5629577636719 C 106.53923797607422 354.9333190917969 100.01945495605469 333.8939208984375 95.5051040649414 330.9305725097656 C 87.39690399169922 336.3002624511719 102.1576156616211 343.8923034667969 80.18648529052734 341.3556823730469" stroke-width="0.0" fill="rgb(179, 124, 122)" opacity="0.381983"/>
    <path d="M 418.66400146484375 382.6085510253906 C 418.7588195800781 381.80584716796875 415.91094970703125 365.60601806640625 416.13861083984375 383.3402099609375 C 412.1881408691406 403.3449401855469 403.6321716308594 394.0729064941406 401.9598388671875 380.8658752441406 C 410.3800354003906 383.0212097167969 402.135009765625 387.12274169921875 431.4251708984375 402.52593994140625 C 439.5624084472656 382.6361999511719 443.56927490234375 394.114013671875 418.66400146484375 382.6085510253906" stroke-width="0.0" fill="rgb(117, 70, 73)" opacity="0.27369052"/>
    <path d="M 131.88511657714844 393.868408203125 C 136.89794921875 381.67230224609375 140.41009521484375 366.10552978515625 144.79779052734375 402.91717529296875 C 122.43316650390625 412.13427734375 111.79605102539062 398.4841613769531 100.08438873291016 396.272216796875 C 100.64934539794922 367.40570068359375 96.24740600585938 388.6374206542969 105.15147399902344 378.4625549316406 C 144.9468994140625 376.15228271484375 139.58062744140625 388.51336669921875 131.88511657714844 393.868408203125" stroke-width="0.0" fill="rgb(128, 81, 25)" opacity="0.52439344"/>
    <path d="M 202.9479522705078 333.52423095703125 C 126.2088623046875 299.2489929199219 131.3748016357422 305.7037658691406 131.18679809570312 307.82666015625 C 155.6496124267578 291.179443359375 141.68711853027344 304.2895812988281 136.91036987304688 305.7225341796875 C 134.19090270996094 286.2099609375 154.54598999023438 304.8302307128906 149.63552856445312 291.04852294921875 C 194.31271362304688 299.7188415527344 177.40708923339844 285.34185791015625 202.9479522705078 333.52423095703125" stroke-width="0.0" fill="rgb(0, 0, 31)" opacity="1.0"/>
    <path d="M 75.57857513427734 400.8630676269531 C 101.86910247802734 393.8788146972656 85.47740936279297 403.06689453125 110.80070495605469 396.5236511230469 C 121.04964447021484 385.2181091308594 122.84947967529297 374.5636901855469 86.50358581542969 384.3291015625 C 90.5911636352539 405.5310363769531 87.29452514648438 362.1539306640625 81.14960479736328 343.0970458984375 C 69.08049011230469 340.51763916015625 68.36468505859375 413.13897705078125 75.57857513427734 400.8630676269531" stroke-width="0.0" fill="rgb(114, 113, 59)" opacity="0.2872356"/>
    <path d="M 354.41339111328125 314.8486633300781 C 364.15997314453125 330.4815368652344 380.5855407714844 315.4488525390625 373.8912048339844 305.4766540527344 C 371.04888916015625 329.18499755859375 356.4541320800781 319.7969055175781 346.22332763671875 335.7376708984375 C 360.78466796875 304.67236328125 378.07757568359375 300.7315673828125 380.66082763671875 296.60076904296875 C 390.4822998046875 270.8782043457031 381.041259765625 268.4793395996094 354.41339111328125 314.8486633300781" stroke-width="0.0" fill="rgb(111, 30, 126)" opacity="0.63150156"/>
    <path d="M 411.3919982910156 355.2655944824219 C 429.2581787109375 332.74322509765625 432.15008544921875 330.6609191894531 389.6494140625 326.8364562988281 C 382.9327392578125 346.59521484375 376.5872802734375 353.8942565917969 429.21588134765625 356.4504089355469 C 447.5121765136719 347.72259521484375 406.6500244140625 300.571044921875 381.44989013671875 321.4715270996094 C 389.1206970214844 348.07745361328125 404.0439147949219 352.99639892578125 411.3919982910156 355.2655944824219" stroke-width="0.0" fill="rgb(0, 0, 67)" opacity="0.8458831"/>
    <path d="M 167.84426879882812 214.25717163085938 C 161.67140197753906 234.6473388671875 148.68812561035156 258.8829040527344 137.5563201904297 291.4137878417969 C 150.83897399902344 255.0198974609375 160.98106384277344 235.25518798828125 161.74159240722656 242.06735229492188 C 146.2210235595703 260.9195251464844 160.91160583496094 237.1149444580078 166.2470703125 203.2178497314453 C 159.26072692871094 232.03500366210938 143.97764587402344 234.4529266357422 167.84426879882812 214.25717163085938" stroke-width="0.0" fill="rgb(63, 20, 9)" opacity="0.5154621"/>
    <path d="M 86.68745422363281 302.663330078125 C 87.27764892578125 297.7705993652344 79.33222198486328 303.9927978515625 60.865047454833984 308.948486328125 C 40.12032699584961 311.6837463378906 32.67523193359375 305.06695556640625 54.6389274597168 294.4933166503906 C 48.333736419677734 291.796875 66.25543975830078 297.1800842285156 74.81836700439453 296.5970764160156 C 73.6827392578125 296.1901550292969 72.62554168701172 305.7146911621094 86.68745422363281 302.663330078125" stroke-width="0.0" fill="rgb(88, 121, 150)" opacity="0.7019285"/>
    <path d="M 20.55278205871582 -5.580176830291748 C 12.77643871307373 2.3609278202056885 8.290390014648438 16.926769256591797 -1.9102920293807983 23.574390411376953 C -15.00741195678711 20.88542938232422 -25.483074188232422 16.92765998840332 -25.30775260925293 4.648581027984619 C -17.208955764770508 -9.565235137939453 -9.888447761535645 -16.8857421875 0.10655835270881653 -19.5606689453125 C 8.18596363067627 -15.064749717712402 11.455543518066406 -3.586604356765747 20.55278205871582 -5.580176830291748" stroke-width="0.0" fill="rgb(94, 213, 112)" opacity="0.55512893"/>
    <path d="M 11.409294128417969 -10.289202690124512 C 5.523014545440674 -4.577663898468018 -1.4181978702545166 1.5833053588867188 -3.619075059890747 14.325934410095215 C -7.812466144561768 10.883719444274902 -15.883280754089355 5.062531471252441 -18.666046142578125 -0.6830666661262512 C -16.866783142089844 -9.046184539794922 -9.546276092529297 -16.36669158935547 0.23104284703731537 -18.829051971435547 C 4.245997905731201 -10.33475112915039 7.0550618171691895 0.16594868898391724 11.409294128417969 -10.289202690124512" stroke-width="0.0" fill="rgb(126, 72, 91)" opacity="0.5678321"/>
    <path d="M 5.598483085632324 -9.563591003417969 C 12.750760078430176 9.17802906036377 -9.239192008972168 6.077564239501953 -8.188368797302246 10.876197814941406 C -14.2337007522583 23.334243774414062 -27.07931137084961 21.382078170776367 -30.706090927124023 12.94836139678955 C -16.44465446472168 -9.736611366271973 -9.124147415161133 -17.057117462158203 6.232400417327881 -21.581317901611328 C 15.031309127807617 -26.656963348388672 17.822786331176758 -24.569612503051758 5.598483085632324 -9.563591003417969" stroke-width="0.0" fill="rgb(217, 85, 105)" opacity="0.8590388"/>
    <path d="M 17.487394332885742 -6.178262233734131 C 17.366857528686523 7.262503623962402 15.854471206665039 20.914180755615234 11.366402626037598 30.025724411010742 C -15.285061836242676 23.039777755737305 -16.699432373046875 11.138226509094238 -19.840694427490234 -0.4715460240840912 C -16.554672241210938 -9.87160873413086 -9.23416519165039 -17.192115783691406 0.7657674551010132 -19.871597290039062 C 10.712876319885254 -17.17760467529297 13.762894630432129 -7.5798258781433105 17.487394332885742 -6.178262233734131" stroke-width="0.0" fill="rgb(2, 183, 85)" opacity="0.9654048"/>
    <path d="M 18.76397705078125 -9.703593254089355 C 19.878023147583008 8.096445083618164 15.443755149841309 17.839580535888672 18.184377670288086 -0.94557124376297 C -2.3998641967773438 -0.3238823413848877 -17.63770294189453 0.3203359842300415 -21.594545364379883 -3.660740613937378 C -16.845224380493164 -9.450196266174316 -9.524717330932617 -16.77070426940918 12.849637031555176 -31.149513244628906 C 24.33209991455078 -32.826759338378906 31.138633728027344 -26.774152755737305 18.76397705078125 -9.703593254089355" stroke-width="0.0" fill="rgb(119, 169, 210)" opacity="0.75875163"/>
    <path d="M 6.310145854949951 -12.211097717285156 C 3.6905007362365723 -2.753696918487549 -3.753519296646118 5.4549384117126465 -13.5922212600708 7.742420673370361 C -9.980523109436035 18.249605178833008 -17.3010311126709 10.929098129272461 -19.98052406311035 0.9290986061096191 C -17.3010311126709 -9.070901870727539 -9.980523109436035 -16.391408920288086 0.1246582493185997 -19.109901428222656 C 13.833330154418945 -18.716350555419922 23.933635711669922 -15.446206092834473 6.310145854949951 -12.211097717285156" stroke-width="0.0" fill="rgb(44, 69, 221)" opacity="0.7773992"/>
    <path d="M 144.77073669433594 273.9888000488281 C 143.80343627929688 292.5238037109375 129.7095947265625 306.9075622558594 143.03662109375 307.0532531738281 C 143.0436553955078 302.4390563964844 148.69561767578125 290.60919189453125 133.80795288085938 308.5207214355469 C 143.13624572753906 316.83404541015625 135.549072265625 288.1197814941406 163.8227081298828 204.97393798828125 C 130.9142608642578 291.1424255371094 143.17431640625 282.7266540527344 144.77073669433594 273.9888000488281" stroke-width="0.0" fill="rgb(134, 61, 1)" opacity="0.54551226"/>
    <path d="M 31.595422744750977 -2.2898635864257812 C 30.377546310424805 11.901043891906738 13.04514217376709 15.8316650390625 -7.876311302185059 12.586682319641113 C -26.13149070739746 34.887210845947266 -32.232948303222656 26.62957763671875 -26.598867416381836 12.479584693908691 C -17.022062301635742 -9.361050605773926 -9.701555252075195 -16.681556701660156 8.039117813110352 -26.328065872192383 C 17.40652847290039 -23.53011131286621 23.12470817565918 -16.66412353515625 31.595422744750977 -2.2898635864257812" stroke-width="0.0" fill="rgb(21, 82, 63)" opacity="0.7627224"/>
    <path d="M 291.1162109375 390.7244567871094 C 296.6332092285156 393.6060485839844 305.708251953125 393.5538635253906 300.727294921875 400.2121276855469 C 277.7283935546875 410.8670959472656 292.29510498046875 402.26953125 276.2643737792969 407.42449951171875 C 283.2936096191406 393.0547790527344 278.0496520996094 369.8925476074219 310.4527893066406 367.229248046875 C 305.63934326171875 410.3511962890625 309.8980712890625 424.8995056152344 291.1162109375 390.7244567871094" stroke-width="0.0" fill="rgb(151, 105, 64)" opacity="0.68704253"/>
    <path d="M 444.31231689453125 345.40570068359375 C 428.4478454589844 317.0050354003906 423.101318359375 333.5177001953125 406.49066162109375 319.52764892578125 C 392.928466796875 331.33135986328125 415.9539489746094 320.6009826660156 384.95269775390625 325.0648193359375 C 397.53173828125 320.0492248535156 416.9677429199219 342.69677734375 430.25384521484375 350.8179626464844 C 385.410888671875 355.97027587890625 409.05914306640625 344.6881103515625 444.31231689453125 345.40570068359375" stroke-width="0.0" fill="rgb(0, 0, 61)" opacity="0.82805496"/>
    <path d="M 12.361185073852539 2.1398234367370605 C 2.6227097511291504 7.621921062469482 -6.184021949768066 7.873409748077393 -14.701085090637207 10.43591022491455 C -14.738516807556152 22.702892303466797 -17.05862808227539 10.722681999206543 -19.499805450439453 0.17958638072013855 C -16.819921493530273 -9.821348190307617 -9.49941349029541 -17.141855239868164 -6.97260856628418 -17.1190185546875 C -0.42711326479911804 -5.303324222564697 -0.9847643971443176 2.956094980239868 12.361185073852539 2.1398234367370605" stroke-width="0.0" fill="rgb(121, 48, 62)" opacity="0.7298666"/>
    <path d="M 376.4305725097656 246.96258544921875 C 358.0741271972656 311.0708312988281 342.61541748046875 329.598388671875 334.6000061035156 357.30047607421875 C 360.18310546875 330.0460510253906 351.5940856933594 301.56109619140625 361.5773620605469 295.4302978515625 C 364.220703125 323.1734924316406 359.7264709472656 324.1201477050781 398.6697692871094 335.8160705566406 C 404.4287109375 326.47747802734375 415.2212829589844 308.1714782714844 376.4305725097656 246.96258544921875" stroke-width="0.0" fill="rgb(237, 255, 219)" opacity="0.48418212"/>
    <path d="M 15.400785446166992 4.1261820793151855 C 22.147659301757812 9.328773498535156 11.396126747131348 16.0712890625 1.2844457626342773 15.635217666625977 C 0.8025296926498413 5.057222843170166 -8.579265594482422 -0.543326199054718 -15.274238586425781 -6.441456317901611 C -16.32535743713379 -9.35012149810791 -9.004850387573242 -16.670629501342773 -0.7218805551528931 -18.486465454101562 C 4.9119768142700195 -12.22001838684082 10.63303279876709 -2.657388925552368 15.400785446166992 4.1261820793151855" stroke-width="0.0" fill="rgb(141, 154, 110)" opacity="0.83993095"/>
    <path d="M 411.4884338378906 354.1163024902344 C 457.43609619140625 345.03448486328125 411.1631774902344 332.5782165527344 385.50738525390625 346.93096923828125 C 346.8663635253906 365.2591247558594 314.67022705078125 348.8538818359375 341.3508605957031 329.0960388183594 C 401.5448913574219 348.4541320800781 428.5487976074219 346.9920959472656 408.8384704589844 329.4446105957031 C 374.5882873535156 342.0438232421875 378.17877197265625 361.2134094238281 411.4884338378906 354.1163024902344" stroke-width="0.0" fill="rgb(0, 0, 57)" opacity="0.9999238"/>
    <path d="M 6.024835586547852 -13.133878707885742 C 3.0232534408569336 -2.962446689605713 0.34692350029945374 9.533785820007324 -8.413405418395996 12.88703441619873 C -12.561793327331543 19.609983444213867 -15.388622283935547 7.3126678466796875 -18.84197998046875 0.4103895425796509 C -16.44178581237793 -9.1683349609375 -9.121277809143066 -16.488842010498047 0.7887094020843506 -19.15119171142578 C 7.281322956085205 -15.126619338989258 11.838279724121094 -3.547450065612793 6.024835586547852 -13.133878707885742" stroke-width="0.0" fill="rgb(211, 22, 171)" opacity="0.80847764"/>
    <path d="M 358.0093688964844 37.0477180480957 C 346.2273254394531 88.71790313720703 332.0498962402344 80.2111587524414 296.1124267578125 78.48587799072266 C 289.0130920410156 57.39168167114258 280.55615234375 56.34130859375 263.73193359375 40.47297286987305 C 275.801025390625 19.505136489868164 272.6889343261719 16.49019432067871 296.1557922363281 28.5166015625 C 334.1746520996094 28.466964721679688 362.8495788574219 20.884130477905273 358.0093688964844 37.0477180480957" stroke-width="0.0" fill="rgb(35, 113, 206)" opacity="0.073694885"/>
    <path d="M 100.25335693359375 333.90008544921875 C 70.65486145019531 329.23614501953125 51.29438018798828 333.4512634277344 56.793426513671875 360.4902038574219 C 98.2046127319336 353.8456115722656 92.88644409179688 347.6654052734375 60.97911071777344 358.1294250488281 C 77.11250305175781 359.5110778808594 93.43653106689453 363.2115783691406 70.57872009277344 371.2206115722656 C 76.29650115966797 382.7867736816406 111.35099029541016 386.7050476074219 100.25335693359375 333.90008544921875" stroke-width="0.0" fill="rgb(174, 129, 19)" opacity="0.52264607"/>
    <path d="M 15.106864929199219 12.775016784667969 C 22.548654556274414 13.45973014831543 13.851858139038086 25.470930099487305 1.2403500080108643 22.01778793334961 C -2.5580391883850098 10.708369255065918 -15.983475685119629 7.9468092918396 -19.79537582397461 0.8721730709075928 C -17.055450439453125 -9.127567291259766 -9.734943389892578 -16.448074340820312 -15.739835739135742 -4.928879737854004 C -3.9459280967712402 -3.1033661365509033 7.818220138549805 -0.08944255858659744 15.106864929199219 12.775016784667969" stroke-width="0.0" fill="rgb(153, 192, 203)" opacity="0.70690244"/>
    <path d="M 358.9612121582031 412.7546081542969 C 366.5637512207031 431.2381896972656 340.8973388671875 432.4371643066406 332.1646728515625 430.5341491699219 C 318.9211120605469 438.34637451171875 312.116943359375 432.5196228027344 306.65863037109375 432.4197082519531 C 299.5163269042969 414.4434814453125 293.26885986328125 404.0545349121094 298.0212707519531 406.95635986328125 C 330.69158935546875 405.306884765625 354.5289611816406 411.2451171875 358.9612121582031 412.7546081542969" stroke-width="0.0" fill="rgb(210, 166, 77)" opacity="0.95796204"/>
    <path d="M 5.965323448181152 -11.978989601135254 C 6.766088485717773 2.906766653060913 4.061446666717529 7.100264072418213 -8.335646629333496 -0.15682387351989746 C -11.758476257324219 19.243555068969727 -20.228309631347656 9.854743003845215 -19.886560440063477 -0.4853663742542267 C -16.711536407470703 -9.847160339355469 -9.391029357910156 -17.167667388916016 8.973918914794922 -26.620601654052734 C 22.85447120666504 -30.263357162475586 28.234697341918945 -23.08574867248535 5.965323448181152 -11.978989601135254" stroke-width="0.0" fill="rgb(171, 24, 29)" opacity="0.76844746"/>
    <path d="M 437.75360107421875 330.6287536621094 C 403.3429260253906 339.8504943847656 379.38885498046875 345.6252746582031 370.2310485839844 338.592041015625 C 388.9884948730469 341.0292663574219 365.19744873046875 338.1902160644531 346.5101623535156 331.3846435546875 C 365.06201171875 306.1348876953125 375.0321960449219 301.00799560546875 388.738525390625 273.7324523925781 C 397.94720458984375 295.5311584472656 407.3346862792969 303.6700439453125 437.75360107421875 330.6287536621094" stroke-width="0.0" fill="rgb(251, 254, 196)" opacity="0.9944114"/>
    <path d="M 20.58660888671875 -16.86079978942871 C 22.27055549621582 1.1768923997879028 5.441413402557373 13.443645477294922 -0.9072103500366211 13.769404411315918 C -6.422453880310059 11.798784255981445 -18.22354507446289 9.301389694213867 -21.203826904296875 -0.06457643210887909 C -16.897369384765625 -9.788201332092285 -9.576862335205078 -17.10870933532715 0.42899808287620544 -19.789804458618164 C 12.406835556030273 -17.839611053466797 25.268993377685547 -16.800960540771484 20.58660888671875 -16.86079978942871" stroke-width="0.0" fill="rgb(167, 92, 175)" opacity="0.50078744"/>
    <path d="M 25.61176872253418 -3.6776607036590576 C 19.441516876220703 7.136857986450195 -1.791975975036621 8.800996780395508 -14.888916015625 13.708776473999023 C -6.786431312561035 17.695375442504883 -13.155801773071289 7.903697490692139 -16.379295349121094 -3.059117317199707 C -16.407878875732422 -9.129481315612793 -9.087371826171875 -16.449989318847656 6.248263835906982 -22.385807037353516 C 19.522544860839844 -24.627023696899414 27.075414657592773 -18.032182693481445 25.61176872253418 -3.6776607036590576" stroke-width="0.0" fill="rgb(126, 81, 145)" opacity="0.53383315"/>
    <path d="M 618.2482299804688 584.7276000976562 C 614.8675537109375 594.79931640625 608.1424560546875 602.6856079101562 613.5199584960938 599.07861328125 C 605.8102416992188 589.2537841796875 600.3832397460938 575.4684448242188 605.5628051757812 569.632568359375 C 594.2813110351562 573.4390258789062 615.06005859375 576.0963134765625 625.6417236328125 571.7044677734375 C 613.294921875 562.4312133789062 618.633056640625 571.0616455078125 618.2482299804688 584.7276000976562" stroke-width="0.0" fill="rgb(76, 137, 183)" opacity="0.43284684"/>
    <path d="M 54.01211929321289 164.13490295410156 C 46.29694366455078 169.2073516845703 31.9183406829834 172.91151428222656 0.5455759167671204 169.46759033203125 C -3.5076866149902344 191.24375915527344 -8.890894889831543 189.1522674560547 -18.309837341308594 152.58155822753906 C -12.574654579162598 128.6219024658203 -6.722424507141113 127.88147735595703 22.2231502532959 138.4189453125 C 53.50323486328125 124.28673553466797 53.07025146484375 121.4596176147461 54.01211929321289 164.13490295410156" stroke-width="0.0" fill="rgb(48, 132, 192)" opacity="0.4967267"/>
    <path d="M 14.316120147705078 -9.024972915649414 C 9.279082298278809 3.8647282123565674 6.058435440063477 14.232208251953125 -3.4649553298950195 15.558557510375977 C -9.959686279296875 19.02842903137207 -16.88648223876953 10.53212833404541 -19.561908721923828 0.5176295638084412 C -16.88240623474121 -9.482423782348633 -9.56190013885498 -16.80293083190918 0.4403921663761139 -19.48306655883789 C 10.925314903259277 -16.94585609436035 25.169084548950195 -14.488730430603027 14.316120147705078 -9.024972915649414" stroke-width="0.0" fill="rgb(124, 127, 0)" opacity="0.8686939"/>
    <path d="M 33.523380279541016 -0.7506459355354309 C 19.268903732299805 11.055684089660645 10.542255401611328 17.633037567138672 -7.321502208709717 26.698514938354492 C -17.181528091430664 35.225948333740234 -21.586063385009766 31.56985092163086 -21.187345504760742 18.04982566833496 C -16.55799674987793 -9.460620880126953 -9.237489700317383 -16.7811279296875 5.920825004577637 -24.932708740234375 C 15.447883605957031 -21.89617156982422 22.382226943969727 -14.258283615112305 33.523380279541016 -0.7506459355354309" stroke-width="0.0" fill="rgb(61, 115, 97)" opacity="0.7731203"/>
    <path d="M 266.94830322265625 168.9731903076172 C 269.0565490722656 185.0043182373047 267.2366943359375 197.8807373046875 247.96755981445312 185.29664611816406 C 228.95858764648438 202.7159423828125 225.28028869628906 172.98194885253906 224.78477478027344 146.23944091796875 C 222.6361541748047 160.30078125 233.90338134765625 160.50367736816406 246.05699157714844 156.41973876953125 C 263.4010314941406 151.03378295898438 257.0105895996094 151.26199340820312 266.94830322265625 168.9731903076172" stroke-width="0.0" fill="rgb(254, 254, 214)" opacity="0.597597"/>
    <path d="M 378.8852233886719 433.33538818359375 C 395.38836669921875 449.4345703125 381.5955810546875 446.7125244140625 373.1213684082031 418.57354736328125 C 366.6113586425781 435.6795349121094 367.9441833496094 453.451904296875 365.2508239746094 421.94598388671875 C 375.7202453613281 425.0668029785156 387.2262268066406 429.0662536621094 384.8988342285156 427.8128356933594 C 386.3233337402344 420.2111511230469 374.0071716308594 436.2971496582031 378.8852233886719 433.33538818359375" stroke-width="0.0" fill="rgb(202, 115, 110)" opacity="0.121111035"/>
    <path d="M 184.25436401367188 591.1199951171875 C 191.1269073486328 607.1641845703125 182.72103881835938 608.5437622070312 131.5904083251953 626.3844604492188 C 109.43277740478516 622.4285888671875 101.33173370361328 613.5557250976562 96.35140228271484 583.3583374023438 C 98.45213317871094 554.6807861328125 101.59932708740234 558.5908813476562 156.97085571289062 554.5437622070312 C 174.32315063476562 544.1868896484375 178.2925567626953 554.9702758789062 184.25436401367188 591.1199951171875" stroke-width="0.0" fill="rgb(40, 143, 172)" opacity="0.2941885"/>
  </g>
</svg>
