<?xml version="1.0" ?>
<svg xmlns="http://www.w3.org/2000/svg" version="1.1" width="600" height="600">
  <defs/>
  <g>
    <path d="M 372.46649169921875 606.202392578125 C 376.0151672363281 620.3997802734375 361.7762451171875 622.1270141601562 252.89065551757812 625.8175659179688 C 211.33114624023438 609.4638671875 219.8511505126953 571.2848510742188 204.59886169433594 486.3319396972656 C 175.12490844726562 479.4100646972656 185.6038360595703 504.0924377441406 290.57012939453125 481.0218811035156 C 339.9863586425781 446.8555603027344 350.2091369628906 461.2519836425781 372.46649169921875 606.202392578125" stroke-width="0.0" fill="rgb(5, 119, 158)" opacity="0.993791"/>
    <path d="M 393.2015686035156 8.661185264587402 C 350.6570129394531 97.67432403564453 328.7180480957031 92.08053588867188 239.9730987548828 107.88339233398438 C 181.5168914794922 102.98263549804688 161.68484497070312 101.03040313720703 169.92282104492188 17.435422897338867 C 223.0067901611328 -10.775652885437012 231.115966796875 -15.02476692199707 300.1318054199219 -33.908077239990234 C 353.7615661621094 -22.477603912353516 362.6272888183594 -22.34972381591797 393.2015686035156 8.661185264587402" stroke-width="0.0" fill="rgb(19, 60, 197)" opacity="0.9984522"/>
    <path d="M 242.5608367919922 581.9757080078125 C 240.61041259765625 657.636962890625 208.14744567871094 642.26171875 148.70545959472656 630.1890869140625 C 88.85377502441406 634.07861328125 71.20191192626953 635.79150390625 44.90382385253906 590.75830078125 C 55.67658233642578 505.43609619140625 72.19966125488281 497.1730651855469 152.7559814453125 479.51531982421875 C 226.05418395996094 477.32080078125 227.5316162109375 492.800537109375 242.5608367919922 581.9757080078125" stroke-width="0.0" fill="rgb(10, 113, 162)" opacity="0.99433917"/>
    <path d="M 620.40185546875 188.5521697998047 C 654.0477905273438 321.36492919921875 688.6962890625 355.2177429199219 554.701416015625 328.53985595703125 C 471.8464660644531 241.40638732910156 500.849853515625 173.475341796875 446.12518310546875 147.16346740722656 C 410.3205871582031 62.317588806152344 444.6326904296875 73.09439086914062 604.3126220703125 28.490957260131836 C 608.7633056640625 42.54670715332031 624.11083984375 43.71950149536133 620.40185546875 188.5521697998047" stroke-width="0.0" fill="rgb(14, 57, 198)" opacity="0.988258"/>
    <path d="M 408.8680419921875 399.44598388671875 C 346.86798095703125 550.296875 327.7676086425781 545.9232788085938 282.6749572753906 532.8700561523438 C 212.75918579101562 531.0462646484375 175.26373291015625 549.1063842773438 156.90907287597656 400.5642395019531 C 122.0389404296875 300.1192321777344 87.67972564697266 260.6340637207031 288.48004150390625 254.25328063964844 C 430.3321228027344 345.12030029296875 430.3471984863281 356.1907958984375 408.8680419921875 399.44598388671875" stroke-width="0.0" fill="rgb(106, 90, 70)" opacity="1.0"/>
    <path d="M 570.887451171875 217.94241333007812 C 579.5323486328125 317.3380126953125 557.1464233398438 325.248779296875 335.1870422363281 336.6726379394531 C 276.03155517578125 308.17535400390625 278.3489074707031 240.29502868652344 141.68617248535156 106.6405029296875 C 241.03009033203125 34.90069580078125 306.4727478027344 84.30743408203125 400.41497802734375 64.97428131103516 C 449.078369140625 89.44901275634766 450.501953125 108.81195068359375 570.887451171875 217.94241333007812" stroke-width="0.0" fill="rgb(255, 255, 239)" opacity="1.0"/>
    <path d="M 463.2257385253906 99.79801940917969 C 424.3707580566406 155.0642547607422 420.8065490722656 175.11019897460938 379.7201843261719 270.17950439453125 C 313.7842102050781 179.1668701171875 289.9310607910156 172.6466522216797 303.0019836425781 166.80459594726562 C 345.8761901855469 93.94595336914062 343.75726318359375 66.55876159667969 398.4246826171875 82.95848846435547 C 433.5936279296875 49.44675064086914 445.9840087890625 40.24662399291992 463.2257385253906 99.79801940917969" stroke-width="0.0" fill="rgb(14, 18, 77)" opacity="0.85012573"/>
    <path d="M 228.3943634033203 374.1175231933594 C 219.38037109375 582.3583984375 209.93878173828125 588.0401000976562 144.9391326904297 561.4052124023438 C 7.426363468170166 575.651123046875 -23.16586685180664 591.0501098632812 -40.089385986328125 364.2270202636719 C -53.899505615234375 294.4585266113281 -80.2663345336914 263.71136474609375 152.4048614501953 181.93663024902344 C 268.0296936035156 236.42466735839844 234.49256896972656 284.4330139160156 228.3943634033203 374.1175231933594" stroke-width="0.0" fill="rgb(8, 104, 166)" opacity="0.97862184"/>
    <path d="M 225.6563262939453 175.3419952392578 C 235.52259826660156 172.83563232421875 255.2203826904297 220.50331115722656 203.9061279296875 338.6826477050781 C -64.87007904052734 280.72613525390625 -62.742774963378906 277.4681701660156 -26.31976318359375 248.86122131347656 C 75.89039611816406 49.086177825927734 105.90409088134766 48.12521743774414 135.4695281982422 40.932044982910156 C 119.55392456054688 55.505130767822266 138.58836364746094 52.61436462402344 225.6563262939453 175.3419952392578" stroke-width="0.0" fill="rgb(26, 14, 0)" opacity="1.0"/>
    <path d="M 185.2620086669922 25.281015396118164 C 167.662841796875 96.82698059082031 150.1112518310547 97.53361511230469 27.64786148071289 195.5804443359375 C -57.01474380493164 195.59976196289062 -68.04267883300781 189.4901885986328 -67.7935791015625 99.4420166015625 C -10.15634822845459 -47.66112518310547 14.742843627929688 -33.53483581542969 88.61690521240234 -21.188705444335938 C 145.8590087890625 -16.679738998413086 165.73182678222656 -14.86175537109375 185.2620086669922 25.281015396118164" stroke-width="0.0" fill="rgb(20, 56, 207)" opacity="1.0"/>
    <path d="M 248.1735076904297 510.0272216796875 C 219.75836181640625 624.5647583007812 187.88998413085938 607.4580688476562 69.67707061767578 641.51904296875 C 0.23701122403144836 625.3303833007812 -13.258038520812988 623.44189453125 -91.44529724121094 551.966064453125 C -79.78667449951172 438.0591735839844 -24.075332641601562 469.271240234375 74.36504364013672 456.3173828125 C 143.00057983398438 450.3106994628906 195.27413940429688 456.3120422363281 248.1735076904297 510.0272216796875" stroke-width="0.0" fill="rgb(8, 114, 169)" opacity="1.0"/>
    <path d="M 671.1875 59.555763244628906 C 606.8859252929688 163.13140869140625 555.918701171875 151.1197052001953 460.9642639160156 183.55078125 C 423.4048156738281 154.963134765625 423.07879638671875 126.53997802734375 420.38104248046875 112.23461151123047 C 434.323486328125 37.93794631958008 439.3233642578125 5.222346782684326 528.267822265625 -32.75432586669922 C 586.9144287109375 -28.242599487304688 607.3302001953125 -33.922061920166016 671.1875 59.555763244628906" stroke-width="0.0" fill="rgb(15, 62, 195)" opacity="0.997475"/>
    <path d="M 641.6785888671875 385.4141845703125 C 615.0821533203125 682.791015625 603.6884765625 678.2999267578125 512.907958984375 686.6163940429688 C 324.6148986816406 655.2559814453125 344.2784423828125 624.3799438476562 334.6324768066406 522.1006469726562 C 301.5353698730469 393.5084228515625 287.30242919921875 394.9611511230469 519.7868041992188 388.4208068847656 C 614.74609375 315.55810546875 632.213623046875 319.2928771972656 641.6785888671875 385.4141845703125" stroke-width="0.0" fill="rgb(11, 123, 167)" opacity="0.9821483"/>
    <path d="M 189.84544372558594 13.161826133728027 C 165.12477111816406 109.71128845214844 248.13241577148438 96.86925506591797 281.33746337890625 350.0560607910156 C 171.8048553466797 136.44171142578125 130.5634307861328 115.76477813720703 107.1390151977539 35.89986038208008 C 110.44243621826172 -36.938297271728516 113.06110382080078 -40.624629974365234 178.45616149902344 -23.98573112487793 C 244.1951141357422 -10.326559066772461 249.1752471923828 17.884048461914062 189.84544372558594 13.161826133728027" stroke-width="0.0" fill="rgb(14, 22, 0)" opacity="1.0"/>
    <path d="M 359.33935546875 26.534076690673828 C 335.88507080078125 134.2371826171875 347.8099670410156 185.56527709960938 318.9709777832031 151.84564208984375 C 297.7457580566406 130.91229248046875 278.83831787109375 106.2874984741211 217.2637176513672 80.73600769042969 C 260.52130126953125 35.12308120727539 279.8988952636719 30.549734115600586 382.21929931640625 48.015403747558594 C 418.498046875 34.79127502441406 403.42193603515625 17.520458221435547 359.33935546875 26.534076690673828" stroke-width="0.0" fill="rgb(9, 3, 218)" opacity="0.8931845"/>
    <path d="M 495.64923095703125 -23.499530792236328 C 473.1028137207031 69.33486938476562 485.4202880859375 110.64663696289062 440.0328063964844 139.6026153564453 C 358.3198547363281 120.42098236083984 376.11578369140625 83.53082275390625 362.2137451171875 -25.713943481445312 C 338.94970703125 -42.82296371459961 357.9593811035156 -37.32992935180664 411.2666015625 -31.221025466918945 C 478.4912109375 -22.089885711669922 497.2137756347656 -22.92432403564453 495.64923095703125 -23.499530792236328" stroke-width="0.0" fill="rgb(17, 61, 194)" opacity="1.0"/>
    <path d="M 240.52684020996094 10.80848217010498 C 194.85916137695312 125.3988265991211 153.88951110839844 102.12501525878906 110.03663635253906 95.72755432128906 C 97.76679992675781 113.16712188720703 85.85173797607422 91.82168579101562 90.88752746582031 117.29804229736328 C 93.29830169677734 59.97698974609375 66.4690933227539 -7.993967533111572 109.55081176757812 -78.58292388916016 C 206.8662109375 -28.904287338256836 222.25572204589844 -27.566505432128906 240.52684020996094 10.80848217010498" stroke-width="0.0" fill="rgb(16, 59, 209)" opacity="1.0"/>
    <path d="M 370.1188659667969 83.96391296386719 C 387.685791015625 159.96585083007812 383.3559875488281 179.30201721191406 361.05963134765625 240.8719940185547 C 317.58245849609375 152.46612548828125 295.6932678222656 135.32302856445312 287.1328125 83.73226165771484 C 229.96066284179688 17.26209831237793 233.23043823242188 16.387842178344727 336.9103698730469 11.867517471313477 C 399.2629089355469 10.818787574768066 392.5833740234375 25.99089813232422 370.1188659667969 83.96391296386719" stroke-width="0.0" fill="rgb(15, 58, 203)" opacity="0.9793352"/>
    <path d="M 120.66924285888672 128.93663024902344 C 134.72933959960938 172.66453552246094 125.27088928222656 187.19935607910156 129.4715118408203 193.74122619628906 C 75.21807861328125 159.90203857421875 74.28763580322266 162.83053588867188 58.313846588134766 137.59930419921875 C 67.65287780761719 130.79135131835938 87.18949127197266 129.2836456298828 94.38101959228516 96.67845153808594 C 113.38943481445312 98.10577392578125 124.81169891357422 101.78616333007812 120.66924285888672 128.93663024902344" stroke-width="0.0" fill="rgb(1, 69, 190)" opacity="0.74354583"/>
    <path d="M 192.6499786376953 70.55029296875 C 207.037109375 206.77383422851562 195.5535888671875 202.88424682617188 212.01095581054688 188.38954162597656 C 106.0159683227539 138.18084716796875 89.68131256103516 173.14263916015625 78.58137512207031 116.04362487792969 C 128.3430938720703 102.88966369628906 140.89964294433594 104.2568130493164 142.77296447753906 75.26580047607422 C 178.69212341308594 76.49085235595703 241.32261657714844 81.67155456542969 192.6499786376953 70.55029296875" stroke-width="0.0" fill="rgb(13, 58, 210)" opacity="0.98951054"/>
    <path d="M 462.7565002441406 245.82220458984375 C 439.4755554199219 194.48440551757812 472.209228515625 227.38284301757812 468.6346130371094 248.71096801757812 C 359.6455078125 272.07073974609375 399.904541015625 312.3332824707031 358.48822021484375 199.40744018554688 C 380.5269775390625 137.79519653320312 381.6667785644531 128.938232421875 420.8829650878906 141.3896942138672 C 480.0116882324219 139.78323364257812 473.0442810058594 134.7946014404297 462.7565002441406 245.82220458984375" stroke-width="0.0" fill="rgb(0, 9, 215)" opacity="1.0"/>
    <path d="M 94.1053237915039 165.16708374023438 C 71.11947631835938 174.515869140625 35.11897277832031 161.2852020263672 10.582529067993164 207.3863067626953 C -17.74129295349121 215.0857696533203 -33.48325729370117 211.02215576171875 -0.337024986743927 206.19979858398438 C 43.149600982666016 175.9102325439453 40.8792724609375 170.88047790527344 42.76475524902344 146.4530792236328 C 67.58912658691406 130.3570098876953 81.25035095214844 127.29529571533203 94.1053237915039 165.16708374023438" stroke-width="0.0" fill="rgb(5, 71, 198)" opacity="0.6243168"/>
    <path d="M 131.50711059570312 218.6280059814453 C 75.51083374023438 207.86351013183594 74.23602294921875 199.39810180664062 45.47266387939453 213.171142578125 C 29.133289337158203 246.18746948242188 -7.103434085845947 241.7322235107422 3.667269468307495 186.71470642089844 C 43.20714569091797 160.73545837402344 40.603946685791016 136.6838836669922 78.25453186035156 129.35281372070312 C 130.26284790039062 133.663330078125 138.19056701660156 110.2868423461914 131.50711059570312 218.6280059814453" stroke-width="0.0" fill="rgb(14, 55, 219)" opacity="1.0"/>
    <path d="M 340.56329345703125 538.1028442382812 C 341.0622863769531 601.6736450195312 348.7703857421875 562.0547485351562 270.53363037109375 579.9019775390625 C 186.7030487060547 598.0203857421875 200.9925079345703 610.3514404296875 164.25042724609375 465.3973083496094 C 149.7081298828125 411.2196044921875 156.3140106201172 438.3543701171875 297.45379638671875 424.3839111328125 C 358.50384521484375 420.4696044921875 338.5779113769531 431.6967468261719 340.56329345703125 538.1028442382812" stroke-width="0.0" fill="rgb(14, 124, 166)" opacity="0.95985657"/>
    <path d="M 547.363525390625 158.49630737304688 C 547.8646240234375 229.3828125 455.2342224121094 188.5839080810547 371.5034484863281 232.5428924560547 C 341.8139953613281 166.12269592285156 340.48828125 150.3280487060547 336.0660095214844 116.8313217163086 C 337.9972839355469 59.530113220214844 324.7489929199219 56.54743957519531 404.4599609375 28.7685604095459 C 450.587646484375 32.302879333496094 462.2536926269531 46.434669494628906 547.363525390625 158.49630737304688" stroke-width="0.0" fill="rgb(18, 56, 199)" opacity="0.9887359"/>
    <path d="M 304.2309875488281 130.20750427246094 C 320.8378601074219 172.09747314453125 311.96832275390625 158.8907928466797 289.29974365234375 134.39112854003906 C 242.18832397460938 98.6978988647461 225.5071563720703 92.40779876708984 197.69158935546875 82.4441146850586 C 159.0155487060547 41.88896179199219 161.59873962402344 33.77722930908203 234.22021484375 27.184322357177734 C 308.129150390625 26.63332176208496 282.3084716796875 40.750244140625 304.2309875488281 130.20750427246094" stroke-width="0.0" fill="rgb(19, 55, 216)" opacity="1.0"/>
    <path d="M 71.20905303955078 252.27223205566406 C 83.28588104248047 277.0225524902344 71.11480712890625 275.4912109375 63.254886627197266 296.91583251953125 C 59.594913482666016 419.5307312011719 9.517487525939941 409.6787109375 -70.07028198242188 356.4758605957031 C -35.023807525634766 164.83206176757812 -32.57756042480469 160.32943725585938 37.04322814941406 176.2407989501953 C 57.87149429321289 229.91697692871094 64.70153045654297 243.18466186523438 71.20905303955078 252.27223205566406" stroke-width="0.0" fill="rgb(10, 62, 236)" opacity="0.96697754"/>
    <path d="M 347.358154296875 140.62860107421875 C 359.3609924316406 181.63478088378906 408.69305419921875 259.59100341796875 315.55023193359375 339.3448181152344 C 418.98260498046875 230.71551513671875 365.4449768066406 314.384765625 381.45953369140625 229.4730682373047 C 320.81671142578125 142.0121307373047 344.9491882324219 126.28328704833984 330.5679931640625 131.16574096679688 C 362.42547607421875 137.13082885742188 383.2794189453125 153.13302612304688 347.358154296875 140.62860107421875" stroke-width="0.0" fill="rgb(2, 61, 186)" opacity="0.08602761"/>
    <path d="M 80.35908508300781 100.19881439208984 C 79.40401458740234 134.15773010253906 84.95745849609375 176.38511657714844 76.6526870727539 148.91567993164062 C 14.221820831298828 157.61465454101562 33.661312103271484 174.57423400878906 24.19610023498535 133.05007934570312 C 68.88040161132812 130.94192504882812 74.05484008789062 140.27932739257812 98.5623550415039 117.97795104980469 C 97.01708221435547 98.31730651855469 93.80196380615234 118.51429748535156 80.35908508300781 100.19881439208984" stroke-width="0.0" fill="rgb(10, 65, 192)" opacity="0.3129584"/>
    <path d="M 144.64495849609375 92.97772216796875 C 129.4387664794922 154.36207580566406 133.65545654296875 129.6389923095703 135.1165008544922 131.30191040039062 C 49.08803176879883 138.8679962158203 27.208560943603516 155.01126098632812 61.818389892578125 118.46430969238281 C 78.12728881835938 81.37593841552734 77.09182739257812 69.90477752685547 88.2201156616211 71.77384185791016 C 143.66348266601562 73.46652221679688 135.93360900878906 57.851531982421875 144.64495849609375 92.97772216796875" stroke-width="0.0" fill="rgb(16, 57, 209)" opacity="0.7514591"/>
    <path d="M 403.14697265625 50.73701477050781 C 385.75274658203125 147.29879760742188 373.6583251953125 151.44789123535156 359.051513671875 102.66831970214844 C 278.648681640625 100.56748962402344 276.6447448730469 109.5147933959961 263.82586669921875 64.40312957763672 C 244.90512084960938 2.4683752059936523 243.90771484375 7.729307651519775 302.1138916015625 9.42858600616455 C 381.4718322753906 4.477959156036377 407.27911376953125 -5.177396774291992 403.14697265625 50.73701477050781" stroke-width="0.0" fill="rgb(14, 60, 194)" opacity="0.42781445"/>
    <path d="M 59.037010192871094 220.7734375 C 67.14664459228516 253.06185913085938 50.32973861694336 240.2582550048828 -5.673733234405518 262.3699035644531 C -31.718833923339844 268.92578125 -28.885662078857422 256.2384033203125 -28.005247116088867 220.2108917236328 C -13.937725067138672 175.08506774902344 -5.759314060211182 164.03013610839844 45.8173942565918 136.58485412597656 C 109.23792266845703 121.17439270019531 94.00760650634766 129.3231201171875 59.037010192871094 220.7734375" stroke-width="0.0" fill="rgb(19, 63, 205)" opacity="0.27542648"/>
    <path d="M 547.934326171875 343.6585998535156 C 632.6580810546875 318.781494140625 615.3804931640625 369.22125244140625 533.8486328125 416.9747619628906 C 392.7789611816406 384.5874938964844 359.2288818359375 345.2222900390625 478.78753662109375 376.0207824707031 C 508.07635498046875 399.1443176269531 498.3795166015625 365.28302001953125 578.8161010742188 239.79275512695312 C 566.6680908203125 264.7406921386719 549.1260375976562 354.87158203125 547.934326171875 343.6585998535156" stroke-width="0.0" fill="rgb(0, 5, 10)" opacity="1.0"/>
    <path d="M 416.6147766113281 175.63829040527344 C 399.26251220703125 216.840087890625 423.5235290527344 220.8970947265625 353.3138732910156 223.4049072265625 C 316.49468994140625 211.22564697265625 313.1068115234375 184.96295166015625 303.65283203125 176.0419464111328 C 303.7562561035156 91.19402313232422 309.0195617675781 109.7550277709961 381.5112609863281 113.86003875732422 C 386.8568115234375 126.3144760131836 395.1496887207031 123.1102066040039 416.6147766113281 175.63829040527344" stroke-width="0.0" fill="rgb(21, 52, 202)" opacity="0.70101434"/>
    <path d="M 418.904541015625 206.22525024414062 C 431.10382080078125 221.67117309570312 397.5957946777344 212.4928436279297 363.8219909667969 242.13148498535156 C 357.6346130371094 237.21795654296875 342.1951599121094 223.15208435058594 310.41278076171875 184.68743896484375 C 330.8868713378906 159.192626953125 333.32470703125 159.92422485351562 389.96051025390625 162.52818298339844 C 414.65960693359375 163.04180908203125 406.7097473144531 158.7158966064453 418.904541015625 206.22525024414062" stroke-width="0.0" fill="rgb(22, 50, 209)" opacity="0.8531332"/>
    <path d="M 551.8672485351562 368.9319152832031 C 485.55755615234375 404.50286865234375 485.5439147949219 417.5357971191406 485.1268310546875 388.5550842285156 C 477.3582458496094 405.7226867675781 404.4397888183594 463.2985534667969 224.37860107421875 342.7898254394531 C 463.9081115722656 337.25189208984375 409.66949462890625 275.5377502441406 472.73760986328125 372.05438232421875 C 564.018310546875 390.508544921875 560.542724609375 371.12506103515625 551.8672485351562 368.9319152832031" stroke-width="0.0" fill="rgb(0, 2, 14)" opacity="0.9919842"/>
    <path d="M 206.6240234375 347.9278564453125 C 218.13296508789062 413.866943359375 182.9859619140625 375.4817199707031 207.0556640625 374.0738220214844 C 137.1783905029297 359.8967590332031 114.04864501953125 380.99407958984375 44.43260192871094 356.9460754394531 C 109.84661102294922 301.6965637207031 132.39515686035156 276.60345458984375 198.59613037109375 332.6600646972656 C 166.6026153564453 326.3426208496094 159.2711944580078 330.0462646484375 206.6240234375 347.9278564453125" stroke-width="0.0" fill="rgb(246, 90, 6)" opacity="0.9911027"/>
    <path d="M 365.8546142578125 341.8201904296875 C 440.4217224121094 306.07037353515625 427.8108215332031 323.56170654296875 429.83782958984375 384.5291748046875 C 234.92535400390625 377.93682861328125 265.5295715332031 396.2088317871094 182.80662536621094 278.0826110839844 C 253.8111572265625 251.59719848632812 279.6150207519531 265.51300048828125 316.48004150390625 246.28665161132812 C 287.3798828125 323.5216064453125 294.486572265625 305.4757080078125 365.8546142578125 341.8201904296875" stroke-width="0.0" fill="rgb(0, 5, 0)" opacity="0.6849827"/>
    <path d="M 229.4043426513672 209.14617919921875 C 312.53436279296875 390.18658447265625 273.6181945800781 422.21270751953125 253.1300048828125 382.8110046386719 C 183.0464324951172 331.5957336425781 165.26206970214844 318.0499267578125 202.7958984375 325.8800048828125 C 199.32614135742188 375.4920959472656 234.57275390625 353.693115234375 128.9534149169922 153.66000366210938 C 129.14468383789062 149.13816833496094 243.105712890625 191.7151641845703 229.4043426513672 209.14617919921875" stroke-width="0.0" fill="rgb(255, 255, 225)" opacity="1.0"/>
    <path d="M 189.38040161132812 338.13616943359375 C 196.78466796875 376.1796875 222.20301818847656 343.3388366699219 138.02650451660156 307.6068115234375 C 72.04576110839844 312.4263000488281 88.1463623046875 428.8814697265625 24.612043380737305 315.9302673339844 C 145.63925170898438 275.6297607421875 10.520687103271484 294.31207275390625 137.71392822265625 264.63623046875 C 190.85694885253906 237.6112518310547 170.42774963378906 264.2329406738281 189.38040161132812 338.13616943359375" stroke-width="0.0" fill="rgb(4, 0, 0)" opacity="1.0"/>
    <path d="M 620.930419921875 351.6418151855469 C 612.1397705078125 440.0924987792969 584.83251953125 430.1595764160156 532.5213623046875 424.0357666015625 C 495.1598815917969 423.2515869140625 484.047119140625 402.583251953125 573.3560791015625 395.1957702636719 C 514.7893676757812 393.0186462402344 473.7952575683594 314.64190673828125 570.9293823242188 351.67462158203125 C 630.0927124023438 346.46990966796875 540.3438110351562 351.01971435546875 620.930419921875 351.6418151855469" stroke-width="0.0" fill="rgb(32, 8, 14)" opacity="1.0"/>
    <path d="M 321.1611633300781 432.7957458496094 C 264.7252502441406 460.7370300292969 237.61953735351562 452.556640625 147.83554077148438 456.0704345703125 C 45.3827018737793 450.05859375 -39.598297119140625 448.14862060546875 -20.35858917236328 451.9889221191406 C 99.09260559082031 338.7177429199219 121.27623748779297 369.2120056152344 131.68988037109375 357.61444091796875 C 193.5945281982422 356.1311950683594 222.59735107421875 330.2001037597656 321.1611633300781 432.7957458496094" stroke-width="0.0" fill="rgb(200, 135, 74)" opacity="0.9174804"/>
    <path d="M 679.7152709960938 453.16424560546875 C 565.685791015625 463.22088623046875 506.3085632324219 449.6394958496094 468.6732177734375 452.89892578125 C 479.07965087890625 450.5275573730469 411.6639099121094 455.78814697265625 232.29928588867188 446.0087890625 C 335.9206237792969 317.6501770019531 481.5440368652344 406.6297302246094 470.53961181640625 390.2492370605469 C 522.4644165039062 403.4613342285156 651.206298828125 369.89251708984375 679.7152709960938 453.16424560546875" stroke-width="0.0" fill="rgb(183, 131, 79)" opacity="0.99590766"/>
    <path d="M 391.1505432128906 282.68621826171875 C 356.15411376953125 320.91668701171875 348.4515686035156 334.9427795410156 290.6872253417969 395.32763671875 C 280.0367126464844 345.4245300292969 281.4617614746094 302.589599609375 266.6207580566406 254.37832641601562 C 258.08111572265625 192.14456176757812 218.7476043701172 168.364013671875 293.3006591796875 137.0187530517578 C 358.11541748046875 195.32241821289062 377.25384521484375 251.39663696289062 391.1505432128906 282.68621826171875" stroke-width="0.0" fill="rgb(255, 255, 233)" opacity="1.0"/>
    <path d="M 200.07586669921875 328.5950927734375 C 167.0839385986328 324.0551452636719 139.66831970214844 251.65554809570312 130.70523071289062 323.316162109375 C 100.78520965576172 289.40155029296875 104.91867065429688 274.30267333984375 48.876949310302734 202.7947998046875 C 23.242338180541992 192.21804809570312 112.12540435791016 198.3218231201172 157.2321319580078 220.41403198242188 C 148.1460723876953 243.18597412109375 135.52752685546875 179.61561584472656 200.07586669921875 328.5950927734375" stroke-width="0.0" fill="rgb(255, 255, 226)" opacity="1.0"/>
    <path d="M 46.944889068603516 228.47201538085938 C 3.423421621322632 210.69784545898438 -5.52524995803833 210.22756958007812 -53.886993408203125 221.55958557128906 C -20.834638595581055 261.152099609375 -24.13606834411621 247.15725708007812 -1.0972901582717896 219.6999969482422 C -9.815948486328125 180.1018524169922 -18.839048385620117 158.18775939941406 41.589012145996094 153.1798095703125 C 53.57557678222656 167.41209411621094 40.88346862792969 205.77378845214844 46.944889068603516 228.47201538085938" stroke-width="0.0" fill="rgb(7, 65, 220)" opacity="0.42857316"/>
    <path d="M 347.5978698730469 408.3104553222656 C 311.43096923828125 371.1319885253906 338.384033203125 392.00714111328125 273.05731201171875 371.8192443847656 C 225.9141082763672 387.6055908203125 209.9218292236328 399.99822998046875 142.49160766601562 390.1879577636719 C 231.87181091308594 364.5832824707031 232.1979522705078 349.6224670410156 222.4449462890625 323.59490966796875 C 281.9096984863281 400.0723571777344 314.2882385253906 384.3476867675781 347.5978698730469 408.3104553222656" stroke-width="0.0" fill="rgb(98, 99, 5)" opacity="0.6803177"/>
    <path d="M 221.26976013183594 339.5105285644531 C 203.70901489257812 414.7347106933594 199.0 392.6258850097656 130.8910369873047 392.5622253417969 C 64.4574203491211 400.9055480957031 -19.01386260986328 435.5543518066406 26.031946182250977 407.8529968261719 C 59.56278991699219 350.4267578125 63.73213195800781 375.40771484375 139.5067901611328 369.61419677734375 C 183.72259521484375 366.2911682128906 220.62660217285156 342.5435485839844 221.26976013183594 339.5105285644531" stroke-width="0.0" fill="rgb(128, 33, 81)" opacity="0.18629934"/>
    <path d="M 8.155540466308594 -22.865623474121094 C 15.5582275390625 -0.7503820061683655 9.796658515930176 8.898979187011719 -4.752117156982422 1.6421833038330078 C -14.924125671386719 -0.841998815536499 -18.917627334594727 5.332236289978027 -19.740039825439453 0.12575826048851013 C -16.982421875 -9.411691665649414 -9.661914825439453 -16.73219871520996 0.4028683602809906 -19.430208206176758 C 14.80246353149414 -19.136451721191406 25.885068893432617 -17.273025512695312 8.155540466308594 -22.865623474121094" stroke-width="0.0" fill="rgb(137, 110, 210)" opacity="0.47386387"/>
    <path d="M 94.95914459228516 392.6592102050781 C 94.8265151977539 439.9461975097656 103.83955383300781 448.09918212890625 75.82473754882812 437.9537658691406 C 40.89512634277344 432.6308288574219 -21.90066909790039 453.4347229003906 -52.03531265258789 391.8822326660156 C 66.00703430175781 397.2831726074219 128.9904327392578 399.8083801269531 147.56849670410156 395.2491760253906 C 116.68643188476562 375.80242919921875 127.65645599365234 398.1815185546875 94.95914459228516 392.6592102050781" stroke-width="0.0" fill="rgb(228, 159, 71)" opacity="0.99915063"/>
    <path d="M 11.511065483093262 -7.752028465270996 C 7.490123271942139 -4.5448713302612305 -10.794986724853516 -4.032142162322998 -11.851308822631836 13.66728687286377 C -12.019783973693848 20.291475296020508 -17.963672637939453 11.17838191986084 -19.717044830322266 0.08903668820858002 C -17.01299285888672 -9.9420747756958 -9.692485809326172 -17.262582778930664 4.290517330169678 -24.41715431213379 C 3.114889621734619 -11.209005355834961 8.196426391601562 -1.6535558700561523 11.511065483093262 -7.752028465270996" stroke-width="0.0" fill="rgb(45, 175, 218)" opacity="0.8398856"/>
    <path d="M 7.612069606781006 -15.262670516967773 C 1.3960734605789185 -6.107578277587891 -4.768421173095703 2.328716278076172 -14.165040969848633 8.91519546508789 C -7.494129180908203 13.853774070739746 -16.44186782836914 10.003032684326172 -19.140310287475586 0.07065293192863464 C -16.46087074279785 -9.929142951965332 -9.140364646911621 -17.249649047851562 0.8595881462097168 -19.929134368896484 C 10.7965726852417 -17.232444763183594 12.67076587677002 -6.555479526519775 7.612069606781006 -15.262670516967773" stroke-width="0.0" fill="rgb(58, 133, 163)" opacity="0.7386663"/>
    <path d="M 86.8941421508789 372.9637451171875 C 126.0788345336914 396.7887268066406 98.96513366699219 398.2586669921875 115.24752044677734 396.48321533203125 C 97.18722534179688 404.6490173339844 55.55363464355469 393.3134765625 105.28760528564453 382.7691650390625 C 48.47416687011719 377.9106140136719 65.61245727539062 371.0633850097656 203.3854217529297 393.8852233886719 C 13.673576354980469 405.4776306152344 7.774744033813477 393.7614440917969 86.8941421508789 372.9637451171875" stroke-width="0.0" fill="rgb(201, 80, 94)" opacity="0.71076393"/>
    <path d="M 461.3907165527344 375.1533508300781 C 239.8739013671875 424.70745849609375 357.9213562011719 430.1803894042969 321.89471435546875 401.5686950683594 C 119.87272644042969 392.5435485839844 101.25872802734375 411.4677734375 33.009639739990234 372.42767333984375 C 177.5270233154297 333.74102783203125 218.8431396484375 340.40380859375 254.06617736816406 358.13861083984375 C 257.6299743652344 385.16156005859375 301.7379150390625 374.38079833984375 461.3907165527344 375.1533508300781" stroke-width="0.0" fill="rgb(184, 113, 38)" opacity="0.98253214"/>
    <path d="M 561.9391479492188 363.1860046386719 C 534.9649047851562 373.9148254394531 514.1177368164062 375.2933349609375 567.7208251953125 397.37554931640625 C 589.830322265625 370.4989013671875 616.5480346679688 375.17913818359375 507.597900390625 377.89898681640625 C 519.9845581054688 355.0743103027344 550.4672241210938 345.54266357421875 577.0818481445312 341.45697021484375 C 560.5916137695312 363.83074951171875 575.1392822265625 338.1466979980469 561.9391479492188 363.1860046386719" stroke-width="0.0" fill="rgb(70, 1, 1)" opacity="0.4794003"/>
    <path d="M 653.3135375976562 394.1012268066406 C 574.2507934570312 399.237060546875 497.041015625 396.9256896972656 497.3641052246094 398.60693359375 C 496.6722412109375 402.0015869140625 463.72454833984375 401.0102844238281 438.33026123046875 394.00927734375 C 446.2857360839844 364.67095947265625 464.6201171875 373.9852600097656 566.8313598632812 376.5243835449219 C 636.096923828125 381.3058776855469 621.09814453125 361.95208740234375 653.3135375976562 394.1012268066406" stroke-width="0.0" fill="rgb(163, 100, 44)" opacity="1.0"/>
    <path d="M 15.066794395446777 -3.4974615573883057 C 15.259186744689941 10.746813774108887 11.25780200958252 19.362329483032227 -1.1061867475509644 21.28653335571289 C -9.576421737670898 17.78753089904785 -16.896928787231445 10.467024803161621 -19.5764217376709 0.46702465415000916 C -16.896928787231445 -9.532975196838379 -9.576421737670898 -16.853483200073242 0.4577889144420624 -19.54372787475586 C 12.68661880493164 -17.792919158935547 25.936124801635742 -15.92970085144043 15.066794395446777 -3.4974615573883057" stroke-width="0.0" fill="rgb(109, 180, 27)" opacity="0.8606353"/>
    <path d="M 429.7544860839844 377.3904724121094 C 427.2840270996094 389.6084289550781 446.73712158203125 403.8877868652344 410.8814697265625 397.962646484375 C 296.2652893066406 402.0623474121094 311.8112487792969 379.43280029296875 283.366455078125 375.6153869628906 C 426.03497314453125 366.2048034667969 438.9764099121094 378.907958984375 429.52618408203125 377.6202697753906 C 423.6781005859375 370.156494140625 429.432373046875 386.4744567871094 429.7544860839844 377.3904724121094" stroke-width="0.0" fill="rgb(163, 56, 43)" opacity="0.14814673"/>
    <path d="M 1.8782248497009277 -14.65660285949707 C -9.879772186279297 17.25689125061035 -3.3902361392974854 25.976985931396484 -0.7816264629364014 20.665876388549805 C -15.169917106628418 17.33446502685547 -20.854150772094727 11.871720314025879 -19.412477493286133 -1.3860257863998413 C -17.09039306640625 -9.77978229522705 -9.769885063171387 -17.100290298461914 -1.1522223949432373 -20.95516586303711 C 8.069567680358887 -20.578468322753906 22.95226287841797 -19.017498016357422 1.8782248497009277 -14.65660285949707" stroke-width="0.0" fill="rgb(3, 111, 188)" opacity="0.7198765"/>
    <path d="M 488.87213134765625 401.6104431152344 C 479.8343811035156 405.42901611328125 465.7898254394531 405.1374206542969 409.95111083984375 391.6519470214844 C 375.8760986328125 391.3174743652344 324.674560546875 402.3548889160156 299.7345275878906 394.9079284667969 C 455.5777587890625 405.93951416015625 446.808349609375 392.7518310546875 428.5824279785156 377.7030029296875 C 460.7249450683594 364.2284240722656 444.34210205078125 406.0238342285156 488.87213134765625 401.6104431152344" stroke-width="0.0" fill="rgb(111, 93, 66)" opacity="0.13569811"/>
    <path d="M 520.7881469726562 374.5528564453125 C 498.21014404296875 376.5639953613281 501.7374572753906 364.5378723144531 514.93603515625 366.4660949707031 C 475.9906921386719 391.95782470703125 472.2914733886719 397.70343017578125 343.70001220703125 403.5894470214844 C 438.9462585449219 366.4666442871094 449.97698974609375 398.1509094238281 375.1925354003906 377.2297668457031 C 513.1393432617188 375.0649719238281 520.2050170898438 384.5876159667969 520.7881469726562 374.5528564453125" stroke-width="0.0" fill="rgb(195, 102, 20)" opacity="0.93320554"/>
    <path d="M 577.52294921875 244.57977294921875 C 501.4118347167969 233.95460510253906 458.6778564453125 251.7353515625 484.0407409667969 232.83987426757812 C 512.2298583984375 239.01922607421875 482.7815246582031 241.58604431152344 461.1988525390625 246.49356079101562 C 467.3703308105469 177.222900390625 476.8837890625 169.92698669433594 463.1731872558594 172.294189453125 C 520.6727905273438 159.45880126953125 571.804931640625 149.03933715820312 577.52294921875 244.57977294921875" stroke-width="0.0" fill="rgb(17, 58, 201)" opacity="1.0"/>
    <path d="M 53.12266540527344 378.271728515625 C 147.15284729003906 392.4490966796875 149.36627197265625 404.5252685546875 42.835697174072266 394.39776611328125 C 98.25363159179688 365.4232482910156 103.24696350097656 374.68145751953125 29.899965286254883 364.948974609375 C 107.83757019042969 374.782958984375 104.87516021728516 379.3814392089844 76.41162109375 394.3422546386719 C 29.711971282958984 399.6639709472656 44.029998779296875 404.0501708984375 53.12266540527344 378.271728515625" stroke-width="0.0" fill="rgb(233, 51, 64)" opacity="0.29073694"/>
    <path d="M 430.6541442871094 398.4581604003906 C 431.6440124511719 390.091796875 441.1894836425781 364.24969482421875 481.1202697753906 400.6243896484375 C 445.7301025390625 400.2537841796875 419.146728515625 395.10845947265625 251.73590087890625 390.1945495605469 C 321.37725830078125 358.6430969238281 403.8703918457031 402.02044677734375 465.5047607421875 379.4222717285156 C 396.4898376464844 375.2091064453125 418.32623291015625 384.7399597167969 430.6541442871094 398.4581604003906" stroke-width="0.0" fill="rgb(168, 121, 16)" opacity="0.7573132"/>
    <path d="M 238.24896240234375 359.69842529296875 C 160.39169311523438 341.61309814453125 138.42015075683594 341.585205078125 139.0887908935547 344.73858642578125 C 156.63597106933594 355.8990478515625 118.255615234375 342.76263427734375 48.01768493652344 362.97802734375 C 138.4075164794922 376.3375244140625 173.07601928710938 393.95831298828125 153.4029541015625 383.78887939453125 C 123.84233856201172 354.59271240234375 146.93746948242188 368.7516784667969 238.24896240234375 359.69842529296875" stroke-width="0.0" fill="rgb(171, 126, 4)" opacity="0.16272806"/>
    <path d="M 12.392610549926758 -2.627559185028076 C 18.372310638427734 14.842616081237793 14.412639617919922 20.51837158203125 3.326953887939453 15.477703094482422 C -11.349397659301758 16.82851219177246 -16.74169158935547 10.742074966430664 -19.27385902404785 0.6761168837547302 C -16.5914306640625 -9.326635360717773 -9.27092456817627 -16.64714241027832 0.729080080986023 -19.326635360717773 C 10.729859352111816 -16.64735984802246 18.099531173706055 -9.340949058532715 12.392610549926758 -2.627559185028076" stroke-width="0.0" fill="rgb(147, 52, 202)" opacity="0.6774716"/>
    <path d="M 276.2616271972656 370.88409423828125 C 275.93914794921875 392.9934387207031 284.939697265625 367.0112609863281 231.6759033203125 350.8603210449219 C 232.5845947265625 357.2568664550781 246.0343017578125 362.6443176269531 268.3092346191406 366.0234069824219 C 238.72940063476562 322.44537353515625 253.58514404296875 336.3525390625 258.84039306640625 332.88433837890625 C 223.71400451660156 341.8697814941406 230.90145874023438 351.0652770996094 276.2616271972656 370.88409423828125" stroke-width="0.0" fill="rgb(181, 140, 48)" opacity="0.30616945"/>
    <path d="M 2.6423778533935547 -16.81160545349121 C 0.18192125856876373 -6.870418071746826 -7.442681312561035 0.7431287169456482 -16.522390365600586 5.188178062438965 C -1.3929160833358765 10.460786819458008 -10.994269371032715 4.206995010375977 -18.962488174438477 0.42818933725357056 C -16.44249725341797 -9.053050994873047 -9.121990203857422 -16.373558044433594 0.8307257294654846 -19.039100646972656 C 8.117667198181152 -15.154083251953125 11.373674392700195 -3.3326563835144043 2.6423778533935547 -16.81160545349121" stroke-width="0.0" fill="rgb(106, 137, 201)" opacity="0.6306397"/>
    <path d="M 249.39939880371094 354.4892578125 C 245.14932250976562 324.6828918457031 223.1431121826172 315.6509094238281 207.289794921875 342.2671813964844 C 227.28224182128906 335.3163757324219 216.1571502685547 310.1973571777344 201.5289306640625 302.65924072265625 C 199.06321716308594 280.3538818359375 169.57200622558594 273.302490234375 221.71734619140625 284.4040832519531 C 257.1078796386719 294.794921875 264.92144775390625 306.00750732421875 249.39939880371094 354.4892578125" stroke-width="0.0" fill="rgb(255, 252, 233)" opacity="0.9304481"/>
    <path d="M 23.759963989257812 9.759283065795898 C 20.236074447631836 31.431522369384766 24.153478622436523 15.257868766784668 18.37911033630371 -17.924312591552734 C -8.690038681030273 24.92770004272461 -17.038089752197266 11.650256156921387 -19.190027236938477 1.808484435081482 C -16.781211853027344 -9.270069122314453 -9.46070384979248 -16.590576171875 13.51939868927002 -29.788284301757812 C 22.48318099975586 -19.067350387573242 27.814542770385742 -13.40292739868164 23.759963989257812 9.759283065795898" stroke-width="0.0" fill="rgb(51, 97, 124)" opacity="0.6579627"/>
    <path d="M 85.74925231933594 358.2859191894531 C 72.89311218261719 400.78033447265625 102.16736602783203 390.8343200683594 33.59762954711914 394.9819641113281 C 35.71453857421875 374.2755126953125 35.31529235839844 365.5715637207031 69.98728942871094 379.6448059082031 C 35.27356719970703 418.1181640625 39.62633514404297 368.76580810546875 34.791969299316406 330.1166687011719 C 168.1567840576172 318.1220703125 150.72352600097656 347.9835510253906 85.74925231933594 358.2859191894531" stroke-width="0.0" fill="rgb(200, 113, 9)" opacity="1.0"/>
    <path d="M 7.336240768432617 -16.62367820739746 C 5.712299823760986 -4.216733932495117 -1.930936574935913 -0.18359257280826569 -18.460416793823242 1.3969343900680542 C -9.878995895385742 17.545204162597656 -17.19950294494629 10.22469711303711 -19.878995895385742 0.22469733655452728 C -17.19950294494629 -9.77530288696289 -9.878995895385742 -17.095809936523438 0.12100419402122498 -19.77530288696289 C 10.121004104614258 -17.095809936523438 17.441511154174805 -9.77530288696289 7.336240768432617 -16.62367820739746" stroke-width="0.0" fill="rgb(90, 169, 151)" opacity="0.8131145"/>
    <path d="M 8.654825210571289 -7.992249488830566 C 9.659233093261719 5.726744651794434 5.800367832183838 14.129551887512207 1.7030473947525024 32.48038864135742 C -22.859542846679688 30.960233688354492 -21.4593563079834 18.779603958129883 -20.003782272338867 0.7854568362236023 C -17.223575592041016 -9.568948745727539 -9.903069496154785 -16.889455795288086 1.9116979837417603 -20.320388793945312 C 17.08049201965332 -22.367408752441406 25.912946701049805 -17.295804977416992 8.654825210571289 -7.992249488830566" stroke-width="0.0" fill="rgb(62, 50, 114)" opacity="0.9542248"/>
    <path d="M 2.3166985511779785 7.165031909942627 C 6.741630554199219 5.741532802581787 -3.878236770629883 8.345874786376953 -18.411548614501953 19.75811195373535 C -18.896944046020508 25.89599609375 -25.97115135192871 18.73531723022461 -22.68186378479004 3.0753402709960938 C -17.234853744506836 -9.514009475708008 -9.914346694946289 -16.834516525268555 7.148804187774658 -26.185672760009766 C 17.69637107849121 -27.197021484375 13.589496612548828 -14.244444847106934 2.3166985511779785 7.165031909942627" stroke-width="0.0" fill="rgb(125, 73, 119)" opacity="0.47157258"/>
    <path d="M 27.786943435668945 2.7984371185302734 C 9.86612319946289 0.7218916416168213 3.6418328285217285 8.420561790466309 2.0503034591674805 26.086605072021484 C 7.175271987915039 -3.5873775482177734 -3.126110792160034 -6.946249961853027 -16.165050506591797 -3.0009803771972656 C -16.541879653930664 -9.469646453857422 -9.221373558044434 -16.79015350341797 -8.512897491455078 -11.70721435546875 C 0.624916672706604 -9.056618690490723 13.571557998657227 -8.074747085571289 27.786943435668945 2.7984371185302734" stroke-width="0.0" fill="rgb(150, 31, 189)" opacity="0.6440192"/>
    <path d="M 5.677915573120117 -13.460976600646973 C -1.6855076551437378 -7.070007801055908 -6.630035400390625 -0.7728642225265503 -11.603110313415527 12.295744895935059 C -15.329435348510742 9.523780822753906 -19.753055572509766 4.249380588531494 -19.502225875854492 -1.1771880388259888 C -16.638795852661133 -9.463029861450195 -9.318289756774902 -16.783536911010742 -0.474869966506958 -20.743982315063477 C 3.5780603885650635 -12.73945426940918 7.3541059494018555 1.0742214918136597 5.677915573120117 -13.460976600646973" stroke-width="0.0" fill="rgb(137, 99, 158)" opacity="0.4814858"/>
    <path d="M 3.5612001419067383 -13.76861572265625 C -1.8054414987564087 -2.782137870788574 -4.9798455238342285 3.6461870670318604 -15.017906188964844 16.059350967407227 C -15.250297546386719 21.753023147583008 -21.214311599731445 12.94140625 -22.53776741027832 2.716356039047241 C -17.082502365112305 -9.331022262573242 -9.761995315551758 -16.65152931213379 3.50339937210083 -22.925804138183594 C 13.113490104675293 -19.698991775512695 22.627038955688477 -13.923898696899414 3.5612001419067383 -13.76861572265625" stroke-width="0.0" fill="rgb(11, 79, 159)" opacity="0.74250174"/>
    <path d="M 14.519400596618652 -13.626867294311523 C 11.091068267822266 -0.8101544976234436 -10.000321388244629 -1.4272314310073853 -21.772645950317383 2.961163282394409 C -4.336082935333252 11.25937271118164 -16.61431884765625 10.038243293762207 -19.52638053894043 0.7812351584434509 C -16.847835540771484 -9.215380668640137 -9.527328491210938 -16.535886764526367 6.936838626861572 -24.428054809570312 C 19.354095458984375 -23.599294662475586 24.39567756652832 -12.4669771194458 14.519400596618652 -13.626867294311523" stroke-width="0.0" fill="rgb(218, 111, 159)" opacity="0.5840821"/>
    <path d="M 263.8232116699219 355.1753234863281 C 247.0341796875 354.6091613769531 242.95736694335938 368.57318115234375 196.07864379882812 354.71295166015625 C 199.3916015625 364.5796203613281 231.12815856933594 349.5668640136719 94.10669708251953 362.02435302734375 C 129.70399475097656 269.52789306640625 179.02529907226562 328.21490478515625 203.65748596191406 350.061279296875 C 224.5977020263672 340.0954895019531 242.21102905273438 334.5163269042969 263.8232116699219 355.1753234863281" stroke-width="0.0" fill="rgb(194, 117, 7)" opacity="0.9258886"/>
    <path d="M 303.8917236328125 396.76763916015625 C 549.9542846679688 403.5474548339844 509.7698669433594 391.8229675292969 435.8541564941406 392.6221618652344 C 279.1564636230469 398.3981018066406 307.27850341796875 384.952392578125 306.5363464355469 397.9256286621094 C 303.839599609375 404.1611328125 311.05029296875 376.66656494140625 313.7421875 381.3076171875 C 302.70562744140625 390.47412109375 299.824951171875 368.0535583496094 303.8917236328125 396.76763916015625" stroke-width="0.0" fill="rgb(0, 0, 58)" opacity="1.0"/>
    <path d="M 404.50787353515625 308.2789611816406 C 427.7396545410156 318.8997802734375 465.20556640625 354.0079345703125 414.0010681152344 325.2326965332031 C 383.9812316894531 327.55084228515625 378.2921447753906 318.38922119140625 395.41064453125 285.6700134277344 C 396.4494934082031 264.1048583984375 397.5960693359375 281.80938720703125 388.1245422363281 284.1328430175781 C 393.2159423828125 277.71087646484375 402.3845520019531 295.90179443359375 404.50787353515625 308.2789611816406" stroke-width="0.0" fill="rgb(122, 101, 12)" opacity="0.404817"/>
    <path d="M 11.05754566192627 -8.602518081665039 C 6.095116138458252 -1.1377252340316772 -6.165701866149902 0.8166566491127014 -18.982316970825195 1.7849164009094238 C -6.949453830718994 13.04409408569336 -17.248334884643555 10.749545097351074 -19.930788040161133 0.7606006264686584 C -17.25129508972168 -9.239398002624512 -9.930787086486816 -16.559904098510742 0.18982930481433868 -19.25076675415039 C 15.339883804321289 -17.807165145874023 25.98610496520996 -18.587799072265625 11.05754566192627 -8.602518081665039" stroke-width="0.0" fill="rgb(69, 133, 20)" opacity="0.9136375"/>
    <path d="M 275.24688720703125 375.40087890625 C 256.2975158691406 313.88409423828125 275.3575439453125 335.4043884277344 236.219482421875 322.356689453125 C 233.6629638671875 319.0455017089844 212.50857543945312 315.11810302734375 217.38693237304688 310.2254943847656 C 221.43460083007812 353.9978942871094 255.0491180419922 325.5874938964844 223.83135986328125 321.0216369628906 C 211.49623107910156 357.4725341796875 214.9515838623047 341.6292724609375 275.24688720703125 375.40087890625" stroke-width="0.0" fill="rgb(0, 0, 11)" opacity="1.0"/>
    <path d="M 26.435070037841797 -6.537729263305664 C 11.448955535888672 -1.4063220024108887 -6.588965892791748 5.564863204956055 -8.035164833068848 13.205723762512207 C -19.233686447143555 19.609066009521484 -18.821533203125 11.157249450683594 -19.822465896606445 0.3413924276828766 C -17.119356155395508 -9.688283920288086 -9.798849105834961 -17.008790969848633 0.3238087594509125 -19.894407272338867 C 14.403635025024414 -21.70263671875 22.138933181762695 -14.233057975769043 26.435070037841797 -6.537729263305664" stroke-width="0.0" fill="rgb(62, 108, 96)" opacity="0.61084163"/>
    <path d="M 3.258610486984253 -19.434825897216797 C 0.5592403411865234 -2.0569519996643066 -3.173603057861328 6.905174255371094 -18.961767196655273 11.034147262573242 C -17.910120010375977 26.312681198120117 -20.184024810791016 15.896574020385742 -19.74907684326172 0.6981455087661743 C -17.053682327270508 -9.359038352966309 -9.733175277709961 -16.67954444885254 4.027881622314453 -21.857023239135742 C 17.158720016479492 -23.41332244873047 24.913606643676758 -16.588634490966797 3.258610486984253 -19.434825897216797" stroke-width="0.0" fill="rgb(75, 154, 249)" opacity="0.7845745"/>
    <path d="M 491.5838928222656 390.6088562011719 C 482.46539306640625 389.109619140625 454.5411071777344 391.8648986816406 459.6312255859375 378.7076416015625 C 469.7577819824219 384.5913391113281 444.2396240234375 394.57452392578125 427.7940979003906 379.32879638671875 C 443.2456359863281 364.17596435546875 479.7615051269531 396.02215576171875 459.4453125 377.6937561035156 C 477.4139709472656 366.7476806640625 496.9510498046875 365.546630859375 491.5838928222656 390.6088562011719" stroke-width="0.0" fill="rgb(193, 101, 1)" opacity="0.8957502"/>
    <path d="M 2.4574387073516846 -17.440135955810547 C -1.8628437519073486 -6.50300407409668 -5.342134475708008 10.074796676635742 -5.329336643218994 20.1970157623291 C -8.971611022949219 15.288301467895508 -17.1021785736084 10.117321014404297 -19.78575897216797 0.13228929042816162 C -17.10626983642578 -9.867688179016113 -9.785762786865234 -17.188194274902344 0.21423503756523132 -19.867687225341797 C 10.212512016296387 -17.18773078918457 17.03218650817871 -9.720755577087402 2.4574387073516846 -17.440135955810547" stroke-width="0.0" fill="rgb(138, 2, 175)" opacity="0.86514044"/>
    <path d="M 435.7608947753906 385.6812744140625 C 433.8077697753906 392.0494384765625 445.2254943847656 385.2249755859375 393.16082763671875 379.9558410644531 C 437.4231262207031 374.518310546875 423.5910949707031 377.6152038574219 415.294677734375 390.23004150390625 C 412.10595703125 370.67388916015625 437.7919006347656 372.18389892578125 412.9622497558594 366.493408203125 C 434.4718322753906 366.03936767578125 417.04583740234375 419.9939880371094 435.7608947753906 385.6812744140625" stroke-width="0.0" fill="rgb(89, 54, 8)" opacity="0.0693339"/>
    <path d="M 22.5534610748291 393.3794860839844 C 25.864452362060547 385.68084716796875 27.3392276763916 404.9761047363281 25.358243942260742 400.3790283203125 C 20.286420822143555 401.3290710449219 -2.2476871013641357 396.8634033203125 27.97371482849121 400.0256042480469 C -3.116560220718384 397.1807861328125 1.3974255323410034 393.8327331542969 -0.3366089165210724 379.0145263671875 C 12.797286033630371 380.8241271972656 46.05460739135742 378.8941955566406 22.5534610748291 393.3794860839844" stroke-width="0.0" fill="rgb(66, 36, 158)" opacity="0.45818338"/>
    <path d="M 87.36009979248047 330.0454406738281 C 113.7389907836914 347.0729675292969 136.95318603515625 380.3191833496094 132.1614532470703 360.99322509765625 C 107.00260925292969 328.19378662109375 82.17777252197266 333.6972351074219 87.15927124023438 363.5603332519531 C 102.25475311279297 362.1240539550781 94.91232299804688 333.2642517089844 96.21241760253906 344.683837890625 C 94.48152160644531 343.4248046875 111.20042419433594 346.3041687011719 87.36009979248047 330.0454406738281" stroke-width="0.0" fill="rgb(209, 84, 80)" opacity="0.13301186"/>
    <path d="M 16.518543243408203 2.258582592010498 C 21.194927215576172 15.728487014770508 16.203964233398438 21.308740615844727 2.060817003250122 20.505794525146484 C -9.324373245239258 19.125030517578125 -16.33898162841797 10.18943977355957 -19.015748977661133 0.09823304414749146 C -16.336341857910156 -9.901581764221191 -9.01583480834961 -17.222089767456055 1.1004084348678589 -19.896255493164062 C 12.432860374450684 -17.41800880432129 20.391868591308594 -9.824422836303711 16.518543243408203 2.258582592010498" stroke-width="0.0" fill="rgb(15, 3, 163)" opacity="0.86543196"/>
    <path d="M 147.1068878173828 399.568115234375 C 150.65835571289062 400.29901123046875 154.1306915283203 380.900634765625 162.03968811035156 394.1309814453125 C 104.02737426757812 398.0658874511719 100.34849548339844 395.3229675292969 101.18401336669922 396.7521057128906 C 109.99496459960938 374.216796875 62.73493957519531 384.51922607421875 99.72257232666016 380.1314392089844 C 156.50755310058594 371.0820007324219 142.64743041992188 367.8166809082031 147.1068878173828 399.568115234375" stroke-width="0.0" fill="rgb(151, 109, 32)" opacity="0.28808376"/>
    <path d="M 198.69566345214844 345.30731201171875 C 121.94378662109375 304.7004699707031 130.9237518310547 315.206298828125 134.5908966064453 311.99920654296875 C 139.28233337402344 283.5306701660156 132.86412048339844 284.91754150390625 152.78289794921875 298.285400390625 C 144.17401123046875 293.74407958984375 156.66683959960938 297.5526123046875 150.50851440429688 295.71502685546875 C 194.29896545410156 311.7239685058594 167.84661865234375 291.78680419921875 198.69566345214844 345.30731201171875" stroke-width="0.0" fill="rgb(0, 0, 13)" opacity="0.9991442"/>
    <path d="M 78.42589569091797 408.5826110839844 C 98.20270538330078 396.15704345703125 82.1075439453125 411.05181884765625 115.20756530761719 418.80145263671875 C 110.46730041503906 394.999755859375 108.26649475097656 373.4957275390625 69.4333267211914 373.2809753417969 C 98.3740463256836 401.0566711425781 103.59453582763672 354.2866516113281 77.35443878173828 341.4866027832031 C 77.74800872802734 324.00225830078125 78.88020324707031 418.0651550292969 78.42589569091797 408.5826110839844" stroke-width="0.0" fill="rgb(172, 119, 19)" opacity="0.13472871"/>
    <path d="M 367.076904296875 333.16168212890625 C 352.10333251953125 352.84039306640625 378.5457763671875 331.0918884277344 372.22357177734375 300.4161682128906 C 364.3170166015625 317.3503112792969 349.70556640625 312.7945251464844 349.6934814453125 344.0196533203125 C 364.4752197265625 309.9372863769531 383.0207824707031 306.53973388671875 391.1444091796875 308.7470397949219 C 409.7422180175781 289.9716796875 399.604248046875 287.54510498046875 367.076904296875 333.16168212890625" stroke-width="0.0" fill="rgb(80, 23, 102)" opacity="0.7334503"/>
    <path d="M 394.7254638671875 351.48870849609375 C 416.1040954589844 320.8227233886719 414.7748107910156 317.9718017578125 412.39208984375 307.62945556640625 C 412.6922912597656 325.02154541015625 400.33782958984375 344.92437744140625 433.4267578125 354.2113342285156 C 446.8455810546875 338.4493103027344 406.08477783203125 283.84478759765625 390.13397216796875 296.8809509277344 C 392.224609375 337.8932800292969 399.9844665527344 341.9819641113281 394.7254638671875 351.48870849609375" stroke-width="0.0" fill="rgb(0, 0, 19)" opacity="0.83085805"/>
    <path d="M 158.2095489501953 217.50425720214844 C 147.90890502929688 213.98109436035156 139.671875 247.07376098632812 139.36392211914062 291.817626953125 C 154.19674682617188 256.22552490234375 153.9302215576172 229.9732208251953 167.6851348876953 237.5665283203125 C 173.0139617919922 271.3967590332031 176.13963317871094 247.45155334472656 163.402587890625 221.8115234375 C 156.43572998046875 214.8919219970703 149.9191436767578 230.93893432617188 158.2095489501953 217.50425720214844" stroke-width="0.0" fill="rgb(48, 0, 0)" opacity="0.4774659"/>
    <path d="M 75.36650848388672 290.45208740234375 C 75.26758575439453 281.2957458496094 77.19391632080078 305.7984924316406 53.16943359375 311.3697814941406 C 9.121660232543945 332.87994384765625 -0.8110846281051636 323.3629455566406 49.37303924560547 302.6602783203125 C 39.0145149230957 316.1556396484375 54.685630798339844 307.4189147949219 68.5846939086914 279.09027099609375 C 78.15702056884766 279.22393798828125 80.67601776123047 293.20751953125 75.36650848388672 290.45208740234375" stroke-width="0.0" fill="rgb(162, 161, 56)" opacity="0.79986835"/>
    <path d="M 34.398250579833984 -2.1325299739837646 C 30.698957443237305 17.936777114868164 24.917186737060547 33.43394088745117 13.483633041381836 15.899914741516113 C -10.307429313659668 15.447368621826172 -15.8153715133667 6.039689064025879 -17.889101028442383 -8.05418586730957 C -17.208955764770508 -9.565235137939453 -9.888447761535645 -16.8857421875 0.6565349698066711 -20.331188201904297 C 14.329729080200195 -21.728031158447266 21.604890823364258 -14.358142852783203 34.398250579833984 -2.1325299739837646" stroke-width="0.0" fill="rgb(47, 140, 50)" opacity="0.28592324"/>
    <path d="M 6.604468822479248 -14.509465217590332 C -0.2907453775405884 -10.164703369140625 -7.313826560974121 -4.190537929534912 -8.900157928466797 10.810065269470215 C -7.861473560333252 10.91978931427002 -15.899827003479004 5.078436374664307 -18.667070388793945 -0.68198561668396 C -16.866783142089844 -9.046184539794922 -9.546276092529297 -16.36669158935547 0.23104284703731537 -18.829051971435547 C 4.245997905731201 -10.33475112915039 7.0550618171691895 0.16594868898391724 6.604468822479248 -14.509465217590332" stroke-width="0.0" fill="rgb(126, 72, 91)" opacity="0.5675592"/>
    <path d="M 0.03926976025104523 -21.319583892822266 C 4.035571098327637 0.5887981653213501 -17.49342918395996 0.9825688004493713 -14.253162384033203 8.46119499206543 C -14.2337007522583 23.334243774414062 -27.07931137084961 21.382078170776367 -30.706090927124023 12.94836139678955 C -16.44465446472168 -9.736611366271973 -9.124147415161133 -17.057117462158203 6.232400417327881 -21.581317901611328 C 15.031158447265625 -26.657007217407227 17.819686889648438 -24.57123565673828 0.03926976025104523 -21.319583892822266" stroke-width="0.0" fill="rgb(229, 117, 117)" opacity="0.8923101"/>
    <path d="M 14.068999290466309 -16.77914047241211 C 2.659393072128296 -12.64980697631836 -3.8387022018432617 -3.4180333614349365 -5.466159820556641 18.71584701538086 C -14.263092041015625 15.779809951782227 -17.946271896362305 7.378846168518066 -20.823854446411133 -2.868000030517578 C -16.554672241210938 -9.87160873413086 -9.23416519165039 -17.192115783691406 0.7657674551010132 -19.871597290039062 C 10.712876319885254 -17.17760467529297 13.762709617614746 -7.579775810241699 14.068999290466309 -16.77914047241211" stroke-width="0.0" fill="rgb(0, 152, 93)" opacity="0.7999121"/>
    <path d="M 12.033926010131836 -19.09160804748535 C 10.275927543640137 -3.7204105854034424 3.5823862552642822 5.991270065307617 10.103208541870117 -11.477449417114258 C -7.805159091949463 -6.729490756988525 -20.28087043762207 -3.1538925170898438 -21.930130004882812 -4.819513320922852 C -16.845224380493164 -9.450196266174316 -9.524717330932617 -16.77070426940918 12.884623527526855 -31.15993881225586 C 24.41878318786621 -32.93001937866211 31.18840789794922 -26.90509796142578 12.033926010131836 -19.09160804748535" stroke-width="0.0" fill="rgb(101, 143, 187)" opacity="0.68511194"/>
    <path d="M 6.085135459899902 -12.403017044067383 C 3.4085428714752197 -3.0044443607330322 -4.019437313079834 5.20866060256958 -13.813676834106445 7.512994766235352 C -9.980523109436035 18.249605178833008 -17.3010311126709 10.929098129272461 -19.98052406311035 0.9290986061096191 C -17.3010311126709 -9.070901870727539 -9.980523109436035 -16.391408920288086 0.1246582493185997 -19.109901428222656 C 13.833330154418945 -18.716350555419922 23.933671951293945 -15.446219444274902 6.085135459899902 -12.403017044067383" stroke-width="0.0" fill="rgb(44, 70, 222)" opacity="0.7742283"/>
    <path d="M 2.9239184856414795 -6.388999938964844 C -4.272210597991943 -6.9033026695251465 -3.02296781539917 10.400697708129883 -7.729559421539307 15.356195449829102 C -17.18536949157715 25.097997665405273 -21.088361740112305 15.73966121673584 -19.795791625976562 0.3342929184436798 C -17.249513626098633 -9.368897438049316 -9.929006576538086 -16.689403533935547 -1.9738585948944092 -19.52035140991211 C 5.784294605255127 -15.706960678100586 9.572737693786621 -5.051560878753662 2.9239184856414795 -6.388999938964844" stroke-width="0.0" fill="rgb(10, 215, 109)" opacity="0.66804105"/>
    <path d="M 26.023420333862305 -13.853612899780273 C 19.573209762573242 -2.3030283451080322 -0.5746780037879944 1.5065875053405762 -22.198139190673828 -0.19009505212306976 C -26.131540298461914 34.88752365112305 -32.232948303222656 26.629610061645508 -26.598867416381836 12.479584693908691 C -17.022062301635742 -9.361050605773926 -9.701555252075195 -16.681556701660156 8.039142608642578 -26.328065872192383 C 17.40744400024414 -23.530414581298828 23.12779998779297 -16.666484832763672 26.023420333862305 -13.853612899780273" stroke-width="0.0" fill="rgb(40, 111, 87)" opacity="0.65445447"/>
    <path d="M 307.5452880859375 378.6949768066406 C 322.2764587402344 380.61907958984375 324.0911560058594 381.85272216796875 321.6286315917969 398.1488952636719 C 259.47137451171875 402.179443359375 279.1781311035156 398.8478698730469 283.0387268066406 405.9590148925781 C 260.2390441894531 389.6724853515625 251.22303771972656 363.8813171386719 328.22662353515625 375.7495422363281 C 323.30548095703125 417.6477966308594 328.88134765625 414.8258972167969 307.5452880859375 378.6949768066406" stroke-width="0.0" fill="rgb(153, 98, 40)" opacity="0.9558074"/>
    <path d="M 28.761077880859375 15.480998992919922 C 28.957664489746094 15.679847717285156 10.61337947845459 36.95148468017578 5.15045690536499 25.083621978759766 C -14.751113891601562 21.082094192504883 -28.53872299194336 21.683122634887695 -27.646175384521484 8.165424346923828 C -16.513010025024414 -9.809590339660645 -9.192502975463867 -17.130096435546875 4.638803482055664 -24.758384704589844 C 11.235624313354492 -18.154884338378906 8.0923490524292 -2.859684705734253 28.761077880859375 15.480998992919922" stroke-width="0.0" fill="rgb(15, 117, 64)" opacity="0.83291954"/>
    <path d="M 20.65088653564453 9.829449653625488 C 11.101458549499512 15.890663146972656 3.921389579772949 14.516458511352539 -6.666420936584473 4.122209072113037 C -14.738516807556152 22.702892303466797 -17.05862808227539 10.722681999206543 -19.499805450439453 0.17958638072013855 C -16.819921493530273 -9.821348190307617 -9.49941349029541 -17.141855239868164 -0.5475503206253052 -28.686237335205078 C 5.027237892150879 -14.684492111206055 1.261995792388916 -6.070588111877441 20.65088653564453 9.829449653625488" stroke-width="0.0" fill="rgb(192, 34, 115)" opacity="0.8037636"/>
    <path d="M 353.5203857421875 259.50146484375 C 354.91131591796875 309.87322998046875 337.5492858886719 327.3525085449219 325.7220153808594 346.589599609375 C 348.3244323730469 319.4414978027344 347.281494140625 301.4802551269531 379.90771484375 294.51690673828125 C 372.93798828125 313.0848388671875 367.5856018066406 329.9026794433594 409.5242614746094 348.7755432128906 C 397.95220947265625 339.2459411621094 400.52679443359375 323.86395263671875 353.5203857421875 259.50146484375" stroke-width="0.0" fill="rgb(249, 255, 247)" opacity="0.23040645"/>
    <path d="M 34.41004943847656 14.931894302368164 C 25.799453735351562 16.044681549072266 13.815335273742676 31.694154739379883 -0.2939165234565735 23.562789916992188 C -1.7672944068908691 9.688765525817871 -16.883872985839844 6.946683406829834 -25.98824119567871 0.5319309830665588 C -16.32535743713379 -9.35012149810791 -9.004850387573242 -16.670629501342773 -12.055335998535156 13.114208221435547 C -5.886660575866699 16.997142791748047 17.093942642211914 26.710498809814453 34.41004943847656 14.931894302368164" stroke-width="0.0" fill="rgb(36, 87, 101)" opacity="0.48002806"/>
    <path d="M 429.50494384765625 371.40350341796875 C 473.388916015625 349.8455810546875 412.771240234375 321.7026672363281 402.9627380371094 365.169921875 C 342.74554443359375 388.98486328125 315.8473205566406 370.33203125 359.63873291015625 333.62335205078125 C 419.8314514160156 316.1285095214844 442.738037109375 323.46063232421875 414.4832763671875 319.2846374511719 C 381.84051513671875 337.3786315917969 380.8730773925781 369.3564758300781 429.50494384765625 371.40350341796875" stroke-width="0.0" fill="rgb(0, 0, 13)" opacity="0.9944652"/>
    <path d="M 1.5786538124084473 -17.662771224975586 C -1.5869511365890503 -7.336678981781006 -3.4251182079315186 7.003894329071045 -10.097875595092773 12.118559837341309 C -12.562275886535645 19.610401153564453 -15.388622283935547 7.3126678466796875 -18.84197998046875 0.4103895425796509 C -16.44178581237793 -9.1683349609375 -9.121277809143066 -16.488842010498047 0.7887094020843506 -19.15119171142578 C 7.281322956085205 -15.126619338989258 11.83824348449707 -3.547443389892578 1.5786538124084473 -17.662771224975586" stroke-width="0.0" fill="rgb(217, 36, 167)" opacity="0.79027414"/>
    <path d="M 20.40262222290039 0.33930259943008423 C 17.723129272460938 10.339303016662598 10.402621269226074 17.659809112548828 0.4026212692260742 20.33930206298828 C -9.597378730773926 17.659809112548828 -16.917884826660156 10.339303016662598 -19.59737777709961 0.33930259943008423 C -16.917884826660156 -9.660696983337402 -9.597378730773926 -16.981204986572266 0.4026212692260742 -19.66069793701172 C 10.402621269226074 -16.981204986572266 17.723129272460938 -9.660696983337402 20.40262222290039 0.33930259943008423" stroke-width="0.0" fill="rgb(59, 99, 151)" opacity="0.9963357"/>
    <path d="M 111.15645599365234 330.468017578125 C 57.646766662597656 335.8559265136719 39.858097076416016 327.26446533203125 57.64741516113281 367.57806396484375 C 115.07914733886719 365.08062744140625 109.36077880859375 349.4091491699219 68.25180053710938 347.7690734863281 C 75.79785919189453 351.16357421875 89.16529083251953 356.51556396484375 55.60496139526367 366.9266052246094 C 69.77339935302734 366.19757080078125 101.58653259277344 369.4295349121094 111.15645599365234 330.468017578125" stroke-width="0.0" fill="rgb(194, 119, 0)" opacity="0.47341874"/>
    <path d="M 29.16433334350586 -11.543127059936523 C 29.874916076660156 18.227088928222656 20.00225830078125 25.499208450317383 12.164188385009766 29.094802856445312 C -17.908061981201172 23.400108337402344 -24.64420509338379 16.078929901123047 -21.05244255065918 2.4390647411346436 C -16.384992599487305 -9.428956985473633 -9.064485549926758 -16.74946403503418 4.2776713371276855 -25.202035903930664 C 11.857077598571777 -18.63178062438965 18.255861282348633 -8.413558959960938 29.16433334350586 -11.543127059936523" stroke-width="0.0" fill="rgb(10, 97, 151)" opacity="0.49110764"/>
    <path d="M 354.3861999511719 403.4487609863281 C 361.955810546875 430.6175537109375 352.388671875 418.4811706542969 320.2629089355469 431.69793701171875 C 322.7073059082031 445.0644836425781 334.2939453125 426.78350830078125 315.3733825683594 411.6152648925781 C 304.569091796875 405.1891174316406 274.34222412109375 404.3600158691406 288.9873352050781 400.6738586425781 C 340.7153625488281 394.5862121582031 365.5871276855469 398.6249084472656 354.3861999511719 403.4487609863281" stroke-width="0.0" fill="rgb(201, 121, 90)" opacity="1.0"/>
    <path d="M 2.695059299468994 -20.792631149291992 C 0.36402657628059387 -6.856107234954834 -4.106717109680176 -2.2188968658447266 -17.766921997070312 -7.826144218444824 C -11.758301734924316 19.245189666748047 -20.228309631347656 9.854820251464844 -19.886560440063477 -0.4853655993938446 C -16.711536407470703 -9.847160339355469 -9.391029357910156 -17.167667388916016 8.974032402038574 -26.620624542236328 C 22.856822967529297 -30.264366149902344 28.239158630371094 -23.0900936126709 2.695059299468994 -20.792631149291992" stroke-width="0.0" fill="rgb(174, 43, 18)" opacity="0.7316332"/>
    <path d="M 452.22845458984375 343.6604309082031 C 400.0793151855469 352.5661315917969 388.8664855957031 363.77587890625 379.90289306640625 347.20263671875 C 405.238037109375 356.38031005859375 364.83343505859375 347.60614013671875 342.7925109863281 334.8497314453125 C 369.7667541503906 312.1979064941406 368.92864990234375 292.69122314453125 388.33319091796875 276.2213439941406 C 407.5058288574219 284.43707275390625 412.7968444824219 297.0519104003906 452.22845458984375 343.6604309082031" stroke-width="0.0" fill="rgb(252, 255, 184)" opacity="1.0"/>
    <path d="M 9.006117820739746 -32.0928955078125 C 8.116511344909668 -11.748056411743164 -6.881216049194336 3.3880012035369873 -10.90181827545166 6.458547115325928 C -5.640143394470215 10.85824203491211 -17.58753204345703 8.500664710998535 -20.93229103088379 -0.5368972420692444 C -16.897369384765625 -9.788201332092285 -9.576862335205078 -17.10870933532715 0.42899808287620544 -19.789804458618164 C 12.406872749328613 -17.839614868164062 25.27507209777832 -16.802953720092773 9.006117820739746 -32.0928955078125" stroke-width="0.0" fill="rgb(174, 113, 158)" opacity="0.36015928"/>
    <path d="M 9.495118141174316 -17.326465606689453 C 8.037001609802246 -1.680434226989746 -12.164875984191895 -2.377375841140747 -28.406234741210938 -1.9350661039352417 C -6.786431312561035 17.695375442504883 -13.155801773071289 7.903697490692139 -16.379295349121094 -3.059117317199707 C -16.407878875732422 -9.129481315612793 -9.087371826171875 -16.449989318847656 6.248263835906982 -22.385807037353516 C 19.522544860839844 -24.627023696899414 27.075414657592773 -18.032182693481445 9.495118141174316 -17.326465606689453" stroke-width="0.0" fill="rgb(123, 92, 81)" opacity="0.3974921"/>
    <path d="M 618.6627807617188 584.8883666992188 C 614.4530029296875 594.6385498046875 608.6099853515625 603.244873046875 613.0650024414062 598.54541015625 C 605.808837890625 589.255859375 600.3786010742188 575.4722290039062 605.5166015625 569.4573974609375 C 594.3641967773438 573.6182250976562 614.9928588867188 575.8945922851562 625.7566528320312 571.9218139648438 C 613.294921875 562.4312133789062 618.633056640625 571.0616455078125 618.6627807617188 584.8883666992188" stroke-width="0.0" fill="rgb(79, 121, 177)" opacity="0.4450148"/>
    <path d="M 84.68225860595703 181.7728729248047 C 43.65499496459961 189.40963745117188 -1.776338815689087 195.11953735351562 16.559890747070312 183.79588317871094 C 18.325136184692383 206.42579650878906 12.962677955627441 198.3634490966797 -10.124191284179688 164.00022888183594 C -23.49323081970215 150.2250213623047 -11.628111839294434 146.30661010742188 6.277158737182617 142.37709045410156 C 66.24002838134766 136.9029541015625 71.25089263916016 135.97332763671875 84.68225860595703 181.7728729248047" stroke-width="0.0" fill="rgb(22, 62, 213)" opacity="0.27393672"/>
    <path d="M 6.958038806915283 -19.091487884521484 C 6.939808368682861 11.10744857788086 10.261944770812988 29.50629234313965 0.06332394480705261 24.75844383239746 C -14.422001838684082 21.720380783081055 -25.884735107421875 18.1402530670166 -28.185766220092773 8.359810829162598 C -16.88240623474121 -9.482423782348633 -9.56190013885498 -16.80293083190918 0.440405935049057 -19.48306655883789 C 10.928556442260742 -16.946744918823242 25.41888427734375 -14.572427749633789 6.958038806915283 -19.091487884521484" stroke-width="0.0" fill="rgb(100, 155, 16)" opacity="0.7589631"/>
    <path d="M 24.156543731689453 -14.32238483428955 C 11.908008575439453 -0.2936735153198242 -2.843766450881958 -1.989469289779663 -33.75930404663086 3.1180241107940674 C -17.83807945251465 35.02153778076172 -21.916330337524414 31.506067276000977 -21.283552169799805 18.013525009155273 C -16.55799674987793 -9.460620880126953 -9.237489700317383 -16.7811279296875 5.920614719390869 -24.932504653930664 C 15.304906845092773 -21.75505828857422 16.2778263092041 -8.259563446044922 24.156543731689453 -14.32238483428955" stroke-width="0.0" fill="rgb(34, 82, 154)" opacity="0.69459707"/>
    <path d="M 280.5221252441406 154.250732421875 C 291.11114501953125 174.41714477539062 289.98529052734375 189.7125244140625 264.4629821777344 166.9346923828125 C 236.1737823486328 171.1179962158203 232.7164764404297 151.96453857421875 229.63340759277344 141.04624938964844 C 230.436279296875 162.21542358398438 253.20156860351562 158.6261444091797 249.36917114257812 156.53343200683594 C 229.7022705078125 129.43565368652344 258.802490234375 129.15667724609375 280.5221252441406 154.250732421875" stroke-width="0.0" fill="rgb(255, 254, 230)" opacity="0.392153"/>
    <path d="M 34.999366760253906 10.589279174804688 C 36.66556930541992 27.628725051879883 22.83481216430664 28.409347534179688 -7.027784824371338 35.79119110107422 C -24.002853393554688 32.823673248291016 -28.636276245117188 23.01365852355957 -25.988069534301758 9.67876148223877 C -17.09156608581543 -9.094579696655273 -9.771058082580566 -16.41508674621582 -4.149214267730713 -20.85010528564453 C 2.0656826496124268 -17.051128387451172 6.0550618171691895 -7.69936990737915 34.999366760253906 10.589279174804688" stroke-width="0.0" fill="rgb(15, 61, 193)" opacity="0.9588436"/>
    <path d="M 212.40264892578125 579.246337890625 C 199.32521057128906 633.7866821289062 199.7723846435547 641.0921020507812 141.4036102294922 636.0343627929688 C 115.13483428955078 624.3627319335938 108.04608154296875 612.5784912109375 105.27943420410156 588.808349609375 C 97.52554321289062 553.7317504882812 79.9996337890625 572.7876586914062 157.89295959472656 564.2610473632812 C 178.17959594726562 548.9899291992188 190.5212860107422 556.5431518554688 212.40264892578125 579.246337890625" stroke-width="0.0" fill="rgb(25, 116, 159)" opacity="0.14851964"/>
  </g>
</svg>
