<?xml version="1.0" ?>
<svg xmlns="http://www.w3.org/2000/svg" version="1.1" width="600" height="600">
  <defs/>
  <g>
    <path d="M 380.61785888671875 599.8501586914062 C 378.0089416503906 620.7413330078125 361.7813415527344 622.1317138671875 250.38272094726562 620.4568481445312 C 193.87368774414062 613.0028076171875 189.41189575195312 600.929443359375 178.71456909179688 520.4640502929688 C 181.6171112060547 453.56085205078125 204.8897705078125 467.99951171875 260.9023132324219 493.6410827636719 C 323.64007568359375 485.9388122558594 350.3124694824219 469.7567443847656 380.61785888671875 599.8501586914062" stroke-width="0.0" fill="rgb(140, 150, 178)" opacity="1.0"/>
    <path d="M 373.77215576171875 5.9632673263549805 C 333.5856018066406 82.3162612915039 318.6961975097656 91.55682373046875 238.46853637695312 130.85816955566406 C 186.89459228515625 122.93648529052734 185.26519775390625 124.7394790649414 211.07728576660156 43.27341079711914 C 223.0545654296875 -10.22999095916748 227.32261657714844 -19.13711929321289 288.7447509765625 -21.14216423034668 C 355.3485412597656 -24.16132164001465 367.93988037109375 -22.251285552978516 373.77215576171875 5.9632673263549805" stroke-width="0.0" fill="rgb(93, 118, 150)" opacity="0.72216797"/>
    <path d="M 229.4825439453125 566.7525024414062 C 225.86839294433594 644.0308227539062 201.9107208251953 631.0952758789062 148.87847900390625 618.7976684570312 C 96.66532897949219 624.2202758789062 68.68232727050781 635.2843627929688 54.106563568115234 604.0758666992188 C 88.84822082519531 540.2772216796875 102.45610046386719 533.2299194335938 190.036376953125 485.5956115722656 C 218.92376708984375 492.4267272949219 222.42236328125 507.28070068359375 229.4825439453125 566.7525024414062" stroke-width="0.0" fill="rgb(139, 154, 177)" opacity="0.9410104"/>
    <path d="M 626.2720947265625 198.06373596191406 C 659.1394653320312 321.2004699707031 686.2457885742188 345.9024353027344 521.9617309570312 337.95458984375 C 431.09552001953125 279.3541259765625 451.4282531738281 220.79019165039062 404.94482421875 192.61305236816406 C 440.3486633300781 90.11103057861328 466.25738525390625 89.97742462158203 595.697021484375 16.155065536499023 C 623.5690307617188 22.999305725097656 623.3321533203125 40.67409896850586 626.2720947265625 198.06373596191406" stroke-width="0.0" fill="rgb(139, 154, 179)" opacity="0.989334"/>
    <path d="M 393.7325439453125 378.7011413574219 C 347.34222412109375 550.4881591796875 333.4222717285156 543.4201049804688 289.96392822265625 517.0598754882812 C 218.93849182128906 523.8571166992188 185.36416625976562 549.2919311523438 170.65142822265625 395.7845764160156 C 136.22772216796875 308.8501892089844 116.05660247802734 264.2884521484375 321.4682922363281 258.3392028808594 C 443.6284484863281 319.10723876953125 443.85150146484375 327.0423889160156 393.7325439453125 378.7011413574219" stroke-width="0.0" fill="rgb(141, 121, 97)" opacity="0.94869566"/>
    <path d="M 533.97607421875 222.69296264648438 C 550.5921020507812 291.2590637207031 533.2011108398438 312.7803649902344 335.6197509765625 342.14239501953125 C 264.994140625 316.9779357910156 264.67352294921875 253.13552856445312 179.1537628173828 152.75875854492188 C 290.28387451171875 79.9578857421875 349.5389709472656 114.63619232177734 425.142578125 88.7282485961914 C 449.59765625 90.819580078125 464.9632568359375 96.81915283203125 533.97607421875 222.69296264648438" stroke-width="0.0" fill="rgb(246, 242, 235)" opacity="0.97600657"/>
    <path d="M 431.6531066894531 84.12329864501953 C 406.3387145996094 137.86065673828125 399.87933349609375 154.96934509277344 367.76025390625 254.41883850097656 C 320.2169189453125 173.606201171875 284.1619873046875 170.8182830810547 283.3594055175781 151.6513671875 C 341.35125732421875 92.34153747558594 338.8587951660156 66.46931457519531 393.2125549316406 45.040103912353516 C 417.0337829589844 50.38283157348633 429.2550048828125 56.927345275878906 431.6531066894531 84.12329864501953" stroke-width="0.0" fill="rgb(0, 0, 6)" opacity="0.977362"/>
    <path d="M 212.48365783691406 357.4082336425781 C 180.8762969970703 540.087890625 161.09918212890625 527.948486328125 83.28095245361328 523.1643676757812 C 9.283136367797852 549.334228515625 -12.584748268127441 567.5325927734375 -30.78108024597168 340.1593322753906 C -74.65367126464844 273.6261901855469 -90.00222778320312 255.88160705566406 170.63218688964844 211.12863159179688 C 274.0645446777344 240.9451904296875 243.9510498046875 289.7036437988281 212.48365783691406 357.4082336425781" stroke-width="0.0" fill="rgb(117, 130, 153)" opacity="0.8090502"/>
    <path d="M 232.03549194335938 172.0697021484375 C 235.084228515625 176.60704040527344 240.65269470214844 220.7299041748047 205.87283325195312 304.9590759277344 C -57.10097122192383 272.83892822265625 -58.114986419677734 273.2037658691406 -39.296485900878906 233.02432250976562 C 59.087135314941406 37.15826416015625 96.45658111572266 42.96013259887695 144.93511962890625 11.272557258605957 C 152.76341247558594 21.982595443725586 157.0206298828125 33.69633865356445 232.03549194335938 172.0697021484375" stroke-width="0.0" fill="rgb(6, 7, 13)" opacity="1.0"/>
    <path d="M 165.41714477539062 3.987514019012451 C 140.77505493164062 67.75109100341797 123.0682373046875 70.59213256835938 8.615157127380371 171.19081115722656 C -14.810835838317871 158.7843475341797 -19.02292823791504 144.1038360595703 -19.095733642578125 49.32281494140625 C -10.15634822845459 -47.66112518310547 14.742843627929688 -33.53483581542969 89.92432403564453 -21.33534812927246 C 150.58071899414062 -20.937973022460938 163.6486358642578 -17.89592933654785 165.41714477539062 3.987514019012451" stroke-width="0.0" fill="rgb(136, 155, 179)" opacity="1.0"/>
    <path d="M 209.55218505859375 482.1637878417969 C 166.64300537109375 566.5726318359375 145.77256774902344 570.4127197265625 44.848453521728516 621.0675659179688 C 0.23427404463291168 625.3421630859375 -13.263816833496094 623.44775390625 -20.552675247192383 562.8818969726562 C -12.818435668945312 433.6003723144531 14.484731674194336 457.0555725097656 96.25309753417969 478.778564453125 C 166.5355987548828 464.8981018066406 195.06031799316406 449.4869689941406 209.55218505859375 482.1637878417969" stroke-width="0.0" fill="rgb(135, 150, 174)" opacity="0.99"/>
    <path d="M 617.12890625 13.499306678771973 C 569.4869995117188 133.57522583007812 532.4607543945312 133.26756286621094 457.3775939941406 185.71522521972656 C 407.18743896484375 162.08775329589844 401.7257385253906 146.69485473632812 399.9602355957031 108.00562286376953 C 428.9824523925781 34.92290115356445 437.98748779296875 13.061224937438965 538.3050537109375 -19.39295768737793 C 586.9144287109375 -28.331470489501953 607.3699951171875 -33.94865417480469 617.12890625 13.499306678771973" stroke-width="0.0" fill="rgb(135, 150, 174)" opacity="1.0"/>
    <path d="M 619.7637329101562 374.77850341796875 C 615.0821533203125 682.791015625 603.6884765625 678.2999267578125 525.1697387695312 635.5427856445312 C 313.7844543457031 613.6414794921875 316.970703125 598.43994140625 340.08544921875 503.5362548828125 C 320.8062744140625 361.4613952636719 279.493408203125 349.865966796875 498.3757019042969 343.7550048828125 C 599.0316772460938 301.3247375488281 612.331787109375 307.0330810546875 619.7637329101562 374.77850341796875" stroke-width="0.0" fill="rgb(136, 146, 168)" opacity="0.99499345"/>
    <path d="M 208.99046325683594 18.5128116607666 C 157.8566131591797 144.899658203125 248.0371551513672 110.14337921142578 283.4609680175781 334.7364807128906 C 212.03712463378906 99.49402618408203 153.4969482421875 93.86068725585938 130.38946533203125 31.808013916015625 C 133.40647888183594 -8.543262481689453 134.6156768798828 -16.023996353149414 198.10000610351562 -20.02104377746582 C 250.3051300048828 -19.45880699157715 250.92901611328125 -14.34459400177002 208.99046325683594 18.5128116607666" stroke-width="0.0" fill="rgb(6, 6, 6)" opacity="0.9946064"/>
    <path d="M 394.9205322265625 52.3646240234375 C 358.3277282714844 124.43508911132812 368.00531005859375 158.64283752441406 296.5414733886719 170.3457794189453 C 273.3239440917969 151.3004150390625 251.2749481201172 135.67091369628906 196.33958435058594 120.12883758544922 C 294.5008850097656 76.23168182373047 305.2124328613281 63.46495819091797 373.24395751953125 22.72702407836914 C 389.59576416015625 19.81644058227539 394.6594543457031 31.17912483215332 394.9205322265625 52.3646240234375" stroke-width="0.0" fill="rgb(1, 3, 9)" opacity="0.9897921"/>
    <path d="M 515.9044189453125 -6.545562267303467 C 484.5610656738281 68.96321868896484 469.8648376464844 82.57697296142578 405.9970397949219 107.50922393798828 C 365.6887512207031 100.07734680175781 352.79949951171875 93.6549301147461 333.287109375 22.63678741455078 C 346.7348937988281 -36.1046257019043 365.07196044921875 -30.134788513183594 417.6278991699219 -21.64205551147461 C 478.4972839355469 -22.151668548583984 497.577392578125 -23.785263061523438 515.9044189453125 -6.545562267303467" stroke-width="0.0" fill="rgb(140, 155, 179)" opacity="1.0"/>
    <path d="M 253.30801391601562 24.655811309814453 C 190.19207763671875 117.32003021240234 150.4469757080078 100.62698364257812 130.6324005126953 101.15099334716797 C 116.82073974609375 103.23440551757812 107.4076156616211 97.03950500488281 97.2224349975586 80.30460357666016 C 108.8704605102539 62.14179229736328 103.17002868652344 38.8919792175293 153.01756286621094 -20.56421661376953 C 234.63992309570312 -28.993236541748047 248.6754150390625 -23.86759376525879 253.30801391601562 24.655811309814453" stroke-width="0.0" fill="rgb(135, 150, 174)" opacity="0.99"/>
    <path d="M 373.02142333984375 104.1122817993164 C 365.8926696777344 150.2893524169922 369.8560485839844 163.7677001953125 366.8250732421875 237.89779663085938 C 313.7077941894531 156.6237030029297 275.9693298339844 157.83026123046875 262.98455810546875 130.3426513671875 C 273.1912536621094 80.36345672607422 288.7702331542969 77.83141326904297 351.94073486328125 60.65375900268555 C 379.0447692871094 61.21363830566406 378.8095397949219 73.6947021484375 373.02142333984375 104.1122817993164" stroke-width="0.0" fill="rgb(136, 153, 180)" opacity="0.9935701"/>
    <path d="M 140.8707733154297 151.83468627929688 C 148.24209594726562 206.98538208007812 136.0767059326172 199.82293701171875 132.08241271972656 182.3078155517578 C 73.62853240966797 170.68186950683594 65.56402587890625 162.35552978515625 61.22083282470703 149.59085083007812 C 75.43607330322266 137.69070434570312 79.69406127929688 126.77118682861328 96.2119369506836 112.79483795166016 C 114.78955078125 113.71139526367188 129.91986083984375 118.78885650634766 140.8707733154297 151.83468627929688" stroke-width="0.0" fill="rgb(141, 160, 190)" opacity="0.9372729"/>
    <path d="M 191.7376708984375 75.927734375 C 215.8369140625 198.7298126220703 200.15966796875 167.885986328125 197.8789825439453 167.5357666015625 C 113.18035125732422 137.7065887451172 97.05963897705078 179.17881774902344 109.52680206298828 116.19477081298828 C 119.64622497558594 87.75043487548828 130.03298950195312 84.19758605957031 152.80259704589844 68.17852783203125 C 187.31398010253906 49.117286682128906 212.89541625976562 43.95792770385742 191.7376708984375 75.927734375" stroke-width="0.0" fill="rgb(137, 152, 175)" opacity="0.9920125"/>
    <path d="M 451.0863342285156 251.4284210205078 C 431.6258544921875 185.9113006591797 448.2523498535156 239.67027282714844 436.20782470703125 232.95773315429688 C 334.1132507324219 263.6566467285156 379.3199768066406 302.59100341796875 366.2393493652344 192.95037841796875 C 379.3042907714844 138.9736785888672 385.9814453125 129.11129760742188 378.4455261230469 166.2229461669922 C 423.1917419433594 181.56312561035156 419.8272399902344 167.20762634277344 451.0863342285156 251.4284210205078" stroke-width="0.0" fill="rgb(0, 0, 5)" opacity="0.97423357"/>
    <path d="M 71.91986846923828 155.78204345703125 C 59.692691802978516 166.80088806152344 52.5057487487793 175.13719177246094 30.900089263916016 198.07162475585938 C 12.357560157775879 195.62063598632812 -0.7543062567710876 190.283203125 -9.116656303405762 174.28103637695312 C 16.49427032470703 139.8370819091797 24.554317474365234 130.81373596191406 37.21390914916992 127.71541595458984 C 53.1839599609375 138.79391479492188 62.3033332824707 146.32994079589844 71.91986846923828 155.78204345703125" stroke-width="0.0" fill="rgb(136, 151, 174)" opacity="0.98183763"/>
    <path d="M 142.95445251464844 195.78680419921875 C 104.0233383178711 194.5654296875 87.78873443603516 198.8349151611328 51.925331115722656 203.5056915283203 C 42.92687225341797 210.66650390625 34.71485137939453 200.2965545654297 32.16559600830078 188.18392944335938 C 51.459991455078125 167.557373046875 58.268226623535156 159.0734405517578 69.20221710205078 144.82638549804688 C 83.2267074584961 152.7096710205078 105.6237564086914 146.78457641601562 142.95445251464844 195.78680419921875" stroke-width="0.0" fill="rgb(139, 154, 176)" opacity="0.99287903"/>
    <path d="M 356.8599853515625 518.6241455078125 C 326.7417907714844 552.8761596679688 306.17333984375 548.9911499023438 280.0550231933594 547.3929443359375 C 256.1898193359375 544.6600952148438 231.70335388183594 551.83203125 162.60861206054688 475.4521484375 C 168.1831817626953 425.77484130859375 192.80609130859375 447.0546569824219 315.1965637207031 445.6620178222656 C 362.6347961425781 430.62628173828125 353.1202087402344 457.9815979003906 356.8599853515625 518.6241455078125" stroke-width="0.0" fill="rgb(143, 155, 173)" opacity="0.9775103"/>
    <path d="M 522.5613403320312 177.00439453125 C 520.8558959960938 237.77110290527344 464.808349609375 202.55337524414062 381.2285461425781 247.23367309570312 C 349.2777404785156 157.856201171875 340.4735412597656 152.15927124023438 334.0704650878906 120.25850677490234 C 331.835693359375 83.74027252197266 332.32647705078125 68.71812438964844 368.2953186035156 65.69889831542969 C 412.3450927734375 81.13007354736328 422.4627685546875 86.49594116210938 522.5613403320312 177.00439453125" stroke-width="0.0" fill="rgb(140, 155, 179)" opacity="1.0"/>
    <path d="M 302.8867492675781 126.08679962158203 C 300.28594970703125 169.5006103515625 297.63372802734375 160.57656860351562 276.2516784667969 144.7420196533203 C 225.59091186523438 116.61904907226562 205.02743530273438 118.6833724975586 174.72662353515625 107.30900573730469 C 192.25477600097656 70.53119659423828 212.15773010253906 73.18659210205078 256.2538146972656 69.28226470947266 C 277.9184875488281 67.14739227294922 289.3125305175781 71.62686920166016 302.8867492675781 126.08679962158203" stroke-width="0.0" fill="rgb(139, 150, 177)" opacity="0.97190005"/>
    <path d="M 115.24404907226562 261.6499938964844 C 97.66181945800781 263.4208984375 84.46371459960938 263.080322265625 53.33793640136719 269.8572692871094 C 55.43361282348633 393.07806396484375 22.217554092407227 372.77752685546875 -32.79771041870117 319.97442626953125 C 17.22305679321289 218.72901916503906 32.240360260009766 212.98951721191406 68.3533706665039 193.83706665039062 C 80.56632995605469 215.0221710205078 90.1614761352539 223.72210693359375 115.24404907226562 261.6499938964844" stroke-width="0.0" fill="rgb(135, 154, 180)" opacity="0.98940724"/>
    <path d="M 400.07574462890625 179.78382873535156 C 396.96673583984375 197.8726043701172 412.6163635253906 244.76507568359375 303.54437255859375 313.49359130859375 C 412.9559326171875 210.59938049316406 352.1871643066406 282.3768005371094 366.7969970703125 193.3422088623047 C 325.14501953125 127.61206817626953 333.63592529296875 129.53468322753906 350.61572265625 131.9310302734375 C 378.5765686035156 137.73031616210938 389.3951110839844 142.9357452392578 400.07574462890625 179.78382873535156" stroke-width="0.0" fill="rgb(0, 0, 4)" opacity="0.9516722"/>
    <path d="M 93.19160461425781 126.78076171875 C 82.87216186523438 141.1110076904297 76.70169067382812 152.65255737304688 69.35563659667969 160.8242645263672 C 54.76232147216797 150.20411682128906 45.320701599121094 142.84506225585938 36.67250442504883 132.9416961669922 C 46.4859619140625 121.77770233154297 55.424068450927734 115.17034912109375 74.85371398925781 101.042724609375 C 86.09207916259766 102.35111236572266 91.43428039550781 111.44441986083984 93.19160461425781 126.78076171875" stroke-width="0.0" fill="rgb(140, 155, 178)" opacity="1.0"/>
    <path d="M 132.1131591796875 107.2078857421875 C 132.70957946777344 128.3292694091797 126.12124633789062 140.02345275878906 109.2228775024414 139.42266845703125 C 81.47463989257812 129.6555938720703 72.78353118896484 121.91307830810547 67.1072769165039 109.88482666015625 C 79.55897521972656 90.82530975341797 88.45686340332031 84.1609878540039 106.6436767578125 71.11509704589844 C 119.50956726074219 74.82843017578125 126.71452331542969 84.04556274414062 132.1131591796875 107.2078857421875" stroke-width="0.0" fill="rgb(136, 151, 174)" opacity="0.9900468"/>
    <path d="M 371.5171813964844 63.58863830566406 C 365.94769287109375 111.1161880493164 348.0393981933594 112.71842956542969 296.5960693359375 124.95307159423828 C 262.3487548828125 122.95584106445312 255.9018096923828 112.82816314697266 254.68028259277344 96.49120330810547 C 272.0653381347656 43.760189056396484 284.2202453613281 37.57944869995117 333.7381896972656 19.775625228881836 C 350.941650390625 18.29988670349121 361.364990234375 23.330432891845703 371.5171813964844 63.58863830566406" stroke-width="0.0" fill="rgb(136, 150, 174)" opacity="0.74605894"/>
    <path d="M 78.83244323730469 212.61505126953125 C 66.62776184082031 234.02978515625 53.06281661987305 239.17733764648438 10.031222343444824 266.59075927734375 C -9.580307006835938 262.1493225097656 -13.291889190673828 246.25396728515625 -15.856122016906738 209.0813751220703 C -12.597308158874512 174.26846313476562 -4.044824123382568 167.2392578125 20.52263641357422 166.0411834716797 C 55.97054672241211 176.50535583496094 67.19707489013672 182.3084716796875 78.83244323730469 212.61505126953125" stroke-width="0.0" fill="rgb(138, 157, 180)" opacity="0.54384977"/>
    <path d="M 509.1641845703125 345.6701354980469 C 586.86474609375 340.8097839355469 565.5777587890625 368.348388671875 484.2941589355469 388.1830139160156 C 393.9349365234375 379.2776794433594 367.251953125 346.5958557128906 448.4644470214844 345.6306457519531 C 462.4810791015625 349.2876892089844 454.5066223144531 324.1746826171875 560.4219360351562 222.82191467285156 C 542.4609985351562 245.59214782714844 520.686279296875 324.21185302734375 509.1641845703125 345.6701354980469" stroke-width="0.0" fill="rgb(2, 4, 11)" opacity="0.9995493"/>
    <path d="M 413.40386962890625 163.9008331298828 C 408.48956298828125 177.9890594482422 399.6539001464844 185.7629852294922 353.65447998046875 195.43748474121094 C 325.447021484375 191.5020751953125 316.7108154296875 179.9904022216797 303.4053039550781 146.0109100341797 C 321.4426574707031 111.62100982666016 335.2438049316406 108.67236328125 360.04241943359375 111.45610046386719 C 378.1971740722656 121.84812927246094 393.1511535644531 123.77692413330078 413.40386962890625 163.9008331298828" stroke-width="0.0" fill="rgb(136, 151, 174)" opacity="0.99"/>
    <path d="M 418.1040344238281 188.28326416015625 C 413.1102294921875 232.3809051513672 402.3263244628906 235.21217346191406 373.23968505859375 251.5831298828125 C 361.08111572265625 236.06503295898438 354.5769958496094 214.3029327392578 342.18304443359375 186.1986083984375 C 338.01873779296875 170.11912536621094 343.9102783203125 160.50286865234375 388.4413757324219 152.79098510742188 C 413.01519775390625 152.30145263671875 419.69110107421875 161.54161071777344 418.1040344238281 188.28326416015625" stroke-width="0.0" fill="rgb(136, 155, 179)" opacity="0.99558985"/>
    <path d="M 566.7877197265625 381.4664611816406 C 519.7521362304688 433.7765197753906 503.8641052246094 434.4556579589844 489.8114318847656 427.2032470703125 C 468.6154479980469 425.35418701171875 408.76568603515625 465.8712158203125 274.0766906738281 359.5812683105469 C 489.7915344238281 371.63067626953125 400.36834716796875 303.8631896972656 440.02703857421875 346.553955078125 C 540.9926147460938 343.7129821777344 538.5592651367188 343.3896789550781 566.7877197265625 381.4664611816406" stroke-width="0.0" fill="rgb(9, 2, 1)" opacity="0.964546"/>
    <path d="M 224.0192413330078 322.518310546875 C 207.13453674316406 398.5869445800781 172.24932861328125 369.6839599609375 185.29623413085938 366.6516418457031 C 136.17613220214844 367.4749450683594 113.8031005859375 386.66632080078125 49.849082946777344 361.6408386230469 C 115.12981414794922 300.6815185546875 143.66058349609375 281.00225830078125 209.2335968017578 315.96453857421875 C 158.32388305664062 337.3205261230469 140.31692504882812 323.6438903808594 224.0192413330078 322.518310546875" stroke-width="0.0" fill="rgb(107, 86, 64)" opacity="0.9640948"/>
    <path d="M 354.84283447265625 340.9824523925781 C 448.6280212402344 317.12835693359375 432.77630615234375 329.0963134765625 413.60797119140625 351.4595642089844 C 239.19422912597656 344.8649597167969 276.1571350097656 369.02490234375 232.71083068847656 303.5929870605469 C 277.2556457519531 275.2060852050781 298.486083984375 286.6053466796875 348.10565185546875 282.12640380859375 C 297.28369140625 342.086669921875 295.3255920410156 314.54278564453125 354.84283447265625 340.9824523925781" stroke-width="0.0" fill="rgb(5, 6, 10)" opacity="1.0"/>
    <path d="M 227.1165771484375 201.27432250976562 C 314.99139404296875 367.845947265625 256.0984191894531 400.3606262207031 216.95654296875 381.3484191894531 C 205.6349334716797 326.7114562988281 205.50143432617188 308.3421325683594 173.17230224609375 289.2166748046875 C 181.33140563964844 298.0587158203125 234.06594848632812 327.32281494140625 149.22023010253906 165.30686950683594 C 138.8843994140625 156.09019470214844 254.89923095703125 190.65811157226562 227.1165771484375 201.27432250976562" stroke-width="0.0" fill="rgb(250, 241, 239)" opacity="0.96714824"/>
    <path d="M 207.15235900878906 318.9068298339844 C 213.6256866455078 355.66009521484375 239.59567260742188 325.9556579589844 149.03219604492188 302.2002258300781 C 71.69607543945312 306.47589111328125 57.539634704589844 435.1185302734375 59.361934661865234 326.4772644042969 C 169.3761444091797 310.34503173828125 -21.06810188293457 297.0928649902344 103.95109558105469 269.18414306640625 C 201.7965545654297 239.896728515625 185.3467254638672 252.06057739257812 207.15235900878906 318.9068298339844" stroke-width="0.0" fill="rgb(10, 5, 5)" opacity="1.0"/>
    <path d="M 567.8765258789062 382.8509216308594 C 601.7813110351562 423.49102783203125 582.6148071289062 402.22930908203125 512.43408203125 407.23675537109375 C 488.02325439453125 406.2951965332031 475.3633728027344 400.95257568359375 571.6834106445312 400.0504150390625 C 506.6937561035156 359.8214111328125 467.6835632324219 257.2793884277344 525.4214477539062 346.2472229003906 C 602.2794799804688 338.8658447265625 532.822021484375 355.3553466796875 567.8765258789062 382.8509216308594" stroke-width="0.0" fill="rgb(6, 5, 6)" opacity="0.9869426"/>
    <path d="M 324.3920593261719 426.2137145996094 C 248.1053466796875 449.90576171875 195.7599639892578 443.1435852050781 134.4181365966797 443.53118896484375 C 60.998626708984375 444.2967224121094 -12.247593879699707 441.17822265625 -27.2748966217041 447.1333312988281 C 75.59834289550781 322.9536437988281 110.26130676269531 372.9880676269531 136.42042541503906 391.2388610839844 C 157.42990112304688 387.63885498046875 200.4159393310547 357.8449401855469 324.3920593261719 426.2137145996094" stroke-width="0.0" fill="rgb(217, 157, 130)" opacity="0.9367449"/>
    <path d="M 670.6597900390625 440.82464599609375 C 563.9859619140625 445.39288330078125 511.5653076171875 442.8011169433594 497.13360595703125 445.6999816894531 C 480.06982421875 443.4071960449219 416.31121826171875 443.689697265625 209.1547393798828 443.5746154785156 C 328.2016296386719 301.9567565917969 470.51800537109375 394.6401672363281 480.4067077636719 401.26885986328125 C 531.4346313476562 418.07269287109375 639.722900390625 383.2005615234375 670.6597900390625 440.82464599609375" stroke-width="0.0" fill="rgb(217, 155, 126)" opacity="0.967454"/>
    <path d="M 354.15008544921875 267.0211486816406 C 326.6296691894531 293.0024719238281 318.3543395996094 305.2615051269531 281.723876953125 342.456787109375 C 281.5705261230469 336.56646728515625 275.6158752441406 308.3463439941406 266.940185546875 261.2998046875 C 258.2932434082031 207.66807556152344 222.98422241210938 194.95375061035156 277.5188903808594 154.5172119140625 C 348.1968078613281 208.14630126953125 368.03179931640625 249.0773468017578 354.15008544921875 267.0211486816406" stroke-width="0.0" fill="rgb(248, 243, 238)" opacity="0.97773916"/>
    <path d="M 197.5792999267578 302.1142578125 C 153.88409423828125 325.24432373046875 138.17698669433594 251.5531463623047 136.24801635742188 291.58697509765625 C 124.2674331665039 262.2624206542969 124.08307647705078 258.3601379394531 83.26319885253906 206.76712036132812 C 81.23023223876953 206.08555603027344 116.94976043701172 198.979736328125 156.94097900390625 204.79078674316406 C 156.86875915527344 229.428466796875 151.5218505859375 164.5162353515625 197.5792999267578 302.1142578125" stroke-width="0.0" fill="rgb(246, 237, 235)" opacity="0.98967755"/>
    <path d="M 56.71989822387695 205.3329620361328 C 37.77927017211914 228.42788696289062 27.860015869140625 235.5635528564453 2.800896167755127 260.3706970214844 C -7.618983268737793 248.21762084960938 -9.501946449279785 233.90945434570312 -8.790148735046387 215.69073486328125 C -9.680072784423828 195.61611938476562 -6.10532283782959 183.14308166503906 11.556941032409668 177.5099334716797 C 38.80583190917969 183.81591796875 47.185909271240234 192.5643768310547 56.71989822387695 205.3329620361328" stroke-width="0.0" fill="rgb(136, 150, 173)" opacity="0.99"/>
    <path d="M 342.5804443359375 439.21551513671875 C 302.8130798339844 395.7742919921875 335.5169677734375 408.2769470214844 280.073974609375 406.5475769042969 C 220.66636657714844 404.8080139160156 202.6919708251953 404.5949401855469 138.32496643066406 404.37188720703125 C 220.35214233398438 348.2272033691406 218.5915069580078 325.32415771484375 256.1639404296875 292.8796081542969 C 297.2440490722656 389.9422607421875 305.6903991699219 398.0994873046875 342.5804443359375 439.21551513671875" stroke-width="0.0" fill="rgb(2, 5, 1)" opacity="0.9830362"/>
    <path d="M 234.57286071777344 376.68109130859375 C 208.1694793701172 418.1773986816406 187.8263397216797 405.1338195800781 132.8960723876953 407.8977355957031 C 84.13961029052734 402.116455078125 6.9093146324157715 453.285400390625 15.411226272583008 386.33294677734375 C 40.211585998535156 334.4840393066406 49.530521392822266 363.139404296875 139.58999633789062 360.1573181152344 C 185.884033203125 364.2843322753906 222.42431640625 350.2388000488281 234.57286071777344 376.68109130859375" stroke-width="0.0" fill="rgb(3, 28, 18)" opacity="0.3658445"/>
    <path d="M 547.326904296875 243.71165466308594 C 513.0835571289062 238.51431274414062 500.3650207519531 246.8647918701172 482.1051025390625 243.92738342285156 C 504.3961181640625 244.43374633789062 481.9112548828125 241.01632690429688 447.98590087890625 249.74974060058594 C 434.9008483886719 199.09783935546875 453.1540222167969 240.59495544433594 492.46917724609375 224.5960235595703 C 498.3339538574219 237.65890502929688 551.1567993164062 211.71568298339844 547.326904296875 243.71165466308594" stroke-width="0.0" fill="rgb(8, 8, 5)" opacity="0.9823791"/>
    <path d="M 112.2891845703125 408.1488342285156 C 94.8187484741211 430.20404052734375 86.77207946777344 438.0542907714844 70.22376251220703 443.6739807128906 C 42.95630645751953 442.36151123046875 20.143178939819336 451.2815246582031 -8.58983325958252 405.6799011230469 C 52.93927764892578 409.89935302734375 97.23761749267578 405.0514221191406 104.274658203125 409.4346923828125 C 83.58010864257812 392.1574401855469 86.47261047363281 406.8418273925781 112.2891845703125 408.1488342285156" stroke-width="0.0" fill="rgb(222, 163, 134)" opacity="1.0"/>
    <path d="M 446.22808837890625 361.4612121582031 C 483.62939453125 391.22894287109375 489.59063720703125 389.6481018066406 473.990478515625 398.2811584472656 C 462.72894287109375 395.0000305175781 458.8219909667969 384.48468017578125 435.0395202636719 350.9421691894531 C 405.016845703125 350.033203125 424.72540283203125 350.28680419921875 510.87078857421875 350.31414794921875 C 548.3016357421875 349.9223327636719 542.566650390625 360.9883728027344 446.22808837890625 361.4612121582031" stroke-width="0.0" fill="rgb(160, 125, 96)" opacity="1.0"/>
    <path d="M 164.47776794433594 406.49395751953125 C 88.91946411132812 406.411376953125 84.49476623535156 406.6232604980469 112.26605987548828 405.4360656738281 C 79.45712280273438 402.3828430175781 0.33703792095184326 407.5169982910156 20.091951370239258 402.9828186035156 C 70.23847961425781 399.3340759277344 78.16376495361328 413.7912902832031 81.69342041015625 369.3013610839844 C 90.76185607910156 408.9072570800781 61.47288513183594 368.6330261230469 164.47776794433594 406.49395751953125" stroke-width="0.0" fill="rgb(8, 2, 7)" opacity="0.96667606"/>
    <path d="M 119.6914291381836 408.3892822265625 C 115.37052917480469 411.9997253417969 102.2528305053711 417.0399475097656 93.99855041503906 406.3383483886719 C 77.3580551147461 414.11895751953125 64.20100402832031 405.2767028808594 104.40834045410156 406.31805419921875 C 18.29781723022461 400.9516296386719 52.47938537597656 379.74365234375 212.78887939453125 402.3274841308594 C 49.77180862426758 403.28399658203125 42.156707763671875 399.4490966796875 119.6914291381836 408.3892822265625" stroke-width="0.0" fill="rgb(195, 150, 116)" opacity="0.71043456"/>
    <path d="M 414.40179443359375 368.5609130859375 C 214.21568298339844 400.2538757324219 334.9506530761719 405.961181640625 310.36480712890625 400.6953430175781 C 159.2871551513672 398.42987060546875 152.22618103027344 411.91009521484375 65.08490753173828 365.0867919921875 C 213.47018432617188 364.10455322265625 244.7753143310547 364.9300231933594 259.4896545410156 364.4985656738281 C 264.8460388183594 365.7672119140625 311.2507629394531 362.1232604980469 414.40179443359375 368.5609130859375" stroke-width="0.0" fill="rgb(152, 119, 90)" opacity="0.95564497"/>
    <path d="M 551.624267578125 362.69696044921875 C 538.4529418945312 371.9129943847656 530.396728515625 366.04315185546875 537.9132080078125 369.3902893066406 C 549.7056274414062 358.563232421875 581.8587036132812 362.1506042480469 481.46075439453125 359.56683349609375 C 505.20904541015625 345.291259765625 549.7069091796875 352.85870361328125 554.4426879882812 349.53607177734375 C 542.807861328125 358.6735534667969 561.83447265625 339.7934875488281 551.624267578125 362.69696044921875" stroke-width="0.0" fill="rgb(163, 132, 95)" opacity="1.0"/>
    <path d="M 575.48291015625 400.619873046875 C 552.393798828125 402.77520751953125 522.2200317382812 400.46966552734375 509.2931823730469 400.59649658203125 C 510.6190185546875 402.11456298828125 487.9028625488281 404.3641052246094 478.76666259765625 396.9948425292969 C 472.51568603515625 360.7564392089844 469.21185302734375 367.62591552734375 530.6682739257812 366.674072265625 C 556.5391845703125 365.6663513183594 537.4120483398438 357.88446044921875 575.48291015625 400.619873046875" stroke-width="0.0" fill="rgb(144, 115, 89)" opacity="0.96454835"/>
    <path d="M 132.76243591308594 295.9281921386719 C 141.17738342285156 297.02191162109375 110.30300903320312 307.17388916015625 102.0 308.3349304199219 C 86.3019027709961 295.6585388183594 76.72566986083984 288.52655029296875 60.278926849365234 276.9062805175781 C 84.33978271484375 272.7835998535156 106.5441665649414 265.6812438964844 109.69755554199219 268.306396484375 C 121.93072509765625 267.0462341308594 116.49583435058594 254.71116638183594 132.76243591308594 295.9281921386719" stroke-width="0.0" fill="rgb(242, 239, 227)" opacity="1.0"/>
    <path d="M 427.1618957519531 352.9851379394531 C 433.0760192871094 380.9271545410156 445.7890930175781 403.7918701171875 406.0470275878906 401.6229248046875 C 297.2312927246094 413.92242431640625 293.07232666015625 404.7776184082031 292.595458984375 376.41802978515625 C 444.51068115234375 374.2906799316406 455.96575927734375 378.1618957519531 431.49346923828125 370.5248718261719 C 425.1741027832031 350.590576171875 430.0735168457031 360.6598815917969 427.1618957519531 352.9851379394531" stroke-width="0.0" fill="rgb(10, 10, 7)" opacity="0.9029372"/>
    <path d="M 450.41900634765625 373.2554626464844 C 470.65057373046875 366.5282897949219 465.8521423339844 372.4152526855469 450.9735412597656 366.042236328125 C 459.1036071777344 359.1651306152344 453.20941162109375 362.6169738769531 269.82855224609375 361.0953674316406 C 426.7733154296875 339.50103759765625 485.1346435546875 359.7830810546875 459.7235107421875 350.32098388671875 C 441.2999267578125 352.879150390625 446.10101318359375 364.5709533691406 450.41900634765625 373.2554626464844" stroke-width="0.0" fill="rgb(162, 127, 103)" opacity="1.0"/>
    <path d="M 515.0346069335938 404.6710510253906 C 485.2159423828125 404.7550964355469 461.9861145019531 404.6343994140625 415.96270751953125 404.7028503417969 C 375.9580993652344 404.372314453125 321.5848693847656 406.1046142578125 304.0932312011719 402.5944519042969 C 469.8824157714844 405.31866455078125 454.373291015625 387.9703063964844 439.1370544433594 361.66876220703125 C 468.8893737792969 358.7369384765625 459.831298828125 392.9134826660156 515.0346069335938 404.6710510253906" stroke-width="0.0" fill="rgb(7, 1, 7)" opacity="0.97534895"/>
    <path d="M 512.6395874023438 371.93359375 C 503.9671630859375 398.5041809082031 514.8836059570312 403.5316467285156 491.06964111328125 402.41937255859375 C 455.6212463378906 400.661376953125 485.2542724609375 381.18634033203125 355.01727294921875 367.35791015625 C 458.00933837890625 366.7254333496094 461.3838195800781 369.5480651855469 402.6715087890625 366.7178955078125 C 499.137939453125 365.0241394042969 510.467529296875 362.7867126464844 512.6395874023438 371.93359375" stroke-width="0.0" fill="rgb(155, 118, 92)" opacity="1.0"/>
    <path d="M 571.7056274414062 238.7473907470703 C 498.33453369140625 233.05831909179688 483.546630859375 237.25173950195312 490.7933654785156 235.55465698242188 C 497.8531494140625 238.7525177001953 483.6675720214844 234.9778594970703 453.8183898925781 243.49417114257812 C 443.0361022949219 194.64190673828125 470.158203125 211.4402618408203 495.91558837890625 209.59344482421875 C 516.9602661132812 186.06326293945312 542.1285400390625 183.3122100830078 571.7056274414062 238.7473907470703" stroke-width="0.0" fill="rgb(135, 150, 174)" opacity="0.96482617"/>
    <path d="M 30.88153648376465 387.6048278808594 C 127.6863021850586 384.95721435546875 134.73292541503906 392.5439453125 19.861692428588867 389.6851501464844 C 69.4166030883789 368.323974609375 87.73584747314453 371.5485534667969 -0.1012067198753357 378.8633117675781 C 113.89080047607422 377.3860778808594 130.58425903320312 383.4992370605469 116.32213592529297 374.4098815917969 C 59.37508773803711 376.7087097167969 60.14960861206055 368.028076171875 30.88153648376465 387.6048278808594" stroke-width="0.0" fill="rgb(5, 6, 0)" opacity="0.9346957"/>
    <path d="M 453.59130859375 391.78912353515625 C 440.6153259277344 386.29681396484375 433.0562744140625 380.93670654296875 490.443115234375 402.4131774902344 C 458.0280456542969 402.6221618652344 431.3490295410156 402.4974670410156 250.34564208984375 402.45953369140625 C 303.8502197265625 357.35357666015625 376.3175048828125 396.5378723144531 455.91802978515625 364.73870849609375 C 425.34234619140625 363.10247802734375 449.638671875 379.9833984375 453.59130859375 391.78912353515625" stroke-width="0.0" fill="rgb(144, 120, 88)" opacity="1.0"/>
    <path d="M 242.86874389648438 363.8914794921875 C 148.34202575683594 357.4659423828125 121.10324096679688 363.3320617675781 140.2547149658203 360.952392578125 C 160.7554473876953 364.066650390625 128.513916015625 356.11383056640625 44.820247650146484 365.253662109375 C 131.2780303955078 364.39727783203125 152.18028259277344 365.0714416503906 138.9355010986328 366.58636474609375 C 123.25652313232422 362.2464599609375 152.39064025878906 367.4446105957031 242.86874389648438 363.8914794921875" stroke-width="0.0" fill="rgb(0, 2, 0)" opacity="0.98280394"/>
    <path d="M 233.47682189941406 334.0663146972656 C 246.46067810058594 305.0613708496094 238.2808074951172 311.9452819824219 226.73434448242188 304.0422668457031 C 220.62210083007812 306.7559814453125 237.80526733398438 314.0122985839844 199.9646759033203 338.8927917480469 C 217.35293579101562 311.9385070800781 216.26889038085938 275.884033203125 231.71478271484375 170.04713439941406 C 234.3043975830078 254.25827026367188 212.9065399169922 313.4949645996094 233.47682189941406 334.0663146972656" stroke-width="0.0" fill="rgb(0, 0, 3)" opacity="0.9441512"/>
    <path d="M 265.333984375 339.33746337890625 C 271.318115234375 363.8076171875 269.8812561035156 362.079345703125 226.60728454589844 361.9050598144531 C 209.57858276367188 352.7411804199219 229.8093719482422 351.36627197265625 269.6353454589844 350.7115783691406 C 235.61410522460938 315.69842529296875 227.91860961914062 326.69561767578125 232.3478546142578 328.2832946777344 C 243.0591278076172 330.54266357421875 255.35867309570312 333.4318542480469 265.333984375 339.33746337890625" stroke-width="0.0" fill="rgb(88, 73, 57)" opacity="0.7673077"/>
    <path d="M 309.172119140625 359.4829406738281 C 251.11444091796875 360.81304931640625 240.0751953125 363.70892333984375 240.2766876220703 354.9653015136719 C 246.1342315673828 353.5845947265625 252.02029418945312 351.28399658203125 291.4820251464844 351.29010009765625 C 243.3759002685547 328.82977294921875 241.6765594482422 337.93426513671875 235.51394653320312 334.96234130859375 C 271.8377990722656 342.02142333984375 269.3589782714844 345.8101501464844 309.172119140625 359.4829406738281" stroke-width="0.0" fill="rgb(154, 130, 92)" opacity="1.0"/>
    <path d="M 271.614013671875 325.2787780761719 C 268.6655578613281 313.1285705566406 257.21881103515625 314.4553527832031 237.95001220703125 307.91064453125 C 246.38690185546875 317.0014343261719 234.87045288085938 303.401123046875 220.56646728515625 307.2624816894531 C 230.96127319335938 265.298583984375 218.39486694335938 254.56227111816406 255.1571502685547 256.65850830078125 C 265.8052978515625 286.986083984375 270.38201904296875 300.0094909667969 271.614013671875 325.2787780761719" stroke-width="0.0" fill="rgb(253, 243, 239)" opacity="0.97873014"/>
    <path d="M 338.93865966796875 339.8641052246094 C 350.44842529296875 351.96478271484375 290.56024169921875 338.9399719238281 321.7985534667969 345.3674011230469 C 353.22149658203125 348.7901611328125 332.6286926269531 346.4178771972656 284.92236328125 345.97039794921875 C 305.1143798828125 333.7341613769531 298.33233642578125 323.4557189941406 297.7410888671875 343.7553405761719 C 313.5057678222656 340.5928039550781 370.6322021484375 356.5044860839844 338.93865966796875 339.8641052246094" stroke-width="0.0" fill="rgb(164, 174, 176)" opacity="0.9766545"/>
    <path d="M 83.54388427734375 349.3050842285156 C 76.72412872314453 389.354248046875 107.23943328857422 372.2904968261719 44.75165557861328 376.592041015625 C 39.456298828125 365.9322204589844 26.436601638793945 359.44952392578125 67.99097442626953 362.49908447265625 C 69.06027221679688 365.6650085449219 67.66648864746094 328.3883972167969 68.6781997680664 333.40594482421875 C 144.5388946533203 306.4282531738281 133.2913055419922 343.14703369140625 83.54388427734375 349.3050842285156" stroke-width="0.0" fill="rgb(155, 122, 84)" opacity="1.0"/>
    <path d="M 506.7196044921875 332.5825500488281 C 510.99267578125 327.2397766113281 504.9537353515625 344.78192138671875 505.3074951171875 344.5263671875 C 519.6842651367188 346.48333740234375 508.26434326171875 330.8582763671875 516.847900390625 343.68829345703125 C 519.01123046875 346.43804931640625 514.9673461914062 334.86370849609375 515.286865234375 346.17510986328125 C 500.34234619140625 345.5445251464844 519.0994873046875 349.3268127441406 506.7196044921875 332.5825500488281" stroke-width="0.0" fill="rgb(231, 223, 222)" opacity="0.9280162"/>
    <path d="M 264.070556640625 317.09881591796875 C 284.46075439453125 348.85455322265625 253.99119567871094 331.461669921875 231.04344177246094 326.6138916015625 C 218.19186401367188 331.5382080078125 198.62835693359375 327.1692199707031 210.40069580078125 318.8559875488281 C 222.71942138671875 270.57861328125 221.2433319091797 233.7137451171875 221.76112365722656 303.6169128417969 C 229.13644409179688 303.9390563964844 246.10975646972656 312.017822265625 264.070556640625 317.09881591796875" stroke-width="0.0" fill="rgb(0, 2, 2)" opacity="0.51580656"/>
    <path d="M 236.9396514892578 325.44659423828125 C 230.56912231445312 338.56536865234375 221.6002197265625 342.8245849609375 214.5135498046875 362.48199462890625 C 209.94326782226562 345.4184875488281 205.92453002929688 339.6385192871094 202.17381286621094 334.4780578613281 C 193.64793395996094 303.3468017578125 199.0865020751953 278.75311279296875 206.7918701171875 317.4858093261719 C 225.18759155273438 317.7587890625 231.79971313476562 316.0506896972656 236.9396514892578 325.44659423828125" stroke-width="0.0" fill="rgb(0, 0, 0)" opacity="0.9440018"/>
    <path d="M 119.39472961425781 269.9150695800781 C 134.54949951171875 287.881591796875 143.86776733398438 302.25 118.8341064453125 299.31231689453125 C 118.40108489990234 291.7447509765625 113.04691314697266 286.4056091308594 114.63341522216797 273.99676513671875 C 127.15052795410156 290.8392333984375 125.0164566040039 256.4287414550781 110.4315414428711 268.28826904296875 C 108.64360809326172 284.54217529296875 140.31329345703125 285.9881591796875 119.39472961425781 269.9150695800781" stroke-width="0.0" fill="rgb(134, 132, 143)" opacity="0.45592877"/>
    <path d="M 39.54689025878906 371.3571472167969 C 41.07645034790039 336.41400146484375 26.820363998413086 360.3873596191406 24.290437698364258 370.05072021484375 C 43.11630630493164 386.7492370605469 23.15995216369629 388.0129089355469 2.2213382720947266 381.0075378417969 C 32.01070022583008 366.77008056640625 34.69054412841797 357.9681396484375 20.656421661376953 362.5875244140625 C 22.041223526000977 379.2864990234375 42.87358856201172 372.833984375 39.54689025878906 371.3571472167969" stroke-width="0.0" fill="rgb(137, 151, 176)" opacity="0.99"/>
    <path d="M 251.4263458251953 357.9174499511719 C 248.12136840820312 370.2109069824219 248.55917358398438 369.5399475097656 249.2689971923828 361.3251953125 C 213.4986572265625 358.5323181152344 218.81129455566406 367.0609130859375 218.61044311523438 351.892578125 C 265.6319580078125 350.4345703125 248.57911682128906 360.0802917480469 250.13038635253906 333.6961975097656 C 243.4759521484375 342.3055114746094 258.8059997558594 346.9746398925781 251.4263458251953 357.9174499511719" stroke-width="0.0" fill="rgb(163, 137, 103)" opacity="0.87536067"/>
    <path d="M 421.4954528808594 336.1244201660156 C 432.9158935546875 351.87835693359375 367.1922607421875 341.1820373535156 420.0623474121094 347.2949523925781 C 401.2549743652344 345.270751953125 381.26123046875 345.46453857421875 355.8478088378906 345.397705078125 C 393.2664489746094 331.8305969238281 354.9285583496094 347.1242980957031 383.474853515625 343.5119934082031 C 410.0994567871094 339.8181457519531 451.3709411621094 355.3246765136719 421.4954528808594 336.1244201660156" stroke-width="0.0" fill="rgb(205, 220, 226)" opacity="0.7957918"/>
    <path d="M 277.1917419433594 348.47039794921875 C 248.9029998779297 348.9344482421875 237.5131378173828 348.5877380371094 213.8285675048828 348.7317199707031 C 214.25616455078125 370.4120178222656 229.8245849609375 355.1230773925781 86.16324615478516 360.84423828125 C 130.89566040039062 262.0634765625 177.56358337402344 317.9274597167969 213.145263671875 322.1110534667969 C 214.2565155029297 315.71270751953125 238.5009765625 328.0273742675781 277.1917419433594 348.47039794921875" stroke-width="0.0" fill="rgb(156, 124, 89)" opacity="0.9987129"/>
    <path d="M 317.438232421875 387.8727111816406 C 476.9776306152344 388.4667663574219 441.5412902832031 394.4671630859375 380.02569580078125 394.4682922363281 C 270.04168701171875 391.4712829589844 295.2843322753906 396.6504211425781 294.25531005859375 384.51812744140625 C 300.6436767578125 367.1954040527344 334.7142028808594 383.2063293457031 328.3031921386719 377.4281921386719 C 316.42047119140625 380.4798278808594 312.8520202636719 370.2395324707031 317.438232421875 387.8727111816406" stroke-width="0.0" fill="rgb(12, 4, 6)" opacity="0.9576204"/>
    <path d="M 404.6627502441406 299.67657470703125 C 417.58453369140625 316.9151916503906 450.7638244628906 357.13299560546875 410.157470703125 317.41888427734375 C 396.5413818359375 301.40045166015625 384.818603515625 290.8075256347656 371.0390930175781 276.54296875 C 352.2979431152344 264.019775390625 362.68463134765625 250.82577514648438 376.2079772949219 271.2169189453125 C 391.8438415527344 287.42138671875 400.2299499511719 298.150146484375 404.6627502441406 299.67657470703125" stroke-width="0.0" fill="rgb(0, 0, 6)" opacity="0.9661953"/>
    <path d="M 104.2923355102539 355.0712585449219 C 102.37998962402344 367.7109069824219 104.02552795410156 368.1947937011719 89.32572174072266 354.2596435546875 C 86.50129699707031 368.6916198730469 80.00442504882812 372.7164001464844 82.63626861572266 348.8897705078125 C 80.7345199584961 350.44049072265625 95.63992309570312 348.90234375 103.24121856689453 349.2464294433594 C 101.14891815185547 349.3035888671875 104.83417510986328 342.77166748046875 104.2923355102539 355.0712585449219" stroke-width="0.0" fill="rgb(0, 2, 0)" opacity="0.96991426"/>
    <path d="M 270.10772705078125 341.4784240722656 C 261.8985900878906 317.2934875488281 259.78826904296875 317.601806640625 233.45225524902344 310.8396911621094 C 231.32740783691406 319.3260803222656 216.06301879882812 317.6083068847656 220.19717407226562 316.1847229003906 C 225.53602600097656 324.70672607421875 246.63571166992188 308.6221923828125 225.8135986328125 309.2036437988281 C 212.09605407714844 318.89691162109375 231.7080535888672 318.0310363769531 270.10772705078125 341.4784240722656" stroke-width="0.0" fill="rgb(0, 27, 57)" opacity="0.9429771"/>
    <path d="M 310.7327880859375 381.0111389160156 C 310.068359375 393.8418273925781 313.96630859375 389.0911865234375 298.5878601074219 388.7351379394531 C 305.2142333984375 389.4097595214844 295.55181884765625 386.1123046875 297.3106384277344 386.9714050292969 C 297.7612609863281 386.8860778808594 298.9954833984375 379.99908447265625 299.9740905761719 377.470947265625 C 308.5597839355469 381.22869873046875 311.0274353027344 379.4222106933594 310.7327880859375 381.0111389160156" stroke-width="0.0" fill="rgb(161, 133, 110)" opacity="0.87683433"/>
    <path d="M 45.37266159057617 355.069091796875 C 35.13093185424805 357.5284423828125 39.31873321533203 347.48828125 38.84844970703125 377.9775390625 C 49.23973846435547 376.2555236816406 40.61622619628906 356.1096496582031 47.70040512084961 370.4029235839844 C 36.8214225769043 352.95172119140625 57.5039176940918 367.780029296875 68.89954376220703 355.78582763671875 C 36.035797119140625 353.88409423828125 34.7684211730957 359.2994079589844 45.37266159057617 355.069091796875" stroke-width="0.0" fill="rgb(3, 3, 0)" opacity="0.9506321"/>
    <path d="M 485.6788635253906 390.9862060546875 C 475.0137023925781 399.12933349609375 461.6063537597656 398.38409423828125 455.4472961425781 394.5982666015625 C 455.4992370605469 396.2593078613281 444.6500244140625 393.1741638183594 436.5854187011719 387.01531982421875 C 438.24591064453125 375.9023742675781 446.1482238769531 368.534423828125 456.2396545410156 370.04766845703125 C 467.5491638183594 371.49908447265625 476.52386474609375 377.420166015625 485.6788635253906 390.9862060546875" stroke-width="0.0" fill="rgb(147, 117, 87)" opacity="0.99716085"/>
    <path d="M 360.2286682128906 277.4848937988281 C 358.347412109375 296.8609924316406 362.1373596191406 330.3309326171875 356.4111022949219 351.3041076660156 C 348.1337890625 351.5045471191406 356.04327392578125 301.66107177734375 350.8101501464844 272.4835205078125 C 341.60791015625 302.6811828613281 357.1081848144531 272.0705261230469 362.13214111328125 264.15472412109375 C 356.7253112792969 296.8092041015625 360.7984313964844 311.9900207519531 360.2286682128906 277.4848937988281" stroke-width="0.0" fill="rgb(0, 0, 3)" opacity="0.9892188"/>
    <path d="M 432.72723388671875 388.0363464355469 C 426.96002197265625 393.8521423339844 441.6551208496094 392.16375732421875 406.6450500488281 392.5222473144531 C 431.87261962890625 389.20751953125 427.087646484375 393.8662109375 425.8049011230469 381.7987976074219 C 423.4815979003906 380.0157165527344 435.9271240234375 380.44757080078125 387.3066101074219 380.4398193359375 C 444.728759765625 372.364990234375 430.25433349609375 374.2207336425781 432.72723388671875 388.0363464355469" stroke-width="0.0" fill="rgb(12, 10, 3)" opacity="0.9123565"/>
    <path d="M 16.29265022277832 387.58209228515625 C 20.6789493560791 386.3775329589844 16.047428131103516 403.94732666015625 20.19945526123047 404.5267639160156 C 25.120458602905273 399.9035339355469 22.295795440673828 392.1219482421875 25.050386428833008 397.94061279296875 C 21.617568969726562 411.2630615234375 21.068824768066406 398.16650390625 21.416950225830078 389.77587890625 C 20.99707794189453 389.8563232421875 45.809783935546875 386.6517028808594 16.29265022277832 387.58209228515625" stroke-width="0.0" fill="rgb(0, 2, 5)" opacity="0.9506808"/>
    <path d="M 89.92887115478516 345.86474609375 C 99.53838348388672 353.730712890625 101.15913391113281 360.95416259765625 85.2845230102539 358.0610656738281 C 93.4808578491211 361.36517333984375 83.10292053222656 351.10125732421875 95.86991119384766 355.43017578125 C 87.43667602539062 346.7189636230469 86.38861846923828 345.5779724121094 91.38983917236328 349.089111328125 C 97.6084213256836 346.9842834472656 97.93543243408203 348.0352478027344 89.92887115478516 345.86474609375" stroke-width="0.0" fill="rgb(183, 215, 247)" opacity="0.72728807"/>
    <path d="M 412.5398864746094 389.2196960449219 C 412.6482238769531 383.810791015625 412.1415710449219 381.62921142578125 414.7888488769531 392.24481201171875 C 409.9103698730469 395.9374694824219 401.94976806640625 393.8214111328125 406.4064025878906 393.25579833984375 C 410.251953125 382.15228271484375 404.12451171875 370.75775146484375 414.2130126953125 376.55810546875 C 412.3980407714844 386.90887451171875 412.1881103515625 385.4588623046875 412.5398864746094 389.2196960449219" stroke-width="0.0" fill="rgb(0, 5, 6)" opacity="0.88205606"/>
    <path d="M 118.56379699707031 382.720703125 C 120.3801040649414 371.041015625 113.911865234375 372.7215270996094 116.17924499511719 386.6989440917969 C 119.55966186523438 388.9491882324219 112.13517761230469 388.3631896972656 99.53301239013672 389.018310546875 C 94.85600280761719 370.7565002441406 105.86506652832031 368.9749450683594 99.34942626953125 390.7159118652344 C 125.76300048828125 389.6072998046875 117.6390151977539 397.0079040527344 118.56379699707031 382.720703125" stroke-width="0.0" fill="rgb(4, 3, 2)" opacity="0.96215767"/>
    <path d="M 199.37831115722656 313.95098876953125 C 130.9679412841797 294.0444030761719 143.55101013183594 300.295654296875 146.1267852783203 308.1148986816406 C 143.4442596435547 309.3862609863281 137.85630798339844 310.96209716796875 144.2628936767578 310.07403564453125 C 135.67996215820312 294.5287780761719 150.09765625 303.8115234375 144.77906799316406 282.95465087890625 C 192.03292846679688 295.6223449707031 188.3082733154297 289.9772644042969 199.37831115722656 313.95098876953125" stroke-width="0.0" fill="rgb(1, 12, 31)" opacity="0.98804396"/>
    <path d="M 95.93563842773438 386.7014465332031 C 108.05794525146484 384.0955810546875 96.95304870605469 388.0520324707031 106.52728271484375 386.55010986328125 C 98.9379653930664 389.7313232421875 98.06302642822266 379.63421630859375 100.71229553222656 373.9306640625 C 97.44444274902344 387.5941162109375 97.98790740966797 364.5894775390625 109.38903045654297 340.565185546875 C 103.12268829345703 355.95648193359375 97.09823608398438 393.4151306152344 95.93563842773438 386.7014465332031" stroke-width="0.0" fill="rgb(35, 39, 28)" opacity="0.4828955"/>
    <path d="M 353.99041748046875 297.2574462890625 C 364.9391784667969 314.75164794921875 360.7928161621094 309.767822265625 350.7989807128906 291.73345947265625 C 352.55621337890625 307.8084716796875 351.6064453125 311.9298400878906 351.7072448730469 334.1009521484375 C 353.0546875 298.9098205566406 352.9915466308594 289.26922607421875 360.4136962890625 280.2559509277344 C 363.8670959472656 264.0990295410156 363.25439453125 264.0227355957031 353.99041748046875 297.2574462890625" stroke-width="0.0" fill="rgb(81, 85, 84)" opacity="0.51820564"/>
    <path d="M 431.7965393066406 341.9107971191406 C 421.25274658203125 332.349609375 421.3135681152344 340.2159118652344 406.7749938964844 336.154541015625 C 410.50616455078125 343.13592529296875 402.1728820800781 344.0456848144531 424.3944091796875 343.2200012207031 C 430.64996337890625 336.73028564453125 391.8194580078125 304.36883544921875 405.71044921875 300.26031494140625 C 420.1123962402344 318.3677978515625 429.6225891113281 331.2181701660156 431.7965393066406 341.9107971191406" stroke-width="0.0" fill="rgb(0, 2, 3)" opacity="0.7476204"/>
    <path d="M 157.61424255371094 220.1751708984375 C 156.89511108398438 232.09803771972656 150.37770080566406 260.41900634765625 143.87794494628906 294.1388244628906 C 142.38690185546875 240.367919921875 152.41644287109375 233.38311767578125 147.34231567382812 254.4554443359375 C 138.29531860351562 255.0668182373047 159.8354034423828 237.78778076171875 164.25698852539062 194.88011169433594 C 143.39767456054688 241.4373779296875 144.70765686035156 270.9573059082031 157.61424255371094 220.1751708984375" stroke-width="0.0" fill="rgb(10, 16, 12)" opacity="0.57953775"/>
    <path d="M 72.2624282836914 294.3741455078125 C 76.47784423828125 299.72979736328125 95.38301849365234 314.05853271484375 88.02799224853516 305.53887939453125 C 68.96450805664062 302.4927673339844 62.812286376953125 298.4635314941406 56.86882019042969 288.3345642089844 C 53.43744659423828 279.2485046386719 71.23263549804688 291.9012756347656 77.6451644897461 297.5920715332031 C 64.93913269042969 289.1892395019531 83.22178649902344 307.7294006347656 72.2624282836914 294.3741455078125" stroke-width="0.0" fill="rgb(138, 152, 176)" opacity="0.9356252"/>
    <path d="M 111.79454040527344 323.7367858886719 C 119.23198699951172 326.3576965332031 118.860595703125 323.6740417480469 116.24284362792969 322.4277648925781 C 106.2471923828125 315.8267517089844 102.72517395019531 300.59619140625 99.96836853027344 326.55523681640625 C 108.25050354003906 328.3326416015625 123.95014190673828 320.8674621582031 125.9655532836914 308.1664733886719 C 96.54241180419922 317.1419677734375 109.19625854492188 305.9674987792969 111.79454040527344 323.7367858886719" stroke-width="0.0" fill="rgb(154, 123, 94)" opacity="1.0"/>
    <path d="M 310.21868896484375 338.05731201171875 C 319.4394226074219 334.5107727050781 312.65673828125 335.5197448730469 314.6250305175781 335.2123107910156 C 311.4882507324219 334.1807556152344 306.1947021484375 332.0702819824219 312.4164733886719 334.5162048339844 C 308.3145751953125 334.9011535644531 305.19183349609375 332.9649353027344 293.84478759765625 335.78326416015625 C 301.6369934082031 332.85565185546875 314.72418212890625 334.84521484375 310.21868896484375 338.05731201171875" stroke-width="0.0" fill="rgb(147, 187, 218)" opacity="0.95716715"/>
    <path d="M 335.72418212890625 337.1513671875 C 303.29132080078125 330.0393981933594 328.6987609863281 339.7268371582031 314.8143615722656 336.120361328125 C 315.1161193847656 337.6668395996094 309.5681457519531 332.90093994140625 296.04638671875 332.3663024902344 C 299.5715637207031 335.3945617675781 307.1802978515625 335.29058837890625 309.55645751953125 334.06646728515625 C 321.43768310546875 334.5468444824219 315.69354248046875 336.0129699707031 335.72418212890625 337.1513671875" stroke-width="0.0" fill="rgb(110, 129, 148)" opacity="0.99"/>
    <path d="M 404.8255615234375 335.06231689453125 C 400.4743347167969 334.9776611328125 392.3934326171875 338.17657470703125 384.7454833984375 334.2191162109375 C 392.343994140625 333.753662109375 381.9165344238281 333.1123352050781 389.4841613769531 330.67254638671875 C 391.0002136230469 334.67572021484375 385.1679992675781 331.2826232910156 368.84393310546875 337.6515808105469 C 389.4794006347656 338.18524169921875 398.6981201171875 328.79327392578125 404.8255615234375 335.06231689453125" stroke-width="0.0" fill="rgb(0, 2, 0)" opacity="0.61898345"/>
    <path d="M 30.33541488647461 373.9379577636719 C 46.579776763916016 373.10943603515625 26.257770538330078 374.94244384765625 31.162933349609375 385.41815185546875 C 30.815980911254883 385.74676513671875 26.601909637451172 383.9289855957031 32.994510650634766 392.7289733886719 C 37.24052810668945 390.8611145019531 32.64483642578125 382.383544921875 37.70800018310547 375.5718078613281 C 24.644542694091797 380.23944091796875 32.04984664916992 382.9374694824219 30.33541488647461 373.9379577636719" stroke-width="0.0" fill="rgb(0, 0, 0)" opacity="0.84978056"/>
    <path d="M 149.26629638671875 268.0092468261719 C 144.90103149414062 282.3187255859375 140.44264221191406 284.57781982421875 137.0347137451172 287.3341979980469 C 138.6916046142578 291.9876403808594 136.42611694335938 285.91595458984375 138.85488891601562 287.435791015625 C 135.0609130859375 287.7624206542969 139.47532653808594 265.7972412109375 139.72360229492188 265.12957763671875 C 154.50112915039062 268.89556884765625 153.32827758789062 268.525634765625 149.26629638671875 268.0092468261719" stroke-width="0.0" fill="rgb(122, 118, 120)" opacity="0.791115"/>
    <path d="M 143.98057556152344 280.9339294433594 C 147.6292266845703 298.2147216796875 146.88397216796875 303.0968322753906 144.3325958251953 297.5936279296875 C 153.5411376953125 303.4540100097656 151.00161743164062 299.62225341796875 133.24945068359375 300.9836120605469 C 139.3614044189453 302.9179382324219 130.17388916015625 279.0736389160156 163.82901000976562 196.17665100097656 C 138.38731384277344 301.64642333984375 145.5733642578125 301.39764404296875 143.98057556152344 280.9339294433594" stroke-width="0.0" fill="rgb(2, 0, 0)" opacity="0.93657064"/>
    <path d="M 412.41070556640625 336.37066650390625 C 407.6273498535156 336.9097900390625 403.1419372558594 336.9402160644531 408.5425720214844 336.1653747558594 C 400.69720458984375 343.3208312988281 400.33953857421875 331.4520263671875 388.676025390625 324.6148986816406 C 385.4927978515625 325.2372131347656 390.69525146484375 328.30615234375 398.173828125 337.0340881347656 C 404.3066101074219 333.08563232421875 405.8080749511719 336.65826416015625 412.41070556640625 336.37066650390625" stroke-width="0.0" fill="rgb(202, 233, 255)" opacity="0.72785217"/>
    <path d="M 296.9791564941406 395.3317565917969 C 293.8778381347656 395.9126281738281 289.2826843261719 399.2453308105469 296.3828430175781 394.9670104980469 C 295.4369201660156 404.18731689453125 295.1322021484375 397.048583984375 292.5712890625 386.0594787597656 C 288.5619201660156 405.7428894042969 293.0079650878906 399.13885498046875 295.6403503417969 400.46929931640625 C 294.58050537109375 400.3839111328125 304.6073303222656 406.91522216796875 296.9791564941406 395.3317565917969" stroke-width="0.0" fill="rgb(135, 108, 83)" opacity="0.7172679"/>
    <path d="M 427.9754333496094 340.4692687988281 C 418.9144592285156 327.619140625 419.5755615234375 339.1620788574219 403.3109436035156 330.18988037109375 C 380.092529296875 334.58404541015625 389.40087890625 329.2434997558594 389.4851379394531 333.1436767578125 C 406.17730712890625 323.9866943359375 421.72052001953125 337.6453857421875 414.03204345703125 335.38824462890625 C 402.4509582519531 338.7392883300781 421.03558349609375 333.0714111328125 427.9754333496094 340.4692687988281" stroke-width="0.0" fill="rgb(95, 108, 117)" opacity="0.7768449"/>
    <path d="M 234.6885528564453 210.59695434570312 C 228.3616485595703 191.234130859375 227.8207244873047 216.134521484375 228.66436767578125 204.4108123779297 C 236.2161865234375 204.956787109375 230.41439819335938 192.52247619628906 234.71775817871094 205.75531005859375 C 238.8150177001953 217.14979553222656 239.8943328857422 207.08078002929688 230.1420135498047 206.53704833984375 C 231.911376953125 205.26026916503906 237.3335418701172 203.19699096679688 234.6885528564453 210.59695434570312" stroke-width="0.0" fill="rgb(61, 56, 69)" opacity="0.9550592"/>
    <path d="M 362.0189208984375 276.29644775390625 C 357.1883239746094 321.28021240234375 358.1083068847656 346.2967834472656 358.4274597167969 339.6781005859375 C 375.7496032714844 337.4045715332031 366.35540771484375 330.8341064453125 370.4525146484375 327.1203918457031 C 369.0658874511719 340.2275085449219 368.78289794921875 334.1745300292969 382.4542541503906 332.7734069824219 C 384.3412170410156 334.6381530761719 397.2702331542969 328.6783447265625 362.0189208984375 276.29644775390625" stroke-width="0.0" fill="rgb(252, 252, 252)" opacity="0.4964996"/>
    <path d="M 266.88458251953125 289.18414306640625 C 262.1849670410156 265.7330627441406 257.8266906738281 274.8058776855469 272.58270263671875 290.9737243652344 C 270.8990173339844 290.88653564453125 271.16015625 274.1585388183594 270.7926940917969 276.7658386230469 C 274.1343078613281 290.45526123046875 274.5719299316406 289.5876159667969 265.0762939453125 277.0953369140625 C 263.5909729003906 276.7046203613281 271.7198486328125 293.3185729980469 266.88458251953125 289.18414306640625" stroke-width="0.0" fill="rgb(43, 48, 44)" opacity="0.99"/>
    <path d="M 395.2777099609375 344.7703552246094 C 416.6542053222656 344.8144226074219 380.312744140625 349.3951110839844 373.46832275390625 338.41326904296875 C 348.0160827636719 357.06842041015625 342.8367614746094 357.2517395019531 372.4223327636719 339.5412902832031 C 377.2237243652344 347.6725769042969 387.9803466796875 330.21795654296875 392.18975830078125 336.6348571777344 C 363.8409118652344 338.4092102050781 376.6034851074219 346.7615966796875 395.2777099609375 344.7703552246094" stroke-width="0.0" fill="rgb(92, 102, 112)" opacity="0.99"/>
    <path d="M 297.5978698730469 372.6231384277344 C 302.2369384765625 368.1291198730469 293.0606689453125 371.72052001953125 308.10894775390625 369.8668212890625 C 303.33056640625 373.3367004394531 291.12103271484375 376.086669921875 293.8105163574219 374.108154296875 C 296.1507568359375 372.3007507324219 302.3983154296875 367.28570556640625 299.5618896484375 369.3582458496094 C 295.15777587890625 374.7203063964844 293.44903564453125 375.87591552734375 297.5978698730469 372.6231384277344" stroke-width="0.0" fill="rgb(179, 119, 98)" opacity="0.6225444"/>
    <path d="M 358.9794006347656 52.35721206665039 C 343.17486572265625 75.03536224365234 328.6805419921875 77.80998992919922 296.86920166015625 92.1064224243164 C 277.7895202636719 90.75973510742188 276.3874206542969 76.38819122314453 286.8150939941406 56.95451736450195 C 294.2291564941406 43.630531311035156 299.52691650390625 34.262184143066406 311.742919921875 33.23917007446289 C 323.9550476074219 32.17964553833008 338.5991516113281 33.34501266479492 358.9794006347656 52.35721206665039" stroke-width="0.0" fill="rgb(135, 155, 173)" opacity="1.0"/>
    <path d="M 89.20982360839844 337.2392272949219 C 84.34419250488281 338.2431335449219 76.02803039550781 343.77947998046875 70.741455078125 348.2991943359375 C 81.874267578125 344.5989990234375 80.14625549316406 336.9976806640625 76.540771484375 343.4012145996094 C 80.883544921875 342.79803466796875 86.46363830566406 340.5327453613281 81.6559829711914 338.8630065917969 C 77.19403076171875 342.18402099609375 85.88534545898438 340.0537414550781 89.20982360839844 337.2392272949219" stroke-width="0.0" fill="rgb(155, 120, 85)" opacity="0.75837654"/>
    <path d="M 63.12663269042969 379.7577209472656 C 66.31210327148438 377.17877197265625 61.2265739440918 391.9134216308594 68.34228515625 401.8917541503906 C 65.74264526367188 386.373779296875 62.65656661987305 375.88525390625 64.34624481201172 379.47259521484375 C 65.18138122558594 381.2013854980469 63.5765380859375 370.5560607910156 62.60197067260742 369.7149963378906 C 62.213584899902344 373.8907775878906 63.27394104003906 381.92041015625 63.12663269042969 379.7577209472656" stroke-width="0.0" fill="rgb(66, 54, 33)" opacity="0.24118367"/>
    <path d="M 356.120361328125 425.9696044921875 C 347.8619384765625 440.6772155761719 338.4925231933594 443.9687194824219 324.3475341796875 443.3799743652344 C 313.6185302734375 443.7899475097656 307.8177490234375 436.8951110839844 301.1270751953125 425.2199401855469 C 304.7364196777344 412.5963134765625 312.1517028808594 403.6330261230469 322.864501953125 408.7093505859375 C 337.01116943359375 404.2466125488281 345.8365478515625 411.55657958984375 356.120361328125 425.9696044921875" stroke-width="0.0" fill="rgb(217, 162, 131)" opacity="1.0"/>
    <path d="M 508.8025817871094 48.052398681640625 C 506.1849365234375 58.052207946777344 498.88677978515625 65.38323974609375 488.8946838378906 68.06769561767578 C 478.8852233886719 65.3988037109375 471.5562438964844 58.08283233642578 468.9085693359375 48.09629440307617 C 471.6031494140625 38.09018325805664 478.9136962890625 30.765106201171875 488.9041748046875 28.08295440673828 C 498.9049377441406 30.738666534423828 506.2199401855469 38.06126403808594 508.8025817871094 48.052398681640625" stroke-width="0.0" fill="rgb(140, 150, 174)" opacity="0.9824143"/>
    <path d="M 414.84930419921875 328.8901672363281 C 399.3955078125 327.7823486328125 388.6267395019531 329.6337585449219 380.49560546875 330.7812194824219 C 380.4898681640625 327.6955871582031 371.2162780761719 322.92559814453125 365.17059326171875 316.3270263671875 C 366.52349853515625 303.958740234375 368.0287170410156 290.3074951171875 376.071533203125 279.3851318359375 C 394.4764404296875 301.2270812988281 402.9031677246094 309.63092041015625 414.84930419921875 328.8901672363281" stroke-width="0.0" fill="rgb(254, 245, 239)" opacity="0.9343811"/>
    <path d="M 116.11873626708984 523.034423828125 C 113.1275405883789 533.101806640625 105.72628021240234 540.364990234375 95.75495910644531 542.8981323242188 C 85.79047393798828 540.3024291992188 78.44874572753906 533.0201416015625 75.43124389648438 522.9649047851562 C 78.21275329589844 512.9147338867188 85.56981658935547 505.55523681640625 95.72396087646484 502.6507263183594 C 105.87749481201172 505.56390380859375 113.23673248291016 512.9193725585938 116.11873626708984 523.034423828125" stroke-width="0.0" fill="rgb(140, 150, 179)" opacity="0.9855174"/>
    <path d="M 483.5805358886719 388.5565185546875 C 475.0758056640625 389.6590270996094 468.4555969238281 395.14739990234375 473.744384765625 392.4905700683594 C 479.7099304199219 396.37823486328125 472.44915771484375 389.77496337890625 466.0423889160156 385.2693786621094 C 458.9781188964844 385.260986328125 464.26348876953125 379.0663146972656 473.65374755859375 379.48651123046875 C 482.92547607421875 378.7570495605469 490.5816955566406 386.2795715332031 483.5805358886719 388.5565185546875" stroke-width="0.0" fill="rgb(146, 121, 86)" opacity="0.79499537"/>
    <path d="M 617.8003540039062 584.8759155273438 C 615.120849609375 594.8759155273438 607.8003540039062 602.1964111328125 597.4757080078125 605.2274169921875 C 586.5319213867188 603.4359741210938 578.074951171875 596.8595581054688 570.7002563476562 584.6942749023438 C 577.1238403320312 572.0301513671875 584.9868774414062 564.173828125 596.552490234375 559.0446166992188 C 607.94384765625 567.3014526367188 615.120849609375 574.8538208007812 617.8003540039062 584.8759155273438" stroke-width="0.0" fill="rgb(137, 152, 176)" opacity="0.9939772"/>
    <path d="M 40.770896911621094 153.6311492919922 C 35.14193344116211 163.89498901367188 27.57777976989746 171.0681915283203 17.388635635375977 175.6613311767578 C 7.304932594299316 173.02359008789062 -0.004163563251495361 165.69088745117188 -2.6322996616363525 153.6215057373047 C 0.03140079975128174 143.566650390625 7.3410162925720215 136.24053955078125 19.373241424560547 133.5074462890625 C 29.455730438232422 136.23797607421875 36.96603775024414 143.47528076171875 40.770896911621094 153.6311492919922" stroke-width="0.0" fill="rgb(141, 155, 178)" opacity="0.9750139"/>
    <path d="M 269.2825927734375 206.28009033203125 C 267.0508117675781 214.38771057128906 266.4395446777344 221.92543029785156 269.59686279296875 210.10545349121094 C 266.3484191894531 204.80361938476562 259.0290222167969 196.66688537597656 258.84320068359375 207.57940673828125 C 258.02008056640625 215.36924743652344 261.9613952636719 204.84014892578125 266.3265380859375 200.1770782470703 C 261.4850769042969 194.6073760986328 266.04315185546875 201.86865234375 269.2825927734375 206.28009033203125" stroke-width="0.0" fill="rgb(253, 243, 231)" opacity="0.7815223"/>
    <path d="M 346.82720947265625 248.98239135742188 C 344.935791015625 253.73629760742188 337.6255798339844 260.5552062988281 332.4946594238281 263.150390625 C 345.3804931640625 270.55230712890625 335.7402648925781 267.90020751953125 333.6436462402344 264.4776611328125 C 335.6476745605469 258.03570556640625 342.04852294921875 251.55096435546875 349.132080078125 246.95948791503906 C 352.8952941894531 251.4853057861328 355.97174072265625 259.74847412109375 346.82720947265625 248.98239135742188" stroke-width="0.0" fill="rgb(253, 248, 236)" opacity="0.7944917"/>
    <path d="M 277.1208801269531 162.77684020996094 C 269.242919921875 175.0087890625 261.9423828125 182.3062286376953 251.8880615234375 188.7389678955078 C 241.4691162109375 188.00038146972656 234.21189880371094 177.30776977539062 229.14093017578125 161.50308227539062 C 227.78744506835938 149.8083038330078 236.28756713867188 140.7665557861328 247.89881896972656 139.6795196533203 C 265.51019287109375 148.50587463378906 273.4150695800781 153.66075134277344 277.1208801269531 162.77684020996094" stroke-width="0.0" fill="rgb(253, 244, 239)" opacity="0.9616379"/>
    <path d="M 392.9664306640625 436.14617919921875 C 388.2520446777344 439.8295593261719 377.96331787109375 444.2062683105469 377.31646728515625 440.8938293457031 C 377.886962890625 444.33740234375 369.72796630859375 441.79498291015625 365.0887145996094 436.1077880859375 C 363.6817626953125 431.6983642578125 370.70416259765625 424.2963562011719 380.5051574707031 417.4822082519531 C 389.593017578125 421.6124267578125 396.3740539550781 429.484619140625 392.9664306640625 436.14617919921875" stroke-width="0.0" fill="rgb(219, 157, 125)" opacity="0.6318058"/>
    <path d="M 174.70265197753906 582.6416625976562 C 164.19825744628906 596.7817993164062 155.0155029296875 602.9063110351562 142.62379455566406 604.597900390625 C 130.36947631835938 602.448974609375 121.42086029052734 596.0380859375 115.62383270263672 585.1541137695312 C 125.02265930175781 572.7551879882812 132.53176879882812 565.5374755859375 144.3717041015625 559.9129028320312 C 156.62313842773438 560.3507080078125 165.42303466796875 567.6073608398438 174.70265197753906 582.6416625976562" stroke-width="0.0" fill="rgb(138, 153, 177)" opacity="0.9219522"/>
  </g>
</svg>
