<?xml version="1.0" ?>
<svg xmlns="http://www.w3.org/2000/svg" version="1.1" width="600" height="600">
  <defs/>
  <g>
    <path d="M 369.3251953125 610.2326049804688 C 376.0151672363281 620.3997802734375 361.7762451171875 622.1270141601562 251.48269653320312 622.8138427734375 C 208.1206512451172 609.84814453125 219.13876342773438 574.5277709960938 204.068115234375 488.7911071777344 C 174.71490478515625 472.9723815917969 184.00352478027344 497.1977233886719 300.657958984375 489.36505126953125 C 334.4516906738281 456.1369934082031 346.9178771972656 465.7337646484375 369.3251953125 610.2326049804688" stroke-width="0.0" fill="rgb(29, 133, 171)" opacity="0.9983625"/>
    <path d="M 391.613525390625 16.19481086730957 C 350.1806945800781 97.19063568115234 325.44158935546875 96.11908721923828 249.94900512695312 109.53762817382812 C 184.23512268066406 103.81108093261719 168.65492248535156 100.92635345458984 177.5200653076172 5.887670516967773 C 217.33453369140625 -16.206405639648438 222.67417907714844 -23.08751678466797 288.49822998046875 -27.865447998046875 C 346.3407897949219 -15.039583206176758 357.78167724609375 -16.961612701416016 391.613525390625 16.19481086730957" stroke-width="0.0" fill="rgb(12, 94, 197)" opacity="0.9504794"/>
    <path d="M 230.2886962890625 570.1432495117188 C 227.97198486328125 647.8943481445312 199.4373321533203 632.5750122070312 142.0883331298828 617.56640625 C 93.63101196289062 628.3751220703125 72.2386703491211 634.2235717773438 45.07699966430664 590.3815307617188 C 62.24488067626953 513.3173828125 81.1794662475586 512.2916870117188 173.86578369140625 501.69805908203125 C 234.572998046875 485.642578125 233.22242736816406 492.4259033203125 230.2886962890625 570.1432495117188" stroke-width="0.0" fill="rgb(40, 140, 176)" opacity="0.987101"/>
    <path d="M 628.5845947265625 188.10630798339844 C 661.0564575195312 319.582763671875 695.2098999023438 351.0837097167969 527.3294677734375 342.6249694824219 C 439.9566955566406 273.0933837890625 468.9037780761719 205.35653686523438 417.0021057128906 167.8061065673828 C 411.3260192871094 62.227664947509766 442.3630065917969 70.07476806640625 595.77880859375 22.8875675201416 C 618.25537109375 32.877952575683594 634.903564453125 32.250396728515625 628.5845947265625 188.10630798339844" stroke-width="0.0" fill="rgb(27, 120, 196)" opacity="0.9906612"/>
    <path d="M 407.9385070800781 397.26153564453125 C 349.7071228027344 553.2347412109375 334.6565856933594 547.3593139648438 289.743896484375 521.201416015625 C 220.84722900390625 525.3824462890625 189.896240234375 543.6683349609375 180.34426879882812 382.26055908203125 C 130.60946655273438 293.61273193359375 95.3328628540039 259.4415283203125 296.3201599121094 259.8828125 C 441.9523620605469 335.5828857421875 442.2133483886719 348.04534912109375 407.9385070800781 397.26153564453125" stroke-width="0.0" fill="rgb(158, 131, 98)" opacity="0.8865597"/>
    <path d="M 554.9788208007812 212.88775634765625 C 570.3624877929688 312.58758544921875 552.1411743164062 328.298583984375 337.967041015625 344.70166015625 C 266.58984375 316.0923156738281 265.97418212890625 252.41470336914062 143.4927215576172 122.63421630859375 C 253.14772033691406 45.7249641418457 317.4693603515625 89.34074401855469 405.3691101074219 59.336483001708984 C 451.54998779296875 87.12472534179688 454.7759094238281 104.63810729980469 554.9788208007812 212.88775634765625" stroke-width="0.0" fill="rgb(255, 255, 229)" opacity="1.0"/>
    <path d="M 457.05267333984375 97.67560577392578 C 421.6177062988281 152.23629760742188 416.5008850097656 170.73866271972656 373.9413757324219 264.3478088378906 C 314.0845031738281 178.8904266357422 289.9679260253906 172.61636352539062 301.31658935546875 164.98048400878906 C 336.7891845703125 85.06161499023438 332.1197509765625 54.72026062011719 385.81573486328125 64.12078857421875 C 428.768310546875 59.13136672973633 441.4070129394531 55.70061492919922 457.05267333984375 97.67560577392578" stroke-width="0.0" fill="rgb(16, 16, 59)" opacity="0.8437609"/>
    <path d="M 222.83534240722656 366.8349304199219 C 207.13291931152344 567.8271484375 191.18359375 567.5385131835938 124.29124450683594 560.7152099609375 C -5.764115333557129 579.510009765625 -35.319297790527344 596.1879272460938 -51.09206008911133 371.6725158691406 C -60.62923049926758 287.9027099609375 -85.30968475341797 258.6540222167969 151.65283203125 179.24766540527344 C 273.9632263183594 237.5731201171875 242.40695190429688 291.2080383300781 222.83534240722656 366.8349304199219" stroke-width="0.0" fill="rgb(36, 132, 175)" opacity="0.9993825"/>
    <path d="M 224.66580200195312 176.09909057617188 C 234.88319396972656 167.3079071044922 240.77830505371094 212.90614318847656 205.6683807373047 326.81451416015625 C -63.16347885131836 279.9567565917969 -60.989990234375 277.2391052246094 -15.77761459350586 253.04359436035156 C 77.92376708984375 49.27741241455078 101.37027740478516 43.6184196472168 134.925048828125 31.507768630981445 C 130.17210388183594 44.640655517578125 142.9627227783203 47.929466247558594 224.66580200195312 176.09909057617188" stroke-width="0.0" fill="rgb(0, 0, 9)" opacity="0.99703085"/>
    <path d="M 163.42562866210938 0.5827920436859131 C 141.29193115234375 70.07418060302734 128.78631591796875 79.11931610107422 24.568099975585938 180.30030822753906 C -29.743141174316406 169.32839965820312 -40.588130950927734 162.3715362548828 -44.979209899902344 72.60111999511719 C -10.15634822845459 -47.66112518310547 14.742843627929688 -33.53483581542969 89.936279296875 -21.33711051940918 C 151.1575469970703 -21.015972137451172 168.96214294433594 -18.414379119873047 163.42562866210938 0.5827920436859131" stroke-width="0.0" fill="rgb(38, 110, 192)" opacity="0.99711883"/>
    <path d="M 227.60252380371094 508.3758850097656 C 197.44488525390625 603.2752685546875 167.7855682373047 587.8216552734375 51.3901252746582 623.54443359375 C 0.23427404463291168 625.3421630859375 -13.263816833496094 623.44775390625 -84.6355972290039 559.1940307617188 C -77.80796813964844 442.12347412109375 -27.689006805419922 469.05517578125 62.8778190612793 460.40838623046875 C 138.40927124023438 453.84466552734375 185.84898376464844 459.7869873046875 227.60252380371094 508.3758850097656" stroke-width="0.0" fill="rgb(27, 142, 173)" opacity="0.9972509"/>
    <path d="M 652.2942504882812 40.7652473449707 C 588.252685546875 145.31967163085938 538.1598510742188 133.7347412109375 444.40447998046875 168.00894165039062 C 416.3642578125 159.548828125 412.35955810546875 136.3302001953125 424.1772766113281 117.49515533447266 C 438.3393249511719 41.48454284667969 443.1712341308594 9.35909652709961 532.846923828125 -27.702407836914062 C 586.9144287109375 -28.280319213867188 607.3485107421875 -33.93315887451172 652.2942504882812 40.7652473449707" stroke-width="0.0" fill="rgb(27, 112, 181)" opacity="0.99589056"/>
    <path d="M 630.7783203125 370.59466552734375 C 615.0821533203125 682.791015625 603.6884765625 678.2999267578125 525.524658203125 670.2051391601562 C 334.6957092285156 640.611572265625 351.338623046875 612.1685180664062 347.04150390625 501.631591796875 C 316.5957336425781 378.7995300292969 286.0877380371094 371.0030822753906 510.70794677734375 369.3759460449219 C 608.364501953125 306.91107177734375 623.846435546875 307.9092712402344 630.7783203125 370.59466552734375" stroke-width="0.0" fill="rgb(22, 134, 175)" opacity="0.9987873"/>
    <path d="M 187.66790771484375 33.491661071777344 C 149.24038696289062 140.0171356201172 244.24986267089844 110.40971374511719 282.5083312988281 346.25579833984375 C 184.08119201660156 125.70779418945312 133.94638061523438 113.20372009277344 116.16131591796875 33.30746078491211 C 118.5761947631836 -28.091760635375977 119.85173034667969 -31.801528930664062 191.07876586914062 -17.738740921020508 C 254.51243591308594 4.802000522613525 260.3443298339844 32.42415237426758 187.66790771484375 33.491661071777344" stroke-width="0.0" fill="rgb(0, 0, 5)" opacity="1.0"/>
    <path d="M 374.9774169921875 32.079498291015625 C 355.0732421875 128.35498046875 355.75177001953125 175.27577209472656 307.79083251953125 161.48989868164062 C 287.98651123046875 140.93992614746094 265.4786376953125 120.9893798828125 203.02679443359375 98.34361267089844 C 279.85455322265625 59.37665557861328 291.2185363769531 51.7770881652832 392.2427062988281 50.97227096557617 C 410.30615234375 36.439212799072266 395.2902526855469 20.40081787109375 374.9774169921875 32.079498291015625" stroke-width="0.0" fill="rgb(0, 39, 164)" opacity="0.7189421"/>
    <path d="M 495.0320739746094 -25.712839126586914 C 475.2823791503906 68.18124389648438 489.019287109375 111.9482192993164 441.0692443847656 141.14381408691406 C 359.90643310546875 111.74732971191406 370.51654052734375 84.59405517578125 355.8280944824219 -19.495328903198242 C 338.94970703125 -42.82296371459961 357.9593811035156 -37.32992935180664 411.2666015625 -31.219820022583008 C 478.4912109375 -22.09109115600586 497.2599792480469 -23.217050552368164 495.0320739746094 -25.712839126586914" stroke-width="0.0" fill="rgb(28, 109, 194)" opacity="1.0"/>
    <path d="M 244.2976837158203 10.039793014526367 C 198.27459716796875 128.8338165283203 157.12937927246094 106.01848602294922 112.2994384765625 100.74826049804688 C 97.85948181152344 105.40538024902344 95.53575134277344 89.55132293701172 98.24851989746094 111.93270111083984 C 100.21302032470703 62.335121154785156 72.45987701416016 2.0237324237823486 114.11146545410156 -66.23750305175781 C 233.7943878173828 -48.5740966796875 245.7019500732422 -43.853389739990234 244.2976837158203 10.039793014526367" stroke-width="0.0" fill="rgb(26, 109, 197)" opacity="0.9898721"/>
    <path d="M 374.737060546875 84.24217224121094 C 386.954833984375 165.5604705810547 390.21722412109375 183.36868286132812 362.63983154296875 240.66444396972656 C 315.4111328125 154.5659637451172 290.63031005859375 140.33651733398438 283.8020324707031 98.26873016357422 C 251.98626708984375 36.41499328613281 254.8245086669922 30.58356475830078 328.590087890625 33.84421157836914 C 382.08697509765625 38.08900833129883 386.0828857421875 45.43043518066406 374.737060546875 84.24217224121094" stroke-width="0.0" fill="rgb(24, 103, 211)" opacity="0.980799"/>
    <path d="M 126.29046630859375 123.0263442993164 C 133.7353973388672 182.8593292236328 121.20512390136719 194.75 136.3562774658203 198.89456176757812 C 72.96288299560547 162.3759307861328 57.13898468017578 167.65077209472656 57.19558334350586 141.71981811523438 C 74.56690979003906 133.07276916503906 83.34741973876953 129.79574584960938 86.71068572998047 97.9213638305664 C 115.70796966552734 91.07170867919922 134.39198303222656 95.26570892333984 126.29046630859375 123.0263442993164" stroke-width="0.0" fill="rgb(22, 127, 211)" opacity="1.0"/>
    <path d="M 178.54373168945312 79.10565185546875 C 199.098388671875 211.31182861328125 188.4901885986328 194.5579071044922 198.30612182617188 198.03858947753906 C 86.15992736816406 157.1935272216797 76.85790252685547 192.08773803710938 90.17950439453125 121.29487609863281 C 120.75556945800781 93.90895080566406 128.88180541992188 89.59918212890625 138.13357543945312 71.33211517333984 C 157.14328002929688 66.21055603027344 214.67857360839844 65.1832504272461 178.54373168945312 79.10565185546875" stroke-width="0.0" fill="rgb(15, 108, 210)" opacity="0.99986035"/>
    <path d="M 456.6919860839844 243.284912109375 C 438.0462341308594 195.2460174560547 462.503173828125 223.66017150878906 460.2918395996094 242.5712127685547 C 362.0893859863281 273.4366149902344 399.9959716796875 312.4046630859375 353.7291564941406 197.68594360351562 C 392.87738037109375 153.75265502929688 395.9345397949219 145.59716796875 414.33514404296875 144.861328125 C 458.3313293457031 139.2084503173828 451.09112548828125 132.55715942382812 456.6919860839844 243.284912109375" stroke-width="0.0" fill="rgb(0, 35, 175)" opacity="0.99833316"/>
    <path d="M 96.20924377441406 175.9521484375 C 81.15262603759766 185.73193359375 47.8841667175293 173.66847229003906 18.868343353271484 214.33865356445312 C -11.546868324279785 216.49459838867188 -21.840682983398438 214.1426544189453 -21.228485107421875 187.4117889404297 C 18.32485580444336 153.87266540527344 25.836732864379883 157.8795166015625 43.75453186035156 145.68995666503906 C 56.34619903564453 129.92491149902344 69.79307556152344 128.86270141601562 96.20924377441406 175.9521484375" stroke-width="0.0" fill="rgb(34, 109, 214)" opacity="0.95163697"/>
    <path d="M 135.280029296875 221.93479919433594 C 90.18289184570312 217.0037841796875 88.82170867919922 212.87496948242188 52.03964614868164 222.45077514648438 C 45.063751220703125 237.863037109375 21.39112663269043 224.22389221191406 4.090923309326172 176.89344787597656 C 37.0656623840332 155.34202575683594 45.46136474609375 146.24794006347656 92.0232162475586 139.03468322753906 C 140.20767211914062 132.13987731933594 138.9901123046875 114.49501037597656 135.280029296875 221.93479919433594" stroke-width="0.0" fill="rgb(10, 108, 226)" opacity="1.0"/>
    <path d="M 356.75469970703125 530.2947387695312 C 352.89239501953125 597.0576782226562 349.1458740234375 571.2824096679688 266.3974609375 578.5260620117188 C 209.90313720703125 576.544921875 203.1290740966797 593.3034057617188 172.3102569580078 472.8553161621094 C 162.30023193359375 419.4523010253906 170.86422729492188 444.6636657714844 316.2808532714844 430.516357421875 C 374.7363586425781 420.581787109375 355.6309509277344 439.64971923828125 356.75469970703125 530.2947387695312" stroke-width="0.0" fill="rgb(23, 138, 177)" opacity="1.0"/>
    <path d="M 542.64208984375 162.3236541748047 C 541.6890258789062 221.62059020996094 454.9893493652344 187.0338592529297 363.08837890625 233.87069702148438 C 321.5681457519531 184.5540313720703 317.5856628417969 172.2442169189453 336.89154052734375 126.57220458984375 C 340.4638671875 71.69062805175781 324.7335510253906 59.203155517578125 397.9012451171875 10.754545211791992 C 446.41876220703125 35.72930908203125 453.149169921875 54.59510040283203 542.64208984375 162.3236541748047" stroke-width="0.0" fill="rgb(31, 103, 202)" opacity="1.0"/>
    <path d="M 299.2783203125 140.8544158935547 C 304.42999267578125 184.00491333007812 305.2767639160156 163.55532836914062 281.8328552246094 141.6933135986328 C 229.36834716796875 111.09497833251953 212.62271118164062 106.63674926757812 183.7413787841797 98.56642150878906 C 158.9368896484375 52.019161224365234 166.0243682861328 58.01659393310547 246.7792510986328 43.24268341064453 C 299.5736083984375 47.38948059082031 285.88134765625 53.11281204223633 299.2783203125 140.8544158935547" stroke-width="0.0" fill="rgb(22, 101, 207)" opacity="1.0"/>
    <path d="M 76.11058807373047 252.3874969482422 C 88.73461151123047 285.6092224121094 82.0389175415039 293.7440185546875 70.13766479492188 291.5050354003906 C 48.30756378173828 415.7633056640625 0.6558800935745239 409.2165222167969 -74.20230102539062 359.550537109375 C -18.554946899414062 178.5094451904297 -13.191774368286133 170.1697540283203 52.002925872802734 173.29124450683594 C 68.63530731201172 220.74591064453125 74.87522888183594 236.30532836914062 76.11058807373047 252.3874969482422" stroke-width="0.0" fill="rgb(0, 99, 233)" opacity="1.0"/>
    <path d="M 365.55780029296875 160.06765747070312 C 374.4746398925781 188.9244384765625 415.76251220703125 261.94659423828125 330.2958679199219 346.574951171875 C 432.16558837890625 228.0384063720703 376.40008544921875 298.3664245605469 381.4005126953125 201.0746612548828 C 333.68505859375 133.00003051757812 355.5404968261719 136.7135009765625 340.18798828125 135.85928344726562 C 368.9333190917969 139.1571807861328 393.0455017089844 154.31114196777344 365.55780029296875 160.06765747070312" stroke-width="0.0" fill="rgb(5, 44, 152)" opacity="0.48921221"/>
    <path d="M 90.67283630371094 103.46147155761719 C 76.56648254394531 135.55775451660156 71.13602447509766 161.3684844970703 67.45845794677734 164.56771850585938 C 27.394678115844727 160.08555603027344 43.94980239868164 162.9049072265625 41.45995330810547 141.89427185058594 C 63.7058219909668 138.57945251464844 82.06891632080078 143.42507934570312 92.45499420166016 118.60543060302734 C 96.1338882446289 88.74887084960938 105.31792449951172 102.58698272705078 90.67283630371094 103.46147155761719" stroke-width="0.0" fill="rgb(24, 121, 212)" opacity="0.5556878"/>
    <path d="M 131.8152313232422 99.37907409667969 C 125.20378875732422 141.32913208007812 140.7881622314453 127.5160140991211 126.19184875488281 130.2342071533203 C 51.66046142578125 138.20150756835938 44.6016960144043 152.7666778564453 48.8350715637207 128.54295349121094 C 62.24456024169922 76.38076782226562 69.76350402832031 73.61460876464844 107.99748229980469 80.19635772705078 C 150.63015747070312 79.70484924316406 138.3582305908203 61.1074333190918 131.8152313232422 99.37907409667969" stroke-width="0.0" fill="rgb(30, 105, 198)" opacity="0.84760904"/>
    <path d="M 393.44171142578125 47.13783264160156 C 370.7383728027344 132.5077667236328 364.0694580078125 142.78500366210938 348.2843017578125 105.0600357055664 C 286.88702392578125 90.00984191894531 279.6177673339844 97.72667694091797 269.3640441894531 65.05396270751953 C 248.07205200195312 24.43398666381836 259.16455078125 24.901681900024414 324.3474426269531 25.458534240722656 C 389.6280822753906 14.054566383361816 406.45526123046875 3.6870760917663574 393.44171142578125 47.13783264160156" stroke-width="0.0" fill="rgb(28, 106, 197)" opacity="0.74053127"/>
    <path d="M 70.76099395751953 226.73001098632812 C 80.21849822998047 259.4537658691406 58.84409713745117 244.6519317626953 2.7309606075286865 269.3309631347656 C -27.682376861572266 264.6987609863281 -25.851701736450195 252.670654296875 -25.8526611328125 220.48805236816406 C -12.63705825805664 177.34396362304688 -2.2676327228546143 168.4430389404297 50.216896057128906 148.30853271484375 C 94.92526245117188 131.00961303710938 81.01127624511719 138.10804748535156 70.76099395751953 226.73001098632812" stroke-width="0.0" fill="rgb(8, 100, 217)" opacity="0.338738"/>
    <path d="M 538.412109375 344.34259033203125 C 617.420166015625 320.0687255859375 600.6788330078125 368.99945068359375 515.7669677734375 419.7508850097656 C 390.78692626953125 391.40887451171875 367.82110595703125 352.08685302734375 473.68597412109375 368.65234375 C 491.87969970703125 382.13067626953125 480.03668212890625 348.05615234375 571.9495239257812 231.64065551757812 C 564.3392333984375 262.9112243652344 548.3693237304688 353.5557556152344 538.412109375 344.34259033203125" stroke-width="0.0" fill="rgb(0, 0, 28)" opacity="1.0"/>
    <path d="M 406.3694152832031 171.66978454589844 C 412.3919372558594 218.32046508789062 434.31182861328125 219.14422607421875 362.1723937988281 216.92747497558594 C 321.4506530761719 206.01756286621094 316.0879821777344 181.4713134765625 290.37420654296875 164.3762664794922 C 288.4323425292969 91.63484954833984 297.23138427734375 103.7618408203125 382.4302978515625 108.79338073730469 C 399.3000183105469 113.96575927734375 394.9704284667969 121.76087951660156 406.3694152832031 171.66978454589844" stroke-width="0.0" fill="rgb(21, 101, 218)" opacity="0.9995416"/>
    <path d="M 413.380126953125 198.99197387695312 C 426.6976623535156 225.00848388671875 400.5747375488281 217.6343994140625 369.49212646484375 246.79612731933594 C 359.229248046875 235.63970947265625 343.8951416015625 221.4550018310547 327.4639587402344 202.47471618652344 C 351.7518615722656 171.72642517089844 349.88397216796875 165.418701171875 394.3633728027344 161.06874084472656 C 410.08563232421875 161.59353637695312 407.85931396484375 164.7530975341797 413.380126953125 198.99197387695312" stroke-width="0.0" fill="rgb(22, 101, 220)" opacity="0.9327142"/>
    <path d="M 545.9232177734375 361.29290771484375 C 490.9132385253906 408.14056396484375 486.0288391113281 421.4145812988281 480.23260498046875 409.30255126953125 C 499.29669189453125 406.7076416015625 428.0283203125 452.7454833984375 251.91807556152344 350.65045166015625 C 469.4911193847656 352.9462890625 407.0594787597656 284.98992919921875 466.303466796875 364.8177795410156 C 561.3748168945312 374.0167541503906 549.0408935546875 360.3482666015625 545.9232177734375 361.29290771484375" stroke-width="0.0" fill="rgb(0, 0, 16)" opacity="1.0"/>
    <path d="M 217.03436279296875 326.9771423339844 C 207.97579956054688 402.34619140625 173.0667266845703 374.1172180175781 209.14041137695312 371.7322998046875 C 143.68112182617188 355.7082824707031 122.26200866699219 372.1131591796875 49.42863845825195 353.23626708984375 C 110.17725372314453 296.4048156738281 132.0142364501953 274.8127746582031 190.5009765625 318.1518249511719 C 140.89404296875 324.6736755371094 142.8168182373047 328.23431396484375 217.03436279296875 326.9771423339844" stroke-width="0.0" fill="rgb(232, 73, 47)" opacity="0.9997463"/>
    <path d="M 364.44561767578125 339.8681640625 C 447.1792907714844 311.32574462890625 433.11895751953125 324.3924865722656 426.332275390625 379.7817077636719 C 240.6626434326172 374.1270446777344 267.1921081542969 391.335205078125 197.2974090576172 288.6671142578125 C 256.60638427734375 254.5362548828125 282.4298095703125 268.4902038574219 319.3095397949219 249.2592010498047 C 284.463134765625 326.66326904296875 294.0298156738281 306.2157287597656 364.44561767578125 339.8681640625" stroke-width="0.0" fill="rgb(0, 0, 29)" opacity="0.8839783"/>
    <path d="M 229.05953979492188 217.50689697265625 C 310.80987548828125 388.89892578125 269.98590087890625 412.02301025390625 245.22613525390625 376.7770690917969 C 199.39723205566406 336.113037109375 186.82765197753906 326.5212707519531 192.55780029296875 308.5397033691406 C 199.5507049560547 330.88690185546875 232.6571807861328 351.0605773925781 135.57212829589844 167.84246826171875 C 131.1136474609375 157.15243530273438 242.27642822265625 199.94937133789062 229.05953979492188 217.50689697265625" stroke-width="0.0" fill="rgb(255, 255, 225)" opacity="1.0"/>
    <path d="M 191.40359497070312 332.123779296875 C 210.36045837402344 360.702880859375 237.34483337402344 330.1943359375 140.82879638671875 303.57037353515625 C 76.77088928222656 312.65570068359375 83.1362075805664 446.69854736328125 42.84218215942383 308.6478271484375 C 139.70480346679688 287.3534240722656 -8.412714958190918 302.10784912109375 139.20831298828125 278.6294860839844 C 199.8016357421875 235.56446838378906 174.43780517578125 259.70050048828125 191.40359497070312 332.123779296875" stroke-width="0.0" fill="rgb(0, 0, 7)" opacity="1.0"/>
    <path d="M 593.0260009765625 362.6422424316406 C 609.430908203125 422.6686706542969 578.8641357421875 418.0922546386719 522.5578002929688 419.532958984375 C 489.7175598144531 423.8018798828125 483.1126708984375 406.252197265625 583.1389770507812 392.4438781738281 C 512.0410766601562 365.3594970703125 474.0743713378906 282.478515625 556.607666015625 335.9115295410156 C 593.6143188476562 356.2630615234375 521.1554565429688 352.2946472167969 593.0260009765625 362.6422424316406" stroke-width="0.0" fill="rgb(23, 0, 22)" opacity="0.9404743"/>
    <path d="M 322.02130126953125 425.9930419921875 C 253.90032958984375 446.40289306640625 228.35418701171875 436.70806884765625 151.31602478027344 435.433837890625 C 47.551963806152344 433.6470947265625 -25.221532821655273 434.0943603515625 -24.953933715820312 440.2735595703125 C 84.141357421875 329.7487487792969 110.8863525390625 375.3523254394531 134.50424194335938 363.322509765625 C 179.01515197753906 369.61724853515625 221.15870666503906 340.6655578613281 322.02130126953125 425.9930419921875" stroke-width="0.0" fill="rgb(226, 153, 88)" opacity="0.92877513"/>
    <path d="M 677.8527221679688 435.9004821777344 C 576.3253784179688 443.6502380371094 511.1282043457031 436.0174865722656 472.99957275390625 439.0111083984375 C 490.17578125 439.4656982421875 426.5185546875 441.3383483886719 220.27854919433594 435.7417907714844 C 326.6976318359375 310.4039611816406 475.2972717285156 400.0304260253906 462.7668762207031 401.2768249511719 C 506.223876953125 412.7195129394531 634.9717407226562 380.2078857421875 677.8527221679688 435.9004821777344" stroke-width="0.0" fill="rgb(217, 142, 86)" opacity="1.0"/>
    <path d="M 383.6768798828125 275.7232360839844 C 348.6721496582031 313.7477111816406 345.26226806640625 331.8912353515625 290.9745178222656 386.82989501953125 C 280.2078552246094 343.57086181640625 278.1051025390625 304.5525817871094 262.95892333984375 260.47821044921875 C 259.90740966796875 198.68162536621094 215.82569885253906 173.5292510986328 285.2065734863281 145.39674377441406 C 354.8263854980469 200.2698516845703 375.7933044433594 250.25662231445312 383.6768798828125 275.7232360839844" stroke-width="0.0" fill="rgb(255, 255, 221)" opacity="1.0"/>
    <path d="M 199.0559539794922 322.1697082519531 C 157.9199981689453 324.7063903808594 140.38426208496094 251.21481323242188 134.1240692138672 318.90057373046875 C 109.45956420898438 279.4794921875 112.60004425048828 267.9466247558594 63.36467742919922 208.70201110839844 C 56.312530517578125 198.14744567871094 109.58180236816406 204.51849365234375 148.94638061523438 221.97119140625 C 149.12469482421875 241.63868713378906 139.39561462402344 176.85227966308594 199.0559539794922 322.1697082519531" stroke-width="0.0" fill="rgb(255, 255, 219)" opacity="1.0"/>
    <path d="M 58.47813034057617 212.0067596435547 C 12.043456077575684 211.9572296142578 5.8119988441467285 221.9215087890625 -37.273414611816406 237.7171173095703 C -20.83382797241211 261.1528625488281 -23.496923446655273 247.7373504638672 -15.585843086242676 209.1683349609375 C -20.051298141479492 176.34779357910156 -22.23938751220703 161.0084228515625 35.32254409790039 157.6029510498047 C 49.93136978149414 165.52735900878906 44.56260299682617 194.3759307861328 58.47813034057617 212.0067596435547" stroke-width="0.0" fill="rgb(7, 99, 223)" opacity="0.75003505"/>
    <path d="M 336.44549560546875 421.1362609863281 C 303.2016296386719 381.1637268066406 329.1920471191406 403.01934814453125 276.0172119140625 378.70001220703125 C 231.1869659423828 390.3941650390625 202.6714630126953 400.2313232421875 133.25730895996094 386.68597412109375 C 219.14370727539062 347.6776428222656 222.32122802734375 330.65924072265625 231.51634216308594 308.0144958496094 C 280.47027587890625 404.420166015625 307.8820495605469 392.80712890625 336.44549560546875 421.1362609863281" stroke-width="0.0" fill="rgb(73, 66, 23)" opacity="0.74649733"/>
    <path d="M 227.04502868652344 354.6898498535156 C 207.33914184570312 414.12286376953125 192.65399169921875 397.4424133300781 126.62187957763672 393.4278259277344 C 63.653202056884766 397.974853515625 -5.727055549621582 439.40264892578125 23.888004302978516 403.62603759765625 C 51.755470275878906 339.9671630859375 56.8976936340332 372.4039306640625 151.27023315429688 380.2596130371094 C 190.27638244628906 372.39532470703125 223.24757385253906 346.38043212890625 227.04502868652344 354.6898498535156" stroke-width="0.0" fill="rgb(65, 6, 77)" opacity="0.32571855"/>
    <path d="M 4.234216213226318 -7.587679386138916 C 13.265863418579102 17.982799530029297 8.882902145385742 25.120582580566406 -2.5566389560699463 13.485274314880371 C -9.661914825439453 17.908815383911133 -16.982421875 10.588308334350586 -19.661914825439453 0.5883086919784546 C -16.982421875 -9.411691665649414 -9.661914825439453 -16.73219871520996 0.4027557671070099 -19.4301815032959 C 14.77869987487793 -19.129398345947266 25.548330307006836 -17.04105567932129 4.234216213226318 -7.587679386138916" stroke-width="0.0" fill="rgb(168, 147, 244)" opacity="0.610374"/>
    <path d="M 107.82999420166016 391.5487060546875 C 109.62042999267578 442.0484313964844 107.90142059326172 447.75140380859375 88.03738403320312 430.9522399902344 C 30.112525939941406 439.50274658203125 -20.09222412109375 457.5821228027344 -46.08776092529297 397.3268737792969 C 71.39427185058594 397.6743469238281 134.2565460205078 399.1641845703125 152.36131286621094 393.498779296875 C 99.88861083984375 358.46417236328125 113.81123352050781 383.0748291015625 107.82999420166016 391.5487060546875" stroke-width="0.0" fill="rgb(247, 165, 74)" opacity="0.9848577"/>
    <path d="M 12.165955543518066 -6.624608039855957 C 10.4896821975708 -0.8151550889015198 -6.553928852081299 -0.30779963731765747 -7.955172061920166 17.338518142700195 C -12.019781112670898 20.291475296020508 -17.963672637939453 11.17838191986084 -19.717044830322266 0.08903668820858002 C -17.01299285888672 -9.9420747756958 -9.692485809326172 -17.262582778930664 4.290517330169678 -24.41715431213379 C 3.1148908138275146 -11.209005355834961 8.196477890014648 -1.6535913944244385 12.165955543518066 -6.624608039855957" stroke-width="0.0" fill="rgb(45, 175, 218)" opacity="0.8399051"/>
    <path d="M 20.859636306762695 0.07085735350847244 C 18.180143356323242 10.070857048034668 10.859635353088379 17.39136505126953 0.8596354126930237 20.070858001708984 C -9.140364646911621 17.39136505126953 -16.46087074279785 10.070857048034668 -19.140363693237305 0.07085735350847244 C -16.46087074279785 -9.929142951965332 -9.140364646911621 -17.249649047851562 0.8596354126930237 -19.929141998291016 C 10.859635353088379 -17.249649047851562 18.180143356323242 -9.929142951965332 20.859636306762695 0.07085735350847244" stroke-width="0.0" fill="rgb(79, 155, 182)" opacity="0.82406473"/>
    <path d="M 99.39513397216797 378.44232177734375 C 127.45237731933594 398.6513671875 108.83042907714844 399.2056884765625 107.15518188476562 390.6500244140625 C 82.57306671142578 401.2611083984375 48.51576232910156 395.18280029296875 104.20452880859375 398.9624328613281 C 40.140010833740234 387.7744140625 76.87997436523438 358.4364013671875 208.81521606445312 395.8100891113281 C 14.771122932434082 407.7977294921875 10.090067863464355 397.8744201660156 99.39513397216797 378.44232177734375" stroke-width="0.0" fill="rgb(187, 69, 110)" opacity="0.636156"/>
    <path d="M 461.8094787597656 381.73077392578125 C 245.2896728515625 431.7534484863281 354.64202880859375 442.7347412109375 298.92596435546875 401.7481994628906 C 133.3003692626953 396.3575134277344 116.7234115600586 416.5442199707031 30.573389053344727 364.9718933105469 C 178.0573272705078 322.67425537109375 213.57298278808594 335.0747375488281 257.7503662109375 347.7747802734375 C 270.50927734375 365.5737609863281 311.90679931640625 364.8591003417969 461.8094787597656 381.73077392578125" stroke-width="0.0" fill="rgb(167, 102, 39)" opacity="0.9863286"/>
    <path d="M 558.4733276367188 371.4773864746094 C 538.6171875 374.08050537109375 526.7813720703125 369.7991638183594 550.733154296875 389.9013671875 C 577.0275268554688 364.64971923828125 606.8892822265625 364.4915771484375 495.26153564453125 364.08270263671875 C 507.230712890625 349.3828430175781 552.907958984375 354.806640625 581.6436157226562 342.14898681640625 C 548.9844360351562 366.80731201171875 557.8355102539062 345.9276123046875 558.4733276367188 371.4773864746094" stroke-width="0.0" fill="rgb(78, 0, 55)" opacity="0.5299105"/>
    <path d="M 653.350341796875 397.2131042480469 C 584.7556762695312 399.2798767089844 513.0259399414062 393.0572204589844 504.8538513183594 400.9423522949219 C 503.367431640625 387.42535400390625 473.16021728515625 390.97479248046875 444.75408935546875 390.2781066894531 C 453.1686096191406 361.0561828613281 468.3902282714844 367.73724365234375 550.6611938476562 369.3462829589844 C 612.0452270507812 374.69927978515625 595.7803344726562 345.88525390625 653.350341796875 397.2131042480469" stroke-width="0.0" fill="rgb(175, 107, 49)" opacity="0.9991715"/>
    <path d="M 92.11597442626953 282.0303955078125 C 100.10475158691406 283.1481628417969 99.24922943115234 278.81536865234375 90.02796173095703 272.3087158203125 C 91.93645477294922 293.1108093261719 77.07109069824219 302.39990234375 57.534542083740234 298.4957580566406 C 83.98896026611328 275.6802978515625 115.7291030883789 272.9057922363281 94.3244857788086 275.0787048339844 C 94.82284545898438 269.93524169921875 92.50416564941406 271.1237487792969 92.11597442626953 282.0303955078125" stroke-width="0.0" fill="rgb(185, 204, 132)" opacity="0.5440695"/>
    <path d="M 418.8631286621094 385.21881103515625 C 422.951904296875 389.5389404296875 442.0257568359375 407.0403747558594 404.49395751953125 394.30035400390625 C 291.2372131347656 397.7706298828125 298.3143615722656 385.9725646972656 292.89959716796875 385.7804260253906 C 433.4844665527344 372.1778564453125 435.19873046875 381.39837646484375 420.5405578613281 378.4383239746094 C 415.14385986328125 356.439208984375 420.1474914550781 372.1453857421875 418.8631286621094 385.21881103515625" stroke-width="0.0" fill="rgb(80, 41, 73)" opacity="0.3714562"/>
    <path d="M 12.075063705444336 -3.8597559928894043 C 15.638330459594727 13.079424858093262 11.681949615478516 19.616878509521484 -2.1282060146331787 19.68990135192871 C -15.093079566955566 23.589847564697266 -22.355173110961914 16.835731506347656 -20.32686996459961 1.6148712635040283 C -17.09039306640625 -9.77978229522705 -9.769885063171387 -17.100290298461914 0.23187661170959473 -19.78026008605957 C 11.195550918579102 -17.404460906982422 25.088930130004883 -16.449037551879883 12.075063705444336 -3.8597559928894043" stroke-width="0.0" fill="rgb(0, 127, 217)" opacity="0.8609959"/>
    <path d="M 497.4388122558594 402.6440124511719 C 499.78570556640625 400.1860046386719 462.94970703125 406.1256408691406 392.4765625 401.7175598144531 C 358.0474548339844 382.52777099609375 301.6929931640625 385.13970947265625 295.09149169921875 391.2155456542969 C 461.89398193359375 405.2478942871094 456.6616516113281 385.3245544433594 436.4937744140625 369.02899169921875 C 467.22747802734375 361.8638916015625 444.58148193359375 404.3271179199219 497.4388122558594 402.6440124511719" stroke-width="0.0" fill="rgb(71, 59, 60)" opacity="0.6543697"/>
    <path d="M 509.3979797363281 369.4000244140625 C 501.94891357421875 386.01123046875 503.9825744628906 368.8382568359375 513.5367431640625 374.30511474609375 C 477.4598693847656 385.3369445800781 480.8521423339844 384.13116455078125 334.7073059082031 383.0476989746094 C 433.3098449707031 361.5660400390625 450.1350402832031 388.161865234375 377.8212890625 370.08319091796875 C 502.1400146484375 364.48248291015625 511.3644104003906 373.8511962890625 509.3979797363281 369.4000244140625" stroke-width="0.0" fill="rgb(196, 96, 28)" opacity="0.97086656"/>
    <path d="M 578.8889770507812 234.34786987304688 C 511.0704650878906 225.05633544921875 475.6484680175781 242.72593688964844 498.1616516113281 223.87501525878906 C 507.9277648925781 235.79132080078125 475.82830810546875 235.97369384765625 458.7518615722656 242.24212646484375 C 447.91668701171875 183.80543518066406 460.0315246582031 189.9447021484375 456.1418762207031 183.99771118164062 C 520.7234497070312 161.95556640625 563.7944946289062 154.47998046875 578.8889770507812 234.34786987304688" stroke-width="0.0" fill="rgb(27, 102, 215)" opacity="1.0"/>
    <path d="M 47.03279113769531 373.0361022949219 C 135.25184631347656 389.9983215332031 138.35023498535156 404.1365661621094 25.698684692382812 393.6988220214844 C 72.55335998535156 373.7338562011719 91.06684112548828 385.83514404296875 14.15068244934082 380.3101501464844 C 115.26072692871094 373.54644775390625 118.27753448486328 386.77105712890625 102.93054962158203 396.77105712890625 C 47.178749084472656 387.1109619140625 50.38111877441406 385.2508239746094 47.03279113769531 373.0361022949219" stroke-width="0.0" fill="rgb(162, 59, 60)" opacity="0.30622593"/>
    <path d="M 430.717041015625 404.1536560058594 C 423.70611572265625 402.8838806152344 427.1993103027344 384.8101501464844 472.9501647949219 406.1688232421875 C 451.3693542480469 394.68292236328125 426.6622619628906 388.2911071777344 252.07022094726562 381.9532775878906 C 302.4760437011719 350.4619445800781 385.6667175292969 389.853515625 466.1893005371094 369.3559265136719 C 401.9010314941406 380.7353820800781 421.72760009765625 381.20965576171875 430.717041015625 404.1536560058594" stroke-width="0.0" fill="rgb(173, 124, 36)" opacity="0.96370476"/>
    <path d="M 230.09376525878906 357.7851867675781 C 161.3248748779297 330.3055419921875 137.12144470214844 334.55572509765625 138.53477478027344 339.96630859375 C 163.0809326171875 353.8171691894531 138.4962615966797 348.1300354003906 50.09360885620117 362.8976135253906 C 138.5345916748047 368.9050598144531 168.34268188476562 377.42498779296875 166.37754821777344 350.28851318359375 C 127.64323425292969 348.4170227050781 139.0850372314453 362.7944030761719 230.09376525878906 357.7851867675781" stroke-width="0.0" fill="rgb(161, 134, 19)" opacity="0.20667931"/>
    <path d="M 242.20083618164062 347.4602966308594 C 262.39788818359375 322.0323486328125 235.33091735839844 323.2198791503906 233.66610717773438 306.81591796875 C 224.60284423828125 302.65313720703125 225.3531951904297 312.76934814453125 209.47213745117188 355.6566162109375 C 227.9644317626953 325.5426330566406 224.9104766845703 284.9967956542969 233.64207458496094 189.509521484375 C 222.33203125 236.5731201171875 212.28909301757812 302.7221374511719 242.20083618164062 347.4602966308594" stroke-width="0.0" fill="rgb(0, 0, 4)" opacity="0.7343957"/>
    <path d="M 283.19720458984375 362.72564697265625 C 292.0296936035156 379.7014465332031 293.3087463378906 362.5107727050781 230.87498474121094 353.4639892578125 C 207.3824005126953 359.1722412109375 219.7340850830078 358.96405029296875 262.4414978027344 350.81597900390625 C 241.3654022216797 317.4271545410156 260.1318359375 330.249267578125 253.51559448242188 325.4176025390625 C 225.1471710205078 344.872802734375 232.8702392578125 356.13494873046875 283.19720458984375 362.72564697265625" stroke-width="0.0" fill="rgb(170, 142, 29)" opacity="0.5967994"/>
    <path d="M 7.960823059082031 -11.432857513427734 C 5.412899017333984 -1.5395588874816895 -2.0576751232147217 6.307620048522949 -10.757851600646973 11.389692306518555 C -1.3929163217544556 10.460786819458008 -10.994269371032715 4.206995010375977 -18.962488174438477 0.42818933725357056 C -16.44249725341797 -9.053050994873047 -9.121990203857422 -16.373558044433594 0.8307257294654846 -19.039100646972656 C 8.117667198181152 -15.154083251953125 11.373674392700195 -3.3326563835144043 7.960823059082031 -11.432857513427734" stroke-width="0.0" fill="rgb(106, 137, 201)" opacity="0.6306412"/>
    <path d="M 242.13558959960938 343.8806457519531 C 254.7915496826172 320.2032470703125 238.88632202148438 317.1904602050781 228.7727813720703 331.1149597167969 C 232.26429748535156 332.97564697265625 216.41603088378906 310.3186340332031 205.179931640625 303.78900146484375 C 215.2307891845703 265.0373229980469 186.64488220214844 261.8858337402344 222.67495727539062 278.2172546386719 C 250.48072814941406 296.075439453125 253.6068115234375 303.87640380859375 242.13558959960938 343.8806457519531" stroke-width="0.0" fill="rgb(252, 251, 218)" opacity="1.0"/>
    <path d="M 12.698834419250488 -5.448225498199463 C 14.840551376342773 10.019997596740723 10.438526153564453 16.541357040405273 -2.01515531539917 14.489121437072754 C -12.93875789642334 19.532224655151367 -17.162792205810547 10.888498306274414 -19.470556259155273 0.7247987389564514 C -16.781211853027344 -9.270069122314453 -9.46070384979248 -16.590576171875 -1.3218499422073364 -18.925607681274414 C 5.954204559326172 -12.705419540405273 14.475217819213867 -6.135546684265137 12.698834419250488 -5.448225498199463" stroke-width="0.0" fill="rgb(73, 130, 178)" opacity="0.7292988"/>
    <path d="M 85.69654846191406 355.4267272949219 C 73.31817626953125 409.8098449707031 105.43840026855469 403.1383972167969 33.08681869506836 403.6125183105469 C 41.10095977783203 368.4765319824219 31.034337997436523 353.7267150878906 61.50642013549805 361.6957092285156 C 36.81835174560547 412.9884033203125 38.4384651184082 363.6651611328125 35.48589324951172 337.2121887207031 C 153.13600158691406 324.0082092285156 151.1768341064453 361.59869384765625 85.69654846191406 355.4267272949219" stroke-width="0.0" fill="rgb(221, 99, 21)" opacity="1.0"/>
    <path d="M 12.945167541503906 -6.233108043670654 C 14.257225036621094 7.40611457824707 8.395293235778809 12.450173377990723 -6.6135969161987305 11.84168815612793 C -9.878995895385742 17.545204162597656 -17.19950294494629 10.22469711303711 -19.878995895385742 0.22469733655452728 C -17.19950294494629 -9.77530288696289 -9.878995895385742 -17.095809936523438 0.12100419402122498 -19.77530288696289 C 10.121004104614258 -17.095809936523438 17.441511154174805 -9.77530288696289 12.945167541503906 -6.233108043670654" stroke-width="0.0" fill="rgb(82, 159, 142)" opacity="0.8096955"/>
    <path d="M 243.4929962158203 332.8714294433594 C 263.7908935546875 348.0307312011719 244.32876586914062 322.5733947753906 228.15277099609375 333.2083740234375 C 224.34133911132812 339.7114562988281 212.37326049804688 354.0711669921875 218.89691162109375 333.8891296386719 C 235.62713623046875 268.8344421386719 228.19601440429688 238.9502410888672 223.40167236328125 297.6498718261719 C 215.21800231933594 309.46661376953125 238.69834899902344 322.7146301269531 243.4929962158203 332.8714294433594" stroke-width="0.0" fill="rgb(60, 35, 8)" opacity="0.2680596"/>
    <path d="M 11.738127708435059 -5.896273136138916 C 7.958087921142578 -0.8046466112136841 0.4498790502548218 12.012328147888184 -11.902290344238281 25.756290435791016 C -18.896408081054688 25.895299911499023 -25.971120834350586 18.735260009765625 -22.68186378479004 3.0753402709960938 C -17.234853744506836 -9.514009475708008 -9.914346694946289 -16.834516525268555 6.721796035766602 -24.997255325317383 C 16.44188690185547 -23.053014755249023 16.964994430541992 -12.60023307800293 11.738127708435059 -5.896273136138916" stroke-width="0.0" fill="rgb(158, 129, 180)" opacity="0.5871215"/>
    <path d="M 21.35961151123047 -12.008138656616211 C 5.332827568054199 -3.3851048946380615 -3.667118787765503 3.7405588626861572 -12.993234634399414 9.248597145080566 C 3.4441256523132324 4.694935321807861 -10.198789596557617 3.7246406078338623 -18.814760208129883 0.1235864982008934 C -16.541879653930664 -9.469646453857422 -9.221373558044434 -16.79015350341797 -5.878732681274414 -13.828944206237793 C 4.237799644470215 -11.93381118774414 17.669851303100586 -11.385805130004883 21.35961151123047 -12.008138656616211" stroke-width="0.0" fill="rgb(212, 24, 217)" opacity="0.8332328"/>
    <path d="M 12.276272773742676 -6.117067337036133 C 7.257338047027588 2.200254440307617 2.476698160171509 7.705438613891602 -9.041906356811523 14.053911209106445 C -15.329435348510742 9.523780822753906 -19.753055572509766 4.249380588531494 -19.502225875854492 -1.1771880388259888 C -16.638795852661133 -9.463029861450195 -9.318289756774902 -16.783536911010742 -0.4748990833759308 -20.743759155273438 C 3.5774035453796387 -12.736145973205566 7.351577281951904 1.0737111568450928 12.276272773742676 -6.117067337036133" stroke-width="0.0" fill="rgb(137, 100, 157)" opacity="0.48257515"/>
    <path d="M 20.238004684448242 0.6689777970314026 C 17.55851173400879 10.668977737426758 10.238004684448242 17.989484786987305 0.2380046397447586 20.668977737426758 C -9.761995315551758 17.989484786987305 -17.082502365112305 10.668977737426758 -19.761995315551758 0.6689777970314026 C -17.082502365112305 -9.331022262573242 -9.761995315551758 -16.65152931213379 0.2380046397447586 -19.331022262573242 C 10.238004684448242 -16.65152931213379 17.55851173400879 -9.331022262573242 20.238004684448242 0.6689777970314026" stroke-width="0.0" fill="rgb(31, 46, 173)" opacity="0.857549"/>
    <path d="M 433.2747802734375 330.12054443359375 C 454.7013244628906 349.9267272949219 379.66595458984375 333.79388427734375 440.7316589355469 338.3169860839844 C 432.1107482910156 349.9525146484375 410.3775329589844 350.1290283203125 337.4319763183594 343.6049499511719 C 374.6934814453125 314.0014953613281 329.029052734375 323.9929504394531 361.8344421386719 324.4832458496094 C 404.7012939453125 319.47161865234375 441.2655334472656 350.6236267089844 433.2747802734375 330.12054443359375" stroke-width="0.0" fill="rgb(46, 40, 230)" opacity="0.08402677"/>
    <path d="M 273.7615661621094 350.6524963378906 C 255.07028198242188 357.9552001953125 247.8329315185547 370.8553466796875 210.32162475585938 357.77569580078125 C 201.0308074951172 375.1866149902344 221.5233154296875 355.8829040527344 86.87098693847656 362.5014343261719 C 129.40956115722656 262.9398498535156 189.81454467773438 313.12908935546875 218.48062133789062 338.505859375 C 225.57374572753906 344.96710205078125 240.68392944335938 336.3072814941406 273.7615661621094 350.6524963378906" stroke-width="0.0" fill="rgb(205, 112, 11)" opacity="0.9118423"/>
    <path d="M 306.4757080078125 403.898681640625 C 518.645751953125 406.7118225097656 490.90997314453125 393.8125915527344 420.800048828125 393.9153137207031 C 280.2801208496094 402.2613525390625 309.9855651855469 392.03802490234375 310.837158203125 397.9206848144531 C 307.2044372558594 380.8938293457031 305.3015441894531 373.2052001953125 304.97967529296875 362.382080078125 C 305.10162353515625 377.06060791015625 305.3803405761719 359.1817321777344 306.4757080078125 403.898681640625" stroke-width="0.0" fill="rgb(36, 0, 112)" opacity="0.8490884"/>
    <path d="M 413.78924560546875 299.916015625 C 430.8810729980469 315.04156494140625 466.9010925292969 349.49627685546875 416.6540222167969 318.2740478515625 C 390.9866638183594 308.701171875 380.9027099609375 309.7503356933594 386.8120422363281 273.87030029296875 C 379.2265625 265.9500732421875 389.9090881347656 264.42254638671875 380.3110656738281 273.6300354003906 C 395.0012512207031 281.48590087890625 410.28814697265625 290.3302917480469 413.78924560546875 299.916015625" stroke-width="0.0" fill="rgb(58, 24, 53)" opacity="0.7465386"/>
    <path d="M 11.381382942199707 -8.253379821777344 C 6.414530277252197 -0.8292905688285828 -5.881504535675049 1.1013363599777222 -18.749622344970703 2.0479910373687744 C -6.949453830718994 13.04409408569336 -17.248334884643555 10.749545097351074 -19.930788040161133 0.7606006264686584 C -17.25129508972168 -9.239398002624512 -9.930787086486816 -16.559904098510742 0.18971528112888336 -19.25076675415039 C 15.325182914733887 -17.805986404418945 25.831687927246094 -18.53694725036621 11.381382942199707 -8.253379821777344" stroke-width="0.0" fill="rgb(70, 133, 19)" opacity="0.9166887"/>
    <path d="M 274.1363220214844 367.01593017578125 C 258.8708801269531 313.21417236328125 264.70404052734375 326.20269775390625 230.79214477539062 320.177978515625 C 245.47984313964844 317.9857482910156 227.917236328125 316.3321533203125 220.548828125 312.0830078125 C 221.9802703857422 347.5647277832031 251.5867156982422 316.0313720703125 224.83258056640625 315.05712890625 C 208.63218688964844 348.5814208984375 219.84117126464844 337.4830017089844 274.1363220214844 367.01593017578125" stroke-width="0.0" fill="rgb(0, 0, 23)" opacity="1.0"/>
    <path d="M 9.693522453308105 -9.215140342712402 C 9.726797103881836 4.571720600128174 5.0151519775390625 14.885788917541504 -3.311401844024658 15.887527465820312 C -9.798808097839355 17.632070541381836 -17.119356155395508 10.311716079711914 -19.79884910583496 0.3117162883281708 C -17.119356155395508 -9.688283920288086 -9.798849105834961 -17.008790969848633 0.2011510580778122 -19.688283920288086 C 10.201162338256836 -17.008790969848633 17.523395538330078 -9.688766479492188 9.693522453308105 -9.215140342712402" stroke-width="0.0" fill="rgb(58, 76, 61)" opacity="0.86214334"/>
    <path d="M 3.2645375728607178 -19.430225372314453 C 0.5789029598236084 -2.0417098999023438 -3.1506083011627197 6.922704696655273 -18.9518985748291 11.041366577148438 C -17.910120010375977 26.312681198120117 -20.184024810791016 15.896574020385742 -19.74907684326172 0.6981455087661743 C -17.053682327270508 -9.359038352966309 -9.733175277709961 -16.67954444885254 4.027881622314453 -21.857023239135742 C 17.158720016479492 -23.41332244873047 24.913606643676758 -16.588634490966797 3.2645375728607178 -19.430225372314453" stroke-width="0.0" fill="rgb(75, 154, 249)" opacity="0.7844903"/>
    <path d="M 513.4940185546875 390.3580322265625 C 480.054443359375 397.8904724121094 451.76544189453125 395.8570556640625 452.72930908203125 384.2606506347656 C 475.0685729980469 393.0479431152344 451.9545593261719 400.48712158203125 432.371337890625 390.4190673828125 C 431.1883850097656 354.8258972167969 465.7183532714844 390.7327575683594 464.89404296875 362.049560546875 C 482.3498229980469 358.8699035644531 505.08465576171875 359.7738037109375 513.4940185546875 390.3580322265625" stroke-width="0.0" fill="rgb(180, 117, 9)" opacity="0.9568493"/>
    <path d="M 20.214237213134766 0.1323118507862091 C 17.534744262695312 10.132311820983887 10.214237213134766 17.45281982421875 0.2142368108034134 20.132312774658203 C -9.785762786865234 17.45281982421875 -17.10626983642578 10.132311820983887 -19.785762786865234 0.1323118507862091 C -17.10626983642578 -9.867688179016113 -9.785762786865234 -17.188194274902344 0.2142368108034134 -19.867687225341797 C 10.214237213134766 -17.188194274902344 17.534744262695312 -9.867688179016113 20.214237213134766 0.1323118507862091" stroke-width="0.0" fill="rgb(180, 27, 144)" opacity="0.9888781"/>
    <path d="M 422.7620849609375 387.3191223144531 C 439.74755859375 392.3888854980469 454.6104431152344 395.0772705078125 400.7719421386719 388.3673400878906 C 428.6728515625 372.23712158203125 425.1337585449219 384.6285400390625 441.6830749511719 389.9663391113281 C 423.1225280761719 369.9490966796875 434.0903625488281 381.4295959472656 412.7574768066406 357.6856994628906 C 443.78857421875 361.37945556640625 416.7131042480469 402.2550048828125 422.7620849609375 387.3191223144531" stroke-width="0.0" fill="rgb(116, 63, 1)" opacity="0.21762353"/>
    <path d="M 34.60488510131836 386.5400085449219 C 48.65498733520508 375.3905334472656 35.37057876586914 404.9161376953125 37.229759216308594 405.5513610839844 C 29.20330238342285 393.51544189453125 23.127607345581055 374.9802551269531 42.65469741821289 398.8752746582031 C 8.04904556274414 405.7609558105469 18.12899398803711 404.6848449707031 11.570342063903809 385.0422058105469 C 5.7179274559021 384.5667419433594 42.850833892822266 383.47198486328125 34.60488510131836 386.5400085449219" stroke-width="0.0" fill="rgb(23, 2, 114)" opacity="0.67335826"/>
    <path d="M 79.8254623413086 333.859130859375 C 99.85193634033203 358.39923095703125 109.30062866210938 382.9766540527344 107.74032592773438 362.77154541015625 C 102.07000732421875 336.445556640625 92.94105529785156 339.0098876953125 91.04361724853516 360.59521484375 C 100.7120590209961 360.8528747558594 98.02159881591797 330.2008361816406 99.82554626464844 335.2315368652344 C 93.20417022705078 338.9299011230469 109.07615661621094 344.78558349609375 79.8254623413086 333.859130859375" stroke-width="0.0" fill="rgb(187, 96, 87)" opacity="0.2933754"/>
    <path d="M 419.00750732421875 382.34613037109375 C 420.7025451660156 383.0752258300781 413.5901794433594 373.0445556640625 427.6935119628906 393.3865051269531 C 421.17926025390625 407.80731201171875 403.4162902832031 394.6296691894531 394.5796813964844 371.5106201171875 C 408.9308776855469 382.5954284667969 393.443359375 396.9631042480469 423.0444641113281 404.4619445800781 C 430.4222106933594 382.1999816894531 445.8276672363281 397.15069580078125 419.00750732421875 382.34613037109375" stroke-width="0.0" fill="rgb(73, 34, 70)" opacity="0.25831088"/>
    <path d="M 130.8235626220703 394.13494873046875 C 143.35580444335938 392.2718200683594 147.74356079101562 375.06671142578125 147.6017303466797 391.3982849121094 C 112.20332336425781 396.4855651855469 111.90780639648438 393.09466552734375 98.69409942626953 403.9673156738281 C 100.25653839111328 368.3193359375 74.93356323242188 381.0774841308594 99.33251190185547 374.7989501953125 C 149.5331268310547 365.31103515625 137.0728302001953 370.4181823730469 130.8235626220703 394.13494873046875" stroke-width="0.0" fill="rgb(161, 95, 34)" opacity="0.42471883"/>
    <path d="M 199.1837158203125 336.75457763671875 C 128.7665557861328 297.5476379394531 130.97357177734375 307.5961608886719 130.8856658935547 306.39898681640625 C 152.7080535888672 288.4124450683594 143.01239013671875 288.078857421875 151.08584594726562 299.4517822265625 C 141.86663818359375 283.81689453125 160.5286102294922 298.61334228515625 151.0115966796875 293.3833923339844 C 189.18832397460938 304.2139587402344 171.21018981933594 289.4757385253906 199.1837158203125 336.75457763671875" stroke-width="0.0" fill="rgb(0, 0, 24)" opacity="1.0"/>
    <path d="M 74.20283508300781 401.225341796875 C 98.73347473144531 395.2567443847656 83.0296630859375 398.2122497558594 112.83633422851562 396.0713195800781 C 123.04466247558594 388.46429443359375 119.66827392578125 368.5349426269531 75.30674743652344 371.4368896484375 C 90.12590789794922 406.842529296875 95.4979248046875 356.2517395019531 83.76215362548828 340.6938171386719 C 67.0647201538086 334.04193115234375 69.5821533203125 409.80303955078125 74.20283508300781 401.225341796875" stroke-width="0.0" fill="rgb(163, 118, 46)" opacity="0.16587095"/>
    <path d="M 351.6083068847656 318.5337829589844 C 344.4438171386719 347.5248107910156 365.1988220214844 328.9432678222656 364.6845397949219 316.53277587890625 C 371.92791748046875 328.1725769042969 356.7649230957031 319.7890319824219 346.98480224609375 337.4476318359375 C 362.0827331542969 305.7131042480469 378.7164001464844 300.8037414550781 382.61712646484375 298.3774108886719 C 395.257568359375 273.0286560058594 387.560302734375 274.23797607421875 351.6083068847656 318.5337829589844" stroke-width="0.0" fill="rgb(104, 9, 130)" opacity="0.67668015"/>
    <path d="M 400.208984375 354.0979919433594 C 423.1786193847656 324.8041687011719 426.6722106933594 320.7910461425781 395.16839599609375 320.02056884765625 C 388.95770263671875 344.3860778808594 379.0169677734375 359.9820556640625 416.044189453125 363.6265869140625 C 435.7480163574219 343.68841552734375 396.7135009765625 295.2810974121094 387.6145935058594 312.7773742675781 C 395.57537841796875 342.430419921875 405.8197326660156 352.2868347167969 400.208984375 354.0979919433594" stroke-width="0.0" fill="rgb(2, 0, 44)" opacity="0.79779834"/>
    <path d="M 165.2415313720703 214.36248779296875 C 154.72866821289062 226.2295684814453 145.3374481201172 254.3415069580078 137.54339599609375 290.9775695800781 C 152.1355743408203 256.6571044921875 160.46673583984375 235.50721740722656 159.09446716308594 236.8046875 C 158.00050354003906 263.64263916015625 171.40716552734375 245.83018493652344 168.7223663330078 222.6986541748047 C 163.80242919921875 239.62220764160156 155.8243408203125 244.1527099609375 165.2415313720703 214.36248779296875" stroke-width="0.0" fill="rgb(63, 0, 51)" opacity="0.4525191"/>
    <path d="M 76.63080596923828 301.8721618652344 C 81.45860290527344 285.3395080566406 82.25396728515625 305.7959899902344 55.18105697631836 305.8594970703125 C 28.416460037231445 314.4462585449219 23.49932289123535 310.9944763183594 50.90610122680664 300.48284912109375 C 36.85263442993164 299.2904357910156 53.157432556152344 302.03228759765625 76.33050537109375 293.2016296386719 C 69.53898620605469 304.53631591796875 67.19097137451172 310.8659362792969 76.63080596923828 301.8721618652344" stroke-width="0.0" fill="rgb(115, 121, 146)" opacity="0.7575137"/>
    <path d="M 19.953781127929688 -6.217350959777832 C 10.224695205688477 -1.5422015190124512 5.135756969451904 13.524096488952637 -5.282192230224609 20.267026901245117 C -15.580953598022461 21.42060661315918 -25.931720733642578 17.37624740600586 -25.37701988220215 4.7208251953125 C -17.208955764770508 -9.565235137939453 -9.888447761535645 -16.8857421875 0.10655785351991653 -19.5606689453125 C 8.185638427734375 -15.06445026397705 11.424115180969238 -3.5563747882843018 19.953781127929688 -6.217350959777832" stroke-width="0.0" fill="rgb(95, 218, 114)" opacity="0.558566"/>
    <path d="M 6.605410099029541 -14.508915901184082 C -0.28661686182022095 -10.162210464477539 -7.307460784912109 -4.18658447265625 -8.896114349365234 10.812348365783691 C -7.861470699310303 10.91978931427002 -15.899827003479004 5.078436374664307 -18.667070388793945 -0.68198561668396 C -16.866783142089844 -9.046184539794922 -9.546276092529297 -16.36669158935547 0.23104284703731537 -18.829051971435547 C 4.245997905731201 -10.33475112915039 7.0550618171691895 0.16594868898391724 6.605410099029541 -14.508915901184082" stroke-width="0.0" fill="rgb(126, 72, 91)" opacity="0.5675592"/>
    <path d="M 4.284770965576172 -16.209739685058594 C 9.467249870300293 6.4002790451049805 -11.748632431030273 6.909021377563477 -9.147560119628906 13.604543685913086 C -14.2337007522583 23.334243774414062 -27.07931137084961 21.382078170776367 -30.706090927124023 12.94836139678955 C -16.44465446472168 -9.736611366271973 -9.124147415161133 -17.057117462158203 6.232400417327881 -21.581317901611328 C 15.031158447265625 -26.657007217407227 17.819686889648438 -24.57123565673828 4.284770965576172 -16.209739685058594" stroke-width="0.0" fill="rgb(228, 119, 117)" opacity="0.88639945"/>
    <path d="M 20.64051628112793 -11.374860763549805 C 10.21957778930664 -5.342121601104736 3.361607789993286 4.3626389503479 2.3468921184539795 16.528573989868164 C -6.125904560089111 10.342642784118652 -10.162835121154785 1.6591637134552002 -15.091903686523438 -7.452972888946533 C -16.554672241210938 -9.87160873413086 -9.23416519165039 -17.192115783691406 0.7657674551010132 -19.871597290039062 C 10.712876319885254 -17.17760467529297 13.762709617614746 -7.579775810241699 20.64051628112793 -11.374860763549805" stroke-width="0.0" fill="rgb(2, 151, 94)" opacity="0.80044466"/>
    <path d="M 13.004919052124023 -18.12037467956543 C 11.248766899108887 -2.778109550476074 4.4349684715271 6.8199639320373535 10.528426170349121 -10.976202964782715 C -7.801723480224609 -6.712486267089844 -20.28053092956543 -3.150857448577881 -21.930126190185547 -4.8193840980529785 C -16.845224380493164 -9.450196266174316 -9.524717330932617 -16.77070426940918 12.884623527526855 -31.15993881225586 C 24.418731689453125 -32.93001937866211 31.18824005126953 -26.904926300048828 13.004919052124023 -18.12037467956543" stroke-width="0.0" fill="rgb(101, 144, 187)" opacity="0.68603504"/>
    <path d="M 6.08517599105835 -12.402993202209473 C 3.4086105823516846 -3.0043933391571045 -4.019380569458008 5.208718299865723 -13.813650131225586 7.513031482696533 C -9.980523109436035 18.249605178833008 -17.3010311126709 10.929098129272461 -19.98052406311035 0.9290986061096191 C -17.3010311126709 -9.070901870727539 -9.980523109436035 -16.391408920288086 0.1246582493185997 -19.109901428222656 C 13.833330154418945 -18.716350555419922 23.933671951293945 -15.446219444274902 6.08517599105835 -12.402993202209473" stroke-width="0.0" fill="rgb(44, 70, 222)" opacity="0.77423024"/>
    <path d="M 9.552586555480957 -0.24061736464500427 C 6.495676517486572 0.6106647253036499 4.206031322479248 12.621646881103516 -4.508957386016846 15.885764122009277 C -16.766904830932617 24.660512924194336 -21.054109573364258 15.659343719482422 -19.796247482299805 0.3353588581085205 C -17.249513626098633 -9.368897438049316 -9.929006576538086 -16.689403533935547 -1.250105857849121 -19.56867790222168 C 7.187981605529785 -15.875767707824707 11.303865432739258 -5.415816307067871 9.552586555480957 -0.24061736464500427" stroke-width="0.0" fill="rgb(2, 212, 96)" opacity="0.7119604"/>
    <path d="M 26.304454803466797 -13.290346145629883 C 20.105676651000977 -1.7775869369506836 -0.06948620080947876 1.939965844154358 -21.784696578979492 0.12743698060512543 C -26.131540298461914 34.88752365112305 -32.232948303222656 26.629610061645508 -26.598867416381836 12.479584693908691 C -17.022062301635742 -9.361050605773926 -9.701555252075195 -16.681556701660156 8.039142608642578 -26.328065872192383 C 17.40744400024414 -23.530414581298828 23.12779998779297 -16.666484832763672 26.304454803466797 -13.290346145629883" stroke-width="0.0" fill="rgb(39, 111, 86)" opacity="0.65407777"/>
    <path d="M 301.4234924316406 381.4516296386719 C 306.525146484375 382.6494445800781 314.04815673828125 385.72515869140625 309.6319580078125 403.46307373046875 C 261.4775695800781 408.34075927734375 279.347900390625 388.16094970703125 279.1758728027344 403.7935791015625 C 277.0568542480469 389.36737060546875 275.0957336425781 365.93597412109375 326.7567138671875 369.1729431152344 C 318.26904296875 420.74493408203125 322.4510192871094 420.0246887207031 301.4234924316406 381.4516296386719" stroke-width="0.0" fill="rgb(162, 91, 49)" opacity="0.7971604"/>
    <path d="M 444.619140625 339.7549133300781 C 432.0001525878906 310.8825378417969 425.6651306152344 326.4623107910156 410.6791687011719 315.4107971191406 C 393.8719177246094 332.6339416503906 419.5354919433594 319.1236267089844 391.558349609375 319.43780517578125 C 405.6343688964844 311.2094421386719 422.5867919921875 336.93994140625 430.7647399902344 344.2887268066406 C 380.73944091796875 352.31854248046875 405.7532958984375 342.333740234375 444.619140625 339.7549133300781" stroke-width="0.0" fill="rgb(25, 11, 42)" opacity="0.7420212"/>
    <path d="M 16.48946189880371 -6.309720039367676 C 4.647099018096924 8.742722511291504 -6.682217597961426 5.747820854187012 -18.788681030273438 4.8631134033203125 C -14.738516807556152 22.702892303466797 -17.05862808227539 10.722681999206543 -19.499805450439453 0.17958638072013855 C -16.819921493530273 -9.821348190307617 -9.49941349029541 -17.141855239868164 -2.5201351642608643 -26.32077407836914 C 5.754572868347168 -16.125368118286133 4.524291038513184 -9.348325729370117 16.48946189880371 -6.309720039367676" stroke-width="0.0" fill="rgb(123, 23, 45)" opacity="0.75188065"/>
    <path d="M 369.72943115234375 254.99380493164062 C 358.38238525390625 310.21014404296875 340.9297180175781 327.4739074707031 323.0919494628906 342.69720458984375 C 342.41583251953125 312.4276428222656 339.7396240234375 293.6463623046875 375.14886474609375 291.68707275390625 C 381.83221435546875 309.80889892578125 374.8593444824219 320.7583923339844 405.78973388671875 342.0098571777344 C 407.95697021484375 325.524658203125 412.2735595703125 311.8799133300781 369.72943115234375 254.99380493164062" stroke-width="0.0" fill="rgb(251, 255, 210)" opacity="0.41092637"/>
    <path d="M 3.1843769550323486 2.378436803817749 C 13.845325469970703 11.60483455657959 6.811025142669678 18.178237915039062 3.815589189529419 19.177452087402344 C 4.778101444244385 0.06620946526527405 -6.188679218292236 -4.123175144195557 -14.073508262634277 -9.16787338256836 C -16.32535743713379 -9.35012149810791 -9.004850387573242 -16.670629501342773 -7.45985746383667 -12.231681823730469 C -2.0512797832489014 -5.29622220993042 4.334294319152832 3.477722406387329 3.1843769550323486 2.378436803817749" stroke-width="0.0" fill="rgb(109, 153, 144)" opacity="0.7468298"/>
    <path d="M 410.46539306640625 364.55426025390625 C 458.53729248046875 346.27545166015625 406.9831237792969 329.8953857421875 372.8326110839844 342.5869445800781 C 337.48919677734375 368.99755859375 309.7665100097656 358.9422912597656 347.9273681640625 327.4865417480469 C 418.0354309082031 329.6470947265625 435.6856384277344 335.2451171875 406.156005859375 326.38690185546875 C 371.2404479980469 347.329345703125 373.5999755859375 372.0159606933594 410.46539306640625 364.55426025390625" stroke-width="0.0" fill="rgb(3, 1, 25)" opacity="0.9728538"/>
    <path d="M 1.5939233303070068 -17.65371322631836 C -1.561854362487793 -7.319030284881592 -3.4021639823913574 7.017068386077881 -10.088537216186523 12.122682571411133 C -12.562275886535645 19.610401153564453 -15.388622283935547 7.3126678466796875 -18.84197998046875 0.4103895425796509 C -16.44178581237793 -9.1683349609375 -9.121277809143066 -16.488842010498047 0.7887094020843506 -19.15119171142578 C 7.281322956085205 -15.126619338989258 11.83824348449707 -3.547443389892578 1.5939233303070068 -17.65371322631836" stroke-width="0.0" fill="rgb(217, 35, 167)" opacity="0.7904332"/>
    <path d="M 365.51995849609375 38.10121536254883 C 350.7983703613281 96.10809326171875 335.27105712890625 89.86478424072266 300.33367919921875 89.00969696044922 C 292.9651794433594 52.72684860229492 282.3627624511719 54.453556060791016 263.9521179199219 51.962371826171875 C 275.709228515625 27.965728759765625 272.779052734375 30.688739776611328 293.97003173828125 24.340417861938477 C 335.05419921875 21.01456069946289 360.8193359375 14.848769187927246 365.51995849609375 38.10121536254883" stroke-width="0.0" fill="rgb(45, 106, 192)" opacity="0.1145462"/>
    <path d="M 107.28215026855469 336.9425048828125 C 71.1213150024414 333.3350830078125 48.68089294433594 335.9768371582031 58.795196533203125 360.1202087402344 C 95.44566345214844 353.3244323730469 89.82942199707031 346.1141662597656 61.20625686645508 348.75732421875 C 78.0002670288086 351.9585876464844 92.46317291259766 354.4999694824219 69.9053955078125 365.799560546875 C 77.172607421875 373.4833984375 106.68773651123047 377.1869201660156 107.28215026855469 336.9425048828125" stroke-width="0.0" fill="rgb(197, 114, 6)" opacity="0.4834773"/>
    <path d="M 20.935514450073242 0.571043074131012 C 18.25602149963379 10.571043014526367 10.935514450073242 17.891550064086914 0.9355142116546631 20.571043014526367 C -9.064485549926758 17.891550064086914 -16.384992599487305 10.571043014526367 -19.064485549926758 0.571043074131012 C -16.384992599487305 -9.428956985473633 -9.064485549926758 -16.74946403503418 0.9355142116546631 -19.428956985473633 C 10.935514450073242 -16.74946403503418 18.25602149963379 -9.428956985473633 20.935514450073242 0.571043074131012" stroke-width="0.0" fill="rgb(123, 205, 140)" opacity="0.8899454"/>
    <path d="M 355.396484375 409.22918701171875 C 361.92291259765625 431.35601806640625 339.2958679199219 428.57977294921875 329.065185546875 430.4466247558594 C 313.8773498535156 441.65106201171875 314.0583801269531 434.7017517089844 314.89862060546875 423.5910339355469 C 311.3943786621094 400.426513671875 298.1835632324219 393.0648193359375 298.61395263671875 403.06927490234375 C 342.6109924316406 397.4307556152344 362.86553955078125 402.24359130859375 355.396484375 409.22918701171875" stroke-width="0.0" fill="rgb(215, 157, 75)" opacity="1.0"/>
    <path d="M 2.7085604667663574 -20.762792587280273 C 0.3924243450164795 -6.812105655670166 -4.0716376304626465 -2.17467999458313 -17.736967086791992 -7.79232120513916 C -11.758301734924316 19.245189666748047 -20.228309631347656 9.854820251464844 -19.886560440063477 -0.4853655993938446 C -16.711536407470703 -9.847160339355469 -9.391029357910156 -17.167667388916016 8.974032402038574 -26.620624542236328 C 22.856822967529297 -30.264366149902344 28.239158630371094 -23.0900936126709 2.7085604667663574 -20.762792587280273" stroke-width="0.0" fill="rgb(174, 43, 18)" opacity="0.73181754"/>
    <path d="M 443.80126953125 342.2798156738281 C 405.0261535644531 345.7940673828125 378.1988830566406 353.51190185546875 369.14404296875 338.99530029296875 C 385.6950988769531 347.93408203125 356.91650390625 347.87799072265625 343.9979248046875 335.15167236328125 C 369.33026123046875 310.3116760253906 378.739501953125 304.6961364746094 385.147216796875 276.5429992675781 C 396.5361633300781 295.9796447753906 409.9661865234375 301.4436950683594 443.80126953125 342.2798156738281" stroke-width="0.0" fill="rgb(255, 255, 190)" opacity="0.9998151"/>
    <path d="M 17.545211791992188 -23.925334930419922 C 16.013853073120117 -4.265334606170654 0.2438531517982483 10.15102481842041 -4.418886661529541 10.298674583435059 C -5.642154693603516 10.86180591583252 -17.587970733642578 8.501996994018555 -20.932302474975586 -0.5368272662162781 C -16.897369384765625 -9.788201332092285 -9.576862335205078 -17.10870933532715 0.42899808287620544 -19.789804458618164 C 12.406872749328613 -17.839614868164062 25.27507209777832 -16.802953720092773 17.545211791992188 -23.925334930419922" stroke-width="0.0" fill="rgb(157, 98, 162)" opacity="0.4248026"/>
    <path d="M 16.08344268798828 -11.451691627502441 C 13.903936386108398 4.084780693054199 -6.392120361328125 4.029812335968018 -22.064998626708984 5.307804107666016 C -6.786431312561035 17.695375442504883 -13.155801773071289 7.903697490692139 -16.379295349121094 -3.059117317199707 C -16.407878875732422 -9.129481315612793 -9.087371826171875 -16.449989318847656 6.248263835906982 -22.385807037353516 C 19.522544860839844 -24.627023696899414 27.075414657592773 -18.032182693481445 16.08344268798828 -11.451691627502441" stroke-width="0.0" fill="rgb(111, 85, 114)" opacity="0.42213374"/>
    <path d="M 618.3580932617188 584.7642211914062 C 614.7576904296875 594.7626953125 608.2532348632812 602.8427734375 613.4217529296875 598.947509765625 C 605.808837890625 589.255859375 600.3786010742188 575.4722290039062 605.5746459960938 569.6183471679688 C 594.3056640625 573.4478149414062 615.0631713867188 576.0697631835938 625.682861328125 571.7390747070312 C 613.294921875 562.4312133789062 618.633056640625 571.0616455078125 618.3580932617188 584.7642211914062" stroke-width="0.0" fill="rgb(76, 137, 183)" opacity="0.43264994"/>
    <path d="M 58.19058609008789 170.1203155517578 C 46.04045486450195 170.83607482910156 17.6215763092041 169.8477325439453 7.6096296310424805 164.80873107910156 C 3.2861533164978027 195.53919982910156 -5.698584079742432 190.24789428710938 -23.532617568969727 157.1237335205078 C -18.74100685119629 135.89862060546875 -11.129508972167969 134.20228576660156 12.961450576782227 138.47433471679688 C 53.28887939453125 127.9467544555664 57.20563888549805 127.20950317382812 58.19058609008789 170.1203155517578" stroke-width="0.0" fill="rgb(33, 108, 199)" opacity="0.35298586"/>
    <path d="M 10.104879379272461 -12.7560396194458 C 7.332799434661865 3.1695942878723145 6.654538154602051 18.19707679748535 -4.950464725494385 16.903993606567383 C -9.962271690368652 19.037586212158203 -16.886499404907227 10.532212257385254 -19.561908721923828 0.5176296234130859 C -16.88240623474121 -9.482423782348633 -9.56190013885498 -16.80293083190918 0.440405935049057 -19.48306655883789 C 10.928556442260742 -16.946744918823242 25.418880462646484 -14.572427749633789 10.104879379272461 -12.7560396194458" stroke-width="0.0" fill="rgb(92, 131, 1)" opacity="0.82148635"/>
    <path d="M 25.31964683532715 -11.77009105682373 C 14.639202117919922 3.9551913738250732 1.4486007690429688 3.551384449005127 -28.00128173828125 8.74441146850586 C -17.836172103881836 35.0224723815918 -21.91614532470703 31.506229400634766 -21.283552169799805 18.013525009155273 C -16.55799674987793 -9.460620880126953 -9.237489700317383 -16.7811279296875 5.920614719390869 -24.932504653930664 C 15.30501651763916 -21.75516128540039 16.303205490112305 -8.284502029418945 25.31964683532715 -11.77009105682373" stroke-width="0.0" fill="rgb(34, 95, 153)" opacity="0.7303951"/>
    <path d="M 271.91265869140625 161.4024200439453 C 268.6206970214844 187.57797241210938 274.3348693847656 195.56417846679688 262.0901794433594 170.400634765625 C 233.30987548828125 190.43316650390625 227.5293426513672 167.10324096679688 222.7888641357422 141.02833557128906 C 232.60716247558594 156.29055786132812 243.61766052246094 158.5779266357422 250.7801971435547 162.82606506347656 C 251.43507385253906 137.40345764160156 260.49725341796875 142.21575927734375 271.91265869140625 161.4024200439453" stroke-width="0.0" fill="rgb(255, 255, 218)" opacity="0.52719194"/>
    <path d="M 11.727030754089355 -1.244281530380249 C 17.140972137451172 18.034330368041992 16.755428314208984 26.7285099029541 -2.896840810775757 30.868064880371094 C -21.826904296875 30.495229721069336 -27.210105895996094 21.374374389648438 -25.678272247314453 8.915884017944336 C -17.09156608581543 -9.094579696655273 -9.771058082580566 -16.41508674621582 0.6057440042495728 -23.680570602416992 C 6.86453914642334 -19.050233840942383 10.907990455627441 -9.327908515930176 11.727030754089355 -1.244281530380249" stroke-width="0.0" fill="rgb(56, 61, 111)" opacity="0.85696775"/>
    <path d="M 197.72406005859375 587.4031372070312 C 196.78875732421875 613.8756713867188 188.37850952148438 615.3436279296875 143.0120086669922 623.32080078125 C 118.75001525878906 614.7927856445312 108.80084228515625 606.4466552734375 102.95780944824219 588.537353515625 C 109.97049713134766 555.0506591796875 106.4461441040039 553.6551513671875 173.20379638671875 556.5401000976562 C 194.3186798095703 553.8414916992188 199.66046142578125 552.3731689453125 197.72406005859375 587.4031372070312" stroke-width="0.0" fill="rgb(41, 140, 166)" opacity="0.1536859"/>
  </g>
</svg>
