<?xml version="1.0" ?>
<svg xmlns="http://www.w3.org/2000/svg" version="1.1" width="600" height="600">
  <defs/>
  <g>
    <path d="M 381.6178283691406 598.8502197265625 C 378.0089416503906 620.7413330078125 361.7813415527344 622.1317138671875 250.38272094726562 620.4568481445312 C 193.87368774414062 613.0028076171875 189.41189575195312 600.929443359375 177.7311248779297 519.6641845703125 C 180.6199188232422 454.558837890625 203.8911895751953 468.9989013671875 259.9026794433594 494.63958740234375 C 324.63995361328125 484.9391784667969 351.31243896484375 468.7568359375 381.6178283691406 598.8502197265625" stroke-width="0.0" fill="rgb(138, 153, 176)" opacity="0.99675727"/>
    <path d="M 372.772216796875 4.96331787109375 C 332.5859680175781 81.31694030761719 317.6967468261719 90.55712890625 237.46853637695312 131.85816955566406 C 185.8946075439453 123.93648529052734 186.2651824951172 125.73947143554688 212.0772705078125 44.273380279541016 C 223.0545654296875 -10.22999095916748 227.32261657714844 -19.13711929321289 288.4337463378906 -21.049591064453125 C 354.4042663574219 -23.355690002441406 368.9287414550781 -21.356338500976562 372.772216796875 4.96331787109375" stroke-width="0.0" fill="rgb(96, 116, 148)" opacity="0.73216796"/>
    <path d="M 230.48097229003906 565.7616577148438 C 225.86839294433594 644.0308227539062 201.9107208251953 631.0952758789062 148.8784637451172 618.7975463867188 C 96.66534423828125 624.2203979492188 68.68215942382812 635.284423828125 54.10673141479492 604.0758056640625 C 88.84822082519531 540.2772216796875 102.45610046386719 533.2299194335938 190.99485778808594 484.66204833984375 C 219.91796875 491.4527893066406 223.4206085205078 506.29083251953125 230.48097229003906 565.7616577148438" stroke-width="0.0" fill="rgb(137, 152, 175)" opacity="0.9510104"/>
    <path d="M 625.3577270507812 197.06631469726562 C 658.143798828125 320.2006530761719 685.246337890625 344.9024963378906 522.9617309570312 336.95458984375 C 432.09552001953125 278.3541259765625 452.4282531738281 219.79019165039062 405.94482421875 191.61305236816406 C 441.3447570800781 91.10193634033203 467.2256774902344 90.90636444091797 596.2474365234375 16.498958587646484 C 623.5690307617188 22.999305725097656 623.3321533203125 40.67409896850586 625.3577270507812 197.06631469726562" stroke-width="0.0" fill="rgb(137, 152, 177)" opacity="0.999334"/>
    <path d="M 394.7325439453125 379.70111083984375 C 348.34222412109375 551.4880981445312 334.4222106933594 542.420166015625 288.96392822265625 518.0598754882812 C 217.93849182128906 524.8571166992188 184.36416625976562 550.2919311523438 169.65142822265625 396.7845764160156 C 137.22769165039062 309.85003662109375 117.05654907226562 265.2883605957031 322.4682922363281 259.33905029296875 C 444.6284484863281 318.10723876953125 444.85150146484375 326.0423889160156 394.7325439453125 379.70111083984375" stroke-width="0.0" fill="rgb(144, 119, 95)" opacity="0.95869565"/>
    <path d="M 534.97607421875 221.69296264648438 C 551.5921020507812 290.2590637207031 532.2011108398438 311.7803649902344 334.6197509765625 341.14239501953125 C 265.994140625 315.9779357910156 265.67352294921875 252.13552856445312 178.1542510986328 151.75875854492188 C 289.2839050292969 78.95789337158203 348.5390930175781 113.6362533569336 424.1605224609375 87.72990417480469 C 450.5975036621094 89.81983184814453 465.9632568359375 95.81917572021484 534.97607421875 221.69296264648438" stroke-width="0.0" fill="rgb(244, 240, 233)" opacity="0.9660066"/>
    <path d="M 430.67364501953125 85.11724090576172 C 407.3349914550781 138.85166931152344 398.8794250488281 153.9696807861328 366.76025390625 255.41880798339844 C 321.2169189453125 172.606201171875 285.1619873046875 169.8182830810547 284.3594055175781 150.6513671875 C 342.3506164550781 93.34075927734375 339.85650634765625 67.46660614013672 392.21380615234375 46.0396842956543 C 416.034912109375 51.382301330566406 428.2571716308594 57.926124572753906 430.67364501953125 85.11724090576172" stroke-width="0.0" fill="rgb(1, 1, 4)" opacity="0.967362"/>
    <path d="M 213.48365783691406 358.4082336425781 C 179.87631225585938 539.087890625 160.09921264648438 526.9485473632812 82.28123474121094 522.165283203125 C 9.283112525939941 549.3341674804688 -12.584725379943848 567.5325927734375 -30.781187057495117 340.1593933105469 C -74.6535873413086 273.6261291503906 -90.0022201538086 255.8816375732422 169.63241577148438 212.1285858154297 C 275.0645446777344 241.94517517089844 244.9510498046875 290.7036437988281 213.48365783691406 358.4082336425781" stroke-width="0.0" fill="rgb(115, 128, 156)" opacity="0.8190502"/>
    <path d="M 231.03549194335938 171.06971740722656 C 234.084228515625 175.60704040527344 239.65269470214844 219.7299041748047 204.87283325195312 303.9590759277344 C -56.10098648071289 271.83892822265625 -57.11503219604492 272.2037658691406 -38.29695129394531 232.02438354492188 C 58.088497161865234 36.1593017578125 95.46041870117188 43.957481384277344 145.93475341796875 12.27224063873291 C 153.76339721679688 20.982635498046875 158.0206298828125 32.69634246826172 231.03549194335938 171.06971740722656" stroke-width="0.0" fill="rgb(9, 10, 11)" opacity="1.0"/>
    <path d="M 164.4174041748047 2.9877426624298096 C 139.7751007080078 66.75112915039062 122.0682601928711 69.59215545654297 7.615200996398926 172.19027709960938 C -15.81024169921875 159.783935546875 -20.017812728881836 145.10009765625 -19.99036407470703 50.24314498901367 C -10.15634822845459 -47.66112518310547 14.742843627929688 -33.53483581542969 89.92432403564453 -21.33534812927246 C 150.58071899414062 -20.937973022460938 163.6486358642578 -17.89592933654785 164.4174041748047 2.9877426624298096" stroke-width="0.0" fill="rgb(139, 153, 177)" opacity="0.9994385"/>
    <path d="M 208.55218505859375 483.16375732421875 C 165.64306640625 565.57275390625 144.77288818359375 569.4132080078125 43.8531608581543 620.0747680664062 C 0.23427404463291168 625.3421630859375 -13.263816833496094 623.44775390625 -19.553319931030273 561.8818969726562 C -11.818467140197754 432.6003723144531 15.4846773147583 456.0555725097656 95.25309753417969 477.778564453125 C 165.53561401367188 463.8981018066406 194.06033325195312 448.4869689941406 208.55218505859375 483.16375732421875" stroke-width="0.0" fill="rgb(138, 153, 177)" opacity="1.0"/>
    <path d="M 616.12890625 12.499333381652832 C 568.4869995117188 132.57525634765625 531.4608154296875 132.2677459716797 458.3775634765625 186.71511840820312 C 408.18731689453125 161.08782958984375 402.7253723144531 145.69540405273438 398.9602966308594 107.00569915771484 C 427.98248291015625 33.92292404174805 436.9875183105469 12.061237335205078 537.3050537109375 -20.392940521240234 C 586.9144287109375 -28.33148193359375 607.3699951171875 -33.94865798950195 616.12890625 12.499333381652832" stroke-width="0.0" fill="rgb(138, 153, 177)" opacity="1.0"/>
    <path d="M 618.7647705078125 375.7783203125 C 615.0821533203125 682.791015625 603.6884765625 678.2999267578125 524.1744384765625 634.5664672851562 C 312.78472900390625 612.6430053710938 315.97076416015625 597.4402465820312 341.0852966308594 502.53631591796875 C 321.8062438964844 360.4613952636719 278.4934387207031 348.865966796875 497.3757019042969 342.7550048828125 C 598.0316772460938 300.3247375488281 611.3318481445312 306.03314208984375 618.7647705078125 375.7783203125" stroke-width="0.0" fill="rgb(139, 149, 171)" opacity="0.98499346"/>
    <path d="M 207.99046325683594 19.51280975341797 C 156.8566131591797 145.899658203125 247.0371551513672 111.14337921142578 282.4609680175781 335.7364807128906 C 211.03712463378906 100.49402618408203 152.4969482421875 94.86067199707031 131.3894500732422 30.80803108215332 C 133.40647888183594 -8.543262481689453 134.6156768798828 -16.023996353149414 198.10000610351562 -20.02104377746582 C 250.3051300048828 -19.45880699157715 250.92901611328125 -14.34459400177002 207.99046325683594 19.51280975341797" stroke-width="0.0" fill="rgb(4, 4, 4)" opacity="0.9846064"/>
    <path d="M 393.921142578125 53.36368179321289 C 358.40582275390625 123.43679809570312 367.0056457519531 157.64291381835938 297.5414733886719 169.3457794189453 C 274.3239440917969 152.3004150390625 250.2749481201172 136.67091369628906 195.33958435058594 121.12883758544922 C 293.50091552734375 75.231689453125 304.2125244140625 62.46500778198242 372.24407958984375 21.727067947387695 C 388.5960693359375 18.816804885864258 393.6596374511719 32.1784553527832 393.921142578125 53.36368179321289" stroke-width="0.0" fill="rgb(4, 6, 7)" opacity="0.9797921"/>
    <path d="M 515.904052734375 -6.545160293579102 C 484.5610656738281 68.96321868896484 469.8648376464844 82.57697296142578 406.9967956542969 106.50931549072266 C 366.68853759765625 99.07744598388672 353.7992858886719 92.65514373779297 334.287109375 23.636777877807617 C 347.7348937988281 -35.10465621948242 366.0718688964844 -29.13506507873535 418.625732421875 -20.648160934448242 C 478.4972839355469 -22.151899337768555 497.5777587890625 -23.78566551208496 515.904052734375 -6.545160293579102" stroke-width="0.0" fill="rgb(138, 153, 177)" opacity="0.9994217"/>
    <path d="M 252.30801391601562 23.655834197998047 C 189.19224548339844 118.32000732421875 151.44692993164062 101.6269760131836 131.63198852539062 102.1509780883789 C 117.82060241699219 102.23458862304688 108.40756225585938 96.03956604003906 98.22237396240234 79.3046646118164 C 109.87039184570312 63.1415901184082 102.1700668334961 37.89201354980469 152.017578125 -21.564205169677734 C 233.6399688720703 -27.99350357055664 247.6754150390625 -22.86762237548828 252.30801391601562 23.655834197998047" stroke-width="0.0" fill="rgb(138, 153, 177)" opacity="1.0"/>
    <path d="M 372.0224914550781 105.10820770263672 C 364.8928527832031 149.29110717773438 368.856689453125 162.78184509277344 365.8250732421875 238.89779663085938 C 314.7077941894531 155.6237030029297 276.9693298339844 156.83026123046875 263.98455810546875 129.3426513671875 C 274.1912536621094 81.36341857910156 289.7701416015625 78.8311538696289 352.9383544921875 61.653648376464844 C 378.0510559082031 62.212806701660156 379.80889892578125 74.69295501708984 372.0224914550781 105.10820770263672" stroke-width="0.0" fill="rgb(134, 151, 178)" opacity="0.9835701"/>
    <path d="M 139.8707733154297 152.83468627929688 C 149.24209594726562 207.9853515625 137.0767059326172 198.82293701171875 133.08241271972656 181.3078155517578 C 74.62850189208984 169.68206787109375 66.56401062011719 161.3555450439453 62.22079086303711 148.59088134765625 C 74.44380950927734 136.69749450683594 78.69432067871094 125.77141571044922 95.21195983886719 111.79491424560547 C 115.78951263427734 114.71134948730469 130.91986083984375 117.78886413574219 139.8707733154297 152.83468627929688" stroke-width="0.0" fill="rgb(144, 158, 188)" opacity="0.9272729"/>
    <path d="M 192.7376708984375 74.92774200439453 C 216.8369140625 197.7298126220703 201.15966796875 166.885986328125 196.8789825439453 168.5357666015625 C 112.18035125732422 138.7065887451172 96.05965423583984 180.17881774902344 108.52694702148438 117.19474792480469 C 120.64619445800781 88.7503890991211 131.03280639648438 83.19815063476562 153.8022918701172 69.178466796875 C 188.31390380859375 50.11725616455078 211.8961181640625 44.957733154296875 192.7376708984375 74.92774200439453" stroke-width="0.0" fill="rgb(135, 150, 178)" opacity="0.9820125"/>
    <path d="M 450.0863342285156 252.4284210205078 C 430.6258544921875 186.9113006591797 449.2523498535156 240.67027282714844 437.20782470703125 233.95773315429688 C 333.1132507324219 262.6566467285156 378.3199768066406 301.59100341796875 365.2393493652344 191.95037841796875 C 379.3042907714844 138.9736785888672 385.9814453125 129.11129760742188 377.446533203125 165.2415771484375 C 422.1917419433594 182.56309509277344 418.8272399902344 168.20762634277344 450.0863342285156 252.4284210205078" stroke-width="0.0" fill="rgb(0, 2, 3)" opacity="0.9642336"/>
    <path d="M 70.91991424560547 154.7821044921875 C 58.69271469116211 165.80091857910156 53.505706787109375 176.13714599609375 31.900070190429688 199.0716094970703 C 12.357560157775879 195.62063598632812 -0.7543062567710876 190.283203125 -8.135300636291504 173.3004150390625 C 15.495908737182617 138.8386993408203 25.53030776977539 131.8128662109375 38.21375274658203 126.7158203125 C 54.18008804321289 137.796630859375 63.17615509033203 145.42242431640625 70.91991424560547 154.7821044921875" stroke-width="0.0" fill="rgb(139, 154, 177)" opacity="0.9918376"/>
    <path d="M 143.95445251464844 194.78680419921875 C 103.0233383178711 193.5654296875 86.78873443603516 197.8349151611328 50.92533493041992 202.5056915283203 C 42.92687225341797 210.66650390625 34.71485137939453 200.2965545654297 31.1656551361084 187.18399047851562 C 50.46002197265625 166.55740356445312 57.26826477050781 158.073486328125 70.20024108886719 143.82640075683594 C 82.22672271728516 153.7096405029297 104.6237564086914 147.78457641601562 143.95445251464844 194.78680419921875" stroke-width="0.0" fill="rgb(137, 152, 179)" opacity="0.98287904"/>
    <path d="M 357.8599853515625 517.6241455078125 C 325.74188232421875 551.876220703125 305.173583984375 547.9913330078125 281.05499267578125 546.3930053710938 C 257.1898193359375 543.6600952148438 232.70335388183594 550.83203125 163.60861206054688 474.4521484375 C 167.1831817626953 424.77484130859375 191.8061065673828 446.0546569824219 316.1965637207031 444.6620178222656 C 363.6347961425781 429.62628173828125 354.1202087402344 456.98162841796875 357.8599853515625 517.6241455078125" stroke-width="0.0" fill="rgb(141, 153, 176)" opacity="0.9675103"/>
    <path d="M 521.5613403320312 178.00439453125 C 521.8558959960938 238.77110290527344 465.808349609375 203.55337524414062 382.2285461425781 248.23367309570312 C 350.27734375 156.85731506347656 341.47015380859375 151.16873168945312 335.07037353515625 121.25711059570312 C 332.8356018066406 84.73994445800781 333.3263244628906 69.71766662597656 369.2950744628906 66.69881439208984 C 413.17376708984375 80.13177490234375 421.46295166015625 87.49578094482422 521.5613403320312 178.00439453125" stroke-width="0.0" fill="rgb(138, 153, 177)" opacity="0.9925766"/>
    <path d="M 301.8867492675781 125.0868148803711 C 299.2859802246094 168.50062561035156 298.63372802734375 159.57656860351562 275.2516784667969 145.7420196533203 C 224.59091186523438 117.61904907226562 204.02743530273438 119.6833724975586 173.72662353515625 108.30900573730469 C 191.25494384765625 69.53141784667969 211.15786743164062 72.18659973144531 255.2538299560547 68.28226470947266 C 276.9188232421875 66.14739990234375 288.3125915527344 70.62692260742188 301.8867492675781 125.0868148803711" stroke-width="0.0" fill="rgb(137, 153, 180)" opacity="0.96190006"/>
    <path d="M 114.24404907226562 260.6499938964844 C 96.66183471679688 262.4208984375 85.46370697021484 264.080322265625 52.33793640136719 270.8572692871094 C 54.43361282348633 392.07806396484375 21.21756935119629 371.77752685546875 -33.79759979248047 318.9744567871094 C 16.223209381103516 217.72909545898438 31.24037742614746 211.98953247070312 67.3533706665039 194.83706665039062 C 79.56632995605469 216.0221710205078 89.1614761352539 224.72210693359375 114.24404907226562 260.6499938964844" stroke-width="0.0" fill="rgb(138, 152, 178)" opacity="0.97940725"/>
    <path d="M 401.0757141113281 178.78395080566406 C 395.966796875 196.87265014648438 413.6163635253906 245.76507568359375 304.54437255859375 314.49359130859375 C 413.9559326171875 211.59938049316406 353.1871643066406 283.3768005371094 367.7969970703125 194.3422088623047 C 324.145263671875 128.6116943359375 332.6607666015625 130.49761962890625 350.4942932128906 132.01480102539062 C 378.5765686035156 137.73031616210938 389.3951110839844 142.9357452392578 401.0757141113281 178.78395080566406" stroke-width="0.0" fill="rgb(0, 0, 2)" opacity="0.9416722"/>
    <path d="M 94.19125366210938 125.7813720703125 C 81.87747192382812 142.0908966064453 75.70185852050781 151.65281677246094 68.35564422607422 161.8242645263672 C 53.762420654296875 151.20404052734375 44.321311950683594 143.84423828125 35.67253494262695 133.9416046142578 C 45.4884147644043 120.77839660644531 54.42424774169922 114.17048645019531 73.8537826538086 100.04280853271484 C 85.09242248535156 103.35091400146484 92.43379974365234 112.44322204589844 94.19125366210938 125.7813720703125" stroke-width="0.0" fill="rgb(138, 153, 176)" opacity="1.0"/>
    <path d="M 133.11158752441406 108.2077865600586 C 133.7095489501953 129.32919311523438 127.12118530273438 139.02346801757812 108.2228775024414 140.42266845703125 C 80.47465515136719 130.6555938720703 71.78361511230469 122.91301727294922 66.1073226928711 110.88478088378906 C 80.55867767333984 91.82498931884766 89.45655059814453 85.1607437133789 107.64358520507812 72.1148910522461 C 118.50989532470703 75.82084655761719 125.71463012695312 85.04532623291016 133.11158752441406 108.2077865600586" stroke-width="0.0" fill="rgb(139, 154, 177)" opacity="0.9800468"/>
    <path d="M 372.51690673828125 62.590118408203125 C 364.9479675292969 110.11624145507812 347.0394287109375 111.71843719482422 295.5960998535156 123.95307159423828 C 263.3487548828125 121.95584869384766 256.90179443359375 111.82817077636719 253.6802978515625 95.49130249023438 C 271.0654296875 44.75990676879883 285.219970703125 38.57939910888672 332.7381896972656 18.7756290435791 C 351.9415588378906 17.299985885620117 362.3648376464844 22.330522537231445 372.51690673828125 62.590118408203125" stroke-width="0.0" fill="rgb(139, 153, 177)" opacity="0.73605895"/>
    <path d="M 77.83244323730469 213.61505126953125 C 65.6278076171875 233.0298614501953 54.06278991699219 240.1773223876953 11.031217575073242 267.59075927734375 C -10.580256462097168 263.1492919921875 -14.291707992553711 247.2538604736328 -16.849323272705078 210.08042907714844 C -11.598214149475098 175.26724243164062 -3.045849084854126 166.24017333984375 21.52260971069336 165.04119873046875 C 56.97049331665039 175.50537109375 66.19707489013672 183.30845642089844 77.83244323730469 213.61505126953125" stroke-width="0.0" fill="rgb(141, 155, 178)" opacity="0.5338498"/>
    <path d="M 508.1641845703125 346.6701354980469 C 585.8648071289062 341.8097839355469 564.5778198242188 369.3483581542969 485.2941589355469 387.1830139160156 C 394.9349365234375 378.2776794433594 368.251953125 345.5958557128906 449.4644470214844 346.6306457519531 C 463.4810791015625 350.2876892089844 455.5066223144531 325.1746826171875 561.4219360351562 223.82191467285156 C 541.4609985351562 244.59214782714844 519.686279296875 323.21185302734375 508.1641845703125 346.6701354980469" stroke-width="0.0" fill="rgb(5, 7, 9)" opacity="0.98954934"/>
    <path d="M 414.40380859375 164.90057373046875 C 409.4894714355469 178.98899841308594 398.65399169921875 184.76300048828125 354.6544494628906 194.43748474121094 C 326.447021484375 190.5020751953125 317.7108154296875 178.9904022216797 304.4053039550781 145.0109100341797 C 320.44268798828125 110.62125396728516 336.243408203125 109.67232513427734 359.04248046875 112.4560546875 C 377.19720458984375 122.84810638427734 392.1512145996094 124.77688598632812 414.40380859375 164.90057373046875" stroke-width="0.0" fill="rgb(139, 154, 177)" opacity="1.0"/>
    <path d="M 419.10400390625 189.28323364257812 C 414.1102294921875 233.38088989257812 403.3263244628906 236.21217346191406 374.23968505859375 252.5831298828125 C 362.08111572265625 235.06503295898438 355.5769958496094 213.3029327392578 343.18304443359375 185.1986083984375 C 337.0187683105469 169.11917114257812 342.9103088378906 159.5028839111328 387.4414367675781 151.79100036621094 C 412.0163269042969 153.3008270263672 418.6912841796875 162.54058837890625 419.10400390625 189.28323364257812" stroke-width="0.0" fill="rgb(139, 153, 177)" opacity="0.98558986"/>
    <path d="M 567.7877197265625 380.4664611816406 C 520.7521362304688 434.7765197753906 504.8641052246094 435.4556579589844 490.8113708496094 426.2032470703125 C 467.615478515625 424.35418701171875 407.76568603515625 464.8712158203125 275.0766906738281 358.5812683105469 C 490.7915344238281 372.63067626953125 401.36834716796875 302.8631896972656 441.02703857421875 345.553955078125 C 539.9926147460938 344.7129821777344 539.5592651367188 344.3896789550781 567.7877197265625 380.4664611816406" stroke-width="0.0" fill="rgb(7, 5, 4)" opacity="0.974546"/>
    <path d="M 223.0192413330078 323.51812744140625 C 206.13455200195312 397.5869445800781 173.24928283691406 368.6839904785156 184.29638671875 365.6516418457031 C 135.17620849609375 366.4749450683594 112.80330657958984 385.6663513183594 50.84906768798828 362.64080810546875 C 116.1297607421875 301.68145751953125 144.65975952148438 282.00103759765625 208.23361206054688 314.96453857421875 C 157.3238983154297 336.3205261230469 141.31520080566406 324.6438903808594 223.0192413330078 323.51812744140625" stroke-width="0.0" fill="rgb(105, 84, 67)" opacity="0.9740948"/>
    <path d="M 355.84283447265625 339.9824523925781 C 449.6280212402344 318.12835693359375 433.77630615234375 330.0963134765625 412.60797119140625 352.4595642089844 C 238.19424438476562 345.8649597167969 275.15716552734375 370.02490234375 233.71083068847656 304.5929870605469 C 278.25555419921875 276.2060852050781 299.4859924316406 287.6053466796875 349.10565185546875 283.12640380859375 C 298.28369140625 343.086669921875 296.3255920410156 313.54278564453125 355.84283447265625 339.9824523925781" stroke-width="0.0" fill="rgb(8, 9, 8)" opacity="0.9940695"/>
    <path d="M 228.1165771484375 200.27432250976562 C 315.99139404296875 366.845947265625 257.0984191894531 399.3606262207031 217.95654296875 380.3484191894531 C 206.63490295410156 325.7115783691406 206.5012664794922 307.343017578125 172.17230224609375 290.2166748046875 C 180.33140563964844 299.0587158203125 233.06594848632812 328.32281494140625 148.22023010253906 166.30686950683594 C 139.8843994140625 155.09019470214844 255.89923095703125 189.65811157226562 228.1165771484375 200.27432250976562" stroke-width="0.0" fill="rgb(248, 244, 237)" opacity="0.97714823"/>
    <path d="M 208.15235900878906 317.9068298339844 C 214.6256866455078 354.66009521484375 240.59567260742188 324.9556579589844 150.03219604492188 301.2002258300781 C 70.69609832763672 305.47589111328125 58.539634704589844 434.11859130859375 60.361934661865234 327.4772644042969 C 170.3761444091797 309.34503173828125 -22.06810188293457 296.0928649902344 102.95109558105469 268.18414306640625 C 202.7965545654297 238.89674377441406 186.3467254638672 251.06057739257812 208.15235900878906 317.9068298339844" stroke-width="0.0" fill="rgb(8, 8, 8)" opacity="1.0"/>
    <path d="M 568.8765258789062 381.8509216308594 C 602.7813110351562 422.49102783203125 581.6151123046875 401.2293395996094 511.4341125488281 406.23675537109375 C 487.0234069824219 405.2952575683594 474.3634948730469 399.9526062011719 572.6834106445312 399.0504150390625 C 507.6937561035156 358.8214111328125 468.6835632324219 256.2793884277344 526.4214477539062 347.2472229003906 C 603.2794799804688 339.8658447265625 531.822021484375 356.3553466796875 568.8765258789062 381.8509216308594" stroke-width="0.0" fill="rgb(4, 3, 4)" opacity="0.9769426"/>
    <path d="M 325.3920593261719 425.2137145996094 C 249.1051025390625 448.9057922363281 194.75997924804688 444.1435852050781 133.4181365966797 444.53118896484375 C 59.9986457824707 445.2967224121094 -13.247354507446289 442.17822265625 -28.27489471435547 448.1333312988281 C 74.59835815429688 323.9536437988281 111.26128387451172 373.9880676269531 137.42039489746094 392.23870849609375 C 158.42982482910156 386.6388854980469 201.4159393310547 356.8449401855469 325.3920593261719 425.2137145996094" stroke-width="0.0" fill="rgb(220, 160, 128)" opacity="0.9467449"/>
    <path d="M 671.6588745117188 441.82464599609375 C 564.9857177734375 446.39288330078125 510.5654602050781 443.8011169433594 496.1336364746094 444.6999816894531 C 479.0701904296875 444.4071960449219 415.31146240234375 444.689697265625 208.1547393798828 444.5746154785156 C 327.2016296386719 302.9567565917969 471.51800537109375 395.6401672363281 481.4067077636719 400.26885986328125 C 532.4345703125 417.07269287109375 638.72314453125 384.20037841796875 671.6588745117188 441.82464599609375" stroke-width="0.0" fill="rgb(215, 158, 129)" opacity="0.977454"/>
    <path d="M 355.15008544921875 268.0211486816406 C 327.6296691894531 294.0024719238281 319.3543395996094 306.2615051269531 282.723876953125 341.456787109375 C 282.5705261230469 335.56646728515625 276.6158752441406 307.3463439941406 267.940185546875 260.2998046875 C 257.29339599609375 208.66806030273438 223.98422241210938 195.95370483398438 276.5190124511719 155.51719665527344 C 347.1968078613281 209.14630126953125 367.03179931640625 250.0773468017578 355.15008544921875 268.0211486816406" stroke-width="0.0" fill="rgb(251, 246, 236)" opacity="0.96773916"/>
    <path d="M 196.5792999267578 301.1142578125 C 152.88409423828125 326.24432373046875 137.17698669433594 252.5531463623047 137.24801635742188 290.58697509765625 C 125.2674331665039 263.2624206542969 123.08307647705078 259.3601379394531 82.26319885253906 205.76712036132812 C 80.23023223876953 205.08555603027344 115.94976043701172 197.979736328125 157.94097900390625 203.79078674316406 C 155.86875915527344 230.428466796875 150.5218505859375 165.5162353515625 196.5792999267578 301.1142578125" stroke-width="0.0" fill="rgb(244, 240, 233)" opacity="0.99967754"/>
    <path d="M 55.71992111206055 204.3329620361328 C 36.77935791015625 227.42800903320312 28.85994529724121 236.5634765625 1.800933599472046 259.3707275390625 C -8.617741584777832 249.21620178222656 -10.483126640319824 234.88844299316406 -9.78083324432373 214.69654846191406 C -10.679449081420898 194.61648559570312 -7.1052141189575195 182.1431427001953 10.556966781616211 176.51002502441406 C 37.8061408996582 184.81582641601562 48.185821533203125 191.56454467773438 55.71992111206055 204.3329620361328" stroke-width="0.0" fill="rgb(139, 153, 176)" opacity="1.0"/>
    <path d="M 343.5804443359375 438.21551513671875 C 301.8130798339844 396.7742919921875 334.5169677734375 407.2769470214844 279.073974609375 405.5475769042969 C 221.66624450683594 405.8080139160156 201.69203186035156 405.5949401855469 139.32496643066406 405.37188720703125 C 221.35214233398438 349.2272033691406 219.5915069580078 326.32415771484375 257.1639404296875 291.8796081542969 C 298.2440490722656 388.9422607421875 306.6903991699219 397.0994873046875 343.5804443359375 438.21551513671875" stroke-width="0.0" fill="rgb(5, 3, 4)" opacity="0.9930362"/>
    <path d="M 233.5728759765625 375.68109130859375 C 207.16949462890625 417.1773986816406 186.82635498046875 404.1338195800781 131.8960723876953 406.8977355957031 C 85.13947296142578 401.116455078125 7.909310817718506 452.285400390625 16.411224365234375 387.33294677734375 C 39.21160125732422 335.4840393066406 48.53055191040039 364.139404296875 140.58999633789062 359.1573181152344 C 184.8840789794922 363.2843322753906 221.42433166503906 349.2388000488281 233.5728759765625 375.68109130859375" stroke-width="0.0" fill="rgb(6, 26, 16)" opacity="0.3558445"/>
    <path d="M 548.326904296875 244.71165466308594 C 514.0835571289062 239.51431274414062 501.3650207519531 245.8647918701172 483.1051025390625 242.92738342285156 C 505.3961181640625 245.43374633789062 482.9112548828125 242.01632690429688 446.98590087890625 250.74974060058594 C 433.9008483886719 200.09783935546875 452.1540222167969 241.59495544433594 493.46917724609375 225.5960235595703 C 497.3339538574219 236.65890502929688 552.1567993164062 210.71568298339844 548.326904296875 244.71165466308594" stroke-width="0.0" fill="rgb(6, 6, 8)" opacity="0.99237907"/>
    <path d="M 111.2891845703125 407.1488342285156 C 93.8187484741211 429.20404052734375 85.77207946777344 437.0542907714844 69.22410583496094 444.6739807128906 C 43.956302642822266 443.36151123046875 21.14317512512207 452.2815246582031 -7.589840888977051 404.6799011230469 C 53.93860626220703 408.89935302734375 98.23758697509766 404.0514221191406 103.27466583251953 408.4346923828125 C 84.57999420166016 391.157470703125 87.47257995605469 405.8418273925781 111.2891845703125 407.1488342285156" stroke-width="0.0" fill="rgb(220, 161, 132)" opacity="1.0"/>
    <path d="M 447.22808837890625 360.4612121582031 C 482.6303405761719 392.2271728515625 488.59136962890625 388.64892578125 472.99090576171875 397.2816162109375 C 461.7290954589844 395.9997863769531 457.822021484375 385.4846496582031 434.03955078125 351.9421691894531 C 406.0167541503906 351.033203125 425.72503662109375 351.28680419921875 509.87078857421875 351.31414794921875 C 547.3016967773438 350.9223327636719 543.5665283203125 361.9883728027344 447.22808837890625 360.4612121582031" stroke-width="0.0" fill="rgb(158, 128, 99)" opacity="0.9952049"/>
    <path d="M 163.477783203125 405.49395751953125 C 89.91911315917969 405.411376953125 85.49473571777344 405.6232604980469 113.26603698730469 406.4360656738281 C 80.45699310302734 403.3828430175781 1.336823582649231 408.5169982910156 19.091955184936523 401.9828186035156 C 69.23847961425781 398.3340759277344 77.16376495361328 412.7912902832031 80.69342041015625 368.3013610839844 C 89.76185607910156 407.9072570800781 62.472869873046875 367.6330261230469 163.477783203125 405.49395751953125" stroke-width="0.0" fill="rgb(6, 5, 5)" opacity="0.97667605"/>
    <path d="M 120.6914291381836 407.3892822265625 C 114.37057495117188 412.9996643066406 101.25283813476562 418.0399475097656 92.99855041503906 407.3383483886719 C 76.35813903808594 415.11895751953125 65.2009048461914 406.2767028808594 105.40834045410156 405.31805419921875 C 19.297815322875977 399.9516296386719 53.47937774658203 378.74371337890625 213.78887939453125 401.3274841308594 C 50.77178192138672 402.28399658203125 43.156673431396484 398.4490966796875 120.6914291381836 407.3892822265625" stroke-width="0.0" fill="rgb(193, 153, 119)" opacity="0.70043457"/>
    <path d="M 415.40179443359375 369.5609130859375 C 215.21568298339844 401.2538757324219 335.9506530761719 404.961181640625 309.36480712890625 401.6953430175781 C 158.28717041015625 399.42987060546875 151.22618103027344 410.91009521484375 64.08491516113281 366.0867919921875 C 212.47097778320312 365.10455322265625 243.77597045898438 365.9300231933594 258.48968505859375 365.4985656738281 C 263.8466796875 366.7672119140625 312.2506408691406 363.1232604980469 415.40179443359375 369.5609130859375" stroke-width="0.0" fill="rgb(155, 122, 93)" opacity="0.96564496"/>
    <path d="M 552.624267578125 361.69696044921875 C 537.4529418945312 370.9129943847656 529.3967895507812 365.0431823730469 538.9132080078125 370.3902893066406 C 550.7056274414062 357.563232421875 582.858642578125 361.1506042480469 480.46075439453125 360.56683349609375 C 506.20892333984375 346.291259765625 550.706787109375 353.85870361328125 553.4428100585938 350.53607177734375 C 541.807861328125 359.6734313964844 562.83447265625 340.7934875488281 552.624267578125 361.69696044921875" stroke-width="0.0" fill="rgb(161, 130, 98)" opacity="1.0"/>
    <path d="M 574.48291015625 401.619873046875 C 553.39306640625 401.77520751953125 523.2130126953125 401.46966552734375 510.29266357421875 401.59649658203125 C 511.6189270019531 401.11456298828125 488.9027099609375 403.3641052246094 477.7682800292969 395.9948425292969 C 471.5158996582031 359.7564392089844 468.2119445800781 366.62591552734375 529.6682739257812 365.674072265625 C 555.5391845703125 366.6663513183594 536.4120483398438 358.88446044921875 574.48291015625 401.619873046875" stroke-width="0.0" fill="rgb(147, 118, 92)" opacity="0.97454834"/>
    <path d="M 133.76243591308594 296.9281921386719 C 140.17738342285156 296.02191162109375 109.30301666259766 306.17388916015625 102.9999771118164 307.3349304199219 C 87.3019027709961 294.6585388183594 77.72566986083984 287.52655029296875 61.278926849365234 275.9062805175781 C 83.33983612060547 271.7835998535156 107.54414367675781 266.6812438964844 110.69754791259766 267.306396484375 C 120.93072509765625 268.0462341308594 115.49583435058594 255.71116638183594 133.76243591308594 296.9281921386719" stroke-width="0.0" fill="rgb(240, 237, 230)" opacity="0.9908164"/>
    <path d="M 426.16192626953125 353.9849853515625 C 432.07611083984375 381.9267272949219 444.789794921875 404.7890930175781 405.0470275878906 400.6229248046875 C 296.2312927246094 412.92242431640625 292.07232666015625 405.7776184082031 293.595458984375 375.41802978515625 C 443.5107421875 373.2906799316406 454.9658508300781 377.1618957519531 430.4934997558594 369.5248718261719 C 424.1741638183594 351.5903625488281 429.0738220214844 361.65887451171875 426.16192626953125 353.9849853515625" stroke-width="0.0" fill="rgb(8, 8, 5)" opacity="0.91293716"/>
    <path d="M 451.41900634765625 372.2554931640625 C 469.6557922363281 367.498779296875 464.86334228515625 373.4114990234375 449.97412109375 365.042236328125 C 458.1036682128906 358.1651306152344 454.2088623046875 361.6169738769531 270.8285217285156 360.0953674316406 C 425.7733154296875 340.50103759765625 484.1346740722656 360.7830810546875 460.7234802246094 351.32098388671875 C 442.2999267578125 353.8787841796875 447.10101318359375 363.57098388671875 451.41900634765625 372.2554931640625" stroke-width="0.0" fill="rgb(160, 130, 101)" opacity="1.0"/>
    <path d="M 516.0346069335938 405.6710510253906 C 484.2169494628906 405.7550964355469 460.9877624511719 405.6343994140625 416.962646484375 405.7028503417969 C 376.9580383300781 405.372314453125 322.5848693847656 407.1046142578125 305.0932312011719 401.5944519042969 C 470.8809509277344 406.3186340332031 455.3722839355469 388.969970703125 440.1370544433594 360.66876220703125 C 469.88934326171875 357.7369384765625 460.8312683105469 391.9134826660156 516.0346069335938 405.6710510253906" stroke-width="0.0" fill="rgb(5, 4, 5)" opacity="0.98534894"/>
    <path d="M 513.6395263671875 372.93359375 C 504.9670715332031 397.5042724609375 515.8836059570312 402.5316467285156 492.0696105957031 401.41937255859375 C 456.6212158203125 399.661376953125 486.2542419433594 382.1863098144531 354.01727294921875 366.35791015625 C 457.0096740722656 365.7254333496094 462.3837890625 368.5480651855469 403.6715087890625 365.7178955078125 C 498.137939453125 366.0241394042969 509.467529296875 363.7867126464844 513.6395263671875 372.93359375" stroke-width="0.0" fill="rgb(153, 121, 95)" opacity="0.99563026"/>
    <path d="M 572.7056274414062 237.7473907470703 C 499.33453369140625 234.05831909179688 484.546630859375 238.25173950195312 491.7933654785156 236.55465698242188 C 498.8531494140625 237.7525177001953 484.6675720214844 235.9778594970703 452.8183898925781 242.49417114257812 C 442.0361022949219 195.64187622070312 469.158203125 210.4403076171875 494.9156188964844 208.5934600830078 C 517.9598999023438 187.06320190429688 541.1286010742188 184.31216430664062 572.7056274414062 237.7473907470703" stroke-width="0.0" fill="rgb(138, 153, 177)" opacity="0.9548262"/>
    <path d="M 29.881547927856445 386.6048278808594 C 126.68637084960938 385.95721435546875 133.73297119140625 391.5439453125 18.8616943359375 390.6851501464844 C 68.41661071777344 367.323974609375 86.7358627319336 370.5485534667969 0.898656964302063 379.8633117675781 C 112.89085388183594 378.3860778808594 129.5842742919922 382.4992370605469 115.3221435546875 375.4098815917969 C 60.37508010864258 377.7087097167969 61.14959716796875 369.028076171875 29.881547927856445 386.6048278808594" stroke-width="0.0" fill="rgb(3, 4, 2)" opacity="0.9446957"/>
    <path d="M 454.5912170410156 390.78924560546875 C 439.61822509765625 387.2960205078125 434.05609130859375 379.936767578125 491.4430847167969 401.4131774902344 C 457.02838134765625 401.6221618652344 432.3487243652344 401.4974670410156 251.34564208984375 401.45953369140625 C 304.8502197265625 358.35357666015625 377.3175048828125 397.5378723144531 456.91802978515625 365.73870849609375 C 426.3423156738281 364.10247802734375 448.6387939453125 380.9833984375 454.5912170410156 390.78924560546875" stroke-width="0.0" fill="rgb(147, 118, 91)" opacity="1.0"/>
    <path d="M 243.86871337890625 362.8914794921875 C 149.34194946289062 356.4659423828125 120.10325622558594 362.3320617675781 139.2547149658203 359.952392578125 C 159.75547790527344 363.066650390625 127.51393127441406 355.11383056640625 43.82026290893555 364.253662109375 C 130.27859497070312 365.39727783203125 151.18031311035156 364.0714416503906 137.9355010986328 365.58636474609375 C 122.2565689086914 363.2464599609375 151.3908233642578 368.4446105957031 243.86871337890625 362.8914794921875" stroke-width="0.0" fill="rgb(1, 0, 0)" opacity="0.97280395"/>
    <path d="M 234.47682189941406 333.0663146972656 C 247.4606475830078 304.0613708496094 239.28079223632812 310.9452819824219 225.73434448242188 303.04229736328125 C 219.62210083007812 305.7559814453125 236.80526733398438 313.0122985839844 198.9646759033203 337.8927917480469 C 218.35293579101562 312.9385070800781 217.26889038085938 276.884033203125 232.71478271484375 171.04713439941406 C 233.3043975830078 253.25827026367188 211.9065399169922 312.4949645996094 234.47682189941406 333.0663146972656" stroke-width="0.0" fill="rgb(0, 1, 1)" opacity="0.93415123"/>
    <path d="M 264.333984375 340.33746337890625 C 270.3181457519531 362.8076171875 268.88128662109375 361.079345703125 225.60728454589844 360.9050598144531 C 208.57858276367188 353.74114990234375 228.8093719482422 352.36627197265625 268.6353454589844 351.7115783691406 C 234.61410522460938 316.69842529296875 226.91860961914062 327.69561767578125 231.34786987304688 329.28326416015625 C 242.05918884277344 331.5426025390625 254.35867309570312 334.4318542480469 264.333984375 340.33746337890625" stroke-width="0.0" fill="rgb(86, 71, 55)" opacity="0.7573077"/>
    <path d="M 310.172119140625 360.4829406738281 C 252.11431884765625 359.81304931640625 241.07518005371094 362.70892333984375 241.2766876220703 353.9653015136719 C 245.13429260253906 354.5845947265625 253.020263671875 352.28399658203125 290.4820251464844 352.29010009765625 C 242.3759002685547 329.82977294921875 240.67657470703125 338.93426513671875 236.51394653320312 333.96234130859375 C 272.8377990722656 341.02142333984375 270.3589782714844 344.8101501464844 310.172119140625 360.4829406738281" stroke-width="0.0" fill="rgb(157, 128, 95)" opacity="1.0"/>
    <path d="M 270.614013671875 326.2787780761719 C 267.6655578613281 314.1285705566406 256.21881103515625 315.4553527832031 236.95001220703125 308.91064453125 C 247.38690185546875 316.0014343261719 233.87063598632812 304.4010925292969 219.56646728515625 306.2624816894531 C 229.96127319335938 264.298583984375 217.39486694335938 253.56227111816406 254.1571502685547 257.65850830078125 C 264.8052978515625 287.98602294921875 269.38201904296875 301.00946044921875 270.614013671875 326.2787780761719" stroke-width="0.0" fill="rgb(251, 246, 237)" opacity="0.96873015"/>
    <path d="M 339.93865966796875 338.8641052246094 C 349.44842529296875 350.96478271484375 289.56024169921875 337.9399719238281 322.7985534667969 344.3674011230469 C 352.2215270996094 347.7901611328125 333.6286315917969 345.4178771972656 283.92236328125 346.97039794921875 C 304.1143798828125 332.7341613769531 297.33233642578125 324.4557189941406 298.7410888671875 344.7553405761719 C 314.5057678222656 339.5928039550781 371.6322021484375 355.5044860839844 339.93865966796875 338.8641052246094" stroke-width="0.0" fill="rgb(167, 177, 174)" opacity="0.9866545"/>
    <path d="M 82.54389190673828 348.3050842285156 C 75.72412872314453 388.3542785644531 106.23944854736328 371.2904968261719 45.75165557861328 375.592041015625 C 40.456295013427734 366.9322204589844 27.436595916748047 360.44952392578125 68.99097442626953 361.49908447265625 C 70.06027221679688 364.6650085449219 68.66648864746094 329.3883972167969 69.6781997680664 334.40594482421875 C 145.5388946533203 307.4282531738281 134.29129028320312 344.14703369140625 82.54389190673828 348.3050842285156" stroke-width="0.0" fill="rgb(153, 120, 87)" opacity="0.9903376"/>
    <path d="M 507.7196044921875 331.5825500488281 C 509.99267578125 326.2397766113281 503.9537353515625 343.78192138671875 504.3074951171875 345.5263671875 C 518.6842651367188 347.4833068847656 507.26434326171875 331.8582458496094 515.847900390625 344.68829345703125 C 518.01123046875 347.43804931640625 513.9673461914062 335.86370849609375 516.2868041992188 345.17510986328125 C 501.34234619140625 344.5445556640625 520.0994873046875 348.3268127441406 507.7196044921875 331.5825500488281" stroke-width="0.0" fill="rgb(229, 226, 225)" opacity="0.9380162"/>
    <path d="M 265.070556640625 316.09881591796875 C 285.46075439453125 347.85455322265625 254.99105834960938 332.4616394042969 230.04347229003906 327.6138916015625 C 219.19117736816406 332.5379638671875 199.62750244140625 326.16937255859375 209.40069580078125 317.8559875488281 C 221.71942138671875 269.57861328125 220.24334716796875 232.71376037597656 220.76112365722656 304.6169128417969 C 228.13644409179688 304.9390563964844 247.10975646972656 311.017822265625 265.070556640625 316.09881591796875" stroke-width="0.0" fill="rgb(0, 0, 0)" opacity="0.52580655"/>
    <path d="M 237.93963623046875 326.4465637207031 C 231.569091796875 339.5653076171875 222.60020446777344 343.8245544433594 215.51353454589844 363.4819641113281 C 208.9433135986328 346.41839599609375 204.924560546875 340.6384582519531 201.17381286621094 335.47802734375 C 192.64793395996094 304.3467712402344 198.0865020751953 279.75311279296875 205.7918701171875 316.4858093261719 C 226.18753051757812 316.7587890625 232.79953002929688 315.0506896972656 237.93963623046875 326.4465637207031" stroke-width="0.0" fill="rgb(2, 1, 1)" opacity="0.9340018"/>
    <path d="M 118.39473724365234 270.9149475097656 C 133.54949951171875 288.881591796875 142.86776733398438 303.25 119.8341064453125 300.3122863769531 C 117.40108489990234 292.7447509765625 112.04691314697266 287.4056091308594 113.63341522216797 274.99676513671875 C 128.15052795410156 291.8392333984375 126.0164566040039 257.4287414550781 111.4315414428711 267.28826904296875 C 109.64360809326172 283.54217529296875 141.31329345703125 284.9881591796875 118.39473724365234 270.9149475097656" stroke-width="0.0" fill="rgb(132, 135, 146)" opacity="0.46592876"/>
    <path d="M 38.54689407348633 372.3571472167969 C 40.07646560668945 337.41400146484375 27.82034683227539 361.3873596191406 23.29043960571289 371.05072021484375 C 42.116310119628906 387.7492370605469 22.15996551513672 389.0129089355469 1.2213420867919922 380.0075378417969 C 31.010704040527344 365.77008056640625 33.690555572509766 356.96832275390625 19.656423568725586 363.5875244140625 C 21.041231155395508 380.2864990234375 43.87356948852539 373.833984375 38.54689407348633 372.3571472167969" stroke-width="0.0" fill="rgb(140, 154, 179)" opacity="1.0"/>
    <path d="M 250.4263458251953 358.91741943359375 C 249.11669921875 371.1688537597656 249.3210906982422 369.794677734375 250.26898193359375 360.3251953125 C 214.4986572265625 357.5323181152344 219.811279296875 366.0609130859375 219.61044311523438 352.892578125 C 266.6319580078125 351.4345703125 249.57911682128906 361.0802917480469 249.13038635253906 332.6961975097656 C 242.4759521484375 341.3055114746094 257.8059997558594 347.974609375 250.4263458251953 358.91741943359375" stroke-width="0.0" fill="rgb(161, 135, 106)" opacity="0.8653607"/>
    <path d="M 422.4954528808594 335.1244812011719 C 433.9158935546875 350.87835693359375 368.1922607421875 340.1820373535156 421.0623474121094 346.2949523925781 C 402.2549133300781 346.270751953125 382.2611389160156 346.46453857421875 354.8478088378906 346.397705078125 C 392.2664489746094 330.8305969238281 355.9285583496094 346.1242980957031 384.474853515625 344.5119934082031 C 409.0994567871094 340.8181457519531 452.3709411621094 356.3246765136719 422.4954528808594 335.1244812011719" stroke-width="0.0" fill="rgb(208, 223, 229)" opacity="0.8057918"/>
    <path d="M 278.1917419433594 347.47039794921875 C 249.90274047851562 347.9344482421875 238.50799560546875 347.5877380371094 212.8285675048828 347.7317199707031 C 213.25616455078125 369.4120178222656 228.82460021972656 354.1230773925781 87.16324615478516 359.84423828125 C 129.89566040039062 263.0634765625 176.56358337402344 318.9274597167969 212.145263671875 323.1110534667969 C 213.2565155029297 316.71270751953125 237.5009765625 329.0273742675781 278.1917419433594 347.47039794921875" stroke-width="0.0" fill="rgb(154, 122, 92)" opacity="0.9887129"/>
    <path d="M 316.4382629394531 388.8727111816406 C 477.9776306152344 387.4667663574219 442.5412902832031 393.4671630859375 381.02569580078125 393.4682922363281 C 269.04168701171875 392.4712829589844 296.2843322753906 397.6504211425781 293.25531005859375 383.51812744140625 C 299.6436767578125 366.1954040527344 335.71417236328125 382.2063293457031 329.30316162109375 376.4281921386719 C 317.42047119140625 381.4798278808594 313.8520202636719 371.2395324707031 316.4382629394531 388.8727111816406" stroke-width="0.0" fill="rgb(10, 7, 4)" opacity="0.9476204"/>
    <path d="M 403.6627502441406 300.67657470703125 C 416.58453369140625 317.9151916503906 449.7638244628906 358.13299560546875 409.157470703125 318.41888427734375 C 395.5413818359375 302.40045166015625 385.818603515625 289.8075256347656 372.0390930175781 275.54296875 C 353.2979431152344 263.019775390625 361.68463134765625 251.82577514648438 377.2079772949219 270.2169189453125 C 392.8438415527344 286.42138671875 401.2299499511719 297.150146484375 403.6627502441406 300.67657470703125" stroke-width="0.0" fill="rgb(2, 2, 4)" opacity="0.9561953"/>
    <path d="M 103.29234313964844 354.0712890625 C 103.37998962402344 366.7109375 105.02552032470703 367.1947937011719 90.32572174072266 353.2596435546875 C 87.50128936767578 367.6916198730469 81.00440979003906 371.7164001464844 81.63626861572266 347.8897705078125 C 79.73453521728516 349.44049072265625 94.6400146484375 347.90234375 102.24129486083984 348.2464294433594 C 102.14887237548828 350.3035583496094 103.83418273925781 343.7713317871094 103.29234313964844 354.0712890625" stroke-width="0.0" fill="rgb(0, 0, 2)" opacity="0.95991427"/>
    <path d="M 271.10772705078125 340.4784240722656 C 262.8985900878906 316.2934875488281 258.788330078125 318.601806640625 234.4517822265625 311.8396911621094 C 232.327392578125 320.3260803222656 217.06301879882812 318.6083068847656 221.19717407226562 315.1847229003906 C 224.53602600097656 323.70672607421875 245.63571166992188 309.6221923828125 224.8135986328125 310.2036437988281 C 213.09585571289062 319.89691162109375 232.7080535888672 317.0310363769531 271.10772705078125 340.4784240722656" stroke-width="0.0" fill="rgb(3, 30, 60)" opacity="0.95297706"/>
    <path d="M 311.7327880859375 380.0111389160156 C 311.068359375 392.8418273925781 314.96630859375 388.0911865234375 297.5878601074219 389.7351379394531 C 304.2142333984375 390.4097595214844 294.55181884765625 387.1123046875 298.3106384277344 387.9714050292969 C 298.7612609863281 387.8860778808594 297.9954833984375 378.99908447265625 298.9740905761719 378.470947265625 C 307.5597839355469 380.22869873046875 312.0274353027344 378.4222106933594 311.7327880859375 380.0111389160156" stroke-width="0.0" fill="rgb(159, 136, 108)" opacity="0.8868343"/>
    <path d="M 46.372657775878906 356.069091796875 C 36.13093185424805 358.5284423828125 40.31873321533203 348.48828125 39.84844970703125 378.9775390625 C 50.23973846435547 375.2555236816406 39.61623001098633 357.1096496582031 46.700408935546875 371.4029235839844 C 37.8214225769043 351.95172119140625 58.50391387939453 368.7799377441406 69.89954376220703 356.78582763671875 C 37.03578567504883 354.88409423828125 35.76839828491211 360.2994079589844 46.372657775878906 356.069091796875" stroke-width="0.0" fill="rgb(1, 1, 1)" opacity="0.9606321"/>
    <path d="M 484.6788635253906 389.9864807128906 C 474.0137939453125 398.1293640136719 460.6065979003906 397.38421630859375 456.4468688964844 393.59832763671875 C 456.4991149902344 395.25933837890625 445.64996337890625 392.1741943359375 437.58538818359375 386.01544189453125 C 439.2458801269531 376.90234375 447.148193359375 369.5343933105469 457.2396240234375 369.04766845703125 C 468.54913330078125 370.49908447265625 477.52374267578125 376.4201965332031 484.6788635253906 389.9864807128906" stroke-width="0.0" fill="rgb(150, 120, 90)" opacity="0.98716086"/>
    <path d="M 359.2286682128906 278.4848937988281 C 357.347412109375 295.86102294921875 361.1373596191406 329.3309326171875 355.4111022949219 350.3041076660156 C 347.1337890625 350.5045471191406 355.0433044433594 300.6611022949219 351.8101501464844 271.4835205078125 C 340.60791015625 301.6811828613281 358.108154296875 271.0705261230469 361.13214111328125 263.15472412109375 C 355.7253112792969 295.8092041015625 359.7984313964844 310.99005126953125 359.2286682128906 278.4848937988281" stroke-width="0.0" fill="rgb(0, 0, 1)" opacity="0.9792188"/>
    <path d="M 431.72723388671875 389.0363464355469 C 427.9599914550781 394.8521423339844 442.6551208496094 393.16375732421875 407.6450500488281 393.5222473144531 C 430.87261962890625 390.20751953125 426.087646484375 392.8662414550781 426.8049011230469 380.7987976074219 C 424.4815979003906 379.0157165527344 436.9270935058594 379.44757080078125 386.3066101074219 379.4398193359375 C 443.728759765625 371.364990234375 429.25433349609375 373.2207336425781 431.72723388671875 389.0363464355469" stroke-width="0.0" fill="rgb(10, 8, 6)" opacity="0.9223565"/>
    <path d="M 15.292651176452637 386.58209228515625 C 19.6789493560791 387.3775329589844 15.047428131103516 404.94732666015625 19.19945526123047 405.5267639160156 C 26.12045669555664 400.9035339355469 23.295791625976562 393.1219482421875 24.05038833618164 396.94061279296875 C 22.61756706237793 410.2630615234375 22.068824768066406 397.16650390625 22.416950225830078 390.77587890625 C 21.997068405151367 390.8563232421875 46.809776306152344 385.6517028808594 15.292651176452637 386.58209228515625" stroke-width="0.0" fill="rgb(0, 0, 3)" opacity="0.9606808"/>
    <path d="M 88.92887115478516 346.86474609375 C 98.53840637207031 354.730712890625 102.15913391113281 361.95416259765625 86.2845230102539 359.0610656738281 C 92.4808578491211 360.365234375 82.10292053222656 350.10125732421875 96.86990356445312 354.43017578125 C 88.43667602539062 345.7189636230469 87.38860321044922 346.5779724121094 92.38981628417969 348.089111328125 C 96.60845947265625 347.9842529296875 96.93544006347656 349.0352478027344 88.92887115478516 346.86474609375" stroke-width="0.0" fill="rgb(186, 213, 250)" opacity="0.73728806"/>
    <path d="M 413.539794921875 390.21942138671875 C 411.6487731933594 384.8092041015625 411.141845703125 382.6283264160156 413.7888488769531 391.24481201171875 C 408.9103698730469 394.9374694824219 400.94976806640625 392.8214111328125 407.4064025878906 394.25579833984375 C 411.251953125 383.15228271484375 405.12451171875 371.75775146484375 413.2130126953125 377.55810546875 C 413.3980407714844 387.9082946777344 413.1881103515625 384.4589538574219 413.539794921875 390.21942138671875" stroke-width="0.0" fill="rgb(3, 3, 4)" opacity="0.89205605"/>
    <path d="M 119.56378936767578 381.7207336425781 C 119.38019561767578 372.041015625 112.91187286376953 373.7215270996094 115.17924499511719 387.6988525390625 C 120.55928802490234 387.9491882324219 111.13612365722656 387.3631896972656 98.53301239013672 388.018310546875 C 93.85601043701172 371.7565002441406 106.86505889892578 369.9749450683594 100.34941864013672 391.71575927734375 C 124.76300811767578 388.6072998046875 118.6389389038086 396.0079040527344 119.56378936767578 381.7207336425781" stroke-width="0.0" fill="rgb(7, 6, 5)" opacity="0.9521577"/>
    <path d="M 198.37831115722656 312.95098876953125 C 129.9679412841797 293.0444030761719 142.55101013183594 301.295654296875 145.1267852783203 309.1148986816406 C 143.70309448242188 309.8231506347656 138.84620666503906 311.95751953125 145.2628936767578 309.07403564453125 C 136.67996215820312 293.5287780761719 151.09765625 302.8115234375 143.77906799316406 283.95465087890625 C 193.03292846679688 294.6223449707031 189.3082733154297 288.9772644042969 198.37831115722656 312.95098876953125" stroke-width="0.0" fill="rgb(4, 15, 29)" opacity="0.978044"/>
    <path d="M 96.93563079833984 387.7014465332031 C 109.05786895751953 385.0955505371094 97.95299530029297 387.05206298828125 105.52743530273438 387.55010986328125 C 97.9380111694336 390.7297668457031 97.06304168701172 378.63433837890625 99.71231842041016 372.9306945800781 C 98.44444274902344 388.5940856933594 98.9878921508789 363.5895690917969 108.38903045654297 339.565185546875 C 102.12269592285156 354.9565124511719 96.0982437133789 392.4151611328125 96.93563079833984 387.7014465332031" stroke-width="0.0" fill="rgb(33, 37, 31)" opacity="0.49289548"/>
    <path d="M 352.99041748046875 296.2574462890625 C 363.939208984375 315.7515563964844 359.7928466796875 310.7677917480469 351.7989807128906 292.73199462890625 C 351.55621337890625 306.8085021972656 350.6064453125 310.92987060546875 350.7072448730469 335.1009521484375 C 354.0546875 299.90960693359375 351.9915771484375 288.2692565917969 359.4136962890625 279.2559509277344 C 362.8670959472656 263.0990295410156 362.25439453125 263.0227355957031 352.99041748046875 296.2574462890625" stroke-width="0.0" fill="rgb(79, 88, 82)" opacity="0.52820563"/>
    <path d="M 432.7965393066406 340.9107971191406 C 420.2527770996094 331.349609375 420.3135986328125 339.2159118652344 405.7749938964844 337.154541015625 C 409.5061950683594 344.13592529296875 401.1729431152344 345.0456848144531 423.3944091796875 344.2200012207031 C 429.64996337890625 337.73028564453125 390.8194580078125 305.36883544921875 404.71044921875 301.26031494140625 C 419.1123962402344 319.3677978515625 430.6225891113281 330.2181701660156 432.7965393066406 340.9107971191406" stroke-width="0.0" fill="rgb(0, 0, 1)" opacity="0.7576204"/>
    <path d="M 156.61424255371094 219.1751708984375 C 155.89511108398438 231.09803771972656 149.37770080566406 259.41900634765625 142.87794494628906 293.1388244628906 C 141.3869171142578 239.36793518066406 151.41644287109375 232.38311767578125 146.34231567382812 253.45547485351562 C 137.29531860351562 254.0668182373047 158.8354034423828 236.78778076171875 163.25698852539062 193.88011169433594 C 142.39767456054688 240.4373779296875 143.70765686035156 269.9573059082031 156.61424255371094 219.1751708984375" stroke-width="0.0" fill="rgb(13, 19, 15)" opacity="0.56953776"/>
    <path d="M 71.2624282836914 293.3741455078125 C 77.47784423828125 298.72979736328125 96.38301849365234 313.05853271484375 87.02799224853516 306.53887939453125 C 67.96451568603516 303.4927673339844 61.812294006347656 299.4635314941406 55.86882400512695 289.3345642089844 C 52.43744659423828 280.2485046386719 70.23263549804688 292.9012756347656 76.6451644897461 298.5920715332031 C 65.93913269042969 288.1892395019531 84.22178649902344 306.7294006347656 71.2624282836914 293.3741455078125" stroke-width="0.0" fill="rgb(136, 150, 179)" opacity="0.9456252"/>
    <path d="M 112.79451751708984 322.7367858886719 C 120.23197937011719 325.3576965332031 117.8606185913086 324.6740417480469 115.24284362792969 323.4277648925781 C 107.2471923828125 314.8268127441406 103.72517395019531 301.59619140625 98.96836853027344 327.55523681640625 C 107.2505111694336 329.3326416015625 122.95014190673828 319.8674621582031 124.96556091308594 307.1664733886719 C 95.54241180419922 316.1419677734375 108.19625854492188 306.96746826171875 112.79451751708984 322.7367858886719" stroke-width="0.0" fill="rgb(157, 126, 97)" opacity="1.0"/>
    <path d="M 309.21868896484375 337.05731201171875 C 318.4394226074219 333.5107727050781 311.6568908691406 334.5198669433594 313.6251525878906 334.2123718261719 C 312.4881286621094 333.1807861328125 305.19482421875 333.0702819824219 313.4164733886719 333.5162048339844 C 309.3145751953125 333.9011535644531 306.1918029785156 331.9649353027344 294.84478759765625 334.78326416015625 C 302.6369323730469 333.85565185546875 315.72418212890625 335.84521484375 309.21868896484375 337.05731201171875" stroke-width="0.0" fill="rgb(150, 190, 221)" opacity="0.96716714"/>
    <path d="M 336.72418212890625 336.1513671875 C 304.29132080078125 329.0393981933594 329.6987609863281 338.7268371582031 313.8143615722656 335.120361328125 C 314.1161193847656 338.6668395996094 308.5681457519531 333.90093994140625 297.04638671875 333.3663024902344 C 300.5715637207031 334.3946228027344 306.18035888671875 336.29058837890625 310.55645751953125 335.06646728515625 C 320.4377746582031 335.5468444824219 314.6937255859375 337.0129699707031 336.72418212890625 336.1513671875" stroke-width="0.0" fill="rgb(113, 132, 146)" opacity="1.0"/>
    <path d="M 403.8260498046875 334.065673828125 C 399.474609375 333.9776916503906 391.3935241699219 337.1766357421875 383.74554443359375 335.2190856933594 C 393.34393310546875 332.7536926269531 380.9166259765625 332.11236572265625 390.4840393066406 331.67254638671875 C 390.0002136230469 333.67572021484375 384.1679992675781 330.2826232910156 367.84393310546875 336.6515808105469 C 388.47943115234375 337.18524169921875 397.6983642578125 327.7933044433594 403.8260498046875 334.065673828125" stroke-width="0.0" fill="rgb(0, 0, 0)" opacity="0.62898344"/>
    <path d="M 29.335416793823242 374.9379577636719 C 45.57978057861328 374.10943603515625 25.25777244567871 375.9424133300781 30.162933349609375 384.41815185546875 C 31.815977096557617 386.74676513671875 27.601905822753906 382.9289855957031 33.994510650634766 391.7289733886719 C 36.24052810668945 389.8611145019531 31.644838333129883 381.383544921875 36.70800018310547 376.571533203125 C 23.64455795288086 381.23944091796875 31.049846649169922 381.9375 29.335416793823242 374.9379577636719" stroke-width="0.0" fill="rgb(0, 0, 0)" opacity="0.83978057"/>
    <path d="M 148.26629638671875 267.00927734375 C 145.9010009765625 283.3186950683594 141.442626953125 285.57781982421875 138.03469848632812 288.3341979980469 C 139.69158935546875 292.9579772949219 137.4261016845703 284.916015625 137.8549041748047 286.435791015625 C 136.06089782714844 288.76239013671875 140.47531127929688 266.7972106933594 140.72360229492188 266.12957763671875 C 155.5001678466797 267.89569091796875 154.324462890625 267.52606201171875 148.26629638671875 267.00927734375" stroke-width="0.0" fill="rgb(120, 121, 118)" opacity="0.801115"/>
    <path d="M 142.98057556152344 281.9339294433594 C 146.6292266845703 299.2147216796875 145.88397216796875 304.0968017578125 145.3325958251953 296.5936279296875 C 154.54112243652344 302.4540100097656 150.00169372558594 298.62225341796875 134.24945068359375 299.983642578125 C 140.3614044189453 303.9179382324219 131.17388916015625 280.0736389160156 162.82901000976562 195.17665100097656 C 137.38731384277344 300.64642333984375 144.57337951660156 300.3976745605469 142.98057556152344 281.9339294433594" stroke-width="0.0" fill="rgb(0, 0, 0)" opacity="0.92657065"/>
    <path d="M 411.41070556640625 335.3706970214844 C 406.6273498535156 335.9097900390625 402.1419982910156 335.9402160644531 407.5425720214844 335.1653747558594 C 399.69720458984375 342.3208312988281 399.33953857421875 332.4520263671875 387.676025390625 325.6148986816406 C 386.492431640625 324.2375183105469 391.6952209472656 327.3061828613281 399.173828125 336.0340881347656 C 405.3066101074219 332.0856628417969 406.8080749511719 337.65826416015625 411.41070556640625 335.3706970214844" stroke-width="0.0" fill="rgb(205, 231, 255)" opacity="0.7178522"/>
    <path d="M 295.9791564941406 394.331787109375 C 292.8780822753906 394.9126892089844 290.2786865234375 398.2457580566406 297.3828430175781 395.96697998046875 C 296.4369201660156 403.18731689453125 294.1322021484375 396.048583984375 293.5712890625 387.0594787597656 C 287.5619201660156 406.7428894042969 292.0079650878906 400.13885498046875 294.6403503417969 401.46929931640625 C 293.58050537109375 399.3839111328125 303.6073303222656 405.91522216796875 295.9791564941406 394.331787109375" stroke-width="0.0" fill="rgb(138, 111, 86)" opacity="0.7072679"/>
    <path d="M 428.9754333496094 339.4692687988281 C 419.9144592285156 326.619140625 420.5755615234375 340.1620788574219 404.3109130859375 329.18988037109375 C 381.09246826171875 335.58319091796875 390.4008483886719 330.2434997558594 388.4851379394531 332.1436767578125 C 405.17730712890625 324.9866638183594 420.72052001953125 338.6453857421875 413.03204345703125 334.38824462890625 C 401.4509582519531 339.7392883300781 422.03558349609375 332.0714111328125 428.9754333496094 339.4692687988281" stroke-width="0.0" fill="rgb(98, 111, 120)" opacity="0.7868449"/>
    <path d="M 235.6885528564453 209.59695434570312 C 229.3616485595703 192.234130859375 226.8207244873047 217.134521484375 227.66436767578125 203.4108123779297 C 237.2161865234375 205.956787109375 229.41439819335938 193.52247619628906 235.71775817871094 206.75531005859375 C 237.81503295898438 218.14979553222656 240.8943328857422 206.08078002929688 231.1420135498047 205.53704833984375 C 230.911376953125 206.26025390625 236.3335418701172 204.19699096679688 235.6885528564453 209.59695434570312" stroke-width="0.0" fill="rgb(59, 54, 67)" opacity="0.96505916"/>
    <path d="M 361.0189208984375 275.29644775390625 C 356.1883239746094 320.28021240234375 357.1083068847656 345.2967834472656 357.4274597167969 338.6781005859375 C 374.7496032714844 336.4045715332031 367.35540771484375 329.8341064453125 369.4525146484375 328.1135559082031 C 368.0658874511719 339.2275085449219 367.78289794921875 333.1745300292969 381.4542541503906 331.7734069824219 C 383.34124755859375 333.6381530761719 398.2702331542969 327.6783447265625 361.0189208984375 275.29644775390625" stroke-width="0.0" fill="rgb(255, 255, 255)" opacity="0.5064996"/>
    <path d="M 265.88458251953125 290.18414306640625 C 261.1849670410156 266.7330627441406 258.82623291015625 273.805908203125 273.58270263671875 289.9737243652344 C 271.8990173339844 289.8865661621094 272.1601257324219 273.1585693359375 269.7926940917969 277.76580810546875 C 273.1343078613281 291.4552307128906 273.5719299316406 290.58758544921875 264.0762939453125 278.0953369140625 C 262.5909729003906 277.70458984375 270.7198486328125 294.31854248046875 265.88458251953125 290.18414306640625" stroke-width="0.0" fill="rgb(41, 46, 47)" opacity="1.0"/>
    <path d="M 396.2774963378906 343.7703552246094 C 415.6542053222656 343.8144226074219 379.312744140625 350.3951110839844 372.46832275390625 337.41326904296875 C 347.0160827636719 356.06842041015625 341.8367614746094 356.2517395019531 373.4223327636719 338.5412902832031 C 376.2237243652344 346.6725769042969 386.9803466796875 329.21795654296875 393.18975830078125 337.6348571777344 C 364.8409118652344 339.4092102050781 377.6034851074219 345.7615966796875 396.2774963378906 343.7703552246094" stroke-width="0.0" fill="rgb(95, 105, 115)" opacity="1.0"/>
    <path d="M 296.5978698730469 371.6231384277344 C 301.2369689941406 367.1291809082031 294.060546875 372.72052001953125 307.1089782714844 368.8668212890625 C 302.3305969238281 372.33673095703125 292.12103271484375 377.086669921875 294.8105163574219 375.108154296875 C 297.1507263183594 373.30072021484375 303.3982849121094 368.2856750488281 300.56182861328125 370.3582458496094 C 296.1577453613281 375.7203063964844 294.4490051269531 376.8758850097656 296.5978698730469 371.6231384277344" stroke-width="0.0" fill="rgb(177, 122, 96)" opacity="0.6125445"/>
    <path d="M 357.9796447753906 53.3570556640625 C 344.1741027832031 76.03486633300781 329.679931640625 78.80973052978516 297.8690490722656 91.10648345947266 C 278.78936767578125 89.75990295410156 277.3872985839844 75.38909149169922 285.8156433105469 55.95480728149414 C 293.22967529296875 42.63306427001953 300.5260009765625 35.26093673706055 310.7431640625 32.239200592041016 C 322.9552917480469 33.17951965332031 337.59930419921875 34.34494400024414 357.9796447753906 53.3570556640625" stroke-width="0.0" fill="rgb(138, 153, 176)" opacity="1.0"/>
    <path d="M 90.2098159790039 338.2392272949219 C 85.34418487548828 339.2431335449219 77.02802276611328 344.77947998046875 69.74147033691406 347.2992248535156 C 80.87428283691406 343.5989990234375 79.14630126953125 335.9977111816406 77.54076385498047 344.40118408203125 C 79.88356018066406 343.7978820800781 85.4636459350586 339.5327453613281 80.6559829711914 337.8630065917969 C 76.19403839111328 341.18402099609375 84.88536071777344 339.0537414550781 90.2098159790039 338.2392272949219" stroke-width="0.0" fill="rgb(158, 123, 88)" opacity="0.7683765"/>
    <path d="M 62.12664794921875 380.75726318359375 C 65.3121109008789 378.1787414550781 60.22657775878906 392.91339111328125 67.34228515625 402.8917236328125 C 64.74264526367188 387.373779296875 61.65657424926758 376.8852233886719 63.34656524658203 380.4725341796875 C 64.18140411376953 382.2013244628906 62.57654571533203 371.5560302734375 61.60202407836914 370.7147521972656 C 63.21357727050781 372.89080810546875 64.27392578125 380.9205322265625 62.12664794921875 380.75726318359375" stroke-width="0.0" fill="rgb(64, 52, 36)" opacity="0.23118368"/>
    <path d="M 355.1203918457031 424.96966552734375 C 346.8619384765625 439.6772155761719 337.4925231933594 444.9687194824219 325.3475341796875 442.3799743652344 C 314.6185302734375 442.7899475097656 306.8177490234375 435.8951110839844 300.1270751953125 424.2199401855469 C 303.7364196777344 411.5963134765625 311.1517028808594 404.63299560546875 323.864501953125 407.7093505859375 C 338.0111389160156 403.2466125488281 346.8365173339844 410.55657958984375 355.1203918457031 424.96966552734375" stroke-width="0.0" fill="rgb(220, 160, 129)" opacity="1.0"/>
    <path d="M 508.8025817871094 48.052398681640625 C 506.1849365234375 58.052207946777344 498.88677978515625 65.38323974609375 488.8946838378906 68.06769561767578 C 478.8852233886719 65.3988037109375 471.5562438964844 58.08283233642578 468.9085693359375 48.09629440307617 C 471.6031494140625 38.09018325805664 478.9136962890625 30.765106201171875 488.9041748046875 28.08295440673828 C 498.9049377441406 30.738666534423828 506.2199401855469 38.06126403808594 508.8025817871094 48.052398681640625" stroke-width="0.0" fill="rgb(138, 153, 177)" opacity="0.9824143"/>
    <path d="M 413.84930419921875 327.89019775390625 C 400.3953552246094 328.7823181152344 389.6266784667969 330.6337585449219 379.4957580566406 331.7812194824219 C 379.4898986816406 328.695556640625 370.21630859375 323.9255676269531 364.17059326171875 317.3269958496094 C 365.52349853515625 302.9587707519531 367.0287170410156 289.30755615234375 375.0715637207031 280.3851013183594 C 393.4764709472656 302.2270202636719 401.9031677246094 310.63092041015625 413.84930419921875 327.89019775390625" stroke-width="0.0" fill="rgb(252, 248, 237)" opacity="0.9443811"/>
    <path d="M 116.11873626708984 523.034423828125 C 113.1275405883789 533.101806640625 105.72628021240234 540.364990234375 95.75495910644531 542.8981323242188 C 85.79047393798828 540.3024291992188 78.44874572753906 533.0201416015625 75.43124389648438 522.9649047851562 C 78.21275329589844 512.9147338867188 85.56981658935547 505.55523681640625 95.72396087646484 502.6507263183594 C 105.87749481201172 505.56390380859375 113.23673248291016 512.9193725585938 116.11873626708984 523.034423828125" stroke-width="0.0" fill="rgb(138, 153, 177)" opacity="0.9855174"/>
    <path d="M 484.58050537109375 387.5565490722656 C 476.072265625 390.6585693359375 467.45635986328125 396.145751953125 474.7439270019531 393.4905090332031 C 480.7091369628906 395.3802185058594 471.4630126953125 390.7732238769531 465.0425109863281 386.269287109375 C 457.9783020019531 386.26092529296875 465.2633972167969 380.0662841796875 474.65374755859375 378.48651123046875 C 483.9254455566406 377.7570495605469 491.5816955566406 385.27960205078125 484.58050537109375 387.5565490722656" stroke-width="0.0" fill="rgb(149, 119, 89)" opacity="0.7849954"/>
    <path d="M 617.8003540039062 584.8759155273438 C 615.120849609375 594.8759155273438 607.8003540039062 602.1964111328125 597.4757080078125 605.2274169921875 C 586.5319213867188 603.4359741210938 578.074951171875 596.8595581054688 570.7002563476562 584.6942749023438 C 577.1238403320312 572.0301513671875 584.9868774414062 564.173828125 596.552490234375 559.0446166992188 C 607.94384765625 567.3014526367188 615.120849609375 574.8538208007812 617.8003540039062 584.8759155273438" stroke-width="0.0" fill="rgb(137, 152, 176)" opacity="0.9939772"/>
    <path d="M 39.771549224853516 154.6309814453125 C 36.141231536865234 164.89468383789062 28.577627182006836 172.068115234375 18.388599395751953 174.66136169433594 C 8.304811477661133 172.02365112304688 0.99538654088974 164.69114685058594 -1.6328916549682617 154.62045288085938 C 1.0309919118881226 144.56597900390625 8.339759826660156 137.22207641601562 18.373661041259766 134.5070343017578 C 28.45629119873047 137.23757934570312 35.96623229980469 144.47494506835938 39.771549224853516 154.6309814453125" stroke-width="0.0" fill="rgb(139, 153, 176)" opacity="0.9850139"/>
    <path d="M 270.2821960449219 207.27978515625 C 268.05047607421875 215.38714599609375 265.44024658203125 222.92446899414062 268.5971984863281 209.1070098876953 C 265.3504943847656 203.80384826660156 258.02947998046875 195.66700744628906 259.84307861328125 206.57957458496094 C 259.0198974609375 216.36859130859375 262.9612731933594 205.83995056152344 267.3262939453125 201.17697143554688 C 262.4837341308594 193.61016845703125 267.0415344238281 200.8711395263672 270.2821960449219 207.27978515625" stroke-width="0.0" fill="rgb(251, 246, 234)" opacity="0.771524"/>
    <path d="M 347.8270263671875 247.98260498046875 C 345.935546875 254.736083984375 338.62542724609375 261.5550842285156 331.4954528808594 264.15032958984375 C 344.3814392089844 271.5518493652344 336.7385559082031 266.9020690917969 332.6437072753906 263.477783203125 C 334.6478271484375 257.0360107421875 341.0493469238281 250.55360412597656 348.13232421875 247.95933532714844 C 351.8956298828125 252.48487854003906 356.97064208984375 258.74969482421875 347.8270263671875 247.98260498046875" stroke-width="0.0" fill="rgb(251, 246, 234)" opacity="0.8044917"/>
    <path d="M 276.1212158203125 163.77664184570312 C 270.2428894042969 176.00875854492188 262.9423522949219 183.30618286132812 250.88809204101562 189.73895263671875 C 240.46913146972656 187.00050354003906 233.21189880371094 178.30775451660156 228.14093017578125 162.50308227539062 C 228.78744506835938 150.8083038330078 237.28756713867188 141.76654052734375 246.8988494873047 140.6795196533203 C 264.51031494140625 149.50582885742188 274.4148864746094 152.660888671875 276.1212158203125 163.77664184570312" stroke-width="0.0" fill="rgb(251, 247, 237)" opacity="0.9716379"/>
    <path d="M 391.9664306640625 435.14617919921875 C 387.25225830078125 440.8295593261719 378.9632873535156 445.2062683105469 378.3164367675781 441.8938293457031 C 378.8869323730469 445.3373718261719 370.72796630859375 440.79498291015625 366.0886535644531 435.1077880859375 C 362.6817932128906 430.6991882324219 369.7041931152344 423.29638671875 379.5051574707031 418.482177734375 C 388.593017578125 422.6124267578125 395.3741760253906 430.4845886230469 391.9664306640625 435.14617919921875" stroke-width="0.0" fill="rgb(222, 160, 128)" opacity="0.64180577"/>
    <path d="M 174.70265197753906 582.6416625976562 C 164.19825744628906 596.7817993164062 155.0155029296875 602.9063110351562 142.62379455566406 604.597900390625 C 130.36947631835938 602.448974609375 121.42086029052734 596.0380859375 115.62383270263672 585.1541137695312 C 125.02265930175781 572.7551879882812 132.53176879882812 565.5374755859375 144.3717041015625 559.9129028320312 C 156.62313842773438 560.3507080078125 165.42303466796875 567.6073608398438 174.70265197753906 582.6416625976562" stroke-width="0.0" fill="rgb(138, 153, 177)" opacity="0.9219522"/>
  </g>
</svg>
