<?xml version="1.0" ?>
<svg xmlns="http://www.w3.org/2000/svg" version="1.1" width="600" height="600">
  <defs/>
  <g>
    <path d="M 381.6178283691406 598.8502197265625 C 378.0089416503906 620.7413330078125 361.7813415527344 622.1317138671875 250.38272094726562 620.4568481445312 C 193.87368774414062 613.0028076171875 189.41189575195312 600.929443359375 177.7311248779297 519.6641845703125 C 180.6199188232422 454.558837890625 203.8911895751953 468.9989013671875 259.9026794433594 494.63958740234375 C 324.63995361328125 484.9391784667969 351.31243896484375 468.7568359375 381.6178283691406 598.8502197265625" stroke-width="0.0" fill="rgb(138, 153, 176)" opacity="0.9969374"/>
    <path d="M 372.7726745605469 4.963733673095703 C 332.5865478515625 81.3174819946289 317.69696044921875 90.557373046875 237.48207092285156 131.843017578125 C 185.91590881347656 123.96965789794922 186.284423828125 125.72977447509766 212.07913208007812 44.26737976074219 C 223.0545654296875 -10.22999095916748 227.32261657714844 -19.13711929321289 288.4337463378906 -21.049591064453125 C 354.4042663574219 -23.355690002441406 368.9287414550781 -21.356338500976562 372.7726745605469 4.963733673095703" stroke-width="0.0" fill="rgb(96, 116, 148)" opacity="0.7319883"/>
    <path d="M 230.48097229003906 565.7616577148438 C 225.86839294433594 644.0308227539062 201.9107208251953 631.0952758789062 148.8784637451172 618.7975463867188 C 96.66534423828125 624.2203979492188 68.68215942382812 635.284423828125 54.10673141479492 604.0758056640625 C 88.84822082519531 540.2772216796875 102.45610046386719 533.2299194335938 190.99485778808594 484.66204833984375 C 219.91796875 491.4527893066406 223.4206085205078 506.29083251953125 230.48097229003906 565.7616577148438" stroke-width="0.0" fill="rgb(138, 153, 177)" opacity="0.9455081"/>
    <path d="M 625.3577270507812 197.06631469726562 C 658.143798828125 320.2006530761719 685.246337890625 344.9024963378906 523.0108032226562 336.89166259765625 C 432.05364990234375 278.3745422363281 452.3487548828125 219.829833984375 405.8932800292969 191.63751220703125 C 441.3447570800781 91.10193634033203 467.2256774902344 90.90636444091797 596.2474365234375 16.498958587646484 C 623.5690307617188 22.999305725097656 623.3321533203125 40.67409896850586 625.3577270507812 197.06631469726562" stroke-width="0.0" fill="rgb(138, 152, 177)" opacity="0.99986947"/>
    <path d="M 394.60174560546875 379.6043701171875 C 348.3457946777344 551.4880981445312 334.4222106933594 542.420166015625 288.96392822265625 518.0598754882812 C 217.92283630371094 524.8656005859375 184.3411102294922 550.3051147460938 169.60694885253906 396.7942199707031 C 137.22178649902344 309.8473205566406 117.0502700805664 265.283447265625 322.5833740234375 259.1835021972656 C 444.69110107421875 317.9090881347656 444.7677307128906 325.8514709472656 394.60174560546875 379.6043701171875" stroke-width="0.0" fill="rgb(140, 121, 99)" opacity="0.9539312"/>
    <path d="M 534.8802490234375 221.87234497070312 C 551.7545166015625 290.18658447265625 532.1536865234375 311.3393859863281 334.2604064941406 340.80279541015625 C 265.4653625488281 316.33758544921875 265.0926208496094 252.5483856201172 177.95106506347656 151.8009033203125 C 289.2734069824219 78.94031524658203 348.53759765625 113.63314056396484 424.1605224609375 87.72979736328125 C 450.5975036621094 89.81983184814453 465.9632568359375 95.81917572021484 534.8802490234375 221.87234497070312" stroke-width="0.0" fill="rgb(242, 239, 231)" opacity="0.946099"/>
    <path d="M 430.67364501953125 85.11724090576172 C 407.3349914550781 138.85166931152344 398.8964538574219 153.97396850585938 366.7637939453125 255.4008026123047 C 321.22113037109375 172.5943603515625 285.18316650390625 169.82408142089844 284.3811950683594 150.6327362060547 C 342.3506164550781 93.34075927734375 339.85650634765625 67.46660614013672 392.21380615234375 46.0396842956543 C 416.034912109375 51.382301330566406 428.2571716308594 57.926124572753906 430.67364501953125 85.11724090576172" stroke-width="0.0" fill="rgb(1, 1, 4)" opacity="0.9676778"/>
    <path d="M 213.50669860839844 358.40924072265625 C 179.8777313232422 539.087890625 160.09921264648438 526.9485473632812 82.28123474121094 522.165283203125 C 9.283112525939941 549.3341674804688 -12.584725379943848 567.5325927734375 -30.781187057495117 340.1593933105469 C -74.6535873413086 273.6261291503906 -90.00262451171875 255.87847900390625 169.67498779296875 212.08460998535156 C 275.1498107910156 241.8681640625 245.00296020507812 290.6794738769531 213.50669860839844 358.40924072265625" stroke-width="0.0" fill="rgb(115, 127, 155)" opacity="0.81624675"/>
    <path d="M 231.0798797607422 171.1864776611328 C 234.38587951660156 175.2591094970703 239.53842163085938 219.67092895507812 204.92063903808594 303.788330078125 C -56.093379974365234 271.8171081542969 -57.12604904174805 272.25518798828125 -38.29988479614258 232.04183959960938 C 58.088497161865234 36.1593017578125 95.46041870117188 43.957481384277344 145.9405517578125 12.268619537353516 C 153.88040161132812 20.914932250976562 158.04400634765625 32.68110656738281 231.0798797607422 171.1864776611328" stroke-width="0.0" fill="rgb(9, 10, 11)" opacity="1.0"/>
    <path d="M 164.4174041748047 2.9877426624298096 C 139.7751007080078 66.75112915039062 122.0682601928711 69.59215545654297 7.615068435668945 172.19027709960938 C -15.81024169921875 159.783935546875 -20.017812728881836 145.10009765625 -19.99036407470703 50.24314498901367 C -10.15634822845459 -47.66112518310547 14.742843627929688 -33.53483581542969 89.92432403564453 -21.33534812927246 C 150.58071899414062 -20.937973022460938 163.6486358642578 -17.89592933654785 164.4174041748047 2.9877426624298096" stroke-width="0.0" fill="rgb(139, 153, 177)" opacity="0.99957955"/>
    <path d="M 208.55218505859375 483.16375732421875 C 165.64154052734375 565.57275390625 144.77008056640625 569.4132080078125 43.85131072998047 620.0747680664062 C 0.23427404463291168 625.3421630859375 -13.263816833496094 623.44775390625 -19.553319931030273 561.8818969726562 C -11.818467140197754 432.6003723144531 15.4846773147583 456.0555725097656 95.25309753417969 477.778564453125 C 165.53561401367188 463.8981018066406 194.06033325195312 448.4869689941406 208.55218505859375 483.16375732421875" stroke-width="0.0" fill="rgb(137, 152, 176)" opacity="0.99964035"/>
    <path d="M 616.12890625 12.499333381652832 C 568.4869995117188 132.57525634765625 531.4608154296875 132.2677459716797 458.3775634765625 186.71511840820312 C 408.18731689453125 161.08782958984375 402.7253723144531 145.69540405273438 398.9602966308594 107.00569915771484 C 427.98248291015625 33.92292404174805 436.9875183105469 12.061237335205078 537.3050537109375 -20.392940521240234 C 586.9144287109375 -28.33148193359375 607.3699951171875 -33.94865798950195 616.12890625 12.499333381652832" stroke-width="0.0" fill="rgb(138, 153, 176)" opacity="1.0"/>
    <path d="M 618.7647705078125 375.7783203125 C 615.0821533203125 682.791015625 603.6884765625 678.2999267578125 524.1744384765625 634.5664672851562 C 312.78472900390625 612.6430053710938 315.97076416015625 597.4402465820312 341.124267578125 502.52362060546875 C 321.7845153808594 360.421630859375 278.4552307128906 348.93853759765625 497.36602783203125 342.7647399902344 C 598.03076171875 300.309326171875 611.3318481445312 306.03314208984375 618.7647705078125 375.7783203125" stroke-width="0.0" fill="rgb(138, 147, 169)" opacity="0.9684119"/>
    <path d="M 207.94198608398438 19.654024124145508 C 156.9076385498047 146.13685607910156 247.04425048828125 111.0667495727539 282.3836364746094 335.5201416015625 C 210.8173828125 100.77423095703125 152.06649780273438 95.13388061523438 131.3179473876953 30.837158203125 C 133.40647888183594 -8.543262481689453 134.6156768798828 -16.023996353149414 198.10000610351562 -20.02104377746582 C 250.3051300048828 -19.45880699157715 250.92901611328125 -14.34459400177002 207.94198608398438 19.654024124145508" stroke-width="0.0" fill="rgb(4, 4, 5)" opacity="0.9798834"/>
    <path d="M 393.921142578125 53.36368179321289 C 358.40582275390625 123.43679809570312 367.00579833984375 157.6695098876953 297.4879455566406 169.3556365966797 C 274.3057556152344 152.2209014892578 250.3970489501953 136.6333770751953 195.31846618652344 121.16722869873047 C 293.4855651855469 75.20531463623047 304.1964416503906 62.441139221191406 372.23272705078125 21.710298538208008 C 388.5960693359375 18.816804885864258 393.6596374511719 32.1784553527832 393.921142578125 53.36368179321289" stroke-width="0.0" fill="rgb(4, 6, 7)" opacity="0.9805385"/>
    <path d="M 515.904052734375 -6.545160293579102 C 484.5610656738281 68.96321868896484 469.8648376464844 82.57697296142578 406.9967956542969 106.50921630859375 C 366.69207763671875 99.0760269165039 353.8131103515625 92.64881896972656 334.3076171875 23.626611709594727 C 347.7348937988281 -35.10465621948242 366.0718688964844 -29.13506507873535 418.625732421875 -20.648160934448242 C 478.4972839355469 -22.151899337768555 497.5777587890625 -23.78566551208496 515.904052734375 -6.545160293579102" stroke-width="0.0" fill="rgb(138, 153, 177)" opacity="0.9995529"/>
    <path d="M 252.30873107910156 23.659326553344727 C 189.19212341308594 118.31930541992188 151.44692993164062 101.6269760131836 131.63198852539062 102.1509780883789 C 117.82060241699219 102.23458862304688 108.40756225585938 96.03956604003906 98.22237396240234 79.3046646118164 C 109.87039184570312 63.1415901184082 102.1700668334961 37.89201354980469 152.017578125 -21.564058303833008 C 233.6399688720703 -27.99350357055664 247.6741485595703 -22.86703872680664 252.30873107910156 23.659326553344727" stroke-width="0.0" fill="rgb(138, 153, 177)" opacity="1.0"/>
    <path d="M 372.0224914550781 105.10820770263672 C 364.8928527832031 149.29110717773438 368.856689453125 162.78184509277344 365.8371887207031 238.9014129638672 C 314.6761169433594 155.60516357421875 277.02264404296875 156.88644409179688 264.04595947265625 129.33657836914062 C 274.2144775390625 81.4059829711914 289.8072509765625 78.89974975585938 352.9781188964844 61.735294342041016 C 378.0510559082031 62.212806701660156 379.80889892578125 74.69295501708984 372.0224914550781 105.10820770263672" stroke-width="0.0" fill="rgb(135, 152, 178)" opacity="0.98370117"/>
    <path d="M 139.89645385742188 152.8245849609375 C 149.23094177246094 208.0640106201172 137.1304931640625 198.76788330078125 133.08460998535156 181.37457275390625 C 74.62850189208984 169.68206787109375 66.56401062011719 161.3555450439453 62.22079086303711 148.59088134765625 C 74.44380950927734 136.69749450683594 78.69432067871094 125.77141571044922 95.21195983886719 111.79491424560547 C 115.78951263427734 114.71134948730469 130.91986083984375 117.78886413574219 139.89645385742188 152.8245849609375" stroke-width="0.0" fill="rgb(144, 158, 188)" opacity="0.927438"/>
    <path d="M 192.74435424804688 74.92522430419922 C 216.7771453857422 197.7892303466797 201.4076385498047 167.0485382080078 196.07296752929688 168.25062561035156 C 112.00406646728516 138.8788299560547 96.04875183105469 180.0822296142578 108.52812194824219 117.16688537597656 C 120.64619445800781 88.7503890991211 131.03280639648438 83.19815063476562 153.8022918701172 69.178466796875 C 188.31390380859375 50.11725616455078 211.8961181640625 44.957733154296875 192.74435424804688 74.92522430419922" stroke-width="0.0" fill="rgb(135, 150, 178)" opacity="0.9812341"/>
    <path d="M 449.7933654785156 252.379150390625 C 431.0304870605469 187.023193359375 450.06329345703125 239.9690704345703 435.68328857421875 234.22567749023438 C 333.8072204589844 263.8224182128906 377.8611145019531 299.3566589355469 366.0304870605469 190.46153259277344 C 379.3042907714844 138.9736785888672 385.9814453125 129.11129760742188 377.4239196777344 165.2496795654297 C 421.8956604003906 182.69229125976562 418.743408203125 168.29051208496094 449.7933654785156 252.379150390625" stroke-width="0.0" fill="rgb(0, 1, 3)" opacity="0.9629182"/>
    <path d="M 70.91991424560547 154.7821044921875 C 58.69271469116211 165.80091857910156 53.50790786743164 176.13714599609375 31.903623580932617 199.0716094970703 C 12.357560157775879 195.62063598632812 -0.7543062567710876 190.283203125 -8.134587287902832 173.3004150390625 C 15.496752738952637 138.8386993408203 25.53070640563965 131.8128662109375 38.21375274658203 126.7158203125 C 54.18008804321289 137.796630859375 63.17615509033203 145.42242431640625 70.91991424560547 154.7821044921875" stroke-width="0.0" fill="rgb(139, 153, 176)" opacity="0.98083764"/>
    <path d="M 143.9002685546875 194.80435180664062 C 103.05330657958984 193.5362548828125 86.74447631835938 197.83544921875 50.92424011230469 202.4907684326172 C 42.92687225341797 210.66650390625 34.71485137939453 200.2965545654297 31.160688400268555 187.1802215576172 C 50.45886993408203 166.55740356445312 57.26826477050781 158.073486328125 70.20024108886719 143.82640075683594 C 82.22084045410156 153.71405029296875 104.44905853271484 147.93911743164062 143.9002685546875 194.80435180664062" stroke-width="0.0" fill="rgb(137, 152, 179)" opacity="0.98308676"/>
    <path d="M 357.85919189453125 517.6241455078125 C 325.74188232421875 551.876220703125 305.173583984375 547.9913330078125 281.05499267578125 546.4230346679688 C 257.18951416015625 543.6713256835938 232.70372009277344 550.83642578125 163.62464904785156 474.5170593261719 C 167.230712890625 424.8182678222656 191.82711791992188 446.1374206542969 316.1713562011719 444.6491394042969 C 363.62371826171875 429.6259765625 354.109130859375 456.9830017089844 357.85919189453125 517.6241455078125" stroke-width="0.0" fill="rgb(141, 153, 176)" opacity="0.9656639"/>
    <path d="M 521.5283203125 177.96298217773438 C 521.8712768554688 238.82058715820312 465.7141418457031 203.58377075195312 382.2748718261719 248.20497131347656 C 350.27734375 156.85731506347656 341.47015380859375 151.16873168945312 335.07037353515625 121.25711059570312 C 332.8356018066406 84.73994445800781 333.3263244628906 69.71766662597656 369.2950744628906 66.69881439208984 C 413.17376708984375 80.13177490234375 421.46295166015625 87.49578094482422 521.5283203125 177.96298217773438" stroke-width="0.0" fill="rgb(138, 153, 177)" opacity="0.99264735"/>
    <path d="M 301.8638916015625 125.0838851928711 C 299.272216796875 168.4664306640625 298.6138610839844 159.5677490234375 275.25225830078125 145.7313232421875 C 224.58065795898438 117.62538146972656 204.04580688476562 119.6874008178711 173.73245239257812 108.28858947753906 C 191.25494384765625 69.52738189697266 211.15786743164062 72.16757202148438 255.2473602294922 68.21942901611328 C 276.89886474609375 66.15238952636719 288.28607177734375 70.64627075195312 301.8638916015625 125.0838851928711" stroke-width="0.0" fill="rgb(137, 153, 180)" opacity="0.9616715"/>
    <path d="M 114.23487091064453 260.68841552734375 C 96.82573699951172 262.3935241699219 85.37057495117188 264.081298828125 52.31355667114258 270.8541259765625 C 54.59577941894531 392.0184631347656 21.182415008544922 371.7357177734375 -33.80192947387695 318.96533203125 C 16.223209381103516 217.72909545898438 31.24037742614746 211.98953247070312 67.35215759277344 194.81927490234375 C 79.57356262207031 216.0025177001953 89.15692138671875 224.7523956298828 114.23487091064453 260.68841552734375" stroke-width="0.0" fill="rgb(138, 152, 178)" opacity="0.97857726"/>
    <path d="M 401.3348388671875 179.0264129638672 C 397.1835021972656 197.9707794189453 414.9604797363281 246.6852264404297 304.8092956542969 314.1542053222656 C 414.07904052734375 211.83779907226562 352.902099609375 283.1611633300781 367.64501953125 194.2183380126953 C 324.145263671875 128.6116943359375 332.6607666015625 130.49761962890625 350.4942932128906 132.01480102539062 C 378.5765686035156 137.73031616210938 389.3951110839844 142.9357452392578 401.3348388671875 179.0264129638672" stroke-width="0.0" fill="rgb(0, 0, 2)" opacity="0.90780276"/>
    <path d="M 94.19125366210938 125.7813720703125 C 81.87747192382812 142.0908966064453 75.70185852050781 151.65281677246094 68.35564422607422 161.8242645263672 C 53.762420654296875 151.20404052734375 44.321311950683594 143.84423828125 35.67454147338867 133.9416046142578 C 45.49001693725586 120.77875518798828 54.42510223388672 114.17048645019531 73.8537826538086 100.04280853271484 C 85.09242248535156 103.35091400146484 92.43379974365234 112.44322204589844 94.19125366210938 125.7813720703125" stroke-width="0.0" fill="rgb(138, 153, 176)" opacity="1.0"/>
    <path d="M 133.11158752441406 108.2077865600586 C 133.7095489501953 129.32919311523438 127.12118530273438 139.02346801757812 108.2228775024414 140.42266845703125 C 80.47465515136719 130.6555938720703 71.78361511230469 122.91301727294922 66.1073226928711 110.88478088378906 C 80.5595932006836 91.82620239257812 89.45655059814453 85.1607437133789 107.64358520507812 72.1148910522461 C 118.50989532470703 75.82084655761719 125.71463012695312 85.04532623291016 133.11158752441406 108.2077865600586" stroke-width="0.0" fill="rgb(139, 154, 177)" opacity="0.9802636"/>
    <path d="M 372.51690673828125 62.590118408203125 C 364.9479675292969 110.11140441894531 347.0394287109375 111.69589233398438 295.59344482421875 123.9198989868164 C 263.3487548828125 121.95584869384766 256.90179443359375 111.82817077636719 253.6825714111328 95.49188232421875 C 271.0654296875 44.75853729248047 285.219970703125 38.5749626159668 332.7381896972656 18.771791458129883 C 351.9415588378906 17.299985885620117 362.3648376464844 22.330522537231445 372.51690673828125 62.590118408203125" stroke-width="0.0" fill="rgb(138, 153, 177)" opacity="0.72956955"/>
    <path d="M 77.83233642578125 213.60348510742188 C 65.62539672851562 233.0298614501953 54.06278991699219 240.1773223876953 11.035303115844727 267.5874328613281 C -10.578022003173828 263.1492919921875 -14.291341781616211 247.2538604736328 -16.849323272705078 210.08042907714844 C -11.598211288452148 175.26724243164062 -3.045595407485962 166.24017333984375 21.521574020385742 165.0418243408203 C 56.96382141113281 175.50997924804688 66.1867904663086 183.31710815429688 77.83233642578125 213.60348510742188" stroke-width="0.0" fill="rgb(141, 155, 178)" opacity="0.5334836"/>
    <path d="M 507.978515625 346.5459899902344 C 585.3784790039062 342.2827453613281 564.3143310546875 369.5715026855469 485.36639404296875 386.7554016113281 C 395.1709289550781 377.8452453613281 368.43865966796875 345.7759704589844 449.83526611328125 346.5974426269531 C 463.35980224609375 350.1221923828125 455.50634765625 325.2818298339844 562.02685546875 223.30276489257812 C 540.6107177734375 245.6627960205078 520.09423828125 323.12255859375 507.978515625 346.5459899902344" stroke-width="0.0" fill="rgb(5, 7, 9)" opacity="0.98867863"/>
    <path d="M 414.40380859375 164.90057373046875 C 409.4894714355469 178.98899841308594 398.65399169921875 184.76300048828125 354.8140563964844 194.12977600097656 C 326.765380859375 190.10414123535156 318.1242980957031 178.65289306640625 305.0200500488281 144.96656799316406 C 320.6036376953125 110.77124786376953 336.30364990234375 109.74584197998047 359.04248046875 112.49901580810547 C 377.1843566894531 122.8741455078125 392.1511535644531 124.78958129882812 414.40380859375 164.90057373046875" stroke-width="0.0" fill="rgb(139, 154, 177)" opacity="1.0"/>
    <path d="M 419.0504455566406 189.27902221679688 C 414.12152099609375 233.4336700439453 403.392822265625 236.31964111328125 374.2227478027344 252.5875244140625 C 362.0469055175781 235.04356384277344 355.58587646484375 213.30654907226562 343.4615173339844 185.08731079101562 C 337.0187683105469 169.11917114257812 342.9103088378906 159.5028839111328 387.4414367675781 151.79100036621094 C 412.0163269042969 153.3008270263672 418.6912841796875 162.54058837890625 419.0504455566406 189.27902221679688" stroke-width="0.0" fill="rgb(139, 153, 177)" opacity="0.9862847"/>
    <path d="M 567.8091430664062 380.4389953613281 C 520.79541015625 434.82025146484375 504.8749694824219 435.46685791015625 490.8022155761719 426.2341003417969 C 467.4733581542969 424.64117431640625 407.21478271484375 465.87640380859375 274.3427734375 358.7124328613281 C 490.7401123046875 372.32080078125 401.2411193847656 302.7794189453125 441.03424072265625 345.5343933105469 C 539.817626953125 344.7839660644531 539.6195678710938 344.5430603027344 567.8091430664062 380.4389953613281" stroke-width="0.0" fill="rgb(7, 5, 4)" opacity="0.9767197"/>
    <path d="M 222.91690063476562 323.4924621582031 C 206.0997314453125 397.5863037109375 173.2474822998047 368.6864318847656 184.28172302246094 365.6718444824219 C 135.17616271972656 366.46246337890625 112.79975891113281 385.6045227050781 50.82258987426758 362.54522705078125 C 116.09814453125 301.67626953125 144.6688690185547 282.05340576171875 208.16030883789062 314.9529113769531 C 157.31922912597656 336.30853271484375 141.31520080566406 324.6441955566406 222.91690063476562 323.4924621582031" stroke-width="0.0" fill="rgb(127, 100, 76)" opacity="0.9303294"/>
    <path d="M 355.4047546386719 339.7173767089844 C 449.64111328125 318.11309814453125 433.9569396972656 330.30279541015625 412.2066650390625 352.4849548339844 C 238.5381622314453 345.7503967285156 275.2920227050781 370.318359375 233.8941650390625 304.7644958496094 C 278.3794860839844 276.5088806152344 299.560546875 287.9344177246094 347.5939025878906 284.72406005859375 C 298.9068908691406 342.28350830078125 296.2276916503906 313.8306579589844 355.4047546386719 339.7173767089844" stroke-width="0.0" fill="rgb(11, 12, 13)" opacity="0.9805928"/>
    <path d="M 227.79800415039062 201.4444122314453 C 316.3968505859375 365.2789001464844 256.39923095703125 398.6912536621094 217.96112060546875 380.1568603515625 C 207.10955810546875 325.60723876953125 206.6071014404297 307.318115234375 172.08111572265625 290.1395263671875 C 180.51063537597656 298.6827392578125 233.01133728027344 328.400634765625 148.13510131835938 166.1208953857422 C 139.5620880126953 155.5632781982422 256.7756652832031 188.86289978027344 227.79800415039062 201.4444122314453" stroke-width="0.0" fill="rgb(248, 244, 236)" opacity="0.97714597"/>
    <path d="M 208.20242309570312 317.9080505371094 C 213.71597290039062 356.07818603515625 239.63925170898438 324.40960693359375 152.20806884765625 302.169677734375 C 67.20466613769531 300.1615295410156 58.730525970458984 432.29144287109375 60.34326934814453 327.46392822265625 C 169.7094268798828 309.5852966308594 -20.21345329284668 294.9053955078125 104.84403228759766 268.88360595703125 C 202.7860870361328 239.21804809570312 186.4242401123047 251.3490447998047 208.20242309570312 317.9080505371094" stroke-width="0.0" fill="rgb(11, 11, 10)" opacity="1.0"/>
    <path d="M 568.8312377929688 381.8255615234375 C 602.9815063476562 422.5447692871094 581.4178466796875 401.34210205078125 511.4563293457031 406.27471923828125 C 486.99951171875 405.4064025878906 474.3516845703125 399.9024353027344 572.7638549804688 399.0568542480469 C 507.6127624511719 358.83563232421875 468.6849060058594 256.22930908203125 526.2922973632812 347.0094299316406 C 603.7745971679688 340.4801025390625 531.8416748046875 355.47613525390625 568.8312377929688 381.8255615234375" stroke-width="0.0" fill="rgb(4, 3, 4)" opacity="0.97548175"/>
    <path d="M 324.8623962402344 425.97796630859375 C 249.0386199951172 448.769287109375 194.6900634765625 444.154296875 133.42999267578125 444.5218200683594 C 60.08774185180664 445.3498840332031 -13.07232666015625 441.9595642089844 -30.276805877685547 448.4914245605469 C 75.20024871826172 325.5097961425781 112.20138549804688 374.76123046875 137.78778076171875 391.9163818359375 C 158.39964294433594 386.6822814941406 201.2142333984375 357.2596740722656 324.8623962402344 425.97796630859375" stroke-width="0.0" fill="rgb(224, 161, 128)" opacity="0.91180336"/>
    <path d="M 671.1080322265625 441.405029296875 C 564.8853149414062 446.7464294433594 510.544189453125 443.63165283203125 496.107177734375 444.7203369140625 C 479.0609436035156 444.3787841796875 415.31146240234375 444.7091064453125 208.92137145996094 444.5548400878906 C 328.2088317871094 303.3148498535156 472.12811279296875 395.1517333984375 481.93865966796875 400.33331298828125 C 531.8709716796875 416.9521179199219 637.6851196289062 384.3685607910156 671.1080322265625 441.405029296875" stroke-width="0.0" fill="rgb(216, 158, 129)" opacity="0.9676825"/>
    <path d="M 355.2359924316406 267.9601745605469 C 327.6826171875 293.94134521484375 319.43292236328125 306.1379699707031 282.68157958984375 341.3567810058594 C 282.6761779785156 335.5535888671875 276.5978698730469 307.3904724121094 267.94287109375 260.31329345703125 C 257.0830993652344 208.8566131591797 223.99136352539062 196.0723419189453 276.6196594238281 155.3569793701172 C 347.2378845214844 209.2327117919922 367.1549377441406 249.91925048828125 355.2359924316406 267.9601745605469" stroke-width="0.0" fill="rgb(251, 247, 236)" opacity="0.96697515"/>
    <path d="M 196.45603942871094 301.2342224121094 C 156.87216186523438 325.2492980957031 137.82618713378906 246.56564331054688 137.362548828125 289.9239807128906 C 124.73562622070312 263.36273193359375 123.1600112915039 259.1438903808594 82.21018981933594 205.86793518066406 C 80.03816986083984 205.0369873046875 115.85635375976562 198.02044677734375 157.75332641601562 203.777587890625 C 155.76292419433594 234.382080078125 152.10789489746094 166.7161865234375 196.45603942871094 301.2342224121094" stroke-width="0.0" fill="rgb(240, 237, 229)" opacity="0.9899945"/>
    <path d="M 55.722991943359375 204.33436584472656 C 36.77701187133789 227.42800903320312 28.849348068237305 236.55035400390625 1.7851811647415161 259.3490905761719 C -8.617741584777832 249.21620178222656 -10.483126640319824 234.88844299316406 -9.78083324432373 214.69654846191406 C -10.679449081420898 194.61648559570312 -7.104869365692139 182.1431427001953 10.553791046142578 176.5200958251953 C 37.79843521118164 184.83078002929688 48.18212890625 191.57215881347656 55.722991943359375 204.33436584472656" stroke-width="0.0" fill="rgb(139, 153, 176)" opacity="1.0"/>
    <path d="M 343.6482238769531 437.3574523925781 C 300.5513610839844 393.22625732421875 332.46368408203125 409.0155944824219 277.7464599609375 405.581787109375 C 221.61611938476562 405.76324462890625 201.71592712402344 405.68597412109375 140.2977294921875 405.2790222167969 C 221.64913940429688 349.5710144042969 219.69677734375 326.4295959472656 257.39898681640625 291.7228698730469 C 297.6502990722656 389.2988586425781 306.7083435058594 396.96484375 343.6482238769531 437.3574523925781" stroke-width="0.0" fill="rgb(6, 4, 6)" opacity="0.9943863"/>
    <path d="M 233.48606872558594 375.44329833984375 C 206.8822479248047 416.6881103515625 186.4409942626953 404.25823974609375 132.2530517578125 406.8321228027344 C 85.39901733398438 401.31610107421875 8.097661972045898 452.1085205078125 16.432937622070312 387.0090637207031 C 38.87807083129883 335.51617431640625 48.34748077392578 364.2529296875 140.35386657714844 358.9695129394531 C 184.80120849609375 363.0283203125 221.3506317138672 349.2670593261719 233.48606872558594 375.44329833984375" stroke-width="0.0" fill="rgb(4, 21, 10)" opacity="0.36913505"/>
    <path d="M 548.2052612304688 244.66453552246094 C 513.62158203125 239.54287719726562 500.58001708984375 245.8157501220703 483.12615966796875 242.93243408203125 C 505.2274475097656 245.42466735839844 482.7196044921875 242.0192413330078 447.025390625 250.73094177246094 C 433.4792175292969 199.60391235351562 453.6593322753906 241.7659912109375 492.6933288574219 227.1173553466797 C 497.3608093261719 236.61920166015625 552.1798706054688 210.57601928710938 548.2052612304688 244.66453552246094" stroke-width="0.0" fill="rgb(8, 8, 10)" opacity="0.9993578"/>
    <path d="M 111.01129913330078 407.0493469238281 C 93.69635772705078 429.1056823730469 85.7792739868164 437.099853515625 69.46154022216797 444.6570739746094 C 44.08679962158203 443.44793701171875 21.52094268798828 452.0943298339844 -7.148207187652588 404.7324523925781 C 54.246036529541016 408.7528076171875 98.09638977050781 404.1468505859375 103.08621215820312 408.3726501464844 C 84.78746032714844 390.7861633300781 87.76846313476562 405.0943603515625 111.01129913330078 407.0493469238281" stroke-width="0.0" fill="rgb(220, 161, 132)" opacity="1.0"/>
    <path d="M 447.0608825683594 360.4444580078125 C 482.5923156738281 392.2686767578125 488.5892639160156 388.6514587402344 472.99090576171875 397.2817687988281 C 461.71844482421875 396.00628662109375 457.73699951171875 385.54339599609375 434.1949462890625 352.0198974609375 C 406.4653625488281 351.08782958984375 425.9164123535156 351.3046875 509.614013671875 351.2823791503906 C 547.1689453125 350.95074462890625 543.3351440429688 362.0101318359375 447.0608825683594 360.4444580078125" stroke-width="0.0" fill="rgb(158, 128, 99)" opacity="0.9954536"/>
    <path d="M 162.31106567382812 405.47003173828125 C 89.8234634399414 405.2898864746094 85.29598999023438 406.0537414550781 112.40913391113281 406.43414306640625 C 81.10292053222656 403.37652587890625 2.7485263347625732 408.4555969238281 18.565279006958008 402.1313781738281 C 67.92765045166016 398.0155944824219 78.12193298339844 413.13427734375 80.22282409667969 369.4790344238281 C 89.73808288574219 407.87103271484375 65.31336212158203 367.4549255371094 162.31106567382812 405.47003173828125" stroke-width="0.0" fill="rgb(6, 5, 5)" opacity="0.97613347"/>
    <path d="M 121.98914337158203 407.2084655761719 C 114.84049224853516 414.4364318847656 101.19884490966797 419.3839111328125 92.62384796142578 410.4510192871094 C 76.18099975585938 415.7059326171875 64.91458892822266 407.1259460449219 105.84661865234375 405.0827941894531 C 20.038488388061523 400.2239685058594 53.674163818359375 378.6590576171875 213.943603515625 401.3269348144531 C 50.89779281616211 402.2959899902344 43.855491638183594 398.5404968261719 121.98914337158203 407.2084655761719" stroke-width="0.0" fill="rgb(202, 159, 124)" opacity="0.670289"/>
    <path d="M 408.5300598144531 369.41259765625 C 214.11473083496094 396.0528869628906 335.78155517578125 404.9439697265625 308.6284484863281 401.7055969238281 C 159.4499969482422 399.2816162109375 154.0069580078125 411.3505554199219 65.03738403320312 366.2463684082031 C 212.37924194335938 364.9934387207031 243.5568084716797 366.00518798828125 258.35107421875 365.4572448730469 C 263.31304931640625 366.9318542480469 310.39080810546875 363.0718078613281 408.5300598144531 369.41259765625" stroke-width="0.0" fill="rgb(155, 121, 93)" opacity="0.96556526"/>
    <path d="M 552.617431640625 361.6976318359375 C 537.8789672851562 370.9109802246094 529.400634765625 364.67108154296875 539.0445556640625 370.49835205078125 C 550.6670532226562 357.5409851074219 582.6259765625 361.1319274902344 480.5793151855469 360.5790710449219 C 506.60833740234375 346.2623291015625 550.4766235351562 353.8859558105469 553.5360107421875 350.5621643066406 C 541.767822265625 359.6715087890625 562.771484375 340.7962646484375 552.617431640625 361.6976318359375" stroke-width="0.0" fill="rgb(161, 130, 98)" opacity="1.0"/>
    <path d="M 574.4656982421875 401.638916015625 C 553.3553466796875 401.8108825683594 523.2129516601562 401.4704895019531 510.29388427734375 401.6005859375 C 511.6399230957031 401.12384033203125 488.9319152832031 403.366943359375 477.7579650878906 396.110595703125 C 471.62664794921875 359.8497619628906 468.4867858886719 366.6122131347656 529.7677001953125 365.6751708984375 C 555.481201171875 366.7093200683594 536.4201049804688 358.8307800292969 574.4656982421875 401.638916015625" stroke-width="0.0" fill="rgb(147, 118, 92)" opacity="0.97424054"/>
    <path d="M 133.75599670410156 297.0257873535156 C 139.8927459716797 295.94305419921875 109.34941864013672 306.1412353515625 102.93614959716797 307.3392333984375 C 87.3058090209961 294.6461486816406 77.7203598022461 287.5191345214844 61.26277160644531 275.9872741699219 C 83.29380798339844 271.69970703125 107.85620880126953 266.6605529785156 110.76876068115234 267.3068542480469 C 120.95983123779297 268.0298767089844 115.40910339355469 255.7166748046875 133.75599670410156 297.0257873535156" stroke-width="0.0" fill="rgb(241, 238, 231)" opacity="0.9910593"/>
    <path d="M 426.21295166015625 353.9730224609375 C 432.0792541503906 381.9264831542969 444.7889099121094 404.7892150878906 404.9349060058594 400.342529296875 C 296.5308532714844 413.140869140625 292.30255126953125 405.7244567871094 293.5932312011719 375.4872131347656 C 443.3677978515625 372.82220458984375 454.9014587402344 378.0405578613281 430.50469970703125 369.5391540527344 C 424.18487548828125 351.5877990722656 429.0760803222656 361.65887451171875 426.21295166015625 353.9730224609375" stroke-width="0.0" fill="rgb(11, 11, 7)" opacity="0.93673575"/>
    <path d="M 451.4256286621094 372.26416015625 C 469.6557922363281 367.498779296875 464.85382080078125 373.4297790527344 450.1687316894531 365.4137878417969 C 458.2206115722656 357.9726257324219 454.2001037597656 361.6890563964844 272.1191101074219 360.0882873535156 C 426.0995178222656 340.5288391113281 483.80877685546875 360.9077453613281 460.5844421386719 351.3656921386719 C 442.3677673339844 353.947265625 447.15679931640625 363.5821228027344 451.4256286621094 372.26416015625" stroke-width="0.0" fill="rgb(160, 130, 101)" opacity="1.0"/>
    <path d="M 515.4216918945312 405.6441955566406 C 484.21319580078125 405.770263671875 460.98492431640625 405.64080810546875 416.95086669921875 405.72015380859375 C 377.0657043457031 405.3454284667969 322.70416259765625 406.9609680175781 305.1881103515625 402.0280456542969 C 470.7147521972656 405.4049072265625 455.3583984375 388.2852478027344 440.155517578125 360.6896667480469 C 469.5735778808594 357.76708984375 461.1438293457031 391.1207580566406 515.4216918945312 405.6441955566406" stroke-width="0.0" fill="rgb(5, 4, 6)" opacity="0.9856401"/>
    <path d="M 513.39990234375 372.9228515625 C 505.1123352050781 397.32000732421875 515.9119262695312 402.61767578125 491.98944091796875 401.4255065917969 C 456.4289855957031 400.2018737792969 486.1114501953125 381.585693359375 354.8455810546875 366.3465270996094 C 456.6099548339844 365.6626281738281 461.9728698730469 368.4485168457031 403.872314453125 365.7083435058594 C 498.17645263671875 365.9577941894531 509.4551696777344 363.77374267578125 513.39990234375 372.9228515625" stroke-width="0.0" fill="rgb(153, 121, 95)" opacity="0.9908699"/>
    <path d="M 572.6306762695312 237.7556915283203 C 499.2325134277344 234.08087158203125 484.73358154296875 238.27133178710938 491.7506103515625 236.5562286376953 C 498.95452880859375 237.7749481201172 484.57080078125 236.00692749023438 452.8475036621094 242.4987335205078 C 442.0586242675781 195.54042053222656 469.1022033691406 210.39950561523438 494.9230651855469 208.56858825683594 C 517.9598999023438 187.08340454101562 541.0977783203125 184.3446502685547 572.6306762695312 237.7556915283203" stroke-width="0.0" fill="rgb(138, 153, 177)" opacity="0.9539926"/>
    <path d="M 30.868066787719727 386.4654541015625 C 126.61463165283203 386.38690185546875 133.5757598876953 391.4210205078125 17.506452560424805 390.705078125 C 68.7142105102539 367.86834716796875 85.45611572265625 368.30572509765625 1.2677226066589355 380.18450927734375 C 113.06510925292969 377.83660888671875 129.49093627929688 382.9820251464844 115.32642364501953 375.281494140625 C 63.734413146972656 379.1609802246094 60.5764045715332 367.4308166503906 30.868066787719727 386.4654541015625" stroke-width="0.0" fill="rgb(2, 4, 2)" opacity="0.93806034"/>
    <path d="M 454.5912170410156 390.7661437988281 C 439.61822509765625 387.2958068847656 434.0081787109375 380.0608215332031 490.9710388183594 401.4109802246094 C 457.0777282714844 401.58184814453125 432.364990234375 401.5740051269531 253.78219604492188 401.4497985839844 C 308.7048645019531 358.93670654296875 379.77520751953125 396.08251953125 457.4161071777344 367.7157287597656 C 426.28558349609375 363.876708984375 448.6177978515625 380.94915771484375 454.5912170410156 390.7661437988281" stroke-width="0.0" fill="rgb(147, 118, 91)" opacity="1.0"/>
    <path d="M 240.74502563476562 362.8939514160156 C 148.83741760253906 356.1905517578125 120.78048706054688 362.3076171875 138.9027557373047 359.8932189941406 C 159.13616943359375 363.222900390625 127.94075775146484 354.7672119140625 45.25900650024414 364.1895751953125 C 130.38560485839844 365.5036926269531 151.1792449951172 364.015869140625 137.5286407470703 365.6548156738281 C 123.03661346435547 363.04150390625 150.71290588378906 368.59814453125 240.74502563476562 362.8939514160156" stroke-width="0.0" fill="rgb(2, 0, 1)" opacity="0.9752485"/>
    <path d="M 233.0469207763672 331.962646484375 C 247.60719299316406 304.0356140136719 239.34678649902344 311.0272216796875 225.29026794433594 302.86865234375 C 218.86251831054688 305.6705017089844 236.35317993164062 312.9581298828125 199.59571838378906 336.60430908203125 C 218.0211639404297 312.8484802246094 217.26780700683594 277.9418029785156 232.54197692871094 171.4884490966797 C 233.27662658691406 255.9569091796875 211.67408752441406 311.34869384765625 233.0469207763672 331.962646484375" stroke-width="0.0" fill="rgb(2, 4, 4)" opacity="0.9400094"/>
    <path d="M 264.3346862792969 340.3844299316406 C 270.33038330078125 362.85809326171875 268.7315673828125 361.0505676269531 226.89439392089844 360.92724609375 C 207.4695281982422 354.0265197753906 228.4014434814453 352.3834228515625 268.69537353515625 351.75286865234375 C 232.95750427246094 317.3703918457031 227.1888885498047 326.23382568359375 231.56808471679688 328.0256652832031 C 242.13670349121094 331.09735107421875 254.31312561035156 334.5646667480469 264.3346862792969 340.3844299316406" stroke-width="0.0" fill="rgb(86, 71, 55)" opacity="0.75658315"/>
    <path d="M 309.38397216796875 360.4858093261719 C 251.98672485351562 359.8421325683594 240.63145446777344 362.61187744140625 241.31710815429688 353.9783020019531 C 245.29673767089844 354.49822998046875 252.89320373535156 352.287841796875 290.1182861328125 352.35009765625 C 242.50323486328125 329.8441162109375 240.50628662109375 339.3780822753906 236.53521728515625 333.94805908203125 C 272.6739196777344 341.053466796875 270.26422119140625 344.8587646484375 309.38397216796875 360.4858093261719" stroke-width="0.0" fill="rgb(157, 128, 95)" opacity="1.0"/>
    <path d="M 270.6611328125 326.2154846191406 C 267.7201843261719 313.9364929199219 255.9418182373047 315.6126708984375 237.2337646484375 308.9122314453125 C 246.7843780517578 316.1037292480469 235.06326293945312 304.56903076171875 219.72286987304688 306.1961669921875 C 228.8487548828125 267.15374755859375 218.2416534423828 256.0468444824219 255.22291564941406 259.6506042480469 C 264.5763854980469 288.0364074707031 269.40936279296875 300.9995422363281 270.6611328125 326.2154846191406" stroke-width="0.0" fill="rgb(251, 246, 237)" opacity="0.966945"/>
    <path d="M 339.96820068359375 339.15435791015625 C 349.9322204589844 350.58209228515625 289.0203552246094 338.6475524902344 322.5301513671875 344.677734375 C 350.600830078125 347.6170349121094 332.8844299316406 345.4481506347656 284.22125244140625 347.004638671875 C 306.45751953125 329.6184387207031 296.87249755859375 326.0213928222656 298.7713317871094 345.1577453613281 C 306.3743591308594 339.08343505859375 373.3202819824219 355.4729919433594 339.96820068359375 339.15435791015625" stroke-width="0.0" fill="rgb(166, 176, 174)" opacity="0.98639923"/>
    <path d="M 82.69513702392578 347.9541320800781 C 75.23605346679688 388.00439453125 106.9673843383789 371.3375244140625 46.13303756713867 375.4940490722656 C 39.263545989990234 371.6521301269531 28.964340209960938 359.2927551269531 69.06327056884766 361.5611572265625 C 69.95442199707031 365.55059814453125 68.91737365722656 329.4624938964844 69.60771179199219 334.453369140625 C 143.8220672607422 308.2913818359375 134.34506225585938 345.20916748046875 82.69513702392578 347.9541320800781" stroke-width="0.0" fill="rgb(153, 120, 87)" opacity="0.9756439"/>
    <path d="M 508.04412841796875 332.2001037597656 C 509.6915283203125 325.512451171875 504.36700439453125 343.8415222167969 504.2136535644531 345.55126953125 C 518.3145141601562 347.756591796875 507.5013122558594 331.9223327636719 515.794677734375 344.5740051269531 C 518.0709838867188 347.4061584472656 514.06982421875 336.0631103515625 516.41748046875 345.1708984375 C 501.0336608886719 344.5174255371094 519.6887817382812 348.0743103027344 508.04412841796875 332.2001037597656" stroke-width="0.0" fill="rgb(229, 226, 225)" opacity="0.9320488"/>
    <path d="M 265.0182189941406 316.045654296875 C 283.3423156738281 348.75799560546875 254.83871459960938 332.31585693359375 230.05130004882812 327.4866027832031 C 219.24853515625 332.5379638671875 199.93484497070312 326.23577880859375 209.37855529785156 317.70733642578125 C 221.64920043945312 269.41705322265625 220.36770629882812 232.77833557128906 220.7267303466797 304.491455078125 C 228.88394165039062 305.0555419921875 247.08114624023438 310.9940490722656 265.0182189941406 316.045654296875" stroke-width="0.0" fill="rgb(0, 0, 0)" opacity="0.52657163"/>
    <path d="M 237.71987915039062 327.0831298828125 C 231.75714111328125 339.6665954589844 222.61724853515625 343.8558349609375 215.21893310546875 363.0154113769531 C 209.1767120361328 346.3206787109375 204.96450805664062 340.6224365234375 201.21566772460938 335.48101806640625 C 192.3972625732422 304.435546875 198.24862670898438 279.966552734375 205.91403198242188 316.4039611816406 C 226.1045684814453 316.71875 232.5507049560547 315.7076416015625 237.71987915039062 327.0831298828125" stroke-width="0.0" fill="rgb(2, 1, 1)" opacity="0.9247385"/>
    <path d="M 118.44209289550781 270.9995422363281 C 133.1846466064453 288.9853820800781 143.05844116210938 303.1658630371094 119.75416564941406 300.3460998535156 C 117.2896957397461 292.9389343261719 112.00414276123047 286.9291687011719 113.6325912475586 274.929443359375 C 128.00572204589844 291.89691162109375 126.0992431640625 257.43707275390625 111.40022277832031 267.19921875 C 110.15279388427734 283.8545837402344 140.98524475097656 284.79852294921875 118.44209289550781 270.9995422363281" stroke-width="0.0" fill="rgb(132, 135, 146)" opacity="0.4614018"/>
    <path d="M 38.539634704589844 371.5292053222656 C 40.34584045410156 338.2847595214844 27.327959060668945 361.7029113769531 23.61878204345703 368.87646484375 C 39.42730712890625 388.63079833984375 21.320079803466797 388.9972229003906 2.143416166305542 379.9493713378906 C 30.69326400756836 365.43267822265625 33.528987884521484 356.995361328125 19.024003982543945 362.6278381347656 C 22.392845153808594 378.8446044921875 43.569583892822266 375.0461730957031 38.539634704589844 371.5292053222656" stroke-width="0.0" fill="rgb(140, 154, 179)" opacity="1.0"/>
    <path d="M 250.603515625 359.148681640625 C 249.14651489257812 371.1724548339844 249.3282012939453 369.796142578125 250.48133850097656 360.2502136230469 C 215.6626434326172 357.54071044921875 219.42254638671875 366.0851745605469 219.5776824951172 352.9546813964844 C 266.3868408203125 351.46697998046875 249.5181884765625 360.9674377441406 249.0429229736328 333.1455993652344 C 242.68458557128906 341.1295166015625 257.2450866699219 347.7432556152344 250.603515625 359.148681640625" stroke-width="0.0" fill="rgb(161, 135, 106)" opacity="0.86305565"/>
    <path d="M 422.6355285644531 335.2472839355469 C 433.13360595703125 351.5210876464844 368.40924072265625 339.6461486816406 414.1069030761719 346.3084411621094 C 402.20965576171875 346.05810546875 382.23675537109375 346.384521484375 355.5627746582031 346.31951904296875 C 394.13726806640625 329.2642517089844 353.584716796875 346.060302734375 386.310791015625 344.6643371582031 C 396.6564025878906 341.6452331542969 455.263671875 356.0783996582031 422.6355285644531 335.2472839355469" stroke-width="0.0" fill="rgb(208, 223, 230)" opacity="0.7629736"/>
    <path d="M 278.11773681640625 347.4676208496094 C 249.94175720214844 347.87158203125 238.55612182617188 347.5423278808594 212.63414001464844 347.7486877441406 C 214.8328399658203 370.436767578125 222.9899444580078 353.1305847167969 89.98603057861328 359.2087097167969 C 131.40423583984375 263.1131591796875 174.2873077392578 319.412353515625 212.0230712890625 322.8909606933594 C 214.86721801757812 317.1878356933594 237.6529541015625 329.12939453125 278.11773681640625 347.4676208496094" stroke-width="0.0" fill="rgb(154, 122, 92)" opacity="0.9889111"/>
    <path d="M 316.38128662109375 388.8616638183594 C 477.09344482421875 387.1869201660156 443.4503479003906 394.0013427734375 381.279052734375 393.4388732910156 C 272.13385009765625 392.4750061035156 297.2191162109375 397.5649108886719 293.15277099609375 384.1739196777344 C 302.4404602050781 367.2569885253906 335.91015625 380.85186767578125 327.7044982910156 376.7590637207031 C 317.0147705078125 381.29010009765625 314.0679626464844 371.25201416015625 316.38128662109375 388.8616638183594" stroke-width="0.0" fill="rgb(11, 8, 5)" opacity="0.95182943"/>
    <path d="M 403.1473388671875 299.80413818359375 C 412.6876525878906 313.03033447265625 434.7980041503906 342.535888671875 405.80718994140625 314.719482421875 C 395.4221496582031 302.132080078125 386.2005920410156 290.2794189453125 373.1221008300781 276.41748046875 C 355.94586181640625 264.90606689453125 359.5531921386719 248.93017578125 378.9224548339844 272.2197265625 C 393.5430603027344 286.7109375 400.5975646972656 296.71295166015625 403.1473388671875 299.80413818359375" stroke-width="0.0" fill="rgb(0, 0, 3)" opacity="0.9450751"/>
    <path d="M 103.29861450195312 354.107666015625 C 103.29017639160156 365.39447021484375 104.65859985351562 366.7324523925781 90.60533142089844 353.2055969238281 C 84.80001831054688 367.12738037109375 81.72968292236328 372.118408203125 81.52057647705078 348.44671630859375 C 78.113525390625 348.69873046875 93.91773986816406 348.1403503417969 102.33690643310547 348.1196594238281 C 102.28946685791016 350.83245849609375 103.79890441894531 343.8978576660156 103.29861450195312 354.107666015625" stroke-width="0.0" fill="rgb(0, 0, 1)" opacity="0.9641225"/>
    <path d="M 270.6963195800781 340.1534423828125 C 265.0028381347656 319.0390930175781 257.2894287109375 316.88427734375 234.44703674316406 312.2127380371094 C 230.16001892089844 318.664306640625 217.59765625 319.1998596191406 221.18780517578125 315.1970520019531 C 225.8978729248047 322.5216979980469 244.96278381347656 308.1757507324219 223.85816955566406 310.542724609375 C 214.98110961914062 320.1595764160156 233.49652099609375 317.73223876953125 270.6963195800781 340.1534423828125" stroke-width="0.0" fill="rgb(3, 30, 59)" opacity="0.96880215"/>
    <path d="M 311.7403869628906 380.04962158203125 C 311.11395263671875 393.0213928222656 314.4933166503906 387.87420654296875 297.23974609375 389.7494201660156 C 303.7373046875 390.17510986328125 294.8460693359375 387.4698181152344 298.83734130859375 387.7091064453125 C 298.5262756347656 387.67889404296875 298.06109619140625 379.4329833984375 299.02752685546875 378.517822265625 C 307.566650390625 380.1584167480469 312.667236328125 378.6092834472656 311.7403869628906 380.04962158203125" stroke-width="0.0" fill="rgb(153, 131, 104)" opacity="0.9182419"/>
    <path d="M 45.80740737915039 356.3929443359375 C 36.52395248413086 357.5960388183594 40.29613494873047 349.89276123046875 40.003292083740234 379.05633544921875 C 50.005821228027344 375.37078857421875 39.95769119262695 356.23785400390625 46.03443908691406 370.44317626953125 C 39.54136276245117 352.5160217285156 54.63705062866211 368.45111083984375 70.14778900146484 356.8116149902344 C 37.326637268066406 355.1758117675781 36.10799789428711 359.77081298828125 45.80740737915039 356.3929443359375" stroke-width="0.0" fill="rgb(1, 1, 2)" opacity="0.96553487"/>
    <path d="M 481.3796081542969 389.6770324707031 C 473.5992736816406 397.1593933105469 460.5241394042969 397.02459716796875 456.5216064453125 393.38726806640625 C 456.574951171875 395.0812683105469 445.79290771484375 391.8709411621094 438.4024353027344 386.0133056640625 C 439.7936706542969 377.227294921875 447.34423828125 369.49761962890625 457.1067810058594 368.0175476074219 C 467.96295166015625 371.0818176269531 476.1947021484375 377.5370178222656 481.3796081542969 389.6770324707031" stroke-width="0.0" fill="rgb(150, 120, 90)" opacity="0.9860203"/>
    <path d="M 359.2889709472656 277.90521240234375 C 358.1296691894531 296.05035400390625 359.3656311035156 331.5015563964844 355.1802673339844 351.403076171875 C 347.16510009765625 343.2019958496094 355.2063293457031 297.9539489746094 351.5506896972656 270.29888916015625 C 345.6727294921875 303.5618896484375 352.03179931640625 268.6162414550781 360.62518310546875 264.5060119628906 C 356.3964538574219 297.4571533203125 359.86651611328125 307.29833984375 359.2889709472656 277.90521240234375" stroke-width="0.0" fill="rgb(0, 0, 1)" opacity="0.96555287"/>
    <path d="M 431.7033386230469 389.215576171875 C 427.73028564453125 393.7006530761719 441.1688537597656 393.9104309082031 413.8635559082031 393.3318786621094 C 431.3553466796875 391.72540283203125 425.5849914550781 388.8059997558594 426.68408203125 380.5895690917969 C 423.6875915527344 379.48553466796875 437.04034423828125 379.3126220703125 395.525146484375 379.3843688964844 C 441.8350830078125 370.0694885253906 429.6353454589844 375.0956115722656 431.7033386230469 389.215576171875" stroke-width="0.0" fill="rgb(9, 7, 5)" opacity="0.9203023"/>
    <path d="M 15.366989135742188 386.725830078125 C 19.47946548461914 386.9058532714844 15.16269302368164 404.7794494628906 19.472288131713867 405.7656555175781 C 26.633962631225586 400.25799560546875 24.212646484375 392.7425537109375 24.78800392150879 396.49102783203125 C 21.99671745300293 409.4888000488281 22.439210891723633 397.00543212890625 22.374099731445312 390.62274169921875 C 19.920320510864258 391.0233154296875 43.46458435058594 385.67755126953125 15.366989135742188 386.725830078125" stroke-width="0.0" fill="rgb(0, 0, 3)" opacity="0.9521188"/>
    <path d="M 88.7183609008789 346.9205627441406 C 98.81417083740234 354.4125671386719 102.01729583740234 361.8090515136719 87.12289428710938 359.1329345703125 C 91.8821792602539 361.3613586425781 82.11328887939453 349.9525451660156 96.94532775878906 354.3966979980469 C 88.87813568115234 345.4368591308594 86.3531494140625 346.3260803222656 93.57135009765625 347.66912841796875 C 97.05619049072266 348.1235046386719 97.37761688232422 348.1206970214844 88.7183609008789 346.9205627441406" stroke-width="0.0" fill="rgb(188, 216, 254)" opacity="0.71607274"/>
    <path d="M 413.9009094238281 389.0632019042969 C 412.7244567871094 384.6546325683594 411.88311767578125 382.5265197753906 414.573974609375 393.9822692871094 C 411.7528381347656 392.91070556640625 405.19287109375 388.64215087890625 408.88958740234375 394.0061340332031 C 409.0681457519531 383.41522216796875 407.2555236816406 370.83978271484375 413.2757263183594 378.0876159667969 C 413.37481689453125 387.830078125 413.27484130859375 384.2502136230469 413.9009094238281 389.0632019042969" stroke-width="0.0" fill="rgb(3, 4, 4)" opacity="0.8851352"/>
    <path d="M 119.46455383300781 382.5262756347656 C 119.28023529052734 369.6747131347656 112.7870101928711 377.24786376953125 115.43374633789062 387.69866943359375 C 120.62945556640625 387.7079772949219 111.41472625732422 387.6233825683594 98.34649658203125 387.7707824707031 C 94.27801513671875 371.0674743652344 106.5430679321289 370.5829162597656 100.51302337646484 391.8515625 C 121.0208969116211 385.0547790527344 119.87709045410156 399.3362731933594 119.46455383300781 382.5262756347656" stroke-width="0.0" fill="rgb(5, 6, 4)" opacity="0.9401604"/>
    <path d="M 197.68154907226562 314.20068359375 C 135.01605224609375 287.3718566894531 144.6654815673828 303.586181640625 146.31500244140625 310.1588134765625 C 143.93362426757812 310.6260986328125 138.7153778076172 311.6805114746094 146.33242797851562 310.0997314453125 C 141.4746551513672 296.921142578125 150.29539489746094 306.2629699707031 143.68435668945312 283.11041259765625 C 186.589599609375 295.39886474609375 191.54263305664062 285.9459228515625 197.68154907226562 314.20068359375" stroke-width="0.0" fill="rgb(7, 20, 34)" opacity="0.99792737"/>
    <path d="M 97.63471221923828 387.3624267578125 C 109.52687072753906 385.56304931640625 98.56603240966797 387.3755798339844 104.97785186767578 387.4385681152344 C 98.36320495605469 390.55157470703125 96.49809265136719 378.5398254394531 99.87416076660156 372.3814697265625 C 98.72702026367188 388.3638610839844 98.68321228027344 363.69268798828125 108.71351623535156 339.8633117675781 C 102.28321075439453 354.8029479980469 95.4025650024414 392.3313293457031 97.63471221923828 387.3624267578125" stroke-width="0.0" fill="rgb(37, 41, 34)" opacity="0.42673242"/>
    <path d="M 353.5732421875 302.7622985839844 C 362.8083190917969 316.3470764160156 359.0634765625 311.119140625 351.47705078125 299.34356689453125 C 351.61688232421875 307.1886901855469 350.44830322265625 310.33935546875 350.9177551269531 328.58074951171875 C 353.8249206542969 298.9091491699219 355.57403564453125 289.193359375 357.06231689453125 284.8030700683594 C 363.860107421875 268.639404296875 359.1408386230469 267.08221435546875 353.5732421875 302.7622985839844" stroke-width="0.0" fill="rgb(83, 93, 83)" opacity="0.49198768"/>
    <path d="M 432.00634765625 337.4012451171875 C 420.94757080078125 327.04443359375 419.13018798828125 337.8974914550781 408.6109619140625 339.28839111328125 C 411.9012145996094 342.4493713378906 403.3384704589844 346.3580322265625 423.8364562988281 343.7645263671875 C 424.9068603515625 332.07891845703125 390.6964416503906 304.4753723144531 404.3600158691406 301.381103515625 C 419.03564453125 319.02667236328125 429.1488037109375 330.1949157714844 432.00634765625 337.4012451171875" stroke-width="0.0" fill="rgb(6, 6, 7)" opacity="0.8915701"/>
    <path d="M 168.00985717773438 247.7115478515625 C 165.34466552734375 256.0292053222656 158.0296630859375 263.34588623046875 148.1204376220703 266.0256652832031 C 139.9617462158203 263.35748291015625 132.654296875 256.03363037109375 129.9912109375 246.90895080566406 C 132.65560913085938 237.9683074951172 139.9664306640625 230.65162658691406 149.9264373779297 227.98497009277344 C 158.03343200683594 230.64364624023438 165.34262084960938 237.97134399414062 168.00985717773438 247.7115478515625" stroke-width="0.0" fill="rgb(2, 3, 5)" opacity="0.9900017"/>
    <path d="M 90.05030059814453 295.2779846191406 C 87.42340850830078 305.1752624511719 80.27684020996094 312.7176513671875 70.7664566040039 315.82952880859375 C 61.002708435058594 313.3164367675781 53.684547424316406 305.99700927734375 51.666961669921875 296.680908203125 C 54.55598068237305 286.8921203613281 61.91010665893555 279.6100769042969 71.7833251953125 276.9511413574219 C 80.18028259277344 279.5275573730469 87.47017669677734 286.8207702636719 90.05030059814453 295.2779846191406" stroke-width="0.0" fill="rgb(136, 151, 181)" opacity="0.99000627"/>
    <path d="M 125.18889617919922 314.74322509765625 C 123.2451400756836 323.933837890625 115.92901611328125 331.22894287109375 106.51563262939453 333.4619445800781 C 96.82299041748047 330.5266418457031 89.56233215332031 323.1483154296875 86.91736602783203 313.8511962890625 C 89.56743621826172 304.8730773925781 96.87654876708984 297.57720947265625 106.28948211669922 294.9554748535156 C 115.14317321777344 297.5633850097656 122.44835662841797 304.8525390625 125.18889617919922 314.74322509765625" stroke-width="0.0" fill="rgb(163, 133, 101)" opacity="0.9900054"/>
    <path d="M 326.82281494140625 333.9778137207031 C 323.83465576171875 343.39056396484375 316.2755126953125 350.49896240234375 307.7331848144531 353.05389404296875 C 297.905029296875 350.3976745605469 290.5989074707031 343.0968322753906 287.94464111328125 333.1819763183594 C 290.4503173828125 324.73480224609375 297.7379150390625 317.4583435058594 306.190673828125 314.9491271972656 C 316.1961364746094 317.5719909667969 323.8141784667969 324.6663513183594 326.82281494140625 333.9778137207031" stroke-width="0.0" fill="rgb(144, 182, 209)" opacity="0.9900039"/>
    <path d="M 344.16497802734375 334.6519775390625 C 341.55047607421875 343.20281982421875 334.17449951171875 350.4626159667969 324.25152587890625 353.1770935058594 C 314.2569580078125 351.9992980957031 306.83843994140625 344.7923889160156 304.08660888671875 333.8480529785156 C 306.8537902832031 323.2640075683594 314.4673156738281 317.1738586425781 324.2704162597656 314.951171875 C 334.1246337890625 317.58135986328125 341.44696044921875 324.8642883300781 344.16497802734375 334.6519775390625" stroke-width="0.0" fill="rgb(124, 135, 146)" opacity="0.9900075"/>
    <path d="M 406.9598083496094 337.04486083984375 C 404.23785400390625 346.8603210449219 396.75714111328125 353.93017578125 386.98175048828125 356.235595703125 C 377.25 353.9117126464844 369.75555419921875 346.8633728027344 367.0077819824219 336.9858703613281 C 369.68170166015625 327.0072021484375 377.0694274902344 319.8795166015625 386.21185302734375 317.94573974609375 C 396.3266296386719 320.5013732910156 404.028076171875 327.4632873535156 406.9598083496094 337.04486083984375" stroke-width="0.0" fill="rgb(93, 108, 121)" opacity="0.99009234"/>
    <path d="M 50.048133850097656 381.46429443359375 C 47.438907623291016 391.13470458984375 40.12986373901367 398.4277648925781 30.573034286499023 401.0722961425781 C 21.845483779907227 398.4595642089844 14.595422744750977 391.12774658203125 11.97789192199707 382.58502197265625 C 14.625628471374512 372.9359130859375 21.93826675415039 365.630859375 31.735620498657227 362.97967529296875 C 40.13379669189453 365.5909729003906 47.46284103393555 372.84051513671875 50.048133850097656 381.46429443359375" stroke-width="0.0" fill="rgb(2, 2, 4)" opacity="0.9900027"/>
    <path d="M 165.0666961669922 282.104736328125 C 162.3812713623047 292.0955810546875 155.1422576904297 299.5282287597656 145.54275512695312 302.64703369140625 C 135.97698974609375 300.3352966308594 128.6494903564453 293.0281677246094 126.96018981933594 283.9162902832031 C 129.616455078125 273.88421630859375 136.82516479492188 266.5091552734375 146.9003143310547 263.932861328125 C 156.76904296875 264.80865478515625 163.77635192871094 272.381591796875 165.0666961669922 282.104736328125" stroke-width="0.0" fill="rgb(246, 242, 224)" opacity="0.9900066"/>
    <path d="M 163.1776885986328 300.19342041015625 C 160.87982177734375 310.7456970214844 153.86134338378906 318.1957702636719 144.0155029296875 320.77752685546875 C 134.23585510253906 318.1388244628906 127.28594970703125 310.5950012207031 124.89559936523438 300.4156188964844 C 125.92335510253906 290.1564025878906 133.10789489746094 282.7503967285156 143.08290100097656 280.041748046875 C 154.892333984375 282.839599609375 162.23910522460938 290.0903015136719 163.1776885986328 300.19342041015625" stroke-width="0.0" fill="rgb(136, 106, 80)" opacity="1.0"/>
    <path d="M 422.99493408203125 335.9820556640625 C 420.23980712890625 345.8484802246094 412.71197509765625 352.853271484375 403.6882629394531 355.1134338378906 C 393.8247985839844 352.4642028808594 386.4565124511719 345.2008056640625 383.4440612792969 335.44281005859375 C 385.26641845703125 325.55267333984375 392.5523986816406 318.2772521972656 402.979248046875 316.70330810546875 C 413.0592956542969 318.6094055175781 420.343994140625 325.9560546875 422.99493408203125 335.9820556640625" stroke-width="0.0" fill="rgb(169, 184, 198)" opacity="0.9900238"/>
    <path d="M 313.0815734863281 404.2242126464844 C 310.4234313964844 414.1231384277344 303.12213134765625 421.42108154296875 294.12042236328125 424.0442199707031 C 284.8760986328125 421.4209289550781 277.5720520019531 414.1268615722656 274.9084167480469 404.2408752441406 C 277.3366394042969 395.6278991699219 284.64605712890625 388.385498046875 294.2734375 385.8360595703125 C 303.4118347167969 388.3122253417969 310.665283203125 395.596923828125 313.0815734863281 404.2242126464844" stroke-width="0.0" fill="rgb(79, 62, 58)" opacity="0.99000734"/>
    <path d="M 435.0308837890625 335.8822326660156 C 432.5049743652344 344.2287902832031 425.24639892578125 351.551025390625 415.1916198730469 354.3659362792969 C 405.1083068847656 353.210693359375 397.7628173828125 345.9006042480469 395.31072998046875 335.90533447265625 C 399.5946044921875 325.9051818847656 406.90447998046875 318.5928649902344 415.16534423828125 315.962158203125 C 425.064453125 318.6251220703125 432.3700256347656 325.9376220703125 435.0308837890625 335.8822326660156" stroke-width="0.0" fill="rgb(77, 90, 96)" opacity="0.99001086"/>
    <path d="M 253.022705078125 205.7020263671875 C 250.40309143066406 214.11624145507812 243.119384765625 221.40872192382812 234.07745361328125 224.02572631835938 C 224.92095947265625 221.392822265625 217.6261444091797 214.07102966308594 214.98081970214844 205.4767608642578 C 217.6304473876953 195.9359588623047 224.92726135253906 188.60780334472656 233.42584228515625 185.95388793945312 C 243.0651397705078 188.62074279785156 250.37022399902344 195.93836975097656 253.022705078125 205.7020263671875" stroke-width="0.0" fill="rgb(87, 84, 92)" opacity="0.9900025"/>
    <path d="M 379.7702941894531 336.7079772949219 C 376.6866455078125 346.2807312011719 369.19873046875 353.44903564453125 360.63604736328125 356.0405578613281 C 350.9218444824219 353.3895568847656 343.6067810058594 346.0794372558594 340.9565734863281 336.1437683105469 C 343.0633850097656 327.7273254394531 350.85791015625 320.60345458984375 360.8894348144531 317.94091796875 C 369.9908752441406 319.6995849609375 377.318603515625 327.0038757324219 379.7702941894531 336.7079772949219" stroke-width="0.0" fill="rgb(232, 231, 216)" opacity="0.9900023"/>
    <path d="M 284.0183410644531 285.5382385253906 C 281.3730163574219 295.0745849609375 274.0878601074219 302.40264892578125 265.8074951171875 305.02130126953125 C 255.94378662109375 302.3661193847656 248.63494873046875 295.0556945800781 245.9809112548828 286.14453125 C 248.6334991455078 276.94146728515625 255.93624877929688 269.6201477050781 264.2158203125 266.9657287597656 C 274.0523986816406 269.63555908203125 281.36553955078125 276.9471130371094 284.0183410644531 285.5382385253906" stroke-width="0.0" fill="rgb(70, 72, 84)" opacity="0.99000186"/>
    <path d="M 397.18109130859375 334.94158935546875 C 396.23724365234375 344.8843078613281 388.8481140136719 352.11480712890625 377.16400146484375 353.194091796875 C 367.0685119628906 352.2564392089844 359.74334716796875 344.93145751953125 358.9801940917969 334.95947265625 C 361.6515808105469 324.9661865234375 368.9670715332031 317.6535339355469 378.83953857421875 314.9888610839844 C 387.049072265625 317.6420593261719 394.3640441894531 324.9483337402344 397.18109130859375 334.94158935546875" stroke-width="0.0" fill="rgb(20, 29, 19)" opacity="0.9900024"/>
  </g>
</svg>
