<?xml version="1.0" ?>
<svg xmlns="http://www.w3.org/2000/svg" version="1.1" width="600" height="600">
  <defs/>
  <g>
    <path d="M 381.622802734375 598.84619140625 C 378.0089416503906 620.7413330078125 361.7813415527344 622.1317138671875 250.38272094726562 620.4568481445312 C 193.87368774414062 613.0028076171875 189.41189575195312 600.929443359375 177.7311248779297 519.6641845703125 C 180.6199188232422 454.558837890625 203.8911895751953 468.9989013671875 259.9043884277344 494.6420593261719 C 324.6395568847656 484.9464111328125 351.3158264160156 468.7607421875 381.622802734375 598.84619140625" stroke-width="0.0" fill="rgb(139, 153, 177)" opacity="0.9992801"/>
    <path d="M 372.7726745605469 4.964104175567627 C 332.5865478515625 81.31441497802734 317.5841979980469 90.33501434326172 236.6331024169922 131.77403259277344 C 188.1099853515625 124.94195556640625 187.95423889160156 124.05891418457031 212.36593627929688 43.73227310180664 C 223.0545654296875 -10.22999095916748 227.32261657714844 -19.13711929321289 288.4337463378906 -21.049591064453125 C 354.4042663574219 -23.355690002441406 368.9287414550781 -21.356338500976562 372.7726745605469 4.964104175567627" stroke-width="0.0" fill="rgb(93, 113, 146)" opacity="0.71677464"/>
    <path d="M 230.48097229003906 565.7616577148438 C 225.86839294433594 644.0308227539062 201.9107208251953 631.0952758789062 148.8784637451172 618.7975463867188 C 96.66534423828125 624.2203979492188 68.68215942382812 635.284423828125 54.10673141479492 604.0758056640625 C 88.84822082519531 540.2772216796875 102.45610046386719 533.2299194335938 190.99485778808594 484.66204833984375 C 219.91796875 491.4527893066406 223.4206085205078 506.29083251953125 230.48097229003906 565.7616577148438" stroke-width="0.0" fill="rgb(138, 153, 177)" opacity="0.94512707"/>
    <path d="M 625.3577270507812 197.06796264648438 C 658.143798828125 320.2550964355469 685.2576293945312 345.2994079589844 512.8038940429688 339.0167541503906 C 417.3167419433594 290.9632873535156 448.17401123046875 224.18531799316406 408.0658874511719 191.23887634277344 C 441.3455810546875 91.1024169921875 467.2256774902344 90.90636444091797 596.2474365234375 16.498958587646484 C 623.5690307617188 22.999305725097656 623.3321533203125 40.67409896850586 625.3577270507812 197.06796264648438" stroke-width="0.0" fill="rgb(126, 137, 162)" opacity="0.88058484"/>
    <path d="M 393.1634521484375 389.2419128417969 C 352.0868225097656 552.9423217773438 335.16815185546875 542.8867797851562 288.8642272949219 518.4705200195312 C 217.24871826171875 525.6326293945312 182.66310119628906 551.288330078125 166.29837036132812 397.6547546386719 C 136.79684448242188 308.631103515625 115.92453002929688 259.91339111328125 316.2299499511719 252.40478515625 C 429.29718017578125 327.2642517089844 430.8917541503906 338.61627197265625 393.1634521484375 389.2419128417969" stroke-width="0.0" fill="rgb(189, 134, 109)" opacity="0.71269697"/>
    <path d="M 502.2738342285156 235.4818572998047 C 528.7183227539062 303.1935729980469 529.2135009765625 315.70977783203125 325.8721008300781 344.759765625 C 256.61199951171875 325.0252990722656 271.1456298828125 249.52236938476562 200.13064575195312 155.302490234375 C 292.8045654296875 84.6476821899414 348.97772216796875 114.40909576416016 424.1763916015625 87.7586898803711 C 450.6264343261719 89.80450439453125 466.44964599609375 95.55236053466797 502.2738342285156 235.4818572998047" stroke-width="0.0" fill="rgb(157, 168, 151)" opacity="0.2684794"/>
    <path d="M 430.6809387207031 85.12146759033203 C 407.36529541015625 138.8628387451172 398.699462890625 153.90541076660156 364.8838195800781 251.83995056152344 C 319.8529968261719 172.54896545410156 286.3670349121094 170.0299530029297 283.93182373046875 151.63539123535156 C 342.3506164550781 93.34085845947266 339.85650634765625 67.46660614013672 392.21380615234375 46.0396842956543 C 416.034912109375 51.382301330566406 428.2571716308594 57.926124572753906 430.6809387207031 85.12146759033203" stroke-width="0.0" fill="rgb(3, 4, 7)" opacity="0.975852"/>
    <path d="M 217.6283416748047 358.3438720703125 C 183.00619506835938 540.4546508789062 161.13978576660156 527.2672729492188 82.36012268066406 522.1882934570312 C 9.283112525939941 549.3341674804688 -12.584725379943848 567.5325927734375 -30.7805233001709 340.1661682128906 C -74.61260986328125 273.8770751953125 -89.61981964111328 257.95635986328125 175.12786865234375 218.3521728515625 C 280.23822021484375 240.21490478515625 249.33433532714844 289.3404235839844 217.6283416748047 358.3438720703125" stroke-width="0.0" fill="rgb(141, 152, 174)" opacity="0.9928539"/>
    <path d="M 230.11070251464844 169.16921997070312 C 234.582275390625 173.75758361816406 237.33229064941406 216.95094299316406 213.26878356933594 304.4477844238281 C -55.62681579589844 273.5684814453125 -56.446929931640625 269.7740173339844 -38.18612289428711 231.3207244873047 C 58.0902099609375 36.16081619262695 95.46072387695312 43.96028518676758 146.0731964111328 12.204106330871582 C 156.49342346191406 19.40989112854004 158.02171325683594 32.78560256958008 230.11070251464844 169.16921997070312" stroke-width="0.0" fill="rgb(22, 24, 26)" opacity="0.9541315"/>
    <path d="M 164.4174041748047 2.9877426624298096 C 139.7751007080078 66.75112915039062 122.06819152832031 69.5920639038086 7.636905193328857 172.15927124023438 C -15.801257133483887 159.77557373046875 -20.017152786254883 145.0992889404297 -19.99036407470703 50.24314498901367 C -10.15634822845459 -47.66112518310547 14.742843627929688 -33.53483581542969 89.92432403564453 -21.33534812927246 C 150.58071899414062 -20.937973022460938 163.6486358642578 -17.89592933654785 164.4174041748047 2.9877426624298096" stroke-width="0.0" fill="rgb(139, 153, 177)" opacity="0.9995026"/>
    <path d="M 208.47938537597656 483.2459716796875 C 165.62318420410156 565.5667724609375 144.7688446044922 569.4132080078125 43.85131072998047 620.0747680664062 C 0.23427404463291168 625.3421630859375 -13.263816833496094 623.44775390625 -19.553319931030273 561.8818969726562 C -11.818467140197754 432.6003723144531 15.4846773147583 456.0555725097656 95.25616455078125 477.8636169433594 C 165.54493713378906 464.17431640625 194.069580078125 448.7934265136719 208.47938537597656 483.2459716796875" stroke-width="0.0" fill="rgb(138, 152, 176)" opacity="0.9989731"/>
    <path d="M 616.1258544921875 12.483872413635254 C 568.371826171875 132.39869689941406 531.0247192382812 131.60107421875 457.8211975097656 185.86569213867188 C 408.19415283203125 161.08587646484375 402.7448425292969 145.688232421875 398.97637939453125 107.00106811523438 C 427.98248291015625 33.92292404174805 436.9875183105469 12.061237335205078 537.3050537109375 -20.392940521240234 C 586.9144287109375 -28.33148193359375 607.3699951171875 -33.94865798950195 616.1258544921875 12.483872413635254" stroke-width="0.0" fill="rgb(138, 153, 176)" opacity="1.0"/>
    <path d="M 618.7647705078125 375.7801818847656 C 615.0821533203125 682.791015625 603.6884765625 678.2999267578125 524.1674194335938 634.5664672851562 C 312.6534118652344 612.6280517578125 315.2700500488281 597.3609619140625 328.57232666015625 503.2213134765625 C 308.7597961425781 349.13214111328125 265.4544677734375 324.47589111328125 484.41448974609375 305.80914306640625 C 598.6513671875 302.8262023925781 611.3820190429688 306.2407531738281 618.7647705078125 375.7801818847656" stroke-width="0.0" fill="rgb(139, 153, 177)" opacity="0.9329556"/>
    <path d="M 202.1529998779297 27.929431915283203 C 170.0159454345703 142.6347198486328 230.21060180664062 104.0842514038086 280.4000549316406 310.3335266113281 C 191.61895751953125 109.62047576904297 182.3264617919922 70.42928314208984 149.1592254638672 21.888952255249023 C 133.40647888183594 -8.54321575164795 134.6156768798828 -16.023996353149414 198.10000610351562 -20.02104377746582 C 250.3051300048828 -19.45880699157715 250.92901611328125 -14.34459400177002 202.1529998779297 27.929431915283203" stroke-width="0.0" fill="rgb(1, 0, 1)" opacity="0.96590286"/>
    <path d="M 393.9212646484375 53.364051818847656 C 358.4080810546875 123.4737777709961 367.15771484375 158.35025024414062 297.34222412109375 168.98110961914062 C 271.9466857910156 151.26791381835938 252.60899353027344 137.58425903320312 195.61264038085938 121.116943359375 C 293.3155212402344 74.86360931396484 304.18475341796875 62.41145706176758 372.23272705078125 21.708045959472656 C 388.5960693359375 18.816804885864258 393.6596374511719 32.1784553527832 393.9212646484375 53.364051818847656" stroke-width="0.0" fill="rgb(4, 6, 7)" opacity="0.9838105"/>
    <path d="M 515.904052734375 -6.545160293579102 C 484.5610656738281 68.96321868896484 469.8648376464844 82.57697296142578 406.9967956542969 106.50942993164062 C 366.69207763671875 99.0760269165039 353.8131103515625 92.64881896972656 334.29827880859375 23.62344741821289 C 347.7344665527344 -35.10517501831055 366.0718688964844 -29.13506507873535 418.625732421875 -20.648160934448242 C 478.4972839355469 -22.151899337768555 497.5777587890625 -23.78566551208496 515.904052734375 -6.545160293579102" stroke-width="0.0" fill="rgb(138, 153, 177)" opacity="0.99979717"/>
    <path d="M 252.32864379882812 23.794052124023438 C 189.12940979003906 118.26087188720703 151.43385314941406 101.61528015136719 131.63198852539062 102.150634765625 C 117.82060241699219 102.23458862304688 108.40756225585938 96.03956604003906 98.21932220458984 79.31037902832031 C 109.83479309082031 63.124027252197266 102.17723846435547 37.89978790283203 152.0509033203125 -21.536828994750977 C 233.61114501953125 -27.984413146972656 247.5067901611328 -22.821922302246094 252.32864379882812 23.794052124023438" stroke-width="0.0" fill="rgb(138, 153, 177)" opacity="0.99932617"/>
    <path d="M 371.5130920410156 105.03775787353516 C 364.66644287109375 149.26937866210938 365.53582763671875 162.54306030273438 361.47100830078125 231.21115112304688 C 309.349365234375 154.7072296142578 282.283447265625 157.00413513183594 263.6540832519531 134.09490966796875 C 274.2182312011719 81.40682983398438 289.8072509765625 78.89974975585938 353.0039367675781 61.69254684448242 C 378.0861511230469 62.16242218017578 379.8248596191406 74.67119598388672 371.5130920410156 105.03775787353516" stroke-width="0.0" fill="rgb(138, 155, 183)" opacity="0.9583158"/>
    <path d="M 139.9281463623047 152.7386474609375 C 148.48004150390625 209.2912139892578 138.18948364257812 196.18267822265625 131.83180236816406 183.8057098388672 C 74.62865447998047 169.68136596679688 66.56401062011719 161.3555450439453 62.24126434326172 148.6115264892578 C 74.4233627319336 136.67684936523438 78.6795883178711 125.75384521484375 95.22669982910156 111.81248474121094 C 115.79121398925781 114.71121978759766 130.9499053955078 117.77947998046875 139.9281463623047 152.7386474609375" stroke-width="0.0" fill="rgb(142, 157, 187)" opacity="0.93172383"/>
    <path d="M 194.05609130859375 74.4488525390625 C 212.44741821289062 197.3053436279297 210.42100524902344 168.98292541503906 178.4178466796875 162.5042266845703 C 103.97553253173828 144.35260009765625 96.1651840209961 172.62313842773438 108.6178970336914 115.96817779541016 C 120.64619445800781 88.7503890991211 131.03280639648438 83.19815063476562 153.8022918701172 69.178466796875 C 188.31390380859375 50.11725616455078 211.8961181640625 44.957733154296875 194.05609130859375 74.4488525390625" stroke-width="0.0" fill="rgb(144, 160, 190)" opacity="0.9086293"/>
    <path d="M 452.64532470703125 253.6331024169922 C 447.963623046875 202.3310546875 460.77569580078125 230.8343505859375 399.9900207519531 246.04449462890625 C 350.2939758300781 277.91064453125 363.1893310546875 242.53341674804688 370.74420166015625 178.55874633789062 C 379.156005859375 138.9364776611328 385.95849609375 129.1057891845703 375.00958251953125 166.58665466308594 C 392.904296875 201.05947875976562 415.370361328125 179.78988647460938 452.64532470703125 253.6331024169922" stroke-width="0.0" fill="rgb(2, 2, 3)" opacity="0.96168226"/>
    <path d="M 70.92007446289062 154.7821044921875 C 58.707481384277344 165.81187438964844 53.48016357421875 176.09608459472656 32.354103088378906 195.51828002929688 C 14.414644241333008 192.35520935058594 1.360412359237671 187.25970458984375 -7.042397975921631 171.86434936523438 C 15.512460708618164 138.8482208251953 25.529844284057617 131.80230712890625 38.20478439331055 126.6692123413086 C 54.180335998535156 137.7965850830078 63.17615509033203 145.42242431640625 70.92007446289062 154.7821044921875" stroke-width="0.0" fill="rgb(139, 153, 177)" opacity="0.9986934"/>
    <path d="M 144.07098388671875 194.7249298095703 C 105.03743743896484 193.3488006591797 84.14978790283203 197.6405487060547 51.49814987182617 202.70924377441406 C 44.312435150146484 208.5211639404297 36.62820053100586 198.4762725830078 32.219947814941406 185.972900390625 C 50.41176986694336 166.51449584960938 57.26448440551758 158.0726318359375 70.17723083496094 143.8519287109375 C 81.9653549194336 153.9876251220703 97.73497009277344 154.83718872070312 144.07098388671875 194.7249298095703" stroke-width="0.0" fill="rgb(138, 153, 180)" opacity="0.9788628"/>
    <path d="M 341.1137390136719 513.6884765625 C 321.0195007324219 546.1099853515625 303.7861633300781 546.3275146484375 280.8222961425781 547.006591796875 C 257.086181640625 544.1121215820312 232.5953369140625 551.1049194335938 175.21865844726562 488.21441650390625 C 183.98358154296875 427.8282470703125 201.65345764160156 448.63037109375 299.0591735839844 444.9139099121094 C 336.84771728515625 439.15380859375 333.7151184082031 471.5422668457031 341.1137390136719 513.6884765625" stroke-width="0.0" fill="rgb(138, 152, 176)" opacity="0.929367"/>
    <path d="M 499.2541809082031 165.21005249023438 C 507.7037658691406 227.0895233154297 455.67010498046875 212.29734802246094 383.6831359863281 247.05621337890625 C 350.79248046875 156.65219116210938 341.66925048828125 151.083740234375 335.46148681640625 121.190673828125 C 332.88616943359375 84.7381820678711 333.3263244628906 69.72022247314453 369.34576416015625 66.68130493164062 C 413.2343444824219 80.01506805419922 420.72393798828125 88.26054382324219 499.2541809082031 165.21005249023438" stroke-width="0.0" fill="rgb(138, 153, 177)" opacity="0.9342122"/>
    <path d="M 301.8418884277344 124.5857162475586 C 299.88812255859375 166.26095581054688 299.2801513671875 156.99505615234375 274.6573791503906 145.2058563232422 C 224.2292938232422 117.73076629638672 204.77711486816406 120.00222778320312 173.75575256347656 108.10945129394531 C 191.22537231445312 69.30974578857422 211.05581665039062 71.34220886230469 255.06126403808594 66.15044403076172 C 276.9164733886719 65.98767852783203 288.28607177734375 70.61283111572266 301.8418884277344 124.5857162475586" stroke-width="0.0" fill="rgb(137, 153, 179)" opacity="0.9603536"/>
    <path d="M 113.93492126464844 260.59918212890625 C 103.05546569824219 261.5313415527344 81.95591735839844 264.412109375 52.19965362548828 270.7692565917969 C 54.620155334472656 372.32806396484375 13.645087242126465 355.13665771484375 -28.876447677612305 312.6490783691406 C 20.943801879882812 221.82432556152344 35.29420852661133 216.2406463623047 68.78813934326172 197.43243408203125 C 79.42076110839844 215.7001495361328 89.45266723632812 225.45497131347656 113.93492126464844 260.59918212890625" stroke-width="0.0" fill="rgb(137, 152, 178)" opacity="0.9863292"/>
    <path d="M 409.4923095703125 173.07276916503906 C 391.7264709472656 189.41505432128906 413.08935546875 258.7830810546875 311.2564697265625 312.7830505371094 C 410.76025390625 209.76136779785156 352.84320068359375 279.88104248046875 362.1318054199219 199.92709350585938 C 317.64385986328125 133.18731689453125 327.204345703125 127.46987915039062 347.92401123046875 125.90223693847656 C 383.2069091796875 133.24920654296875 396.57257080078125 136.6075439453125 409.4923095703125 173.07276916503906" stroke-width="0.0" fill="rgb(54, 56, 60)" opacity="1.0"/>
    <path d="M 94.19125366210938 125.7813720703125 C 81.87747192382812 142.0908966064453 75.70185852050781 151.65281677246094 68.35564422607422 161.8242645263672 C 53.762420654296875 151.20404052734375 44.321510314941406 143.84423828125 35.75292205810547 134.00506591796875 C 45.57952117919922 120.8729476928711 54.48472595214844 114.23655700683594 73.8263168334961 99.97631072998047 C 85.09242248535156 103.35091400146484 92.43379974365234 112.44322204589844 94.19125366210938 125.7813720703125" stroke-width="0.0" fill="rgb(138, 153, 176)" opacity="1.0"/>
    <path d="M 133.11158752441406 108.2077865600586 C 133.7095489501953 129.32919311523438 127.12118530273438 139.02346801757812 108.2228775024414 140.42266845703125 C 80.47465515136719 130.6555938720703 71.77452850341797 122.91700744628906 66.07528686523438 110.9517593383789 C 80.6601791381836 91.93008422851562 89.53543090820312 85.24636840820312 107.66006469726562 72.12527465820312 C 118.50989532470703 75.82084655761719 125.71463012695312 85.04532623291016 133.11158752441406 108.2077865600586" stroke-width="0.0" fill="rgb(139, 154, 177)" opacity="0.99007857"/>
    <path d="M 372.4527282714844 62.55704879760742 C 364.8888244628906 109.9229507446289 346.869140625 111.1014175415039 295.40460205078125 123.24485778808594 C 263.3487548828125 121.95584869384766 256.90179443359375 111.82817077636719 253.8619842529297 95.55545043945312 C 271.1036376953125 44.70490264892578 285.147216796875 38.46632385253906 332.7218017578125 18.735637664794922 C 351.95648193359375 17.28753089904785 362.3770751953125 22.309675216674805 372.4527282714844 62.55704879760742" stroke-width="0.0" fill="rgb(138, 153, 176)" opacity="0.7667949"/>
    <path d="M 77.73184204101562 213.4022216796875 C 65.54532623291016 232.9759521484375 54.057334899902344 240.17758178710938 11.162286758422852 267.3229064941406 C -10.508069038391113 263.01177978515625 -14.277630805969238 247.2292938232422 -16.847076416015625 210.0814666748047 C -11.589856147766113 175.2764129638672 -3.0317046642303467 166.25660705566406 21.48712158203125 165.0715789794922 C 56.59783172607422 175.72586059570312 65.58529663085938 183.75782775878906 77.73184204101562 213.4022216796875" stroke-width="0.0" fill="rgb(138, 152, 180)" opacity="0.54964817"/>
    <path d="M 507.8229064941406 347.2764892578125 C 503.72650146484375 358.4602355957031 497.73876953125 366.1560363769531 486.779052734375 367.1355895996094 C 476.2633361816406 366.1653747558594 470.32586669921875 358.3788757324219 466.06829833984375 347.1231384277344 C 468.76654052734375 337.1141052246094 476.122314453125 329.78509521484375 487.6578369140625 327.0490417480469 C 497.9087219238281 329.75189208984375 505.2103271484375 337.1039733886719 507.8229064941406 347.2764892578125" stroke-width="0.0" fill="rgb(2, 2, 2)" opacity="0.99001086"/>
    <path d="M 384.9244689941406 142.6231231689453 C 382.1827392578125 152.83421325683594 374.8331604003906 160.17996215820312 363.5364990234375 162.93197631835938 C 353.15625 160.1935272216797 345.81121826171875 152.84169006347656 343.06329345703125 142.1862030029297 C 345.8212585449219 131.19436645507812 353.2408142089844 123.95410919189453 363.5691223144531 121.55768585205078 C 374.22943115234375 124.53988647460938 381.9539794921875 131.5743408203125 384.9244689941406 142.6231231689453" stroke-width="0.0" fill="rgb(141, 156, 180)" opacity="1.0"/>
    <path d="M 394.9460754394531 200.34254455566406 C 392.2095031738281 210.86643981933594 384.8673095703125 218.2113800048828 374.4943542480469 220.93849182128906 C 363.2254943847656 218.1612091064453 356.0303039550781 210.70892333984375 353.3116455078125 199.50599670410156 C 355.8785400390625 189.20022583007812 363.178955078125 181.82041931152344 374.23028564453125 179.06771850585938 C 384.8485412597656 181.80535888671875 392.1964416503906 189.15077209472656 394.9460754394531 200.34254455566406" stroke-width="0.0" fill="rgb(142, 157, 180)" opacity="1.0"/>
    <path d="M 513.7184448242188 417.0151062011719 C 510.6391906738281 427.1639099121094 503.06756591796875 434.3514709472656 492.9775085449219 437.0183410644531 C 482.80743408203125 434.4410705566406 475.2171936035156 427.3091125488281 472.242919921875 417.0948181152344 C 475.467529296875 407.2104187011719 483.365966796875 400.1217041015625 493.0908203125 397.4497375488281 C 502.68096923828125 400.0416564941406 510.5022277832031 407.1924133300781 513.7184448242188 417.0151062011719" stroke-width="0.0" fill="rgb(219, 159, 128)" opacity="0.9901403"/>
    <path d="M 154.49037170410156 361.88330078125 C 152.00732421875 371.4507141113281 144.18875122070312 378.4041442871094 134.7441864013672 380.194580078125 C 124.85157012939453 377.4497985839844 117.50200653076172 370.16259765625 114.15862274169922 361.8059997558594 C 117.57044219970703 351.85284423828125 124.81603240966797 344.45989990234375 134.2884063720703 341.576416015625 C 143.23777770996094 344.3796081542969 150.4417724609375 351.8227844238281 154.49037170410156 361.88330078125" stroke-width="0.0" fill="rgb(2, 2, 2)" opacity="0.9900106"/>
    <path d="M 333.0171203613281 328.9530334472656 C 332.1891174316406 338.86248779296875 324.8544921875 346.166259765625 314.5932922363281 348.941650390625 C 303.1473693847656 346.1754150390625 295.8163146972656 338.85516357421875 294.98175048828125 328.9591064453125 C 297.65350341796875 318.96783447265625 304.967529296875 311.65277099609375 314.9294128417969 308.98291015625 C 323.045166015625 311.6293640136719 330.3482666015625 318.962646484375 333.0171203613281 328.9530334472656" stroke-width="0.0" fill="rgb(2, 2, 4)" opacity="0.99000394"/>
    <path d="M 193.78453063964844 335.03289794921875 C 190.97952270507812 345.6140441894531 183.61927795410156 352.9935607910156 173.03518676757812 355.81890869140625 C 162.4117431640625 352.9718322753906 155.07723999023438 345.5704345703125 152.34617614746094 335.0777587890625 C 155.08602905273438 324.429443359375 162.4127197265625 317.03741455078125 172.95748901367188 314.2166748046875 C 183.58282470703125 317.04547119140625 190.95724487304688 324.4161682128906 193.78453063964844 335.03289794921875" stroke-width="0.0" fill="rgb(155, 119, 88)" opacity="1.0"/>
    <path d="M 156.66835021972656 334.00311279296875 C 153.99850463867188 344.70025634765625 146.7439422607422 352.1218566894531 136.3663787841797 354.8353576660156 C 125.25264739990234 352.0972900390625 117.94193267822266 344.7336120605469 115.2125015258789 334.2148742675781 C 118.04663848876953 323.41888427734375 125.41828918457031 316.0444030761719 135.88841247558594 313.2142333984375 C 146.5823974609375 316.04815673828125 153.93719482421875 323.4225769042969 156.66835021972656 334.00311279296875" stroke-width="0.0" fill="rgb(156, 120, 88)" opacity="1.0"/>
    <path d="M 537.835205078125 387.1683654785156 C 535.0953369140625 397.7710266113281 527.7998046875 405.1684265136719 517.1995239257812 407.90948486328125 C 506.2121276855469 405.1573486328125 498.9102783203125 397.7611083984375 496.16192626953125 387.2103271484375 C 498.98260498046875 376.3583068847656 506.3662109375 369.00323486328125 517.0946044921875 366.1895751953125 C 527.653564453125 368.9856262207031 535.0335083007812 376.3389587402344 537.835205078125 387.1683654785156" stroke-width="0.0" fill="rgb(146, 115, 86)" opacity="1.0"/>
    <path d="M 161.77552795410156 418.97479248046875 C 158.9101104736328 429.53912353515625 151.5487060546875 436.9353332519531 140.98670959472656 439.78802490234375 C 130.41094970703125 436.9554748535156 123.03386688232422 429.5928649902344 120.2080078125 419.2587585449219 C 123.28377532958984 409.1111145019531 131.43344116210938 402.28369140625 141.373046875 399.6637878417969 C 150.83726501464844 402.03997802734375 158.81382751464844 408.7951965332031 161.77552795410156 418.97479248046875" stroke-width="0.0" fill="rgb(219, 158, 127)" opacity="0.99019927"/>
    <path d="M 515.7437744140625 433.084716796875 C 512.7365112304688 443.0773620605469 504.6854553222656 449.78387451171875 494.8874816894531 452.1811218261719 C 485.3432312011719 449.781982421875 477.291259765625 443.00164794921875 474.26312255859375 433.1591796875 C 477.3633117675781 422.835693359375 484.9303283691406 415.64691162109375 495.0240478515625 412.98016357421875 C 505.1957702636719 415.5539855957031 512.768310546875 422.69586181640625 515.7437744140625 433.084716796875" stroke-width="0.0" fill="rgb(216, 156, 131)" opacity="0.9901652"/>
    <path d="M 321.8974609375 275.1636657714844 C 319.1094055175781 285.7443542480469 311.7384033203125 293.0948181152344 300.8343505859375 295.8961486816406 C 290.2665100097656 293.09686279296875 282.8983459472656 285.7357177734375 280.1152038574219 275.09808349609375 C 282.9057312011719 264.2727355957031 290.27490234375 256.9108581542969 301.2002868652344 254.11187744140625 C 311.7469482421875 256.8888854980469 319.1004638671875 264.2574157714844 321.8974609375 275.1636657714844" stroke-width="0.0" fill="rgb(253, 248, 237)" opacity="1.0"/>
    <path d="M 155.9730682373047 245.85903930664062 C 153.15182495117188 254.2065887451172 144.1172332763672 261.437255859375 134.0617218017578 265.97772216796875 C 124.03926086425781 263.28839111328125 116.71171569824219 255.96070861816406 114.01539611816406 245.58126831054688 C 116.71282196044922 234.04026794433594 124.03990936279297 226.71194458007812 135.01513671875 224.0140838623047 C 145.93499755859375 226.7167205810547 153.08932495117188 234.11439514160156 155.9730682373047 245.85903930664062" stroke-width="0.0" fill="rgb(249, 244, 232)" opacity="0.99001104"/>
    <path d="M 36.76594924926758 214.5313720703125 C 33.54646301269531 225.1407928466797 26.175304412841797 232.63694763183594 15.627495765686035 235.7852783203125 C 5.390748023986816 232.9950408935547 -1.8742332458496094 225.56869506835938 -4.465651512145996 215.03811645507812 C -1.8428128957748413 204.46728515625 5.423257827758789 197.02801513671875 16.00019645690918 194.18222045898438 C 26.63587760925293 196.99652099609375 34.0076789855957 204.36256408691406 36.76594924926758 214.5313720703125" stroke-width="0.0" fill="rgb(142, 156, 179)" opacity="1.0"/>
    <path d="M 269.8501281738281 391.45318603515625 C 267.135986328125 401.78436279296875 259.7554626464844 409.0370178222656 249.20321655273438 410.2840881347656 C 238.26841735839844 408.9817199707031 230.8693084716797 401.7726135253906 228.14649963378906 391.4371032714844 C 231.00164794921875 380.37335205078125 238.3732452392578 373.00189208984375 248.9317169189453 370.1831359863281 C 259.63824462890625 372.9930114746094 267.0021667480469 380.36395263671875 269.8501281738281 391.45318603515625" stroke-width="0.0" fill="rgb(146, 116, 86)" opacity="1.0"/>
    <path d="M 168.81410217285156 384.188232421875 C 165.98919677734375 394.6310119628906 158.6719207763672 402.0831604003906 148.3812255859375 404.9235534667969 C 137.34461975097656 402.0545654296875 130.0082550048828 394.62921142578125 127.14630126953125 383.5845642089844 C 129.91954040527344 373.3434753417969 137.4674530029297 366.33966064453125 147.75399780273438 364.8545227050781 C 158.46665954589844 366.38055419921875 165.952392578125 373.44635009765625 168.81410217285156 384.188232421875" stroke-width="0.0" fill="rgb(146, 116, 86)" opacity="1.0"/>
  </g>
</svg>
