<?xml version="1.0" ?>
<svg xmlns="http://www.w3.org/2000/svg" version="1.1" width="600" height="600">
  <defs/>
  <g>
    <path d="M 381.6178283691406 598.8502197265625 C 378.0089416503906 620.7413330078125 361.7813415527344 622.1317138671875 250.38272094726562 620.4568481445312 C 193.87368774414062 613.0028076171875 189.41189575195312 600.929443359375 177.7311248779297 519.6641845703125 C 180.6199188232422 454.558837890625 203.8911895751953 468.9989013671875 259.9026794433594 494.63958740234375 C 324.63995361328125 484.9391784667969 351.31243896484375 468.7568359375 381.6178283691406 598.8502197265625" stroke-width="0.0" fill="rgb(138, 153, 176)" opacity="0.9970232"/>
    <path d="M 372.7726745605469 4.963733673095703 C 332.5865478515625 81.3174819946289 317.69696044921875 90.55510711669922 237.48001098632812 131.84988403320312 C 185.96841430664062 124.0500259399414 186.33360290527344 125.70427703857422 212.0888214111328 44.25298309326172 C 223.0545654296875 -10.22999095916748 227.32261657714844 -19.13711929321289 288.4337463378906 -21.049591064453125 C 354.4042663574219 -23.355690002441406 368.9287414550781 -21.356338500976562 372.7726745605469 4.963733673095703" stroke-width="0.0" fill="rgb(96, 116, 148)" opacity="0.7319272"/>
    <path d="M 230.48097229003906 565.7616577148438 C 225.86839294433594 644.0308227539062 201.9107208251953 631.0952758789062 148.8784637451172 618.7975463867188 C 96.66534423828125 624.2203979492188 68.68215942382812 635.284423828125 54.10673141479492 604.0758056640625 C 88.84822082519531 540.2772216796875 102.45610046386719 533.2299194335938 190.99485778808594 484.66204833984375 C 219.91796875 491.4527893066406 223.4206085205078 506.29083251953125 230.48097229003906 565.7616577148438" stroke-width="0.0" fill="rgb(138, 153, 177)" opacity="0.9455081"/>
    <path d="M 625.3577270507812 197.06631469726562 C 658.143798828125 320.2006530761719 685.246337890625 344.9137268066406 523.1064453125 336.7444152832031 C 431.7054138183594 278.55767822265625 451.961181640625 220.033447265625 405.7138671875 191.72459411621094 C 441.3447570800781 91.10193634033203 467.2256774902344 90.90636444091797 596.2474365234375 16.498958587646484 C 623.5690307617188 22.999305725097656 623.3321533203125 40.67409896850586 625.3577270507812 197.06631469726562" stroke-width="0.0" fill="rgb(138, 153, 177)" opacity="1.0"/>
    <path d="M 395.31292724609375 380.0824890136719 C 348.38665771484375 551.501953125 334.429931640625 542.420166015625 288.9595031738281 518.0690307617188 C 217.89544677734375 524.8988647460938 184.29522705078125 550.3442993164062 169.50489807128906 396.82635498046875 C 137.23753356933594 309.84942626953125 117.06389617919922 265.3515930175781 322.9965515136719 258.85772705078125 C 445.1768493652344 317.66424560546875 445.39105224609375 326.14959716796875 395.31292724609375 380.0824890136719" stroke-width="0.0" fill="rgb(132, 114, 94)" opacity="0.9828071"/>
    <path d="M 535.1109008789062 222.0067138671875 C 552.0230712890625 289.4046936035156 531.7611083984375 310.3715515136719 333.65447998046875 340.7729187011719 C 264.37744140625 317.143310546875 264.0345153808594 253.32398986816406 177.81326293945312 151.8856201171875 C 289.28961181640625 78.967529296875 348.5398254394531 113.63633728027344 424.1605224609375 87.7296371459961 C 450.5975036621094 89.81983184814453 465.964111328125 95.81571197509766 535.1109008789062 222.0067138671875" stroke-width="0.0" fill="rgb(234, 231, 223)" opacity="0.9134765"/>
    <path d="M 430.67364501953125 85.11724090576172 C 407.3349914550781 138.85166931152344 398.928466796875 153.98419189453125 366.745361328125 255.33651733398438 C 321.1990661621094 172.5841064453125 285.2301330566406 169.8212890625 284.41351318359375 150.6074981689453 C 342.3506164550781 93.34075927734375 339.85650634765625 67.46660614013672 392.21380615234375 46.0396842956543 C 416.034912109375 51.382301330566406 428.2571716308594 57.926124572753906 430.67364501953125 85.11724090576172" stroke-width="0.0" fill="rgb(1, 1, 4)" opacity="0.9679484"/>
    <path d="M 213.5098419189453 358.3894958496094 C 179.88150024414062 539.087890625 160.09921264648438 526.9485473632812 82.28123474121094 522.165283203125 C 9.283112525939941 549.3341674804688 -12.584725379943848 567.5325927734375 -30.781187057495117 340.1593933105469 C -74.65313720703125 273.62860107421875 -90.00047302246094 255.88760375976562 169.78977966308594 211.9783477783203 C 275.4052429199219 241.60714721679688 245.10507202148438 290.5743408203125 213.5098419189453 358.3894958496094" stroke-width="0.0" fill="rgb(113, 124, 151)" opacity="0.817038"/>
    <path d="M 231.12088012695312 171.26803588867188 C 234.23822021484375 174.63336181640625 239.33412170410156 219.8078155517578 205.35260009765625 303.7310791015625 C -56.118988037109375 271.87078857421875 -57.155277252197266 272.39874267578125 -38.305362701416016 232.07754516601562 C 58.088497161865234 36.1593017578125 95.46041870117188 43.957481384277344 145.95106506347656 12.263293266296387 C 154.05276489257812 20.81563377380371 158.0006103515625 32.71951675415039 231.12088012695312 171.26803588867188" stroke-width="0.0" fill="rgb(8, 9, 11)" opacity="0.99689674"/>
    <path d="M 164.4174041748047 2.9877426624298096 C 139.7751007080078 66.75112915039062 122.0682601928711 69.59215545654297 7.615730285644531 172.19027709960938 C -15.810070991516113 159.783935546875 -20.017812728881836 145.10009765625 -19.99036407470703 50.24314498901367 C -10.15634822845459 -47.66112518310547 14.742843627929688 -33.53483581542969 89.92432403564453 -21.33534812927246 C 150.58071899414062 -20.937973022460938 163.6486358642578 -17.89592933654785 164.4174041748047 2.9877426624298096" stroke-width="0.0" fill="rgb(139, 153, 177)" opacity="0.99958646"/>
    <path d="M 208.55218505859375 483.16375732421875 C 165.64154052734375 565.57275390625 144.77008056640625 569.4132080078125 43.85131072998047 620.0747680664062 C 0.23427404463291168 625.3421630859375 -13.263816833496094 623.44775390625 -19.553319931030273 561.8818969726562 C -11.818467140197754 432.6003723144531 15.4846773147583 456.0555725097656 95.25309753417969 477.778564453125 C 165.53561401367188 463.8981018066406 194.06033325195312 448.4869689941406 208.55218505859375 483.16375732421875" stroke-width="0.0" fill="rgb(137, 152, 176)" opacity="0.9987795"/>
    <path d="M 616.12890625 12.499333381652832 C 568.4869995117188 132.57525634765625 531.4608154296875 132.2677459716797 458.3775634765625 186.71511840820312 C 408.18731689453125 161.08782958984375 402.7253723144531 145.69540405273438 398.9602966308594 107.00569915771484 C 427.98248291015625 33.92292404174805 436.9875183105469 12.061237335205078 537.3050537109375 -20.392940521240234 C 586.9144287109375 -28.33148193359375 607.3699951171875 -33.94865798950195 616.12890625 12.499333381652832" stroke-width="0.0" fill="rgb(138, 153, 176)" opacity="1.0"/>
    <path d="M 618.7647705078125 375.7783203125 C 615.0821533203125 682.791015625 603.6884765625 678.2999267578125 524.1744384765625 634.5664672851562 C 312.78472900390625 612.6430053710938 315.97076416015625 597.4402465820312 341.1834716796875 502.4964294433594 C 321.7594299316406 360.33807373046875 278.3933410644531 349.0315246582031 497.3445129394531 342.73828125 C 598.021484375 300.28009033203125 611.3318481445312 306.03314208984375 618.7647705078125 375.7783203125" stroke-width="0.0" fill="rgb(135, 144, 166)" opacity="0.93504375"/>
    <path d="M 207.76255798339844 19.973302841186523 C 156.7806854248047 146.81838989257812 247.19284057617188 111.02702331542969 282.19580078125 335.26239013671875 C 210.6417694091797 100.5956039428711 152.97857666015625 94.28308868408203 131.78387451171875 30.578624725341797 C 133.40647888183594 -8.543262481689453 134.6156768798828 -16.023996353149414 198.10000610351562 -20.02104377746582 C 250.3051300048828 -19.45880699157715 250.92901611328125 -14.34459400177002 207.76255798339844 19.973302841186523" stroke-width="0.0" fill="rgb(4, 4, 5)" opacity="0.9812644"/>
    <path d="M 393.921142578125 53.36368179321289 C 358.40582275390625 123.43960571289062 367.0184020996094 157.72030639648438 297.44500732421875 169.32003784179688 C 274.21429443359375 152.1457061767578 250.55030822753906 136.6363067626953 195.33692932128906 121.17570495605469 C 293.4844055175781 75.20340728759766 304.1964416503906 62.44044494628906 372.23272705078125 21.710298538208008 C 388.5960693359375 18.816804885864258 393.6596374511719 32.1784553527832 393.921142578125 53.36368179321289" stroke-width="0.0" fill="rgb(4, 5, 7)" opacity="0.98079807"/>
    <path d="M 515.904052734375 -6.545160293579102 C 484.5610656738281 68.96321868896484 469.8648376464844 82.57697296142578 406.9967956542969 106.50921630859375 C 366.69207763671875 99.0760269165039 353.8131103515625 92.64881896972656 334.3076171875 23.626510620117188 C 347.7348937988281 -35.10465621948242 366.0718688964844 -29.13506507873535 418.625732421875 -20.648160934448242 C 478.4972839355469 -22.151899337768555 497.5777587890625 -23.78566551208496 515.904052734375 -6.545160293579102" stroke-width="0.0" fill="rgb(138, 153, 177)" opacity="0.9995428"/>
    <path d="M 252.3092041015625 23.66438865661621 C 189.1898651123047 118.3171157836914 151.44692993164062 101.62689208984375 131.63198852539062 102.1509780883789 C 117.82060241699219 102.23458862304688 108.40756225585938 96.03956604003906 98.22237396240234 79.3046646118164 C 109.87039184570312 63.1415901184082 102.1700668334961 37.89201354980469 152.017578125 -21.5631046295166 C 233.6399688720703 -27.99336814880371 247.66864013671875 -22.865692138671875 252.3092041015625 23.66438865661621" stroke-width="0.0" fill="rgb(138, 153, 177)" opacity="1.0"/>
    <path d="M 372.0100402832031 105.10795593261719 C 364.8928527832031 149.29110717773438 368.8579406738281 162.78184509277344 365.8224792480469 238.94729614257812 C 314.6237487792969 155.57568359375 277.1019592285156 157.00587463378906 264.1405029296875 129.32034301757812 C 274.2144775390625 81.4059829711914 289.8072509765625 78.89974975585938 352.9781188964844 61.735294342041016 C 378.0510559082031 62.212806701660156 379.80889892578125 74.69295501708984 372.0100402832031 105.10795593261719" stroke-width="0.0" fill="rgb(135, 152, 179)" opacity="0.9838859"/>
    <path d="M 139.9159393310547 152.80006408691406 C 149.14767456054688 208.18087768554688 137.14273071289062 198.67564392089844 133.089599609375 181.49220275878906 C 74.62850189208984 169.68206787109375 66.56401062011719 161.3555450439453 62.22079086303711 148.59088134765625 C 74.44380950927734 136.69749450683594 78.69432067871094 125.77141571044922 95.21195983886719 111.79491424560547 C 115.78951263427734 114.71134948730469 130.91986083984375 117.78886413574219 139.9159393310547 152.80006408691406" stroke-width="0.0" fill="rgb(143, 158, 188)" opacity="0.92691314"/>
    <path d="M 192.7937469482422 74.90122985839844 C 216.65879821777344 197.9402618408203 201.7342529296875 167.15550231933594 195.09567260742188 167.88446044921875 C 111.80923461914062 139.1549835205078 96.02574157714844 180.05532836914062 108.52841186523438 117.14730834960938 C 120.64619445800781 88.7503890991211 131.03280639648438 83.19815063476562 153.8022918701172 69.178466796875 C 188.31390380859375 50.11725616455078 211.8961181640625 44.957733154296875 192.7937469482422 74.90122985839844" stroke-width="0.0" fill="rgb(135, 151, 178)" opacity="0.9811601"/>
    <path d="M 449.33453369140625 252.16102600097656 C 431.357666015625 187.57150268554688 451.8572082519531 239.98989868164062 432.82025146484375 235.00537109375 C 334.3739318847656 265.12298583984375 377.35980224609375 295.48883056640625 367.3842468261719 188.4784393310547 C 379.3042907714844 138.9736785888672 385.9814453125 129.11129760742188 377.3968505859375 165.26039123535156 C 421.6645812988281 182.7954559326172 419.4024658203125 167.95457458496094 449.33453369140625 252.16102600097656" stroke-width="0.0" fill="rgb(0, 1, 3)" opacity="0.9603986"/>
    <path d="M 70.91991424560547 154.7821044921875 C 58.694061279296875 165.80091857910156 53.51248550415039 176.14144897460938 31.909711837768555 199.07806396484375 C 12.357560157775879 195.62063598632812 -0.7543062567710876 190.283203125 -8.132838249206543 173.3004150390625 C 15.498894691467285 138.8386993408203 25.531816482543945 131.8128662109375 38.21375274658203 126.7158203125 C 54.18008804321289 137.796630859375 63.17615509033203 145.42242431640625 70.91991424560547 154.7821044921875" stroke-width="0.0" fill="rgb(139, 153, 176)" opacity="0.9804864"/>
    <path d="M 143.92251586914062 194.7908935546875 C 103.10384368896484 193.54586791992188 86.6606216430664 197.8292694091797 50.92776870727539 202.48863220214844 C 42.92687225341797 210.66650390625 34.71485137939453 200.2965545654297 31.150850296020508 187.1708221435547 C 50.45631408691406 166.55740356445312 57.26826477050781 158.073486328125 70.20024108886719 143.82640075683594 C 82.21073913574219 153.72325134277344 104.15252685546875 148.2036590576172 143.92251586914062 194.7908935546875" stroke-width="0.0" fill="rgb(137, 152, 178)" opacity="0.9838214"/>
    <path d="M 357.8273620605469 517.6351928710938 C 325.74188232421875 551.876220703125 305.173583984375 548.0135498046875 281.0473937988281 546.4981079101562 C 257.18096923828125 543.709716796875 232.696533203125 550.8585205078125 163.69631958007812 474.6944274902344 C 167.38673400878906 424.8819274902344 191.89590454101562 446.1738586425781 316.08209228515625 444.5533447265625 C 363.4983825683594 429.6726989746094 354.005615234375 457.0313720703125 357.8273620605469 517.6351928710938" stroke-width="0.0" fill="rgb(141, 153, 176)" opacity="0.9738081"/>
    <path d="M 521.4677124023438 177.88482666015625 C 521.872802734375 238.8195037841797 465.58087158203125 203.5760040283203 382.2972412109375 248.22412109375 C 350.27734375 156.85731506347656 341.47015380859375 151.16873168945312 335.07037353515625 121.25711059570312 C 332.8356018066406 84.73994445800781 333.3263244628906 69.71766662597656 369.2950744628906 66.69881439208984 C 413.17376708984375 80.13177490234375 421.46295166015625 87.49578094482422 521.4677124023438 177.88482666015625" stroke-width="0.0" fill="rgb(138, 153, 177)" opacity="0.992708"/>
    <path d="M 301.8490295410156 125.06451416015625 C 299.2481689453125 168.41973876953125 298.5673828125 159.57608032226562 275.24591064453125 145.72549438476562 C 224.56419372558594 117.63819885253906 204.07447814941406 119.70720672607422 173.74917602539062 108.23489379882812 C 191.25494384765625 69.5186538696289 211.15440368652344 72.13031768798828 255.2389373779297 68.08070373535156 C 276.89886474609375 66.1328353881836 288.28607177734375 70.64323425292969 301.8490295410156 125.06451416015625" stroke-width="0.0" fill="rgb(137, 153, 180)" opacity="0.9614343"/>
    <path d="M 114.20629119873047 260.7012023925781 C 97.12406158447266 262.3383483886719 85.21846008300781 264.1161193847656 52.261634826660156 270.89556884765625 C 55.17837905883789 391.83502197265625 21.096406936645508 371.596923828125 -33.81629180908203 318.9184875488281 C 16.223209381103516 217.72909545898438 31.23965835571289 211.98953247070312 67.34857177734375 194.7900848388672 C 79.55941772460938 215.99095153808594 89.19279479980469 224.7669677734375 114.20629119873047 260.7012023925781" stroke-width="0.0" fill="rgb(138, 152, 178)" opacity="0.97808135"/>
    <path d="M 401.73870849609375 179.52745056152344 C 399.66552734375 200.66204833984375 418.3110046386719 249.58937072753906 305.29766845703125 313.14935302734375 C 414.28173828125 212.02516174316406 353.0461730957031 283.2635498046875 367.65252685546875 194.230224609375 C 324.145263671875 128.6116943359375 332.6607666015625 130.49761962890625 350.4942932128906 132.01480102539062 C 378.5765686035156 137.73031616210938 389.3951110839844 142.9357452392578 401.73870849609375 179.52745056152344" stroke-width="0.0" fill="rgb(2, 2, 4)" opacity="0.9004555"/>
    <path d="M 94.19125366210938 125.7813720703125 C 81.87747192382812 142.0908966064453 75.70185852050781 151.65281677246094 68.35564422607422 161.8242645263672 C 53.762420654296875 151.20404052734375 44.321311950683594 143.84423828125 35.67706298828125 133.9416046142578 C 45.49331283569336 120.7825698852539 54.427486419677734 114.17362213134766 73.8537826538086 100.0399169921875 C 85.09242248535156 103.35091400146484 92.43379974365234 112.44322204589844 94.19125366210938 125.7813720703125" stroke-width="0.0" fill="rgb(138, 153, 176)" opacity="1.0"/>
    <path d="M 133.11158752441406 108.2077865600586 C 133.7095489501953 129.32919311523438 127.12118530273438 139.02346801757812 108.2228775024414 140.42266845703125 C 80.47465515136719 130.6555938720703 71.78361511230469 122.91301727294922 66.10719299316406 110.8880386352539 C 80.56340789794922 91.83011627197266 89.4600830078125 85.16453552246094 107.64358520507812 72.1148910522461 C 118.50989532470703 75.82084655761719 125.71463012695312 85.04532623291016 133.11158752441406 108.2077865600586" stroke-width="0.0" fill="rgb(139, 154, 177)" opacity="0.980651"/>
    <path d="M 372.51690673828125 62.589500427246094 C 364.9479675292969 110.1020278930664 347.02789306640625 111.65789794921875 295.57818603515625 123.86602020263672 C 263.3487548828125 121.95584869384766 256.90179443359375 111.82817077636719 253.69151306152344 95.4954605102539 C 271.0660400390625 44.75727462768555 285.21990966796875 38.56963348388672 332.7381896972656 18.76799964904785 C 351.9415588378906 17.299617767333984 362.3648376464844 22.329761505126953 372.51690673828125 62.589500427246094" stroke-width="0.0" fill="rgb(138, 153, 177)" opacity="0.72657305"/>
    <path d="M 77.8411636352539 213.58143615722656 C 65.6198959350586 233.02630615234375 54.06278991699219 240.1773223876953 11.04270076751709 267.5720520019531 C -10.574002265930176 263.141357421875 -14.290590286254883 247.2538604736328 -16.849323272705078 210.08042907714844 C -11.597860336303711 175.26724243164062 -3.0450501441955566 166.24017333984375 21.52027702331543 165.0426025390625 C 56.9489860534668 175.51869201660156 66.1564712524414 183.3389434814453 77.8411636352539 213.58143615722656" stroke-width="0.0" fill="rgb(141, 155, 179)" opacity="0.53305024"/>
    <path d="M 507.41485595703125 346.2078857421875 C 584.0686645507812 345.2864074707031 563.213134765625 369.2212219238281 485.06787109375 385.8683166503906 C 395.42803955078125 377.44500732421875 368.6681213378906 345.9315185546875 450.5003662109375 346.2170104980469 C 463.1496887207031 349.8935852050781 455.4990234375 325.44915771484375 562.835205078125 222.3924560546875 C 539.0097045898438 247.62026977539062 521.153564453125 322.9714660644531 507.41485595703125 346.2078857421875" stroke-width="0.0" fill="rgb(6, 8, 11)" opacity="0.9957789"/>
    <path d="M 414.40478515625 164.90060424804688 C 409.4894714355469 178.98899841308594 398.65399169921875 184.76300048828125 355.04510498046875 193.66778564453125 C 327.2149963378906 189.5338897705078 318.73272705078125 178.17156982421875 306.0390319824219 144.92189025878906 C 320.8748474121094 111.02371215820312 336.40826416015625 109.87190246582031 359.0419921875 112.57279205322266 C 377.15777587890625 122.91980743408203 392.1383972167969 124.81145477294922 414.40478515625 164.90060424804688" stroke-width="0.0" fill="rgb(139, 154, 177)" opacity="1.0"/>
    <path d="M 418.98345947265625 189.27349853515625 C 414.1734313964844 233.57835388183594 403.66546630859375 236.73211669921875 374.1910095214844 252.48947143554688 C 362.0029602050781 234.9944305419922 355.5650329589844 213.3288116455078 343.8954772949219 184.9197998046875 C 337.0187683105469 169.11917114257812 342.9103088378906 159.5028839111328 387.4414367675781 151.79100036621094 C 412.0163269042969 153.3008270263672 418.6912841796875 162.54058837890625 418.98345947265625 189.27349853515625" stroke-width="0.0" fill="rgb(139, 153, 177)" opacity="0.9848501"/>
    <path d="M 567.7694091796875 380.35186767578125 C 520.9384765625 434.970947265625 504.9178771972656 435.5127868652344 490.7861022949219 426.27777099609375 C 467.240234375 425.08203125 406.32257080078125 467.4922180175781 272.9599304199219 359.0212097167969 C 490.66461181640625 371.1658020019531 401.4772644042969 303.6278991699219 441.1079406738281 345.5272521972656 C 539.6326293945312 344.9247741699219 539.7764282226562 344.523681640625 567.7694091796875 380.35186767578125" stroke-width="0.0" fill="rgb(5, 3, 1)" opacity="0.9326453"/>
    <path d="M 222.66172790527344 323.4058532714844 C 206.00018310546875 397.5708312988281 173.241455078125 368.68914794921875 184.25885009765625 365.6890869140625 C 135.1721649169922 366.3941955566406 112.79270935058594 385.4264831542969 49.87458419799805 361.0975036621094 C 115.2253189086914 300.6993713378906 144.5974884033203 281.954833984375 208.01234436035156 315.0406188964844 C 157.31874084472656 336.3090515136719 141.31527709960938 324.65130615234375 222.66172790527344 323.4058532714844" stroke-width="0.0" fill="rgb(130, 106, 83)" opacity="1.0"/>
    <path d="M 356.04425048828125 339.56903076171875 C 449.73193359375 318.9090270996094 433.38360595703125 328.2871398925781 413.3610534667969 352.5411682128906 C 239.20651245117188 345.3984680175781 275.55828857421875 370.5090026855469 234.45101928710938 305.276611328125 C 278.7683410644531 277.4494934082031 299.74462890625 288.74530029296875 344.9326477050781 287.57952880859375 C 300.1635437011719 340.5973205566406 295.1473388671875 314.6024475097656 356.04425048828125 339.56903076171875" stroke-width="0.0" fill="rgb(10, 12, 12)" opacity="0.9787908"/>
    <path d="M 227.10159301757812 205.0744171142578 C 317.4730529785156 360.4267883300781 254.0433349609375 396.0570068359375 217.7851104736328 379.38824462890625 C 208.51002502441406 325.3338928222656 206.8203887939453 307.31036376953125 172.0457000732422 290.2688293457031 C 181.244140625 298.1641845703125 232.9732208251953 328.7349548339844 147.52113342285156 164.8719024658203 C 136.8501434326172 157.685546875 258.1480407714844 185.3118438720703 227.10159301757812 205.0744171142578" stroke-width="0.0" fill="rgb(248, 244, 236)" opacity="0.9751332"/>
    <path d="M 208.22500610351562 318.332275390625 C 211.6304473876953 358.93389892578125 237.62908935546875 322.71563720703125 154.9329071044922 303.2026672363281 C 68.36367797851562 295.9461975097656 58.53398895263672 432.0189514160156 60.352230072021484 327.4257507324219 C 169.4864044189453 309.5286560058594 -19.771343231201172 294.8528747558594 104.43013763427734 269.0245056152344 C 201.8553466796875 240.39852905273438 187.42686462402344 252.21559143066406 208.22500610351562 318.332275390625" stroke-width="0.0" fill="rgb(12, 12, 13)" opacity="0.9999726"/>
    <path d="M 568.46337890625 381.5362854003906 C 603.4278564453125 422.5570373535156 581.1920776367188 401.5279541015625 511.3115539550781 406.1282653808594 C 486.9032897949219 405.87103271484375 474.2991638183594 399.6485595703125 572.8489990234375 399.0948791503906 C 507.5777893066406 358.8802490234375 469.05169677734375 255.93492126464844 525.951171875 346.5345458984375 C 603.943115234375 341.545166015625 532.1293334960938 354.627685546875 568.46337890625 381.5362854003906" stroke-width="0.0" fill="rgb(3, 3, 4)" opacity="0.97326636"/>
    <path d="M 324.5868225097656 426.0452575683594 C 248.9199676513672 448.9917297363281 194.59295654296875 444.04541015625 133.49134826660156 444.48193359375 C 60.29079055786133 445.44793701171875 -12.677828788757324 441.3258056640625 -33.656349182128906 449.6010437011719 C 76.74055480957031 328.8797302246094 114.48885345458984 376.01080322265625 138.93707275390625 390.63275146484375 C 158.38699340820312 386.67413330078125 201.14120483398438 357.3944091796875 324.5868225097656 426.0452575683594" stroke-width="0.0" fill="rgb(234, 166, 129)" opacity="0.85737836"/>
    <path d="M 670.091064453125 440.4963684082031 C 564.6514892578125 447.1624755859375 510.4712829589844 443.55584716796875 496.04205322265625 444.7476806640625 C 479.0356140136719 444.3670959472656 415.31109619140625 444.7318420410156 209.94558715820312 444.5827331542969 C 329.2572937011719 303.5476989746094 472.259521484375 395.01348876953125 482.75537109375 400.37908935546875 C 531.2260131835938 416.9673767089844 635.9060668945312 384.60894775390625 670.091064453125 440.4963684082031" stroke-width="0.0" fill="rgb(217, 158, 129)" opacity="0.9435221"/>
    <path d="M 355.0290832519531 268.0536193847656 C 327.70556640625 293.8505859375 319.5684814453125 306.05865478515625 282.6132507324219 341.28155517578125 C 282.71697998046875 335.5862121582031 276.5235595703125 307.5024719238281 268.0152587890625 260.20849609375 C 256.66656494140625 209.71324157714844 224.45480346679688 196.6747283935547 276.8769226074219 155.2306365966797 C 347.5045166015625 209.55902099609375 366.8416442871094 248.6741180419922 355.0290832519531 268.0536193847656" stroke-width="0.0" fill="rgb(251, 247, 237)" opacity="0.9637179"/>
    <path d="M 195.10940551757812 296.5511474609375 C 168.62368774414062 319.791748046875 133.9195098876953 252.78997802734375 137.6698760986328 291.13458251953125 C 125.3006362915039 263.5293884277344 122.74235534667969 258.7558898925781 82.220458984375 205.884521484375 C 79.80690002441406 205.09063720703125 115.44049072265625 197.9693145751953 157.73159790039062 203.70266723632812 C 156.73956298828125 233.86732482910156 151.5586395263672 168.3391571044922 195.10940551757812 296.5511474609375" stroke-width="0.0" fill="rgb(239, 236, 228)" opacity="0.9852995"/>
    <path d="M 55.7296028137207 204.34214782714844 C 36.774391174316406 227.42538452148438 28.83260726928711 236.53189086914062 1.7587403059005737 259.31561279296875 C -8.617741584777832 249.21620178222656 -10.483126640319824 234.88844299316406 -9.78083324432373 214.69654846191406 C -10.679449081420898 194.61648559570312 -7.104856014251709 182.1431427001953 10.547386169433594 176.5288543701172 C 37.785255432128906 184.8562774658203 48.174957275390625 191.5880889892578 55.7296028137207 204.34214782714844" stroke-width="0.0" fill="rgb(139, 153, 176)" opacity="1.0"/>
    <path d="M 346.7770080566406 437.16473388671875 C 301.7584533691406 392.3233337402344 326.5181579589844 409.35589599609375 272.870361328125 405.6671447753906 C 221.62498474121094 405.58209228515625 201.7340850830078 405.99505615234375 142.7890167236328 404.8605651855469 C 222.84934997558594 350.7928161621094 221.3367156982422 327.9208984375 258.22491455078125 292.83087158203125 C 296.75311279296875 389.46307373046875 305.7104187011719 398.39886474609375 346.7770080566406 437.16473388671875" stroke-width="0.0" fill="rgb(7, 6, 8)" opacity="0.9938242"/>
    <path d="M 233.32797241210938 375.8153076171875 C 206.49449157714844 416.1965026855469 185.8863983154297 404.1864318847656 133.02015686035156 406.730712890625 C 86.03540802001953 401.3038330078125 8.669514656066895 451.4234619140625 16.731582641601562 386.4364929199219 C 38.31227111816406 335.2878112792969 48.686405181884766 364.5777893066406 140.40185546875 358.936767578125 C 184.6123809814453 362.72650146484375 221.1128387451172 350.5304260253906 233.32797241210938 375.8153076171875" stroke-width="0.0" fill="rgb(2, 7, 0)" opacity="0.4805901"/>
    <path d="M 548.1170654296875 244.5499267578125 C 512.9221801757812 239.40846252441406 499.9914855957031 245.7448272705078 483.16009521484375 242.85525512695312 C 504.8597106933594 245.62530517578125 482.7749938964844 241.9097900390625 447.2491455078125 250.61248779296875 C 432.7969970703125 198.7938232421875 456.224365234375 242.04202270507812 491.0689697265625 229.80795288085938 C 497.39776611328125 236.5489501953125 552.09326171875 210.34230041503906 548.1170654296875 244.5499267578125" stroke-width="0.0" fill="rgb(7, 8, 10)" opacity="0.99988997"/>
    <path d="M 110.25887298583984 407.1865539550781 C 93.37932586669922 428.79705810546875 85.53752899169922 436.8134460449219 69.62199401855469 444.6030578613281 C 44.4404411315918 443.6624755859375 22.097986221313477 451.4162902832031 -6.643910884857178 404.8656921386719 C 54.856510162353516 408.2573547363281 97.84151458740234 404.3551025390625 103.24310302734375 408.05499267578125 C 85.17861938476562 390.18902587890625 88.27326965332031 403.9764099121094 110.25887298583984 407.1865539550781" stroke-width="0.0" fill="rgb(220, 161, 132)" opacity="1.0"/>
    <path d="M 446.84234619140625 360.49163818359375 C 482.5400695800781 392.3281555175781 488.5821533203125 388.6604919433594 472.9861755371094 397.296142578125 C 461.6930236816406 396.0262145996094 457.54205322265625 385.6771240234375 434.770263671875 352.02490234375 C 407.7586669921875 350.95611572265625 426.4808349609375 351.2201843261719 509.05999755859375 351.2914123535156 C 546.9035034179688 350.861572265625 542.9015502929688 362.14483642578125 446.84234619140625 360.49163818359375" stroke-width="0.0" fill="rgb(158, 129, 99)" opacity="0.99583596"/>
    <path d="M 162.201416015625 405.3425598144531 C 89.65093231201172 405.0984191894531 84.94002532958984 406.1563720703125 110.3519287109375 406.44049072265625 C 82.3935775756836 402.76446533203125 5.977429389953613 408.8968200683594 17.40158462524414 401.6222229003906 C 64.06810760498047 399.3797912597656 85.35762786865234 411.2456359863281 78.15516662597656 374.0816650390625 C 93.38676452636719 406.9104309082031 74.2958984375 367.2862243652344 162.201416015625 405.3425598144531" stroke-width="0.0" fill="rgb(5, 4, 5)" opacity="0.9638683"/>
    <path d="M 125.18379211425781 407.25408935546875 C 115.5503921508789 416.38104248046875 101.29926300048828 421.2499694824219 92.19124603271484 413.24395751953125 C 75.86055755615234 416.1503601074219 64.58331298828125 407.40008544921875 106.84404754638672 404.98126220703125 C 24.59255599975586 400.7620544433594 55.59206771850586 377.6968688964844 214.0109100341797 401.46630859375 C 53.19735336303711 402.00299072265625 47.98622512817383 398.9617004394531 125.18379211425781 407.25408935546875" stroke-width="0.0" fill="rgb(206, 162, 126)" opacity="0.63003534"/>
    <path d="M 396.0408935546875 368.0355529785156 C 213.6363525390625 388.6927490234375 336.0917663574219 406.2403869628906 307.4438781738281 401.554443359375 C 162.54478454589844 400.49859619140625 161.6790771484375 407.61224365234375 69.58595275878906 365.8858337402344 C 212.22329711914062 365.32269287109375 243.2611846923828 365.719482421875 257.7275390625 365.529541015625 C 262.5140075683594 366.427001953125 307.20477294921875 363.9587707519531 396.0408935546875 368.0355529785156" stroke-width="0.0" fill="rgb(154, 121, 93)" opacity="0.9666442"/>
    <path d="M 552.7003784179688 361.4178771972656 C 539.058837890625 371.2342224121094 529.4672241210938 363.85357666015625 539.38818359375 370.74224853515625 C 550.281982421875 357.2959899902344 581.893310546875 361.28924560546875 480.86834716796875 360.5340270996094 C 507.32965087890625 346.12939453125 550.0155029296875 353.96746826171875 553.4553833007812 350.5238952636719 C 541.4448852539062 359.6078186035156 562.8208618164062 341.0733337402344 552.7003784179688 361.4178771972656" stroke-width="0.0" fill="rgb(161, 130, 98)" opacity="1.0"/>
    <path d="M 574.4721069335938 401.6476135253906 C 553.2800903320312 401.7741394042969 523.2188110351562 401.5099792480469 510.33587646484375 401.6140441894531 C 511.6744689941406 401.0891418457031 488.98095703125 403.2779541015625 477.7398986816406 396.2794494628906 C 471.80706787109375 360.0881042480469 468.9274597167969 366.5416564941406 529.9591674804688 365.5889892578125 C 555.5516967773438 366.63177490234375 536.5148315429688 358.71734619140625 574.4721069335938 401.6476135253906" stroke-width="0.0" fill="rgb(148, 118, 92)" opacity="0.97315514"/>
    <path d="M 133.89047241210938 297.07720947265625 C 139.66920471191406 296.0041809082031 109.4810562133789 306.1416320800781 102.89359283447266 307.2610168457031 C 87.30290222167969 294.6358642578125 77.65412902832031 287.58209228515625 61.229339599609375 275.9957275390625 C 83.31243896484375 271.69378662109375 108.55704498291016 266.49249267578125 110.72380065917969 267.20404052734375 C 121.13090515136719 267.9440002441406 115.50789642333984 255.51451110839844 133.89047241210938 297.07720947265625" stroke-width="0.0" fill="rgb(240, 237, 229)" opacity="0.99420655"/>
    <path d="M 425.9520263671875 354.035400390625 C 431.7256164550781 382.0379333496094 444.62109375 404.98345947265625 403.9661865234375 398.8642883300781 C 296.0984802246094 413.5747985839844 298.4034729003906 407.0229187011719 292.9013366699219 375.5764465332031 C 443.03515625 372.474609375 454.7704162597656 378.8110656738281 430.5970458984375 368.7799072265625 C 424.2713928222656 351.5616760253906 429.10308837890625 361.6517028808594 425.9520263671875 354.035400390625" stroke-width="0.0" fill="rgb(5, 6, 2)" opacity="0.9178803"/>
    <path d="M 451.4198303222656 372.2959289550781 C 469.6559753417969 367.4984436035156 464.85040283203125 373.43499755859375 450.6755065917969 365.6236877441406 C 458.4324645996094 357.7609558105469 454.223876953125 361.84552001953125 276.7908020019531 359.9316101074219 C 426.91815185546875 340.36181640625 482.88623046875 361.1459045410156 460.20538330078125 351.3265075683594 C 442.50091552734375 354.0618896484375 447.2507629394531 363.6140441894531 451.4198303222656 372.2959289550781" stroke-width="0.0" fill="rgb(160, 130, 101)" opacity="1.0"/>
    <path d="M 513.80078125 405.72235107421875 C 484.1656494140625 405.7353210449219 460.9746398925781 405.55120849609375 416.9507751464844 405.7074279785156 C 377.3647766113281 405.2212219238281 322.9154052734375 407.117431640625 305.32806396484375 402.43499755859375 C 470.56964111328125 403.2109069824219 455.38507080078125 387.49578857421875 440.50238037109375 360.6922912597656 C 468.9728698730469 357.8790588378906 461.8539733886719 389.4270324707031 513.80078125 405.72235107421875" stroke-width="0.0" fill="rgb(5, 4, 6)" opacity="0.9861933"/>
    <path d="M 512.9434204101562 372.877685546875 C 505.2132568359375 396.66522216796875 515.5684204101562 402.4530029296875 492.4109802246094 401.50079345703125 C 457.1166687011719 400.116943359375 486.4235534667969 376.5364074707031 359.69097900390625 366.44158935546875 C 456.1748962402344 365.5830383300781 461.25146484375 368.4131774902344 404.15032958984375 365.6534729003906 C 498.2267761230469 366.0807800292969 509.3671875 363.56732177734375 512.9434204101562 372.877685546875" stroke-width="0.0" fill="rgb(151, 119, 95)" opacity="0.9988515"/>
    <path d="M 572.600830078125 237.7952117919922 C 499.02972412109375 234.09278869628906 485.0547790527344 238.32481384277344 491.6539611816406 236.6231689453125 C 499.133544921875 237.7366180419922 484.42132568359375 236.00123596191406 452.7973327636719 242.54598999023438 C 442.1349182128906 195.2616424560547 468.94219970703125 210.32113647460938 494.9283752441406 208.5213623046875 C 517.9598999023438 187.11083984375 541.0831298828125 184.3704071044922 572.600830078125 237.7952117919922" stroke-width="0.0" fill="rgb(138, 153, 177)" opacity="0.9539898"/>
    <path d="M 29.148880004882812 386.6322937011719 C 125.57715606689453 386.4150390625 132.9603271484375 391.5653381347656 14.304099082946777 390.64013671875 C 69.86656951904297 370.4048156738281 85.05593872070312 368.077880859375 2.475451707839966 380.2727355957031 C 114.03419494628906 377.0583190917969 130.9080352783203 384.0230712890625 115.5408935546875 375.2436218261719 C 67.60137939453125 379.7606506347656 65.91647338867188 367.3544006347656 29.148880004882812 386.6322937011719" stroke-width="0.0" fill="rgb(0, 2, 1)" opacity="0.9190607"/>
    <path d="M 454.4078063964844 391.1266174316406 C 439.4393310546875 387.76031494140625 433.2154846191406 381.84130859375 488.8665466308594 401.58880615234375 C 457.1153564453125 401.2629699707031 432.3672180175781 401.94073486328125 263.77423095703125 401.2251892089844 C 322.32867431640625 359.63037109375 386.36956787109375 392.23089599609375 455.6943054199219 373.33514404296875 C 426.1615905761719 363.062744140625 448.5182189941406 380.81072998046875 454.4078063964844 391.1266174316406" stroke-width="0.0" fill="rgb(144, 115, 90)" opacity="0.9824845"/>
    <path d="M 231.93966674804688 362.26251220703125 C 147.594970703125 356.5003356933594 122.17444610595703 362.32733154296875 137.58018493652344 359.99859619140625 C 157.50949096679688 363.78948974609375 129.26425170898438 354.7926025390625 49.6248779296875 363.40179443359375 C 130.90536499023438 366.5304260253906 150.5276336669922 363.0870056152344 138.64002990722656 365.7117919921875 C 125.05933380126953 361.9295349121094 149.08009338378906 369.5863952636719 231.93966674804688 362.26251220703125" stroke-width="0.0" fill="rgb(1, 0, 1)" opacity="0.9667351"/>
    <path d="M 225.8148956298828 328.1556091308594 C 237.3256072998047 303.1449890136719 231.75558471679688 311.4432678222656 234.7258758544922 304.7700500488281 C 229.550048828125 308.055419921875 235.74774169921875 308.6488037109375 201.4189910888672 331.6392517089844 C 217.20584106445312 313.8994140625 217.24267578125 279.6759033203125 232.607666015625 171.41416931152344 C 232.32205200195312 258.90850830078125 214.1476593017578 312.5108947753906 225.8148956298828 328.1556091308594" stroke-width="0.0" fill="rgb(7, 8, 7)" opacity="0.95421314"/>
    <path d="M 265.0579528808594 341.04669189453125 C 269.6183166503906 363.6720275878906 268.3706359863281 360.76080322265625 229.37158203125 360.989501953125 C 205.8063507080078 355.1728820800781 227.8321990966797 353.0621643066406 268.8140563964844 351.59918212890625 C 231.19442749023438 317.6770324707031 229.456787109375 322.6130065917969 233.4503631591797 326.2297668457031 C 241.8968048095703 332.47125244140625 254.92372131347656 333.7041931152344 265.0579528808594 341.04669189453125" stroke-width="0.0" fill="rgb(88, 73, 54)" opacity="0.7644115"/>
    <path d="M 304.9686584472656 360.3926696777344 C 251.47927856445312 360.0542297363281 239.74667358398438 361.3746032714844 241.55833435058594 355.7628479003906 C 245.548583984375 353.9525146484375 252.68655395507812 352.4386901855469 288.13427734375 352.3575744628906 C 242.77700805664062 328.9470520019531 240.98013305664062 338.1498107910156 236.6103057861328 334.46783447265625 C 273.124267578125 340.5492248535156 270.08575439453125 345.2220153808594 304.9686584472656 360.3926696777344" stroke-width="0.0" fill="rgb(157, 127, 94)" opacity="1.0"/>
    <path d="M 270.9777526855469 326.1219482421875 C 267.30145263671875 313.99420166015625 255.193603515625 314.7690124511719 241.16693115234375 311.03387451171875 C 249.4114990234375 316.1775207519531 235.01687622070312 314.6356201171875 219.8689422607422 305.2508544921875 C 227.53857421875 270.69427490234375 219.83892822265625 259.7295837402344 255.11965942382812 263.6267395019531 C 265.2642822265625 287.8155517578125 269.24072265625 300.7779846191406 270.9777526855469 326.1219482421875" stroke-width="0.0" fill="rgb(251, 247, 237)" opacity="0.9628061"/>
    <path d="M 342.9478759765625 341.273193359375 C 321.8714294433594 350.2310485839844 292.435546875 336.63433837890625 314.36651611328125 344.3157958984375 C 350.0972595214844 347.739501953125 331.8398132324219 345.3907775878906 284.6546325683594 347.01531982421875 C 307.811767578125 327.4876403808594 296.66876220703125 328.1345520019531 298.7999267578125 345.5117492675781 C 297.6358642578125 339.9281921386719 371.50787353515625 353.7811584472656 342.9478759765625 341.273193359375" stroke-width="0.0" fill="rgb(166, 176, 173)" opacity="0.9860704"/>
    <path d="M 81.23412322998047 348.19366455078125 C 77.17774963378906 382.7535095214844 108.57946014404297 373.21490478515625 53.73113250732422 374.9659423828125 C 39.82894515991211 379.5191650390625 38.748294830322266 358.2788391113281 69.19425964355469 361.7257385253906 C 70.01268768310547 366.0952453613281 68.60391998291016 329.3591003417969 69.71260833740234 334.2766418457031 C 136.5821075439453 310.23553466796875 130.09829711914062 345.03955078125 81.23412322998047 348.19366455078125" stroke-width="0.0" fill="rgb(156, 122, 89)" opacity="0.9537093"/>
    <path d="M 508.3734436035156 332.5064392089844 C 509.3059997558594 326.2804870605469 504.4337158203125 343.4676208496094 504.24066162109375 345.5448303222656 C 517.9791870117188 347.10919189453125 507.09759521484375 331.8217468261719 515.6538696289062 344.33660888671875 C 516.8059692382812 348.1618347167969 513.8916015625 336.7079162597656 516.2930908203125 345.0048522949219 C 499.91796875 344.86572265625 519.46533203125 347.59515380859375 508.3734436035156 332.5064392089844" stroke-width="0.0" fill="rgb(231, 228, 227)" opacity="0.9206905"/>
    <path d="M 265.8463134765625 316.85943603515625 C 278.8853454589844 350.0310363769531 253.2022705078125 334.6854248046875 229.326904296875 329.4372253417969 C 219.4172821044922 332.5159606933594 199.65228271484375 325.3046569824219 210.09632873535156 315.21881103515625 C 221.37359619140625 269.30511474609375 220.73001098632812 232.98580932617188 220.903564453125 305.34295654296875 C 230.27593994140625 306.2882385253906 248.31536865234375 308.851318359375 265.8463134765625 316.85943603515625" stroke-width="0.0" fill="rgb(0, 6, 15)" opacity="0.52628356"/>
    <path d="M 234.98585510253906 330.7940673828125 C 232.20155334472656 339.9104309082031 223.22689819335938 344.290283203125 214.99285888671875 361.81005859375 C 209.7815399169922 346.0791015625 205.0554656982422 340.5869445800781 201.20974731445312 335.8269348144531 C 192.70652770996094 305.5668640136719 197.52828979492188 282.4796447753906 206.06695556640625 314.6487121582031 C 223.4184112548828 324.03936767578125 229.88534545898438 321.6596984863281 234.98585510253906 330.7940673828125" stroke-width="0.0" fill="rgb(0, 0, 0)" opacity="0.68105876"/>
    <path d="M 118.99134826660156 271.4622497558594 C 133.0040283203125 288.5086975097656 143.27310180664062 303.1164855957031 119.52313995361328 300.187744140625 C 117.38571166992188 293.162353515625 111.89261627197266 285.7992858886719 113.65727233886719 274.8706359863281 C 127.88260650634766 292.06378173828125 126.3484878540039 257.6761474609375 111.1954574584961 267.1672668457031 C 111.26903533935547 284.7227783203125 139.98338317871094 283.94732666015625 118.99134826660156 271.4622497558594" stroke-width="0.0" fill="rgb(131, 135, 146)" opacity="0.46256942"/>
    <path d="M 38.52338790893555 370.125244140625 C 40.910011291503906 339.75164794921875 26.561336517333984 362.23907470703125 23.780725479125977 369.4616394042969 C 39.678348541259766 389.1146545410156 20.98119354248047 388.9637451171875 2.826460838317871 379.8747863769531 C 30.14591407775879 365.09625244140625 33.10641860961914 357.1669006347656 14.703733444213867 365.1612854003906 C 23.58129119873047 375.5355529785156 43.62860870361328 377.94854736328125 38.52338790893555 370.125244140625" stroke-width="0.0" fill="rgb(140, 154, 179)" opacity="1.0"/>
    <path d="M 251.22372436523438 360.00213623046875 C 248.8594512939453 371.13043212890625 249.16510009765625 369.79559326171875 251.1917266845703 360.2950439453125 C 221.31991577148438 357.29302978515625 217.8113250732422 366.44329833984375 219.67648315429688 352.9310607910156 C 267.6490783691406 351.3856506347656 249.98159790039062 359.001220703125 248.15162658691406 333.1571044921875 C 244.3258514404297 339.95111083984375 256.88787841796875 346.3012390136719 251.22372436523438 360.00213623046875" stroke-width="0.0" fill="rgb(162, 136, 107)" opacity="0.8404824"/>
    <path d="M 426.6011657714844 339.8114013671875 C 409.15606689453125 351.9987487792969 374.21575927734375 335.9891662597656 405.8250427246094 346.5759582519531 C 401.69970703125 345.9246826171875 381.8954162597656 346.4656982421875 355.9435729980469 346.3801574707031 C 392.3425598144531 329.7259521484375 355.9676818847656 346.0806579589844 384.0138244628906 344.6584777832031 C 369.57086181640625 340.5794372558594 456.43438720703125 354.0620422363281 426.6011657714844 339.8114013671875" stroke-width="0.0" fill="rgb(205, 222, 228)" opacity="0.7477575"/>
    <path d="M 278.1477966308594 347.47198486328125 C 250.0027618408203 348.0338439941406 238.7940673828125 347.57745361328125 212.11058044433594 347.6559753417969 C 218.36080932617188 368.77008056640625 211.7024688720703 356.55670166015625 107.8936538696289 354.5589904785156 C 153.05712890625 273.63494873046875 181.67001342773438 320.3852233886719 209.81924438476562 322.6528015136719 C 224.99342346191406 319.7594909667969 238.31130981445312 329.4945068359375 278.1477966308594 347.47198486328125" stroke-width="0.0" fill="rgb(154, 122, 92)" opacity="0.9908698"/>
    <path d="M 316.6230773925781 389.12939453125 C 479.8599853515625 386.1643981933594 448.9404602050781 395.3227233886719 378.1802062988281 393.55596923828125 C 282.1479187011719 392.137939453125 293.8958740234375 399.4389953613281 293.3372802734375 381.7754211425781 C 304.20770263671875 372.87335205078125 335.7774963378906 383.4120178222656 326.69244384765625 377.4354248046875 C 317.62945556640625 384.6396484375 314.7709655761719 373.595458984375 316.6230773925781 389.12939453125" stroke-width="0.0" fill="rgb(43, 35, 26)" opacity="1.0"/>
    <path d="M 413.0091247558594 295.7803955078125 C 410.3626403808594 304.08123779296875 403.1052551269531 311.3905944824219 394.90863037109375 314.0105895996094 C 384.9697265625 311.3456115722656 377.6568908691406 304.0291442871094 374.9903869628906 294.12298583984375 C 377.6407775878906 285.9321594238281 384.9191589355469 278.6240539550781 393.10565185546875 275.9898681640625 C 403.0275573730469 278.6571960449219 410.3431091308594 285.9723205566406 413.0091247558594 295.7803955078125" stroke-width="0.0" fill="rgb(2, 3, 2)" opacity="0.99000174"/>
    <path d="M 112.06719970703125 352.7596130371094 C 109.97669219970703 361.8530578613281 102.96994018554688 369.3099670410156 92.9992446899414 371.9997253417969 C 82.99996185302734 369.32049560546875 75.67561340332031 362.0010986328125 73.91323852539062 352.8433532714844 C 76.57810974121094 342.8728332519531 83.87199401855469 335.57647705078125 93.22603607177734 332.96038818359375 C 102.12667083740234 335.5762939453125 109.43070220947266 342.8705139160156 112.06719970703125 352.7596130371094" stroke-width="0.0" fill="rgb(14, 16, 30)" opacity="0.9900243"/>
    <path d="M 251.02780151367188 313.9504089355469 C 249.28689575195312 322.71826171875 241.4833526611328 329.6161804199219 232.66763305664062 332.0594177246094 C 222.83807373046875 329.4462890625 215.4934844970703 322.18408203125 212.805419921875 312.78350830078125 C 215.5196990966797 303.8874206542969 222.92935180664062 296.6385192871094 231.30152893066406 293.9875793457031 C 241.03517150878906 296.65008544921875 248.34805297851562 303.9656677246094 251.02780151367188 313.9504089355469" stroke-width="0.0" fill="rgb(3, 34, 63)" opacity="0.99000454"/>
    <path d="M 323.18133544921875 384.19677734375 C 320.62835693359375 393.3883056640625 313.39019775390625 400.62713623046875 304.32586669921875 403.0653991699219 C 294.4608154296875 400.643798828125 286.7950134277344 393.76904296875 284.0168151855469 383.9908447265625 C 286.7256164550781 374.10089111328125 294.2987060546875 367.2200622558594 304.2265625 364.93023681640625 C 313.4608154296875 367.269775390625 320.6087341308594 374.59765625 323.18133544921875 384.19677734375" stroke-width="0.0" fill="rgb(144, 118, 88)" opacity="0.99001175"/>
    <path d="M 62.04539108276367 362.27099609375 C 59.42308044433594 372.1492004394531 52.17246627807617 379.4700927734375 42.764984130859375 382.0504455566406 C 33.8612060546875 379.45867919921875 26.61029815673828 372.10736083984375 23.979490280151367 363.593505859375 C 26.627933502197266 353.9372253417969 33.937198638916016 346.6278381347656 43.542781829833984 343.9775695800781 C 52.08032989501953 346.61895751953125 59.41537094116211 353.9067687988281 62.04539108276367 362.27099609375" stroke-width="0.0" fill="rgb(6, 4, 2)" opacity="0.99000245"/>
    <path d="M 477.77154541015625 387.7127685546875 C 474.7111511230469 397.32061767578125 467.2576904296875 404.5155029296875 458.24395751953125 407.1072082519531 C 448.7603454589844 404.4970703125 441.29913330078125 397.305419921875 438.227783203125 387.707275390625 C 440.658447265625 377.9776306152344 447.9764404296875 370.6545104980469 457.9910583496094 367.9984130859375 C 468.002197265625 370.67803955078125 475.3253479003906 377.996826171875 477.77154541015625 387.7127685546875" stroke-width="0.0" fill="rgb(147, 117, 87)" opacity="0.99004346"/>
    <path d="M 374.00946044921875 306.1762390136719 C 371.34417724609375 316.0303955078125 364.0328063964844 323.35015869140625 354.55169677734375 326.0423889160156 C 345.9664001464844 323.3506774902344 338.654296875 316.03167724609375 335.9890441894531 306.0862121582031 C 338.58428955078125 297.79095458984375 345.5566711425781 290.0255432128906 354.5113525390625 287.40972900390625 C 364.1148681640625 290.50537109375 371.3597106933594 297.9306945800781 374.00946044921875 306.1762390136719" stroke-width="0.0" fill="rgb(3, 4, 5)" opacity="0.9900028"/>
    <path d="M 448.0838928222656 383.74847412109375 C 445.4707946777344 392.1469421386719 438.1338195800781 399.4324951171875 428.3236083984375 402.11248779296875 C 419.57342529296875 399.61383056640625 411.98321533203125 392.5660400390625 409.138427734375 383.0717468261719 C 412.0875549316406 373.5042724609375 419.5945739746094 366.3671569824219 428.38677978515625 363.8291320800781 C 438.1224365234375 366.558349609375 445.4120788574219 373.8881530761719 448.0838928222656 383.74847412109375" stroke-width="0.0" fill="rgb(4, 2, 4)" opacity="0.9900066"/>
    <path d="M 38.051265716552734 395.22442626953125 C 35.39906692504883 405.0790100097656 28.06820297241211 412.37152099609375 19.649429321289062 415.01898193359375 C 9.946898460388184 412.3632507324219 2.629455804824829 405.0560607910156 -0.033183395862579346 396.3829345703125 C 2.62821364402771 386.9380798339844 9.938572883605957 379.6295471191406 19.777158737182617 376.97674560546875 C 28.158103942871094 379.5860595703125 35.55745315551758 386.7741394042969 38.051265716552734 395.22442626953125" stroke-width="0.0" fill="rgb(3, 2, 4)" opacity="0.99000216"/>
    <path d="M 111.0672607421875 355.0951232910156 C 108.40306091308594 365.1417236328125 101.2271957397461 372.655029296875 92.39253234863281 375.4153137207031 C 82.7589340209961 372.56768798828125 75.50328063964844 365.21649169921875 72.77055358886719 355.177978515625 C 73.84537506103516 345.1960144042969 81.20169067382812 337.8592529296875 92.40445709228516 335.1403503417969 C 102.83719635009766 337.8195495605469 110.14590454101562 345.1747131347656 111.0672607421875 355.0951232910156" stroke-width="0.0" fill="rgb(174, 185, 200)" opacity="0.9900028"/>
    <path d="M 430.0088806152344 383.9123229980469 C 426.9533996582031 393.49920654296875 419.3846435546875 400.5987243652344 410.5561218261719 403.1507568359375 C 400.84783935546875 400.45550537109375 393.53948974609375 393.1545104980469 390.9499816894531 384.54266357421875 C 393.5621337890625 374.8697204589844 400.8731689453125 367.5699768066406 410.6707763671875 364.8772277832031 C 419.4538879394531 367.3731994628906 427.1243591308594 374.3788146972656 430.0088806152344 383.9123229980469" stroke-width="0.0" fill="rgb(7, 6, 6)" opacity="0.99000645"/>
    <path d="M 135.03488159179688 386.2378234863281 C 132.4130859375 395.1268005371094 125.1549072265625 402.4910583496094 115.48968505859375 405.1906433105469 C 106.35643005371094 402.88018798828125 98.92436218261719 395.7050476074219 96.0842514038086 385.9648742675781 C 98.92991638183594 376.4156188964844 106.63301849365234 369.47491455078125 115.28672790527344 366.9625549316406 C 125.11097717285156 369.5887756347656 132.4058074951172 376.89154052734375 135.03488159179688 386.2378234863281" stroke-width="0.0" fill="rgb(5, 4, 4)" opacity="0.99000585"/>
    <path d="M 164.0819549560547 301.38641357421875 C 161.90768432617188 311.8128356933594 154.960205078125 319.3047180175781 144.9713897705078 322.0293273925781 C 135.0782470703125 319.34857177734375 128.29534912109375 311.64862060546875 125.93429565429688 302.1534118652344 C 128.51641845703125 292.8136291503906 135.81829833984375 285.5290222167969 145.90614318847656 281.1734313964844 C 155.8896026611328 283.7720031738281 163.14199829101562 291.1324768066406 164.0819549560547 301.38641357421875" stroke-width="0.0" fill="rgb(154, 119, 87)" opacity="0.9900074"/>
    <path d="M 118.7201919555664 383.1917419433594 C 116.10844421386719 392.71630859375 108.59737396240234 399.76947021484375 99.73381042480469 402.12908935546875 C 89.8670654296875 399.43145751953125 82.52759552001953 392.1468505859375 79.8531265258789 383.3956298828125 C 82.53202056884766 373.81805419921875 89.73908233642578 365.6687927246094 98.68402099609375 362.04571533203125 C 108.66481018066406 365.18389892578125 115.8244857788086 373.5084228515625 118.7201919555664 383.1917419433594" stroke-width="0.0" fill="rgb(2, 2, 2)" opacity="0.99000585"/>
    <path d="M 371.0904846191406 291.8892517089844 C 370.215576171875 301.8606872558594 362.822509765625 309.0928955078125 351.2296447753906 311.8505554199219 C 341.093994140625 309.23779296875 333.8446044921875 301.8875427246094 332.9455261230469 291.7904968261719 C 335.5810852050781 281.87640380859375 342.8705749511719 274.5671081542969 351.39654541015625 271.9483337402344 C 361.11773681640625 274.58087158203125 368.4165954589844 281.88348388671875 371.0904846191406 291.8892517089844" stroke-width="0.0" fill="rgb(131, 133, 136)" opacity="0.99001294"/>
    <path d="M 439.009765625 326.8674011230469 C 436.35394287109375 335.0486755371094 429.05462646484375 342.365478515625 419.09820556640625 345.0226135253906 C 410.6430969238281 342.5743408203125 403.5426025390625 335.2669982910156 400.9869384765625 326.9053649902344 C 403.6365661621094 316.9266662597656 410.91619873046875 309.6228332519531 419.11224365234375 306.9894104003906 C 429.02685546875 309.6565246582031 436.34161376953125 316.9739685058594 439.009765625 326.8674011230469" stroke-width="0.0" fill="rgb(3, 2, 3)" opacity="0.99000174"/>
  </g>
</svg>
