<?xml version="1.0" ?>
<svg xmlns="http://www.w3.org/2000/svg" version="1.1" width="600" height="600">
  <defs/>
  <g>
    <path d="M 381.6178283691406 598.8502197265625 C 378.0089416503906 620.7413330078125 361.7813415527344 622.1317138671875 250.38272094726562 620.4568481445312 C 193.87368774414062 613.0028076171875 189.41189575195312 600.929443359375 177.7311248779297 519.6641845703125 C 180.6199188232422 454.558837890625 203.8911895751953 468.9989013671875 259.9026794433594 494.63958740234375 C 324.63995361328125 484.9391784667969 351.31243896484375 468.7568359375 381.6178283691406 598.8502197265625" stroke-width="0.0" fill="rgb(138, 153, 176)" opacity="0.99689513"/>
    <path d="M 372.7726745605469 4.963733673095703 C 332.5865478515625 81.3174819946289 317.69696044921875 90.5573501586914 237.4734344482422 131.8546600341797 C 185.90289306640625 123.94312286376953 186.27183532714844 125.7343978881836 212.0772705078125 44.27129364013672 C 223.0545654296875 -10.22999095916748 227.32261657714844 -19.13711929321289 288.4337463378906 -21.049591064453125 C 354.4042663574219 -23.355690002441406 368.9287414550781 -21.356338500976562 372.7726745605469 4.963733673095703" stroke-width="0.0" fill="rgb(96, 116, 148)" opacity="0.7319561"/>
    <path d="M 230.48097229003906 565.7616577148438 C 225.86839294433594 644.0308227539062 201.9107208251953 631.0952758789062 148.8784637451172 618.7975463867188 C 96.66534423828125 624.2203979492188 68.68215942382812 635.284423828125 54.10673141479492 604.0758056640625 C 88.84822082519531 540.2772216796875 102.45610046386719 533.2299194335938 190.99485778808594 484.66204833984375 C 219.91796875 491.4527893066406 223.4206085205078 506.29083251953125 230.48097229003906 565.7616577148438" stroke-width="0.0" fill="rgb(138, 153, 177)" opacity="0.94551295"/>
    <path d="M 625.3577270507812 197.06631469726562 C 658.143798828125 320.2006530761719 685.246337890625 344.9024963378906 522.970947265625 336.94073486328125 C 432.0756530761719 278.3648986816406 452.3912048339844 219.8084259033203 405.92156982421875 191.62399291992188 C 441.3447570800781 91.10193634033203 467.2256774902344 90.90636444091797 596.2474365234375 16.498958587646484 C 623.5690307617188 22.999305725097656 623.3321533203125 40.67409896850586 625.3577270507812 197.06631469726562" stroke-width="0.0" fill="rgb(137, 152, 177)" opacity="0.99969876"/>
    <path d="M 394.6922607421875 379.6639709472656 C 348.34222412109375 551.4880981445312 334.4222106933594 542.420166015625 288.96392822265625 518.0598754882812 C 217.93336486816406 524.8571166992188 184.3569793701172 550.2919921875 169.6412811279297 396.7845764160156 C 137.22689819335938 309.8476867675781 117.05250549316406 265.2734069824219 322.5044250488281 259.27783203125 C 444.66455078125 318.03167724609375 444.8377990722656 325.9691467285156 394.6922607421875 379.6639709472656" stroke-width="0.0" fill="rgb(143, 120, 96)" opacity="0.9558875"/>
    <path d="M 534.938720703125 221.7371368408203 C 551.62353515625 290.2661437988281 532.208984375 311.7161865234375 334.53973388671875 341.1004943847656 C 265.828125 316.0975341796875 265.4998474121094 252.2596435546875 178.111083984375 151.7679443359375 C 289.2835998535156 78.9579849243164 348.5392761230469 113.63668060302734 424.1605224609375 87.72990417480469 C 450.5975036621094 89.81983184814453 465.9632568359375 95.81917572021484 534.938720703125 221.7371368408203" stroke-width="0.0" fill="rgb(245, 241, 234)" opacity="0.96035767"/>
    <path d="M 430.67364501953125 85.11724090576172 C 407.3349914550781 138.85166931152344 398.88250732421875 153.9696807861328 366.7591247558594 255.42034912109375 C 321.2211608886719 172.5995635986328 285.1705322265625 169.81820678710938 284.3674011230469 150.644775390625 C 342.3506164550781 93.34075927734375 339.85650634765625 67.46660614013672 392.21380615234375 46.0396842956543 C 416.034912109375 51.382301330566406 428.2571716308594 57.926124572753906 430.67364501953125 85.11724090576172" stroke-width="0.0" fill="rgb(1, 1, 4)" opacity="0.9674611"/>
    <path d="M 213.49288940429688 358.4082946777344 C 179.8763427734375 539.087890625 160.09921264648438 526.9485473632812 82.28123474121094 522.165283203125 C 9.283112525939941 549.3341674804688 -12.584725379943848 567.5325927734375 -30.781187057495117 340.1593933105469 C -74.6535873413086 273.6261291503906 -90.0022964477539 255.8803253173828 169.642578125 212.11602783203125 C 275.0915222167969 241.92149353027344 244.96878051757812 290.6970520019531 213.49288940429688 358.4082946777344" stroke-width="0.0" fill="rgb(115, 128, 156)" opacity="0.8172648"/>
    <path d="M 231.0476837158203 171.09934997558594 C 234.13241577148438 175.50454711914062 239.584716796875 219.70706176757812 204.86727905273438 303.9989929199219 C -56.1243896484375 271.9197082519531 -57.127357482910156 272.2655334472656 -38.298858642578125 232.0363311767578 C 58.088497161865234 36.1593017578125 95.46041870117188 43.957481384277344 145.93576049804688 12.271195411682129 C 153.79783630371094 20.962663650512695 158.0330047607422 32.68765640258789 231.0476837158203 171.09934997558594" stroke-width="0.0" fill="rgb(9, 10, 11)" opacity="1.0"/>
    <path d="M 164.4174041748047 2.9877426624298096 C 139.7751007080078 66.75112915039062 122.0682601928711 69.59215545654297 7.614816188812256 172.19027709960938 C -15.81024169921875 159.783935546875 -20.017812728881836 145.10009765625 -19.99036407470703 50.24314498901367 C -10.15634822845459 -47.66112518310547 14.742843627929688 -33.53483581542969 89.92432403564453 -21.33534812927246 C 150.58071899414062 -20.937973022460938 163.6486358642578 -17.89592933654785 164.4174041748047 2.9877426624298096" stroke-width="0.0" fill="rgb(139, 153, 177)" opacity="0.99957716"/>
    <path d="M 208.55218505859375 483.16375732421875 C 165.64154052734375 565.57275390625 144.77008056640625 569.4132080078125 43.85131072998047 620.0747680664062 C 0.23427404463291168 625.3421630859375 -13.263816833496094 623.44775390625 -19.553319931030273 561.8818969726562 C -11.818467140197754 432.6003723144531 15.4846773147583 456.0555725097656 95.25309753417969 477.778564453125 C 165.53561401367188 463.8981018066406 194.06033325195312 448.4869689941406 208.55218505859375 483.16375732421875" stroke-width="0.0" fill="rgb(137, 152, 176)" opacity="0.99999785"/>
    <path d="M 616.12890625 12.499333381652832 C 568.4869995117188 132.57525634765625 531.4608154296875 132.2677459716797 458.3775634765625 186.71511840820312 C 408.18731689453125 161.08782958984375 402.7253723144531 145.69540405273438 398.9602966308594 107.00569915771484 C 427.98248291015625 33.92292404174805 436.9875183105469 12.061237335205078 537.3050537109375 -20.392940521240234 C 586.9144287109375 -28.33148193359375 607.3699951171875 -33.94865798950195 616.12890625 12.499333381652832" stroke-width="0.0" fill="rgb(138, 153, 176)" opacity="1.0"/>
    <path d="M 618.7647705078125 375.7783203125 C 615.0821533203125 682.791015625 603.6884765625 678.2999267578125 524.1744384765625 634.5664672851562 C 312.78472900390625 612.6430053710938 315.97076416015625 597.4402465820312 341.09716796875 502.5355529785156 C 321.79913330078125 360.4520568847656 278.4820251464844 348.8963317871094 497.372314453125 342.7585754394531 C 598.0316772460938 300.32171630859375 611.3318481445312 306.03314208984375 618.7647705078125 375.7783203125" stroke-width="0.0" fill="rgb(140, 148, 170)" opacity="0.98078537"/>
    <path d="M 207.9816131591797 19.54941749572754 C 156.88296508789062 145.9563751220703 247.0446319580078 111.11251831054688 282.43328857421875 335.6595764160156 C 211.04209899902344 100.51567077636719 152.42044067382812 94.90900421142578 131.37579345703125 30.813852310180664 C 133.40647888183594 -8.543262481689453 134.6156768798828 -16.023996353149414 198.10000610351562 -20.02104377746582 C 250.3051300048828 -19.45880699157715 250.92901611328125 -14.34459400177002 207.9816131591797 19.54941749572754" stroke-width="0.0" fill="rgb(4, 4, 4)" opacity="0.9841491"/>
    <path d="M 393.921142578125 53.36368179321289 C 358.40582275390625 123.43679809570312 367.0056457519531 157.6508331298828 297.50750732421875 169.36288452148438 C 274.3491516113281 152.24502563476562 250.3278350830078 136.65187072753906 195.31130981445312 121.16459655761719 C 293.48675537109375 75.2079849243164 304.1965026855469 62.44142150878906 372.2327575683594 21.710363388061523 C 388.5960693359375 18.816804885864258 393.6596374511719 32.1784553527832 393.921142578125 53.36368179321289" stroke-width="0.0" fill="rgb(4, 6, 7)" opacity="0.98045194"/>
    <path d="M 515.904052734375 -6.545160293579102 C 484.5610656738281 68.96321868896484 469.8648376464844 82.57697296142578 406.9967956542969 106.50921630859375 C 366.69207763671875 99.0760269165039 353.8131103515625 92.64881896972656 334.3076171875 23.626611709594727 C 347.7348937988281 -35.10465621948242 366.0718688964844 -29.13506507873535 418.625732421875 -20.648160934448242 C 478.4972839355469 -22.151899337768555 497.5777587890625 -23.78566551208496 515.904052734375 -6.545160293579102" stroke-width="0.0" fill="rgb(138, 153, 177)" opacity="0.99955356"/>
    <path d="M 252.30856323242188 23.65689468383789 C 189.19224548339844 118.31998443603516 151.44692993164062 101.6269760131836 131.63198852539062 102.1509780883789 C 117.82060241699219 102.23458862304688 108.40756225585938 96.03956604003906 98.22237396240234 79.3046646118164 C 109.87039184570312 63.1415901184082 102.1700668334961 37.89201354980469 152.017578125 -21.564205169677734 C 233.6399688720703 -27.99350357055664 247.6754150390625 -22.867582321166992 252.30856323242188 23.65689468383789" stroke-width="0.0" fill="rgb(138, 153, 177)" opacity="1.0"/>
    <path d="M 372.0224914550781 105.10820770263672 C 364.8928527832031 149.29110717773438 368.856689453125 162.78184509277344 365.83319091796875 238.89772033691406 C 314.69500732421875 155.6203155517578 276.9855651855469 156.84498596191406 264.0054016113281 129.3467254638672 C 274.21441650390625 81.40579223632812 289.80706787109375 78.89929962158203 352.9779052734375 61.734798431396484 C 378.0510559082031 62.212806701660156 379.80889892578125 74.69295501708984 372.0224914550781 105.10820770263672" stroke-width="0.0" fill="rgb(134, 151, 178)" opacity="0.98349637"/>
    <path d="M 139.87939453125 152.8311309814453 C 149.23956298828125 208.0062255859375 137.09210205078125 198.80465698242188 133.0831756591797 181.32571411132812 C 74.62850189208984 169.68206787109375 66.56401062011719 161.3555450439453 62.22079086303711 148.59088134765625 C 74.44380950927734 136.69749450683594 78.69432067871094 125.77141571044922 95.21195983886719 111.79491424560547 C 115.78951263427734 114.71134948730469 130.91986083984375 117.78886413574219 139.87939453125 152.8311309814453" stroke-width="0.0" fill="rgb(144, 158, 188)" opacity="0.9273643"/>
    <path d="M 192.75436401367188 74.91907501220703 C 216.8231658935547 197.74069213867188 201.23236083984375 166.9269256591797 196.67007446289062 168.46107482910156 C 112.13739013671875 138.7569122314453 96.05548095703125 180.162353515625 108.5269775390625 117.18867492675781 C 120.64619445800781 88.7503890991211 131.03280639648438 83.19815063476562 153.8022918701172 69.178466796875 C 188.31390380859375 50.11725616455078 211.8961181640625 44.957733154296875 192.75436401367188 74.91907501220703" stroke-width="0.0" fill="rgb(135, 150, 178)" opacity="0.9818248"/>
    <path d="M 450.045654296875 252.37234497070312 C 430.70562744140625 186.99876403808594 449.55987548828125 240.55255126953125 436.8407897949219 234.0231170654297 C 333.29095458984375 262.9661865234375 378.1943054199219 301.0351257324219 365.413330078125 191.56866455078125 C 379.3042907714844 138.9736785888672 385.9814453125 129.11129760742188 377.44146728515625 165.24261474609375 C 422.1143493652344 182.59689331054688 418.8487548828125 168.20449829101562 450.045654296875 252.37234497070312" stroke-width="0.0" fill="rgb(0, 1, 3)" opacity="0.9640327"/>
    <path d="M 70.91991424560547 154.7821044921875 C 58.69271469116211 165.80091857910156 53.50600051879883 176.13714599609375 31.901031494140625 199.0716094970703 C 12.357560157775879 195.62063598632812 -0.7543062567710876 190.283203125 -8.135297775268555 173.3004150390625 C 15.4959135055542 138.8386993408203 25.53030776977539 131.8128662109375 38.21375274658203 126.7158203125 C 54.18008804321289 137.796630859375 63.17615509033203 145.42242431640625 70.91991424560547 154.7821044921875" stroke-width="0.0" fill="rgb(139, 153, 176)" opacity="0.9805921"/>
    <path d="M 143.9401092529297 194.78277587890625 C 103.03459930419922 193.56292724609375 86.77848815917969 197.8427734375 50.925201416015625 202.50289916992188 C 42.92687225341797 210.66650390625 34.71485137939453 200.2965545654297 31.16473388671875 187.18399047851562 C 50.46002197265625 166.55740356445312 57.26826477050781 158.073486328125 70.20024108886719 143.82640075683594 C 82.22496795654297 153.7096405029297 104.57322692871094 147.82920837402344 143.9401092529297 194.78277587890625" stroke-width="0.0" fill="rgb(137, 152, 179)" opacity="0.982828"/>
    <path d="M 357.8599853515625 517.6241455078125 C 325.74188232421875 551.876220703125 305.173583984375 547.9913330078125 281.05499267578125 546.3930053710938 C 257.1898193359375 543.6600952148438 232.70513916015625 550.83203125 163.61392211914062 474.4662780761719 C 167.19432067871094 424.7857360839844 191.8112030029297 446.0804748535156 316.1903076171875 444.6597595214844 C 363.6347961425781 429.62628173828125 354.1202087402344 456.98162841796875 357.8599853515625 517.6241455078125" stroke-width="0.0" fill="rgb(141, 153, 176)" opacity="0.966273"/>
    <path d="M 521.5567626953125 177.99472045898438 C 521.8621826171875 238.79689025878906 465.77838134765625 203.56764221191406 382.238525390625 248.21421813964844 C 350.27734375 156.85731506347656 341.47015380859375 151.16873168945312 335.07037353515625 121.25711059570312 C 332.8356018066406 84.73994445800781 333.3263244628906 69.71766662597656 369.2950744628906 66.69881439208984 C 413.17376708984375 80.13177490234375 421.46295166015625 87.49578094482422 521.5567626953125 177.99472045898438" stroke-width="0.0" fill="rgb(138, 153, 177)" opacity="0.99241614"/>
    <path d="M 301.87060546875 125.09339141845703 C 299.2812194824219 168.49163818359375 298.6224365234375 159.5814666748047 275.25152587890625 145.73873901367188 C 224.5850067138672 117.62648010253906 204.02920532226562 119.6915283203125 173.7265625 108.30769348144531 C 191.25494384765625 69.5311508178711 211.15786743164062 72.18135070800781 255.24819946289062 68.26753997802734 C 276.89886474609375 66.15890502929688 288.28607177734375 70.64627075195312 301.87060546875 125.09339141845703" stroke-width="0.0" fill="rgb(137, 153, 180)" opacity="0.9616057"/>
    <path d="M 114.24971771240234 260.6599426269531 C 96.71070861816406 262.4186706542969 85.43801879882812 264.0851745605469 52.334747314453125 270.86285400390625 C 54.48585510253906 392.0626220703125 21.208290100097656 371.76483154296875 -33.7989501953125 318.9744567871094 C 16.223209381103516 217.72909545898438 31.24037742614746 211.98953247070312 67.35235595703125 194.83224487304688 C 79.56940460205078 216.01589965820312 89.15843200683594 224.73233032226562 114.24971771240234 260.6599426269531" stroke-width="0.0" fill="rgb(138, 152, 178)" opacity="0.9788222"/>
    <path d="M 401.09014892578125 178.79576110839844 C 396.03277587890625 196.92352294921875 413.6514892578125 245.75608825683594 304.55517578125 314.4539489746094 C 413.9789733886719 211.6531524658203 353.1024475097656 283.310302734375 367.7544860839844 194.307861328125 C 324.145263671875 128.6116943359375 332.6607666015625 130.49761962890625 350.4942932128906 132.01480102539062 C 378.5765686035156 137.73031616210938 389.3951110839844 142.9357452392578 401.09014892578125 178.79576110839844" stroke-width="0.0" fill="rgb(0, 0, 1)" opacity="0.9333828"/>
    <path d="M 94.19125366210938 125.7813720703125 C 81.87747192382812 142.0908966064453 75.70185852050781 151.65281677246094 68.35564422607422 161.8242645263672 C 53.762420654296875 151.20404052734375 44.321311950683594 143.84423828125 35.67344665527344 133.9416046142578 C 45.4884147644043 120.77839660644531 54.42424774169922 114.17048645019531 73.8537826538086 100.04280853271484 C 85.09242248535156 103.35091400146484 92.43379974365234 112.44322204589844 94.19125366210938 125.7813720703125" stroke-width="0.0" fill="rgb(138, 153, 176)" opacity="1.0"/>
    <path d="M 133.11158752441406 108.2077865600586 C 133.7095489501953 129.32919311523438 127.12118530273438 139.02346801757812 108.2228775024414 140.42266845703125 C 80.47465515136719 130.6555938720703 71.78361511230469 122.91301727294922 66.1073226928711 110.88478088378906 C 80.55867767333984 91.82498931884766 89.45655059814453 85.1607437133789 107.64358520507812 72.1148910522461 C 118.50989532470703 75.82084655761719 125.71463012695312 85.04532623291016 133.11158752441406 108.2077865600586" stroke-width="0.0" fill="rgb(139, 154, 177)" opacity="0.98010945"/>
    <path d="M 372.51690673828125 62.590118408203125 C 364.9479675292969 110.11521911621094 347.0394287109375 111.7120132446289 295.5960998535156 123.94327545166016 C 263.3487548828125 121.95584869384766 256.90179443359375 111.82817077636719 253.6802978515625 95.49130249023438 C 271.0654296875 44.759151458740234 285.219970703125 38.577117919921875 332.7381896972656 18.773263931274414 C 351.9415588378906 17.299985885620117 362.3648376464844 22.330522537231445 372.51690673828125 62.590118408203125" stroke-width="0.0" fill="rgb(138, 153, 177)" opacity="0.7311026"/>
    <path d="M 77.82572937011719 213.6154327392578 C 65.6278076171875 233.0298614501953 54.06278991699219 240.1773223876953 11.032362937927246 267.59075927734375 C -10.579618453979492 263.1492919921875 -14.291707992553711 247.2538604736328 -16.849323272705078 210.08042907714844 C -11.598211288452148 175.26724243164062 -3.0457980632781982 166.24017333984375 21.522016525268555 165.0418243408203 C 56.96809005737305 175.5071563720703 66.19139099121094 183.31227111816406 77.82572937011719 213.6154327392578" stroke-width="0.0" fill="rgb(141, 155, 178)" opacity="0.53339237"/>
    <path d="M 508.1204833984375 346.6310729980469 C 585.7594604492188 341.8838806152344 564.5442504882812 369.44598388671875 485.31903076171875 387.1160583496094 C 394.9841003417969 378.2002868652344 368.2970275878906 345.6711120605469 449.56243896484375 346.6235046386719 C 463.4444885253906 350.2320861816406 455.4834289550781 325.1785888671875 561.5811767578125 223.6624755859375 C 541.2323608398438 244.90707397460938 519.8152465820312 323.196044921875 508.1204833984375 346.6310729980469" stroke-width="0.0" fill="rgb(5, 7, 9)" opacity="0.9894321"/>
    <path d="M 414.40380859375 164.90057373046875 C 409.4894714355469 178.98899841308594 398.65399169921875 184.76300048828125 354.701904296875 194.34756469726562 C 326.54400634765625 190.38241577148438 317.8338928222656 178.8883819580078 304.5830993652344 144.99655151367188 C 320.48876953125 110.66402435302734 336.259765625 109.69281768798828 359.04248046875 112.46813201904297 C 377.19720458984375 122.85556030273438 392.1512145996094 124.78069305419922 414.40380859375 164.90057373046875" stroke-width="0.0" fill="rgb(139, 154, 177)" opacity="1.0"/>
    <path d="M 419.0882568359375 189.2825927734375 C 414.10772705078125 233.3854522705078 403.3147888183594 236.19558715820312 374.2314147949219 252.57862854003906 C 362.08929443359375 235.0481414794922 355.590576171875 213.29745483398438 343.2646484375 185.1655731201172 C 337.0187683105469 169.11917114257812 342.9103088378906 159.5028839111328 387.4414367675781 151.79100036621094 C 412.0163269042969 153.3008270263672 418.6912841796875 162.54058837890625 419.0882568359375 189.2825927734375" stroke-width="0.0" fill="rgb(139, 153, 177)" opacity="0.98556495"/>
    <path d="M 567.7921752929688 380.4496765136719 C 520.7684326171875 434.79266357421875 504.8681640625 435.45965576171875 490.80816650390625 426.2190246582031 C 467.5605163574219 424.47869873046875 407.5946960449219 465.218505859375 274.9518127441406 358.5799865722656 C 490.78485107421875 372.60150146484375 401.33575439453125 302.8182067871094 441.0261535644531 345.539794921875 C 539.943603515625 344.7298278808594 539.5999755859375 344.4223327636719 567.7921752929688 380.4496765136719" stroke-width="0.0" fill="rgb(7, 5, 4)" opacity="0.974817"/>
    <path d="M 222.98777770996094 323.5067443847656 C 206.11827087402344 397.5806884765625 173.24539184570312 368.682373046875 184.2914276123047 365.6524353027344 C 135.17620849609375 366.4743957519531 112.80328369140625 385.65081787109375 50.83934020996094 362.615234375 C 116.12081146240234 301.67181396484375 144.65943908691406 282.00103759765625 208.1975860595703 314.95159912109375 C 157.32142639160156 336.3136901855469 141.31520080566406 324.6438903808594 222.98777770996094 323.5067443847656" stroke-width="0.0" fill="rgb(111, 87, 69)" opacity="0.9691238"/>
    <path d="M 355.7607421875 339.908935546875 C 449.66876220703125 318.17633056640625 433.8812255859375 330.246337890625 412.4828796386719 352.46990966796875 C 238.28907775878906 345.84454345703125 275.18072509765625 370.0807189941406 233.75387573242188 304.6192321777344 C 278.2876281738281 276.2925720214844 299.5059814453125 287.7108459472656 349.0148620605469 283.22442626953125 C 298.4150695800781 342.9466247558594 296.2667236328125 313.64581298828125 355.7607421875 339.908935546875" stroke-width="0.0" fill="rgb(8, 9, 8)" opacity="0.993766"/>
    <path d="M 228.04090881347656 200.5206298828125 C 316.1018981933594 366.5135498046875 256.98187255859375 399.1983947753906 218.01760864257812 380.2923583984375 C 206.76837158203125 325.68328857421875 206.5266571044922 307.3408508300781 172.13754272460938 290.2059020996094 C 180.35733032226562 298.9730224609375 233.04010009765625 328.3497619628906 148.20594787597656 166.27552795410156 C 139.84190368652344 155.16641235351562 256.09783935546875 189.53355407714844 228.04090881347656 200.5206298828125" stroke-width="0.0" fill="rgb(248, 244, 236)" opacity="0.9775456"/>
    <path d="M 208.1544189453125 317.91705322265625 C 214.36343383789062 355.1040344238281 240.20046997070312 325.0868225097656 150.95712280273438 301.411865234375 C 70.20305633544922 304.1082763671875 58.612857818603516 433.98919677734375 60.3554573059082 327.47100830078125 C 170.2389678955078 309.60107421875 -21.818599700927734 295.391845703125 103.17794036865234 268.12384033203125 C 202.77589416503906 238.94935607910156 186.36138916015625 251.11642456054688 208.1544189453125 317.91705322265625" stroke-width="0.0" fill="rgb(8, 8, 8)" opacity="1.0"/>
    <path d="M 568.8942260742188 381.87408447265625 C 602.814697265625 422.4995422363281 581.540771484375 401.24755859375 511.43505859375 406.2390441894531 C 487.0149230957031 405.3271789550781 474.35882568359375 399.93035888671875 572.7040405273438 399.04693603515625 C 507.6779479980469 358.8127136230469 468.69342041015625 256.25189208984375 526.398681640625 347.17388916015625 C 603.331787109375 340.0602722167969 531.8336181640625 356.1565856933594 568.8942260742188 381.87408447265625" stroke-width="0.0" fill="rgb(3, 3, 4)" opacity="0.97673666"/>
    <path d="M 325.26617431640625 425.3876953125 C 249.08743286132812 448.8784484863281 194.7412872314453 444.1473083496094 133.42140197753906 444.53271484375 C 60.023040771484375 445.3094482421875 -13.199365615844727 442.1171569824219 -28.816146850585938 448.2592468261719 C 74.764892578125 324.3826904296875 111.50117492675781 374.21136474609375 137.50640869140625 392.171142578125 C 158.42279052734375 386.6476745605469 201.36996459960938 356.9398498535156 325.26617431640625 425.3876953125" stroke-width="0.0" fill="rgb(221, 160, 128)" opacity="0.9397983"/>
    <path d="M 671.5067138671875 441.71636962890625 C 564.9569702148438 446.4784851074219 510.56207275390625 443.7575988769531 496.1277160644531 444.700439453125 C 479.0701904296875 444.38909912109375 415.31146240234375 444.693115234375 208.33021545410156 444.582275390625 C 327.4535827636719 303.06048583984375 471.66876220703125 395.5311584472656 481.543212890625 400.2864074707031 C 532.26904296875 417.0182800292969 638.4299926757812 384.24725341796875 671.5067138671875 441.71636962890625" stroke-width="0.0" fill="rgb(215, 158, 129)" opacity="0.97237694"/>
    <path d="M 355.1728210449219 268.0159606933594 C 327.6442565917969 293.9811096191406 319.3688659667969 306.2127685546875 282.7312927246094 341.4559631347656 C 282.5705871582031 335.572998046875 276.6023864746094 307.3600158691406 267.990478515625 260.27239990234375 C 257.2697448730469 208.70545959472656 224.0072479248047 195.9822235107422 276.55279541015625 155.45855712890625 C 347.1640625 209.20420837402344 367.034423828125 250.0577850341797 355.1728210449219 268.0159606933594" stroke-width="0.0" fill="rgb(251, 246, 236)" opacity="0.9674895"/>
    <path d="M 196.57144165039062 301.1028137207031 C 153.17193603515625 326.9842529296875 136.6927947998047 251.44752502441406 137.31227111816406 290.7665100097656 C 125.27263641357422 263.17669677734375 123.04315948486328 259.3896789550781 82.27284240722656 205.7933807373047 C 80.19356536865234 205.07867431640625 115.92666625976562 197.9917449951172 157.90667724609375 203.80471801757812 C 156.28842163085938 231.1991424560547 150.6681671142578 165.73275756835938 196.57144165039062 301.1028137207031" stroke-width="0.0" fill="rgb(244, 240, 233)" opacity="0.99981874"/>
    <path d="M 55.72032165527344 204.3329620361328 C 36.77781295776367 227.42800903320312 28.856101989746094 236.55799865722656 1.7957539558410645 259.3643493652344 C -8.617741584777832 249.21620178222656 -10.483126640319824 234.88844299316406 -9.78083324432373 214.69654846191406 C -10.679449081420898 194.61648559570312 -7.104869365692139 182.1431427001953 10.556437492370605 176.5160369873047 C 37.80397033691406 184.8203125 48.18522644042969 191.56454467773438 55.72032165527344 204.3329620361328" stroke-width="0.0" fill="rgb(139, 153, 176)" opacity="1.0"/>
    <path d="M 343.57440185546875 438.09698486328125 C 301.25244140625 396.0577087402344 333.8776550292969 407.4654846191406 278.75830078125 405.5386047363281 C 221.66055297851562 405.8653564453125 201.69810485839844 405.56121826171875 139.5784912109375 405.38055419921875 C 221.4623565673828 349.35064697265625 219.6317901611328 326.36627197265625 257.23834228515625 291.8309326171875 C 298.0894470214844 389.0339050292969 306.7430114746094 397.01055908203125 343.57440185546875 438.09698486328125" stroke-width="0.0" fill="rgb(5, 3, 4)" opacity="0.99314606"/>
    <path d="M 233.54324340820312 375.6217346191406 C 207.08804321289062 417.0716247558594 186.7186737060547 404.16595458984375 132.0108642578125 406.8846435546875 C 85.21048736572266 401.22442626953125 7.912607669830322 452.2556457519531 16.41012954711914 387.27081298828125 C 39.136260986328125 335.426025390625 48.47127914428711 364.1627197265625 140.52281188964844 359.1036071777344 C 184.85781860351562 363.20465087890625 221.39842224121094 349.22607421875 233.54324340820312 375.6217346191406" stroke-width="0.0" fill="rgb(5, 25, 15)" opacity="0.35603517"/>
    <path d="M 548.2756958007812 244.71372985839844 C 513.957275390625 239.52748107910156 501.1474304199219 245.8560028076172 483.16253662109375 242.93087768554688 C 505.3946838378906 245.42550659179688 482.8790283203125 242.03280639648438 446.9847106933594 250.76560974121094 C 433.80609130859375 199.93124389648438 452.56103515625 241.66831970214844 493.24468994140625 226.05213928222656 C 497.34136962890625 236.64794921875 552.163330078125 210.6774139404297 548.2756958007812 244.71372985839844" stroke-width="0.0" fill="rgb(6, 7, 9)" opacity="0.99444526"/>
    <path d="M 111.31742095947266 407.06353759765625 C 93.78448486328125 429.1768798828125 85.77616119384766 437.0700378417969 69.27411651611328 444.6842956542969 C 43.99291229248047 443.389892578125 21.257713317871094 452.2295227050781 -7.449464797973633 404.7056579589844 C 54.02134323120117 408.8411865234375 98.18386840820312 404.1392822265625 103.36222839355469 408.4032287597656 C 84.70758056640625 390.9312438964844 87.6393814086914 405.41229248046875 111.31742095947266 407.06353759765625" stroke-width="0.0" fill="rgb(220, 161, 132)" opacity="1.0"/>
    <path d="M 447.24530029296875 360.4555969238281 C 482.6306457519531 392.2255859375 488.59136962890625 388.64892578125 472.99090576171875 397.2816162109375 C 461.7265319824219 396.0010070800781 457.8010559082031 385.4991760253906 434.0589294433594 352.0118713378906 C 406.1262512207031 351.0690612792969 425.772216796875 351.31524658203125 509.79656982421875 351.3215637207031 C 547.2638549804688 350.94805908203125 543.5015869140625 362.0000915527344 447.24530029296875 360.4555969238281" stroke-width="0.0" fill="rgb(158, 128, 99)" opacity="0.9950081"/>
    <path d="M 163.2209930419922 405.4889831542969 C 89.88807678222656 405.3265686035156 85.43213653564453 405.880859375 113.04704284667969 406.5028991699219 C 80.6514663696289 403.2969055175781 1.7442089319229126 408.5386047363281 18.938644409179688 402.02105712890625 C 68.95684814453125 398.25311279296875 77.32011413574219 412.8946838378906 80.59766387939453 368.48895263671875 C 89.7130355834961 407.96868896484375 63.0517578125 367.58587646484375 163.2209930419922 405.4889831542969" stroke-width="0.0" fill="rgb(6, 5, 5)" opacity="0.9764168"/>
    <path d="M 121.12925720214844 407.295166015625 C 114.5179214477539 413.4878845214844 101.20975494384766 418.5040588378906 92.85836791992188 408.55615234375 C 76.3118896484375 415.3714294433594 65.0949478149414 406.58709716796875 105.50101470947266 405.216796875 C 19.378984451293945 400.06048583984375 53.469947814941406 378.7255554199219 213.83828735351562 401.3395690917969 C 50.81022262573242 402.2663879394531 43.35889434814453 398.52423095703125 121.12925720214844 407.295166015625" stroke-width="0.0" fill="rgb(199, 157, 122)" opacity="0.682147"/>
    <path d="M 413.63458251953125 369.5973815917969 C 214.95619201660156 400.0312805175781 335.9132995605469 404.9799499511719 309.1741943359375 401.6969299316406 C 158.55311584472656 399.356689453125 151.89732360839844 411.097412109375 64.35791778564453 366.1785888671875 C 212.44924926757812 365.0393371582031 243.7157745361328 365.9709167480469 258.448486328125 365.47320556640625 C 263.7029724121094 366.82525634765625 311.77520751953125 363.0887756347656 413.63458251953125 369.5973815917969" stroke-width="0.0" fill="rgb(155, 122, 93)" opacity="0.9658436"/>
    <path d="M 552.5990600585938 361.7207946777344 C 537.5811157226562 370.9342041015625 529.3981323242188 364.9479675292969 538.9429321289062 370.40301513671875 C 550.7167358398438 357.5644226074219 582.8197021484375 361.136962890625 480.4958190917969 360.5675964355469 C 506.3232421875 346.2903137207031 550.6495361328125 353.860595703125 553.4961547851562 350.566162109375 C 541.7645874023438 359.6579895019531 562.807861328125 340.818115234375 552.5990600585938 361.7207946777344" stroke-width="0.0" fill="rgb(161, 130, 98)" opacity="1.0"/>
    <path d="M 574.5023803710938 401.5883483886719 C 553.3858642578125 401.7549743652344 523.2131958007812 401.4800720214844 510.2946472167969 401.6260070800781 C 511.6253356933594 401.1155090332031 488.9107666015625 403.3620910644531 477.7684020996094 396.0283508300781 C 471.55279541015625 359.7705078125 468.2948303222656 366.63299560546875 529.6906127929688 365.6866760253906 C 555.520751953125 366.6810607910156 536.44140625 358.8547058105469 574.5023803710938 401.5883483886719" stroke-width="0.0" fill="rgb(148, 118, 92)" opacity="0.97466743"/>
    <path d="M 133.7575225830078 296.9585266113281 C 139.9755096435547 295.95361328125 109.33389282226562 306.1982727050781 102.95233917236328 307.2985534667969 C 87.31659698486328 294.6424255371094 77.71308898925781 287.5364685058594 61.30008316040039 275.9581604003906 C 83.32138061523438 271.7571105957031 107.61552429199219 266.6746826171875 110.75599670410156 267.34307861328125 C 120.9352035522461 268.03692626953125 115.44140625 255.7206268310547 133.7575225830078 296.9585266113281" stroke-width="0.0" fill="rgb(240, 238, 230)" opacity="0.9901074"/>
    <path d="M 426.1790466308594 353.9808044433594 C 432.0783386230469 381.9263916015625 444.7895812988281 404.7890930175781 404.9790344238281 400.4561462402344 C 296.3112487792969 413.0114440917969 292.11688232421875 405.79754638671875 293.6009826660156 375.4339294433594 C 443.50830078125 373.1922302246094 454.9620056152344 377.3213806152344 430.4837646484375 369.6401062011719 C 424.17724609375 351.58935546875 429.0738525390625 361.65887451171875 426.1790466308594 353.9808044433594" stroke-width="0.0" fill="rgb(9, 9, 5)" opacity="0.92088157"/>
    <path d="M 451.4190368652344 372.2576599121094 C 469.6557922363281 367.498779296875 464.86334228515625 373.41070556640625 450.0631408691406 365.1448059082031 C 458.13299560546875 358.14398193359375 454.20263671875 361.6378173828125 271.1391296386719 360.10113525390625 C 425.8550720214844 340.4878234863281 484.0467224121094 360.81591796875 460.679443359375 351.33203125 C 442.3153991699219 353.8985900878906 447.11273193359375 363.5740051269531 451.4190368652344 372.2576599121094" stroke-width="0.0" fill="rgb(160, 130, 101)" opacity="1.0"/>
    <path d="M 515.89404296875 405.6528015136719 C 484.2157897949219 405.7638854980469 460.9865417480469 405.6310729980469 416.9577331542969 405.7002868652344 C 376.9883117675781 405.37158203125 322.6390686035156 407.0657043457031 305.1397705078125 401.83917236328125 C 470.8310241699219 406.0430603027344 455.36566162109375 388.76531982421875 440.1336669921875 360.6590270996094 C 469.7970886230469 357.73211669921875 460.9282531738281 391.6655578613281 515.89404296875 405.6528015136719" stroke-width="0.0" fill="rgb(5, 4, 6)" opacity="0.98590493"/>
    <path d="M 513.568115234375 372.94708251953125 C 505.0031433105469 397.4449768066406 515.8833618164062 402.531982421875 492.04547119140625 401.4366455078125 C 456.5758056640625 399.79241943359375 486.20819091796875 382.133544921875 354.125 366.3443603515625 C 456.8885192871094 365.7104797363281 462.2666931152344 368.5218200683594 403.7276611328125 365.7135925292969 C 498.1459655761719 365.9875183105469 509.4620361328125 363.8101501464844 513.568115234375 372.94708251953125" stroke-width="0.0" fill="rgb(154, 121, 96)" opacity="0.9916209"/>
    <path d="M 572.6837768554688 237.73658752441406 C 499.3057861328125 234.06259155273438 484.59735107421875 238.23721313476562 491.7707824707031 236.55870056152344 C 498.88092041015625 237.75123596191406 484.64013671875 235.98406982421875 452.8165588378906 242.48838806152344 C 441.99896240234375 195.62423706054688 469.1380310058594 210.42977905273438 494.91741943359375 208.5865478515625 C 517.9598999023438 187.07064819335938 541.1282348632812 184.32305908203125 572.6837768554688 237.73658752441406" stroke-width="0.0" fill="rgb(138, 153, 177)" opacity="0.95502055"/>
    <path d="M 30.00320053100586 386.6424560546875 C 126.6297378540039 385.9591979980469 133.64845275878906 391.5577087402344 18.581298828125 390.6773376464844 C 68.56939697265625 367.58612060546875 86.34060668945312 369.8771667480469 0.957304835319519 379.84326171875 C 112.88056182861328 378.4197692871094 129.45265197753906 382.44635009765625 115.41415405273438 375.3915710449219 C 61.46067810058594 377.7860107421875 60.74422073364258 368.9327087402344 30.00320053100586 386.6424560546875" stroke-width="0.0" fill="rgb(3, 4, 2)" opacity="0.9397632"/>
    <path d="M 454.5912170410156 390.7864685058594 C 439.61822509765625 387.2958068847656 434.0409851074219 379.9732666015625 491.2986145019531 401.4243469238281 C 457.0443115234375 401.6138916015625 432.3540344238281 401.5169982910156 251.8623504638672 401.4662780761719 C 305.7098388671875 358.3076171875 377.8941345214844 397.5485534667969 457.03082275390625 365.7677001953125 C 426.35369873046875 363.9590759277344 448.63861083984375 380.98773193359375 454.5912170410156 390.7864685058594" stroke-width="0.0" fill="rgb(147, 118, 91)" opacity="1.0"/>
    <path d="M 243.07199096679688 362.90435791015625 C 149.2122802734375 356.3601989746094 120.28492736816406 362.3484191894531 139.1478271484375 359.9134216308594 C 159.58583068847656 363.1211853027344 127.62439727783203 355.0032653808594 44.152130126953125 364.2236328125 C 130.30471801757812 365.3946228027344 151.1973114013672 364.063232421875 137.80528259277344 365.5968933105469 C 122.44691467285156 363.2254943847656 151.21827697753906 368.39105224609375 243.07199096679688 362.90435791015625" stroke-width="0.0" fill="rgb(1, 0, 0)" opacity="0.97422117"/>
    <path d="M 233.6771697998047 332.5924987792969 C 247.52647399902344 304.041015625 239.32374572753906 310.9408264160156 225.4881591796875 302.9822692871094 C 219.1019744873047 305.8153991699219 236.54611206054688 313.1020202636719 199.17837524414062 337.53387451171875 C 218.3196258544922 312.9070739746094 217.23448181152344 277.1888122558594 232.68539428710938 171.61093139648438 C 233.2997283935547 254.3470001220703 211.83526611328125 312.26556396484375 233.6771697998047 332.5924987792969" stroke-width="0.0" fill="rgb(0, 1, 1)" opacity="0.9340249"/>
    <path d="M 264.3057556152344 340.3006896972656 C 270.2753601074219 362.82940673828125 268.82647705078125 361.08319091796875 225.8291015625 360.924072265625 C 208.2623291015625 353.8961181640625 228.7041473388672 352.3694152832031 268.6314392089844 351.688720703125 C 233.98800659179688 317.0082092285156 227.03964233398438 327.2646789550781 231.50624084472656 328.805908203125 C 242.13162231445312 331.1729736328125 254.25001525878906 334.6355895996094 264.3057556152344 340.3006896972656" stroke-width="0.0" fill="rgb(86, 71, 55)" opacity="0.75755066"/>
    <path d="M 309.9588317871094 360.5025634765625 C 252.08694458007812 359.76416015625 240.95494079589844 362.6875305175781 241.2880096435547 353.955322265625 C 245.18368530273438 354.6089172363281 252.9892120361328 352.3145446777344 290.36639404296875 352.3240661621094 C 242.41078186035156 329.8282470703125 240.63380432128906 339.0434875488281 236.5357208251953 333.9142761230469 C 272.8001403808594 341.0040283203125 270.32440185546875 344.8352966308594 309.9588317871094 360.5025634765625" stroke-width="0.0" fill="rgb(157, 128, 95)" opacity="1.0"/>
    <path d="M 270.6791076660156 326.2840270996094 C 267.6602478027344 314.0436706542969 256.1952209472656 315.4853820800781 237.02288818359375 308.8708801269531 C 247.24258422851562 316.0201721191406 234.16294860839844 304.43768310546875 219.6112518310547 306.2786865234375 C 229.45884704589844 265.50958251953125 217.78770446777344 254.64463806152344 254.67874145507812 258.43255615234375 C 264.6476135253906 288.020263671875 269.42474365234375 301.0243835449219 270.6791076660156 326.2840270996094" stroke-width="0.0" fill="rgb(250, 246, 236)" opacity="0.96838117"/>
    <path d="M 339.9486999511719 338.8735656738281 C 349.7271728515625 350.85528564453125 289.4114685058594 338.2398986816406 322.906494140625 344.55584716796875 C 351.9037780761719 347.731689453125 333.45111083984375 345.4638977050781 283.86370849609375 347.0184020996094 C 305.2328186035156 331.5129699707031 296.967529296875 324.7896423339844 298.7555847167969 344.737548828125 C 312.1774597167969 339.49676513671875 372.2153015136719 355.4924011230469 339.9486999511719 338.8735656738281" stroke-width="0.0" fill="rgb(167, 177, 174)" opacity="0.986152"/>
    <path d="M 82.5567626953125 348.212890625 C 75.56583404541016 388.3975830078125 106.445068359375 371.2785949707031 45.65582275390625 375.5956115722656 C 40.24152374267578 368.1334228515625 27.848079681396484 360.1889953613281 68.98343658447266 361.5085754394531 C 70.06703186035156 364.8922119140625 68.74028015136719 329.4171142578125 69.65040588378906 334.3802795410156 C 144.93812561035156 307.58599853515625 134.2939910888672 344.38653564453125 82.5567626953125 348.212890625" stroke-width="0.0" fill="rgb(153, 120, 87)" opacity="0.9826035"/>
    <path d="M 507.7057189941406 331.6156311035156 C 510.079833984375 326.0481872558594 504.0010681152344 343.76531982421875 504.33837890625 345.58135986328125 C 518.5547485351562 347.5051574707031 507.28472900390625 331.8611755371094 515.8170776367188 344.64544677734375 C 518.060791015625 347.4249572753906 513.9439086914062 335.9684753417969 516.2889404296875 345.151123046875 C 501.2987365722656 344.5890808105469 520.0713500976562 348.2354736328125 507.7057189941406 331.6156311035156" stroke-width="0.0" fill="rgb(229, 226, 226)" opacity="0.9362534"/>
    <path d="M 265.1252136230469 316.0954895019531 C 285.14434814453125 347.94482421875 255.01956176757812 332.2788391113281 230.03909301757812 327.63482666015625 C 219.20846557617188 332.5379638671875 199.71873474121094 326.1890869140625 209.40406799316406 317.84521484375 C 221.71328735351562 269.5177917480469 220.30609130859375 232.71270751953125 220.78445434570312 304.6033935546875 C 228.32928466796875 305.0325012207031 247.11146545410156 310.9830017089844 265.1252136230469 316.0954895019531" stroke-width="0.0" fill="rgb(0, 0, 0)" opacity="0.5238604"/>
    <path d="M 237.88763427734375 326.56292724609375 C 231.6278533935547 339.5971374511719 222.65147399902344 343.85760498046875 215.436279296875 363.4330139160156 C 208.97569274902344 346.40472412109375 204.93124389648438 340.6361389160156 201.19631958007812 335.47515869140625 C 192.5914764404297 304.37017822265625 198.1529541015625 279.7989196777344 205.79090881347656 316.5550231933594 C 226.1768035888672 316.6488037109375 232.76077270507812 315.154541015625 237.88763427734375 326.56292724609375" stroke-width="0.0" fill="rgb(2, 1, 1)" opacity="0.93338823"/>
    <path d="M 118.39361572265625 270.9585876464844 C 133.4368438720703 288.89453125 142.88169860839844 303.2196960449219 119.77251434326172 300.336669921875 C 117.390625 292.79083251953125 112.0560302734375 287.2762756347656 113.61271667480469 274.98358154296875 C 128.12464904785156 291.8593444824219 126.05526733398438 257.4271545410156 111.37126922607422 267.2703552246094 C 109.78233337402344 283.61199951171875 141.2484588623047 284.9674072265625 118.39361572265625 270.9585876464844" stroke-width="0.0" fill="rgb(132, 135, 146)" opacity="0.46693584"/>
    <path d="M 38.58733367919922 372.3203430175781 C 40.15143966674805 337.6562194824219 27.708417892456055 361.49053955078125 23.439023971557617 370.6221923828125 C 41.594322204589844 388.1846923828125 22.203941345214844 388.8192443847656 1.572590947151184 379.9361267089844 C 30.966569900512695 365.7320556640625 33.67014694213867 357.01007080078125 19.301525115966797 363.39154052734375 C 21.231889724731445 379.68304443359375 43.762027740478516 373.8845520019531 38.58733367919922 372.3203430175781" stroke-width="0.0" fill="rgb(140, 154, 179)" opacity="0.9998246"/>
    <path d="M 250.47152709960938 358.99688720703125 C 249.11502075195312 371.16839599609375 249.3209686279297 369.794677734375 250.2979736328125 360.3292541503906 C 214.82029724121094 357.5368957519531 219.72882080078125 366.0619812011719 219.60035705566406 352.8937683105469 C 266.53607177734375 351.4204406738281 249.6195526123047 360.9951171875 249.0728302001953 332.942626953125 C 242.48150634765625 341.30615234375 257.61859130859375 347.98260498046875 250.47152709960938 358.99688720703125" stroke-width="0.0" fill="rgb(161, 135, 106)" opacity="0.86573255"/>
    <path d="M 422.49725341796875 335.121337890625 C 433.52880859375 350.9581298828125 368.16473388671875 340.16351318359375 420.0430603027344 346.28570556640625 C 402.2508544921875 346.2832946777344 382.232666015625 346.4363098144531 354.9657287597656 346.3563232421875 C 392.6131896972656 330.7039489746094 355.3924255371094 346.153564453125 385.00152587890625 344.5185546875 C 405.8951416015625 340.81365966796875 453.0867004394531 356.2872314453125 422.49725341796875 335.121337890625" stroke-width="0.0" fill="rgb(210, 225, 231)" opacity="0.7968712"/>
    <path d="M 278.19927978515625 347.4158935546875 C 249.91360473632812 347.9455261230469 238.51882934570312 347.54339599609375 212.67529296875 347.7164001464844 C 213.86219787597656 369.7055969238281 227.12612915039062 353.81982421875 87.31675720214844 359.8469543457031 C 130.1806182861328 263.1051940917969 176.140869140625 319.0158386230469 212.12594604492188 323.0714416503906 C 213.48931884765625 316.8260498046875 237.5679168701172 329.008056640625 278.19927978515625 347.4158935546875" stroke-width="0.0" fill="rgb(154, 122, 92)" opacity="0.9883134"/>
    <path d="M 316.49005126953125 388.86834716796875 C 477.76605224609375 387.4313659667969 442.7577209472656 393.53533935546875 381.1220397949219 393.4818115234375 C 269.6665344238281 392.4599304199219 296.22515869140625 397.61175537109375 293.2739562988281 383.6322326660156 C 300.3984069824219 366.33563232421875 335.68414306640625 381.877197265625 328.91357421875 376.6268615722656 C 317.3787536621094 381.3011779785156 313.9469909667969 371.27264404296875 316.49005126953125 388.86834716796875" stroke-width="0.0" fill="rgb(10, 7, 4)" opacity="0.9479859"/>
    <path d="M 403.09429931640625 300.1386413574219 C 415.67999267578125 317.38006591796875 446.9361267089844 354.5338134765625 407.8213806152344 317.0625305175781 C 395.58587646484375 302.2648010253906 386.077392578125 290.00579833984375 372.2470397949219 275.675537109375 C 353.6289978027344 263.11907958984375 361.3746032714844 251.23269653320312 377.846923828125 270.7938537597656 C 393.147705078125 286.532958984375 400.8715515136719 296.9498596191406 403.09429931640625 300.1386413574219" stroke-width="0.0" fill="rgb(1, 1, 4)" opacity="0.94943964"/>
    <path d="M 103.28641510009766 354.02728271484375 C 103.4530258178711 366.4423828125 104.82618713378906 367.2355651855469 90.4433822631836 353.33599853515625 C 87.33509826660156 367.7004699707031 81.01243591308594 371.739990234375 81.52507781982422 348.1306457519531 C 79.1430892944336 349.2220153808594 94.39620208740234 348.0462951660156 102.31938934326172 348.1829833984375 C 102.23316955566406 350.4249572753906 103.72985076904297 343.7978820800781 103.28641510009766 354.02728271484375" stroke-width="0.0" fill="rgb(0, 1, 2)" opacity="0.95943046"/>
    <path d="M 270.9881591796875 340.4839782714844 C 263.2619934082031 316.8318176269531 258.5436096191406 318.2518005371094 234.4779052734375 311.91461181640625 C 231.9610137939453 320.156005859375 217.15382385253906 318.6121826171875 221.18785095214844 315.233154296875 C 224.74209594726562 323.6064758300781 245.52938842773438 309.35595703125 224.67904663085938 310.259765625 C 213.2799072265625 319.9566955566406 232.87156677246094 317.11346435546875 270.9881591796875 340.4839782714844" stroke-width="0.0" fill="rgb(3, 30, 60)" opacity="0.95425546"/>
    <path d="M 311.6872253417969 380.0542907714844 C 311.11376953125 392.8916931152344 314.90020751953125 388.06048583984375 297.61590576171875 389.6786804199219 C 304.0115966796875 390.3276062011719 294.67779541015625 387.18817138671875 298.251708984375 388.0028381347656 C 298.86798095703125 387.82928466796875 297.9902648925781 379.0249938964844 298.98193359375 378.4263000488281 C 307.5371398925781 380.19818115234375 312.03369140625 378.4414978027344 311.6872253417969 380.0542907714844" stroke-width="0.0" fill="rgb(157, 134, 106)" opacity="0.89570636"/>
    <path d="M 46.280548095703125 356.1943664550781 C 36.2084846496582 358.315673828125 40.31150436401367 348.77264404296875 39.823387145996094 378.9024353027344 C 50.20933151245117 375.2524719238281 39.57256317138672 356.9979248046875 46.502342224121094 371.2759704589844 C 38.04621124267578 351.96368408203125 57.99626541137695 368.7516784667969 69.90058898925781 356.7615051269531 C 37.12257766723633 354.8891906738281 35.92561340332031 360.21453857421875 46.280548095703125 356.1943664550781" stroke-width="0.0" fill="rgb(2, 1, 1)" opacity="0.96234715"/>
    <path d="M 484.0480041503906 389.6301574707031 C 473.89935302734375 397.8152160644531 460.5848083496094 397.2317810058594 456.4703369140625 393.5162658691406 C 456.5206298828125 395.20892333984375 445.6916809082031 392.0858154296875 437.8457946777344 386.01983642578125 C 439.3938293457031 376.9847106933594 447.19091796875 369.4917907714844 457.1894836425781 368.7270812988281 C 468.4485778808594 370.61224365234375 477.3562316894531 376.5921325683594 484.0480041503906 389.6301574707031" stroke-width="0.0" fill="rgb(150, 120, 90)" opacity="0.9870958"/>
    <path d="M 359.2030334472656 276.4959716796875 C 358.3792419433594 294.6409606933594 359.032958984375 329.55133056640625 355.7891845703125 351.0130615234375 C 346.9404296875 348.6899719238281 355.0851135253906 299.9942321777344 351.6895751953125 271.2422790527344 C 340.6640625 301.7659912109375 358.078857421875 270.9891052246094 360.822998046875 263.30865478515625 C 356.1952819824219 296.95562744140625 359.86126708984375 309.7661437988281 359.2030334472656 276.4959716796875" stroke-width="0.0" fill="rgb(0, 0, 1)" opacity="0.9680915"/>
    <path d="M 431.6826477050781 389.0556945800781 C 427.8957824707031 394.8087158203125 442.4637145996094 393.1908264160156 409.2321472167969 393.48626708984375 C 431.04144287109375 390.56982421875 425.9150085449219 392.1596374511719 426.7255859375 380.7479248046875 C 424.3411865234375 378.9378356933594 437.028076171875 379.33868408203125 388.4559631347656 379.4253234863281 C 443.39410400390625 371.0399169921875 429.24066162109375 373.680419921875 431.6826477050781 389.0556945800781" stroke-width="0.0" fill="rgb(10, 8, 6)" opacity="0.91916096"/>
    <path d="M 15.12019157409668 386.5991516113281 C 19.607824325561523 387.36566162109375 15.059686660766602 405.0466003417969 19.282474517822266 405.6910705566406 C 26.162193298339844 400.69573974609375 23.571992874145508 393.01385498046875 24.276241302490234 396.7754211425781 C 22.421199798583984 409.9896240234375 22.188600540161133 397.0824890136719 22.411590576171875 390.7906494140625 C 21.540239334106445 390.82135009765625 46.09959411621094 385.6953125 15.12019157409668 386.5991516113281" stroke-width="0.0" fill="rgb(0, 0, 3)" opacity="0.96038413"/>
    <path d="M 89.06683349609375 346.97442626953125 C 98.7234115600586 354.7108459472656 102.24737548828125 362.23443603515625 86.23123168945312 358.8720397949219 C 92.46261596679688 360.1861267089844 82.2442398071289 350.15777587890625 96.95697021484375 354.429443359375 C 88.60145568847656 345.54620361328125 87.15038299560547 346.3327941894531 92.6981201171875 348.03387451171875 C 96.70599365234375 348.10223388671875 96.99481201171875 349.0746154785156 89.06683349609375 346.97442626953125" stroke-width="0.0" fill="rgb(187, 214, 252)" opacity="0.7371901"/>
    <path d="M 413.5409851074219 390.103759765625 C 411.5285949707031 384.8493957519531 411.0773620605469 382.672119140625 414.1289367675781 391.9631652832031 C 409.283935546875 394.9701232910156 402.226318359375 392.279296875 407.6421813964844 394.1366271972656 C 410.8503112792969 382.9553527832031 405.4695739746094 371.3119201660156 413.28936767578125 377.87841796875 C 413.4706726074219 387.9276123046875 413.10595703125 384.4431457519531 413.5409851074219 390.103759765625" stroke-width="0.0" fill="rgb(4, 4, 4)" opacity="0.89741"/>
    <path d="M 119.5920639038086 382.03692626953125 C 119.3978042602539 371.57342529296875 112.89491271972656 374.5111083984375 115.27349853515625 387.81109619140625 C 120.5455093383789 387.8276672363281 111.2034912109375 387.3865661621094 98.49117279052734 388.0339660644531 C 93.91362762451172 371.6540832519531 106.8940200805664 370.0031433105469 100.46955871582031 391.714599609375 C 124.09131622314453 387.60321044921875 118.9655990600586 396.9747009277344 119.5920639038086 382.03692626953125" stroke-width="0.0" fill="rgb(7, 6, 5)" opacity="0.9517257"/>
    <path d="M 197.9978790283203 313.80938720703125 C 130.95803833007812 292.0367126464844 143.5783233642578 301.66119384765625 145.9472198486328 309.2792663574219 C 143.8214874267578 310.1005859375 138.80792236328125 311.8678283691406 146.04412841796875 309.2069091796875 C 138.2871551513672 294.2369384765625 150.46078491210938 303.7257385253906 143.6949005126953 283.9618225097656 C 191.45521545410156 294.4747619628906 190.44284057617188 288.7745666503906 197.9978790283203 313.80938720703125" stroke-width="0.0" fill="rgb(3, 14, 28)" opacity="0.97466993"/>
    <path d="M 96.91699981689453 387.6466369628906 C 109.1945571899414 385.193115234375 98.18074798583984 387.0307922363281 105.4041519165039 387.551025390625 C 98.08301544189453 390.7041320800781 96.91752624511719 378.5996398925781 99.7814712524414 372.90185546875 C 98.5669937133789 388.52947998046875 98.92237854003906 363.64031982421875 108.339599609375 339.61529541015625 C 102.15449523925781 354.87249755859375 96.11202239990234 392.4318542480469 96.91699981689453 387.6466369628906" stroke-width="0.0" fill="rgb(33, 37, 31)" opacity="0.47499245"/>
    <path d="M 353.0489196777344 299.6698303222656 C 363.66912841796875 315.8855895996094 359.119140625 311.1056823730469 351.5758972167969 296.21795654296875 C 351.4936828613281 306.8380432128906 350.6299743652344 310.8037414550781 350.73809814453125 335.04351806640625 C 353.795654296875 299.47650146484375 353.2160339355469 287.90887451171875 359.2136535644531 280.7464599609375 C 362.5730895996094 265.8579406738281 361.0512390136719 264.4391784667969 353.0489196777344 299.6698303222656" stroke-width="0.0" fill="rgb(79, 89, 81)" opacity="0.5007044"/>
    <path d="M 432.35919189453125 340.2603454589844 C 420.3156433105469 331.023193359375 420.3028869628906 339.48663330078125 406.3446960449219 337.6915588378906 C 409.8560791015625 344.038818359375 401.2509460449219 345.1062316894531 423.76806640625 344.0824279785156 C 428.04620361328125 336.1066589355469 391.11126708984375 304.787841796875 404.57855224609375 301.4843444824219 C 419.0309753417969 319.33355712890625 430.4716796875 330.0480041503906 432.35919189453125 340.2603454589844" stroke-width="0.0" fill="rgb(0, 1, 2)" opacity="0.77488446"/>
    <path d="M 156.37095642089844 225.05186462402344 C 154.866943359375 232.21913146972656 149.66004943847656 259.7808532714844 142.99488830566406 292.2508239746094 C 142.4608154296875 238.7052764892578 151.56948852539062 231.30801391601562 146.86337280273438 253.559814453125 C 137.84214782714844 254.64566040039062 157.01547241210938 241.11294555664062 163.358154296875 193.62220764160156 C 141.97023010253906 242.0908203125 144.43667602539062 268.39105224609375 156.37095642089844 225.05186462402344" stroke-width="0.0" fill="rgb(9, 13, 10)" opacity="0.6078823"/>
    <path d="M 72.63261413574219 294.228759765625 C 77.12757873535156 298.9297180175781 96.1761703491211 312.3075256347656 86.58907318115234 306.4385681152344 C 68.1920166015625 303.0785827636719 62.17644500732422 299.014404296875 56.56901168823242 289.8263854980469 C 52.8002815246582 280.55035400390625 69.98698425292969 293.1240234375 76.4928207397461 298.0472717285156 C 65.96205139160156 288.6383972167969 84.88719940185547 305.74627685546875 72.63261413574219 294.228759765625" stroke-width="0.0" fill="rgb(135, 149, 178)" opacity="0.9389789"/>
    <path d="M 112.55369567871094 321.66534423828125 C 120.23658752441406 325.34149169921875 117.86460876464844 324.65802001953125 114.5345458984375 323.4134216308594 C 109.67609405517578 314.7818298339844 102.69886779785156 301.6979064941406 99.42376708984375 327.6163330078125 C 107.3282241821289 329.5743103027344 121.96935272216797 319.7235107421875 125.09998321533203 307.1789855957031 C 95.00214385986328 316.4815673828125 109.03031921386719 306.7181396484375 112.55369567871094 321.66534423828125" stroke-width="0.0" fill="rgb(156, 125, 96)" opacity="1.0"/>
    <path d="M 309.79736328125 336.54547119140625 C 317.87689208984375 333.6280517578125 311.7901306152344 334.55218505859375 313.8263854980469 333.79864501953125 C 312.3097229003906 333.75341796875 305.8511047363281 333.2636413574219 312.42254638671875 333.2156982421875 C 308.43206787109375 334.2618103027344 308.76947021484375 332.0342102050781 294.9611511230469 334.6154479980469 C 302.3255310058594 334.3283386230469 316.19073486328125 335.8401184082031 309.79736328125 336.54547119140625" stroke-width="0.0" fill="rgb(146, 185, 215)" opacity="0.98412067"/>
    <path d="M 336.2489929199219 336.01434326171875 C 307.0331726074219 329.52716064453125 327.0164794921875 337.7060241699219 314.21710205078125 334.7731018066406 C 313.9004211425781 339.0058288574219 309.081787109375 333.6811828613281 296.7908935546875 333.1713562011719 C 300.4986267089844 334.4929504394531 305.7426452636719 336.0838928222656 311.83135986328125 335.182373046875 C 322.1512756347656 334.3845520019531 315.57177734375 337.49169921875 336.2489929199219 336.01434326171875" stroke-width="0.0" fill="rgb(110, 129, 143)" opacity="1.0"/>
    <path d="M 402.9377746582031 334.9466247558594 C 399.1576843261719 333.5205993652344 391.6465759277344 337.5736389160156 384.3713684082031 334.8528747558594 C 392.78668212890625 334.0093078613281 381.9513244628906 331.7957763671875 389.791748046875 331.852294921875 C 388.7042541503906 333.98260498046875 385.24456787109375 329.8443603515625 367.5812683105469 336.77587890625 C 388.59259033203125 336.33770751953125 397.8861083984375 328.3291931152344 402.9377746582031 334.9466247558594" stroke-width="0.0" fill="rgb(0, 0, 0)" opacity="0.6090454"/>
    <path d="M 29.44905662536621 375.09375 C 38.901206970214844 372.8949890136719 24.899906158447266 378.91180419921875 30.766605377197266 385.3204040527344 C 32.09567642211914 386.84356689453125 27.700210571289062 383.05224609375 34.06476974487305 391.668701171875 C 35.89300537109375 390.666259765625 32.143856048583984 381.1717529296875 36.31047439575195 377.5284729003906 C 23.480112075805664 380.5329284667969 30.940656661987305 382.1634216308594 29.44905662536621 375.09375" stroke-width="0.0" fill="rgb(0, 0, 0)" opacity="0.86128074"/>
    <path d="M 148.29742431640625 266.901611328125 C 146.29981994628906 282.6997985839844 140.59942626953125 285.77398681640625 137.9622039794922 288.7615661621094 C 139.5294189453125 292.98822021484375 137.45492553710938 284.89984130859375 138.4119415283203 286.8592224121094 C 135.36705017089844 288.1546936035156 140.99429321289062 267.23577880859375 140.4612274169922 266.4751892089844 C 155.62997436523438 266.9559020996094 154.48941040039062 266.90069580078125 148.29742431640625 266.901611328125" stroke-width="0.0" fill="rgb(121, 122, 119)" opacity="0.79947525"/>
    <path d="M 143.12599182128906 282.22607421875 C 146.33395385742188 299.46783447265625 146.36647033691406 304.2395935058594 144.6936492919922 295.4867248535156 C 151.67723083496094 302.7222595214844 148.70237731933594 298.5724792480469 132.68759155273438 299.8135681152344 C 141.35650634765625 304.8574523925781 131.15065002441406 278.77850341796875 161.3040313720703 200.31993103027344 C 138.1046142578125 301.592529296875 144.27456665039062 298.8595886230469 143.12599182128906 282.22607421875" stroke-width="0.0" fill="rgb(0, 0, 0)" opacity="0.9349499"/>
    <path d="M 410.811767578125 334.5132141113281 C 406.3034362792969 335.90216064453125 401.57135009765625 336.5098571777344 407.3600158691406 335.0018615722656 C 399.6289367675781 342.3213195800781 399.0414123535156 332.5836486816406 387.7412109375 325.4961853027344 C 386.4134826660156 324.1241455078125 391.4857177734375 327.4638366699219 399.1843566894531 336.09637451171875 C 405.03857421875 332.0303955078125 406.7359313964844 337.5252380371094 410.811767578125 334.5132141113281" stroke-width="0.0" fill="rgb(210, 236, 255)" opacity="0.7029809"/>
    <path d="M 295.960693359375 394.09722900390625 C 293.184814453125 395.0823974609375 290.5275573730469 398.2876281738281 297.2394714355469 395.9637145996094 C 296.427978515625 402.96380615234375 294.1946716308594 395.9925842285156 293.53790283203125 386.6964111328125 C 286.9374694824219 406.53594970703125 292.28887939453125 400.405029296875 294.4948425292969 401.5577087402344 C 293.1129150390625 399.4271240234375 302.6880798339844 405.9211120605469 295.960693359375 394.09722900390625" stroke-width="0.0" fill="rgb(139, 112, 87)" opacity="0.69834673"/>
    <path d="M 428.4751892089844 338.1422119140625 C 418.4583435058594 327.4211730957031 420.5609130859375 339.8888854980469 404.1932678222656 329.32861328125 C 380.93597412109375 335.0148010253906 391.2656555175781 331.2740783691406 388.69281005859375 332.18206787109375 C 404.6449890136719 325.5150146484375 420.3457336425781 338.1448669433594 413.10186767578125 334.4043884277344 C 400.07061767578125 339.3310546875 418.369873046875 333.1242980957031 428.4751892089844 338.1422119140625" stroke-width="0.0" fill="rgb(98, 111, 120)" opacity="0.7710262"/>
    <path d="M 235.68971252441406 209.2920379638672 C 230.41680908203125 194.0448760986328 226.6673583984375 214.41705322265625 227.7929229736328 203.41798400878906 C 237.0017852783203 205.94268798828125 229.44387817382812 193.96470642089844 235.5097198486328 206.3125457763672 C 238.12612915039062 218.96653747558594 240.91140747070312 205.7125244140625 230.7291717529297 205.78439331054688 C 229.9220428466797 206.02682495117188 237.03817749023438 205.1791229248047 235.68971252441406 209.2920379638672" stroke-width="0.0" fill="rgb(54, 48, 63)" opacity="0.9207436"/>
    <path d="M 373.19842529296875 293.6000061035156 C 354.5018615722656 324.8413391113281 354.2393493652344 344.3993225097656 362.1814270019531 337.4003601074219 C 374.1402587890625 335.86798095703125 366.7777099609375 329.4712829589844 369.44293212890625 327.4569091796875 C 368.1213684082031 338.3973083496094 368.2878112792969 333.8876647949219 380.3351745605469 331.8852233886719 C 380.2334289550781 331.89959716796875 394.2144470214844 328.3945617675781 373.19842529296875 293.6000061035156" stroke-width="0.0" fill="rgb(255, 252, 242)" opacity="0.7191171"/>
    <path d="M 265.9540100097656 290.36224365234375 C 261.8777160644531 268.8504638671875 259.64495849609375 276.2828063964844 273.3388366699219 289.1449890136719 C 273.3165283203125 290.2379455566406 270.7826843261719 276.2677917480469 269.9873046875 279.5209655761719 C 273.68304443359375 290.6825256347656 273.0940246582031 289.3483581542969 264.1611328125 279.026611328125 C 262.74749755859375 277.56585693359375 270.52667236328125 293.4095764160156 265.9540100097656 290.36224365234375" stroke-width="0.0" fill="rgb(34, 38, 41)" opacity="1.0"/>
    <path d="M 396.6554260253906 343.85736083984375 C 412.051025390625 343.7117614746094 382.95050048828125 350.3792724609375 372.2431945800781 337.50885009765625 C 347.7442932128906 355.6119384765625 342.8474426269531 355.82537841796875 373.472412109375 338.49090576171875 C 375.5283203125 346.0721130371094 389.0278625488281 328.9766845703125 392.8604736328125 338.0015869140625 C 363.94915771484375 338.3079833984375 378.996337890625 346.08453369140625 396.6554260253906 343.85736083984375" stroke-width="0.0" fill="rgb(94, 104, 114)" opacity="1.0"/>
    <path d="M 318.43719482421875 370.5769958496094 C 315.7937927246094 380.0751037597656 308.53851318359375 387.4132385253906 299.3482971191406 389.95489501953125 C 289.80206298828125 387.5317077636719 282.1545104980469 380.648193359375 280.08123779296875 371.5308837890625 C 282.78741455078125 361.5804443359375 289.93499755859375 354.10858154296875 299.2607727050781 351.69287109375 C 308.6596374511719 354.174072265625 315.82672119140625 361.6452331542969 318.43719482421875 370.5769958496094" stroke-width="0.0" fill="rgb(161, 118, 91)" opacity="0.9900086"/>
    <path d="M 331.302001953125 52.99631881713867 C 328.44879150390625 63.176612854003906 321.0969543457031 70.57720947265625 310.765380859375 73.4251708984375 C 300.342041015625 70.44554138183594 293.1633605957031 62.91931915283203 290.599365234375 52.757938385009766 C 293.3065185546875 42.719940185546875 300.6270446777344 35.39949035644531 310.6276550292969 32.719730377197266 C 320.6426696777344 35.39323806762695 328.0832824707031 42.66498565673828 331.302001953125 52.99631881713867" stroke-width="0.0" fill="rgb(140, 155, 178)" opacity="1.0"/>
    <path d="M 98.87503051757812 339.91009521484375 C 96.10254669189453 349.6851806640625 88.77729797363281 356.9630432128906 78.90657043457031 359.627197265625 C 70.46701049804688 357.0247802734375 63.2038688659668 349.66131591796875 60.565673828125 340.50439453125 C 63.202388763427734 331.3836669921875 70.46453857421875 324.0333557128906 79.21446990966797 321.4082946777344 C 88.84007263183594 324.0478210449219 96.27789306640625 331.2582702636719 98.87503051757812 339.91009521484375" stroke-width="0.0" fill="rgb(152, 119, 84)" opacity="0.9900068"/>
    <path d="M 81.7984619140625 381.4495544433594 C 79.22708892822266 391.1346435546875 72.1695327758789 398.8009033203125 62.8900032043457 401.1201171875 C 53.31528854370117 398.7174377441406 46.211143493652344 391.16943359375 43.61635971069336 381.4562683105469 C 46.07003402709961 372.320556640625 53.018672943115234 364.70452880859375 62.737796783447266 362.00909423828125 C 72.4380111694336 364.7196044921875 79.33948516845703 372.3834228515625 81.7984619140625 381.4495544433594" stroke-width="0.0" fill="rgb(146, 121, 91)" opacity="0.99001044"/>
    <path d="M 345.0606689453125 425.6412048339844 C 342.4676208496094 435.72991943359375 335.0078125 442.9181213378906 324.8042907714844 445.3549499511719 C 314.7855529785156 442.7351379394531 307.4555969238281 435.43524169921875 304.7636413574219 425.43328857421875 C 307.4510192871094 415.4389343261719 314.81744384765625 408.2331237792969 324.7248229980469 406.05450439453125 C 334.77581787109375 408.152587890625 342.1140441894531 415.4237976074219 345.0606689453125 425.6412048339844" stroke-width="0.0" fill="rgb(217, 158, 127)" opacity="0.99250096"/>
    <path d="M 508.8946533203125 48.06887435913086 C 506.2154846191406 58.068870544433594 498.89508056640625 65.38945770263672 488.8950500488281 68.0691146850586 C 478.8949890136719 65.3895263671875 471.574462890625 58.06900405883789 468.8951416015625 48.069068908691406 C 471.5747375488281 38.069026947021484 478.89520263671875 30.748523712158203 488.8951110839844 28.069135665893555 C 498.89508056640625 30.74842071533203 506.2155456542969 38.068912506103516 508.8946533203125 48.06887435913086" stroke-width="0.0" fill="rgb(137, 152, 178)" opacity="0.9999119"/>
    <path d="M 405.1811828613281 316.782470703125 C 402.6856689453125 324.9845886230469 395.2325134277344 332.21063232421875 385.39984130859375 334.85552978515625 C 376.94158935546875 332.2577819824219 369.2064514160156 325.2615051269531 366.19244384765625 315.7633056640625 C 368.82269287109375 305.83306884765625 376.1295166015625 298.4884033203125 385.2494812011719 296.75152587890625 C 395.1861572265625 299.4814147949219 402.49566650390625 306.8060302734375 405.1811828613281 316.782470703125" stroke-width="0.0" fill="rgb(248, 244, 232)" opacity="0.99001545"/>
    <path d="M 115.73019409179688 523.0699462890625 C 113.04804229736328 533.0704345703125 105.72689056396484 540.3905639648438 95.7270278930664 543.069580078125 C 85.72704315185547 540.3902587890625 78.40628051757812 533.0700073242188 75.7243423461914 523.0694580078125 C 78.40477752685547 513.0689086914062 85.7256088256836 505.7481384277344 95.72676086425781 503.06695556640625 C 105.72791290283203 505.7482604980469 113.04875946044922 513.0690307617188 115.73019409179688 523.0699462890625" stroke-width="0.0" fill="rgb(137, 152, 176)" opacity="0.999553"/>
    <path d="M 493.0892333984375 394.5735168457031 C 490.3369140625 404.46917724609375 483.0898742675781 411.8115539550781 473.8663024902344 414.3895568847656 C 464.5450134277344 411.8114929199219 457.29425048828125 404.4750671386719 454.53936767578125 394.5860900878906 C 456.498291015625 385.2246398925781 463.8193054199219 377.9047546386719 473.8243103027344 375.21783447265625 C 483.82769775390625 377.8943786621094 491.152587890625 385.21514892578125 493.0892333984375 394.5735168457031" stroke-width="0.0" fill="rgb(146, 117, 87)" opacity="0.9900206"/>
    <path d="M 617.8003540039062 584.8759155273438 C 615.120849609375 594.8759155273438 607.8003540039062 602.1964111328125 597.7991333007812 604.8771362304688 C 587.7960815429688 602.2001953125 580.4727172851562 594.8811645507812 577.779052734375 584.8741455078125 C 580.4697265625 574.86767578125 587.7919921875 567.5447387695312 597.795166015625 564.8585815429688 C 607.8004760742188 567.5550537109375 615.120849609375 574.8759155273438 617.8003540039062 584.8759155273438" stroke-width="0.0" fill="rgb(136, 152, 175)" opacity="0.999339"/>
    <path d="M 38.404510498046875 154.61114501953125 C 35.716617584228516 164.6125030517578 28.393314361572266 171.93153381347656 18.391725540161133 174.6102294921875 C 8.391366958618164 171.93043518066406 1.0709716081619263 164.60980224609375 -1.6083258390426636 154.60975646972656 C 1.0710548162460327 144.60972595214844 8.391440391540527 137.2890625 18.391433715820312 134.60934448242188 C 28.391843795776367 137.28904724121094 35.713890075683594 144.60888671875 38.404510498046875 154.61114501953125" stroke-width="0.0" fill="rgb(138, 151, 176)" opacity="0.9999245"/>
    <path d="M 275.2923583984375 207.56085205078125 C 272.6146240234375 217.55929565429688 265.28900146484375 224.86016845703125 256.2488098144531 226.58438110351562 C 246.2530059814453 223.91116333007812 238.90797424316406 216.61732482910156 236.27635192871094 208.50241088867188 C 238.9451141357422 198.51229858398438 246.2237548828125 191.14016723632812 255.98646545410156 188.1922149658203 C 265.29510498046875 190.2415313720703 272.6151123046875 197.56201171875 275.2923583984375 207.56085205078125" stroke-width="0.0" fill="rgb(248, 244, 235)" opacity="0.9900025"/>
    <path d="M 366.2220153808594 262.3470764160156 C 363.5845947265625 272.2412414550781 356.2701416015625 279.5354919433594 346.503173828125 282.1875305175781 C 337.97479248046875 279.5979309082031 330.2160949707031 272.6338195800781 327.23419189453125 263.10992431640625 C 329.886474609375 253.17066955566406 337.20654296875 245.85011291503906 347.17425537109375 243.18533325195312 C 356.8015441894531 246.0655059814453 363.6687927246094 253.86407470703125 366.2220153808594 262.3470764160156" stroke-width="0.0" fill="rgb(249, 244, 230)" opacity="0.9900035"/>
    <path d="M 273.0381164550781 166.0921630859375 C 270.3529357910156 176.09657287597656 263.03240966796875 183.41696166992188 253.02713012695312 186.10528564453125 C 243.02499389648438 183.42727661132812 235.70484924316406 176.1033935546875 233.01197814941406 166.09292602539062 C 235.6988067626953 156.08633422851562 243.0223388671875 148.76332092285156 253.03488159179688 146.06207275390625 C 263.045166015625 148.7593994140625 270.3644714355469 156.08563232421875 273.0381164550781 166.0921630859375" stroke-width="0.0" fill="rgb(249, 248, 234)" opacity="0.99940735"/>
    <path d="M 398.4570007324219 439.4691162109375 C 395.64501953125 449.2813720703125 388.33367919921875 456.531005859375 379.03021240234375 459.04241943359375 C 369.55438232421875 456.51611328125 362.2455139160156 449.26446533203125 359.4359436035156 439.4501647949219 C 361.6096496582031 429.8623352050781 368.9296569824219 422.5379333496094 378.94757080078125 419.80792236328125 C 388.9517822265625 422.5218200683594 396.2665100097656 429.85675048828125 398.4570007324219 439.4691162109375" stroke-width="0.0" fill="rgb(217, 155, 130)" opacity="0.9900477"/>
    <path d="M 162.57167053222656 582.8363647460938 C 159.8661651611328 592.8519287109375 152.5388641357422 600.170166015625 142.52577209472656 602.84814453125 C 132.5138702392578 600.1701049804688 125.18812561035156 592.8505249023438 122.48941802978516 582.8434448242188 C 125.20354461669922 572.8364868164062 132.5260467529297 565.5167236328125 142.53456115722656 562.8253173828125 C 152.54336547851562 565.4970092773438 159.86837768554688 572.8190307617188 162.57167053222656 582.8363647460938" stroke-width="0.0" fill="rgb(136, 152, 175)" opacity="1.0"/>
  </g>
</svg>
