<?xml version="1.0" ?>
<svg xmlns="http://www.w3.org/2000/svg" version="1.1" width="600" height="600">
  <defs/>
  <g>
    <path d="M 381.6178283691406 598.8502197265625 C 378.0089416503906 620.7413330078125 361.7813415527344 622.1317138671875 250.38272094726562 620.4568481445312 C 193.87368774414062 613.0028076171875 189.41189575195312 600.929443359375 177.7311248779297 519.6641845703125 C 180.6199188232422 454.558837890625 203.8911895751953 468.9989013671875 259.9026794433594 494.63958740234375 C 324.63995361328125 484.9391784667969 351.31243896484375 468.7568359375 381.6178283691406 598.8502197265625" stroke-width="0.0" fill="rgb(138, 153, 176)" opacity="0.99733937"/>
    <path d="M 372.7726745605469 4.963733673095703 C 332.5865478515625 81.3174819946289 317.6876220703125 90.53678894042969 237.42079162597656 131.8356475830078 C 186.203125 124.17424011230469 186.51956176757812 125.54715728759766 212.12454223632812 44.197967529296875 C 223.0545654296875 -10.22999095916748 227.32261657714844 -19.13711929321289 288.4337463378906 -21.049591064453125 C 354.4042663574219 -23.355690002441406 368.9287414550781 -21.356338500976562 372.7726745605469 4.963733673095703" stroke-width="0.0" fill="rgb(96, 115, 147)" opacity="0.7305311"/>
    <path d="M 230.48097229003906 565.7616577148438 C 225.86839294433594 644.0308227539062 201.9107208251953 631.0952758789062 148.8784637451172 618.7975463867188 C 96.66534423828125 624.2203979492188 68.68215942382812 635.284423828125 54.10673141479492 604.0758056640625 C 88.84822082519531 540.2772216796875 102.45610046386719 533.2299194335938 190.99485778808594 484.66204833984375 C 219.91796875 491.4527893066406 223.4206085205078 506.29083251953125 230.48097229003906 565.7616577148438" stroke-width="0.0" fill="rgb(138, 153, 177)" opacity="0.9454905"/>
    <path d="M 625.3577270507812 197.06631469726562 C 658.143798828125 320.2041931152344 685.246337890625 344.99603271484375 524.202880859375 335.1900329589844 C 429.5123596191406 279.6702575683594 449.5038146972656 221.41873168945312 404.5355224609375 192.3218536376953 C 441.3447570800781 91.10193634033203 467.2256774902344 90.90636444091797 596.2474365234375 16.498958587646484 C 623.5690307617188 22.999305725097656 623.3321533203125 40.67409896850586 625.3577270507812 197.06631469726562" stroke-width="0.0" fill="rgb(137, 152, 176)" opacity="0.99957776"/>
    <path d="M 397.7724304199219 382.3883361816406 C 348.7334289550781 551.627197265625 334.5003662109375 542.4583740234375 288.9466857910156 518.1035766601562 C 217.8169708251953 524.9752197265625 184.0613250732422 550.4534301757812 168.99481201171875 396.9415283203125 C 137.24246215820312 309.86602783203125 117.07585144042969 265.376220703125 322.6318664550781 258.93572998046875 C 444.6741943359375 318.88336181640625 446.29010009765625 328.63665771484375 397.7724304199219 382.3883361816406" stroke-width="0.0" fill="rgb(143, 117, 91)" opacity="0.9567371"/>
    <path d="M 534.4486083984375 222.15908813476562 C 551.9125366210938 290.8798828125 531.9575805664062 309.9822998046875 331.175537109375 341.1733703613281 C 260.2809753417969 320.6219787597656 261.08087158203125 255.83316040039062 178.48944091796875 151.55079650878906 C 289.3644714355469 79.10203552246094 348.553955078125 113.66404724121094 424.16064453125 87.73078155517578 C 450.5975036621094 89.81952667236328 465.9883117675781 95.80255126953125 534.4486083984375 222.15908813476562" stroke-width="0.0" fill="rgb(236, 233, 225)" opacity="0.89945364"/>
    <path d="M 430.67364501953125 85.11724090576172 C 407.3349914550781 138.85166931152344 399.0143127441406 154.01214599609375 366.68115234375 255.21316528320312 C 321.14239501953125 172.5446319580078 285.33941650390625 169.8444061279297 284.4245910644531 150.63546752929688 C 342.3506164550781 93.34075927734375 339.85650634765625 67.46660614013672 392.21380615234375 46.0396842956543 C 416.034912109375 51.382301330566406 428.2571716308594 57.926124572753906 430.67364501953125 85.11724090576172" stroke-width="0.0" fill="rgb(1, 1, 4)" opacity="0.96834177"/>
    <path d="M 213.58004760742188 358.3865051269531 C 179.89254760742188 539.0894165039062 160.10128784179688 526.9485473632812 82.28123474121094 522.165283203125 C 9.283112525939941 549.3341674804688 -12.584725379943848 567.5325927734375 -30.781187057495117 340.1593933105469 C -74.65023040771484 273.64398193359375 -89.96868896484375 256.05364990234375 170.246337890625 213.15945434570312 C 275.7657775878906 241.22633361816406 245.2494659423828 290.4285888671875 213.58004760742188 358.3865051269531" stroke-width="0.0" fill="rgb(119, 126, 147)" opacity="0.79706997"/>
    <path d="M 230.93328857421875 170.63803100585938 C 232.7312774658203 175.35116577148438 240.4043426513672 221.0634765625 207.02871704101562 304.1744384765625 C -56.32570266723633 272.6979064941406 -57.26985168457031 273.0239562988281 -38.322731018066406 232.19480895996094 C 58.088497161865234 36.1593017578125 95.46041870117188 43.957481384277344 145.95408630371094 12.262210845947266 C 154.14520263671875 20.76229476928711 157.65264892578125 32.99843215942383 230.93328857421875 170.63803100585938" stroke-width="0.0" fill="rgb(8, 9, 10)" opacity="0.97955614"/>
    <path d="M 164.4174041748047 2.9877426624298096 C 139.7751007080078 66.75112915039062 122.0682601928711 69.59215545654297 7.617247104644775 172.19027709960938 C -15.809571266174316 159.783935546875 -20.017812728881836 145.10009765625 -19.99036407470703 50.24314498901367 C -10.15634822845459 -47.66112518310547 14.742843627929688 -33.53483581542969 89.92432403564453 -21.33534812927246 C 150.58071899414062 -20.937973022460938 163.6486358642578 -17.89592933654785 164.4174041748047 2.9877426624298096" stroke-width="0.0" fill="rgb(139, 153, 177)" opacity="0.99956965"/>
    <path d="M 208.5485076904297 483.16375732421875 C 165.64154052734375 565.57275390625 144.77008056640625 569.4132080078125 43.85131072998047 620.0747680664062 C 0.23427404463291168 625.3421630859375 -13.263816833496094 623.44775390625 -19.553319931030273 561.8818969726562 C -11.818467140197754 432.6003723144531 15.4846773147583 456.0555725097656 95.25309753417969 477.778564453125 C 165.53561401367188 463.8981018066406 194.06033325195312 448.4869689941406 208.5485076904297 483.16375732421875" stroke-width="0.0" fill="rgb(137, 152, 176)" opacity="0.99715805"/>
    <path d="M 616.12890625 12.499333381652832 C 568.4869995117188 132.57525634765625 531.4608154296875 132.2677459716797 458.3775634765625 186.71511840820312 C 408.18731689453125 161.08782958984375 402.7253723144531 145.69540405273438 398.9602966308594 107.00569915771484 C 427.98248291015625 33.92292404174805 436.9875183105469 12.061237335205078 537.3050537109375 -20.392940521240234 C 586.9144287109375 -28.33148193359375 607.3699951171875 -33.94865798950195 616.12890625 12.499333381652832" stroke-width="0.0" fill="rgb(138, 153, 176)" opacity="1.0"/>
    <path d="M 618.7647705078125 375.7785949707031 C 615.0821533203125 682.791015625 603.6884765625 678.2999267578125 524.1744384765625 634.5664672851562 C 312.78472900390625 612.6430053710938 315.97076416015625 597.4402465820312 341.5054626464844 502.273193359375 C 321.71136474609375 358.9841003417969 277.58734130859375 346.1186218261719 496.3406982421875 339.0001220703125 C 598.14501953125 300.5513916015625 611.3433227539062 306.0611877441406 618.7647705078125 375.7785949707031" stroke-width="0.0" fill="rgb(130, 139, 161)" opacity="0.85055053"/>
    <path d="M 207.3055419921875 20.806934356689453 C 157.0321502685547 148.03768920898438 247.20864868164062 110.55744171142578 281.7268371582031 334.284423828125 C 209.73825073242188 100.42196655273438 155.4897003173828 91.87199401855469 133.20098876953125 29.801942825317383 C 133.40647888183594 -8.543262481689453 134.6156768798828 -16.023996353149414 198.10000610351562 -20.02104377746582 C 250.3051300048828 -19.45880699157715 250.92901611328125 -14.34459400177002 207.3055419921875 20.806934356689453" stroke-width="0.0" fill="rgb(5, 5, 6)" opacity="0.9825208"/>
    <path d="M 393.921142578125 53.36368179321289 C 358.40582275390625 123.4457015991211 367.0452575683594 157.84742736816406 297.3661804199219 169.27684020996094 C 273.9656066894531 152.0384063720703 250.7980499267578 136.80067443847656 195.35231018066406 121.17138671875 C 293.4783020019531 75.19093322753906 304.1964416503906 62.438568115234375 372.23272705078125 21.710298538208008 C 388.5960693359375 18.816804885864258 393.6596374511719 32.1784553527832 393.921142578125 53.36368179321289" stroke-width="0.0" fill="rgb(4, 5, 7)" opacity="0.9814177"/>
    <path d="M 515.904052734375 -6.545160293579102 C 484.5610656738281 68.96321868896484 469.8648376464844 82.57697296142578 406.9967956542969 106.50921630859375 C 366.69207763671875 99.0760269165039 353.8131103515625 92.64881896972656 334.3069763183594 23.626020431518555 C 347.7348937988281 -35.10465621948242 366.0718688964844 -29.13506507873535 418.625732421875 -20.648160934448242 C 478.4972839355469 -22.151899337768555 497.5777587890625 -23.78566551208496 515.904052734375 -6.545160293579102" stroke-width="0.0" fill="rgb(138, 153, 177)" opacity="0.999563"/>
    <path d="M 252.3083038330078 23.675243377685547 C 189.18272399902344 118.31009674072266 151.44593811035156 101.62528991699219 131.63198852539062 102.1509780883789 C 117.82060241699219 102.23458862304688 108.40756225585938 96.03956604003906 98.2195816040039 79.3046646118164 C 109.8691177368164 63.1415901184082 102.17007446289062 37.893428802490234 152.01943969726562 -21.56084442138672 C 233.6383819580078 -27.9926700592041 247.6542205810547 -22.862010955810547 252.3083038330078 23.675243377685547" stroke-width="0.0" fill="rgb(138, 153, 177)" opacity="1.0"/>
    <path d="M 371.98162841796875 105.10413360595703 C 364.8840026855469 149.29110717773438 368.8619384765625 162.78184509277344 365.84918212890625 238.97482299804688 C 314.5599670410156 155.41046142578125 277.3658142089844 157.2650909423828 264.3629150390625 129.3250732421875 C 274.2144775390625 81.4059829711914 289.8072509765625 78.89974975585938 352.9781188964844 61.735294342041016 C 378.0510559082031 62.212806701660156 379.80889892578125 74.69295501708984 371.98162841796875 105.10413360595703" stroke-width="0.0" fill="rgb(136, 153, 179)" opacity="0.98134714"/>
    <path d="M 139.8764190673828 152.81204223632812 C 149.10401916503906 208.33802795410156 137.12339782714844 198.39175415039062 133.09568786621094 181.7863311767578 C 74.62850189208984 169.68206787109375 66.56401062011719 161.3555450439453 62.22079086303711 148.59088134765625 C 74.44380950927734 136.69749450683594 78.69432067871094 125.77141571044922 95.21195983886719 111.79491424560547 C 115.78951263427734 114.71134948730469 130.91343688964844 117.78938293457031 139.8764190673828 152.81204223632812" stroke-width="0.0" fill="rgb(143, 158, 188)" opacity="0.92644256"/>
    <path d="M 192.9886932373047 74.7322769165039 C 216.061279296875 198.0255889892578 202.77035522460938 167.28485107421875 193.8793487548828 167.42401123046875 C 111.49656677246094 139.4853057861328 95.99227142333984 179.87966918945312 108.53036499023438 117.08992767333984 C 120.64619445800781 88.7503890991211 131.03280639648438 83.19815063476562 153.8022918701172 69.178466796875 C 188.31390380859375 50.11725616455078 211.8961181640625 44.957733154296875 192.9886932373047 74.7322769165039" stroke-width="0.0" fill="rgb(135, 151, 179)" opacity="0.97907454"/>
    <path d="M 449.25689697265625 251.97000122070312 C 437.5661315917969 186.49337768554688 454.1570129394531 238.51284790039062 427.61480712890625 236.4224395751953 C 335.481689453125 267.9900207519531 376.81524658203125 288.8397216796875 369.3263244628906 186.29754638671875 C 379.3042907714844 138.9736785888672 385.9814453125 129.11129760742188 377.3274230957031 165.28602600097656 C 420.8904724121094 183.1251220703125 419.3167419433594 168.1268768310547 449.25689697265625 251.97000122070312" stroke-width="0.0" fill="rgb(0, 1, 3)" opacity="0.95966023"/>
    <path d="M 70.91991424560547 154.7821044921875 C 58.696693420410156 165.80091857910156 53.52260971069336 176.14942932128906 31.923290252685547 199.0898895263672 C 12.357560157775879 195.62063598632812 -0.7543062567710876 190.283203125 -8.128512382507324 173.30380249023438 C 15.504188537597656 138.84396362304688 25.53461456298828 131.8128662109375 38.213890075683594 126.7158203125 C 54.18008804321289 137.796630859375 63.17615509033203 145.42242431640625 70.91991424560547 154.7821044921875" stroke-width="0.0" fill="rgb(139, 153, 177)" opacity="0.9801566"/>
    <path d="M 143.90322875976562 194.79151916503906 C 103.26890563964844 193.5291748046875 86.4620361328125 197.8734130859375 50.92417526245117 202.45164489746094 C 42.92687225341797 210.66650390625 34.71485137939453 200.2965545654297 31.128328323364258 187.149658203125 C 50.45081329345703 166.55076599121094 57.26826477050781 158.073486328125 70.20024108886719 143.82640075683594 C 82.1884536743164 153.74465942382812 103.47587585449219 148.81756591796875 143.90322875976562 194.79151916503906" stroke-width="0.0" fill="rgb(137, 152, 179)" opacity="0.98584867"/>
    <path d="M 357.56268310546875 517.7471313476562 C 325.7278137207031 551.8690185546875 305.1728820800781 548.04443359375 281.02655029296875 546.67919921875 C 257.14794921875 543.8143920898438 232.6349334716797 550.9606323242188 164.09629821777344 475.4267883300781 C 168.12586975097656 424.9075927734375 192.22479248046875 445.4297180175781 315.5082092285156 444.65350341796875 C 362.3389892578125 430.2982482910156 353.0955810546875 457.5386962890625 357.56268310546875 517.7471313476562" stroke-width="0.0" fill="rgb(141, 153, 176)" opacity="0.96619576"/>
    <path d="M 521.21337890625 177.72705078125 C 521.7532348632812 238.68605041503906 465.49395751953125 203.4803924560547 382.3132629394531 248.28543090820312 C 350.27734375 156.85731506347656 341.47015380859375 151.16873168945312 335.0848388671875 121.25711059570312 C 332.8356018066406 84.73994445800781 333.3263244628906 69.71766662597656 369.2950744628906 66.69902038574219 C 413.17376708984375 80.12963104248047 421.46295166015625 87.49351501464844 521.21337890625 177.72705078125" stroke-width="0.0" fill="rgb(138, 153, 177)" opacity="0.99197984"/>
    <path d="M 301.828857421875 125.01118469238281 C 299.2431335449219 168.25318908691406 298.4873962402344 159.55288696289062 275.2505798339844 145.6733856201172 C 224.5033721923828 117.68441009521484 204.13551330566406 119.72879028320312 173.77420043945312 108.13300323486328 C 191.2534637451172 69.49533081054688 211.144287109375 72.0305404663086 255.212646484375 67.69865417480469 C 276.89886474609375 66.09712219238281 288.28607177734375 70.63896942138672 301.828857421875 125.01118469238281" stroke-width="0.0" fill="rgb(137, 153, 180)" opacity="0.96033114"/>
    <path d="M 114.2059326171875 260.68121337890625 C 97.8321304321289 262.196044921875 84.81678009033203 264.14617919921875 52.13917922973633 270.9247131347656 C 56.957481384277344 391.03277587890625 20.729223251342773 371.0030517578125 -33.877418518066406 318.7225036621094 C 16.223209381103516 217.72909545898438 31.238147735595703 211.9886016845703 67.31490325927734 194.7473602294922 C 79.50670623779297 215.9840850830078 89.26963806152344 224.81021118164062 114.2059326171875 260.68121337890625" stroke-width="0.0" fill="rgb(138, 152, 178)" opacity="0.9808333"/>
    <path d="M 402.6610412597656 180.1049041748047 C 401.15496826171875 200.9916229248047 418.24700927734375 248.74346923828125 305.2801818847656 313.5505065917969 C 414.17034912109375 211.8433380126953 353.12200927734375 283.1884765625 367.6253662109375 194.18453979492188 C 324.145263671875 128.6116943359375 332.6607666015625 130.49761962890625 350.4942932128906 132.01480102539062 C 378.5765686035156 137.73031616210938 389.3951110839844 142.9357452392578 402.6610412597656 180.1049041748047" stroke-width="0.0" fill="rgb(2, 2, 4)" opacity="0.90120625"/>
    <path d="M 94.19125366210938 125.7813720703125 C 81.87747192382812 142.0908966064453 75.70185852050781 151.65281677246094 68.35564422607422 161.8242645263672 C 53.762420654296875 151.20404052734375 44.321311950683594 143.84423828125 35.683441162109375 133.94850158691406 C 45.50187683105469 120.79145812988281 54.433223724365234 114.17984771728516 73.85029602050781 100.0336685180664 C 85.09242248535156 103.35091400146484 92.43379974365234 112.44322204589844 94.19125366210938 125.7813720703125" stroke-width="0.0" fill="rgb(138, 153, 176)" opacity="1.0"/>
    <path d="M 133.11158752441406 108.2077865600586 C 133.7095489501953 129.32919311523438 127.12118530273438 139.02346801757812 108.2228775024414 140.42266845703125 C 80.47465515136719 130.6555938720703 71.78361511230469 122.91301727294922 66.10354614257812 110.8943862915039 C 80.5732650756836 91.84039306640625 89.4677505493164 85.1729507446289 107.64482879638672 72.1148910522461 C 118.50989532470703 75.82084655761719 125.71463012695312 85.04532623291016 133.11158752441406 108.2077865600586" stroke-width="0.0" fill="rgb(139, 154, 177)" opacity="0.9816195"/>
    <path d="M 372.51690673828125 62.58704376220703 C 364.943359375 110.07849884033203 347.00384521484375 111.56749725341797 295.5464172363281 123.74653625488281 C 263.3487548828125 121.95584869384766 256.90179443359375 111.82817077636719 253.71400451660156 95.50480651855469 C 271.075439453125 44.754730224609375 285.21368408203125 38.55656433105469 332.73516845703125 18.758594512939453 C 351.9415588378906 17.29859161376953 362.3648376464844 22.32818603515625 372.51690673828125 62.58704376220703" stroke-width="0.0" fill="rgb(138, 153, 177)" opacity="0.72248477"/>
    <path d="M 77.73868560791016 213.58380126953125 C 65.60704803466797 233.01788330078125 54.0618896484375 240.1773223876953 11.061074256896973 267.5331726074219 C -10.563966751098633 263.1216735839844 -14.28861141204834 247.25054931640625 -16.849323272705078 210.08042907714844 C -11.597112655639648 175.26724243164062 -3.043776750564575 166.24017333984375 21.5176944732666 165.04556274414062 C 56.92148971557617 175.53529357910156 66.09197998046875 183.38197326660156 77.73868560791016 213.58380126953125" stroke-width="0.0" fill="rgb(141, 155, 178)" opacity="0.53707045"/>
    <path d="M 501.32781982421875 345.28466796875 C 583.0753784179688 350.0193786621094 562.5467529296875 368.9892578125 485.55621337890625 384.9051818847656 C 397.92486572265625 376.3517761230469 371.8710021972656 348.2213439941406 452.5898132324219 345.2594299316406 C 463.1719055175781 348.7944641113281 455.4114990234375 325.9937744140625 563.5518188476562 221.824462890625 C 535.9190673828125 249.21031188964844 527.18017578125 321.4778747558594 501.32781982421875 345.28466796875" stroke-width="0.0" fill="rgb(8, 10, 12)" opacity="0.9989837"/>
    <path d="M 414.4065246582031 164.90676879882812 C 409.4894714355469 178.98899841308594 398.65399169921875 184.76300048828125 355.50408935546875 192.7528533935547 C 328.0786437988281 188.42608642578125 319.9178161621094 177.25929260253906 308.28228759765625 144.868896484375 C 321.4715270996094 111.57044219970703 336.6445007324219 110.1607894897461 359.02783203125 112.76156616210938 C 377.08148193359375 123.04651641845703 392.10296630859375 124.87750244140625 414.4065246582031 164.90676879882812" stroke-width="0.0" fill="rgb(139, 154, 177)" opacity="1.0"/>
    <path d="M 418.7862854003906 189.22744750976562 C 414.054443359375 233.5086212158203 403.6451416015625 236.7069549560547 374.0277099609375 252.5054931640625 C 361.9083557128906 234.88380432128906 355.4471740722656 213.40347290039062 344.72772216796875 184.61895751953125 C 337.0187683105469 169.11917114257812 342.9103088378906 159.5028839111328 387.4414367675781 151.79095458984375 C 412.0165100097656 153.29983520507812 418.69390869140625 162.53985595703125 418.7862854003906 189.22744750976562" stroke-width="0.0" fill="rgb(139, 153, 177)" opacity="0.9853762"/>
    <path d="M 567.4978637695312 380.1910705566406 C 520.8443603515625 434.9195556640625 504.9527893066406 435.56304931640625 490.7591247558594 426.36273193359375 C 466.86083984375 425.8385925292969 404.974365234375 470.0268859863281 270.564208984375 359.4106140136719 C 489.2842712402344 369.7470703125 402.7817077636719 303.47637939453125 440.5715637207031 345.3150634765625 C 539.10498046875 349.2859191894531 540.7799682617188 344.8204650878906 567.4978637695312 380.1910705566406" stroke-width="0.0" fill="rgb(6, 5, 3)" opacity="0.9203497"/>
    <path d="M 222.09239196777344 322.2674255371094 C 207.0081024169922 398.3431396484375 173.62353515625 368.9843444824219 184.31956481933594 365.98834228515625 C 135.33746337890625 366.58453369140625 113.7816162109375 383.46099853515625 59.04349136352539 352.8311462402344 C 112.97132110595703 298.328369140625 144.44248962402344 281.81744384765625 205.300537109375 313.7900390625 C 156.57591247558594 340.60394287109375 138.91986083984375 319.9991149902344 222.09239196777344 322.2674255371094" stroke-width="0.0" fill="rgb(127, 101, 77)" opacity="1.0"/>
    <path d="M 356.530517578125 339.4653015136719 C 450.999267578125 317.8265380859375 435.69769287109375 330.073486328125 406.0032653808594 352.28314208984375 C 241.97654724121094 346.5473937988281 277.3185729980469 368.72113037109375 236.4897918701172 307.3207702636719 C 280.68206787109375 282.0362243652344 300.5068664550781 290.25537109375 344.5238952636719 288.1285705566406 C 300.71697998046875 339.946533203125 295.2698059082031 315.20806884765625 356.530517578125 339.4653015136719" stroke-width="0.0" fill="rgb(29, 30, 30)" opacity="1.0"/>
    <path d="M 215.66404724121094 218.81884765625 C 326.73883056640625 337.9797668457031 246.58383178710938 377.8288269042969 211.3456268310547 373.9559326171875 C 210.71591186523438 325.20220947265625 206.67242431640625 307.7191162109375 170.9835205078125 290.4218444824219 C 181.41342163085938 296.834716796875 233.03338623046875 328.4128112792969 146.62074279785156 163.07989501953125 C 138.87779235839844 162.44461059570312 272.3115539550781 179.63394165039062 215.66404724121094 218.81884765625" stroke-width="0.0" fill="rgb(254, 251, 243)" opacity="0.9395082"/>
    <path d="M 203.38418579101562 322.2128601074219 C 211.2165985107422 358.01318359375 238.74386596679688 321.450439453125 154.87786865234375 304.4464111328125 C 64.30805969238281 295.29541015625 59.24789047241211 425.09173583984375 60.30480194091797 327.37750244140625 C 169.21627807617188 309.8940124511719 -19.388378143310547 293.5451354980469 106.16952514648438 273.7907409667969 C 200.0083465576172 240.54054260253906 192.34469604492188 251.42489624023438 203.38418579101562 322.2128601074219" stroke-width="0.0" fill="rgb(12, 12, 13)" opacity="1.0"/>
    <path d="M 567.4675903320312 380.3711853027344 C 604.3829956054688 422.9423828125 580.7523193359375 401.81353759765625 510.8313903808594 405.7101745605469 C 486.6696472167969 407.1803283691406 474.091552734375 398.56402587890625 572.9146728515625 399.0087890625 C 506.61175537109375 360.20050048828125 470.8541564941406 254.94491577148438 525.7702026367188 346.57574462890625 C 603.231201171875 341.6067199707031 533.7846069335938 354.7184143066406 567.4675903320312 380.3711853027344" stroke-width="0.0" fill="rgb(3, 3, 4)" opacity="0.9746167"/>
    <path d="M 323.17340087890625 427.07568359375 C 248.54092407226562 449.4000244140625 194.30516052246094 443.7863464355469 133.6120147705078 444.5465393066406 C 60.67827606201172 444.6847229003906 -11.999153137207031 443.7984619140625 -48.620994567871094 445.5374755859375 C 78.95409393310547 344.9983215332031 122.94812774658203 387.4936828613281 142.70387268066406 388.78057861328125 C 158.3553466796875 386.7192077636719 200.76992797851562 358.10137939453125 323.17340087890625 427.07568359375" stroke-width="0.0" fill="rgb(227, 164, 130)" opacity="0.9092036"/>
    <path d="M 667.0332641601562 440.16351318359375 C 564.0153198242188 447.27716064453125 510.2367248535156 443.587158203125 495.8619689941406 444.7452392578125 C 478.9719543457031 444.3782043457031 415.2984313964844 444.7292175292969 212.11802673339844 444.5849609375 C 332.21795654296875 304.1746520996094 472.6808776855469 394.19683837890625 484.9413757324219 400.87249755859375 C 529.162353515625 416.59564208984375 630.4959106445312 384.70452880859375 667.0332641601562 440.16351318359375" stroke-width="0.0" fill="rgb(219, 159, 128)" opacity="0.9026078"/>
    <path d="M 354.6331481933594 268.5590515136719 C 328.104736328125 293.9045104980469 319.4583740234375 305.427734375 283.567138671875 340.6943359375 C 282.0834655761719 335.99530029296875 276.9615478515625 307.3466491699219 268.2566223144531 259.5614318847656 C 256.6956787109375 211.59140014648438 225.95590209960938 198.1687469482422 276.9722900390625 155.22787475585938 C 347.74481201171875 210.9601287841797 365.39801025390625 245.06613159179688 354.6331481933594 268.5590515136719" stroke-width="0.0" fill="rgb(251, 247, 237)" opacity="0.9694343"/>
    <path d="M 194.18772888183594 293.6456298828125 C 191.17185974121094 322.1914978027344 133.52859497070312 261.687744140625 137.0454559326172 289.6906433105469 C 125.91973114013672 264.9509582519531 122.17074584960938 257.3975524902344 82.20938110351562 205.91415405273438 C 78.96448516845703 205.33602905273438 114.08062744140625 197.86451721191406 157.7138214111328 203.7742462158203 C 156.5478057861328 232.25137329101562 152.4789581298828 171.63246154785156 194.18772888183594 293.6456298828125" stroke-width="0.0" fill="rgb(237, 233, 226)" opacity="0.9853467"/>
    <path d="M 55.745643615722656 204.3594970703125 C 36.76708984375 227.41519165039062 28.790002822875977 236.48516845703125 1.690354347229004 259.2292175292969 C -8.617713928222656 249.21620178222656 -10.483126640319824 234.88844299316406 -9.78083324432373 214.69654846191406 C -10.679449081420898 194.61648559570312 -7.104767322540283 182.1431427001953 10.532957077026367 176.54873657226562 C 37.75525665283203 184.9138641357422 48.15861511230469 191.62525939941406 55.745643615722656 204.3594970703125" stroke-width="0.0" fill="rgb(139, 153, 176)" opacity="1.0"/>
    <path d="M 360.30255126953125 436.5314636230469 C 306.75250244140625 390.72784423828125 306.6845703125 410.53289794921875 261.5391845703125 405.4830017089844 C 221.76983642578125 407.12762451171875 201.91522216796875 405.7986755371094 149.3439483642578 404.6498718261719 C 228.53018188476562 356.6954650878906 224.6463165283203 331.215087890625 254.8057098388672 295.1597900390625 C 298.5367126464844 386.87200927734375 305.8285827636719 405.463623046875 360.30255126953125 436.5314636230469" stroke-width="0.0" fill="rgb(21, 17, 14)" opacity="0.9342188"/>
    <path d="M 231.0044403076172 375.8384704589844 C 204.27737426757812 416.3772277832031 183.6388702392578 404.0953674316406 136.61407470703125 406.7194519042969 C 89.28563690185547 401.4089660644531 12.382080078125 447.8836669921875 16.455533981323242 393.8393249511719 C 57.327091217041016 324.1106872558594 59.32793045043945 367.4168701171875 140.8287811279297 358.4590759277344 C 184.84939575195312 362.97528076171875 219.46160888671875 350.3566589355469 231.0044403076172 375.8384704589844" stroke-width="0.0" fill="rgb(0, 0, 0)" opacity="0.46707416"/>
    <path d="M 548.3690185546875 244.6229705810547 C 511.16937255859375 239.448974609375 500.04754638671875 245.88462829589844 483.9893798828125 242.69625854492188 C 503.73443603515625 245.4583740234375 483.6341857910156 241.871337890625 447.2109069824219 250.56231689453125 C 433.0394592285156 200.1114959716797 465.0411376953125 239.681884765625 490.113037109375 231.4153289794922 C 497.3853454589844 236.3873291015625 550.9834594726562 210.11033630371094 548.3690185546875 244.6229705810547" stroke-width="0.0" fill="rgb(4, 5, 7)" opacity="0.98732173"/>
    <path d="M 108.95631408691406 408.16790771484375 C 91.93850708007812 427.2231750488281 83.71658325195312 434.49261474609375 67.72650909423828 443.78204345703125 C 45.74175262451172 444.0180358886719 23.97673225402832 448.1289978027344 -3.771310806274414 405.30487060546875 C 56.769779205322266 407.8835754394531 97.30508422851562 405.1441345214844 103.2753677368164 407.3631896972656 C 85.73192596435547 389.5599060058594 89.35304260253906 401.35009765625 108.95631408691406 408.16790771484375" stroke-width="0.0" fill="rgb(219, 161, 132)" opacity="1.0"/>
    <path d="M 446.7560729980469 360.5298156738281 C 482.51080322265625 392.36175537109375 488.5762634277344 388.6542663574219 472.98577880859375 397.3073425292969 C 461.57861328125 396.0954284667969 456.6199035644531 386.24371337890625 438.5855407714844 352.2572937011719 C 414.93170166015625 350.86224365234375 429.6262512207031 351.4374084472656 507.06463623046875 351.2686767578125 C 545.9010620117188 350.5208740234375 541.5394897460938 362.1854248046875 446.7560729980469 360.5298156738281" stroke-width="0.0" fill="rgb(158, 128, 99)" opacity="0.99514383"/>
    <path d="M 170.1401824951172 405.49517822265625 C 89.39167785644531 404.6303405761719 84.53399658203125 407.6527099609375 104.32356262207031 406.267822265625 C 86.51947021484375 403.250244140625 22.552366256713867 408.2200622558594 14.559772491455078 402.6938171386719 C 64.14981079101562 397.6303405761719 106.86369323730469 410.8763732910156 77.16190338134766 383.2638854980469 C 101.04810333251953 395.44683837890625 82.0609130859375 374.54827880859375 170.1401824951172 405.49517822265625" stroke-width="0.0" fill="rgb(0, 1, 2)" opacity="0.92609835"/>
    <path d="M 132.92791748046875 408.17938232421875 C 116.39044952392578 418.8569641113281 101.43696594238281 423.5489501953125 91.59764862060547 415.80767822265625 C 75.54266357421875 416.9852294921875 64.50592041015625 407.19671630859375 110.6237564086914 404.85003662109375 C 45.42667007446289 400.9739685058594 62.06251907348633 377.4872741699219 204.6274871826172 401.359619140625 C 62.31785202026367 402.1217041015625 61.85599136352539 398.5848083496094 132.92791748046875 408.17938232421875" stroke-width="0.0" fill="rgb(209, 163, 127)" opacity="0.6091064"/>
    <path d="M 368.7152404785156 366.8451232910156 C 217.26487731933594 378.1503601074219 340.9544677734375 405.6033935546875 307.6498107910156 401.48590087890625 C 168.78871154785156 400.6838684082031 169.29757690429688 407.33349609375 88.38927459716797 365.7938232421875 C 212.2880096435547 366.10992431640625 243.50660705566406 365.4202880859375 257.9279479980469 365.7101135253906 C 262.4601745605469 366.20806884765625 303.47802734375 364.74945068359375 368.7152404785156 366.8451232910156" stroke-width="0.0" fill="rgb(149, 118, 90)" opacity="0.9856358"/>
    <path d="M 553.196533203125 360.4961853027344 C 540.50048828125 372.5974426269531 530.7128295898438 363.5758972167969 539.1630249023438 372.0504150390625 C 550.5396728515625 356.855712890625 579.9791259765625 361.3924865722656 482.1481628417969 360.4902038574219 C 509.3194580078125 345.8797302246094 548.667724609375 354.2578430175781 552.6204833984375 350.438232421875 C 539.8086547851562 358.8672180175781 562.6861572265625 341.9375915527344 553.196533203125 360.4961853027344" stroke-width="0.0" fill="rgb(161, 130, 98)" opacity="1.0"/>
    <path d="M 574.439697265625 401.7196960449219 C 553.0737915039062 401.7603759765625 523.2957153320312 401.4823913574219 510.35260009765625 401.60107421875 C 511.62127685546875 401.0071105957031 489.06622314453125 403.25537109375 477.8118591308594 396.2857666015625 C 472.1075439453125 359.7071533203125 469.5603942871094 366.5271911621094 529.7293701171875 365.59619140625 C 555.3414916992188 366.4931945800781 536.5200805664062 358.7681579589844 574.439697265625 401.7196960449219" stroke-width="0.0" fill="rgb(148, 118, 92)" opacity="0.97179157"/>
    <path d="M 134.0167694091797 297.2692565917969 C 138.59620666503906 296.6078186035156 109.83668518066406 306.0469970703125 102.89720916748047 307.4435729980469 C 87.25464630126953 294.6027526855469 77.5279541015625 287.66668701171875 61.2231559753418 275.9248962402344 C 83.19725036621094 271.4056091308594 111.29985809326172 266.2807312011719 109.5511474609375 267.1964111328125 C 121.68939208984375 268.3050842285156 115.14653778076172 255.0574493408203 134.0167694091797 297.2692565917969" stroke-width="0.0" fill="rgb(226, 225, 220)" opacity="0.9960925"/>
    <path d="M 426.7798156738281 353.79376220703125 C 432.5567932128906 381.6043395996094 444.5551452636719 404.84906005859375 401.62890625 396.087158203125 C 297.5063781738281 414.92071533203125 311.038818359375 408.0666198730469 301.0909118652344 374.8114929199219 C 443.93487548828125 373.4922180175781 454.5562438964844 377.0553894042969 430.9659118652344 370.5103759765625 C 424.6148376464844 351.453857421875 429.2266540527344 361.6133728027344 426.7798156738281 353.79376220703125" stroke-width="0.0" fill="rgb(35, 31, 23)" opacity="0.9335823"/>
    <path d="M 451.3705139160156 372.358154296875 C 469.65093994140625 367.4794616699219 464.83697509765625 373.4625244140625 453.7371520996094 368.04571533203125 C 459.3086853027344 356.87060546875 453.7447814941406 362.1125183105469 294.28741455078125 359.9658508300781 C 430.4895935058594 340.095703125 479.6590881347656 361.1690979003906 459.32611083984375 351.22821044921875 C 442.6382141113281 354.3045349121094 447.2934265136719 363.6652526855469 451.3705139160156 372.358154296875" stroke-width="0.0" fill="rgb(160, 130, 101)" opacity="1.0"/>
    <path d="M 510.10009765625 405.6783752441406 C 483.9365234375 405.7469482421875 460.9354248046875 405.5984802246094 417.0581359863281 405.7733459472656 C 379.548095703125 405.0223083496094 325.95391845703125 407.3382873535156 309.2256774902344 402.40301513671875 C 470.1697692871094 402.09423828125 455.21612548828125 386.1164855957031 442.2435302734375 360.7019958496094 C 466.6819152832031 358.83428955078125 464.0413513183594 385.02825927734375 510.10009765625 405.6783752441406" stroke-width="0.0" fill="rgb(1, 1, 3)" opacity="0.96800756"/>
    <path d="M 511.4571533203125 373.6061706542969 C 504.92291259765625 394.33880615234375 513.0684814453125 403.26031494140625 491.98895263671875 401.3287048339844 C 452.3472595214844 403.6787414550781 477.03399658203125 376.23419189453125 375.2912902832031 366.4424743652344 C 455.3104248046875 365.767333984375 459.5069580078125 368.01739501953125 402.33123779296875 365.7027893066406 C 498.1085205078125 366.2416687011719 508.6853332519531 363.3244934082031 511.4571533203125 373.6061706542969" stroke-width="0.0" fill="rgb(150, 119, 94)" opacity="1.0"/>
    <path d="M 569.570068359375 237.6085662841797 C 498.48443603515625 234.2916717529297 485.64935302734375 238.088623046875 491.00872802734375 236.64154052734375 C 499.03277587890625 237.68023681640625 484.02032470703125 236.04638671875 452.819091796875 242.3954620361328 C 442.0846862792969 194.68075561523438 468.5035095214844 210.14303588867188 494.9527893066406 208.6062774658203 C 517.8582153320312 187.62086486816406 539.9024047851562 185.45639038085938 569.570068359375 237.6085662841797" stroke-width="0.0" fill="rgb(138, 153, 177)" opacity="0.95372015"/>
    <path d="M 27.343671798706055 386.5890197753906 C 119.864013671875 385.95220947265625 128.6645965576172 392.58343505859375 11.80388355255127 390.3580017089844 C 73.18069458007812 371.64013671875 83.56977081298828 374.40118408203125 22.540088653564453 376.86431884765625 C 106.41764831542969 383.03802490234375 125.85871887207031 377.6314697265625 96.67884826660156 375.74493408203125 C 83.82576751708984 379.24444580078125 75.15531921386719 367.9703063964844 27.343671798706055 386.5890197753906" stroke-width="0.0" fill="rgb(2, 2, 0)" opacity="0.9289323"/>
    <path d="M 454.40997314453125 391.0645446777344 C 439.4118347167969 387.84088134765625 432.96441650390625 382.52886962890625 481.9152526855469 401.5893249511719 C 457.01324462890625 401.1153869628906 432.5357971191406 402.1019592285156 288.58746337890625 401.1824035644531 C 362.35028076171875 365.4493713378906 402.9444274902344 382.90020751953125 432.613525390625 384.42333984375 C 426.1861572265625 362.407958984375 448.5122985839844 380.5586242675781 454.40997314453125 391.0645446777344" stroke-width="0.0" fill="rgb(144, 117, 93)" opacity="0.9493831"/>
    <path d="M 158.0716552734375 361.6528625488281 C 155.42384338378906 370.10931396484375 148.1009521484375 377.4014892578125 139.3114776611328 380.032470703125 C 129.9012451171875 377.398681640625 122.58224487304688 370.106201171875 119.93394470214844 361.5986022949219 C 122.58926391601562 351.8941345214844 129.89730834960938 344.59674072265625 139.2312774658203 341.9610595703125 C 148.10549926757812 344.5927734375 155.41006469726562 351.89337158203125 158.0716552734375 361.6528625488281" stroke-width="0.0" fill="rgb(2, 2, 2)" opacity="0.99000454"/>
    <path d="M 239.02084350585938 295.9590148925781 C 237.3205108642578 305.0 230.0 312.32049560546875 220.8499298095703 314.13824462890625 C 210.93280029296875 311.3808898925781 203.54676818847656 304.0814208984375 200.94190979003906 295.9522705078125 C 203.65341186523438 285.9693298339844 210.96998596191406 278.655029296875 220.93121337890625 275.9696350097656 C 229.03443908691406 278.6462097167969 236.3454132080078 285.96856689453125 239.02084350585938 295.9590148925781" stroke-width="0.0" fill="rgb(6, 5, 2)" opacity="0.9900025"/>
    <path d="M 259.1138000488281 340.8087158203125 C 257.32049560546875 350.0 250.0 357.32049560546875 240.0 360.0 C 230.0 357.32049560546875 222.6794891357422 350.0 220.0 340.0 C 222.6794891357422 330.0 230.0 322.67950439453125 239.4187469482422 320.591064453125 C 249.1788787841797 323.4883728027344 256.43695068359375 330.8475646972656 259.1138000488281 340.8087158203125" stroke-width="0.0" fill="rgb(151, 119, 92)" opacity="0.9900555"/>
    <path d="M 273.32562255859375 355.4030456542969 C 269.5646667480469 365.3299560546875 262.42254638671875 372.8533020019531 252.83824157714844 375.8231201171875 C 243.00857543945312 373.3044128417969 235.68240356445312 365.9952392578125 233.00039672851562 355.9993896484375 C 235.6794891357422 345.9999694824219 243.0000457763672 338.67974853515625 253.43666076660156 335.5865783691406 C 263.6820068359375 337.9814147949219 270.8856201171875 345.3509216308594 273.32562255859375 355.4030456542969" stroke-width="0.0" fill="rgb(158, 126, 93)" opacity="0.99002415"/>
    <path d="M 273.0119323730469 306.9010009765625 C 270.3773193359375 315.05987548828125 263.04888916015625 322.3535461425781 253.08370971679688 325.0152282714844 C 244.73858642578125 322.4493408203125 236.99806213378906 315.4894104003906 233.21707153320312 305.26385498046875 C 235.81539916992188 295.171142578125 243.2072296142578 287.93194580078125 253.2723846435547 286.43927001953125 C 263.08209228515625 289.5644836425781 270.3534240722656 296.9458923339844 273.0119323730469 306.9010009765625" stroke-width="0.0" fill="rgb(249, 245, 235)" opacity="0.99000674"/>
    <path d="M 332.0449523925781 345.7455139160156 C 329.46173095703125 354.166015625 322.1373291015625 361.4081726074219 313.3462829589844 364.02178955078125 C 303.8714294433594 361.4013671875 296.53619384765625 354.1607666015625 292.0774230957031 344.0888671875 C 294.8365783691406 335.4375305175781 303.8467102050781 328.5956726074219 313.79705810546875 325.9362487792969 C 322.12579345703125 328.55633544921875 329.4048156738281 335.888916015625 332.0449523925781 345.7455139160156" stroke-width="0.0" fill="rgb(144, 164, 169)" opacity="0.9900041"/>
    <path d="M 95.23164367675781 357.5199890136719 C 92.73905181884766 367.7152404785156 85.77393341064453 374.80328369140625 75.87686157226562 377.05767822265625 C 65.73350524902344 374.9389343261719 58.204856872558594 368.4428405761719 56.844181060791016 358.6971435546875 C 59.5322380065918 348.8435363769531 66.83428955078125 341.4974365234375 76.68657684326172 337.1105041503906 C 86.18177032470703 340.16058349609375 92.90831756591797 348.22296142578125 95.23164367675781 357.5199890136719" stroke-width="0.0" fill="rgb(150, 115, 82)" opacity="0.99001944"/>
    <path d="M 528.0452270507812 340.14471435546875 C 525.3804931640625 350.0836181640625 518.10009765625 357.4205627441406 509.7051086425781 360.0336608886719 C 499.9101257324219 357.4085693359375 492.6336669921875 350.0705871582031 489.9865417480469 341.7298278808594 C 492.64630126953125 331.9577941894531 499.9565124511719 324.6434020996094 509.3612976074219 321.98687744140625 C 518.0931396484375 324.6273193359375 525.4812622070312 331.857666015625 528.0452270507812 340.14471435546875" stroke-width="0.0" fill="rgb(227, 224, 220)" opacity="0.9900013"/>
    <path d="M 251.88812255859375 315.8238220214844 C 249.18118286132812 325.7819519042969 241.6905517578125 332.92315673828125 231.2714385986328 335.2252197265625 C 221.0 332.32049560546875 213.6794891357422 325.0 210.23355102539062 314.45574951171875 C 213.2020721435547 304.7694396972656 220.95584106445312 297.6772766113281 230.37249755859375 295.5753479003906 C 240.22161865234375 298.5016174316406 247.64356994628906 305.7333679199219 251.88812255859375 315.8238220214844" stroke-width="0.0" fill="rgb(2, 36, 65)" opacity="0.99015033"/>
    <path d="M 235.99937438964844 331.00146484375 C 233.3205108642578 341.0 226.0 348.32049560546875 215.99917602539062 351.0003967285156 C 205.98765563964844 348.3262023925781 198.611083984375 341.0307922363281 195.45730590820312 330.5154113769531 C 197.9053955078125 320.1932373046875 205.17189025878906 312.8333435058594 215.36453247070312 311.803955078125 C 225.89356994628906 313.9267578125 233.3079833984375 321.0303039550781 235.99937438964844 331.00146484375" stroke-width="0.0" fill="rgb(151, 116, 86)" opacity="0.9914979"/>
    <path d="M 140.03152465820312 286.14453125 C 137.38221740722656 296.0763854980469 130.0762481689453 303.3818054199219 120.2551498413086 306.0264892578125 C 111.86353302001953 303.4209899902344 104.54825592041016 296.14984130859375 101.93612670898438 286.9037170410156 C 104.52240753173828 277.7891845703125 111.75293731689453 270.4273681640625 120.17230224609375 267.9439697265625 C 130.17027282714844 270.5566711425781 137.49057006835938 277.8084716796875 140.03152465820312 286.14453125" stroke-width="0.0" fill="rgb(148, 150, 149)" opacity="0.9900055"/>
    <path d="M 55.0911750793457 368.6194763183594 C 52.45460510253906 378.1756286621094 45.185577392578125 385.47283935546875 35.78252410888672 388.0335388183594 C 26.558712005615234 385.531005859375 18.519060134887695 378.8698425292969 15.892684936523438 369.0926208496094 C 18.6701717376709 358.99652099609375 26.000411987304688 351.6835021972656 35.59246826171875 349.3704528808594 C 45.242218017578125 352.3929443359375 52.477760314941406 359.7991943359375 55.0911750793457 368.6194763183594" stroke-width="0.0" fill="rgb(138, 150, 181)" opacity="0.99000895"/>
    <path d="M 254.40048217773438 353.3419494628906 C 251.87611389160156 363.4933166503906 244.43075561523438 370.66351318359375 234.3767852783203 372.5568542480469 C 224.68983459472656 369.681640625 217.48681640625 362.2536926269531 214.75881958007812 352.32940673828125 C 216.6794891357422 343.0 224.0 335.67950439453125 234.0 333.0 C 244.0 335.67950439453125 251.3205108642578 343.0 254.40048217773438 353.3419494628906" stroke-width="0.0" fill="rgb(118, 100, 82)" opacity="0.99008536"/>
    <path d="M 408.11529541015625 344.71307373046875 C 405.66973876953125 353.3987121582031 398.3567199707031 360.5763244628906 389.412353515625 363.0638122558594 C 379.6596374511719 360.5520935058594 372.3186340332031 353.399658203125 368.10333251953125 343.4630432128906 C 372.5014343261719 334.87200927734375 379.9029541015625 327.6095275878906 389.7197265625 324.968994140625 C 398.1402282714844 327.5805969238281 405.4802551269531 334.8333435058594 408.11529541015625 344.71307373046875" stroke-width="0.0" fill="rgb(97, 102, 106)" opacity="0.9900081"/>
    <path d="M 238.000732421875 339.0014953613281 C 235.3297882080078 349.01873779296875 228.03062438964844 356.3683166503906 218.53089904785156 358.1817321777344 C 208.08396911621094 355.90875244140625 200.45361328125 349.1557922363281 197.7302703857422 339.12432861328125 C 200.6729736328125 329.0016174316406 208.0087432861328 321.697998046875 218.0154266357422 319.0378723144531 C 227.99996948242188 321.6795959472656 235.3205108642578 329.0 238.000732421875 339.0014953613281" stroke-width="0.0" fill="rgb(152, 118, 87)" opacity="0.99035436"/>
    <path d="M 347.1743469238281 382.6250915527344 C 344.8637390136719 391.61822509765625 337.6505126953125 398.94915771484375 328.1767272949219 401.1658020019531 C 318.4158935546875 398.87841796875 310.90936279296875 391.62957763671875 308.2370910644531 382.64581298828125 C 311.3857727050781 372.6610412597656 318.7265319824219 365.5093994140625 328.0616149902344 362.9613037109375 C 337.2685241699219 365.5117492675781 344.5655517578125 372.6865539550781 347.1743469238281 382.6250915527344" stroke-width="0.0" fill="rgb(155, 126, 98)" opacity="0.99001485"/>
  </g>
</svg>
