<?xml version="1.0" ?>
<svg xmlns="http://www.w3.org/2000/svg" version="1.1" width="600" height="600">
  <defs/>
  <g>
    <path d="M 381.5953063964844 598.8157348632812 C 378.0089416503906 620.7413330078125 361.7813415527344 622.1317138671875 250.38272094726562 620.4568481445312 C 193.87368774414062 613.0028076171875 189.41189575195312 600.929443359375 177.74343872070312 519.6503295898438 C 180.76507568359375 454.2628173828125 204.55577087402344 467.49176025390625 261.1101379394531 488.58819580078125 C 324.4588317871094 483.0391540527344 351.2284851074219 468.2714538574219 381.5953063964844 598.8157348632812" stroke-width="0.0" fill="rgb(136, 156, 183)" opacity="0.99884486"/>
    <path d="M 374.9779052734375 6.781519889831543 C 335.638916015625 84.33201599121094 320.3107604980469 93.89494323730469 235.82717895507812 127.96957397460938 C 193.1649627685547 131.27157592773438 193.7200164794922 124.55353546142578 206.97703552246094 41.71983337402344 C 217.33958435058594 -12.246561050415039 225.15956115722656 -19.87083625793457 288.1329040527344 -21.15386962890625 C 354.4042663574219 -23.355690002441406 368.9287414550781 -21.356338500976562 374.9779052734375 6.781519889831543" stroke-width="0.0" fill="rgb(121, 118, 116)" opacity="0.59201866"/>
    <path d="M 231.1703338623047 565.6521606445312 C 225.86839294433594 644.0308227539062 201.9107208251953 631.0952758789062 148.87818908691406 618.794677734375 C 96.66564178466797 624.2232666015625 68.67788696289062 635.2861938476562 54.11101531982422 604.0740356445312 C 88.84822082519531 540.2772216796875 102.45610046386719 533.2299194335938 190.90402221679688 484.7660217285156 C 219.91607666015625 491.5745849609375 223.89779663085938 506.2680969238281 231.1703338623047 565.6521606445312" stroke-width="0.0" fill="rgb(132, 153, 179)" opacity="1.0"/>
    <path d="M 625.3585815429688 197.06771850585938 C 658.1429443359375 320.25531005859375 685.2576293945312 345.2987365722656 500.342529296875 340.16229248046875 C 394.8070983886719 293.1300354003906 441.09844970703125 220.30325317382812 434.8274230957031 182.98179626464844 C 445.1420593261719 91.802978515625 467.5339050292969 90.9582748413086 596.2556762695312 16.50052833557129 C 623.5690307617188 22.999305725097656 623.3321533203125 40.67409896850586 625.3585815429688 197.06771850585938" stroke-width="0.0" fill="rgb(148, 163, 186)" opacity="0.85790974"/>
    <path d="M 392.9932861328125 389.5561218261719 C 351.9103088378906 553.8585205078125 333.9727783203125 546.6077270507812 286.4460144042969 528.8884887695312 C 215.97447204589844 534.7164916992188 180.6243438720703 556.478515625 165.42352294921875 398.9303283691406 C 136.57015991210938 306.8243103027344 114.50950622558594 252.278564453125 307.9112548828125 250.9249725341797 C 422.87579345703125 334.3939514160156 428.48443603515625 341.63507080078125 392.9932861328125 389.5561218261719" stroke-width="0.0" fill="rgb(95, 93, 94)" opacity="0.94772446"/>
    <path d="M 497.60760498046875 237.42910766601562 C 528.7183227539062 303.1935729980469 529.2135009765625 315.70977783203125 327.7793273925781 343.8861389160156 C 262.8824768066406 321.66705322265625 278.0852355957031 243.58763122558594 221.49876403808594 154.98240661621094 C 298.3430480957031 92.70747375488281 349.70306396484375 116.21385955810547 424.2582702636719 88.63081359863281 C 449.8087463378906 90.05828094482422 463.0774230957031 96.75373077392578 497.60760498046875 237.42910766601562" stroke-width="0.0" fill="rgb(248, 243, 236)" opacity="0.8871789"/>
    <path d="M 436.9033508300781 90.8341064453125 C 415.16082763671875 146.33349609375 400.4900817871094 157.01266479492188 339.4385681152344 212.6048583984375 C 310.24639892578125 174.71946716308594 292.9671325683594 166.0718994140625 278.4632568359375 154.50872802734375 C 335.2362060546875 86.8739242553711 332.7317199707031 60.8447151184082 387.8003234863281 41.90244674682617 C 416.034912109375 51.382301330566406 428.2571716308594 57.926124572753906 436.9033508300781 90.8341064453125" stroke-width="0.0" fill="rgb(8, 7, 9)" opacity="0.99873555"/>
    <path d="M 236.7296142578125 364.0365295410156 C 194.7328338623047 544.5568237304688 164.0190887451172 528.0891723632812 82.54785919189453 522.2360229492188 C 9.282514572143555 549.332763671875 -12.584136009216309 567.5325927734375 -30.787906646728516 340.15283203125 C -74.61600494384766 273.9187316894531 -89.44601440429688 258.8995666503906 183.91152954101562 210.86618041992188 C 290.1653747558594 231.9084014892578 255.95782470703125 284.3548889160156 236.7296142578125 364.0365295410156" stroke-width="0.0" fill="rgb(245, 241, 232)" opacity="0.9390088"/>
    <path d="M 229.10964965820312 165.72137451171875 C 229.7261199951172 186.6437225341797 246.58279418945312 218.77406311035156 199.9325408935547 305.4781799316406 C -59.90730285644531 287.70758056640625 -58.03678512573242 279.4642639160156 -36.45278549194336 233.93560791015625 C 59.394283294677734 37.0152587890625 95.99425506591797 44.57863998413086 148.43310546875 11.628021240234375 C 161.08602905273438 16.713144302368164 156.59701538085938 34.501953125 229.10964965820312 165.72137451171875" stroke-width="0.0" fill="rgb(79, 78, 78)" opacity="0.9166794"/>
    <path d="M 168.59657287597656 3.7360570430755615 C 136.74185180664062 63.150123596191406 117.8746337890625 65.28897857666016 2.3868489265441895 164.87203979492188 C -15.515074729919434 159.2830810546875 -19.99307632446289 145.05857849121094 -19.9896297454834 50.24192428588867 C -10.15634822845459 -47.66112518310547 14.742843627929688 -33.53483581542969 89.92446899414062 -21.33538055419922 C 150.5912628173828 -20.940427780151367 163.8882293701172 -17.951576232910156 168.59657287597656 3.7360570430755615" stroke-width="0.0" fill="rgb(139, 151, 178)" opacity="0.9986531"/>
    <path d="M 205.58770751953125 482.9692077636719 C 165.26145935058594 565.3649291992188 144.73680114746094 569.4022827148438 43.8506965637207 620.0747680664062 C 0.23427404463291168 625.3421630859375 -13.263816833496094 623.44775390625 -19.553319931030273 561.8818969726562 C -11.818467140197754 432.6003723144531 15.4846773147583 456.0555725097656 95.25296783447266 477.8887939453125 C 165.51075744628906 464.30120849609375 193.82272338867188 449.1127014160156 205.58770751953125 482.9692077636719" stroke-width="0.0" fill="rgb(140, 152, 178)" opacity="1.0"/>
    <path d="M 616.112060546875 12.455808639526367 C 568.0265502929688 131.77828979492188 528.038330078125 126.2564468383789 456.6624755859375 152.93849182128906 C 419.3094787597656 147.86114501953125 411.4715270996094 136.0873260498047 405.8118591308594 102.29656219482422 C 428.31988525390625 34.04567337036133 436.9924621582031 12.063013076782227 537.3050537109375 -20.392671585083008 C 586.9144287109375 -28.331745147705078 607.3699951171875 -33.94869613647461 616.112060546875 12.455808639526367" stroke-width="0.0" fill="rgb(139, 151, 179)" opacity="1.0"/>
    <path d="M 618.7647705078125 375.7801818847656 C 615.0821533203125 682.791015625 603.6884765625 678.2999267578125 524.1715698242188 634.5664672851562 C 312.8011474609375 612.6275634765625 316.8266296386719 597.3631591796875 318.2971496582031 505.8310546875 C 297.04864501953125 351.29937744140625 262.27374267578125 324.9597473144531 484.20306396484375 305.85687255859375 C 598.6513671875 302.8262023925781 611.3820190429688 306.2407531738281 618.7647705078125 375.7801818847656" stroke-width="0.0" fill="rgb(143, 154, 182)" opacity="0.8116467"/>
    <path d="M 228.60972595214844 58.51276397705078 C 174.26588439941406 154.98443603515625 230.1770477294922 105.02591705322266 278.8883972167969 306.1922302246094 C 192.6988525390625 114.76966094970703 187.35821533203125 73.62390899658203 133.9512481689453 38.86772155761719 C 127.56526184082031 -4.961718559265137 132.74746704101562 -15.19299602508545 198.51181030273438 -19.415685653686523 C 254.2335662841797 -15.853257179260254 259.8013000488281 -5.797404766082764 228.60972595214844 58.51276397705078" stroke-width="0.0" fill="rgb(1, 0, 1)" opacity="0.96207374"/>
    <path d="M 391.8763122558594 52.21843719482422 C 355.7777099609375 121.46832275390625 364.7062072753906 156.18502807617188 297.537109375 165.96400451660156 C 268.66387939453125 152.38336181640625 253.5451202392578 137.58724975585938 200.5763397216797 123.09835815429688 C 285.48199462890625 66.55471801757812 294.7540588378906 52.14041519165039 362.77703857421875 11.117010116577148 C 388.5960693359375 18.816804885864258 393.6596374511719 32.1784553527832 391.8763122558594 52.21843719482422" stroke-width="0.0" fill="rgb(16, 19, 20)" opacity="0.97853136"/>
    <path d="M 515.8945922851562 -6.534945487976074 C 484.5610656738281 68.96321868896484 469.86529541015625 82.5788803100586 413.6010437011719 99.97840118408203 C 376.56524658203125 90.25553131103516 363.55596923828125 82.88521575927734 341.63226318359375 16.723337173461914 C 347.74078369140625 -35.10380172729492 366.0718688964844 -29.134952545166016 418.6257629394531 -20.642261505126953 C 478.49725341796875 -22.157798767089844 497.5873107910156 -23.795883178710938 515.8945922851562 -6.534945487976074" stroke-width="0.0" fill="rgb(138, 153, 181)" opacity="1.0"/>
    <path d="M 154.84542846679688 78.5073471069336 C 151.75198364257812 89.24396514892578 144.1094207763672 96.37281799316406 133.6829833984375 99.32791900634766 C 123.38152313232422 96.91458129882812 115.94490051269531 89.66651153564453 113.13257598876953 79.01546478271484 C 115.94053649902344 68.3111801147461 123.31350708007812 60.945499420166016 133.70578002929688 58.14330291748047 C 144.69325256347656 60.95061492919922 152.0682830810547 68.2995834350586 154.84542846679688 78.5073471069336" stroke-width="0.0" fill="rgb(141, 156, 179)" opacity="1.0"/>
    <path d="M 350.9660949707031 122.11072540283203 C 348.2519226074219 132.91624450683594 340.91607666015625 140.2515106201172 329.7726135253906 142.96743774414062 C 319.0845642089844 140.2517547607422 311.7474060058594 132.91578674316406 309.034423828125 122.5624008178711 C 311.7557678222656 111.0907211303711 319.088623046875 103.75078582763672 329.7591857910156 101.0351791381836 C 340.9091491699219 103.75585174560547 348.2510681152344 111.08777618408203 350.9660949707031 122.11072540283203" stroke-width="0.0" fill="rgb(141, 156, 180)" opacity="1.0"/>
    <path d="M 110.85490417480469 146.03042602539062 C 108.0634994506836 156.7055206298828 100.71039581298828 164.07598876953125 90.08792877197266 166.86282348632812 C 79.28616333007812 164.07183837890625 71.93460845947266 156.71168518066406 69.32707214355469 146.57000732421875 C 72.6319351196289 135.89854431152344 79.763427734375 128.2523193359375 90.37447357177734 125.1605453491211 C 100.68073272705078 127.95610046386719 108.04912567138672 135.3172607421875 110.85490417480469 146.03042602539062" stroke-width="0.0" fill="rgb(141, 156, 180)" opacity="1.0"/>
    <path d="M 162.86279296875 101.01813507080078 C 160.0662384033203 111.69947814941406 152.69837951660156 119.06398010253906 142.18154907226562 121.86761474609375 C 131.30039978027344 119.06365966796875 123.93933868408203 111.69828796386719 121.16793060302734 101.44062042236328 C 124.24706268310547 90.75540924072266 131.8903350830078 83.62709045410156 142.3014678955078 80.68976593017578 C 152.6082000732422 83.09973907470703 160.05039978027344 90.340576171875 162.86279296875 101.01813507080078" stroke-width="0.0" fill="rgb(141, 155, 179)" opacity="1.0"/>
    <path d="M 438.90960693359375 169.9593505859375 C 436.1552734375 180.80551147460938 428.80816650390625 188.1618194580078 417.8736877441406 190.92172241210938 C 407.1859130859375 188.1671142578125 399.8371887207031 180.81228637695312 397.083984375 170.00440979003906 C 399.8325500488281 159.1800079345703 407.17913818359375 151.83045959472656 417.89013671875 149.0742950439453 C 428.8140869140625 151.8347625732422 436.15789794921875 159.18887329101562 438.90960693359375 169.9593505859375" stroke-width="0.0" fill="rgb(136, 151, 174)" opacity="1.0"/>
    <path d="M 63.72329330444336 156.5026092529297 C 60.33004379272461 167.0243377685547 53.08152770996094 174.51254272460938 42.40381622314453 177.81565856933594 C 32.28953552246094 175.0714111328125 24.922319412231445 167.7130126953125 22.13677406311035 157.15721130371094 C 24.935380935668945 146.29110717773438 32.28647232055664 138.92356872558594 42.44369125366211 136.18630981445312 C 53.21039581298828 139.40016174316406 60.795013427734375 146.70706176757812 63.72329330444336 156.5026092529297" stroke-width="0.0" fill="rgb(141, 156, 179)" opacity="1.0"/>
    <path d="M 87.85723114013672 176.158203125 C 85.07833862304688 186.71075439453125 77.7040786743164 194.06210327148438 67.06878662109375 196.86280822753906 C 56.29956817626953 194.06263732910156 48.936161041259766 186.70094299316406 46.23676300048828 176.62338256835938 C 49.671730041503906 165.97901916503906 56.920902252197266 158.48641967773438 67.55441284179688 155.2006378173828 C 77.6884994506836 157.94297790527344 85.05237579345703 165.3133087158203 87.85723114013672 176.158203125" stroke-width="0.0" fill="rgb(140, 155, 179)" opacity="1.0"/>
    <path d="M 300.8369140625 516.7794189453125 C 297.9966735839844 527.5814819335938 290.5033874511719 534.7652587890625 280.02484130859375 537.277587890625 C 269.5078430175781 534.7457885742188 262.0009460449219 527.5778198242188 259.1533508300781 516.9197998046875 C 261.9599304199219 506.32562255859375 269.3240661621094 498.9561462402344 279.8143310546875 496.1563720703125 C 290.6778869628906 498.9644775390625 298.0531311035156 506.3153076171875 300.8369140625 516.7794189453125" stroke-width="0.0" fill="rgb(141, 156, 179)" opacity="1.0"/>
    <path d="M 395.96990966796875 126.16683197021484 C 393.256103515625 136.92245483398438 385.92376708984375 144.2591552734375 375.3458557128906 146.969970703125 C 364.07366943359375 144.2592315673828 356.7398986816406 136.92672729492188 354.03326416015625 126.64583587646484 C 356.7519226074219 115.0855484008789 364.0830078125 107.74590301513672 375.40936279296875 105.02759552001953 C 385.9233093261719 107.74111938476562 393.2563781738281 115.07775115966797 395.96990966796875 126.16683197021484" stroke-width="0.0" fill="rgb(141, 156, 180)" opacity="1.0"/>
    <path d="M 259.9661865234375 108.71745300292969 C 257.2437744140625 119.90518951416016 249.90501403808594 127.2431869506836 239.88900756835938 129.39321899414062 C 228.16839599609375 126.99436950683594 220.7632598876953 119.88230895996094 218.07737731933594 109.85567474365234 C 221.35952758789062 98.72216796875 228.71926879882812 91.35094451904297 239.7369842529297 88.18531799316406 C 249.88946533203125 90.78857421875 257.24676513671875 98.09705352783203 259.9661865234375 108.71745300292969" stroke-width="0.0" fill="rgb(137, 156, 179)" opacity="1.0"/>
    <path d="M 79.8759536743164 248.2270965576172 C 77.09960174560547 258.7434387207031 69.7470703125 266.1086730957031 59.322166442871094 268.8827819824219 C 48.303306579589844 266.0672912597656 40.94801712036133 258.6905822753906 38.12921142578125 247.6667938232422 C 40.90869903564453 237.2779998779297 48.28419494628906 229.92404174804688 58.72913360595703 227.14111328125 C 69.67676544189453 229.9640655517578 77.05695343017578 237.31494140625 79.8759536743164 248.2270965576172" stroke-width="0.0" fill="rgb(140, 155, 180)" opacity="1.0"/>
    <path d="M 378.9689025878906 163.50257873535156 C 376.25714111328125 174.92471313476562 368.92626953125 182.2607879638672 357.7628173828125 184.9692840576172 C 347.0713195800781 182.26170349121094 339.7370300292969 174.92922973632812 337.02728271484375 163.88272094726562 C 339.7386474609375 153.075439453125 347.0771179199219 145.74234008789062 358.2869567871094 143.02777099609375 C 368.9216003417969 145.7418975830078 376.2573547363281 153.07872009277344 378.9689025878906 163.50257873535156" stroke-width="0.0" fill="rgb(141, 156, 179)" opacity="1.0"/>
    <path d="M 85.66317749023438 131.4430694580078 C 82.36132049560547 142.089599609375 75.22029113769531 149.73036193847656 65.14885711669922 152.81529235839844 C 54.76803970336914 149.67691040039062 47.26045608520508 142.25990295410156 44.21131896972656 132.07093811035156 C 47.35591506958008 121.84596252441406 54.94845199584961 114.6574478149414 65.65860748291016 111.2048568725586 C 75.71424865722656 113.91676330566406 83.05451202392578 121.29663848876953 85.66317749023438 131.4430694580078" stroke-width="0.0" fill="rgb(141, 155, 179)" opacity="1.0"/>
    <path d="M 120.873046875 102.78395080566406 C 118.04537963867188 113.67405700683594 110.67060089111328 121.03646850585938 100.01283264160156 123.84944915771484 C 89.30481719970703 121.04955291748047 81.93108367919922 113.70285034179688 79.19652557373047 103.54816436767578 C 82.46852111816406 92.9124984741211 89.9761962890625 85.66934967041016 100.61286163330078 82.25091552734375 C 110.707275390625 84.93579864501953 118.08340454101562 92.28504943847656 120.873046875 102.78395080566406" stroke-width="0.0" fill="rgb(141, 156, 180)" opacity="1.0"/>
    <path d="M 326.9689636230469 67.37206268310547 C 324.2486877441406 78.9126205444336 316.9126892089844 86.24878692626953 306.6236267089844 88.961669921875 C 295.0968322753906 86.23670196533203 287.7496643066406 78.90908813476562 285.0401916503906 68.81936645507812 C 287.8753662109375 57.32761001586914 295.474609375 50.232303619384766 306.863525390625 47.071617126464844 C 316.9102783203125 49.754520416259766 324.2546081542969 57.085670471191406 326.9689636230469 67.37206268310547" stroke-width="0.0" fill="rgb(141, 155, 179)" opacity="1.0"/>
    <path d="M 51.85836410522461 208.9951934814453 C 49.07359313964844 219.71316528320312 41.71601867675781 227.08103942871094 31.101242065429688 229.87001037597656 C 20.298721313476562 227.067626953125 12.936361312866211 219.69964599609375 10.125385284423828 208.9126434326172 C 12.93727970123291 198.3097686767578 20.31324005126953 190.9461212158203 30.902080535888672 188.14654541015625 C 41.690128326416016 190.9513397216797 49.059261322021484 198.305908203125 51.85836410522461 208.9951934814453" stroke-width="0.0" fill="rgb(141, 156, 179)" opacity="1.0"/>
  </g>
</svg>
