<?xml version="1.0" ?>
<svg xmlns="http://www.w3.org/2000/svg" version="1.1" width="600" height="600">
  <defs/>
  <g>
    <path d="M 381.6178283691406 598.8502197265625 C 378.0089416503906 620.7413330078125 361.7813415527344 622.1317138671875 250.38272094726562 620.4568481445312 C 193.87368774414062 613.0028076171875 189.41189575195312 600.929443359375 177.7311248779297 519.6641845703125 C 180.6199188232422 454.558837890625 203.8911895751953 468.9989013671875 259.9026794433594 494.63958740234375 C 324.63995361328125 484.9391784667969 351.31243896484375 468.7568359375 381.6178283691406 598.8502197265625" stroke-width="0.0" fill="rgb(138, 153, 176)" opacity="0.9978122"/>
    <path d="M 372.7726745605469 4.963856220245361 C 332.5865478515625 81.31745910644531 317.66375732421875 90.48920440673828 237.28863525390625 131.89471435546875 C 186.84730529785156 124.24422454833984 186.97781372070312 125.0267333984375 212.20492553710938 44.05376434326172 C 223.0545654296875 -10.22999095916748 227.32261657714844 -19.13711929321289 288.4337463378906 -21.049591064453125 C 354.4042663574219 -23.355690002441406 368.9287414550781 -21.356338500976562 372.7726745605469 4.963856220245361" stroke-width="0.0" fill="rgb(94, 114, 146)" opacity="0.7239473"/>
    <path d="M 230.48097229003906 565.7616577148438 C 225.86839294433594 644.0308227539062 201.9107208251953 631.0952758789062 148.8784637451172 618.7975463867188 C 96.66534423828125 624.2203979492188 68.68215942382812 635.284423828125 54.10673141479492 604.0758056640625 C 88.84822082519531 540.2772216796875 102.45610046386719 533.2299194335938 190.99485778808594 484.66204833984375 C 219.91796875 491.4527893066406 223.4206085205078 506.29083251953125 230.48097229003906 565.7616577148438" stroke-width="0.0" fill="rgb(138, 153, 177)" opacity="0.94534886"/>
    <path d="M 625.3577270507812 197.06631469726562 C 658.143798828125 320.2041015625 685.2453002929688 344.98699951171875 523.385009765625 334.7358093261719 C 424.6663818359375 282.789794921875 444.9287109375 224.12351989746094 402.64263916015625 193.30877685546875 C 441.3447570800781 91.10193634033203 467.2256774902344 90.90636444091797 596.2474365234375 16.498958587646484 C 623.5690307617188 22.999305725097656 623.3321533203125 40.67409896850586 625.3577270507812 197.06631469726562" stroke-width="0.0" fill="rgb(124, 137, 159)" opacity="0.97912174"/>
    <path d="M 401.3838806152344 384.6821594238281 C 350.670166015625 552.3583984375 334.8805236816406 542.6303100585938 288.9240417480469 518.2012939453125 C 217.57516479492188 525.18701171875 183.24462890625 550.787841796875 167.14649963378906 397.4316101074219 C 137.15846252441406 309.78753662109375 117.00183868408203 264.92962646484375 322.2870788574219 258.77044677734375 C 444.2875671386719 318.65301513671875 446.177978515625 329.7204284667969 401.3838806152344 384.6821594238281" stroke-width="0.0" fill="rgb(139, 101, 80)" opacity="0.93715376"/>
    <path d="M 529.5952758789062 223.49107360839844 C 549.18408203125 295.5962219238281 532.8572998046875 311.8607177734375 327.840087890625 341.35614013671875 C 258.4126892089844 323.0066223144531 266.6665954589844 252.1232452392578 186.58935546875 148.9022979736328 C 289.9443664550781 80.06062316894531 348.6246032714844 113.7926254272461 424.1629943847656 87.73480987548828 C 450.62542724609375 89.80486297607422 466.4372253417969 95.55538940429688 529.5952758789062 223.49107360839844" stroke-width="0.0" fill="rgb(230, 229, 221)" opacity="0.766824"/>
    <path d="M 430.67364501953125 85.11732482910156 C 407.3382568359375 138.85177612304688 399.0797119140625 154.0335693359375 366.1298828125 254.30943298339844 C 320.75531005859375 172.53382873535156 285.60888671875 169.95176696777344 284.18194580078125 151.0255584716797 C 342.3506164550781 93.34075927734375 339.85650634765625 67.46660614013672 392.21380615234375 46.0396842956543 C 416.034912109375 51.382301330566406 428.2571716308594 57.926124572753906 430.67364501953125 85.11732482910156" stroke-width="0.0" fill="rgb(1, 2, 5)" opacity="0.9702766"/>
    <path d="M 213.69287109375 358.4123229980469 C 179.91673278808594 539.0933837890625 160.10633850097656 526.9485473632812 82.28123474121094 522.165283203125 C 9.283112525939941 549.3341674804688 -12.584725379943848 567.5325927734375 -30.78120231628418 340.1593933105469 C -74.6508560180664 273.64031982421875 -89.9544906616211 256.1425476074219 170.81532287597656 215.58111572265625 C 275.76483154296875 241.22674560546875 245.2494659423828 290.4285888671875 213.69287109375 358.4123229980469" stroke-width="0.0" fill="rgb(136, 141, 158)" opacity="0.9140604"/>
    <path d="M 230.5605926513672 170.11151123046875 C 236.95523071289062 179.46627807617188 242.93460083007812 219.20523071289062 203.2683868408203 302.7013244628906 C -55.17134475708008 271.4417419433594 -56.89380645751953 272.18267822265625 -38.30768966674805 232.07217407226562 C 58.088497161865234 36.1593017578125 95.46041870117188 43.95809555053711 145.96957397460938 12.255218505859375 C 154.60963439941406 20.491716384887695 157.9399871826172 32.783172607421875 230.5605926513672 170.11151123046875" stroke-width="0.0" fill="rgb(15, 16, 17)" opacity="1.0"/>
    <path d="M 164.4174041748047 2.9877426624298096 C 139.7751007080078 66.75112915039062 122.0682601928711 69.59215545654297 7.620858192443848 172.19039916992188 C -15.808319091796875 159.783935546875 -20.017812728881836 145.10009765625 -19.99036407470703 50.24314498901367 C -10.15634822845459 -47.66112518310547 14.742843627929688 -33.53483581542969 89.92432403564453 -21.33534812927246 C 150.58071899414062 -20.937973022460938 163.6486358642578 -17.89592933654785 164.4174041748047 2.9877426624298096" stroke-width="0.0" fill="rgb(139, 153, 177)" opacity="0.99956805"/>
    <path d="M 208.53880310058594 483.16375732421875 C 165.64154052734375 565.57275390625 144.77008056640625 569.4132080078125 43.85131072998047 620.0747680664062 C 0.23427404463291168 625.3421630859375 -13.263816833496094 623.44775390625 -19.553319931030273 561.8818969726562 C -11.818467140197754 432.6003723144531 15.4846773147583 456.0555725097656 95.25309753417969 477.778564453125 C 165.53561401367188 463.8981018066406 194.06033325195312 448.4869689941406 208.53880310058594 483.16375732421875" stroke-width="0.0" fill="rgb(137, 152, 176)" opacity="0.99450517"/>
    <path d="M 616.12890625 12.496725082397461 C 568.4684448242188 132.54588317871094 531.3887329101562 132.15794372558594 458.2867431640625 186.57688903808594 C 408.188720703125 161.08721923828125 402.7291259765625 145.69412231445312 398.9626770019531 107.00484466552734 C 427.98248291015625 33.92292404174805 436.9875183105469 12.061237335205078 537.3050537109375 -20.392940521240234 C 586.9144287109375 -28.33148193359375 607.3699951171875 -33.94865798950195 616.12890625 12.496725082397461" stroke-width="0.0" fill="rgb(138, 153, 177)" opacity="1.0"/>
    <path d="M 618.7647705078125 375.77886962890625 C 615.0821533203125 682.791015625 603.6884765625 678.2999267578125 524.1744384765625 634.5664672851562 C 312.78472900390625 612.6430053710938 315.96429443359375 597.4402465820312 341.09576416015625 501.2195739746094 C 319.0715637207031 354.4891052246094 273.44708251953125 338.468017578125 494.1175842285156 331.898681640625 C 598.5341796875 301.7146301269531 611.3718872070312 306.153076171875 618.7647705078125 375.77886962890625" stroke-width="0.0" fill="rgb(132, 133, 145)" opacity="0.8029235"/>
    <path d="M 203.9417266845703 24.044889450073242 C 156.59835815429688 152.008056640625 247.34848022460938 109.19324493408203 280.83892822265625 331.4981994628906 C 207.32730102539062 99.78215789794922 163.32135009765625 85.01528930664062 137.13609313964844 27.7694091796875 C 133.40647888183594 -8.543262481689453 134.6156768798828 -16.023996353149414 198.10000610351562 -20.02104377746582 C 250.3051300048828 -19.45880699157715 250.92901611328125 -14.34459400177002 203.9417266845703 24.044889450073242" stroke-width="0.0" fill="rgb(1, 1, 1)" opacity="0.9590456"/>
    <path d="M 393.921142578125 53.36368179321289 C 358.40582275390625 123.46073150634766 367.1106262207031 158.1491241455078 297.290283203125 169.2075958251953 C 273.38397216796875 151.76287841796875 251.3911895751953 137.1868896484375 195.42788696289062 121.1243667602539 C 293.44921875 75.13272094726562 304.19488525390625 62.4327278137207 372.23272705078125 21.709552764892578 C 388.5960693359375 18.816804885864258 393.6596374511719 32.1784553527832 393.921142578125 53.36368179321289" stroke-width="0.0" fill="rgb(4, 6, 7)" opacity="0.9812973"/>
    <path d="M 515.904052734375 -6.545160293579102 C 484.5610656738281 68.96321868896484 469.8648376464844 82.57697296142578 406.9967956542969 106.50921630859375 C 366.69207763671875 99.0760269165039 353.8131103515625 92.64881896972656 334.3023986816406 23.624788284301758 C 347.7348937988281 -35.10468673706055 366.0718688964844 -29.13506507873535 418.625732421875 -20.648160934448242 C 478.4972839355469 -22.151899337768555 497.5777587890625 -23.78566551208496 515.904052734375 -6.545160293579102" stroke-width="0.0" fill="rgb(138, 153, 177)" opacity="0.9995873"/>
    <path d="M 252.33255004882812 23.713247299194336 C 189.17263793945312 118.3005599975586 151.44351196289062 101.62334442138672 131.63198852539062 102.1509780883789 C 117.82060241699219 102.23458862304688 108.40756225585938 96.03956604003906 98.21372985839844 79.3018569946289 C 109.865234375 63.14069366455078 102.17383575439453 37.896400451660156 152.02706909179688 -21.555156707763672 C 233.63182067871094 -27.99073028564453 247.61810302734375 -22.852458953857422 252.33255004882812 23.713247299194336" stroke-width="0.0" fill="rgb(138, 153, 177)" opacity="1.0"/>
    <path d="M 371.8729553222656 105.0890884399414 C 364.8540954589844 149.2876739501953 368.86328125 162.78187561035156 365.9313049316406 239.0 C 314.2726135253906 155.16575622558594 277.9770202636719 157.8408966064453 264.8630065917969 129.40631103515625 C 274.2144775390625 81.4059829711914 289.8072509765625 78.89974975585938 352.9781188964844 61.73092269897461 C 378.0524597167969 62.20807647705078 379.80889892578125 74.69132232666016 371.8729553222656 105.0890884399414" stroke-width="0.0" fill="rgb(138, 155, 181)" opacity="0.9747459"/>
    <path d="M 139.9762725830078 152.7989959716797 C 149.06040954589844 208.7500762939453 137.24725341796875 197.7528839111328 133.12591552734375 182.4879150390625 C 74.62850189208984 169.68206787109375 66.56401062011719 161.3555450439453 62.22079086303711 148.59088134765625 C 74.44380950927734 136.69749450683594 78.69432067871094 125.77141571044922 95.21195983886719 111.79491424560547 C 115.78951263427734 114.71134948730469 130.89915466308594 117.79362487792969 139.9762725830078 152.7989959716797" stroke-width="0.0" fill="rgb(144, 158, 188)" opacity="0.9282275"/>
    <path d="M 193.68609619140625 74.48490905761719 C 214.67437744140625 198.9206085205078 205.6719970703125 167.6351776123047 188.66648864746094 165.678466796875 C 110.0167236328125 140.93600463867188 95.94537353515625 179.1875457763672 108.54045104980469 116.92572021484375 C 120.64619445800781 88.7503890991211 131.03280639648438 83.19815063476562 153.8022918701172 69.178466796875 C 188.31390380859375 50.11725616455078 211.8961181640625 44.957733154296875 193.68609619140625 74.48490905761719" stroke-width="0.0" fill="rgb(136, 152, 180)" opacity="0.96852165"/>
    <path d="M 452.70343017578125 255.03892517089844 C 449.5257568359375 192.70668029785156 455.8122253417969 235.28036499023438 413.8725280761719 240.63352966308594 C 340.8630676269531 273.5615234375 374.36993408203125 269.4821472167969 372.41253662109375 181.23487854003906 C 379.3042907714844 138.9736785888672 385.9814453125 129.11129760742188 376.90753173828125 165.4847869873047 C 414.7200622558594 186.4091339111328 410.63543701171875 174.61668395996094 452.70343017578125 255.03892517089844" stroke-width="0.0" fill="rgb(2, 3, 5)" opacity="0.959151"/>
    <path d="M 70.91991424560547 154.7821044921875 C 58.70252990722656 165.8070831298828 53.544960021972656 176.1688995361328 31.953533172607422 199.11578369140625 C 12.357560157775879 195.62063598632812 -0.7543062567710876 190.283203125 -8.118197441101074 173.3120574951172 C 15.51677417755127 138.8548126220703 25.54099464416504 131.82022094726562 38.215675354003906 126.71255493164062 C 54.18008804321289 137.796630859375 63.17615509033203 145.42242431640625 70.91991424560547 154.7821044921875" stroke-width="0.0" fill="rgb(139, 153, 177)" opacity="0.9812"/>
    <path d="M 143.93028259277344 194.6969451904297 C 103.65665435791016 193.4494171142578 85.8953628540039 197.8378143310547 50.97806930541992 202.52391052246094 C 42.92687225341797 210.66650390625 34.71485137939453 200.2965545654297 31.077594757080078 187.1024627685547 C 50.438350677490234 166.53890991210938 57.266780853271484 158.073486328125 70.1994400024414 143.82640075683594 C 82.12593078613281 153.8070526123047 101.74930572509766 150.46958923339844 143.93028259277344 194.6969451904297" stroke-width="0.0" fill="rgb(136, 152, 178)" opacity="0.98581326"/>
    <path d="M 356.2052001953125 518.4827270507812 C 325.61328125 551.7222900390625 305.13482666015625 548.0770263671875 280.9852600097656 547.02001953125 C 257.099609375 544.0025024414062 232.57174682617188 551.0945434570312 165.95196533203125 478.6380310058594 C 170.9830322265625 428.2799987792969 193.55941772460938 446.4785461425781 311.6662902832031 445.0724792480469 C 355.13006591796875 436.23907470703125 348.0551452636719 461.4539489746094 356.2052001953125 518.4827270507812" stroke-width="0.0" fill="rgb(140, 153, 176)" opacity="0.9776851"/>
    <path d="M 516.6138916015625 178.327880859375 C 519.5296630859375 244.9137725830078 460.2771301269531 203.84854125976562 383.99334716796875 247.7480926513672 C 350.2773742675781 156.85731506347656 341.47015380859375 151.16873168945312 335.11529541015625 121.2562026977539 C 332.8450622558594 84.73994445800781 333.3263244628906 69.71766662597656 369.29827880859375 66.7013168334961 C 413.16510009765625 80.13130950927734 421.2099914550781 87.75955200195312 516.6138916015625 178.327880859375" stroke-width="0.0" fill="rgb(138, 153, 177)" opacity="0.9880308"/>
    <path d="M 301.8241882324219 124.86707305908203 C 299.34344482421875 167.74298095703125 298.23651123046875 159.5225067138672 275.1715393066406 145.5919952392578 C 224.37338256835938 117.72982788085938 204.30271911621094 119.78733825683594 173.79103088378906 108.03922271728516 C 191.2410430908203 69.41437530517578 211.1088104248047 71.75016021728516 255.1472930908203 67.11164093017578 C 276.89886474609375 66.10800170898438 288.28607177734375 70.63996124267578 301.8241882324219 124.86707305908203" stroke-width="0.0" fill="rgb(137, 153, 180)" opacity="0.9617905"/>
    <path d="M 114.18680572509766 260.4962463378906 C 99.59135437011719 262.00054931640625 83.83421325683594 264.3262023925781 51.869625091552734 270.83892822265625 C 60.05327224731445 388.3707275390625 18.86086654663086 369.6280822753906 -34.13450622558594 318.34228515625 C 16.22307586669922 217.72909545898438 31.23520278930664 211.9817352294922 67.1952133178711 194.68048095703125 C 79.4661636352539 215.91773986816406 89.39804077148438 224.95687866210938 114.18680572509766 260.4962463378906" stroke-width="0.0" fill="rgb(138, 152, 178)" opacity="0.9807494"/>
    <path d="M 404.4826965332031 181.4213104248047 C 404.3514404296875 202.16799926757812 418.23040771484375 247.03814697265625 305.0394287109375 313.9332580566406 C 413.869873046875 211.53347778320312 353.24676513671875 283.19586181640625 367.4824523925781 194.10592651367188 C 324.145263671875 128.6116943359375 332.6607666015625 130.49761962890625 350.4942932128906 132.01480102539062 C 378.5765686035156 137.73031616210938 389.3951110839844 142.9357452392578 404.4826965332031 181.4213104248047" stroke-width="0.0" fill="rgb(0, 0, 2)" opacity="0.89727795"/>
    <path d="M 94.19125366210938 125.7813720703125 C 81.87747192382812 142.0908966064453 75.70185852050781 151.65281677246094 68.35564422607422 161.8242645263672 C 53.762420654296875 151.20404052734375 44.321311950683594 143.84423828125 35.699703216552734 133.96258544921875 C 45.52315139770508 120.81396484375 54.44786071777344 114.19599914550781 73.84329223632812 100.01761627197266 C 85.09242248535156 103.35091400146484 92.43379974365234 112.44322204589844 94.19125366210938 125.7813720703125" stroke-width="0.0" fill="rgb(138, 153, 176)" opacity="1.0"/>
    <path d="M 133.11158752441406 108.2077865600586 C 133.7095489501953 129.32919311523438 127.12118530273438 139.02346801757812 108.2228775024414 140.42266845703125 C 80.47465515136719 130.6555938720703 71.7806167602539 122.91322326660156 66.0954360961914 110.91064453125 C 80.59784698486328 91.86581420898438 89.48692321777344 85.19371795654297 107.64913940429688 72.11801147460938 C 118.50989532470703 75.82084655761719 125.71463012695312 85.04532623291016 133.11158752441406 108.2077865600586" stroke-width="0.0" fill="rgb(139, 154, 177)" opacity="0.9840415"/>
    <path d="M 372.5122985839844 62.57868957519531 C 364.9220275878906 110.01091003417969 346.94293212890625 111.35465240478516 295.478515625 123.50641632080078 C 263.3487548828125 121.95584869384766 256.90179443359375 111.82817077636719 253.76580810546875 95.52477264404297 C 271.092529296875 44.74449920654297 285.19427490234375 38.523067474365234 332.7237243652344 18.73760414123535 C 351.9415588378906 17.296369552612305 362.3648376464844 22.324018478393555 372.5122985839844 62.57868957519531" stroke-width="0.0" fill="rgb(138, 153, 176)" opacity="0.72488505"/>
    <path d="M 77.72223663330078 213.4832000732422 C 65.57576751708984 232.99655151367188 54.059715270996094 240.1773223876953 11.107370376586914 267.4368591308594 C -10.5386323928833 263.071533203125 -14.283668518066406 247.2408447265625 -16.848522186279297 210.08042907714844 C -11.595345497131348 175.2679443359375 -3.040660858154297 166.24510192871094 21.50908851623535 165.05345153808594 C 56.82766342163086 175.58953857421875 65.904296875 183.51138305664062 77.72223663330078 213.4832000732422" stroke-width="0.0" fill="rgb(141, 155, 178)" opacity="0.55380905"/>
    <path d="M 501.7381591796875 345.4034423828125 C 578.197509765625 348.5545349121094 559.7970581054688 373.74554443359375 494.5549011230469 365.00653076171875 C 412.8101501464844 363.4005432128906 388.8826904296875 344.3011169433594 452.7533264160156 345.33563232421875 C 464.3188171386719 347.73828125 454.88763427734375 326.5944519042969 560.6217041015625 224.55381774902344 C 542.5748901367188 235.47911071777344 527.1220092773438 318.3768310546875 501.7381591796875 345.4034423828125" stroke-width="0.0" fill="rgb(7, 8, 9)" opacity="0.99639034"/>
    <path d="M 414.2816162109375 165.04061889648438 C 409.4894714355469 178.98899841308594 398.65399169921875 184.76300048828125 356.3476867675781 191.14990234375 C 329.6769714355469 186.44712829589844 322.071044921875 175.6536102294922 312.5240478515625 144.77809143066406 C 322.6044006347656 112.61703491210938 337.1375427246094 110.82555389404297 358.9075622558594 113.40451049804688 C 376.7529602050781 123.5518569946289 391.8405456542969 125.24342346191406 414.2816162109375 165.04061889648438" stroke-width="0.0" fill="rgb(139, 154, 177)" opacity="1.0"/>
    <path d="M 417.8858642578125 188.95806884765625 C 413.1748046875 232.6961669921875 403.6103515625 237.04856872558594 374.00372314453125 252.52996826171875 C 361.9641418457031 234.60011291503906 355.3084411621094 213.4803009033203 346.162109375 184.15892028808594 C 337.0187683105469 169.11917114257812 342.9103088378906 159.5028839111328 387.443603515625 151.7847137451172 C 412.0279846191406 153.28900146484375 418.711669921875 162.53074645996094 417.8858642578125 188.95806884765625" stroke-width="0.0" fill="rgb(139, 153, 177)" opacity="0.9860275"/>
    <path d="M 565.447265625 377.2779541015625 C 520.713134765625 434.99542236328125 505.1164245605469 435.80438232421875 491.5309753417969 435.0074768066406 C 467.0567626953125 439.6822204589844 409.30120849609375 476.9698486328125 297.92010498046875 357.2133483886719 C 463.3823547363281 377.5862731933594 413.45086669921875 305.1737976074219 442.7528991699219 350.4409484863281 C 537.7444458007812 350.089111328125 545.1126708984375 348.0637512207031 565.447265625 377.2779541015625" stroke-width="0.0" fill="rgb(79, 64, 51)" opacity="0.99889916"/>
    <path d="M 208.95989990234375 325.2895202636719 C 199.02682495117188 396.147705078125 167.65956115722656 370.4814453125 176.45101928710938 366.26873779296875 C 137.61102294921875 366.0625305175781 118.68959045410156 371.3741455078125 58.505306243896484 344.69525146484375 C 115.59895324707031 300.3145751953125 146.11602783203125 280.9032897949219 191.47592163085938 304.6480407714844 C 155.03172302246094 350.7235107421875 134.30657958984375 311.7703857421875 208.95989990234375 325.2895202636719" stroke-width="0.0" fill="rgb(110, 86, 64)" opacity="0.9861607"/>
    <path d="M 356.59375 339.66705322265625 C 450.1405334472656 315.97613525390625 438.3997497558594 334.2244567871094 410.9592590332031 351.69488525390625 C 264.3507080078125 348.6784973144531 294.2953796386719 362.23577880859375 254.6000518798828 322.7481384277344 C 293.96807861328125 309.4241027832031 304.6109924316406 296.6966247558594 344.6601867675781 287.9205017089844 C 300.5851745605469 340.34783935546875 294.814697265625 314.6673889160156 356.59375 339.66705322265625" stroke-width="0.0" fill="rgb(28, 30, 30)" opacity="1.0"/>
    <path d="M 227.14773559570312 196.26138305664062 C 315.4733581542969 374.64031982421875 258.2532653808594 383.1593322753906 213.28187561035156 370.1581726074219 C 195.64077758789062 331.31451416015625 196.38510131835938 312.1214294433594 166.68423461914062 290.6737365722656 C 182.04173278808594 293.02374267578125 231.72140502929688 329.44122314453125 150.23541259765625 169.84898376464844 C 127.53669738769531 149.2411651611328 252.5847930908203 190.40457153320312 227.14773559570312 196.26138305664062" stroke-width="0.0" fill="rgb(253, 249, 242)" opacity="0.86301285"/>
    <path d="M 199.6870574951172 325.228271484375 C 200.45135498046875 368.0381774902344 220.9070281982422 339.4041748046875 168.02059936523438 295.57977294921875 C 49.71953582763672 313.537353515625 61.36123275756836 412.4441833496094 59.60248947143555 328.2426452636719 C 147.75616455078125 307.73333740234375 39.047515869140625 312.8978271484375 126.3725814819336 302.85791015625 C 195.11985778808594 244.2062530517578 200.81076049804688 259.0681457519531 199.6870574951172 325.228271484375" stroke-width="0.0" fill="rgb(0, 0, 0)" opacity="0.8194817"/>
    <path d="M 566.6863403320312 379.09283447265625 C 605.8244018554688 425.8330993652344 576.514892578125 397.286865234375 520.9058837890625 408.4398193359375 C 494.838623046875 409.4115295410156 481.2049560546875 403.9693908691406 575.6407470703125 400.06085205078125 C 514.016357421875 363.2123718261719 467.59185791015625 263.3711853027344 526.7507934570312 346.4773254394531 C 602.04541015625 341.5018005371094 534.9590454101562 354.43505859375 566.6863403320312 379.09283447265625" stroke-width="0.0" fill="rgb(25, 22, 20)" opacity="1.0"/>
    <path d="M 322.1212158203125 422.2492980957031 C 245.77931213378906 458.53692626953125 192.6999053955078 439.8798828125 133.42678833007812 445.3863220214844 C 62.08408737182617 440.8000183105469 -8.936922073364258 453.5224609375 -60.93815612792969 428.19049072265625 C 79.87288665771484 372.54046630859375 128.03636169433594 410.8422546386719 145.6397247314453 407.46722412109375 C 160.95765686035156 393.6119384765625 202.23390197753906 361.3497314453125 322.1212158203125 422.2492980957031" stroke-width="0.0" fill="rgb(216, 158, 130)" opacity="0.9737439"/>
    <path d="M 655.9911499023438 440.7167053222656 C 563.0057983398438 446.6516418457031 509.878173828125 443.7498474121094 495.52197265625 444.6250915527344 C 478.8555908203125 444.2764892578125 415.33966064453125 444.61309814453125 247.56590270996094 444.67108154296875 C 365.6773681640625 315.76153564453125 460.4341125488281 390.9425964355469 488.76934814453125 399.60302734375 C 529.5494995117188 421.7633056640625 612.3447265625 379.5228271484375 655.9911499023438 440.7167053222656" stroke-width="0.0" fill="rgb(217, 157, 129)" opacity="0.98595047"/>
    <path d="M 353.5028381347656 269.3998107910156 C 328.2904052734375 293.7082214355469 319.558837890625 305.4311218261719 282.3056640625 342.2281188964844 C 280.5758972167969 336.538330078125 279.1344299316406 306.5614318847656 268.1419372558594 260.5154724121094 C 255.91290283203125 218.0980682373047 237.69578552246094 204.75450134277344 285.83367919921875 161.21107482910156 C 346.5858154296875 216.1091766357422 363.34515380859375 236.13356018066406 353.5028381347656 269.3998107910156" stroke-width="0.0" fill="rgb(251, 247, 237)" opacity="0.95877486"/>
    <path d="M 195.70590209960938 298.4378356933594 C 197.56686401367188 317.8814697265625 179.6417236328125 283.8325500488281 133.97976684570312 283.33489990234375 C 127.00848388671875 266.9007263183594 121.46452331542969 256.50628662109375 82.22832489013672 205.638427734375 C 76.8185043334961 206.4747314453125 110.55081176757812 197.4178466796875 158.2384033203125 203.91163635253906 C 154.24539184570312 220.9720001220703 159.1310577392578 187.5204315185547 195.70590209960938 298.4378356933594" stroke-width="0.0" fill="rgb(235, 232, 224)" opacity="0.9815225"/>
    <path d="M 55.78359603881836 204.39553833007812 C 36.7460823059082 227.387939453125 28.681909561157227 236.36553955078125 1.513026237487793 259.0101318359375 C -8.61758041381836 249.21620178222656 -10.483126640319824 234.88844299316406 -9.78083324432373 214.69654846191406 C -10.679137229919434 194.61648559570312 -7.104111671447754 182.14320373535156 10.501151084899902 176.59228515625 C 37.68869400024414 185.04269409179688 48.12379455566406 191.70643615722656 55.78359603881836 204.39553833007812" stroke-width="0.0" fill="rgb(139, 153, 176)" opacity="1.0"/>
    <path d="M 402.4310607910156 410.4580078125 C 298.196044921875 405.4474182128906 275.7931213378906 405.0986328125 250.16824340820312 408.4054260253906 C 222.63128662109375 406.44451904296875 204.4583282470703 406.3114013671875 188.67681884765625 409.4431457519531 C 206.65011596679688 347.5080871582031 200.27871704101562 317.958740234375 248.9769744873047 291.28558349609375 C 298.6851501464844 372.7518615722656 332.22894287109375 395.61358642578125 402.4310607910156 410.4580078125" stroke-width="0.0" fill="rgb(84, 69, 51)" opacity="0.8857497"/>
    <path d="M 217.1803436279297 382.0246276855469 C 196.5451202392578 405.4175109863281 175.03436279296875 399.0523986816406 142.11390686035156 407.7308044433594 C 96.0008316040039 423.79132080078125 20.2684268951416 458.5034484863281 15.597967147827148 392.4211730957031 C 60.90530776977539 318.02783203125 91.1094970703125 362.1439514160156 152.75845336914062 369.92828369140625 C 189.62855529785156 367.6214904785156 206.2645263671875 340.78955078125 217.1803436279297 382.0246276855469" stroke-width="0.0" fill="rgb(42, 22, 0)" opacity="0.47701743"/>
    <path d="M 511.0801696777344 240.04600524902344 C 508.3476867675781 250.0321044921875 501.0312194824219 257.34552001953125 491.3564453125 260.0104675292969 C 482.968994140625 257.3456726074219 475.6484069824219 250.03317260742188 472.72186279296875 240.079833984375 C 474.3291015625 230.85903930664062 481.9822998046875 223.6751708984375 491.8686218261719 221.08900451660156 C 501.5495300292969 224.06112670898438 509.86431884765625 231.26092529296875 511.0801696777344 240.04600524902344" stroke-width="0.0" fill="rgb(3, 2, 3)" opacity="0.99000376"/>
    <path d="M 90.99919891357422 413.999267578125 C 88.31863403320312 423.99859619140625 80.99939727783203 431.3213806152344 70.56121826171875 434.48199462890625 C 60.314659118652344 432.0047302246094 52.90757369995117 424.7165222167969 50.13999938964844 414.4874572753906 C 53.20395278930664 403.7256774902344 60.87830352783203 396.62176513671875 70.99173736572266 393.9961853027344 C 81.0 396.67950439453125 88.32051086425781 404.0 90.99919891357422 413.999267578125" stroke-width="0.0" fill="rgb(224, 164, 133)" opacity="1.0"/>
    <path d="M 499.24462890625 369.742919921875 C 496.32049560546875 380.0 489.0 387.32049560546875 478.5640869140625 390.5264892578125 C 468.3899230957031 387.96295166015625 461.01165771484375 380.6187744140625 458.3385009765625 370.51495361328125 C 461.62957763671875 359.9185791015625 468.9078063964844 352.60369873046875 479.2389221191406 350.808837890625 C 489.60870361328125 352.0315856933594 496.85504150390625 359.42681884765625 499.24462890625 369.742919921875" stroke-width="0.0" fill="rgb(152, 124, 93)" opacity="1.0"/>
    <path d="M 91.04354095458984 402.9490661621094 C 88.32015991210938 412.9990234375 80.99628448486328 420.3103332519531 71.66886901855469 422.2857666015625 C 61.86924362182617 419.46563720703125 54.6043586730957 412.1049499511719 51.93678665161133 402.20086669921875 C 54.46345901489258 393.65460205078125 61.5001220703125 386.03338623046875 70.92391204833984 383.3509521484375 C 81.07296752929688 385.7801208496094 88.4649429321289 392.8634338378906 91.04354095458984 402.9490661621094" stroke-width="0.0" fill="rgb(5, 2, 6)" opacity="0.99002963"/>
    <path d="M 104.13973236083984 407.8648681640625 C 103.09965515136719 417.7372131347656 95.72579956054688 425.06805419921875 85.56179809570312 427.6163024902344 C 75.00836181640625 424.3006591796875 67.68120574951172 416.9967956542969 65.054931640625 407.10491943359375 C 68.10015869140625 397.59423828125 75.76464080810547 390.5537109375 84.71183776855469 387.9694519042969 C 94.1444091796875 390.5834045410156 101.45732116699219 397.8337707519531 104.13973236083984 407.8648681640625" stroke-width="0.0" fill="rgb(217, 166, 140)" opacity="0.9900238"/>
    <path d="M 272.7373046875 379.21087646484375 C 269.91644287109375 389.54547119140625 262.546630859375 396.9195556640625 252.14036560058594 399.7457580566406 C 241.49783325195312 396.869140625 234.10206604003906 389.51275634765625 231.2600860595703 379.2943420410156 C 234.8076934814453 369.4699401855469 242.61965942382812 362.4075927734375 252.1229705810547 359.82171630859375 C 261.45587158203125 362.3728942871094 269.5883483886719 369.296142578125 272.7373046875 379.21087646484375" stroke-width="0.0" fill="rgb(148, 117, 86)" opacity="0.9901447"/>
    <path d="M 559.0330200195312 354.4113464355469 C 556.4085693359375 364.12200927734375 549.162841796875 371.55712890625 539.5709838867188 375.80950927734375 C 530.2806396484375 372.77447509765625 523.4307250976562 364.3948059082031 520.8746948242188 355.6075744628906 C 523.5257568359375 345.7795715332031 530.7218017578125 338.3762512207031 540.1068115234375 335.76312255859375 C 549.29541015625 338.3512268066406 556.4522094726562 345.78692626953125 559.0330200195312 354.4113464355469" stroke-width="0.0" fill="rgb(164, 134, 104)" opacity="0.99000794"/>
    <path d="M 537.8097534179688 388.61572265625 C 534.4588012695312 398.5511169433594 526.3788452148438 405.5941467285156 516.8026123046875 408.1369323730469 C 507.6002197265625 405.62335205078125 499.88671875 398.5265197753906 496.6376647949219 389.1061706542969 C 499.5048522949219 378.7335205078125 506.5964050292969 371.1149597167969 517.10546875 368.16876220703125 C 527.6287841796875 371.0045166015625 535.0131225585938 378.3642272949219 537.8097534179688 388.61572265625" stroke-width="0.0" fill="rgb(145, 115, 85)" opacity="0.9900808"/>
    <path d="M 111.97925567626953 279.8398742675781 C 109.27357482910156 289.93048095703125 101.91053771972656 297.2229919433594 91.94774627685547 298.03143310546875 C 81.95275115966797 295.35760498046875 74.62310791015625 288.0538024902344 70.08782958984375 279.60205078125 C 74.62792205810547 269.94378662109375 81.94051361083984 262.6186828613281 90.3004379272461 259.9620666503906 C 100.08659362792969 262.6230773925781 109.13941192626953 269.812255859375 111.97925567626953 279.8398742675781" stroke-width="0.0" fill="rgb(248, 245, 237)" opacity="0.99000376"/>
    <path d="M 439.1942443847656 362.2884521484375 C 436.5333557128906 372.4207763671875 429.9994812011719 380.7796630859375 420.01104736328125 382.07916259765625 C 409.32135009765625 381.05511474609375 403.3287048339844 373.41357421875 400.9085998535156 363.6593017578125 C 403.5478210449219 353.814453125 410.77557373046875 346.4538269042969 419.4522399902344 343.9048767089844 C 429.4329833984375 346.4517822265625 437.4339599609375 353.2288818359375 439.1942443847656 362.2884521484375" stroke-width="0.0" fill="rgb(2, 2, 2)" opacity="0.99001193"/>
    <path d="M 471.15826416015625 355.7909240722656 C 469.375732421875 365.1363830566406 462.2668762207031 372.7569580078125 451.8061828613281 375.7764892578125 C 441.79901123046875 372.8466491699219 435.11663818359375 364.7600402832031 432.1856994628906 355.6354675292969 C 435.5201416015625 345.81353759765625 442.80865478515625 338.5094909667969 451.6842041015625 335.9187927246094 C 461.1289978027344 338.5571594238281 468.42266845703125 345.8785705566406 471.15826416015625 355.7909240722656" stroke-width="0.0" fill="rgb(161, 127, 96)" opacity="0.99001074"/>
    <path d="M 465.84112548828125 394.4794921875 C 463.0943908691406 404.6785583496094 455.5577697753906 411.676025390625 444.9892578125 413.81085205078125 C 435.0 411.32049560546875 427.67950439453125 404.0 424.3503112792969 393.4104919433594 C 426.9005126953125 383.25323486328125 434.2668151855469 375.9367370605469 444.9754638671875 373.16131591796875 C 455.6419677734375 375.97906494140625 462.9822998046875 383.37255859375 465.84112548828125 394.4794921875" stroke-width="0.0" fill="rgb(146, 117, 86)" opacity="1.0"/>
    <path d="M 509.44744873046875 377.8321228027344 C 506.46600341796875 388.23223876953125 499.3651123046875 395.8472595214844 488.8131103515625 398.80926513671875 C 478.40972900390625 395.9840393066406 471.1661071777344 388.5401916503906 468.7481384277344 378.2513122558594 C 471.67864990234375 367.9984436035156 478.9974365234375 360.6753234863281 488.4768981933594 358.5968017578125 C 498.36334228515625 361.39312744140625 506.0788879394531 368.5252990722656 509.44744873046875 377.8321228027344" stroke-width="0.0" fill="rgb(147, 117, 86)" opacity="0.9905564"/>
    <path d="M 509.8701171875 228.39239501953125 C 506.9205017089844 238.1873016357422 498.7510070800781 244.99571228027344 488.90289306640625 248.41082763671875 C 479.5887145996094 244.7511444091797 471.9902648925781 237.46182250976562 468.2596130371094 227.96621704101562 C 471.3686828613281 217.84375 478.9388427734375 210.6532440185547 489.10211181640625 207.91668701171875 C 499.3883972167969 210.3658447265625 506.9302978515625 217.5111541748047 509.8701171875 228.39239501953125" stroke-width="0.0" fill="rgb(136, 150, 173)" opacity="0.9901333"/>
    <path d="M 80.11116790771484 377.814453125 C 77.7405776977539 386.513916015625 70.60462188720703 394.0267333984375 61.6126708984375 396.2624816894531 C 51.72321319580078 393.5470275878906 44.47411346435547 386.2680969238281 41.661827087402344 376.3003234863281 C 44.389408111572266 367.73907470703125 51.71458435058594 360.2511291503906 60.36198806762695 356.23175048828125 C 70.17578125 360.4759826660156 77.42988586425781 367.85528564453125 80.11116790771484 377.814453125" stroke-width="0.0" fill="rgb(2, 2, 2)" opacity="0.9900139"/>
    <path d="M 455.08746337890625 402.12530517578125 C 452.3781433105469 412.0640563964844 445.05865478515625 419.3652038574219 435.9595947265625 422.0173034667969 C 426.9444885253906 419.3636474609375 419.6231994628906 412.06072998046875 416.8712158203125 402.156005859375 C 418.44189453125 392.3713684082031 425.27679443359375 384.9046630859375 435.3807067871094 383.82073974609375 C 445.7266845703125 386.118896484375 453.00994873046875 393.2218017578125 455.08746337890625 402.12530517578125" stroke-width="0.0" fill="rgb(5, 4, 5)" opacity="0.9900057"/>
  </g>
</svg>
