<?xml version="1.0" ?>
<svg xmlns="http://www.w3.org/2000/svg" version="1.1" width="600" height="600">
  <defs/>
  <g>
    <path d="M 291.9281005859375 525.5260009765625 C 289.2189636230469 535.8787841796875 281.87445068359375 543.2080078125 270.505126953125 545.934326171875 C 260.1130065917969 543.2263793945312 252.7823028564453 535.8834838867188 250.06756591796875 525.2412719726562 C 252.80215454101562 514.1586303710938 260.1829833984375 506.86962890625 271.2767028808594 504.20751953125 C 281.83966064453125 506.838134765625 289.19073486328125 514.150634765625 291.9281005859375 525.5260009765625" stroke-width="0.0" fill="rgb(136, 151, 179)" opacity="1.0"/>
    <path d="M 306.94781494140625 49.443580627441406 C 304.2236022949219 59.88159942626953 296.8808898925781 67.22180938720703 286.6925964355469 69.93537139892578 C 275.1555480957031 67.18158721923828 267.8018493652344 59.850975036621094 265.0750732421875 48.93052673339844 C 267.7804260253906 38.11438751220703 275.1161804199219 30.784950256347656 286.41534423828125 28.07406997680664 C 296.8941955566406 30.7703857421875 304.2246398925781 38.10786819458008 306.94781494140625 49.443580627441406" stroke-width="0.0" fill="rgb(136, 154, 179)" opacity="1.0"/>
    <path d="M 163.93821716308594 582.2951049804688 C 161.22239685058594 592.8829956054688 153.87921142578125 600.2120361328125 143.52867126464844 602.8831176757812 C 132.14801025390625 600.1782836914062 124.78824615478516 592.8642578125 122.04812622070312 581.6959838867188 C 124.77777862548828 571.11767578125 132.11383056640625 563.7693481445312 142.70370483398438 561.0481567382812 C 153.9013671875 563.7611083984375 161.2240753173828 571.1044311523438 163.93821716308594 582.2951049804688" stroke-width="0.0" fill="rgb(136, 151, 179)" opacity="1.0"/>
    <path d="M 537.93994140625 143.44476318359375 C 535.2003173828125 153.84939575195312 527.8439331054688 161.18687438964844 516.6610107421875 163.9282989501953 C 506.1536865234375 161.19644165039062 498.8177185058594 153.84034729003906 496.0625915527344 142.45401000976562 C 498.80255126953125 132.15899658203125 506.1634521484375 124.81177520751953 517.3165893554688 122.05171203613281 C 527.8557739257812 124.7950668334961 535.1962890625 132.147705078125 537.93994140625 143.44476318359375" stroke-width="0.0" fill="rgb(136, 152, 179)" opacity="1.0"/>
    <path d="M 293.935302734375 491.6842041015625 C 291.2074279785156 502.8612060546875 283.8467712402344 510.16650390625 273.19537353515625 512.8026123046875 C 262.1594543457031 510.1568908691406 254.8035430908203 502.8536376953125 252.07101440429688 491.54351806640625 C 254.78616333007812 481.13031005859375 262.13623046875 473.80047607421875 273.4467468261719 471.0670471191406 C 283.8852844238281 473.7783508300781 291.2213439941406 481.1148681640625 293.935302734375 491.6842041015625" stroke-width="0.0" fill="rgb(136, 154, 179)" opacity="1.0"/>
    <path d="M 407.93231201171875 157.6207733154297 C 405.21185302734375 168.87086486816406 397.8669128417969 176.20220947265625 386.4246520996094 178.9351806640625 C 376.1031188964844 176.2336883544922 368.7689208984375 168.89556884765625 366.05126953125 158.53672790527344 C 368.7825012207031 147.1231689453125 376.12664794921875 139.7915496826172 387.5579528808594 137.065673828125 C 397.8821105957031 139.77540588378906 405.2160339355469 147.12158203125 407.93231201171875 157.6207733154297" stroke-width="0.0" fill="rgb(136, 152, 179)" opacity="1.0"/>
    <path d="M 383.94586181640625 110.52507781982422 C 381.21429443359375 121.87194061279297 373.8669738769531 129.2018585205078 362.3112487792969 131.94525146484375 C 352.1103820800781 129.231689453125 344.78369140625 121.88362884521484 342.08197021484375 111.42442321777344 C 344.8112487792969 100.14266204833984 352.1333923339844 92.78778839111328 362.9957275390625 90.06776428222656 C 373.8726806640625 92.7885971069336 381.2188720703125 100.12437438964844 383.94586181640625 110.52507781982422" stroke-width="0.0" fill="rgb(136, 152, 180)" opacity="1.0"/>
    <path d="M 122.9322738647461 478.9142761230469 C 120.2061767578125 489.8679504394531 112.87295532226562 497.2178955078125 102.07299041748047 499.93902587890625 C 91.11076354980469 497.2257385253906 83.7816162109375 489.8863830566406 81.07193756103516 479.2218017578125 C 83.79721069335938 468.1380310058594 91.1412582397461 460.80584716796875 102.75596618652344 458.05706787109375 C 112.89700317382812 460.76123046875 120.21920013427734 468.1108093261719 122.9322738647461 478.9142761230469" stroke-width="0.0" fill="rgb(136, 153, 179)" opacity="1.0"/>
    <path d="M 138.948974609375 71.7192153930664 C 136.20436096191406 82.86092376708984 128.8597412109375 90.200927734375 117.96273040771484 92.92832946777344 C 107.1409912109375 90.20191955566406 99.79914855957031 82.85848999023438 97.05952453613281 71.57794952392578 C 99.78462219238281 61.122161865234375 107.12012481689453 53.78007125854492 117.42070770263672 51.0742301940918 C 128.8516387939453 53.813697814941406 136.2095947265625 61.139278411865234 138.948974609375 71.7192153930664" stroke-width="0.0" fill="rgb(136, 151, 179)" opacity="1.0"/>
    <path d="M 117.94095611572266 38.62926483154297 C 115.23064422607422 48.89078140258789 107.8878173828125 56.223655700683594 97.31306457519531 58.9405403137207 C 86.12738037109375 56.21278381347656 78.78006744384766 48.87548065185547 76.05912780761719 38.6597785949707 C 78.80208587646484 27.143508911132812 86.14707946777344 19.811269760131836 97.61531066894531 17.067272186279297 C 107.86463165283203 19.79104232788086 115.20069122314453 27.138532638549805 117.94095611572266 38.62926483154297" stroke-width="0.0" fill="rgb(136, 154, 179)" opacity="1.0"/>
    <path d="M 123.94782257080078 520.6151733398438 C 121.2252426147461 531.8821411132812 113.87361907958984 539.2034301757812 102.95250701904297 541.9129638671875 C 92.14534759521484 539.1978759765625 84.81472778320312 531.8495483398438 82.07164001464844 520.4851684570312 C 84.79042053222656 510.1307373046875 92.12639617919922 502.78009033203125 102.42535400390625 500.05364990234375 C 113.87259674072266 502.7923583984375 121.22587585449219 510.1197814941406 123.94782257080078 520.6151733398438" stroke-width="0.0" fill="rgb(136, 151, 179)" opacity="1.0"/>
    <path d="M 500.9478759765625 74.371337890625 C 498.19464111328125 85.86064147949219 490.8712463378906 93.21980285644531 479.5190124511719 95.9512710571289 C 469.11279296875 93.23192596435547 461.79132080078125 85.8778305053711 459.0723876953125 75.05374908447266 C 461.805419921875 64.14710998535156 469.1449890136719 56.80062484741211 480.57440185546875 54.0614013671875 C 490.8840026855469 56.773162841796875 498.2243957519531 64.11723327636719 500.9478759765625 74.371337890625" stroke-width="0.0" fill="rgb(136, 152, 179)" opacity="1.0"/>
    <path d="M 428.9402160644531 497.3934631347656 C 426.18182373046875 508.8389892578125 418.8476257324219 516.2021484375 407.4769287109375 518.9541625976562 C 397.1202697753906 516.2260131835938 389.7926330566406 508.87213134765625 387.0791015625 498.3564147949219 C 389.80426025390625 487.1420593261719 397.1380310058594 479.7940673828125 407.5742492675781 477.07537841796875 C 418.8479309082031 479.8087158203125 426.20556640625 487.146240234375 428.9402160644531 497.3934631347656" stroke-width="0.0" fill="rgb(136, 154, 179)" opacity="1.0"/>
    <path d="M 213.91651916503906 55.36960983276367 C 211.17555236816406 66.8532943725586 203.87213134765625 74.22428131103516 193.63433837890625 76.94778442382812 C 182.1293182373047 74.2093734741211 174.79757690429688 66.86815643310547 172.08229064941406 55.75709915161133 C 174.7915802001953 45.12058639526367 182.1124725341797 37.77100372314453 192.45114135742188 35.06850814819336 C 203.8628692626953 37.80120849609375 211.21192932128906 45.1318473815918 213.91651916503906 55.36960983276367" stroke-width="0.0" fill="rgb(136, 152, 178)" opacity="1.0"/>
    <path d="M 347.9486999511719 93.34263610839844 C 345.20233154296875 104.85521697998047 337.8503112792969 112.19095611572266 326.51959228515625 114.93555450439453 C 316.1251525878906 112.21586608886719 308.7791748046875 104.87693786621094 306.04638671875 93.73802947998047 C 308.7749328613281 83.11653137207031 316.1197509765625 75.783447265625 326.7538146972656 73.07860565185547 C 337.8749084472656 75.78944396972656 345.2259826660156 83.11903381347656 347.9486999511719 93.34263610839844" stroke-width="0.0" fill="rgb(136, 151, 179)" opacity="1.0"/>
    <path d="M 450.927734375 28.632410049438477 C 448.1871337890625 39.842472076416016 440.8414611816406 47.18484878540039 430.4363098144531 49.91084289550781 C 419.1669616699219 47.16224670410156 411.80255126953125 39.846744537353516 409.0704650878906 28.790645599365234 C 411.8006896972656 18.144262313842773 419.14117431640625 10.793264389038086 429.5130615234375 8.059003829956055 C 440.85955810546875 10.798981666564941 448.1979064941406 18.1417179107666 450.927734375 28.632410049438477" stroke-width="0.0" fill="rgb(136, 152, 179)" opacity="1.0"/>
  </g>
</svg>
