<?xml version="1.0" ?>
<svg xmlns="http://www.w3.org/2000/svg" version="1.1" width="600" height="600">
  <defs/>
  <g>
    <path d="M 84.18061065673828 131.21078491210938 C 85.26344299316406 143.8687286376953 67.75355529785156 178.2299346923828 48.41346740722656 184.9131622314453 C 24.138864517211914 192.9061737060547 49.680477142333984 184.00070190429688 38.482418060302734 192.45840454101562 C 50.515567779541016 172.83392333984375 39.931575775146484 140.24859619140625 53.67926788330078 140.0772247314453 C 38.9876708984375 155.75596618652344 19.899311065673828 152.15872192382812 15.254317283630371 164.3321990966797 C 22.765464782714844 152.29454040527344 32.251529693603516 155.283935546875 51.81205368041992 142.69398498535156" stroke-width="6.0" fill="none" stroke="rgb(0, 0, 0)" stroke-opacity="1.0" stroke-linecap="round" stroke-linejoin="round"/>
    <path d="M 309.25238037109375 336.6180114746094 C 313.08984375 331.0309143066406 295.7770080566406 355.81488037109375 282.42266845703125 359.4190368652344 C 295.38818359375 357.70477294921875 300.6269226074219 367.697021484375 289.7897644042969 366.04937744140625 C 276.2832336425781 382.24951171875 304.2745666503906 401.7235107421875 308.0943908691406 413.3883361816406 C 334.91058349609375 428.6394348144531 303.3057556152344 439.98236083984375 335.7214050292969 423.92584228515625 C 368.1534118652344 446.2724304199219 386.41241455078125 467.5634460449219 388.6965026855469 474.62640380859375" stroke-width="6.0" fill="none" stroke="rgb(0, 0, 0)" stroke-opacity="1.0" stroke-linecap="round" stroke-linejoin="round"/>
    <path d="M 475.56451416015625 36.02821350097656 C 489.90869140625 23.607135772705078 462.8349304199219 19.26265525817871 445.1158752441406 0.21842078864574432 C 439.5630798339844 8.278562545776367 457.12603759765625 -9.561310768127441 435.1951599121094 -24.212810516357422 C 457.10107421875 -3.1033456325531006 455.51611328125 -9.960308074951172 462.893798828125 -24.235685348510742 C 445.04266357421875 -23.46223258972168 461.5192565917969 -44.97243881225586 488.5835876464844 -63.65926742553711 C 502.31048583984375 -52.66714859008789 486.82879638671875 -39.257423400878906 462.3225402832031 -59.14554214477539" stroke-width="6.0" fill="none" stroke="rgb(0, 0, 0)" stroke-opacity="1.0" stroke-linecap="round" stroke-linejoin="round"/>
    <path d="M 594.8021240234375 546.4017944335938 C 584.2394409179688 541.5476684570312 564.9176025390625 522.839111328125 573.3326416015625 504.15142822265625 C 573.845703125 518.8139038085938 559.9536743164062 509.7516784667969 548.062744140625 518.0859375 C 554.3240966796875 544.27197265625 541.7105102539062 562.2532348632812 530.4876708984375 566.28857421875 C 533.0250244140625 574.20166015625 538.7274780273438 549.2067260742188 551.6275024414062 558.14599609375 C 539.3040161132812 545.0565795898438 560.9799194335938 526.8690185546875 541.99658203125 515.3043823242188" stroke-width="6.0" fill="none" stroke="rgb(0, 0, 0)" stroke-opacity="1.0" stroke-linecap="round" stroke-linejoin="round"/>
    <path d="M 1.0992343425750732 328.59796142578125 C -0.33976221084594727 367.16619873046875 24.58876609802246 356.08367919921875 14.77645492553711 364.78887939453125 C 37.240447998046875 341.5826721191406 43.049129486083984 351.9314880371094 20.733684539794922 328.9234619140625 C 30.741987228393555 339.2048645019531 43.18235397338867 352.3149108886719 36.55678939819336 343.0581359863281 C 6.816006660461426 325.5920715332031 35.02130889892578 307.2861633300781 28.027790069580078 294.4169616699219 C -10.98357105255127 273.6078186035156 3.663179397583008 253.9447021484375 -14.990615844726562 231.0260467529297" stroke-width="6.0" fill="none" stroke="rgb(0, 0, 0)" stroke-opacity="1.0" stroke-linecap="round" stroke-linejoin="round"/>
    <path d="M 58.759220123291016 342.5911865234375 C 41.120704650878906 322.3160705566406 41.62577819824219 346.8229675292969 20.119306564331055 358.94873046875 C 26.27558708190918 319.4485168457031 17.16115951538086 313.3565979003906 27.47174072265625 307.8361511230469 C 16.830839157104492 321.1544494628906 32.43452072143555 340.69769287109375 -0.9690378904342651 315.0099182128906 C -0.5406304001808167 285.39300537109375 -9.062865257263184 288.26776123046875 18.502349853515625 270.1499938964844 C 25.82639503479004 255.56471252441406 38.86766815185547 272.9097595214844 41.079708099365234 274.7103271484375" stroke-width="6.0" fill="none" stroke="rgb(0, 0, 0)" stroke-opacity="1.0" stroke-linecap="round" stroke-linejoin="round"/>
    <path d="M 606.9856567382812 593.7835693359375 C 615.9723510742188 604.9746704101562 590.0421142578125 603.9674682617188 559.3866577148438 610.6104125976562 C 563.9920654296875 628.5075073242188 539.526611328125 605.4166259765625 542.0606689453125 625.5823364257812 C 530.2501220703125 616.9168701171875 550.923095703125 594.5751953125 561.3397216796875 608.5755004882812 C 534.045654296875 627.309326171875 518.986572265625 654.470458984375 504.79638671875 646.5432739257812 C 476.4653625488281 646.1288452148438 461.8314514160156 647.2831420898438 478.02825927734375 637.9796752929688" stroke-width="6.0" fill="none" stroke="rgb(0, 0, 0)" stroke-opacity="1.0" stroke-linecap="round" stroke-linejoin="round"/>
    <path d="M 492.4006652832031 293.8268737792969 C 483.02496337890625 304.79046630859375 478.17938232421875 319.1687316894531 481.11175537109375 308.890625 C 501.6409912109375 325.0973205566406 487.4305114746094 314.1618957519531 508.73028564453125 330.1680603027344 C 530.045654296875 342.4482421875 489.7286071777344 359.4185485839844 527.1029052734375 356.02716064453125 C 539.7561645507812 341.730224609375 554.651611328125 364.89447021484375 591.0986328125 388.88720703125 C 614.321533203125 408.6065673828125 618.7435302734375 401.0672912597656 635.619140625 374.1805725097656" stroke-width="6.0" fill="none" stroke="rgb(0, 0, 0)" stroke-opacity="1.0" stroke-linecap="round" stroke-linejoin="round"/>
    <path d="M 232.9992218017578 283.91107177734375 C 213.57559204101562 298.08392333984375 197.2713623046875 298.5817565917969 227.3114471435547 324.1706848144531 C 212.84243774414062 338.7064208984375 234.73587036132812 318.9175720214844 249.81114196777344 308.0887145996094 C 237.25559997558594 284.5484313964844 226.05581665039062 279.6302185058594 218.65122985839844 261.642822265625 C 209.92098999023438 255.73825073242188 215.7799835205078 252.0977020263672 196.96238708496094 233.2544708251953 C 185.6433868408203 208.2788848876953 160.6508026123047 182.74331665039062 161.92381286621094 175.5701141357422" stroke-width="6.0" fill="none" stroke="rgb(0, 0, 0)" stroke-opacity="1.0" stroke-linecap="round" stroke-linejoin="round"/>
    <path d="M 321.5290832519531 276.13519287109375 C 303.4714660644531 296.5499572753906 323.466796875 299.9953308105469 335.8651428222656 316.7185974121094 C 312.87249755859375 314.6828918457031 329.7885437011719 334.39532470703125 331.0601501464844 313.2197570800781 C 349.7138366699219 298.7701416015625 348.3459777832031 312.1030578613281 364.4606018066406 325.5202331542969 C 360.2750244140625 293.0987243652344 339.5021667480469 319.3598937988281 318.9618835449219 334.3726806640625 C 357.4740295410156 353.8652648925781 373.8193359375 380.47357177734375 373.70391845703125 401.507080078125" stroke-width="6.0" fill="none" stroke="rgb(0, 0, 0)" stroke-opacity="1.0" stroke-linecap="round" stroke-linejoin="round"/>
    <path d="M 104.39839935302734 452.266845703125 C 96.67286682128906 449.3627624511719 113.21783447265625 452.3909912109375 105.59915161132812 453.6730651855469 C 116.0642318725586 464.401611328125 98.28544616699219 445.42864990234375 77.10501861572266 422.483154296875 C 54.16190719604492 399.7552490234375 41.85778045654297 372.6492614746094 27.970184326171875 405.9276123046875 C 43.287200927734375 441.4974670410156 53.69176483154297 416.1656494140625 62.10574722290039 411.65423583984375 C 45.96780014038086 385.0841979980469 31.269054412841797 380.7078552246094 23.700714111328125 366.3411865234375" stroke-width="6.0" fill="none" stroke="rgb(0, 0, 0)" stroke-opacity="1.0" stroke-linecap="round" stroke-linejoin="round"/>
    <path d="M 261.908447265625 232.08685302734375 C 243.18434143066406 223.01806640625 230.2115478515625 228.449951171875 209.4902801513672 247.9467315673828 C 190.8728790283203 224.89675903320312 191.03163146972656 222.15347290039062 204.23521423339844 241.40243530273438 C 215.88787841796875 250.72122192382812 175.2477569580078 262.48919677734375 160.86033630371094 253.02316284179688 C 185.251953125 265.53314208984375 213.58511352539062 244.8302001953125 231.94125366210938 230.20187377929688 C 234.28106689453125 210.9629364013672 213.15101623535156 197.98715209960938 215.39910888671875 191.99774169921875" stroke-width="6.0" fill="none" stroke="rgb(0, 0, 0)" stroke-opacity="1.0" stroke-linecap="round" stroke-linejoin="round"/>
    <path d="M 209.40408325195312 151.40567016601562 C 218.6583251953125 151.09295654296875 199.16041564941406 149.5790557861328 196.12191772460938 159.82762145996094 C 217.0234375 192.9147491455078 208.5973358154297 183.7018585205078 235.27964782714844 227.0948028564453 C 201.1981201171875 253.24093627929688 208.28443908691406 244.3890838623047 215.98118591308594 258.99969482421875 C 223.98794555664062 262.4203796386719 220.82492065429688 260.069580078125 189.69200134277344 286.1392517089844 C 216.79098510742188 263.03076171875 226.01280212402344 261.00494384765625 215.27734375 259.6717529296875" stroke-width="6.0" fill="none" stroke="rgb(0, 0, 0)" stroke-opacity="1.0" stroke-linecap="round" stroke-linejoin="round"/>
    <path d="M 87.95671081542969 129.82821655273438 C 91.42141723632812 144.62548828125 89.8932876586914 133.5201416015625 71.8184814453125 110.8109130859375 C 94.29363250732422 132.84230041503906 82.43480682373047 145.14161682128906 63.799129486083984 176.96780395507812 C 49.355003356933594 185.16783142089844 81.72205352783203 159.70074462890625 71.95130157470703 162.2200927734375 C 81.65633392333984 143.29884338378906 91.51001739501953 120.39773559570312 81.37659454345703 145.95420837402344 C 83.16802978515625 136.22227478027344 98.5650634765625 115.53376770019531 105.65412139892578 94.79606628417969" stroke-width="6.0" fill="none" stroke="rgb(0, 0, 0)" stroke-opacity="1.0" stroke-linecap="round" stroke-linejoin="round"/>
    <path d="M 258.94757080078125 414.4849548339844 C 236.4008026123047 449.481201171875 252.54861450195312 417.5035705566406 232.6085662841797 413.9718933105469 C 220.2490692138672 409.6442565917969 234.96255493164062 428.1559753417969 255.1584930419922 392.87530517578125 C 266.95489501953125 380.8530578613281 268.4606628417969 391.28411865234375 287.13739013671875 391.6427307128906 C 297.39935302734375 350.4770812988281 309.2843322753906 345.61767578125 311.92926025390625 336.916015625 C 342.8554382324219 352.6332092285156 324.6215515136719 335.4961242675781 282.52813720703125 349.46136474609375" stroke-width="6.0" fill="none" stroke="rgb(0, 0, 0)" stroke-opacity="1.0" stroke-linecap="round" stroke-linejoin="round"/>
    <path d="M 424.6988220214844 510.2410888671875 C 441.60528564453125 508.1717529296875 427.681884765625 497.4870300292969 407.54986572265625 464.0440673828125 C 376.02789306640625 462.04248046875 399.55780029296875 492.03765869140625 421.4886779785156 498.9095458984375 C 400.5901184082031 524.5243530273438 396.690185546875 524.6551513671875 387.0762023925781 551.5387573242188 C 388.3388366699219 527.9266967773438 376.97247314453125 510.0407409667969 368.30169677734375 490.8404846191406 C 358.61810302734375 470.38763427734375 331.9133605957031 464.9503173828125 349.7305603027344 468.68206787109375" stroke-width="6.0" fill="none" stroke="rgb(0, 0, 0)" stroke-opacity="1.0" stroke-linecap="round" stroke-linejoin="round"/>
    <path d="M 441.6077880859375 392.1899108886719 C 454.4490966796875 372.6134338378906 423.6385192871094 344.7080993652344 419.2638244628906 374.2768249511719 C 406.3077087402344 401.81512451171875 391.833251953125 412.84576416015625 379.5426330566406 430.18133544921875 C 384.0735778808594 420.54595947265625 411.3905944824219 443.2322998046875 436.1158752441406 468.0436706542969 C 437.22418212890625 465.4058532714844 446.75701904296875 481.3354187011719 414.5427551269531 491.5407409667969 C 414.71746826171875 504.3924560546875 404.9156494140625 517.3307495117188 424.85174560546875 543.5944213867188" stroke-width="6.0" fill="none" stroke="rgb(0, 0, 0)" stroke-opacity="1.0" stroke-linecap="round" stroke-linejoin="round"/>
    <path d="M 534.0709228515625 538.6433715820312 C 516.3516845703125 515.515625 505.0097961425781 509.75360107421875 500.5011901855469 498.73675537109375 C 484.6231689453125 510.2876892089844 506.3150634765625 487.2745361328125 495.1554260253906 502.7552490234375 C 502.173583984375 497.1059875488281 486.892822265625 491.74749755859375 487.7822570800781 478.90093994140625 C 453.6611633300781 477.26678466796875 439.443359375 474.2126159667969 476.2251281738281 505.5784606933594 C 502.3974609375 534.0075073242188 521.6027221679688 552.9390258789062 528.1076049804688 561.5201416015625" stroke-width="6.0" fill="none" stroke="rgb(0, 0, 0)" stroke-opacity="1.0" stroke-linecap="round" stroke-linejoin="round"/>
    <path d="M 36.771522521972656 435.23504638671875 C 16.752763748168945 449.9383850097656 -4.601863384246826 480.6448059082031 -26.48554039001465 469.836669921875 C -37.60304641723633 449.23028564453125 -24.84920883178711 424.1338195800781 -48.664939880371094 429.0852355957031 C -48.37470245361328 402.706298828125 -43.78096008300781 394.500732421875 -55.57508850097656 408.38800048828125 C -67.45667266845703 433.48675537109375 -84.68352508544922 447.3869323730469 -68.50646209716797 448.35772705078125 C -65.70925903320312 457.4498291015625 -75.52033996582031 470.0766906738281 -91.04981231689453 500.0760192871094" stroke-width="6.0" fill="none" stroke="rgb(0, 0, 0)" stroke-opacity="1.0" stroke-linecap="round" stroke-linejoin="round"/>
    <path d="M 412.0324401855469 595.387451171875 C 408.46417236328125 599.9228515625 424.9227294921875 599.3429565429688 393.79803466796875 605.3583374023438 C 410.1170959472656 607.6814575195312 406.5511474609375 594.4854125976562 433.7704162597656 571.9177856445312 C 428.4332580566406 578.3842163085938 432.45306396484375 557.7802124023438 480.2400817871094 577.0293579101562 C 477.1435852050781 582.63671875 477.79345703125 584.324462890625 483.85565185546875 573.05859375 C 460.2154235839844 582.5590209960938 451.36236572265625 595.8153076171875 432.4267578125 623.8975219726562" stroke-width="6.0" fill="none" stroke="rgb(0, 0, 0)" stroke-opacity="1.0" stroke-linecap="round" stroke-linejoin="round"/>
    <path d="M 493.208251953125 379.0513916015625 C 481.6347351074219 365.4193420410156 473.7589416503906 376.2092590332031 482.18719482421875 348.8009338378906 C 476.86260986328125 367.9704895019531 485.6993408203125 350.5048522949219 510.031982421875 356.4682922363281 C 537.2724609375 359.44256591796875 562.3783569335938 334.9405822753906 528.431884765625 318.6606750488281 C 533.8582763671875 304.0523986816406 534.741455078125 308.6175537109375 528.3198852539062 314.4954833984375 C 548.3945922851562 338.8199768066406 561.6670532226562 330.8875427246094 544.1256713867188 335.5219421386719" stroke-width="6.0" fill="none" stroke="rgb(0, 0, 0)" stroke-opacity="1.0" stroke-linecap="round" stroke-linejoin="round"/>
    <path d="M 475.6634216308594 418.9100341796875 C 468.23309326171875 439.3175354003906 474.61138916015625 416.33294677734375 481.6857604980469 414.3210144042969 C 470.6077575683594 419.6724548339844 481.2795715332031 424.166259765625 501.56365966796875 442.3231506347656 C 490.0827331542969 430.278564453125 464.8091125488281 424.8115234375 457.6560363769531 446.57061767578125 C 464.1165771484375 436.24371337890625 464.73822021484375 435.71575927734375 452.0983581542969 454.45166015625 C 449.1497802734375 464.36529541015625 427.87701416015625 432.63690185546875 442.7925109863281 423.1971435546875" stroke-width="6.0" fill="none" stroke="rgb(0, 0, 0)" stroke-opacity="1.0" stroke-linecap="round" stroke-linejoin="round"/>
    <path d="M 285.9212951660156 209.44143676757812 C 308.0013122558594 227.18038940429688 292.6661682128906 214.9799346923828 273.1849670410156 198.6424102783203 C 244.97154235839844 223.0233612060547 241.1943817138672 253.2308807373047 235.1269073486328 226.46173095703125 C 243.46194458007812 230.17222595214844 266.3451232910156 229.13613891601562 239.98634338378906 227.96148681640625 C 286.33935546875 227.76918029785156 272.0257263183594 261.2194519042969 267.90576171875 275.0931091308594 C 263.0099182128906 295.7572937011719 251.72891235351562 311.9228210449219 261.47991943359375 294.6271057128906" stroke-width="6.0" fill="none" stroke="rgb(0, 0, 0)" stroke-opacity="1.0" stroke-linecap="round" stroke-linejoin="round"/>
    <path d="M 46.3031120300293 308.4024353027344 C 25.558212280273438 290.9666748046875 27.889432907104492 299.5216369628906 7.967966079711914 277.7994384765625 C 30.04128646850586 259.5196533203125 37.73573684692383 255.49896240234375 67.82781219482422 236.74424743652344 C 84.57173919677734 273.0073547363281 107.77530670166016 256.14288330078125 125.21954345703125 235.9930419921875 C 157.81912231445312 216.39295959472656 164.7166290283203 208.73643493652344 195.03878784179688 188.98532104492188 C 202.00791931152344 185.14486694335938 192.09962463378906 191.4180145263672 203.63088989257812 185.41885375976562" stroke-width="6.0" fill="none" stroke="rgb(0, 0, 0)" stroke-opacity="1.0" stroke-linecap="round" stroke-linejoin="round"/>
    <path d="M 88.9582748413086 469.11383056640625 C 105.19329071044922 454.65399169921875 118.19698333740234 437.8758239746094 135.1537322998047 425.4278259277344 C 96.61579895019531 454.9154968261719 105.22116088867188 454.6893005371094 123.13417053222656 471.1278381347656 C 105.90731811523438 459.7401428222656 112.56053161621094 440.61212158203125 83.39105987548828 474.04931640625 C 64.30595397949219 505.5830078125 41.610225677490234 482.89892578125 26.656024932861328 488.64886474609375 C 41.60483169555664 495.8274841308594 46.804996490478516 518.40771484375 17.61005210876465 503.95965576171875" stroke-width="6.0" fill="none" stroke="rgb(0, 0, 0)" stroke-opacity="1.0" stroke-linecap="round" stroke-linejoin="round"/>
    <path d="M 246.76022338867188 458.3797607421875 C 212.4451446533203 447.5611877441406 209.3046417236328 453.2010803222656 235.0226593017578 441.4909973144531 C 224.42918395996094 411.4017333984375 228.70465087890625 422.35260009765625 247.5315704345703 457.8927001953125 C 251.2142791748047 428.2441101074219 270.5528259277344 427.78253173828125 262.7716064453125 395.8319091796875 C 292.501220703125 403.2887268066406 280.0753479003906 428.2330017089844 270.344482421875 420.9466857910156 C 310.5455627441406 398.6111145019531 289.653564453125 399.9267578125 299.7437438964844 397.0816345214844" stroke-width="6.0" fill="none" stroke="rgb(0, 0, 0)" stroke-opacity="1.0" stroke-linecap="round" stroke-linejoin="round"/>
    <path d="M 376.09368896484375 84.49552917480469 C 340.11090087890625 81.9963150024414 363.06005859375 98.93569946289062 374.31353759765625 97.05707550048828 C 376.54180908203125 100.36709594726562 361.5593566894531 69.38448333740234 368.233642578125 104.26564025878906 C 352.29290771484375 132.4871368408203 339.94451904296875 158.4864501953125 329.1289978027344 171.9778594970703 C 327.8922119140625 172.90440368652344 349.43438720703125 189.4856414794922 347.2804870605469 163.9872589111328 C 333.408203125 178.26551818847656 311.53643798828125 154.91893005371094 315.7755432128906 157.1001739501953" stroke-width="6.0" fill="none" stroke="rgb(0, 0, 0)" stroke-opacity="1.0" stroke-linecap="round" stroke-linejoin="round"/>
    <path d="M 346.1852111816406 395.29888916015625 C 385.7074890136719 413.4985656738281 393.7127990722656 428.444091796875 396.4325866699219 405.72503662109375 C 371.4183349609375 393.5086669921875 398.4642333984375 411.8315734863281 392.3144836425781 438.1329650878906 C 407.58209228515625 435.6277160644531 415.6697692871094 449.6985778808594 415.4599914550781 448.83026123046875 C 439.7806701660156 471.4754638671875 445.0910949707031 478.95245361328125 439.7032775878906 473.3110046386719 C 428.0645751953125 478.00946044921875 456.4083251953125 457.08612060546875 448.65264892578125 454.9111633300781" stroke-width="6.0" fill="none" stroke="rgb(0, 0, 0)" stroke-opacity="1.0" stroke-linecap="round" stroke-linejoin="round"/>
    <path d="M 89.00691986083984 272.9247741699219 C 83.87574768066406 261.10205078125 68.212158203125 280.91925048828125 53.20819854736328 290.7959899902344 C 39.54977798461914 294.7513732910156 67.24531555175781 278.8508605957031 66.15118408203125 280.0661315917969 C 90.49137115478516 265.2608947753906 77.0836410522461 271.5617980957031 67.39862823486328 277.31048583984375 C 79.7221908569336 272.2835998535156 80.26692962646484 272.0241394042969 42.060874938964844 248.00120544433594 C 24.68940544128418 235.26947021484375 20.55445671081543 240.73641967773438 -2.5727157592773438 211.99888610839844" stroke-width="6.0" fill="none" stroke="rgb(0, 0, 0)" stroke-opacity="1.0" stroke-linecap="round" stroke-linejoin="round"/>
    <path d="M 463.3353576660156 268.3337707519531 C 450.2548522949219 271.25018310546875 444.4247131347656 300.6846008300781 436.15625 305.3373107910156 C 455.98614501953125 312.07574462890625 460.59368896484375 315.76153564453125 430.8287353515625 353.3578796386719 C 414.0162658691406 357.805419921875 403.4980773925781 344.43292236328125 431.6338806152344 328.8133850097656 C 430.2254943847656 337.16986083984375 420.6527099609375 317.8331298828125 410.7522277832031 319.4815368652344 C 392.4029541015625 343.38751220703125 422.48663330078125 345.2138366699219 408.72100830078125 357.5296630859375" stroke-width="6.0" fill="none" stroke="rgb(0, 0, 0)" stroke-opacity="1.0" stroke-linecap="round" stroke-linejoin="round"/>
    <path d="M 114.68368530273438 191.53660583496094 C 132.3609619140625 175.7882843017578 132.98513793945312 196.5703125 141.22952270507812 199.07313537597656 C 135.47865295410156 195.46417236328125 110.39971923828125 199.88858032226562 115.2889404296875 217.30258178710938 C 121.54053497314453 228.3936767578125 112.66114044189453 211.05409240722656 114.274169921875 210.14584350585938 C 116.97834777832031 229.4686279296875 135.71859741210938 228.59971618652344 115.45081329345703 243.53636169433594 C 107.19355773925781 238.05352783203125 125.95343780517578 247.10015869140625 121.50516510009766 253.74073791503906" stroke-width="6.0" fill="none" stroke="rgb(0, 0, 0)" stroke-opacity="1.0" stroke-linecap="round" stroke-linejoin="round"/>
    <path d="M 572.3521118164062 510.452880859375 C 574.4225463867188 509.2820739746094 551.6215209960938 521.8305053710938 530.7108154296875 513.367919921875 C 524.6603393554688 508.4295654296875 541.9369506835938 524.646728515625 571.6761474609375 510.5384521484375 C 587.9389038085938 468.0592346191406 570.358642578125 454.333984375 603.0684204101562 446.2669982910156 C 595.9380493164062 447.2300720214844 617.739013671875 458.3019104003906 612.5242309570312 463.9421691894531 C 628.282958984375 469.2740173339844 614.1063842773438 464.3645324707031 603.6297607421875 451.6028137207031" stroke-width="6.0" fill="none" stroke="rgb(0, 0, 0)" stroke-opacity="1.0" stroke-linecap="round" stroke-linejoin="round"/>
    <path d="M 29.23863983154297 488.7552795410156 C 30.86110496520996 500.80523681640625 27.881301879882812 492.3567199707031 39.553043365478516 463.05853271484375 C 40.31393814086914 466.1947937011719 33.7069091796875 464.3126525878906 46.94877624511719 459.7519836425781 C 74.1156997680664 491.6423645019531 49.480735778808594 512.4375 27.157997131347656 530.9281616210938 C 17.79048728942871 540.96240234375 31.278444290161133 531.2736206054688 10.168904304504395 548.0809936523438 C 18.80534553527832 537.4899291992188 34.60637283325195 532.3870239257812 16.292078018188477 540.137451171875" stroke-width="6.0" fill="none" stroke="rgb(0, 0, 0)" stroke-opacity="1.0" stroke-linecap="round" stroke-linejoin="round"/>
    <path d="M 29.37253189086914 197.62741088867188 C 17.895734786987305 200.10728454589844 5.741455078125 170.2305450439453 -11.674339294433594 186.41925048828125 C -20.774200439453125 187.71038818359375 -24.29643440246582 185.2837371826172 -10.217116355895996 190.2540740966797 C -0.7927103638648987 213.134521484375 -5.230955600738525 194.31028747558594 -28.967121124267578 181.5113983154297 C -2.9121224880218506 169.41558837890625 3.5551071166992188 181.47189331054688 28.295673370361328 202.79417419433594 C 18.634929656982422 197.376708984375 10.499650955200195 216.29884338378906 -19.820432662963867 217.71751403808594" stroke-width="6.0" fill="none" stroke="rgb(0, 0, 0)" stroke-opacity="1.0" stroke-linecap="round" stroke-linejoin="round"/>
    <path d="M 386.7986145019531 20.32390022277832 C 406.4764099121094 7.811473369598389 406.5841369628906 -10.763740539550781 388.0318908691406 -33.51853942871094 C 389.9081726074219 -23.16260528564453 399.5986328125 -53.0864372253418 418.4939880371094 -52.14894104003906 C 407.4331970214844 -82.1295166015625 429.1896057128906 -102.08850860595703 419.5137634277344 -80.81349182128906 C 401.09515380859375 -79.6939926147461 377.4508361816406 -57.135719299316406 349.3208312988281 -76.07415008544922 C 336.97900390625 -84.84490203857422 334.9208984375 -57.05839538574219 310.47943115234375 -64.57144927978516" stroke-width="6.0" fill="none" stroke="rgb(0, 0, 0)" stroke-opacity="1.0" stroke-linecap="round" stroke-linejoin="round"/>
    <path d="M 27.123794555664062 442.15167236328125 C 43.216102600097656 424.61346435546875 36.312400817871094 435.75762939453125 48.041927337646484 425.23602294921875 C 35.41221237182617 431.3113098144531 22.4067440032959 449.24993896484375 1.1054493188858032 466.1259460449219 C 10.751834869384766 476.40472412109375 23.944528579711914 488.4135437011719 34.8538703918457 487.8454284667969 C 7.317004680633545 485.12115478515625 9.591986656188965 464.4962158203125 -23.010921478271484 439.2689208984375 C -24.682161331176758 458.2133483886719 -18.83542251586914 440.45379638671875 -39.05925369262695 460.58843994140625" stroke-width="6.0" fill="none" stroke="rgb(0, 0, 0)" stroke-opacity="1.0" stroke-linecap="round" stroke-linejoin="round"/>
    <path d="M 577.5175170898438 330.165283203125 C 590.8945922851562 347.7342834472656 614.111328125 343.32183837890625 608.9618530273438 376.6490478515625 C 595.7855224609375 364.4968566894531 580.4826049804688 362.18341064453125 567.2288208007812 346.363525390625 C 577.1467895507812 347.4320068359375 552.1527709960938 357.0296325683594 537.6906127929688 386.55999755859375 C 541.744140625 395.65338134765625 527.3143920898438 391.142578125 556.2748413085938 360.2115173339844 C 581.758056640625 338.5832214355469 605.5826416015625 335.64544677734375 601.7020263671875 325.0311584472656" stroke-width="6.0" fill="none" stroke="rgb(0, 0, 0)" stroke-opacity="1.0" stroke-linecap="round" stroke-linejoin="round"/>
    <path d="M 84.88356018066406 266.04595947265625 C 85.3382568359375 262.6221923828125 72.43504333496094 263.98919677734375 110.01609802246094 283.732421875 C 129.34141540527344 310.5098571777344 143.80755615234375 324.81890869140625 158.78604125976562 344.4116516113281 C 172.53114318847656 362.8843078613281 194.55828857421875 386.5411376953125 191.1326141357422 382.9920959472656 C 162.56393432617188 348.83013916015625 143.05621337890625 331.9159851074219 168.39926147460938 335.6647644042969 C 194.716552734375 353.5407409667969 185.44627380371094 360.3318786621094 186.7932891845703 357.76483154296875" stroke-width="6.0" fill="none" stroke="rgb(0, 0, 0)" stroke-opacity="1.0" stroke-linecap="round" stroke-linejoin="round"/>
    <path d="M 408.7353820800781 506.3821716308594 C 429.6440734863281 493.51715087890625 417.67047119140625 494.1685791015625 427.59344482421875 487.4282531738281 C 423.6997375488281 493.3892517089844 418.1923828125 485.7138366699219 392.8920593261719 461.8125915527344 C 374.4051208496094 472.58636474609375 383.45819091796875 479.4610290527344 403.1011657714844 488.8435974121094 C 434.6171569824219 501.7052307128906 445.6717834472656 532.471923828125 454.0733337402344 547.381103515625 C 455.42510986328125 544.9752197265625 463.6850280761719 576.0014038085938 460.27679443359375 549.9439086914062" stroke-width="6.0" fill="none" stroke="rgb(0, 0, 0)" stroke-opacity="1.0" stroke-linecap="round" stroke-linejoin="round"/>
    <path d="M 61.34818649291992 98.19676208496094 C 32.889137268066406 61.760189056396484 32.57634735107422 57.89486312866211 26.32044792175293 52.22351837158203 C -10.880915641784668 75.3359375 -11.9642915725708 49.202064514160156 -26.503740310668945 67.94918060302734 C -24.670442581176758 27.662113189697266 -22.203523635864258 2.1847171783447266 -15.532434463500977 26.60692024230957 C -30.1331729888916 44.87345886230469 -27.024520874023438 29.038606643676758 -31.533397674560547 18.579605102539062 C -44.70402908325195 41.09649658203125 -72.91380310058594 35.33290100097656 -67.47644805908203 54.02620315551758" stroke-width="6.0" fill="none" stroke="rgb(0, 0, 0)" stroke-opacity="1.0" stroke-linecap="round" stroke-linejoin="round"/>
    <path d="M 453.8719787597656 483.1176452636719 C 453.3705139160156 470.658203125 481.96697998046875 483.7882080078125 488.0273742675781 475.0078125 C 479.3433532714844 476.10260009765625 484.9830627441406 480.3005065917969 517.3248291015625 476.3870849609375 C 517.1404418945312 471.4483337402344 497.2344970703125 513.4509887695312 488.6997375488281 484.48333740234375 C 478.97161865234375 452.2675476074219 491.4864501953125 450.9888610839844 517.2968139648438 454.6606750488281 C 534.7882690429688 448.4980163574219 566.5437622070312 458.2386779785156 562.8118896484375 448.465087890625" stroke-width="6.0" fill="none" stroke="rgb(0, 0, 0)" stroke-opacity="1.0" stroke-linecap="round" stroke-linejoin="round"/>
    <path d="M 241.53868103027344 228.25906372070312 C 229.5397491455078 224.63168334960938 231.99044799804688 196.59530639648438 193.3997344970703 225.97683715820312 C 168.88909912109375 203.54588317871094 206.7888946533203 199.86083984375 215.11460876464844 195.512451171875 C 244.93089294433594 231.06504821777344 232.7238311767578 231.24652099609375 199.37960815429688 251.7706298828125 C 209.51547241210938 240.7887725830078 228.00184631347656 266.5841369628906 202.9381103515625 273.6977844238281 C 188.61257934570312 287.4560546875 191.17398071289062 285.2947692871094 206.2986602783203 272.74212646484375" stroke-width="6.0" fill="none" stroke="rgb(0, 0, 0)" stroke-opacity="1.0" stroke-linecap="round" stroke-linejoin="round"/>
    <path d="M 327.73876953125 164.001708984375 C 347.66387939453125 177.18154907226562 344.9564208984375 193.4048614501953 358.6636047363281 192.73414611816406 C 366.20013427734375 171.28851318359375 354.2913513183594 154.80426025390625 353.8794860839844 150.89732360839844 C 365.8622741699219 113.45533752441406 345.6554260253906 97.20696258544922 365.5617370605469 127.81278228759766 C 364.94696044921875 147.136474609375 349.8002624511719 116.32425689697266 321.50714111328125 97.382080078125 C 284.5804748535156 126.49899291992188 284.9766540527344 108.55735778808594 286.0437927246094 122.70276641845703" stroke-width="6.0" fill="none" stroke="rgb(0, 0, 0)" stroke-opacity="1.0" stroke-linecap="round" stroke-linejoin="round"/>
    <path d="M 308.2149353027344 392.1551208496094 C 339.49700927734375 407.7783508300781 337.13153076171875 389.53094482421875 365.4263000488281 358.85040283203125 C 366.41412353515625 319.0388488769531 353.72998046875 326.8288879394531 333.6116943359375 308.550048828125 C 308.3254699707031 324.8007507324219 303.3769226074219 322.58843994140625 284.9997253417969 313.9834289550781 C 342.94927978515625 317.6348571777344 324.2222900390625 299.2090148925781 299.7125549316406 308.59442138671875 C 313.2834777832031 275.3413391113281 304.5227355957031 268.4524841308594 325.6601257324219 224.37893676757812" stroke-width="6.0" fill="none" stroke="rgb(0, 0, 0)" stroke-opacity="1.0" stroke-linecap="round" stroke-linejoin="round"/>
    <path d="M 158.49806213378906 447.1139221191406 C 165.1566925048828 452.8883056640625 154.33396911621094 465.53277587890625 162.66363525390625 447.16497802734375 C 147.91677856445312 491.54388427734375 175.96470642089844 485.77642822265625 161.10951232910156 501.0478210449219 C 180.93104553222656 479.0585632324219 196.61703491210938 472.0717468261719 223.81393432617188 480.8694152832031 C 216.21994018554688 503.36004638671875 197.52987670898438 522.896728515625 177.28988647460938 499.00665283203125 C 214.5076141357422 472.8982849121094 183.22349548339844 468.54705810546875 208.66526794433594 483.9018249511719" stroke-width="6.0" fill="none" stroke="rgb(0, 0, 0)" stroke-opacity="1.0" stroke-linecap="round" stroke-linejoin="round"/>
    <path d="M 562.4295654296875 313.1267395019531 C 554.2984619140625 309.2946472167969 578.8302612304688 332.248291015625 574.8015747070312 323.14990234375 C 566.0291748046875 347.72076416015625 559.3029174804688 343.3597106933594 564.3121948242188 357.9622802734375 C 564.7930908203125 339.3371887207031 554.2212524414062 343.0579528808594 549.227783203125 333.81390380859375 C 572.1666259765625 298.7760009765625 568.6508178710938 302.7650146484375 573.441162109375 296.3900451660156 C 587.9935913085938 279.40740966796875 602.7346801757812 317.0533447265625 620.1034545898438 299.8140563964844" stroke-width="6.0" fill="none" stroke="rgb(0, 0, 0)" stroke-opacity="1.0" stroke-linecap="round" stroke-linejoin="round"/>
    <path d="M 181.04051208496094 446.835693359375 C 169.77247619628906 427.22100830078125 142.3491973876953 419.37994384765625 148.26251220703125 411.077392578125 C 159.45262145996094 390.1239929199219 127.47889709472656 367.5464782714844 118.93878936767578 358.23883056640625 C 100.29365539550781 376.8975524902344 76.25141906738281 399.82373046875 50.287967681884766 421.5609436035156 C 39.681766510009766 429.5861511230469 41.783409118652344 423.4651184082031 18.77910804748535 399.2813720703125 C 27.59375762939453 398.62786865234375 13.50687313079834 403.0579833984375 -1.3844913244247437 384.5114440917969" stroke-width="6.0" fill="none" stroke="rgb(0, 0, 0)" stroke-opacity="1.0" stroke-linecap="round" stroke-linejoin="round"/>
    <path d="M 396.35198974609375 32.43601608276367 C 389.6361083984375 19.13031578063965 397.96588134765625 39.07534408569336 396.3122863769531 31.226055145263672 C 398.0606384277344 18.809343338012695 399.8526611328125 28.15491485595703 381.5554504394531 2.1323843002319336 C 391.63873291015625 -26.761680603027344 412.9957275390625 -13.188695907592773 439.3374938964844 -28.261682510375977 C 467.1369934082031 -44.00921630859375 475.2712097167969 -66.70234680175781 493.5873718261719 -91.80517578125 C 518.9058837890625 -100.47685241699219 524.3587646484375 -78.44096374511719 517.2758178710938 -90.08749389648438" stroke-width="6.0" fill="none" stroke="rgb(0, 0, 0)" stroke-opacity="1.0" stroke-linecap="round" stroke-linejoin="round"/>
    <path d="M 442.2535400390625 186.8018035888672 C 447.0523376464844 169.95309448242188 460.1374206542969 178.6006317138672 470.493408203125 188.95216369628906 C 465.6652526855469 184.8408660888672 450.9192199707031 171.41392517089844 445.13433837890625 179.56680297851562 C 438.8553771972656 193.82330322265625 443.3532409667969 184.33517456054688 438.30731201171875 200.72657775878906 C 445.1156005859375 213.31874084472656 438.358642578125 203.1830596923828 440.1580505371094 209.27391052246094 C 444.7835693359375 203.1368408203125 434.04656982421875 208.69056701660156 440.7308349609375 190.9102325439453" stroke-width="6.0" fill="none" stroke="rgb(0, 0, 0)" stroke-opacity="1.0" stroke-linecap="round" stroke-linejoin="round"/>
    <path d="M 320.779541015625 294.4851989746094 C 335.61859130859375 301.923828125 335.7132263183594 322.3015441894531 373.2388916015625 359.1904602050781 C 342.9951477050781 343.983642578125 353.5130920410156 333.2508850097656 331.15997314453125 337.963134765625 C 357.92108154296875 321.02734375 329.1375427246094 337.2153625488281 346.5479431152344 324.2657470703125 C 373.4783020019531 311.14483642578125 343.41180419921875 279.83587646484375 355.7323303222656 254.03179931640625 C 361.1215515136719 299.3311462402344 361.0465087890625 288.6255798339844 330.1395263671875 248.2692108154297" stroke-width="6.0" fill="none" stroke="rgb(0, 0, 0)" stroke-opacity="1.0" stroke-linecap="round" stroke-linejoin="round"/>
    <path d="M 177.58970642089844 569.4310913085938 C 192.92762756347656 586.083740234375 178.86659240722656 576.814453125 184.13729858398438 579.5574340820312 C 195.21665954589844 580.786865234375 161.39747619628906 556.7715454101562 150.14285278320312 543.88330078125 C 192.56517028808594 556.7573852539062 188.61135864257812 531.8994140625 199.41647338867188 516.4043579101562 C 219.07620239257812 500.43011474609375 253.8711395263672 523.7438354492188 235.90582275390625 551.4110107421875 C 244.85166931152344 560.624755859375 226.66256713867188 572.8391723632812 240.30873107910156 584.9611206054688" stroke-width="6.0" fill="none" stroke="rgb(0, 0, 0)" stroke-opacity="1.0" stroke-linecap="round" stroke-linejoin="round"/>
    <path d="M 310.8006286621094 527.4196166992188 C 299.9784240722656 530.2247924804688 318.1540832519531 541.633544921875 307.1990966796875 529.9688720703125 C 322.4595947265625 529.0894165039062 297.994384765625 493.5277404785156 291.6257019042969 509.4596252441406 C 285.4264221191406 546.6292114257812 290.3675537109375 518.037841796875 310.1381530761719 534.3421630859375 C 303.4777526855469 581.67138671875 272.3439636230469 565.65380859375 263.16314697265625 546.2167358398438 C 245.1494598388672 528.4539184570312 267.6101989746094 509.9683532714844 255.12432861328125 528.9138793945312" stroke-width="6.0" fill="none" stroke="rgb(0, 0, 0)" stroke-opacity="1.0" stroke-linecap="round" stroke-linejoin="round"/>
    <path d="M 161.54464721679688 531.9234619140625 C 179.04136657714844 512.9472045898438 189.20028686523438 507.3233337402344 206.2627716064453 496.0658874511719 C 167.64761352539062 520.0735473632812 138.5662841796875 495.4213562011719 137.72259521484375 485.32305908203125 C 141.4947967529297 440.7644348144531 151.55532836914062 411.5530090332031 152.45291137695312 421.87591552734375 C 144.9055938720703 424.2165832519531 161.12228393554688 420.64404296875 145.80506896972656 414.630859375 C 134.03982543945312 423.79254150390625 113.13577270507812 445.64910888671875 110.5503158569336 448.3046569824219" stroke-width="6.0" fill="none" stroke="rgb(0, 0, 0)" stroke-opacity="1.0" stroke-linecap="round" stroke-linejoin="round"/>
    <path d="M 225.04981994628906 559.2894287109375 C 212.5184326171875 571.4429931640625 207.23098754882812 578.3722534179688 223.5078582763672 559.8277587890625 C 245.02879333496094 543.7096557617188 263.11651611328125 539.185791015625 257.493896484375 539.1238403320312 C 261.3814697265625 542.5042724609375 262.0046081542969 533.9019165039062 240.6167755126953 549.8222045898438 C 232.92059326171875 524.2938842773438 251.14907836914062 501.0079650878906 242.10244750976562 513.27734375 C 245.7651824951172 500.3733825683594 260.4044189453125 500.91015625 292.1786193847656 506.4299621582031" stroke-width="6.0" fill="none" stroke="rgb(0, 0, 0)" stroke-opacity="1.0" stroke-linecap="round" stroke-linejoin="round"/>
    <path d="M 487.3397521972656 120.56755065917969 C 509.2317810058594 151.70054626464844 491.13726806640625 136.4050750732422 463.6546325683594 151.13075256347656 C 480.84503173828125 146.1437225341797 496.7677001953125 112.41454315185547 482.9548034667969 70.30999755859375 C 459.0096435546875 51.2254753112793 466.87384033203125 54.38170623779297 452.38641357421875 53.08396911621094 C 471.53924560546875 45.17295837402344 468.1405334472656 33.794620513916016 492.62860107421875 26.272314071655273 C 461.9620361328125 42.53302001953125 468.3131103515625 40.769893646240234 482.05084228515625 31.51604652404785" stroke-width="6.0" fill="none" stroke="rgb(0, 0, 0)" stroke-opacity="1.0" stroke-linecap="round" stroke-linejoin="round"/>
    <path d="M 501.164306640625 502.2799377441406 C 522.6188354492188 517.597412109375 476.56390380859375 517.2307739257812 506.8404846191406 535.9837646484375 C 519.6442260742188 509.7020263671875 553.1744384765625 504.0965270996094 549.7376708984375 533.2168579101562 C 547.8782348632812 555.040283203125 542.9351196289062 547.3839721679688 540.4119262695312 543.5111694335938 C 552.4612426757812 563.83154296875 551.3270874023438 511.871337890625 546.3663940429688 486.5992431640625 C 516.5426025390625 471.67059326171875 517.0231323242188 450.06158447265625 515.4366455078125 456.0701904296875" stroke-width="6.0" fill="none" stroke="rgb(0, 0, 0)" stroke-opacity="1.0" stroke-linecap="round" stroke-linejoin="round"/>
    <path d="M 341.83062744140625 603.1455688476562 C 360.0262145996094 616.653076171875 367.9057922363281 614.1112060546875 378.27093505859375 628.642822265625 C 372.2342834472656 651.4337768554688 368.8701477050781 633.1619262695312 384.9634094238281 632.4954223632812 C 355.39019775390625 609.433349609375 345.52874755859375 620.10302734375 321.28125 648.0068969726562 C 331.8368835449219 630.343017578125 350.33935546875 644.1524658203125 371.34222412109375 614.4285888671875 C 399.3269348144531 609.869140625 389.746826171875 610.3723754882812 401.0184326171875 632.42138671875" stroke-width="6.0" fill="none" stroke="rgb(0, 0, 0)" stroke-opacity="1.0" stroke-linecap="round" stroke-linejoin="round"/>
    <path d="M 411.5296630859375 263.7815246582031 C 399.0356140136719 289.3680419921875 393.9062805175781 299.9713439941406 384.63763427734375 321.0294494628906 C 384.6792297363281 338.79583740234375 395.1275329589844 348.7188720703125 417.6872863769531 365.2606201171875 C 438.8529052734375 386.8050537109375 467.0712890625 411.2367858886719 454.481689453125 400.2345886230469 C 458.92205810546875 397.34881591796875 449.4050598144531 398.7001647949219 456.2112121582031 400.886474609375 C 480.73712158203125 423.4180908203125 472.8288879394531 423.3828430175781 488.1307373046875 402.6946105957031" stroke-width="6.0" fill="none" stroke="rgb(0, 0, 0)" stroke-opacity="1.0" stroke-linecap="round" stroke-linejoin="round"/>
    <path d="M 202.9146728515625 267.2322082519531 C 204.07237243652344 269.7308654785156 201.77108764648438 265.10992431640625 193.55307006835938 257.329833984375 C 153.0265350341797 253.08433532714844 160.8278045654297 263.2325134277344 147.99049377441406 273.5666198730469 C 131.83949279785156 245.86456298828125 110.9869613647461 251.99375915527344 98.24983215332031 276.1060485839844 C 77.07941436767578 273.0089111328125 88.48454284667969 259.68194580078125 107.64900970458984 251.93435668945312 C 111.01313018798828 243.98561096191406 107.40446472167969 246.13201904296875 114.93603515625 243.8457489013672" stroke-width="6.0" fill="none" stroke="rgb(0, 0, 0)" stroke-opacity="1.0" stroke-linecap="round" stroke-linejoin="round"/>
    <path d="M 12.189046859741211 261.424072265625 C 36.493961334228516 248.5269012451172 54.2021484375 219.06240844726562 78.71868896484375 229.2801971435547 C 79.44369506835938 227.6659393310547 64.9549789428711 225.5059051513672 80.6717529296875 228.66091918945312 C 66.08448791503906 238.9164581298828 52.9910888671875 247.66342163085938 36.4298095703125 258.9219970703125 C 6.805614471435547 281.5662841796875 33.706912994384766 240.24830627441406 25.098251342773438 234.97756958007812 C 39.8089714050293 263.3534851074219 15.352638244628906 227.53001403808594 31.15574073791504 210.68612670898438" stroke-width="6.0" fill="none" stroke="rgb(0, 0, 0)" stroke-opacity="1.0" stroke-linecap="round" stroke-linejoin="round"/>
    <path d="M 478.7540588378906 417.171630859375 C 484.842529296875 405.4690856933594 472.4353942871094 430.65423583984375 473.6395568847656 418.8033447265625 C 458.83404541015625 403.4363098144531 460.00408935546875 406.3912048339844 445.15521240234375 392.4320068359375 C 434.281494140625 383.48309326171875 437.11456298828125 386.2681884765625 467.45806884765625 412.0218811035156 C 462.5996398925781 406.3310852050781 436.49383544921875 389.70281982421875 447.093505859375 388.6860656738281 C 435.40228271484375 397.91259765625 443.0065612792969 391.5296325683594 441.53790283203125 393.47698974609375" stroke-width="6.0" fill="none" stroke="rgb(0, 0, 0)" stroke-opacity="1.0" stroke-linecap="round" stroke-linejoin="round"/>
    <path d="M 478.6515808105469 418.9288635253906 C 484.16168212890625 400.5601501464844 516.3972778320312 384.9317626953125 478.85150146484375 369.00604248046875 C 480.5181884765625 340.0446472167969 496.197509765625 312.0158996582031 518.1991577148438 301.24029541015625 C 522.833984375 340.4891052246094 505.7431640625 360.1870422363281 506.2195739746094 356.35638427734375 C 483.908203125 348.93121337890625 474.8782958984375 372.85107421875 461.072998046875 352.58087158203125 C 443.98883056640625 348.3494873046875 466.7959899902344 337.15252685546875 467.97149658203125 331.47821044921875" stroke-width="6.0" fill="none" stroke="rgb(0, 0, 0)" stroke-opacity="1.0" stroke-linecap="round" stroke-linejoin="round"/>
    <path d="M 351.4033508300781 527.8040771484375 C 328.9746398925781 533.8324584960938 311.62799072265625 541.4984741210938 325.338623046875 528.2281494140625 C 289.8439025878906 534.2357788085938 262.61810302734375 529.1497192382812 270.0075988769531 530.0220336914062 C 287.5690612792969 511.2350158691406 266.98284912109375 526.174560546875 284.339111328125 526.911865234375 C 247.83303833007812 513.2659301757812 223.58663940429688 531.1649780273438 218.59573364257812 511.3212585449219 C 208.76278686523438 488.3004150390625 190.91973876953125 483.5922546386719 167.87066650390625 503.3451232910156" stroke-width="6.0" fill="none" stroke="rgb(0, 0, 0)" stroke-opacity="1.0" stroke-linecap="round" stroke-linejoin="round"/>
    <path d="M 328.9293518066406 177.522216796875 C 331.5540771484375 175.24588012695312 356.5530090332031 210.8328857421875 339.3076477050781 232.8203887939453 C 338.5674743652344 173.7819061279297 355.5350036621094 165.32749938964844 365.4644470214844 171.45594787597656 C 357.49200439453125 173.04217529296875 366.1466979980469 130.39576721191406 368.0162353515625 106.65161895751953 C 366.0500793457031 114.79529571533203 343.0243225097656 87.17254638671875 350.17034912109375 72.25389099121094 C 346.80609130859375 94.78074645996094 333.46624755859375 96.0771713256836 340.6942138671875 89.13194274902344" stroke-width="6.0" fill="none" stroke="rgb(0, 0, 0)" stroke-opacity="1.0" stroke-linecap="round" stroke-linejoin="round"/>
    <path d="M 10.735689163208008 144.48583984375 C 21.030399322509766 144.94927978515625 15.881091117858887 160.00881958007812 11.515438079833984 141.11732482910156 C 23.714563369750977 164.25274658203125 46.85401153564453 173.23460388183594 44.86417007446289 191.3564453125 C 49.78627014160156 180.48768615722656 67.4143295288086 179.22633361816406 85.20073699951172 162.67141723632812 C 94.32500457763672 155.04054260253906 125.20172882080078 140.73568725585938 150.7644500732422 124.14166259765625 C 177.1468048095703 107.96794128417969 176.43789672851562 126.24169158935547 199.17909240722656 164.2561492919922" stroke-width="6.0" fill="none" stroke="rgb(0, 0, 0)" stroke-opacity="1.0" stroke-linecap="round" stroke-linejoin="round"/>
    <path d="M 545.3762817382812 331.5329284667969 C 556.6712646484375 345.57281494140625 579.435546875 341.3622131347656 550.7179565429688 388.7959289550781 C 567.9566040039062 360.9595642089844 564.7578735351562 354.5930480957031 563.0215454101562 344.6670227050781 C 545.5773315429688 336.0147399902344 546.7854614257812 334.44500732421875 571.0486450195312 298.1479797363281 C 593.4889526367188 313.7034606933594 610.5226440429688 326.8511047363281 612.6239624023438 337.7821960449219 C 605.5323486328125 320.7107238769531 633.0960083007812 340.0619812011719 613.0039672851562 324.8152160644531" stroke-width="6.0" fill="none" stroke="rgb(0, 0, 0)" stroke-opacity="1.0" stroke-linecap="round" stroke-linejoin="round"/>
    <path d="M 499.1279296875 225.6056671142578 C 490.00079345703125 220.01644897460938 482.1084899902344 216.1041259765625 490.3965148925781 186.7172088623047 C 479.3857116699219 222.3224639892578 503.08001708984375 242.46209716796875 522.8922119140625 215.4889678955078 C 509.89996337890625 172.29269409179688 530.4150390625 176.4246826171875 516.5999755859375 169.9710693359375 C 530.2742309570312 151.31605529785156 500.60137939453125 124.04248046875 489.07373046875 147.71295166015625 C 464.5122375488281 137.6321563720703 484.4411926269531 148.8347625732422 503.3084716796875 139.70054626464844" stroke-width="6.0" fill="none" stroke="rgb(0, 0, 0)" stroke-opacity="1.0" stroke-linecap="round" stroke-linejoin="round"/>
    <path d="M 540.0903930664062 186.23472595214844 C 562.4894409179688 202.00692749023438 540.1526489257812 182.23504638671875 564.4204711914062 204.7993621826172 C 549.8478393554688 198.2441864013672 563.9607543945312 187.03628540039062 566.1129760742188 189.26747131347656 C 581.9359741210938 203.53765869140625 604.410888671875 210.09759521484375 608.2676391601562 222.48812866210938 C 602.2711791992188 226.92750549316406 610.5562744140625 216.5725555419922 612.1322631835938 192.87123107910156 C 633.613525390625 195.01828002929688 632.774658203125 216.592041015625 614.0423583984375 217.5052490234375" stroke-width="6.0" fill="none" stroke="rgb(0, 0, 0)" stroke-opacity="1.0" stroke-linecap="round" stroke-linejoin="round"/>
    <path d="M 105.45220947265625 562.1486206054688 C 112.35980224609375 576.52197265625 119.94247436523438 543.569091796875 113.55034637451172 564.1836547851562 C 113.76783752441406 564.8494873046875 108.90381622314453 568.2432861328125 113.6680908203125 569.72265625 C 103.2895736694336 558.4816284179688 74.45494079589844 533.1822509765625 83.83177947998047 540.8291625976562 C 84.34172821044922 553.26318359375 84.38409423828125 582.5291748046875 81.36609649658203 593.0577392578125 C 81.48394775390625 609.4496459960938 70.21375274658203 627.6477661132812 84.16499328613281 626.7137451171875" stroke-width="6.0" fill="none" stroke="rgb(0, 0, 0)" stroke-opacity="1.0" stroke-linecap="round" stroke-linejoin="round"/>
    <path d="M 176.49647521972656 440.0228576660156 C 192.27711486816406 463.1612243652344 196.91549682617188 473.2787170410156 183.77096557617188 450.5436706542969 C 174.9120635986328 436.6607971191406 162.48243713378906 422.84173583984375 155.03585815429688 429.06884765625 C 163.272705078125 422.0309753417969 181.10707092285156 439.349365234375 198.58175659179688 478.4068908691406 C 203.1552734375 473.31646728515625 198.0939483642578 493.41522216796875 190.24819946289062 500.3825988769531 C 207.64291381835938 495.6424560546875 228.40335083007812 487.4466552734375 235.29345703125 473.6562194824219" stroke-width="6.0" fill="none" stroke="rgb(0, 0, 0)" stroke-opacity="1.0" stroke-linecap="round" stroke-linejoin="round"/>
    <path d="M 302.27923583984375 283.1337890625 C 290.660888671875 320.2163391113281 280.9533996582031 348.0372009277344 269.0513916015625 335.9465637207031 C 277.26849365234375 341.67413330078125 282.2148132324219 360.3273620605469 274.9314880371094 372.7044372558594 C 264.2443542480469 344.426025390625 239.43988037109375 318.4118347167969 237.54905700683594 316.5527038574219 C 262.919677734375 346.3734130859375 258.1740417480469 339.8514404296875 240.02655029296875 348.3979797363281 C 267.4590148925781 375.47833251953125 241.77357482910156 372.1031799316406 234.59901428222656 385.3426513671875" stroke-width="6.0" fill="none" stroke="rgb(0, 0, 0)" stroke-opacity="1.0" stroke-linecap="round" stroke-linejoin="round"/>
    <path d="M 473.2315368652344 378.6732482910156 C 463.491455078125 371.6751403808594 461.06097412109375 350.3608703613281 497.483154296875 380.703857421875 C 496.1001892089844 393.078125 493.7747802734375 406.0526428222656 476.34423828125 381.04803466796875 C 489.6021423339844 401.6308288574219 518.9656372070312 414.446533203125 526.5346069335938 405.5513916015625 C 493.5175476074219 380.1848449707031 476.2164611816406 361.68096923828125 461.9515380859375 356.0940856933594 C 446.4396667480469 367.24420166015625 472.85076904296875 376.0254211425781 465.49688720703125 371.63177490234375" stroke-width="6.0" fill="none" stroke="rgb(0, 0, 0)" stroke-opacity="1.0" stroke-linecap="round" stroke-linejoin="round"/>
    <path d="M 223.6681671142578 327.5965881347656 C 249.78890991210938 312.40838623046875 247.26864624023438 296.20538330078125 263.568115234375 328.00994873046875 C 289.4013366699219 362.8673400878906 279.7572021484375 382.73974609375 290.63336181640625 365.23907470703125 C 297.1203918457031 376.328857421875 313.7274475097656 391.8727722167969 323.0877685546875 397.45361328125 C 347.8771667480469 398.2591857910156 362.72088623046875 390.1689147949219 325.6193542480469 415.739990234375 C 350.3917541503906 398.88494873046875 334.9044494628906 406.9355773925781 300.0434265136719 391.69024658203125" stroke-width="6.0" fill="none" stroke="rgb(0, 0, 0)" stroke-opacity="1.0" stroke-linecap="round" stroke-linejoin="round"/>
    <path d="M 272.7799377441406 217.04730224609375 C 274.595703125 219.45252990722656 262.3017883300781 202.09754943847656 265.74609375 206.2567901611328 C 274.37579345703125 191.10166931152344 279.5483093261719 207.24887084960938 296.05657958984375 217.5015869140625 C 320.1828308105469 245.73696899414062 331.3734436035156 244.94100952148438 330.4706726074219 268.6309814453125 C 361.4945068359375 301.2362976074219 358.4471435546875 322.1226501464844 324.6851501464844 283.9898681640625 C 326.6666564941406 293.3368225097656 332.2218322753906 291.280517578125 304.4221496582031 276.6570739746094" stroke-width="6.0" fill="none" stroke="rgb(0, 0, 0)" stroke-opacity="1.0" stroke-linecap="round" stroke-linejoin="round"/>
    <path d="M 117.26676177978516 6.443238258361816 C 116.71185302734375 -2.496624231338501 122.86087036132812 -19.404998779296875 133.6731414794922 -35.902244567871094 C 117.48468780517578 -30.99119758605957 102.06432342529297 -25.745065689086914 83.16077423095703 -55.59872817993164 C 93.30744171142578 -71.42648315429688 96.93842315673828 -74.5737075805664 77.11200714111328 -65.28070831298828 C 104.23564910888672 -61.70484924316406 111.13195037841797 -60.012046813964844 98.13153839111328 -33.66434860229492 C 99.3155288696289 -18.502914428710938 94.04837799072266 -21.33456802368164 88.2992172241211 -6.470696449279785" stroke-width="6.0" fill="none" stroke="rgb(0, 0, 0)" stroke-opacity="1.0" stroke-linecap="round" stroke-linejoin="round"/>
    <path d="M 167.9765167236328 521.1871337890625 C 131.27183532714844 486.88604736328125 127.58488464355469 474.25921630859375 106.7464599609375 454.4400939941406 C 105.61531829833984 458.7840881347656 102.510009765625 449.7590026855469 130.17613220214844 429.5145568847656 C 110.0888671875 408.9283142089844 110.58917999267578 409.0378112792969 126.56085968017578 426.1380310058594 C 137.86424255371094 432.7371826171875 128.71847534179688 425.7761535644531 138.8154754638672 433.67120361328125 C 150.22085571289062 439.26251220703125 140.43826293945312 440.7569580078125 151.16148376464844 419.8516540527344" stroke-width="6.0" fill="none" stroke="rgb(0, 0, 0)" stroke-opacity="1.0" stroke-linecap="round" stroke-linejoin="round"/>
    <path d="M 342.52825927734375 185.44473266601562 C 336.81427001953125 190.36024475097656 321.79449462890625 215.3716278076172 313.6400451660156 242.76063537597656 C 360.5218505859375 251.23915100097656 356.3363952636719 231.23887634277344 359.3905334472656 192.69813537597656 C 364.2327575683594 204.2596893310547 352.9518737792969 212.0804901123047 328.2178649902344 180.41864013671875 C 322.0290222167969 203.8280487060547 331.26910400390625 231.92333984375 354.8245544433594 239.80921936035156 C 348.84619140625 269.39227294921875 347.3398132324219 265.3213806152344 357.8332824707031 246.7940673828125" stroke-width="6.0" fill="none" stroke="rgb(0, 0, 0)" stroke-opacity="1.0" stroke-linecap="round" stroke-linejoin="round"/>
    <path d="M 583.2586669921875 75.05853271484375 C 603.92578125 52.64190673828125 583.868408203125 72.0573959350586 572.9140625 85.91804504394531 C 573.63427734375 93.05967712402344 574.7020874023438 84.67576599121094 583.254150390625 74.95967864990234 C 600.9638671875 55.7326545715332 598.2499389648438 58.78873062133789 606.3309326171875 50.02134323120117 C 624.26611328125 53.0267219543457 601.7152099609375 49.40116882324219 601.8892211914062 37.98545455932617 C 614.9081420898438 47.558258056640625 611.4149780273438 40.212162017822266 595.4315795898438 36.412757873535156" stroke-width="6.0" fill="none" stroke="rgb(0, 0, 0)" stroke-opacity="1.0" stroke-linecap="round" stroke-linejoin="round"/>
    <path d="M 208.27908325195312 368.90679931640625 C 209.6317138671875 366.27886962890625 185.98733520507812 397.1388244628906 213.71316528320312 410.1573791503906 C 245.0670928955078 413.2746887207031 230.22616577148438 437.8434753417969 217.077392578125 447.44476318359375 C 184.2342987060547 469.16302490234375 172.167236328125 495.0018005371094 163.11683654785156 489.0475158691406 C 162.46910095214844 483.96630859375 152.27236938476562 477.77435302734375 161.98597717285156 449.48907470703125 C 149.47640991210938 442.30682373046875 150.63731384277344 436.843017578125 130.08456420898438 447.9865417480469" stroke-width="6.0" fill="none" stroke="rgb(0, 0, 0)" stroke-opacity="1.0" stroke-linecap="round" stroke-linejoin="round"/>
    <path d="M 198.68727111816406 533.3786010742188 C 222.3603973388672 508.21124267578125 216.78172302246094 501.38470458984375 240.63035583496094 486.4918518066406 C 234.0100555419922 485.5111083984375 215.2513885498047 471.202880859375 197.72389221191406 462.90313720703125 C 197.4971923828125 453.3184814453125 219.83963012695312 439.3373107910156 248.6630401611328 401.7790222167969 C 245.1577911376953 389.23248291015625 225.66908264160156 373.7138366699219 235.94406127929688 383.9024658203125 C 211.01123046875 354.238525390625 198.25917053222656 333.71441650390625 183.76170349121094 318.1129455566406" stroke-width="6.0" fill="none" stroke="rgb(0, 0, 0)" stroke-opacity="1.0" stroke-linecap="round" stroke-linejoin="round"/>
    <path d="M 334.91119384765625 513.8218383789062 C 330.58673095703125 517.3204345703125 342.19671630859375 504.46746826171875 387.95367431640625 512.818359375 C 384.2052307128906 487.8328857421875 362.6276550292969 470.8495178222656 371.9552307128906 436.06976318359375 C 345.95062255859375 474.2040710449219 358.9649658203125 486.8554992675781 356.7169189453125 468.21221923828125 C 336.0347595214844 457.09124755859375 302.50994873046875 443.63787841796875 261.3213806152344 445.7041320800781 C 297.4652099609375 456.28656005859375 332.1737060546875 455.8259582519531 340.0174560546875 465.3360900878906" stroke-width="6.0" fill="none" stroke="rgb(0, 0, 0)" stroke-opacity="1.0" stroke-linecap="round" stroke-linejoin="round"/>
    <path d="M 355.4908752441406 216.42372131347656 C 346.2001953125 170.0585174560547 327.4881896972656 183.2841796875 323.548095703125 210.7082977294922 C 331.8385925292969 186.35177612304688 356.5975646972656 181.4492645263672 344.888427734375 171.8511199951172 C 353.2500915527344 192.4466094970703 352.57830810546875 215.5871124267578 358.5794372558594 180.81961059570312 C 343.45892333984375 161.95692443847656 349.5143127441406 140.42852783203125 362.74017333984375 100.59909057617188 C 351.7682189941406 108.55306243896484 344.5435791015625 134.15841674804688 334.39971923828125 156.416015625" stroke-width="6.0" fill="none" stroke="rgb(0, 0, 0)" stroke-opacity="1.0" stroke-linecap="round" stroke-linejoin="round"/>
    <path d="M 184.28280639648438 258.5567932128906 C 207.62672424316406 250.5032501220703 191.07830810546875 217.6188507080078 165.50439453125 187.36940002441406 C 157.1966094970703 174.4582977294922 166.5659637451172 175.04551696777344 192.88970947265625 157.94351196289062 C 181.3598175048828 134.25698852539062 173.55279541015625 126.62232971191406 173.31643676757812 118.43696594238281 C 163.1750030517578 111.17124938964844 153.53924560546875 88.52948760986328 141.94815063476562 71.88618469238281 C 130.0317840576172 49.95854949951172 127.10266876220703 60.717063903808594 98.89923858642578 65.34967041015625" stroke-width="6.0" fill="none" stroke="rgb(0, 0, 0)" stroke-opacity="1.0" stroke-linecap="round" stroke-linejoin="round"/>
    <path d="M 195.85275268554688 2.140306234359741 C 214.23194885253906 -5.76345157623291 235.46409606933594 7.3154497146606445 239.04855346679688 -0.291797012090683 C 237.1055450439453 0.6395745277404785 212.59628295898438 -2.7432985305786133 189.65098571777344 -28.05430793762207 C 162.4583740234375 -7.832343101501465 137.93695068359375 -14.848052024841309 159.8795623779297 -8.995171546936035 C 179.19020080566406 14.286391258239746 175.24017333984375 20.423303604125977 169.81619262695312 2.7517549991607666 C 170.707763671875 -2.566704750061035 187.38772583007812 -1.688857078552246 199.8377227783203 3.749152421951294" stroke-width="6.0" fill="none" stroke="rgb(0, 0, 0)" stroke-opacity="1.0" stroke-linecap="round" stroke-linejoin="round"/>
    <path d="M 422.0841369628906 582.7838745117188 C 435.84393310546875 571.8720092773438 436.6095886230469 542.4861450195312 437.7419128417969 538.7799682617188 C 418.5562744140625 512.2782592773438 419.2804870605469 486.1019287109375 399.0757751464844 482.5044860839844 C 387.54217529296875 497.15692138671875 405.1532897949219 504.7940673828125 420.8981018066406 528.8829956054688 C 420.6404724121094 498.948974609375 386.7409973144531 476.4624938964844 403.7796936035156 498.6460876464844 C 402.35260009765625 483.2144470214844 406.6931457519531 505.2816162109375 380.31884765625 512.9570922851562" stroke-width="6.0" fill="none" stroke="rgb(0, 0, 0)" stroke-opacity="1.0" stroke-linecap="round" stroke-linejoin="round"/>
    <path d="M 120.14379119873047 223.07223510742188 C 103.11502838134766 206.31703186035156 131.63584899902344 196.36412048339844 133.21942138671875 194.95986938476562 C 128.1640167236328 180.2681121826172 120.98529815673828 187.77374267578125 152.52993774414062 168.45664978027344 C 169.25885009765625 180.38995361328125 140.9945526123047 189.65675354003906 130.29800415039062 195.02720642089844 C 127.13795471191406 202.1040496826172 101.11917114257812 214.77076721191406 67.02960968017578 238.4092254638672 C 56.60502243041992 221.7032928466797 80.3655014038086 216.7054901123047 78.97953796386719 217.4061279296875" stroke-width="6.0" fill="none" stroke="rgb(0, 0, 0)" stroke-opacity="1.0" stroke-linecap="round" stroke-linejoin="round"/>
    <path d="M 335.62451171875 407.90069580078125 C 355.8377685546875 424.4256896972656 373.465576171875 439.2077941894531 378.8710021972656 450.76947021484375 C 380.17901611328125 468.8813171386719 370.5394287109375 459.39337158203125 354.26043701171875 449.1217346191406 C 354.8343811035156 410.9091491699219 363.7483215332031 410.2025451660156 376.907470703125 439.1124267578125 C 387.2492980957031 429.9520568847656 400.69580078125 408.9897766113281 373.915771484375 403.9584045410156 C 375.28759765625 402.0641174316406 348.4472961425781 396.1678466796875 357.8743896484375 367.390869140625" stroke-width="6.0" fill="none" stroke="rgb(0, 0, 0)" stroke-opacity="1.0" stroke-linecap="round" stroke-linejoin="round"/>
    <path d="M 437.23101806640625 65.3430404663086 C 436.0562744140625 67.35144805908203 422.89154052734375 74.58829498291016 406.7131652832031 89.67313385009766 C 413.6945495605469 102.71611785888672 401.93963623046875 81.54119873046875 412.3446044921875 92.77164459228516 C 441.2540588378906 112.26889038085938 468.5555114746094 133.03005981445312 453.23541259765625 123.20065307617188 C 462.642578125 129.28646850585938 479.1466064453125 144.09474182128906 511.800048828125 164.04397583007812 C 483.5718688964844 146.35350036621094 458.25738525390625 124.335205078125 462.7137756347656 130.0655975341797" stroke-width="6.0" fill="none" stroke="rgb(0, 0, 0)" stroke-opacity="1.0" stroke-linecap="round" stroke-linejoin="round"/>
    <path d="M 245.01686096191406 386.3111267089844 C 273.9994201660156 380.8788757324219 275.87249755859375 401.7336120605469 260.9135437011719 434.4979248046875 C 296.5248107910156 438.8269958496094 316.39154052734375 451.61541748046875 332.765625 431.41259765625 C 339.2876892089844 429.78582763671875 349.9858703613281 430.3206787109375 315.57666015625 448.18829345703125 C 356.90008544921875 442.375244140625 380.3559875488281 445.025634765625 351.2441101074219 426.011474609375 C 349.5589294433594 448.8869934082031 332.1309509277344 439.5109558105469 280.0751647949219 427.40478515625" stroke-width="6.0" fill="none" stroke="rgb(0, 0, 0)" stroke-opacity="1.0" stroke-linecap="round" stroke-linejoin="round"/>
    <path d="M 92.50598907470703 433.0064392089844 C 93.81232452392578 430.16595458984375 87.35027313232422 439.2536926269531 106.82745361328125 452.9095764160156 C 86.7914047241211 467.09295654296875 93.28734588623047 466.0092468261719 91.28563690185547 491.9951477050781 C 89.68650817871094 511.01953125 88.53246307373047 540.6207275390625 83.49246215820312 543.2493896484375 C 74.19654083251953 523.98193359375 84.72599792480469 543.8264770507812 70.81452941894531 528.8163452148438 C 58.64226531982422 512.2212524414062 39.896244049072266 512.9043579101562 30.56064224243164 527.0128173828125" stroke-width="6.0" fill="none" stroke="rgb(0, 0, 0)" stroke-opacity="1.0" stroke-linecap="round" stroke-linejoin="round"/>
    <path d="M 414.2948303222656 592.8501586914062 C 435.53338623046875 562.9970703125 430.0403137207031 580.6325073242188 452.85821533203125 608.865478515625 C 434.56195068359375 604.8740844726562 460.2093505859375 624.9086303710938 486.2344055175781 634.682373046875 C 504.0592041015625 648.518798828125 521.00537109375 655.107421875 512.1077270507812 628.0299682617188 C 503.523193359375 623.494873046875 518.3436279296875 646.251708984375 531.6923828125 641.2156982421875 C 530.0654296875 633.0020141601562 507.3042907714844 610.8450927734375 484.0846252441406 624.4613647460938" stroke-width="6.0" fill="none" stroke="rgb(0, 0, 0)" stroke-opacity="1.0" stroke-linecap="round" stroke-linejoin="round"/>
    <path d="M 174.8983917236328 257.3052673339844 C 198.12109375 253.4134979248047 190.0632781982422 252.742919921875 220.84774780273438 290.32879638671875 C 239.3994598388672 322.6085510253906 239.81784057617188 316.9471130371094 254.58790588378906 304.1814270019531 C 263.5083923339844 292.3797302246094 276.3942565917969 286.1777038574219 248.3321990966797 248.52255249023438 C 238.61402893066406 223.6980438232422 231.1501007080078 253.86993408203125 215.1072235107422 262.8545227050781 C 206.4576873779297 286.6145324707031 197.17776489257812 250.50302124023438 190.6038360595703 255.21353149414062" stroke-width="6.0" fill="none" stroke="rgb(0, 0, 0)" stroke-opacity="1.0" stroke-linecap="round" stroke-linejoin="round"/>
    <path d="M 112.68245697021484 215.0020751953125 C 118.11534881591797 197.0457763671875 106.16925048828125 220.04913330078125 103.95906829833984 200.2911376953125 C 97.3395767211914 200.36598205566406 69.29281616210938 219.6240997314453 75.04882049560547 213.5104217529297 C 62.090763092041016 202.92822265625 55.6134033203125 194.32627868652344 39.91962432861328 175.5623016357422 C 43.620426177978516 195.84524536132812 61.06150817871094 178.5122833251953 73.0409927368164 163.1249542236328 C 66.96306610107422 166.5757598876953 76.19094848632812 172.4889678955078 71.54300689697266 168.34884643554688" stroke-width="6.0" fill="none" stroke="rgb(0, 0, 0)" stroke-opacity="1.0" stroke-linecap="round" stroke-linejoin="round"/>
    <path d="M 279.31353759765625 345.27276611328125 C 250.7884063720703 315.2132568359375 252.64439392089844 306.47186279296875 255.1075897216797 299.7966003417969 C 247.93283081054688 320.9128112792969 274.4625549316406 330.1917724609375 275.748046875 346.83056640625 C 279.9491271972656 336.1797790527344 297.4532165527344 344.8251037597656 289.4319152832031 361.1356506347656 C 302.7846984863281 356.3025817871094 305.3492736816406 378.0928955078125 263.5981140136719 372.93206787109375 C 244.16171264648438 364.3752136230469 241.0348663330078 337.9945068359375 228.94996643066406 330.7422180175781" stroke-width="6.0" fill="none" stroke="rgb(0, 0, 0)" stroke-opacity="1.0" stroke-linecap="round" stroke-linejoin="round"/>
    <path d="M 315.8096008300781 429.2613830566406 C 270.1256103515625 415.02325439453125 265.01715087890625 428.7137451171875 248.840576171875 457.9387512207031 C 222.2476806640625 464.48480224609375 216.0368194580078 469.7900695800781 199.19775390625 487.8868103027344 C 223.490234375 482.1412658691406 219.1046905517578 476.1521911621094 251.42796325683594 460.801513671875 C 225.35543823242188 429.2228088378906 214.7883758544922 459.7577819824219 229.87286376953125 486.0385437011719 C 251.0430908203125 480.04571533203125 238.60531616210938 465.68267822265625 287.07794189453125 454.41986083984375" stroke-width="6.0" fill="none" stroke="rgb(0, 0, 0)" stroke-opacity="1.0" stroke-linecap="round" stroke-linejoin="round"/>
    <path d="M 550.1734619140625 391.7168884277344 C 548.831787109375 410.6854248046875 519.5219116210938 416.7544860839844 491.3075866699219 398.5196838378906 C 480.21441650390625 412.3233947753906 478.760986328125 416.2424621582031 470.3128662109375 429.9613037109375 C 448.5396728515625 459.0254211425781 430.44158935546875 485.3697814941406 440.3666687011719 472.51904296875 C 464.3556823730469 491.02838134765625 474.3919982910156 508.7971496582031 465.0245666503906 494.9115905761719 C 450.6195068359375 512.3864135742188 464.0575256347656 506.1100158691406 473.3134765625 527.7532958984375" stroke-width="6.0" fill="none" stroke="rgb(0, 0, 0)" stroke-opacity="1.0" stroke-linecap="round" stroke-linejoin="round"/>
    <path d="M 126.35134887695312 183.39666748046875 C 135.22015380859375 187.64381408691406 119.08715057373047 182.02377319335938 102.58264923095703 201.13197326660156 C 94.09127044677734 183.71990966796875 57.63779067993164 168.60626220703125 96.58857727050781 156.16293334960938 C 120.22872161865234 156.47080993652344 88.30709838867188 146.26153564453125 100.08252716064453 149.39828491210938 C 105.19090270996094 148.74717712402344 97.3305892944336 153.85165405273438 128.08282470703125 184.0025634765625 C 111.1525650024414 192.1741485595703 101.52725219726562 202.58541870117188 80.35957336425781 212.57699584960938" stroke-width="6.0" fill="none" stroke="rgb(0, 0, 0)" stroke-opacity="1.0" stroke-linecap="round" stroke-linejoin="round"/>
    <path d="M 338.33746337890625 -4.1022748947143555 C 363.567626953125 -21.039684295654297 360.0350646972656 -11.257824897766113 339.2923583984375 -16.972087860107422 C 362.7373046875 7.041312217712402 381.1657409667969 29.699098587036133 394.44287109375 15.429965019226074 C 403.7725830078125 32.766319274902344 381.9111022949219 8.592354774475098 396.2647399902344 19.909074783325195 C 396.05560302734375 45.678035736083984 383.36041259765625 56.711753845214844 396.5534362792969 32.5388069152832 C 377.8381042480469 21.171552658081055 364.8182067871094 34.21349334716797 361.8566589355469 22.586366653442383" stroke-width="6.0" fill="none" stroke="rgb(0, 0, 0)" stroke-opacity="1.0" stroke-linecap="round" stroke-linejoin="round"/>
    <path d="M 542.7849731445312 102.39653778076172 C 550.584716796875 106.30335235595703 542.192626953125 94.41735076904297 511.59991455078125 92.13520812988281 C 506.9060974121094 95.41858673095703 485.7041015625 112.22714233398438 507.8203125 96.0430679321289 C 494.786865234375 106.99702453613281 494.77667236328125 104.9144058227539 513.0636596679688 92.51538848876953 C 491.00164794921875 109.9979248046875 507.48095703125 85.0602035522461 539.9579467773438 101.15782928466797 C 561.9437866210938 109.57937622070312 569.913818359375 112.74485778808594 577.9288330078125 119.98621368408203" stroke-width="6.0" fill="none" stroke="rgb(0, 0, 0)" stroke-opacity="1.0" stroke-linecap="round" stroke-linejoin="round"/>
    <path d="M 335.2013854980469 347.2568054199219 C 343.94293212890625 323.84954833984375 362.9908752441406 328.0931701660156 342.2018127441406 344.7402038574219 C 384.91363525390625 370.35894775390625 370.72418212890625 368.0201721191406 351.2868957519531 365.22393798828125 C 331.5498046875 342.76226806640625 299.06298828125 316.3385314941406 281.76318359375 333.125 C 324.5887145996094 334.06976318359375 313.6542663574219 343.4994201660156 278.6174621582031 337.83929443359375 C 297.12078857421875 325.6528015136719 274.9970703125 348.4255065917969 295.90728759765625 367.71044921875" stroke-width="6.0" fill="none" stroke="rgb(0, 0, 0)" stroke-opacity="1.0" stroke-linecap="round" stroke-linejoin="round"/>
    <path d="M 4.866386413574219 264.27947998046875 C 35.38383102416992 242.25852966308594 39.76762390136719 239.66259765625 40.39542770385742 242.62774658203125 C 43.12653732299805 237.4250946044922 61.61149215698242 220.81619262695312 67.04476928710938 222.4929656982422 C 44.40071105957031 230.80438232421875 35.691017150878906 250.74449157714844 45.2647819519043 236.83847045898438 C 24.191631317138672 248.50120544433594 14.508673667907715 260.5364685058594 5.335164546966553 256.63079833984375 C 41.2068977355957 260.00689697265625 48.466407775878906 296.5339050292969 61.75945281982422 281.3493347167969" stroke-width="6.0" fill="none" stroke="rgb(0, 0, 0)" stroke-opacity="1.0" stroke-linecap="round" stroke-linejoin="round"/>
    <path d="M 87.48784637451172 72.17720031738281 C 101.96844482421875 88.33341979980469 78.63407135009766 61.45644760131836 63.261112213134766 36.34526824951172 C 37.482540130615234 38.5674934387207 50.173011779785156 42.72726821899414 83.4217529296875 21.404016494750977 C 75.8631362915039 14.233719825744629 72.9598617553711 -11.208342552185059 41.830665588378906 5.684278964996338 C 75.004150390625 47.158348083496094 75.75312042236328 67.50845336914062 61.60551834106445 26.37712287902832 C 45.5465202331543 47.39558410644531 31.14539909362793 43.078834533691406 14.001625061035156 57.19462966918945" stroke-width="6.0" fill="none" stroke="rgb(0, 0, 0)" stroke-opacity="1.0" stroke-linecap="round" stroke-linejoin="round"/>
    <path d="M 450.5979919433594 151.42825317382812 C 443.3684997558594 147.09747314453125 467.72161865234375 158.8226776123047 477.5814514160156 139.11170959472656 C 475.54412841796875 141.1863555908203 490.761474609375 149.1139678955078 504.6332092285156 160.41639709472656 C 512.5219116210938 163.18399047851562 520.9131469726562 172.05943298339844 514.6775512695312 167.93890380859375 C 506.84088134765625 156.6079559326172 510.5272216796875 168.33648681640625 524.9278564453125 175.32904052734375 C 512.1434326171875 152.95066833496094 520.7258911132812 139.89720153808594 499.6379699707031 140.61940002441406" stroke-width="6.0" fill="none" stroke="rgb(0, 0, 0)" stroke-opacity="1.0" stroke-linecap="round" stroke-linejoin="round"/>
    <path d="M 14.170796394348145 501.2662048339844 C 35.82564163208008 514.6331176757812 21.392139434814453 505.68707275390625 40.86549758911133 509.4856262207031 C 54.184165954589844 507.168212890625 36.61954879760742 524.1375732421875 16.210786819458008 541.76806640625 C 41.45193099975586 524.6211547851562 26.791061401367188 513.232421875 59.499046325683594 516.6154174804688 C 86.734130859375 545.3910522460938 87.79961395263672 536.8603515625 82.12228393554688 586.4827880859375 C 78.1895523071289 599.2490234375 80.64623260498047 604.1887817382812 82.29608917236328 582.8692016601562" stroke-width="6.0" fill="none" stroke="rgb(0, 0, 0)" stroke-opacity="1.0" stroke-linecap="round" stroke-linejoin="round"/>
    <path d="M 89.10069274902344 333.4902038574219 C 87.75680541992188 330.4428405761719 96.15066528320312 340.3127746582031 82.48368072509766 323.8324890136719 C 64.49617767333984 336.5771179199219 44.02288055419922 356.5438232421875 44.64365768432617 357.4393005371094 C 13.005586624145508 388.0539855957031 25.773143768310547 360.90771484375 20.919391632080078 370.82415771484375 C 19.44110107421875 387.0880126953125 24.987144470214844 371.6224670410156 17.694482803344727 380.01470947265625 C 28.130746841430664 359.6878662109375 6.6181464195251465 355.079833984375 -0.8043258190155029 347.79705810546875" stroke-width="6.0" fill="none" stroke="rgb(0, 0, 0)" stroke-opacity="1.0" stroke-linecap="round" stroke-linejoin="round"/>
    <path d="M 41.45627212524414 128.65065002441406 C 39.480430603027344 125.11776733398438 39.8769416809082 126.61605834960938 71.3899917602539 163.37425231933594 C 97.0105209350586 117.47463989257812 101.55033874511719 92.12559509277344 109.8937759399414 101.92243957519531 C 124.45686340332031 126.79025268554688 127.42652893066406 142.93003845214844 152.69442749023438 123.78485870361328 C 175.66847229003906 105.7281265258789 194.05459594726562 143.94154357910156 178.10781860351562 153.60641479492188 C 135.01612854003906 169.44778442382812 166.95787048339844 177.453125 168.28732299804688 188.63177490234375" stroke-width="6.0" fill="none" stroke="rgb(0, 0, 0)" stroke-opacity="1.0" stroke-linecap="round" stroke-linejoin="round"/>
    <path d="M 491.57470703125 325.8683166503906 C 501.0066223144531 309.5787048339844 484.8522644042969 336.6219177246094 485.1739807128906 338.5448913574219 C 487.8730773925781 353.0447998046875 465.5797424316406 318.2422180175781 437.8092956542969 303.58599853515625 C 424.97833251953125 289.3419189453125 413.44708251953125 306.745849609375 403.4844665527344 339.6563415527344 C 414.0092468261719 304.83807373046875 420.24322509765625 305.6370849609375 410.0107727050781 315.58575439453125 C 440.3028564453125 336.6690368652344 430.0478820800781 332.1088562011719 430.63824462890625 329.40972900390625" stroke-width="6.0" fill="none" stroke="rgb(0, 0, 0)" stroke-opacity="1.0" stroke-linecap="round" stroke-linejoin="round"/>
    <path d="M 558.3367919921875 199.64735412597656 C 532.3897094726562 172.85757446289062 520.5707397460938 190.4498291015625 546.30810546875 177.55894470214844 C 529.959716796875 181.33663940429688 541.6734008789062 195.06201171875 560.39599609375 193.69265747070312 C 589.265625 159.33523559570312 595.7425537109375 183.60308837890625 614.7244873046875 167.05902099609375 C 630.684814453125 166.5958251953125 611.6981811523438 145.5321502685547 594.0070190429688 169.17991638183594 C 591.3579711914062 173.5345458984375 597.028564453125 183.13877868652344 591.0580444335938 193.2621307373047" stroke-width="6.0" fill="none" stroke="rgb(0, 0, 0)" stroke-opacity="1.0" stroke-linecap="round" stroke-linejoin="round"/>
    <path d="M 408.140625 441.52093505859375 C 418.83294677734375 433.74169921875 400.3644714355469 451.6624755859375 377.6567077636719 432.2135314941406 C 392.72064208984375 460.9753112792969 384.4723205566406 479.93359375 394.7701721191406 489.798095703125 C 365.93145751953125 478.8193359375 382.5209045410156 466.4892272949219 405.3037109375 441.3188171386719 C 370.25787353515625 432.4015808105469 364.2782287597656 460.97320556640625 359.5487976074219 460.3128356933594 C 375.9772644042969 484.3616027832031 367.7743835449219 469.6755676269531 395.1343688964844 437.49224853515625" stroke-width="6.0" fill="none" stroke="rgb(0, 0, 0)" stroke-opacity="1.0" stroke-linecap="round" stroke-linejoin="round"/>
    <path d="M 480.1434326171875 311.63775634765625 C 490.5361022949219 289.27435302734375 505.7364501953125 271.43951416015625 542.1488037109375 281.7080078125 C 543.630615234375 309.2773132324219 518.3502197265625 318.21539306640625 513.5006713867188 333.7508544921875 C 470.6869812011719 297.1007995605469 431.7726135253906 293.7840270996094 460.9591064453125 267.2134094238281 C 490.4867248535156 274.4010314941406 475.6160583496094 279.5753173828125 460.7640075683594 305.4276123046875 C 450.60198974609375 319.072998046875 443.3326416015625 339.6903381347656 431.742919921875 353.08148193359375" stroke-width="6.0" fill="none" stroke="rgb(0, 0, 0)" stroke-opacity="1.0" stroke-linecap="round" stroke-linejoin="round"/>
    <path d="M 592.7192993164062 168.51693725585938 C 581.9747924804688 172.61744689941406 564.3246459960938 196.39620971679688 551.1675415039062 181.59068298339844 C 528.7056884765625 170.9376983642578 549.584228515625 187.00804138183594 542.1931762695312 179.12796020507812 C 519.7609252929688 181.97024536132812 499.5572509765625 153.29310607910156 486.7571105957031 147.6116485595703 C 498.8775939941406 159.5477294921875 480.6287536621094 154.6734161376953 492.5545349121094 173.2887725830078 C 495.27301025390625 165.4608154296875 485.48870849609375 199.45094299316406 485.9615173339844 209.2698516845703" stroke-width="6.0" fill="none" stroke="rgb(0, 0, 0)" stroke-opacity="1.0" stroke-linecap="round" stroke-linejoin="round"/>
    <path d="M 426.974365234375 69.19571685791016 C 410.9876708984375 54.939327239990234 425.5408020019531 66.90238189697266 440.8008728027344 81.21500396728516 C 454.932373046875 101.3792724609375 438.397216796875 126.43184661865234 472.7176818847656 133.72926330566406 C 473.0694580078125 141.07945251464844 466.26513671875 132.602783203125 456.7796936035156 126.444091796875 C 457.9064025878906 124.05809020996094 474.9134216308594 137.67715454101562 445.20904541015625 156.96815490722656 C 413.1923522949219 148.14581298828125 415.8079833984375 125.18938446044922 417.6444396972656 130.86973571777344" stroke-width="6.0" fill="none" stroke="rgb(0, 0, 0)" stroke-opacity="1.0" stroke-linecap="round" stroke-linejoin="round"/>
    <path d="M 13.972686767578125 203.64727783203125 C 23.287996292114258 196.23182678222656 23.681997299194336 205.1871795654297 40.78122329711914 220.88006591796875 C 54.50883483886719 235.60162353515625 70.70068359375 219.0716094970703 48.701385498046875 232.79461669921875 C 69.72000122070312 222.26849365234375 94.16975402832031 227.5207977294922 108.33219146728516 247.2176971435547 C 109.11727142333984 252.35031127929688 113.24962615966797 248.89918518066406 97.72418975830078 236.673095703125 C 76.0359115600586 221.2587127685547 78.98126220703125 230.4250946044922 92.54286193847656 220.69979858398438" stroke-width="6.0" fill="none" stroke="rgb(0, 0, 0)" stroke-opacity="1.0" stroke-linecap="round" stroke-linejoin="round"/>
    <path d="M 394.06390380859375 434.0041809082031 C 361.9477233886719 458.2981262207031 379.3370056152344 464.7635192871094 406.9576416015625 478.7611389160156 C 402.7243957519531 488.4342346191406 390.8441467285156 455.1361999511719 380.52850341796875 454.9927978515625 C 402.74407958984375 479.8168029785156 375.2769775390625 495.0597839355469 406.298583984375 534.2140502929688 C 346.428955078125 528.8173217773438 343.7975158691406 525.1136474609375 340.48321533203125 533.9692993164062 C 345.9222106933594 547.10888671875 336.82073974609375 534.4071044921875 306.5857849121094 532.716552734375" stroke-width="6.0" fill="none" stroke="rgb(0, 0, 0)" stroke-opacity="1.0" stroke-linecap="round" stroke-linejoin="round"/>
    <path d="M 160.6869659423828 453.07830810546875 C 150.77459716796875 480.98345947265625 166.60682678222656 496.1903381347656 172.0673065185547 491.4407958984375 C 187.62335205078125 482.5984191894531 187.80438232421875 513.5006103515625 192.34942626953125 533.63720703125 C 202.49179077148438 545.198486328125 174.8358612060547 575.9281005859375 152.71791076660156 604.6328735351562 C 170.0195770263672 603.4085083007812 147.9650115966797 613.8738403320312 169.86831665039062 581.796875 C 184.0117950439453 562.3212890625 204.59188842773438 549.2713012695312 172.3402862548828 528.0" stroke-width="6.0" fill="none" stroke="rgb(0, 0, 0)" stroke-opacity="1.0" stroke-linecap="round" stroke-linejoin="round"/>
    <path d="M 254.9772491455078 414.6094665527344 C 235.64471435546875 422.2030944824219 244.62640380859375 438.97869873046875 233.412109375 458.7454528808594 C 199.75924682617188 470.69256591796875 191.39881896972656 468.7208557128906 189.682861328125 473.70806884765625 C 181.36866760253906 465.2087707519531 216.01820373535156 446.5591125488281 203.2298583984375 459.8514709472656 C 237.87429809570312 416.8448486328125 228.00364685058594 413.9349060058594 211.21170043945312 408.7139892578125 C 160.97756958007812 399.2651062011719 165.2649383544922 407.4267883300781 164.59495544433594 396.8213195800781" stroke-width="6.0" fill="none" stroke="rgb(0, 0, 0)" stroke-opacity="1.0" stroke-linecap="round" stroke-linejoin="round"/>
    <path d="M 276.35772705078125 27.599700927734375 C 264.67822265625 13.084135055541992 280.7254638671875 -14.187761306762695 264.50933837890625 -26.149520874023438 C 264.7431945800781 -34.055912017822266 267.0072937011719 -4.70441198348999 274.8095703125 -2.5750977993011475 C 264.6004638671875 19.93494415283203 278.8855285644531 43.72209930419922 293.3416748046875 29.279464721679688 C 308.786865234375 14.487807273864746 316.23406982421875 25.64371681213379 320.9858093261719 33.735660552978516 C 343.15643310546875 61.48420333862305 354.33001708984375 44.17953109741211 370.1227111816406 8.716864585876465" stroke-width="6.0" fill="none" stroke="rgb(0, 0, 0)" stroke-opacity="1.0" stroke-linecap="round" stroke-linejoin="round"/>
    <path d="M 282.38116455078125 151.71751403808594 C 280.57989501953125 154.18435668945312 295.6571960449219 131.39559936523438 283.3437805175781 118.18179321289062 C 317.52947998046875 102.5932846069336 307.8504333496094 114.43336486816406 337.5251159667969 136.02938842773438 C 346.3622131347656 121.6873779296875 347.7845764160156 84.05670928955078 357.0658264160156 75.42401123046875 C 370.2953796386719 40.256534576416016 356.17486572265625 17.7377872467041 366.8872985839844 8.522932052612305 C 382.60467529296875 -12.955111503601074 400.5697326660156 7.53539514541626 400.3165283203125 -20.62790870666504" stroke-width="6.0" fill="none" stroke="rgb(0, 0, 0)" stroke-opacity="1.0" stroke-linecap="round" stroke-linejoin="round"/>
    <path d="M 512.08154296875 572.3880615234375 C 506.6700744628906 559.637451171875 473.2485046386719 533.7294921875 474.8898010253906 522.032470703125 C 460.94451904296875 535.5018920898438 449.916015625 546.9566040039062 431.2007141113281 568.3405151367188 C 457.9288024902344 568.8850708007812 426.3335266113281 539.5357055664062 391.90118408203125 550.4407348632812 C 406.1241149902344 538.2554321289062 422.0604248046875 531.5775756835938 396.0998840332031 508.3035888671875 C 414.0415954589844 497.7065734863281 417.8875427246094 496.0250244140625 429.7222595214844 502.7585144042969" stroke-width="6.0" fill="none" stroke="rgb(0, 0, 0)" stroke-opacity="1.0" stroke-linecap="round" stroke-linejoin="round"/>
    <path d="M 562.753662109375 441.99981689453125 C 561.8697509765625 431.3158874511719 551.2556762695312 416.5005187988281 570.2713623046875 391.68267822265625 C 584.0497436523438 352.83673095703125 591.6065673828125 362.1611328125 610.004638671875 387.9368591308594 C 597.6332397460938 409.07159423828125 586.0194702148438 420.5797424316406 588.0240478515625 433.1128845214844 C 585.18310546875 411.3526611328125 593.9727783203125 434.2361755371094 580.8934936523438 470.0384826660156 C 583.2540283203125 459.4802551269531 587.6763916015625 443.5066833496094 587.7487182617188 430.7112731933594" stroke-width="6.0" fill="none" stroke="rgb(0, 0, 0)" stroke-opacity="1.0" stroke-linecap="round" stroke-linejoin="round"/>
    <path d="M 383.2238464355469 486.66058349609375 C 400.412841796875 526.9370727539062 373.49188232421875 505.25042724609375 343.71807861328125 510.4876403808594 C 341.1141357421875 538.9688110351562 335.0133972167969 538.5089111328125 375.0964660644531 542.0115966796875 C 376.5987854003906 579.7041015625 368.8494873046875 588.6229858398438 368.463134765625 615.4755859375 C 359.1855773925781 592.5376586914062 358.5576171875 600.1382446289062 330.1524658203125 610.2191772460938 C 343.6368713378906 615.4234619140625 364.25299072265625 605.219482421875 382.7861633300781 623.511962890625" stroke-width="6.0" fill="none" stroke="rgb(0, 0, 0)" stroke-opacity="1.0" stroke-linecap="round" stroke-linejoin="round"/>
    <path d="M 554.0907592773438 229.4001922607422 C 546.2376708984375 239.7109375 547.8327026367188 242.9248046875 521.5735473632812 259.0255126953125 C 521.0900268554688 236.76365661621094 526.9646606445312 213.86428833007812 530.4347534179688 222.3489532470703 C 507.79852294921875 193.04786682128906 519.2716064453125 209.55764770507812 527.443603515625 216.08468627929688 C 546.3742065429688 199.4246826171875 556.927978515625 185.73692321777344 560.6022338867188 203.97267150878906 C 576.0377197265625 205.32156372070312 593.969970703125 217.08282470703125 581.7086181640625 240.57872009277344" stroke-width="6.0" fill="none" stroke="rgb(0, 0, 0)" stroke-opacity="1.0" stroke-linecap="round" stroke-linejoin="round"/>
    <path d="M 507.1429748535156 389.8629150390625 C 505.86016845703125 390.9839172363281 489.9122619628906 379.2281188964844 519.111083984375 337.75738525390625 C 498.480224609375 321.2673034667969 503.7806701660156 326.4526062011719 483.0549621582031 311.3564758300781 C 459.4342956542969 320.5087890625 478.0975646972656 330.8238220214844 483.94049072265625 355.83740234375 C 472.5615539550781 371.3694152832031 454.6248779296875 343.16571044921875 451.8617858886719 344.7547912597656 C 429.90179443359375 341.8137512207031 454.3574523925781 321.22259521484375 457.657958984375 310.15069580078125" stroke-width="6.0" fill="none" stroke="rgb(0, 0, 0)" stroke-opacity="1.0" stroke-linecap="round" stroke-linejoin="round"/>
    <path d="M 411.4934387207031 468.6954345703125 C 394.8798828125 446.63177490234375 397.2640075683594 432.12969970703125 411.83099365234375 444.85186767578125 C 405.8546142578125 440.3641357421875 417.6949462890625 447.9494934082031 437.8351745605469 469.9381103515625 C 453.1556701660156 461.4735412597656 457.3164367675781 432.5127258300781 474.8092346191406 431.3917541503906 C 498.2899475097656 434.1583557128906 512.7344970703125 432.7713928222656 526.330810546875 434.4031677246094 C 564.050048828125 438.2687072753906 592.3865356445312 429.6549072265625 586.3402709960938 437.94793701171875" stroke-width="6.0" fill="none" stroke="rgb(0, 0, 0)" stroke-opacity="1.0" stroke-linecap="round" stroke-linejoin="round"/>
    <path d="M 434.26104736328125 517.5114135742188 C 418.0113220214844 540.3956298828125 430.37176513671875 545.4375 451.3856506347656 554.0548095703125 C 477.6597900390625 575.1110229492188 487.4814453125 555.3612060546875 469.600830078125 580.5239868164062 C 478.48797607421875 559.6034545898438 441.8446960449219 545.6243286132812 471.406982421875 527.9220581054688 C 491.2472839355469 504.3395690917969 489.5592041015625 505.1534118652344 508.50439453125 486.5606384277344 C 489.8479919433594 505.1399841308594 510.8052673339844 484.742919921875 522.537353515625 470.5839538574219" stroke-width="6.0" fill="none" stroke="rgb(0, 0, 0)" stroke-opacity="1.0" stroke-linecap="round" stroke-linejoin="round"/>
    <path d="M 229.17623901367188 50.531715393066406 C 217.8789825439453 33.68548583984375 201.0487823486328 5.72188138961792 174.65782165527344 -23.922780990600586 C 141.85894775390625 -3.2863476276397705 118.40829467773438 11.082345008850098 96.8814468383789 9.24094295501709 C 112.84408569335938 21.898170471191406 103.87993621826172 14.888084411621094 121.09461212158203 41.5655632019043 C 142.70187377929688 76.63423156738281 147.82054138183594 97.00177001953125 155.40538024902344 88.91184997558594 C 144.37782287597656 78.84639739990234 115.21702575683594 92.46090698242188 99.37368774414062 108.2723159790039" stroke-width="6.0" fill="none" stroke="rgb(0, 0, 0)" stroke-opacity="1.0" stroke-linecap="round" stroke-linejoin="round"/>
    <path d="M 489.7293701171875 592.5962524414062 C 492.15228271484375 614.784423828125 470.2377624511719 610.9236450195312 498.41558837890625 617.6553344726562 C 511.33935546875 618.3629760742188 486.1280822753906 645.8740234375 462.70733642578125 621.3026123046875 C 455.3442077636719 621.3194580078125 472.4483947753906 596.0903930664062 457.6017761230469 605.3533325195312 C 438.9579772949219 628.3046264648438 440.2198181152344 655.596923828125 444.1737365722656 672.67626953125 C 471.91748046875 697.7264404296875 462.5134582519531 720.20166015625 436.6104431152344 744.35791015625" stroke-width="6.0" fill="none" stroke="rgb(0, 0, 0)" stroke-opacity="1.0" stroke-linecap="round" stroke-linejoin="round"/>
    <path d="M 288.4250793457031 59.88829803466797 C 270.10205078125 34.26363754272461 267.23138427734375 36.69687271118164 246.3357391357422 46.75600814819336 C 221.4325408935547 67.81819915771484 240.20513916015625 38.03050231933594 238.3118133544922 68.3521728515625 C 240.0250244140625 95.3709945678711 273.39398193359375 56.336544036865234 246.15834045410156 41.26295852661133 C 224.57508850097656 77.7656478881836 251.15647888183594 93.30303192138672 268.5298767089844 78.0184097290039 C 291.9092712402344 66.16339874267578 291.4007568359375 67.740966796875 304.8717346191406 57.031558990478516" stroke-width="6.0" fill="none" stroke="rgb(0, 0, 0)" stroke-opacity="1.0" stroke-linecap="round" stroke-linejoin="round"/>
  </g>
</svg>
