<?xml version="1.0" ?>
<svg xmlns="http://www.w3.org/2000/svg" version="1.1" width="600" height="600">
  <defs/>
  <g>
    <path d="M 86.2884521484375 134.327392578125 C 77.63966369628906 137.31082153320312 50.84013748168945 160.77638244628906 53.72700119018555 190.6690673828125 C 26.018455505371094 201.0885772705078 52.817203521728516 193.04710388183594 35.88478088378906 190.4291534423828 C 56.147090911865234 172.2927703857422 50.36910629272461 143.56332397460938 58.52238082885742 140.59445190429688 C 38.50442886352539 156.5712432861328 12.717111587524414 145.6974334716797 5.575389862060547 152.18661499023438 C 15.178404808044434 144.27206420898438 26.988658905029297 149.15402221679688 50.867095947265625 140.36122131347656" stroke-width="6.0" fill="none" stroke="rgb(0, 0, 0)" stroke-opacity="1.0" stroke-linecap="round" stroke-linejoin="round"/>
    <path d="M 296.8024597167969 341.0275573730469 C 303.498779296875 333.2787780761719 295.5694274902344 356.74072265625 285.02203369140625 365.6130065917969 C 296.28179931640625 358.81640625 300.07049560546875 366.7088623046875 296.6971130371094 354.7705993652344 C 288.5301208496094 378.17608642578125 308.92059326171875 402.03033447265625 312.5096130371094 409.4462890625 C 339.0331726074219 420.8269958496094 316.89208984375 442.02142333984375 340.6651916503906 420.6661376953125 C 366.6468811035156 447.21038818359375 390.30010986328125 463.6288146972656 399.0543212890625 463.62628173828125" stroke-width="6.0" fill="none" stroke="rgb(0, 0, 0)" stroke-opacity="1.0" stroke-linecap="round" stroke-linejoin="round"/>
    <path d="M 464.90521240234375 44.58354568481445 C 473.9118957519531 20.360387802124023 447.9379577636719 28.109527587890625 429.03643798828125 16.071693420410156 C 453.4970703125 15.557254791259766 466.1290283203125 4.737421035766602 439.7315368652344 -12.992010116577148 C 457.10107421875 -3.1033456325531006 455.51611328125 -9.960308074951172 462.893798828125 -24.235685348510742 C 445.04266357421875 -23.46223258972168 461.5192565917969 -44.97243881225586 488.5835876464844 -63.65926742553711 C 502.31048583984375 -52.66714859008789 486.82879638671875 -39.257423400878906 462.3225402832031 -59.14554214477539" stroke-width="6.0" fill="none" stroke="rgb(0, 0, 0)" stroke-opacity="1.0" stroke-linecap="round" stroke-linejoin="round"/>
    <path d="M 595.2098388671875 526.8319702148438 C 582.3536987304688 541.0390625 562.72607421875 523.0556030273438 579.1002807617188 507.0686950683594 C 587.7394409179688 524.7266235351562 559.0625610351562 509.7574768066406 539.6242065429688 522.7504272460938 C 558.9886474609375 546.8211059570312 550.6904907226562 566.6483154296875 530.5964965820312 565.3600463867188 C 519.6155395507812 569.4510498046875 532.0596923828125 556.3898315429688 551.09765625 562.8567504882812 C 536.2504272460938 541.0144653320312 560.9042358398438 525.2144775390625 540.1360473632812 513.3637084960938" stroke-width="6.0" fill="none" stroke="rgb(0, 0, 0)" stroke-opacity="1.0" stroke-linecap="round" stroke-linejoin="round"/>
    <path d="M 4.9166460037231445 332.1929016113281 C 10.537252426147461 359.5216064453125 27.440963745117188 341.7583923339844 15.637237548828125 369.5523376464844 C 44.24088668823242 355.23150634765625 44.381256103515625 347.2449035644531 18.540699005126953 330.1052551269531 C 34.52892303466797 337.54998779296875 46.04319763183594 361.0996398925781 41.6943359375 356.0602722167969 C 22.832704544067383 340.41326904296875 41.99589538574219 317.3717346191406 18.985733032226562 288.92694091796875 C -1.0488126277923584 264.0657043457031 10.699518203735352 246.294677734375 -14.285502433776855 229.7219696044922" stroke-width="6.0" fill="none" stroke="rgb(0, 0, 0)" stroke-opacity="1.0" stroke-linecap="round" stroke-linejoin="round"/>
    <path d="M 55.34016036987305 355.2178039550781 C 43.6990852355957 327.2799987792969 50.78322982788086 354.3672790527344 23.78758430480957 357.0694274902344 C 25.485092163085938 331.2835693359375 18.31586265563965 326.013671875 36.89003372192383 305.4407043457031 C 13.871065139770508 309.7774353027344 24.437088012695312 331.9090270996094 -3.3968911170959473 311.19378662109375 C 6.84517765045166 292.6853942871094 0.39848294854164124 296.38067626953125 19.39692497253418 278.79449462890625 C 15.973043441772461 257.8907775878906 31.595563888549805 280.7508544921875 39.15768051147461 280.1341857910156" stroke-width="6.0" fill="none" stroke="rgb(0, 0, 0)" stroke-opacity="1.0" stroke-linecap="round" stroke-linejoin="round"/>
    <path d="M 595.0206909179688 584.279541015625 C 607.7122192382812 596.02587890625 581.864501953125 595.0810546875 552.5452270507812 604.3927612304688 C 563.9920654296875 628.5075073242188 539.526611328125 605.4166259765625 539.8972778320312 621.1803588867188 C 527.3309936523438 610.4439697265625 549.3394775390625 587.164794921875 562.6701049804688 604.068115234375 C 534.045654296875 627.309326171875 518.986572265625 654.470458984375 504.79638671875 646.5432739257812 C 476.4653625488281 646.1288452148438 461.8314514160156 647.2831420898438 478.02825927734375 637.9796752929688" stroke-width="6.0" fill="none" stroke="rgb(0, 0, 0)" stroke-opacity="1.0" stroke-linecap="round" stroke-linejoin="round"/>
    <path d="M 495.8457946777344 297.5788879394531 C 486.65093994140625 309.78021240234375 478.1372985839844 331.3600158691406 475.6911315917969 314.8856506347656 C 495.2216796875 330.2398376464844 477.759765625 323.90228271484375 497.8746337890625 333.6304626464844 C 525.4555053710938 333.8601989746094 500.0252685546875 343.03955078125 521.1918334960938 357.6607666015625 C 537.3422241210938 346.58819580078125 560.6710205078125 361.89080810546875 589.2642211914062 390.1534423828125 C 616.5306396484375 405.7549743652344 620.9304809570312 398.5019226074219 637.2196044921875 372.1275329589844" stroke-width="6.0" fill="none" stroke="rgb(0, 0, 0)" stroke-opacity="1.0" stroke-linecap="round" stroke-linejoin="round"/>
    <path d="M 239.34242248535156 276.9739685058594 C 210.20228576660156 282.6024475097656 197.0584259033203 307.44232177734375 218.8181610107422 335.5531311035156 C 212.65093994140625 341.82891845703125 234.32875061035156 320.0444030761719 250.24082946777344 303.0964050292969 C 247.95358276367188 274.8531188964844 224.4392852783203 285.724365234375 225.77415466308594 256.2984924316406 C 197.35984802246094 256.0271301269531 222.14413452148438 242.488037109375 195.05751037597656 237.73941040039062 C 180.03634643554688 220.71157836914062 162.9658966064453 192.548828125 178.12405395507812 182.7675323486328" stroke-width="6.0" fill="none" stroke="rgb(0, 0, 0)" stroke-opacity="1.0" stroke-linecap="round" stroke-linejoin="round"/>
    <path d="M 320.6900634765625 294.5320739746094 C 307.8489074707031 306.28277587890625 319.458251953125 309.4063415527344 326.8413391113281 318.4717712402344 C 311.4057312011719 308.6149597167969 325.3382263183594 329.05877685546875 324.9114685058594 307.5472106933594 C 346.00653076171875 297.0485534667969 348.47088623046875 308.595703125 359.62469482421875 311.6602478027344 C 349.8846130371094 298.1211242675781 338.9064636230469 320.3371276855469 321.5608825683594 336.45489501953125 C 345.25079345703125 363.7438049316406 362.1541442871094 391.57513427734375 387.314453125 392.7379455566406" stroke-width="6.0" fill="none" stroke="rgb(0, 0, 0)" stroke-opacity="1.0" stroke-linecap="round" stroke-linejoin="round"/>
    <path d="M 99.07589721679688 450.5746154785156 C 94.77782440185547 453.13427734375 119.27037048339844 456.0025329589844 118.61272430419922 449.7852783203125 C 122.36825561523438 457.9195861816406 101.09046936035156 442.350830078125 72.15009307861328 427.7967224121094 C 56.23324203491211 413.1568908691406 48.1187744140625 401.82891845703125 43.38426971435547 419.802734375 C 44.4199104309082 434.08599853515625 71.04371643066406 420.0309143066406 64.6174087524414 419.4965515136719 C 39.87759780883789 391.81201171875 23.596698760986328 389.2141418457031 14.309130668640137 369.33355712890625" stroke-width="6.0" fill="none" stroke="rgb(0, 0, 0)" stroke-opacity="1.0" stroke-linecap="round" stroke-linejoin="round"/>
    <path d="M 265.37896728515625 239.76150512695312 C 242.6886749267578 231.26251220703125 230.80325317382812 232.0747833251953 207.457763671875 248.64996337890625 C 192.6414337158203 223.3782196044922 189.0061798095703 226.02122497558594 201.37017822265625 238.7015838623047 C 213.55303955078125 262.1995544433594 187.91453552246094 264.5804138183594 165.01028442382812 252.99539184570312 C 190.0562744140625 274.5402526855469 212.70330810546875 249.10791015625 213.72714233398438 229.091064453125 C 228.63809204101562 200.45919799804688 218.6089324951172 190.84629821777344 226.44448852539062 183.59133911132812" stroke-width="6.0" fill="none" stroke="rgb(0, 0, 0)" stroke-opacity="1.0" stroke-linecap="round" stroke-linejoin="round"/>
    <path d="M 210.40049743652344 154.942626953125 C 224.89161682128906 154.9892120361328 209.65951538085938 155.34262084960938 195.02879333496094 176.3002471923828 C 211.75965881347656 197.03778076171875 195.6481170654297 194.1623992919922 224.9664306640625 212.57969665527344 C 206.83070373535156 235.25668334960938 217.4302215576172 243.12979125976562 206.31585693359375 272.6426086425781 C 227.21185302734375 263.93292236328125 221.82814025878906 259.3724060058594 192.32012939453125 288.8809814453125 C 213.3937530517578 264.4439392089844 240.71060180664062 273.0556640625 219.0106201171875 272.8482360839844" stroke-width="6.0" fill="none" stroke="rgb(0, 0, 0)" stroke-opacity="1.0" stroke-linecap="round" stroke-linejoin="round"/>
    <path d="M 89.8814926147461 132.347900390625 C 91.28105163574219 150.33961486816406 89.57564544677734 136.36293029785156 67.11810302734375 112.26203155517578 C 88.55253601074219 140.25634765625 85.25377655029297 162.5935516357422 67.71334075927734 180.464111328125 C 51.578590393066406 172.5231475830078 68.74480438232422 145.8444366455078 73.60059356689453 166.06834411621094 C 81.4594497680664 137.35691833496094 98.85905456542969 118.9776382446289 70.62165832519531 131.94578552246094 C 75.03685760498047 126.32905578613281 100.16016387939453 117.97172546386719 102.7759017944336 92.14971923828125" stroke-width="6.0" fill="none" stroke="rgb(0, 0, 0)" stroke-opacity="1.0" stroke-linecap="round" stroke-linejoin="round"/>
    <path d="M 247.13796997070312 415.9240417480469 C 232.6752471923828 439.3794250488281 249.0939178466797 410.5750427246094 235.59957885742188 412.2364501953125 C 220.71224975585938 398.5170593261719 243.00852966308594 426.1895751953125 261.8256530761719 398.26507568359375 C 273.28729248046875 378.62835693359375 272.5081481933594 382.85308837890625 285.2198791503906 387.43719482421875 C 307.83624267578125 364.8840026855469 326.5142822265625 370.5190734863281 317.8382568359375 357.5841064453125 C 332.72906494140625 353.2489318847656 322.48724365234375 331.5401916503906 297.5598449707031 346.05291748046875" stroke-width="6.0" fill="none" stroke="rgb(0, 0, 0)" stroke-opacity="1.0" stroke-linecap="round" stroke-linejoin="round"/>
    <path d="M 418.03955078125 505.5616455078125 C 429.92938232421875 496.78533935546875 425.99676513671875 495.2643737792969 406.11016845703125 465.72955322265625 C 376.8289794921875 460.6239013671875 402.64208984375 483.9635314941406 425.9580383300781 497.0705261230469 C 399.96826171875 526.6400146484375 382.2498779296875 515.0020141601562 387.04736328125 531.9913940429688 C 398.87445068359375 521.0867919921875 379.92193603515625 509.8695068359375 356.9744873046875 504.4274597167969 C 339.7460021972656 488.1046447753906 319.484375 474.81451416015625 333.3813781738281 481.21685791015625" stroke-width="6.0" fill="none" stroke="rgb(0, 0, 0)" stroke-opacity="1.0" stroke-linecap="round" stroke-linejoin="round"/>
    <path d="M 431.0791320800781 412.0909423828125 C 442.05010986328125 384.9018859863281 417.47998046875 355.6674499511719 420.8511047363281 382.4240417480469 C 398.37811279296875 395.1102294921875 385.4103088378906 404.4770202636719 382.3585510253906 431.6393127441406 C 396.6185607910156 416.0037841796875 417.9646911621094 438.4411926269531 434.65582275390625 464.8357849121094 C 422.7999572753906 451.7463073730469 434.73101806640625 472.9375305175781 415.15484619140625 485.2743835449219 C 423.3408508300781 508.60723876953125 408.05426025390625 521.4652099609375 424.4863586425781 538.6957397460938" stroke-width="6.0" fill="none" stroke="rgb(0, 0, 0)" stroke-opacity="1.0" stroke-linecap="round" stroke-linejoin="round"/>
    <path d="M 532.1790771484375 535.142578125 C 514.3387451171875 517.9385986328125 494.4776306152344 520.0310668945312 492.7499694824219 511.62310791015625 C 487.0729675292969 511.0997009277344 516.6857299804688 488.58135986328125 499.1728820800781 513.6795654296875 C 494.0862121582031 503.2222900390625 480.5213623046875 500.6029357910156 493.139892578125 476.3543395996094 C 468.10711669921875 477.41351318359375 445.9408264160156 491.1390686035156 475.0167236328125 511.2865905761719 C 496.9349670410156 538.8945922851562 524.5221557617188 549.4027709960938 525.7865600585938 555.0737915039062" stroke-width="6.0" fill="none" stroke="rgb(0, 0, 0)" stroke-opacity="1.0" stroke-linecap="round" stroke-linejoin="round"/>
    <path d="M 43.770591735839844 432.8997497558594 C 13.892337799072266 446.5630187988281 -8.858388900756836 475.8937683105469 -31.702774047851562 463.935546875 C -37.60304641723633 449.23028564453125 -24.84920883178711 424.1338195800781 -48.664939880371094 429.0852355957031 C -48.37470245361328 402.706298828125 -43.78096008300781 394.500732421875 -55.57508850097656 408.38800048828125 C -67.45667266845703 433.48675537109375 -84.68352508544922 447.3869323730469 -68.50646209716797 448.35772705078125 C -65.70925903320312 457.4498291015625 -75.52033996582031 470.0766906738281 -91.04981231689453 500.0760192871094" stroke-width="6.0" fill="none" stroke="rgb(0, 0, 0)" stroke-opacity="1.0" stroke-linecap="round" stroke-linejoin="round"/>
    <path d="M 401.4432067871094 582.27294921875 C 405.0572814941406 602.5999145507812 418.7378234863281 600.109375 392.1282043457031 603.7283935546875 C 415.36956787109375 611.7197875976562 405.8077697753906 592.0747680664062 431.69305419921875 571.4441528320312 C 446.7109375 585.068603515625 450.006591796875 556.916259765625 478.14129638671875 572.25341796875 C 472.51202392578125 576.5584716796875 477.6453857421875 583.4287109375 487.63604736328125 578.1448364257812 C 458.8077697753906 580.6134033203125 450.44287109375 593.7489013671875 432.5989990234375 623.2738647460938" stroke-width="6.0" fill="none" stroke="rgb(0, 0, 0)" stroke-opacity="1.0" stroke-linecap="round" stroke-linejoin="round"/>
    <path d="M 497.3868408203125 387.93231201171875 C 489.0472717285156 361.7229919433594 477.49359130859375 377.2018127441406 487.6117858886719 355.2176513671875 C 464.07684326171875 368.25439453125 483.8233642578125 349.589111328125 513.40478515625 347.9723205566406 C 533.3228149414062 362.9281005859375 553.9296264648438 334.1985778808594 526.728271484375 318.9566345214844 C 527.939453125 292.6028747558594 535.7902221679688 307.7117004394531 530.84521484375 320.5273742675781 C 546.6279296875 335.614990234375 572.981201171875 319.1027526855469 545.1763305664062 337.13568115234375" stroke-width="6.0" fill="none" stroke="rgb(0, 0, 0)" stroke-opacity="1.0" stroke-linecap="round" stroke-linejoin="round"/>
    <path d="M 476.7051086425781 423.7607116699219 C 480.9434509277344 447.1188049316406 481.79443359375 433.5365295410156 468.1136474609375 412.76959228515625 C 479.8282775878906 408.8812255859375 493.1804504394531 411.33074951171875 515.0944213867188 437.3628845214844 C 495.6545104980469 431.99365234375 469.21044921875 430.4799499511719 456.39422607421875 452.28887939453125 C 475.11871337890625 445.9869079589844 471.6172180175781 441.61114501953125 465.3272399902344 452.2300720214844 C 440.7159729003906 458.0750732421875 420.28558349609375 434.2528381347656 450.1617126464844 420.5395812988281" stroke-width="6.0" fill="none" stroke="rgb(0, 0, 0)" stroke-opacity="1.0" stroke-linecap="round" stroke-linejoin="round"/>
    <path d="M 285.9574279785156 210.0349884033203 C 307.543701171875 228.3828887939453 289.1735534667969 218.41355895996094 267.076171875 197.36349487304688 C 248.23031616210938 225.901611328125 242.0624237060547 255.40333557128906 225.6085205078125 238.36572265625 C 246.3179168701172 231.70213317871094 273.4400634765625 217.08349609375 253.74986267089844 242.6678009033203 C 280.8966979980469 225.98861694335938 251.5032196044922 250.61984252929688 267.07940673828125 280.5655517578125 C 264.7662048339844 297.0820617675781 250.20082092285156 312.7179260253906 264.14727783203125 296.3439636230469" stroke-width="6.0" fill="none" stroke="rgb(0, 0, 0)" stroke-opacity="1.0" stroke-linecap="round" stroke-linejoin="round"/>
    <path d="M 51.90481948852539 308.9842529296875 C 30.743091583251953 287.8533935546875 28.60215187072754 302.5313415527344 20.687910079956055 280.03997802734375 C 33.17332077026367 262.04632568359375 48.776702880859375 266.53167724609375 77.78337097167969 240.24258422851562 C 95.69657897949219 260.71630859375 118.48103332519531 254.6427459716797 143.92999267578125 249.13442993164062 C 169.772216796875 230.78176879882812 169.32623291015625 214.6146697998047 198.90078735351562 192.38577270507812 C 200.8682098388672 183.72293090820312 194.8830108642578 200.08274841308594 211.1697235107422 183.9354248046875" stroke-width="6.0" fill="none" stroke="rgb(0, 0, 0)" stroke-opacity="1.0" stroke-linecap="round" stroke-linejoin="round"/>
    <path d="M 83.86770629882812 471.8939208984375 C 105.15939331054688 455.0408630371094 115.60956573486328 436.2151794433594 130.6644744873047 418.68902587890625 C 102.8251724243164 437.2838134765625 115.87281799316406 456.7569580078125 129.83375549316406 469.6197814941406 C 103.06616973876953 472.2528991699219 108.1102066040039 450.807373046875 90.56717681884766 476.9437255859375 C 62.608951568603516 491.52752685546875 33.23738098144531 473.37835693359375 17.270673751831055 489.078125 C 28.19866371154785 496.9734802246094 30.443035125732422 515.6153564453125 13.115558624267578 502.4712219238281" stroke-width="6.0" fill="none" stroke="rgb(0, 0, 0)" stroke-opacity="1.0" stroke-linecap="round" stroke-linejoin="round"/>
    <path d="M 239.15420532226562 459.6461181640625 C 214.1035614013672 451.24896240234375 213.31552124023438 454.094482421875 238.67074584960938 440.2174377441406 C 221.81797790527344 416.2790832519531 223.24388122558594 428.9309387207031 230.82183837890625 444.1354064941406 C 242.0068359375 420.91571044921875 269.0154724121094 425.1977233886719 262.1540222167969 396.1914978027344 C 290.78863525390625 403.86151123046875 278.4961853027344 424.5105285644531 269.9287109375 412.6976318359375 C 289.80865478515625 391.3423767089844 281.86761474609375 401.28363037109375 284.2303771972656 384.5911560058594" stroke-width="6.0" fill="none" stroke="rgb(0, 0, 0)" stroke-opacity="1.0" stroke-linecap="round" stroke-linejoin="round"/>
    <path d="M 372.4144592285156 94.38517761230469 C 359.8163757324219 83.7777099609375 372.6136474609375 91.53205108642578 369.63177490234375 100.43362426757812 C 399.0404968261719 106.58570861816406 400.3841857910156 98.34528350830078 382.6748352050781 111.89494323730469 C 360.64202880859375 141.41763305664062 343.44512939453125 159.58497619628906 315.72607421875 165.77879333496094 C 322.5426330566406 172.17010498046875 347.3649597167969 182.82643127441406 348.4378356933594 165.8479766845703 C 331.0715026855469 177.4511260986328 302.44293212890625 157.38999938964844 308.11468505859375 149.8378448486328" stroke-width="6.0" fill="none" stroke="rgb(0, 0, 0)" stroke-opacity="1.0" stroke-linecap="round" stroke-linejoin="round"/>
    <path d="M 348.9725036621094 404.53558349609375 C 376.8096008300781 422.40765380859375 393.572265625 433.2637634277344 407.2213134765625 410.8897705078125 C 377.9623107910156 407.04449462890625 400.579345703125 421.2309875488281 402.0198059082031 429.5447692871094 C 418.0646057128906 423.7410888671875 415.5291748046875 453.16912841796875 415.1819152832031 451.3909912109375 C 437.431884765625 471.12127685546875 442.0522155761719 473.0748291015625 426.8490295410156 476.6456298828125 C 418.3115234375 483.5439147949219 441.7462158203125 453.6021423339844 443.4104309082031 434.7539978027344" stroke-width="6.0" fill="none" stroke="rgb(0, 0, 0)" stroke-opacity="1.0" stroke-linecap="round" stroke-linejoin="round"/>
    <path d="M 87.96182250976562 281.8016662597656 C 68.13560485839844 257.9914855957031 59.24378204345703 273.5538024902344 43.764591217041016 284.1741027832031 C 31.461973190307617 288.53973388671875 60.60923767089844 272.2508544921875 66.83229064941406 279.1160888671875 C 91.84951782226562 266.4579162597656 73.9133071899414 270.27081298828125 63.136375427246094 284.87677001953125 C 58.0218620300293 281.0455322265625 67.77322387695312 273.1256103515625 42.242401123046875 246.61810302734375 C 41.71841812133789 218.45677185058594 20.6954402923584 239.5871124267578 -8.362548828125 218.37539672851562" stroke-width="6.0" fill="none" stroke="rgb(0, 0, 0)" stroke-opacity="1.0" stroke-linecap="round" stroke-linejoin="round"/>
    <path d="M 484.0190734863281 280.6656799316406 C 466.2204895019531 290.9145812988281 449.5073547363281 305.4888610839844 429.6120300292969 319.6387023925781 C 439.0207214355469 317.3109436035156 452.209716796875 336.92071533203125 432.4104309082031 350.7435302734375 C 419.5152893066406 351.0430908203125 405.5893859863281 333.8726806640625 434.3706970214844 329.4377746582031 C 427.81695556640625 347.2146911621094 432.67254638671875 319.2178039550781 403.2551574707031 322.1407470703125 C 399.1026306152344 335.38055419921875 412.738037109375 350.2479553222656 395.2104187011719 371.73944091796875" stroke-width="6.0" fill="none" stroke="rgb(0, 0, 0)" stroke-opacity="1.0" stroke-linecap="round" stroke-linejoin="round"/>
    <path d="M 92.5311508178711 185.705078125 C 117.96964263916016 182.58152770996094 134.13726806640625 205.77560424804688 141.8142547607422 187.63775634765625 C 139.95596313476562 179.0819854736328 131.74000549316406 205.44869995117188 107.18194580078125 234.95187377929688 C 124.91950225830078 252.12538146972656 131.901123046875 223.5579376220703 113.73075866699219 199.36158752441406 C 108.66078186035156 224.27906799316406 124.8906021118164 233.655029296875 116.83541870117188 260.6302795410156 C 93.32195281982422 247.76409912109375 108.39558410644531 266.64068603515625 121.34192657470703 261.7486877441406" stroke-width="6.0" fill="none" stroke="rgb(0, 0, 0)" stroke-opacity="1.0" stroke-linecap="round" stroke-linejoin="round"/>
    <path d="M 576.8145141601562 501.24957275390625 C 562.0966186523438 500.8803405761719 544.900634765625 528.5045166015625 528.9691772460938 524.893310546875 C 531.8753051757812 498.3108825683594 548.1348876953125 521.8224487304688 560.8272094726562 499.6685791015625 C 587.4503173828125 471.48822021484375 577.3556518554688 467.69281005859375 602.4591064453125 442.9653625488281 C 583.9420166015625 445.50457763671875 607.5777587890625 459.91357421875 604.1303100585938 465.5184631347656 C 629.4721069335938 467.90325927734375 613.655517578125 464.60687255859375 598.38623046875 450.4482421875" stroke-width="6.0" fill="none" stroke="rgb(0, 0, 0)" stroke-opacity="1.0" stroke-linecap="round" stroke-linejoin="round"/>
    <path d="M 26.057634353637695 491.66668701171875 C 26.544309616088867 498.80487060546875 26.746145248413086 492.5091552734375 41.5605354309082 465.9346618652344 C 25.905149459838867 466.6248779296875 30.14405632019043 472.1264343261719 40.56803512573242 458.9515686035156 C 58.66093826293945 486.08966064453125 38.58491134643555 511.9100036621094 26.475130081176758 534.4019165039062 C 18.01475715637207 536.1052856445312 23.706634521484375 516.7135009765625 0.43251243233680725 535.9684448242188 C 11.594266891479492 529.301025390625 30.94693946838379 529.5652465820312 4.716803073883057 530.83203125" stroke-width="6.0" fill="none" stroke="rgb(0, 0, 0)" stroke-opacity="1.0" stroke-linecap="round" stroke-linejoin="round"/>
    <path d="M 27.024118423461914 198.05047607421875 C 15.644599914550781 205.36436462402344 8.550249099731445 175.40585327148438 -3.470454216003418 193.5487060546875 C -20.774200439453125 187.71038818359375 -24.29643440246582 185.2837371826172 -10.217116355895996 190.2540740966797 C -0.7927103638648987 213.134521484375 -5.230955600738525 194.31028747558594 -28.26342010498047 184.57203674316406 C 0.7973635196685791 168.83642578125 5.270537376403809 179.71119689941406 17.235689163208008 208.41323852539062 C 20.310636520385742 202.97976684570312 20.47314453125 228.5514373779297 -5.319064140319824 232.3331756591797" stroke-width="6.0" fill="none" stroke="rgb(0, 0, 0)" stroke-opacity="1.0" stroke-linecap="round" stroke-linejoin="round"/>
    <path d="M 383.29827880859375 25.44309425354004 C 403.01116943359375 2.8004865646362305 404.2792053222656 -13.902859687805176 387.2796936035156 -36.04153060913086 C 389.9081726074219 -23.16260528564453 399.5986328125 -53.0864372253418 418.4939880371094 -52.14894104003906 C 407.4331970214844 -82.1295166015625 429.1896057128906 -102.08850860595703 419.5137634277344 -80.81349182128906 C 401.09515380859375 -79.6939926147461 377.4508361816406 -57.135719299316406 349.3208312988281 -76.07415008544922 C 336.97900390625 -84.84490203857422 334.9208984375 -57.05839538574219 310.47943115234375 -64.57144927978516" stroke-width="6.0" fill="none" stroke="rgb(0, 0, 0)" stroke-opacity="1.0" stroke-linecap="round" stroke-linejoin="round"/>
    <path d="M 32.85940933227539 448.5841979980469 C 42.10394287109375 424.0211486816406 29.856163024902344 428.1134338378906 34.52006530761719 409.4949951171875 C 28.59037971496582 426.5596008300781 21.01101303100586 449.184814453125 11.213590621948242 453.7200622558594 C 21.484167098999023 468.1416931152344 27.071104049682617 488.1405944824219 31.694406509399414 490.0358581542969 C 6.583439826965332 486.0218505859375 16.1592960357666 460.6700134277344 -13.373493194580078 431.3581237792969 C -24.682161331176758 458.2133483886719 -18.83542251586914 440.45379638671875 -39.05925369262695 460.58843994140625" stroke-width="6.0" fill="none" stroke="rgb(0, 0, 0)" stroke-opacity="1.0" stroke-linecap="round" stroke-linejoin="round"/>
    <path d="M 574.9521484375 335.09979248046875 C 587.87548828125 351.98455810546875 614.021240234375 343.9230041503906 613.4449462890625 368.6296691894531 C 589.52978515625 363.9835510253906 568.7516479492188 369.4430847167969 551.2196044921875 347.85992431640625 C 566.92822265625 334.6198425292969 558.1490478515625 362.363037109375 530.6744995117188 384.61505126953125 C 552.2507934570312 403.1171569824219 524.7317504882812 376.2868957519531 554.2532958984375 359.0787353515625 C 576.6002197265625 333.4412536621094 602.3351440429688 333.2028503417969 603.6641845703125 324.12823486328125" stroke-width="6.0" fill="none" stroke="rgb(0, 0, 0)" stroke-opacity="1.0" stroke-linecap="round" stroke-linejoin="round"/>
    <path d="M 92.7197036743164 269.3995056152344 C 95.17378234863281 262.7190856933594 71.54679870605469 274.1494445800781 95.32457733154297 303.0079345703125 C 119.63150024414062 320.3475646972656 134.0308837890625 333.596435546875 143.01087951660156 358.6474304199219 C 172.69151306152344 364.1619567871094 192.5015411376953 390.7535095214844 188.30113220214844 390.13671875 C 163.85926818847656 366.7867431640625 167.1613006591797 339.67071533203125 175.71450805664062 342.1932678222656 C 199.6675567626953 352.2267761230469 177.57313537597656 362.27728271484375 186.27732849121094 346.0786437988281" stroke-width="6.0" fill="none" stroke="rgb(0, 0, 0)" stroke-opacity="1.0" stroke-linecap="round" stroke-linejoin="round"/>
    <path d="M 407.748291015625 506.2337646484375 C 433.27825927734375 487.9737854003906 414.2048034667969 479.4044189453125 436.7337951660156 479.8825378417969 C 436.4530944824219 493.1611022949219 414.5925598144531 488.8725891113281 393.63116455078125 465.77392578125 C 380.70050048828125 475.5389099121094 386.7024841308594 478.83721923828125 397.95391845703125 490.904052734375 C 427.70050048828125 509.87152099609375 448.4496154785156 532.7599487304688 460.68316650390625 540.7559204101562 C 464.9264221191406 535.029541015625 467.7807922363281 563.0427856445312 459.3793640136719 553.6295166015625" stroke-width="6.0" fill="none" stroke="rgb(0, 0, 0)" stroke-opacity="1.0" stroke-linecap="round" stroke-linejoin="round"/>
    <path d="M 53.4322395324707 84.58905792236328 C 26.36943244934082 67.61820220947266 21.700984954833984 68.75020599365234 15.99787712097168 55.195316314697266 C -7.8090057373046875 66.53751373291016 -4.401157855987549 37.337257385253906 -19.09463119506836 55.11204528808594 C -24.670442581176758 27.662113189697266 -22.203523635864258 2.1847171783447266 -15.532434463500977 26.60692024230957 C -30.1331729888916 44.87345886230469 -27.024520874023438 29.038606643676758 -31.533397674560547 18.579605102539062 C -44.70402908325195 41.09649658203125 -72.91380310058594 35.33290100097656 -67.47644805908203 54.02620315551758" stroke-width="6.0" fill="none" stroke="rgb(0, 0, 0)" stroke-opacity="1.0" stroke-linecap="round" stroke-linejoin="round"/>
    <path d="M 444.1014709472656 497.16064453125 C 468.8047790527344 469.2445373535156 488.4665222167969 480.7831726074219 485.9105224609375 471.21197509765625 C 481.8424377441406 474.6620788574219 492.8978576660156 482.9627685546875 517.7310180664062 473.8260192871094 C 526.962646484375 473.09271240234375 505.4622802734375 502.0608215332031 480.1527099609375 480.6453552246094 C 487.2724914550781 451.5699157714844 494.4903869628906 448.8679504394531 516.0540161132812 457.9005126953125 C 540.51611328125 438.6090087890625 561.3944091796875 449.0780029296875 569.0205078125 436.3372802734375" stroke-width="6.0" fill="none" stroke="rgb(0, 0, 0)" stroke-opacity="1.0" stroke-linecap="round" stroke-linejoin="round"/>
    <path d="M 243.76182556152344 234.30064392089844 C 218.8963623046875 240.33485412597656 209.62013244628906 213.02862548828125 203.02490234375 234.42947387695312 C 190.2063751220703 212.8085174560547 218.990966796875 206.81976318359375 217.19577026367188 194.42935180664062 C 229.92776489257812 217.8775634765625 219.13787841796875 242.2757568359375 197.22293090820312 259.2148132324219 C 208.3657989501953 236.94346618652344 226.76409912109375 264.38238525390625 201.85223388671875 279.89569091796875 C 195.1090087890625 296.059326171875 197.5176239013672 292.1824951171875 213.55723571777344 280.6889953613281" stroke-width="6.0" fill="none" stroke="rgb(0, 0, 0)" stroke-opacity="1.0" stroke-linecap="round" stroke-linejoin="round"/>
    <path d="M 313.2760314941406 162.02098083496094 C 339.70977783203125 184.6287384033203 345.3795471191406 192.5083465576172 362.5855407714844 187.2921905517578 C 371.61358642578125 164.78836059570312 363.7882080078125 144.232421875 363.6064453125 143.65670776367188 C 374.6354064941406 116.34503936767578 348.40972900390625 108.18041229248047 374.5351257324219 135.33114624023438 C 356.8720703125 148.33905029296875 335.72308349609375 127.21659088134766 316.4817810058594 109.40133666992188 C 295.5640869140625 129.069580078125 288.98077392578125 101.10034942626953 290.28070068359375 115.8078384399414" stroke-width="6.0" fill="none" stroke="rgb(0, 0, 0)" stroke-opacity="1.0" stroke-linecap="round" stroke-linejoin="round"/>
    <path d="M 313.4682922363281 371.6007080078125 C 319.5205078125 394.3149108886719 316.6774597167969 370.7949523925781 344.02484130859375 344.1888427734375 C 360.38775634765625 314.6441345214844 351.986572265625 328.5732116699219 335.6062927246094 310.5262756347656 C 310.8656921386719 323.7057800292969 311.767822265625 315.9938049316406 306.5903625488281 305.717041015625 C 334.2311706542969 313.1776123046875 321.5204772949219 292.1424255371094 300.48583984375 305.67852783203125 C 313.1523132324219 276.07623291015625 288.30413818359375 254.88929748535156 310.9949951171875 241.101318359375" stroke-width="6.0" fill="none" stroke="rgb(0, 0, 0)" stroke-opacity="1.0" stroke-linecap="round" stroke-linejoin="round"/>
    <path d="M 154.86585998535156 446.5221862792969 C 168.39810180664062 464.0920104980469 155.02792358398438 475.992919921875 172.95492553710938 462.8152160644531 C 144.81304931640625 487.0160217285156 170.3873291015625 486.1846923828125 153.7340545654297 497.8246765136719 C 171.75558471679688 479.634765625 192.3253936767578 477.5693664550781 212.43380737304688 483.07379150390625 C 215.07330322265625 494.4642639160156 203.29751586914062 509.84375 179.05763244628906 486.7291564941406 C 204.9312286376953 465.5255432128906 180.49501037597656 465.0507507324219 206.91436767578125 486.9803771972656" stroke-width="6.0" fill="none" stroke="rgb(0, 0, 0)" stroke-opacity="1.0" stroke-linecap="round" stroke-linejoin="round"/>
    <path d="M 540.7015380859375 310.2070007324219 C 540.8356323242188 319.43560791015625 568.4425048828125 337.67669677734375 572.4544067382812 316.7127380371094 C 561.1182250976562 345.098388671875 551.7463989257812 342.88824462890625 568.0878295898438 358.1774597167969 C 564.2009887695312 341.20013427734375 554.1507568359375 341.43621826171875 551.250244140625 328.37066650390625 C 577.8998413085938 319.1802978515625 555.5496215820312 301.97271728515625 567.6859130859375 302.10882568359375 C 594.7069702148438 280.731201171875 609.6460571289062 310.2596435546875 629.0839233398438 289.20526123046875" stroke-width="6.0" fill="none" stroke="rgb(0, 0, 0)" stroke-opacity="1.0" stroke-linecap="round" stroke-linejoin="round"/>
    <path d="M 186.5098419189453 448.69122314453125 C 164.2055206298828 438.00701904296875 153.8216552734375 412.0635070800781 151.77813720703125 413.6466979980469 C 155.2040557861328 394.8406982421875 126.71858215332031 367.60443115234375 111.69026184082031 357.7890319824219 C 95.47434997558594 371.96197509765625 76.67562103271484 399.6929931640625 56.245887756347656 428.95367431640625 C 52.6887321472168 427.32257080078125 45.47018814086914 420.05438232421875 18.165834426879883 397.7246398925781 C 20.88475227355957 397.43328857421875 10.141925811767578 409.2510681152344 10.215164184570312 383.95294189453125" stroke-width="6.0" fill="none" stroke="rgb(0, 0, 0)" stroke-opacity="1.0" stroke-linecap="round" stroke-linejoin="round"/>
    <path d="M 399.0758972167969 33.36933517456055 C 397.4341735839844 15.825765609741211 408.47503662109375 35.11881637573242 421.48199462890625 28.520376205444336 C 413.0764465332031 9.895308494567871 405.3615417480469 24.899232864379883 383.537353515625 2.602908134460449 C 392.9374084472656 -25.32909393310547 413.42120361328125 -12.616754531860352 439.85528564453125 -27.201278686523438 C 467.1369934082031 -44.00921630859375 475.2712097167969 -66.70234680175781 493.5873718261719 -91.80517578125 C 518.9058837890625 -100.47685241699219 524.3587646484375 -78.44096374511719 517.2758178710938 -90.08749389648438" stroke-width="6.0" fill="none" stroke="rgb(0, 0, 0)" stroke-opacity="1.0" stroke-linecap="round" stroke-linejoin="round"/>
    <path d="M 424.7163391113281 187.11309814453125 C 450.61077880859375 169.92510986328125 456.3203125 176.66493225097656 455.0098571777344 195.31137084960938 C 466.0213317871094 187.09686279296875 449.646240234375 171.67919921875 436.28387451171875 176.51690673828125 C 433.29931640625 183.8501739501953 453.8193359375 181.8943634033203 429.3934020996094 196.89468383789062 C 444.1720886230469 214.36407470703125 432.32476806640625 202.0336456298828 438.2701416015625 201.8537139892578 C 452.60369873046875 204.41799926757812 443.96038818359375 207.51089477539062 438.80169677734375 181.60003662109375" stroke-width="6.0" fill="none" stroke="rgb(0, 0, 0)" stroke-opacity="1.0" stroke-linecap="round" stroke-linejoin="round"/>
    <path d="M 318.4298095703125 303.9330139160156 C 338.7019958496094 302.50274658203125 332.9102478027344 329.38458251953125 362.66876220703125 347.9244689941406 C 340.4787902832031 339.9457702636719 345.9645690917969 339.8542785644531 331.2721862792969 337.2349548339844 C 359.89007568359375 320.410400390625 337.54388427734375 344.59173583984375 342.5461730957031 317.29388427734375 C 367.7756652832031 300.1570739746094 347.3463439941406 281.330078125 369.6029968261719 270.6196594238281 C 373.00787353515625 296.38238525390625 369.3461608886719 283.8126220703125 351.75054931640625 260.8721923828125" stroke-width="6.0" fill="none" stroke="rgb(0, 0, 0)" stroke-opacity="1.0" stroke-linecap="round" stroke-linejoin="round"/>
    <path d="M 187.2980499267578 565.1005249023438 C 201.56634521484375 589.2882080078125 184.7069549560547 583.0287475585938 182.46636962890625 580.65869140625 C 195.84979248046875 580.4408569335938 166.2324676513672 551.480712890625 160.43382263183594 546.1885986328125 C 190.3148651123047 561.9277954101562 184.44786071777344 532.1116943359375 212.4265899658203 524.7691650390625 C 225.44952392578125 504.4924621582031 254.9977264404297 525.6824340820312 232.2064971923828 553.6656494140625 C 249.4931182861328 562.3668212890625 227.11666870117188 567.228515625 252.79254150390625 588.7515258789062" stroke-width="6.0" fill="none" stroke="rgb(0, 0, 0)" stroke-opacity="1.0" stroke-linecap="round" stroke-linejoin="round"/>
    <path d="M 302.0871887207031 519.1470336914062 C 304.3182678222656 517.95263671875 321.7264404296875 533.7061157226562 299.7062683105469 519.3917846679688 C 317.1329040527344 525.3135986328125 298.9866027832031 495.979248046875 286.9484558105469 512.7741088867188 C 295.57928466796875 542.672119140625 291.4325866699219 522.6381225585938 307.10198974609375 546.6461181640625 C 301.1551818847656 574.6434326171875 273.0628967285156 561.0333251953125 264.2017517089844 544.9301147460938 C 245.14398193359375 530.0725708007812 269.9927062988281 512.4076538085938 260.39581298828125 531.0899658203125" stroke-width="6.0" fill="none" stroke="rgb(0, 0, 0)" stroke-opacity="1.0" stroke-linecap="round" stroke-linejoin="round"/>
    <path d="M 166.29037475585938 526.9888916015625 C 170.03565979003906 503.73675537109375 171.28695678710938 492.2540283203125 192.89974975585938 488.2738037109375 C 168.74444580078125 516.2861328125 149.6233673095703 488.0314636230469 142.95127868652344 472.09381103515625 C 146.39109802246094 447.39471435546875 161.81964111328125 418.5333251953125 165.36630249023438 432.0835876464844 C 148.89779663085938 424.699462890625 156.45294189453125 426.4410705566406 131.44273376464844 421.04730224609375 C 121.72578430175781 412.0240783691406 113.41156005859375 441.1160888671875 116.56065368652344 448.64154052734375" stroke-width="6.0" fill="none" stroke="rgb(0, 0, 0)" stroke-opacity="1.0" stroke-linecap="round" stroke-linejoin="round"/>
    <path d="M 223.34341430664062 559.21044921875 C 203.35861206054688 566.5703735351562 203.37705993652344 581.8927001953125 228.66082763671875 564.4071655273438 C 249.8511962890625 546.012451171875 261.17205810546875 536.15966796875 260.9647521972656 535.4913330078125 C 258.67767333984375 536.7113647460938 257.25213623046875 528.6777954101562 239.82814025878906 545.9765625 C 235.33685302734375 528.4937133789062 251.830322265625 503.8515625 237.28065490722656 509.54852294921875 C 242.33009338378906 492.7520446777344 261.1716613769531 496.075927734375 288.8076171875 505.21734619140625" stroke-width="6.0" fill="none" stroke="rgb(0, 0, 0)" stroke-opacity="1.0" stroke-linecap="round" stroke-linejoin="round"/>
    <path d="M 479.6484375 107.47372436523438 C 496.8457946777344 128.8116455078125 478.3651123046875 135.2799835205078 449.1842346191406 153.96466064453125 C 470.15576171875 130.82354736328125 492.0689392089844 102.8530044555664 466.60870361328125 86.28963470458984 C 442.9844055175781 74.72653198242188 471.0054626464844 63.195594787597656 451.9712219238281 45.124176025390625 C 480.3004150390625 45.10765838623047 459.6774597167969 19.582801818847656 489.2467956542969 25.805334091186523 C 464.4686584472656 47.64573669433594 465.943115234375 41.27254104614258 483.956787109375 34.340946197509766" stroke-width="6.0" fill="none" stroke="rgb(0, 0, 0)" stroke-opacity="1.0" stroke-linecap="round" stroke-linejoin="round"/>
    <path d="M 491.5836181640625 493.9684753417969 C 511.11474609375 506.2506408691406 482.1876525878906 526.6054077148438 511.03387451171875 536.1258544921875 C 515.3151245117188 511.4995422363281 544.1895751953125 510.3719787597656 546.0084838867188 535.7003173828125 C 538.8935546875 542.4461059570312 543.2314453125 540.1534423828125 527.1014404296875 537.2788696289062 C 555.76904296875 542.3208618164062 549.3941040039062 515.064208984375 530.2676391601562 496.6844482421875 C 511.1399230957031 485.0176086425781 521.6174926757812 458.4457092285156 522.1925659179688 451.6229553222656" stroke-width="6.0" fill="none" stroke="rgb(0, 0, 0)" stroke-opacity="1.0" stroke-linecap="round" stroke-linejoin="round"/>
    <path d="M 339.5224304199219 588.5695190429688 C 363.31072998046875 613.1997680664062 370.5376892089844 611.3380737304688 380.4120788574219 626.5133666992188 C 372.2342834472656 651.4337768554688 368.8701477050781 633.1619262695312 384.9634094238281 632.4954223632812 C 355.39019775390625 609.433349609375 345.52874755859375 620.10302734375 321.28125 648.0068969726562 C 331.8368835449219 630.343017578125 350.33935546875 644.1524658203125 371.34222412109375 614.4285888671875 C 399.3269348144531 609.869140625 389.746826171875 610.3723754882812 401.0184326171875 632.42138671875" stroke-width="6.0" fill="none" stroke="rgb(0, 0, 0)" stroke-opacity="1.0" stroke-linecap="round" stroke-linejoin="round"/>
    <path d="M 411.98028564453125 252.04058837890625 C 385.75048828125 277.7144470214844 387.2152099609375 288.12744140625 385.6721496582031 314.63330078125 C 385.689453125 343.8518981933594 384.42041015625 363.6490783691406 409.6463928222656 369.1187744140625 C 429.4029846191406 396.0523376464844 454.351318359375 425.6239013671875 448.9946594238281 411.9164123535156 C 448.7657165527344 392.0093994140625 430.81158447265625 391.4095153808594 451.2309875488281 400.8407287597656 C 474.3322448730469 416.7536315917969 465.331298828125 410.3761291503906 487.6439514160156 396.20635986328125" stroke-width="6.0" fill="none" stroke="rgb(0, 0, 0)" stroke-opacity="1.0" stroke-linecap="round" stroke-linejoin="round"/>
    <path d="M 200.8872528076172 266.68988037109375 C 215.3722381591797 259.79052734375 200.92922973632812 264.75262451171875 186.83389282226562 261.3497009277344 C 161.49229431152344 252.56471252441406 169.19371032714844 266.8213195800781 155.6982879638672 263.4224548339844 C 140.86277770996094 252.64544677734375 113.02751922607422 260.9170227050781 98.21878814697266 277.4361572265625 C 82.69904327392578 277.1454772949219 88.72998809814453 247.4390869140625 102.26848602294922 258.1926574707031 C 117.1107177734375 264.86114501953125 106.03994750976562 248.52056884765625 113.46455383300781 238.48655700683594" stroke-width="6.0" fill="none" stroke="rgb(0, 0, 0)" stroke-opacity="1.0" stroke-linecap="round" stroke-linejoin="round"/>
    <path d="M 16.211334228515625 264.57574462890625 C 35.09583282470703 251.35523986816406 57.109806060791016 223.30752563476562 85.18004608154297 224.76612854003906 C 77.61589813232422 226.73190307617188 59.5391960144043 228.7525634765625 85.03398132324219 233.53330993652344 C 66.22575378417969 239.9630584716797 51.12622833251953 246.05320739746094 39.30286407470703 260.4731750488281 C 11.876824378967285 285.6013488769531 30.562171936035156 257.3119201660156 13.84682846069336 239.85382080078125 C 41.90224838256836 262.38226318359375 17.1439151763916 232.50071716308594 39.9385871887207 215.6061248779297" stroke-width="6.0" fill="none" stroke="rgb(0, 0, 0)" stroke-opacity="1.0" stroke-linecap="round" stroke-linejoin="round"/>
    <path d="M 486.458740234375 423.934326171875 C 506.76458740234375 412.7479248046875 479.5179748535156 427.0335693359375 458.027099609375 418.6914367675781 C 441.81475830078125 420.70916748046875 449.71331787109375 416.6220397949219 431.87860107421875 404.06317138671875 C 425.55267333984375 390.9311218261719 421.1751403808594 402.4305114746094 451.0034484863281 429.70550537109375 C 444.68914794921875 425.57855224609375 416.9297180175781 408.6831970214844 438.3164367675781 386.8726501464844 C 437.4580078125 406.206787109375 441.6805725097656 404.67901611328125 418.3681335449219 410.3571472167969" stroke-width="6.0" fill="none" stroke="rgb(0, 0, 0)" stroke-opacity="1.0" stroke-linecap="round" stroke-linejoin="round"/>
    <path d="M 469.5157470703125 425.20733642578125 C 485.03009033203125 412.2679748535156 503.93310546875 385.4703063964844 479.2603759765625 366.17266845703125 C 478.6143493652344 338.867919921875 496.8659973144531 315.5184020996094 519.297119140625 305.15228271484375 C 512.801513671875 333.75750732421875 498.5437927246094 356.6266174316406 497.13037109375 364.69744873046875 C 479.22149658203125 346.4361877441406 463.385009765625 366.5078125 459.011962890625 352.3629455566406 C 441.9497375488281 341.60888671875 463.6824035644531 333.921142578125 476.0312805175781 332.3046569824219" stroke-width="6.0" fill="none" stroke="rgb(0, 0, 0)" stroke-opacity="1.0" stroke-linecap="round" stroke-linejoin="round"/>
    <path d="M 354.0452575683594 513.02783203125 C 325.4208679199219 531.5415649414062 316.0571594238281 546.985595703125 324.5367736816406 527.9910278320312 C 296.4390563964844 543.6226196289062 268.17864990234375 537.7918090820312 269.85009765625 527.8790893554688 C 285.18316650390625 501.466796875 260.2949523925781 522.235107421875 272.2708435058594 533.047119140625 C 249.45582580566406 512.642333984375 230.39584350585938 535.6651611328125 224.3434295654297 511.3562927246094 C 207.44871520996094 487.94354248046875 188.70492553710938 485.6467590332031 180.53985595703125 494.3232421875" stroke-width="6.0" fill="none" stroke="rgb(0, 0, 0)" stroke-opacity="1.0" stroke-linecap="round" stroke-linejoin="round"/>
    <path d="M 312.57037353515625 178.5775146484375 C 322.8606872558594 190.5704803466797 350.8625793457031 215.08407592773438 335.7702331542969 209.7576446533203 C 335.7631530761719 180.29652404785156 360.76312255859375 180.5979766845703 389.5557861328125 179.9547119140625 C 363.5240783691406 152.68692016601562 381.6827392578125 146.95468139648438 390.1535339355469 124.06100463867188 C 361.9512939453125 119.69995880126953 334.4010314941406 91.84870910644531 331.6651916503906 74.18779754638672 C 333.9356994628906 82.91704559326172 330.4577331542969 96.72211456298828 331.1551818847656 78.53876495361328" stroke-width="6.0" fill="none" stroke="rgb(0, 0, 0)" stroke-opacity="1.0" stroke-linecap="round" stroke-linejoin="round"/>
    <path d="M 6.398025989532471 152.56312561035156 C 26.88353157043457 143.63926696777344 9.667532920837402 169.42108154296875 -0.6586718559265137 156.50596618652344 C 10.044931411743164 178.62457275390625 32.743385314941406 185.79603576660156 31.49591827392578 186.64039611816406 C 38.35626220703125 168.0289306640625 60.3685417175293 171.27378845214844 79.47860717773438 155.92527770996094 C 89.31181335449219 149.3629150390625 118.4735107421875 134.10516357421875 145.32688903808594 129.78652954101562 C 159.97923278808594 119.3238525390625 167.46974182128906 139.00161743164062 194.35968017578125 168.6324462890625" stroke-width="6.0" fill="none" stroke="rgb(0, 0, 0)" stroke-opacity="1.0" stroke-linecap="round" stroke-linejoin="round"/>
    <path d="M 533.2744750976562 330.4755554199219 C 542.8138427734375 354.5355224609375 572.6047973632812 359.7929992675781 544.0418701171875 389.544189453125 C 572.3251342773438 361.5843200683594 579.9051513671875 353.88885498046875 550.2098388671875 366.6836242675781 C 540.7465209960938 362.0831604003906 548.2462158203125 335.3282775878906 562.8392333984375 314.865478515625 C 582.8435668945312 323.80389404296875 606.7794799804688 330.22698974609375 612.6665649414062 337.57403564453125 C 605.5323486328125 320.7107238769531 633.0960083007812 340.0619812011719 613.0039672851562 324.8152160644531" stroke-width="6.0" fill="none" stroke="rgb(0, 0, 0)" stroke-opacity="1.0" stroke-linecap="round" stroke-linejoin="round"/>
    <path d="M 509.8316650390625 239.71034240722656 C 495.7159118652344 209.9033660888672 480.40545654296875 206.3134002685547 488.9654541015625 183.353759765625 C 480.1186828613281 201.6994171142578 500.6139221191406 219.9180450439453 511.6109313964844 202.42684936523438 C 491.4120788574219 179.47535705566406 513.35498046875 187.15269470214844 504.8319396972656 162.7977752685547 C 533.37548828125 152.37925720214844 504.69500732421875 130.06063842773438 479.3981628417969 156.8628692626953 C 457.800048828125 129.2017822265625 487.6026916503906 150.46119689941406 513.6395263671875 128.04010009765625" stroke-width="6.0" fill="none" stroke="rgb(0, 0, 0)" stroke-opacity="1.0" stroke-linecap="round" stroke-linejoin="round"/>
    <path d="M 545.119384765625 180.5938720703125 C 567.5885009765625 197.49960327148438 539.5405883789062 181.75035095214844 567.6109008789062 206.31613159179688 C 558.4181518554688 208.14422607421875 570.9471435546875 191.19509887695312 571.91943359375 187.80299377441406 C 591.3927001953125 193.80319213867188 614.4912719726562 199.01795959472656 616.0174560546875 213.9261016845703 C 602.2711791992188 226.92750549316406 610.5562744140625 216.5725555419922 612.1322631835938 192.87123107910156 C 633.613525390625 195.01828002929688 632.774658203125 216.592041015625 614.0423583984375 217.5052490234375" stroke-width="6.0" fill="none" stroke="rgb(0, 0, 0)" stroke-opacity="1.0" stroke-linecap="round" stroke-linejoin="round"/>
    <path d="M 82.8299331665039 559.0585327148438 C 103.94703674316406 564.2714233398438 126.03144073486328 540.179443359375 116.62915802001953 562.4288330078125 C 108.57693481445312 560.4511108398438 103.70509338378906 562.1631469726562 105.26200866699219 575.5521240234375 C 95.41461944580078 565.8990478515625 67.87574005126953 539.1173095703125 68.71385192871094 543.5885009765625 C 82.38970184326172 564.7320556640625 89.62423706054688 585.4299926757812 75.2923583984375 585.5384521484375 C 68.55319213867188 596.0509033203125 58.86823654174805 615.5243530273438 74.60066986083984 616.2742309570312" stroke-width="6.0" fill="none" stroke="rgb(0, 0, 0)" stroke-opacity="1.0" stroke-linecap="round" stroke-linejoin="round"/>
    <path d="M 169.05496215820312 443.6905822753906 C 192.10145568847656 464.40899658203125 206.3271026611328 465.0342712402344 184.5409393310547 450.312744140625 C 178.9342498779297 437.78155517578125 163.1738739013672 427.6877746582031 159.79104614257812 448.72821044921875 C 165.5306396484375 440.43487548828125 182.56190490722656 446.51495361328125 200.55728149414062 472.56427001953125 C 192.69334411621094 462.52276611328125 193.34011840820312 484.0509338378906 193.8074951171875 496.75927734375 C 203.65032958984375 493.5574645996094 220.2081756591797 481.5589904785156 236.2665252685547 478.6805419921875" stroke-width="6.0" fill="none" stroke="rgb(0, 0, 0)" stroke-opacity="1.0" stroke-linecap="round" stroke-linejoin="round"/>
    <path d="M 298.0116882324219 295.87615966796875 C 290.2979431152344 318.3489074707031 282.49420166015625 341.1119689941406 259.5824890136719 324.1214599609375 C 256.3851623535156 345.2130432128906 270.6247863769531 363.9470520019531 255.52395629882812 369.71514892578125 C 262.46563720703125 340.6968078613281 236.193115234375 327.838134765625 226.00914001464844 319.6894226074219 C 255.04551696777344 322.5345458984375 243.6779022216797 333.8139343261719 238.60116577148438 357.59722900390625 C 263.9625244140625 378.28436279296875 240.25390625 373.86663818359375 222.14260864257812 377.7250061035156" stroke-width="6.0" fill="none" stroke="rgb(0, 0, 0)" stroke-opacity="1.0" stroke-linecap="round" stroke-linejoin="round"/>
    <path d="M 472.8352966308594 395.3746337890625 C 472.1899719238281 374.6568908691406 464.03082275390625 357.91668701171875 488.089111328125 383.72442626953125 C 504.7204895019531 379.5799865722656 490.5309143066406 393.59429931640625 461.740234375 381.6618347167969 C 478.674560546875 406.3778076171875 507.8183288574219 405.8269348144531 518.6307373046875 399.625 C 500.4314270019531 373.43023681640625 487.41302490234375 365.4593505859375 464.20355224609375 373.1162414550781 C 450.7818908691406 372.90240478515625 476.51519775390625 392.04986572265625 449.8681335449219 379.0249328613281" stroke-width="6.0" fill="none" stroke="rgb(0, 0, 0)" stroke-opacity="1.0" stroke-linecap="round" stroke-linejoin="round"/>
    <path d="M 218.74221801757812 333.4306335449219 C 236.16055297851562 324.62213134765625 243.46978759765625 314.79486083984375 263.3165588378906 340.2127990722656 C 281.40179443359375 367.7059326171875 276.83953857421875 371.2005615234375 305.03118896484375 354.0819396972656 C 297.4118957519531 382.2872314453125 306.8935241699219 394.2485656738281 328.5321044921875 389.0853271484375 C 329.11053466796875 392.71478271484375 346.0497131347656 384.0820617675781 316.51641845703125 413.4327697753906 C 331.1054992675781 388.9322509765625 331.2700500488281 404.4801940917969 304.35894775390625 386.49560546875" stroke-width="6.0" fill="none" stroke="rgb(0, 0, 0)" stroke-opacity="1.0" stroke-linecap="round" stroke-linejoin="round"/>
    <path d="M 284.16961669921875 222.3540802001953 C 273.9473571777344 220.64703369140625 263.2109680175781 200.16757202148438 270.75579833984375 204.9126739501953 C 275.74005126953125 188.29672241210938 279.0993347167969 211.5267333984375 295.8454895019531 218.4504852294922 C 323.777099609375 240.67091369628906 333.83087158203125 235.88494873046875 335.2416076660156 263.2248229980469 C 358.28277587890625 292.2242736816406 361.0221252441406 300.9980773925781 332.4887390136719 276.3177490234375 C 324.6019592285156 293.6810607910156 327.7540283203125 299.51409912109375 303.3240661621094 291.6795654296875" stroke-width="6.0" fill="none" stroke="rgb(0, 0, 0)" stroke-opacity="1.0" stroke-linecap="round" stroke-linejoin="round"/>
    <path d="M 122.76554870605469 26.226282119750977 C 117.11937713623047 -0.864461362361908 123.78472137451172 -19.472898483276367 134.45668029785156 -35.23103332519531 C 117.48468780517578 -30.99119758605957 102.06432342529297 -25.745065689086914 83.16077423095703 -55.59872817993164 C 93.30744171142578 -71.42648315429688 96.93842315673828 -74.5737075805664 77.11200714111328 -65.28070831298828 C 104.23564910888672 -61.70484924316406 111.13195037841797 -60.012046813964844 98.13153839111328 -33.66434860229492 C 99.3155288696289 -18.502914428710938 94.04837799072266 -21.33456802368164 88.2992172241211 -6.470696449279785" stroke-width="6.0" fill="none" stroke="rgb(0, 0, 0)" stroke-opacity="1.0" stroke-linecap="round" stroke-linejoin="round"/>
    <path d="M 163.761474609375 505.97412109375 C 141.90835571289062 476.4482727050781 125.86348724365234 477.1984558105469 101.38579559326172 464.83526611328125 C 115.95726013183594 459.1206970214844 103.48338317871094 445.8063659667969 117.15923309326172 440.6280517578125 C 103.68805694580078 412.38720703125 101.47406005859375 415.91552734375 117.46380615234375 431.8145446777344 C 133.16134643554688 437.810791015625 129.2069854736328 422.1479187011719 134.83998107910156 431.2201843261719 C 135.9369659423828 442.2461242675781 138.91693115234375 438.8637390136719 160.20118713378906 425.2213134765625" stroke-width="6.0" fill="none" stroke="rgb(0, 0, 0)" stroke-opacity="1.0" stroke-linecap="round" stroke-linejoin="round"/>
    <path d="M 339.906982421875 186.68006896972656 C 341.4954528808594 196.50514221191406 329.852783203125 223.49749755859375 322.89410400390625 230.08909606933594 C 351.859619140625 234.2312774658203 364.0478820800781 219.19058227539062 382.6702880859375 209.0074462890625 C 378.86004638671875 197.66458129882812 357.51043701171875 204.5675811767578 328.16461181640625 183.68336486816406 C 320.8959045410156 201.3189239501953 336.39617919921875 222.17236328125 362.7207336425781 240.48460388183594 C 348.81689453125 267.7536315917969 342.1329650878906 262.8515930175781 371.93292236328125 264.01324462890625" stroke-width="6.0" fill="none" stroke="rgb(0, 0, 0)" stroke-opacity="1.0" stroke-linecap="round" stroke-linejoin="round"/>
    <path d="M 575.2420654296875 73.04112243652344 C 604.4232788085938 53.964820861816406 582.7695922851562 70.8549575805664 561.523193359375 80.75430297851562 C 570.518798828125 109.24070739746094 579.2549438476562 95.21807861328125 582.8660278320312 73.46033477783203 C 607.0650024414062 57.0537223815918 589.5322875976562 56.211944580078125 593.0121459960938 42.40243148803711 C 621.8870239257812 52.931827545166016 595.7463989257812 53.81269454956055 595.2627563476562 41.86079406738281 C 618.2577514648438 43.110389709472656 607.86474609375 43.19697189331055 580.9521484375 29.12669563293457" stroke-width="6.0" fill="none" stroke="rgb(0, 0, 0)" stroke-opacity="1.0" stroke-linecap="round" stroke-linejoin="round"/>
    <path d="M 197.80142211914062 350.49298095703125 C 209.03060913085938 375.25482177734375 198.56369018554688 391.78826904296875 208.27923583984375 400.93182373046875 C 218.2443084716797 418.38006591796875 210.55471801757812 436.4085998535156 210.69964599609375 440.1059875488281 C 180.82737731933594 463.3075256347656 171.0668487548828 484.2912902832031 148.97271728515625 478.06719970703125 C 163.92938232421875 487.1267395019531 149.59768676757812 472.4536437988281 155.69692993164062 455.34375 C 150.55081176757812 438.79522705078125 148.52432250976562 430.8539733886719 125.00658416748047 458.62164306640625" stroke-width="6.0" fill="none" stroke="rgb(0, 0, 0)" stroke-opacity="1.0" stroke-linecap="round" stroke-linejoin="round"/>
    <path d="M 213.05899047851562 529.7062377929688 C 231.0371551513672 510.3205261230469 204.72427368164062 489.416015625 233.5653839111328 490.0220947265625 C 230.15000915527344 487.37689208984375 206.13511657714844 479.4964294433594 179.1776580810547 469.04425048828125 C 187.07199096679688 444.60552978515625 215.3326873779297 435.4216613769531 241.97607421875 406.7237854003906 C 232.43597412109375 399.1677551269531 208.5128631591797 382.5956115722656 231.2202911376953 385.4754333496094 C 204.2000274658203 360.7308654785156 189.98670959472656 341.9830627441406 171.1645050048828 323.1313781738281" stroke-width="6.0" fill="none" stroke="rgb(0, 0, 0)" stroke-opacity="1.0" stroke-linecap="round" stroke-linejoin="round"/>
    <path d="M 337.5727844238281 520.7988891601562 C 336.1203918457031 516.19775390625 348.73345947265625 498.4865417480469 369.9859619140625 508.78363037109375 C 381.5362548828125 481.6408386230469 368.28521728515625 464.07330322265625 371.16326904296875 434.1671447753906 C 343.5966796875 463.10931396484375 361.6206970214844 470.04547119140625 336.26593017578125 489.4538879394531 C 308.81903076171875 481.271728515625 286.43359375 456.16302490234375 272.4698791503906 453.7107238769531 C 292.825439453125 470.3811340332031 317.9236145019531 475.24383544921875 333.91998291015625 466.9148254394531" stroke-width="6.0" fill="none" stroke="rgb(0, 0, 0)" stroke-opacity="1.0" stroke-linecap="round" stroke-linejoin="round"/>
    <path d="M 359.1788024902344 200.2714080810547 C 337.14111328125 171.4081573486328 317.9525146484375 178.3934326171875 313.7054138183594 205.8421173095703 C 331.8117980957031 188.77626037597656 355.9857482910156 188.96426391601562 337.6101989746094 177.73094177246094 C 359.6510009765625 185.38162231445312 358.39910888671875 209.15260314941406 371.57177734375 186.60276794433594 C 343.9806823730469 161.21141052246094 349.70098876953125 140.3999786376953 373.0676574707031 118.79598999023438 C 367.1548767089844 124.01643371582031 354.4049377441406 142.2310028076172 336.5148620605469 139.86509704589844" stroke-width="6.0" fill="none" stroke="rgb(0, 0, 0)" stroke-opacity="1.0" stroke-linecap="round" stroke-linejoin="round"/>
    <path d="M 169.48974609375 268.1867980957031 C 197.51535034179688 247.4866485595703 184.52044677734375 222.44772338867188 162.0959930419922 209.36795043945312 C 180.04698181152344 190.14486694335938 175.58609008789062 181.26828002929688 196.8997039794922 161.80030822753906 C 179.0144805908203 136.94717407226562 173.8438262939453 128.29534912109375 174.4553680419922 123.40654754638672 C 153.18812561035156 120.62789916992188 143.05352783203125 99.61537170410156 140.4676971435547 77.98611450195312 C 113.73604583740234 62.48337173461914 121.47943878173828 60.86753463745117 94.926025390625 58.149208068847656" stroke-width="6.0" fill="none" stroke="rgb(0, 0, 0)" stroke-opacity="1.0" stroke-linecap="round" stroke-linejoin="round"/>
    <path d="M 188.45127868652344 4.629778861999512 C 211.8068389892578 -3.995420217514038 226.7064208984375 16.523338317871094 237.8175048828125 12.72074031829834 C 237.06320190429688 8.296697616577148 207.2276153564453 6.0383195877075195 181.78854370117188 -19.701799392700195 C 162.4583740234375 -7.832343101501465 137.93695068359375 -14.848052024841309 160.1069793701172 -8.918354034423828 C 178.7185516357422 19.391971588134766 170.61708068847656 37.13642120361328 175.07806396484375 20.914594650268555 C 186.853759765625 4.795380115509033 194.63238525390625 -2.970095157623291 196.4158935546875 11.074464797973633" stroke-width="6.0" fill="none" stroke="rgb(0, 0, 0)" stroke-opacity="1.0" stroke-linecap="round" stroke-linejoin="round"/>
    <path d="M 420.5377197265625 581.0106201171875 C 442.79010009765625 576.1268310546875 441.1749267578125 549.45068359375 437.7165832519531 537.2587280273438 C 416.43341064453125 513.7550659179688 418.11419677734375 485.67913818359375 404.3987731933594 479.475830078125 C 390.3027648925781 494.4683837890625 407.35003662109375 502.1531982421875 418.3565979003906 516.5061645507812 C 422.7688293457031 495.06719970703125 394.840087890625 469.1966247558594 411.3289794921875 493.5117492675781 C 400.7086181640625 481.7986755371094 400.9740905761719 498.5421447753906 376.8856201171875 504.9896240234375" stroke-width="6.0" fill="none" stroke="rgb(0, 0, 0)" stroke-opacity="1.0" stroke-linecap="round" stroke-linejoin="round"/>
    <path d="M 114.19681549072266 234.79042053222656 C 106.09829711914062 219.65921020507812 134.9295654296875 201.84417724609375 119.2165298461914 190.78672790527344 C 131.77662658691406 182.9250030517578 119.89593505859375 180.81272888183594 142.1265411376953 150.9866180419922 C 161.34445190429688 174.9691162109375 138.47552490234375 191.23324584960938 124.32833862304688 188.323486328125 C 121.2667465209961 196.7107391357422 100.07008361816406 213.88812255859375 70.7135238647461 241.88754272460938 C 56.886802673339844 215.57679748535156 76.0217056274414 206.03733825683594 88.02596282958984 213.38128662109375" stroke-width="6.0" fill="none" stroke="rgb(0, 0, 0)" stroke-opacity="1.0" stroke-linecap="round" stroke-linejoin="round"/>
    <path d="M 331.05963134765625 407.99688720703125 C 349.3592224121094 429.7533874511719 374.5847473144531 437.4085693359375 378.50860595703125 435.6106262207031 C 375.45343017578125 456.0447082519531 377.798095703125 448.8856201171875 354.344482421875 441.64105224609375 C 350.97149658203125 413.84967041015625 357.2298889160156 413.4645080566406 371.59967041015625 441.536865234375 C 388.05352783203125 425.8356628417969 403.8619689941406 399.9870300292969 377.29425048828125 390.856689453125 C 369.1192626953125 410.3751220703125 344.156982421875 403.0805358886719 360.3016662597656 384.4328308105469" stroke-width="6.0" fill="none" stroke="rgb(0, 0, 0)" stroke-opacity="1.0" stroke-linecap="round" stroke-linejoin="round"/>
    <path d="M 430.4646911621094 44.16163635253906 C 435.7961730957031 73.86317443847656 428.34375 82.47816467285156 400.05950927734375 88.60765838623047 C 419.0567932128906 101.96861267089844 391.6463928222656 93.03173828125 404.6889343261719 100.76057434082031 C 430.37353515625 122.96737670898438 450.05560302734375 151.71438598632812 440.0985412597656 133.87229919433594 C 460.55474853515625 131.89736938476562 470.3915710449219 153.04689025878906 499.7797546386719 174.98715209960938 C 470.22210693359375 160.60472106933594 450.97772216796875 131.38572692871094 453.2568054199219 140.26768493652344" stroke-width="6.0" fill="none" stroke="rgb(0, 0, 0)" stroke-opacity="1.0" stroke-linecap="round" stroke-linejoin="round"/>
    <path d="M 255.24717712402344 391.51177978515625 C 268.4814758300781 388.5218200683594 273.3394775390625 407.6483459472656 268.0196533203125 423.2535400390625 C 296.71124267578125 443.06524658203125 306.17010498046875 460.3633728027344 325.3150939941406 434.2546691894531 C 328.9418640136719 435.0066223144531 350.8486328125 449.3368835449219 322.47198486328125 455.7187194824219 C 348.7894592285156 438.93548583984375 369.1356506347656 444.1936340332031 343.2158508300781 430.8939208984375 C 347.5221252441406 449.80877685546875 321.5567321777344 447.80999755859375 294.4960632324219 429.5882873535156" stroke-width="6.0" fill="none" stroke="rgb(0, 0, 0)" stroke-opacity="1.0" stroke-linecap="round" stroke-linejoin="round"/>
    <path d="M 81.54039764404297 414.1568298339844 C 91.54671478271484 415.8396911621094 82.27024841308594 436.44024658203125 92.369873046875 447.8591613769531 C 90.0798110961914 467.2559814453125 111.10804748535156 484.3497009277344 86.22564697265625 494.651123046875 C 84.03440856933594 506.4707946777344 84.4256362915039 529.3272094726562 60.49903869628906 533.1173095703125 C 56.10718536376953 542.4796142578125 70.22213745117188 567.0052490234375 58.536659240722656 538.6954956054688 C 57.98808288574219 520.8323364257812 47.10417175292969 526.5098876953125 40.524784088134766 544.4393310546875" stroke-width="6.0" fill="none" stroke="rgb(0, 0, 0)" stroke-opacity="1.0" stroke-linecap="round" stroke-linejoin="round"/>
    <path d="M 411.52801513671875 594.3135375976562 C 430.5341491699219 573.2713012695312 421.7802429199219 592.2285766601562 442.43829345703125 620.484619140625 C 434.56195068359375 604.8740844726562 460.2093505859375 624.9086303710938 486.2344055175781 634.682373046875 C 504.0592041015625 648.518798828125 521.00537109375 655.107421875 512.1077270507812 628.0299682617188 C 503.523193359375 623.494873046875 518.3436279296875 646.251708984375 531.6923828125 641.2156982421875 C 530.0654296875 633.0020141601562 507.3042907714844 610.8450927734375 484.0846252441406 624.4613647460938" stroke-width="6.0" fill="none" stroke="rgb(0, 0, 0)" stroke-opacity="1.0" stroke-linecap="round" stroke-linejoin="round"/>
    <path d="M 157.3041534423828 269.5447692871094 C 186.12681579589844 269.4923400878906 192.5595703125 261.9212951660156 221.6138458251953 287.6717529296875 C 231.61390686035156 314.379150390625 240.93023681640625 302.7928466796875 243.15306091308594 295.1634521484375 C 249.37767028808594 300.53875732421875 264.4812316894531 281.1853942871094 243.15695190429688 253.39117431640625 C 218.01217651367188 235.39999389648438 229.83387756347656 258.9234924316406 225.3810272216797 263.59930419921875 C 204.30325317382812 282.1906433105469 181.0194091796875 257.49346923828125 176.23312377929688 262.60955810546875" stroke-width="6.0" fill="none" stroke="rgb(0, 0, 0)" stroke-opacity="1.0" stroke-linecap="round" stroke-linejoin="round"/>
    <path d="M 113.50944519042969 221.716552734375 C 124.20407104492188 204.4897918701172 98.78218078613281 220.369140625 97.48558807373047 203.4141082763672 C 86.7417984008789 197.01300048828125 64.69808197021484 214.883544921875 78.0799560546875 213.530029296875 C 62.00852966308594 203.29547119140625 51.937496185302734 198.6669921875 32.23736572265625 176.8520965576172 C 42.729576110839844 193.3852081298828 70.0958480834961 178.56007385253906 70.38668823242188 155.42425537109375 C 73.89852142333984 149.6181182861328 95.16814422607422 154.97215270996094 82.59111022949219 147.0355224609375" stroke-width="6.0" fill="none" stroke="rgb(0, 0, 0)" stroke-opacity="1.0" stroke-linecap="round" stroke-linejoin="round"/>
    <path d="M 271.214599609375 342.3712463378906 C 251.16673278808594 320.0233459472656 255.9072723388672 294.9855651855469 264.55462646484375 295.5865783691406 C 254.6934356689453 321.5886535644531 272.2864074707031 325.64813232421875 258.90057373046875 338.8814392089844 C 279.58013916015625 331.292724609375 295.062255859375 340.1950988769531 284.0382080078125 368.1612548828125 C 295.6015930175781 367.858154296875 294.55255126953125 388.56005859375 269.2851867675781 376.59942626953125 C 243.7350616455078 354.0917663574219 231.77114868164062 342.2403259277344 220.967041015625 333.18487548828125" stroke-width="6.0" fill="none" stroke="rgb(0, 0, 0)" stroke-opacity="1.0" stroke-linecap="round" stroke-linejoin="round"/>
    <path d="M 301.72259521484375 417.3804931640625 C 275.8851623535156 407.2459716796875 266.9482727050781 428.6289367675781 245.3916015625 456.7503356933594 C 224.90689086914062 463.9243469238281 225.84104919433594 477.90875244140625 207.1267547607422 483.4001770019531 C 228.36534118652344 480.4026184082031 219.50564575195312 475.4649658203125 242.42929077148438 460.85986328125 C 224.39730834960938 436.88507080078125 226.54776000976562 460.31982421875 244.00726318359375 488.90863037109375 C 262.44244384765625 491.13507080078125 251.91323852539062 485.11920166015625 267.4142761230469 468.7889404296875" stroke-width="6.0" fill="none" stroke="rgb(0, 0, 0)" stroke-opacity="1.0" stroke-linecap="round" stroke-linejoin="round"/>
    <path d="M 553.6232299804688 385.9097900390625 C 539.9783935546875 404.021728515625 513.60498046875 417.0329284667969 484.5834655761719 395.7873840332031 C 483.79058837890625 410.74774169921875 482.2271728515625 418.081787109375 473.1156311035156 438.5713806152344 C 452.17083740234375 463.82073974609375 422.2546691894531 484.8687744140625 440.2364196777344 485.1645812988281 C 462.8339538574219 492.06170654296875 469.5116882324219 518.345703125 478.0017395019531 501.1533508300781 C 457.379150390625 522.004638671875 465.03851318359375 506.7698669433594 461.9364013671875 533.9644775390625" stroke-width="6.0" fill="none" stroke="rgb(0, 0, 0)" stroke-opacity="1.0" stroke-linecap="round" stroke-linejoin="round"/>
    <path d="M 126.06232452392578 183.9917449951172 C 126.23016357421875 192.04139709472656 102.27488708496094 181.53843688964844 102.24394989013672 202.84390258789062 C 90.2180404663086 195.0498046875 63.41067886352539 170.60031127929688 92.07147979736328 165.28248596191406 C 112.605224609375 188.0098419189453 92.24752807617188 169.25244140625 112.21771240234375 159.35182189941406 C 101.5777816772461 154.28536987304688 81.33776092529297 179.00732421875 109.06854248046875 198.8390655517578 C 99.56949615478516 183.91868591308594 92.93267059326172 196.4704132080078 73.06970977783203 206.2470703125" stroke-width="6.0" fill="none" stroke="rgb(0, 0, 0)" stroke-opacity="1.0" stroke-linecap="round" stroke-linejoin="round"/>
    <path d="M 341.7695617675781 2.3796133995056152 C 361.9615783691406 -22.618783950805664 358.6510009765625 -12.634305953979492 342.3954162597656 -19.53903579711914 C 367.1795959472656 5.560551643371582 385.2658996582031 31.11564064025879 405.2579345703125 16.66692352294922 C 416.3687438964844 29.911462783813477 389.40692138671875 2.9548873901367188 406.8915100097656 28.53515625 C 408.4208679199219 57.65210723876953 381.5091552734375 62.337501525878906 397.93658447265625 38.83884811401367 C 379.3297424316406 16.84654426574707 364.9152526855469 32.5992431640625 340.0397033691406 13.23851203918457" stroke-width="6.0" fill="none" stroke="rgb(0, 0, 0)" stroke-opacity="1.0" stroke-linecap="round" stroke-linejoin="round"/>
    <path d="M 547.5582275390625 99.29472351074219 C 555.5447387695312 98.55098724365234 549.5062866210938 91.5291748046875 522.0026245117188 97.93154907226562 C 518.2100219726562 107.83899688720703 493.3636169433594 121.75492095947266 517.8045654296875 107.94367980957031 C 499.269287109375 118.3903579711914 495.394287109375 109.9697494506836 513.6114501953125 88.39845275878906 C 504.0440673828125 114.78087615966797 522.0515747070312 88.82109832763672 546.3389892578125 100.61964416503906 C 569.0550537109375 103.73517608642578 565.4097900390625 110.53260803222656 575.4291381835938 124.1541519165039" stroke-width="6.0" fill="none" stroke="rgb(0, 0, 0)" stroke-opacity="1.0" stroke-linecap="round" stroke-linejoin="round"/>
    <path d="M 329.30255126953125 339.5117492675781 C 341.53594970703125 320.1724853515625 359.7155456542969 325.7314147949219 339.9266052246094 344.59783935546875 C 361.65386962890625 353.1453552246094 337.85247802734375 340.1337585449219 342.0382385253906 364.7630920410156 C 328.2983093261719 341.5772399902344 304.8678283691406 311.98760986328125 279.91326904296875 330.92169189453125 C 307.6019287109375 342.5237121582031 301.44818115234375 347.1184997558594 282.82183837890625 324.37835693359375 C 304.1050720214844 319.14959716796875 283.33526611328125 343.45550537109375 303.066162109375 362.7029724121094" stroke-width="6.0" fill="none" stroke="rgb(0, 0, 0)" stroke-opacity="1.0" stroke-linecap="round" stroke-linejoin="round"/>
    <path d="M 18.29722023010254 270.1147766113281 C 41.69899368286133 249.24356079101562 48.85578536987305 249.60888671875 37.01934814453125 238.04229736328125 C 44.1155891418457 238.23410034179688 71.73696899414062 231.6943359375 63.57619094848633 219.53201293945312 C 38.02236557006836 222.07977294921875 35.82343292236328 248.4495086669922 41.81489944458008 233.28707885742188 C 34.950008392333984 256.50201416015625 24.566936492919922 262.9422607421875 0.6738067269325256 257.92279052734375 C 28.109315872192383 269.5537109375 32.67216491699219 299.3223571777344 60.67197036743164 280.8056945800781" stroke-width="6.0" fill="none" stroke="rgb(0, 0, 0)" stroke-opacity="1.0" stroke-linecap="round" stroke-linejoin="round"/>
    <path d="M 89.72004699707031 68.20744323730469 C 98.99793243408203 91.75325775146484 74.9003677368164 65.4514389038086 63.779090881347656 43.6950798034668 C 39.91954803466797 37.853607177734375 62.58888626098633 53.90375900268555 85.82157135009766 38.05311584472656 C 66.80341339111328 23.0954532623291 79.7193374633789 -6.162354946136475 57.242393493652344 16.72212028503418 C 79.84676361083984 41.990272521972656 73.5189208984375 68.55044555664062 72.11573791503906 43.45083236694336 C 56.67750549316406 60.2723388671875 27.279165267944336 38.638587951660156 12.092986106872559 58.74056625366211" stroke-width="6.0" fill="none" stroke="rgb(0, 0, 0)" stroke-opacity="1.0" stroke-linecap="round" stroke-linejoin="round"/>
    <path d="M 454.5238037109375 151.86279296875 C 439.0283508300781 147.29750061035156 457.018798828125 166.11004638671875 455.4640197753906 137.9283447265625 C 471.8294982910156 145.07310485839844 485.7339782714844 154.181884765625 493.80279541015625 163.8487548828125 C 499.2453308105469 165.92453002929688 507.6328430175781 190.520263671875 503.189208984375 184.22860717773438 C 501.4151611328125 157.33712768554688 503.7599792480469 179.92791748046875 525.629638671875 179.1756134033203 C 503.67529296875 151.5586395263672 512.692626953125 132.267333984375 500.2193603515625 143.5162811279297" stroke-width="6.0" fill="none" stroke="rgb(0, 0, 0)" stroke-opacity="1.0" stroke-linecap="round" stroke-linejoin="round"/>
    <path d="M 12.258492469787598 499.5560302734375 C 24.19597053527832 522.5042724609375 16.418224334716797 496.8867492675781 27.69357681274414 515.7493286132812 C 42.95322799682617 528.6304321289062 42.576019287109375 553.6239013671875 29.595455169677734 551.341064453125 C 58.0730094909668 542.0609741210938 39.0438232421875 532.84228515625 62.12558364868164 529.0143432617188 C 80.77496337890625 558.3816528320312 86.37159729003906 540.82373046875 67.04450225830078 570.7090454101562 C 63.10862350463867 584.1040649414062 78.31501007080078 596.9426879882812 83.17082214355469 586.08642578125" stroke-width="6.0" fill="none" stroke="rgb(0, 0, 0)" stroke-opacity="1.0" stroke-linecap="round" stroke-linejoin="round"/>
    <path d="M 111.1881332397461 333.35064697265625 C 87.39201354980469 336.39056396484375 105.05415344238281 337.1079406738281 86.53760528564453 329.9875183105469 C 67.9998550415039 340.1846008300781 47.98457336425781 360.2365417480469 50.94141387939453 355.8253173828125 C 22.22191619873047 378.94366455078125 36.517539978027344 351.3275451660156 17.31627655029297 373.9117736816406 C 8.4531831741333 398.7169494628906 24.84956169128418 382.5760498046875 26.113426208496094 388.7011413574219 C 30.842220306396484 362.9877014160156 5.720834255218506 358.5306396484375 10.436694145202637 339.7957763671875" stroke-width="6.0" fill="none" stroke="rgb(0, 0, 0)" stroke-opacity="1.0" stroke-linecap="round" stroke-linejoin="round"/>
    <path d="M 48.504974365234375 114.68150329589844 C 33.511756896972656 127.14803314208984 46.70664596557617 117.91889190673828 65.61238861083984 146.92323303222656 C 95.41200256347656 117.12100982666016 94.18115997314453 87.48880767822266 97.6965560913086 112.57843017578125 C 121.79975128173828 116.59896850585938 131.3170928955078 123.16426086425781 148.89923095703125 117.13419342041016 C 165.7935028076172 114.45831298828125 166.06764221191406 126.75926971435547 160.9838409423828 142.881103515625 C 145.24465942382812 168.90292358398438 163.95664978027344 193.62008666992188 155.4208221435547 200.31333923339844" stroke-width="6.0" fill="none" stroke="rgb(0, 0, 0)" stroke-opacity="1.0" stroke-linecap="round" stroke-linejoin="round"/>
    <path d="M 493.90362548828125 331.44696044921875 C 508.2945251464844 318.1212158203125 488.57342529296875 342.13470458984375 493.5753173828125 332.3335266113281 C 475.3439636230469 353.0999755859375 456.6796875 325.1741027832031 446.32403564453125 299.21337890625 C 433.9327697753906 304.12347412109375 416.4229431152344 315.4493408203125 393.0069580078125 330.30889892578125 C 418.4373779296875 306.2790222167969 424.23638916015625 306.1520690917969 414.79388427734375 316.54351806640625 C 443.43353271484375 334.9447021484375 439.16680908203125 329.05889892578125 430.5356750488281 335.3432922363281" stroke-width="6.0" fill="none" stroke="rgb(0, 0, 0)" stroke-opacity="1.0" stroke-linecap="round" stroke-linejoin="round"/>
    <path d="M 565.6889038085938 201.0847625732422 C 537.5152587890625 174.97789001464844 521.7562866210938 197.9520721435547 546.0528564453125 176.39208984375 C 531.7417602539062 171.5806427001953 543.8655395507812 192.1773223876953 561.0762939453125 190.14466857910156 C 588.688720703125 162.53692626953125 601.2509155273438 185.54812622070312 620.814453125 165.89744567871094 C 628.8125 168.5970001220703 607.2081298828125 143.40771484375 580.995849609375 160.95481872558594 C 582.5755615234375 168.2800750732422 596.1043090820312 183.28709411621094 587.3026123046875 204.9302520751953" stroke-width="6.0" fill="none" stroke="rgb(0, 0, 0)" stroke-opacity="1.0" stroke-linecap="round" stroke-linejoin="round"/>
    <path d="M 404.8673400878906 445.01416015625 C 425.9638671875 434.2236022949219 404.26556396484375 453.4897766113281 378.5019226074219 433.2036437988281 C 393.4541931152344 460.0830993652344 388.880859375 475.5282897949219 388.76348876953125 494.4928894042969 C 362.9433288574219 482.8416748046875 383.4190979003906 465.1923522949219 412.8510437011719 441.50164794921875 C 383.8599548339844 443.64398193359375 378.02496337890625 472.08331298828125 351.2152404785156 467.9624328613281 C 367.22613525390625 484.89056396484375 372.1140441894531 470.4555358886719 391.9855041503906 442.0605773925781" stroke-width="6.0" fill="none" stroke="rgb(0, 0, 0)" stroke-opacity="1.0" stroke-linecap="round" stroke-linejoin="round"/>
    <path d="M 488.4034118652344 319.5482482910156 C 488.9692687988281 290.63104248046875 501.2683410644531 278.50146484375 528.37841796875 291.4572448730469 C 539.029052734375 316.5189514160156 516.8084106445312 316.5669250488281 505.08148193359375 328.9522705078125 C 476.46563720703125 304.1868896484375 449.1981201171875 305.254638671875 477.54901123046875 278.97552490234375 C 485.6134948730469 277.21044921875 482.3503723144531 294.76287841796875 463.8439636230469 310.3321838378906 C 450.7768859863281 316.76708984375 449.4717102050781 341.6527404785156 420.0764465332031 351.4971618652344" stroke-width="6.0" fill="none" stroke="rgb(0, 0, 0)" stroke-opacity="1.0" stroke-linecap="round" stroke-linejoin="round"/>
    <path d="M 577.587158203125 168.06256103515625 C 586.2407836914062 177.92005920410156 571.5895385742188 191.374267578125 559.9767456054688 169.13682556152344 C 532.5800170898438 160.8102264404297 554.8273315429688 179.13760375976562 542.5210571289062 172.843505859375 C 516.459228515625 180.5438690185547 493.0507507324219 157.90138244628906 483.22442626953125 147.93887329101562 C 497.976318359375 152.21237182617188 475.9658203125 165.41744995117188 491.55615234375 195.3278350830078 C 502.5941162109375 173.00204467773438 486.5553894042969 200.64784240722656 481.951171875 222.2853546142578" stroke-width="6.0" fill="none" stroke="rgb(0, 0, 0)" stroke-opacity="1.0" stroke-linecap="round" stroke-linejoin="round"/>
    <path d="M 415.4493103027344 78.30611419677734 C 390.5545349121094 70.97248840332031 407.4207458496094 83.61886596679688 425.50494384765625 89.61345672607422 C 441.0152282714844 116.03007507324219 444.2742004394531 128.9489288330078 468.6475830078125 148.33921813964844 C 468.073974609375 146.94647216796875 464.35125732421875 139.2104034423828 438.1653137207031 139.21646118164062 C 436.0484619140625 113.76386260986328 453.47845458984375 120.19214630126953 428.5199279785156 148.4498291015625 C 411.912353515625 145.79812622070312 420.0639953613281 125.44234466552734 406.72808837890625 124.0354232788086" stroke-width="6.0" fill="none" stroke="rgb(0, 0, 0)" stroke-opacity="1.0" stroke-linecap="round" stroke-linejoin="round"/>
    <path d="M 23.280914306640625 216.72763061523438 C 28.49663543701172 205.8727264404297 42.85247039794922 200.46609497070312 43.440826416015625 220.2482452392578 C 52.19285202026367 237.67018127441406 71.89080047607422 221.0309600830078 48.69895553588867 224.36221313476562 C 59.834415435791016 224.2800750732422 88.30325317382812 233.7193145751953 105.03482818603516 247.39418029785156 C 77.39783477783203 254.97689819335938 95.119384765625 245.8470458984375 94.1869888305664 235.02694702148438 C 84.07408905029297 216.5893096923828 88.19776153564453 232.62318420410156 90.5577392578125 222.1005401611328" stroke-width="6.0" fill="none" stroke="rgb(0, 0, 0)" stroke-opacity="1.0" stroke-linecap="round" stroke-linejoin="round"/>
    <path d="M 397.02490234375 432.1955871582031 C 369.0030212402344 456.22723388671875 388.5973815917969 462.2843017578125 404.6697692871094 467.2960205078125 C 401.5532531738281 477.7123718261719 390.5252685546875 449.57818603515625 385.1599426269531 450.5719299316406 C 405.9664001464844 474.35626220703125 376.4723815917969 502.9834899902344 390.8052673339844 530.7955322265625 C 365.2874755859375 522.1024169921875 362.8056640625 531.5062866210938 344.00030517578125 542.7532958984375 C 334.7822265625 553.6997680664062 325.6767883300781 543.8543090820312 308.81951904296875 533.0709228515625" stroke-width="6.0" fill="none" stroke="rgb(0, 0, 0)" stroke-opacity="1.0" stroke-linecap="round" stroke-linejoin="round"/>
    <path d="M 169.4293212890625 455.5726623535156 C 141.58999633789062 471.1033630371094 166.73365783691406 483.6357116699219 177.34552001953125 480.95770263671875 C 189.25811767578125 481.1578369140625 190.83612060546875 509.480712890625 196.1051788330078 532.0842895507812 C 204.76585388183594 555.9736328125 182.89129638671875 584.3795776367188 159.24249267578125 609.8789672851562 C 173.658447265625 607.2108764648438 152.04881286621094 617.1759033203125 177.5828094482422 588.4757690429688 C 192.94862365722656 577.0971069335938 208.53749084472656 551.18017578125 186.02520751953125 531.5674438476562" stroke-width="6.0" fill="none" stroke="rgb(0, 0, 0)" stroke-opacity="1.0" stroke-linecap="round" stroke-linejoin="round"/>
    <path d="M 241.4994659423828 412.82958984375 C 233.52313232421875 412.3764343261719 245.0941619873047 435.9267272949219 231.8634796142578 462.44342041015625 C 203.2426300048828 474.0867614746094 191.880126953125 469.7381591796875 190.9286651611328 471.04718017578125 C 176.3553924560547 457.492431640625 203.9511260986328 435.0574035644531 191.49180603027344 454.48095703125 C 219.16314697265625 427.9986267089844 204.68882751464844 430.91546630859375 202.8899688720703 407.8542785644531 C 173.79025268554688 384.9024963378906 171.62142944335938 401.6177673339844 155.4772491455078 380.9996032714844" stroke-width="6.0" fill="none" stroke="rgb(0, 0, 0)" stroke-opacity="1.0" stroke-linecap="round" stroke-linejoin="round"/>
    <path d="M 277.9463806152344 28.203716278076172 C 265.06231689453125 15.829176902770996 282.2121276855469 -12.421928405761719 266.8685607910156 -23.9444637298584 C 259.4410400390625 -28.555789947509766 261.24774169921875 0.9568659067153931 283.7394714355469 10.392977714538574 C 269.1214904785156 29.070110321044922 279.8804931640625 44.355873107910156 288.2257080078125 17.77869415283203 C 306.11138916015625 1.4334756135940552 335.068115234375 19.601415634155273 331.60675048828125 25.28948402404785 C 346.0479431152344 51.299407958984375 350.452880859375 36.966712951660156 370.9417419433594 16.61734390258789" stroke-width="6.0" fill="none" stroke="rgb(0, 0, 0)" stroke-opacity="1.0" stroke-linecap="round" stroke-linejoin="round"/>
    <path d="M 280.2496337890625 169.48593139648438 C 281.9333801269531 145.8428497314453 308.027099609375 127.30181884765625 283.6217956542969 122.90211486816406 C 312.277587890625 107.56578826904297 297.1252136230469 126.41007232666016 322.4648132324219 137.7704620361328 C 341.3602600097656 113.62429809570312 358.5887756347656 93.54737091064453 350.6210021972656 68.3877944946289 C 369.6537780761719 41.81996154785156 354.3975830078125 26.341936111450195 369.933349609375 12.590646743774414 C 383.66357421875 -8.135931015014648 406.9615478515625 10.227987289428711 405.101318359375 -18.07194709777832" stroke-width="6.0" fill="none" stroke="rgb(0, 0, 0)" stroke-opacity="1.0" stroke-linecap="round" stroke-linejoin="round"/>
    <path d="M 487.4908142089844 580.4813842773438 C 498.8203430175781 563.0804443359375 477.1446533203125 538.5650634765625 486.10888671875 517.895263671875 C 463.47723388671875 537.15234375 448.94732666015625 545.37158203125 425.7598876953125 565.5296630859375 C 449.8586120605469 573.934326171875 421.5246887207031 544.629150390625 397.67236328125 558.8494262695312 C 406.64923095703125 541.1236572265625 423.69281005859375 532.7525024414062 401.3684997558594 507.27569580078125 C 411.90228271484375 493.16241455078125 420.7060546875 488.5523376464844 446.3133544921875 497.79150390625" stroke-width="6.0" fill="none" stroke="rgb(0, 0, 0)" stroke-opacity="1.0" stroke-linecap="round" stroke-linejoin="round"/>
    <path d="M 567.739013671875 448.9576721191406 C 559.6712646484375 430.9676513671875 545.6021118164062 409.13299560546875 562.099365234375 386.3281555175781 C 582.050537109375 362.84820556640625 593.1757202148438 372.9327392578125 600.4461059570312 385.8581237792969 C 589.1111450195312 399.9316101074219 583.8963623046875 412.0382080078125 585.9326171875 433.09930419921875 C 575.69970703125 415.6785583496094 591.490966796875 445.4841613769531 580.4948120117188 473.7577209472656 C 574.5833740234375 451.3928527832031 583.052734375 443.5174865722656 585.0841674804688 429.7001953125" stroke-width="6.0" fill="none" stroke="rgb(0, 0, 0)" stroke-opacity="1.0" stroke-linecap="round" stroke-linejoin="round"/>
    <path d="M 367.2444763183594 490.2365417480469 C 376.65899658203125 518.2857666015625 357.6373291015625 499.7760009765625 339.3285827636719 503.0856018066406 C 344.91827392578125 522.6142578125 345.54888916015625 534.234130859375 372.5292053222656 548.4426879882812 C 380.2441101074219 570.9964599609375 360.5278015136719 572.0687255859375 350.6915588378906 597.6322021484375 C 350.40185546875 570.326416015625 350.2262878417969 580.2655639648438 325.5080871582031 591.47314453125 C 349.01190185546875 610.7498779296875 367.5096435546875 602.392578125 384.8113708496094 621.7392578125" stroke-width="6.0" fill="none" stroke="rgb(0, 0, 0)" stroke-opacity="1.0" stroke-linecap="round" stroke-linejoin="round"/>
    <path d="M 547.2613525390625 214.8571319580078 C 534.09130859375 226.97103881835938 533.5916748046875 225.91644287109375 520.7481689453125 250.46127319335938 C 524.6777954101562 236.37388610839844 529.9158325195312 208.40931701660156 525.5440673828125 226.77325439453125 C 498.47259521484375 197.29580688476562 502.57061767578125 219.7231903076172 527.96630859375 213.1336669921875 C 530.7465209960938 190.68801879882812 545.2494506835938 188.136474609375 563.6231079101562 206.31610107421875 C 563.4534301757812 211.91766357421875 580.5628662109375 230.85215759277344 584.3112182617188 255.04489135742188" stroke-width="6.0" fill="none" stroke="rgb(0, 0, 0)" stroke-opacity="1.0" stroke-linecap="round" stroke-linejoin="round"/>
    <path d="M 519.2262573242188 391.914794921875 C 512.0165405273438 396.8833923339844 490.39935302734375 368.2117614746094 511.1860046386719 339.7131652832031 C 490.6155700683594 331.3408508300781 509.2051696777344 322.5545654296875 491.0520935058594 318.6983642578125 C 466.6069030761719 314.7067565917969 471.0171813964844 344.205322265625 492.2832336425781 363.0608825683594 C 470.8033447265625 370.9949035644531 455.9757080078125 342.85980224609375 459.7956848144531 336.7281188964844 C 437.9602355957031 346.8338317871094 461.4856262207031 323.04302978515625 460.1410217285156 305.1605224609375" stroke-width="6.0" fill="none" stroke="rgb(0, 0, 0)" stroke-opacity="1.0" stroke-linecap="round" stroke-linejoin="round"/>
    <path d="M 411.402587890625 464.2908935546875 C 394.458984375 456.5948791503906 403.4040832519531 440.5032043457031 414.2279052734375 452.015869140625 C 419.2572326660156 436.8473815917969 427.3345031738281 437.3583068847656 429.204345703125 464.2224426269531 C 455.5141906738281 461.81817626953125 459.9066162109375 441.1358337402344 485.38543701171875 436.7386169433594 C 502.5269470214844 436.7411193847656 527.1465454101562 440.89569091796875 540.7011108398438 431.0630798339844 C 558.62744140625 437.3528747558594 573.5348510742188 428.613525390625 580.925537109375 449.17694091796875" stroke-width="6.0" fill="none" stroke="rgb(0, 0, 0)" stroke-opacity="1.0" stroke-linecap="round" stroke-linejoin="round"/>
    <path d="M 439.8076171875 525.4879150390625 C 420.20562744140625 539.0361938476562 433.7445068359375 538.6168823242188 456.1894226074219 549.4801025390625 C 477.9794616699219 567.5413208007812 474.34637451171875 543.9295043945312 458.10125732421875 564.929931640625 C 484.00775146484375 551.6814575195312 455.4278869628906 534.4780883789062 483.32733154296875 528.1664428710938 C 493.2669677734375 505.9268798828125 486.5147399902344 503.6270751953125 511.60205078125 489.864501953125 C 483.3860168457031 499.8033752441406 512.0956420898438 486.4932861328125 537.4765625 476.6746520996094" stroke-width="6.0" fill="none" stroke="rgb(0, 0, 0)" stroke-opacity="1.0" stroke-linecap="round" stroke-linejoin="round"/>
    <path d="M 219.94989013671875 48.46133041381836 C 223.0957794189453 32.345706939697266 197.86306762695312 9.711884498596191 168.8175811767578 -19.895132064819336 C 146.96900939941406 2.271793842315674 124.84442138671875 15.379304885864258 104.56053924560547 13.988978385925293 C 113.55149841308594 24.73923683166504 103.86209869384766 16.12966537475586 121.47058868408203 42.073238372802734 C 150.1087646484375 68.91559600830078 146.64996337890625 94.75080871582031 141.8498992919922 93.64195251464844 C 128.18434143066406 76.01863861083984 110.79609680175781 87.97134399414062 93.85747528076172 103.13185119628906" stroke-width="6.0" fill="none" stroke="rgb(0, 0, 0)" stroke-opacity="1.0" stroke-linecap="round" stroke-linejoin="round"/>
    <path d="M 491.9317626953125 596.8877563476562 C 489.380126953125 610.7723388671875 467.37176513671875 607.2002563476562 495.1751403808594 613.6747436523438 C 511.33935546875 618.3629760742188 486.1280822753906 645.8740234375 463.2897033691406 616.609130859375 C 456.051025390625 615.9921875 471.4464416503906 590.014892578125 453.0690612792969 597.6968383789062 C 438.171875 627.5171508789062 439.4873962402344 654.9019775390625 443.6424560546875 672.1397705078125 C 471.91748046875 697.7264404296875 462.5134582519531 720.20166015625 436.6104431152344 744.35791015625" stroke-width="6.0" fill="none" stroke="rgb(0, 0, 0)" stroke-opacity="1.0" stroke-linecap="round" stroke-linejoin="round"/>
    <path d="M 285.84161376953125 66.83922576904297 C 257.4223327636719 47.730133056640625 261.0412292480469 51.29606628417969 234.97084045410156 48.486629486083984 C 206.79010009765625 67.08062744140625 236.07872009277344 40.185001373291016 243.44052124023438 60.66279602050781 C 241.4648895263672 81.66226196289062 265.7384338378906 57.98927688598633 243.52915954589844 56.58933639526367 C 225.09535217285156 83.37954711914062 251.57583618164062 97.90415954589844 252.64749145507812 71.00443267822266 C 281.34979248046875 50.5789794921875 292.7695007324219 60.76947784423828 322.63055419921875 67.16171264648438" stroke-width="6.0" fill="none" stroke="rgb(0, 0, 0)" stroke-opacity="1.0" stroke-linecap="round" stroke-linejoin="round"/>
  </g>
</svg>
