<?xml version="1.0" ?>
<svg xmlns="http://www.w3.org/2000/svg" version="1.1" width="600" height="600">
  <defs/>
  <g>
    <path d="M 82.69603729248047 130.259033203125 C 79.0724105834961 136.66845703125 55.565948486328125 165.8155975341797 49.13119888305664 190.468505859375 C 25.164640426635742 197.49305725097656 51.22492599487305 185.92108154296875 32.60706329345703 185.92149353027344 C 51.270477294921875 168.36122131347656 43.06310272216797 138.226806640625 53.981040954589844 137.64572143554688 C 34.575477600097656 151.49349975585938 10.613547325134277 143.16671752929688 8.733503341674805 156.2777557373047 C 22.337175369262695 151.6171875 31.527753829956055 154.1632080078125 49.76408004760742 141.1852264404297" stroke-width="6.0" fill="none" stroke="rgb(0, 0, 0)" stroke-opacity="1.0" stroke-linecap="round" stroke-linejoin="round"/>
    <path d="M 299.51165771484375 337.633544921875 C 301.19207763671875 328.7187805175781 292.18463134765625 353.5158386230469 281.3894348144531 361.99102783203125 C 290.9319763183594 360.8441162109375 296.2484436035156 371.18841552734375 295.5001220703125 364.51434326171875 C 280.9782409667969 385.2635498046875 304.32122802734375 403.24603271484375 313.75054931640625 407.98541259765625 C 334.69317626953125 421.934814453125 307.26953125 439.3086853027344 336.7477722167969 421.52923583984375 C 366.1078796386719 447.9982604980469 389.2059326171875 464.9460754394531 396.8281555175781 465.3490905761719" stroke-width="6.0" fill="none" stroke="rgb(0, 0, 0)" stroke-opacity="1.0" stroke-linecap="round" stroke-linejoin="round"/>
    <path d="M 468.9049987792969 40.291343688964844 C 479.72845458984375 21.2623233795166 453.2718811035156 24.832077026367188 435.47393798828125 12.623383522033691 C 447.01837158203125 12.664979934692383 461.92218017578125 -2.679276943206787 437.3459777832031 -18.871496200561523 C 457.10107421875 -3.1033456325531006 455.51611328125 -9.960308074951172 462.893798828125 -24.235685348510742 C 445.04266357421875 -23.46223258972168 461.5192565917969 -44.97243881225586 488.5835876464844 -63.65926742553711 C 502.31048583984375 -52.66714859008789 486.82879638671875 -39.257423400878906 462.3225402832031 -59.14554214477539" stroke-width="6.0" fill="none" stroke="rgb(0, 0, 0)" stroke-opacity="1.0" stroke-linecap="round" stroke-linejoin="round"/>
    <path d="M 595.6524047851562 535.4562377929688 C 579.958740234375 541.915283203125 562.8358764648438 526.4793701171875 577.4581909179688 505.33575439453125 C 578.8926391601562 517.4364013671875 555.2343139648438 505.7569580078125 540.9005126953125 519.1395874023438 C 554.7789306640625 547.9683837890625 546.9596557617188 567.1519775390625 529.9595336914062 564.8280029296875 C 522.2744750976562 571.8238525390625 532.6373291015625 559.20654296875 552.1570434570312 565.7916870117188 C 535.4774780273438 539.2493896484375 559.29150390625 527.33203125 540.4077758789062 512.6282958984375" stroke-width="6.0" fill="none" stroke="rgb(0, 0, 0)" stroke-opacity="1.0" stroke-linecap="round" stroke-linejoin="round"/>
    <path d="M 2.424802541732788 334.5690612792969 C 6.4241838455200195 362.6944580078125 27.891067504882812 347.30438232421875 17.046424865722656 369.06109619140625 C 39.25470733642578 349.314208984375 41.61750030517578 344.9166259765625 20.205839157104492 327.054443359375 C 33.383113861083984 336.8894348144531 43.113319396972656 360.73175048828125 41.45902633666992 349.4133605957031 C 19.543804168701172 333.5586853027344 37.492942810058594 316.61346435546875 20.438167572021484 286.3316345214844 C -8.430340766906738 268.8636169433594 3.31362247467041 252.40550231933594 -18.285966873168945 232.74798583984375" stroke-width="6.0" fill="none" stroke="rgb(0, 0, 0)" stroke-opacity="1.0" stroke-linecap="round" stroke-linejoin="round"/>
    <path d="M 58.2910041809082 349.5879211425781 C 43.79800033569336 326.0924377441406 46.90346908569336 352.98724365234375 22.52952766418457 359.96502685546875 C 28.07195281982422 328.9918518066406 19.675493240356445 322.326904296875 39.120933532714844 311.88897705078125 C 20.884422302246094 317.6772766113281 28.707319259643555 334.6993408203125 -2.3352859020233154 309.9208984375 C 3.069333076477051 289.9350891113281 -1.5519152879714966 294.57635498046875 22.967830657958984 278.7210998535156 C 19.7386417388916 259.1271667480469 32.32145309448242 280.2554931640625 36.141807556152344 280.44842529296875" stroke-width="6.0" fill="none" stroke="rgb(0, 0, 0)" stroke-opacity="1.0" stroke-linecap="round" stroke-linejoin="round"/>
    <path d="M 598.59130859375 588.2706909179688 C 610.8887939453125 599.0883178710938 584.4501342773438 597.7839965820312 553.1331787109375 604.3861694335938 C 563.9920654296875 628.5075073242188 539.526611328125 605.4166259765625 539.7098999023438 621.9314575195312 C 527.7767333984375 612.4896240234375 551.0435791015625 588.8385620117188 565.1202392578125 604.0321044921875 C 534.045654296875 627.309326171875 518.986572265625 654.470458984375 504.79638671875 646.5432739257812 C 476.4653625488281 646.1288452148438 461.8314514160156 647.2831420898438 478.02825927734375 637.9796752929688" stroke-width="6.0" fill="none" stroke="rgb(0, 0, 0)" stroke-opacity="1.0" stroke-linecap="round" stroke-linejoin="round"/>
    <path d="M 496.6358947753906 297.46319580078125 C 486.3453674316406 307.5179138183594 482.8153991699219 324.51641845703125 480.0483093261719 312.66510009765625 C 498.9707336425781 327.23565673828125 483.0658874511719 318.4302978515625 502.396484375 332.2840881347656 C 524.5054931640625 340.2582702636719 492.3720703125 350.67950439453125 516.5921630859375 359.5954284667969 C 538.496337890625 348.3742370605469 560.8080444335938 361.93798828125 590.0992431640625 389.1584777832031 C 616.5480346679688 405.968994140625 620.1822509765625 399.37548828125 636.25537109375 373.22637939453125" stroke-width="6.0" fill="none" stroke="rgb(0, 0, 0)" stroke-opacity="1.0" stroke-linecap="round" stroke-linejoin="round"/>
    <path d="M 236.65394592285156 280.0137023925781 C 216.53826904296875 293.81964111328125 197.35939025878906 311.119384765625 222.73391723632812 330.55767822265625 C 213.54722595214844 341.3837585449219 236.91490173339844 322.3258972167969 248.6922149658203 309.84185791015625 C 241.0546417236328 280.4375 224.84718322753906 283.16619873046875 221.9374237060547 261.44281005859375 C 203.22967529296875 258.8586120605469 218.6343994140625 247.42803955078125 196.9609375 233.2853546142578 C 179.03048706054688 217.2436065673828 159.19346618652344 196.68910217285156 175.3358154296875 185.39549255371094" stroke-width="6.0" fill="none" stroke="rgb(0, 0, 0)" stroke-opacity="1.0" stroke-linecap="round" stroke-linejoin="round"/>
    <path d="M 317.7731018066406 287.6055908203125 C 307.9226379394531 303.93878173828125 320.7597351074219 308.4810791015625 329.8429260253906 316.6288757324219 C 313.151123046875 311.2706298828125 326.7015686035156 331.4107666015625 325.3173828125 307.39630126953125 C 344.6627197265625 298.7420349121094 345.8894958496094 313.9098815917969 360.6424255371094 317.28790283203125 C 355.37701416015625 296.34161376953125 338.7239685058594 319.52423095703125 321.107421875 333.9987487792969 C 352.81890869140625 356.4815368652344 369.6548767089844 385.9745178222656 385.7403869628906 393.08587646484375" stroke-width="6.0" fill="none" stroke="rgb(0, 0, 0)" stroke-opacity="1.0" stroke-linecap="round" stroke-linejoin="round"/>
    <path d="M 103.0387954711914 449.5213317871094 C 95.67485809326172 451.345458984375 117.19657135009766 454.670166015625 109.37974548339844 454.67401123046875 C 114.42390441894531 465.64508056640625 93.60054779052734 449.9342346191406 72.34259033203125 428.0157470703125 C 52.59266662597656 412.6380615234375 43.564998626708984 396.3998107910156 40.74930191040039 413.5772399902344 C 45.96687698364258 429.7881774902344 65.38008117675781 415.1642761230469 60.20924377441406 420.8749694824219 C 36.94706726074219 394.8642272949219 22.665395736694336 390.7376708984375 15.597172737121582 369.9469299316406" stroke-width="6.0" fill="none" stroke="rgb(0, 0, 0)" stroke-opacity="1.0" stroke-linecap="round" stroke-linejoin="round"/>
    <path d="M 266.0629577636719 236.3976287841797 C 242.53866577148438 230.11227416992188 229.17910766601562 231.13490295410156 207.8046875 245.09820556640625 C 191.50924682617188 224.4740753173828 187.08114624023438 226.4138946533203 204.70252990722656 239.2808837890625 C 214.75244140625 259.1239013671875 181.262939453125 267.98486328125 164.6527099609375 254.43202209472656 C 190.0364227294922 272.5948791503906 212.4175262451172 248.18826293945312 219.43777465820312 233.47702026367188 C 226.50604248046875 205.69415283203125 211.77490234375 196.40310668945312 216.44989013671875 194.80532836914062" stroke-width="6.0" fill="none" stroke="rgb(0, 0, 0)" stroke-opacity="1.0" stroke-linecap="round" stroke-linejoin="round"/>
    <path d="M 211.1946563720703 155.4157257080078 C 220.82630920410156 150.48802185058594 207.65170288085938 152.93746948242188 194.61947631835938 173.17303466796875 C 216.35972595214844 193.21499633789062 202.094970703125 189.43569946289062 226.7563934326172 217.6092071533203 C 206.51316833496094 245.8502960205078 217.9510040283203 253.77377319335938 212.1502685546875 269.54248046875 C 222.24339294433594 259.7756042480469 220.19036865234375 259.15032958984375 192.05252075195312 288.25823974609375 C 214.4957275390625 261.27362060546875 232.9398193359375 263.5643615722656 216.5828094482422 263.4724426269531" stroke-width="6.0" fill="none" stroke="rgb(0, 0, 0)" stroke-opacity="1.0" stroke-linecap="round" stroke-linejoin="round"/>
    <path d="M 84.40229034423828 138.39410400390625 C 82.8991928100586 151.40020751953125 88.1087646484375 135.58636474609375 66.42485809326172 113.39986419677734 C 89.94273376464844 136.9324188232422 81.95114135742188 157.2169952392578 61.973995208740234 176.13009643554688 C 46.366966247558594 176.08389282226562 70.38780975341797 146.9809112548828 78.59716033935547 164.78775024414062 C 80.5117416381836 140.9806365966797 91.68510437011719 120.98990631103516 77.57550048828125 139.635986328125 C 80.07820892333984 132.73828125 100.14289855957031 118.34632873535156 102.1048812866211 96.1575698852539" stroke-width="6.0" fill="none" stroke="rgb(0, 0, 0)" stroke-opacity="1.0" stroke-linecap="round" stroke-linejoin="round"/>
    <path d="M 251.50210571289062 413.2790832519531 C 230.24574279785156 438.08331298828125 249.09213256835938 408.68731689453125 234.04165649414062 412.89874267578125 C 215.9093475341797 401.32965087890625 237.00445556640625 425.9330749511719 258.49163818359375 396.6614074707031 C 276.37945556640625 383.9315185546875 276.9318542480469 387.1928405761719 286.03985595703125 388.3130798339844 C 305.41748046875 361.2744445800781 326.0748291015625 363.66864013671875 327.7104187011719 355.42156982421875 C 336.5944519042969 357.53759765625 320.78802490234375 335.5550231933594 288.9685974121094 344.135009765625" stroke-width="6.0" fill="none" stroke="rgb(0, 0, 0)" stroke-opacity="1.0" stroke-linecap="round" stroke-linejoin="round"/>
    <path d="M 422.7281188964844 508.085693359375 C 433.48736572265625 503.8919677734375 423.33734130859375 499.61810302734375 404.3070983886719 469.9127197265625 C 375.1711730957031 464.7064208984375 400.604248046875 488.04803466796875 426.8085021972656 502.5129699707031 C 405.8558654785156 532.9682006835938 389.0298767089844 521.5982055664062 387.1447448730469 535.2312622070312 C 395.40643310546875 524.5238647460938 377.2137756347656 511.8345947265625 362.47528076171875 498.5249328613281 C 344.911376953125 483.05169677734375 321.766357421875 473.9124450683594 334.4056701660156 480.85247802734375" stroke-width="6.0" fill="none" stroke="rgb(0, 0, 0)" stroke-opacity="1.0" stroke-linecap="round" stroke-linejoin="round"/>
    <path d="M 434.18731689453125 408.47119140625 C 442.4293212890625 386.114990234375 419.08612060546875 361.5480651855469 418.1295471191406 384.10491943359375 C 400.63189697265625 396.08392333984375 388.26007080078125 407.87945556640625 383.7729797363281 429.6023254394531 C 394.021728515625 414.0636901855469 413.15460205078125 441.01263427734375 434.5927429199219 466.3073425292969 C 428.14898681640625 456.9645080566406 439.48077392578125 476.265380859375 416.6537780761719 488.0067443847656 C 422.05706787109375 509.1710510253906 407.502685546875 519.9218139648438 427.40576171875 534.3831787109375" stroke-width="6.0" fill="none" stroke="rgb(0, 0, 0)" stroke-opacity="1.0" stroke-linecap="round" stroke-linejoin="round"/>
    <path d="M 530.0659790039062 536.7989501953125 C 516.212890625 515.589111328125 500.0435791015625 515.1407470703125 500.3191833496094 504.852294921875 C 487.088134765625 513.9932250976562 512.9240112304688 489.07781982421875 496.9650573730469 508.6598205566406 C 498.6357421875 499.3499755859375 483.6211853027344 493.84869384765625 488.22076416015625 479.03729248046875 C 461.48382568359375 476.7618103027344 440.7438049316406 484.7373352050781 476.4197998046875 508.03546142578125 C 500.8385314941406 535.1651611328125 524.3057250976562 549.3821411132812 529.8103637695312 556.185791015625" stroke-width="6.0" fill="none" stroke="rgb(0, 0, 0)" stroke-opacity="1.0" stroke-linecap="round" stroke-linejoin="round"/>
    <path d="M 34.35243606567383 431.85638427734375 C 14.29090690612793 447.02020263671875 -8.025287628173828 476.5506286621094 -31.258272171020508 464.1166687011719 C -37.60304641723633 449.23028564453125 -24.84920883178711 424.1338195800781 -48.664939880371094 429.0852355957031 C -48.37470245361328 402.706298828125 -43.78096008300781 394.500732421875 -55.57508850097656 408.38800048828125 C -67.45667266845703 433.48675537109375 -84.68352508544922 447.3869323730469 -68.50646209716797 448.35772705078125 C -65.70925903320312 457.4498291015625 -75.52033996582031 470.0766906738281 -91.04981231689453 500.0760192871094" stroke-width="6.0" fill="none" stroke="rgb(0, 0, 0)" stroke-opacity="1.0" stroke-linecap="round" stroke-linejoin="round"/>
    <path d="M 397.78564453125 588.8876953125 C 403.54205322265625 603.521728515625 417.610107421875 599.8258666992188 393.2105407714844 605.5189208984375 C 414.3990478515625 611.05322265625 405.918701171875 592.61669921875 431.98895263671875 571.0243530273438 C 443.0327453613281 582.7194213867188 447.5333557128906 556.4552612304688 478.5709228515625 574.351806640625 C 472.2889404296875 578.2711181640625 475.345458984375 584.1402587890625 489.2304382324219 581.489990234375 C 461.23773193359375 583.8660888671875 452.2124938964844 596.2042846679688 434.4107666015625 625.3139038085938" stroke-width="6.0" fill="none" stroke="rgb(0, 0, 0)" stroke-opacity="1.0" stroke-linecap="round" stroke-linejoin="round"/>
    <path d="M 492.149169921875 380.01861572265625 C 484.0322570800781 363.14837646484375 472.0816650390625 375.2987060546875 481.6570739746094 350.6104736328125 C 465.1541442871094 369.3564147949219 486.48382568359375 353.4056091308594 512.8059692382812 354.8153381347656 C 534.6156616210938 364.9587707519531 552.1971435546875 338.854736328125 527.7085571289062 324.50946044921875 C 534.8222045898438 301.25921630859375 535.2425537109375 308.5667724609375 524.9407348632812 321.749267578125 C 539.1561279296875 341.4130554199219 561.97265625 324.59503173828125 545.7840576171875 337.8594055175781" stroke-width="6.0" fill="none" stroke="rgb(0, 0, 0)" stroke-opacity="1.0" stroke-linecap="round" stroke-linejoin="round"/>
    <path d="M 478.3893127441406 421.4259033203125 C 475.2488098144531 449.05035400390625 480.2856750488281 429.8976135253906 475.1609191894531 410.0491638183594 C 474.573486328125 414.3824768066406 489.91168212890625 415.3922119140625 512.2581787109375 438.49652099609375 C 493.78912353515625 433.90496826171875 474.56719970703125 432.3608093261719 461.1381530761719 455.2755126953125 C 471.1608581542969 442.4288635253906 471.10443115234375 441.5906982421875 460.41143798828125 456.4013977050781 C 442.3625793457031 464.87652587890625 424.5537414550781 436.6717224121094 452.12933349609375 417.6404113769531" stroke-width="6.0" fill="none" stroke="rgb(0, 0, 0)" stroke-opacity="1.0" stroke-linecap="round" stroke-linejoin="round"/>
    <path d="M 284.2291259765625 212.7955780029297 C 307.31475830078125 228.1641845703125 290.1027526855469 217.3778839111328 272.7152404785156 200.56735229492188 C 248.4747314453125 228.85546875 240.8134765625 260.1561584472656 232.9927978515625 237.86131286621094 C 246.07003784179688 234.71824645996094 266.1422119140625 219.97256469726562 244.73892211914062 235.65658569335938 C 282.95611572265625 226.07240295410156 260.1070251464844 251.98353576660156 270.7610168457031 278.77996826171875 C 266.8432922363281 299.2909240722656 256.6622314453125 317.601806640625 265.9893493652344 299.0601806640625" stroke-width="6.0" fill="none" stroke="rgb(0, 0, 0)" stroke-opacity="1.0" stroke-linecap="round" stroke-linejoin="round"/>
    <path d="M 55.44734573364258 307.16162109375 C 32.34139633178711 285.3563232421875 30.149442672729492 297.7800598144531 18.15729522705078 281.1016540527344 C 34.66267776489258 263.2224426269531 42.92384719848633 260.83990478515625 70.38270568847656 239.17713928222656 C 92.27322387695312 263.7243957519531 119.00926208496094 255.74026489257812 139.55447387695312 247.32264709472656 C 169.29425048828125 229.5412139892578 171.43051147460938 216.50845336914062 198.34011840820312 191.74774169921875 C 204.17764282226562 183.0538330078125 194.44320678710938 195.44471740722656 207.729248046875 185.037109375" stroke-width="6.0" fill="none" stroke="rgb(0, 0, 0)" stroke-opacity="1.0" stroke-linecap="round" stroke-linejoin="round"/>
    <path d="M 89.00936126708984 471.4544982910156 C 105.61859893798828 455.49871826171875 114.72785949707031 435.01214599609375 132.01980590820312 421.0978088378906 C 99.32000732421875 447.096435546875 109.15724182128906 462.89959716796875 125.24556732177734 469.9932556152344 C 107.92781066894531 461.6619567871094 107.3984603881836 439.18499755859375 87.94979095458984 476.1903076171875 C 67.84113311767578 495.6806945800781 38.1059455871582 475.2444152832031 25.710079193115234 487.5382385253906 C 33.43721008300781 492.4232177734375 31.001853942871094 518.6329956054688 13.472787857055664 503.6488342285156" stroke-width="6.0" fill="none" stroke="rgb(0, 0, 0)" stroke-opacity="1.0" stroke-linecap="round" stroke-linejoin="round"/>
    <path d="M 241.14285278320312 462.6279602050781 C 211.55213928222656 449.38873291015625 209.1740264892578 450.8083801269531 236.8759307861328 435.8890380859375 C 230.29287719726562 411.6156921386719 233.6159210205078 419.4709777832031 242.21139526367188 447.3457946777344 C 242.72291564941406 422.3028564453125 264.3550109863281 421.0442199707031 260.7860107421875 392.8515930175781 C 294.181640625 401.7985534667969 279.1697692871094 424.0624694824219 267.8099670410156 413.5560607910156 C 289.2772521972656 389.08795166015625 275.6001281738281 399.3264465332031 286.4009704589844 391.78759765625" stroke-width="6.0" fill="none" stroke="rgb(0, 0, 0)" stroke-opacity="1.0" stroke-linecap="round" stroke-linejoin="round"/>
    <path d="M 375.14337158203125 90.86607360839844 C 349.891845703125 87.52486419677734 365.40948486328125 99.65015411376953 371.7928161621094 99.14561462402344 C 389.6484375 106.75411224365234 386.7629699707031 88.77755737304688 380.773681640625 112.74101257324219 C 358.9962158203125 139.36489868164062 341.1907653808594 158.86529541015625 321.2901306152344 166.6875762939453 C 326.07415771484375 173.54222106933594 351.5854797363281 188.71560668945312 351.5923156738281 164.14927673339844 C 329.1596374511719 173.79095458984375 305.07379150390625 155.6213836669922 309.1526184082031 158.21829223632812" stroke-width="6.0" fill="none" stroke="rgb(0, 0, 0)" stroke-opacity="1.0" stroke-linecap="round" stroke-linejoin="round"/>
    <path d="M 346.6825866699219 401.6129150390625 C 374.5854797363281 424.2183532714844 391.79754638671875 435.38140869140625 406.4575500488281 415.34906005859375 C 378.6429748535156 406.81927490234375 402.5662841796875 418.7997131347656 402.6316833496094 429.07183837890625 C 416.39306640625 425.8914794921875 411.7355651855469 453.4619445800781 414.2315673828125 450.6291809082031 C 440.3341369628906 470.2506103515625 446.5173645019531 473.3376159667969 433.82159423828125 479.2975769042969 C 422.32171630859375 486.2091369628906 445.6819763183594 457.1091613769531 440.1898498535156 441.7964172363281" stroke-width="6.0" fill="none" stroke="rgb(0, 0, 0)" stroke-opacity="1.0" stroke-linecap="round" stroke-linejoin="round"/>
    <path d="M 86.42364501953125 279.650146484375 C 76.52753448486328 261.1587829589844 66.35987854003906 278.67919921875 47.68282699584961 285.87969970703125 C 37.70722961425781 293.53729248046875 65.4135971069336 276.75933837890625 63.67698287963867 276.6400146484375 C 91.38842010498047 266.2513427734375 72.44801330566406 269.34185791015625 61.685264587402344 279.78106689453125 C 69.7457504272461 274.27337646484375 75.4642562866211 269.932861328125 38.30089569091797 250.92674255371094 C 32.5145263671875 225.69004821777344 17.670639038085938 241.71148681640625 -7.137824535369873 217.17877197265625" stroke-width="6.0" fill="none" stroke="rgb(0, 0, 0)" stroke-opacity="1.0" stroke-linecap="round" stroke-linejoin="round"/>
    <path d="M 476.47528076171875 275.7851867675781 C 462.3019714355469 285.78369140625 451.1994934082031 307.0798034667969 439.0030822753906 320.33837890625 C 445.9756164550781 310.7986145019531 458.00982666015625 329.9742431640625 429.6558532714844 348.01031494140625 C 417.3364562988281 354.5262145996094 405.2804870605469 337.3577575683594 433.69183349609375 329.9072570800781 C 429.27978515625 341.86431884765625 431.8528747558594 317.8299255371094 405.15081787109375 322.147705078125 C 394.57550048828125 341.9984436035156 411.120361328125 353.5341491699219 396.4260559082031 370.3148498535156" stroke-width="6.0" fill="none" stroke="rgb(0, 0, 0)" stroke-opacity="1.0" stroke-linecap="round" stroke-linejoin="round"/>
    <path d="M 100.88661193847656 192.53619384765625 C 113.42914581298828 183.10621643066406 127.3517837524414 203.24061584472656 138.11309814453125 189.93405151367188 C 135.015380859375 181.4500274658203 121.2197494506836 197.06307983398438 116.33544921875 230.06031799316406 C 115.94913482666016 240.29830932617188 122.36386108398438 216.6416015625 118.53323364257812 200.8831787109375 C 112.86991119384766 224.03135681152344 123.80908966064453 233.9956512451172 116.29681396484375 259.75787353515625 C 95.34439849853516 246.8259735107422 115.03584289550781 260.5845031738281 120.224365234375 260.8982238769531" stroke-width="6.0" fill="none" stroke="rgb(0, 0, 0)" stroke-opacity="1.0" stroke-linecap="round" stroke-linejoin="round"/>
    <path d="M 573.5010986328125 503.5685119628906 C 566.4745483398438 503.9659423828125 547.6275024414062 526.5716552734375 530.4083251953125 519.9669799804688 C 531.7542724609375 504.172607421875 549.16357421875 528.06640625 567.7993774414062 507.28350830078125 C 589.54296875 474.0531921386719 574.2067260742188 465.0633239746094 606.3875732421875 445.986083984375 C 590.9569091796875 446.276611328125 612.6064453125 457.3569030761719 607.4315795898438 463.0680236816406 C 628.1572875976562 469.3780517578125 613.85498046875 464.59320068359375 600.737060546875 449.0896911621094" stroke-width="6.0" fill="none" stroke="rgb(0, 0, 0)" stroke-opacity="1.0" stroke-linecap="round" stroke-linejoin="round"/>
    <path d="M 24.912460327148438 483.9102478027344 C 22.37769317626953 492.1781921386719 23.476654052734375 488.7814025878906 37.04569625854492 460.9762268066406 C 32.26523208618164 469.6042175292969 35.51887512207031 474.49200439453125 45.320072174072266 462.9696960449219 C 65.4320297241211 486.7045593261719 42.635284423828125 510.47552490234375 23.187641143798828 528.8867797851562 C 17.37391471862793 537.142822265625 23.41139030456543 521.6362915039062 2.4248461723327637 538.8126220703125 C 12.329865455627441 530.3345947265625 29.7460994720459 528.7464599609375 6.187882423400879 533.1235961914062" stroke-width="6.0" fill="none" stroke="rgb(0, 0, 0)" stroke-opacity="1.0" stroke-linecap="round" stroke-linejoin="round"/>
    <path d="M 28.349939346313477 205.1627655029297 C 15.484975814819336 207.45358276367188 4.6717071533203125 180.02236938476562 -10.313227653503418 197.78195190429688 C -20.774200439453125 187.71038818359375 -24.29643440246582 185.2837371826172 -10.217116355895996 190.2540740966797 C -0.7927103638648987 213.134521484375 -5.230955600738525 194.31028747558594 -34.358001708984375 189.48110961914062 C -5.242339611053467 174.43310546875 2.889914035797119 183.86204528808594 24.468231201171875 205.13999938964844 C 20.885313034057617 200.7810516357422 16.785888671875 223.62374877929688 -10.327515602111816 227.72669982910156" stroke-width="6.0" fill="none" stroke="rgb(0, 0, 0)" stroke-opacity="1.0" stroke-linecap="round" stroke-linejoin="round"/>
    <path d="M 386.3619079589844 28.002439498901367 C 405.9615783691406 6.333822250366211 406.0055236816406 -10.887889862060547 388.38006591796875 -33.92353439331055 C 389.9081726074219 -23.16260528564453 399.5986328125 -53.0864372253418 418.4939880371094 -52.14894104003906 C 407.4331970214844 -82.1295166015625 429.1896057128906 -102.08850860595703 419.5137634277344 -80.81349182128906 C 401.09515380859375 -79.6939926147461 377.4508361816406 -57.135719299316406 349.3208312988281 -76.07415008544922 C 336.97900390625 -84.84490203857422 334.9208984375 -57.05839538574219 310.47943115234375 -64.57144927978516" stroke-width="6.0" fill="none" stroke="rgb(0, 0, 0)" stroke-opacity="1.0" stroke-linecap="round" stroke-linejoin="round"/>
    <path d="M 27.74149513244629 441.7524719238281 C 41.57856369018555 424.51336669921875 30.915231704711914 433.4925537109375 38.73830795288086 416.512451171875 C 33.70414733886719 432.26611328125 25.552839279174805 451.5020751953125 6.833960056304932 456.64556884765625 C 15.7045316696167 473.75 23.184051513671875 491.8396301269531 33.16069412231445 485.91192626953125 C 7.2528076171875 484.8385009765625 15.303369522094727 461.18048095703125 -14.9072904586792 432.7376403808594 C -24.682161331176758 458.2133483886719 -18.83542251586914 440.45379638671875 -39.05925369262695 460.58843994140625" stroke-width="6.0" fill="none" stroke="rgb(0, 0, 0)" stroke-opacity="1.0" stroke-linecap="round" stroke-linejoin="round"/>
    <path d="M 577.8890380859375 334.8885192871094 C 589.855712890625 350.84326171875 614.3770141601562 344.2316589355469 611.5497436523438 372.5674133300781 C 588.8326416015625 366.8092346191406 569.8516845703125 370.2055358886719 559.1228637695312 352.50250244140625 C 572.1257934570312 340.5499572753906 554.581787109375 358.7380676269531 533.9609375 379.69415283203125 C 547.8372802734375 393.4411926269531 521.013671875 379.1461181640625 554.4775390625 360.7464294433594 C 577.7230834960938 334.2149658203125 600.7525634765625 330.1799621582031 603.3220825195312 321.8857727050781" stroke-width="6.0" fill="none" stroke="rgb(0, 0, 0)" stroke-opacity="1.0" stroke-linecap="round" stroke-linejoin="round"/>
    <path d="M 88.06916809082031 263.9247741699219 C 92.3852310180664 264.5758361816406 68.4533462524414 277.1222839355469 98.55899810791016 297.9642639160156 C 122.04609680175781 317.9817199707031 137.2794647216797 331.23699951171875 152.56427001953125 350.56915283203125 C 169.41775512695312 366.34521484375 190.36575317382812 391.88372802734375 188.90167236328125 385.8327941894531 C 156.0841064453125 368.99237060546875 159.65966796875 346.6398620605469 172.80905151367188 346.3578796386719 C 190.40765380859375 356.7550964355469 175.91604614257812 362.72918701171875 182.8348846435547 355.71563720703125" stroke-width="6.0" fill="none" stroke="rgb(0, 0, 0)" stroke-opacity="1.0" stroke-linecap="round" stroke-linejoin="round"/>
    <path d="M 409.3202209472656 505.420166015625 C 429.8333740234375 487.9286193847656 414.1509704589844 481.5113220214844 428.8171691894531 477.1557312011719 C 426.5410461425781 487.90667724609375 410.76043701171875 488.6123352050781 392.4789123535156 466.0588073730469 C 377.71044921875 476.26580810546875 385.3244323730469 480.0087585449219 399.4949645996094 489.23675537109375 C 432.09368896484375 505.31805419921875 448.8059387207031 531.6231079101562 455.35107421875 545.648681640625 C 465.2165222167969 536.8307495117188 469.47698974609375 566.8374633789062 460.8676452636719 552.0678100585938" stroke-width="6.0" fill="none" stroke="rgb(0, 0, 0)" stroke-opacity="1.0" stroke-linecap="round" stroke-linejoin="round"/>
    <path d="M 53.35811233520508 91.82905578613281 C 33.2166633605957 61.512996673583984 32.51089859008789 58.214595794677734 27.71248435974121 51.68565368652344 C -9.710237503051758 66.92884826660156 -8.39642333984375 38.528114318847656 -23.29732894897461 57.26983642578125 C -24.670442581176758 27.662113189697266 -22.203523635864258 2.1847171783447266 -15.532434463500977 26.60692024230957 C -30.1331729888916 44.87345886230469 -27.024520874023438 29.038606643676758 -31.533397674560547 18.579605102539062 C -44.70402908325195 41.09649658203125 -72.91380310058594 35.33290100097656 -67.47644805908203 54.02620315551758" stroke-width="6.0" fill="none" stroke="rgb(0, 0, 0)" stroke-opacity="1.0" stroke-linecap="round" stroke-linejoin="round"/>
    <path d="M 445.3577880859375 498.0421142578125 C 469.69012451171875 469.3813171386719 487.4871520996094 481.5335693359375 485.9519958496094 477.89727783203125 C 479.6630859375 477.4397888183594 487.95391845703125 482.0963134765625 519.8682861328125 473.2669372558594 C 529.3165893554688 478.1014709472656 501.04974365234375 509.4482727050781 484.4414367675781 485.9190979003906 C 485.0122985839844 455.03192138671875 494.4583435058594 453.0504150390625 518.429931640625 456.5933837890625 C 538.1422119140625 436.2384338378906 567.2505493164062 451.0528869628906 565.6737670898438 440.8093566894531" stroke-width="6.0" fill="none" stroke="rgb(0, 0, 0)" stroke-opacity="1.0" stroke-linecap="round" stroke-linejoin="round"/>
    <path d="M 243.66712951660156 233.59564208984375 C 221.45558166503906 238.98326110839844 211.64865112304688 210.40516662597656 190.6103515625 230.2245635986328 C 182.74818420410156 211.4922637939453 214.99305725097656 204.24656677246094 215.34158325195312 194.8577880859375 C 228.61695861816406 221.25473022460938 220.2150421142578 243.5453338623047 196.71653747558594 257.4242248535156 C 210.3049774169922 238.5055389404297 226.6827392578125 263.8654479980469 200.5264434814453 278.80517578125 C 190.53805541992188 289.8130798339844 192.2246551513672 286.40667724609375 206.1900177001953 273.184814453125" stroke-width="6.0" fill="none" stroke="rgb(0, 0, 0)" stroke-opacity="1.0" stroke-linecap="round" stroke-linejoin="round"/>
    <path d="M 315.2840881347656 161.890869140625 C 342.2567443847656 182.0369110107422 348.4770812988281 191.7432403564453 364.7325744628906 188.35263061523438 C 372.9168701171875 164.2200469970703 365.9028625488281 141.51815795898438 360.28326416015625 143.10043334960938 C 365.197509765625 117.37642669677734 345.8002014160156 104.02072143554688 377.38836669921875 135.44544982910156 C 364.63262939453125 147.24998474121094 342.8556823730469 121.35279846191406 317.4183654785156 101.01519012451172 C 286.9466247558594 126.78831481933594 282.5989990234375 102.77288818359375 287.7055969238281 116.04438018798828" stroke-width="6.0" fill="none" stroke="rgb(0, 0, 0)" stroke-opacity="1.0" stroke-linecap="round" stroke-linejoin="round"/>
    <path d="M 313.0883483886719 374.7421875 C 319.7813720703125 391.82464599609375 317.7550048828125 371.9758605957031 349.10345458984375 350.0434875488281 C 360.47418212890625 311.56591796875 353.9922180175781 323.4340515136719 335.1424560546875 306.691650390625 C 304.66534423828125 324.22698974609375 308.3073425292969 320.1315002441406 301.6131286621094 310.0452575683594 C 336.2637023925781 315.29736328125 323.621826171875 292.8778381347656 296.11328125 305.8465881347656 C 315.0063171386719 275.2119445800781 303.06121826171875 268.12579345703125 323.4093017578125 242.86927795410156" stroke-width="6.0" fill="none" stroke="rgb(0, 0, 0)" stroke-opacity="1.0" stroke-linecap="round" stroke-linejoin="round"/>
    <path d="M 153.34153747558594 449.2220153808594 C 167.51528930664062 462.18603515625 151.25929260253906 470.57220458984375 164.65005493164062 455.5669250488281 C 142.11178588867188 479.5561218261719 175.8890838623047 482.88671875 160.6514892578125 500.8106384277344 C 172.83865356445312 478.4188232421875 191.1826934814453 475.8439025878906 216.14846801757812 482.88763427734375 C 219.469970703125 501.2990417480469 207.54849243164062 515.5547485351562 177.68167114257812 486.8729248046875 C 202.9783172607422 463.3377990722656 177.911865234375 465.1507873535156 205.6464385986328 482.8291320800781" stroke-width="6.0" fill="none" stroke="rgb(0, 0, 0)" stroke-opacity="1.0" stroke-linecap="round" stroke-linejoin="round"/>
    <path d="M 545.0047607421875 314.9241943359375 C 547.8458862304688 313.3403015136719 572.6095581054688 336.3737487792969 573.5671997070312 318.5796203613281 C 563.7077026367188 346.893798828125 553.3191528320312 342.22369384765625 563.0792236328125 363.52227783203125 C 561.8370361328125 341.7412109375 553.9404296875 341.2480163574219 549.9976806640625 330.099609375 C 576.0673828125 311.5448303222656 559.9232177734375 303.0041809082031 567.3687744140625 302.2497863769531 C 590.7911376953125 283.2380065917969 607.4589233398438 312.9786376953125 626.88818359375 291.9063415527344" stroke-width="6.0" fill="none" stroke="rgb(0, 0, 0)" stroke-opacity="1.0" stroke-linecap="round" stroke-linejoin="round"/>
    <path d="M 184.98757934570312 447.8652038574219 C 166.47645568847656 435.6081848144531 154.9005584716797 411.24798583984375 155.4940948486328 413.7666015625 C 152.4312744140625 398.1805725097656 121.51697540283203 372.5009765625 115.87810516357422 367.00665283203125 C 102.93207550048828 379.6406555175781 73.85997009277344 397.3761901855469 51.64445877075195 421.7154235839844 C 53.719974517822266 425.4396667480469 45.808956146240234 419.5335388183594 16.42905616760254 398.6142578125 C 18.641925811767578 397.0257568359375 4.471433162689209 409.5480041503906 5.990301132202148 387.4493103027344" stroke-width="6.0" fill="none" stroke="rgb(0, 0, 0)" stroke-opacity="1.0" stroke-linecap="round" stroke-linejoin="round"/>
    <path d="M 399.501220703125 31.697185516357422 C 395.2481384277344 17.774208068847656 403.2913818359375 38.461177825927734 413.1349792480469 33.05765151977539 C 408.12939453125 15.057064056396484 402.3056640625 27.708803176879883 379.9209899902344 6.359488487243652 C 393.41986083984375 -24.828096389770508 414.5297546386719 -11.514617919921875 440.66290283203125 -26.68716812133789 C 467.1369934082031 -44.00921630859375 475.2712097167969 -66.70234680175781 493.5873718261719 -91.80517578125 C 518.9058837890625 -100.47685241699219 524.3587646484375 -78.44096374511719 517.2758178710938 -90.08749389648438" stroke-width="6.0" fill="none" stroke="rgb(0, 0, 0)" stroke-opacity="1.0" stroke-linecap="round" stroke-linejoin="round"/>
    <path d="M 435.79046630859375 184.51548767089844 C 449.7143249511719 170.91278076171875 462.300048828125 178.02626037597656 465.2376403808594 192.14120483398438 C 464.1840515136719 184.69610595703125 453.2838134765625 171.6588134765625 440.561767578125 179.61558532714844 C 427.9280090332031 187.28073120117188 445.7888488769531 184.2584991455078 434.0674743652344 197.87696838378906 C 447.023193359375 211.7081298828125 437.2826843261719 202.80441284179688 443.0410461425781 206.76809692382812 C 453.6275329589844 198.59161376953125 443.8322448730469 205.66912841796875 435.70123291015625 183.9172821044922" stroke-width="6.0" fill="none" stroke="rgb(0, 0, 0)" stroke-opacity="1.0" stroke-linecap="round" stroke-linejoin="round"/>
    <path d="M 319.7154235839844 301.0243835449219 C 337.0602722167969 301.3525085449219 332.68389892578125 327.4176330566406 365.46881103515625 350.38397216796875 C 338.63568115234375 344.49127197265625 346.7094421386719 339.1938171386719 334.059326171875 339.7299499511719 C 363.7928771972656 323.1718444824219 337.92852783203125 337.3973388671875 342.89764404296875 321.3120422363281 C 369.5563049316406 301.6289367675781 349.12115478515625 274.8852233886719 360.86346435546875 267.22991943359375 C 362.88958740234375 296.7375183105469 367.40643310546875 282.6802978515625 344.9443359375 257.47564697265625" stroke-width="6.0" fill="none" stroke="rgb(0, 0, 0)" stroke-opacity="1.0" stroke-linecap="round" stroke-linejoin="round"/>
    <path d="M 189.20098876953125 560.58642578125 C 199.76779174804688 586.544677734375 181.32705688476562 581.9763793945312 183.1281280517578 580.9697265625 C 197.626953125 578.9315185546875 163.5982208251953 554.4180908203125 152.73265075683594 542.3533935546875 C 191.1064910888672 556.5079956054688 187.7486114501953 532.1760864257812 205.05201721191406 521.1240234375 C 216.5960693359375 501.8964538574219 250.6396484375 525.8548583984375 228.4874267578125 553.2352294921875 C 246.47500610351562 564.5164794921875 225.9174346923828 568.3751220703125 249.74366760253906 589.8276977539062" stroke-width="6.0" fill="none" stroke="rgb(0, 0, 0)" stroke-opacity="1.0" stroke-linecap="round" stroke-linejoin="round"/>
    <path d="M 302.727783203125 524.7351684570312 C 297.2861633300781 524.5911865234375 317.4778137207031 538.0543212890625 304.0448303222656 522.3192749023438 C 321.08636474609375 524.6572875976562 300.11761474609375 493.06695556640625 288.1822509765625 509.40692138671875 C 288.934814453125 549.13671875 288.5674743652344 523.6657104492188 310.5789489746094 544.8721923828125 C 301.97735595703125 581.0525512695312 274.52728271484375 564.6026000976562 267.8260192871094 542.2656860351562 C 246.25848388671875 530.7711791992188 270.0241394042969 513.6805419921875 258.53948974609375 528.8108520507812" stroke-width="6.0" fill="none" stroke="rgb(0, 0, 0)" stroke-opacity="1.0" stroke-linecap="round" stroke-linejoin="round"/>
    <path d="M 163.57211303710938 533.285400390625 C 176.35586547851562 510.0673828125 177.90322875976562 495.76080322265625 191.94766235351562 489.56561279296875 C 168.18568420410156 520.0335693359375 145.8793182373047 492.440185546875 137.78778076171875 477.5840148925781 C 143.92247009277344 444.20001220703125 158.00115966796875 413.82830810546875 164.14401245117188 427.8180847167969 C 145.94151306152344 427.05352783203125 159.19937133789062 422.50189208984375 137.71334838867188 418.8594665527344 C 128.37579345703125 418.778076171875 112.44646453857422 444.4263916015625 109.63246154785156 448.4480895996094" stroke-width="6.0" fill="none" stroke="rgb(0, 0, 0)" stroke-opacity="1.0" stroke-linecap="round" stroke-linejoin="round"/>
    <path d="M 228.03781127929688 560.5121459960938 C 205.7539520263672 567.8261108398438 204.1952667236328 579.8748779296875 224.2389678955078 560.6861572265625 C 243.56005859375 540.6185913085938 258.8807067871094 534.7772216796875 261.31439208984375 539.05810546875 C 267.52099609375 545.4525146484375 264.3888854980469 537.2860107421875 239.77947998046875 551.3499145507812 C 231.85159301757812 522.855712890625 249.88784790039062 499.2572937011719 240.65609741210938 510.6093444824219 C 245.451904296875 495.0772705078125 260.2491455078125 498.14013671875 294.4427795410156 504.72576904296875" stroke-width="6.0" fill="none" stroke="rgb(0, 0, 0)" stroke-opacity="1.0" stroke-linecap="round" stroke-linejoin="round"/>
    <path d="M 481.6382751464844 110.43511199951172 C 499.3973388671875 134.15927124023438 482.55645751953125 138.27560424804688 452.802978515625 154.08648681640625 C 473.0777587890625 130.71653747558594 496.4798889160156 103.56654357910156 469.5579528808594 87.5119857788086 C 444.90362548828125 71.95549774169922 466.7427062988281 62.05894088745117 450.3751220703125 48.291141510009766 C 481.22686767578125 46.96811294555664 465.8304443359375 23.727968215942383 489.60845947265625 26.05709457397461 C 459.8974914550781 42.693138122558594 464.37908935546875 39.82857131958008 479.72088623046875 30.793119430541992" stroke-width="6.0" fill="none" stroke="rgb(0, 0, 0)" stroke-opacity="1.0" stroke-linecap="round" stroke-linejoin="round"/>
    <path d="M 491.385498046875 499.0630798339844 C 517.4574584960938 515.1437377929688 486.36700439453125 529.1396484375 508.6988220214844 540.3118896484375 C 519.9972534179688 516.052001953125 548.9049072265625 513.6085815429688 547.7876586914062 537.691162109375 C 541.1312866210938 542.6893920898438 543.0257568359375 539.9537963867188 533.7584838867188 537.3322143554688 C 555.7943725585938 549.0009765625 547.7058715820312 517.082275390625 531.09765625 496.7072448730469 C 514.501953125 479.75592041015625 520.8423461914062 452.8367919921875 521.3773803710938 453.7486267089844" stroke-width="6.0" fill="none" stroke="rgb(0, 0, 0)" stroke-opacity="1.0" stroke-linecap="round" stroke-linejoin="round"/>
    <path d="M 337.8699645996094 590.5804443359375 C 359.958740234375 616.6416015625 366.2357482910156 615.6669921875 376.3598937988281 630.5211181640625 C 372.2342834472656 651.4337768554688 368.8701477050781 633.1619262695312 384.9634094238281 632.4954223632812 C 355.39019775390625 609.433349609375 345.52874755859375 620.10302734375 321.28125 648.0068969726562 C 331.8368835449219 630.343017578125 350.33935546875 644.1524658203125 371.34222412109375 614.4285888671875 C 399.3269348144531 609.869140625 389.746826171875 610.3723754882812 401.0184326171875 632.42138671875" stroke-width="6.0" fill="none" stroke="rgb(0, 0, 0)" stroke-opacity="1.0" stroke-linecap="round" stroke-linejoin="round"/>
    <path d="M 403.26739501953125 250.09088134765625 C 380.9964904785156 270.6844787597656 384.03204345703125 283.88116455078125 381.99639892578125 314.66571044921875 C 386.03741455078125 343.6322021484375 384.73089599609375 364.5658264160156 405.9988708496094 375.609619140625 C 429.0155029296875 396.7507019042969 451.7428894042969 427.31427001953125 446.0666809082031 410.1479797363281 C 456.8231201171875 388.4193420410156 439.126953125 392.20947265625 452.8405456542969 401.5412902832031 C 480.0810546875 420.26348876953125 471.3135070800781 417.0953063964844 486.27886962890625 398.6675720214844" stroke-width="6.0" fill="none" stroke="rgb(0, 0, 0)" stroke-opacity="1.0" stroke-linecap="round" stroke-linejoin="round"/>
    <path d="M 201.05105590820312 267.22119140625 C 208.94505310058594 265.1186218261719 199.73707580566406 266.2924499511719 188.1945343017578 261.48297119140625 C 163.0662384033203 255.1100616455078 170.47438049316406 269.3353271484375 154.13253784179688 267.6523742675781 C 136.00363159179688 253.3365020751953 113.05770874023438 259.7059326171875 92.76590728759766 282.10516357421875 C 75.07276916503906 282.7177734375 86.15640258789062 249.82969665527344 105.01103973388672 255.28121948242188 C 123.80656433105469 260.39288330078125 114.75787353515625 258.5388488769531 119.84410858154297 248.18890380859375" stroke-width="6.0" fill="none" stroke="rgb(0, 0, 0)" stroke-opacity="1.0" stroke-linecap="round" stroke-linejoin="round"/>
    <path d="M 12.411735534667969 262.562744140625 C 30.89824676513672 244.68128967285156 48.454078674316406 217.89439392089844 76.38418579101562 232.21597290039062 C 77.22203826904297 230.087646484375 59.47031784057617 229.91065979003906 82.37699890136719 232.1321258544922 C 68.53116607666016 241.6388702392578 55.4375114440918 250.2118377685547 39.98302459716797 262.4202880859375 C 8.707976341247559 288.7207336425781 34.2202033996582 250.94918823242188 23.396352767944336 234.79571533203125 C 40.18063735961914 260.6831970214844 15.694432258605957 229.7294158935547 37.62543487548828 212.84765625" stroke-width="6.0" fill="none" stroke="rgb(0, 0, 0)" stroke-opacity="1.0" stroke-linecap="round" stroke-linejoin="round"/>
    <path d="M 475.52685546875 418.0483093261719 C 496.66632080078125 409.1607666015625 472.8497314453125 428.9586181640625 456.8653259277344 424.0264892578125 C 443.9807434082031 418.2467041015625 451.2702941894531 415.0704040527344 433.43194580078125 403.60736083984375 C 428.7210388183594 388.238525390625 425.0870056152344 398.810791015625 455.9039001464844 424.2237548828125 C 450.77655029296875 419.6254577636719 424.2279052734375 401.75970458984375 440.4212951660156 388.7139587402344 C 433.9476318359375 399.3148193359375 431.2895202636719 397.2979431152344 423.9436950683594 402.9031982421875" stroke-width="6.0" fill="none" stroke="rgb(0, 0, 0)" stroke-opacity="1.0" stroke-linecap="round" stroke-linejoin="round"/>
    <path d="M 474.510009765625 422.5599060058594 C 480.09234619140625 404.77899169921875 504.984375 372.9029846191406 481.9276123046875 368.54583740234375 C 478.27459716796875 338.1302185058594 496.2547302246094 315.2608947753906 516.484619140625 304.0428466796875 C 513.2318115234375 334.5584411621094 501.54290771484375 360.4039611816406 505.7542419433594 362.0024108886719 C 486.0244140625 349.603759765625 474.5342102050781 369.17974853515625 458.1900939941406 353.5188903808594 C 442.6161804199219 344.7101135253906 464.4533996582031 332.91015625 472.63385009765625 329.5892333984375" stroke-width="6.0" fill="none" stroke="rgb(0, 0, 0)" stroke-opacity="1.0" stroke-linecap="round" stroke-linejoin="round"/>
    <path d="M 355.004638671875 522.3175659179688 C 328.55279541015625 534.7870483398438 313.33551025390625 547.5462646484375 325.5272216796875 530.7010498046875 C 293.3179931640625 543.7029418945312 259.24468994140625 540.3250732421875 269.4345397949219 534.7167358398438 C 286.25091552734375 504.9888000488281 260.86138916015625 522.55078125 273.010986328125 534.1300659179688 C 250.695068359375 514.4603271484375 232.18057250976562 535.6259155273438 217.73109436035156 516.38818359375 C 201.42845153808594 494.4039001464844 183.56813049316406 490.8410339355469 172.8184051513672 497.9530944824219" stroke-width="6.0" fill="none" stroke="rgb(0, 0, 0)" stroke-opacity="1.0" stroke-linecap="round" stroke-linejoin="round"/>
    <path d="M 323.27850341796875 179.18785095214844 C 325.4836730957031 188.12655639648438 352.9970397949219 213.81982421875 340.0511474609375 211.0095977783203 C 337.8658447265625 179.02357482910156 360.23077392578125 177.1155548095703 378.5146789550781 177.14273071289062 C 363.5176696777344 165.21517944335938 378.3000793457031 143.06065368652344 381.3002624511719 111.48967742919922 C 367.4591369628906 112.91832733154297 339.9798889160156 86.61824035644531 336.66986083984375 69.06800842285156 C 334.98089599609375 87.50360870361328 329.70135498046875 101.634521484375 331.6495361328125 78.90897369384766" stroke-width="6.0" fill="none" stroke="rgb(0, 0, 0)" stroke-opacity="1.0" stroke-linecap="round" stroke-linejoin="round"/>
    <path d="M 7.904162406921387 156.51490783691406 C 24.684232711791992 141.95884704589844 6.141252040863037 166.74436950683594 -1.6869643926620483 156.47579956054688 C 12.313078880310059 174.16845703125 39.249149322509766 179.2427978515625 33.26972961425781 183.04026794433594 C 36.680877685546875 166.69515991210938 58.3432502746582 169.6217803955078 79.03536224365234 156.9459228515625 C 93.3744888305664 154.21791076660156 124.15332794189453 139.92947387695312 151.75550842285156 130.27825927734375 C 170.0610809326172 115.1894302368164 170.4659881591797 134.9736328125 194.99139404296875 169.53793334960938" stroke-width="6.0" fill="none" stroke="rgb(0, 0, 0)" stroke-opacity="1.0" stroke-linecap="round" stroke-linejoin="round"/>
    <path d="M 537.7675170898438 332.38006591796875 C 546.89599609375 355.4677429199219 579.0327758789062 355.0281677246094 549.4071655273438 389.81036376953125 C 568.7286376953125 360.959228515625 571.608642578125 355.8677673339844 554.5940551757812 356.435791015625 C 541.8059692382812 351.0987854003906 545.7198486328125 332.3827209472656 565.0623168945312 314.0087890625 C 585.0909423828125 321.64996337890625 607.8353271484375 329.2663269042969 613.315673828125 337.08197021484375 C 605.5323486328125 320.7107238769531 633.0960083007812 340.0619812011719 613.0039672851562 324.8152160644531" stroke-width="6.0" fill="none" stroke="rgb(0, 0, 0)" stroke-opacity="1.0" stroke-linecap="round" stroke-linejoin="round"/>
    <path d="M 506.0628662109375 236.4556121826172 C 491.4383544921875 213.7600555419922 478.4199523925781 209.07925415039062 492.44293212890625 192.40220642089844 C 476.36590576171875 213.45660400390625 494.8117370605469 228.466064453125 521.7835083007812 203.06556701660156 C 500.50048828125 171.11155700683594 516.7485961914062 181.0666961669922 506.9125671386719 167.33163452148438 C 529.8438720703125 145.02410888671875 501.1390380859375 119.49588775634766 478.38311767578125 153.12454223632812 C 451.7096862792969 128.57093811035156 492.4118347167969 148.779541015625 513.6858520507812 136.29246520996094" stroke-width="6.0" fill="none" stroke="rgb(0, 0, 0)" stroke-opacity="1.0" stroke-linecap="round" stroke-linejoin="round"/>
    <path d="M 542.4569091796875 185.5584716796875 C 564.5800170898438 200.92308044433594 539.406005859375 182.15367126464844 565.05517578125 206.27696228027344 C 554.3468627929688 203.0538330078125 568.3944702148438 189.59036254882812 571.0385131835938 186.87843322753906 C 593.0392456054688 192.3199005126953 616.4033813476562 197.38153076171875 618.2527465820312 211.923095703125 C 602.2711791992188 226.92750549316406 610.5562744140625 216.5725555419922 612.1322631835938 192.87123107910156 C 633.613525390625 195.01828002929688 632.774658203125 216.592041015625 614.0423583984375 217.5052490234375" stroke-width="6.0" fill="none" stroke="rgb(0, 0, 0)" stroke-opacity="1.0" stroke-linecap="round" stroke-linejoin="round"/>
    <path d="M 92.28112030029297 562.031494140625 C 109.53435516357422 570.8182983398438 130.9716033935547 543.745361328125 115.66083526611328 561.4141235351562 C 112.7247085571289 564.110107421875 105.39675903320312 566.0111083984375 107.86058807373047 573.8584594726562 C 98.27582550048828 563.270751953125 69.27922058105469 538.0208129882812 72.36631774902344 539.640380859375 C 80.2663803100586 565.7694091796875 86.6444320678711 585.2587890625 74.82022857666016 587.3663330078125 C 70.59324645996094 598.3240966796875 60.70306396484375 617.595703125 75.96333312988281 618.0133056640625" stroke-width="6.0" fill="none" stroke="rgb(0, 0, 0)" stroke-opacity="1.0" stroke-linecap="round" stroke-linejoin="round"/>
    <path d="M 174.54542541503906 438.2646789550781 C 195.65858459472656 460.9410705566406 202.1368408203125 468.09039306640625 184.9401092529297 449.318603515625 C 175.80789184570312 438.85906982421875 166.4676055908203 428.86859130859375 163.85751342773438 439.57421875 C 164.9967041015625 427.79400634765625 183.3921661376953 438.7545471191406 198.7847900390625 473.2758483886719 C 190.9453582763672 459.55096435546875 189.7436981201172 483.0611877441406 188.0057830810547 497.0788269042969 C 206.1310577392578 495.54718017578125 223.5361785888672 484.0058898925781 238.8201141357422 477.89349365234375" stroke-width="6.0" fill="none" stroke="rgb(0, 0, 0)" stroke-opacity="1.0" stroke-linecap="round" stroke-linejoin="round"/>
    <path d="M 297.6078186035156 290.8971862792969 C 288.3372802734375 318.0377502441406 279.5003356933594 345.43310546875 263.67425537109375 331.1357116699219 C 261.7042541503906 335.361572265625 269.87603759765625 352.93218994140625 250.83963012695312 364.10931396484375 C 260.2593078613281 342.0630187988281 237.27297973632812 320.7106018066406 230.0582275390625 319.9286804199219 C 254.92587280273438 332.3761291503906 242.91893005371094 336.38861083984375 236.4479522705078 347.1613464355469 C 261.95220947265625 374.8157653808594 237.70228576660156 375.9889831542969 226.07406616210938 386.0423278808594" stroke-width="6.0" fill="none" stroke="rgb(0, 0, 0)" stroke-opacity="1.0" stroke-linecap="round" stroke-linejoin="round"/>
    <path d="M 472.76153564453125 391.4132385253906 C 469.48870849609375 377.2524719238281 467.046142578125 354.4879150390625 491.76727294921875 376.7999267578125 C 494.9288024902344 387.8048400878906 484.519775390625 405.0367736816406 468.8356018066406 386.02117919921875 C 485.2107238769531 403.7654113769531 515.2166748046875 410.9440612792969 523.4310302734375 403.90081787109375 C 498.4698791503906 376.3268737792969 481.2667541503906 364.9208679199219 463.3633728027344 370.4354553222656 C 447.8717346191406 377.6162414550781 473.7666931152344 388.8005676269531 455.3132019042969 377.1299743652344" stroke-width="6.0" fill="none" stroke="rgb(0, 0, 0)" stroke-opacity="1.0" stroke-linecap="round" stroke-linejoin="round"/>
    <path d="M 222.92428588867188 331.5909729003906 C 240.50283813476562 320.8599548339844 252.30165100097656 307.0029296875 265.6131286621094 335.2268981933594 C 288.43414306640625 362.49822998046875 284.2737121582031 371.644775390625 303.0799560546875 357.69610595703125 C 298.1759033203125 379.9617614746094 309.13165283203125 393.7952880859375 325.7568359375 393.846435546875 C 335.3310546875 400.9555969238281 355.0049133300781 388.1090087890625 320.9524230957031 414.3531494140625 C 335.2227783203125 393.343994140625 331.9624938964844 406.5028381347656 305.7471008300781 386.59356689453125" stroke-width="6.0" fill="none" stroke="rgb(0, 0, 0)" stroke-opacity="1.0" stroke-linecap="round" stroke-linejoin="round"/>
    <path d="M 274.46295166015625 222.0970916748047 C 272.6434631347656 221.96607971191406 260.7654113769531 202.71453857421875 268.85797119140625 209.40365600585938 C 272.3058776855469 192.91587829589844 280.2862854003906 209.94654846191406 294.3376159667969 220.08892822265625 C 319.8475341796875 245.43545532226562 335.2254638671875 238.83946228027344 337.06744384765625 262.1800231933594 C 362.87213134765625 289.7669372558594 360.6748352050781 304.0658874511719 328.54583740234375 279.26849365234375 C 326.1417541503906 292.4419860839844 328.8016357421875 296.8750915527344 302.4797058105469 285.3511657714844" stroke-width="6.0" fill="none" stroke="rgb(0, 0, 0)" stroke-opacity="1.0" stroke-linecap="round" stroke-linejoin="round"/>
    <path d="M 126.69517517089844 19.705944061279297 C 118.26363372802734 -6.0352630615234375 123.83111572265625 -22.887344360351562 134.14183044433594 -39.31593704223633 C 117.48468780517578 -30.99119758605957 102.06432342529297 -25.745065689086914 83.16077423095703 -55.59872817993164 C 93.30744171142578 -71.42648315429688 96.93842315673828 -74.5737075805664 77.11200714111328 -65.28070831298828 C 104.23564910888672 -61.70484924316406 111.13195037841797 -60.012046813964844 98.13153839111328 -33.66434860229492 C 99.3155288696289 -18.502914428710938 94.04837799072266 -21.33456802368164 88.2992172241211 -6.470696449279785" stroke-width="6.0" fill="none" stroke="rgb(0, 0, 0)" stroke-opacity="1.0" stroke-linecap="round" stroke-linejoin="round"/>
    <path d="M 167.43289184570312 508.50286865234375 C 140.2190399169922 477.7512512207031 129.3257293701172 472.8046569824219 107.6144790649414 456.7327880859375 C 115.37081146240234 459.1982421875 101.7765121459961 443.6053161621094 126.15644836425781 428.753662109375 C 111.28679656982422 406.78570556640625 109.16863250732422 409.26019287109375 125.01449584960938 426.6747741699219 C 135.1409149169922 438.8520812988281 127.9714584350586 426.2273864746094 134.44288635253906 435.0608215332031 C 139.30523681640625 445.2830505371094 145.43507385253906 444.92877197265625 159.53768920898438 425.1948547363281" stroke-width="6.0" fill="none" stroke="rgb(0, 0, 0)" stroke-opacity="1.0" stroke-linecap="round" stroke-linejoin="round"/>
    <path d="M 339.3995361328125 185.25392150878906 C 337.4161071777344 190.84765625 325.8542785644531 219.06431579589844 321.72918701171875 235.6759033203125 C 355.9979248046875 239.1572723388672 364.2914123535156 220.77850341796875 370.9352722167969 202.87399291992188 C 374.73919677734375 199.70091247558594 353.6669616699219 208.20909118652344 327.26605224609375 184.76470947265625 C 322.2391662597656 198.29429626464844 341.2559509277344 215.588623046875 364.9646911621094 235.95718383789062 C 355.9814147949219 274.66522216796875 352.0315856933594 264.70391845703125 360.713134765625 261.33148193359375" stroke-width="6.0" fill="none" stroke="rgb(0, 0, 0)" stroke-opacity="1.0" stroke-linecap="round" stroke-linejoin="round"/>
    <path d="M 576.6207885742188 71.43113708496094 C 604.9130859375 54.58264923095703 580.9229736328125 69.18572998046875 564.1842651367188 77.95099639892578 C 575.0121459960938 105.15956115722656 579.2698974609375 94.00161743164062 580.1400146484375 72.52141571044922 C 600.537353515625 55.541954040527344 588.7136840820312 51.984928131103516 593.7544555664062 40.67591857910156 C 622.3779296875 53.37370681762695 598.1358032226562 51.86775588989258 596.6911010742188 41.03372573852539 C 612.2791748046875 49.32084655761719 602.9322509765625 48.312129974365234 581.8997802734375 29.381776809692383" stroke-width="6.0" fill="none" stroke="rgb(0, 0, 0)" stroke-opacity="1.0" stroke-linecap="round" stroke-linejoin="round"/>
    <path d="M 205.0001678466797 349.0615234375 C 211.71664428710938 366.30078125 195.8835906982422 394.38037109375 211.5925750732422 403.0339660644531 C 224.97909545898438 412.2837219238281 215.28732299804688 438.5790100097656 213.60232543945312 444.1939392089844 C 186.70835876464844 469.5856628417969 175.8423614501953 490.58880615234375 154.6221160888672 480.2118835449219 C 165.19947814941406 485.10357666015625 154.8134002685547 473.6621398925781 160.17520141601562 456.8772888183594 C 146.9449462890625 441.21160888671875 147.5623321533203 431.5416259765625 127.64673614501953 457.89007568359375" stroke-width="6.0" fill="none" stroke="rgb(0, 0, 0)" stroke-opacity="1.0" stroke-linecap="round" stroke-linejoin="round"/>
    <path d="M 205.79150390625 534.9039916992188 C 230.42227172851562 514.9288940429688 212.1357421875 497.2606506347656 242.1939697265625 489.55316162109375 C 229.42877197265625 487.9248352050781 206.16033935546875 479.7151184082031 187.205078125 470.6656188964844 C 195.0125274658203 451.275390625 216.1466827392578 436.7380676269531 236.17274475097656 398.044677734375 C 237.9790802001953 394.8052673339844 214.50668334960938 379.6846008300781 236.29132080078125 383.44635009765625 C 208.3964080810547 356.5016784667969 194.71546936035156 337.1651916503906 175.2730255126953 320.1535949707031" stroke-width="6.0" fill="none" stroke="rgb(0, 0, 0)" stroke-opacity="1.0" stroke-linecap="round" stroke-linejoin="round"/>
    <path d="M 334.4422607421875 515.5884399414062 C 333.05615234375 511.75634765625 345.3639221191406 493.7296447753906 370.14971923828125 508.41900634765625 C 380.2364501953125 482.29736328125 368.9839172363281 462.8004455566406 372.00445556640625 432.2991943359375 C 340.1265869140625 462.0901184082031 358.7040710449219 473.1993713378906 348.098876953125 485.3924865722656 C 318.6208801269531 471.3190612792969 295.2783508300781 447.94097900390625 267.74041748046875 451.5984802246094 C 291.6192626953125 468.7046813964844 319.094482421875 471.3763122558594 337.8513488769531 466.21295166015625" stroke-width="6.0" fill="none" stroke="rgb(0, 0, 0)" stroke-opacity="1.0" stroke-linecap="round" stroke-linejoin="round"/>
    <path d="M 364.6626892089844 207.14605712890625 C 340.0885009765625 173.28981018066406 320.57794189453125 179.9802703857422 317.53582763671875 205.10435485839844 C 333.0738220214844 190.3353271484375 355.2331237792969 189.69195556640625 339.404052734375 176.59474182128906 C 362.1065979003906 184.04420471191406 359.1993408203125 208.3427276611328 372.5619812011719 186.58831787109375 C 345.5050048828125 159.7108917236328 351.60601806640625 142.26202392578125 370.9931945800781 115.23404693603516 C 360.46063232421875 117.80868530273438 347.72796630859375 137.3397674560547 334.4578552246094 143.24671936035156" stroke-width="6.0" fill="none" stroke="rgb(0, 0, 0)" stroke-opacity="1.0" stroke-linecap="round" stroke-linejoin="round"/>
    <path d="M 176.11610412597656 262.6829528808594 C 201.84091186523438 249.15252685546875 188.4813995361328 218.61376953125 166.29429626464844 197.6155548095703 C 174.4749755859375 185.2790069580078 178.64877319335938 184.9713592529297 194.10337829589844 169.03890991210938 C 174.9031219482422 140.66357421875 168.12448120117188 132.37847900390625 171.7800750732422 125.02066802978516 C 158.13021850585938 117.05532836914062 148.65383911132812 93.91209411621094 141.81869506835938 75.9439468383789 C 118.8777084350586 58.36555480957031 122.29824829101562 60.7391242980957 95.48040008544922 57.37700653076172" stroke-width="6.0" fill="none" stroke="rgb(0, 0, 0)" stroke-opacity="1.0" stroke-linecap="round" stroke-linejoin="round"/>
    <path d="M 190.5474395751953 1.1059863567352295 C 214.17156982421875 -7.557147979736328 230.0625 12.340799331665039 238.58416748046875 9.907214164733887 C 237.5634307861328 8.291685104370117 209.7310333251953 3.727654457092285 185.08258056640625 -22.931285858154297 C 162.4583740234375 -7.832343101501465 137.93695068359375 -14.848052024841309 160.47189331054688 -8.975423812866211 C 179.46160888671875 18.511016845703125 173.43736267089844 32.266761779785156 171.87913513183594 14.048376083374023 C 184.15567016601562 3.7059683799743652 191.34791564941406 -0.017078891396522522 195.0207061767578 9.82819652557373" stroke-width="6.0" fill="none" stroke="rgb(0, 0, 0)" stroke-opacity="1.0" stroke-linecap="round" stroke-linejoin="round"/>
    <path d="M 422.74078369140625 582.44921875 C 443.2232360839844 578.066650390625 442.9999084472656 549.8509521484375 438.038818359375 537.3848266601562 C 414.15203857421875 515.9300537109375 416.8138732910156 487.41864013671875 402.2698059082031 477.7965087890625 C 389.0230407714844 495.0084228515625 407.432373046875 502.5684814453125 417.27435302734375 521.2138671875 C 419.9449462890625 495.51751708984375 392.9017028808594 468.4336242675781 411.48779296875 494.26763916015625 C 403.16448974609375 484.2546081542969 406.2228698730469 503.7672424316406 380.0859680175781 506.5376892089844" stroke-width="6.0" fill="none" stroke="rgb(0, 0, 0)" stroke-opacity="1.0" stroke-linecap="round" stroke-linejoin="round"/>
    <path d="M 119.13658905029297 238.2494354248047 C 108.33062744140625 222.86329650878906 132.6958770751953 201.42852783203125 119.19873046875 195.9595947265625 C 132.6448516845703 186.57278442382812 121.01323699951172 183.56842041015625 142.4386749267578 155.41270446777344 C 163.7542266845703 175.99290466308594 139.44442749023438 191.87774658203125 125.76043701171875 191.7351531982422 C 124.45889282226562 199.8554229736328 101.33950805664062 214.98951721191406 69.00910949707031 240.76901245117188 C 52.295684814453125 217.09164428710938 73.33138275146484 208.32485961914062 81.10865783691406 213.25918579101562" stroke-width="6.0" fill="none" stroke="rgb(0, 0, 0)" stroke-opacity="1.0" stroke-linecap="round" stroke-linejoin="round"/>
    <path d="M 333.50408935546875 404.6945495605469 C 355.8503723144531 424.77056884765625 376.35498046875 436.93853759765625 377.1936950683594 438.65130615234375 C 372.76214599609375 466.6847229003906 371.2857360839844 457.8929443359375 351.7302551269531 446.3638610839844 C 352.88189697265625 410.1751708984375 362.35137939453125 408.7578125 373.30938720703125 438.6586608886719 C 384.6763610839844 425.036865234375 399.29144287109375 405.93536376953125 374.1041564941406 397.74169921875 C 367.98150634765625 409.89007568359375 340.5232238769531 403.1305847167969 352.887451171875 377.2354736328125" stroke-width="6.0" fill="none" stroke="rgb(0, 0, 0)" stroke-opacity="1.0" stroke-linecap="round" stroke-linejoin="round"/>
    <path d="M 435.0279235839844 48.09618377685547 C 433.38134765625 66.3670883178711 421.40655517578125 73.3228530883789 401.8658447265625 86.68730926513672 C 415.5721740722656 103.10868835449219 400.9696960449219 83.83802032470703 409.7186584472656 95.44735717773438 C 435.89111328125 117.70570373535156 459.82379150390625 141.85450744628906 445.5120544433594 131.24649047851562 C 456.406494140625 135.8557891845703 471.5456848144531 151.83518981933594 507.49212646484375 167.50894165039062 C 475.5920715332031 154.8055877685547 450.58819580078125 131.78880310058594 456.1605529785156 138.72987365722656" stroke-width="6.0" fill="none" stroke="rgb(0, 0, 0)" stroke-opacity="1.0" stroke-linecap="round" stroke-linejoin="round"/>
    <path d="M 251.984375 391.8211364746094 C 267.5462951660156 389.6802673339844 273.61297607421875 408.5855407714844 264.52056884765625 427.5854797363281 C 293.7061462402344 442.9469299316406 307.058837890625 457.7607116699219 326.6865234375 429.99774169921875 C 333.7552795410156 432.41107177734375 355.7758483886719 449.15106201171875 328.2405090332031 457.3843078613281 C 350.66485595703125 440.2356872558594 368.17425537109375 446.0115966796875 348.53961181640625 430.44146728515625 C 348.1216735839844 447.34552001953125 324.95770263671875 443.2369384765625 286.6195068359375 429.03143310546875" stroke-width="6.0" fill="none" stroke="rgb(0, 0, 0)" stroke-opacity="1.0" stroke-linecap="round" stroke-linejoin="round"/>
    <path d="M 91.88212585449219 418.17724609375 C 97.3509292602539 421.05780029296875 86.21324157714844 441.43084716796875 93.82876586914062 449.01129150390625 C 91.36357879638672 466.7073669433594 107.25199127197266 482.2047119140625 89.66460418701172 494.7154541015625 C 89.02306365966797 509.6766662597656 88.1373519897461 532.98193359375 65.5212173461914 537.5919189453125 C 60.54342269897461 537.878173828125 68.57037353515625 560.9871826171875 63.33610153198242 535.422607421875 C 63.77126693725586 519.9759521484375 47.60993194580078 525.3201904296875 36.55546951293945 539.966064453125" stroke-width="6.0" fill="none" stroke="rgb(0, 0, 0)" stroke-opacity="1.0" stroke-linecap="round" stroke-linejoin="round"/>
    <path d="M 411.2786865234375 594.1055297851562 C 429.0332946777344 572.7935180664062 421.6375427246094 591.8140869140625 442.9611511230469 619.9896240234375 C 434.56195068359375 604.8740844726562 460.2093505859375 624.9086303710938 486.2344055175781 634.682373046875 C 504.0592041015625 648.518798828125 521.00537109375 655.107421875 512.1077270507812 628.0299682617188 C 503.523193359375 623.494873046875 518.3436279296875 646.251708984375 531.6923828125 641.2156982421875 C 530.0654296875 633.0020141601562 507.3042907714844 610.8450927734375 484.0846252441406 624.4613647460938" stroke-width="6.0" fill="none" stroke="rgb(0, 0, 0)" stroke-opacity="1.0" stroke-linecap="round" stroke-linejoin="round"/>
    <path d="M 163.15042114257812 262.6235656738281 C 193.54702758789062 260.62884521484375 196.46766662597656 253.99412536621094 219.3278350830078 288.922607421875 C 230.22366333007812 315.6756591796875 235.61660766601562 302.21697998046875 246.78030395507812 294.7092590332031 C 253.1650390625 300.454833984375 263.5709533691406 289.24444580078125 240.8030242919922 255.5648956298828 C 229.1976776123047 232.5169219970703 230.2027587890625 258.7914733886719 219.0354461669922 260.1725158691406 C 209.19656372070312 282.3862609863281 188.34716796875 254.77647399902344 182.27403259277344 260.70166015625" stroke-width="6.0" fill="none" stroke="rgb(0, 0, 0)" stroke-opacity="1.0" stroke-linecap="round" stroke-linejoin="round"/>
    <path d="M 117.4790267944336 222.1121826171875 C 128.0451202392578 198.23016357421875 101.53506469726562 217.4991455078125 98.46761322021484 200.06307983398438 C 91.09501647949219 194.95718383789062 70.40935516357422 218.31588745117188 77.91458129882812 214.89251708984375 C 63.797157287597656 201.42636108398438 54.752357482910156 195.427490234375 30.23137664794922 178.042236328125 C 41.43402862548828 195.61741638183594 64.19384002685547 177.73158264160156 64.82038116455078 155.9419708251953 C 75.35371398925781 156.24244689941406 91.8916015625 163.02584838867188 80.97926330566406 152.8096923828125" stroke-width="6.0" fill="none" stroke="rgb(0, 0, 0)" stroke-opacity="1.0" stroke-linecap="round" stroke-linejoin="round"/>
    <path d="M 267.57464599609375 346.9497985839844 C 252.9615020751953 323.70465087890625 259.944580078125 297.027099609375 262.70867919921875 295.9806823730469 C 251.416015625 328.2533874511719 267.3648986816406 334.9031982421875 262.7052307128906 343.97637939453125 C 281.62176513671875 332.992919921875 296.5860290527344 339.5916748046875 283.9613342285156 367.0606994628906 C 296.05511474609375 367.1208801269531 298.6184387207031 384.04071044921875 269.477294921875 370.7330322265625 C 237.8523712158203 361.1302795410156 233.2695770263672 342.05963134765625 224.74050903320312 329.77142333984375" stroke-width="6.0" fill="none" stroke="rgb(0, 0, 0)" stroke-opacity="1.0" stroke-linecap="round" stroke-linejoin="round"/>
    <path d="M 317.4397277832031 422.83837890625 C 277.02362060546875 412.6318359375 266.3257751464844 430.3116149902344 245.7635955810547 456.5195007324219 C 223.72171020507812 462.8916320800781 225.19004821777344 477.1858215332031 207.42543029785156 485.0387268066406 C 234.68545532226562 487.8376770019531 227.18362426757812 483.7143249511719 249.10324096679688 461.925537109375 C 228.4691162109375 432.8022766113281 224.29849243164062 462.5877990722656 240.86404418945312 488.71319580078125 C 256.51910400390625 488.02789306640625 245.8195343017578 479.3719482421875 272.84515380859375 461.88726806640625" stroke-width="6.0" fill="none" stroke="rgb(0, 0, 0)" stroke-opacity="1.0" stroke-linecap="round" stroke-linejoin="round"/>
    <path d="M 550.5779418945312 388.6098937988281 C 544.2771606445312 405.3291320800781 515.8281860351562 415.258544921875 483.9122619628906 397.91607666015625 C 479.5174560546875 405.8105773925781 480.05267333984375 417.8323974609375 475.39599609375 439.6994323730469 C 451.8435974121094 462.45703125 423.95855712890625 482.2892150878906 442.1943359375 478.19793701171875 C 462.3914489746094 492.63336181640625 468.8789978027344 516.3141479492188 474.1598205566406 499.7476501464844 C 455.76092529296875 516.5010986328125 467.489990234375 500.7104187011719 466.2237548828125 532.4153442382812" stroke-width="6.0" fill="none" stroke="rgb(0, 0, 0)" stroke-opacity="1.0" stroke-linecap="round" stroke-linejoin="round"/>
    <path d="M 124.5108413696289 192.37388610839844 C 123.21430206298828 196.31307983398438 100.46560668945312 180.4994354248047 99.40817260742188 196.9803466796875 C 91.95069885253906 190.25355529785156 61.731529235839844 169.85546875 91.83006286621094 166.230224609375 C 105.90241241455078 183.19056701660156 85.60811614990234 166.20091247558594 108.81755828857422 158.6768798828125 C 101.00172424316406 158.44033813476562 82.86973571777344 173.5189666748047 116.74942016601562 189.2173309326172 C 100.07756805419922 184.28904724121094 96.55561065673828 198.512451171875 78.48200988769531 211.22354125976562" stroke-width="6.0" fill="none" stroke="rgb(0, 0, 0)" stroke-opacity="1.0" stroke-linecap="round" stroke-linejoin="round"/>
    <path d="M 341.0511169433594 -0.597381055355072 C 364.0445861816406 -20.52859115600586 360.990234375 -10.279767990112305 341.55340576171875 -19.462732315063477 C 368.4464111328125 3.9772446155548096 388.67633056640625 29.90132713317871 408.9375915527344 16.649742126464844 C 415.3568115234375 26.77284812927246 386.3912353515625 3.5138585567474365 405.1493835449219 27.925697326660156 C 406.0030517578125 55.1866455078125 386.860107421875 62.88601303100586 403.53448486328125 35.718875885009766 C 381.07598876953125 14.066096305847168 367.0070495605469 30.45015525817871 343.3573303222656 14.861082077026367" stroke-width="6.0" fill="none" stroke="rgb(0, 0, 0)" stroke-opacity="1.0" stroke-linecap="round" stroke-linejoin="round"/>
    <path d="M 548.1517333984375 100.06925964355469 C 553.3693237304688 102.54273223876953 544.4159545898438 93.06019592285156 520.591552734375 98.24907684326172 C 515.52734375 104.64995574951172 490.1799621582031 117.3174819946289 514.3585815429688 103.12960815429688 C 501.5134582519531 115.1918716430664 496.1383056640625 106.55028533935547 509.7905578613281 90.64982604980469 C 499.4490661621094 118.27989959716797 517.77734375 91.8809814453125 545.3551025390625 100.51717376708984 C 567.0429077148438 103.92703247070312 565.7446899414062 112.03551483154297 571.9962158203125 122.98886108398438" stroke-width="6.0" fill="none" stroke="rgb(0, 0, 0)" stroke-opacity="1.0" stroke-linecap="round" stroke-linejoin="round"/>
    <path d="M 336.90667724609375 344.76251220703125 C 345.90435791015625 323.80633544921875 361.43267822265625 326.7877502441406 339.7585754394531 344.898193359375 C 368.4463806152344 357.3800354003906 344.42193603515625 344.8111877441406 345.40277099609375 363.8959655761719 C 328.52801513671875 343.16595458984375 302.2298278808594 315.6747741699219 278.5915222167969 328.7002868652344 C 312.10845947265625 337.3753662109375 299.041259765625 347.598388671875 276.49261474609375 331.9003601074219 C 299.08819580078125 325.7315979003906 279.5178527832031 346.67535400390625 302.6862487792969 363.034423828125" stroke-width="6.0" fill="none" stroke="rgb(0, 0, 0)" stroke-opacity="1.0" stroke-linecap="round" stroke-linejoin="round"/>
    <path d="M 14.029401779174805 262.28546142578125 C 31.864343643188477 239.46730041503906 40.46949768066406 241.54612731933594 36.00679397583008 239.3260498046875 C 39.506778717041016 235.1033172607422 62.45670700073242 224.0393829345703 65.00891876220703 220.954833984375 C 42.64031219482422 226.3328399658203 39.061546325683594 252.49559020996094 44.145347595214844 234.0504608154297 C 26.403364181518555 251.58116149902344 17.47530746459961 264.1597595214844 2.161543607711792 259.39666748046875 C 31.856748580932617 266.3675537109375 36.67232894897461 298.3568420410156 59.875205993652344 279.68017578125" stroke-width="6.0" fill="none" stroke="rgb(0, 0, 0)" stroke-opacity="1.0" stroke-linecap="round" stroke-linejoin="round"/>
    <path d="M 84.91011047363281 73.17131805419922 C 99.95016479492188 90.7197494506836 78.2060775756836 62.38911056518555 69.15526580810547 44.01318359375 C 39.266544342041016 45.041221618652344 57.356014251708984 49.650718688964844 87.59516906738281 30.73781967163086 C 69.96895599365234 17.07282257080078 75.72379302978516 -9.74516487121582 50.778709411621094 15.220735549926758 C 73.9852523803711 48.23908233642578 72.31448364257812 71.5737533569336 69.67759704589844 35.87968063354492 C 53.608802795410156 54.55828094482422 30.311208724975586 39.16807174682617 14.79429817199707 56.28440475463867" stroke-width="6.0" fill="none" stroke="rgb(0, 0, 0)" stroke-opacity="1.0" stroke-linecap="round" stroke-linejoin="round"/>
    <path d="M 454.64666748046875 152.4868621826172 C 443.6850891113281 147.8424530029297 459.39544677734375 161.11170959472656 459.2264404296875 138.3571319580078 C 469.66314697265625 147.11598205566406 485.1671447753906 154.84983825683594 500.6304016113281 165.237548828125 C 508.5996398925781 164.08839416503906 511.2771301269531 180.990966796875 509.6885070800781 176.86367797851562 C 505.9426574707031 158.37908935546875 505.5944519042969 175.0574951171875 527.4864501953125 175.08795166015625 C 507.5409851074219 149.48883056640625 516.866455078125 130.8410186767578 505.21466064453125 139.6854248046875" stroke-width="6.0" fill="none" stroke="rgb(0, 0, 0)" stroke-opacity="1.0" stroke-linecap="round" stroke-linejoin="round"/>
    <path d="M 13.029027938842773 500.4327087402344 C 25.24564552307129 520.7417602539062 15.064719200134277 498.3414306640625 27.080772399902344 516.618896484375 C 41.74644088745117 527.474853515625 39.71872329711914 548.0042724609375 24.061439514160156 546.3853149414062 C 50.46961975097656 534.985595703125 33.43907928466797 528.1303100585938 59.58617401123047 527.4810791015625 C 78.48284149169922 559.8455810546875 87.25364685058594 543.8489990234375 72.2638931274414 574.7858276367188 C 63.838077545166016 587.6333618164062 77.65916442871094 600.06396484375 79.46769714355469 583.5663452148438" stroke-width="6.0" fill="none" stroke="rgb(0, 0, 0)" stroke-opacity="1.0" stroke-linecap="round" stroke-linejoin="round"/>
    <path d="M 101.92312622070312 337.94696044921875 C 89.12353515625 336.5123596191406 104.7941665649414 335.35369873046875 89.2494125366211 328.6109924316406 C 67.90359497070312 340.0970153808594 45.90239715576172 357.80902099609375 46.83634948730469 356.653564453125 C 17.34882926940918 385.8441467285156 29.30413246154785 356.45233154296875 14.615846633911133 370.020263671875 C 7.239591121673584 396.97491455078125 22.98600959777832 382.0126037597656 22.85308265686035 383.5103759765625 C 30.237226486206055 359.9801330566406 9.363612174987793 353.2919616699219 4.116522789001465 343.9609375" stroke-width="6.0" fill="none" stroke="rgb(0, 0, 0)" stroke-opacity="1.0" stroke-linecap="round" stroke-linejoin="round"/>
    <path d="M 46.92694091796875 113.87016296386719 C 41.764404296875 122.78267669677734 45.652156829833984 120.68775177001953 67.06812286376953 152.10836791992188 C 99.02643585205078 120.3333740234375 99.90338897705078 93.69776916503906 99.39984893798828 110.19316101074219 C 120.48033905029297 117.44091796875 129.6732177734375 121.5421142578125 152.22386169433594 119.76496124267578 C 168.76834106445312 115.00074768066406 173.13938903808594 129.0370635986328 162.6717071533203 143.32911682128906 C 143.78396606445312 170.2222442626953 167.7528533935547 193.35214233398438 163.74697875976562 198.1096649169922" stroke-width="6.0" fill="none" stroke="rgb(0, 0, 0)" stroke-opacity="1.0" stroke-linecap="round" stroke-linejoin="round"/>
    <path d="M 490.08123779296875 327.06256103515625 C 503.63665771484375 312.53094482421875 484.171875 336.9073181152344 486.521240234375 331.6252136230469 C 483.0898742675781 352.4201965332031 460.2258605957031 321.9358215332031 438.2555847167969 303.13543701171875 C 426.72412109375 297.4276428222656 413.3580627441406 310.5368957519531 399.96832275390625 336.404541015625 C 417.718505859375 306.43560791015625 421.955078125 305.0879821777344 410.6024169921875 317.0868225097656 C 440.5888977050781 337.6797180175781 433.3958435058594 332.3833923339844 430.8482971191406 332.0477294921875" stroke-width="6.0" fill="none" stroke="rgb(0, 0, 0)" stroke-opacity="1.0" stroke-linecap="round" stroke-linejoin="round"/>
    <path d="M 560.158935546875 200.81106567382812 C 537.2457275390625 172.3148193359375 525.1337890625 195.6783447265625 548.0081176757812 177.88783264160156 C 534.8894653320312 174.46800231933594 545.0211791992188 196.25527954101562 562.47998046875 196.7670135498047 C 585.9176025390625 160.9714813232422 596.5974731445312 185.84085083007812 619.2009887695312 166.8394317626953 C 630.347412109375 168.41856384277344 608.6321411132812 144.405029296875 582.7698974609375 164.38780212402344 C 581.658447265625 169.02554321289062 595.7431030273438 184.64892578125 585.775634765625 194.80308532714844" stroke-width="6.0" fill="none" stroke="rgb(0, 0, 0)" stroke-opacity="1.0" stroke-linecap="round" stroke-linejoin="round"/>
    <path d="M 406.0346374511719 447.7563781738281 C 424.4754333496094 437.0133361816406 399.942626953125 456.61962890625 375.1786193847656 438.72467041015625 C 397.015380859375 458.0869445800781 394.379150390625 475.7073059082031 393.2688903808594 492.2766418457031 C 361.29632568359375 481.3734436035156 382.1302795410156 466.20452880859375 410.9215393066406 441.4658203125 C 380.4611511230469 439.6847839355469 377.0680847167969 470.6407775878906 357.4104919433594 466.83294677734375 C 370.9461669921875 485.0864562988281 372.0403137207031 471.378662109375 393.4750671386719 442.47332763671875" stroke-width="6.0" fill="none" stroke="rgb(0, 0, 0)" stroke-opacity="1.0" stroke-linecap="round" stroke-linejoin="round"/>
    <path d="M 484.99102783203125 316.2041015625 C 492.05615234375 292.7315673828125 505.7240295410156 278.4608154296875 532.5403442382812 289.2174987792969 C 540.8936767578125 314.4053039550781 519.0830688476562 319.0695495605469 505.46429443359375 335.0541076660156 C 472.9299621582031 303.7944641113281 442.8265686035156 300.97698974609375 475.2253723144531 278.26861572265625 C 491.6952819824219 279.1481628417969 486.2281188964844 293.560302734375 464.7709045410156 309.3946533203125 C 449.76531982421875 315.9607849121094 446.53070068359375 341.61639404296875 425.2350769042969 349.9866027832031" stroke-width="6.0" fill="none" stroke="rgb(0, 0, 0)" stroke-opacity="1.0" stroke-linecap="round" stroke-linejoin="round"/>
    <path d="M 583.118408203125 166.56521606445312 C 589.0774536132812 177.62966918945312 570.7738647460938 192.9441680908203 559.1712036132812 172.13821411132812 C 534.2254638671875 165.61888122558594 556.9279174804688 182.2216339111328 540.5851440429688 173.09413146972656 C 515.4698486328125 183.09722900390625 494.1412048339844 157.72787475585938 478.5841369628906 155.02784729003906 C 496.173583984375 158.77899169921875 478.0667419433594 159.71450805664062 493.95184326171875 182.038818359375 C 498.6715087890625 169.11912536621094 486.5478210449219 200.4165802001953 481.175537109375 215.63294982910156" stroke-width="6.0" fill="none" stroke="rgb(0, 0, 0)" stroke-opacity="1.0" stroke-linecap="round" stroke-linejoin="round"/>
    <path d="M 416.689208984375 77.59098815917969 C 397.9295654296875 66.42806243896484 413.8735656738281 77.79310607910156 431.17425537109375 86.9041748046875 C 448.7196350097656 110.18404388427734 441.9721984863281 132.8722381591797 466.34912109375 147.4215087890625 C 463.15191650390625 149.64268493652344 461.32733154296875 137.2071075439453 447.06927490234375 131.67213439941406 C 445.2965393066406 126.64974212646484 461.4122619628906 128.5403289794922 433.02386474609375 148.39370727539062 C 415.58221435546875 144.4905242919922 419.37945556640625 122.67355346679688 417.9383544921875 125.97592163085938" stroke-width="6.0" fill="none" stroke="rgb(0, 0, 0)" stroke-opacity="1.0" stroke-linecap="round" stroke-linejoin="round"/>
    <path d="M 18.551937103271484 212.27540588378906 C 22.832773208618164 205.45201110839844 33.98454666137695 204.98097229003906 44.53142166137695 217.45407104492188 C 58.8901252746582 234.28314208984375 75.13528442382812 220.07496643066406 50.990047454833984 228.1339111328125 C 62.6767692565918 222.1411590576172 85.92162322998047 234.40122985839844 97.50234985351562 254.48585510253906 C 86.26461029052734 259.3026428222656 100.60411834716797 249.81790161132812 89.7601547241211 243.42483520507812 C 69.88167572021484 226.55540466308594 82.74739074707031 232.7215576171875 91.12458038330078 222.59751892089844" stroke-width="6.0" fill="none" stroke="rgb(0, 0, 0)" stroke-opacity="1.0" stroke-linecap="round" stroke-linejoin="round"/>
    <path d="M 394.76922607421875 431.6744079589844 C 365.2606201171875 455.3049011230469 383.1700134277344 463.6481628417969 404.93194580078125 471.7140197753906 C 402.9152526855469 477.71722412109375 391.118408203125 449.161376953125 388.3337097167969 452.1480407714844 C 411.3433532714844 479.2042236328125 381.2303161621094 507.32659912109375 395.4366760253906 531.8659057617188 C 362.4266357421875 524.19091796875 358.2414855957031 529.8755493164062 340.5687255859375 539.5248413085938 C 335.7132873535156 551.5573120117188 327.2318420410156 541.1756591796875 308.757080078125 531.37744140625" stroke-width="6.0" fill="none" stroke="rgb(0, 0, 0)" stroke-opacity="1.0" stroke-linecap="round" stroke-linejoin="round"/>
    <path d="M 164.4126739501953 455.6065368652344 C 146.80142211914062 476.87420654296875 166.4354705810547 491.4566650390625 173.02232360839844 483.5619201660156 C 193.7519073486328 479.25140380859375 195.87806701660156 505.1770324707031 201.68951416015625 525.69384765625 C 205.8531951904297 551.7705688476562 183.11167907714844 585.2612915039062 162.3432159423828 613.663330078125 C 173.0544891357422 606.6021728515625 150.53196716308594 615.5626220703125 174.71104431152344 585.9916381835938 C 186.70242309570312 570.62744140625 203.59808349609375 549.2971801757812 181.9842071533203 526.6866455078125" stroke-width="6.0" fill="none" stroke="rgb(0, 0, 0)" stroke-opacity="1.0" stroke-linecap="round" stroke-linejoin="round"/>
    <path d="M 245.12887573242188 413.936767578125 C 233.88157653808594 416.45062255859375 244.50662231445312 435.4273986816406 229.48899841308594 460.6873474121094 C 201.11717224121094 472.51324462890625 190.03590393066406 469.1695861816406 193.03753662109375 470.59649658203125 C 180.10952758789062 459.7926330566406 209.85939025878906 438.979248046875 196.73367309570312 458.57794189453125 C 224.4590606689453 426.59014892578125 209.91009521484375 427.5627136230469 198.3525848388672 414.9336242675781 C 167.8034210205078 390.8509826660156 171.16493225097656 402.7942199707031 156.11463928222656 383.0975341796875" stroke-width="6.0" fill="none" stroke="rgb(0, 0, 0)" stroke-opacity="1.0" stroke-linecap="round" stroke-linejoin="round"/>
    <path d="M 276.9516906738281 28.89092254638672 C 261.8096618652344 15.290645599365234 276.5890808105469 -13.114079475402832 260.162109375 -26.0284423828125 C 265.12066650390625 -34.35919952392578 267.22918701171875 -4.828973770141602 277.9382629394531 1.7158128023147583 C 263.6854553222656 23.236085891723633 280.1466064453125 43.159149169921875 289.32147216796875 20.838415145874023 C 305.41131591796875 4.180095672607422 330.38507080078125 20.967500686645508 323.37750244140625 33.145965576171875 C 345.0686340332031 58.182796478271484 352.6543884277344 41.94297409057617 369.4526672363281 13.877647399902344" stroke-width="6.0" fill="none" stroke="rgb(0, 0, 0)" stroke-opacity="1.0" stroke-linecap="round" stroke-linejoin="round"/>
    <path d="M 280.0397644042969 165.8135223388672 C 280.6546630859375 147.61376953125 302.7384948730469 126.86945343017578 282.240966796875 118.50141143798828 C 313.4725036621094 102.55836486816406 302.9901428222656 120.18944549560547 335.9409484863281 145.33103942871094 C 347.9713439941406 123.93131256103516 357.12640380859375 94.50404357910156 357.9290466308594 75.4722671508789 C 369.3800354003906 43.82512664794922 354.0281677246094 23.28364372253418 367.0964660644531 8.864789962768555 C 381.70977783203125 -10.30243968963623 404.19500732421875 8.449854850769043 403.1155700683594 -19.67161750793457" stroke-width="6.0" fill="none" stroke="rgb(0, 0, 0)" stroke-opacity="1.0" stroke-linecap="round" stroke-linejoin="round"/>
    <path d="M 498.587646484375 578.3270263671875 C 504.2010498046875 562.196533203125 473.73760986328125 538.1793212890625 481.4093017578125 521.375732421875 C 467.2142333984375 541.381103515625 454.9259033203125 551.4063720703125 429.86224365234375 570.2330322265625 C 449.02069091796875 574.3853759765625 420.8115234375 544.5668334960938 399.5234680175781 558.2203369140625 C 407.3817443847656 538.9791870117188 425.29730224609375 528.233154296875 402.8072814941406 508.06829833984375 C 413.2928466796875 496.4974060058594 417.73638916015625 492.813720703125 443.0865173339844 497.455078125" stroke-width="6.0" fill="none" stroke="rgb(0, 0, 0)" stroke-opacity="1.0" stroke-linecap="round" stroke-linejoin="round"/>
    <path d="M 568.0151977539062 446.40069580078125 C 562.452880859375 429.1641540527344 549.1514892578125 408.02496337890625 565.0189208984375 388.9835510253906 C 585.3294067382812 362.3970642089844 598.1360473632812 369.1024475097656 607.5581665039062 384.44915771484375 C 592.3497924804688 403.594970703125 584.5997314453125 414.3283996582031 586.9954833984375 431.89874267578125 C 579.8248291015625 408.5052185058594 591.1950073242188 438.5531005859375 580.6110229492188 471.4161376953125 C 582.179931640625 458.1390686035156 589.7572021484375 449.84228515625 584.8501586914062 434.426025390625" stroke-width="6.0" fill="none" stroke="rgb(0, 0, 0)" stroke-opacity="1.0" stroke-linecap="round" stroke-linejoin="round"/>
    <path d="M 372.5582275390625 488.43817138671875 C 377.15460205078125 516.6868896484375 360.7691955566406 496.59442138671875 344.734375 504.43157958984375 C 343.4499816894531 525.5722045898438 342.9101867675781 535.323974609375 371.4537048339844 549.8659057617188 C 383.7185363769531 576.2164916992188 364.2047424316406 576.6143188476562 354.0133361816406 598.9982299804688 C 351.8085632324219 576.8892822265625 351.6201171875 584.9444580078125 323.2841491699219 599.6722412109375 C 344.2846374511719 614.754638671875 364.87945556640625 604.5724487304688 383.346923828125 622.9261474609375" stroke-width="6.0" fill="none" stroke="rgb(0, 0, 0)" stroke-opacity="1.0" stroke-linecap="round" stroke-linejoin="round"/>
    <path d="M 552.7801513671875 219.2508087158203 C 536.2852172851562 229.84625244140625 532.7557983398438 225.98403930664062 519.8827514648438 248.54150390625 C 527.7035522460938 240.34950256347656 527.9468994140625 209.67308044433594 527.6157836914062 222.01443481445312 C 497.791259765625 200.1170196533203 508.1294860839844 219.39859008789062 527.8836669921875 219.78689575195312 C 539.0712890625 196.66180419921875 553.5694580078125 189.27662658691406 563.0509643554688 207.3613739013672 C 566.3253784179688 208.88363647460938 582.5498657226562 227.86546325683594 581.9320068359375 251.18658447265625" stroke-width="6.0" fill="none" stroke="rgb(0, 0, 0)" stroke-opacity="1.0" stroke-linecap="round" stroke-linejoin="round"/>
    <path d="M 513.15234375 394.20098876953125 C 511.8121337890625 395.75457763671875 491.4886779785156 370.311279296875 514.174072265625 337.0303649902344 C 491.9051818847656 326.97491455078125 500.4311218261719 329.74981689453125 485.3242492675781 316.7984924316406 C 464.2675476074219 311.3369140625 471.96240234375 339.85894775390625 485.125 358.82745361328125 C 466.3657531738281 369.07958984375 450.7353820800781 345.3304443359375 452.2742614746094 346.05389404296875 C 428.942626953125 347.20501708984375 453.6261291503906 317.94854736328125 461.6878967285156 310.620361328125" stroke-width="6.0" fill="none" stroke="rgb(0, 0, 0)" stroke-opacity="1.0" stroke-linecap="round" stroke-linejoin="round"/>
    <path d="M 403.97320556640625 471.39544677734375 C 390.5863342285156 460.6487731933594 400.9961242675781 440.5238342285156 410.766845703125 451.11285400390625 C 409.6204528808594 438.0811767578125 423.43072509765625 442.5228271484375 432.4577941894531 468.1610107421875 C 460.8006286621094 467.7146301269531 461.44805908203125 442.55096435546875 484.3214416503906 435.96246337890625 C 500.1614685058594 436.3717041015625 521.1806640625 439.2405700683594 534.9857788085938 433.60784912109375 C 558.4544067382812 436.2685852050781 580.3473510742188 425.4451599121094 587.4463500976562 440.86822509765625" stroke-width="6.0" fill="none" stroke="rgb(0, 0, 0)" stroke-opacity="1.0" stroke-linecap="round" stroke-linejoin="round"/>
    <path d="M 436.2558898925781 525.53955078125 C 415.49755859375 543.2430419921875 429.3591613769531 543.1430053710938 453.9490051269531 551.08447265625 C 475.326416015625 570.6259155273438 475.3473205566406 544.9671020507812 463.9427795410156 574.35595703125 C 481.9499206542969 560.4172973632812 450.7070007324219 537.5949096679688 478.6338806152344 525.5478515625 C 496.8232116699219 510.09832763671875 491.62286376953125 507.8632507324219 511.181640625 489.63214111328125 C 489.4181213378906 505.2120666503906 514.651123046875 488.6209716796875 529.955810546875 475.5846862792969" stroke-width="6.0" fill="none" stroke="rgb(0, 0, 0)" stroke-opacity="1.0" stroke-linecap="round" stroke-linejoin="round"/>
    <path d="M 224.6002197265625 47.53436279296875 C 222.797119140625 31.576560974121094 197.66534423828125 10.04096794128418 168.19308471679688 -18.72888946533203 C 145.23880004882812 0.0761798694729805 122.3260498046875 14.295682907104492 101.19811248779297 15.600250244140625 C 111.57775115966797 26.389604568481445 104.4983901977539 15.230110168457031 118.85408782958984 44.45641326904297 C 141.88165283203125 77.78305053710938 144.10784912109375 99.93812561035156 150.76593017578125 88.18727111816406 C 134.33279418945312 74.1611557006836 113.30525970458984 89.01004028320312 98.13126373291016 107.44053649902344" stroke-width="6.0" fill="none" stroke="rgb(0, 0, 0)" stroke-opacity="1.0" stroke-linecap="round" stroke-linejoin="round"/>
    <path d="M 493.442138671875 598.2265625 C 488.45538330078125 610.3614501953125 466.9215087890625 607.1585693359375 494.9411926269531 613.7103881835938 C 511.33935546875 618.3629760742188 486.1280822753906 645.8740234375 462.7408447265625 621.26220703125 C 455.3951416015625 621.2808227539062 472.4895324707031 596.0557250976562 457.61322021484375 605.324462890625 C 438.9579772949219 628.3046264648438 440.2198181152344 655.596923828125 444.1737365722656 672.67626953125 C 471.91748046875 697.7264404296875 462.5134582519531 720.20166015625 436.6104431152344 744.35791015625" stroke-width="6.0" fill="none" stroke="rgb(0, 0, 0)" stroke-opacity="1.0" stroke-linecap="round" stroke-linejoin="round"/>
    <path d="M 284.7038269042969 65.55062866210938 C 261.9781799316406 42.15754699707031 268.05877685546875 44.31486511230469 243.5408935546875 47.301334381103516 C 209.69772338867188 61.8580207824707 240.9241943359375 32.331398010253906 241.7384033203125 59.03279113769531 C 238.59869384765625 84.48770141601562 264.5148620605469 56.936588287353516 244.2535858154297 53.73076629638672 C 223.39735412597656 84.95234680175781 250.7506866455078 97.2499771118164 259.3050537109375 73.83797454833984 C 279.73797607421875 53.50034713745117 293.20904541015625 62.976226806640625 317.9525146484375 63.48777770996094" stroke-width="6.0" fill="none" stroke="rgb(0, 0, 0)" stroke-opacity="1.0" stroke-linecap="round" stroke-linejoin="round"/>
  </g>
</svg>
