<?xml version="1.0" ?>
<svg xmlns="http://www.w3.org/2000/svg" version="1.1" width="600" height="600">
  <defs/>
  <g>
    <path d="M 246.3624267578125 100.8614730834961 C 179.02491760253906 202.1508026123047 166.4579620361328 201.21847534179688 15.16726016998291 274.07244873046875 C -29.652585983276367 281.53564453125 -41.07417678833008 286.1458435058594 -48.694393157958984 87.9409408569336 C -24.333703994750977 8.570257186889648 -27.246089935302734 -7.972509384155273 17.225250244140625 -28.917741775512695 C 275.0733642578125 -21.83570671081543 262.5903625488281 4.883021831512451 246.3624267578125 100.8614730834961" stroke-width="0.0" fill="rgb(13, 26, 122)" opacity="0.98171604"/>
    <path d="M 198.85443115234375 204.55296325683594 C 137.20758056640625 197.7057647705078 172.29502868652344 254.25701904296875 103.23655700683594 277.99334716796875 C 87.3640365600586 272.2442626953125 73.30348205566406 253.07754516601562 53.62987518310547 253.65625 C 115.96061706542969 204.65350341796875 149.42666625976562 207.4849090576172 145.01690673828125 149.40286254882812 C 188.65145874023438 111.13966369628906 205.28720092773438 123.19291687011719 198.85443115234375 204.55296325683594" stroke-width="0.0" fill="rgb(42, 10, 201)" opacity="0.64950264"/>
    <path d="M 190.98707580566406 304.03033447265625 C 184.94366455078125 330.2679138183594 177.34918212890625 338.06201171875 106.67094421386719 347.2416687011719 C 113.05403137207031 360.19012451171875 113.31344604492188 341.64910888671875 120.79369354248047 280.8544921875 C 111.43683624267578 261.630126953125 105.42999267578125 258.16815185546875 118.56280517578125 279.0926208496094 C 154.05506896972656 263.83612060546875 165.10574340820312 273.0331115722656 190.98707580566406 304.03033447265625" stroke-width="0.0" fill="rgb(39, 55, 169)" opacity="0.86920434"/>
    <path d="M 206.18173217773438 281.6852111816406 C 196.89852905273438 343.2293701171875 188.96038818359375 353.3506774902344 24.356504440307617 493.2838439941406 C -52.67020797729492 470.7919616699219 -52.878822326660156 455.653076171875 -67.9493637084961 303.3209533691406 C -61.31134796142578 177.29359436035156 -37.692604064941406 202.76219177246094 74.608154296875 189.0904541015625 C 204.73568725585938 172.3343963623047 200.57025146484375 203.1844940185547 206.18173217773438 281.6852111816406" stroke-width="0.0" fill="rgb(0, 37, 100)" opacity="1.0"/>
    <path d="M 384.35699462890625 189.0650634765625 C 362.3153381347656 453.2730407714844 327.49493408203125 420.7975158691406 249.50291442871094 395.79144287109375 C 149.7164306640625 330.2172546386719 171.49014282226562 294.96234130859375 175.93983459472656 265.3152160644531 C 124.88970947265625 273.7862854003906 137.4990234375 257.861572265625 140.1093292236328 246.1168670654297 C 122.00031280517578 248.07315063476562 88.10599517822266 236.77655029296875 384.35699462890625 189.0650634765625" stroke-width="0.0" fill="rgb(11, 84, 201)" opacity="0.92572975"/>
    <path d="M 619.5330810546875 530.1929321289062 C 640.3206787109375 591.042236328125 648.3556518554688 608.2679443359375 547.3335571289062 647.78857421875 C 359.1298522949219 471.820556640625 390.35003662109375 467.014404296875 390.162109375 342.3955078125 C 299.160400390625 242.55630493164062 295.9365234375 91.89729309082031 636.8603515625 54.84564971923828 C 644.4497680664062 121.61275482177734 622.7454833984375 168.44752502441406 619.5330810546875 530.1929321289062" stroke-width="0.0" fill="rgb(35, 4, 111)" opacity="0.9798474"/>
    <path d="M 198.81610107421875 128.3112030029297 C 214.45237731933594 243.24417114257812 188.7346649169922 255.95199584960938 208.81884765625 245.54425048828125 C 185.7565155029297 241.2529754638672 156.9518280029297 247.406005859375 128.3302459716797 246.2201690673828 C 123.99797821044922 167.54373168945312 117.2296371459961 156.7552032470703 176.6749725341797 163.11822509765625 C 178.03225708007812 203.63294982910156 127.86636352539062 204.37942504882812 198.81610107421875 128.3112030029297" stroke-width="0.0" fill="rgb(0, 3, 162)" opacity="0.98116565"/>
    <path d="M 163.7090301513672 289.72601318359375 C 192.16123962402344 281.108642578125 191.66510009765625 276.51470947265625 192.2244873046875 293.1311950683594 C 168.58042907714844 267.14599609375 159.94149780273438 257.3048095703125 149.78707885742188 242.14697265625 C 129.21414184570312 262.5913391113281 129.84405517578125 227.70530700683594 140.99359130859375 198.48341369628906 C 147.82598876953125 269.6259765625 145.48873901367188 300.9242858886719 163.7090301513672 289.72601318359375" stroke-width="0.0" fill="rgb(34, 35, 89)" opacity="0.21519047"/>
    <path d="M 690.769287109375 136.24168395996094 C 515.7301025390625 254.60194396972656 492.9753723144531 185.2095947265625 233.44801330566406 197.0070343017578 C 257.8941955566406 69.82345581054688 267.60205078125 180.3303985595703 162.10150146484375 -2.229311227798462 C 145.96136474609375 -53.86899185180664 150.93418884277344 -46.13034439086914 460.4347229003906 -47.9669075012207 C 585.2438354492188 -126.8721694946289 607.3876342773438 -179.3938446044922 690.769287109375 136.24168395996094" stroke-width="0.0" fill="rgb(46, 7, 110)" opacity="1.0"/>
    <path d="M 553.7154541015625 585.3687744140625 C 557.7764282226562 698.1615600585938 523.7203369140625 677.6956176757812 255.6406707763672 646.00439453125 C 145.3391571044922 653.82666015625 103.27857208251953 685.6243286132812 68.8112564086914 585.8818359375 C 108.9046630859375 337.6678771972656 156.775390625 435.8346252441406 313.3321533203125 404.8517150878906 C 386.9716491699219 457.5126953125 499.62744140625 387.8887939453125 553.7154541015625 585.3687744140625" stroke-width="0.0" fill="rgb(8, 10, 120)" opacity="0.9959195"/>
    <path d="M 162.77798461914062 224.26808166503906 C 165.8642578125 259.5987548828125 173.8777313232422 267.6136779785156 191.59335327148438 248.7688751220703 C 176.486328125 237.70957946777344 167.17686462402344 237.92247009277344 142.0785369873047 222.48768615722656 C 138.3828125 193.91363525390625 144.5730438232422 193.52037048339844 170.3848876953125 160.6806640625 C 196.57058715820312 179.63758850097656 204.3175811767578 205.37713623046875 162.77798461914062 224.26808166503906" stroke-width="0.0" fill="rgb(0, 32, 108)" opacity="0.53135604"/>
    <path d="M 200.40826416015625 256.4667053222656 C 187.8339385986328 254.5103759765625 182.58474731445312 260.9785461425781 161.4419403076172 301.65673828125 C 140.55516052246094 287.1535339355469 137.84027099609375 275.5657043457031 122.0312271118164 238.33535766601562 C 115.13922119140625 198.65750122070312 98.48265075683594 188.70899963378906 156.10189819335938 196.98060607910156 C 177.4982147216797 223.32252502441406 178.5535888671875 237.37937927246094 200.40826416015625 256.4667053222656" stroke-width="0.0" fill="rgb(4, 19, 133)" opacity="0.9585375"/>
    <path d="M 195.41563415527344 285.5206604003906 C 229.72630310058594 324.238037109375 190.15431213378906 355.4084167480469 118.4035415649414 335.0469970703125 C 116.31250762939453 300.0515441894531 130.2435760498047 294.1761474609375 132.65489196777344 267.05316162109375 C 142.689697265625 277.3979797363281 155.21188354492188 299.67376708984375 189.0004119873047 298.3391418457031 C 194.02651977539062 278.31658935546875 187.2209930419922 269.0755310058594 195.41563415527344 285.5206604003906" stroke-width="0.0" fill="rgb(4, 36, 108)" opacity="0.40818655"/>
    <path d="M 235.6969757080078 433.5504455566406 C 258.4884338378906 602.526611328125 328.4488525390625 670.0106811523438 8.0422945022583 677.3715209960938 C -87.12118530273438 598.3707885742188 -57.2475471496582 561.057861328125 -63.435970306396484 478.5467834472656 C 20.419607162475586 287.344482421875 123.04013061523438 325.283203125 189.0945281982422 326.2862854003906 C 197.07867431640625 301.9996643066406 242.87481689453125 266.74542236328125 235.6969757080078 433.5504455566406" stroke-width="0.0" fill="rgb(0, 36, 103)" opacity="0.9977185"/>
    <path d="M 3.2371561527252197 -16.00034523010254 C 0.7981233596801758 -5.708113670349121 -5.92292594909668 2.9491677284240723 -11.163548469543457 19.42141342163086 C -10.25257682800293 18.745800018310547 -20.60369110107422 13.684359550476074 -21.709335327148438 2.6896300315856934 C -16.840539932250977 -9.191941261291504 -9.520033836364746 -16.512447357177734 0.47996655106544495 -19.191940307617188 C 10.480010032653809 -16.512454986572266 17.8038330078125 -9.192890167236328 3.2371561527252197 -16.00034523010254" stroke-width="0.0" fill="rgb(58, 210, 110)" opacity="0.8806365"/>
    <path d="M 290.0884704589844 147.8046417236328 C 288.9217224121094 291.8579406738281 240.26878356933594 245.3062744140625 176.9783477783203 180.01454162597656 C 120.95491027832031 177.63868713378906 141.0704803466797 183.05746459960938 123.2996597290039 187.7895965576172 C 122.18809509277344 162.0494842529297 105.58416748046875 108.14999389648438 200.9506378173828 49.244667053222656 C 250.70303344726562 49.55265808105469 279.76849365234375 45.1225700378418 290.0884704589844 147.8046417236328" stroke-width="0.0" fill="rgb(0, 31, 162)" opacity="0.99052304"/>
    <path d="M 166.52381896972656 179.96400451660156 C 169.04006958007812 203.1914520263672 146.3909454345703 202.27989196777344 110.23368072509766 236.17520141601562 C 115.5357437133789 238.20962524414062 118.25022888183594 195.83944702148438 106.41342163085938 194.6986541748047 C 112.94029235839844 160.5464630126953 107.4375991821289 138.50042724609375 141.4641876220703 134.35421752929688 C 159.42979431152344 128.39610290527344 158.46144104003906 172.44638061523438 166.52381896972656 179.96400451660156" stroke-width="0.0" fill="rgb(11, 16, 142)" opacity="0.24168222"/>
    <path d="M 146.1321258544922 143.0238800048828 C 155.02481079101562 165.643310546875 123.98963928222656 167.76382446289062 108.19998168945312 202.4832763671875 C 78.8097915649414 201.5185089111328 69.4961929321289 192.1796875 85.56660461425781 164.3528289794922 C 89.91912841796875 124.78662872314453 93.9475326538086 98.90895080566406 121.91285705566406 58.95515441894531 C 143.46380615234375 105.83346557617188 122.68121337890625 111.80701446533203 146.1321258544922 143.0238800048828" stroke-width="0.0" fill="rgb(9, 39, 98)" opacity="0.15846382"/>
    <path d="M 383.22076416015625 517.2123413085938 C 391.4695739746094 551.758056640625 368.0943603515625 563.6785888671875 345.4228210449219 532.705322265625 C 331.5722351074219 508.65911865234375 320.39654541015625 492.20733642578125 316.24908447265625 481.699951171875 C 326.5839538574219 418.2251281738281 328.8610534667969 443.15753173828125 385.19091796875 439.1009826660156 C 364.9612731933594 503.57061767578125 360.71282958984375 471.30072021484375 383.22076416015625 517.2123413085938" stroke-width="0.0" fill="rgb(255, 214, 0)" opacity="1.0"/>
    <path d="M 352.866943359375 171.38124084472656 C 287.75262451171875 159.4210968017578 292.89208984375 92.3967514038086 322.9521789550781 94.80362701416016 C 329.1668395996094 135.56689453125 295.8951416015625 87.3293228149414 265.06689453125 162.48727416992188 C 214.21617126464844 46.58468246459961 297.877197265625 42.261627197265625 303.3396911621094 43.02290725708008 C 317.9827880859375 40.16101837158203 386.93719482421875 57.09416198730469 352.866943359375 171.38124084472656" stroke-width="0.0" fill="rgb(255, 220, 1)" opacity="0.99818575"/>
    <path d="M 123.63311767578125 173.04022216796875 C 135.39834594726562 263.61260986328125 143.60385131835938 281.6595458984375 118.29354858398438 233.35365295410156 C 98.73621368408203 208.29302978515625 87.28136444091797 215.3647003173828 64.76314544677734 217.79148864746094 C 44.80039978027344 164.2675018310547 55.18464279174805 160.25392150878906 95.72107696533203 135.53387451171875 C 155.4765625 150.5260772705078 152.3976593017578 134.63497924804688 123.63311767578125 173.04022216796875" stroke-width="0.0" fill="rgb(4, 44, 102)" opacity="0.098556206"/>
    <path d="M 367.132080078125 228.07708740234375 C 381.40240478515625 223.13392639160156 375.8722229003906 294.9446716308594 378.4225769042969 290.7383117675781 C 313.3906555175781 288.4464111328125 369.881103515625 194.4979705810547 289.6067199707031 213.72320556640625 C 229.3635711669922 375.6523742675781 225.58160400390625 227.29507446289062 292.5086364746094 190.69369506835938 C 396.0059814453125 164.732666015625 306.94940185546875 182.2374725341797 367.132080078125 228.07708740234375" stroke-width="0.0" fill="rgb(255, 254, 233)" opacity="0.9988825"/>
    <path d="M 350.8438415527344 150.59567260742188 C 327.689453125 166.85711669921875 318.6837158203125 144.2803497314453 312.0654296875 179.32015991210938 C 312.9992370605469 161.3842315673828 306.54095458984375 152.0223846435547 295.4081115722656 137.14849853515625 C 273.3244934082031 109.01968383789062 278.6551818847656 101.41531372070312 325.44677734375 97.43303680419922 C 346.71270751953125 108.3505859375 341.1932067871094 124.97241973876953 350.8438415527344 150.59567260742188" stroke-width="0.0" fill="rgb(12, 67, 49)" opacity="0.9725505"/>
    <path d="M 439.5870056152344 315.4071044921875 C 485.7131652832031 512.3668823242188 384.9096984863281 476.4825439453125 362.2191467285156 442.7677307128906 C 399.05609130859375 411.9607849121094 287.7400207519531 458.3904724121094 268.7762756347656 431.1676025390625 C 303.3108825683594 285.2164001464844 359.8243103027344 328.55426025390625 340.05474853515625 411.8416748046875 C 424.7571105957031 429.96099853515625 325.16143798828125 449.9942932128906 439.5870056152344 315.4071044921875" stroke-width="0.0" fill="rgb(15, 8, 124)" opacity="0.9877376"/>
    <path d="M 309.6328125 125.03213500976562 C 277.19921875 177.3025665283203 305.15625 220.71737670898438 267.79168701171875 211.31915283203125 C 263.7100830078125 109.65397644042969 212.11618041992188 165.47564697265625 238.6869659423828 145.526611328125 C 222.7089080810547 125.94446563720703 246.19253540039062 49.70692825317383 273.12530517578125 130.7732391357422 C 257.8440246582031 110.3917236328125 313.0575866699219 120.65906524658203 309.6328125 125.03213500976562" stroke-width="0.0" fill="rgb(247, 252, 241)" opacity="0.9809803"/>
    <path d="M 348.0332336425781 23.586008071899414 C 142.48300170898438 103.8001708984375 136.4207305908203 129.04306030273438 148.120849609375 142.11227416992188 C 135.60482788085938 149.58587646484375 143.84837341308594 147.1953582763672 135.4698944091797 118.36627197265625 C 135.9770050048828 65.6456527709961 97.57630157470703 16.79132843017578 129.6843719482422 -68.43753051757812 C 288.9113464355469 -48.6395378112793 345.9268493652344 -67.55480194091797 348.0332336425781 23.586008071899414" stroke-width="0.0" fill="rgb(21, 10, 134)" opacity="0.8160161"/>
    <path d="M 258.7745361328125 96.8351058959961 C 211.02500915527344 227.76564025878906 247.7935791015625 166.77432250976562 191.69541931152344 220.41957092285156 C 203.83773803710938 165.40567016601562 181.41307067871094 165.6066436767578 199.13626098632812 187.12405395507812 C 211.95545959472656 90.19933319091797 192.73150634765625 64.61180114746094 215.7722625732422 53.70624923706055 C 311.4327697753906 56.042057037353516 264.3099670410156 38.6064338684082 258.7745361328125 96.8351058959961" stroke-width="0.0" fill="rgb(248, 255, 238)" opacity="1.0"/>
    <path d="M 202.47679138183594 149.67471313476562 C 210.62847900390625 231.17572021484375 201.048828125 224.71002197265625 193.94119262695312 193.3782196044922 C 141.18692016601562 188.05386352539062 135.6522216796875 213.35325622558594 112.60814666748047 205.40504455566406 C 109.67134857177734 138.8411865234375 117.34150695800781 112.39911651611328 153.1209716796875 96.6730728149414 C 213.8443603515625 85.26557922363281 206.06626892089844 70.90303802490234 202.47679138183594 149.67471313476562" stroke-width="0.0" fill="rgb(0, 22, 127)" opacity="0.9892268"/>
    <path d="M 351.4816589355469 86.12007904052734 C 356.4312438964844 171.14215087890625 355.28961181640625 177.5955352783203 308.0499572753906 160.91555786132812 C 278.0662536621094 161.18017578125 250.55975341796875 129.95864868164062 266.8172302246094 83.0628662109375 C 295.6041259765625 78.23411560058594 261.2200012207031 101.43041229248047 265.23321533203125 82.91865539550781 C 321.5419006347656 43.71333312988281 364.3631896972656 78.22810363769531 351.4816589355469 86.12007904052734" stroke-width="0.0" fill="rgb(0, 0, 0)" opacity="1.0"/>
    <path d="M 424.378173828125 179.32421875 C 368.5402526855469 109.25286102294922 339.571533203125 172.67343139648438 350.1836853027344 215.7108154296875 C 318.0240783691406 198.23085021972656 277.4582824707031 225.1833953857422 268.624755859375 138.16481018066406 C 305.71075439453125 173.8917999267578 387.84075927734375 155.97105407714844 352.2107238769531 69.37702178955078 C 390.4595642089844 51.5089111328125 423.56402587890625 202.06845092773438 424.378173828125 179.32421875" stroke-width="0.0" fill="rgb(250, 252, 243)" opacity="0.99425167"/>
    <path d="M 336.71575927734375 134.79933166503906 C 346.3594055175781 179.64920043945312 300.82220458984375 181.5603485107422 303.64202880859375 163.97213745117188 C 261.3167724609375 161.9632568359375 273.85601806640625 158.98150634765625 275.07928466796875 140.59649658203125 C 263.2651672363281 163.46730041503906 272.3931884765625 83.00894927978516 255.0999298095703 107.24560546875 C 234.0720977783203 115.18241119384766 276.35296630859375 95.87725830078125 336.71575927734375 134.79933166503906" stroke-width="0.0" fill="rgb(0, 0, 5)" opacity="0.010192385"/>
    <path d="M 186.9503631591797 211.2160186767578 C 191.32980346679688 227.3589630126953 178.08438110351562 237.34231567382812 190.4158172607422 234.8267364501953 C 133.01519775390625 243.02027893066406 122.77656555175781 243.881591796875 115.67338562011719 208.65789794921875 C 106.76227569580078 156.12583923339844 109.73390197753906 158.79165649414062 203.8632049560547 165.9955596923828 C 203.86520385742188 149.88592529296875 201.42172241210938 188.44248962402344 186.9503631591797 211.2160186767578" stroke-width="0.0" fill="rgb(0, 21, 132)" opacity="0.81061745"/>
    <path d="M 289.3302917480469 492.9952697753906 C 277.0494689941406 504.1136169433594 272.2372131347656 487.9134826660156 282.0941162109375 509.8313293457031 C 232.20655822753906 520.3892822265625 247.8842010498047 511.565185546875 241.412841796875 488.4346618652344 C 226.93687438964844 446.8795471191406 225.8767852783203 457.34136962890625 267.9443054199219 426.269287109375 C 294.3438720703125 450.7545166015625 291.10650634765625 462.6369934082031 289.3302917480469 492.9952697753906" stroke-width="0.0" fill="rgb(255, 208, 0)" opacity="0.99381274"/>
    <path d="M 444.64910888671875 253.7682647705078 C 466.2305908203125 301.10467529296875 453.3308410644531 334.4323425292969 403.07568359375 312.0086669921875 C 394.92767333984375 258.38336181640625 370.8772277832031 233.44924926757812 367.4952392578125 230.2695770263672 C 351.4912109375 194.2601318359375 360.90814208984375 172.54006958007812 382.0162353515625 143.72384643554688 C 389.15521240234375 158.429443359375 422.7657165527344 176.9836883544922 444.64910888671875 253.7682647705078" stroke-width="0.0" fill="rgb(255, 250, 248)" opacity="1.0"/>
    <path d="M -5.842430591583252 -7.649432182312012 C 5.582731246948242 7.760936260223389 4.072077751159668 12.334983825683594 -2.035108804702759 18.439199447631836 C -12.593066215515137 21.94101905822754 -21.805259704589844 13.771007537841797 -20.426485061645508 0.5245713591575623 C -16.951677322387695 -9.991918563842773 -9.631170272827148 -17.31242561340332 0.36883097887039185 -19.991918563842773 C 10.369064331054688 -17.3124942779541 17.708887100219727 -9.998113632202148 -5.842430591583252 -7.649432182312012" stroke-width="0.0" fill="rgb(145, 2, 42)" opacity="0.61444914"/>
    <path d="M 377.54779052734375 320.4892578125 C 384.7484130859375 320.6845397949219 422.23876953125 413.1523742675781 374.208984375 469.2472229003906 C 274.353515625 440.03375244140625 355.3549499511719 464.0032958984375 314.0887451171875 359.0428466796875 C 328.1145324707031 312.2500915527344 378.3683166503906 304.9825744628906 384.2899169921875 313.8133239746094 C 393.3533020019531 350.7279968261719 385.8389587402344 366.85186767578125 377.54779052734375 320.4892578125" stroke-width="0.0" fill="rgb(255, 249, 248)" opacity="0.9992946"/>
    <path d="M 378.9142150878906 307.3558044433594 C 343.8047180175781 304.7425231933594 315.0093078613281 331.06011962890625 313.6934814453125 353.8544616699219 C 305.454833984375 331.0426330566406 277.43438720703125 297.956787109375 232.0058135986328 311.6448974609375 C 243.65499877929688 232.10369873046875 323.6327819824219 291.68170166015625 334.9566955566406 246.70530700683594 C 373.4732666015625 300.27325439453125 364.58154296875 241.1267852783203 378.9142150878906 307.3558044433594" stroke-width="0.0" fill="rgb(253, 255, 244)" opacity="0.9954375"/>
    <path d="M 225.1348419189453 229.59280395507812 C 253.04641723632812 202.2500762939453 248.0695037841797 229.232666015625 234.83999633789062 257.14959716796875 C 235.56642150878906 208.0299530029297 248.84979248046875 171.26742553710938 231.17579650878906 197.2810516357422 C 225.59933471679688 258.7750244140625 190.55615234375 214.3440704345703 224.77978515625 215.76161193847656 C 263.5796203613281 197.9993438720703 253.8983612060547 241.6166534423828 225.1348419189453 229.59280395507812" stroke-width="0.0" fill="rgb(87, 79, 103)" opacity="0.6779181"/>
    <path d="M 249.375 222.74574279785156 C 273.1713562011719 225.14169311523438 280.6106872558594 250.37709045410156 239.2301025390625 257.0950927734375 C 181.1895294189453 263.91180419921875 197.79429626464844 251.81968688964844 208.95068359375 198.0597686767578 C 202.116455078125 181.17559814453125 220.77825927734375 171.16424560546875 235.9431610107422 152.6094512939453 C 251.21812438964844 170.32814025878906 261.6684265136719 201.1343994140625 249.375 222.74574279785156" stroke-width="0.0" fill="rgb(248, 254, 244)" opacity="0.99890494"/>
    <path d="M 284.6604309082031 288.70062255859375 C 319.7405090332031 265.28167724609375 311.7435607910156 273.3717956542969 266.3097229003906 270.3135986328125 C 283.88055419921875 284.2604675292969 256.3983459472656 290.32275390625 244.25958251953125 267.59661865234375 C 248.07916259765625 227.6223602294922 239.7527618408203 217.8342742919922 308.6506042480469 272.444091796875 C 332.583251953125 319.8915710449219 270.5780944824219 263.85205078125 284.6604309082031 288.70062255859375" stroke-width="0.0" fill="rgb(251, 253, 243)" opacity="1.0"/>
    <path d="M 302.87567138671875 374.09991455078125 C 263.34124755859375 464.9457702636719 333.879150390625 473.84405517578125 238.63150024414062 467.59649658203125 C 228.34547424316406 451.34771728515625 219.55955505371094 404.8248291015625 228.83287048339844 349.8600769042969 C 239.19219970703125 316.204833984375 238.27212524414062 294.53521728515625 235.9936981201172 309.3559875488281 C 287.813720703125 313.5918884277344 320.3972473144531 350.70849609375 302.87567138671875 374.09991455078125" stroke-width="0.0" fill="rgb(255, 252, 251)" opacity="1.0"/>
    <path d="M 232.2574005126953 252.5596160888672 C 219.20692443847656 259.1935729980469 212.53759765625 275.98046875 200.7451629638672 307.9549255371094 C 145.63345336914062 325.3160705566406 151.8925018310547 292.8809509277344 160.30416870117188 259.68157958984375 C 174.31712341308594 225.2293701171875 187.4853515625 196.95201110839844 201.78477478027344 204.3004913330078 C 240.2128448486328 226.28652954101562 238.33384704589844 234.751953125 232.2574005126953 252.5596160888672" stroke-width="0.0" fill="rgb(252, 253, 249)" opacity="0.99040663"/>
    <path d="M 366.3188781738281 147.14942932128906 C 347.6153259277344 93.65030670166016 382.2622375488281 162.6374969482422 290.9293518066406 167.43821716308594 C 322.8431701660156 167.8177947998047 357.8586730957031 136.09384155273438 352.1833801269531 145.5013427734375 C 359.6189880371094 165.8787841796875 359.1909484863281 137.2621307373047 361.4930419921875 98.21277618408203 C 360.7053527832031 139.94290161132812 371.8717041015625 148.02162170410156 366.3188781738281 147.14942932128906" stroke-width="0.0" fill="rgb(198, 234, 67)" opacity="0.4569748"/>
    <path d="M 318.06805419921875 358.4650573730469 C 213.94590759277344 289.1565856933594 210.4175262451172 351.7746276855469 229.25929260253906 473.1240234375 C 168.98321533203125 422.133544921875 201.071533203125 366.13336181640625 196.42689514160156 319.4016418457031 C 234.5653533935547 334.0342712402344 208.7930908203125 304.3677978515625 186.95399475097656 318.1920166015625 C 207.4043731689453 342.4924011230469 260.9767150878906 305.7459716796875 318.06805419921875 358.4650573730469" stroke-width="0.0" fill="rgb(0, 9, 134)" opacity="0.20546961"/>
    <path d="M 299.2339782714844 255.0455322265625 C 243.3050079345703 297.935302734375 233.3738250732422 278.9423522949219 229.15232849121094 290.64813232421875 C 209.66354370117188 280.6828308105469 211.2120819091797 278.2946472167969 223.3418731689453 276.4642028808594 C 214.12939453125 319.0823059082031 193.21473693847656 309.27203369140625 228.30181884765625 304.6689758300781 C 229.30142211914062 293.23236083984375 299.5234375 246.8497314453125 299.2339782714844 255.0455322265625" stroke-width="0.0" fill="rgb(96, 15, 97)" opacity="0.5216955"/>
    <path d="M 234.92263793945312 283.0133361816406 C 245.41268920898438 261.21588134765625 250.14801025390625 268.9630126953125 233.7643585205078 338.400146484375 C 170.59507751464844 365.2760009765625 204.92495727539062 293.3655700683594 224.21273803710938 255.3894805908203 C 234.69619750976562 244.54966735839844 236.82008361816406 242.9221649169922 246.85546875 228.91787719726562 C 246.15736389160156 252.29296875 247.2315216064453 301.3693542480469 234.92263793945312 283.0133361816406" stroke-width="0.0" fill="rgb(0, 0, 137)" opacity="1.0"/>
    <path d="M 361.7832946777344 138.45237731933594 C 363.6143493652344 163.31072998046875 304.65643310546875 175.05128479003906 271.4814453125 160.28579711914062 C 271.0762939453125 162.14559936523438 240.92449951171875 146.79159545898438 256.5293884277344 128.82908630371094 C 260.6327819824219 85.9292984008789 249.76670837402344 62.942474365234375 250.8074493408203 128.1898193359375 C 266.5289001464844 147.77340698242188 303.55291748046875 179.75088500976562 361.7832946777344 138.45237731933594" stroke-width="0.0" fill="rgb(251, 59, 45)" opacity="0.9481155"/>
    <path d="M 455.0406494140625 346.0841979980469 C 459.5654296875 379.2821350097656 438.5364685058594 385.8548278808594 431.1900634765625 358.7166442871094 C 426.71124267578125 329.4735107421875 422.697509765625 368.05926513671875 409.15411376953125 353.23345947265625 C 425.44024658203125 299.2286682128906 384.37762451171875 297.0953369140625 456.594482421875 300.8310852050781 C 442.0346374511719 327.3999938964844 444.5188293457031 308.66595458984375 455.0406494140625 346.0841979980469" stroke-width="0.0" fill="rgb(255, 206, 0)" opacity="1.0"/>
    <path d="M 212.3236083984375 344.60174560546875 C 198.06466674804688 358.0013427734375 180.51402282714844 319.22564697265625 189.63998413085938 366.6220703125 C 192.38821411132812 377.99822998046875 158.44544982910156 369.1173400878906 163.37461853027344 318.2156982421875 C 152.3724822998047 298.5562744140625 150.73643493652344 298.5867004394531 175.06130981445312 294.2439270019531 C 224.5623779296875 301.02227783203125 177.72755432128906 305.5335693359375 212.3236083984375 344.60174560546875" stroke-width="0.0" fill="rgb(255, 186, 0)" opacity="1.0"/>
    <path d="M 11.899870872497559 -1.9364051818847656 C 9.314444541931152 -10.566506385803223 -5.600515842437744 2.7421836853027344 -14.776235580444336 1.0052098035812378 C -18.561464309692383 19.636579513549805 -21.883506774902344 6.677565574645996 -19.96067237854004 0.03864969313144684 C -16.90044403076172 -9.551138877868652 -9.579937934875488 -16.871644973754883 -9.681395530700684 -8.96782398223877 C -3.299586534500122 -6.4024977684021 1.6288527250289917 1.7147181034088135 11.899870872497559 -1.9364051818847656" stroke-width="0.0" fill="rgb(83, 46, 242)" opacity="0.6955308"/>
    <path d="M 20.968360900878906 -12.78738784790039 C 2.5440943241119385 -6.291110992431641 -4.052109241485596 2.3642046451568604 -12.036266326904297 5.921910285949707 C -10.463007926940918 21.306482315063477 -16.369115829467773 10.784316062927246 -19.040279388427734 0.754467248916626 C -16.36076545715332 -9.245626449584961 -9.040258407592773 -16.566133499145508 1.8410886526107788 -19.538007736206055 C 18.274816513061523 -22.5957088470459 26.668212890625 -17.531084060668945 20.968360900878906 -12.78738784790039" stroke-width="0.0" fill="rgb(255, 75, 36)" opacity="0.8573031"/>
    <path d="M 461.08636474609375 198.21969604492188 C 386.97705078125 191.38563537597656 409.5902099609375 150.4026641845703 411.2070617675781 165.340576171875 C 380.1441650390625 148.48985290527344 376.64202880859375 156.34185791015625 377.7238464355469 98.68704986572266 C 375.7666015625 95.39619445800781 381.2519226074219 49.454708099365234 392.035888671875 82.26789855957031 C 452.6663513183594 92.59571838378906 449.7296447753906 101.7149658203125 461.08636474609375 198.21969604492188" stroke-width="0.0" fill="rgb(39, 10, 114)" opacity="1.0"/>
    <path d="M 27.543033599853516 -18.36485481262207 C 41.29425048828125 -2.6112172603607178 26.52257537841797 14.567195892333984 24.115108489990234 6.005960464477539 C -3.3017406463623047 19.658039093017578 -46.41615676879883 0.25037238001823425 -55.26798629760742 -11.531170845031738 C -16.727975845336914 -9.373703002929688 -9.407468795776367 -16.694210052490234 0.4309011697769165 -19.324020385742188 C 5.123522758483887 -12.798992156982422 7.5214128494262695 2.5194334983825684 27.543033599853516 -18.36485481262207" stroke-width="0.0" fill="rgb(70, 0, 119)" opacity="0.45347247"/>
    <path d="M 8.441272735595703 -12.220318794250488 C 1.7344164848327637 -5.9466962814331055 -6.981279373168945 0.28402358293533325 -16.989627838134766 2.8288795948028564 C -9.942682266235352 17.82761573791504 -17.2631893157959 10.507107734680176 -19.94268226623535 0.5071078538894653 C -17.2631893157959 -9.492892265319824 -9.942682266235352 -16.813398361206055 0.057317644357681274 -19.492891311645508 C 10.057317733764648 -16.813398361206055 17.377824783325195 -9.492892265319824 8.441272735595703 -12.220318794250488" stroke-width="0.0" fill="rgb(191, 223, 185)" opacity="0.7289786"/>
    <path d="M 16.343814849853516 -16.65805435180664 C 3.00673246383667 2.5571508407592773 -11.134806632995605 14.453051567077637 -30.50052833557129 6.079446792602539 C -9.099335670471191 14.03851318359375 -16.121538162231445 7.348960876464844 -19.59333610534668 0.765612781047821 C -16.642942428588867 -9.440741539001465 -9.32243537902832 -16.761249542236328 -1.5669928789138794 -18.091190338134766 C 7.175896167755127 -14.764378547668457 15.345667839050293 -9.163957595825195 16.343814849853516 -16.65805435180664" stroke-width="0.0" fill="rgb(188, 0, 171)" opacity="0.7039873"/>
    <path d="M 1.8321714401245117 -12.754511833190918 C -0.5907016396522522 2.172259569168091 -4.888819694519043 19.034631729125977 -1.1546576023101807 -5.484856605529785 C 12.633980751037598 -4.231449604034424 2.1146225929260254 -9.940832138061523 -12.924358367919922 -8.874371528625488 C -17.23497200012207 -9.939312934875488 -9.914464950561523 -17.25982093811035 0.08553468436002731 -19.939313888549805 C 10.085478782653809 -17.259809494018555 17.34907341003418 -9.923859596252441 1.8321714401245117 -12.754511833190918" stroke-width="0.0" fill="rgb(233, 147, 45)" opacity="0.953388"/>
    <path d="M 4.850086688995361 -19.165185928344727 C -0.07931935787200928 -7.774170398712158 -6.3081817626953125 1.441147804260254 -14.345086097717285 3.211703062057495 C 5.338250160217285 3.0957722663879395 -5.676277160644531 -0.8718884587287903 -18.853038787841797 -1.9740524291992188 C -16.986204147338867 -9.749590873718262 -9.66569709777832 -17.070096969604492 0.33587679266929626 -19.75006866455078 C 10.704587936401367 -17.18985939025879 23.056686401367188 -13.646419525146484 4.850086688995361 -19.165185928344727" stroke-width="0.0" fill="rgb(42, 70, 80)" opacity="0.7729418"/>
    <path d="M 37.08789825439453 28.018739700317383 C 34.47418975830078 16.06591796875 35.18277359008789 0.9969853162765503 1.1769005060195923 8.12359619140625 C -20.723562240600586 11.981343269348145 -36.64860153198242 19.869400024414062 -31.545719146728516 16.639211654663086 C -16.899499893188477 -9.27537727355957 -9.57899284362793 -16.595884323120117 5.365080833435059 -5.399266719818115 C 31.743511199951172 -1.4166091680526733 43.512088775634766 10.622502326965332 37.08789825439453 28.018739700317383" stroke-width="0.0" fill="rgb(55, 4, 110)" opacity="0.44010347"/>
    <path d="M 4.812404155731201 -24.637067794799805 C 0.9939965605735779 -2.663005828857422 -8.764641761779785 -1.9471992254257202 -26.085769653320312 9.298542976379395 C -17.650516510009766 25.864152908325195 -23.40629768371582 16.557205200195312 -21.335006713867188 2.6693360805511475 C -17.31534767150879 -9.805392265319824 -9.994840621948242 -17.125898361206055 7.9840803146362305 -27.62538719177246 C 18.319210052490234 -25.621360778808594 24.531400680541992 -17.27405548095703 4.812404155731201 -24.637067794799805" stroke-width="0.0" fill="rgb(59, 199, 49)" opacity="0.691043"/>
    <path d="M 5.974874973297119 -36.9013786315918 C -6.675201416015625 -9.478111267089844 -7.6374664306640625 22.927648544311523 -3.595893383026123 31.244291305541992 C -22.91251564025879 31.040456771850586 -39.15127944946289 32.34798049926758 -43.16495132446289 25.508859634399414 C -16.652647018432617 -9.305218696594238 -9.33213996887207 -16.62572479248047 0.6678601503372192 -19.305217742919922 C 10.66786003112793 -16.62572479248047 17.988374710083008 -9.305220603942871 5.974874973297119 -36.9013786315918" stroke-width="0.0" fill="rgb(2, 37, 48)" opacity="0.71710324"/>
    <path d="M -3.5099258422851562 -7.360062122344971 C 4.635608673095703 -15.271923065185547 2.1108100414276123 -3.1018338203430176 -5.655457496643066 -2.6556296348571777 C -15.076260566711426 7.2377495765686035 -15.133647918701172 5.612677574157715 -16.063770294189453 -5.747478485107422 C -17.238698959350586 -9.428180694580078 -9.918190956115723 -16.748687744140625 2.6153838634490967 -23.450098037719727 C 13.70841121673584 -18.502660751342773 19.366106033325195 -3.4839484691619873 -3.5099258422851562 -7.360062122344971" stroke-width="0.0" fill="rgb(179, 43, 147)" opacity="0.6508557"/>
    <path d="M 14.211676597595215 -15.849761009216309 C 3.0682995319366455 -5.02632474899292 -3.5015480518341064 3.413346767425537 -12.127467155456543 7.54538631439209 C -9.340275764465332 17.331113815307617 -16.660783767700195 10.01060676574707 -19.34027671813965 0.010606545954942703 C -16.660783767700195 -9.98939323425293 -9.340275764465332 -17.309900283813477 0.6597240567207336 -19.98939323425293 C 10.659736633300781 -17.309900283813477 18.106229782104492 -10.02380084991455 14.211676597595215 -15.849761009216309" stroke-width="0.0" fill="rgb(206, 51, 12)" opacity="0.82662725"/>
    <path d="M 261.7433166503906 346.4652099609375 C 262.02301025390625 372.3538818359375 253.1940460205078 403.3240966796875 268.3213195800781 399.88507080078125 C 260.07354736328125 382.2812805175781 258.616455078125 363.0172424316406 269.02203369140625 346.80517578125 C 202.1861572265625 334.8458251953125 238.2176055908203 356.80096435546875 290.97198486328125 362.48876953125 C 292.86651611328125 357.2235412597656 295.0719299316406 355.77337646484375 261.7433166503906 346.4652099609375" stroke-width="0.0" fill="rgb(228, 100, 72)" opacity="0.76632667"/>
    <path d="M -5.693705081939697 -1.0995986461639404 C 5.92542028427124 -16.510839462280273 1.8274027109146118 -7.49599027633667 -6.919025421142578 13.031381607055664 C -6.314897060394287 11.727153778076172 -16.908634185791016 6.448481559753418 -23.348445892333984 3.525081157684326 C -17.025590896606445 -9.618544578552246 -9.705082893371582 -16.939050674438477 16.4096736907959 -36.910160064697266 C 12.89271068572998 -28.161224365234375 7.751751899719238 -15.638985633850098 -5.693705081939697 -1.0995986461639404" stroke-width="0.0" fill="rgb(75, 29, 190)" opacity="0.6832835"/>
    <path d="M 12.415729522705078 -15.222471237182617 C 0.4116726815700531 -7.476118087768555 -6.861275672912598 -0.43042421340942383 -16.524961471557617 4.763172149658203 C -14.832377433776855 24.687211990356445 -17.196565628051758 12.73477840423584 -19.02647590637207 0.6280535459518433 C -16.33858299255371 -9.400238037109375 -9.01807689666748 -16.720745086669922 0.9820855855941772 -19.400279998779297 C 11.014764785766602 -16.7300968170166 20.043441772460938 -10.035507202148438 12.415729522705078 -15.222471237182617" stroke-width="0.0" fill="rgb(64, 2, 80)" opacity="0.88293433"/>
    <path d="M 346.9681396484375 239.17562866210938 C 307.9688720703125 245.532958984375 290.0689392089844 236.2630157470703 327.8377380371094 231.19151306152344 C 323.8570556640625 241.7632598876953 296.0832824707031 240.69769287109375 271.04443359375 262.1045837402344 C 269.7689208984375 228.85891723632812 258.76275634765625 243.92910766601562 329.31610107421875 250.24085998535156 C 328.0525207519531 189.6655731201172 341.16827392578125 204.29177856445312 346.9681396484375 239.17562866210938" stroke-width="0.0" fill="rgb(140, 250, 122)" opacity="0.50673974"/>
    <path d="M 1.2020097970962524 -12.093806266784668 C 9.425434112548828 -0.5628585815429688 5.115076541900635 6.486605644226074 -24.878263473510742 13.560561180114746 C -22.4258975982666 26.19626235961914 -28.036985397338867 15.209952354431152 -22.920391082763672 3.8525469303131104 C -16.875883102416992 -9.756847381591797 -9.555376052856445 -17.077354431152344 -5.0256524085998535 -25.315807342529297 C 7.385091304779053 -24.07053565979004 25.077407836914062 -14.399823188781738 1.2020097970962524 -12.093806266784668" stroke-width="0.0" fill="rgb(30, 87, 33)" opacity="0.70650786"/>
    <path d="M -1.4001511335372925 -16.753374099731445 C 3.5613434314727783 0.681499183177948 -0.616999089717865 11.234467506408691 -23.503215789794922 0.3433076739311218 C -9.974628448486328 18.057950973510742 -17.295135498046875 10.737443923950195 -19.974628448486328 0.7374441623687744 C -17.295135498046875 -9.262556076049805 -9.974628448486328 -16.58306312561035 -2.99422550201416 -25.561323165893555 C 4.014050006866455 -15.90870475769043 12.818622589111328 -7.199481010437012 -1.4001511335372925 -16.753374099731445" stroke-width="0.0" fill="rgb(41, 50, 206)" opacity="0.8151922"/>
    <path d="M 363.2881164550781 367.44488525390625 C 362.5010070800781 436.4002990722656 373.65533447265625 412.00970458984375 335.4265441894531 409.3838806152344 C 338.320556640625 385.2489929199219 323.0994567871094 372.07611083984375 329.7853088378906 344.7102966308594 C 317.9062805175781 379.9089050292969 326.3127136230469 388.8853454589844 353.1291198730469 378.1640625 C 313.0290222167969 373.3822326660156 336.1048278808594 371.6363830566406 363.2881164550781 367.44488525390625" stroke-width="0.0" fill="rgb(255, 237, 245)" opacity="0.71404827"/>
    <path d="M 22.31574821472168 11.353781700134277 C 10.564983367919922 10.692459106445312 12.010381698608398 0.6787618398666382 9.105376243591309 -7.0861287117004395 C -14.693807601928711 8.41563606262207 -12.518209457397461 1.6062885522842407 -13.415124893188477 -6.257970809936523 C -16.53524398803711 -9.658448219299316 -9.214735984802246 -16.978954315185547 -23.976810455322266 -0.05058510601520538 C -3.1817009449005127 -14.602506637573242 6.415609836578369 -3.115216016769409 22.31574821472168 11.353781700134277" stroke-width="0.0" fill="rgb(142, 27, 137)" opacity="0.5382228"/>
    <path d="M 4.948500633239746 -18.409866333007812 C 0.5320475697517395 -5.439587116241455 -1.8802781105041504 8.202658653259277 -8.893755912780762 12.657191276550293 C -22.07697105407715 18.314651489257812 -27.09800910949707 10.944452285766602 -19.921154022216797 0.5240964293479919 C -16.342411041259766 -9.576179504394531 -9.021903991699219 -16.896686553955078 0.9586210250854492 -19.570720672607422 C 8.231725692749023 -15.70158576965332 11.661069869995117 -3.299586296081543 4.948500633239746 -18.409866333007812" stroke-width="0.0" fill="rgb(118, 75, 66)" opacity="0.9391844"/>
    <path d="M 8.104486465454102 -19.43697738647461 C 4.762801170349121 -8.794876098632812 -3.9310061931610107 3.7107670307159424 -11.632494926452637 20.376405715942383 C -14.818256378173828 20.894956588745117 -17.03603172302246 8.18589973449707 -18.488344192504883 -3.041590690612793 C -17.24606704711914 -9.750016212463379 -9.925559997558594 -17.07052230834961 -3.3249449729919434 -20.09440040588379 C 3.5049550533294678 -21.935874938964844 17.692886352539062 -19.28519630432129 8.104486465454102 -19.43697738647461" stroke-width="0.0" fill="rgb(26, 202, 110)" opacity="0.4673519"/>
    <path d="M 276.23828125 399.7256774902344 C 294.299560546875 420.3590393066406 269.3365783691406 414.3922119140625 230.67491149902344 403.83880615234375 C 255.62232971191406 382.9265441894531 261.34375 391.9800720214844 279.75811767578125 397.6031494140625 C 216.6009521484375 410.5838623046875 226.7373504638672 404.6838684082031 231.0299530029297 369.8096618652344 C 292.24365234375 377.8307189941406 297.2711181640625 379.36553955078125 276.23828125 399.7256774902344" stroke-width="0.0" fill="rgb(224, 122, 107)" opacity="1.0"/>
    <path d="M 28.9547119140625 -22.445863723754883 C 19.892391204833984 -5.974517345428467 12.616228103637695 1.9740411043167114 -3.2052690982818604 14.901464462280273 C -7.3485636711120605 -14.23239803314209 -15.440143585205078 -9.754048347473145 -7.3550615310668945 -16.208181381225586 C -17.212665557861328 -9.761640548706055 -9.892159461975098 -17.0821475982666 0.9905608892440796 -22.282562255859375 C 6.041830062866211 -16.61625099182129 12.326502799987793 -8.62506103515625 28.9547119140625 -22.445863723754883" stroke-width="0.0" fill="rgb(82, 73, 91)" opacity="0.5877394"/>
    <path d="M -3.8208186626434326 22.054325103759766 C -18.84408950805664 28.417577743530273 -14.199990272521973 29.0548152923584 -4.520033359527588 12.920257568359375 C -29.970794677734375 16.66722297668457 -22.411046981811523 6.436559200286865 -18.611419677734375 -8.859599113464355 C -17.28716278076172 -9.686720848083496 -9.966656684875488 -17.007226943969727 10.243985176086426 -15.820557594299316 C 21.832408905029297 -19.78208351135254 28.419086456298828 -14.505285263061523 -3.8208186626434326 22.054325103759766" stroke-width="0.0" fill="rgb(80, 45, 59)" opacity="0.4079502"/>
    <path d="M 17.923587799072266 -25.113521575927734 C 18.548765182495117 -11.360368728637695 7.603913307189941 -0.3978723883628845 -14.163056373596191 -2.0248351097106934 C -24.74370574951172 30.379480361938477 -26.539491653442383 20.59758186340332 -24.74831199645996 6.06920051574707 C -16.472814559936523 -9.934971809387207 -9.152307510375977 -17.255477905273438 0.847753643989563 -19.93498992919922 C 10.565239906311035 -17.175901412963867 10.931952476501465 -3.799818277359009 17.923587799072266 -25.113521575927734" stroke-width="0.0" fill="rgb(0, 122, 113)" opacity="0.35290134"/>
    <path d="M 287.7870788574219 394.1936950683594 C 290.9752197265625 382.94793701171875 291.3834228515625 377.781982421875 288.1473083496094 399.9281311035156 C 265.5802917480469 393.81201171875 215.0703582763672 403.160888671875 225.76663208007812 376.3746032714844 C 265.4452209472656 387.4755859375 296.6339416503906 386.0153503417969 282.58447265625 399.67041015625 C 282.10125732421875 391.4292907714844 303.7448425292969 377.75555419921875 287.7870788574219 394.1936950683594" stroke-width="0.0" fill="rgb(255, 255, 249)" opacity="0.9990291"/>
    <path d="M 24.656482696533203 -8.123176574707031 C 8.90413761138916 2.1134164333343506 1.8148906230926514 10.500435829162598 -14.195088386535645 13.377573013305664 C -10.320484161376953 19.701980590820312 -16.994646072387695 10.597497940063477 -19.668861389160156 0.5784614086151123 C -16.989360809326172 -9.421588897705078 -9.668854713439941 -16.742095947265625 1.382727861404419 -20.39019203186035 C 12.904112815856934 -19.423778533935547 21.05354118347168 -13.084754943847656 24.656482696533203 -8.123176574707031" stroke-width="0.0" fill="rgb(102, 185, 38)" opacity="0.53229547"/>
    <path d="M -19.095796585083008 -0.038702480494976044 C -13.96651554107666 0.3322141170501709 12.329695701599121 5.790153503417969 4.578335285186768 -18.249618530273438 C -15.242319107055664 9.27383041381836 -23.126453399658203 1.7407684326171875 -32.2116584777832 1.8335846662521362 C -16.523481369018555 -9.939508438110352 -9.202974319458008 -17.2600154876709 0.0005307819228619337 -19.9541015625 C 2.4677512645721436 -14.8576021194458 5.956766605377197 -7.149657249450684 -19.095796585083008 -0.038702480494976044" stroke-width="0.0" fill="rgb(113, 114, 18)" opacity="0.72240984"/>
    <path d="M 3.3896219730377197 -17.012544631958008 C 6.55301570892334 -1.6715846061706543 -1.1698006391525269 5.222804069519043 -18.092174530029297 -2.7122802734375 C -11.697009086608887 18.30449676513672 -19.697885513305664 12.638800621032715 -22.198640823364258 1.5095022916793823 C -17.156024932861328 -9.689193725585938 -9.835518836975098 -17.009700775146484 10.45373249053955 -20.745180130004883 C 25.715787887573242 -14.445533752441406 37.94050598144531 -11.395641326904297 3.3896219730377197 -17.012544631958008" stroke-width="0.0" fill="rgb(117, 26, 156)" opacity="0.7045923"/>
    <path d="M 4.465437412261963 -15.303528785705566 C 2.0910983085632324 -7.373743534088135 -7.006936550140381 -2.257516384124756 -19.2935848236084 -2.3465418815612793 C -0.4628095328807831 7.675889015197754 -9.175590515136719 1.5371652841567993 -17.803436279296875 -2.5363099575042725 C -16.979705810546875 -9.94556713104248 -9.659197807312012 -17.266075134277344 -7.092400550842285 -15.109509468078613 C 5.583196640014648 -13.506826400756836 18.437044143676758 -11.646170616149902 4.465437412261963 -15.303528785705566" stroke-width="0.0" fill="rgb(172, 67, 83)" opacity="0.83229923"/>
    <path d="M 327.7472839355469 350.68096923828125 C 333.9029541015625 406.3014831542969 349.1500549316406 388.1319580078125 400.17205810546875 379.79486083984375 C 383.79840087890625 328.93994140625 369.6194763183594 337.58636474609375 333.2137451171875 347.0117492675781 C 336.7081604003906 337.61273193359375 337.3289489746094 338.48114013671875 332.0216369628906 358.8088073730469 C 397.0245361328125 339.08099365234375 405.9313049316406 324.07080078125 327.7472839355469 350.68096923828125" stroke-width="0.0" fill="rgb(255, 174, 151)" opacity="0.48108763"/>
    <path d="M 219.82737731933594 240.07467651367188 C 238.90211486816406 241.0394744873047 222.45736694335938 224.8784942626953 202.7760772705078 228.4347686767578 C 194.20997619628906 218.18948364257812 166.60842895507812 238.39239501953125 181.6809844970703 248.27926635742188 C 204.52420043945312 250.2609100341797 236.9639434814453 266.3482360839844 205.52865600585938 228.84446716308594 C 208.90232849121094 201.30442810058594 209.97402954101562 233.66360473632812 219.82737731933594 240.07467651367188" stroke-width="0.0" fill="rgb(253, 202, 92)" opacity="0.37714717"/>
    <path d="M 15.797249794006348 -9.709142684936523 C 4.7556610107421875 -3.003026247024536 -4.932541847229004 3.378692626953125 -14.32558822631836 7.463113307952881 C -4.596399307250977 11.713174819946289 -16.83142852783203 10.271960258483887 -19.6660213470459 0.7926678657531738 C -16.986919403076172 -9.205888748168945 -9.666411399841309 -16.526395797729492 0.3335810601711273 -19.205888748168945 C 10.332466125488281 -16.52607536315918 17.589296340942383 -9.187174797058105 15.797249794006348 -9.709142684936523" stroke-width="0.0" fill="rgb(228, 66, 195)" opacity="0.5016721"/>
    <path d="M 382.02313232421875 229.90377807617188 C 380.1436767578125 215.16351318359375 375.43408203125 209.4915008544922 399.5688781738281 227.4863739013672 C 438.0628662109375 213.8024139404297 421.29296875 157.43798828125 386.66839599609375 209.83914184570312 C 368.42718505859375 232.12173461914062 380.58367919921875 216.2476348876953 363.4296569824219 216.93295288085938 C 391.6997375488281 205.9219970703125 367.408203125 219.65814208984375 382.02313232421875 229.90377807617188" stroke-width="0.0" fill="rgb(254, 154, 6)" opacity="0.9698291"/>
    <path d="M 439.9806823730469 209.84201049804688 C 386.0165710449219 189.1570281982422 384.3346862792969 220.23724365234375 369.858154296875 214.35215759277344 C 376.6736145019531 209.45697021484375 407.91925048828125 209.32603454589844 375.5843811035156 218.90565490722656 C 384.3343200683594 240.4176025390625 389.0440368652344 226.58877563476562 398.6808166503906 229.9637451171875 C 375.3504333496094 246.39013671875 404.1122741699219 250.93052673339844 439.9806823730469 209.84201049804688" stroke-width="0.0" fill="rgb(255, 0, 65)" opacity="0.9946838"/>
    <path d="M 191.18324279785156 215.14430236816406 C 190.69960021972656 238.04248046875 221.67349243164062 236.14932250976562 194.6286163330078 248.5970001220703 C 217.43807983398438 247.8953399658203 222.2991485595703 221.23301696777344 206.67068481445312 227.04840087890625 C 183.142578125 231.57925415039062 196.7715606689453 232.11624145507812 214.80870056152344 250.02935791015625 C 215.79302978515625 231.5909423828125 205.0373077392578 234.140380859375 191.18324279785156 215.14430236816406" stroke-width="0.0" fill="rgb(253, 150, 115)" opacity="0.76937795"/>
    <path d="M 15.86002254486084 -16.059871673583984 C 5.940722942352295 -2.6526148319244385 -2.724623680114746 -1.8186143636703491 -17.71592903137207 15.219943046569824 C -11.069547653198242 21.379180908203125 -17.015111923217773 10.906501770019531 -19.68881607055664 0.8852445483207703 C -17.009319305419922 -9.114778518676758 -9.688811302185059 -16.435285568237305 6.9589314460754395 -25.331207275390625 C 19.26663589477539 -24.79466438293457 27.822280883789062 -19.13892936706543 15.86002254486084 -16.059871673583984" stroke-width="0.0" fill="rgb(153, 59, 138)" opacity="0.87510335"/>
    <path d="M 6.394723415374756 -2.998617172241211 C 8.314532279968262 19.732925415039062 4.895162105560303 29.413602828979492 -13.282188415527344 21.7989501953125 C -20.512582778930664 22.638530731201172 -15.668869972229004 16.066879272460938 -19.846887588500977 1.0802218914031982 C -17.19297218322754 -9.080883979797363 -9.872464179992676 -16.401391983032227 -5.401736736297607 -15.536298751831055 C -11.217315673828125 -23.7203426361084 -3.2261123657226562 -31.57070541381836 6.394723415374756 -2.998617172241211" stroke-width="0.0" fill="rgb(220, 221, 34)" opacity="0.8306308"/>
    <path d="M 27.476057052612305 -5.113941669464111 C 21.664152145385742 12.002002716064453 3.4685914516448975 20.457090377807617 -4.9064836502075195 14.99470043182373 C -21.566747665405273 20.386615753173828 -30.35198974609375 19.291379928588867 -22.67149543762207 3.894879102706909 C -16.87858772277832 -9.698529243469238 -9.55808162689209 -17.01903533935547 6.15269136428833 -27.603727340698242 C 13.97011661529541 -24.461883544921875 19.26650619506836 -11.147417068481445 27.476057052612305 -5.113941669464111" stroke-width="0.0" fill="rgb(53, 34, 122)" opacity="0.12737063"/>
    <path d="M 235.89918518066406 203.2624969482422 C 253.5404815673828 229.773681640625 232.45213317871094 235.75942993164062 207.52572631835938 267.0480651855469 C 168.1953582763672 275.6837158203125 159.6127471923828 271.9254150390625 172.75405883789062 231.93821716308594 C 179.86605834960938 214.23353576660156 185.43992614746094 198.4140625 204.3173828125 175.06222534179688 C 258.8127746582031 248.22030639648438 273.57330322265625 258.96087646484375 235.89918518066406 203.2624969482422" stroke-width="0.0" fill="rgb(255, 248, 248)" opacity="0.9891429"/>
    <path d="M 1.5724247694015503 -16.26787567138672 C -4.264472961425781 -0.057487986981868744 -8.520393371582031 12.469268798828125 -22.531829833984375 16.47947120666504 C -14.51760196685791 24.335128784179688 -17.50604820251465 13.145391464233398 -19.128068923950195 0.6471890807151794 C -16.440568923950195 -9.380769729614258 -9.120061874389648 -16.701276779174805 -22.34568977355957 -8.872770309448242 C 0.7441200017929077 -17.432987213134766 16.431720733642578 -16.57250213623047 1.5724247694015503 -16.26787567138672" stroke-width="0.0" fill="rgb(8, 132, 124)" opacity="0.42655802"/>
    <path d="M 14.734344482421875 -6.861196041107178 C 8.084595680236816 -3.183767557144165 -7.122268199920654 -4.801583766937256 -20.010889053344727 -1.9508322477340698 C -4.669765472412109 12.092623710632324 -16.352357864379883 10.667830467224121 -19.056915283203125 0.7772800326347351 C -16.3769588470459 -9.224250793457031 -9.056452751159668 -16.544757843017578 0.8868677616119385 -19.20758819580078 C 7.547104358673096 -14.898396492004395 11.111418724060059 -2.6083414554595947 14.734344482421875 -6.861196041107178" stroke-width="0.0" fill="rgb(139, 134, 196)" opacity="0.94662434"/>
    <path d="M 11.603071212768555 -12.92416763305664 C 10.680571556091309 -4.343263149261475 -5.154013633728027 1.6593425273895264 -17.60348892211914 6.300058364868164 C 2.5875556468963623 8.30502700805664 -9.408159255981445 3.5520832538604736 -19.35257911682129 0.4038063585758209 C -16.70094108581543 -9.235901832580566 -9.380433082580566 -16.556407928466797 1.60642671585083 -21.351682662963867 C 10.356949806213379 -17.79872703552246 17.071163177490234 -8.43560791015625 11.603071212768555 -12.92416763305664" stroke-width="0.0" fill="rgb(93, 174, 91)" opacity="0.74884367"/>
    <path d="M 66.21154022216797 -10.648919105529785 C 13.409208297729492 5.569753170013428 6.287563800811768 40.295814514160156 -17.568058013916016 42.71443176269531 C -13.274768829345703 20.11383628845215 -27.29718780517578 18.50485610961914 -37.51734161376953 13.926692962646484 C -16.69451141357422 -9.903273582458496 -9.374005317687988 -17.22378158569336 25.992090225219727 -47.1641731262207 C 30.4509220123291 -38.8519172668457 32.47755813598633 -27.02678680419922 66.21154022216797 -10.648919105529785" stroke-width="0.0" fill="rgb(0, 19, 79)" opacity="0.68811566"/>
    <path d="M 345.494384765625 146.76364135742188 C 353.5989074707031 141.7458953857422 349.0181579589844 135.67315673828125 359.0422668457031 111.93500518798828 C 366.8581237792969 176.5522918701172 393.03759765625 144.3834991455078 367.6210632324219 151.79751586914062 C 316.0813293457031 182.27279663085938 372.0357971191406 162.63751220703125 367.5621643066406 137.50143432617188 C 364.1642150878906 112.24612426757812 365.353515625 133.21310424804688 345.494384765625 146.76364135742188" stroke-width="0.0" fill="rgb(241, 251, 255)" opacity="0.6141105"/>
    <path d="M 608.3861083984375 164.10401916503906 C 619.8377685546875 165.25164794921875 616.0361328125 176.70655822753906 614.1622924804688 197.42227172851562 C 537.537841796875 201.90792846679688 535.2544555664062 203.96315002441406 525.7175903320312 170.64122009277344 C 529.1890869140625 71.04765319824219 545.2052612304688 79.60499572753906 582.4766235351562 98.92664337158203 C 614.7972412109375 122.2646713256836 619.3382568359375 131.6846923828125 608.3861083984375 164.10401916503906" stroke-width="0.0" fill="rgb(68, 5, 89)" opacity="0.25066343"/>
    <path d="M 363.96368408203125 217.25439453125 C 393.58056640625 239.06112670898438 365.1663513183594 222.9973907470703 417.50628662109375 204.42880249023438 C 367.33831787109375 234.10011291503906 356.7981872558594 239.68405151367188 415.7132263183594 213.9675750732422 C 342.2036437988281 228.3119659423828 360.3885803222656 227.24327087402344 393.3785095214844 188.48678588867188 C 420.81365966796875 174.66903686523438 371.5192565917969 200.912841796875 363.96368408203125 217.25439453125" stroke-width="0.0" fill="rgb(254, 248, 108)" opacity="0.9235251"/>
    <path d="M 2.803227186203003 -13.712653160095215 C 4.363244533538818 -2.880211591720581 -5.790772914886475 6.713757038116455 -8.945758819580078 6.400092601776123 C -12.439033508300781 11.573493003845215 -27.868297576904297 11.639359474182129 -29.758548736572266 4.296499729156494 C -17.22467613220215 -9.24803638458252 -9.904170036315918 -16.568544387817383 -0.07167449593544006 -19.19817543029785 C 5.134385108947754 -13.393338203430176 10.249760627746582 -2.254208564758301 2.803227186203003 -13.712653160095215" stroke-width="0.0" fill="rgb(173, 0, 197)" opacity="0.67057043"/>
    <path d="M 19.534259796142578 -3.3137166500091553 C 24.199960708618164 -14.510125160217285 -4.08024787902832 -3.1956801414489746 -12.360540390014648 1.6237634420394897 C -16.40937614440918 25.398418426513672 -17.79704475402832 13.038528442382812 -19.233064651489258 0.17722004652023315 C -16.545011520385742 -9.852590560913086 -9.224504470825195 -17.173097610473633 -9.512740135192871 -11.569714546203613 C 2.6992762088775635 -10.243294715881348 14.123261451721191 -8.351890563964844 19.534259796142578 -3.3137166500091553" stroke-width="0.0" fill="rgb(0, 177, 137)" opacity="0.68230075"/>
    <path d="M 43.547237396240234 -10.344316482543945 C 16.17682456970215 -6.687367916107178 6.356480598449707 -2.109635591506958 -20.54610824584961 9.221227645874023 C -18.15215492248535 23.22458839416504 -20.073694229125977 9.333009719848633 -23.327970504760742 2.829909086227417 C -16.734067916870117 -9.321699142456055 -9.413559913635254 -16.6422061920166 2.0869250297546387 -22.63248634338379 C 22.320594787597656 -31.271047592163086 31.91729736328125 -25.52413558959961 43.547237396240234 -10.344316482543945" stroke-width="0.0" fill="rgb(11, 28, 89)" opacity="0.59477836"/>
    <path d="M 7.212730407714844 -10.385920524597168 C 5.947115421295166 -2.9528114795684814 -4.013049602508545 3.126168966293335 -12.90286636352539 8.005264282226562 C -18.633819580078125 28.390745162963867 -22.757112503051758 17.58493995666504 -20.3011474609375 2.2217702865600586 C -17.008840560913086 -9.564151763916016 -9.688333511352539 -16.884658813476562 -0.23877888917922974 -19.41376304626465 C 4.650135517120361 -13.127852439880371 9.122172355651855 -1.8611044883728027 7.212730407714844 -10.385920524597168" stroke-width="0.0" fill="rgb(0, 189, 40)" opacity="0.8047748"/>
    <path d="M 602.1801147460938 31.08064842224121 C 597.88037109375 102.89910888671875 616.0851440429688 92.07068634033203 538.948974609375 93.04360961914062 C 517.8583374023438 65.20500183105469 506.4723205566406 5.404292583465576 522.2656860351562 -8.848907470703125 C 527.7407836914062 -21.84234619140625 515.5616455078125 -9.030648231506348 565.2525024414062 -33.669708251953125 C 600.22119140625 -23.696399688720703 606.2764282226562 -13.855530738830566 602.1801147460938 31.08064842224121" stroke-width="0.0" fill="rgb(86, 0, 82)" opacity="0.2966757"/>
    <path d="M 8.204968452453613 -8.783655166625977 C 8.893428802490234 -1.9668079614639282 -2.8508670330047607 -2.0324249267578125 -20.409889221191406 -4.492668151855469 C -9.796401023864746 18.21759033203125 -17.120119094848633 10.908431053161621 -19.79962730407715 0.9085001945495605 C -17.120134353637695 -9.091499328613281 -9.799628257751465 -16.412006378173828 0.20029783248901367 -19.09148406982422 C 10.192106246948242 -16.409563064575195 17.222078323364258 -8.999207496643066 8.204968452453613 -8.783655166625977" stroke-width="0.0" fill="rgb(33, 89, 147)" opacity="0.45139417"/>
    <path d="M 16.453872680664062 -13.951767921447754 C 0.08896143734455109 -6.819895267486572 -5.855144500732422 1.9488178491592407 -12.963422775268555 8.807723999023438 C -5.35173225402832 12.419282913208008 -16.85453224182129 10.510560035705566 -19.65998077392578 0.9361266493797302 C -16.98089027404785 -9.06241512298584 -9.660383224487305 -16.382923126220703 0.3247288167476654 -19.058002471923828 C 9.07650089263916 -15.933088302612305 11.753626823425293 -4.546936988830566 16.453872680664062 -13.951767921447754" stroke-width="0.0" fill="rgb(214, 20, 142)" opacity="0.7681655"/>
    <path d="M 11.303765296936035 22.38829231262207 C 22.212730407714844 -0.9956116080284119 0.7649109363555908 10.149932861328125 -13.824923515319824 23.920204162597656 C -17.04862403869629 26.08982276916504 -23.115604400634766 17.855688095092773 -24.487886428833008 6.43073034286499 C -16.485332489013672 -9.141298294067383 -9.164825439453125 -16.46180534362793 -12.373713493347168 -8.675056457519531 C -5.18060827255249 -4.374025344848633 0.06065519154071808 3.2103681564331055 11.303765296936035 22.38829231262207" stroke-width="0.0" fill="rgb(116, 15, 36)" opacity="0.5672774"/>
    <path d="M 9.133350372314453 -14.274436950683594 C 0.18685773015022278 -6.975852012634277 -6.338765621185303 1.692387580871582 -14.475236892700195 6.941776275634766 C -12.862565040588379 23.21470069885254 -16.486452102661133 10.296424865722656 -19.216331481933594 0.45153671503067017 C -16.537578582763672 -9.545923233032227 -9.217070579528809 -16.866430282592773 0.7872487306594849 -19.547128677368164 C 11.755061149597168 -17.180274963378906 24.556978225708008 -14.927666664123535 9.133350372314453 -14.274436950683594" stroke-width="0.0" fill="rgb(100, 85, 178)" opacity="0.72828317"/>
    <path d="M 558.5847778320312 56.21491241455078 C 591.2051391601562 62.909732818603516 593.1582641601562 86.34445190429688 513.9617309570312 81.47635650634766 C 506.94091796875 66.64189147949219 501.4049987792969 52.07691955566406 489.9078674316406 17.671218872070312 C 467.6625671386719 -13.138455390930176 476.3666687011719 -23.237037658691406 537.0805053710938 -16.94123649597168 C 549.7735595703125 26.466035842895508 543.6001586914062 44.09550857543945 558.5847778320312 56.21491241455078" stroke-width="0.0" fill="rgb(72, 0, 83)" opacity="0.33490247"/>
    <path d="M 45.543426513671875 570.8410034179688 C 39.299983978271484 622.8403930664062 18.492530822753906 621.4987182617188 -6.634376049041748 601.0126342773438 C -9.226587295532227 553.2988891601562 -17.128252029418945 546.5304565429688 -21.394132614135742 536.7388916015625 C -21.06808853149414 524.9873046875 -8.687880516052246 525.542236328125 -16.397422790527344 467.270263671875 C 40.7313117980957 451.4931945800781 58.5041389465332 438.4500732421875 45.543426513671875 570.8410034179688" stroke-width="0.0" fill="rgb(0, 55, 61)" opacity="0.23130815"/>
    <path d="M 21.846284866333008 -14.529245376586914 C 2.6949658393859863 -4.113973140716553 -4.951935768127441 2.941725254058838 -14.829798698425293 5.885811805725098 C -3.302950143814087 10.9534912109375 -16.490283966064453 8.915985107421875 -19.765525817871094 0.594613790512085 C -17.08739471435547 -9.400424003601074 -9.766887664794922 -16.720932006835938 1.3769104480743408 -19.786470413208008 C 17.054880142211914 -22.880126953125 24.80738067626953 -16.628896713256836 21.846284866333008 -14.529245376586914" stroke-width="0.0" fill="rgb(84, 192, 60)" opacity="0.7368174"/>
    <path d="M 2.146656036376953 -39.90442657470703 C -7.913317680358887 -11.964407920837402 -8.84717845916748 24.079275131225586 -6.4926581382751465 29.999666213989258 C 34.8017463684082 10.295839309692383 18.997623443603516 17.04492950439453 4.325451374053955 10.392147064208984 C -23.305347442626953 -2.6448683738708496 -13.536312103271484 -13.531408309936523 1.3299345970153809 -24.793498992919922 C 16.805334091186523 -32.365657806396484 25.007566452026367 -26.51165008544922 2.146656036376953 -39.90442657470703" stroke-width="0.0" fill="rgb(62, 95, 106)" opacity="0.49127412"/>
    <path d="M 152.73513793945312 291.55828857421875 C 151.56842041015625 301.2785339355469 165.4921875 304.9557800292969 163.85372924804688 327.57257080078125 C 107.72430419921875 353.3682556152344 96.18279266357422 330.3613586425781 109.7679672241211 304.43389892578125 C 103.37529754638672 237.5987548828125 109.55506134033203 209.1136474609375 124.1290054321289 239.6089630126953 C 142.0343017578125 284.74334716796875 160.89625549316406 273.52923583984375 152.73513793945312 291.55828857421875" stroke-width="0.0" fill="rgb(8, 21, 113)" opacity="0.28688118"/>
    <path d="M 206.288330078125 184.72244262695312 C 217.92706298828125 144.9298553466797 202.59205627441406 160.23785400390625 218.58517456054688 171.2508544921875 C 219.96229553222656 156.26034545898438 222.64971923828125 151.62770080566406 208.36233520507812 157.0755615234375 C 208.3551788330078 173.1749267578125 211.3206024169922 168.5713348388672 235.91671752929688 156.4300537109375 C 226.26858520507812 148.61273193359375 218.90487670898438 163.32994079589844 206.288330078125 184.72244262695312" stroke-width="0.0" fill="rgb(255, 252, 179)" opacity="0.15955298"/>
    <path d="M -11.313742637634277 0.24994626641273499 C -0.3810243308544159 21.277158737182617 -3.9043128490448 19.854995727539062 -15.15955638885498 12.021366119384766 C -6.279630184173584 0.8730129599571228 -9.106607437133789 -11.50696086883545 -13.482730865478516 -11.068500518798828 C -17.217817306518555 -9.404825210571289 -9.897310256958008 -16.725332260131836 5.047298431396484 -15.362434387207031 C 13.823774337768555 -17.050159454345703 20.396835327148438 -14.834660530090332 -11.313742637634277 0.24994626641273499" stroke-width="0.0" fill="rgb(0, 91, 88)" opacity="0.6654837"/>
    <path d="M 22.377260208129883 -11.054948806762695 C 10.809118270874023 7.931660175323486 3.59790301322937 16.78085708618164 -7.836160659790039 24.805025100708008 C -14.650247573852539 24.59773826599121 -17.10466957092285 12.530961990356445 -19.044464111328125 0.6413614153862 C -16.35744285583496 -9.383896827697754 -9.036934852600098 -16.704404830932617 2.490084409713745 -22.071191787719727 C 13.89498519897461 -22.160118103027344 19.003576278686523 -12.339552879333496 22.377260208129883 -11.054948806762695" stroke-width="0.0" fill="rgb(115, 51, 125)" opacity="0.3953787"/>
    <path d="M 285.92071533203125 474.81219482421875 C 297.7864074707031 516.1607666015625 291.7199401855469 525.9719848632812 267.53973388671875 544.1929931640625 C 219.6634521484375 560.3640747070312 211.4077911376953 524.7681884765625 235.08836364746094 511.2802734375 C 250.43255615234375 490.7594299316406 242.83203125 480.18011474609375 250.86358642578125 495.8063659667969 C 250.9329833984375 467.1414794921875 236.7605743408203 472.9255065917969 285.92071533203125 474.81219482421875" stroke-width="0.0" fill="rgb(255, 204, 0)" opacity="1.0"/>
    <path d="M 14.6283540725708 -8.251383781433105 C 6.786646842956543 -7.381322860717773 -12.999862670898438 -6.099169731140137 -18.852035522460938 4.773444652557373 C -6.0777788162231445 12.545331001281738 -17.239501953125 10.739818572998047 -19.932453155517578 0.7893914580345154 C -17.252962112426758 -9.210583686828613 -9.932455062866211 -16.531089782714844 4.877669811248779 -21.922107696533203 C 19.14136505126953 -24.852724075317383 29.50505256652832 -20.46495246887207 14.6283540725708 -8.251383781433105" stroke-width="0.0" fill="rgb(88, 225, 204)" opacity="0.6477313"/>
    <path d="M 10.481496810913086 -12.360078811645508 C 5.4844584465026855 -6.292291641235352 -7.3545098304748535 -2.219977617263794 -17.635730743408203 2.227092981338501 C -2.577847719192505 10.66441535949707 -15.054429054260254 7.157301902770996 -19.362611770629883 0.5369822978973389 C -16.695158004760742 -9.421065330505371 -9.374650955200195 -16.741573333740234 0.4861207604408264 -19.38060188293457 C 5.410486221313477 -13.368237495422363 10.539551734924316 -2.1957428455352783 10.481496810913086 -12.360078811645508" stroke-width="0.0" fill="rgb(132, 42, 211)" opacity="0.67098457"/>
    <path d="M -6.750014305114746 -23.074125289916992 C -6.525569438934326 -7.430027008056641 -5.150953769683838 3.691112756729126 -17.832847595214844 4.527919292449951 C -8.532777786254883 10.255169868469238 -12.999627113342285 1.2116148471832275 -18.88837432861328 -2.1660146713256836 C -17.12689208984375 -9.426788330078125 -9.806385040283203 -16.747295379638672 -2.050957679748535 -17.711200714111328 C 4.8354268074035645 -11.883336067199707 12.700604438781738 -5.894437789916992 -6.750014305114746 -23.074125289916992" stroke-width="0.0" fill="rgb(163, 144, 135)" opacity="0.6069631"/>
    <path d="M 140.67111206054688 254.66976928710938 C 50.1795539855957 247.67405700683594 61.97901153564453 248.15948486328125 59.164798736572266 233.1929931640625 C 63.068145751953125 204.9703369140625 61.71335220336914 205.79931640625 53.906646728515625 206.75755310058594 C 39.530967712402344 205.81227111816406 27.23370933532715 164.01901245117188 63.92676544189453 179.0672149658203 C 118.41197204589844 166.9122772216797 126.52986907958984 189.226806640625 140.67111206054688 254.66976928710938" stroke-width="0.0" fill="rgb(3, 36, 98)" opacity="0.072541386"/>
    <path d="M -3.4587767124176025 29.446155548095703 C -1.8650351762771606 54.52042007446289 -5.338659763336182 75.74742889404297 -5.992091655731201 77.15570831298828 C -9.625280380249023 71.62694549560547 -20.018495559692383 72.11856079101562 -25.80356788635254 60.50739288330078 C -15.252519607543945 39.956138610839844 -11.978352546691895 28.888347625732422 -12.349015235900879 41.39954376220703 C -9.87350082397461 40.2129020690918 -25.568269729614258 43.34558868408203 -3.4587767124176025 29.446155548095703" stroke-width="0.0" fill="rgb(55, 49, 116)" opacity="0.32485512"/>
    <path d="M 274.42950439453125 581.5158081054688 C 237.18116760253906 578.251220703125 226.28826904296875 591.3204345703125 245.25006103515625 613.669189453125 C 261.7984924316406 599.0263061523438 247.72280883789062 598.1914672851562 248.25657653808594 615.1195678710938 C 285.7310485839844 604.5645141601562 271.3127746582031 590.3383178710938 272.00323486328125 567.4757690429688 C 280.43487548828125 556.5082397460938 289.4572448730469 578.2268676757812 274.42950439453125 581.5158081054688" stroke-width="0.0" fill="rgb(1, 0, 161)" opacity="0.12802108"/>
    <path d="M -7.688601493835449 23.32776641845703 C -2.9469146728515625 29.205575942993164 -23.995845794677734 4.50848388671875 -18.40838050842285 5.558016300201416 C -17.683242797851562 25.94468116760254 -19.054454803466797 14.412432670593262 -19.69944190979004 0.37211695313453674 C -17.01183319091797 -9.657099723815918 -9.691325187683105 -16.97760581970215 -8.166471481323242 -39.94004821777344 C -1.0300719738006592 -40.34674835205078 -4.2172698974609375 -28.59084701538086 -7.688601493835449 23.32776641845703" stroke-width="0.0" fill="rgb(122, 117, 85)" opacity="0.3334723"/>
    <path d="M 17.588348388671875 -11.583980560302734 C 2.129754066467285 -7.398414611816406 -6.967418193817139 -1.674867033958435 -19.28833770751953 0.039087925106287 C -2.331153392791748 10.389693260192871 -13.129626274108887 4.97422456741333 -19.312185287475586 0.08455970883369446 C -16.683143615722656 -9.743714332580566 -9.36263656616211 -17.064220428466797 0.6388044357299805 -19.744104385375977 C 11.239709854125977 -17.245119094848633 24.400243759155273 -15.086958885192871 17.588348388671875 -11.583980560302734" stroke-width="0.0" fill="rgb(123, 188, 183)" opacity="0.72438675"/>
    <path d="M 629.027099609375 56.55510711669922 C 618.1279296875 107.71704864501953 618.7555541992188 110.08818817138672 575.9740600585938 97.62548828125 C 562.4077758789062 103.94794464111328 570.601318359375 75.1309585571289 556.1981811523438 53.0299072265625 C 543.223388671875 -2.4750449657440186 536.7025146484375 -10.092916488647461 550.9541015625 -12.706541061401367 C 624.1568603515625 -1.1319769620895386 633.2437133789062 3.745729684829712 629.027099609375 56.55510711669922" stroke-width="0.0" fill="rgb(73, 2, 85)" opacity="0.4081167"/>
    <path d="M 35.70305633544922 10.058754920959473 C 35.08501052856445 4.28506326675415 29.517593383789062 8.298808097839355 -7.586211204528809 1.524843692779541 C -14.97887897491455 22.423439025878906 -22.85944938659668 16.024593353271484 -25.60553741455078 6.269214630126953 C -16.89844512939453 -9.804593086242676 -9.5779390335083 -17.125099182128906 15.896615982055664 -39.17103576660156 C 19.360044479370117 -30.23682975769043 25.89348793029785 -18.103403091430664 35.70305633544922 10.058754920959473" stroke-width="0.0" fill="rgb(26, 100, 18)" opacity="0.7941015"/>
    <path d="M 620.8528442382812 61.21068572998047 C 627.9507446289062 164.61317443847656 641.2236328125 176.7875213623047 539.4419555664062 177.32542419433594 C 508.3699035644531 109.33744049072266 507.6267395019531 92.43612670898438 510.002197265625 119.52193450927734 C 475.15399169921875 15.544495582580566 491.3822326660156 16.913419723510742 561.291259765625 30.83489418029785 C 588.8226928710938 32.74298858642578 614.6777954101562 17.948680877685547 620.8528442382812 61.21068572998047" stroke-width="0.0" fill="rgb(63, 4, 97)" opacity="0.42103532"/>
    <path d="M 32.944759368896484 1.6095234155654907 C 38.8336067199707 26.47075080871582 22.728574752807617 24.217172622680664 -40.613399505615234 33.41617965698242 C -22.21800422668457 29.267187118530273 -32.48014831542969 25.766799926757812 -29.218809127807617 12.763521194458008 C -16.69432258605957 -9.934209823608398 -9.373814582824707 -17.254716873168945 10.44336223602295 -48.591285705566406 C 21.77740478515625 -42.52793884277344 33.29402542114258 -23.553024291992188 32.944759368896484 1.6095234155654907" stroke-width="0.0" fill="rgb(32, 19, 121)" opacity="0.8947908"/>
  </g>
</svg>
