<?xml version="1.0" ?>
<svg xmlns="http://www.w3.org/2000/svg" version="1.1" width="600" height="600">
  <defs/>
  <g>
    <path d="M 207.16455078125 67.32583618164062 C 148.88034057617188 172.8043212890625 141.37718200683594 183.91758728027344 15.098267555236816 260.0150451660156 C -7.820115566253662 282.1506652832031 -16.365619659423828 281.925537109375 -19.29987907409668 82.09168243408203 C -24.41781997680664 8.557366371154785 -27.294391632080078 -8.090550422668457 12.932501792907715 -16.896013259887695 C 269.9573059082031 -12.291056632995605 252.7993621826172 3.6967132091522217 207.16455078125 67.32583618164062" stroke-width="0.0" fill="rgb(99, 71, 122)" opacity="0.9714531"/>
    <path d="M 213.21827697753906 166.32843017578125 C 132.93685913085938 181.53504943847656 155.95849609375 230.54910278320312 107.95117950439453 261.5613098144531 C 86.12704467773438 262.13531494140625 71.8869857788086 259.8375244140625 62.32109832763672 225.81857299804688 C 80.50718688964844 166.642578125 107.09500885009766 167.1829376220703 160.54624938964844 151.8470001220703 C 195.49879455566406 131.80381774902344 217.48175048828125 127.74456024169922 213.21827697753906 166.32843017578125" stroke-width="0.0" fill="rgb(108, 78, 146)" opacity="1.0"/>
    <path d="M 161.7843017578125 291.9276428222656 C 158.4090576171875 303.0669250488281 151.05010986328125 310.3623046875 125.27803039550781 328.9762878417969 C 111.2304458618164 329.8944091796875 104.3148422241211 322.2108154296875 107.91325378417969 305.96295166015625 C 123.67948913574219 283.0 131.0 275.67950439453125 150.470703125 261.6177673339844 C 158.7830352783203 266.0290222167969 162.37393188476562 277.40911865234375 161.7843017578125 291.9276428222656" stroke-width="0.0" fill="rgb(100, 72, 128)" opacity="0.9904106"/>
    <path d="M 156.42767333984375 273.78375244140625 C 145.3324432373047 294.0152893066406 138.8400421142578 302.4768981933594 -5.248762130737305 439.87982177734375 C -15.070242881774902 435.31597900390625 -19.016376495361328 421.865966796875 -18.277267456054688 310.46630859375 C -12.368631362915039 166.9644317626953 5.804630279541016 182.6469268798828 61.20164489746094 204.53485107421875 C 164.001220703125 229.09716796875 161.66761779785156 250.74481201171875 156.42767333984375 273.78375244140625" stroke-width="0.0" fill="rgb(99, 73, 127)" opacity="0.9976645"/>
    <path d="M 373.8428955078125 195.04676818847656 C 335.4305419921875 435.4631652832031 305.0212097167969 411.3030700683594 262.06048583984375 369.3563537597656 C 147.62669372558594 316.3526611328125 141.4474334716797 307.4134826660156 138.9814910888672 297.0329895019531 C 141.6794891357422 287.0 149.0 279.67950439453125 157.86114501953125 273.6092834472656 C 142.2066650390625 266.7727355957031 94.1444091796875 243.5821990966797 373.8428955078125 195.04676818847656" stroke-width="0.0" fill="rgb(94, 78, 144)" opacity="1.0"/>
    <path d="M 619.5513305664062 530.192138671875 C 640.3024291992188 591.0430297851562 648.3556518554688 608.25048828125 570.1585693359375 615.7416381835938 C 330.6505126953125 457.2043151855469 362.4505310058594 456.8833312988281 365.39324951171875 365.356689453125 C 281.79541015625 256.591796875 276.0304260253906 87.7900619506836 612.361328125 53.69212341308594 C 644.4497680664062 121.61275482177734 622.7454833984375 168.44752502441406 619.5513305664062 530.192138671875" stroke-width="0.0" fill="rgb(89, 64, 122)" opacity="0.9346803"/>
    <path d="M 216.00914001464844 184.33340454101562 C 204.6123809814453 244.79428100585938 179.3686065673828 246.61753845214844 171.37661743164062 252.69126892089844 C 162.50282287597656 243.96566772460938 147.90374755859375 242.32591247558594 133.58953857421875 225.84637451171875 C 145.72055053710938 208.40078735351562 147.96229553222656 190.84072875976562 191.20880126953125 177.79978942871094 C 182.66461181640625 207.90208435058594 178.23106384277344 252.12179565429688 216.00914001464844 184.33340454101562" stroke-width="0.0" fill="rgb(108, 96, 129)" opacity="0.62028515"/>
    <path d="M 187.4252166748047 255.48095703125 C 182.42459106445312 278.9264831542969 181.8515167236328 291.4732971191406 179.56814575195312 301.00823974609375 C 147.8131103515625 286.0429992675781 137.27857971191406 281.86932373046875 115.10615539550781 242.45094299316406 C 118.32537841796875 225.52090454101562 132.74435424804688 226.33389282226562 158.2369384765625 236.4046173095703 C 180.37815856933594 241.54693603515625 190.0288848876953 245.49147033691406 187.4252166748047 255.48095703125" stroke-width="0.0" fill="rgb(188, 189, 134)" opacity="0.6483031"/>
    <path d="M 610.5038452148438 83.70834350585938 C 454.3546447753906 251.7706756591797 461.15484619140625 200.8155059814453 221.05853271484375 209.16490173339844 C 230.11338806152344 89.04070281982422 227.92288208007812 210.2753448486328 131.17010498046875 31.433032989501953 C 137.92117309570312 -57.11684799194336 155.79202270507812 -44.048492431640625 465.125 -42.278011322021484 C 585.2633056640625 -126.83834075927734 607.3695068359375 -179.3938446044922 610.5038452148438 83.70834350585938" stroke-width="0.0" fill="rgb(93, 69, 125)" opacity="0.96124834"/>
    <path d="M 551.2365112304688 591.9603271484375 C 527.0407104492188 647.3372192382812 486.06317138671875 625.6544189453125 219.83203125 622.4129028320312 C 131.0760040283203 662.1222534179688 85.05279541015625 702.5379028320312 61.733787536621094 604.5853881835938 C 111.31838989257812 357.171630859375 187.63494873046875 448.8849792480469 305.2529296875 432.3338623046875 C 363.3763732910156 444.2900390625 462.44586181640625 392.0095520019531 551.2365112304688 591.9603271484375" stroke-width="0.0" fill="rgb(105, 72, 131)" opacity="0.9890256"/>
    <path d="M 196.05625915527344 225.5458221435547 C 187.30691528320312 248.33291625976562 190.83905029296875 259.1731872558594 176.15379333496094 257.9461669921875 C 161.97991943359375 251.3310089111328 153.7631378173828 244.42974853515625 136.6522979736328 227.6966552734375 C 147.71363830566406 218.83236694335938 160.5114288330078 215.24066162109375 177.2055206298828 201.7565155029297 C 186.39511108398438 200.91567993164062 199.8370819091797 216.3349609375 196.05625915527344 225.5458221435547" stroke-width="0.0" fill="rgb(147, 161, 50)" opacity="0.4958947"/>
    <path d="M 193.16954040527344 229.91275024414062 C 184.4002227783203 260.1899719238281 183.774658203125 272.01617431640625 181.99874877929688 277.8903503417969 C 150.22750854492188 263.4801025390625 129.2369384765625 268.06634521484375 114.44322204589844 241.6954803466797 C 127.96429443359375 210.52459716796875 144.54615783691406 211.51075744628906 166.10777282714844 218.02093505859375 C 179.7282257080078 224.1111602783203 190.27098083496094 229.25112915039062 193.16954040527344 229.91275024414062" stroke-width="0.0" fill="rgb(98, 74, 125)" opacity="1.0"/>
    <path d="M 181.41555786132812 284.684326171875 C 176.56642150878906 308.95379638671875 176.96401977539062 315.1261901855469 163.39730834960938 313.77777099609375 C 150.9088134765625 309.4294128417969 143.60894775390625 302.0794372558594 140.10023498535156 290.8547058105469 C 140.38677978515625 278.01727294921875 146.3253631591797 269.25494384765625 161.7666473388672 265.265869140625 C 182.0030975341797 262.49700927734375 182.99417114257812 264.67010498046875 181.41555786132812 284.684326171875" stroke-width="0.0" fill="rgb(100, 75, 127)" opacity="1.0"/>
    <path d="M 253.59686279296875 432.9398498535156 C 293.8772888183594 549.1514282226562 350.88653564453125 601.756591796875 13.314056396484375 611.7470703125 C -87.12118530273438 598.3707885742188 -57.2475471496582 561.057861328125 -24.585025787353516 493.82635498046875 C 34.92042922973633 266.6696472167969 111.3040771484375 292.9475402832031 138.97341918945312 305.1815185546875 C 169.32240295410156 312.7464599609375 220.00955200195312 286.0872497558594 253.59686279296875 432.9398498535156" stroke-width="0.0" fill="rgb(104, 76, 127)" opacity="1.0"/>
    <path d="M 581.2050170898438 602.6681518554688 C 563.344482421875 672.9495849609375 511.9556579589844 616.3690795898438 403.9418029785156 533.5974731445312 C 332.0503234863281 505.1587219238281 295.5368347167969 527.134033203125 187.7552947998047 470.2095031738281 C 205.5523681640625 354.9842834472656 242.73289489746094 309.5216064453125 360.1254577636719 297.59747314453125 C 393.9820556640625 428.316162109375 451.7775573730469 409.7967834472656 581.2050170898438 602.6681518554688" stroke-width="0.0" fill="rgb(98, 96, 60)" opacity="0.13838843"/>
    <path d="M 287.361572265625 170.38311767578125 C 293.66302490234375 289.3077697753906 232.25958251953125 250.18832397460938 165.04025268554688 201.8985595703125 C 108.60801696777344 199.59573364257812 104.25650024414062 188.48681640625 112.82645416259766 169.05101013183594 C 124.34016418457031 143.95758056640625 92.78907775878906 82.47760009765625 182.8725128173828 44.63825988769531 C 233.03819274902344 54.228424072265625 250.62799072265625 66.4002685546875 287.361572265625 170.38311767578125" stroke-width="0.0" fill="rgb(88, 126, 0)" opacity="0.15263635"/>
    <path d="M 180.10336303710938 183.92218017578125 C 168.60748291015625 208.45574951171875 161.62014770507812 220.0065155029297 131.85467529296875 237.10986328125 C 110.34654998779297 224.9327392578125 106.23204040527344 211.18359375 101.70862579345703 184.9113006591797 C 107.46664428710938 164.92088317871094 117.49273681640625 158.1862030029297 132.47662353515625 155.2788543701172 C 150.39483642578125 168.29885864257812 163.86917114257812 170.74488830566406 180.10336303710938 183.92218017578125" stroke-width="0.0" fill="rgb(98, 72, 127)" opacity="0.9999873"/>
    <path d="M 141.6602020263672 143.88894653320312 C 141.74075317382812 157.68995666503906 137.79701232910156 169.3197479248047 115.68818664550781 180.34176635742188 C 101.01419830322266 173.00454711914062 97.55237579345703 159.01983642578125 90.23829650878906 142.96873474121094 C 99.37236785888672 127.18356323242188 100.81127166748047 112.7785415649414 112.15771484375 96.0163803100586 C 134.6763916015625 119.06135559082031 138.68536376953125 132.23402404785156 141.6602020263672 143.88894653320312" stroke-width="0.0" fill="rgb(100, 74, 127)" opacity="0.99947286"/>
    <path d="M 370.3370666503906 490.30218505859375 C 371.53900146484375 503.159912109375 370.7325134277344 500.4035949707031 330.6493835449219 500.2306213378906 C 328.48626708984375 506.9748229980469 337.6213684082031 484.77264404296875 311.4227294921875 491.4503479003906 C 313.4313659667969 410.4443359375 296.1018371582031 445.0393371582031 357.7693786621094 436.101806640625 C 347.5709533691406 481.7362365722656 356.3025207519531 474.6121520996094 370.3370666503906 490.30218505859375" stroke-width="0.0" fill="rgb(247, 147, 11)" opacity="0.99949574"/>
    <path d="M 355.31787109375 178.71470642089844 C 281.9805908203125 164.16549682617188 284.11163330078125 90.24121856689453 298.3534851074219 88.11722564697266 C 293.6391296386719 101.81083679199219 262.5167541503906 52.81528854370117 243.9696502685547 182.39910888671875 C 220.4303741455078 61.29666519165039 311.4425048828125 74.66336059570312 301.60595703125 75.036865234375 C 303.22967529296875 72.37571716308594 380.59197998046875 77.37686157226562 355.31787109375 178.71470642089844" stroke-width="0.0" fill="rgb(248, 162, 12)" opacity="1.0"/>
    <path d="M 131.92247009277344 203.71170043945312 C 130.39353942871094 224.64520263671875 121.2734146118164 232.54104614257812 99.48942565917969 233.3189697265625 C 70.0362319946289 224.80906677246094 60.32875442504883 218.0859375 57.51976013183594 204.7484893798828 C 70.13280487060547 181.01486206054688 76.2093734741211 170.7456817626953 98.96513366699219 152.65631103515625 C 117.0093002319336 161.23277282714844 123.22982025146484 171.52059936523438 131.92247009277344 203.71170043945312" stroke-width="0.0" fill="rgb(98, 72, 126)" opacity="0.74200016"/>
    <path d="M 350.8905334472656 252.39041137695312 C 366.09423828125 276.9691162109375 364.6513977050781 308.2563171386719 351.1169738769531 273.3593444824219 C 300.2768249511719 296.7278747558594 357.209228515625 234.58522033691406 297.1357421875 232.22535705566406 C 218.2210693359375 372.03790283203125 226.4593505859375 236.02444458007812 284.2296447753906 185.4512939453125 C 393.9672546386719 183.67286682128906 317.4053955078125 173.77850341796875 350.8905334472656 252.39041137695312" stroke-width="0.0" fill="rgb(250, 255, 194)" opacity="0.9652273"/>
    <path d="M 351.30242919921875 149.78541564941406 C 347.93511962890625 169.4660186767578 339.7882385253906 171.30259704589844 307.8609619140625 197.57620239257812 C 288.65478515625 194.11712646484375 283.4123840332031 180.73312377929688 268.3389587402344 154.9241180419922 C 286.79443359375 129.653564453125 310.5790100097656 133.73406982421875 337.3359069824219 102.12425231933594 C 345.5944519042969 112.08755493164062 354.1461181640625 119.59419250488281 351.30242919921875 149.78541564941406" stroke-width="0.0" fill="rgb(5, 8, 39)" opacity="0.9278043"/>
    <path d="M 434.31842041015625 285.6195373535156 C 455.0519104003906 495.345947265625 333.16998291015625 492.8907775878906 352.1795959472656 456.83660888671875 C 399.4314880371094 410.39404296875 294.762451171875 456.8103332519531 292.56146240234375 425.8962097167969 C 277.7565002441406 265.02850341796875 338.0520935058594 307.55279541015625 312.6439208984375 433.5400695800781 C 398.2123718261719 441.100830078125 299.6402282714844 455.07122802734375 434.31842041015625 285.6195373535156" stroke-width="0.0" fill="rgb(100, 74, 127)" opacity="0.9742753"/>
    <path d="M 316.658935546875 111.09461212158203 C 295.0677185058594 188.24713134765625 305.2235107421875 207.8692169189453 260.1075134277344 228.12844848632812 C 260.80511474609375 138.2740478515625 195.5078125 192.49771118164062 234.02099609375 159.51080322265625 C 230.51617431640625 165.51124572753906 235.42425537109375 96.74241638183594 248.53846740722656 174.9136505126953 C 247.8517303466797 80.88992309570312 303.6623229980469 83.51425170898438 316.658935546875 111.09461212158203" stroke-width="0.0" fill="rgb(255, 255, 174)" opacity="0.88785136"/>
    <path d="M 380.6905517578125 36.17499542236328 C 162.2198944091797 122.33654022216797 151.0877685546875 145.23843383789062 142.1467742919922 153.48622131347656 C 132.00001525878906 150.32049560546875 124.67949676513672 142.99998474121094 108.93171691894531 121.66075897216797 C 99.06867980957031 95.1073989868164 87.77674102783203 62.71529769897461 149.1892547607422 -21.941238403320312 C 266.292236328125 -23.582651138305664 319.0189208984375 -38.87858200073242 380.6905517578125 36.17499542236328" stroke-width="0.0" fill="rgb(104, 76, 127)" opacity="0.7929559"/>
    <path d="M 244.31268310546875 100.47595977783203 C 206.64903259277344 185.11549377441406 259.30718994140625 159.0709991455078 212.8491668701172 187.75369262695312 C 214.31857299804688 115.9797592163086 212.08255004882812 94.69294738769531 212.83726501464844 143.26248168945312 C 214.5735321044922 121.85262298583984 208.3944549560547 111.82154846191406 223.9442901611328 96.87725067138672 C 232.79014587402344 90.897216796875 264.0653991699219 86.94763946533203 244.31268310546875 100.47595977783203" stroke-width="0.0" fill="rgb(249, 253, 192)" opacity="0.9771086"/>
    <path d="M 212.92739868164062 146.1459197998047 C 201.22634887695312 177.8907012939453 173.8767547607422 189.82029724121094 163.7399139404297 195.29534912109375 C 139.6142578125 173.43807983398438 130.47813415527344 168.0780487060547 122.29142761230469 162.02662658691406 C 134.67892456054688 144.99977111816406 141.99996948242188 137.6794891357422 175.47215270996094 109.0622787475586 C 207.15194702148438 93.68274688720703 209.3458709716797 95.37214660644531 212.92739868164062 146.1459197998047" stroke-width="0.0" fill="rgb(102, 78, 123)" opacity="0.9649677"/>
    <path d="M 346.3637390136719 120.09664916992188 C 336.2699279785156 139.94332885742188 319.5683288574219 142.0217742919922 296.8698425292969 156.13796997070312 C 305.0963439941406 154.38441467285156 282.6954040527344 141.8671875 291.4351501464844 96.57694244384766 C 293.1380310058594 80.34144592285156 242.5685577392578 120.72156524658203 269.3017272949219 96.88052368164062 C 310.35205078125 67.251953125 340.84326171875 110.27961730957031 346.3637390136719 120.09664916992188" stroke-width="0.0" fill="rgb(3, 7, 46)" opacity="0.99264985"/>
    <path d="M 403.8292236328125 217.1178436279297 C 359.2765197753906 132.44154357910156 351.111083984375 190.7952117919922 330.2814636230469 214.2338409423828 C 324.06732177734375 207.80337524414062 298.75201416015625 213.63540649414062 283.3614501953125 192.70196533203125 C 304.3795471191406 206.01441955566406 400.8603515625 146.13140869140625 348.3042907714844 93.4582748413086 C 396.2634582519531 72.22196197509766 440.7290344238281 201.57720947265625 403.8292236328125 217.1178436279297" stroke-width="0.0" fill="rgb(247, 250, 190)" opacity="0.98414415"/>
    <path d="M 320.2776184082031 141.59304809570312 C 325.7510681152344 186.49267578125 303.6648864746094 192.3180389404297 273.6934509277344 180.4169921875 C 253.59222412109375 170.0883331298828 246.3501434326172 156.94483947753906 250.39422607421875 125.08367156982422 C 250.1971435546875 111.59508514404297 289.45294189453125 73.798583984375 255.70689392089844 120.87525177001953 C 248.1566925048828 158.47740173339844 299.8600769042969 123.38663482666016 320.2776184082031 141.59304809570312" stroke-width="0.0" fill="rgb(9, 7, 43)" opacity="0.97454697"/>
    <path d="M 198.54820251464844 217.74234008789062 C 194.2153778076172 227.22097778320312 192.85708618164062 237.13442993164062 181.6268768310547 240.26365661621094 C 169.8500213623047 231.26565551757812 159.1094207763672 226.18038940429688 141.63046264648438 212.51373291015625 C 149.43939208984375 194.64805603027344 157.1849822998047 184.6030731201172 189.78903198242188 179.3941650390625 C 182.9779052734375 193.56141662597656 193.00563049316406 218.6171875 198.54820251464844 217.74234008789062" stroke-width="0.0" fill="rgb(100, 75, 126)" opacity="0.9805229"/>
    <path d="M 296.5277404785156 477.3519287109375 C 297.5014343261719 504.7783508300781 278.7660827636719 478.1184997558594 278.26373291015625 499.22784423828125 C 217.23866271972656 504.1573181152344 229.53115844726562 495.0616455078125 257.2354736328125 472.0875549316406 C 244.83627319335938 419.1540222167969 240.39649963378906 440.71209716796875 285.5185546875 437.3944091796875 C 300.31787109375 438.7688903808594 295.8835754394531 423.4842529296875 296.5277404785156 477.3519287109375" stroke-width="0.0" fill="rgb(250, 147, 10)" opacity="0.98310745"/>
    <path d="M 417.2216796875 271.9087219238281 C 420.7821044921875 305.3023986816406 431.55303955078125 299.0389099121094 384.87176513671875 306.6659240722656 C 377.2836608886719 276.918701171875 358.2729797363281 248.0756378173828 354.7859802246094 224.97360229492188 C 352.05126953125 198.01754760742188 362.3765869140625 181.85040283203125 374.18951416015625 180.09767150878906 C 371.10455322265625 178.05921936035156 404.04541015625 193.79945373535156 417.2216796875 271.9087219238281" stroke-width="0.0" fill="rgb(252, 254, 187)" opacity="0.9748385"/>
    <path d="M 325.69000244140625 320.20379638671875 C 318.2210388183594 325.16754150390625 310.93756103515625 332.2731018066406 301.72607421875 346.83349609375 C 294.7731018066406 337.47747802734375 293.88409423828125 328.67938232421875 270.16766357421875 319.7478942871094 C 277.05377197265625 307.8319091796875 291.9031982421875 304.2095642089844 304.36248779296875 303.8438720703125 C 314.3081970214844 305.13262939453125 321.25433349609375 312.8184814453125 325.69000244140625 320.20379638671875" stroke-width="0.0" fill="rgb(194, 194, 203)" opacity="0.80157673"/>
    <path d="M 365.97442626953125 324.6846923828125 C 364.5443115234375 320.5559997558594 385.71014404296875 388.3168640136719 339.0685729980469 435.2159729003906 C 289.1982116699219 376.7090759277344 332.87109375 451.0477600097656 306.57965087890625 361.9783020019531 C 326.5147399902344 315.31402587890625 374.8289489746094 315.03814697265625 363.791748046875 318.6294250488281 C 365.1438293457031 310.0390319824219 366.0987243652344 333.2930908203125 365.97442626953125 324.6846923828125" stroke-width="0.0" fill="rgb(251, 253, 186)" opacity="0.97771955"/>
    <path d="M 362.80450439453125 306.5474548339844 C 334.0019226074219 310.3000183105469 312.3441162109375 324.96807861328125 301.80133056640625 345.5171203613281 C 296.3100280761719 336.3287658691406 282.5484313964844 311.1773376464844 242.50689697265625 307.4919128417969 C 241.07762145996094 261.21484375 333.4527893066406 318.7911682128906 327.3602600097656 273.11785888671875 C 368.7762145996094 318.5477600097656 351.04638671875 265.3382263183594 362.80450439453125 306.5474548339844" stroke-width="0.0" fill="rgb(249, 255, 195)" opacity="0.9689333"/>
    <path d="M 252.6239471435547 232.8109893798828 C 259.1405029296875 236.35462951660156 247.59512329101562 244.3177032470703 238.99819946289062 280.9519958496094 C 239.93861389160156 233.74407958984375 242.92637634277344 214.9715576171875 248.8526611328125 220.8143768310547 C 242.72874450683594 245.24058532714844 181.46331787109375 193.50852966308594 236.78868103027344 171.3568572998047 C 267.91046142578125 185.19418334960938 258.1797180175781 241.6685791015625 252.6239471435547 232.8109893798828" stroke-width="0.0" fill="rgb(66, 52, 151)" opacity="0.92566544"/>
    <path d="M 245.48486328125 206.6861572265625 C 246.14349365234375 207.1858367919922 250.42660522460938 227.3356475830078 233.7968292236328 259.4101257324219 C 192.13116455078125 243.3985137939453 188.6033935546875 240.5184783935547 203.03053283691406 209.247314453125 C 216.29885864257812 189.97718811035156 223.2290496826172 174.80796813964844 233.09666442871094 182.25079345703125 C 242.21481323242188 189.56300354003906 247.73031616210938 204.6831817626953 245.48486328125 206.6861572265625" stroke-width="0.0" fill="rgb(253, 255, 197)" opacity="0.9542918"/>
    <path d="M 294.1168212890625 286.26593017578125 C 340.19549560546875 280.1572570800781 317.9674072265625 288.7292785644531 270.4915466308594 294.5315246582031 C 276.67291259765625 289.99755859375 273.2304992675781 275.6499328613281 261.1710205078125 272.3251037597656 C 242.99813842773438 272.8234558105469 263.5648498535156 232.33950805664062 321.41424560546875 244.6357879638672 C 324.5812072753906 310.86822509765625 270.8840637207031 257.4382629394531 294.1168212890625 286.26593017578125" stroke-width="0.0" fill="rgb(247, 241, 206)" opacity="0.8999596"/>
    <path d="M 298.7759704589844 364.90106201171875 C 275.7992248535156 443.7735595703125 319.6171569824219 433.02532958984375 251.29159545898438 433.3787841796875 C 254.83213806152344 413.936279296875 236.7793426513672 389.88153076171875 233.5715789794922 343.91485595703125 C 227.488037109375 317.4872741699219 232.6095428466797 308.1704406738281 257.38922119140625 312.6059265136719 C 278.7445068359375 331.88336181640625 294.20660400390625 350.8346862792969 298.7759704589844 364.90106201171875" stroke-width="0.0" fill="rgb(252, 254, 185)" opacity="0.97667825"/>
    <path d="M 232.74264526367188 263.0255432128906 C 227.09837341308594 277.6838073730469 221.51614379882812 287.8734436035156 213.84571838378906 314.1782531738281 C 169.2979278564453 300.94317626953125 181.01162719726562 307.3326721191406 183.41305541992188 275.4136047363281 C 190.6561737060547 239.41195678710938 196.69882202148438 214.9044952392578 204.47962951660156 221.61569213867188 C 246.78216552734375 230.634033203125 242.1782684326172 240.53030395507812 232.74264526367188 263.0255432128906" stroke-width="0.0" fill="rgb(250, 252, 190)" opacity="0.99399686"/>
    <path d="M 369.1850891113281 155.47235107421875 C 357.1914978027344 106.31558227539062 402.7950134277344 181.43014526367188 301.0682678222656 199.83152770996094 C 327.3150939941406 180.44964599609375 361.7608642578125 162.45745849609375 350.81207275390625 147.0337371826172 C 360.81817626953125 169.83285522460938 358.14862060546875 160.21115112304688 358.4840393066406 142.21603393554688 C 345.8428039550781 155.5174102783203 363.64447021484375 170.11984252929688 369.1850891113281 155.47235107421875" stroke-width="0.0" fill="rgb(251, 173, 13)" opacity="1.0"/>
    <path d="M 307.5752258300781 361.4456787109375 C 225.1382598876953 277.02923583984375 227.5689697265625 330.638671875 249.9381561279297 441.4496765136719 C 172.57431030273438 401.8781433105469 180.49594116210938 368.77435302734375 175.90145874023438 298.6429748535156 C 225.35829162597656 310.48126220703125 216.1971893310547 308.8539123535156 221.01979064941406 294.35205078125 C 231.1407012939453 322.0539855957031 279.210693359375 289.4175720214844 307.5752258300781 361.4456787109375" stroke-width="0.0" fill="rgb(96, 69, 126)" opacity="1.0"/>
    <path d="M 273.5037841796875 290.4587097167969 C 258.69287109375 315.3804931640625 237.93539428710938 286.2801208496094 245.25889587402344 295.2205810546875 C 227.55860900878906 288.0577087402344 222.40773010253906 281.6578674316406 232.91929626464844 273.7967529296875 C 224.0225067138672 280.94635009765625 223.33831787109375 287.126708984375 251.68252563476562 298.0362548828125 C 228.6563262939453 287.95208740234375 266.6033630371094 251.28240966796875 273.5037841796875 290.4587097167969" stroke-width="0.0" fill="rgb(0, 112, 158)" opacity="0.91417664"/>
    <path d="M 246.00254821777344 259.8384704589844 C 241.286376953125 275.6172790527344 240.58670043945312 268.69873046875 242.18606567382812 307.6119689941406 C 211.0023651123047 301.6976013183594 223.1777801513672 288.9769592285156 227.69395446777344 276.44281005859375 C 237.9182586669922 256.2273864746094 234.7585906982422 246.6467742919922 257.00689697265625 230.27963256835938 C 252.6765899658203 248.43511962890625 242.27659606933594 266.7979736328125 246.00254821777344 259.8384704589844" stroke-width="0.0" fill="rgb(87, 69, 118)" opacity="0.58764124"/>
    <path d="M 329.01544189453125 179.0972442626953 C 356.5477294921875 191.66586303710938 298.1543273925781 208.6261444091797 269.51043701171875 191.92225646972656 C 262.4788818359375 189.9770050048828 249.57933044433594 181.34677124023438 233.91285705566406 161.30836486816406 C 241.89944458007812 164.8084259033203 249.93902587890625 136.2605438232422 251.59396362304688 162.1724090576172 C 257.57965087890625 170.75430297851562 279.4256591796875 200.26522827148438 329.01544189453125 179.0972442626953" stroke-width="0.0" fill="rgb(251, 163, 15)" opacity="0.99726623"/>
    <path d="M 423.46636962890625 337.7068786621094 C 423.9945373535156 351.8699645996094 405.89495849609375 379.7702941894531 403.1443176269531 359.22698974609375 C 411.6730651855469 302.3335266113281 402.2358093261719 356.37225341796875 389.5005798339844 335.9865417480469 C 383.2131652832031 301.3172302246094 383.6641845703125 322.64691162109375 418.62774658203125 307.2406921386719 C 424.34637451171875 301.9057922363281 423.6628723144531 307.24102783203125 423.46636962890625 337.7068786621094" stroke-width="0.0" fill="rgb(254, 152, 9)" opacity="0.96391803"/>
    <path d="M 211.32984924316406 334.08892822265625 C 199.72891235351562 362.243896484375 189.0192413330078 298.8298645019531 196.8671112060547 362.07318115234375 C 196.28997802734375 372.7768859863281 176.75904846191406 360.0025939941406 176.6752471923828 333.70916748046875 C 176.4420623779297 307.45965576171875 175.8814697265625 300.40618896484375 181.2465057373047 306.41412353515625 C 216.46734619140625 323.12725830078125 218.27195739746094 301.7284851074219 211.32984924316406 334.08892822265625" stroke-width="0.0" fill="rgb(246, 143, 15)" opacity="1.0"/>
    <path d="M 353.5440673828125 276.4963073730469 C 366.8031921386719 289.7767333984375 352.30938720703125 302.151123046875 342.8024597167969 300.47381591796875 C 332.9107666015625 301.9439697265625 323.52667236328125 286.5263366699219 335.04052734375 277.1959228515625 C 344.6120910644531 269.302001953125 353.9167175292969 275.3058776855469 352.4036865234375 277.2995300292969 C 342.666015625 269.0155029296875 353.67315673828125 275.7868347167969 353.5440673828125 276.4963073730469" stroke-width="0.0" fill="rgb(6, 109, 163)" opacity="0.87821484"/>
    <path d="M 301.5620422363281 285.8648681640625 C 336.5742492675781 248.51132202148438 265.9183349609375 257.7953796386719 294.6993713378906 284.6800537109375 C 325.511962890625 284.4346008300781 278.6439208984375 284.83087158203125 298.3134765625 259.95001220703125 C 277.44488525390625 278.4798278808594 292.6293640136719 251.27593994140625 298.19073486328125 254.6967315673828 C 325.7955017089844 247.76515197753906 322.6540222167969 283.03485107421875 301.5620422363281 285.8648681640625" stroke-width="0.0" fill="rgb(16, 6, 102)" opacity="0.92508245"/>
    <path d="M 452.957275390625 178.77146911621094 C 392.00653076171875 221.7495880126953 433.3076171875 191.7891387939453 405.6389465332031 170.84942626953125 C 384.78167724609375 160.1002960205078 390.5918884277344 182.4667510986328 389.30596923828125 141.8594970703125 C 385.7060241699219 166.67367553710938 395.8959655761719 114.71570587158203 381.4450378417969 102.2950210571289 C 435.0590515136719 102.52706909179688 440.6064453125 124.08731079101562 452.957275390625 178.77146911621094" stroke-width="0.0" fill="rgb(103, 77, 126)" opacity="0.98329186"/>
    <path d="M 349.42218017578125 284.2145080566406 C 335.37115478515625 279.3565368652344 334.74859619140625 295.0100402832031 342.9617614746094 295.5302429199219 C 359.0271911621094 292.9343566894531 341.4636535644531 285.7762756347656 342.4407958984375 281.6468505859375 C 333.5551452636719 291.0489807128906 344.3893737792969 279.4506530761719 345.8206787109375 282.912841796875 C 347.31842041015625 288.7787780761719 353.0786437988281 297.82440185546875 349.42218017578125 284.2145080566406" stroke-width="0.0" fill="rgb(0, 44, 104)" opacity="1.0"/>
    <path d="M 234.26780700683594 138.45169067382812 C 230.07151794433594 126.7340087890625 227.85494995117188 138.47650146484375 231.49166870117188 147.55393981933594 C 234.3091583251953 137.3686065673828 234.8094024658203 135.06796264648438 234.18186950683594 160.56443786621094 C 226.99786376953125 160.8206329345703 233.8644256591797 151.02757263183594 233.2213592529297 146.54336547851562 C 232.3726348876953 157.93145751953125 227.4786376953125 157.63882446289062 234.26780700683594 138.45169067382812" stroke-width="0.0" fill="rgb(0, 0, 74)" opacity="0.70813483"/>
    <path d="M 311.32952880859375 299.35552978515625 C 343.6190490722656 300.22845458984375 322.33074951171875 307.8819885253906 301.51654052734375 304.9574279785156 C 303.66412353515625 306.78857421875 293.3881530761719 302.8421325683594 296.26568603515625 308.47943115234375 C 297.18853759765625 280.5306396484375 335.49798583984375 286.9635009765625 306.9658508300781 244.68377685546875 C 329.3560791015625 228.58412170410156 325.0433044433594 294.8992004394531 311.32952880859375 299.35552978515625" stroke-width="0.0" fill="rgb(254, 240, 163)" opacity="0.7779428"/>
    <path d="M 261.29248046875 283.1192321777344 C 271.2596130371094 287.6635437011719 261.73614501953125 296.8950500488281 256.8000793457031 293.7817077636719 C 260.7995910644531 298.38360595703125 248.6636962890625 287.46533203125 254.18548583984375 292.8039855957031 C 249.76687622070312 283.76239013671875 258.8645324707031 283.8714599609375 264.5542907714844 283.0362854003906 C 251.4414825439453 282.912353515625 253.32696533203125 286.0573425292969 261.29248046875 283.1192321777344" stroke-width="0.0" fill="rgb(3, 21, 68)" opacity="0.99999535"/>
    <path d="M 339.5079345703125 365.7731628417969 C 344.4723815917969 363.3038024902344 328.6065368652344 381.8739929199219 340.19464111328125 392.6273498535156 C 310.4322814941406 390.7916564941406 332.7179870605469 392.6056213378906 340.1747131347656 366.5828857421875 C 316.2950134277344 358.96563720703125 329.90130615234375 361.00408935546875 356.5822448730469 362.8581848144531 C 363.3097839355469 361.27886962890625 379.7745056152344 371.2632141113281 339.5079345703125 365.7731628417969" stroke-width="0.0" fill="rgb(222, 178, 65)" opacity="0.87083405"/>
    <path d="M 327.4196472167969 301.9907531738281 C 299.09149169921875 298.5752258300781 288.4444885253906 305.9632873535156 319.0726623535156 303.0403137207031 C 302.46234130859375 301.7063293457031 280.7339172363281 298.7133483886719 275.2409362792969 302.237060546875 C 296.55401611328125 304.4422302246094 303.5377197265625 304.88726806640625 300.8056335449219 300.71856689453125 C 291.5668640136719 296.6554870605469 306.32305908203125 305.3269958496094 327.4196472167969 301.9907531738281" stroke-width="0.0" fill="rgb(205, 182, 59)" opacity="0.83062464"/>
    <path d="M 259.8960876464844 287.10797119140625 C 258.17864990234375 281.4869384765625 251.02197265625 284.50048828125 255.86859130859375 295.0653381347656 C 252.81475830078125 295.0577697753906 250.00411987304688 284.3810119628906 252.71966552734375 292.1070251464844 C 250.79685974121094 283.3494873046875 259.3982849121094 279.5836181640625 262.96929931640625 283.1927795410156 C 250.55625915527344 282.57830810546875 262.1546936035156 285.9114990234375 259.8960876464844 287.10797119140625" stroke-width="0.0" fill="rgb(0, 61, 124)" opacity="0.69961345"/>
    <path d="M 413.83868408203125 289.0578308105469 C 414.7310485839844 286.7102355957031 391.0509948730469 290.2550354003906 388.2734680175781 293.27838134765625 C 419.9562072753906 290.2572021484375 383.0133972167969 295.5561828613281 406.66497802734375 276.0811767578125 C 378.6186828613281 282.7817077636719 360.0338439941406 282.1472473144531 413.9864807128906 271.8120422363281 C 392.5421142578125 282.5778503417969 393.4957275390625 297.471923828125 413.83868408203125 289.0578308105469" stroke-width="0.0" fill="rgb(208, 175, 85)" opacity="0.91689575"/>
    <path d="M 355.060302734375 408.9949645996094 C 339.8087158203125 403.110595703125 328.10089111328125 409.4090881347656 340.5220031738281 409.2166442871094 C 341.39312744140625 407.3970031738281 332.2955017089844 403.892333984375 317.7332458496094 404.8152160644531 C 338.67816162109375 413.3082275390625 339.60528564453125 404.5184326171875 336.751953125 401.7650146484375 C 340.2928466796875 406.0418395996094 333.6944885253906 410.9250183105469 355.060302734375 408.9949645996094" stroke-width="0.0" fill="rgb(202, 164, 91)" opacity="0.88735664"/>
    <path d="M 341.0540771484375 365.4175720214844 C 341.5762023925781 388.5541076660156 337.4252014160156 393.6547546386719 340.6553039550781 391.7655334472656 C 340.575927734375 359.4190673828125 343.9064025878906 365.6151123046875 334.4004211425781 365.44378662109375 C 309.6585693359375 362.7370910644531 311.6247253417969 364.52630615234375 315.8706359863281 360.14898681640625 C 354.4011535644531 363.7768249511719 389.5200500488281 366.9747314453125 341.0540771484375 365.4175720214844" stroke-width="0.0" fill="rgb(174, 57, 5)" opacity="0.8556482"/>
    <path d="M 262.53826904296875 365.57183837890625 C 264.2337646484375 371.1807556152344 260.5899353027344 392.2335205078125 264.4598693847656 392.42041015625 C 262.9988708496094 378.8428649902344 262.172607421875 364.67144775390625 264.02532958984375 365.36883544921875 C 232.603515625 371.322021484375 231.96951293945312 361.4707946777344 268.8207092285156 362.4212341308594 C 299.140869140625 356.6798095703125 301.4935607910156 366.0039367675781 262.53826904296875 365.57183837890625" stroke-width="0.0" fill="rgb(193, 104, 37)" opacity="0.97724116"/>
    <path d="M 322.9957275390625 241.11070251464844 C 262.11444091796875 229.5468292236328 312.9197692871094 256.64129638671875 298.9166259765625 250.08848571777344 C 285.92401123046875 228.62660217285156 268.60845947265625 262.57159423828125 280.0177917480469 240.90289306640625 C 327.9041748046875 222.4425048828125 280.23602294921875 240.7981719970703 288.5951232910156 220.5986328125 C 334.15802001953125 219.22506713867188 292.66192626953125 223.68978881835938 322.9957275390625 241.11070251464844" stroke-width="0.0" fill="rgb(127, 92, 126)" opacity="1.0"/>
    <path d="M 336.44049072265625 101.12612915039062 C 338.8501892089844 108.26921081542969 338.7972412109375 117.5427017211914 327.9195861816406 109.33305358886719 C 318.347900390625 107.53580474853516 313.2889709472656 99.66700744628906 296.7408752441406 86.94023895263672 C 302.47119140625 85.47509002685547 321.9593811035156 88.44263458251953 326.8829650878906 94.82415008544922 C 318.3860168457031 88.14952850341797 330.66644287109375 95.81807708740234 336.44049072265625 101.12612915039062" stroke-width="0.0" fill="rgb(5, 2, 42)" opacity="0.87845236"/>
    <path d="M 331.49267578125 237.5729522705078 C 331.36395263671875 242.90737915039062 303.9650573730469 234.50730895996094 304.0507507324219 239.04391479492188 C 307.17010498046875 236.38291931152344 279.4619140625 243.34750366210938 284.09796142578125 228.2776641845703 C 304.3895568847656 228.60838317871094 305.718017578125 228.34449768066406 312.165771484375 227.2714385986328 C 310.80010986328125 222.68478393554688 317.7420959472656 223.25244140625 331.49267578125 237.5729522705078" stroke-width="0.0" fill="rgb(248, 255, 194)" opacity="0.94997114"/>
    <path d="M 302.686767578125 229.5526123046875 C 302.3924560546875 214.0835723876953 302.8045654296875 235.9436492919922 302.9515380859375 241.1285858154297 C 301.8276062011719 231.44345092773438 309.2008056640625 229.59268188476562 285.01239013671875 227.58154296875 C 301.2320251464844 226.8474578857422 315.9884338378906 226.28286743164062 306.3085632324219 229.382080078125 C 293.7534484863281 228.9625244140625 306.6253967285156 228.59756469726562 302.686767578125 229.5526123046875" stroke-width="0.0" fill="rgb(248, 220, 133)" opacity="0.37152955"/>
    <path d="M 362.7877502441406 377.2496032714844 C 349.89898681640625 371.37261962890625 332.6983642578125 385.92767333984375 352.2552795410156 392.2718200683594 C 327.5995178222656 394.78778076171875 329.78192138671875 389.3134765625 318.7609558105469 374.68255615234375 C 337.1116943359375 375.2799377441406 349.67840576171875 375.9613342285156 356.49566650390625 375.76629638671875 C 345.1697692871094 377.069091796875 343.9201965332031 380.3770446777344 362.7877502441406 377.2496032714844" stroke-width="0.0" fill="rgb(208, 175, 69)" opacity="0.77876896"/>
    <path d="M 360.3955078125 379.5057678222656 C 360.0653991699219 397.7286071777344 342.67828369140625 387.1261901855469 319.287353515625 390.22991943359375 C 334.1732177734375 386.480224609375 320.495849609375 379.7044982910156 313.2348937988281 376.3357238769531 C 322.6285400390625 378.02435302734375 325.2110290527344 376.7842102050781 327.6919860839844 377.61846923828125 C 322.69512939453125 377.0085144042969 334.4068298339844 377.4234313964844 360.3955078125 379.5057678222656" stroke-width="0.0" fill="rgb(251, 254, 181)" opacity="1.0"/>
    <path d="M 290.4250183105469 121.57584381103516 C 292.5376281738281 118.44084930419922 289.4404296875 121.01594543457031 293.60540771484375 134.53604125976562 C 285.064208984375 143.40963745117188 271.1877136230469 145.02354431152344 253.4937744140625 133.8773956298828 C 250.1717987060547 126.23545837402344 266.9950866699219 91.19944763183594 290.8540954589844 94.255615234375 C 289.4801330566406 129.91070556640625 293.221435546875 138.64920043945312 290.4250183105469 121.57584381103516" stroke-width="0.0" fill="rgb(230, 253, 253)" opacity="0.80969036"/>
    <path d="M 355.35321044921875 477.10736083984375 C 355.04736328125 467.1178894042969 337.3735046386719 477.9596862792969 351.65673828125 468.37921142578125 C 351.8900146484375 470.6378173828125 334.4617919921875 467.6726989746094 336.85076904296875 472.1695861816406 C 350.1230163574219 475.9195251464844 359.04583740234375 461.96197509765625 338.8515625 461.4256896972656 C 356.1562805175781 449.4986267089844 350.59942626953125 466.56329345703125 355.35321044921875 477.10736083984375" stroke-width="0.0" fill="rgb(104, 76, 77)" opacity="0.775695"/>
    <path d="M 269.818115234375 472.4025573730469 C 269.31744384765625 464.5459899902344 244.1592254638672 470.2077331542969 266.0448303222656 472.52130126953125 C 264.7747497558594 474.9981384277344 257.1413269042969 470.2009582519531 249.9540252685547 477.0638122558594 C 263.43975830078125 463.8672790527344 241.8450927734375 451.2997741699219 267.5590515136719 460.7984313964844 C 245.38046264648438 466.18780517578125 259.0920715332031 474.4393310546875 269.818115234375 472.4025573730469" stroke-width="0.0" fill="rgb(131, 87, 88)" opacity="1.0"/>
    <path d="M 285.61602783203125 379.05145263671875 C 282.282958984375 395.235595703125 268.9882507324219 400.3655090332031 267.05816650390625 409.4391174316406 C 265.40380859375 407.9908142089844 270.69732666015625 402.8514404296875 280.78759765625 391.07440185546875 C 247.49696350097656 397.14300537109375 249.0635528564453 386.6854248046875 245.13255310058594 375.4615173339844 C 288.28253173828125 376.5546569824219 290.97467041015625 370.9953308105469 285.61602783203125 379.05145263671875" stroke-width="0.0" fill="rgb(212, 189, 96)" opacity="0.9610644"/>
    <path d="M 306.0729675292969 271.3318176269531 C 305.04400634765625 265.55450439453125 300.8157043457031 271.28631591796875 300.3203125 273.98175048828125 C 309.082275390625 273.8808898925781 304.817626953125 262.69677734375 300.2895202636719 273.75189208984375 C 307.8185119628906 273.1446533203125 308.6458435058594 262.6182861328125 302.149658203125 263.4446105957031 C 295.08056640625 265.04046630859375 293.2136535644531 278.429931640625 306.0729675292969 271.3318176269531" stroke-width="0.0" fill="rgb(13, 18, 77)" opacity="0.90054166"/>
    <path d="M 265.3109130859375 406.11419677734375 C 301.00311279296875 401.4982604980469 282.4495849609375 408.15576171875 267.9842834472656 408.3128356933594 C 270.2154541015625 407.43280029296875 251.58514404296875 410.3308410644531 250.85006713867188 406.7358703613281 C 269.7996520996094 404.7981262207031 271.4053955078125 409.0503845214844 273.58111572265625 389.1617431640625 C 272.1933288574219 390.0372314453125 274.87542724609375 404.30096435546875 265.3109130859375 406.11419677734375" stroke-width="0.0" fill="rgb(203, 171, 95)" opacity="0.90315926"/>
    <path d="M 194.15640258789062 295.505126953125 C 194.565673828125 286.3116149902344 187.9376678466797 294.1645812988281 213.39962768554688 292.28692626953125 C 201.32093811035156 290.0087585449219 184.30450439453125 285.5799865722656 185.567626953125 289.14007568359375 C 194.67930603027344 292.86920166015625 195.3722381591797 290.7706604003906 193.46319580078125 288.4200439453125 C 194.85488891601562 287.0852966308594 193.85826110839844 292.3472595214844 194.15640258789062 295.505126953125" stroke-width="0.0" fill="rgb(206, 172, 90)" opacity="0.8694898"/>
    <path d="M 286.0833435058594 374.7537536621094 C 288.95025634765625 377.30316162109375 283.8684997558594 386.2636413574219 284.0772399902344 390.9299621582031 C 259.6639709472656 386.1644287109375 245.32174682617188 399.9563293457031 244.94113159179688 377.294677734375 C 273.2578430175781 380.2819519042969 286.6937255859375 375.8783264160156 287.3651123046875 376.37298583984375 C 276.62530517578125 369.6224670410156 281.2548522949219 375.75244140625 286.0833435058594 374.7537536621094" stroke-width="0.0" fill="rgb(252, 254, 185)" opacity="0.9743727"/>
    <path d="M 404.6672668457031 241.6625213623047 C 390.2089538574219 248.88363647460938 373.94036865234375 250.2467803955078 366.747314453125 252.6696014404297 C 366.4880065917969 245.58033752441406 375.0715026855469 256.224609375 399.0397644042969 229.0556182861328 C 337.4130859375 250.93023681640625 364.8397521972656 234.32823181152344 401.67510986328125 226.03025817871094 C 378.8506774902344 255.27487182617188 352.7981872558594 251.33596801757812 404.6672668457031 241.6625213623047" stroke-width="0.0" fill="rgb(210, 165, 74)" opacity="0.94192255"/>
    <path d="M 366.6462097167969 157.03945922851562 C 370.21026611328125 147.21961975097656 362.0005187988281 166.52210998535156 370.3121643066406 160.03797912597656 C 371.4881286621094 109.76673889160156 367.5406494140625 154.06373596191406 363.9855041503906 117.63288879394531 C 357.1029052734375 144.8043670654297 365.1014404296875 139.8470916748047 361.931884765625 140.13877868652344 C 366.373291015625 138.8453826904297 364.4562683105469 136.27932739257812 366.6462097167969 157.03945922851562" stroke-width="0.0" fill="rgb(10, 0, 63)" opacity="0.8667038"/>
    <path d="M 234.04580688476562 137.20225524902344 C 236.26641845703125 115.90852355957031 235.4337921142578 116.74697875976562 236.07904052734375 121.3126449584961 C 239.1826629638672 100.89617156982422 264.71051025390625 82.69642639160156 249.28347778320312 100.9206771850586 C 238.0725555419922 125.42406463623047 243.56179809570312 112.11150360107422 243.55551147460938 113.61731719970703 C 237.31297302246094 130.82870483398438 243.1975860595703 145.39859008789062 234.04580688476562 137.20225524902344" stroke-width="0.0" fill="rgb(0, 1, 61)" opacity="0.7013099"/>
    <path d="M 285.37921142578125 351.20379638671875 C 285.8848571777344 341.1639709472656 250.73133850097656 356.23187255859375 259.6452331542969 347.324462890625 C 253.4311981201172 357.20037841796875 247.31956481933594 350.8788146972656 273.3257751464844 339.02947998046875 C 219.63836669921875 349.2778625488281 240.22030639648438 338.37994384765625 277.9438171386719 337.1971130371094 C 242.62847900390625 352.13262939453125 253.13143920898438 354.7152404785156 285.37921142578125 351.20379638671875" stroke-width="0.0" fill="rgb(210, 146, 73)" opacity="0.82674"/>
    <path d="M 342.52398681640625 340.2810363769531 C 355.0384826660156 363.1274108886719 328.1378173828125 348.6521301269531 363.93536376953125 353.54290771484375 C 362.3266296386719 352.81121826171875 314.71575927734375 341.39324951171875 321.8076477050781 351.5933837890625 C 344.7695617675781 349.7562255859375 351.8617858886719 360.6820068359375 341.89715576171875 338.32440185546875 C 367.55706787109375 339.3733215332031 375.95489501953125 345.903076171875 342.52398681640625 340.2810363769531" stroke-width="0.0" fill="rgb(220, 140, 50)" opacity="0.8807335"/>
    <path d="M 230.13426208496094 221.75180053710938 C 224.76483154296875 224.6829833984375 225.11614990234375 231.18063354492188 238.5113067626953 239.33245849609375 C 202.74960327148438 230.8782958984375 195.29563903808594 230.3894805908203 215.07342529296875 224.00543212890625 C 233.3288116455078 218.87440490722656 262.21490478515625 230.9525146484375 210.4653778076172 208.40589904785156 C 200.57327270507812 210.50424194335938 230.41983032226562 217.75845336914062 230.13426208496094 221.75180053710938" stroke-width="0.0" fill="rgb(199, 112, 53)" opacity="0.8751451"/>
    <path d="M 242.40106201171875 223.5823974609375 C 234.8653106689453 245.1123504638672 248.11715698242188 242.276611328125 217.5074920654297 235.48387145996094 C 209.0617218017578 231.74354553222656 204.77774047851562 236.63414001464844 205.34402465820312 222.67201232910156 C 202.13848876953125 230.83969116210938 210.34616088867188 204.68313598632812 208.59812927246094 205.67738342285156 C 223.71932983398438 214.419677734375 234.8783721923828 215.89532470703125 242.40106201171875 223.5823974609375" stroke-width="0.0" fill="rgb(249, 200, 0)" opacity="0.29917344"/>
    <path d="M 397.48370361328125 218.6283721923828 C 387.5476989746094 222.9993896484375 370.34808349609375 228.86013793945312 369.0271911621094 227.4381103515625 C 398.561767578125 220.01483154296875 392.3999938964844 205.60989379882812 357.86993408203125 226.36138916015625 C 354.7003479003906 221.64222717285156 370.84423828125 217.17352294921875 389.7306823730469 206.86929321289062 C 398.5356140136719 211.68089294433594 368.05584716796875 214.7555694580078 397.48370361328125 218.6283721923828" stroke-width="0.0" fill="rgb(205, 128, 39)" opacity="0.9056083"/>
    <path d="M 395.29339599609375 216.4263458251953 C 389.7105712890625 224.33111572265625 378.8179626464844 225.2180938720703 363.8272399902344 233.43807983398438 C 358.1106262207031 234.7493896484375 356.5771789550781 231.68980407714844 370.20574951171875 226.33460998535156 C 375.78118896484375 223.2622833251953 384.7187194824219 220.55325317382812 384.96319580078125 221.49510192871094 C 370.7454528808594 220.6983642578125 380.4211120605469 223.29478454589844 395.29339599609375 216.4263458251953" stroke-width="0.0" fill="rgb(221, 105, 7)" opacity="0.7023676"/>
    <path d="M 203.942626953125 217.2992401123047 C 201.18544006347656 225.49366760253906 213.53659057617188 238.85638427734375 205.79031372070312 248.04298400878906 C 206.87368774414062 238.08433532714844 214.09812927246094 233.07022094726562 198.86114501953125 229.01112365722656 C 215.24473571777344 223.15362548828125 226.62908935546875 229.57235717773438 230.5625762939453 220.00210571289062 C 236.0289764404297 220.10337829589844 235.103515625 227.51820373535156 203.942626953125 217.2992401123047" stroke-width="0.0" fill="rgb(224, 167, 67)" opacity="1.0"/>
    <path d="M 342.8846435546875 349.3271484375 C 370.82012939453125 348.6438903808594 374.059814453125 359.96124267578125 339.3221740722656 351.03070068359375 C 332.6053771972656 351.3676452636719 311.2648010253906 347.4065246582031 338.67254638671875 349.2219543457031 C 347.4322509765625 350.04681396484375 352.9160461425781 334.0685119628906 327.9024658203125 337.76446533203125 C 340.4103698730469 343.20867919921875 352.13372802734375 335.483642578125 342.8846435546875 349.3271484375" stroke-width="0.0" fill="rgb(226, 101, 0)" opacity="0.55155927"/>
    <path d="M 200.7943878173828 244.6389923095703 C 217.8104705810547 260.1315612792969 205.7050018310547 269.56549072265625 204.60577392578125 278.6098327636719 C 193.7923583984375 276.500244140625 205.60557556152344 276.4079895019531 205.4099884033203 275.265869140625 C 207.5414581298828 268.1955261230469 217.31378173828125 257.307861328125 197.845703125 242.31851196289062 C 247.20001220703125 250.8712615966797 243.13064575195312 257.0406799316406 200.7943878173828 244.6389923095703" stroke-width="0.0" fill="rgb(200, 151, 55)" opacity="0.7597757"/>
    <path d="M 275.9991760253906 348.3995056152344 C 295.033935546875 351.6596374511719 269.0263366699219 349.12188720703125 257.6341857910156 353.4241943359375 C 234.64093017578125 353.57464599609375 242.30479431152344 356.7705383300781 243.32313537597656 343.17425537109375 C 242.23699951171875 332.683349609375 243.53390502929688 325.4429626464844 242.7466278076172 348.0851745605469 C 239.5736541748047 354.24957275390625 244.61563110351562 348.05096435546875 275.9991760253906 348.3995056152344" stroke-width="0.0" fill="rgb(221, 119, 26)" opacity="0.77778727"/>
    <path d="M 205.27137756347656 228.0547332763672 C 215.2735595703125 247.2930908203125 200.9741668701172 243.23863220214844 201.37860107421875 261.30242919921875 C 201.2479705810547 260.2833557128906 192.91885375976562 255.0015411376953 206.4369354248047 256.30828857421875 C 205.35877990722656 240.1936798095703 212.2409210205078 235.16586303710938 200.19219970703125 218.92605590820312 C 250.17739868164062 237.23043823242188 256.2508544921875 243.2429656982422 205.27137756347656 228.0547332763672" stroke-width="0.0" fill="rgb(251, 254, 185)" opacity="0.95947057"/>
    <path d="M 192.8568878173828 258.5343322753906 C 214.296875 282.2209167480469 190.60218811035156 275.9365539550781 218.87771606445312 281.3319091796875 C 226.8409423828125 280.1730041503906 204.96438598632812 275.8509826660156 185.99407958984375 272.2304992675781 C 208.53297424316406 284.5411682128906 207.0012969970703 273.0682373046875 190.49612426757812 256.0323791503906 C 243.8853759765625 266.82373046875 230.15005493164062 269.9738464355469 192.8568878173828 258.5343322753906" stroke-width="0.0" fill="rgb(209, 176, 91)" opacity="0.9972831"/>
    <path d="M 409.93194580078125 256.125244140625 C 391.27874755859375 259.3296813964844 381.18994140625 262.978271484375 393.27484130859375 262.34381103515625 C 399.14703369140625 258.23638916015625 383.8742370605469 260.8591613769531 374.5727844238281 265.5671691894531 C 388.27783203125 265.42828369140625 401.64697265625 259.19696044921875 390.33233642578125 260.4422302246094 C 382.2815856933594 263.8866882324219 397.3705749511719 262.9366149902344 409.93194580078125 256.125244140625" stroke-width="0.0" fill="rgb(190, 162, 84)" opacity="0.9114676"/>
    <path d="M 237.32009887695312 336.8348388671875 C 284.3873596191406 333.2231140136719 273.6166687011719 338.70196533203125 246.568603515625 335.68658447265625 C 239.4844512939453 328.0813293457031 231.2892608642578 324.293212890625 245.37942504882812 334.9732971191406 C 240.04576110839844 319.9348449707031 246.814453125 323.3193054199219 255.83758544921875 320.92071533203125 C 235.21548461914062 315.06329345703125 243.05014038085938 314.558349609375 237.32009887695312 336.8348388671875" stroke-width="0.0" fill="rgb(248, 253, 203)" opacity="0.8735227"/>
    <path d="M 237.12173461914062 353.921142578125 C 238.47349548339844 315.3278503417969 248.11819458007812 323.9352111816406 217.5799560546875 332.79730224609375 C 228.70355224609375 352.5122985839844 226.85569763183594 344.7864074707031 233.44329833984375 331.9164123535156 C 220.61532592773438 321.7980041503906 217.9700164794922 310.20452880859375 233.240478515625 296.4000549316406 C 236.00181579589844 328.7071533203125 229.00454711914062 343.7890930175781 237.12173461914062 353.921142578125" stroke-width="0.0" fill="rgb(107, 82, 124)" opacity="0.6222688"/>
    <path d="M 372.0346374511719 137.0362091064453 C 366.2289733886719 138.245361328125 357.4065246582031 139.93264770507812 360.392333984375 137.27865600585938 C 359.2564392089844 144.5546112060547 358.8648986816406 113.24028778076172 358.6976013183594 133.34446716308594 C 356.8184814453125 169.33079528808594 369.92816162109375 167.7574920654297 365.970458984375 138.67596435546875 C 359.6214904785156 138.23434448242188 367.9052429199219 138.3253631591797 372.0346374511719 137.0362091064453" stroke-width="0.0" fill="rgb(244, 245, 236)" opacity="0.6698761"/>
    <path d="M 614.1994018554688 147.39161682128906 C 611.8274536132812 157.7689666748047 606.2837524414062 167.0806121826172 594.3866577148438 183.28396606445312 C 579.0518798828125 170.5211639404297 571.7367553710938 161.65975952148438 561.338623046875 146.92381286621094 C 570.895263671875 132.29879760742188 578.6083374023438 123.73381805419922 593.8804931640625 113.10604095458984 C 605.961181640625 127.9310302734375 611.783447265625 137.0431365966797 614.1994018554688 147.39161682128906" stroke-width="0.0" fill="rgb(103, 77, 126)" opacity="0.9270781"/>
    <path d="M 394.07122802734375 217.186767578125 C 378.3413391113281 226.33807373046875 367.6324768066406 233.3622283935547 399.2513732910156 219.7849884033203 C 359.9991455078125 218.5377655029297 362.4106140136719 225.48841857910156 390.6249694824219 209.31146240234375 C 368.92913818359375 208.7296905517578 375.7427673339844 207.73362731933594 386.04669189453125 210.02366638183594 C 391.5888671875 200.8402099609375 391.9063720703125 206.7682342529297 394.07122802734375 217.186767578125" stroke-width="0.0" fill="rgb(255, 255, 121)" opacity="0.5427391"/>
    <path d="M 49.31332778930664 114.95537567138672 C 47.124000549316406 124.79607391357422 39.80538558959961 132.00244140625 29.749235153198242 134.58203125 C 20.099348068237305 132.22088623046875 12.748775482177734 124.87569427490234 9.666614532470703 115.11373138427734 C 12.95606517791748 105.23448181152344 20.26220703125 97.91533660888672 29.923206329345703 95.57778930664062 C 39.70197296142578 98.04826354980469 47.004417419433594 105.2471694946289 49.31332778930664 114.95537567138672" stroke-width="0.0" fill="rgb(104, 76, 126)" opacity="0.8773114"/>
    <path d="M 602.0255737304688 324.1103210449219 C 588.474365234375 340.1809387207031 579.8138427734375 347.40771484375 564.8343505859375 359.0517578125 C 550.094482421875 349.8966369628906 541.4411010742188 342.1728820800781 528.4974975585938 324.21881103515625 C 540.596435546875 308.46112060546875 549.986328125 301.388671875 566.9765014648438 290.03179931640625 C 582.4848022460938 300.89678955078125 591.3796997070312 308.602783203125 602.0255737304688 324.1103210449219" stroke-width="0.0" fill="rgb(103, 76, 125)" opacity="0.8850999"/>
    <path d="M 478.03765869140625 594.8712768554688 C 444.8811340332031 609.2190551757812 432.3907470703125 610.02001953125 420.91473388671875 611.2254028320312 C 409.613037109375 609.7062377929688 397.7462463378906 608.0223999023438 367.8005065917969 596.1824951171875 C 392.12432861328125 571.126953125 400.6014099121094 562.8280029296875 421.40411376953125 539.9248046875 C 442.1871032714844 560.942138671875 452.77716064453125 567.4473266601562 478.03765869140625 594.8712768554688" stroke-width="0.0" fill="rgb(103, 76, 125)" opacity="1.0"/>
    <path d="M 522.7989501953125 429.1672668457031 C 510.319580078125 447.1863708496094 502.35333251953125 455.4754333496094 485.5704650878906 467.658203125 C 469.6187438964844 455.7481689453125 461.887939453125 447.0536804199219 453.2691650390625 431.3536071777344 C 462.8988952636719 415.9783935546875 470.32073974609375 407.1568298339844 485.46435546875 397.3929138183594 C 502.4115905761719 406.5450134277344 511.6482849121094 413.8438415527344 522.7989501953125 429.1672668457031" stroke-width="0.0" fill="rgb(103, 74, 126)" opacity="0.91179883"/>
    <path d="M 570.6145629882812 31.170211791992188 C 563.4169311523438 44.27819061279297 555.5891723632812 52.32709884643555 542.7271728515625 59.458736419677734 C 530.7538452148438 50.495513916015625 524.4998779296875 41.730018615722656 522.2564697265625 31.177698135375977 C 525.0020751953125 21.075904846191406 532.1574096679688 13.467940330505371 543.9989624023438 4.221285343170166 C 555.658935546875 9.673662185668945 563.4515380859375 17.766319274902344 570.6145629882812 31.170211791992188" stroke-width="0.0" fill="rgb(103, 75, 127)" opacity="0.90926397"/>
    <path d="M 573.5894775390625 459.37445068359375 C 561.4218139648438 474.1426086425781 553.3110961914062 482.4785461425781 537.6566772460938 494.87158203125 C 520.7777709960938 483.576416015625 512.4171142578125 475.4560852050781 499.96270751953125 459.0532531738281 C 513.5028076171875 442.6946105957031 522.117431640625 434.902587890625 536.6322021484375 425.1851501464844 C 551.9703369140625 436.2136535644531 560.9071044921875 443.2870788574219 573.5894775390625 459.37445068359375" stroke-width="0.0" fill="rgb(103, 75, 126)" opacity="0.90336615"/>
    <path d="M 84.36180114746094 541.8524780273438 C 81.36710357666016 551.7135620117188 74.0243911743164 558.9743041992188 63.933509826660156 561.9202270507812 C 53.9223518371582 559.6555786132812 46.5834846496582 552.2471923828125 43.95459747314453 542.0181884765625 C 46.6396369934082 531.635986328125 53.96296310424805 524.3094482421875 64.28904724121094 521.3832397460938 C 74.68081665039062 524.1227416992188 82.01785278320312 531.5188598632812 84.36180114746094 541.8524780273438" stroke-width="0.0" fill="rgb(104, 75, 127)" opacity="0.9820408"/>
    <path d="M 182.5414581298828 225.8560791015625 C 195.4396514892578 217.780517578125 189.4294891357422 222.2562713623047 183.3062286376953 226.31069946289062 C 174.57308959960938 224.26478576660156 167.1353759765625 217.94532775878906 165.05105590820312 210.0136260986328 C 169.16165161132812 201.5041961669922 172.63565063476562 193.7648162841797 171.5835418701172 203.1680450439453 C 175.90866088867188 208.2897186279297 181.04721069335938 217.13404846191406 182.5414581298828 225.8560791015625" stroke-width="0.0" fill="rgb(99, 73, 128)" opacity="0.7673999"/>
    <path d="M 122.60182189941406 517.8303833007812 C 120.60175323486328 529.9119873046875 113.03936004638672 537.2166137695312 101.33363342285156 540.5176391601562 C 91.35108947753906 536.1566772460938 84.04621124267578 528.4444580078125 81.66730499267578 517.9013061523438 C 82.67938995361328 506.8954772949219 90.18745422363281 500.0713195800781 101.39965057373047 499.2004089355469 C 111.0530014038086 501.7630920410156 118.95618438720703 508.60528564453125 122.60182189941406 517.8303833007812" stroke-width="0.0" fill="rgb(102, 75, 126)" opacity="0.97295004"/>
    <path d="M 548.6727294921875 26.558351516723633 C 545.8163452148438 36.78240203857422 538.7985229492188 44.590396881103516 527.2963256835938 53.912166595458984 C 515.3353881835938 47.86308670043945 507.3424072265625 40.1326789855957 497.6492919921875 26.14402961730957 C 505.16949462890625 11.612149238586426 513.0442504882812 3.1697301864624023 528.3677978515625 -4.815023899078369 C 541.4990234375 5.930009365081787 546.9235229492188 15.551466941833496 548.6727294921875 26.558351516723633" stroke-width="0.0" fill="rgb(103, 75, 126)" opacity="1.0"/>
    <path d="M 24.555679321289062 531.3700561523438 C 21.919673919677734 540.9446411132812 14.503652572631836 548.0411987304688 4.903457164764404 551.9302978515625 C -4.855875015258789 548.9474487304688 -12.146100044250488 541.5501708984375 -14.819849967956543 531.5438842773438 C -12.152518272399902 521.5143432617188 -4.9167799949646 513.9594116210938 4.748140811920166 511.7380065917969 C 15.121456146240234 514.4089965820312 22.547361373901367 521.5441284179688 24.555679321289062 531.3700561523438" stroke-width="0.0" fill="rgb(104, 76, 125)" opacity="0.85846585"/>
    <path d="M 170.0534210205078 428.9365234375 C 166.52357482910156 439.6026611328125 159.50494384765625 446.88568115234375 150.31710815429688 448.5255432128906 C 140.42771911621094 446.9784240722656 132.8817901611328 440.1290283203125 127.9722671508789 429.6947326660156 C 132.57089233398438 420.1567687988281 140.1404266357422 413.0534362792969 149.62794494628906 412.96820068359375 C 159.518798828125 414.19830322265625 167.4883270263672 420.5921630859375 170.0534210205078 428.9365234375" stroke-width="0.0" fill="rgb(103, 74, 126)" opacity="0.8121257"/>
    <path d="M 92.19548797607422 333.83135986328125 C 88.31110382080078 344.9689025878906 80.55706787109375 352.4266662597656 70.65323638916016 353.6572265625 C 60.70286560058594 350.5417785644531 52.77708435058594 343.9328308105469 49.109649658203125 335.3455505371094 C 53.48906707763672 325.0965270996094 60.87874984741211 318.0645446777344 71.45838165283203 312.3286437988281 C 81.54829406738281 315.1342468261719 89.07921600341797 322.91015625 92.19548797607422 333.83135986328125" stroke-width="0.0" fill="rgb(103, 75, 125)" opacity="0.9192561"/>
    <path d="M 167.03219604492188 285.0953063964844 C 165.9397430419922 295.1957092285156 159.91519165039062 303.7231750488281 146.91488647460938 316.915771484375 C 135.60716247558594 306.7190856933594 130.44482421875 296.6688232421875 122.24571990966797 280.89013671875 C 111.37226867675781 257.5121154785156 111.00239562988281 241.57308959960938 131.43240356445312 242.68714904785156 C 160.37229919433594 266.50543212890625 166.63587951660156 274.80487060546875 167.03219604492188 285.0953063964844" stroke-width="0.0" fill="rgb(98, 72, 127)" opacity="0.9983355"/>
    <path d="M 218.57008361816406 157.19078063964844 C 211.36322021484375 148.31607055664062 209.23568725585938 152.6223602294922 217.1244659423828 160.20571899414062 C 218.61062622070312 154.8661346435547 214.0593719482422 150.1814727783203 212.29190063476562 156.34503173828125 C 211.57696533203125 164.923583984375 216.90370178222656 155.50958251953125 217.986083984375 155.17666625976562 C 214.29469299316406 158.3667755126953 214.81651306152344 160.37228393554688 218.57008361816406 157.19078063964844" stroke-width="0.0" fill="rgb(214, 232, 194)" opacity="0.35206786"/>
    <path d="M 557.7565307617188 440.0685729980469 C 553.2421875 451.54522705078125 546.4771728515625 459.42242431640625 536.794189453125 461.4315490722656 C 526.6258544921875 457.96063232421875 519.702880859375 450.5510559082031 515.5255737304688 440.25360107421875 C 517.4451293945312 430.2377014160156 524.4578247070312 422.0266418457031 536.0283203125 415.4497375488281 C 547.8029174804688 421.8468933105469 555.3024291992188 429.7452392578125 557.7565307617188 440.0685729980469" stroke-width="0.0" fill="rgb(103, 76, 127)" opacity="1.0"/>
    <path d="M 204.31993103027344 51.83989715576172 C 200.21762084960938 62.50701141357422 191.9712371826172 69.84718322753906 181.05101013183594 74.25372314453125 C 169.10073852539062 68.91092681884766 162.3065643310547 61.202388763427734 160.92599487304688 50.58588790893555 C 162.60528564453125 40.059017181396484 169.71487426757812 32.69153594970703 180.298828125 31.33369255065918 C 190.68499755859375 32.62437057495117 198.29202270507812 39.70606994628906 204.31993103027344 51.83989715576172" stroke-width="0.0" fill="rgb(104, 75, 127)" opacity="0.96734357"/>
    <path d="M 295.9010314941406 473.76556396484375 C 274.45947265625 498.23492431640625 261.72430419921875 497.4248962402344 259.0912780761719 495.258544921875 C 255.25486755371094 496.5535583496094 242.41334533691406 494.6797180175781 240.09210205078125 492.95806884765625 C 244.70111083984375 483.4311218261719 254.88975524902344 476.3334045410156 263.8118896484375 474.5440673828125 C 265.12176513671875 475.63916015625 277.73291015625 467.7457580566406 295.9010314941406 473.76556396484375" stroke-width="0.0" fill="rgb(255, 156, 0)" opacity="1.0"/>
    <path d="M 56.64344024658203 160.90760803222656 C 52.88865661621094 171.18751525878906 45.805118560791016 178.7843017578125 36.37666320800781 182.4862823486328 C 26.282970428466797 178.98822021484375 18.882976531982422 171.70797729492188 16.683757781982422 162.25083923339844 C 19.48885726928711 152.08987426757812 26.448307037353516 144.47607421875 36.27411651611328 142.15147399902344 C 46.63313674926758 144.12091064453125 54.30233383178711 151.18177795410156 56.64344024658203 160.90760803222656" stroke-width="0.0" fill="rgb(103, 75, 124)" opacity="0.9154824"/>
    <path d="M 170.40188598632812 294.67181396484375 C 168.07606506347656 302.8432922363281 163.6886749267578 312.2380676269531 160.97206115722656 317.9211120605469 C 160.6863555908203 325.662353515625 156.44808959960938 318.2696228027344 154.04754638671875 310.1412658691406 C 155.15493774414062 301.23919677734375 161.08201599121094 293.33770751953125 166.91819763183594 293.8045959472656 C 172.56271362304688 300.5699157714844 179.72000122070312 308.1310119628906 170.40188598632812 294.67181396484375" stroke-width="0.0" fill="rgb(99, 73, 127)" opacity="0.7462991"/>
    <path d="M 432.12005615234375 517.1551513671875 C 425.8179626464844 529.2708740234375 417.9367980957031 536.8958129882812 404.59283447265625 544.5232543945312 C 393.2773742675781 537.4429321289062 386.4433288574219 528.8508911132812 381.8984375 516.8676147460938 C 386.0066833496094 504.926025390625 393.4844665527344 497.02587890625 406.004638671875 490.93560791015625 C 418.00543212890625 497.18792724609375 425.8287353515625 504.821533203125 432.12005615234375 517.1551513671875" stroke-width="0.0" fill="rgb(103, 76, 126)" opacity="0.9746284"/>
    <path d="M 106.08367919921875 204.4314422607422 C 98.23323822021484 215.7035675048828 89.85430908203125 222.25852966308594 79.56417846679688 224.58473205566406 C 69.49333190917969 222.25518798828125 61.91990661621094 215.091552734375 59.01059341430664 205.2297821044922 C 62.405818939208984 194.94403076171875 69.67660522460938 187.61114501953125 80.90719604492188 182.7219696044922 C 91.99190521240234 184.5720977783203 100.05252838134766 192.13900756835938 106.08367919921875 204.4314422607422" stroke-width="0.0" fill="rgb(99, 73, 127)" opacity="1.0"/>
    <path d="M 32.369140625 61.285675048828125 C 29.69759178161621 71.13377380371094 22.228796005249023 78.30982208251953 12.468060493469238 80.2222671508789 C 2.610732078552246 78.44739532470703 -4.7521138191223145 71.20944213867188 -7.496377944946289 61.2977409362793 C -4.803293228149414 51.3902587890625 2.588467836380005 44.171512603759766 12.652012825012207 41.12810516357422 C 22.637863159179688 43.841156005859375 29.91611671447754 51.171749114990234 32.369140625 61.285675048828125" stroke-width="0.0" fill="rgb(103, 76, 126)" opacity="0.92973584"/>
    <path d="M 290.85614013671875 593.2931518554688 C 272.89654541015625 605.7262573242188 261.91363525390625 609.5233764648438 250.81362915039062 611.29296875 C 240.0081024169922 609.0983276367188 230.32554626464844 603.716796875 220.6910858154297 595.0075073242188 C 233.28814697265625 581.151123046875 240.97006225585938 574.1862182617188 251.4827423095703 570.7711791992188 C 263.54803466796875 570.8271484375 273.9860534667969 575.314697265625 290.85614013671875 593.2931518554688" stroke-width="0.0" fill="rgb(103, 77, 124)" opacity="1.0"/>
    <path d="M 415.5474548339844 582.39453125 C 413.5115051269531 592.0241088867188 406.3370361328125 599.5084838867188 396.3509216308594 602.1556396484375 C 385.9314270019531 599.6571655273438 377.2310791015625 593.3470458984375 367.96661376953125 583.541259765625 C 377.93316650390625 571.1078491210938 385.0799560546875 562.8243408203125 395.0449523925781 560.1426391601562 C 405.8795471191406 565.1751098632812 413.13330078125 572.379638671875 415.5474548339844 582.39453125" stroke-width="0.0" fill="rgb(104, 77, 125)" opacity="0.75857973"/>
    <path d="M 99.42828369140625 431.6895446777344 C 97.23601531982422 441.1611328125 90.06026458740234 448.52783203125 80.41736602783203 450.2178955078125 C 70.88593292236328 448.7734680175781 63.453853607177734 441.6909484863281 60.78540802001953 432.1770324707031 C 63.909786224365234 422.3001708984375 71.14338684082031 415.0372009277344 80.54327392578125 412.9939880371094 C 90.30937957763672 415.0016174316406 97.72547912597656 422.1378173828125 99.42828369140625 431.6895446777344" stroke-width="0.0" fill="rgb(102, 75, 126)" opacity="0.847579"/>
    <path d="M 604.9583740234375 40.821128845214844 C 603.978759765625 56.17807388305664 600.7379150390625 68.65408325195312 585.8460693359375 81.13235473632812 C 564.9036865234375 62.126953125 558.825439453125 52.7548713684082 558.9746704101562 41.71396255493164 C 561.9631958007812 30.382909774780273 568.3834228515625 21.92491340637207 579.5817260742188 14.362915992736816 C 591.828369140625 20.077829360961914 599.56689453125 27.925912857055664 604.9583740234375 40.821128845214844" stroke-width="0.0" fill="rgb(104, 77, 126)" opacity="0.9175757"/>
    <path d="M 604.3829345703125 336.60498046875 C 600.3150024414062 349.15582275390625 592.1488647460938 356.6535339355469 580.5091552734375 359.3733825683594 C 570.2399291992188 352.427490234375 563.2268676757812 344.841552734375 561.5214233398438 335.59912109375 C 562.0275268554688 325.619384765625 568.7606201171875 317.9223327636719 579.5711669921875 315.9372253417969 C 590.0428466796875 317.7952575683594 598.25537109375 324.6056213378906 604.3829345703125 336.60498046875" stroke-width="0.0" fill="rgb(104, 78, 127)" opacity="0.9697523"/>
    <path d="M 585.3682861328125 77.35697174072266 C 574.8880615234375 100.21489715576172 567.4634399414062 110.39949798583984 543.1285400390625 129.75872802734375 C 516.9485473632812 109.68424224853516 508.2764892578125 100.083251953125 499.7015686035156 82.74507904052734 C 522.4251098632812 64.99403381347656 530.213623046875 58.125823974609375 540.4706420898438 50.997989654541016 C 555.8665771484375 53.83946990966797 566.9467163085938 58.30259704589844 585.3682861328125 77.35697174072266" stroke-width="0.0" fill="rgb(103, 75, 127)" opacity="0.99365085"/>
    <path d="M 170.9463653564453 282.9595642089844 C 171.97381591796875 285.27142333984375 169.6404266357422 297.10009765625 166.61065673828125 308.9234924316406 C 157.6114044189453 306.42047119140625 151.5366668701172 297.7289123535156 151.3634033203125 287.6968688964844 C 152.5061798095703 278.3479919433594 159.44317626953125 271.0697021484375 166.9060821533203 269.82098388671875 C 170.71517944335938 276.0762634277344 174.5708465576172 286.590087890625 170.9463653564453 282.9595642089844" stroke-width="0.0" fill="rgb(99, 75, 127)" opacity="0.72349626"/>
  </g>
</svg>
