<?xml version="1.0" ?>
<svg xmlns="http://www.w3.org/2000/svg" version="1.1" width="600" height="600">
  <defs/>
  <g>
    <path d="M 425.7378845214844 572.6292724609375 C 460.8662109375 624.1614990234375 446.2847900390625 630.8359375 379.7224426269531 662.7236938476562 C 237.50656127929688 628.8041381835938 233.7628631591797 620.1581420898438 215.0349884033203 493.97149658203125 C 198.10646057128906 361.64788818359375 200.82225036621094 365.5098571777344 243.5089111328125 427.2586669921875 C 449.8253173828125 396.7147216796875 418.9477844238281 412.0180969238281 425.7378845214844 572.6292724609375" stroke-width="0.0" fill="rgb(109, 58, 57)" opacity="0.6901893"/>
    <path d="M 533.3004150390625 161.00006103515625 C 513.0317993164062 207.32064819335938 525.8253173828125 215.982421875 404.73736572265625 203.87161254882812 C 374.8256530761719 205.01560974121094 359.169189453125 196.95326232910156 332.99169921875 64.77779388427734 C 303.0615539550781 -17.58536148071289 284.20562744140625 -26.445127487182617 481.37884521484375 -28.302486419677734 C 541.8939819335938 -19.47096061706543 523.6759643554688 -16.567689895629883 533.3004150390625 161.00006103515625" stroke-width="0.0" fill="rgb(209, 9, 191)" opacity="0.970879"/>
    <path d="M 153.41871643066406 111.60004425048828 C 140.7173309326172 263.517333984375 168.13619995117188 297.2111511230469 21.61789321899414 303.88189697265625 C -62.107948303222656 277.1358642578125 -40.4765739440918 239.18048095703125 -28.108556747436523 160.8284912109375 C -30.229219436645508 65.75797271728516 -39.00487518310547 42.90996551513672 -7.611733913421631 24.153892517089844 C 120.78118133544922 46.04764175415039 129.36483764648438 71.85255432128906 153.41871643066406 111.60004425048828" stroke-width="0.0" fill="rgb(131, 12, 168)" opacity="0.98431486"/>
    <path d="M 620.7474975585938 517.4867553710938 C 616.56591796875 639.237548828125 604.7694702148438 634.6653442382812 495.7545471191406 627.96044921875 C 419.19439697265625 638.7179565429688 401.5995788574219 647.0751953125 379.0444030761719 564.4139404296875 C 418.1028137207031 490.4857177734375 455.0548400878906 479.8470764160156 600.157470703125 389.26177978515625 C 643.337646484375 398.7218017578125 628.961181640625 428.28790283203125 620.7474975585938 517.4867553710938" stroke-width="0.0" fill="rgb(136, 13, 160)" opacity="0.9888694"/>
    <path d="M 146.97288513183594 535.2340087890625 C 174.150634765625 596.3675537109375 180.3902587890625 619.2364501953125 69.97085571289062 626.9227905273438 C -11.413976669311523 619.4923706054688 -19.382938385009766 612.0174560546875 -44.52798080444336 555.925048828125 C -21.417922973632812 426.1659240722656 10.913727760314941 422.2057800292969 74.19940948486328 464.7663879394531 C 100.03108215332031 500.33697509765625 120.68097686767578 492.0603332519531 146.97288513183594 535.2340087890625" stroke-width="0.0" fill="rgb(101, 35, 142)" opacity="0.98362994"/>
    <path d="M 623.5061645507812 61.24516296386719 C 624.9036865234375 209.041259765625 630.7615966796875 233.27685546875 617.1492309570312 245.8997039794922 C 448.7179870605469 231.09124755859375 477.94427490234375 232.38674926757812 462.20391845703125 162.3769989013672 C 456.61883544921875 2.586470127105713 433.2513732910156 -36.0556526184082 543.5858154296875 -44.248931884765625 C 655.9218139648438 -11.605144500732422 643.6248779296875 4.533415794372559 623.5061645507812 61.24516296386719" stroke-width="0.0" fill="rgb(137, 6, 154)" opacity="1.0"/>
    <path d="M 625.1633911132812 383.31475830078125 C 600.4349365234375 559.588623046875 539.8679809570312 547.6845092773438 408.9873352050781 563.0133666992188 C 366.58740234375 582.9810791015625 324.1142578125 571.2510986328125 324.5205993652344 458.7051086425781 C 372.0890197753906 380.1079406738281 360.5165100097656 351.07763671875 458.0093688964844 310.5692443847656 C 570.1110229492188 342.18182373046875 604.0149536132812 322.0624084472656 625.1633911132812 383.31475830078125" stroke-width="0.0" fill="rgb(140, 11, 159)" opacity="0.997089"/>
    <path d="M 365.804443359375 22.608047485351562 C 360.7943115234375 193.15057373046875 367.4923095703125 183.1879425048828 229.5358123779297 150.9434051513672 C 124.38255310058594 124.64591979980469 108.53656768798828 110.37835693359375 131.94607543945312 41.297950744628906 C 151.06427001953125 -25.614667892456055 151.29135131835938 -32.354373931884766 244.8083038330078 -45.95160675048828 C 321.33563232421875 -49.55937194824219 338.18310546875 -51.738792419433594 365.804443359375 22.608047485351562" stroke-width="0.0" fill="rgb(193, 1, 245)" opacity="0.9663419"/>
    <path d="M 20.584585189819336 0.8978228569030762 C 17.905092239379883 10.897823333740234 10.584586143493652 18.21833038330078 0.584585964679718 20.897823333740234 C -9.415413856506348 18.21833038330078 -16.73592185974121 10.897823333740234 -19.415414810180664 0.8978228569030762 C -16.73592185974121 -9.102176666259766 -9.415413856506348 -16.422683715820312 0.584585964679718 -19.102176666259766 C 10.584586143493652 -16.422683715820312 17.905092239379883 -9.102176666259766 20.584585189819336 0.8978228569030762" stroke-width="0.0" fill="rgb(171, 5, 26)" opacity="0.7535634" stroke="rgb(166, 60, 25)" stroke-opacity="0.24317218" stroke-linecap="round" stroke-linejoin="round"/>
    <path d="M 297.8148193359375 574.12548828125 C 279.3420104980469 672.8987426757812 251.8807373046875 661.5263061523438 165.07618713378906 648.6590576171875 C 92.91931915283203 619.3071899414062 77.2640609741211 619.9158325195312 66.51604461669922 605.972412109375 C 92.4986801147461 516.2764892578125 90.73114013671875 497.9536437988281 144.34315490722656 485.604248046875 C 249.9922332763672 479.0856018066406 294.2716064453125 458.08111572265625 297.8148193359375 574.12548828125" stroke-width="0.0" fill="rgb(125, 5, 201)" opacity="0.9911234"/>
    <path d="M 20.635684967041016 0.36483219265937805 C 17.956192016601562 10.364831924438477 10.6356840133667 17.685338973999023 0.6356844305992126 20.364831924438477 C -9.3643159866333 17.685338973999023 -16.68482208251953 10.364831924438477 -19.364315032958984 0.36483219265937805 C -16.68482208251953 -9.635168075561523 -9.3643159866333 -16.95567512512207 0.6356844305992126 -19.635168075561523 C 10.6356840133667 -16.95567512512207 17.956192016601562 -9.635168075561523 20.635684967041016 0.36483219265937805" stroke-width="0.0" fill="rgb(51, 41, 41)" opacity="0.89955914" stroke="rgb(133, 91, 223)" stroke-opacity="0.39244512" stroke-linecap="round" stroke-linejoin="round"/>
    <path d="M 187.7337646484375 420.11004638671875 C 164.14198303222656 554.3942260742188 134.9456787109375 552.4874267578125 48.64041519165039 559.33251953125 C -29.452377319335938 550.7495727539062 -39.78687286376953 553.3031616210938 -55.970458984375 384.1588134765625 C -83.36486053466797 286.7277526855469 -104.83344268798828 271.2152099609375 127.74458312988281 242.73577880859375 C 220.6641845703125 259.9625244140625 194.55271911621094 306.24151611328125 187.7337646484375 420.11004638671875" stroke-width="0.0" fill="rgb(127, 4, 203)" opacity="0.9991952"/>
    <path d="M 456.8866882324219 145.13157653808594 C 478.1412353515625 243.73219299316406 460.0043640136719 246.5757293701172 312.4475402832031 231.24595642089844 C 268.77923583984375 116.65382385253906 214.96731567382812 145.36114501953125 177.48451232910156 146.35128784179688 C 229.98167419433594 -1.9318444728851318 210.38919067382812 -31.00711441040039 370.7618408203125 -48.22921371459961 C 428.8016357421875 -52.0194206237793 442.52716064453125 -29.010156631469727 456.8866882324219 145.13157653808594" stroke-width="0.0" fill="rgb(82, 5, 164)" opacity="0.54696256"/>
    <path d="M 200.52259826660156 66.35416412353516 C 213.7538299560547 86.35124206542969 198.32325744628906 150.3076934814453 103.76983642578125 194.92481994628906 C 39.20433807373047 138.19789123535156 18.238994598388672 119.25659942626953 -5.855595588684082 -1.4341315031051636 C -6.11898136138916 -59.159507751464844 20.529417037963867 -39.50538635253906 94.92610168457031 -23.98440170288086 C 171.11647033691406 -18.418947219848633 172.0005340576172 -5.469899654388428 200.52259826660156 66.35416412353516" stroke-width="0.0" fill="rgb(128, 12, 186)" opacity="0.98615867"/>
    <path d="M 20.34025001525879 0.15547950565814972 C 17.660757064819336 10.155479431152344 10.340250968933105 17.47598648071289 0.34025052189826965 20.155479431152344 C -9.659749031066895 17.47598648071289 -16.980257034301758 10.155479431152344 -19.65974998474121 0.15547950565814972 C -16.980257034301758 -9.844520568847656 -9.659749031066895 -17.165027618408203 0.34025052189826965 -19.844520568847656 C 10.340250968933105 -17.165027618408203 17.660757064819336 -9.844520568847656 20.34025001525879 0.15547950565814972" stroke-width="0.0" fill="rgb(203, 160, 20)" opacity="0.97626173" stroke="rgb(15, 70, 205)" stroke-opacity="0.74825966" stroke-linecap="round" stroke-linejoin="round"/>
    <path d="M 627.400146484375 277.9915466308594 C 649.309814453125 380.9729309082031 648.9021606445312 391.7315979003906 579.8635864257812 383.9642333984375 C 384.5249938964844 347.255615234375 370.7525329589844 361.4575500488281 365.6920471191406 229.5078582763672 C 368.3125 194.42236328125 394.9396667480469 199.65237426757812 441.3858642578125 199.04684448242188 C 528.935791015625 206.8756561279297 575.432373046875 199.76071166992188 627.400146484375 277.9915466308594" stroke-width="0.0" fill="rgb(152, 5, 152)" opacity="0.999542"/>
    <path d="M 353.4024963378906 540.7662353515625 C 351.1436767578125 588.1578369140625 340.35198974609375 554.6117553710938 315.2994079589844 537.1124267578125 C 293.9002990722656 534.4201049804688 299.63885498046875 545.4932861328125 276.13592529296875 507.0204162597656 C 231.61355590820312 462.97821044921875 208.98974609375 432.9356384277344 340.1958312988281 418.56683349609375 C 341.3806457519531 439.8356018066406 337.5917053222656 486.47955322265625 353.4024963378906 540.7662353515625" stroke-width="0.0" fill="rgb(193, 190, 17)" opacity="0.96121913"/>
    <path d="M 169.25477600097656 189.95864868164062 C 190.5157470703125 216.7272491455078 167.82626342773438 210.77542114257812 83.6187973022461 278.3822937011719 C 52.98415756225586 267.3731689453125 50.28976058959961 244.24668884277344 51.11991500854492 198.62278747558594 C 60.29569625854492 98.52417755126953 61.53022384643555 101.16619110107422 162.2694854736328 94.23786926269531 C 185.20550537109375 112.78380584716797 163.44424438476562 153.32794189453125 169.25477600097656 189.95864868164062" stroke-width="0.0" fill="rgb(130, 9, 192)" opacity="0.7243123"/>
    <path d="M 419.3795166015625 549.9017333984375 C 416.3757629394531 673.1995239257812 401.3013610839844 670.812744140625 350.12689208984375 661.799560546875 C 278.16925048828125 614.6226806640625 251.6710968017578 624.0884399414062 228.44993591308594 633.857177734375 C 293.12457275390625 530.5447387695312 306.91424560546875 523.0027465820312 345.2637634277344 449.3829650878906 C 415.9783630371094 457.080078125 426.77374267578125 470.6047058105469 419.3795166015625 549.9017333984375" stroke-width="0.0" fill="rgb(137, 0, 194)" opacity="0.98752624"/>
    <path d="M 185.1455841064453 227.4443359375 C 139.89328002929688 290.138671875 136.53262329101562 303.9203186035156 109.92274475097656 297.3236999511719 C 85.5296859741211 281.5389099121094 96.92259979248047 272.959716796875 91.68473815917969 261.9371032714844 C 112.55718994140625 261.7415771484375 114.21426391601562 246.1587677001953 150.14657592773438 238.44223022460938 C 165.906982421875 183.7834014892578 176.04904174804688 176.78964233398438 185.1455841064453 227.4443359375" stroke-width="0.0" fill="rgb(138, 10, 186)" opacity="0.91545886"/>
    <path d="M 202.08197021484375 260.2345886230469 C 224.68881225585938 366.4384460449219 228.83860778808594 393.3098449707031 94.89878845214844 443.94415283203125 C 37.50140380859375 410.2037658691406 82.47061920166016 367.5575256347656 88.5213394165039 306.443603515625 C 91.20875549316406 262.4619140625 95.50440979003906 256.8277282714844 124.17724609375 240.35426330566406 C 170.70973205566406 223.06536865234375 167.4004669189453 248.7439422607422 202.08197021484375 260.2345886230469" stroke-width="0.0" fill="rgb(128, 1, 230)" opacity="0.5658357"/>
    <path d="M 122.72188568115234 219.80972290039062 C 137.8267059326172 277.2295227050781 110.85460662841797 273.88018798828125 54.86460876464844 289.4139709472656 C -23.753814697265625 296.6230163574219 -36.50627899169922 316.0495910644531 -52.78947067260742 225.69290161132812 C -5.389743328094482 189.13706970214844 47.91623306274414 228.38609313964844 32.53518295288086 202.86610412597656 C 98.3733139038086 217.31158447265625 101.20298767089844 221.67881774902344 122.72188568115234 219.80972290039062" stroke-width="0.0" fill="rgb(129, 12, 182)" opacity="0.5249109"/>
    <path d="M 370.056884765625 102.93768310546875 C 376.362060546875 133.7989959716797 347.8043518066406 153.5851593017578 341.7259826660156 193.37867736816406 C 308.1285705566406 104.214111328125 310.94561767578125 85.05464935302734 294.1661376953125 60.217464447021484 C 263.135498046875 24.738649368286133 256.2716369628906 -1.531084656715393 326.62451171875 -41.10551834106445 C 361.8928527832031 23.15679359436035 371.37548828125 36.56304931640625 370.056884765625 102.93768310546875" stroke-width="0.0" fill="rgb(130, 9, 190)" opacity="0.6304135"/>
    <path d="M 103.58619689941406 205.55752563476562 C 118.18510437011719 245.2223358154297 100.34498596191406 225.0584259033203 17.576618194580078 246.92947387695312 C -4.530350208282471 249.61831665039062 -6.621984004974365 229.54701232910156 -43.624271392822266 174.9430389404297 C -25.826574325561523 145.58590698242188 -13.198457717895508 134.28199768066406 18.3710994720459 98.94416046142578 C 99.62896728515625 135.70892333984375 103.91073608398438 143.77857971191406 103.58619689941406 205.55752563476562" stroke-width="0.0" fill="rgb(132, 21, 173)" opacity="0.46774748"/>
    <path d="M 249.97109985351562 427.6634521484375 C 256.8783264160156 537.9175415039062 278.5157470703125 496.21014404296875 202.32818603515625 495.702392578125 C 124.75806427001953 504.3073425292969 137.61187744140625 497.4502868652344 150.2561492919922 507.2701416015625 C 148.53179931640625 409.2149353027344 129.0703887939453 400.33905029296875 197.45240783691406 356.1759338378906 C 239.996826171875 428.9975891113281 220.54458618164062 402.3136291503906 249.97109985351562 427.6634521484375" stroke-width="0.0" fill="rgb(127, 0, 224)" opacity="0.9972062"/>
    <path d="M 210.90292358398438 223.2316131591797 C 228.659912109375 256.2750549316406 317.06805419921875 257.6515808105469 184.9874725341797 263.3625183105469 C 144.60487365722656 223.6251983642578 138.3480224609375 209.26333618164062 156.71144104003906 239.36984252929688 C 133.83982849121094 211.62225341796875 132.23983764648438 169.23196411132812 157.6747589111328 168.6229248046875 C 213.40211486816406 157.9224090576172 196.0692138671875 155.32098388671875 210.90292358398438 223.2316131591797" stroke-width="0.0" fill="rgb(171, 250, 107)" opacity="0.2675928"/>
    <path d="M 297.5542297363281 245.94534301757812 C 210.92779541015625 280.473876953125 248.06674194335938 374.7444763183594 194.4690704345703 414.1875915527344 C 139.5200958251953 283.2287292480469 204.25559997558594 284.6257629394531 162.7171173095703 249.2637481689453 C 143.372802734375 279.2312316894531 139.63534545898438 260.21551513671875 194.6056671142578 248.04669189453125 C 250.21839904785156 285.77960205078125 217.52175903320312 274.94732666015625 297.5542297363281 245.94534301757812" stroke-width="0.0" fill="rgb(0, 88, 96)" opacity="1.0"/>
    <path d="M 188.50534057617188 132.62290954589844 C 219.98684692382812 181.82569885253906 182.26055908203125 186.894775390625 129.2685546875 182.19189453125 C 105.38695526123047 173.9696807861328 70.70050048828125 179.79525756835938 38.663883209228516 110.04328155517578 C 20.532949447631836 86.14756774902344 79.9740219116211 90.79266357421875 134.4894256591797 85.67459869384766 C 172.03372192382812 91.06829833984375 199.59359741210938 85.73725891113281 188.50534057617188 132.62290954589844" stroke-width="0.0" fill="rgb(130, 11, 190)" opacity="0.42303768"/>
    <path d="M 123.7707748413086 284.52459716796875 C 136.1786651611328 364.4074401855469 137.9530029296875 386.9903869628906 75.38055419921875 452.72637939453125 C -59.6173095703125 439.30072021484375 -54.97967529296875 407.94989013671875 -53.540748596191406 308.2027893066406 C -17.019224166870117 213.24085998535156 -15.253458976745605 215.34469604492188 62.99420166015625 218.87451171875 C 116.20633697509766 228.07919311523438 103.39593505859375 210.46859741210938 123.7707748413086 284.52459716796875" stroke-width="0.0" fill="rgb(125, 19, 174)" opacity="0.5604168"/>
    <path d="M 307.6872863769531 190.64027404785156 C 283.57794189453125 208.75491333007812 245.87655639648438 140.28501892089844 208.6775360107422 190.86119079589844 C 133.1753692626953 184.26168823242188 138.85205078125 173.57876586914062 193.36207580566406 181.24000549316406 C 189.5737762451172 128.04763793945312 206.8723907470703 110.9294204711914 187.52708435058594 128.2833251953125 C 197.89662170410156 137.77557373046875 219.6864471435547 137.7681427001953 307.6872863769531 190.64027404785156" stroke-width="0.0" fill="rgb(167, 254, 146)" opacity="0.43229643"/>
    <path d="M 192.3750762939453 254.26173400878906 C 157.0419158935547 250.76657104492188 159.16281127929688 271.189697265625 143.01821899414062 312.5043029785156 C 128.10986328125 271.5896301269531 134.5338897705078 236.01519775390625 133.06869506835938 226.90013122558594 C 109.74759674072266 224.1346435546875 121.27779388427734 204.94627380371094 117.08649444580078 209.0740966796875 C 176.24900817871094 215.75914001464844 188.13980102539062 211.526611328125 192.3750762939453 254.26173400878906" stroke-width="0.0" fill="rgb(126, 3, 203)" opacity="0.53447896"/>
    <path d="M 357.80194091796875 178.7046356201172 C 344.5972595214844 193.34048461914062 320.667236328125 141.698974609375 292.71832275390625 192.96429443359375 C 231.59861755371094 128.73446655273438 192.78785705566406 146.379638671875 174.11746215820312 135.22386169433594 C 196.39454650878906 128.48312377929688 176.98524475097656 133.45028686523438 223.33407592773438 148.05419921875 C 297.7590026855469 140.58450317382812 314.6111145019531 110.04153442382812 357.80194091796875 178.7046356201172" stroke-width="0.0" fill="rgb(0, 73, 101)" opacity="1.0"/>
    <path d="M 186.94638061523438 535.468017578125 C 192.15499877929688 674.5811157226562 175.78163146972656 689.8463134765625 77.8868637084961 647.92822265625 C 40.58731460571289 621.3568115234375 56.37166976928711 618.5966186523438 35.03264236450195 565.9913940429688 C 5.462263584136963 521.4317626953125 24.425371170043945 517.2586669921875 51.95460891723633 487.37841796875 C 142.8591766357422 494.0915222167969 177.84938049316406 477.3482360839844 186.94638061523438 535.468017578125" stroke-width="0.0" fill="rgb(125, 13, 186)" opacity="0.7235537"/>
    <path d="M 94.24755859375 550.7311401367188 C 101.4290771484375 601.6090698242188 105.16178131103516 649.0386352539062 56.17738342285156 672.0189208984375 C -14.865934371948242 612.8892211914062 -19.700546264648438 601.753173828125 -44.79673767089844 543.614501953125 C -40.21105194091797 495.0777282714844 -24.1335391998291 487.6533203125 66.35759735107422 503.73858642578125 C 89.65909576416016 508.9282531738281 78.42710876464844 525.0650634765625 94.24755859375 550.7311401367188" stroke-width="0.0" fill="rgb(123, 16, 181)" opacity="0.8570887"/>
    <path d="M 264.3658447265625 217.6065673828125 C 259.2312927246094 223.31375122070312 254.08587646484375 235.49569702148438 246.62112426757812 235.58563232421875 C 255.1584930419922 236.6286163330078 233.35597229003906 232.20367431640625 231.0291290283203 216.0408172607422 C 231.99169921875 198.20895385742188 241.68045043945312 195.19935607910156 247.65211486816406 190.61602783203125 C 264.15277099609375 188.98353576660156 273.6948547363281 203.14793395996094 264.3658447265625 217.6065673828125" stroke-width="0.0" fill="rgb(0, 78, 74)" opacity="1.0"/>
    <path d="M 20.957212448120117 0.3365945518016815 C 18.277719497680664 10.336594581604004 10.957213401794434 17.657100677490234 0.9572130441665649 20.336593627929688 C -9.042786598205566 17.657100677490234 -16.36329460144043 10.336594581604004 -19.042787551879883 0.3365945518016815 C -16.36329460144043 -9.663405418395996 -9.042786598205566 -16.98391342163086 0.9572130441665649 -19.663406372070312 C 10.957213401794434 -16.98391342163086 18.277719497680664 -9.663405418395996 20.957212448120117 0.3365945518016815" stroke-width="0.0" fill="rgb(47, 53, 94)" opacity="0.8854764" stroke="rgb(94, 117, 190)" stroke-opacity="0.0366832" stroke-linecap="round" stroke-linejoin="round"/>
    <path d="M 337.2687072753906 432.9317321777344 C 352.4027404785156 405.15570068359375 288.3923034667969 406.1006774902344 304.0709533691406 426.3197021484375 C 317.7126159667969 420.49627685546875 301.8996887207031 422.9032287597656 249.86944580078125 418.75927734375 C 273.6123962402344 433.4190368652344 262.1877136230469 405.53460693359375 258.1237487792969 403.07513427734375 C 282.9673156738281 400.3975830078125 368.05389404296875 434.76885986328125 337.2687072753906 432.9317321777344" stroke-width="0.0" fill="rgb(255, 240, 29)" opacity="0.721967"/>
    <path d="M 20.079792022705078 0.23279088735580444 C 17.400299072265625 10.23279094696045 10.079792022705078 17.55329704284668 0.07979197800159454 20.232789993286133 C -9.920207977294922 17.55329704284668 -17.24071502685547 10.23279094696045 -19.920207977294922 0.23279088735580444 C -17.24071502685547 -9.76720905303955 -9.920207977294922 -17.087717056274414 0.07979197800159454 -19.767210006713867 C 10.079792022705078 -17.087717056274414 17.400299072265625 -9.76720905303955 20.079792022705078 0.23279088735580444" stroke-width="0.0" fill="rgb(193, 151, 120)" opacity="0.8046605" stroke="rgb(237, 211, 246)" stroke-opacity="0.124297224" stroke-linecap="round" stroke-linejoin="round"/>
    <path d="M 20.315452575683594 0.2677408754825592 C 17.63595962524414 10.267741203308105 10.315452575683594 17.588247299194336 0.31545305252075195 20.26774024963379 C -9.684547424316406 17.588247299194336 -17.005054473876953 10.267741203308105 -19.684547424316406 0.2677408754825592 C -17.005054473876953 -9.732258796691895 -9.684547424316406 -17.052766799926758 0.31545305252075195 -19.73225975036621 C 10.315452575683594 -17.052766799926758 17.63595962524414 -9.732258796691895 20.315452575683594 0.2677408754825592" stroke-width="0.0" fill="rgb(13, 85, 204)" opacity="0.8000497" stroke="rgb(101, 137, 234)" stroke-opacity="0.346346" stroke-linecap="round" stroke-linejoin="round"/>
    <path d="M 383.2274169921875 180.6029052734375 C 411.3184814453125 235.30177307128906 366.41876220703125 249.5865020751953 310.9029235839844 262.3072204589844 C 265.6575927734375 266.2500915527344 244.73794555664062 232.78582763671875 274.4361877441406 205.76148986816406 C 302.0253601074219 190.8163299560547 307.1338195800781 172.75003051757812 328.4955749511719 167.9536590576172 C 385.3376770019531 119.88505554199219 373.376708984375 127.51220703125 383.2274169921875 180.6029052734375" stroke-width="0.0" fill="rgb(255, 254, 220)" opacity="0.9921828"/>
    <path d="M 287.1581115722656 443.51837158203125 C 221.545166015625 416.1156311035156 175.1305694580078 433.2574462890625 192.48399353027344 435.3839111328125 C 179.32826232910156 423.905517578125 174.05178833007812 435.65838623046875 178.777587890625 451.4471130371094 C 212.209716796875 456.77667236328125 212.5181427001953 445.9814147949219 186.98667907714844 430.9847717285156 C 208.9892120361328 455.51910400390625 243.87905883789062 468.49090576171875 287.1581115722656 443.51837158203125" stroke-width="0.0" fill="rgb(203, 185, 10)" opacity="0.9971584"/>
    <path d="M 137.29588317871094 431.9602966308594 C 161.95030212402344 447.592529296875 133.75779724121094 462.7741394042969 113.01626586914062 444.91680908203125 C 117.59996795654297 459.797119140625 54.008846282958984 464.57403564453125 21.948163986206055 443.4632568359375 C 64.50202178955078 420.3971862792969 83.39350128173828 434.2142639160156 76.91073608398438 432.672119140625 C 86.84536743164062 431.1162414550781 145.07769775390625 429.3921813964844 137.29588317871094 431.9602966308594" stroke-width="0.0" fill="rgb(204, 169, 47)" opacity="0.99277633"/>
    <path d="M 148.9325714111328 452.3346862792969 C 126.19467163085938 426.17852783203125 156.94525146484375 416.30120849609375 170.76063537597656 448.7432556152344 C 122.45219421386719 460.38702392578125 89.09734344482422 461.6716613769531 24.6931095123291 449.0130615234375 C 66.41680908203125 416.1895446777344 79.00469970703125 426.8482971191406 87.3627700805664 433.1178894042969 C 99.92400360107422 430.2672424316406 122.97666931152344 434.17572021484375 148.9325714111328 452.3346862792969" stroke-width="0.0" fill="rgb(139, 100, 16)" opacity="0.27196443"/>
    <path d="M 355.9309997558594 256.7475891113281 C 359.6220703125 273.32037353515625 339.52069091796875 280.1373596191406 324.111572265625 273.1885681152344 C 260.8395080566406 278.04766845703125 283.4841613769531 298.1876525878906 289.5718994140625 226.0811309814453 C 299.62554931640625 191.5333251953125 316.5006103515625 180.83868408203125 337.96575927734375 183.83937072753906 C 346.3198547363281 166.12168884277344 365.2856140136719 180.3242950439453 355.9309997558594 256.7475891113281" stroke-width="0.0" fill="rgb(255, 246, 204)" opacity="0.55788934"/>
    <path d="M 355.16986083984375 373.65704345703125 C 343.3237609863281 370.4416809082031 374.6246643066406 427.0599365234375 298.3861389160156 406.4208679199219 C 355.8946838378906 385.6587829589844 329.0284729003906 341.2132873535156 287.2306823730469 329.2256774902344 C 261.9321594238281 295.9304504394531 219.06460571289062 244.32699584960938 333.2663879394531 254.4477996826172 C 333.6314392089844 279.9893798828125 330.4451904296875 320.0410461425781 355.16986083984375 373.65704345703125" stroke-width="0.0" fill="rgb(255, 255, 241)" opacity="0.55882627"/>
    <path d="M 357.54205322265625 210.18264770507812 C 348.4111633300781 229.9315643310547 333.3999328613281 234.6228790283203 323.005126953125 220.31573486328125 C 316.5169982910156 216.3102569580078 315.9778137207031 213.90213012695312 316.8240051269531 223.17599487304688 C 307.77276611328125 207.2136993408203 315.0518493652344 195.9707794189453 328.3714904785156 193.54971313476562 C 337.1788635253906 187.9842529296875 354.1043701171875 190.82138061523438 357.54205322265625 210.18264770507812" stroke-width="0.0" fill="rgb(0, 39, 71)" opacity="1.0"/>
    <path d="M 255.5176239013672 459.66473388671875 C 132.5206298828125 461.77593994140625 78.64850616455078 457.53125 77.28948974609375 462.676025390625 C 82.2964859008789 431.9194641113281 93.30109405517578 420.82568359375 114.20301818847656 436.1514892578125 C 137.6896514892578 433.3124694824219 132.4508056640625 422.7084045410156 102.05455017089844 432.1723327636719 C 127.66019439697266 434.9485778808594 197.16336059570312 409.5769348144531 255.5176239013672 459.66473388671875" stroke-width="0.0" fill="rgb(201, 191, 0)" opacity="0.9990201"/>
    <path d="M 101.83050537109375 434.0072326660156 C 106.15574645996094 433.0669860839844 103.45848083496094 415.6034851074219 120.74224853515625 461.6312561035156 C 121.69041442871094 451.0965270996094 6.347978115081787 477.01123046875 -173.540283203125 436.6206970214844 C 16.247203826904297 419.4429931640625 98.47337341308594 430.4795837402344 123.47583770751953 427.82562255859375 C 143.5662078857422 468.0588073730469 113.6485824584961 470.305908203125 101.83050537109375 434.0072326660156" stroke-width="0.0" fill="rgb(222, 240, 0)" opacity="0.99964863"/>
    <path d="M 493.5884704589844 73.13513946533203 C 496.7439880371094 148.605224609375 510.8604736328125 186.0403289794922 472.6905822753906 152.20281982421875 C 427.6492919921875 124.77062225341797 400.150146484375 123.97765350341797 429.52435302734375 98.12223815917969 C 414.9046325683594 46.82361602783203 417.5948486328125 55.499698638916016 466.005126953125 77.74004364013672 C 485.7851867675781 59.51697540283203 490.5191955566406 30.235694885253906 493.5884704589844 73.13513946533203" stroke-width="0.0" fill="rgb(138, 9, 165)" opacity="0.9552383"/>
    <path d="M 20.264881134033203 0.24662750959396362 C 17.58538818359375 10.246627807617188 10.264880180358887 17.567134857177734 0.2648801803588867 20.246627807617188 C -9.735119819641113 17.567134857177734 -17.055625915527344 10.246627807617188 -19.735118865966797 0.24662750959396362 C -17.055625915527344 -9.753372192382812 -9.735119819641113 -17.07387924194336 0.2648801803588867 -19.753372192382812 C 10.264880180358887 -17.07387924194336 17.58538818359375 -9.753372192382812 20.264881134033203 0.24662750959396362" stroke-width="0.0" fill="rgb(112, 102, 142)" opacity="0.7545784" stroke="rgb(219, 241, 95)" stroke-opacity="0.27074468" stroke-linecap="round" stroke-linejoin="round"/>
    <path d="M 487.111572265625 -22.0815372467041 C 489.502685546875 92.08705139160156 502.9888916015625 111.08515930175781 443.1261901855469 83.2294692993164 C 404.68634033203125 143.07534790039062 411.2662658691406 94.7363510131836 405.4810791015625 30.95077133178711 C 394.7167663574219 -13.275196075439453 398.4068908691406 -8.269128799438477 440.4555969238281 -27.917837142944336 C 460.8981018066406 -36.18574905395508 464.93817138671875 -25.85112190246582 487.111572265625 -22.0815372467041" stroke-width="0.0" fill="rgb(136, 11, 168)" opacity="0.9789615"/>
    <path d="M 350.0794372558594 192.16017150878906 C 373.58941650390625 235.92799377441406 307.5112609863281 315.09100341796875 277.5278015136719 214.74110412597656 C 343.08685302734375 256.4497375488281 369.72119140625 210.41871643066406 341.527099609375 247.76148986816406 C 361.5107421875 247.2505340576172 339.17413330078125 283.14129638671875 374.5311279296875 272.2231750488281 C 333.5563659667969 313.2840881347656 391.15472412109375 244.56959533691406 350.0794372558594 192.16017150878906" stroke-width="0.0" fill="rgb(254, 232, 227)" opacity="0.4904862"/>
    <path d="M 354.1427307128906 140.65524291992188 C 339.8739013671875 146.01551818847656 327.3935546875 142.35208129882812 323.1144104003906 144.85751342773438 C 334.3932800292969 139.93276977539062 296.9949645996094 137.5108642578125 223.7637939453125 144.79522705078125 C 207.35877990722656 86.19170379638672 250.99566650390625 100.60745239257812 331.4845275878906 99.53680419921875 C 324.19183349609375 129.85223388671875 346.9342041015625 118.91576385498047 354.1427307128906 140.65524291992188" stroke-width="0.0" fill="rgb(134, 0, 219)" opacity="0.90252095"/>
    <path d="M 393.36541748046875 396.6781005859375 C 384.119384765625 408.7649230957031 374.6304931640625 397.4128723144531 386.6581115722656 423.7823181152344 C 400.8436279296875 443.2591247558594 337.2036437988281 407.3642578125 325.6115417480469 459.40167236328125 C 458.4079284667969 456.6149597167969 477.7713623046875 469.6050109863281 458.95599365234375 430.5977478027344 C 383.8770446777344 423.7206726074219 373.8642578125 440.0229187011719 393.36541748046875 396.6781005859375" stroke-width="0.0" fill="rgb(216, 166, 0)" opacity="0.99881417"/>
    <path d="M 265.27362060546875 -20.574193954467773 C 239.53929138183594 5.134628772735596 241.75054931640625 30.326017379760742 221.54649353027344 61.4906005859375 C 214.5061492919922 14.222517013549805 211.28343200683594 3.742464542388916 197.61566162109375 -21.73664665222168 C 205.21707153320312 -5.351903438568115 220.65985107421875 -5.557380676269531 225.43136596679688 -8.806206703186035 C 230.27291870117188 -11.715812683105469 249.7382049560547 -14.5092191696167 265.27362060546875 -20.574193954467773" stroke-width="0.0" fill="rgb(152, 39, 71)" opacity="0.99094164"/>
    <path d="M 20.98952293395996 0.6399997472763062 C 18.310029983520508 10.639999389648438 10.989522933959961 17.960506439208984 0.9895233511924744 20.639999389648438 C -9.010477066040039 17.960506439208984 -16.330984115600586 10.639999389648438 -19.01047706604004 0.6399997472763062 C -16.330984115600586 -9.360000610351562 -9.010477066040039 -16.68050765991211 0.9895233511924744 -19.360000610351562 C 10.989522933959961 -16.68050765991211 18.310029983520508 -9.360000610351562 20.98952293395996 0.6399997472763062" stroke-width="0.0" fill="rgb(64, 88, 46)" opacity="0.8750175" stroke="rgb(102, 117, 241)" stroke-opacity="0.1533514" stroke-linecap="round" stroke-linejoin="round"/>
    <path d="M 282.16949462890625 8.592696189880371 C 255.96826171875 40.060970306396484 258.5570373535156 75.1654281616211 197.97128295898438 123.07981872558594 C 149.42068481445312 80.46414184570312 146.69158935546875 36.91118621826172 159.18222045898438 -8.711999893188477 C 172.65362548828125 -40.998992919921875 189.18313598632812 -38.04345703125 217.32473754882812 -24.81690788269043 C 228.0993194580078 -11.512328147888184 245.4250946044922 -6.735101222991943 282.16949462890625 8.592696189880371" stroke-width="0.0" fill="rgb(131, 13, 192)" opacity="0.97422796"/>
    <path d="M 599.1365356445312 214.46934509277344 C 694.337646484375 384.9696960449219 698.5806884765625 429.751220703125 373.3149108886719 428.30084228515625 C 369.7355651855469 261.2222900390625 416.3090515136719 205.719970703125 369.7852478027344 166.21240234375 C 407.6550598144531 122.83427429199219 420.5111999511719 103.40998077392578 420.8872985839844 99.08135986328125 C 425.4444580078125 128.96766662597656 449.038330078125 130.1430206298828 599.1365356445312 214.46934509277344" stroke-width="0.0" fill="rgb(140, 2, 178)" opacity="0.9999242"/>
    <path d="M 20.210983276367188 0.9429097175598145 C 17.531490325927734 10.942909240722656 10.210983276367188 18.263416290283203 0.21098284423351288 20.942909240722656 C -9.789016723632812 18.263416290283203 -17.10952377319336 10.942909240722656 -19.789016723632812 0.9429097175598145 C -17.10952377319336 -9.057090759277344 -9.789016723632812 -16.37759780883789 0.21098284423351288 -19.057090759277344 C 10.210983276367188 -16.37759780883789 17.531490325927734 -9.057090759277344 20.210983276367188 0.9429097175598145" stroke-width="0.0" fill="rgb(88, 188, 115)" opacity="0.83573186" stroke="rgb(35, 44, 127)" stroke-opacity="0.41892546" stroke-linecap="round" stroke-linejoin="round"/>
    <path d="M 352.0960693359375 155.5203094482422 C 366.08221435546875 155.60531616210938 307.46832275390625 158.7860107421875 307.8548889160156 171.9339599609375 C 287.35272216796875 186.98651123046875 288.8531188964844 178.9160919189453 346.54095458984375 145.28465270996094 C 281.8268127441406 137.39678955078125 290.7707824707031 146.6274871826172 290.2559509277344 160.7704620361328 C 297.6831359863281 184.8106689453125 300.01690673828125 179.65875244140625 352.0960693359375 155.5203094482422" stroke-width="0.0" fill="rgb(0, 71, 110)" opacity="0.9051603"/>
    <path d="M 275.8162536621094 182.1880340576172 C 252.12754821777344 199.68209838867188 284.5982666015625 210.49000549316406 255.27369689941406 274.3482360839844 C 280.9576416015625 274.84600830078125 294.1346435546875 254.47482299804688 273.8554382324219 262.83807373046875 C 285.57952880859375 250.6831817626953 260.2283630371094 258.6545715332031 263.5083312988281 218.69781494140625 C 278.0636291503906 224.67127990722656 313.2321472167969 219.6201934814453 275.8162536621094 182.1880340576172" stroke-width="0.0" fill="rgb(143, 255, 168)" opacity="0.11222492"/>
    <path d="M 285.3280944824219 231.2015838623047 C 281.9593200683594 223.33749389648438 321.9744567871094 244.7313690185547 301.04180908203125 272.48895263671875 C 276.8768310546875 246.10531616210938 272.1184997558594 224.29824829101562 289.30523681640625 221.18153381347656 C 317.0355224609375 222.956787109375 307.591796875 253.89161682128906 297.9935302734375 259.1219787597656 C 297.870361328125 259.6913146972656 287.36517333984375 258.1617736816406 285.3280944824219 231.2015838623047" stroke-width="0.0" fill="rgb(255, 178, 0)" opacity="1.0"/>
    <path d="M 347.0827331542969 438.41070556640625 C 303.1754150390625 531.5952758789062 264.7926330566406 518.9221801757812 277.0942077636719 493.3568115234375 C 272.1726379394531 495.388427734375 261.9866027832031 494.786376953125 264.8092041015625 487.1280822753906 C 255.01544189453125 488.0751037597656 243.2845916748047 470.92352294921875 237.19418334960938 440.000732421875 C 342.32110595703125 489.706298828125 328.597412109375 405.31591796875 347.0827331542969 438.41070556640625" stroke-width="0.0" fill="rgb(177, 186, 37)" opacity="0.6617605"/>
    <path d="M 392.7506408691406 128.4857635498047 C 373.1227722167969 157.44845581054688 346.39935302734375 158.26512145996094 322.6614074707031 169.76556396484375 C 309.11138916015625 173.78573608398438 314.7947082519531 171.18380737304688 311.4433288574219 180.32948303222656 C 334.5193786621094 139.62754821777344 342.5475158691406 145.20774841308594 380.1623229980469 109.87274169921875 C 385.1971740722656 167.38858032226562 344.45928955078125 137.33819580078125 392.7506408691406 128.4857635498047" stroke-width="0.0" fill="rgb(0, 76, 34)" opacity="1.0"/>
    <path d="M 289.9568176269531 214.8289794921875 C 241.20953369140625 182.10723876953125 234.90802001953125 192.73748779296875 235.24668884277344 179.57240295410156 C 225.3325653076172 166.956298828125 180.1088104248047 202.02073669433594 219.1381378173828 265.6465759277344 C 162.4447479248047 188.6717529296875 212.67262268066406 130.6845703125 165.55397033691406 149.33143615722656 C 198.4007110595703 175.7412567138672 243.03067016601562 153.92523193359375 289.9568176269531 214.8289794921875" stroke-width="0.0" fill="rgb(209, 241, 144)" opacity="0.13477941"/>
    <path d="M 196.95059204101562 148.2606658935547 C 203.29881286621094 169.2438201904297 226.1979217529297 130.95907592773438 168.2639923095703 229.8936004638672 C 119.26953887939453 277.8598937988281 118.46772003173828 258.6512756347656 131.10340881347656 175.2294921875 C 165.3568572998047 102.37189483642578 153.18255615234375 77.14861297607422 179.965576171875 88.32737731933594 C 243.78741455078125 72.08802032470703 254.48971557617188 122.25025177001953 196.95059204101562 148.2606658935547" stroke-width="0.0" fill="rgb(135, 4, 207)" opacity="1.0"/>
    <path d="M 324.906005859375 263.1461181640625 C 343.1803283691406 274.7872009277344 318.5702819824219 276.0637512207031 358.7024841308594 263.7928771972656 C 343.58062744140625 241.26431274414062 300.7144470214844 276.2108459472656 302.8657531738281 264.21343994140625 C 298.3353576660156 245.43411254882812 301.9718017578125 256.9024658203125 302.5751037597656 248.79783630371094 C 310.34423828125 251.49073791503906 330.543701171875 270.7220458984375 324.906005859375 263.1461181640625" stroke-width="0.0" fill="rgb(187, 185, 116)" opacity="0.06109933"/>
    <path d="M 298.7901611328125 414.8486328125 C 303.8437194824219 471.55010986328125 304.9438171386719 448.39984130859375 342.7509765625 448.9752197265625 C 341.97247314453125 403.9085693359375 317.1505126953125 433.73919677734375 316.9623718261719 409.21600341796875 C 308.2818908691406 408.1319580078125 314.6631774902344 431.67578125 315.99322509765625 428.6670837402344 C 331.4098815917969 425.26611328125 355.15386962890625 429.98004150390625 298.7901611328125 414.8486328125" stroke-width="0.0" fill="rgb(255, 161, 0)" opacity="1.0"/>
    <path d="M 319.9918212890625 253.36663818359375 C 317.8068542480469 262.6217041015625 327.36346435546875 261.32708740234375 337.5981140136719 264.87713623046875 C 314.4989013671875 277.12158203125 284.08392333984375 283.4236145019531 229.80484008789062 248.88311767578125 C 283.8077392578125 251.53900146484375 288.8397216796875 267.2043762207031 292.74127197265625 288.2549133300781 C 284.1826171875 264.8573303222656 309.85931396484375 243.65325927734375 319.9918212890625 253.36663818359375" stroke-width="0.0" fill="rgb(161, 243, 71)" opacity="0.24238116"/>
    <path d="M 20.53622817993164 0.9731157422065735 C 17.856735229492188 10.973115921020508 10.53622817993164 18.293622970581055 0.5362281203269958 20.973115921020508 C -9.46377182006836 18.293622970581055 -16.784278869628906 10.973115921020508 -19.46377182006836 0.9731157422065735 C -16.784278869628906 -9.026884078979492 -9.46377182006836 -16.34739112854004 0.5362281203269958 -19.026884078979492 C 10.53622817993164 -16.34739112854004 17.856735229492188 -9.026884078979492 20.53622817993164 0.9731157422065735" stroke-width="0.0" fill="rgb(72, 92, 164)" opacity="0.80682904" stroke="rgb(251, 154, 60)" stroke-opacity="0.10178247" stroke-linecap="round" stroke-linejoin="round"/>
    <path d="M 20.370180130004883 0.2095070332288742 C 17.69068717956543 10.20950698852539 10.3701810836792 17.530014038085938 0.37018096446990967 20.20950698852539 C -9.6298189163208 17.530014038085938 -16.950326919555664 10.20950698852539 -19.629819869995117 0.2095070332288742 C -16.950326919555664 -9.79049301147461 -9.6298189163208 -17.111000061035156 0.37018096446990967 -19.79049301147461 C 10.3701810836792 -17.111000061035156 17.69068717956543 -9.79049301147461 20.370180130004883 0.2095070332288742" stroke-width="0.0" fill="rgb(208, 111, 96)" opacity="0.7904134" stroke="rgb(190, 128, 59)" stroke-opacity="0.8995746" stroke-linecap="round" stroke-linejoin="round"/>
    <path d="M 397.9644775390625 318.9954528808594 C 390.76275634765625 320.62115478515625 417.1497497558594 337.5621643066406 356.53997802734375 338.9010009765625 C 340.91241455078125 329.9166564941406 342.05047607421875 319.8205261230469 336.273193359375 310.6238098144531 C 319.281005859375 288.46856689453125 338.1138000488281 266.2712707519531 362.1031494140625 262.274169921875 C 391.8433532714844 258.7832946777344 404.4360656738281 290.48651123046875 397.9644775390625 318.9954528808594" stroke-width="0.0" fill="rgb(141, 201, 17)" opacity="0.6530796"/>
    <path d="M 370.4432067871094 446.7447814941406 C 362.3526916503906 440.03125 343.8106689453125 443.974853515625 340.60760498046875 454.0184020996094 C 337.0686950683594 472.56353759765625 320.4136962890625 463.65435791015625 326.0484313964844 435.6667175292969 C 321.6542053222656 412.87506103515625 368.0099182128906 432.8049621582031 350.62078857421875 440.7896728515625 C 346.7571716308594 422.1476745605469 348.31005859375 435.8819274902344 370.4432067871094 446.7447814941406" stroke-width="0.0" fill="rgb(233, 157, 0)" opacity="0.57654625"/>
    <path d="M 395.2727355957031 257.3309631347656 C 418.67169189453125 282.4067077636719 425.80316162109375 346.5066223144531 390.7447814941406 423.00714111328125 C 356.3514709472656 357.0827331542969 347.8411865234375 324.9452209472656 353.79644775390625 282.62286376953125 C 362.89190673828125 261.7733459472656 369.3439636230469 243.71914672851562 346.0475769042969 253.96905517578125 C 372.7824401855469 242.5913848876953 377.8056640625 237.26925659179688 395.2727355957031 257.3309631347656" stroke-width="0.0" fill="rgb(0, 36, 46)" opacity="1.0"/>
    <path d="M 20.556949615478516 0.6846142411231995 C 17.877456665039062 10.684614181518555 10.556949615478516 18.0051212310791 0.5569497346878052 20.684614181518555 C -9.443050384521484 18.0051212310791 -16.76355743408203 10.684614181518555 -19.443050384521484 0.6846142411231995 C -16.76355743408203 -9.315385818481445 -9.443050384521484 -16.635892868041992 0.5569497346878052 -19.315385818481445 C 10.556949615478516 -16.635892868041992 17.877456665039062 -9.315385818481445 20.556949615478516 0.6846142411231995" stroke-width="0.0" fill="rgb(149, 129, 155)" opacity="0.9616372" stroke="rgb(237, 144, 177)" stroke-opacity="0.92249936" stroke-linecap="round" stroke-linejoin="round"/>
    <path d="M 20.3785343170166 0.5520406365394592 C 17.69904136657715 10.552041053771973 10.378534317016602 17.872547149658203 0.37853437662124634 20.552040100097656 C -9.621465682983398 17.872547149658203 -16.941972732543945 10.552041053771973 -19.6214656829834 0.5520406365394592 C -16.941972732543945 -9.447958946228027 -9.621465682983398 -16.76846694946289 0.37853437662124634 -19.447959899902344 C 10.378534317016602 -16.76846694946289 17.69904136657715 -9.447958946228027 20.3785343170166 0.5520406365394592" stroke-width="0.0" fill="rgb(38, 62, 40)" opacity="0.78552854" stroke="rgb(44, 228, 20)" stroke-opacity="0.5245114" stroke-linecap="round" stroke-linejoin="round"/>
    <path d="M 269.3408508300781 159.2471923828125 C 266.3202819824219 179.53472900390625 227.53404235839844 152.79139709472656 212.8642120361328 150.65956115722656 C 169.05746459960938 133.5073699951172 180.224365234375 126.5741958618164 209.22152709960938 134.5321807861328 C 203.61001586914062 153.5535125732422 208.11672973632812 151.4078826904297 196.7551727294922 110.84199523925781 C 213.7719268798828 119.81095886230469 229.07041931152344 142.58241271972656 269.3408508300781 159.2471923828125" stroke-width="0.0" fill="rgb(0, 82, 80)" opacity="1.0"/>
    <path d="M 352.74652099609375 277.0573425292969 C 350.7698669433594 254.79344177246094 341.7300720214844 263.09075927734375 283.39422607421875 263.7734069824219 C 313.0915832519531 278.7732849121094 321.205322265625 253.12228393554688 332.88702392578125 293.2651672363281 C 358.05535888671875 275.5183410644531 351.2192077636719 261.8130187988281 355.92645263671875 269.2626037597656 C 356.14752197265625 266.7337646484375 364.33135986328125 265.80767822265625 352.74652099609375 277.0573425292969" stroke-width="0.0" fill="rgb(136, 254, 78)" opacity="0.33470255"/>
    <path d="M 341.2170104980469 271.9689025878906 C 236.84133911132812 253.2997589111328 229.61700439453125 276.9132080078125 224.57852172851562 218.54830932617188 C 301.4961242675781 241.9112548828125 269.76812744140625 229.81756591796875 260.1988830566406 250.77670288085938 C 298.93780517578125 254.2927703857422 270.0992431640625 264.2344970703125 258.340087890625 275.8123779296875 C 228.3014373779297 300.9334716796875 303.7783203125 306.37091064453125 341.2170104980469 271.9689025878906" stroke-width="0.0" fill="rgb(220, 255, 196)" opacity="0.6992792"/>
    <path d="M 396.0835876464844 268.68682861328125 C 416.3713073730469 347.2115478515625 409.9974670410156 321.4175109863281 359.8088684082031 305.40386962890625 C 348.7100524902344 275.9162292480469 361.85174560546875 270.79974365234375 352.9921875 296.13079833984375 C 351.2386169433594 264.6517028808594 358.3399658203125 255.20069885253906 360.4078369140625 263.1753845214844 C 394.92822265625 261.3516845703125 392.8011474609375 259.4178466796875 396.0835876464844 268.68682861328125" stroke-width="0.0" fill="rgb(0, 40, 23)" opacity="0.36474028"/>
    <path d="M 200.1433868408203 245.04818725585938 C 172.79881286621094 273.4248046875 176.9969940185547 294.41400146484375 166.7262725830078 302.7757568359375 C 146.61903381347656 281.4360046386719 155.84915161132812 275.7545471191406 153.70709228515625 312.7174377441406 C 150.2383575439453 263.75628662109375 139.9061279296875 226.26231384277344 183.65733337402344 189.2661590576172 C 181.8416748046875 242.1604461669922 202.9192352294922 250.04432678222656 200.1433868408203 245.04818725585938" stroke-width="0.0" fill="rgb(125, 0, 228)" opacity="1.0"/>
    <path d="M 20.876367568969727 0.314677894115448 C 18.196874618530273 10.314678192138672 10.876367568969727 17.63518524169922 0.8763676285743713 20.314678192138672 C -9.123632431030273 17.63518524169922 -16.44413948059082 10.314678192138672 -19.123632431030273 0.314677894115448 C -16.44413948059082 -9.685321807861328 -9.123632431030273 -17.005828857421875 0.8763676285743713 -19.685321807861328 C 10.876367568969727 -17.005828857421875 18.196874618530273 -9.685321807861328 20.876367568969727 0.314677894115448" stroke-width="0.0" fill="rgb(233, 92, 148)" opacity="0.70392835" stroke="rgb(169, 45, 245)" stroke-opacity="0.14866273" stroke-linecap="round" stroke-linejoin="round"/>
    <path d="M 20.829404830932617 0.6185197234153748 C 18.149911880493164 10.61851978302002 10.829404830932617 17.93902587890625 0.8294046521186829 20.618518829345703 C -9.170595169067383 17.93902587890625 -16.49110221862793 10.61851978302002 -19.170595169067383 0.6185197234153748 C -16.49110221862793 -9.38148021697998 -9.170595169067383 -16.701988220214844 0.8294046521186829 -19.381481170654297 C 10.829404830932617 -16.701988220214844 18.149911880493164 -9.38148021697998 20.829404830932617 0.6185197234153748" stroke-width="0.0" fill="rgb(104, 250, 28)" opacity="0.99084115" stroke="rgb(220, 208, 65)" stroke-opacity="0.17088759" stroke-linecap="round" stroke-linejoin="round"/>
    <path d="M 212.8911590576172 229.10609436035156 C 187.31996154785156 196.72032165527344 178.97998046875 225.45660400390625 199.28948974609375 188.89451599121094 C 190.41720581054688 194.78155517578125 207.06375122070312 188.48756408691406 219.8882293701172 191.55845642089844 C 259.6233825683594 211.89068603515625 240.2091522216797 159.52955627441406 224.4072723388672 192.4383544921875 C 220.07106018066406 186.6847686767578 230.1598358154297 177.95404052734375 212.8911590576172 229.10609436035156" stroke-width="0.0" fill="rgb(254, 251, 138)" opacity="0.1118048"/>
    <path d="M 20.655439376831055 0.39563190937042236 C 17.9759464263916 10.395631790161133 10.655438423156738 17.71613883972168 0.6554386615753174 20.395631790161133 C -9.344561576843262 17.71613883972168 -16.665067672729492 10.395631790161133 -19.344560623168945 0.39563190937042236 C -16.665067672729492 -9.604368209838867 -9.344561576843262 -16.924875259399414 0.6554386615753174 -19.604368209838867 C 10.655438423156738 -16.924875259399414 17.9759464263916 -9.604368209838867 20.655439376831055 0.39563190937042236" stroke-width="0.0" fill="rgb(105, 21, 254)" opacity="0.8786155" stroke="rgb(17, 191, 53)" stroke-opacity="0.8980543" stroke-linecap="round" stroke-linejoin="round"/>
    <path d="M 20.914546966552734 0.4588518440723419 C 18.23505401611328 10.45885181427002 10.91454792022705 17.779359817504883 0.9145475625991821 20.458852767944336 C -9.08545207977295 17.779359817504883 -16.405960083007812 10.45885181427002 -19.085453033447266 0.4588518440723419 C -16.405960083007812 -9.54114818572998 -9.08545207977295 -16.86165428161621 0.9145475625991821 -19.541147232055664 C 10.91454792022705 -16.86165428161621 18.23505401611328 -9.54114818572998 20.914546966552734 0.4588518440723419" stroke-width="0.0" fill="rgb(52, 48, 9)" opacity="0.86945236" stroke="rgb(16, 197, 115)" stroke-opacity="0.5243903" stroke-linecap="round" stroke-linejoin="round"/>
    <path d="M 20.639427185058594 0.02501075528562069 C 17.95993423461914 10.02501106262207 10.639427185058594 17.345518112182617 0.6394268274307251 20.02501106262207 C -9.360572814941406 17.345518112182617 -16.681079864501953 10.02501106262207 -19.360572814941406 0.02501075528562069 C -16.681079864501953 -9.97498893737793 -9.360572814941406 -17.295495986938477 0.6394268274307251 -19.97498893737793 C 10.639427185058594 -17.295495986938477 17.95993423461914 -9.97498893737793 20.639427185058594 0.02501075528562069" stroke-width="0.0" fill="rgb(237, 220, 11)" opacity="0.812939" stroke="rgb(206, 251, 38)" stroke-opacity="0.5941307" stroke-linecap="round" stroke-linejoin="round"/>
    <path d="M 262.0535888671875 284.7998046875 C 252.7036590576172 260.08642578125 231.51339721679688 297.22613525390625 295.221923828125 285.6991882324219 C 280.8582763671875 214.3751220703125 243.303466796875 258.3533630371094 243.7376251220703 254.79623413085938 C 271.7671813964844 260.0329895019531 294.30291748046875 251.52200317382812 225.46237182617188 256.3846435546875 C 238.737060546875 323.44488525390625 240.7205047607422 311.0325927734375 262.0535888671875 284.7998046875" stroke-width="0.0" fill="rgb(211, 255, 184)" opacity="1.0"/>
    <path d="M 20.09274673461914 0.09671637415885925 C 17.413253784179688 10.096715927124023 10.092745780944824 17.41722297668457 0.092745840549469 20.096715927124023 C -9.907254219055176 17.41722297668457 -17.227760314941406 10.096715927124023 -19.90725326538086 0.09671637415885925 C -17.227760314941406 -9.903284072875977 -9.907254219055176 -17.223791122436523 0.092745840549469 -19.903284072875977 C 10.092745780944824 -17.223791122436523 17.413253784179688 -9.903284072875977 20.09274673461914 0.09671637415885925" stroke-width="0.0" fill="rgb(64, 181, 228)" opacity="0.85963404" stroke="rgb(27, 114, 135)" stroke-opacity="0.2424705" stroke-linecap="round" stroke-linejoin="round"/>
    <path d="M 20.266977310180664 0.9366545677185059 C 17.58748435974121 10.936655044555664 10.26697826385498 18.25716209411621 0.26697781682014465 20.936655044555664 C -9.73302173614502 18.25716209411621 -17.053529739379883 10.936655044555664 -19.733022689819336 0.9366545677185059 C -17.053529739379883 -9.063344955444336 -9.73302173614502 -16.383852005004883 0.26697781682014465 -19.063344955444336 C 10.26697826385498 -16.383852005004883 17.58748435974121 -9.063344955444336 20.266977310180664 0.9366545677185059" stroke-width="0.0" fill="rgb(97, 138, 231)" opacity="0.7350694" stroke="rgb(239, 160, 85)" stroke-opacity="0.13927208" stroke-linecap="round" stroke-linejoin="round"/>
    <path d="M 352.0810852050781 269.1683654785156 C 410.8993225097656 250.00030517578125 393.6529541015625 188.5371856689453 373.1488037109375 175.25631713867188 C 348.0111083984375 173.9107208251953 374.7744140625 194.04295349121094 368.54718017578125 226.9461669921875 C 362.6732177734375 246.13011169433594 372.2923889160156 232.84732055664062 365.9542541503906 234.9202880859375 C 345.8038330078125 241.17478942871094 315.5233154296875 277.7586975097656 352.0810852050781 269.1683654785156" stroke-width="0.0" fill="rgb(255, 253, 161)" opacity="0.99161017"/>
    <path d="M 305.40911865234375 287.26080322265625 C 345.8074645996094 257.87237548828125 324.0869140625 250.2641143798828 298.9633483886719 251.8430938720703 C 297.75634765625 280.217529296875 343.31378173828125 268.2416076660156 311.4498291015625 254.29904174804688 C 280.81005859375 279.68707275390625 299.84393310546875 274.2431945800781 301.6766052246094 279.7690734863281 C 312.1101989746094 280.5682678222656 289.12786865234375 282.55535888671875 305.40911865234375 287.26080322265625" stroke-width="0.0" fill="rgb(228, 247, 195)" opacity="0.3978936"/>
    <path d="M 20.86170768737793 0.5773521661758423 C 18.182214736938477 10.577352523803711 10.861706733703613 17.897859573364258 0.8617069125175476 20.57735252380371 C -9.138293266296387 17.897859573364258 -16.458799362182617 10.577352523803711 -19.13829231262207 0.5773521661758423 C -16.458799362182617 -9.422647476196289 -9.138293266296387 -16.743154525756836 0.8617069125175476 -19.42264747619629 C 10.861706733703613 -16.743154525756836 18.182214736938477 -9.422647476196289 20.86170768737793 0.5773521661758423" stroke-width="0.0" fill="rgb(170, 236, 141)" opacity="0.7839937" stroke="rgb(196, 47, 82)" stroke-opacity="0.42543644" stroke-linecap="round" stroke-linejoin="round"/>
    <path d="M 20.2750301361084 0.22321073710918427 C 17.595537185668945 10.223210334777832 10.275029182434082 17.543718338012695 0.27502933144569397 20.22321128845215 C -9.724970817565918 17.543718338012695 -17.04547691345215 10.223210334777832 -19.7249698638916 0.22321073710918427 C -17.04547691345215 -9.776789665222168 -9.724970817565918 -17.0972957611084 0.27502933144569397 -19.77678871154785 C 10.275029182434082 -17.0972957611084 17.595537185668945 -9.776789665222168 20.2750301361084 0.22321073710918427" stroke-width="0.0" fill="rgb(97, 247, 214)" opacity="0.84060794" stroke="rgb(105, 69, 14)" stroke-opacity="0.8647224" stroke-linecap="round" stroke-linejoin="round"/>
    <path d="M 20.84749412536621 0.6037260293960571 C 18.168001174926758 10.603726387023926 10.847494125366211 17.924232482910156 0.84749436378479 20.60372543334961 C -9.152505874633789 17.924232482910156 -16.473012924194336 10.603726387023926 -19.15250587463379 0.6037260293960571 C -16.473012924194336 -9.396273612976074 -9.152505874633789 -16.716781616210938 0.84749436378479 -19.39627456665039 C 10.847494125366211 -16.716781616210938 18.168001174926758 -9.396273612976074 20.84749412536621 0.6037260293960571" stroke-width="0.0" fill="rgb(68, 96, 5)" opacity="0.7634344" stroke="rgb(83, 30, 227)" stroke-opacity="0.59359246" stroke-linecap="round" stroke-linejoin="round"/>
    <path d="M 20.842851638793945 0.775999903678894 C 18.163358688354492 10.776000022888184 10.842851638793945 18.096506118774414 0.8428519368171692 20.775999069213867 C -9.157148361206055 18.096506118774414 -16.4776554107666 10.776000022888184 -19.157148361206055 0.775999903678894 C -16.4776554107666 -9.223999977111816 -9.157148361206055 -16.54450798034668 0.8428519368171692 -19.224000930786133 C 10.842851638793945 -16.54450798034668 18.163358688354492 -9.223999977111816 20.842851638793945 0.775999903678894" stroke-width="0.0" fill="rgb(180, 38, 146)" opacity="0.8272392" stroke="rgb(187, 238, 236)" stroke-opacity="0.45083937" stroke-linecap="round" stroke-linejoin="round"/>
    <path d="M 20.73647117614746 0.6766994595527649 C 18.056978225708008 10.6766996383667 10.736471176147461 17.99720573425293 0.7364712357521057 20.676698684692383 C -9.263528823852539 17.99720573425293 -16.584035873413086 10.6766996383667 -19.26352882385254 0.6766994595527649 C -16.584035873413086 -9.3233003616333 -9.263528823852539 -16.643808364868164 0.7364712357521057 -19.323301315307617 C 10.736471176147461 -16.643808364868164 18.056978225708008 -9.3233003616333 20.73647117614746 0.6766994595527649" stroke-width="0.0" fill="rgb(207, 254, 254)" opacity="0.93069625" stroke="rgb(240, 216, 63)" stroke-opacity="0.45054415" stroke-linecap="round" stroke-linejoin="round"/>
    <path d="M 238.34840393066406 413.75396728515625 C 233.3563995361328 415.6649169921875 232.79554748535156 396.42755126953125 210.3201904296875 400.9461669921875 C 209.15985107421875 414.5989074707031 231.4994354248047 401.2762145996094 248.37625122070312 428.3094177246094 C 212.71095275878906 439.7189636230469 173.71401977539062 421.9310302734375 206.80052185058594 401.7927551269531 C 240.12091064453125 383.31219482421875 243.36074829101562 415.6513671875 238.34840393066406 413.75396728515625" stroke-width="0.0" fill="rgb(97, 14, 255)" opacity="0.043339644"/>
    <path d="M 20.39940071105957 0.21932075917720795 C 17.719907760620117 10.219320297241211 10.39940071105957 17.539827346801758 0.3994005024433136 20.21932029724121 C -9.60059928894043 17.539827346801758 -16.921106338500977 10.219320297241211 -19.60059928894043 0.21932075917720795 C -16.921106338500977 -9.780679702758789 -9.60059928894043 -17.101186752319336 0.3994005024433136 -19.78067970275879 C 10.39940071105957 -17.101186752319336 17.719907760620117 -9.780679702758789 20.39940071105957 0.21932075917720795" stroke-width="0.0" fill="rgb(184, 218, 211)" opacity="0.90042555" stroke="rgb(52, 74, 228)" stroke-opacity="0.013001923" stroke-linecap="round" stroke-linejoin="round"/>
    <path d="M 231.7696075439453 245.9190216064453 C 268.44720458984375 253.8768310546875 266.3228454589844 283.0564270019531 254.15090942382812 291.51507568359375 C 283.3409729003906 278.2938232421875 281.44451904296875 269.1795654296875 278.3529968261719 285.5997619628906 C 286.4194641113281 276.0106506347656 279.0445556640625 293.2699890136719 240.1754150390625 313.8979797363281 C 248.2577667236328 248.78598022460938 238.48974609375 236.4468994140625 231.7696075439453 245.9190216064453" stroke-width="0.0" fill="rgb(191, 200, 114)" opacity="0.10843626"/>
    <path d="M 20.171138763427734 0.7291268110275269 C 17.49164581298828 10.729126930236816 10.171138763427734 18.049633026123047 0.17113864421844482 20.7291259765625 C -9.828861236572266 18.049633026123047 -17.149368286132812 10.729126930236816 -19.828861236572266 0.7291268110275269 C -17.149368286132812 -9.270873069763184 -9.828861236572266 -16.591381072998047 0.17113864421844482 -19.2708740234375 C 10.171138763427734 -16.591381072998047 17.49164581298828 -9.270873069763184 20.171138763427734 0.7291268110275269" stroke-width="0.0" fill="rgb(8, 145, 194)" opacity="0.8026245" stroke="rgb(209, 28, 215)" stroke-opacity="0.12748866" stroke-linecap="round" stroke-linejoin="round"/>
    <path d="M 20.892179489135742 0.08693883568048477 C 18.21268653869629 10.086938858032227 10.892179489135742 17.407445907592773 0.892179548740387 20.086938858032227 C -9.107820510864258 17.407445907592773 -16.428327560424805 10.086938858032227 -19.107820510864258 0.08693883568048477 C -16.428327560424805 -9.913061141967773 -9.107820510864258 -17.23356819152832 0.892179548740387 -19.913061141967773 C 10.892179489135742 -17.23356819152832 18.21268653869629 -9.913061141967773 20.892179489135742 0.08693883568048477" stroke-width="0.0" fill="rgb(32, 243, 154)" opacity="0.9015102" stroke="rgb(157, 91, 28)" stroke-opacity="0.6715732" stroke-linecap="round" stroke-linejoin="round"/>
    <path d="M 20.704572677612305 0.045824382454156876 C 18.02507972717285 10.04582405090332 10.704571723937988 17.366331100463867 0.7045718431472778 20.04582405090332 C -9.295428276062012 17.366331100463867 -16.615934371948242 10.04582405090332 -19.295427322387695 0.045824382454156876 C -16.615934371948242 -9.95417594909668 -9.295428276062012 -17.274682998657227 0.7045718431472778 -19.95417594909668 C 10.704571723937988 -17.274682998657227 18.02507972717285 -9.95417594909668 20.704572677612305 0.045824382454156876" stroke-width="0.0" fill="rgb(129, 61, 29)" opacity="0.78658915" stroke="rgb(148, 39, 122)" stroke-opacity="0.53258944" stroke-linecap="round" stroke-linejoin="round"/>
    <path d="M 332.83612060546875 280.4687194824219 C 316.6019592285156 212.03045654296875 300.9636535644531 258.51092529296875 309.6407470703125 274.17681884765625 C 310.1654052734375 253.0933380126953 314.1266174316406 237.80059814453125 327.814697265625 230.3290557861328 C 305.2238464355469 245.74546813964844 300.2473449707031 247.2889404296875 289.0803527832031 273.0311279296875 C 292.57373046875 287.89642333984375 289.7850646972656 294.1956787109375 332.83612060546875 280.4687194824219" stroke-width="0.0" fill="rgb(211, 250, 186)" opacity="0.7475015"/>
    <path d="M 20.42192268371582 0.02979721873998642 C 17.742429733276367 10.029797554016113 10.421921730041504 17.350303649902344 0.42192181944847107 20.029796600341797 C -9.578078269958496 17.350303649902344 -16.898584365844727 10.029797554016113 -19.57807731628418 0.02979721873998642 C -16.898584365844727 -9.970202445983887 -9.578078269958496 -17.29071044921875 0.42192181944847107 -19.970203399658203 C 10.421921730041504 -17.29071044921875 17.742429733276367 -9.970202445983887 20.42192268371582 0.02979721873998642" stroke-width="0.0" fill="rgb(132, 196, 132)" opacity="0.86557204" stroke="rgb(143, 223, 102)" stroke-opacity="0.13401523" stroke-linecap="round" stroke-linejoin="round"/>
    <path d="M 20.101001739501953 0.27797359228134155 C 17.4215087890625 10.277973175048828 10.101001739501953 17.598480224609375 0.10100142657756805 20.277973175048828 C -9.898998260498047 17.598480224609375 -17.219505310058594 10.277973175048828 -19.898998260498047 0.27797359228134155 C -17.219505310058594 -9.722026824951172 -9.898998260498047 -17.04253387451172 0.10100142657756805 -19.722026824951172 C 10.101001739501953 -17.04253387451172 17.4215087890625 -9.722026824951172 20.101001739501953 0.27797359228134155" stroke-width="0.0" fill="rgb(186, 239, 46)" opacity="0.9223362" stroke="rgb(146, 214, 35)" stroke-opacity="0.7952673" stroke-linecap="round" stroke-linejoin="round"/>
    <path d="M 20.218637466430664 0.5053552985191345 C 17.53914451599121 10.505354881286621 10.21863842010498 17.825862884521484 0.21863797307014465 20.505355834960938 C -9.78136157989502 17.825862884521484 -17.101869583129883 10.505354881286621 -19.781362533569336 0.5053552985191345 C -17.101869583129883 -9.494645118713379 -9.78136157989502 -16.81515121459961 0.21863797307014465 -19.494644165039062 C 10.21863842010498 -16.81515121459961 17.53914451599121 -9.494645118713379 20.218637466430664 0.5053552985191345" stroke-width="0.0" fill="rgb(7, 192, 158)" opacity="0.76388925" stroke="rgb(34, 3, 89)" stroke-opacity="0.58991766" stroke-linecap="round" stroke-linejoin="round"/>
    <path d="M 169.7467498779297 268.6646728515625 C 176.72482299804688 317.8214111328125 179.8247528076172 295.5406799316406 116.6361083984375 313.01348876953125 C 105.93093872070312 301.7538757324219 110.62293243408203 285.4317626953125 101.09991455078125 247.03958129882812 C 91.39220428466797 214.95437622070312 78.28768157958984 234.79315185546875 134.00588989257812 190.78140258789062 C 180.94564819335938 227.97747802734375 156.23402404785156 248.4889373779297 169.7467498779297 268.6646728515625" stroke-width="0.0" fill="rgb(131, 12, 194)" opacity="0.39390564"/>
    <path d="M 20.026535034179688 0.19883765280246735 C 17.347042083740234 10.198837280273438 10.026535987854004 17.519344329833984 0.026535969227552414 20.198837280273438 C -9.973464012145996 17.519344329833984 -17.29397201538086 10.198837280273438 -19.973464965820312 0.19883765280246735 C -17.29397201538086 -9.801162719726562 -9.973464012145996 -17.12166976928711 0.026535969227552414 -19.801162719726562 C 10.026535987854004 -17.12166976928711 17.347042083740234 -9.801162719726562 20.026535034179688 0.19883765280246735" stroke-width="0.0" fill="rgb(100, 111, 230)" opacity="0.85419685" stroke="rgb(199, 101, 158)" stroke-opacity="0.8623637" stroke-linecap="round" stroke-linejoin="round"/>
    <path d="M 245.90306091308594 421.0917053222656 C 255.380126953125 397.28533935546875 256.6882019042969 401.5732727050781 264.17645263671875 413.8980712890625 C 251.83984375 390.481201171875 254.759521484375 412.8614807128906 246.00897216796875 422.80560302734375 C 250.5709228515625 416.8124694824219 261.166259765625 396.6969909667969 282.61395263671875 422.0144958496094 C 289.6017150878906 463.91180419921875 239.53724670410156 460.5089416503906 245.90306091308594 421.0917053222656" stroke-width="0.0" fill="rgb(255, 192, 0)" opacity="1.0"/>
    <path d="M 237.40782165527344 426.717529296875 C 205.8406982421875 421.7112121582031 222.34910583496094 423.1495056152344 215.63929748535156 428.22210693359375 C 201.77963256835938 410.87530517578125 236.25123596191406 413.5697326660156 231.38674926757812 411.3784484863281 C 227.72328186035156 400.4127197265625 227.95420837402344 400.7676086425781 201.31394958496094 395.4866943359375 C 210.0150146484375 395.32696533203125 242.42294311523438 406.8748779296875 237.40782165527344 426.717529296875" stroke-width="0.0" fill="rgb(103, 0, 232)" opacity="0.5484929"/>
    <path d="M 20.649885177612305 0.5449414849281311 C 17.97039222717285 10.544941902160645 10.649884223937988 17.865447998046875 0.6498844623565674 20.544940948486328 C -9.350115776062012 17.865447998046875 -16.670621871948242 10.544941902160645 -19.350114822387695 0.5449414849281311 C -16.670621871948242 -9.455058097839355 -9.350115776062012 -16.77556610107422 0.6498844623565674 -19.455059051513672 C 10.649884223937988 -16.77556610107422 17.97039222717285 -9.455058097839355 20.649885177612305 0.5449414849281311" stroke-width="0.0" fill="rgb(242, 37, 236)" opacity="0.77747333" stroke="rgb(117, 249, 125)" stroke-opacity="0.32875162" stroke-linecap="round" stroke-linejoin="round"/>
    <path d="M 249.67298889160156 591.8151245117188 C 231.0426025390625 652.4244995117188 209.39259338378906 649.2921142578125 188.35394287109375 639.1390991210938 C 157.7183837890625 606.6235961914062 146.3559112548828 602.5174560546875 127.84425354003906 614.4720458984375 C 150.9560089111328 607.77783203125 143.3563690185547 618.785888671875 150.91123962402344 564.5411987304688 C 196.69631958007812 574.687255859375 241.48167419433594 554.39453125 249.67298889160156 591.8151245117188" stroke-width="0.0" fill="rgb(126, 22, 170)" opacity="0.35804275"/>
    <path d="M 20.220439910888672 0.5892657041549683 C 17.54094696044922 10.589265823364258 10.220440864562988 17.909772872924805 0.22044062614440918 20.589265823364258 C -9.779559135437012 17.909772872924805 -17.100067138671875 10.589265823364258 -19.779560089111328 0.5892657041549683 C -17.100067138671875 -9.410734176635742 -9.779559135437012 -16.73124122619629 0.22044062614440918 -19.410734176635742 C 10.220440864562988 -16.73124122619629 17.54094696044922 -9.410734176635742 20.220439910888672 0.5892657041549683" stroke-width="0.0" fill="rgb(161, 61, 19)" opacity="0.73841375" stroke="rgb(38, 35, 163)" stroke-opacity="0.18188009" stroke-linecap="round" stroke-linejoin="round"/>
    <path d="M 20.809431076049805 0.006498759612441063 C 18.12993812561035 10.006498336791992 10.809430122375488 17.32700538635254 0.8094304800033569 20.006498336791992 C -9.190569877624512 17.32700538635254 -16.511075973510742 10.006498336791992 -19.190568923950195 0.006498759612441063 C -16.511075973510742 -9.993501663208008 -9.190569877624512 -17.314008712768555 0.8094304800033569 -19.993501663208008 C 10.809430122375488 -17.314008712768555 18.12993812561035 -9.993501663208008 20.809431076049805 0.006498759612441063" stroke-width="0.0" fill="rgb(88, 228, 120)" opacity="0.751696" stroke="rgb(49, 10, 43)" stroke-opacity="0.27859035" stroke-linecap="round" stroke-linejoin="round"/>
    <path d="M 266.22601318359375 275.892333984375 C 263.6268005371094 245.76258850097656 286.1225891113281 241.151611328125 282.8744812011719 276.300537109375 C 278.29913330078125 273.68389892578125 274.53582763671875 269.4403381347656 262.13446044921875 241.12026977539062 C 252.76524353027344 244.1876678466797 262.35345458984375 246.15426635742188 280.3298645019531 266.0613708496094 C 282.4122314453125 290.23272705078125 262.05224609375 287.9349060058594 266.22601318359375 275.892333984375" stroke-width="0.0" fill="rgb(152, 249, 239)" opacity="0.18728714"/>
    <path d="M 20.561368942260742 0.2627415955066681 C 17.88187599182129 10.262742042541504 10.561367988586426 17.583248138427734 0.5613681077957153 20.262741088867188 C -9.438632011413574 17.583248138427734 -16.759138107299805 10.262742042541504 -19.438631057739258 0.2627415955066681 C -16.759138107299805 -9.737257957458496 -9.438632011413574 -17.05776596069336 0.5613681077957153 -19.737258911132812 C 10.561367988586426 -17.05776596069336 17.88187599182129 -9.737257957458496 20.561368942260742 0.2627415955066681" stroke-width="0.0" fill="rgb(164, 104, 6)" opacity="0.91479164" stroke="rgb(168, 6, 56)" stroke-opacity="0.2310748" stroke-linecap="round" stroke-linejoin="round"/>
    <path d="M 204.01248168945312 217.38870239257812 C 230.60711669921875 196.02923583984375 220.4046630859375 188.11036682128906 231.77040100097656 198.43426513671875 C 224.60226440429688 256.6756591796875 224.2637939453125 245.0665283203125 247.2877960205078 230.97386169433594 C 265.8482360839844 230.3908233642578 251.985595703125 272.40069580078125 228.18052673339844 272.192626953125 C 192.7751007080078 243.66807556152344 194.5273895263672 263.50567626953125 204.01248168945312 217.38870239257812" stroke-width="0.0" fill="rgb(254, 254, 156)" opacity="0.0967145"/>
    <path d="M 289.5440979003906 259.9696960449219 C 279.11199951171875 227.2021484375 272.2128601074219 234.8681182861328 235.94129943847656 252.48704528808594 C 281.939208984375 272.650390625 266.6458435058594 250.94686889648438 216.2858123779297 261.9192199707031 C 262.81622314453125 272.3330993652344 283.0101013183594 270.2060852050781 282.8773498535156 293.74810791015625 C 251.66127014160156 295.77850341796875 291.423095703125 287.6886901855469 289.5440979003906 259.9696960449219" stroke-width="0.0" fill="rgb(209, 254, 184)" opacity="0.71964365"/>
    <path d="M 20.805818557739258 0.6981393694877625 C 18.126325607299805 10.698139190673828 10.805819511413574 18.018646240234375 0.8058192729949951 20.698139190673828 C -9.194180488586426 18.018646240234375 -16.51468849182129 10.698139190673828 -19.194181442260742 0.6981393694877625 C -16.51468849182129 -9.301860809326172 -9.194180488586426 -16.62236785888672 0.8058192729949951 -19.301860809326172 C 10.805819511413574 -16.62236785888672 18.126325607299805 -9.301860809326172 20.805818557739258 0.6981393694877625" stroke-width="0.0" fill="rgb(45, 22, 30)" opacity="0.7619001" stroke="rgb(92, 128, 176)" stroke-opacity="0.03931214" stroke-linecap="round" stroke-linejoin="round"/>
    <path d="M 264.16412353515625 242.12026977539062 C 276.849365234375 272.4386291503906 299.1454162597656 299.65606689453125 266.2892761230469 294.8381652832031 C 250.91046142578125 249.08164978027344 258.3684387207031 225.9321746826172 264.37896728515625 227.63687133789062 C 295.5679016113281 275.2914123535156 295.6820373535156 289.1265869140625 274.7961120605469 291.7998352050781 C 264.1055603027344 260.3238525390625 254.1997833251953 246.31448364257812 264.16412353515625 242.12026977539062" stroke-width="0.0" fill="rgb(195, 255, 209)" opacity="0.5213686"/>
    <path d="M 20.163402557373047 0.37945544719696045 C 17.483909606933594 10.37945556640625 10.163402557373047 17.699962615966797 0.1634024977684021 20.37945556640625 C -9.836597442626953 17.699962615966797 -17.1571044921875 10.37945556640625 -19.836597442626953 0.37945544719696045 C -17.1571044921875 -9.62054443359375 -9.836597442626953 -16.941051483154297 0.1634024977684021 -19.62054443359375 C 10.163402557373047 -16.941051483154297 17.483909606933594 -9.62054443359375 20.163402557373047 0.37945544719696045" stroke-width="0.0" fill="rgb(101, 203, 38)" opacity="0.91667575" stroke="rgb(183, 163, 176)" stroke-opacity="0.54272443" stroke-linecap="round" stroke-linejoin="round"/>
    <path d="M 349.0071716308594 230.8577880859375 C 368.33648681640625 234.18373107910156 356.725830078125 231.4856719970703 350.3641357421875 228.7239532470703 C 332.406494140625 256.67547607421875 332.60186767578125 238.09457397460938 305.9308776855469 241.0830841064453 C 286.7109680175781 272.1169738769531 307.0337829589844 255.80323791503906 321.17132568359375 249.55789184570312 C 323.7347717285156 296.7769775390625 345.2638854980469 267.93731689453125 349.0071716308594 230.8577880859375" stroke-width="0.0" fill="rgb(246, 240, 199)" opacity="0.66259795"/>
    <path d="M 20.229047775268555 0.03210024535655975 C 17.5495548248291 10.032100677490234 10.229047775268555 17.35260772705078 0.22904807329177856 20.032100677490234 C -9.770952224731445 17.35260772705078 -17.091459274291992 10.032100677490234 -19.770952224731445 0.03210024535655975 C -17.091459274291992 -9.967899322509766 -9.770952224731445 -17.288406372070312 0.22904807329177856 -19.967899322509766 C 10.229047775268555 -17.288406372070312 17.5495548248291 -9.967899322509766 20.229047775268555 0.03210024535655975" stroke-width="0.0" fill="rgb(28, 251, 213)" opacity="0.97625256" stroke="rgb(221, 132, 150)" stroke-opacity="0.3990027" stroke-linecap="round" stroke-linejoin="round"/>
    <path d="M 20.648035049438477 0.6091309785842896 C 17.968542098999023 10.609130859375 10.648035049438477 17.929637908935547 0.6480354070663452 20.609130859375 C -9.351964950561523 17.929637908935547 -16.67247200012207 10.609130859375 -19.351964950561523 0.6091309785842896 C -16.67247200012207 -9.390869140625 -9.351964950561523 -16.711376190185547 0.6480354070663452 -19.390869140625 C 10.648035049438477 -16.711376190185547 17.968542098999023 -9.390869140625 20.648035049438477 0.6091309785842896" stroke-width="0.0" fill="rgb(202, 158, 136)" opacity="0.93657917" stroke="rgb(38, 79, 63)" stroke-opacity="0.7439463" stroke-linecap="round" stroke-linejoin="round"/>
    <path d="M 20.80712890625 0.7297317981719971 C 18.127635955810547 10.729731559753418 10.807127952575684 18.05023956298828 0.8071282505989075 20.729732513427734 C -9.192872047424316 18.05023956298828 -16.513378143310547 10.729731559753418 -19.19287109375 0.7297317981719971 C -16.513378143310547 -9.270268440246582 -9.192872047424316 -16.590774536132812 0.8071282505989075 -19.270267486572266 C 10.807127952575684 -16.590774536132812 18.127635955810547 -9.270268440246582 20.80712890625 0.7297317981719971" stroke-width="0.0" fill="rgb(173, 201, 127)" opacity="0.86113197" stroke="rgb(149, 190, 110)" stroke-opacity="0.1275803" stroke-linecap="round" stroke-linejoin="round"/>
    <path d="M 293.4820251464844 267.4299011230469 C 306.98468017578125 260.8642272949219 307.6570739746094 276.6644287109375 309.4569396972656 230.4387969970703 C 374.61761474609375 247.52162170410156 308.5372619628906 268.6776428222656 302.24908447265625 248.13931274414062 C 320.678955078125 234.1691131591797 333.60693359375 241.37962341308594 340.0246887207031 270.1752014160156 C 331.5595397949219 261.09918212890625 302.1580810546875 236.6620635986328 293.4820251464844 267.4299011230469" stroke-width="0.0" fill="rgb(254, 247, 215)" opacity="0.51449937"/>
    <path d="M 20.22789764404297 0.289387971162796 C 17.548404693603516 10.289387702941895 10.227898597717285 17.609895706176758 0.2278982698917389 20.28938865661621 C -9.772101402282715 17.609895706176758 -17.092609405517578 10.289387702941895 -19.77210235595703 0.289387971162796 C -17.092609405517578 -9.710612297058105 -9.772101402282715 -17.031118392944336 0.2278982698917389 -19.71061134338379 C 10.227898597717285 -17.031118392944336 17.548404693603516 -9.710612297058105 20.22789764404297 0.289387971162796" stroke-width="0.0" fill="rgb(13, 85, 34)" opacity="0.99698806" stroke="rgb(82, 206, 64)" stroke-opacity="0.6815027" stroke-linecap="round" stroke-linejoin="round"/>
  </g>
</svg>
