<?xml version="1.0" ?>
<svg xmlns="http://www.w3.org/2000/svg" version="1.1" width="600" height="600">
  <defs/>
  <g>
    <path d="M 440.28228759765625 544.4879150390625 C 438.816162109375 621.633056640625 430.07318115234375 626.432373046875 380.73126220703125 621.8684692382812 C 236.72869873046875 624.418212890625 226.14756774902344 621.5466918945312 213.07501220703125 567.296875 C 212.63534545898438 411.7952575683594 218.58575439453125 387.8928527832031 259.46173095703125 395.7071228027344 C 429.5932922363281 385.5433654785156 418.6969299316406 420.5487365722656 440.28228759765625 544.4879150390625" stroke-width="0.0" fill="rgb(0, 0, 0)" opacity="1.0"/>
    <path d="M 515.2568359375 141.10665893554688 C 519.3402709960938 199.07794189453125 518.2241821289062 208.33966064453125 384.706298828125 224.42637634277344 C 360.40155029296875 225.0792236328125 350.21142578125 212.02520751953125 339.69061279296875 64.42807006835938 C 332.7921447753906 -4.051397323608398 325.1253356933594 -16.814037322998047 501.0513000488281 -18.865943908691406 C 558.5491333007812 -11.844457626342773 542.0730590820312 8.821072578430176 515.2568359375 141.10665893554688" stroke-width="0.0" fill="rgb(255, 71, 169)" opacity="0.5851078"/>
    <path d="M 128.96026611328125 116.4596939086914 C 112.49089813232422 220.21487426757812 122.74766540527344 266.389892578125 4.559031963348389 307.5645751953125 C -52.81517028808594 267.4779052734375 -34.439212799072266 234.86294555664062 -23.335020065307617 155.87461853027344 C -31.91388511657715 63.58808898925781 -46.54507827758789 34.66108703613281 -5.6328043937683105 16.749231338500977 C 112.23200225830078 56.79256820678711 119.25808715820312 78.5918960571289 128.96026611328125 116.4596939086914" stroke-width="0.0" fill="rgb(140, 62, 110)" opacity="0.92743486"/>
    <path d="M 620.7239990234375 517.535400390625 C 616.56591796875 639.237548828125 604.7694702148438 634.6653442382812 498.0756530761719 623.6675415039062 C 423.35302734375 633.6342163085938 406.7494812011719 639.711181640625 398.0013427734375 578.3131103515625 C 420.13116455078125 483.05291748046875 447.6122131347656 475.27874755859375 604.7290649414062 394.25787353515625 C 636.5498046875 406.9203186035156 627.68212890625 430.4374084472656 620.7239990234375 517.535400390625" stroke-width="0.0" fill="rgb(148, 75, 120)" opacity="0.9999861"/>
    <path d="M 133.5483856201172 535.396484375 C 131.74307250976562 579.99365234375 135.61000061035156 607.51904296875 34.037628173828125 619.1439208984375 C -11.413976669311523 619.4923706054688 -19.382938385009766 612.0174560546875 -19.38764190673828 577.2957153320312 C -13.437101364135742 453.7760009765625 6.45072603225708 468.5742492675781 82.85270690917969 479.34088134765625 C 120.50038146972656 475.41534423828125 129.50225830078125 479.94305419921875 133.5483856201172 535.396484375" stroke-width="0.0" fill="rgb(238, 129, 200)" opacity="0.6601119"/>
    <path d="M 623.4332885742188 61.24516296386719 C 624.9765625 209.041259765625 631.0698852539062 233.55081176757812 601.1764526367188 268.50823974609375 C 453.5247802734375 238.44418334960938 456.2726745605469 208.91806030273438 465.0107116699219 162.3141632080078 C 459.4717102050781 22.700773239135742 436.29180908203125 -9.293160438537598 560.2843627929688 -17.72410774230957 C 655.9218139648438 -11.605144500732422 643.6248779296875 4.533415794372559 623.4332885742188 61.24516296386719" stroke-width="0.0" fill="rgb(148, 75, 120)" opacity="0.99801886"/>
    <path d="M 614.2565307617188 391.0840759277344 C 588.3436889648438 543.01806640625 528.9412231445312 538.4906005859375 418.4749450683594 564.32763671875 C 373.03363037109375 551.36474609375 355.7763671875 539.6303100585938 310.2920227050781 429.2549743652344 C 358.8283996582031 383.1615295410156 376.7480163574219 386.1293029785156 504.02325439453125 376.7215270996094 C 579.4691162109375 339.06854248046875 600.6503295898438 331.075439453125 614.2565307617188 391.0840759277344" stroke-width="0.0" fill="rgb(149, 76, 122)" opacity="0.99423546"/>
    <path d="M 332.4683837890625 5.695897579193115 C 289.89971923828125 121.85626983642578 295.161865234375 153.02615356445312 200.64329528808594 166.10752868652344 C 140.88214111328125 145.74659729003906 138.38609313964844 131.9963836669922 147.5612030029297 60.26926803588867 C 152.54556274414062 -11.929563522338867 159.58848571777344 -19.53092384338379 239.5922393798828 -21.363521575927734 C 301.2555236816406 -25.903654098510742 317.81158447265625 -27.802642822265625 332.4683837890625 5.695897579193115" stroke-width="0.0" fill="rgb(255, 72, 169)" opacity="0.65809643"/>
    <path d="M 567.304931640625 366.6304016113281 C 536.8386840820312 428.9689636230469 514.3834838867188 420.0625305175781 318.414794921875 421.4875793457031 C 299.7945251464844 460.4683532714844 319.3186950683594 475.7208251953125 248.361572265625 275.2923583984375 C 267.134033203125 217.50582885742188 287.30462646484375 236.21788024902344 395.39447021484375 243.0128173828125 C 527.6881103515625 287.5426330566406 553.700439453125 275.4194641113281 567.304931640625 366.6304016113281" stroke-width="0.0" fill="rgb(119, 90, 115)" opacity="0.81123275"/>
    <path d="M 272.0536193847656 583.9853515625 C 248.2935028076172 639.0559692382812 219.72171020507812 627.7445678710938 139.75430297851562 621.4154052734375 C 84.53697967529297 625.0228881835938 67.38211822509766 627.0218505859375 57.83229446411133 595.3117065429688 C 93.5413589477539 515.0557250976562 103.46302032470703 509.1294860839844 139.70045471191406 495.1478576660156 C 235.05172729492188 490.1036682128906 276.9294128417969 469.6616516113281 272.0536193847656 583.9853515625" stroke-width="0.0" fill="rgb(126, 11, 71)" opacity="0.99823576"/>
    <path d="M 312.4258117675781 417.4350280761719 C 256.53436279296875 594.639404296875 247.43218994140625 595.7674560546875 205.62525939941406 567.65625 C 111.98773193359375 551.787353515625 102.27088928222656 545.993896484375 95.07096099853516 496.6841735839844 C 95.6212158203125 439.68499755859375 79.34234619140625 380.64764404296875 261.1136474609375 315.04583740234375 C 314.16876220703125 339.3634033203125 315.7435302734375 370.9747314453125 312.4258117675781 417.4350280761719" stroke-width="0.0" fill="rgb(185, 180, 202)" opacity="0.3739941"/>
    <path d="M 231.75425720214844 378.9892578125 C 153.6914520263672 539.3649291992188 126.51093292236328 530.3560791015625 42.96377944946289 529.1558227539062 C -4.816817283630371 550.2025756835938 -16.845613479614258 553.8471069335938 -23.021615982055664 390.0163269042969 C -56.788352966308594 318.15008544921875 -73.98982238769531 297.4752197265625 107.86727905273438 289.3589172363281 C 234.55239868164062 288.0155944824219 222.24839782714844 304.2548828125 231.75425720214844 378.9892578125" stroke-width="0.0" fill="rgb(147, 76, 120)" opacity="0.9903828"/>
    <path d="M 410.5763854980469 125.17859649658203 C 403.85943603515625 204.58413696289062 418.9471740722656 229.5108642578125 295.87359619140625 248.91456604003906 C 247.45018005371094 130.5703887939453 212.60926818847656 153.9375 178.4900665283203 134.00930786132812 C 235.62258911132812 11.542444229125977 226.65762329101562 -12.42428970336914 384.7087707519531 -21.133159637451172 C 420.1768493652344 -27.74146842956543 427.52056884765625 -20.700502395629883 410.5763854980469 125.17859649658203" stroke-width="0.0" fill="rgb(68, 28, 65)" opacity="0.60148585"/>
    <path d="M 201.72206115722656 52.66529846191406 C 202.85760498046875 116.05238342285156 196.17721557617188 127.4415512084961 136.24874877929688 132.26162719726562 C 44.942928314208984 120.55606842041016 8.809752464294434 121.89369201660156 -15.731033325195312 12.389540672302246 C -6.11898136138916 -59.159507751464844 20.529417037963867 -39.50538635253906 99.75263977050781 -23.42011070251465 C 183.9416961669922 -24.68841552734375 193.42784118652344 -20.56172752380371 201.72206115722656 52.66529846191406" stroke-width="0.0" fill="rgb(148, 75, 121)" opacity="1.0"/>
    <path d="M 294.74188232421875 270.5143737792969 C 269.15887451171875 342.9739074707031 283.7315673828125 336.89276123046875 94.89457702636719 312.8711853027344 C -26.13347053527832 339.4585266113281 -31.694156646728516 331.98583984375 -13.418570518493652 282.99676513671875 C 72.86774444580078 120.9681396484375 69.70292663574219 103.86042785644531 170.25904846191406 115.18864440917969 C 236.60325622558594 103.87232208251953 275.8344421386719 78.4606704711914 294.74188232421875 270.5143737792969" stroke-width="0.0" fill="rgb(188, 188, 195)" opacity="0.15481709"/>
    <path d="M 618.4622802734375 285.6989440917969 C 617.7333374023438 408.11151123046875 610.0191650390625 414.2651672363281 571.246337890625 399.9951171875 C 389.714599609375 333.8773498535156 354.3743591308594 344.85595703125 329.7571716308594 237.3451690673828 C 355.36651611328125 177.26329040527344 372.6914978027344 177.0077362060547 419.21649169921875 174.6666717529297 C 552.40283203125 175.24441528320312 588.1494750976562 173.26856994628906 618.4622802734375 285.6989440917969" stroke-width="0.0" fill="rgb(112, 91, 117)" opacity="0.939967"/>
    <path d="M 345.8696594238281 506.66363525390625 C 328.9206848144531 539.8870849609375 318.11279296875 547.41015625 278.0394287109375 574.7881469726562 C 258.33941650390625 575.3193969726562 278.46014404296875 556.1017456054688 262.4764099121094 506.1088562011719 C 217.33998107910156 444.1338806152344 189.53965759277344 407.35595703125 303.4327697753906 409.8064880371094 C 320.4584045410156 453.4657897949219 326.8465576171875 485.151123046875 345.8696594238281 506.66363525390625" stroke-width="0.0" fill="rgb(66, 59, 73)" opacity="0.9803385"/>
    <path d="M 188.2767333984375 160.2718505859375 C 169.04750061035156 204.69903564453125 151.50079345703125 208.07823181152344 104.69013977050781 228.71038818359375 C 89.73056030273438 226.10768127441406 80.43154907226562 217.34524536132812 68.55948638916016 184.94972229003906 C 77.05513000488281 143.01144409179688 94.07988739013672 142.0211639404297 121.92450714111328 143.68978881835938 C 160.74696350097656 142.68081665039062 176.6434326171875 143.2953643798828 188.2767333984375 160.2718505859375" stroke-width="0.0" fill="rgb(148, 75, 120)" opacity="0.9916702"/>
    <path d="M 420.1005859375 574.2957153320312 C 400.474609375 615.5560913085938 375.83782958984375 614.60302734375 327.0628967285156 617.8533325195312 C 278.9706726074219 612.9480590820312 251.875244140625 623.513427734375 187.6846160888672 592.3233642578125 C 276.8716735839844 513.4979858398438 295.4817810058594 515.51318359375 326.4384460449219 458.6501770019531 C 369.1230163574219 496.80694580078125 378.297607421875 512.0736083984375 420.1005859375 574.2957153320312" stroke-width="0.0" fill="rgb(148, 76, 120)" opacity="1.0"/>
    <path d="M 137.7490997314453 252.93775939941406 C 136.41514587402344 269.2515869140625 129.5968017578125 277.60479736328125 91.69036865234375 295.2855529785156 C 76.0956802368164 293.8992614746094 67.562744140625 285.5859680175781 63.87627410888672 262.04901123046875 C 71.763916015625 218.2970733642578 76.43331146240234 205.50112915039062 105.11343383789062 198.22103881835938 C 140.09657287597656 208.96934509277344 139.9318389892578 225.3307342529297 137.7490997314453 252.93775939941406" stroke-width="0.0" fill="rgb(149, 75, 121)" opacity="0.9382455"/>
    <path d="M 198.44752502441406 285.5154113769531 C 204.6165771484375 326.8074645996094 197.29783630371094 358.2284240722656 129.5864715576172 387.3520202636719 C 79.97308349609375 349.57440185546875 78.33455657958984 330.85638427734375 77.15121459960938 304.2638244628906 C 86.2838134765625 260.1438293457031 101.7033920288086 258.34857177734375 128.54124450683594 255.85977172851562 C 147.46876525878906 259.417236328125 153.7710723876953 267.9251403808594 198.44752502441406 285.5154113769531" stroke-width="0.0" fill="rgb(148, 76, 121)" opacity="1.0"/>
    <path d="M 102.35774230957031 234.21328735351562 C 94.61007690429688 268.401611328125 86.37384796142578 276.9833068847656 56.80621337890625 283.46087646484375 C 17.0891170501709 283.99761962890625 0.16489137709140778 282.16461181640625 -13.372749328613281 252.15431213378906 C 13.564587593078613 210.10302734375 32.86005783081055 209.3701629638672 70.65126037597656 195.0484619140625 C 92.43280029296875 193.39984130859375 101.04901885986328 202.1840057373047 102.35774230957031 234.21328735351562" stroke-width="0.0" fill="rgb(145, 75, 121)" opacity="1.0"/>
    <path d="M 376.0762939453125 81.9552001953125 C 361.3340759277344 121.37074279785156 364.7216796875 148.6573944091797 352.4529724121094 186.00408935546875 C 283.3916320800781 121.01241302490234 270.2764892578125 117.66739654541016 253.7341766357422 79.8970718383789 C 262.91796875 42.18907165527344 272.148681640625 27.50946044921875 338.11578369140625 -15.043686866760254 C 364.7209777832031 17.74090003967285 364.44647216796875 40.890655517578125 376.0762939453125 81.9552001953125" stroke-width="0.0" fill="rgb(149, 76, 121)" opacity="0.87533885"/>
    <path d="M 98.76553344726562 186.5833740234375 C 80.83224487304688 225.2821502685547 64.07211303710938 227.4989013671875 26.21269989013672 242.04798889160156 C 2.943805456161499 245.3765106201172 -6.740886211395264 237.0421905517578 -17.759815216064453 201.0257110595703 C -4.99465274810791 162.1776885986328 -0.962694525718689 145.3670654296875 43.984703063964844 120.970947265625 C 86.0040283203125 142.25990295410156 93.08527374267578 155.9636688232422 98.76553344726562 186.5833740234375" stroke-width="0.0" fill="rgb(148, 76, 121)" opacity="0.9954927"/>
    <path d="M 273.3553771972656 464.0112609863281 C 265.2867431640625 524.1395263671875 250.6328582763672 519.473388671875 191.77322387695312 496.9545593261719 C 146.07521057128906 513.2982788085938 131.32257080078125 517.3734130859375 141.1685791015625 493.23553466796875 C 144.42987060546875 428.0432434082031 153.17015075683594 425.0801696777344 231.46095275878906 373.1970520019531 C 238.3437042236328 428.08758544921875 200.72142028808594 423.7638244628906 273.3553771972656 464.0112609863281" stroke-width="0.0" fill="rgb(144, 80, 122)" opacity="0.9970522"/>
    <path d="M 218.23805236816406 225.59645080566406 C 222.5692138671875 265.6536560058594 320.6911926269531 250.90887451171875 190.32839965820312 253.07798767089844 C 125.61749267578125 241.48992919921875 112.03392791748047 239.96090698242188 100.20684814453125 218.88243103027344 C 114.97763061523438 189.9019317626953 128.93727111816406 185.17361450195312 185.44029235839844 154.5784912109375 C 243.12074279785156 154.1405792236328 217.0978546142578 164.32696533203125 218.23805236816406 225.59645080566406" stroke-width="0.0" fill="rgb(95, 75, 100)" opacity="1.0"/>
    <path d="M 301.294189453125 232.42193603515625 C 200.2592010498047 290.04229736328125 248.99661254882812 381.1684875488281 219.0821990966797 384.6585998535156 C 165.81556701660156 226.3778533935547 186.93453979492188 270.5669250488281 139.85104370117188 283.47869873046875 C 130.4887237548828 267.27001953125 136.5701141357422 258.61529541015625 209.11712646484375 247.55711364746094 C 249.84954833984375 274.50225830078125 194.44090270996094 265.6700134277344 301.294189453125 232.42193603515625" stroke-width="0.0" fill="rgb(63, 53, 76)" opacity="0.92335474"/>
    <path d="M 195.8808135986328 155.89463806152344 C 182.35955810546875 180.53199768066406 167.85147094726562 181.51068115234375 143.99313354492188 177.94361877441406 C 103.53311920166016 173.44540405273438 84.71668243408203 174.16787719726562 55.588470458984375 137.03700256347656 C 69.80134582519531 92.08312225341797 82.77731323242188 80.85511016845703 135.62940979003906 66.64691925048828 C 184.0123291015625 80.87596130371094 195.18565368652344 92.73416900634766 195.8808135986328 155.89463806152344" stroke-width="0.0" fill="rgb(148, 75, 120)" opacity="1.0"/>
    <path d="M 111.84976959228516 295.7049255371094 C 115.63381958007812 344.9436340332031 116.54621887207031 365.88800048828125 62.04682922363281 396.2723388671875 C -0.8385563492774963 373.2326965332031 -9.189566612243652 356.8037109375 -16.578310012817383 306.8702087402344 C 0.15358157455921173 249.86453247070312 21.305749893188477 250.44285583496094 69.93370819091797 247.16246032714844 C 96.03308868408203 250.35557556152344 104.48787689208984 258.7777099609375 111.84976959228516 295.7049255371094" stroke-width="0.0" fill="rgb(148, 76, 121)" opacity="0.9996053"/>
    <path d="M 288.2256164550781 202.30776977539062 C 285.22332763671875 218.8863525390625 249.67254638671875 155.5999298095703 215.43287658691406 212.21640014648438 C 164.5685577392578 194.56222534179688 157.44418334960938 184.16773986816406 157.49533081054688 164.7774200439453 C 175.16717529296875 118.77127838134766 193.9991912841797 125.13796997070312 197.51947021484375 126.82994842529297 C 212.8846435546875 130.46298217773438 219.77024841308594 140.40855407714844 288.2256164550781 202.30776977539062" stroke-width="0.0" fill="rgb(111, 96, 122)" opacity="0.9724333"/>
    <path d="M 201.22364807128906 243.26968383789062 C 180.90386962890625 276.80712890625 165.81048583984375 279.7813415527344 146.40298461914062 281.9986877441406 C 121.28981018066406 275.2535400390625 116.04039001464844 265.57574462890625 110.6856460571289 239.91448974609375 C 106.93297576904297 221.60877990722656 111.8581314086914 211.64993286132812 124.80020904541016 208.7109375 C 166.2307891845703 218.665283203125 183.9125518798828 218.01158142089844 201.22364807128906 243.26968383789062" stroke-width="0.0" fill="rgb(148, 75, 120)" opacity="0.9987656"/>
    <path d="M 352.4734802246094 177.521728515625 C 355.37200927734375 198.0240020751953 314.7758483886719 131.8914337158203 282.69140625 201.659423828125 C 218.74583435058594 136.19056701660156 202.69821166992188 132.84161376953125 183.41026306152344 131.11703491210938 C 205.99513244628906 116.85694885253906 200.93678283691406 116.98025512695312 238.50439453125 160.3563690185547 C 284.939453125 127.68394470214844 294.23699951171875 95.97550964355469 352.4734802246094 177.521728515625" stroke-width="0.0" fill="rgb(73, 60, 81)" opacity="1.0"/>
    <path d="M 165.58656311035156 564.3369750976562 C 128.34219360351562 609.23486328125 111.02519989013672 617.9632568359375 43.58726119995117 620.9508056640625 C 23.917448043823242 608.74462890625 24.7930908203125 592.581787109375 32.44405746459961 566.3270263671875 C 34.114158630371094 530.7642822265625 35.44892120361328 516.5465698242188 77.4065933227539 507.467529296875 C 102.87403106689453 511.2752380371094 111.74569702148438 518.9629516601562 165.58656311035156 564.3369750976562" stroke-width="0.0" fill="rgb(148, 76, 121)" opacity="1.0"/>
    <path d="M 65.15209197998047 546.7205810546875 C 64.801025390625 585.8514404296875 68.3447494506836 606.9156494140625 10.620014190673828 618.0968627929688 C -14.865934371948242 612.8892211914062 -19.700546264648438 601.753173828125 -19.114595413208008 568.88525390625 C -13.620769500732422 519.1199951171875 -1.5818475484848022 515.5180053710938 41.51137161254883 508.6502990722656 C 64.23628234863281 514.0084228515625 68.51779174804688 524.7942504882812 65.15209197998047 546.7205810546875" stroke-width="0.0" fill="rgb(148, 75, 120)" opacity="0.99753386"/>
    <path d="M 268.3376159667969 223.1231231689453 C 264.9071350097656 232.1533660888672 260.9406433105469 239.14910888671875 248.97828674316406 237.7677459716797 C 242.5589141845703 239.02902221679688 229.38575744628906 232.61866760253906 229.5719757080078 217.8238983154297 C 230.0647735595703 206.07456970214844 241.82054138183594 200.57044982910156 249.79949951171875 201.39724731445312 C 260.5500183105469 200.5367889404297 271.192138671875 209.77427673339844 268.3376159667969 223.1231231689453" stroke-width="0.0" fill="rgb(66, 68, 46)" opacity="0.99998426"/>
    <path d="M 259.6380615234375 416.2602233886719 C 240.99374389648438 431.5947265625 184.02783203125 407.2589416503906 189.66184997558594 420.4707946777344 C 185.6888427734375 420.143798828125 167.7276611328125 421.68939208984375 127.25276947021484 417.6341857910156 C 171.6063690185547 414.30474853515625 183.4789581298828 417.83599853515625 176.1498565673828 418.1201171875 C 170.91136169433594 414.620361328125 189.9833526611328 417.34039306640625 259.6380615234375 416.2602233886719" stroke-width="0.0" fill="rgb(44, 38, 33)" opacity="0.97892475"/>
    <path d="M 341.79376220703125 406.1416320800781 C 357.57513427734375 410.55718994140625 255.6703643798828 407.908447265625 291.5725402832031 408.2904357910156 C 310.6869812011719 410.2401428222656 293.84033203125 408.6466369628906 267.2147521972656 408.66143798828125 C 288.13555908203125 415.0134582519531 292.8313903808594 405.41436767578125 264.4798278808594 415.7110595703125 C 267.1771545410156 409.73828125 361.3344421386719 423.7046813964844 341.79376220703125 406.1416320800781" stroke-width="0.0" fill="rgb(254, 255, 252)" opacity="0.8995974"/>
    <path d="M 328.06439208984375 236.72442626953125 C 318.2286376953125 234.94512939453125 327.33880615234375 239.97906494140625 329.2940368652344 270.2587890625 C 322.92352294921875 241.9735565185547 311.04119873046875 240.4478302001953 303.553466796875 222.8828125 C 298.6426086425781 217.43927001953125 310.76824951171875 213.54078674316406 322.1636962890625 212.05758666992188 C 327.3623046875 217.86708068847656 329.0185852050781 230.8025360107422 328.06439208984375 236.72442626953125" stroke-width="0.0" fill="rgb(49, 34, 73)" opacity="0.9355254"/>
    <path d="M 309.80950927734375 414.8080139160156 C 268.77740478515625 405.5816650390625 246.42298889160156 413.41461181640625 262.38800048828125 400.8921203613281 C 269.94464111328125 412.44598388671875 247.7713165283203 408.0089416503906 234.94834899902344 408.400146484375 C 230.4473114013672 427.44097900390625 244.66160583496094 405.910888671875 239.12075805664062 423.1394348144531 C 227.95843505859375 413.7117919921875 237.314208984375 414.90557861328125 309.80950927734375 414.8080139160156" stroke-width="0.0" fill="rgb(237, 231, 234)" opacity="1.0"/>
    <path d="M 347.60382080078125 204.10462951660156 C 358.3476867675781 228.3238525390625 338.5534973144531 226.63917541503906 310.71990966796875 229.50390625 C 294.3853454589844 240.4366455078125 280.771484375 223.21165466308594 293.21270751953125 203.69281005859375 C 302.2585144042969 189.39356994628906 318.23284912109375 188.440185546875 306.12225341796875 188.5613555908203 C 321.58953857421875 189.4900360107422 332.79132080078125 181.7307586669922 347.60382080078125 204.10462951660156" stroke-width="0.0" fill="rgb(253, 255, 255)" opacity="0.97782016"/>
    <path d="M 224.1204833984375 420.52691650390625 C 189.24765014648438 410.489501953125 173.5158233642578 421.42645263671875 183.6327667236328 420.4146728515625 C 191.09632873535156 416.83343505859375 177.95494079589844 414.5883483886719 155.11392211914062 417.9146423339844 C 180.12620544433594 420.3503723144531 188.5459747314453 418.99078369140625 184.8246307373047 417.55303955078125 C 174.32516479492188 421.4768981933594 180.26974487304688 420.0908508300781 224.1204833984375 420.52691650390625" stroke-width="0.0" fill="rgb(28, 30, 8)" opacity="0.8767709"/>
    <path d="M 139.1852569580078 415.5211181640625 C 123.97950744628906 420.96630859375 113.55371856689453 419.3932800292969 109.61492919921875 419.31976318359375 C 103.94551849365234 416.9569396972656 92.73959350585938 425.2923583984375 70.35649108886719 415.5632629394531 C 95.1373519897461 415.30841064453125 105.09497833251953 415.6175231933594 109.23641204833984 415.3875427246094 C 111.16150665283203 415.5901184082031 121.88906860351562 415.2398986816406 139.1852569580078 415.5211181640625" stroke-width="0.0" fill="rgb(112, 100, 73)" opacity="0.731016"/>
    <path d="M 138.7921600341797 420.4275207519531 C 122.00357818603516 420.5146789550781 112.9065933227539 420.4406433105469 107.76805877685547 420.4825439453125 C 106.21592712402344 420.6126403808594 95.53749084472656 420.3179626464844 47.77758026123047 420.5753479003906 C 93.4479751586914 413.2662048339844 104.33728790283203 421.0224304199219 109.82778930664062 416.15313720703125 C 113.10661315917969 417.5759582519531 125.21638488769531 413.39593505859375 138.7921600341797 420.4275207519531" stroke-width="0.0" fill="rgb(41, 20, 18)" opacity="0.72057104"/>
    <path d="M 347.3882141113281 234.07737731933594 C 337.5350341796875 249.06446838378906 318.27215576171875 253.38072204589844 313.44122314453125 248.9076690673828 C 316.32733154296875 248.3047332763672 300.7980041503906 251.69573974609375 290.09722900390625 229.22145080566406 C 285.3177185058594 216.97348022460938 306.92523193359375 222.0159912109375 324.64013671875 215.43112182617188 C 342.8624267578125 199.34152221679688 357.08819580078125 206.89552307128906 347.3882141113281 234.07737731933594" stroke-width="0.0" fill="rgb(251, 252, 253)" opacity="0.99249214"/>
    <path d="M 337.45703125 381.6585388183594 C 321.9577331542969 379.9758605957031 369.6764221191406 402.62066650390625 276.2010803222656 393.3295593261719 C 300.9566345214844 387.9020080566406 282.5677185058594 378.46923828125 265.82098388671875 352.6507873535156 C 254.11734008789062 318.05670166015625 218.52157592773438 253.27565002441406 307.165283203125 271.3714294433594 C 317.03912353515625 287.06097412109375 330.02215576171875 300.2140197753906 337.45703125 381.6585388183594" stroke-width="0.0" fill="rgb(223, 220, 226)" opacity="1.0"/>
    <path d="M 338.6014404296875 213.81838989257812 C 339.7650451660156 228.8156280517578 333.6477966308594 237.2086944580078 317.5290222167969 238.4122314453125 C 305.73370361328125 236.50918579101562 298.0652770996094 227.14869689941406 298.7101745605469 214.9032440185547 C 302.2997741699219 202.97618103027344 314.6838073730469 200.44940185546875 319.78558349609375 200.7991485595703 C 325.7479248046875 200.79396057128906 336.3336181640625 204.3321533203125 338.6014404296875 213.81838989257812" stroke-width="0.0" fill="rgb(50, 57, 35)" opacity="0.9619908"/>
    <path d="M 170.8150634765625 420.1831970214844 C 129.64022827148438 421.7239990234375 122.29313659667969 417.4697570800781 107.02627563476562 419.5788269042969 C 110.41294860839844 427.4837951660156 107.99876403808594 421.0675048828125 105.88253021240234 417.59576416015625 C 108.54009246826172 415.7355041503906 110.76675415039062 414.9090576171875 107.8294906616211 416.1902770996094 C 115.76631164550781 419.9977722167969 133.88026428222656 411.6153564453125 170.8150634765625 420.1831970214844" stroke-width="0.0" fill="rgb(32, 19, 7)" opacity="0.6951856"/>
    <path d="M 106.99149322509766 417.64117431640625 C 104.2454605102539 421.9861145019531 110.27396392822266 418.005126953125 117.35737609863281 424.42791748046875 C 104.5119400024414 410.8943786621094 47.20101547241211 428.0587463378906 -58.02267837524414 416.11456298828125 C 74.94141387939453 416.85894775390625 101.0113525390625 416.0707702636719 115.3892593383789 416.8622741699219 C 110.30105590820312 418.110107421875 110.13399505615234 416.5928955078125 106.99149322509766 417.64117431640625" stroke-width="0.0" fill="rgb(30, 26, 13)" opacity="0.9481133"/>
    <path d="M 476.9495544433594 97.4075698852539 C 478.3135986328125 124.22074127197266 475.560546875 138.30474853515625 464.93829345703125 144.8456573486328 C 432.36273193359375 114.26085662841797 425.6590576171875 106.03010559082031 414.90191650390625 87.80223846435547 C 406.7375183105469 66.03003692626953 410.1568908691406 53.711185455322266 438.9950866699219 48.85184097290039 C 472.1380920410156 56.580535888671875 476.1640319824219 68.68840026855469 476.9495544433594 97.4075698852539" stroke-width="0.0" fill="rgb(148, 75, 120)" opacity="0.9999989"/>
    <path d="M 453.7745056152344 109.71687316894531 C 457.39422607421875 126.22724914550781 451.66131591796875 135.48777770996094 436.49591064453125 135.91236877441406 C 410.5273742675781 130.33340454101562 401.05950927734375 124.4964599609375 393.0660095214844 108.1401596069336 C 397.1663818359375 82.58270263671875 400.8526306152344 68.6868667602539 415.4078674316406 55.97076416015625 C 439.9537048339844 86.3812255859375 446.34356689453125 94.96826171875 453.7745056152344 109.71687316894531" stroke-width="0.0" fill="rgb(149, 76, 121)" opacity="0.9139369"/>
    <path d="M 482.2767028808594 25.34088134765625 C 474.79217529296875 59.034481048583984 474.5459289550781 73.69678497314453 438.8789367675781 83.84390258789062 C 410.5185852050781 80.73133087158203 399.9222412109375 73.24735260009766 390.7608642578125 36.57923889160156 C 399.24444580078125 -3.7456605434417725 407.65704345703125 -13.502007484436035 448.6340026855469 -19.09397315979004 C 488.248291015625 -13.940937995910645 491.5352478027344 -1.3852722644805908 482.2767028808594 25.34088134765625" stroke-width="0.0" fill="rgb(148, 75, 121)" opacity="0.9863826"/>
    <path d="M 350.7041015625 185.31471252441406 C 380.5713806152344 235.56080627441406 331.81573486328125 310.0264587402344 275.8326721191406 250.17080688476562 C 329.5713806152344 285.4759216308594 368.10540771484375 245.81930541992188 328.6239318847656 246.0533447265625 C 358.10345458984375 247.34983825683594 339.4967041015625 258.70831298828125 354.5250244140625 245.9253692626953 C 323.7237854003906 290.2354736328125 394.1722412109375 229.8263702392578 350.7041015625 185.31471252441406" stroke-width="0.0" fill="rgb(246, 246, 255)" opacity="0.83246106"/>
    <path d="M 334.95281982421875 151.3250274658203 C 314.1156921386719 159.8688507080078 305.3363342285156 155.23281860351562 314.8622741699219 156.68711853027344 C 307.67572021484375 158.24716186523438 300.975341796875 152.1715545654297 228.2038116455078 158.7394561767578 C 241.29295349121094 109.69158935546875 270.57720947265625 112.43797302246094 297.2991638183594 112.30459594726562 C 321.2850646972656 125.27490234375 329.8009033203125 135.25875854492188 334.95281982421875 151.3250274658203" stroke-width="0.0" fill="rgb(151, 76, 122)" opacity="1.0"/>
    <path d="M 447.6646423339844 417.85247802734375 C 402.79925537109375 414.7435302734375 373.0508728027344 417.80963134765625 379.6794738769531 416.1907653808594 C 412.40081787109375 421.29620361328125 368.5342102050781 411.0623474121094 311.35540771484375 419.7477722167969 C 391.4546813964844 420.985107421875 409.7960205078125 420.2759704589844 399.0600280761719 420.0672302246094 C 373.7327575683594 416.03411865234375 412.52203369140625 424.7463073730469 447.6646423339844 417.85247802734375" stroke-width="0.0" fill="rgb(17, 21, 0)" opacity="0.8075691"/>
    <path d="M 279.59906005859375 1.5181114673614502 C 255.34371948242188 26.51777458190918 237.82083129882812 24.87078857421875 222.694091796875 23.532258987426758 C 211.68875122070312 20.49979019165039 200.50436401367188 15.695089340209961 179.13714599609375 1.4541025161743164 C 200.1428680419922 -10.12918472290039 211.6579132080078 -14.536103248596191 222.5655059814453 -18.784799575805664 C 233.1746826171875 -13.671131134033203 250.73971557617188 -14.660395622253418 279.59906005859375 1.5181114673614502" stroke-width="0.0" fill="rgb(148, 75, 122)" opacity="0.9841196"/>
    <path d="M 358.3750305175781 195.61741638183594 C 335.1355285644531 203.40216064453125 364.1109924316406 195.97193908691406 345.0213317871094 181.2516632080078 C 293.3143310546875 148.5087127685547 285.34649658203125 216.65516662597656 282.0806579589844 201.08834838867188 C 307.457275390625 163.52931213378906 305.6468200683594 155.7715301513672 308.55731201171875 163.33119201660156 C 310.8802185058594 170.94805908203125 343.1103820800781 162.9660186767578 358.3750305175781 195.61741638183594" stroke-width="0.0" fill="rgb(245, 247, 251)" opacity="0.83637327"/>
    <path d="M 264.2676086425781 19.185373306274414 C 252.99197387695312 38.81126022338867 254.7052459716797 61.682865142822266 210.10726928710938 104.34098815917969 C 180.82188415527344 66.18327331542969 181.59507751464844 46.85468673706055 179.2255096435547 17.192447662353516 C 186.9103546142578 -5.952084064483643 202.12225341796875 -6.904163837432861 218.05201721191406 -5.606817722320557 C 229.38681030273438 -2.5117268562316895 240.53221130371094 2.7220776081085205 264.2676086425781 19.185373306274414" stroke-width="0.0" fill="rgb(148, 75, 120)" opacity="0.982278"/>
    <path d="M 585.3016967773438 188.4318389892578 C 593.9676513671875 268.64404296875 585.8565063476562 330.33135986328125 367.3137512207031 416.8530578613281 C 345.9978332519531 258.8617248535156 384.8094787597656 188.92904663085938 353.9920654296875 137.82083129882812 C 398.3031921386719 121.32360076904297 404.17413330078125 113.74332427978516 418.0870361328125 107.165283203125 C 447.6703186035156 112.13096618652344 465.8918151855469 111.00080108642578 585.3016967773438 188.4318389892578" stroke-width="0.0" fill="rgb(148, 76, 122)" opacity="0.9981529"/>
    <path d="M 323.3565368652344 167.53807067871094 C 313.1478576660156 211.4472198486328 337.9043273925781 146.7480926513672 326.42156982421875 186.57289123535156 C 343.54998779296875 200.494384765625 359.8642578125 173.67201232910156 298.6810302734375 193.0098876953125 C 328.0536193847656 177.76983642578125 322.7864685058594 161.2174530029297 327.2822265625 156.8141632080078 C 341.0146484375 165.92002868652344 348.1009826660156 179.60772705078125 323.3565368652344 167.53807067871094" stroke-width="0.0" fill="rgb(94, 84, 111)" opacity="1.0"/>
    <path d="M 339.4338073730469 174.59556579589844 C 333.77069091796875 169.8849334716797 313.4342346191406 161.37818908691406 294.46893310546875 182.13441467285156 C 276.0137634277344 161.85293579101562 290.65545654296875 165.62234497070312 319.9676208496094 158.72023010253906 C 292.7940979003906 138.45980834960938 295.1972351074219 137.54795837402344 301.1963195800781 142.9376678466797 C 306.3795471191406 150.0808868408203 314.8321228027344 153.3644561767578 339.4338073730469 174.59556579589844" stroke-width="0.0" fill="rgb(80, 73, 94)" opacity="1.0"/>
    <path d="M 285.1593017578125 208.07052612304688 C 272.47015380859375 220.54006958007812 298.75836181640625 213.12831115722656 263.40234375 250.05169677734375 C 266.5635070800781 243.3059844970703 279.3189392089844 228.44725036621094 279.0479736328125 223.59249877929688 C 280.4216003417969 204.3616485595703 273.036865234375 214.73779296875 287.5536193847656 210.84661865234375 C 288.5409240722656 232.34725952148438 290.41851806640625 249.7004852294922 285.1593017578125 208.07052612304688" stroke-width="0.0" fill="rgb(42, 39, 60)" opacity="0.78079075"/>
    <path d="M 285.56231689453125 255.46009826660156 C 291.68780517578125 225.7437744140625 305.299072265625 236.2549591064453 284.7383728027344 266.21002197265625 C 271.34600830078125 243.56797790527344 266.4762878417969 233.84011840820312 281.04937744140625 235.543212890625 C 299.2513732910156 234.16700744628906 289.3821105957031 247.7152099609375 284.16485595703125 240.56585693359375 C 287.72845458984375 234.70359802246094 277.6935729980469 248.35423278808594 285.56231689453125 255.46009826660156" stroke-width="0.0" fill="rgb(41, 29, 33)" opacity="1.0"/>
    <path d="M 340.9919128417969 441.84124755859375 C 294.2118835449219 528.7280883789062 279.4869689941406 532.9273681640625 265.79156494140625 533.411865234375 C 251.85052490234375 525.4578247070312 243.91427612304688 518.5388793945312 227.2973175048828 509.5635986328125 C 227.9873504638672 496.6667175292969 215.675048828125 483.4059143066406 228.52197265625 420.00616455078125 C 318.3487243652344 479.14990234375 296.59686279296875 395.7843322753906 340.9919128417969 441.84124755859375" stroke-width="0.0" fill="rgb(148, 76, 121)" opacity="0.9957192"/>
    <path d="M 353.9817199707031 141.8131561279297 C 352.5928649902344 143.0990447998047 359.4028625488281 166.131103515625 351.8574523925781 176.52499389648438 C 326.3498840332031 143.8055419921875 346.1540832519531 154.59432983398438 312.5189514160156 159.8186492919922 C 345.8494873046875 146.04388427734375 342.9622802734375 144.29351806640625 352.0599060058594 132.0416717529297 C 353.56707763671875 138.2197265625 354.1298828125 150.40237426757812 353.9817199707031 141.8131561279297" stroke-width="0.0" fill="rgb(0, 33, 30)" opacity="0.5582176"/>
    <path d="M 291.3028259277344 212.3712615966797 C 256.2016906738281 165.98776245117188 261.1783752441406 180.73934936523438 255.02102661132812 174.77915954589844 C 235.8250274658203 166.7574462890625 188.79800415039062 195.7137908935547 221.69859313964844 259.2437744140625 C 172.97972106933594 210.26937866210938 237.2678985595703 161.93426513671875 225.2165985107422 179.17788696289062 C 225.7002716064453 176.75733947753906 258.1789855957031 145.92054748535156 291.3028259277344 212.3712615966797" stroke-width="0.0" fill="rgb(254, 249, 255)" opacity="0.7472781"/>
    <path d="M 215.04551696777344 134.4584503173828 C 208.6779022216797 145.4306640625 237.47926330566406 150.9850311279297 183.99742126464844 245.77685546875 C 92.0108413696289 234.76588439941406 84.74113464355469 206.34036254882812 123.35652160644531 160.6241912841797 C 183.5303497314453 120.99118041992188 189.34225463867188 111.77169036865234 205.30441284179688 92.02564239501953 C 233.79110717773438 101.07918548583984 253.07882690429688 121.63627624511719 215.04551696777344 134.4584503173828" stroke-width="0.0" fill="rgb(149, 75, 122)" opacity="1.0"/>
    <path d="M 312.7569274902344 271.39263916015625 C 327.7621765136719 299.1312255859375 296.9063720703125 265.8764343261719 316.74835205078125 272.38165283203125 C 314.2180480957031 265.9373474121094 293.0795593261719 265.9378662109375 287.00970458984375 262.9369812011719 C 288.52105712890625 263.5017395019531 291.53826904296875 258.12542724609375 281.1067199707031 263.45562744140625 C 291.5694885253906 271.8859558105469 316.8903503417969 272.220947265625 312.7569274902344 271.39263916015625" stroke-width="0.0" fill="rgb(45, 35, 43)" opacity="1.0"/>
    <path d="M 341.0599670410156 413.32586669921875 C 341.8290100097656 410.0575866699219 339.5003662109375 421.31781005859375 332.3436584472656 420.0115051269531 C 336.00225830078125 412.7376708984375 319.3397216796875 418.0446472167969 334.5082702636719 413.55010986328125 C 343.57000732421875 417.2178039550781 345.9660339355469 405.581298828125 340.7393493652344 399.9768981933594 C 337.5578308105469 405.3609924316406 345.29254150390625 410.8511962890625 341.0599670410156 413.32586669921875" stroke-width="0.0" fill="rgb(245, 255, 253)" opacity="0.7266053"/>
    <path d="M 309.22503662109375 269.3027648925781 C 302.97918701171875 274.4871520996094 301.3122253417969 276.09722900390625 301.0555419921875 266.6434631347656 C 297.0589294433594 259.9017333984375 273.1748046875 273.7690734863281 240.8291778564453 274.1131286621094 C 280.48577880859375 255.6280517578125 295.63079833984375 264.9194641113281 303.64404296875 268.25244140625 C 280.781005859375 272.4307861328125 291.3759460449219 266.4510192871094 309.22503662109375 269.3027648925781" stroke-width="0.0" fill="rgb(48, 34, 54)" opacity="0.7676573"/>
    <path d="M 301.6360168457031 390.270751953125 C 310.2717590332031 397.14483642578125 282.06793212890625 406.1267395019531 288.24273681640625 399.7659912109375 C 296.1266784667969 403.5849914550781 296.6369323730469 403.45782470703125 288.5066223144531 393.07135009765625 C 286.0334167480469 414.9913635253906 310.92047119140625 409.5009765625 305.0111389160156 405.2512512207031 C 299.49774169921875 412.2593688964844 313.7616882324219 397.88482666015625 301.6360168457031 390.270751953125" stroke-width="0.0" fill="rgb(4, 16, 44)" opacity="0.6160509"/>
    <path d="M 324.8708801269531 274.46539306640625 C 317.6729431152344 274.2404479980469 305.81201171875 275.1825866699219 327.0451965332031 267.68353271484375 C 319.60565185546875 270.81201171875 306.292724609375 265.7017517089844 281.8797607421875 262.5434875488281 C 298.9655456542969 265.985595703125 297.3233337402344 257.2679138183594 292.0901794433594 281.87860107421875 C 304.21795654296875 257.3748474121094 304.93365478515625 271.47869873046875 324.8708801269531 274.46539306640625" stroke-width="0.0" fill="rgb(64, 61, 72)" opacity="0.6042869"/>
    <path d="M 369.85418701171875 291.7723083496094 C 368.1358947753906 285.3085632324219 369.77044677734375 297.2773132324219 366.3697509765625 322.06243896484375 C 358.2458801269531 302.2978210449219 350.37103271484375 296.92486572265625 344.7435302734375 289.45263671875 C 350.83538818359375 277.7347106933594 362.8681640625 272.97418212890625 360.79095458984375 253.45233154296875 C 370.86163330078125 271.6404113769531 367.7502746582031 289.5101623535156 369.85418701171875 291.7723083496094" stroke-width="0.0" fill="rgb(39, 29, 40)" opacity="0.8747115"/>
    <path d="M 344.2156677246094 411.7145080566406 C 343.6660461425781 421.8177185058594 334.0574951171875 424.805908203125 332.43017578125 426.2761535644531 C 327.35272216796875 414.19451904296875 310.7751159667969 426.6954040527344 312.8506164550781 416.59246826171875 C 329.1199951171875 410.29473876953125 343.5511779785156 433.7823791503906 335.1646423339844 398.9880065917969 C 339.4875793457031 376.8089599609375 335.18865966796875 403.2731018066406 344.2156677246094 411.7145080566406" stroke-width="0.0" fill="rgb(28, 27, 29)" opacity="0.92560375"/>
    <path d="M 366.4053039550781 298.91180419921875 C 362.4892272949219 303.5364990234375 378.9473876953125 320.19708251953125 338.4951171875 404.28033447265625 C 333.79498291015625 367.5613098144531 335.9632263183594 339.03948974609375 325.7530517578125 308.2226867675781 C 352.5458679199219 304.2803039550781 359.28070068359375 291.7074890136719 366.9156799316406 280.7022705078125 C 367.70587158203125 293.9992370605469 365.6340637207031 304.554443359375 366.4053039550781 298.91180419921875" stroke-width="0.0" fill="rgb(64, 56, 84)" opacity="0.97782123"/>
    <path d="M 359.5592346191406 259.5511474609375 C 363.05157470703125 261.4554443359375 366.3583984375 274.105224609375 366.8714599609375 280.5138244628906 C 353.1184387207031 280.00177001953125 346.3622131347656 272.84173583984375 343.1321105957031 261.41156005859375 C 359.50323486328125 249.95346069335938 358.5022888183594 243.56488037109375 366.6188659667969 231.2649383544922 C 354.171875 258.631591796875 366.9189453125 249.5042724609375 359.5592346191406 259.5511474609375" stroke-width="0.0" fill="rgb(66, 57, 80)" opacity="0.9877447"/>
    <path d="M 366.3580322265625 416.7247009277344 C 333.9310302734375 411.307861328125 343.7879943847656 416.1012268066406 341.2602844238281 429.9406433105469 C 331.7916259765625 427.6878356933594 322.6903076171875 421.6485290527344 339.2176208496094 425.360107421875 C 350.1707763671875 401.4840393066406 327.8702087402344 409.068603515625 348.2385559082031 386.5712890625 C 364.30084228515625 321.87518310546875 377.2089538574219 380.3881530761719 366.3580322265625 416.7247009277344" stroke-width="0.0" fill="rgb(148, 78, 123)" opacity="0.9254221"/>
    <path d="M 264.3633728027344 162.85995483398438 C 269.82415771484375 173.15676879882812 238.47767639160156 161.03053283691406 215.70765686035156 185.54132080078125 C 207.85897827148438 158.1524200439453 212.80552673339844 142.2064971923828 215.85255432128906 140.06581115722656 C 208.78292846679688 143.52114868164062 208.10934448242188 138.02603149414062 200.17234802246094 141.60804748535156 C 217.36959838867188 136.81695556640625 222.4873504638672 150.07887268066406 264.3633728027344 162.85995483398438" stroke-width="0.0" fill="rgb(74, 61, 80)" opacity="1.0"/>
    <path d="M 354.0919189453125 273.1830139160156 C 356.4263000488281 275.03814697265625 349.0081787109375 282.32342529296875 338.7431335449219 285.80633544921875 C 328.6076965332031 282.0735168457031 317.8597412109375 278.1570739746094 325.9021911621094 281.2210998535156 C 343.09271240234375 277.51220703125 344.74139404296875 270.8726806640625 330.2049255371094 270.89288330078125 C 333.958984375 264.979736328125 342.4548645019531 271.65960693359375 354.0919189453125 273.1830139160156" stroke-width="0.0" fill="rgb(117, 119, 130)" opacity="0.6534605"/>
    <path d="M 300.80810546875 269.9236755371094 C 252.64659118652344 261.0816345214844 235.093505859375 284.5532531738281 215.13052368164062 244.5538787841797 C 295.6827697753906 271.28802490234375 282.4281311035156 267.4671325683594 273.87701416015625 242.87057495117188 C 270.7524108886719 251.60122680664062 247.63900756835938 256.6223449707031 277.7200622558594 262.9360656738281 C 224.28880310058594 273.3017883300781 263.1086120605469 264.731689453125 300.80810546875 269.9236755371094" stroke-width="0.0" fill="rgb(160, 144, 166)" opacity="0.87903523"/>
    <path d="M 366.7396240234375 278.80767822265625 C 359.26995849609375 291.48046875 353.9472961425781 302.8857116699219 333.88934326171875 325.91668701171875 C 324.22674560546875 298.6416015625 314.1559143066406 290.3782653808594 315.39990234375 269.3150939941406 C 323.0827331542969 267.72930908203125 334.4621276855469 267.3532409667969 343.8164978027344 260.6979675292969 C 365.87933349609375 253.4256591796875 353.9143371582031 270.5863952636719 366.7396240234375 278.80767822265625" stroke-width="0.0" fill="rgb(76, 69, 95)" opacity="1.0"/>
    <path d="M 202.06805419921875 253.69346618652344 C 189.6863250732422 285.30950927734375 202.98672485351562 297.0413513183594 183.2574920654297 295.38421630859375 C 170.485107421875 290.5792541503906 163.5852813720703 283.61224365234375 164.6970977783203 275.2959899902344 C 164.3042449951172 266.3441162109375 169.9261016845703 258.2557678222656 203.0457763671875 210.2900848388672 C 196.40408325195312 235.37002563476562 214.6542205810547 243.17124938964844 202.06805419921875 253.69346618652344" stroke-width="0.0" fill="rgb(149, 76, 124)" opacity="1.0"/>
    <path d="M 340.48016357421875 243.62158203125 C 327.267822265625 264.9551696777344 289.7171325683594 241.80136108398438 299.0050354003906 262.7130432128906 C 282.02435302734375 247.48110961914062 281.8048095703125 259.75701904296875 289.7004699707031 261.645751953125 C 287.9483337402344 250.45428466796875 297.69573974609375 260.68255615234375 294.764404296875 238.04360961914062 C 293.9289855957031 238.08876037597656 312.4073486328125 263.2179260253906 340.48016357421875 243.62158203125" stroke-width="0.0" fill="rgb(23, 20, 40)" opacity="0.60215825"/>
    <path d="M 293.77239990234375 258.9982604980469 C 286.4510498046875 272.4696350097656 261.4697570800781 262.6515197753906 267.95013427734375 288.1539001464844 C 258.35345458984375 276.66314697265625 274.4718322753906 251.59573364257812 278.1540222167969 284.4127197265625 C 277.0525207519531 262.58502197265625 277.96246337890625 273.1640319824219 294.0420227050781 260.10296630859375 C 288.1765441894531 262.7533874511719 296.10931396484375 237.85784912109375 293.77239990234375 258.9982604980469" stroke-width="0.0" fill="rgb(163, 153, 176)" opacity="1.0"/>
    <path d="M 214.9383544921875 190.63294982910156 C 219.9126434326172 193.12579345703125 207.6750946044922 201.99948120117188 209.15859985351562 202.19793701171875 C 221.7736053466797 216.26235961914062 224.72886657714844 190.45982360839844 213.54000854492188 192.93312072753906 C 231.98411560058594 215.36529541015625 206.75762939453125 164.43971252441406 228.45761108398438 199.923583984375 C 222.57687377929688 179.6040496826172 216.1182861328125 181.60597229003906 214.9383544921875 190.63294982910156" stroke-width="0.0" fill="rgb(255, 255, 255)" opacity="1.0"/>
    <path d="M 312.5739440917969 262.9076232910156 C 317.5510559082031 247.05242919921875 308.5736083984375 245.274169921875 298.1202697753906 252.76658630371094 C 261.315185546875 265.83526611328125 281.3496398925781 280.6497497558594 276.65631103515625 265.67803955078125 C 290.369140625 250.34109497070312 314.03631591796875 249.57847595214844 309.5238342285156 257.8621826171875 C 301.4535827636719 241.6659698486328 297.6468200683594 265.3941345214844 312.5739440917969 262.9076232910156" stroke-width="0.0" fill="rgb(60, 25, 59)" opacity="0.61023283"/>
    <path d="M 195.71371459960938 289.8712158203125 C 197.4089813232422 289.3334655761719 194.17495727539062 299.4280090332031 202.9312744140625 335.1665954589844 C 182.68881225585938 305.08978271484375 180.5496826171875 295.0044860839844 180.3887939453125 285.6867980957031 C 175.9455108642578 278.05364990234375 183.0235595703125 270.7159118652344 189.1023406982422 273.80352783203125 C 196.54168701171875 278.0658264160156 195.80372619628906 287.020751953125 195.71371459960938 289.8712158203125" stroke-width="0.0" fill="rgb(152, 78, 126)" opacity="1.0"/>
    <path d="M 315.2428894042969 408.90460205078125 C 312.7503967285156 390.7825012207031 305.01007080078125 396.88043212890625 314.9510498046875 399.2021484375 C 313.84844970703125 398.4771728515625 304.6697082519531 390.4643249511719 304.6909484863281 404.4501953125 C 309.1202392578125 411.361083984375 318.1737060546875 412.59136962890625 305.8341369628906 397.96673583984375 C 303.97833251953125 400.58746337890625 305.2484436035156 412.08935546875 315.2428894042969 408.90460205078125" stroke-width="0.0" fill="rgb(24, 18, 40)" opacity="0.6494848"/>
    <path d="M 261.42559814453125 265.81768798828125 C 269.03216552734375 263.4151916503906 256.7648620605469 284.7159729003906 264.1355285644531 285.7366943359375 C 266.752197265625 237.013427734375 251.62611389160156 285.15802001953125 250.1838836669922 253.7283935546875 C 257.0792236328125 264.597412109375 253.01229858398438 273.4622497558594 218.9097137451172 255.16372680664062 C 235.54306030273438 274.49273681640625 260.13885498046875 266.6128234863281 261.42559814453125 265.81768798828125" stroke-width="0.0" fill="rgb(254, 253, 255)" opacity="0.8920125"/>
    <path d="M 222.91644287109375 182.4517822265625 C 216.72914123535156 186.69784545898438 205.5203094482422 201.55062866210938 213.98655700683594 201.47328186035156 C 224.53114318847656 220.4481201171875 220.48233032226562 195.79505920410156 214.50624084472656 198.7357940673828 C 222.41458129882812 202.10646057128906 214.14501953125 188.75096130371094 212.17645263671875 195.0139617919922 C 220.53005981445312 207.79916381835938 235.2654571533203 195.843994140625 222.91644287109375 182.4517822265625" stroke-width="0.0" fill="rgb(1, 0, 21)" opacity="0.37691423"/>
    <path d="M 311.1841735839844 266.8649597167969 C 314.03533935546875 251.9798126220703 305.5302429199219 249.1219024658203 306.3195495605469 250.8852081298828 C 310.0987854003906 256.8810729980469 299.6078186035156 253.76296997070312 301.84686279296875 248.92300415039062 C 295.41387939453125 255.53660583496094 317.03045654296875 254.5289764404297 315.9969787597656 255.619140625 C 298.35235595703125 252.52589416503906 311.7073974609375 255.8036346435547 311.1841735839844 266.8649597167969" stroke-width="0.0" fill="rgb(255, 232, 255)" opacity="0.58876586"/>
    <path d="M 344.7816162109375 238.61465454101562 C 351.70623779296875 225.59078979492188 350.0314025878906 224.39178466796875 358.8357238769531 231.3668670654297 C 357.8946838378906 229.98097229003906 361.611083984375 225.974853515625 354.6979675292969 226.1434326171875 C 362.5838317871094 240.99905395507812 357.882568359375 231.4218292236328 353.79638671875 224.85879516601562 C 349.9673156738281 227.29600524902344 341.91192626953125 239.38406372070312 344.7816162109375 238.61465454101562" stroke-width="0.0" fill="rgb(222, 219, 229)" opacity="0.89539355"/>
    <path d="M 317.9521484375 270.40911865234375 C 320.9963684082031 247.50550842285156 307.10205078125 259.3808288574219 297.34503173828125 245.35118103027344 C 298.3152770996094 266.4345397949219 300.90484619140625 264.3182373046875 300.1883544921875 249.1610565185547 C 309.0171203613281 254.99769592285156 315.9664306640625 255.5160675048828 298.2227783203125 249.3260498046875 C 316.90960693359375 256.9029541015625 316.1905822753906 251.81884765625 317.9521484375 270.40911865234375" stroke-width="0.0" fill="rgb(237, 225, 255)" opacity="0.8202575"/>
    <path d="M 273.3898620605469 441.2499694824219 C 240.2139129638672 416.9113464355469 264.4975891113281 429.6048889160156 266.5738220214844 416.0467834472656 C 242.867431640625 410.1435241699219 264.9049987792969 414.260986328125 254.9778289794922 426.0875244140625 C 263.2630920410156 414.1158447265625 253.6785125732422 435.16033935546875 252.2882843017578 419.3810729980469 C 227.71730041503906 427.2552490234375 243.51382446289062 433.78326416015625 273.3898620605469 441.2499694824219" stroke-width="0.0" fill="rgb(148, 83, 130)" opacity="0.8898486"/>
    <path d="M 316.0007019042969 194.81150817871094 C 317.7989501953125 190.61865234375 313.57501220703125 200.0436553955078 314.39361572265625 197.8921661376953 C 322.3984069824219 192.01710510253906 322.5565490722656 191.7498016357422 314.31024169921875 198.01063537597656 C 311.6226806640625 207.5520477294922 318.5681457519531 195.3427276611328 336.4579772949219 207.52029418945312 C 320.7295227050781 191.86569213867188 308.72039794921875 208.23989868164062 316.0007019042969 194.81150817871094" stroke-width="0.0" fill="rgb(162, 163, 152)" opacity="0.65182024"/>
    <path d="M 325.33831787109375 217.2025909423828 C 307.34320068359375 213.3592529296875 314.11865234375 216.48985290527344 315.76544189453125 221.88421630859375 C 322.63916015625 227.9031219482422 318.1905212402344 212.963134765625 319.4582214355469 215.0512237548828 C 320.5506896972656 229.10818481445312 317.44781494140625 220.84283447265625 317.8150634765625 221.8554229736328 C 315.890625 223.77407836914062 328.767822265625 222.88755798339844 325.33831787109375 217.2025909423828" stroke-width="0.0" fill="rgb(238, 239, 247)" opacity="0.9720922"/>
    <path d="M 239.98171997070312 356.3200988769531 C 247.67813110351562 344.1245422363281 234.57423400878906 356.93096923828125 238.479248046875 390.3503112792969 C 241.04629516601562 340.2342224121094 237.03016662597656 343.8181457519531 240.51211547851562 368.5327453613281 C 242.89599609375 368.0037841796875 239.92684936523438 355.9250183105469 242.277099609375 328.8982849121094 C 239.47781372070312 330.14434814453125 240.3843536376953 355.77276611328125 239.98171997070312 356.3200988769531" stroke-width="0.0" fill="rgb(126, 117, 133)" opacity="0.95795715"/>
    <path d="M 253.5458221435547 218.3425750732422 C 253.08192443847656 213.43540954589844 243.86964416503906 214.5912628173828 243.24952697753906 221.37252807617188 C 245.86968994140625 219.02011108398438 245.21234130859375 216.71070861816406 245.41600036621094 215.75799560546875 C 245.69091796875 218.51766967773438 244.7227325439453 220.78651428222656 242.25257873535156 222.3319091796875 C 245.5861053466797 218.44847106933594 239.4108428955078 230.3363800048828 253.5458221435547 218.3425750732422" stroke-width="0.0" fill="rgb(241, 241, 250)" opacity="0.97268397"/>
    <path d="M 237.99473571777344 412.33782958984375 C 230.48916625976562 406.6849060058594 227.13636779785156 396.2292175292969 230.44052124023438 420.03778076171875 C 240.21316528320312 415.0830383300781 233.07901000976562 404.2749938964844 226.2299041748047 403.3982238769531 C 235.32635498046875 405.8659973144531 224.2569580078125 397.0715637207031 220.7313690185547 383.84808349609375 C 237.43618774414062 372.7422790527344 230.9556884765625 411.00103759765625 237.99473571777344 412.33782958984375" stroke-width="0.0" fill="rgb(0, 16, 26)" opacity="0.47920665"/>
    <path d="M 249.77911376953125 274.1315612792969 C 270.996826171875 265.04766845703125 255.09237670898438 273.7773132324219 248.25941467285156 283.6423645019531 C 234.11810302734375 272.6645202636719 229.64247131347656 264.7627868652344 248.7358856201172 274.2364501953125 C 238.3251953125 245.37599182128906 255.914306640625 256.81591796875 227.84500122070312 245.5428466796875 C 235.6699981689453 252.30844116210938 243.96617126464844 258.7286682128906 249.77911376953125 274.1315612792969" stroke-width="0.0" fill="rgb(79, 62, 85)" opacity="0.9621726"/>
    <path d="M 270.39300537109375 277.38568115234375 C 272.8632507324219 273.8656311035156 274.3020935058594 277.5217590332031 268.0393981933594 274.3955383300781 C 275.0369873046875 266.87701416015625 266.038330078125 256.6627502441406 248.98133850097656 266.7679138183594 C 263.4129943847656 260.0800476074219 266.3879089355469 265.66046142578125 252.47496032714844 263.7704162597656 C 263.1175231933594 259.8158874511719 276.6461486816406 263.80474853515625 270.39300537109375 277.38568115234375" stroke-width="0.0" fill="rgb(51, 37, 91)" opacity="0.6799211"/>
    <path d="M 217.28656005859375 192.2109375 C 205.0671844482422 187.85504150390625 219.99398803710938 219.7526092529297 206.67286682128906 203.28138732910156 C 234.3444061279297 204.37838745117188 216.45208740234375 210.7486114501953 214.21800231933594 191.45956420898438 C 207.06912231445312 199.65878295898438 222.13021850585938 195.79710388183594 205.3687286376953 198.6015625 C 207.73980712890625 195.87115478515625 213.7262420654297 201.6245880126953 217.28656005859375 192.2109375" stroke-width="0.0" fill="rgb(4, 0, 7)" opacity="0.5386236"/>
    <path d="M 351.0843811035156 238.9329071044922 C 364.3353271484375 241.1079559326172 357.1227722167969 240.88404846191406 364.2196044921875 240.82261657714844 C 355.59527587890625 242.2318572998047 349.5008850097656 233.79722595214844 353.39453125 227.18199157714844 C 357.40679931640625 241.4011688232422 346.0260009765625 222.26251220703125 359.93499755859375 232.36932373046875 C 358.0106506347656 241.57754516601562 355.1832275390625 226.07852172851562 351.0843811035156 238.9329071044922" stroke-width="0.0" fill="rgb(27, 15, 42)" opacity="0.57850707"/>
    <path d="M 346.9764404296875 237.29019165039062 C 355.1846923828125 236.91165161132812 354.9682922363281 247.03076171875 355.5350646972656 230.42030334472656 C 355.9405212402344 230.9170684814453 339.9652404785156 231.8013916015625 354.11822509765625 246.37445068359375 C 334.4969787597656 241.99264526367188 368.9736328125 221.26539611816406 349.5514221191406 204.68130493164062 C 354.2171325683594 218.20310974121094 350.6991271972656 228.40444946289062 346.9764404296875 237.29019165039062" stroke-width="0.0" fill="rgb(10, 0, 16)" opacity="0.4844809"/>
    <path d="M 300.207763671875 260.42645263671875 C 288.55426025390625 232.03872680664062 299.14764404296875 271.9656677246094 290.3038635253906 257.0677185058594 C 297.5445556640625 243.94691467285156 293.6224060058594 251.06777954101562 303.16741943359375 266.408447265625 C 301.7293701171875 258.9462890625 302.1551818847656 245.5859375 306.0036926269531 265.5863952636719 C 284.61566162109375 261.4763488769531 285.3896484375 259.96868896484375 300.207763671875 260.42645263671875" stroke-width="0.0" fill="rgb(248, 248, 255)" opacity="0.7498195"/>
    <path d="M 349.5049743652344 235.61373901367188 C 362.948486328125 240.55125427246094 361.6303405761719 238.36737060546875 363.8598937988281 241.2496795654297 C 359.80133056640625 236.2716064453125 351.71929931640625 233.19960021972656 352.740478515625 232.79132080078125 C 353.03350830078125 236.78114318847656 355.30242919921875 232.43887329101562 355.574462890625 235.63687133789062 C 349.7109375 229.487060546875 356.07965087890625 236.94586181640625 349.5049743652344 235.61373901367188" stroke-width="0.0" fill="rgb(255, 254, 255)" opacity="0.6836598"/>
    <path d="M 333.64764404296875 167.02447509765625 C 332.24615478515625 169.1483612060547 335.8545227050781 198.44354248046875 335.6737365722656 186.8157958984375 C 339.8827819824219 171.089111328125 334.8811950683594 188.5589599609375 332.43707275390625 176.54998779296875 C 321.98455810546875 202.41456604003906 339.7705383300781 180.1642303466797 330.6907043457031 164.20712280273438 C 339.3814697265625 166.5254669189453 348.0976257324219 172.43955993652344 333.64764404296875 167.02447509765625" stroke-width="0.0" fill="rgb(13, 3, 41)" opacity="0.5958797"/>
    <path d="M 214.2571258544922 153.1785125732422 C 224.5118408203125 144.06886291503906 215.9780731201172 145.66685485839844 222.10946655273438 146.51759338378906 C 220.15512084960938 143.02403259277344 214.78330993652344 135.57855224609375 217.91148376464844 144.64822387695312 C 214.63600158691406 153.85557556152344 222.26351928710938 148.6597137451172 218.66717529296875 142.6805877685547 C 211.64154052734375 144.41363525390625 221.16119384765625 143.65017700195312 214.2571258544922 153.1785125732422" stroke-width="0.0" fill="rgb(139, 128, 155)" opacity="0.9639054"/>
    <path d="M 160.2890167236328 281.0819091796875 C 157.4853515625 291.1280212402344 150.13043212890625 298.4910888671875 140.07554626464844 301.378662109375 C 129.9807586669922 298.3722229003906 122.69419860839844 290.9936218261719 119.6488037109375 280.84820556640625 C 122.4721450805664 270.8929138183594 129.95352172851562 263.6737365722656 139.98724365234375 261.1305236816406 C 149.9720458984375 263.7235107421875 157.30824279785156 271.0196838378906 160.2890167236328 281.0819091796875" stroke-width="0.0" fill="rgb(148, 75, 120)" opacity="0.92943805"/>
    <path d="M 252.8463592529297 185.8939666748047 C 259.1822509765625 169.74365234375 243.56790161132812 178.05665588378906 250.60304260253906 180.24073791503906 C 257.6547546386719 167.40550231933594 249.21974182128906 176.65919494628906 249.4019317626953 182.30026245117188 C 248.55105590820312 184.31288146972656 252.8876495361328 189.39846801757812 250.0600128173828 178.65843200683594 C 247.64926147460938 179.9722442626953 255.097900390625 174.43386840820312 252.8463592529297 185.8939666748047" stroke-width="0.0" fill="rgb(202, 169, 199)" opacity="0.8524265"/>
    <path d="M 260.4079284667969 402.62628173828125 C 251.7786407470703 400.39404296875 264.35113525390625 414.8720703125 256.3771667480469 407.8515625 C 272.6016540527344 403.60162353515625 265.8421325683594 418.1979675292969 223.42396545410156 410.03472900390625 C 233.60983276367188 413.4021301269531 257.9235534667969 411.0697326660156 261.6069030761719 411.3157958984375 C 266.0289306640625 423.9012145996094 251.24099731445312 434.4788513183594 260.4079284667969 402.62628173828125" stroke-width="0.0" fill="rgb(252, 255, 255)" opacity="0.90003026"/>
    <path d="M 229.2440948486328 413.35009765625 C 241.0504150390625 403.70037841796875 234.05596923828125 409.2726745605469 225.31788635253906 416.5567626953125 C 210.44276428222656 417.40704345703125 212.18118286132812 412.7797546386719 212.11192321777344 403.3982238769531 C 218.4273681640625 391.8830871582031 222.95449829101562 380.11773681640625 215.19915771484375 387.88006591796875 C 224.81813049316406 393.66619873046875 233.90805053710938 400.44549560546875 229.2440948486328 413.35009765625" stroke-width="0.0" fill="rgb(156, 80, 123)" opacity="0.6687309"/>
    <path d="M 287.1486511230469 236.9461212158203 C 285.17474365234375 195.71795654296875 285.5935974121094 221.07095336914062 284.8277587890625 208.01797485351562 C 280.7796630859375 206.25718688964844 273.44451904296875 193.91940307617188 280.2834167480469 207.98757934570312 C 277.6778869628906 215.29937744140625 291.1908874511719 205.72975158691406 281.6440734863281 215.0053253173828 C 287.469482421875 205.68556213378906 278.80377197265625 214.42030334472656 287.1486511230469 236.9461212158203" stroke-width="0.0" fill="rgb(255, 251, 255)" opacity="0.8634959"/>
    <path d="M 221.06297302246094 580.4696044921875 C 197.38116455078125 616.45458984375 178.50881958007812 614.7372436523438 164.30209350585938 614.3447265625 C 152.68504333496094 612.1373291015625 139.4603271484375 608.9794921875 124.48333740234375 601.2289428710938 C 143.09828186035156 580.7249145507812 148.15870666503906 568.2722778320312 172.3626251220703 545.471435546875 C 199.07032775878906 551.5938110351562 212.8035888671875 556.763916015625 221.06297302246094 580.4696044921875" stroke-width="0.0" fill="rgb(148, 76, 121)" opacity="1.0"/>
    <path d="M 308.6190185546875 424.82684326171875 C 310.1963806152344 401.1041564941406 305.9281921386719 413.8255615234375 320.9682922363281 414.00146484375 C 317.3425598144531 408.4320983886719 302.91241455078125 409.1677551269531 314.9466552734375 424.9163513183594 C 311.4714050292969 423.6090087890625 313.7533874511719 402.8779296875 306.3642272949219 401.27001953125 C 305.7539367675781 402.0146789550781 305.480712890625 425.43634033203125 308.6190185546875 424.82684326171875" stroke-width="0.0" fill="rgb(252, 250, 255)" opacity="0.82328266"/>
    <path d="M 301.9047546386719 182.15802001953125 C 293.90771484375 177.02609252929688 286.644287109375 183.70504760742188 294.063232421875 186.43960571289062 C 298.6969909667969 193.9195556640625 304.5124816894531 180.24774169921875 291.1475830078125 177.2264404296875 C 281.24871826171875 180.17372131347656 295.15155029296875 177.8895263671875 287.0451354980469 184.08900451660156 C 299.9151916503906 186.923095703125 308.2130126953125 196.3909912109375 301.9047546386719 182.15802001953125" stroke-width="0.0" fill="rgb(96, 83, 109)" opacity="1.0"/>
    <path d="M 273.5089416503906 247.52984619140625 C 267.71087646484375 254.13516235351562 281.8119201660156 260.256103515625 268.7048645019531 257.7946472167969 C 268.7835693359375 265.99609375 262.23626708984375 259.1172180175781 260.0871887207031 258.7572326660156 C 262.2825927734375 267.3878173828125 265.456787109375 258.22772216796875 275.2017517089844 261.1739807128906 C 276.760498046875 254.4246826171875 275.3357238769531 255.56008911132812 273.5089416503906 247.52984619140625" stroke-width="0.0" fill="rgb(40, 22, 50)" opacity="0.92873275"/>
    <path d="M 277.368896484375 259.9914855957031 C 286.5855712890625 255.30177307128906 267.00482177734375 253.00204467773438 261.3245849609375 264.8273010253906 C 277.4456787109375 265.23297119140625 270.2164306640625 261.46710205078125 264.2287292480469 260.6101379394531 C 273.6097106933594 257.32965087890625 294.74432373046875 261.3035888671875 269.9134216308594 263.50830078125 C 279.4709167480469 249.44798278808594 276.7106018066406 246.97372436523438 277.368896484375 259.9914855957031" stroke-width="0.0" fill="rgb(241, 249, 255)" opacity="0.7924809"/>
    <path d="M 213.3477325439453 244.20697021484375 C 220.36294555664062 242.56446838378906 207.9728240966797 249.19517517089844 230.88670349121094 247.1843719482422 C 218.21096801757812 248.50108337402344 219.1887969970703 225.07315063476562 210.708984375 237.48345947265625 C 208.15696716308594 257.1415100097656 218.6600799560547 246.9394073486328 225.80239868164062 246.447998046875 C 221.3166961669922 241.03822326660156 222.64369201660156 252.22146606445312 213.3477325439453 244.20697021484375" stroke-width="0.0" fill="rgb(250, 243, 255)" opacity="0.43773973"/>
    <path d="M 275.750244140625 259.4349670410156 C 280.15069580078125 256.98883056640625 267.2554016113281 264.101806640625 270.32928466796875 260.1068115234375 C 263.4862976074219 255.60693359375 266.52001953125 243.00526428222656 262.71624755859375 263.26123046875 C 267.7438049316406 261.63385009765625 277.98681640625 256.1575622558594 275.6962585449219 255.1085968017578 C 271.2149963378906 255.21539306640625 273.7100524902344 256.0319519042969 275.750244140625 259.4349670410156" stroke-width="0.0" fill="rgb(50, 43, 87)" opacity="0.94325376"/>
    <path d="M 266.2240295410156 260.18988037109375 C 270.6322326660156 275.5644226074219 249.20144653320312 247.4623565673828 263.2341613769531 253.34088134765625 C 248.21617126464844 251.4084014892578 240.25772094726562 265.5214538574219 241.46018981933594 249.3955841064453 C 232.29835510253906 270.4791259765625 249.7529754638672 242.7532958984375 265.3602294921875 266.0874328613281 C 260.7832336425781 251.9068603515625 264.60357666015625 249.24452209472656 266.2240295410156 260.18988037109375" stroke-width="0.0" fill="rgb(211, 203, 221)" opacity="0.73813653"/>
    <path d="M 283.75421142578125 242.9774932861328 C 293.982177734375 240.01675415039062 286.2235107421875 259.883544921875 272.6357421875 257.8307189941406 C 269.8687438964844 267.06451416015625 264.2555236816406 266.3756408691406 272.6938781738281 258.8685302734375 C 283.46673583984375 255.94068908691406 284.96905517578125 254.9117889404297 283.6571044921875 249.04530334472656 C 283.2714538574219 252.85281372070312 283.3291931152344 251.39283752441406 283.75421142578125 242.9774932861328" stroke-width="0.0" fill="rgb(233, 244, 255)" opacity="0.73666745"/>
    <path d="M 303.9432678222656 345.30755615234375 C 317.955810546875 340.081298828125 306.5799865722656 352.2976379394531 296.818115234375 365.9935607910156 C 304.1667785644531 352.51123046875 293.5568542480469 346.86785888671875 294.3712463378906 336.9437255859375 C 303.5293884277344 363.1287841796875 305.8316955566406 338.75335693359375 286.2062683105469 311.68365478515625 C 297.8527526855469 353.8177490234375 306.77813720703125 359.61334228515625 303.9432678222656 345.30755615234375" stroke-width="0.0" fill="rgb(253, 252, 254)" opacity="0.9257677"/>
    <path d="M 329.9221496582031 258.60498046875 C 334.77935791015625 263.7947082519531 328.30157470703125 270.0980224609375 327.6488952636719 248.99440002441406 C 325.72296142578125 260.3088684082031 321.8747253417969 246.05490112304688 327.297119140625 263.0620422363281 C 322.2979736328125 266.8096923828125 326.5976867675781 253.3535919189453 316.3700256347656 249.31959533691406 C 317.5616455078125 264.63311767578125 331.5015869140625 244.52395629882812 329.9221496582031 258.60498046875" stroke-width="0.0" fill="rgb(216, 205, 209)" opacity="0.7736863"/>
    <path d="M 328.55462646484375 258.9752502441406 C 330.06268310546875 262.44635009765625 332.4830322265625 270.11328125 330.49603271484375 263.8591003417969 C 324.98004150390625 255.45103454589844 317.37432861328125 269.39093017578125 315.35882568359375 248.46209716796875 C 313.9791259765625 254.4697723388672 327.9308166503906 248.2273406982422 326.427978515625 251.73129272460938 C 317.8054504394531 244.39842224121094 315.79815673828125 268.7473449707031 328.55462646484375 258.9752502441406" stroke-width="0.0" fill="rgb(66, 48, 77)" opacity="0.9733713"/>
    <path d="M 251.25262451171875 297.62994384765625 C 255.36416625976562 317.546630859375 241.88975524902344 319.61767578125 241.38775634765625 315.3589172363281 C 253.09597778320312 322.6336364746094 249.77989196777344 298.84381103515625 240.44384765625 314.4172668457031 C 243.43380737304688 320.201904296875 253.7818145751953 312.0525817871094 238.6006317138672 287.36029052734375 C 242.79164123535156 312.1439514160156 259.0621337890625 326.8757019042969 251.25262451171875 297.62994384765625" stroke-width="0.0" fill="rgb(109, 88, 116)" opacity="0.60648113"/>
    <path d="M 324.165283203125 364.48797607421875 C 317.6417236328125 368.1174011230469 324.781005859375 370.758544921875 325.0938720703125 378.91839599609375 C 327.2577819824219 369.982421875 318.5007629394531 374.2047119140625 311.6280822753906 368.9651184082031 C 309.9216003417969 363.4018249511719 315.0962219238281 361.5385437011719 313.9853515625 371.346923828125 C 326.8981628417969 371.34222412109375 324.81951904296875 379.79632568359375 324.165283203125 364.48797607421875" stroke-width="0.0" fill="rgb(110, 95, 122)" opacity="0.9897303"/>
    <path d="M 333.6056213378906 268.8404846191406 C 335.424560546875 261.331787109375 328.74554443359375 271.48828125 324.3572082519531 265.3873291015625 C 339.7226257324219 264.31304931640625 332.5895690917969 260.3608093261719 331.6861267089844 250.6730194091797 C 321.9529113769531 256.69610595703125 331.65179443359375 250.5479736328125 324.3287353515625 253.20582580566406 C 332.120849609375 250.26649475097656 337.29437255859375 250.02500915527344 333.6056213378906 268.8404846191406" stroke-width="0.0" fill="rgb(254, 255, 255)" opacity="0.64768016"/>
    <path d="M 291.8726806640625 396.2203063964844 C 284.91729736328125 376.8943176269531 287.85565185546875 375.0821228027344 282.0553283691406 375.1551208496094 C 291.95538330078125 376.181396484375 281.4693908691406 376.1444396972656 276.7666015625 368.77313232421875 C 272.8836669921875 388.8147888183594 283.88671875 373.6082458496094 301.10064697265625 360.8125 C 281.56390380859375 350.17901611328125 294.311767578125 371.60302734375 291.8726806640625 396.2203063964844" stroke-width="0.0" fill="rgb(255, 254, 255)" opacity="0.8192022"/>
  </g>
</svg>
