<?xml version="1.0" ?>
<svg xmlns="http://www.w3.org/2000/svg" version="1.1" width="600" height="600">
  <defs/>
  <g>
    <path d="M 480.63861083984375 125.5099868774414 C 475.7646179199219 203.6302032470703 486.3879699707031 234.222900390625 381.830810546875 283.4181213378906 C 276.7100524902344 171.12335205078125 297.9056396484375 112.80223083496094 260.49371337890625 69.51657104492188 C 265.943359375 -10.791171073913574 261.920166015625 -45.7901611328125 385.5874938964844 -88.42205047607422 C 445.7760925292969 -35.086265563964844 448.2292785644531 -22.966699600219727 480.63861083984375 125.5099868774414" stroke-width="0.0" fill="rgb(200, 19, 14)" opacity="0.86599845"/>
    <path d="M 644.7339477539062 272.49224853515625 C 624.53466796875 327.68597412109375 605.3701782226562 317.98956298828125 530.188720703125 330.01202392578125 C 421.1955261230469 337.833984375 509.1540222167969 451.3937072753906 424.91851806640625 462.9419860839844 C 394.986083984375 168.56671142578125 492.3919372558594 216.0330352783203 599.4841918945312 184.2229766845703 C 631.0693969726562 191.65658569335938 641.6731567382812 192.2660675048828 644.7339477539062 272.49224853515625" stroke-width="0.0" fill="rgb(203, 45, 38)" opacity="0.97573465"/>
    <path d="M 638.7647705078125 316.8515319824219 C 666.3502807617188 404.1432800292969 648.86083984375 397.2431335449219 559.4632568359375 400.73211669921875 C 464.0439758300781 391.45831298828125 438.5866394042969 387.038330078125 472.35052490234375 303.64007568359375 C 515.1533813476562 265.26129150390625 533.56982421875 268.9384460449219 526.6077880859375 240.04638671875 C 616.10888671875 252.6914520263672 632.123779296875 248.70303344726562 638.7647705078125 316.8515319824219" stroke-width="0.0" fill="rgb(196, 53, 37)" opacity="1.0"/>
    <path d="M 620.4981689453125 387.65106201171875 C 622.8211059570312 417.9134826660156 623.0861206054688 434.27716064453125 608.7183837890625 441.0509033203125 C 514.244140625 414.131591796875 512.2999877929688 407.0117492675781 509.3491516113281 345.2979736328125 C 510.3330078125 240.8792724609375 493.69195556640625 275.4578552246094 576.4945068359375 290.5845947265625 C 602.8930053710938 305.23779296875 616.111572265625 307.66864013671875 620.4981689453125 387.65106201171875" stroke-width="0.0" fill="rgb(199, 42, 54)" opacity="0.5338526"/>
    <path d="M 602.5034790039062 448.2752685546875 C 610.9071655273438 478.8012390136719 614.6921997070312 485.3562927246094 341.8746643066406 490.666748046875 C 260.16656494140625 388.5604248046875 252.64715576171875 319.60638427734375 359.5863037109375 216.1900177001953 C 513.8049926757812 350.0893249511719 470.8259582519531 465.1533203125 460.927001953125 367.6170654296875 C 503.8016357421875 382.5152587890625 508.5436096191406 418.6678771972656 602.5034790039062 448.2752685546875" stroke-width="0.0" fill="rgb(255, 209, 0)" opacity="0.9950906"/>
    <path d="M 602.0924682617188 -12.984539985656738 C 584.1767578125 52.58021545410156 541.041259765625 42.26530456542969 475.24847412109375 40.57765197753906 C 477.692626953125 82.94461059570312 476.1953430175781 79.96455383300781 459.1457824707031 18.96004867553711 C 470.49871826171875 -27.001239776611328 466.61358642578125 -44.63238525390625 513.5558471679688 -56.325077056884766 C 578.711669921875 -27.949525833129883 603.1686401367188 -38.98894500732422 602.0924682617188 -12.984539985656738" stroke-width="0.0" fill="rgb(255, 255, 3)" opacity="0.821678"/>
    <path d="M 623.88037109375 107.3346176147461 C 619.6912231445312 157.38211059570312 619.4031372070312 171.05355834960938 557.8912353515625 202.52255249023438 C 412.64068603515625 211.63523864746094 409.7430419921875 207.28640747070312 442.7210693359375 118.30061340332031 C 421.7582702636719 -52.044376373291016 431.6486511230469 -22.51876449584961 545.30224609375 -29.890256881713867 C 618.697265625 -5.17457914352417 625.6842041015625 2.4304370880126953 623.88037109375 107.3346176147461" stroke-width="0.0" fill="rgb(210, 48, 39)" opacity="0.96666837"/>
    <path d="M 419.3284912109375 224.8230743408203 C 381.74798583984375 256.6097717285156 356.1512145996094 247.5781707763672 228.83995056152344 296.9811096191406 C 25.374343872070312 349.947509765625 77.6006088256836 307.0408020019531 120.031494140625 219.71165466308594 C 103.94241333007812 -19.820322036743164 91.1968002319336 -41.15620803833008 169.2548828125 -53.214622497558594 C 291.19268798828125 -17.693143844604492 296.4722595214844 21.538480758666992 419.3284912109375 224.8230743408203" stroke-width="0.0" fill="rgb(8, 9, 25)" opacity="0.9792746"/>
    <path d="M 209.09500122070312 144.04136657714844 C 268.13702392578125 345.84991455078125 296.91937255859375 367.4505920410156 223.72088623046875 384.7325439453125 C -119.25881958007812 341.3455505371094 -110.41645050048828 332.23431396484375 -44.69081497192383 265.53631591796875 C -27.204853057861328 -11.87529182434082 -24.28818130493164 -20.40080451965332 41.045352935791016 -32.925777435302734 C 209.76675415039062 -33.18231964111328 204.16940307617188 -21.714113235473633 209.09500122070312 144.04136657714844" stroke-width="0.0" fill="rgb(186, 25, 23)" opacity="0.9848748"/>
    <path d="M 640.7348022460938 181.34153747558594 C 590.7991333007812 245.82568359375 515.7350463867188 175.4652862548828 432.04193115234375 271.7977294921875 C 481.7655029296875 355.24578857421875 421.2540283203125 342.1363525390625 412.3211975097656 236.86190795898438 C 424.60015869140625 127.48695373535156 437.7908630371094 110.27993774414062 520.1512451171875 129.67459106445312 C 626.7279052734375 129.03720092773438 642.34765625 141.10421752929688 640.7348022460938 181.34153747558594" stroke-width="0.0" fill="rgb(211, 48, 45)" opacity="0.83774704"/>
    <path d="M 628.991943359375 502.3487243652344 C 625.149169921875 587.8899536132812 626.4277954101562 603.0358276367188 607.6687622070312 610.0730590820312 C 495.86846923828125 543.7160034179688 447.50469970703125 555.984130859375 443.5637512207031 474.1257629394531 C 460.32757568359375 437.46856689453125 474.2379455566406 433.8128967285156 571.6221923828125 418.9939270019531 C 617.2621459960938 427.7557067871094 622.4595336914062 441.6300048828125 628.991943359375 502.3487243652344" stroke-width="0.0" fill="rgb(246, 149, 92)" opacity="0.46000615"/>
    <path d="M 632.0167236328125 585.215576171875 C 594.562255859375 633.0223388671875 573.3016967773438 627.029052734375 401.7978820800781 639.1652221679688 C 279.8252258300781 730.2843627929688 257.179443359375 787.4605102539062 240.10763549804688 405.4744873046875 C 220.4529571533203 273.83380126953125 221.1986083984375 274.3511657714844 366.7153015136719 275.2398681640625 C 570.788330078125 496.93017578125 599.5568237304688 503.6551208496094 632.0167236328125 585.215576171875" stroke-width="0.0" fill="rgb(255, 209, 0)" opacity="1.0"/>
    <path d="M 226.64920043945312 407.9660339355469 C 290.7059326171875 798.8150634765625 289.7751159667969 727.9891357421875 186.6190948486328 637.0097045898438 C -6.65565299987793 640.907470703125 -20.87703514099121 648.15380859375 -41.21113967895508 450.6165771484375 C -100.52657318115234 361.4065856933594 -147.84689331054688 336.6947937011719 156.29086303710938 292.8577880859375 C 282.7883605957031 327.99212646484375 277.0345153808594 354.266357421875 226.64920043945312 407.9660339355469" stroke-width="0.0" fill="rgb(142, 27, 24)" opacity="0.98682"/>
    <path d="M 558.1023559570312 50.132110595703125 C 525.5072021484375 106.72700500488281 573.4866943359375 139.6420440673828 467.8759460449219 131.6004638671875 C 427.8206481933594 101.34275817871094 434.27215576171875 73.40809631347656 422.74627685546875 12.071226119995117 C 395.156005859375 -88.53451538085938 395.9053649902344 -56.142417907714844 432.68585205078125 -6.512172698974609 C 539.254638671875 -34.56687545776367 545.6587524414062 -29.187288284301758 558.1023559570312 50.132110595703125" stroke-width="0.0" fill="rgb(210, 54, 35)" opacity="0.6870984"/>
    <path d="M 368.17431640625 -25.950220108032227 C 362.69232177734375 61.33615493774414 339.4342956542969 38.719112396240234 331.3088684082031 27.711118698120117 C 308.8904724121094 52.93852615356445 310.754150390625 34.24700164794922 288.40576171875 8.080045700073242 C 257.28857421875 -13.19582748413086 254.9775390625 -28.034006118774414 320.8315734863281 -25.011571884155273 C 369.4682922363281 -19.242923736572266 381.11163330078125 -14.935229301452637 368.17431640625 -25.950220108032227" stroke-width="0.0" fill="rgb(200, 43, 42)" opacity="0.32338125"/>
    <path d="M 339.25439453125 3.312690496444702 C 341.0380554199219 49.03710174560547 323.4333190917969 73.65464782714844 231.36349487304688 88.18548583984375 C 204.12806701660156 120.02607727050781 207.38865661621094 141.39627075195312 171.95220947265625 6.7060980796813965 C 192.8101348876953 -55.05189514160156 220.6136474609375 -39.684295654296875 270.4307861328125 -36.52233123779297 C 333.7781066894531 1.640406847000122 344.2829284667969 12.316901206970215 339.25439453125 3.312690496444702" stroke-width="0.0" fill="rgb(165, 61, 37)" opacity="0.76805466"/>
    <path d="M 127.173095703125 76.69489288330078 C 130.97149658203125 73.76158142089844 142.7592315673828 110.54683685302734 128.94638061523438 142.4639129638672 C 78.64250183105469 99.22260284423828 53.964202880859375 89.31344604492188 52.8285026550293 63.85731506347656 C 77.90116119384766 42.95492172241211 84.56178283691406 35.216712951660156 92.098876953125 44.422218322753906 C 119.33515930175781 48.28163528442383 106.41096496582031 61.88254928588867 127.173095703125 76.69489288330078" stroke-width="0.0" fill="rgb(179, 39, 0)" opacity="0.58463776"/>
    <path d="M 73.38248443603516 189.52613830566406 C 99.98014831542969 205.8452606201172 109.31024932861328 238.14222717285156 71.39747619628906 248.30227661132812 C -3.902879476547241 231.33070373535156 -27.719993591308594 233.8665771484375 -45.90581512451172 218.28823852539062 C -33.09501647949219 155.29269409179688 -28.618457794189453 142.41029357910156 6.254547595977783 141.6335906982422 C 62.39539337158203 149.23114013671875 52.08461380004883 176.12191772460938 73.38248443603516 189.52613830566406" stroke-width="0.0" fill="rgb(166, 36, 13)" opacity="0.6724376"/>
    <path d="M 99.93124389648438 50.12801742553711 C 98.43463134765625 86.3025131225586 101.36556243896484 75.13231658935547 72.52671813964844 108.55657958984375 C 50.745426177978516 56.14646530151367 65.8342514038086 31.508289337158203 10.333030700683594 37.529930114746094 C 10.242467880249023 17.669992446899414 25.30642318725586 5.403065204620361 72.52813720703125 -22.863624572753906 C 97.38587188720703 -12.357647895812988 94.47059631347656 8.572930335998535 99.93124389648438 50.12801742553711" stroke-width="0.0" fill="rgb(202, 34, 0)" opacity="0.6408069"/>
    <path d="M 153.24745178222656 175.11444091796875 C 142.6234893798828 209.3144073486328 136.54751586914062 226.81822204589844 112.30345153808594 273.14288330078125 C 86.37895202636719 198.12571716308594 108.62881469726562 149.2638702392578 53.3347053527832 158.99957275390625 C 6.267086982727051 145.74212646484375 30.314767837524414 134.9599151611328 68.07614135742188 136.41835021972656 C 114.51992797851562 144.8597412109375 122.4292221069336 141.67599487304688 153.24745178222656 175.11444091796875" stroke-width="0.0" fill="rgb(178, 25, 48)" opacity="0.68475264"/>
    <path d="M 166.02435302734375 388.1676025390625 C 245.83421325683594 582.5439453125 108.0159912109375 534.3458862304688 58.96734619140625 366.0079650878906 C 33.85464859008789 233.1162567138672 -11.538253784179688 275.09246826171875 -18.643085479736328 256.726318359375 C -6.997689247131348 240.5244598388672 22.568401336669922 247.9458465576172 39.433258056640625 247.84754943847656 C 72.91503143310547 270.66290283203125 185.0374755859375 222.14935302734375 166.02435302734375 388.1676025390625" stroke-width="0.0" fill="rgb(151, 22, 38)" opacity="0.42220598"/>
    <path d="M 136.71888732910156 34.1943359375 C 127.61183166503906 30.085922241210938 122.603271484375 12.498468399047852 123.3053207397461 56.354793548583984 C 87.89474487304688 45.026485443115234 76.41986846923828 59.472938537597656 71.3087158203125 -1.1233210563659668 C 73.80924224853516 -11.138566017150879 74.27680969238281 -37.02000427246094 102.25463104248047 -61.830177307128906 C 123.89633178710938 -17.774158477783203 122.22671508789062 -2.2850444316864014 136.71888732910156 34.1943359375" stroke-width="0.0" fill="rgb(204, 37, 11)" opacity="0.7154227"/>
    <path d="M 284.4981994628906 111.18000793457031 C 228.5791473388672 156.36773681640625 170.72305297851562 132.1136474609375 115.20185852050781 130.80624389648438 C 76.987060546875 97.97967529296875 66.25678253173828 112.97249603271484 63.620147705078125 72.70018768310547 C 11.248249053955078 45.61056900024414 35.21345520019531 -0.06960849463939667 75.6493911743164 -14.206402778625488 C 166.99632263183594 -1.0058906078338623 176.68951416015625 -1.1332221031188965 284.4981994628906 111.18000793457031" stroke-width="0.0" fill="rgb(160, 37, 40)" opacity="0.58136666"/>
    <path d="M 73.65544128417969 70.45963287353516 C 76.4517593383789 138.16912841796875 91.71241760253906 128.84146118164062 35.81027603149414 132.7978973388672 C -28.986251831054688 127.35401916503906 -30.859498977661133 111.46318054199219 -42.97171401977539 82.3133316040039 C -22.087148666381836 25.407957077026367 -17.421817779541016 14.983346939086914 6.279684066772461 48.89379119873047 C 44.041404724121094 49.080772399902344 61.25039291381836 46.14322280883789 73.65544128417969 70.45963287353516" stroke-width="0.0" fill="rgb(187, 31, 16)" opacity="0.5548851"/>
    <path d="M 140.00515747070312 153.99085998535156 C 146.14413452148438 188.6712646484375 106.83602905273438 197.1180877685547 91.80565643310547 186.4223175048828 C 73.8550033569336 135.1080322265625 63.50099182128906 148.9319305419922 73.77822875976562 95.21517944335938 C 99.0565414428711 103.625 77.67644500732422 138.99476623535156 83.87376403808594 71.7229232788086 C 133.63189697265625 55.07542037963867 129.03843688964844 79.73246765136719 140.00515747070312 153.99085998535156" stroke-width="0.0" fill="rgb(175, 33, 26)" opacity="0.64928895"/>
    <path d="M 137.72386169433594 198.9506072998047 C 147.11532592773438 257.0271911621094 143.72677612304688 293.397705078125 98.85100555419922 302.9203186035156 C 16.267488479614258 261.0503845214844 32.77690124511719 232.9804229736328 27.528034210205078 157.6285400390625 C 28.440141677856445 127.51241302490234 27.94610023498535 133.39938354492188 42.749298095703125 146.19386291503906 C 114.5999984741211 152.78004455566406 123.83235168457031 134.6624298095703 137.72386169433594 198.9506072998047" stroke-width="0.0" fill="rgb(174, 40, 27)" opacity="0.7202537"/>
    <path d="M 155.12091064453125 280.5212097167969 C 144.37673950195312 325.8094482421875 122.44318389892578 322.60400390625 124.48745727539062 499.15093994140625 C -128.4534912109375 427.0335388183594 -67.65380859375 334.2157897949219 -52.82817077636719 260.2436218261719 C -15.047612190246582 205.72000122070312 -11.452509880065918 209.4286346435547 -12.39074993133545 231.12989807128906 C 30.22548484802246 223.98687744140625 36.84318161010742 239.81167602539062 155.12091064453125 280.5212097167969" stroke-width="0.0" fill="rgb(162, 36, 21)" opacity="0.88874304"/>
    <path d="M 54.17648696899414 48.999210357666016 C 76.9111557006836 95.55097198486328 55.31743240356445 87.94757080078125 16.702720642089844 52.13015365600586 C -10.41964054107666 44.9481201171875 -21.247217178344727 38.783485412597656 -26.723684310913086 31.40554428100586 C -8.116037368774414 5.525193214416504 -2.3478925228118896 -3.7181732654571533 21.23431968688965 -37.394500732421875 C 33.775115966796875 -45.76949691772461 37.89345169067383 -43.11238098144531 54.17648696899414 48.999210357666016" stroke-width="0.0" fill="rgb(186, 39, 11)" opacity="0.49976954"/>
    <path d="M 225.3453826904297 50.81610870361328 C 202.2948455810547 64.67181396484375 163.83091735839844 43.315189361572266 133.63504028320312 40.2917594909668 C 111.33251953125 24.29267692565918 103.23270416259766 4.1149773597717285 96.54590606689453 12.128274917602539 C 74.85107421875 2.1552231311798096 72.17533111572266 3.8340163230895996 131.6675567626953 -44.25673294067383 C 204.5873260498047 -68.67533111572266 221.0201416015625 -63.90319061279297 225.3453826904297 50.81610870361328" stroke-width="0.0" fill="rgb(179, 29, 25)" opacity="0.4654299"/>
    <path d="M 97.63184356689453 80.43606567382812 C 97.24504089355469 124.9207992553711 111.38166809082031 166.29689025878906 105.90388488769531 155.20399475097656 C 51.43207931518555 149.7252655029297 17.05958366394043 159.77548217773438 26.427640914916992 133.17970275878906 C 44.49279022216797 99.09194946289062 33.67927551269531 46.2812614440918 62.15827941894531 25.52124786376953 C 127.04682159423828 68.6662368774414 116.7576904296875 84.70806121826172 97.63184356689453 80.43606567382812" stroke-width="0.0" fill="rgb(180, 35, 25)" opacity="0.5611668"/>
    <path d="M 66.75359344482422 144.61752319335938 C 73.24951171875 208.24374389648438 76.14788055419922 181.2500762939453 35.64629364013672 178.2572479248047 C 36.779541015625 195.88941955566406 -0.9840055704116821 195.18182373046875 -26.08123207092285 156.4842071533203 C -35.686866760253906 98.47947692871094 -17.528423309326172 88.5982666015625 36.10695266723633 95.64737701416016 C 51.31660079956055 154.8746795654297 44.0272331237793 141.07154846191406 66.75359344482422 144.61752319335938" stroke-width="0.0" fill="rgb(174, 39, 20)" opacity="0.4508216"/>
    <path d="M 307.1014709472656 233.95614624023438 C 125.63592529296875 364.6324768066406 289.5716857910156 575.0953979492188 134.00843811035156 358.3986511230469 C 149.05653381347656 106.28914642333984 153.85006713867188 140.4203643798828 159.0553436279297 122.59583282470703 C 171.66868591308594 129.41851806640625 131.07989501953125 136.72158813476562 162.49017333984375 100.8516616821289 C 271.3478088378906 136.5373992919922 348.76177978515625 72.63887023925781 307.1014709472656 233.95614624023438" stroke-width="0.0" fill="rgb(13, 10, 16)" opacity="0.96913433"/>
    <path d="M 324.4385681152344 552.4501953125 C 336.754638671875 594.6878662109375 346.71282958984375 599.7877807617188 307.376708984375 625.0777587890625 C 199.689208984375 657.8861694335938 119.29973602294922 716.3475341796875 106.71715545654297 524.247314453125 C 182.3330841064453 489.4677429199219 212.25779724121094 554.7125854492188 253.42672729492188 464.53289794921875 C 342.94244384765625 491.4043884277344 336.2507019042969 516.4576416015625 324.4385681152344 552.4501953125" stroke-width="0.0" fill="rgb(146, 26, 31)" opacity="0.98521894"/>
    <path d="M 402.534912109375 572.259033203125 C 401.3675537109375 547.8428955078125 385.2784118652344 570.7369995117188 353.50982666015625 566.4637451171875 C 339.792236328125 572.504638671875 338.69561767578125 581.287353515625 327.93206787109375 517.8925170898438 C 315.9333801269531 502.0829162597656 341.16961669921875 518.4083862304688 375.2270812988281 500.707275390625 C 384.3988037109375 501.5121765136719 384.6605224609375 531.374755859375 402.534912109375 572.259033203125" stroke-width="0.0" fill="rgb(120, 22, 44)" opacity="0.9356127"/>
    <path d="M 384.7956237792969 563.8551635742188 C 372.5469055175781 589.2953491210938 364.18878173828125 588.7089233398438 384.5826416015625 559.1354370117188 C 355.43450927734375 545.6813354492188 359.9266662597656 525.9978637695312 362.6853332519531 521.5731811523438 C 353.2920837402344 547.9771118164062 361.6272277832031 539.2724609375 347.0263977050781 544.414794921875 C 350.3046875 549.7232055664062 372.5130615234375 542.6956787109375 384.7956237792969 563.8551635742188" stroke-width="0.0" fill="rgb(122, 60, 45)" opacity="0.6110437"/>
    <path d="M 504.1322021484375 504.1997375488281 C 447.0533142089844 567.310791015625 420.5948791503906 557.01025390625 375.591796875 558.1075439453125 C 356.4892272949219 535.9085083007812 349.17559814453125 520.2296142578125 362.5624694824219 493.5264587402344 C 353.97796630859375 493.38555908203125 334.7919616699219 469.9207458496094 421.2940979003906 449.37109375 C 421.8739929199219 395.3723449707031 447.1219787597656 418.5978698730469 504.1322021484375 504.1997375488281" stroke-width="0.0" fill="rgb(145, 3, 31)" opacity="0.8601394"/>
    <path d="M 363.66021728515625 556.4857788085938 C 344.7371826171875 532.8517456054688 328.4080810546875 547.1552734375 344.36651611328125 575.1491088867188 C 356.6444396972656 548.2391967773438 345.7602844238281 526.83642578125 335.243408203125 516.9931640625 C 335.5652160644531 510.82568359375 331.2682189941406 526.628173828125 333.9777526855469 539.803955078125 C 367.4167785644531 529.800537109375 375.21844482421875 544.9776611328125 363.66021728515625 556.4857788085938" stroke-width="0.0" fill="rgb(74, 23, 0)" opacity="0.65758026"/>
    <path d="M 369.6878662109375 547.5656127929688 C 386.50970458984375 596.1820678710938 373.36865234375 590.2855224609375 317.1347961425781 612.7388916015625 C 287.3896484375 613.9911499023438 293.7790222167969 616.6116943359375 292.51898193359375 546.205810546875 C 289.4501647949219 503.3150329589844 297.7444152832031 491.39373779296875 336.7706298828125 509.6874084472656 C 368.3811340332031 486.0181579589844 372.91680908203125 482.7864074707031 369.6878662109375 547.5656127929688" stroke-width="0.0" fill="rgb(150, 24, 38)" opacity="0.84624344"/>
    <path d="M 447.8380126953125 561.7839965820312 C 451.97576904296875 590.3271484375 434.08453369140625 593.3629760742188 383.9290771484375 595.0203247070312 C 358.92950439453125 593.5484008789062 352.11151123046875 580.57421875 368.2761535644531 543.987548828125 C 341.9027099609375 496.6762390136719 364.3445739746094 510.4099426269531 438.8455505371094 491.6507263183594 C 414.7478942871094 515.5208129882812 424.4916687011719 531.8505859375 447.8380126953125 561.7839965820312" stroke-width="0.0" fill="rgb(140, 30, 30)" opacity="0.7754562"/>
    <path d="M 668.2427978515625 538.3079223632812 C 574.990478515625 652.4329223632812 523.0938110351562 629.0902099609375 455.8995666503906 620.2157592773438 C 417.1121520996094 591.1581420898438 422.1243896484375 590.7801513671875 439.7684631347656 551.6906127929688 C 437.3319396972656 497.2940368652344 429.62261962890625 492.1676940917969 438.6750183105469 344.5851135253906 C 629.1737670898438 353.50579833984375 646.4166870117188 383.0763244628906 668.2427978515625 538.3079223632812" stroke-width="0.0" fill="rgb(196, 51, 38)" opacity="1.0"/>
    <path d="M 488.7363586425781 598.515380859375 C 439.2718811035156 570.4676513671875 432.1433410644531 573.6323852539062 406.8669738769531 596.3807373046875 C 421.5214538574219 585.4830322265625 421.5777282714844 567.26953125 414.198486328125 543.6961059570312 C 405.7646179199219 498.6559143066406 404.0831604003906 472.2516174316406 449.0040588378906 489.1878662109375 C 469.4794616699219 541.4518432617188 473.40869140625 579.8292236328125 488.7363586425781 598.515380859375" stroke-width="0.0" fill="rgb(192, 48, 33)" opacity="0.45678475"/>
    <path d="M 349.99749755859375 556.5132446289062 C 339.4781799316406 602.1824340820312 351.0796813964844 622.0988159179688 324.966552734375 648.39404296875 C 285.32379150390625 615.431884765625 261.1219177246094 622.9261474609375 245.3544158935547 648.4015502929688 C 326.5570068359375 591.7909545898438 315.4887390136719 597.3009643554688 335.0322265625 606.9923706054688 C 345.8987121582031 554.3951416015625 356.9241027832031 542.889892578125 349.99749755859375 556.5132446289062" stroke-width="0.0" fill="rgb(131, 23, 49)" opacity="0.7842809"/>
    <path d="M 502.8732604980469 616.3392944335938 C 496.37677001953125 615.8446655273438 477.7332458496094 615.8196411132812 428.7743835449219 641.3317260742188 C 397.0934143066406 624.3799438476562 391.5272216796875 611.5521850585938 369.3616638183594 580.8930053710938 C 377.7887878417969 538.0895385742188 371.27435302734375 542.9953002929688 417.1386413574219 550.3511962890625 C 418.2265625 575.5584716796875 445.3979187011719 570.1152954101562 502.8732604980469 616.3392944335938" stroke-width="0.0" fill="rgb(162, 34, 71)" opacity="0.9551279"/>
    <path d="M 444.5931701660156 594.3370361328125 C 454.2352600097656 571.4152221679688 438.8520812988281 586.9581909179688 402.035400390625 586.722900390625 C 389.354248046875 608.5020751953125 373.5801696777344 595.9099731445312 379.3779296875 557.4287109375 C 449.0192565917969 552.0415649414062 447.4898376464844 552.4244384765625 414.94293212890625 539.4285888671875 C 421.461181640625 549.2833251953125 430.2589111328125 587.3875122070312 444.5931701660156 594.3370361328125" stroke-width="0.0" fill="rgb(144, 70, 0)" opacity="0.7341112"/>
    <path d="M 389.92242431640625 589.7281494140625 C 416.01995849609375 618.6091918945312 402.93389892578125 626.868408203125 369.1648254394531 623.7071533203125 C 324.5740966796875 614.0022583007812 320.9520263671875 605.254150390625 336.4258117675781 628.0604858398438 C 327.78314208984375 579.619140625 322.5281066894531 538.9048461914062 344.63421630859375 522.1997680664062 C 389.19232177734375 522.1640014648438 386.5668029785156 531.5593872070312 389.92242431640625 589.7281494140625" stroke-width="0.0" fill="rgb(147, 27, 30)" opacity="0.9483829"/>
    <path d="M 456.0076599121094 577.3883666992188 C 487.0186462402344 596.6863403320312 481.3089294433594 616.3893432617188 446.68560791015625 627.7916259765625 C 381.8257141113281 625.1953735351562 373.673583984375 622.2997436523438 379.26885986328125 606.1610107421875 C 363.4898376464844 530.4644775390625 356.0165100097656 530.5474853515625 413.16510009765625 522.3106689453125 C 434.58984375 548.1284790039062 446.4378662109375 558.4864501953125 456.0076599121094 577.3883666992188" stroke-width="0.0" fill="rgb(167, 35, 32)" opacity="0.8616689"/>
    <path d="M 436.2742919921875 250.63497924804688 C 490.2922058105469 379.40728759765625 467.5040588378906 442.57904052734375 382.72882080078125 497.1506042480469 C 288.2203674316406 492.55133056640625 232.4739990234375 501.41748046875 309.34552001953125 486.86370849609375 C 414.2723693847656 449.7185974121094 485.4146423339844 462.70477294921875 395.1832580566406 175.6791229248047 C 444.9898986816406 131.70187377929688 434.43231201171875 170.11012268066406 436.2742919921875 250.63497924804688" stroke-width="0.0" fill="rgb(19, 11, 27)" opacity="0.9985778"/>
    <path d="M 403.0830078125 533.3652954101562 C 388.1982727050781 536.9515380859375 345.6295166015625 532.2798461914062 340.93511962890625 533.954345703125 C 315.44219970703125 565.7628784179688 344.6251525878906 461.04400634765625 200.3538360595703 510.5909118652344 C 150.0047149658203 341.69805908203125 201.91943359375 365.46636962890625 231.9935302734375 456.3546142578125 C 355.1437072753906 502.0013122558594 393.7583312988281 487.02899169921875 403.0830078125 533.3652954101562" stroke-width="0.0" fill="rgb(18, 11, 20)" opacity="0.9967429"/>
    <path d="M 567.327880859375 50.274227142333984 C 561.29736328125 80.34037780761719 566.4153442382812 121.0240249633789 564.4644165039062 113.75592803955078 C 534.4124145507812 106.8523178100586 530.0670776367188 99.88734436035156 531.2882690429688 95.43112182617188 C 526.7477416992188 64.37972259521484 521.61328125 31.581201553344727 519.6351928710938 15.290692329406738 C 573.5693969726562 32.89749526977539 568.7114868164062 50.01272964477539 567.327880859375 50.274227142333984" stroke-width="0.0" fill="rgb(241, 74, 16)" opacity="0.2617693"/>
    <path d="M 585.2686157226562 153.1032257080078 C 566.9765625 164.18785095214844 557.200439453125 157.47662353515625 515.7817993164062 228.42825317382812 C 485.8830871582031 226.46839904785156 488.5439758300781 186.49522399902344 522.40771484375 113.01136016845703 C 537.6555786132812 93.9797134399414 539.1278686523438 125.16292572021484 547.1981201171875 108.5063705444336 C 553.719970703125 123.50172424316406 557.0829467773438 132.16647338867188 585.2686157226562 153.1032257080078" stroke-width="0.0" fill="rgb(203, 65, 17)" opacity="0.3848034"/>
    <path d="M 596.1195068359375 33.562713623046875 C 626.7501220703125 61.76585006713867 613.2893676757812 139.3548583984375 585.58447265625 177.35708618164062 C 504.8649597167969 120.10181427001953 524.4666748046875 110.39476776123047 500.73260498046875 62.491947174072266 C 485.3161926269531 11.354260444641113 476.2680969238281 -22.81322479248047 535.1846313476562 -44.060909271240234 C 587.0510864257812 15.722472190856934 564.5769653320312 49.739627838134766 596.1195068359375 33.562713623046875" stroke-width="0.0" fill="rgb(226, 55, 16)" opacity="0.53232926"/>
    <path d="M 569.7924194335938 89.1834716796875 C 593.5735473632812 148.70806884765625 609.6979370117188 154.65513610839844 497.9190368652344 165.94863891601562 C 482.344482421875 148.0576934814453 503.6850280761719 97.10139465332031 493.5616760253906 61.11103057861328 C 506.4703063964844 65.0448226928711 515.9844970703125 72.84364318847656 546.0734252929688 67.59341430664062 C 574.9733276367188 54.433204650878906 567.24853515625 60.58787536621094 569.7924194335938 89.1834716796875" stroke-width="0.0" fill="rgb(204, 65, 20)" opacity="0.39907935"/>
    <path d="M 583.2986450195312 153.1351776123047 C 601.2144775390625 139.09022521972656 595.05126953125 167.4650115966797 564.5123901367188 212.5578155517578 C 530.3630981445312 163.9593963623047 513.9806518554688 127.50447082519531 556.8849487304688 142.1883087158203 C 555.2166137695312 147.75770568847656 558.677490234375 99.74881744384766 558.4737548828125 113.14578247070312 C 563.3441162109375 112.50074768066406 569.8292236328125 118.25 583.2986450195312 153.1351776123047" stroke-width="0.0" fill="rgb(193, 73, 0)" opacity="0.29354244"/>
    <path d="M 635.1544189453125 71.47293853759766 C 628.7297973632812 93.30198669433594 614.2276000976562 92.75208282470703 570.14111328125 69.86351776123047 C 545.41015625 49.781654357910156 544.6682739257812 49.72056198120117 548.7058715820312 74.49597930908203 C 545.6459350585938 43.75545120239258 543.7493896484375 26.299999237060547 602.6302490234375 21.857519149780273 C 631.5872192382812 19.526996612548828 625.0687866210938 39.92111587524414 635.1544189453125 71.47293853759766" stroke-width="0.0" fill="rgb(230, 65, 5)" opacity="0.5893879"/>
    <path d="M 625.3856201171875 114.703125 C 640.5336303710938 141.56871032714844 619.9862060546875 132.96360778808594 597.847412109375 131.2256622314453 C 554.4948120117188 135.14952087402344 538.48974609375 136.06187438964844 537.0130615234375 101.12577819824219 C 538.5949096679688 50.94765853881836 514.575439453125 49.537620544433594 593.0494384765625 48.21329879760742 C 606.8992309570312 68.18387603759766 612.9133911132812 79.75072479248047 625.3856201171875 114.703125" stroke-width="0.0" fill="rgb(229, 55, 34)" opacity="0.5431775"/>
    <path d="M 519.8133544921875 124.50834655761719 C 520.3704223632812 91.15682983398438 499.4634704589844 104.46804809570312 530.7402954101562 133.11166381835938 C 532.5707397460938 129.44113159179688 510.23260498046875 130.1328582763672 461.43011474609375 129.87632751464844 C 468.2203369140625 88.42273712158203 464.88848876953125 61.352752685546875 492.8946838378906 45.87152862548828 C 505.7307434082031 76.1951675415039 507.2695007324219 139.77760314941406 519.8133544921875 124.50834655761719" stroke-width="0.0" fill="rgb(196, 72, 15)" opacity="0.17584057"/>
    <path d="M 254.01705932617188 492.7778015136719 C 283.4737243652344 501.53778076171875 285.56207275390625 549.5059204101562 212.23593139648438 547.2342529296875 C 145.72640991210938 548.939697265625 107.64041900634766 479.3368225097656 148.43588256835938 464.7174072265625 C 210.04156494140625 413.86822509765625 196.61956787109375 493.5450744628906 242.0586700439453 486.91033935546875 C 252.9752960205078 492.7789001464844 233.89102172851562 484.4081726074219 254.01705932617188 492.7778015136719" stroke-width="0.0" fill="rgb(142, 30, 26)" opacity="0.9998761"/>
    <path d="M 666.5990600585938 251.33567810058594 C 641.4269409179688 270.5629577636719 638.803955078125 281.1239013671875 594.6043701171875 304.38726806640625 C 525.4364624023438 304.0981140136719 512.656494140625 312.0396423339844 512.4752197265625 248.80967712402344 C 511.1585998535156 143.56411743164062 496.8851623535156 136.7810821533203 595.2537231445312 146.21139526367188 C 658.5686645507812 152.857666015625 674.7583618164062 152.68527221679688 666.5990600585938 251.33567810058594" stroke-width="0.0" fill="rgb(205, 52, 46)" opacity="0.46904534"/>
    <path d="M 549.601318359375 109.24657440185547 C 565.1932373046875 136.5745391845703 546.8438110351562 172.32565307617188 538.860595703125 210.5279998779297 C 496.25341796875 136.98019409179688 485.0682373046875 123.29300689697266 482.4562072753906 125.48014068603516 C 490.3948059082031 110.728759765625 479.2881774902344 63.017295837402344 480.1351013183594 55.80302810668945 C 545.9600830078125 66.17778778076172 540.9783325195312 63.17544174194336 549.601318359375 109.24657440185547" stroke-width="0.0" fill="rgb(217, 53, 44)" opacity="0.39612317"/>
    <path d="M 519.5444946289062 211.61773681640625 C 416.1048583984375 334.8851318359375 508.43182373046875 183.11895751953125 418.65802001953125 228.58802795410156 C 366.25897216796875 223.1211395263672 388.30474853515625 161.3153533935547 377.0050964355469 146.1167755126953 C 402.7796630859375 156.53382873535156 408.1565246582031 124.30503845214844 404.66424560546875 111.61023712158203 C 438.63507080078125 113.56449890136719 514.9850463867188 115.75941467285156 519.5444946289062 211.61773681640625" stroke-width="0.0" fill="rgb(207, 52, 39)" opacity="0.9963112"/>
    <path d="M 609.8914184570312 14.868139266967773 C 628.814208984375 46.89466094970703 633.5551147460938 64.96238708496094 596.04345703125 49.89503479003906 C 537.4078369140625 33.88981246948242 517.8181762695312 52.4419059753418 507.2607116699219 1.9725929498672485 C 545.1652221679688 -22.350431442260742 564.6812133789062 -18.603824615478516 576.2254638671875 -19.764503479003906 C 593.0 -10.320507049560547 600.3204956054688 -3.0 609.8914184570312 14.868139266967773" stroke-width="0.0" fill="rgb(236, 51, 13)" opacity="0.84787434"/>
    <path d="M 631.1273193359375 132.0166778564453 C 630.5850830078125 168.9382781982422 628.6942749023438 183.34603881835938 554.2514038085938 185.82333374023438 C 537.499267578125 166.22544860839844 524.3677978515625 129.04360961914062 519.6112060546875 113.37884521484375 C 600.3642578125 128.92227172851562 591.6265869140625 117.34603118896484 616.3739624023438 113.01012420654297 C 626.4882202148438 120.01567840576172 638.0511474609375 112.51432037353516 631.1273193359375 132.0166778564453" stroke-width="0.0" fill="rgb(215, 56, 46)" opacity="0.48836657"/>
    <path d="M 584.6396484375 257.06622314453125 C 603.0432739257812 321.2163391113281 613.7066040039062 314.3709716796875 482.8279113769531 298.4994201660156 C 466.0785217285156 254.39625549316406 478.7697448730469 229.1063690185547 481.2921447753906 203.68406677246094 C 491.4354248046875 227.91168212890625 484.843994140625 150.89735412597656 490.22540283203125 166.8494110107422 C 591.7408447265625 169.45254516601562 578.487548828125 167.66603088378906 584.6396484375 257.06622314453125" stroke-width="0.0" fill="rgb(206, 55, 35)" opacity="0.376108"/>
    <path d="M 141.42266845703125 356.0574035644531 C 154.5646209716797 386.9706726074219 132.50796508789062 397.1499328613281 124.79867553710938 435.0753173828125 C 103.5093765258789 379.0126953125 121.4931411743164 365.522216796875 123.86080169677734 401.31512451171875 C 120.01449584960938 404.1402587890625 125.04759216308594 390.62237548828125 134.3565673828125 303.1515808105469 C 129.8204345703125 318.85833740234375 134.10496520996094 321.6170959472656 141.42266845703125 356.0574035644531" stroke-width="0.0" fill="rgb(157, 24, 33)" opacity="0.81020355"/>
    <path d="M 293.7508850097656 302.4239501953125 C 305.7596435546875 329.20928955078125 298.2801513671875 326.00201416015625 289.8430480957031 312.76641845703125 C 241.2936248779297 314.36822509765625 216.35862731933594 325.5520935058594 199.57362365722656 311.6628112792969 C 213.8518524169922 268.0601501464844 226.35903930664062 267.57794189453125 221.5089111328125 297.5614929199219 C 237.49374389648438 309.08087158203125 258.3564453125 297.5185546875 293.7508850097656 302.4239501953125" stroke-width="0.0" fill="rgb(162, 0, 0)" opacity="0.27779672"/>
    <path d="M 335.87225341796875 251.07501220703125 C 300.9319763183594 256.5594787597656 289.33795166015625 267.87481689453125 251.2955322265625 281.4655456542969 C 254.62249755859375 264.4227294921875 275.30450439453125 260.9111022949219 262.2886962890625 289.4395751953125 C 309.427978515625 264.25421142578125 334.0075988769531 261.60638427734375 295.3114929199219 171.7050018310547 C 365.33648681640625 188.50453186035156 333.27728271484375 236.07662963867188 335.87225341796875 251.07501220703125" stroke-width="0.0" fill="rgb(254, 229, 0)" opacity="0.99966824"/>
    <path d="M 357.35040283203125 312.2154235839844 C 362.1481018066406 376.2378845214844 368.1204528808594 382.392333984375 326.38348388671875 355.5497131347656 C 320.9512939453125 315.59173583984375 327.33349609375 321.543701171875 329.8888854980469 334.5270690917969 C 308.44976806640625 319.7704162597656 306.23480224609375 292.31182861328125 325.2536315917969 270.8332824707031 C 358.3793029785156 280.0547180175781 365.06439208984375 272.70477294921875 357.35040283203125 312.2154235839844" stroke-width="0.0" fill="rgb(174, 73, 4)" opacity="1.0"/>
    <path d="M 259.4883728027344 343.5611267089844 C 263.97967529296875 361.1263122558594 262.3833312988281 344.906982421875 257.6513671875 407.5349426269531 C 220.48048400878906 405.4292297363281 215.78451538085938 382.7823791503906 205.4810333251953 346.61865234375 C 212.05091857910156 311.9971008300781 232.79669189453125 308.2882385253906 280.5799560546875 310.74151611328125 C 276.4196472167969 300.8127136230469 251.3830108642578 295.4131774902344 259.4883728027344 343.5611267089844" stroke-width="0.0" fill="rgb(255, 148, 0)" opacity="1.0"/>
    <path d="M 116.70303344726562 290.8405456542969 C 93.57920837402344 252.29388427734375 103.24298858642578 246.79856872558594 69.03221130371094 237.07749938964844 C 82.45172119140625 334.0317687988281 83.4771728515625 341.8114318847656 80.52884674072266 262.6491394042969 C 76.97306060791016 256.4089050292969 111.39288330078125 277.6487121582031 128.92604064941406 218.0339813232422 C 144.7710418701172 239.4262237548828 140.92579650878906 301.8702392578125 116.70303344726562 290.8405456542969" stroke-width="0.0" fill="rgb(176, 28, 41)" opacity="0.61958486"/>
    <path d="M 342.9535217285156 261.1340637207031 C 339.65643310546875 274.3778381347656 336.02520751953125 294.0386962890625 304.6239318847656 316.90228271484375 C 297.9747314453125 284.3040771484375 288.6765441894531 276.9483947753906 293.7586364746094 262.4754638671875 C 303.9718322753906 291.0472717285156 295.8032531738281 281.6873474121094 297.37176513671875 185.4718475341797 C 353.2071228027344 219.80389404296875 347.8773193359375 226.73045349121094 342.9535217285156 261.1340637207031" stroke-width="0.0" fill="rgb(254, 239, 0)" opacity="0.962883"/>
    <path d="M 293.8898010253906 420.6732482910156 C 271.427734375 476.2132263183594 232.23973083496094 470.67803955078125 206.0287628173828 428.7528991699219 C 197.7374267578125 397.09930419921875 186.9916229248047 391.4933776855469 171.40684509277344 354.5312194824219 C 147.3699188232422 294.8550109863281 167.31350708007812 274.7401123046875 209.30624389648438 196.998291015625 C 224.62799072265625 353.4731140136719 243.03001403808594 335.4095153808594 293.8898010253906 420.6732482910156" stroke-width="0.0" fill="rgb(255, 254, 0)" opacity="1.0"/>
    <path d="M 362.4826965332031 309.6492614746094 C 377.3620300292969 366.20123291015625 353.533447265625 374.097412109375 350.22564697265625 392.1656188964844 C 295.55078125 362.6525573730469 311.2802734375 355.3752746582031 312.9529724121094 361.9998474121094 C 304.5744934082031 356.0093688964844 303.2154846191406 328.2178955078125 323.3798828125 315.3870849609375 C 332.1025390625 299.0625 359.2181396484375 305.65899658203125 362.4826965332031 309.6492614746094" stroke-width="0.0" fill="rgb(122, 34, 8)" opacity="0.9370809"/>
    <path d="M 429.3436584472656 477.89910888671875 C 408.63836669921875 557.6483154296875 393.3995666503906 545.776123046875 328.48126220703125 557.5933837890625 C 298.5516662597656 572.9147338867188 323.6084899902344 515.5474853515625 293.7986755371094 504.9333801269531 C 303.68133544921875 510.1166687011719 327.65704345703125 506.17498779296875 363.6061706542969 495.4086608886719 C 407.8150634765625 479.274658203125 433.245849609375 473.2120361328125 429.3436584472656 477.89910888671875" stroke-width="0.0" fill="rgb(151, 29, 28)" opacity="0.98547035"/>
    <path d="M 315.7769775390625 261.0403747558594 C 280.0330505371094 263.06085205078125 284.1452941894531 280.0174255371094 255.37942504882812 328.8878173828125 C 209.64646911621094 298.1003112792969 196.41360473632812 278.63018798828125 202.95957946777344 145.30946350097656 C 291.07830810546875 234.38546752929688 203.43756103515625 253.40599060058594 228.62705993652344 316.9385070800781 C 303.2926025390625 259.4119873046875 305.0930480957031 250.76141357421875 315.7769775390625 261.0403747558594" stroke-width="0.0" fill="rgb(255, 255, 0)" opacity="1.0"/>
    <path d="M 309.4518737792969 273.87152099609375 C 263.0565490722656 314.4237365722656 244.1090087890625 326.693359375 253.74195861816406 350.7956848144531 C 251.8428955078125 345.9884033203125 233.17962646484375 324.7358093261719 232.4727325439453 313.5784606933594 C 246.71185302734375 301.7478942871094 253.53399658203125 276.3055114746094 265.5860595703125 262.14239501953125 C 281.4071044921875 222.45738220214844 303.37567138671875 235.97874450683594 309.4518737792969 273.87152099609375" stroke-width="0.0" fill="rgb(255, 53, 0)" opacity="0.9373218"/>
    <path d="M 357.7341613769531 224.95289611816406 C 340.4790954589844 254.47232055664062 319.0247497558594 242.581298828125 273.9954528808594 246.08883666992188 C 260.5041198730469 290.9543762207031 284.88427734375 283.6169128417969 279.48681640625 205.0692138671875 C 268.3622741699219 175.8686981201172 229.3026123046875 145.8394317626953 273.0458679199219 44.411781311035156 C 335.7764892578125 161.57144165039062 362.5290832519531 132.56114196777344 357.7341613769531 224.95289611816406" stroke-width="0.0" fill="rgb(255, 255, 0)" opacity="1.0"/>
    <path d="M 358.1057434082031 358.1134948730469 C 354.7824401855469 400.8880920410156 353.3651123046875 364.29229736328125 331.25115966796875 361.87890625 C 333.4777526855469 321.0206298828125 324.1244201660156 329.4730224609375 322.4419860839844 343.3251647949219 C 324.3600158691406 338.1225280761719 326.1513671875 324.9175720214844 337.4685363769531 253.5011749267578 C 408.78662109375 220.7098846435547 416.93017578125 271.08966064453125 358.1057434082031 358.1134948730469" stroke-width="0.0" fill="rgb(16, 5, 15)" opacity="0.9802833"/>
    <path d="M 322.13946533203125 310.16302490234375 C 331.64276123046875 368.64947509765625 331.9587707519531 336.7065734863281 327.55108642578125 338.038818359375 C 260.50390625 379.1919250488281 237.56640625 327.2071228027344 259.39593505859375 269.759521484375 C 278.3624572753906 243.46926879882812 266.3125305175781 227.45880126953125 357.2637023925781 213.2140655517578 C 360.6236572265625 245.4077606201172 342.4027404785156 249.49485778808594 322.13946533203125 310.16302490234375" stroke-width="0.0" fill="rgb(255, 255, 0)" opacity="1.0"/>
    <path d="M 8.865804672241211 -36.52928924560547 C 10.692044258117676 -5.167354106903076 8.797943115234375 10.088929176330566 0.27400606870651245 11.711981773376465 C -24.914297103881836 17.461139678955078 -36.2943229675293 3.178664445877075 -35.64071273803711 -7.039032936096191 C -16.68482208251953 -9.635168075561523 -9.3643159866333 -16.95567512512207 0.6342291831970215 -19.6347713470459 C 10.15687370300293 -16.81344223022461 11.200048446655273 -4.603253364562988 8.865804672241211 -36.52928924560547" stroke-width="0.0" fill="rgb(113, 143, 7)" opacity="0.42273682"/>
    <path d="M 105.349853515625 220.1014404296875 C 117.94092559814453 272.27734375 120.33003234863281 304.07684326171875 116.33845520019531 293.78216552734375 C 117.78288269042969 308.984375 83.00059509277344 319.9998474121094 33.73199462890625 219.27938842773438 C 78.59159851074219 223.93234252929688 122.3612060546875 212.7019500732422 113.1159896850586 249.02565002441406 C 142.01507568359375 259.1438293457031 144.72280883789062 231.218994140625 105.349853515625 220.1014404296875" stroke-width="0.0" fill="rgb(171, 29, 30)" opacity="0.5628899"/>
    <path d="M 354.55810546875 375.7373046875 C 385.1463928222656 312.82196044921875 365.8299255371094 318.2026062011719 353.9884948730469 431.9820861816406 C 277.01513671875 382.7424011230469 299.9021911621094 321.21630859375 321.91693115234375 294.57391357421875 C 335.1419677734375 272.9411926269531 343.53729248046875 265.972900390625 335.69281005859375 291.1015625 C 335.7945861816406 300.0602111816406 319.43109130859375 327.23809814453125 354.55810546875 375.7373046875" stroke-width="0.0" fill="rgb(255, 23, 2)" opacity="0.99803287"/>
    <path d="M 281.7691650390625 223.3851776123047 C 286.3851623535156 225.8858642578125 277.4190368652344 254.43031311035156 259.8507080078125 270.9041442871094 C 266.08270263671875 258.9120178222656 269.9721984863281 259.67926025390625 255.07725524902344 270.2735290527344 C 267.4571228027344 246.90528869628906 290.2209777832031 232.7384033203125 275.208984375 188.0535888671875 C 286.4067077636719 218.60614013671875 280.9996032714844 250.39614868164062 281.7691650390625 223.3851776123047" stroke-width="0.0" fill="rgb(253, 222, 0)" opacity="0.94152176"/>
    <path d="M 15.923212051391602 -21.524009704589844 C 10.37239933013916 -5.477536201477051 -2.416674852371216 -2.9079201221466064 -27.87693977355957 -6.899120807647705 C -0.4442771077156067 20.10691261291504 -20.121837615966797 14.860823631286621 -21.99486541748047 2.937751054763794 C -16.49110221862793 -9.38148021697998 -9.170595169067383 -16.701988220214844 3.5525310039520264 -21.776615142822266 C 17.68292808532715 -24.84758186340332 21.46033477783203 -13.908429145812988 15.923212051391602 -21.524009704589844" stroke-width="0.0" fill="rgb(141, 86, 100)" opacity="0.5457145"/>
    <path d="M 20.304304122924805 -18.696090698242188 C 33.93687057495117 5.875267028808594 1.7274645566940308 -7.9556474685668945 -0.933274507522583 -15.28786563873291 C -9.61167049407959 17.473939895629883 -16.898544311523438 10.029653549194336 -19.57807731628418 0.029795171692967415 C -16.898584365844727 -9.970202445983887 -9.578078269958496 -17.29071044921875 11.819207191467285 -34.0008544921875 C 22.017444610595703 -37.322906494140625 27.29081153869629 -28.5773868560791 20.304304122924805 -18.696090698242188" stroke-width="0.0" fill="rgb(195, 81, 33)" opacity="0.672142"/>
    <path d="M 22.991640090942383 12.211071968078613 C -8.248368263244629 15.857118606567383 8.780259132385254 1.7844611406326294 9.60811996459961 -16.78297996520996 C 9.390719413757324 -20.913860321044922 0.5923666954040527 -19.76215362548828 -9.840705871582031 -14.256759643554688 C -16.511075973510742 -9.993501663208008 -9.190569877624512 -17.314008712768555 28.94073486328125 -28.239253997802734 C 40.244659423828125 -16.919710159301758 53.76251220703125 -7.030003070831299 22.991640090942383 12.211071968078613" stroke-width="0.0" fill="rgb(147, 90, 77)" opacity="0.24780062"/>
    <path d="M 36.93848419189453 -1.467224359512329 C 38.9251594543457 -23.6309814453125 3.724782943725586 -0.3711555004119873 -19.725278854370117 -4.915194511413574 C -10.984518051147461 22.697166442871094 -16.3337345123291 12.709634780883789 -19.85614585876465 0.5441260933876038 C -17.24071502685547 -9.76720905303955 -9.920207977294922 -17.087717056274414 -2.842099189758301 -8.579566955566406 C 3.0281314849853516 5.956079483032227 -3.1260006427764893 25.157817840576172 36.93848419189453 -1.467224359512329" stroke-width="0.0" fill="rgb(156, 69, 139)" opacity="0.35690308"/>
    <path d="M 7.143073558807373 -12.862817764282227 C 3.0440175533294678 -4.790125846862793 -6.250966548919678 0.4896782636642456 -17.97079086303711 2.45082688331604 C -1.7866088151931763 9.751517295837402 -16.77932357788086 10.70734691619873 -19.356212615966797 0.5657228827476501 C -16.670621871948242 -9.455058097839355 -9.350115776062012 -16.77556610107422 0.5868391394615173 -19.43705940246582 C 6.2454729080200195 -14.423111915588379 9.754999160766602 -1.6205205917358398 7.143073558807373 -12.862817764282227" stroke-width="0.0" fill="rgb(196, 145, 0)" opacity="0.99647653"/>
    <path d="M 445.1564636230469 495.5643310546875 C 476.99481201171875 506.2769470214844 469.8160400390625 508.8429870605469 442.0297546386719 458.7160339355469 C 443.2965393066406 527.7764892578125 455.8418273925781 519.0845947265625 430.6773986816406 497.01214599609375 C 463.81884765625 484.7073974609375 491.4137268066406 494.6683044433594 484.0031433105469 486.3091735839844 C 466.36895751953125 476.7119140625 442.2370910644531 481.21588134765625 445.1564636230469 495.5643310546875" stroke-width="0.0" fill="rgb(173, 80, 0)" opacity="0.17561038"/>
    <path d="M 4.83076810836792 -16.191028594970703 C 0.8808556199073792 -5.302428245544434 -4.308582305908203 6.354922294616699 -18.292255401611328 15.529081344604492 C -3.7369585037231445 10.630096435546875 -16.5814208984375 8.950453758239746 -19.658554077148438 0.15114764869213104 C -16.980257034301758 -9.844520568847656 -9.659749031066895 -17.165027618408203 0.09952689707279205 -19.778112411499023 C 4.782103061676025 -13.292685508728027 11.101405143737793 -3.336204767227173 4.83076810836792 -16.191028594970703" stroke-width="0.0" fill="rgb(181, 73, 88)" opacity="0.5979548"/>
    <path d="M 16.227886199951172 -13.928802490234375 C 14.3726167678833 -3.074903726577759 7.263291358947754 2.1036007404327393 -5.110551357269287 -6.253337860107422 C -7.377833366394043 2.2523183822631836 -19.21730613708496 -0.8050054907798767 -24.801822662353516 -3.1410276889801025 C -16.681079864501953 -9.97498893737793 -9.360572814941406 -17.295495986938477 0.6394258141517639 -19.97498893737793 C 10.634193420410156 -17.294092178344727 14.564140319824219 -8.417366981506348 16.227886199951172 -13.928802490234375" stroke-width="0.0" fill="rgb(18, 195, 50)" opacity="0.70837706"/>
    <path d="M 16.066946029663086 -6.153182029724121 C 12.761613845825195 -19.667522430419922 -6.297524929046631 -1.3076015710830688 -17.68168067932129 7.8757781982421875 C -12.794571876525879 20.54376220703125 -20.55729103088379 13.686845779418945 -20.707143783569336 2.0807909965515137 C -16.36329460144043 -9.663405418395996 -9.042786598205566 -16.98391342163086 6.385228633880615 -22.511274337768555 C 15.337713241577148 -22.088665008544922 16.047714233398438 -9.277310371398926 16.066946029663086 -6.153182029724121" stroke-width="0.0" fill="rgb(153, 63, 48)" opacity="0.7288368"/>
    <path d="M 12.075613021850586 -26.684057235717773 C 11.867985725402832 -8.343277931213379 18.345298767089844 2.2515981197357178 -0.38775399327278137 -7.401111125946045 C -20.057048797607422 14.739136695861816 -28.788818359375 5.088188171386719 -32.027130126953125 0.04597840830683708 C -17.04547691345215 -9.776789665222168 -9.724970817565918 -17.0972957611084 7.240877628326416 -25.442276000976562 C 18.832595825195312 -25.517255783081055 26.341554641723633 -18.777990341186523 12.075613021850586 -26.684057235717773" stroke-width="0.0" fill="rgb(226, 96, 54)" opacity="0.6844022"/>
    <path d="M 0.9190248250961304 -7.325021743774414 C 9.16444206237793 18.175888061523438 25.31262969970703 20.107261657714844 8.510138511657715 -21.11020278930664 C -25.89767074584961 10.790240287780762 -29.925905227661133 -3.0487468242645264 -20.389068603515625 -18.996204376220703 C -16.473012924194336 -9.396273612976074 -9.152505874633789 -16.716781616210938 0.9012855291366577 -19.411794662475586 C 14.589942932128906 -18.55272674560547 26.174026489257812 -16.922840118408203 0.9190248250961304 -7.325021743774414" stroke-width="0.0" fill="rgb(105, 90, 146)" opacity="0.17505777"/>
    <path d="M 3.020829677581787 -22.617219924926758 C -2.1437904834747314 5.321859359741211 -10.20138931274414 15.025395393371582 -23.082155227661133 13.92503833770752 C -4.480327606201172 3.0448617935180664 -9.222146034240723 -4.257290363311768 -18.62998390197754 -3.5039618015289307 C -16.584035873413086 -9.3233003616333 -9.263528823852539 -16.643808364868164 2.6207973957061768 -24.162179946899414 C 13.617408752441406 -26.137815475463867 20.766345977783203 -18.86089324951172 3.020829677581787 -22.617219924926758" stroke-width="0.0" fill="rgb(156, 91, 11)" opacity="0.52352786"/>
    <path d="M 15.110749244689941 17.389877319335938 C 33.08599090576172 24.787696838378906 34.90016174316406 10.919161796569824 -3.9469902515411377 14.98803424835205 C -9.057241439819336 18.94097328186035 -12.193172454833984 4.212240695953369 -12.778026580810547 -7.090534210205078 C -16.330984115600586 -9.360000610351562 -9.010477066040039 -16.68050765991211 16.486408233642578 -36.20821762084961 C 23.20734405517578 -35.12274932861328 17.22333335876465 -17.625431060791016 15.110749244689941 17.389877319335938" stroke-width="0.0" fill="rgb(19, 228, 16)" opacity="0.74429375"/>
    <path d="M 51.43012237548828 19.73525619506836 C 56.14815139770508 36.84305953979492 30.86652374267578 12.962627410888672 -7.378375053405762 26.562246322631836 C -16.581026077270508 22.610774993896484 -25.080244064331055 15.972173690795898 -31.182411193847656 10.543015480041504 C -16.428327560424805 -9.913061141967773 -9.107820510864258 -17.23356819152832 40.2009162902832 -47.13582229614258 C 51.77543258666992 -49.5057258605957 46.10145950317383 -37.38515090942383 51.43012237548828 19.73525619506836" stroke-width="0.0" fill="rgb(222, 41, 29)" opacity="0.35661778"/>
    <path d="M -15.65944766998291 2.6374268531799316 C 8.318826675415039 9.946537971496582 31.201128005981445 1.8448694944381714 20.830432891845703 9.606154441833496 C -34.608192443847656 34.61561965942383 -39.33858108520508 21.301197052001953 -39.174320220947266 1.2583227157592773 C -16.513378143310547 -9.270268440246582 -9.192872047424316 -16.590774536132812 1.2396657466888428 -19.40401268005371 C 17.485179901123047 -21.583065032958984 26.487314224243164 -17.477970123291016 -15.65944766998291 2.6374268531799316" stroke-width="0.0" fill="rgb(188, 104, 61)" opacity="0.10193374"/>
    <path d="M 9.826762199401855 -21.791099548339844 C 7.746341228485107 -6.9946770668029785 -1.8485628366470337 0.10698548704385757 -1.9024733304977417 -8.769814491271973 C 3.741286277770996 0.4399576187133789 -9.221107482910156 0.8950231075286865 -13.176704406738281 -7.334465980529785 C -16.458799362182617 -9.422647476196289 -9.138293266296387 -16.743154525756836 1.85206937789917 -20.871362686157227 C 17.423236846923828 -25.16456413269043 21.464075088500977 -13.604806900024414 9.826762199401855 -21.791099548339844" stroke-width="0.0" fill="rgb(216, 18, 119)" opacity="0.7865465"/>
    <path d="M 520.219970703125 240.75241088867188 C 482.567138671875 181.33189392089844 493.0630798339844 230.42822265625 516.596923828125 277.0491943359375 C 502.5713195800781 272.09576416015625 500.3109130859375 256.8021240234375 493.7661437988281 239.5530242919922 C 481.499267578125 234.87062072753906 485.43792724609375 243.57699584960938 508.1485290527344 287.6229553222656 C 493.99365234375 279.3372497558594 467.8387451171875 247.9652862548828 520.219970703125 240.75241088867188" stroke-width="0.0" fill="rgb(182, 65, 0)" opacity="0.106753565"/>
    <path d="M -6.211691379547119 -0.011906585656106472 C -4.540152072906494 8.712691307067871 -4.319939613342285 17.9875545501709 -6.781425952911377 23.20783042907715 C -14.839523315429688 19.202011108398438 -28.00360679626465 1.1442017555236816 -22.274280548095703 -7.743922710418701 C -16.76355743408203 -9.315385818481445 -9.443050384521484 -16.635892868041992 1.1807725429534912 -19.53607749938965 C 14.331830024719238 -19.57493019104004 19.587182998657227 -11.226197242736816 -6.211691379547119 -0.011906585656106472" stroke-width="0.0" fill="rgb(213, 113, 114)" opacity="0.90409863"/>
    <path d="M 580.4843139648438 34.32743453979492 C 582.8662109375 74.68170166015625 593.4696044921875 60.7864990234375 575.352783203125 63.69374465942383 C 514.7249755859375 83.22467041015625 493.15423583984375 74.4574203491211 488.11968994140625 28.286701202392578 C 486.8623962402344 -16.18965721130371 483.8387451171875 -1.6868844032287598 546.4090576171875 7.971503257751465 C 548.857177734375 30.846878051757812 556.1592407226562 24.923141479492188 580.4843139648438 34.32743453979492" stroke-width="0.0" fill="rgb(227, 53, 36)" opacity="0.46400094"/>
    <path d="M 431.77001953125 314.7261657714844 C 417.5093994140625 277.10888671875 411.54656982421875 266.12652587890625 394.44244384765625 256.37664794921875 C 387.7862243652344 248.42506408691406 386.27203369140625 251.82107543945312 365.0201416015625 252.25233459472656 C 351.7392272949219 224.42193603515625 349.169189453125 238.69105529785156 403.0215759277344 235.0114288330078 C 428.65936279296875 219.8167266845703 437.3230895996094 227.44210815429688 431.77001953125 314.7261657714844" stroke-width="0.0" fill="rgb(17, 15, 24)" opacity="1.0"/>
    <path d="M 485.576416015625 474.5220642089844 C 492.96392822265625 508.8124084472656 496.2363586425781 543.4141235351562 480.1876525878906 500.7052001953125 C 447.7644958496094 503.9317321777344 434.4578552246094 517.7083129882812 423.24847412109375 468.0346984863281 C 444.60711669921875 442.0384521484375 446.7584533691406 423.9362487792969 466.82452392578125 399.4024658203125 C 488.2110595703125 431.24072265625 475.870849609375 447.0689392089844 485.576416015625 474.5220642089844" stroke-width="0.0" fill="rgb(197, 35, 39)" opacity="0.16985588"/>
    <path d="M 31.486989974975586 -11.120988845825195 C 3.97822642326355 -10.0219144821167 -6.324556350708008 0.7053442597389221 -17.909099578857422 6.2510271072387695 C -14.917937278747559 22.967185974121094 -22.52717399597168 16.626893997192383 -20.29957389831543 1.999422550201416 C -17.100067138671875 -9.410734176635742 -9.779559135437012 -16.73124122619629 7.329826831817627 -25.79721450805664 C 19.112808227539062 -25.349037170410156 29.62171173095703 -21.429746627807617 31.486989974975586 -11.120988845825195" stroke-width="0.0" fill="rgb(13, 52, 135)" opacity="0.6621071"/>
    <path d="M 384.108642578125 75.2977523803711 C 396.37158203125 146.56394958496094 407.01947021484375 140.18502807617188 394.1831359863281 81.5250244140625 C 357.0201721191406 84.29378509521484 346.6410217285156 116.33638763427734 360.8092041015625 118.25027465820312 C 339.37139892578125 33.83713912963867 340.00531005859375 30.722373962402344 352.1398010253906 13.302630424499512 C 383.4366760253906 -1.189744472503662 386.9381103515625 22.65868377685547 384.108642578125 75.2977523803711" stroke-width="0.0" fill="rgb(187, 61, 15)" opacity="0.10652728"/>
    <path d="M 455.12933349609375 37.66312789916992 C 451.8462219238281 69.76494598388672 445.49249267578125 90.32154083251953 455.2880554199219 97.70793151855469 C 455.4369812011719 73.15093231201172 466.04388427734375 14.402569770812988 446.1227111816406 -61.654876708984375 C 378.9029846191406 -2.3718204498291016 373.0403747558594 26.53395652770996 414.3216247558594 55.316978454589844 C 435.1632385253906 7.904923439025879 430.93359375 10.503960609436035 455.12933349609375 37.66312789916992" stroke-width="0.0" fill="rgb(190, 68, 2)" opacity="0.1560957"/>
    <path d="M 515.2452392578125 529.8056030273438 C 540.9910278320312 593.0073852539062 541.677734375 625.2030639648438 497.8503112792969 641.7281494140625 C 462.6873474121094 595.0432739257812 454.63494873046875 590.6080322265625 461.76129150390625 550.7832641601562 C 460.4532775878906 544.8621826171875 467.51336669921875 550.3781127929688 519.6009521484375 555.6376953125 C 521.806884765625 575.09765625 504.8572082519531 581.0557861328125 515.2452392578125 529.8056030273438" stroke-width="0.0" fill="rgb(184, 20, 101)" opacity="0.106959775"/>
    <path d="M 11.63261604309082 -12.38957405090332 C 2.1531789302825928 -4.901428699493408 -5.960770606994629 1.8804936408996582 -16.14440155029297 4.502076148986816 C -4.3398661613464355 10.799041748046875 -16.99968147277832 10.149884223937988 -19.781213760375977 0.504789412021637 C -17.101869583129883 -9.494645118713379 -9.78136157989502 -16.81515121459961 0.20968939363956451 -19.49210548400879 C 8.85490894317627 -16.343088150024414 10.247323036193848 -3.550595998764038 11.63261604309082 -12.38957405090332" stroke-width="0.0" fill="rgb(107, 3, 27)" opacity="0.7209447"/>
    <path d="M 40.62130355834961 307.8265686035156 C -9.114895820617676 267.4571838378906 25.691421508789062 272.9184875488281 20.034013748168945 344.7544250488281 C -28.521650314331055 318.3191833496094 -33.28329086303711 308.4405822753906 -43.370880126953125 289.608642578125 C -17.028406143188477 264.993408203125 -6.388941287994385 260.2231140136719 -12.848515510559082 249.90707397460938 C 42.88965606689453 254.75868225097656 35.73531723022461 248.5938720703125 40.62130355834961 307.8265686035156" stroke-width="0.0" fill="rgb(165, 43, 1)" opacity="0.20459083"/>
    <path d="M 444.7408752441406 387.7960510253906 C 429.2283935546875 358.6756286621094 432.39080810546875 372.59698486328125 437.3802185058594 380.1969909667969 C 437.4621276855469 355.5585632324219 445.364990234375 343.43170166015625 439.99884033203125 348.88458251953125 C 471.0456237792969 355.4139099121094 440.5174865722656 345.27117919921875 427.6170349121094 318.1116943359375 C 464.6677551269531 337.88995361328125 463.493896484375 385.13299560546875 444.7408752441406 387.7960510253906" stroke-width="0.0" fill="rgb(6, 34, 4)" opacity="0.10112992"/>
    <path d="M 15.340988159179688 -16.28351593017578 C 3.5048954486846924 -4.3677592277526855 -11.443087577819824 -2.738365650177002 -23.8930606842041 4.847959995269775 C -15.660484313964844 25.0294132232666 -17.3043270111084 11.255535125732422 -19.82908821105957 0.7299683690071106 C -17.149368286132812 -9.270873069763184 -9.828861236572266 -16.591381072998047 0.18251588940620422 -19.27400016784668 C 13.038426399230957 -17.803911209106445 25.132675170898438 -16.554899215698242 15.340988159179688 -16.28351593017578" stroke-width="0.0" fill="rgb(189, 228, 21)" opacity="0.84266007"/>
    <path d="M 350.4073181152344 616.9933471679688 C 349.30694580078125 622.5746459960938 338.3613586425781 626.4509887695312 314.42584228515625 625.0843505859375 C 299.4884033203125 619.9317016601562 292.3536376953125 613.04248046875 305.4090576171875 630.4815063476562 C 296.73065185546875 598.7565307617188 266.0687561035156 594.2193603515625 299.9393310546875 568.230224609375 C 342.1592712402344 567.36181640625 333.5504150390625 601.6824951171875 350.4073181152344 616.9933471679688" stroke-width="0.0" fill="rgb(140, 49, 0)" opacity="0.18545145"/>
    <path d="M 9.979316711425781 -13.6049222946167 C -0.43189606070518494 -9.2882080078125 -8.282232284545898 -0.56192946434021 -11.999642372131348 10.439499855041504 C -15.94813060760498 23.975507736206055 -22.983060836791992 16.946762084960938 -20.578765869140625 2.8920047283172607 C -16.615934371948242 -9.95417594909668 -9.295428276062012 -17.274682998657227 -6.401556968688965 -14.226494789123535 C 0.35587623715400696 -7.22023868560791 7.695057392120361 0.24993091821670532 9.979316711425781 -13.6049222946167" stroke-width="0.0" fill="rgb(50, 100, 216)" opacity="0.818901"/>
    <path d="M 8.163849830627441 -12.217154502868652 C 3.830605983734131 -3.3119595050811768 -3.7948391437530518 4.951722621917725 -11.939579963684082 9.876139640808105 C -8.564541816711426 15.447102546691895 -17.044788360595703 10.9049654006958 -19.733007431030273 0.936587393283844 C -17.053529739379883 -9.063344955444336 -9.73302173614502 -16.383852005004883 0.26992711424827576 -19.064210891723633 C 10.59945011138916 -16.4864559173584 22.23164939880371 -11.674769401550293 8.163849830627441 -12.217154502868652" stroke-width="0.0" fill="rgb(67, 173, 34)" opacity="0.8413493"/>
    <path d="M 9.978984832763672 -12.03731632232666 C 3.458867073059082 -3.3206427097320557 -2.6300761699676514 4.596628665924072 -13.61282730102539 5.532863140106201 C -0.9710546731948853 9.653658866882324 -11.218327522277832 3.825202703475952 -19.0208797454834 0.1499956250190735 C -16.51468849182129 -9.301860809326172 -9.194180488586426 -16.62236785888672 0.24155950546264648 -19.125389099121094 C 3.7127251625061035 -10.994720458984375 9.733455657958984 -1.0062339305877686 9.978984832763672 -12.03731632232666" stroke-width="0.0" fill="rgb(138, 153, 36)" opacity="0.77803653"/>
    <path d="M 620.5614013671875 596.6654663085938 C 601.952880859375 601.7205200195312 594.6336669921875 609.0420532226562 577.1207275390625 621.1407470703125 C 571.9275512695312 617.3997192382812 570.4122924804688 608.0885620117188 587.5311889648438 620.2622680664062 C 597.3118896484375 608.4554443359375 602.580078125 594.6199340820312 603.4047241210938 600.2779541015625 C 609.6947631835938 587.4053344726562 618.7698974609375 590.002685546875 620.5614013671875 596.6654663085938" stroke-width="0.0" fill="rgb(61, 0, 3)" opacity="0.7483196"/>
    <path d="M 33.4672966003418 -3.459677219390869 C 35.71573257446289 41.67753982543945 38.14261245727539 38.57219696044922 -6.050873756408691 28.932600021362305 C -19.606874465942383 7.456911087036133 -25.384675979614258 4.075557231903076 -24.84090232849121 -5.021991729736328 C -17.29397201538086 -9.801162719726562 -9.973464012145996 -17.12166976928711 12.691946983337402 -29.781211853027344 C 20.392568588256836 -26.848186492919922 27.53158187866211 -11.379921913146973 33.4672966003418 -3.459677219390869" stroke-width="0.0" fill="rgb(170, 66, 0)" opacity="0.49424312"/>
    <path d="M 403.8517761230469 245.2747344970703 C 386.1117858886719 250.29885864257812 367.1064758300781 262.7088623046875 350.29962158203125 257.7124328613281 C 359.3379821777344 257.61572265625 344.43914794921875 268.6131286621094 353.44580078125 251.67393493652344 C 358.7669677734375 229.03111267089844 355.0674133300781 222.83584594726562 396.0273132324219 225.4870147705078 C 404.1991882324219 229.30630493164062 407.20343017578125 225.32394409179688 403.8517761230469 245.2747344970703" stroke-width="0.0" fill="rgb(19, 14, 26)" opacity="0.70925194"/>
    <path d="M 283.3885498046875 515.210693359375 C 211.70289611816406 499.9554748535156 226.49708557128906 500.3076171875 226.16302490234375 509.8891906738281 C 231.012451171875 496.4017028808594 147.52102661132812 521.3883056640625 112.90936279296875 493.0445556640625 C 162.46482849121094 426.80413818359375 199.51039123535156 473.68304443359375 239.89630126953125 490.0509948730469 C 248.15438842773438 513.2852783203125 257.3038635253906 490.3810729980469 283.3885498046875 515.210693359375" stroke-width="0.0" fill="rgb(152, 15, 43)" opacity="0.27132276"/>
    <path d="M 6.887716770172119 -20.27287483215332 C 2.729290246963501 -6.4727783203125 -4.8264923095703125 2.2223432064056396 -22.207656860351562 -0.30020827054977417 C -3.9323949813842773 10.351308822631836 -16.933561325073242 9.752076148986816 -19.771833419799805 0.28838667273521423 C -17.092609405517578 -9.710612297058105 -9.772101402282715 -17.031118392944336 0.2285412847995758 -19.710784912109375 C 10.451781272888184 -17.095155715942383 23.112882614135742 -13.18263053894043 6.887716770172119 -20.27287483215332" stroke-width="0.0" fill="rgb(77, 59, 187)" opacity="0.723408"/>
    <path d="M -3.464601755142212 -22.94624137878418 C -3.3128411769866943 -7.980161666870117 -7.934746265411377 0.9024369120597839 -19.86405372619629 0.1951143592596054 C -6.977869510650635 13.517012596130371 -16.60698127746582 10.387998580932617 -19.351572036743164 0.6077604293823242 C -16.67247200012207 -9.390869140625 -9.351964950561523 -16.711376190185547 0.782934844493866 -19.43026351928711 C 15.955082893371582 -19.95413589477539 26.23600959777832 -17.35923194885254 -3.464601755142212 -22.94624137878418" stroke-width="0.0" fill="rgb(172, 84, 64)" opacity="0.5964338"/>
    <path d="M 456.61260986328125 599.9468383789062 C 461.6975402832031 598.6898193359375 479.0418701171875 606.4696655273438 445.6706237792969 630.2395629882812 C 428.20294189453125 607.765380859375 425.74053955078125 606.3528442382812 419.1324462890625 563.23046875 C 488.3832092285156 566.5234985351562 443.6886291503906 570.6781005859375 429.641845703125 528.51220703125 C 463.2972412109375 532.470703125 465.7117614746094 568.0147705078125 456.61260986328125 599.9468383789062" stroke-width="0.0" fill="rgb(161, 70, 9)" opacity="0.12367259"/>
    <path d="M 618.24609375 351.4960632324219 C 594.4827880859375 418.3722229003906 584.8656005859375 438.078125 566.7277221679688 400.35992431640625 C 540.9906005859375 382.3277587890625 544.9179077148438 384.9433898925781 529.2122802734375 355.0011901855469 C 532.4973754882812 293.8210754394531 543.0285034179688 285.2393798828125 547.0308837890625 341.1763610839844 C 608.60791015625 332.21051025390625 631.8911743164062 326.0013732910156 618.24609375 351.4960632324219" stroke-width="0.0" fill="rgb(179, 65, 18)" opacity="0.07209351"/>
    <path d="M -1.642735242843628 -26.29291343688965 C -3.7839181423187256 -3.2846128940582275 -1.841646432876587 18.217247009277344 -9.668793678283691 9.20672607421875 C -29.451168060302734 14.251015663146973 -24.574260711669922 14.85610580444336 -20.198328018188477 1.5856586694717407 C -17.219505310058594 -9.722026824951172 -9.898998260498047 -17.04253387451172 -1.3383123874664307 -19.11081886291504 C 2.7732186317443848 -10.940836906433105 9.312474250793457 -2.068366527557373 -1.642735242843628 -26.29291343688965" stroke-width="0.0" fill="rgb(118, 81, 21)" opacity="0.55138105"/>
    <path d="M -8.581114768981934 5.6013994216918945 C 5.158965110778809 6.267236709594727 -7.550207138061523 9.310572624206543 -4.704517841339111 37.41907501220703 C -21.038223266601562 28.43575096130371 -23.836393356323242 17.98899269104004 -20.405433654785156 1.696103572845459 C -16.950326919555664 -9.79049301147461 -9.6298189163208 -17.111000061035156 -3.890833854675293 -30.17047119140625 C 0.37334319949150085 -30.643373489379883 1.4520138502120972 -22.084369659423828 -8.581114768981934 5.6013994216918945" stroke-width="0.0" fill="rgb(96, 129, 69)" opacity="0.6623923"/>
    <path d="M 26.32936668395996 -21.75496482849121 C 31.546659469604492 -12.441173553466797 23.515043258666992 0.13748252391815186 25.810962677001953 -3.084390878677368 C 23.84479522705078 -10.07776927947998 -0.1338326334953308 -7.166840076446533 -19.559743881225586 -10.184530258178711 C -17.227760314941406 -9.903284072875977 -9.907254219055176 -17.223791122436523 0.09225036948919296 -19.903154373168945 C 9.653179168701172 -17.096601486206055 10.675313949584961 -4.218870162963867 26.32936668395996 -21.75496482849121" stroke-width="0.0" fill="rgb(110, 81, 68)" opacity="0.6683291"/>
    <path d="M 61.202579498291016 4.5026350021362305 C 57.51187515258789 40.42995071411133 40.96733093261719 35.46628952026367 -7.560268402099609 29.233135223388672 C -15.226949691772461 21.15690040588379 -18.85042953491211 12.972407341003418 -22.677043914794922 3.3127224445343018 C -16.941972732543945 -9.447958946228027 -9.621465682983398 -16.76846694946289 10.92656421661377 -31.64885139465332 C 33.77572250366211 -39.63461685180664 53.081417083740234 -43.035255432128906 61.202579498291016 4.5026350021362305" stroke-width="0.0" fill="rgb(184, 22, 22)" opacity="0.6411576"/>
    <path d="M -4.7459001541137695 -27.428604125976562 C -6.982563495635986 -8.599166870117188 -7.798145771026611 6.991240978240967 -12.13719367980957 12.371362686157227 C -3.1422119140625 10.305560111999512 -16.781234741210938 9.217899322509766 -19.836023330688477 0.37733298540115356 C -17.1571044921875 -9.62054443359375 -9.836597442626953 -16.941051483154297 0.203859344124794 -19.631851196289062 C 14.480530738830566 -19.25359344482422 25.20844268798828 -17.122196197509766 -4.7459001541137695 -27.428604125976562" stroke-width="0.0" fill="rgb(77, 35, 126)" opacity="0.77459437"/>
  </g>
</svg>
