<?xml version="1.0" ?>
<svg xmlns="http://www.w3.org/2000/svg" version="1.1" width="600" height="600">
  <defs/>
  <g>
    <path d="M 456.0122985839844 152.56112670898438 C 474.5265808105469 206.30245971679688 484.1511535644531 228.74729919433594 389.0013732910156 243.00209045410156 C 270.03173828125 172.49227905273438 272.41546630859375 144.4974822998047 267.63946533203125 119.89453887939453 C 313.9443359375 41.188899993896484 314.8988952636719 10.952841758728027 417.44195556640625 -19.988574981689453 C 435.14007568359375 -20.072811126708984 441.63818359375 -12.030744552612305 456.0122985839844 152.56112670898438" stroke-width="0.0" fill="rgb(82, 36, 5)" opacity="0.84643537"/>
    <path d="M 619.022705078125 250.2096710205078 C 610.841064453125 308.9878234863281 594.5743408203125 300.65185546875 510.3371887207031 285.1323547363281 C 420.4591064453125 330.49560546875 510.125732421875 441.8320007324219 410.5302734375 444.8900451660156 C 393.15252685546875 163.32278442382812 487.2707824707031 217.4281768798828 584.0135498046875 205.71160888671875 C 608.5899658203125 199.73402404785156 617.485595703125 203.50730895996094 619.022705078125 250.2096710205078" stroke-width="0.0" fill="rgb(253, 127, 0)" opacity="0.9363298"/>
    <path d="M 619.2462768554688 292.67596435546875 C 615.3771362304688 364.1298828125 603.4765625 363.2995300292969 560.4267578125 356.05010986328125 C 494.80767822265625 370.672119140625 454.2821960449219 383.8738708496094 485.7547607421875 319.0261535644531 C 521.9949340820312 277.6369323730469 523.2202758789062 262.5830078125 551.4707641601562 238.33108520507812 C 607.8327026367188 257.3910827636719 617.151611328125 260.8400573730469 619.2462768554688 292.67596435546875" stroke-width="0.0" fill="rgb(106, 65, 44)" opacity="0.9371379"/>
    <path d="M 619.8033447265625 383.4288024902344 C 622.9042358398438 417.923828125 623.1936645507812 434.4209289550781 605.4666748046875 445.6236877441406 C 515.03271484375 413.324462890625 511.59197998046875 384.989990234375 478.2258605957031 342.6597595214844 C 493.9130554199219 297.7650451660156 506.19537353515625 299.3443298339844 539.7861938476562 309.8501892089844 C 599.8646240234375 306.6436767578125 614.392333984375 303.2764587402344 619.8033447265625 383.4288024902344" stroke-width="0.0" fill="rgb(107, 69, 44)" opacity="0.9950964"/>
    <path d="M 606.6063842773438 439.35076904296875 C 600.3794555664062 458.60845947265625 587.4539184570312 464.53125 342.2422180175781 470.03472900390625 C 284.9417419433594 408.9959716796875 276.6561279296875 333.34393310546875 339.42803955078125 239.24522399902344 C 480.4858093261719 388.4951477050781 456.21142578125 481.06817626953125 474.7365417480469 348.9018859863281 C 550.408935546875 326.3330383300781 551.6691284179688 355.11260986328125 606.6063842773438 439.35076904296875" stroke-width="0.0" fill="rgb(245, 195, 0)" opacity="0.9581308"/>
    <path d="M 616.4806518554688 2.4218196868896484 C 594.2238159179688 72.12857055664062 563.6072387695312 67.56166076660156 508.89324951171875 73.78386688232422 C 475.2734069824219 77.88947296142578 469.42645263671875 70.03516387939453 476.4052429199219 50.51333236694336 C 500.8060607910156 7.014214038848877 501.5743103027344 -6.453886985778809 549.9950561523438 -17.435855865478516 C 578.711669921875 -27.978734970092773 603.2222900390625 -39.0040283203125 616.4806518554688 2.4218196868896484" stroke-width="0.0" fill="rgb(101, 65, 43)" opacity="0.998304"/>
    <path d="M 621.013427734375 107.1318130493164 C 624.4319458007812 163.2269744873047 621.0862426757812 172.69390869140625 565.4974975585938 180.3585662841797 C 432.1571350097656 187.626708984375 421.62677001953125 186.3095703125 420.8186950683594 153.22119140625 C 434.8335876464844 12.455312728881836 472.3639831542969 28.848617553710938 584.647216796875 5.909127712249756 C 614.0140380859375 -9.917101860046387 620.549072265625 -2.8704710006713867 621.013427734375 107.1318130493164" stroke-width="0.0" fill="rgb(245, 102, 22)" opacity="0.89798236"/>
    <path d="M 406.5020751953125 237.46629333496094 C 388.7849426269531 267.2398376464844 388.4475402832031 281.7313232421875 273.64471435546875 337.4561462402344 C 38.65149688720703 347.2469482421875 99.10626220703125 304.7059020996094 133.02496337890625 195.32798767089844 C 118.50077056884766 -5.694400787353516 114.4434814453125 -17.3533935546875 158.32272338867188 -18.654211044311523 C 300.7735900878906 -11.397887229919434 305.5384216308594 15.236105918884277 406.5020751953125 237.46629333496094" stroke-width="0.0" fill="rgb(46, 28, 23)" opacity="1.0"/>
    <path d="M 217.28927612304688 131.8563690185547 C 289.0480041503906 328.47833251953125 319.1606750488281 352.404296875 219.8687286376953 374.8122253417969 C -136.86105346679688 360.5523681640625 -121.74437713623047 347.15716552734375 -45.938316345214844 272.3885498046875 C -27.204853057861328 -11.87529182434082 -24.28818130493164 -20.40080451965332 43.84993362426758 -25.338977813720703 C 215.11329650878906 -27.933244705200195 214.82763671875 -19.89383316040039 217.28927612304688 131.8563690185547" stroke-width="0.0" fill="rgb(255, 161, 17)" opacity="0.9121946"/>
    <path d="M 619.1126098632812 165.99432373046875 C 595.2545166015625 249.42762756347656 532.6937255859375 193.49229431152344 412.89520263671875 273.99151611328125 C 418.371337890625 400.226806640625 377.77978515625 388.5724182128906 375.16973876953125 262.0395812988281 C 416.25286865234375 132.1658172607422 441.52423095703125 136.75839233398438 519.7817993164062 139.32969665527344 C 627.1416625976562 138.3924102783203 629.4869995117188 147.2303924560547 619.1126098632812 165.99432373046875" stroke-width="0.0" fill="rgb(219, 119, 8)" opacity="0.5167293"/>
    <path d="M 621.7305297851562 490.6053466796875 C 625.1935424804688 587.8899536132812 626.4795532226562 603.1701049804688 596.01806640625 615.455810546875 C 481.0996398925781 561.5037231445312 443.5519714355469 570.530029296875 432.3041687011719 469.09228515625 C 459.0162048339844 435.5705261230469 472.1062927246094 432.18853759765625 582.9486083984375 422.45513916015625 C 623.0973510742188 415.3102722167969 625.2892456054688 425.333740234375 621.7305297851562 490.6053466796875" stroke-width="0.0" fill="rgb(89, 53, 47)" opacity="0.8175497"/>
    <path d="M 614.7290649414062 600.11669921875 C 594.562255859375 633.0223388671875 573.3016967773438 627.029052734375 402.3189392089844 636.6868286132812 C 288.0347595214844 723.361083984375 275.3363952636719 769.31982421875 257.70733642578125 397.8025207519531 C 251.2207794189453 325.03546142578125 265.1787414550781 320.5537414550781 350.43182373046875 301.1765441894531 C 551.7919921875 515.4464111328125 586.1766357421875 515.3221435546875 614.7290649414062 600.11669921875" stroke-width="0.0" fill="rgb(251, 231, 0)" opacity="0.9945595"/>
    <path d="M 255.58668518066406 369.3459167480469 C 302.34405517578125 785.4395141601562 282.169921875 733.529541015625 180.1673126220703 640.4773559570312 C -1.1908541917800903 635.455078125 -15.40888786315918 642.6929931640625 -30.133495330810547 446.7602233886719 C -108.567138671875 352.81390380859375 -156.7743377685547 329.321044921875 173.68417358398438 315.1692199707031 C 297.70428466796875 330.23260498046875 303.1441345214844 339.091064453125 255.58668518066406 369.3459167480469" stroke-width="0.0" fill="rgb(108, 68, 44)" opacity="0.9999437"/>
    <path d="M 528.7728881835938 9.044095993041992 C 524.9314575195312 47.52783203125 547.7819213867188 100.2940673828125 429.435302734375 119.48796844482422 C 411.1688537597656 112.06612396240234 405.1478271484375 101.12777709960938 402.1007995605469 62.685001373291016 C 406.28900146484375 -58.357215881347656 420.751953125 -45.75689697265625 466.8653869628906 -20.97530174255371 C 520.09130859375 -12.601740837097168 527.4684448242188 -5.309100151062012 528.7728881835938 9.044095993041992" stroke-width="0.0" fill="rgb(108, 69, 44)" opacity="0.996464"/>
    <path d="M 400.5584716796875 -3.310296058654785 C 372.13311767578125 71.35301208496094 346.0030517578125 72.75736236572266 333.218994140625 76.68437957763672 C 306.93792724609375 55.431358337402344 299.6790466308594 48.00092315673828 282.2797546386719 16.352340698242188 C 268.4811096191406 -7.948997497558594 270.90692138671875 -17.974950790405273 345.7767333984375 -20.16214942932129 C 372.488037109375 -21.75709342956543 387.66827392578125 -20.992603302001953 400.5584716796875 -3.310296058654785" stroke-width="0.0" fill="rgb(107, 68, 43)" opacity="0.9960116"/>
    <path d="M 335.4932556152344 53.71053695678711 C 345.7117004394531 84.96089935302734 353.0229187011719 114.81157684326172 259.74566650390625 111.46900939941406 C 238.92184448242188 116.27216339111328 232.06661987304688 108.06380462646484 188.22125244140625 4.420873641967773 C 207.74363708496094 -39.66676712036133 228.3196563720703 -31.07417106628418 257.1040344238281 -20.549915313720703 C 325.9888916015625 16.422958374023438 326.5951843261719 32.5895881652832 335.4932556152344 53.71053695678711" stroke-width="0.0" fill="rgb(107, 68, 45)" opacity="1.0"/>
    <path d="M 129.07093811035156 66.1978988647461 C 122.10094451904297 76.46550750732422 122.6854476928711 92.05133056640625 105.18720245361328 110.71552276611328 C 78.33811950683594 101.05497741699219 68.10315704345703 93.08293914794922 61.830162048339844 74.32405090332031 C 79.02157592773438 48.43085479736328 92.5761947631836 45.45201873779297 105.57400512695312 44.72300338745117 C 116.0 47.67949295043945 123.32051086425781 55.0 129.07093811035156 66.1978988647461" stroke-width="0.0" fill="rgb(108, 68, 44)" opacity="0.9738884"/>
    <path d="M 54.21208190917969 205.2109832763672 C 57.76188659667969 222.15911865234375 53.8677978515625 234.18067932128906 33.81768798828125 240.10450744628906 C 5.408822059631348 234.69692993164062 -6.124863147735596 229.02493286132812 -15.34839153289795 201.45999145507812 C -10.314833641052246 170.17552185058594 -2.0361056327819824 160.50827026367188 15.877898216247559 160.67132568359375 C 42.332061767578125 182.04176330566406 48.5511474609375 191.5068359375 54.21208190917969 205.2109832763672" stroke-width="0.0" fill="rgb(107, 67, 44)" opacity="0.98615044"/>
    <path d="M 90.56116485595703 49.37063980102539 C 89.4197998046875 67.5771255493164 83.42135620117188 79.32678985595703 68.28632354736328 90.00498962402344 C 44.105892181396484 67.83270263671875 38.80465316772461 55.94324493408203 22.863645553588867 33.828468322753906 C 25.99671173095703 19.23006820678711 31.625478744506836 5.503714084625244 61.990478515625 -11.927359580993652 C 85.1865234375 5.006758213043213 86.37296295166016 21.60259437561035 90.56116485595703 49.37063980102539" stroke-width="0.0" fill="rgb(107, 69, 42)" opacity="0.98479"/>
    <path d="M 156.73135375976562 152.0105743408203 C 154.56167602539062 204.20657348632812 140.80528259277344 225.05877685546875 120.34310150146484 262.9949645996094 C 65.26700592041016 222.5604248046875 64.07147216796875 203.6168670654297 58.46379470825195 178.527099609375 C 63.22307586669922 157.20779418945312 69.97406005859375 146.82583618164062 88.48625183105469 138.67494201660156 C 113.22956848144531 148.201416015625 123.44467163085938 149.8564453125 156.73135375976562 152.0105743408203" stroke-width="0.0" fill="rgb(109, 73, 52)" opacity="1.0"/>
    <path d="M 155.60089111328125 354.171630859375 C 244.92918395996094 552.3491821289062 88.4464111328125 537.478515625 67.80022430419922 372.9971618652344 C 97.39838409423828 212.209716796875 37.62539291381836 245.2565155029297 16.629114151000977 255.6735076904297 C 19.65389633178711 245.95970153808594 26.468698501586914 237.81138610839844 44.176002502441406 232.77635192871094 C 76.01884460449219 261.7256164550781 199.8829803466797 216.66485595703125 155.60089111328125 354.171630859375" stroke-width="0.0" fill="rgb(252, 135, 15)" opacity="1.0"/>
    <path d="M 117.02957153320312 36.94791030883789 C 114.32051086425781 47.0 107.0 54.32050704956055 92.36772918701172 62.64669418334961 C 79.14319610595703 62.91996383666992 72.09571838378906 54.61388397216797 63.406497955322266 29.404033660888672 C 60.35911178588867 8.148947715759277 64.94229888916016 -4.715885162353516 86.81037902832031 -13.078508377075195 C 111.99027252197266 11.995586395263672 114.96089935302734 25.91366195678711 117.02957153320312 36.94791030883789" stroke-width="0.0" fill="rgb(109, 68, 44)" opacity="1.0"/>
    <path d="M 262.9978332519531 94.16934204101562 C 211.24786376953125 148.78271484375 169.74008178710938 128.73329162597656 130.90528869628906 119.45751190185547 C 98.02082824707031 84.06991577148438 93.41683959960938 73.32710266113281 90.98603820800781 63.00997543334961 C 93.6787109375 52.9997444152832 100.99994659423828 45.67947006225586 113.0799789428711 39.82334518432617 C 131.97222900390625 37.31221008300781 160.1650390625 21.323755264282227 262.9978332519531 94.16934204101562" stroke-width="0.0" fill="rgb(104, 66, 44)" opacity="0.9853896"/>
    <path d="M 71.538818359375 79.71568298339844 C 68.75234985351562 94.65769958496094 60.460205078125 105.8369369506836 16.779590606689453 130.63955688476562 C -11.144963264465332 117.96116638183594 -13.88153076171875 100.69692993164062 -15.458311080932617 69.40240478515625 C -5.1552534103393555 39.38599395751953 6.197319984436035 33.14925003051758 24.634984970092773 28.074079513549805 C 43.35296630859375 41.05799865722656 49.05302429199219 52.177791595458984 71.538818359375 79.71568298339844" stroke-width="0.0" fill="rgb(109, 70, 46)" opacity="0.99532825"/>
    <path d="M 164.2490997314453 134.66952514648438 C 140.9721221923828 170.60667419433594 119.49992370605469 169.1993408203125 88.71746826171875 168.08078002929688 C 64.9454574584961 152.7463836669922 63.28538513183594 137.83355712890625 63.55647277832031 123.63517761230469 C 66.66900634765625 112.98505401611328 73.71414184570312 105.26569366455078 96.3522720336914 83.70606994628906 C 115.13317108154297 84.9969482421875 130.06089782714844 89.80764770507812 164.2490997314453 134.66952514648438" stroke-width="0.0" fill="rgb(109, 69, 46)" opacity="1.0"/>
    <path d="M 96.2364501953125 208.49472045898438 C 107.03938293457031 241.17010498046875 111.54521942138672 267.3920593261719 93.29776763916016 279.4554443359375 C 36.550811767578125 219.53762817382812 33.04425048828125 206.11819458007812 30.642292022705078 194.75802612304688 C 32.92929458618164 184.31661987304688 40.36993408203125 177.1038360595703 53.76282501220703 171.83963012695312 C 68.17259216308594 170.7680206298828 77.89935302734375 176.73226928710938 96.2364501953125 208.49472045898438" stroke-width="0.0" fill="rgb(107, 68, 45)" opacity="0.9883307"/>
    <path d="M 95.6746826171875 237.16677856445312 C 91.54138946533203 254.821044921875 81.56333923339844 299.5124206542969 100.71060180664062 498.76666259765625 C -105.7963638305664 403.801513671875 -43.439064025878906 314.7820129394531 -17.19073486328125 252.95974731445312 C -10.199723243713379 223.0803680419922 -2.7640671730041504 213.627685546875 16.15441131591797 211.6792755126953 C 42.7988395690918 220.60646057128906 46.95815658569336 231.92965698242188 95.6746826171875 237.16677856445312" stroke-width="0.0" fill="rgb(108, 69, 45)" opacity="0.9844904"/>
    <path d="M 58.51546859741211 8.361807823181152 C 42.28602981567383 40.05229949951172 32.787662506103516 47.850318908691406 7.088134288787842 57.8959846496582 C -9.341086387634277 48.87876892089844 -10.71074104309082 33.94661331176758 -10.021598815917969 18.426122665405273 C -8.252400398254395 5.435201644897461 -2.4354569911956787 -3.789489984512329 15.007373809814453 -9.825490951538086 C 35.41068649291992 -12.418730735778809 50.37557601928711 -10.252352714538574 58.51546859741211 8.361807823181152" stroke-width="0.0" fill="rgb(108, 68, 42)" opacity="1.0"/>
    <path d="M 240.04473876953125 46.279815673828125 C 188.71917724609375 89.29167938232422 155.885009765625 73.5599136352539 128.5819549560547 60.82688522338867 C 108.0 46.320499420166016 100.67948913574219 39.0 92.85308074951172 24.101905822753906 C 87.17438507080078 5.0236334800720215 90.63519287109375 -7.764754772186279 120.32048034667969 -17.173398971557617 C 157.45538330078125 -16.714019775390625 182.99659729003906 -22.124937057495117 240.04473876953125 46.279815673828125" stroke-width="0.0" fill="rgb(108, 68, 44)" opacity="1.0"/>
    <path d="M 97.49034881591797 118.33552551269531 C 94.33452606201172 129.02027893066406 87.2962646484375 136.7633514404297 67.78436279296875 155.671875 C 51.99648666381836 151.68264770507812 38.7532958984375 145.5284423828125 19.383657455444336 115.22923278808594 C 34.46372985839844 87.53190612792969 45.949302673339844 79.00331115722656 70.74220275878906 70.5029525756836 C 96.8014907836914 88.30148315429688 97.91582489013672 103.93415832519531 97.49034881591797 118.33552551269531" stroke-width="0.0" fill="rgb(109, 70, 43)" opacity="1.0"/>
    <path d="M 86.63597106933594 159.26190185546875 C 73.99827575683594 183.4209747314453 62.1701545715332 187.3480682373047 45.46483612060547 189.05023193359375 C 29.209850311279297 189.7051239013672 12.368390083312988 188.3892059326172 -14.436273574829102 153.13333129882812 C -7.4466352462768555 121.692626953125 3.164238214492798 111.49604034423828 30.64101791381836 108.88035583496094 C 71.7790298461914 132.3291015625 81.55510711669922 140.6456756591797 86.63597106933594 159.26190185546875" stroke-width="0.0" fill="rgb(108, 68, 44)" opacity="1.0"/>
    <path d="M 274.8473815917969 239.0172576904297 C 147.43893432617188 322.7901611328125 292.8492736816406 563.6044311523438 146.60646057128906 436.49700927734375 C 147.4497528076172 108.15886688232422 153.51318359375 113.16850280761719 126.82738494873047 128.43170166015625 C 88.38816833496094 154.8863983154297 95.20879364013672 152.56842041015625 147.3984375 101.85145568847656 C 251.90223693847656 136.01719665527344 314.66827392578125 79.88529205322266 274.8473815917969 239.0172576904297" stroke-width="0.0" fill="rgb(38, 23, 20)" opacity="0.9875535"/>
    <path d="M 331.4742431640625 533.2835083007812 C 321.2397155761719 553.1663208007812 315.5350341796875 563.7972412109375 280.50872802734375 593.783935546875 C 227.7462615966797 629.5916748046875 155.89585876464844 679.1914672851562 58.72440719604492 516.2601928710938 C 158.04498291015625 460.8176574707031 230.9627227783203 550.5830688476562 301.5054626464844 452.5528564453125 C 341.03240966796875 493.2308044433594 340.4378662109375 510.64752197265625 331.4742431640625 533.2835083007812" stroke-width="0.0" fill="rgb(107, 67, 44)" opacity="1.0"/>
    <path d="M 394.2042236328125 540.7999267578125 C 391.7475280761719 551.8748779296875 387.134765625 564.0076293945312 373.1658020019531 576.0254516601562 C 358.4931640625 565.9468383789062 354.4547119140625 554.2601318359375 353.67169189453125 541.45068359375 C 356.581298828125 530.8521728515625 363.7304382324219 523.2465209960938 374.67327880859375 518.5194702148438 C 385.42254638671875 521.7633056640625 392.1752014160156 529.8988647460938 394.2042236328125 540.7999267578125" stroke-width="0.0" fill="rgb(109, 67, 45)" opacity="0.97396237"/>
    <path d="M 373.8304748535156 542.4356689453125 C 372.5141906738281 554.8388061523438 366.66851806640625 563.9254150390625 355.8987121582031 565.7953491210938 C 343.0 559.3204956054688 335.67950439453125 552.0 333.0019836425781 542.0015869140625 C 335.68450927734375 532.0044555664062 343.00421142578125 524.68310546875 353.0056457519531 521.9990844726562 C 363.06793212890625 524.6473388671875 370.6078186035156 531.8563842773438 373.8304748535156 542.4356689453125" stroke-width="0.0" fill="rgb(106, 68, 43)" opacity="0.9995477"/>
    <path d="M 474.33172607421875 458.80950927734375 C 408.6870422363281 540.7708129882812 386.2708435058594 536.55029296875 370.20904541015625 533.5812377929688 C 359.0011901855469 531.3164672851562 351.6805725097656 523.9998168945312 348.165283203125 513.384521484375 C 346.4845886230469 493.1532287597656 331.5805969238281 457.06561279296875 405.08197021484375 431.624755859375 C 446.09820556640625 430.5799865722656 464.7370910644531 430.2596130371094 474.33172607421875 458.80950927734375" stroke-width="0.0" fill="rgb(82, 36, 50)" opacity="0.8142398"/>
    <path d="M 371.2276306152344 539.85888671875 C 368.3216857910156 550.0014038085938 361.0018005371094 557.3226928710938 351.00091552734375 560.0010986328125 C 341.0 557.3204956054688 333.67950439453125 550.0 330.9998474121094 539.998291015625 C 333.6816101074219 529.9998779296875 341.0007019042969 522.6791381835938 351.028564453125 519.9801025390625 C 361.13824462890625 522.5825805664062 368.593017578125 529.8118896484375 371.2276306152344 539.85888671875" stroke-width="0.0" fill="rgb(108, 69, 44)" opacity="1.0"/>
    <path d="M 357.98333740234375 540.9974365234375 C 355.32049560546875 551.0 348.0 558.3204956054688 337.97821044921875 561.0117797851562 C 327.79132080078125 558.4364624023438 320.046875 551.3653564453125 311.1105651855469 534.86962890625 C 308.4502258300781 518.17578125 313.3615417480469 506.6936950683594 327.7383728027344 498.78436279296875 C 348.7882385253906 522.8544921875 355.42022705078125 530.8978271484375 357.98333740234375 540.9974365234375" stroke-width="0.0" fill="rgb(107, 68, 45)" opacity="0.9957419"/>
    <path d="M 438.4278564453125 525.9539184570312 C 414.7897644042969 561.868896484375 407.6725158691406 572.1548461914062 380.75665283203125 587.6438598632812 C 367.1609191894531 578.4794921875 365.8846130371094 563.7326049804688 367.94805908203125 546.354736328125 C 370.98712158203125 533.3326416015625 376.2971496582031 522.1603393554688 423.9170837402344 480.9891662597656 C 442.8840026855469 484.8155517578125 445.5704345703125 499.919677734375 438.4278564453125 525.9539184570312" stroke-width="0.0" fill="rgb(107, 68, 45)" opacity="1.0"/>
    <path d="M 632.210693359375 567.0577392578125 C 575.9404907226562 650.9956665039062 526.576171875 625.5274047851562 479.31536865234375 597.1714477539062 C 443.0 563.3204956054688 435.67950439453125 556.0 420.2248229980469 539.0740356445312 C 421.9981689453125 517.0534057617188 449.26953125 517.3462524414062 479.5041809082031 329.58203125 C 609.6761474609375 357.0025634765625 615.6160278320312 401.4087219238281 632.210693359375 567.0577392578125" stroke-width="0.0" fill="rgb(107, 67, 46)" opacity="0.9816241"/>
    <path d="M 468.6463623046875 550.6790161132812 C 467.3316345214844 562.2575073242188 460.5440368652344 570.2122192382812 449.38958740234375 571.634765625 C 437.9774475097656 567.327880859375 430.153564453125 560.1845092773438 407.8081970214844 532.6632690429688 C 408.5765075683594 516.455810546875 416.7226867675781 506.702392578125 433.8394775390625 509.1453552246094 C 458.0063171386719 532.670654296875 465.32647705078125 539.9951171875 468.6463623046875 550.6790161132812" stroke-width="0.0" fill="rgb(107, 69, 45)" opacity="0.9997712"/>
    <path d="M 348.01910400390625 565.0392456054688 C 345.81268310546875 575.9746704101562 342.6011962890625 590.2599487304688 310.4313049316406 616.394775390625 C 285.9281005859375 614.7574462890625 260.66552734375 623.777099609375 202.51475524902344 599.8297119140625 C 301.56414794921875 546.139892578125 316.0246887207031 545.8226318359375 327.2672424316406 544.023193359375 C 338.0 547.6795043945312 345.32049560546875 555.0 348.01910400390625 565.0392456054688" stroke-width="0.0" fill="rgb(109, 69, 45)" opacity="1.0"/>
    <path d="M 518.42236328125 600.9243774414062 C 496.3272705078125 615.4140625 477.70562744140625 615.7348022460938 452.4494934082031 615.8701782226562 C 421.54132080078125 597.0092163085938 419.5685729980469 581.1356811523438 417.9374084472656 569.123779296875 C 420.67950439453125 559.0 428.00018310546875 551.6798706054688 439.11376953125 546.71240234375 C 447.3922424316406 553.701904296875 462.1314392089844 554.828857421875 518.42236328125 600.9243774414062" stroke-width="0.0" fill="rgb(109, 69, 44)" opacity="0.99777174"/>
    <path d="M 441.04254150390625 568.8916015625 C 438.32049560546875 579.0 431.0 586.3204956054688 421.0 589.0 C 411.0 586.3204956054688 403.67950439453125 579.0 393.8748779296875 564.0321044921875 C 396.92022705078125 552.6618041992188 403.7569274902344 542.5980224609375 418.87396240234375 531.771240234375 C 434.7156677246094 545.1071166992188 439.057373046875 557.5403442382812 441.04254150390625 568.8916015625" stroke-width="0.0" fill="rgb(107, 69, 45)" opacity="0.9812457"/>
    <path d="M 397.9434814453125 587.1050415039062 C 392.6113586425781 608.6675415039062 381.1873779296875 614.214599609375 351.5394592285156 615.5905151367188 C 322.0162353515625 611.98046875 314.6230773925781 603.4296264648438 318.543212890625 586.0722045898438 C 332.6825256347656 566.002197265625 340.0 558.6795043945312 353.5345458984375 552.5214233398438 C 368.982666015625 550.8499755859375 381.9599914550781 554.758544921875 397.9434814453125 587.1050415039062" stroke-width="0.0" fill="rgb(109, 69, 45)" opacity="0.9988448"/>
    <path d="M 442.2593688964844 581.3161010742188 C 447.03466796875 599.322265625 442.3276062011719 610.047607421875 416.3359069824219 615.238525390625 C 386.423095703125 614.0926513671875 374.76300048828125 608.799072265625 369.13360595703125 591.0382690429688 C 387.76214599609375 557.92724609375 402.11627197265625 555.4434204101562 416.2283630371094 555.4876098632812 C 427.0 558.6793823242188 434.3146667480469 566.0 442.2593688964844 581.3161010742188" stroke-width="0.0" fill="rgb(109, 71, 45)" opacity="0.9967487"/>
    <path d="M 456.4681701660156 301.854736328125 C 454.8909606933594 470.7254638671875 480.4252014160156 484.1698913574219 390.0094909667969 492.94305419921875 C 270.4085693359375 491.0867919921875 227.84402465820312 510.2059326171875 248.06690979003906 382.0064697265625 C 357.0159912109375 370.7393493652344 420.3634033203125 434.8424377441406 350.3682556152344 144.83351135253906 C 471.24761962890625 153.8966827392578 454.3871765136719 204.90802001953125 456.4681701660156 301.854736328125" stroke-width="0.0" fill="rgb(37, 21, 19)" opacity="1.0"/>
    <path d="M 372.72100830078125 501.6505432128906 C 367.1607971191406 520.890625 359.8045349121094 528.0155639648438 346.6258239746094 534.0181274414062 C 323.5087585449219 521.76123046875 351.32806396484375 404.70941162109375 203.36492919921875 462.14691162109375 C 168.6299591064453 315.89862060546875 202.25177001953125 316.22698974609375 277.5741271972656 394.68035888671875 C 403.9263610839844 440.9096374511719 392.9059143066406 465.146240234375 372.72100830078125 501.6505432128906" stroke-width="0.0" fill="rgb(29, 17, 17)" opacity="1.0"/>
    <path d="M 582.6342163085938 70.24172973632812 C 579.8113403320312 82.0602035522461 574.8392944335938 93.46357727050781 555.451416015625 106.00731658935547 C 546.5977783203125 96.64981842041016 543.5916748046875 83.01165771484375 539.2183227539062 70.33767700195312 C 544.313720703125 57.02339172363281 541.1619873046875 38.610599517822266 560.4346313476562 21.331995010375977 C 585.50634765625 36.96885299682617 584.4303588867188 54.31142807006836 582.6342163085938 70.24172973632812" stroke-width="0.0" fill="rgb(105, 64, 40)" opacity="0.98230565"/>
    <path d="M 573.7167358398438 133.53025817871094 C 571.2482299804688 148.97325134277344 579.3965454101562 171.66334533691406 551.16552734375 204.09620666503906 C 509.50579833984375 188.8766632080078 507.1463623046875 170.59677124023438 509.92730712890625 130.85569763183594 C 518.4885864257812 109.07051849365234 527.6190185546875 102.07510375976562 544.7963256835938 96.37530517578125 C 564.1986083984375 109.53287506103516 568.6480102539062 122.26337432861328 573.7167358398438 133.53025817871094" stroke-width="0.0" fill="rgb(101, 116, 75)" opacity="0.9978583"/>
    <path d="M 569.3150024414062 70.71255493164062 C 567.4060668945312 82.94506072998047 564.42626953125 96.44727325439453 560.5902099609375 104.246826171875 C 537.91357421875 89.98017883300781 530.2388305664062 82.73180389404297 491.855712890625 59.28874588012695 C 496.75457763671875 31.903717041015625 501.2621154785156 13.118849754333496 528.5081787109375 4.723512172698975 C 572.1077270507812 34.88385772705078 569.5765991210938 55.6275634765625 569.3150024414062 70.71255493164062" stroke-width="0.0" fill="rgb(107, 69, 44)" opacity="1.0"/>
    <path d="M 566.2015991210938 106.14068603515625 C 561.62744140625 116.80706024169922 551.7533569335938 123.70887756347656 529.73046875 129.82583618164062 C 507.22088623046875 121.70548248291016 499.4505310058594 112.58556365966797 491.10638427734375 99.28034973144531 C 497.6107482910156 72.44188690185547 503.418701171875 61.244224548339844 515.7643432617188 57.39590072631836 C 538.0619506835938 74.51318359375 545.7491455078125 81.8173599243164 566.2015991210938 106.14068603515625" stroke-width="0.0" fill="rgb(107, 69, 45)" opacity="0.9865964"/>
    <path d="M 584.8112182617188 131.75978088378906 C 583.18212890625 147.5235595703125 588.844482421875 166.51715087890625 567.3973388671875 191.603515625 C 543.7195434570312 158.0537567138672 543.7530517578125 142.11585998535156 541.6712036132812 130.5965118408203 C 541.6395874023438 116.57524871826172 542.6919555664062 101.64698791503906 549.2197875976562 94.0175552368164 C 572.4988403320312 112.3941421508789 579.3490600585938 120.91885375976562 584.8112182617188 131.75978088378906" stroke-width="0.0" fill="rgb(111, 72, 47)" opacity="1.0"/>
    <path d="M 615.6566162109375 67.29631042480469 C 607.833251953125 95.21493530273438 595.9388427734375 98.55033111572266 576.66064453125 97.74784851074219 C 563.4437866210938 93.85612487792969 557.4793090820312 84.77819061279297 553.1093139648438 72.24298858642578 C 559.8536376953125 61.20674514770508 558.5808715820312 43.926151275634766 590.7467041015625 24.14410972595215 C 610.4990844726562 29.73544692993164 616.1952514648438 40.22964859008789 615.6566162109375 67.29631042480469" stroke-width="0.0" fill="rgb(107, 69, 45)" opacity="0.998596"/>
    <path d="M 612.2959594726562 102.81066131591797 C 609.510009765625 124.53872680664062 601.1177978515625 130.9571990966797 584.8552856445312 131.29342651367188 C 571.5170288085938 120.83746337890625 557.8853149414062 118.62560272216797 541.713623046875 97.55164337158203 C 551.9656982421875 84.54671478271484 563.9849853515625 80.76709747314453 589.4346923828125 75.29036712646484 C 604.265625 75.02998352050781 611.2872314453125 83.0827865600586 612.2959594726562 102.81066131591797" stroke-width="0.0" fill="rgb(112, 63, 41)" opacity="1.0"/>
    <path d="M 517.3704833984375 113.66101837158203 C 510.3930358886719 128.0909881591797 503.1609191894531 135.5251922607422 492.1065979003906 140.4931182861328 C 482.8215637207031 137.57015991210938 476.0314025878906 124.38069152832031 444.0188293457031 111.55669403076172 C 452.5639953613281 85.66725158691406 466.98175048828125 79.07965850830078 493.182861328125 64.8392105102539 C 513.36767578125 89.11561584472656 518.8765869140625 98.90998077392578 517.3704833984375 113.66101837158203" stroke-width="0.0" fill="rgb(107, 69, 44)" opacity="0.87082046"/>
    <path d="M 287.6679382324219 478.8721923828125 C 255.94818115234375 487.3963928222656 239.9952392578125 505.35504150390625 201.83828735351562 508.78912353515625 C 168.1041259765625 515.5682983398438 103.77294158935547 484.438720703125 152.46109008789062 497.110107421875 C 197.89537048339844 436.9386901855469 165.3363494873047 480.78289794921875 225.50860595703125 454.51812744140625 C 254.53428649902344 440.6418762207031 236.65101623535156 465.0853271484375 287.6679382324219 478.8721923828125" stroke-width="0.0" fill="rgb(248, 180, 1)" opacity="1.0"/>
    <path d="M 616.8316650390625 228.45449829101562 C 612.1111450195312 243.13856506347656 615.3247680664062 261.44903564453125 590.7409057617188 294.3538818359375 C 557.2880249023438 276.4278259277344 549.934814453125 264.19354248046875 540.2740478515625 231.94113159179688 C 536.877197265625 182.36790466308594 544.6695556640625 169.68907165527344 589.2943725585938 158.41433715820312 C 623.1173095703125 187.02749633789062 615.5604248046875 212.4516143798828 616.8316650390625 228.45449829101562" stroke-width="0.0" fill="rgb(107, 69, 46)" opacity="0.9990192"/>
    <path d="M 539.89697265625 127.70166015625 C 537.2311401367188 154.06903076171875 533.3932495117188 169.37985229492188 516.1172485351562 187.515625 C 500.5845947265625 139.97665405273438 478.4554138183594 137.04776000976562 474.7729797363281 126.83379364013672 C 483.615478515625 114.9566421508789 490.9892272949219 107.67076110839844 507.31536865234375 97.9259033203125 C 521.339599609375 97.80702209472656 532.103271484375 103.54043579101562 539.89697265625 127.70166015625" stroke-width="0.0" fill="rgb(112, 68, 43)" opacity="0.94698447"/>
    <path d="M 522.5013427734375 207.50140380859375 C 415.8758850097656 310.3447570800781 498.4262390136719 144.9777069091797 386.4234619140625 155.86245727539062 C 342.0143127441406 178.24102783203125 375.895751953125 165.33453369140625 313.3485107421875 140.90692138671875 C 348.9510803222656 118.59201049804688 377.1636962890625 98.1661148071289 419.2957458496094 102.97401428222656 C 427.0267639160156 102.3954086303711 505.6780700683594 118.60595703125 522.5013427734375 207.50140380859375" stroke-width="0.0" fill="rgb(249, 170, 5)" opacity="1.0"/>
    <path d="M 609.2177124023438 13.56155776977539 C 614.5183715820312 33.66351318359375 612.3680419921875 47.79192352294922 579.3619995117188 56.5787467956543 C 547.4530029296875 51.245269775390625 533.9932250976562 45.00176239013672 513.9810791015625 6.717289447784424 C 556.7361450195312 -11.289407730102539 572.1318969726562 -11.089156150817871 582.970703125 -13.027253150939941 C 593.0 -10.320507049560547 600.3204956054688 -3.0 609.2177124023438 13.56155776977539" stroke-width="0.0" fill="rgb(107, 68, 44)" opacity="0.98817325"/>
    <path d="M 614.1025390625 137.813232421875 C 614.8365478515625 160.94329833984375 613.830810546875 178.79806518554688 581.80419921875 190.64349365234375 C 559.423828125 152.13247680664062 558.0621948242188 137.77813720703125 555.9814453125 127.02780151367188 C 558.6832885742188 117.004150390625 566.0042724609375 109.6845932006836 576.3438110351562 106.82898712158203 C 589.70263671875 107.67739868164062 603.94921875 110.07376861572266 614.1025390625 137.813232421875" stroke-width="0.0" fill="rgb(109, 70, 46)" opacity="1.0"/>
    <path d="M 579.1968383789062 232.06532287597656 C 563.2986450195312 264.1843566894531 553.5264892578125 273.55389404296875 512.1961059570312 285.0828857421875 C 518.9979858398438 270.66845703125 526.307373046875 256.32684326171875 525.2239990234375 230.41009521484375 C 524.4383544921875 238.62413024902344 528.9799194335938 214.2498016357422 511.0708312988281 170.4130401611328 C 573.595703125 183.047607421875 576.46484375 201.24266052246094 579.1968383789062 232.06532287597656" stroke-width="0.0" fill="rgb(109, 67, 44)" opacity="0.95861465"/>
    <path d="M 100.45407104492188 367.9651184082031 C 98.62451171875 377.09112548828125 108.71231079101562 394.1164855957031 96.55342102050781 459.5208435058594 C 64.8844985961914 407.1003112792969 76.39179992675781 360.953125 72.24551391601562 367.08526611328125 C 76.2905044555664 370.5189208984375 66.51716613769531 341.85498046875 89.02661895751953 293.29412841796875 C 100.72184753417969 341.7733459472656 98.0254135131836 358.47265625 100.45407104492188 367.9651184082031" stroke-width="0.0" fill="rgb(254, 134, 13)" opacity="0.9755761"/>
    <path d="M 302.353515625 300.9034118652344 C 293.26885986328125 318.3431701660156 275.8420715332031 317.0811462402344 256.3207092285156 317.8298034667969 C 237.37181091308594 322.3357238769531 223.73941040039062 322.4161682128906 227.34237670898438 309.4613342285156 C 235.83351135253906 283.822021484375 251.1787567138672 277.2580261230469 266.2638244628906 259.6224365234375 C 270.564453125 274.7892150878906 286.4852600097656 275.1308898925781 302.353515625 300.9034118652344" stroke-width="0.0" fill="rgb(84, 16, 7)" opacity="0.89239013"/>
    <path d="M 319.1890563964844 266.33807373046875 C 317.9061279296875 277.7558898925781 312.5867614746094 288.6214904785156 283.0719299316406 306.8625793457031 C 275.41253662109375 299.7774658203125 273.9478759765625 284.404052734375 256.080078125 275.00390625 C 287.407958984375 249.2306671142578 312.9792785644531 247.82403564453125 294.4895324707031 182.4168701171875 C 338.0603942871094 217.3401641845703 317.8399353027344 251.24102783203125 319.1890563964844 266.33807373046875" stroke-width="0.0" fill="rgb(218, 99, 16)" opacity="0.8433427"/>
    <path d="M 333.9629821777344 336.12957763671875 C 334.34228515625 358.621826171875 335.93450927734375 365.5267028808594 303.34130859375 364.5003356933594 C 305.0688171386719 357.8204650878906 299.62860107421875 338.4597473144531 300.38458251953125 328.64794921875 C 300.30462646484375 334.0003356933594 299.5334777832031 313.51324462890625 302.9217224121094 301.1658630371094 C 328.3091125488281 309.1473083496094 333.0706787109375 319.8822937011719 333.9629821777344 336.12957763671875" stroke-width="0.0" fill="rgb(254, 107, 19)" opacity="1.0"/>
    <path d="M 287.8900451660156 359.1505126953125 C 293.5777893066406 368.32501220703125 292.7291564941406 362.7037353515625 249.29586791992188 365.1046142578125 C 242.373046875 373.35009765625 238.46505737304688 359.798095703125 216.83006286621094 331.71539306640625 C 227.36305236816406 320.8211975097656 242.3756103515625 319.6188659667969 269.983154296875 319.432373046875 C 297.5691833496094 311.9318542480469 281.4690856933594 309.2576599121094 287.8900451660156 359.1505126953125" stroke-width="0.0" fill="rgb(254, 112, 16)" opacity="0.9969956"/>
    <path d="M 128.9124755859375 266.5959167480469 C 120.82915496826172 281.9145812988281 111.33003997802734 286.12567138671875 94.42747497558594 300.0997009277344 C 83.98668670654297 307.84979248046875 71.8230209350586 334.6593322753906 90.44438171386719 290.7729797363281 C 99.90995788574219 279.37799072265625 111.02173614501953 280.6072998046875 139.88856506347656 226.073486328125 C 144.64984130859375 211.8500518798828 139.77178955078125 252.59364318847656 128.9124755859375 266.5959167480469" stroke-width="0.0" fill="rgb(248, 246, 234)" opacity="0.9903718"/>
    <path d="M 342.2870788574219 255.61270141601562 C 342.6329345703125 276.3554382324219 336.48602294921875 283.52813720703125 322.9339904785156 278.78863525390625 C 310.0754089355469 274.354248046875 302.8641357421875 266.9783020019531 311.69805908203125 255.39434814453125 C 313.5838928222656 243.17083740234375 313.010009765625 234.0865020751953 306.70159912109375 189.7695770263672 C 340.5715637207031 230.44720458984375 339.8901672363281 235.5524139404297 342.2870788574219 255.61270141601562" stroke-width="0.0" fill="rgb(248, 224, 0)" opacity="0.9996113"/>
    <path d="M 277.6011657714844 364.4082946777344 C 295.4642333984375 377.4154357910156 256.7733459472656 386.7138977050781 240.2596893310547 375.887451171875 C 226.55691528320312 367.0854187011719 223.47201538085938 356.8161315917969 219.6497344970703 349.0015563964844 C 215.73013305664062 329.34490966796875 205.72061157226562 296.0894470214844 264.0766906738281 249.44638061523438 C 221.8038787841797 351.94183349609375 222.90029907226562 367.015625 277.6011657714844 364.4082946777344" stroke-width="0.0" fill="rgb(254, 236, 0)" opacity="0.96514916"/>
    <path d="M 370.3275146484375 290.5426330566406 C 374.6817932128906 354.8914794921875 348.7764587402344 365.3135070800781 342.5280456542969 364.4385070800781 C 300.9131164550781 364.259521484375 306.45953369140625 368.4700012207031 312.7198486328125 341.60888671875 C 314.21722412109375 326.122802734375 320.7045593261719 317.728271484375 329.85113525390625 310.6943359375 C 343.30419921875 305.9383850097656 360.07989501953125 294.3123474121094 370.3275146484375 290.5426330566406" stroke-width="0.0" fill="rgb(254, 110, 16)" opacity="0.9674473"/>
    <path d="M 429.0513000488281 486.5465087890625 C 384.4124755859375 535.5440063476562 367.7625427246094 536.6092529296875 345.21405029296875 541.628173828125 C 334.9148864746094 536.3927001953125 329.4869689941406 526.346435546875 270.9717712402344 486.2876892089844 C 280.1776123046875 486.5312194824219 306.1870422363281 486.7115478515625 345.50079345703125 486.42218017578125 C 382.2501525878906 486.5545959472656 401.2290344238281 486.5458984375 429.0513000488281 486.5465087890625" stroke-width="0.0" fill="rgb(106, 68, 45)" opacity="0.9167349"/>
    <path d="M 308.26165771484375 265.65625 C 301.46514892578125 277.9204406738281 301.96783447265625 293.5610656738281 291.4498596191406 297.5653381347656 C 239.47186279296875 264.4964294433594 239.3015899658203 289.3539733886719 274.0654296875 227.26446533203125 C 279.906005859375 278.8529968261719 229.05325317382812 264.9457702636719 280.1833190917969 285.2680358886719 C 293.72845458984375 254.15875244140625 301.5785217285156 257.0830078125 308.26165771484375 265.65625" stroke-width="0.0" fill="rgb(255, 234, 0)" opacity="0.9391036"/>
    <path d="M 305.4196472167969 301.73248291015625 C 283.33856201171875 326.895263671875 270.93475341796875 334.0395812988281 261.2717590332031 340.04913330078125 C 243.2113037109375 342.4273681640625 228.97811889648438 342.22064208984375 228.34800720214844 319.8713073730469 C 232.1180419921875 287.0456237792969 244.4955291748047 283.6729431152344 263.84454345703125 284.54632568359375 C 286.4832763671875 287.3276672363281 299.360595703125 289.6833801269531 305.4196472167969 301.73248291015625" stroke-width="0.0" fill="rgb(255, 109, 17)" opacity="0.9943753"/>
    <path d="M 336.4178466796875 229.88287353515625 C 338.4608154296875 246.07614135742188 337.255615234375 247.55064392089844 308.6262512207031 254.04457092285156 C 315.945068359375 252.07437133789062 336.27960205078125 237.52273559570312 301.0472106933594 198.4849395751953 C 296.27679443359375 193.0503692626953 293.4150695800781 187.86520385742188 291.46820068359375 172.6169891357422 C 319.334228515625 203.03253173828125 326.34588623046875 208.3239288330078 336.4178466796875 229.88287353515625" stroke-width="0.0" fill="rgb(255, 237, 0)" opacity="0.84876484"/>
    <path d="M 344.42535400390625 320.07489013671875 C 343.9019775390625 327.1529846191406 343.77947998046875 324.80865478515625 336.9454040527344 324.577392578125 C 335.7189025878906 329.9726257324219 331.5373840332031 326.3561096191406 338.2219543457031 326.4356689453125 C 332.1373596191406 308.90264892578125 332.5176086425781 303.8360900878906 334.36724853515625 268.47259521484375 C 367.50787353515625 246.5835723876953 394.2834777832031 285.043212890625 344.42535400390625 320.07489013671875" stroke-width="0.0" fill="rgb(30, 14, 15)" opacity="0.97898924"/>
    <path d="M 336.3834533691406 301.2934265136719 C 362.405517578125 332.4279479980469 351.677978515625 326.050048828125 303.3765869140625 302.3355407714844 C 295.3736267089844 345.67822265625 278.4696044921875 332.9522705078125 292.62652587890625 299.50946044921875 C 285.9299621582031 272.8610534667969 300.0433349609375 272.63922119140625 323.2314453125 271.4742431640625 C 348.53558349609375 259.1402282714844 342.46612548828125 257.7915954589844 336.3834533691406 301.2934265136719" stroke-width="0.0" fill="rgb(255, 238, 0)" opacity="0.96329373"/>
    <path d="M 342.30426025390625 271.4237060546875 C 338.8764343261719 292.8447265625 337.30584716796875 290.64984130859375 332.2010803222656 274.44146728515625 C 309.74365234375 293.281982421875 302.08251953125 286.7015380859375 300.1623229980469 275.95294189453125 C 303.7452697753906 265.07586669921875 311.161865234375 257.98974609375 321.40234375 249.60740661621094 C 339.8717956542969 244.1460723876953 343.23443603515625 245.97059631347656 342.30426025390625 271.4237060546875" stroke-width="0.0" fill="rgb(255, 238, 0)" opacity="0.6361929"/>
    <path d="M 119.22875213623047 264.648681640625 C 111.56188201904297 270.1152038574219 106.49525451660156 278.8746643066406 94.97897338867188 287.2633361816406 C 74.4892578125 316.8214416503906 64.27505493164062 327.6327209472656 20.028310775756836 266.55389404296875 C 78.61929321289062 240.85287475585938 92.0562744140625 242.26719665527344 122.13280487060547 229.5710906982422 C 143.2462921142578 228.51712036132812 133.54331970214844 237.9447021484375 119.22875213623047 264.648681640625" stroke-width="0.0" fill="rgb(107, 70, 45)" opacity="0.76480836"/>
    <path d="M 350.9972229003906 311.5552062988281 C 373.68414306640625 310.23272705078125 360.3824462890625 338.84521484375 343.9161682128906 355.0810852050781 C 317.1056213378906 320.9552307128906 310.9344787597656 312.2370300292969 303.8106994628906 302.4659729003906 C 308.02850341796875 289.4006042480469 314.73956298828125 281.3443908691406 328.5967102050781 286.2317810058594 C 344.3314208984375 293.4773254394531 329.8902587890625 302.056640625 350.9972229003906 311.5552062988281" stroke-width="0.0" fill="rgb(253, 106, 22)" opacity="0.95689136"/>
    <path d="M 321.6661071777344 250.28726196289062 C 317.5056457519531 266.3736877441406 305.3481140136719 274.3272399902344 298.0021667480469 288.90960693359375 C 291.99591064453125 277.01788330078125 286.89495849609375 270.9764404296875 277.5858154296875 262.1051330566406 C 283.7500915527344 250.700439453125 310.0450744628906 248.15731811523438 298.748291015625 196.2769775390625 C 315.8380126953125 213.4481658935547 328.0100402832031 235.0585479736328 321.6661071777344 250.28726196289062" stroke-width="0.0" fill="rgb(254, 115, 19)" opacity="0.97800684"/>
    <path d="M 331.6620178222656 269.6315002441406 C 333.23052978515625 273.9405212402344 333.459716796875 285.97021484375 329.279296875 293.706298828125 C 320.31219482421875 295.2200927734375 310.0113830566406 287.5702819824219 316.3575439453125 283.10986328125 C 319.3189697265625 275.0179748535156 325.9051208496094 268.7351379394531 329.950927734375 260.6518859863281 C 333.2058410644531 270.6302185058594 332.00018310546875 282.48406982421875 331.6620178222656 269.6315002441406" stroke-width="0.0" fill="rgb(248, 117, 8)" opacity="0.94154453"/>
    <path d="M 295.9895935058594 293.35614013671875 C 310.380859375 293.551513671875 302.12152099609375 293.0571594238281 291.323486328125 293.6649475097656 C 284.28460693359375 303.242919921875 276.805908203125 295.89715576171875 274.0827941894531 285.9854431152344 C 276.84857177734375 276.3099365234375 284.5758361816406 269.8926086425781 293.126708984375 269.988037109375 C 298.2457275390625 272.71636962890625 302.16827392578125 284.085205078125 295.9895935058594 293.35614013671875" stroke-width="0.0" fill="rgb(249, 139, 0)" opacity="0.7232164"/>
    <path d="M 269.2421875 281.5949401855469 C 258.67803955078125 292.2434387207031 250.41436767578125 297.8371887207031 245.4061279296875 298.967529296875 C 242.35345458984375 294.7679748535156 237.06411743164062 286.9815673828125 236.44773864746094 293.73382568359375 C 238.79588317871094 289.1880798339844 246.03057861328125 279.3917541503906 251.55450439453125 274.6090087890625 C 250.5603485107422 271.9999084472656 263.2884826660156 272.0423583984375 269.2421875 281.5949401855469" stroke-width="0.0" fill="rgb(254, 109, 17)" opacity="0.88698727"/>
    <path d="M 334.80078125 292.5135192871094 C 332.9412536621094 306.3502502441406 323.3665466308594 312.2402648925781 314.8221130371094 310.46722412109375 C 308.2958679199219 308.41790771484375 308.7041931152344 295.9251403808594 303.1291809082031 292.7416076660156 C 298.31671142578125 288.3424072265625 304.87353515625 294.2470703125 307.13348388671875 296.207763671875 C 324.787841796875 261.2528076171875 334.5267028808594 270.7430114746094 334.80078125 292.5135192871094" stroke-width="0.0" fill="rgb(253, 108, 23)" opacity="0.7894204"/>
    <path d="M 240.97415161132812 325.7115478515625 C 245.33053588867188 332.77606201171875 239.00205993652344 340.9092712402344 230.6580047607422 343.7583923339844 C 227.10841369628906 331.2615051269531 226.55320739746094 319.13232421875 230.64988708496094 329.7856750488281 C 229.8477325439453 330.1604309082031 235.75613403320312 322.4220886230469 240.09039306640625 320.66339111328125 C 237.8471221923828 309.1656799316406 239.26248168945312 316.5710144042969 240.97415161132812 325.7115478515625" stroke-width="0.0" fill="rgb(254, 136, 0)" opacity="0.5746863"/>
    <path d="M 457.94366455078125 475.68292236328125 C 460.0099182128906 484.12506103515625 456.476806640625 491.4527893066406 454.540771484375 490.3641662597656 C 452.37298583984375 492.757080078125 442.6956787109375 490.1871032714844 425.62481689453125 490.01959228515625 C 440.95599365234375 475.3728332519531 446.66668701171875 467.4971008300781 457.7273254394531 461.75811767578125 C 458.4807434082031 466.5728454589844 458.6405944824219 475.41241455078125 457.94366455078125 475.68292236328125" stroke-width="0.0" fill="rgb(93, 60, 42)" opacity="0.70548224"/>
    <path d="M 501.9495849609375 151.7244415283203 C 507.0781555175781 161.10829162597656 508.9227600097656 163.8192596435547 507.5094299316406 152.79823303222656 C 506.1668701171875 147.94189453125 501.4169921875 140.3638458251953 498.8574523925781 139.55026245117188 C 494.8333435058594 150.42669677734375 498.8822937011719 139.85455322265625 496.8885192871094 144.44183349609375 C 498.5638122558594 142.1959686279297 503.0501708984375 147.58828735351562 501.9495849609375 151.7244415283203" stroke-width="0.0" fill="rgb(109, 68, 46)" opacity="0.62756664"/>
    <path d="M 459.36383056640625 410.65948486328125 C 461.6298522949219 400.40020751953125 452.0566711425781 417.4526062011719 465.5133361816406 413.1343078613281 C 460.4296875 419.77105712890625 457.25030517578125 399.7200012207031 458.8086242675781 434.6855773925781 C 460.171875 423.7356872558594 464.95245361328125 427.54620361328125 463.066650390625 402.29052734375 C 456.2511901855469 415.33978271484375 458.167236328125 424.13934326171875 459.36383056640625 410.65948486328125" stroke-width="0.0" fill="rgb(223, 97, 84)" opacity="0.72727346"/>
    <path d="M 456.9569091796875 472.48016357421875 C 457.19244384765625 480.4226989746094 457.357666015625 489.65826416015625 456.82489013671875 486.6904296875 C 433.6228942871094 485.56103515625 421.818359375 489.2431945800781 435.068359375 481.91748046875 C 436.2641296386719 463.8995361328125 437.6797790527344 451.8977355957031 452.4378967285156 436.2020263671875 C 460.8742370605469 451.3269348144531 456.1761474609375 465.499755859375 456.9569091796875 472.48016357421875" stroke-width="0.0" fill="rgb(27, 14, 16)" opacity="0.76449364"/>
    <path d="M 245.2190704345703 343.23492431640625 C 241.8302459716797 350.2382507324219 239.05934143066406 356.24285888671875 244.48133850097656 345.368408203125 C 239.72364807128906 345.999755859375 233.17674255371094 339.4461364746094 233.49734497070312 333.8644714355469 C 228.95904541015625 344.193115234375 230.064697265625 332.2601318359375 232.03477478027344 325.4214172363281 C 241.6476287841797 329.3709716796875 247.15028381347656 337.1043395996094 245.2190704345703 343.23492431640625" stroke-width="0.0" fill="rgb(254, 126, 45)" opacity="0.82444614"/>
    <path d="M 457.4205627441406 480.2298278808594 C 459.88897705078125 477.1763916015625 456.019287109375 481.972900390625 453.8753356933594 486.3549499511719 C 439.9061584472656 487.5058288574219 428.74346923828125 483.8320007324219 418.1289367675781 467.2403869628906 C 433.01019287109375 453.66796875 442.4504699707031 448.64373779296875 449.4809875488281 456.0960388183594 C 459.5524597167969 457.3519287109375 457.09332275390625 466.38250732421875 457.4205627441406 480.2298278808594" stroke-width="0.0" fill="rgb(28, 15, 17)" opacity="0.6432762"/>
    <path d="M 244.60818481445312 336.9041748046875 C 249.29498291015625 346.1366271972656 244.27691650390625 355.1851501464844 236.6675567626953 353.7680969238281 C 231.80029296875 349.18310546875 229.7213592529297 337.547607421875 228.7794952392578 326.1734924316406 C 228.3041534423828 326.7756652832031 227.7134552001953 319.5251770019531 231.353271484375 316.1891784667969 C 241.8339385986328 319.7460021972656 245.9493408203125 328.1850280761719 244.60818481445312 336.9041748046875" stroke-width="0.0" fill="rgb(254, 106, 14)" opacity="0.9255752"/>
    <path d="M 296.7099304199219 289.52978515625 C 296.31976318359375 289.0821533203125 293.8641662597656 301.387939453125 286.0657043457031 306.46539306640625 C 278.5540771484375 308.6476135253906 269.25738525390625 303.1857604980469 249.27462768554688 281.19012451171875 C 253.3752899169922 262.3747863769531 269.17596435546875 271.1275939941406 288.0436706542969 254.3708953857422 C 301.1897277832031 271.97308349609375 301.6501770019531 282.15362548828125 296.7099304199219 289.52978515625" stroke-width="0.0" fill="rgb(254, 107, 19)" opacity="0.9240657"/>
    <path d="M 307.6283264160156 293.70654296875 C 305.92913818359375 302.78912353515625 298.0132751464844 294.5403137207031 283.63250732421875 283.2818298339844 C 284.3417663574219 305.25506591796875 284.15936279296875 299.0267028808594 283.74395751953125 292.48077392578125 C 276.5532531738281 284.8067626953125 281.0003967285156 280.30731201171875 292.6087646484375 290.4430847167969 C 295.6480407714844 294.5400695800781 305.4983215332031 287.948974609375 307.6283264160156 293.70654296875" stroke-width="0.0" fill="rgb(255, 249, 0)" opacity="0.3817998"/>
    <path d="M 451.68634033203125 477.1729736328125 C 449.009033203125 483.2576599121094 441.298828125 488.06072998046875 441.4706726074219 484.1397705078125 C 441.0025329589844 487.25787353515625 432.7859802246094 482.85540771484375 430.4952697753906 478.4309997558594 C 427.98980712890625 475.6421203613281 434.5823974609375 469.3040466308594 441.5733947753906 471.25360107421875 C 448.3106689453125 469.18792724609375 455.4073181152344 474.7475891113281 451.68634033203125 477.1729736328125" stroke-width="0.0" fill="rgb(35, 22, 21)" opacity="0.5478038"/>
    <path d="M 614.3031005859375 247.5706024169922 C 611.6235961914062 257.570556640625 604.302734375 264.8886413574219 594.3318481445312 267.38629150390625 C 584.3306274414062 264.8270263671875 576.9881591796875 257.5625915527344 574.0621337890625 247.4913787841797 C 576.8801879882812 237.50628662109375 584.2623291015625 230.21572875976562 594.2184448242188 227.76846313476562 C 604.2885131835938 230.30706787109375 611.6235961914062 237.5757598876953 614.3031005859375 247.5706024169922" stroke-width="0.0" fill="rgb(107, 69, 46)" opacity="0.9926877"/>
    <path d="M 515.1924438476562 253.69482421875 C 515.4895629882812 251.25338745117188 510.636474609375 260.0070495605469 505.4267578125 264.62872314453125 C 505.3551025390625 273.0687561035156 501.1006774902344 265.70965576171875 498.80987548828125 257.37359619140625 C 499.8722839355469 249.118896484375 506.6993408203125 242.10853576660156 510.50177001953125 244.29307556152344 C 513.449951171875 250.617919921875 518.1930541992188 260.2546081542969 515.1924438476562 253.69482421875" stroke-width="0.0" fill="rgb(252, 136, 12)" opacity="0.74124134"/>
    <path d="M 320.0297546386719 497.82110595703125 C 319.78631591796875 505.22833251953125 312.4124450683594 512.1329956054688 302.9197998046875 513.7219848632812 C 293.6452331542969 512.5746459960938 286.3655090332031 505.43438720703125 284.796630859375 497.0842590332031 C 290.734619140625 491.4134521484375 300.260986328125 487.697021484375 302.3833923339844 491.5066223144531 C 305.8910217285156 488.48486328125 315.1694641113281 492.0643615722656 320.0297546386719 497.82110595703125" stroke-width="0.0" fill="rgb(104, 67, 45)" opacity="0.7629004"/>
    <path d="M 563.1282958984375 54.7353515625 C 560.4501342773438 64.69889068603516 553.1672973632812 72.01455688476562 543.2337646484375 74.60005187988281 C 533.3029174804688 71.99605560302734 525.9978637695312 64.69401550292969 523.3897705078125 54.760963439941406 C 525.9893188476562 44.85077667236328 533.30908203125 37.55881881713867 543.1734008789062 35.000484466552734 C 553.107666015625 37.62532424926758 560.485107421875 44.85501480102539 563.1282958984375 54.7353515625" stroke-width="0.0" fill="rgb(107, 69, 44)" opacity="0.90067345"/>
    <path d="M 403.8780822753906 272.6969909667969 C 402.73394775390625 284.29351806640625 394.78662109375 294.1067199707031 377.9937744140625 294.67352294921875 C 374.2249450683594 278.97503662109375 374.1356506347656 265.1679992675781 343.7198486328125 262.8558044433594 C 339.3902282714844 242.31500244140625 357.50445556640625 241.40988159179688 374.9250183105469 249.007080078125 C 388.161376953125 253.4644012451172 395.662841796875 259.86578369140625 403.8780822753906 272.6969909667969" stroke-width="0.0" fill="rgb(31, 18, 20)" opacity="0.874115"/>
    <path d="M 495.59271240234375 473.5343322753906 C 492.2540283203125 483.7742919921875 485.037109375 491.3170471191406 474.6952209472656 495.1836853027344 C 463.71453857421875 492.2319030761719 456.6336669921875 485.0121765136719 459.1141052246094 474.67010498046875 C 456.4737243652344 462.9323425292969 462.5097961425781 454.060791015625 473.275146484375 451.1052551269531 C 485.1717224121094 456.2604675292969 492.7037353515625 463.46673583984375 495.59271240234375 473.5343322753906" stroke-width="0.0" fill="rgb(109, 69, 45)" opacity="1.0"/>
    <path d="M 284.8070983886719 532.5764770507812 C 282.1497497558594 542.5458374023438 274.8246765136719 549.8245239257812 264.8661193847656 552.59326171875 C 254.8521270751953 549.9632568359375 247.40443420410156 542.7346801757812 244.59837341308594 532.6270751953125 C 247.3023681640625 522.3345947265625 254.58741760253906 514.8732299804688 264.7784423828125 511.8734130859375 C 274.9576110839844 515.2051391601562 282.2528991699219 522.6087036132812 284.8070983886719 532.5764770507812" stroke-width="0.0" fill="rgb(106, 68, 44)" opacity="0.98298466"/>
    <path d="M 392.02532958984375 60.64113235473633 C 388.9918212890625 71.45484161376953 381.8765563964844 79.2305908203125 371.4419250488281 81.873046875 C 360.3160400390625 78.65324401855469 352.6746520996094 71.39411926269531 348.3120422363281 60.51853561401367 C 352.3333740234375 49.67892837524414 360.0393371582031 42.3336067199707 370.972900390625 38.64167404174805 C 381.43389892578125 42.73414611816406 388.8505859375 50.182247161865234 392.02532958984375 60.64113235473633" stroke-width="0.0" fill="rgb(107, 68, 44)" opacity="0.9254464"/>
    <path d="M 443.4895324707031 48.78571701049805 C 440.8573303222656 58.63845443725586 433.589111328125 65.97691345214844 423.7672119140625 68.53700256347656 C 413.79925537109375 65.95097351074219 406.3507995605469 58.82511520385742 403.818603515625 48.77159118652344 C 406.2184753417969 38.59029006958008 413.4701843261719 31.112937927246094 423.5390930175781 28.169748306274414 C 433.6947326660156 31.547576904296875 440.991943359375 38.86852264404297 443.4895324707031 48.78571701049805" stroke-width="0.0" fill="rgb(107, 68, 44)" opacity="0.89227647"/>
    <path d="M 510.26678466796875 568.2376098632812 C 505.5059814453125 578.6390991210938 497.8105773925781 585.7728881835938 487.750244140625 588.1513671875 C 477.6248779296875 585.7074584960938 470.2987060546875 578.4053955078125 466.894775390625 567.8720703125 C 469.3126220703125 557.5170288085938 476.92523193359375 550.2630615234375 487.7233581542969 546.53515625 C 498.3498229980469 550.2953491210938 506.0323181152344 557.5535278320312 510.26678466796875 568.2376098632812" stroke-width="0.0" fill="rgb(108, 68, 44)" opacity="1.0"/>
    <path d="M 462.37359619140625 337.142333984375 C 461.0776062011719 326.0574645996094 459.42864990234375 334.0043640136719 455.4201354980469 343.30267333984375 C 456.6289367675781 350.4298400878906 449.9781494140625 340.7133483886719 459.2937316894531 340.66650390625 C 462.2087097167969 339.1933898925781 465.7543029785156 332.3124694824219 456.7969970703125 332.0169677734375 C 455.5107727050781 338.11260986328125 459.1515808105469 344.3077392578125 462.37359619140625 337.142333984375" stroke-width="0.0" fill="rgb(209, 98, 43)" opacity="0.2021962"/>
    <path d="M 28.149364471435547 280.27752685546875 C 24.679407119750977 291.72515869140625 17.32828140258789 298.9935302734375 6.653608798980713 303.1250305175781 C -3.306877374649048 298.76910400390625 -10.529776573181152 291.2450256347656 -13.188058853149414 281.20037841796875 C -10.497493743896484 271.2099609375 -3.184272527694702 263.8492431640625 7.040493488311768 259.6267395019531 C 17.81709098815918 262.6950378417969 25.462631225585938 270.1239929199219 28.149364471435547 280.27752685546875" stroke-width="0.0" fill="rgb(108, 68, 43)" opacity="0.9874501"/>
    <path d="M 449.2059326171875 348.3948974609375 C 450.32061767578125 345.95947265625 450.23052978515625 356.3119812011719 449.06427001953125 369.1231384277344 C 433.17730712890625 374.4975891113281 422.01544189453125 369.4875183105469 404.5667419433594 348.537109375 C 419.4593200683594 332.7534484863281 426.6756591796875 325.90234375 444.0155944824219 304.6135559082031 C 458.263427734375 331.2887268066406 457.37408447265625 355.34515380859375 449.2059326171875 348.3948974609375" stroke-width="0.0" fill="rgb(26, 16, 18)" opacity="0.7359402"/>
    <path d="M 155.2100830078125 578.2138671875 C 152.39959716796875 588.7356567382812 145.1118621826172 596.4401245117188 134.04672241210938 601.0966796875 C 123.5341796875 596.2262573242188 116.80506896972656 588.1718139648438 114.60688018798828 577.7421875 C 116.33525848388672 567.5232543945312 123.75843048095703 560.1898193359375 134.0127410888672 557.5919799804688 C 144.2362823486328 560.5891723632812 151.76605224609375 567.770751953125 155.2100830078125 578.2138671875" stroke-width="0.0" fill="rgb(108, 69, 45)" opacity="0.9554558"/>
    <path d="M 338.4033508300781 595.3512573242188 C 334.0852355957031 605.84033203125 326.6352844238281 613.105224609375 316.62066650390625 615.7788696289062 C 306.6206970214844 613.099365234375 299.328125 605.7752685546875 296.5913391113281 595.6598510742188 C 299.2004089355469 585.69482421875 306.5391845703125 578.3637084960938 316.8387451171875 575.2141723632812 C 327.3617248535156 577.7131958007812 335.1153869628906 584.8713989257812 338.4033508300781 595.3512573242188" stroke-width="0.0" fill="rgb(109, 69, 45)" opacity="0.9914921"/>
    <path d="M 418.98236083984375 418.6136779785156 C 404.8779602050781 436.279296875 396.86328125 445.4704284667969 382.1098937988281 454.12823486328125 C 364.7880554199219 438.0408935546875 354.4248352050781 432.72979736328125 321.5991516113281 409.7547912597656 C 341.57977294921875 390.213623046875 354.7025146484375 383.9034729003906 373.8905334472656 355.46734619140625 C 400.7159423828125 387.3946533203125 406.1785888671875 398.19415283203125 418.98236083984375 418.6136779785156" stroke-width="0.0" fill="rgb(25, 13, 15)" opacity="0.8013868"/>
    <path d="M 47.424522399902344 168.58953857421875 C 44.614463806152344 178.590576171875 37.278404235839844 185.9190216064453 27.477611541748047 188.24046325683594 C 17.432687759399414 185.5879669189453 9.999029159545898 178.48658752441406 7.213565826416016 168.53163146972656 C 9.877230644226074 158.5177764892578 17.20289421081543 151.17030334472656 27.22173309326172 148.40956115722656 C 37.29563903808594 151.23660278320312 44.63444519042969 158.54299926757812 47.424522399902344 168.58953857421875" stroke-width="0.0" fill="rgb(108, 68, 44)" opacity="0.97567534"/>
    <path d="M 254.44256591796875 120.65030670166016 C 201.5836639404297 137.9717254638672 181.0589141845703 119.8441390991211 179.67527770996094 156.838134765625 C 158.39422607421875 197.66415405273438 130.2879638671875 177.60594177246094 99.62849426269531 149.03836059570312 C 138.86334228515625 95.71527099609375 153.8471221923828 96.21875 165.19122314453125 100.40017700195312 C 173.8321533203125 99.98918914794922 184.6266632080078 97.81640625 254.44256591796875 120.65030670166016" stroke-width="0.0" fill="rgb(97, 64, 42)" opacity="0.46210703"/>
    <path d="M 604.6104125976562 591.73779296875 C 601.9573974609375 601.7264404296875 594.6369018554688 609.0469360351562 584.636962890625 611.7263793945312 C 574.639404296875 609.0457153320312 567.3009643554688 601.7223510742188 563.576171875 591.55126953125 C 566.8236694335938 581.2852783203125 574.0906982421875 573.6201782226562 584.2125854492188 570.227783203125 C 594.7227172851562 574.2294311523438 601.9396362304688 581.7062377929688 604.6104125976562 591.73779296875" stroke-width="0.0" fill="rgb(107, 69, 45)" opacity="0.97161597"/>
    <path d="M 415.1826171875 87.86514282226562 C 410.36810302734375 89.98478698730469 402.2939147949219 96.12161254882812 410.09991455078125 92.69384002685547 C 419.45123291015625 95.23326873779297 411.1121826171875 90.07649993896484 407.5571594238281 86.6446762084961 C 396.589599609375 89.05281829833984 404.17523193359375 86.7987060546875 411.15838623046875 84.63368225097656 C 417.6970520019531 86.81941223144531 424.98309326171875 89.26581573486328 415.1826171875 87.86514282226562" stroke-width="0.0" fill="rgb(108, 67, 40)" opacity="0.70207524"/>
    <path d="M 388.9162292480469 252.29861450195312 C 386.70135498046875 261.9112243652344 378.7740173339844 268.99139404296875 368.411376953125 268.9868469238281 C 357.3738098144531 268.7659912109375 347.0350341796875 263.09234619140625 341.2998352050781 241.99000549316406 C 335.03228759765625 227.4998321533203 348.23370361328125 227.53732299804688 364.98284912109375 231.5085906982422 C 377.9082946777344 232.84202575683594 384.77252197265625 241.362548828125 388.9162292480469 252.29861450195312" stroke-width="0.0" fill="rgb(33, 20, 21)" opacity="1.0"/>
    <path d="M 279.51031494140625 481.2704772949219 C 246.65017700195312 496.88555908203125 236.75506591796875 503.15484619140625 218.3040771484375 507.30181884765625 C 206.50221252441406 510.0224609375 173.7296142578125 517.5282592773438 133.2980194091797 495.7235412597656 C 178.7484130859375 443.14569091796875 195.58935546875 481.3346252441406 226.5005645751953 459.9682922363281 C 244.22703552246094 455.79388427734375 245.7908172607422 477.10296630859375 279.51031494140625 481.2704772949219" stroke-width="0.0" fill="rgb(255, 122, 14)" opacity="0.74216986"/>
    <path d="M 602.3831176757812 505.260009765625 C 599.6217651367188 515.58544921875 592.2947387695312 523.03125 581.98974609375 526.2903442382812 C 571.6846313476562 522.9286499023438 564.3063354492188 515.5259399414062 561.2628173828125 505.32806396484375 C 564.4122924804688 495.08807373046875 571.7569580078125 487.7073669433594 581.9639892578125 484.64959716796875 C 592.2259521484375 487.6416931152344 599.6222534179688 494.9828796386719 602.3831176757812 505.260009765625" stroke-width="0.0" fill="rgb(107, 69, 45)" opacity="0.97546065"/>
    <path d="M 53.755897521972656 518.7296752929688 C 51.0528678894043 528.7574462890625 43.753631591796875 536.0722045898438 33.77680587768555 538.5678100585938 C 23.84792137145996 536.1229248046875 16.508522033691406 528.8189697265625 14.205842971801758 518.8970336914062 C 16.594850540161133 508.8643798828125 23.8072566986084 501.435791015625 33.86951446533203 498.2791748046875 C 43.959781646728516 501.3207702636719 51.2471809387207 508.72735595703125 53.755897521972656 518.7296752929688" stroke-width="0.0" fill="rgb(108, 68, 43)" opacity="0.9831331"/>
    <path d="M 481.3874206542969 566.7850341796875 C 478.6621398925781 576.7939453125 471.3041076660156 584.0473022460938 461.4288024902344 586.392578125 C 451.5978088378906 583.9173583984375 444.2113037109375 576.6865234375 441.0552062988281 566.7770385742188 C 443.98004150390625 556.812744140625 451.37432861328125 549.5465087890625 461.60101318359375 546.63623046875 C 471.74139404296875 549.0775756835938 478.9231872558594 556.5862426757812 481.3874206542969 566.7850341796875" stroke-width="0.0" fill="rgb(108, 68, 44)" opacity="0.95581067"/>
    <path d="M 592.6783447265625 363.6568908691406 C 589.8030395507812 373.76861572265625 582.5409545898438 381.2181396484375 572.3466796875 384.5920715332031 C 562.313720703125 381.29437255859375 555.095947265625 373.7411804199219 552.0706176757812 363.5529479980469 C 554.9052734375 353.60028076171875 562.3760375976562 346.34393310546875 572.424560546875 343.6753234863281 C 582.4696044921875 346.35040283203125 589.8610229492188 353.6432800292969 592.6783447265625 363.6568908691406" stroke-width="0.0" fill="rgb(107, 69, 45)" opacity="0.940525"/>
    <path d="M 67.80392456054688 409.2180480957031 C 70.70397186279297 399.4673767089844 66.66801452636719 409.798095703125 62.944862365722656 414.7393798828125 C 60.62904357910156 417.31719970703125 54.241065979003906 410.40069580078125 54.532073974609375 402.88897705078125 C 54.92779541015625 395.13226318359375 58.97951126098633 387.897705078125 59.374656677246094 394.84161376953125 C 63.28346633911133 399.7732238769531 67.83866119384766 408.7934265136719 67.80392456054688 409.2180480957031" stroke-width="0.0" fill="rgb(107, 69, 46)" opacity="0.7263635"/>
    <path d="M 351.54632568359375 336.7168884277344 C 349.27679443359375 347.35882568359375 341.98370361328125 354.8896789550781 331.6278076171875 356.3252868652344 C 320.7644958496094 354.0364685058594 313.0150146484375 347.1493835449219 310.4996032714844 336.9006652832031 C 313.6199035644531 326.31390380859375 320.8164367675781 318.8051452636719 331.6195068359375 315.1562805175781 C 342.1727294921875 317.8443908691406 349.0107421875 325.8080749511719 351.54632568359375 336.7168884277344" stroke-width="0.0" fill="rgb(254, 108, 19)" opacity="0.85881245"/>
    <path d="M 449.4837341308594 373.8290100097656 C 450.5104064941406 362.3419189453125 445.5943908691406 371.16302490234375 444.4901428222656 374.5842590332031 C 445.4140930175781 386.5558776855469 438.2645568847656 380.897705078125 434.0662536621094 375.03863525390625 C 440.6766357421875 365.6112060546875 445.5086975097656 358.7217102050781 441.2215576171875 369.8679504394531 C 443.350830078125 374.62530517578125 449.71710205078125 383.06951904296875 449.4837341308594 373.8290100097656" stroke-width="0.0" fill="rgb(28, 15, 17)" opacity="0.8108604"/>
    <path d="M 215.01048278808594 368.0589294433594 C 216.3260040283203 353.4468688964844 213.32666015625 365.7501525878906 209.71615600585938 371.78955078125 C 200.07037353515625 371.7120361328125 190.3221893310547 367.45574951171875 169.626708984375 352.20745849609375 C 185.17886352539062 334.4197692871094 198.69081115722656 329.8066101074219 206.08290100097656 338.27001953125 C 206.46426391601562 350.36029052734375 211.4770965576172 359.5265808105469 215.01048278808594 368.0589294433594" stroke-width="0.0" fill="rgb(25, 15, 18)" opacity="0.7878109"/>
    <path d="M 327.2024841308594 470.6641540527344 C 325.5713806152344 480.11077880859375 317.0701904296875 484.6733093261719 308.17303466796875 480.3337097167969 C 300.0121154785156 483.67071533203125 291.242431640625 479.4583435058594 285.9361572265625 469.5563049316406 C 288.38665771484375 457.9037780761719 296.28314208984375 450.5936279296875 307.4241027832031 450.4350891113281 C 317.8970031738281 453.418212890625 325.1551208496094 460.6871643066406 327.2024841308594 470.6641540527344" stroke-width="0.0" fill="rgb(30, 18, 18)" opacity="0.7259289"/>
  </g>
</svg>
