<?xml version="1.0" ?>
<svg xmlns="http://www.w3.org/2000/svg" version="1.1" width="600" height="600">
  <defs/>
  <g>
    <path d="M 661.92919921875 293.8561706542969 C 651.8509521484375 379.2618713378906 645.3075561523438 386.6829528808594 389.1007385253906 365.4992980957031 C 359.1898498535156 423.98828125 359.4095153808594 402.7386779785156 386.7615661621094 207.18896484375 C 412.0787353515625 184.8260040283203 433.9626159667969 201.0320281982422 462.47552490234375 176.56800842285156 C 660.33349609375 189.04690551757812 678.8209838867188 171.99925231933594 661.92919921875 293.8561706542969" stroke-width="0.0" fill="rgb(56, 180, 166)" opacity="0.8024643"/>
    <path d="M 278.15545654296875 242.60536193847656 C 328.628662109375 393.0619812011719 298.640380859375 459.2924499511719 232.919921875 497.64678955078125 C -56.246177673339844 500.4895324707031 -49.408103942871094 493.0272521972656 -60.491817474365234 322.99371337890625 C -63.384178161621094 170.120361328125 -72.42333221435547 143.1104736328125 111.22393035888672 133.46047973632812 C 214.92544555664062 181.44544982910156 167.04124450683594 253.95779418945312 278.15545654296875 242.60536193847656" stroke-width="0.0" fill="rgb(143, 227, 210)" opacity="0.6370157"/>
    <path d="M 424.7445983886719 438.083984375 C 406.626708984375 584.3339233398438 428.4102783203125 540.5237426757812 302.4096374511719 531.23291015625 C 229.07608032226562 536.374755859375 242.97947692871094 549.9813232421875 251.0792236328125 478.8024597167969 C 222.1976318359375 547.3612670898438 277.3383483886719 502.89373779296875 373.3265380859375 471.8456726074219 C 336.8249816894531 427.98675537109375 456.65985107421875 423.79083251953125 424.7445983886719 438.083984375" stroke-width="0.0" fill="rgb(1, 45, 129)" opacity="0.96091"/>
    <path d="M 20.265056610107422 0.872433066368103 C 17.58556365966797 10.872432708740234 10.265056610107422 18.19293975830078 0.26505663990974426 20.872432708740234 C -9.734943389892578 18.19293975830078 -17.055450439453125 10.872432708740234 -19.734943389892578 0.872433066368103 C -17.055450439453125 -9.127567291259766 -9.734943389892578 -16.448074340820312 0.26505663990974426 -19.127567291259766 C 10.265056610107422 -16.448074340820312 17.58556365966797 -9.127567291259766 20.265056610107422 0.872433066368103" stroke-width="0.0" fill="rgb(139, 115, 215)" opacity="0.8464723" stroke="rgb(38, 82, 188)" stroke-opacity="0.47601813" stroke-linecap="round" stroke-linejoin="round"/>
    <path d="M 170.19410705566406 214.46136474609375 C 359.8606262207031 162.62220764160156 216.34678649902344 169.5995635986328 203.1575469970703 363.4881896972656 C 15.085086822509766 384.7624206542969 -57.17947006225586 317.8863830566406 -79.23500061035156 103.05895233154297 C 8.768381118774414 -56.40488052368164 14.931642532348633 -56.44662094116211 396.3574523925781 11.743959426879883 C 496.0076904296875 151.25225830078125 321.4549255371094 88.59160614013672 170.19410705566406 214.46136474609375" stroke-width="0.0" fill="rgb(179, 240, 224)" opacity="0.99019635"/>
    <path d="M 508.6363525390625 158.5061798095703 C 528.933837890625 202.82269287109375 489.7003173828125 186.5671844482422 422.9638366699219 196.4633026123047 C 379.6229553222656 182.2820281982422 384.28759765625 149.91021728515625 408.7904968261719 102.01757049560547 C 408.8652038574219 45.22328186035156 392.2185974121094 24.913925170898438 455.36712646484375 -2.6612257957458496 C 513.5 -6.341434478759766 502.91204833984375 18.236608505249023 508.6363525390625 158.5061798095703" stroke-width="0.0" fill="rgb(59, 178, 157)" opacity="0.96402127"/>
    <path d="M 478.5841064453125 44.223968505859375 C 375.2906799316406 126.25840759277344 383.38385009765625 147.59039306640625 410.2973937988281 169.5369415283203 C 371.46136474609375 141.28880310058594 283.8006896972656 189.7085418701172 234.15457153320312 138.0452423095703 C 337.5029296875 134.70094299316406 400.0794372558594 120.68891906738281 453.8123474121094 83.27413177490234 C 410.0354309082031 21.689348220825195 440.8278503417969 31.13865852355957 478.5841064453125 44.223968505859375" stroke-width="0.0" fill="rgb(12, 1, 7)" opacity="0.9957445"/>
    <path d="M 20.26682472229004 0.6409618258476257 C 17.587331771850586 10.640961647033691 10.266824722290039 17.961469650268555 0.26682519912719727 20.640962600708008 C -9.733175277709961 17.961469650268555 -17.053682327270508 10.640961647033691 -19.73317527770996 0.6409618258476257 C -17.053682327270508 -9.359038352966309 -9.733175277709961 -16.67954444885254 0.26682519912719727 -19.359037399291992 C 10.266824722290039 -16.67954444885254 17.587331771850586 -9.359038352966309 20.26682472229004 0.6409618258476257" stroke-width="0.0" fill="rgb(109, 182, 176)" opacity="0.7385183" stroke="rgb(26, 184, 147)" stroke-opacity="0.27416065" stroke-linecap="round" stroke-linejoin="round"/>
    <path d="M 405.0740661621094 131.40635681152344 C 409.6660461425781 161.17042541503906 419.47149658203125 219.78773498535156 401.5233154296875 256.4257507324219 C 398.80255126953125 163.91905212402344 359.65521240234375 177.0540313720703 328.9389953613281 161.35626220703125 C 325.05609130859375 154.68255615234375 380.0429992675781 133.05992126464844 406.4503173828125 105.4811782836914 C 395.44439697265625 130.8534393310547 415.4085998535156 143.2924346923828 405.0740661621094 131.40635681152344" stroke-width="0.0" fill="rgb(127, 43, 12)" opacity="0.95162"/>
    <path d="M 304.34722900390625 161.64039611816406 C 201.44566345214844 160.56787109375 241.30035400390625 173.470458984375 202.744384765625 209.60275268554688 C 192.670654296875 293.87158203125 149.86341857910156 208.80665588378906 205.97189331054688 125.92829895019531 C 209.06553649902344 124.31520080566406 203.32554626464844 110.051025390625 212.32102966308594 142.91415405273438 C 219.340087890625 125.53547668457031 224.9927215576172 139.041748046875 304.34722900390625 161.64039611816406" stroke-width="0.0" fill="rgb(128, 52, 17)" opacity="0.86180484"/>
    <path d="M 391.20068359375 314.7658386230469 C 411.9483947753906 447.06219482421875 362.58734130859375 508.14154052734375 233.10699462890625 521.0222778320312 C 247.2294464111328 548.0980834960938 239.64610290527344 492.2860412597656 218.78456115722656 318.0766906738281 C 261.2742614746094 432.5457458496094 192.28512573242188 500.66485595703125 308.234130859375 472.18212890625 C 431.706787109375 469.1537780761719 355.7802734375 425.0308532714844 391.20068359375 314.7658386230469" stroke-width="0.0" fill="rgb(80, 41, 14)" opacity="0.8587328"/>
    <path d="M 52.90766525268555 495.0128479003906 C 129.6544647216797 539.6983642578125 179.50213623046875 511.0157775878906 82.64058685302734 532.6576538085938 C -62.195011138916016 551.8208618164062 -60.804256439208984 566.6510009765625 -53.68370819091797 487.1496276855469 C -37.07112503051758 404.56903076171875 -37.827430725097656 379.8919982910156 -7.4601850509643555 389.1634216308594 C -8.288921356201172 466.3751220703125 -43.67879104614258 478.6197814941406 52.90766525268555 495.0128479003906" stroke-width="0.0" fill="rgb(142, 202, 164)" opacity="0.31195492"/>
    <path d="M 20.935514450073242 0.571043074131012 C 18.25602149963379 10.571043014526367 10.935514450073242 17.891550064086914 0.9355142116546631 20.571043014526367 C -9.064485549926758 17.891550064086914 -16.384992599487305 10.571043014526367 -19.064485549926758 0.571043074131012 C -16.384992599487305 -9.428956985473633 -9.064485549926758 -16.74946403503418 0.9355142116546631 -19.428956985473633 C 10.935514450073242 -16.74946403503418 18.25602149963379 -9.428956985473633 20.935514450073242 0.571043074131012" stroke-width="0.0" fill="rgb(117, 2, 62)" opacity="0.997543" stroke="rgb(25, 102, 204)" stroke-opacity="0.20403564" stroke-linecap="round" stroke-linejoin="round"/>
    <path d="M 336.18353271484375 315.5868225097656 C 382.9669189453125 639.31396484375 334.20172119140625 681.0720825195312 119.21669006347656 666.8847045898438 C -87.8261947631836 593.4533081054688 -65.86550903320312 565.0504760742188 91.61771392822266 554.1463623046875 C 168.602294921875 573.743408203125 181.1136016845703 592.5037231445312 220.60130310058594 317.4795227050781 C 287.8665771484375 237.6913604736328 311.042236328125 240.82373046875 336.18353271484375 315.5868225097656" stroke-width="0.0" fill="rgb(222, 138, 0)" opacity="0.4696242"/>
    <path d="M 668.5343627929688 405.94500732421875 C 624.3978271484375 548.8684692382812 610.123779296875 561.232421875 545.5716552734375 536.848388671875 C 420.4537353515625 559.2818603515625 404.2467041015625 586.443115234375 343.7380065917969 368.54302978515625 C 316.22564697265625 237.90794372558594 360.38116455078125 257.47589111328125 488.3038635253906 340.486572265625 C 660.5504150390625 352.4049377441406 676.65625 342.1781311035156 668.5343627929688 405.94500732421875" stroke-width="0.0" fill="rgb(88, 197, 181)" opacity="1.0"/>
    <path d="M 20.11155128479004 0.4347652494907379 C 17.432058334350586 10.434764862060547 10.111552238464355 17.755271911621094 0.1115521714091301 20.434764862060547 C -9.888447761535645 17.755271911621094 -17.208955764770508 10.434764862060547 -19.88844871520996 0.4347652494907379 C -17.208955764770508 -9.565235137939453 -9.888447761535645 -16.8857421875 0.1115521714091301 -19.565235137939453 C 10.111552238464355 -16.8857421875 17.432058334350586 -9.565235137939453 20.11155128479004 0.4347652494907379" stroke-width="0.0" fill="rgb(20, 21, 228)" opacity="0.7970115" stroke="rgb(57, 90, 17)" stroke-opacity="0.5190598" stroke-linecap="round" stroke-linejoin="round"/>
    <path d="M 20.070993423461914 0.631102979183197 C 17.39150047302246 10.631102561950684 10.070993423461914 17.951610565185547 0.0709930881857872 20.631103515625 C -9.929006576538086 17.951610565185547 -17.249513626098633 10.631102561950684 -19.929006576538086 0.631102979183197 C -17.249513626098633 -9.368897438049316 -9.929006576538086 -16.689403533935547 0.0709930881857872 -19.368896484375 C 10.070993423461914 -16.689403533935547 17.39150047302246 -9.368897438049316 20.070993423461914 0.631102979183197" stroke-width="0.0" fill="rgb(94, 110, 112)" opacity="0.98292273" stroke="rgb(61, 30, 50)" stroke-opacity="0.8869249" stroke-linecap="round" stroke-linejoin="round"/>
    <path d="M 20.423137664794922 0.21179820597171783 C 17.74364471435547 10.211798667907715 10.423137664794922 17.532304763793945 0.42313793301582336 20.2117977142334 C -9.576862335205078 17.532304763793945 -16.897369384765625 10.211798667907715 -19.576862335205078 0.21179820597171783 C -16.897369384765625 -9.788201332092285 -9.576862335205078 -17.10870933532715 0.42313793301582336 -19.7882022857666 C 10.423137664794922 -17.10870933532715 17.74364471435547 -9.788201332092285 20.423137664794922 0.21179820597171783" stroke-width="0.0" fill="rgb(95, 100, 117)" opacity="0.9676254" stroke="rgb(243, 200, 80)" stroke-opacity="0.68813473" stroke-linecap="round" stroke-linejoin="round"/>
    <path d="M 621.5794067382812 563.938720703125 C 603.729736328125 623.8125 588.243408203125 624.9984130859375 504.5657043457031 684.652587890625 C 495.29888916015625 673.8737182617188 452.7547607421875 747.7392578125 199.79518127441406 558.3643188476562 C 320.9894104003906 538.8056640625 396.0216064453125 526.7664794921875 487.884765625 542.916748046875 C 581.3247680664062 532.8573608398438 598.0281372070312 533.9474487304688 621.5794067382812 563.938720703125" stroke-width="0.0" fill="rgb(50, 142, 144)" opacity="0.7068104"/>
    <path d="M 400.3095397949219 545.4669799804688 C 397.0967712402344 571.3390502929688 332.7750549316406 593.9857177734375 339.5537414550781 528.045166015625 C 327.2813415527344 528.0262451171875 230.0230255126953 512.0654296875 186.3343048095703 430.2108459472656 C 265.7806091308594 552.2576904296875 381.638427734375 504.31329345703125 391.91119384765625 518.1376953125 C 380.42315673828125 500.7110595703125 386.87030029296875 502.5272216796875 400.3095397949219 545.4669799804688" stroke-width="0.0" fill="rgb(31, 68, 137)" opacity="0.6748016"/>
    <path d="M 20.307514190673828 0.05792516469955444 C 17.628021240234375 10.0579252243042 10.307514190673828 17.37843132019043 0.30751413106918335 20.057924270629883 C -9.692485809326172 17.37843132019043 -17.01299285888672 10.0579252243042 -19.692485809326172 0.05792516469955444 C -17.01299285888672 -9.9420747756958 -9.692485809326172 -17.262582778930664 0.30751413106918335 -19.942075729370117 C 10.307514190673828 -17.262582778930664 17.628021240234375 -9.9420747756958 20.307514190673828 0.05792516469955444" stroke-width="0.0" fill="rgb(26, 163, 55)" opacity="0.8950603" stroke="rgb(38, 15, 199)" stroke-opacity="0.45980042" stroke-linecap="round" stroke-linejoin="round"/>
    <path d="M 172.24273681640625 162.3733367919922 C 68.83401489257812 122.01698303222656 8.996746063232422 158.76260375976562 55.78245162963867 161.08877563476562 C 122.92777252197266 143.79922485351562 139.7073516845703 134.8167266845703 -75.6025390625 132.99974060058594 C 22.210147857666016 178.9597930908203 35.985931396484375 168.87547302246094 73.8309555053711 171.5185089111328 C 54.15142822265625 164.79859924316406 52.73676300048828 187.94955444335938 172.24273681640625 162.3733367919922" stroke-width="0.0" fill="rgb(194, 229, 239)" opacity="0.08321263"/>
    <path d="M 20.472671508789062 0.7846194505691528 C 17.79317855834961 10.784619331359863 10.472671508789062 18.105127334594727 0.4726710319519043 20.78462028503418 C -9.527328491210938 18.105127334594727 -16.847835540771484 10.784619331359863 -19.527328491210938 0.7846194505691528 C -16.847835540771484 -9.215380668640137 -9.527328491210938 -16.535886764526367 0.4726710319519043 -19.21537971496582 C 10.472671508789062 -16.535886764526367 17.79317855834961 -9.215380668640137 20.472671508789062 0.7846194505691528" stroke-width="0.0" fill="rgb(141, 186, 157)" opacity="0.80661535" stroke="rgb(199, 141, 1)" stroke-opacity="0.76099074" stroke-linecap="round" stroke-linejoin="round"/>
    <path d="M 136.6258544921875 487.8849792480469 C 114.29686737060547 492.66839599609375 86.76066589355469 489.5024719238281 101.6600112915039 504.4592590332031 C 122.36555480957031 499.319091796875 112.8624038696289 486.13323974609375 105.9263687133789 473.69927978515625 C 93.16865539550781 472.40460205078125 119.93125915527344 474.7747497558594 152.80226135253906 478.0321350097656 C 152.2042694091797 505.6260986328125 127.6333999633789 517.522216796875 136.6258544921875 487.8849792480469" stroke-width="0.0" fill="rgb(198, 236, 251)" opacity="0.17393084"/>
    <path d="M 20.190208435058594 0.44861355423927307 C 17.51071548461914 10.448613166809082 10.190208435058594 17.769121170043945 0.19020891189575195 20.4486141204834 C -9.809791564941406 17.769121170043945 -17.130298614501953 10.448613166809082 -19.809791564941406 0.44861355423927307 C -17.130298614501953 -9.551386833190918 -9.809791564941406 -16.87189292907715 0.19020891189575195 -19.5513858795166 C 10.190208435058594 -16.87189292907715 17.51071548461914 -9.551386833190918 20.190208435058594 0.44861355423927307" stroke-width="0.0" fill="rgb(47, 92, 85)" opacity="0.7072575" stroke="rgb(212, 69, 132)" stroke-opacity="0.29872558" stroke-linecap="round" stroke-linejoin="round"/>
    <path d="M 20.807497024536133 0.19040991365909576 C 18.12800407409668 10.190409660339355 10.807497024536133 17.51091766357422 0.8074970245361328 20.190410614013672 C -9.192502975463867 17.51091766357422 -16.513010025024414 10.190409660339355 -19.192502975463867 0.19040991365909576 C -16.513010025024414 -9.809590339660645 -9.192502975463867 -17.130096435546875 0.8074970245361328 -19.809589385986328 C 10.807497024536133 -17.130096435546875 18.12800407409668 -9.809590339660645 20.807497024536133 0.19040991365909576" stroke-width="0.0" fill="rgb(9, 190, 51)" opacity="0.81038225" stroke="rgb(83, 37, 77)" stroke-opacity="0.87665075" stroke-linecap="round" stroke-linejoin="round"/>
    <path d="M 319.0684814453125 231.47021484375 C 302.5007019042969 237.8744354248047 277.1279602050781 255.27003479003906 349.85174560546875 233.85353088378906 C 277.8092346191406 270.3284912109375 309.0484619140625 227.80604553222656 289.4270324707031 237.3538055419922 C 275.755126953125 229.8054962158203 280.279541015625 217.0895538330078 284.2398986816406 214.1515655517578 C 304.7033996582031 204.9145050048828 332.8451232910156 207.9083251953125 319.0684814453125 231.47021484375" stroke-width="0.0" fill="rgb(1, 6, 18)" opacity="1.0"/>
    <path d="M 20.40104103088379 0.058635398745536804 C 17.721548080444336 10.058635711669922 10.401040077209473 17.37914276123047 0.40104028582572937 20.058635711669922 C -9.598959922790527 17.37914276123047 -16.919466018676758 10.058635711669922 -19.59895896911621 0.058635398745536804 C -16.919466018676758 -9.941364288330078 -9.598959922790527 -17.261871337890625 0.40104028582572937 -19.941364288330078 C 10.401040077209473 -17.261871337890625 17.721548080444336 -9.941364288330078 20.40104103088379 0.058635398745536804" stroke-width="0.0" fill="rgb(180, 138, 20)" opacity="0.84540886" stroke="rgb(42, 241, 216)" stroke-opacity="0.6690223" stroke-linecap="round" stroke-linejoin="round"/>
    <path d="M 342.0263366699219 155.6752166748047 C 140.02243041992188 159.0885772705078 194.8225555419922 206.05918884277344 209.6026153564453 262.75213623046875 C 136.9174346923828 218.53053283691406 132.7108154296875 158.85720825195312 128.13790893554688 140.75021362304688 C 122.56417083740234 117.30369567871094 153.0614471435547 109.61123657226562 163.31214904785156 124.27556610107422 C 150.85792541503906 135.64723205566406 222.5901336669922 132.38629150390625 342.0263366699219 155.6752166748047" stroke-width="0.0" fill="rgb(4, 7, 3)" opacity="0.9842942"/>
    <path d="M 282.5364074707031 617.8692016601562 C 256.8365783691406 708.44140625 169.21701049804688 646.3754272460938 82.48310852050781 617.7749633789062 C 20.36130714416504 622.78662109375 -24.673002243041992 641.0279541015625 -60.43287658691406 544.3445434570312 C 278.3815612792969 530.9638671875 241.5081787109375 512.4473266601562 -58.85704803466797 525.3381958007812 C 298.1723937988281 511.63067626953125 169.84576416015625 544.59375 282.5364074707031 617.8692016601562" stroke-width="0.0" fill="rgb(166, 254, 249)" opacity="0.7968459"/>
    <path d="M 390.13739013671875 219.2489013671875 C 392.2447509765625 259.51019287109375 390.716064453125 244.15899658203125 373.4997863769531 229.58798217773438 C 357.9466247558594 223.02975463867188 324.29693603515625 221.9641876220703 322.7298278808594 196.32281494140625 C 322.8835754394531 190.3643798828125 342.73724365234375 177.83908081054688 351.5285949707031 181.76571655273438 C 370.4858703613281 188.2667694091797 381.40826416015625 203.92080688476562 390.13739013671875 219.2489013671875" stroke-width="0.0" fill="rgb(53, 5, 2)" opacity="0.97333103"/>
    <path d="M 454.728271484375 181.2004852294922 C 441.6710205078125 210.37525939941406 427.51165771484375 224.1716766357422 403.80706787109375 244.91134643554688 C 411.447021484375 247.75502014160156 423.470458984375 155.77120971679688 358.12744140625 160.29067993164062 C 274.1265869140625 171.47740173339844 400.3815002441406 112.69332885742188 438.1768493652344 84.74616241455078 C 484.5992736816406 111.26675415039062 458.84759521484375 171.6832275390625 454.728271484375 181.2004852294922" stroke-width="0.0" fill="rgb(3, 5, 10)" opacity="0.992794"/>
    <path d="M 332.8912658691406 97.32921600341797 C 324.48223876953125 105.56893920898438 346.35174560546875 125.21404266357422 305.6077575683594 128.95748901367188 C 219.96304321289062 125.7063980102539 230.29830932617188 145.1004638671875 234.77972412109375 107.1633071899414 C 248.57559204101562 60.409576416015625 262.26922607421875 41.09417724609375 277.17230224609375 53.25065612792969 C 290.9425354003906 72.97183227539062 348.71331787109375 86.4263687133789 332.8912658691406 97.32921600341797" stroke-width="0.0" fill="rgb(1, 0, 4)" opacity="0.9984422"/>
    <path d="M 20.539295196533203 0.7299310564994812 C 17.85980224609375 10.729930877685547 10.53929615020752 18.050437927246094 0.5392960906028748 20.729930877685547 C -9.46070384979248 18.050437927246094 -16.781211853027344 10.729930877685547 -19.460704803466797 0.7299310564994812 C -16.781211853027344 -9.270069122314453 -9.46070384979248 -16.590576171875 0.5392960906028748 -19.270069122314453 C 10.53929615020752 -16.590576171875 17.85980224609375 -9.270069122314453 20.539295196533203 0.7299310564994812" stroke-width="0.0" fill="rgb(111, 64, 214)" opacity="0.9705286" stroke="rgb(117, 162, 168)" stroke-opacity="0.89511776" stroke-linecap="round" stroke-linejoin="round"/>
    <path d="M 47.773189544677734 204.180419921875 C 29.43390464782715 197.56558227539062 52.08839416503906 198.34823608398438 -0.7168987393379211 202.46328735351562 C 7.888575077056885 234.76600646972656 20.629657745361328 207.361572265625 -30.589008331298828 220.71194458007812 C 120.3883285522461 226.15493774414062 145.01937866210938 252.55699157714844 135.07337951660156 197.55015563964844 C 24.764862060546875 198.02215576171875 20.462841033935547 197.03970336914062 47.773189544677734 204.180419921875" stroke-width="0.0" fill="rgb(194, 212, 245)" opacity="0.042137723"/>
    <path d="M 20.550325393676758 0.05058832839131355 C 17.870832443237305 10.050588607788086 10.550325393676758 17.371095657348633 0.550325334072113 20.050588607788086 C -9.449674606323242 17.371095657348633 -16.77018165588379 10.050588607788086 -19.449674606323242 0.05058832839131355 C -16.77018165588379 -9.949411392211914 -9.449674606323242 -17.26991844177246 0.550325334072113 -19.949411392211914 C 10.550325393676758 -17.26991844177246 17.870832443237305 -9.949411392211914 20.550325393676758 0.05058832839131355" stroke-width="0.0" fill="rgb(231, 63, 69)" opacity="0.83492196" stroke="rgb(198, 16, 124)" stroke-opacity="0.0336136" stroke-linecap="round" stroke-linejoin="round"/>
    <path d="M 636.6879272460938 145.5680389404297 C 611.301513671875 189.69984436035156 596.1484985351562 179.35562133789062 491.6187744140625 152.21002197265625 C 440.3799743652344 102.65214538574219 377.7730712890625 86.66676330566406 567.7808227539062 122.61173248291016 C 314.86749267578125 108.01268005371094 347.9881591796875 42.370147705078125 467.7176513671875 24.72344398498535 C 653.673095703125 58.858036041259766 655.6851196289062 54.2021598815918 636.6879272460938 145.5680389404297" stroke-width="0.0" fill="rgb(192, 242, 230)" opacity="0.99872845"/>
    <path d="M 208.11830139160156 403.09649658203125 C 198.039794921875 390.14886474609375 213.54637145996094 409.06048583984375 226.0880584716797 428.6172790527344 C 180.9618377685547 429.71978759765625 196.11651611328125 446.2926330566406 194.62904357910156 412.87945556640625 C 194.4522705078125 423.62945556640625 195.08033752441406 407.190673828125 209.57066345214844 386.1998291015625 C 207.72613525390625 361.91046142578125 196.17274475097656 386.0140380859375 208.11830139160156 403.09649658203125" stroke-width="0.0" fill="rgb(150, 39, 3)" opacity="0.98046905"/>
    <path d="M 605.4979248046875 193.86668395996094 C 627.7091064453125 189.1559600830078 601.3377685546875 202.40277099609375 556.0344848632812 208.96400451660156 C 556.2049560546875 222.2970733642578 683.250244140625 240.2840118408203 596.5191040039062 206.34869384765625 C 538.2803955078125 161.9296112060547 546.3291015625 153.96682739257812 577.0606079101562 170.46243286132812 C 647.8203125 158.0688934326172 643.7628784179688 155.098388671875 605.4979248046875 193.86668395996094" stroke-width="0.0" fill="rgb(209, 251, 209)" opacity="0.50983614"/>
    <path d="M 382.9324645996094 42.9122428894043 C 431.9737854003906 71.31387329101562 377.84808349609375 9.838175773620605 329.382080078125 51.65910720825195 C 373.0456237792969 109.17118835449219 344.9373779296875 88.11055755615234 242.6302490234375 96.2072525024414 C 248.62525939941406 43.29106903076172 278.6148376464844 71.93560028076172 300.73956298828125 78.12577819824219 C 296.3335876464844 39.06480407714844 382.46673583984375 25.809612274169922 382.9324645996094 42.9122428894043" stroke-width="0.0" fill="rgb(5, 0, 9)" opacity="1.0"/>
    <path d="M 255.90110778808594 327.351806640625 C 206.21372985839844 360.3208923339844 281.2659912109375 441.0022277832031 216.8486328125 439.6080322265625 C 240.74107360839844 342.2181091308594 189.23324584960938 370.6078186035156 209.623291015625 377.0162658691406 C 211.71707153320312 361.943603515625 210.64964294433594 319.21673583984375 225.5144500732422 307.0878601074219 C 247.27720642089844 288.14727783203125 228.81581115722656 305.6767883300781 255.90110778808594 327.351806640625" stroke-width="0.0" fill="rgb(178, 56, 1)" opacity="1.0"/>
    <path d="M 20.069211959838867 0.7606021761894226 C 17.389719009399414 10.760601997375488 10.069212913513184 18.08111000061035 0.06921251863241196 20.760602951049805 C -9.930787086486816 18.08111000061035 -17.25129508972168 10.760601997375488 -19.930788040161133 0.7606021761894226 C -17.25129508972168 -9.239398002624512 -9.930787086486816 -16.559904098510742 0.06921251863241196 -19.239397048950195 C 10.069212913513184 -16.559904098510742 17.389719009399414 -9.239398002624512 20.069211959838867 0.7606021761894226" stroke-width="0.0" fill="rgb(134, 108, 33)" opacity="0.83493537" stroke="rgb(49, 93, 105)" stroke-opacity="0.8275379" stroke-linecap="round" stroke-linejoin="round"/>
    <path d="M 297.9785461425781 501.51995849609375 C 300.862060546875 583.9569702148438 304.82183837890625 549.0567626953125 300.2735290527344 561.0478515625 C 243.0109100341797 555.34716796875 227.0518341064453 530.7363891601562 241.9492645263672 494.4735412597656 C 245.77560424804688 499.6611022949219 201.52159118652344 493.6764221191406 288.58209228515625 500.96923828125 C 264.2483825683594 503.8310241699219 308.2418518066406 500.96063232421875 297.9785461425781 501.51995849609375" stroke-width="0.0" fill="rgb(0, 57, 149)" opacity="1.0"/>
    <path d="M 281.40789794921875 499.7588195800781 C 252.0305633544922 506.3047790527344 244.4183807373047 502.7959899902344 246.49620056152344 472.6355285644531 C 237.86489868164062 466.700927734375 249.70263671875 471.87713623046875 248.35574340820312 462.9659729003906 C 262.7186584472656 481.0188293457031 238.3456268310547 463.655517578125 254.4690399169922 467.71142578125 C 294.2164306640625 464.00018310546875 272.68865966796875 441.7107849121094 281.40789794921875 499.7588195800781" stroke-width="0.0" fill="rgb(2, 12, 32)" opacity="0.9943688"/>
    <path d="M 657.779296875 559.7998657226562 C 531.1363525390625 566.0792236328125 492.51593017578125 568.97216796875 511.1534729003906 574.6500854492188 C 504.7623291015625 568.5570068359375 449.44891357421875 539.939453125 361.4411926269531 551.7218017578125 C 489.03411865234375 498.8313293457031 410.32421875 550.1116333007812 460.6343688964844 526.2984008789062 C 613.4483642578125 542.3032836914062 672.0775146484375 525.3094482421875 657.779296875 559.7998657226562" stroke-width="0.0" fill="rgb(107, 182, 184)" opacity="0.95234704"/>
    <path d="M 256.4035339355469 377.9004211425781 C 223.96131896972656 405.6466064453125 220.7619171142578 432.4586486816406 213.19154357910156 474.8149108886719 C 184.52195739746094 441.3236389160156 197.24615478515625 433.2174377441406 197.4384002685547 413.06268310546875 C 198.7145538330078 408.6095275878906 201.4399871826172 379.6844177246094 215.5963897705078 327.567138671875 C 231.75587463378906 289.4322814941406 216.62924194335938 333.5477600097656 256.4035339355469 377.9004211425781" stroke-width="0.0" fill="rgb(118, 33, 0)" opacity="1.0"/>
    <path d="M 20.228940963745117 0.9054200053215027 C 17.549448013305664 10.905420303344727 10.228941917419434 18.225927352905273 0.22894178330898285 20.905420303344727 C -9.771058082580566 18.225927352905273 -17.09156608581543 10.905420303344727 -19.771059036254883 0.9054200053215027 C -17.09156608581543 -9.094579696655273 -9.771058082580566 -16.41508674621582 0.22894178330898285 -19.094579696655273 C 10.228941917419434 -16.41508674621582 17.549448013305664 -9.094579696655273 20.228940963745117 0.9054200053215027" stroke-width="0.0" fill="rgb(164, 72, 208)" opacity="0.9539543" stroke="rgb(234, 64, 192)" stroke-opacity="0.4605395" stroke-linecap="round" stroke-linejoin="round"/>
    <path d="M 127.15985870361328 154.67942810058594 C 32.749420166015625 161.75613403320312 -37.11275100708008 146.17445373535156 -70.52952575683594 161.3324432373047 C 28.052894592285156 195.75900268554688 21.031707763671875 162.42799377441406 -32.52197265625 178.88124084472656 C 34.44233703613281 178.24583435058594 96.4744644165039 181.11642456054688 133.29940795898438 184.51979064941406 C 90.88046264648438 149.61956787109375 133.63616943359375 186.34234619140625 127.15985870361328 154.67942810058594" stroke-width="0.0" fill="rgb(157, 254, 195)" opacity="0.039388925"/>
    <path d="M 328.6796569824219 477.6654968261719 C 333.0635070800781 497.03961181640625 323.8505554199219 497.0369567871094 300.44940185546875 499.307861328125 C 278.2406921386719 480.45794677734375 302.1811218261719 466.717529296875 300.679931640625 468.0422058105469 C 267.5881652832031 481.54180908203125 277.57501220703125 479.6022033691406 283.8732604980469 466.2486877441406 C 287.21453857421875 460.7686462402344 314.29296875 470.271484375 328.6796569824219 477.6654968261719" stroke-width="0.0" fill="rgb(15, 15, 30)" opacity="0.9809239"/>
    <path d="M 20.453723907470703 0.9538159370422363 C 17.77423095703125 10.953815460205078 10.453723907470703 18.274322509765625 0.4537236988544464 20.953815460205078 C -9.546276092529297 18.274322509765625 -16.866783142089844 10.953815460205078 -19.546276092529297 0.9538159370422363 C -16.866783142089844 -9.046184539794922 -9.546276092529297 -16.36669158935547 0.4537236988544464 -19.046184539794922 C 10.453723907470703 -16.36669158935547 17.77423095703125 -9.046184539794922 20.453723907470703 0.9538159370422363" stroke-width="0.0" fill="rgb(17, 204, 59)" opacity="0.9640237" stroke="rgb(165, 135, 82)" stroke-opacity="0.3330019" stroke-linecap="round" stroke-linejoin="round"/>
    <path d="M 20.500585556030273 0.17865188419818878 C 17.82109260559082 10.178651809692383 10.50058650970459 17.49915885925293 0.5005860924720764 20.178651809692383 C -9.49941349029541 17.49915885925293 -16.819921493530273 10.178651809692383 -19.499414443969727 0.17865188419818878 C -16.819921493530273 -9.821348190307617 -9.49941349029541 -17.141855239868164 0.5005860924720764 -19.821348190307617 C 10.50058650970459 -17.141855239868164 17.82109260559082 -9.821348190307617 20.500585556030273 0.17865188419818878" stroke-width="0.0" fill="rgb(44, 175, 51)" opacity="0.72900295" stroke="rgb(114, 192, 88)" stroke-opacity="0.66491175" stroke-linecap="round" stroke-linejoin="round"/>
    <path d="M 257.73040771484375 245.0814208984375 C 277.0550842285156 248.19473266601562 260.4884033203125 211.78012084960938 250.56564331054688 284.4765625 C 232.78067016601562 272.9241638183594 223.0482177734375 274.7702941894531 202.16241455078125 254.86944580078125 C 178.845458984375 192.72335815429688 250.9206085205078 168.103759765625 233.43055725097656 208.00450134277344 C 242.75643920898438 233.78961181640625 285.5335388183594 146.1095428466797 257.73040771484375 245.0814208984375" stroke-width="0.0" fill="rgb(255, 251, 222)" opacity="0.999336"/>
    <path d="M 20.000572204589844 0.3241560459136963 C 17.32107925415039 10.324155807495117 10.000572204589844 17.644662857055664 0.0005718961474485695 20.324155807495117 C -9.999427795410156 17.644662857055664 -17.319934844970703 10.324155807495117 -19.999427795410156 0.3241560459136963 C -17.319934844970703 -9.675844192504883 -9.999427795410156 -16.99635124206543 0.0005718961474485695 -19.675844192504883 C 10.000572204589844 -16.99635124206543 17.32107925415039 -9.675844192504883 20.000572204589844 0.3241560459136963" stroke-width="0.0" fill="rgb(44, 177, 88)" opacity="0.8922916" stroke="rgb(209, 33, 219)" stroke-opacity="0.9227572" stroke-linecap="round" stroke-linejoin="round"/>
    <path d="M 20.999282836914062 0.8360275626182556 C 18.31978988647461 10.836027145385742 10.999282836914062 18.15653419494629 0.9992824792861938 20.836027145385742 C -9.000717163085938 18.15653419494629 -16.321224212646484 10.836027145385742 -19.000717163085938 0.8360275626182556 C -16.321224212646484 -9.163972854614258 -9.000717163085938 -16.484479904174805 0.9992824792861938 -19.163972854614258 C 10.999282836914062 -16.484479904174805 18.31978988647461 -9.163972854614258 20.999282836914062 0.8360275626182556" stroke-width="0.0" fill="rgb(15, 231, 35)" opacity="0.8233287" stroke="rgb(88, 229, 5)" stroke-opacity="0.6637897" stroke-linecap="round" stroke-linejoin="round"/>
    <path d="M 20.20115089416504 0.3117162883281708 C 17.521657943725586 10.311716079711914 10.201150894165039 17.63222312927246 0.2011510580778122 20.311716079711914 C -9.798849105834961 17.63222312927246 -17.119356155395508 10.311716079711914 -19.79884910583496 0.3117162883281708 C -17.119356155395508 -9.688283920288086 -9.798849105834961 -17.008790969848633 0.2011510580778122 -19.688283920288086 C 10.201150894165039 -17.008790969848633 17.521657943725586 -9.688283920288086 20.20115089416504 0.3117162883281708" stroke-width="0.0" fill="rgb(162, 156, 16)" opacity="0.7450507" stroke="rgb(188, 130, 173)" stroke-opacity="0.0416729" stroke-linecap="round" stroke-linejoin="round"/>
    <path d="M 230.34674072265625 518.9988403320312 C 218.20204162597656 496.57757568359375 235.85218811035156 485.5165100097656 205.9715118408203 477.0130615234375 C 167.33189392089844 492.4805603027344 191.8895263671875 515.85400390625 181.2305450439453 498.6856384277344 C 217.6163330078125 451.60980224609375 148.38323974609375 412.0600280761719 226.80575561523438 412.836181640625 C 242.94044494628906 440.4896545410156 202.28338623046875 432.22412109375 230.34674072265625 518.9988403320312" stroke-width="0.0" fill="rgb(117, 45, 1)" opacity="0.9906952"/>
    <path d="M 461.446044921875 429.7983093261719 C 437.73516845703125 460.17645263671875 463.657958984375 443.8670654296875 408.86505126953125 462.1284484863281 C 411.38726806640625 418.564697265625 452.4613342285156 414.0549011230469 445.7448425292969 367.17694091796875 C 375.0555419921875 346.63433837890625 358.08319091796875 315.2743225097656 430.4287414550781 326.01873779296875 C 490.8945617675781 370.8501281738281 506.48590087890625 377.44671630859375 461.446044921875 429.7983093261719" stroke-width="0.0" fill="rgb(143, 49, 2)" opacity="0.97807944"/>
    <path d="M 486.8929138183594 209.75965881347656 C 458.81494140625 184.59054565429688 533.2747802734375 217.2886505126953 461.5819091796875 215.80267333984375 C 422.6661682128906 231.6069793701172 451.4277038574219 226.4456787109375 503.0954895019531 229.89669799804688 C 437.10333251953125 211.1331787109375 423.29046630859375 240.0725555419922 465.9371337890625 176.1193084716797 C 574.5880126953125 170.3834686279297 492.45257568359375 236.56405639648438 486.8929138183594 209.75965881347656" stroke-width="0.0" fill="rgb(48, 220, 147)" opacity="0.120106325"/>
    <path d="M 236.76573181152344 89.62376403808594 C 164.74777221679688 129.94363403320312 72.28458404541016 113.94274139404297 104.33077239990234 87.19865417480469 C 59.18795394897461 86.94215393066406 40.31916809082031 81.21073150634766 -22.77145767211914 111.22113800048828 C 34.34019470214844 99.46530151367188 52.94356155395508 86.93614196777344 42.90056228637695 74.65556335449219 C 61.06974411010742 77.25596618652344 158.67926025390625 63.27128601074219 236.76573181152344 89.62376403808594" stroke-width="0.0" fill="rgb(173, 252, 215)" opacity="0.17967"/>
    <path d="M 256.9005432128906 235.31201171875 C 257.9189453125 240.3462677001953 321.6969909667969 303.6256408691406 350.7168273925781 232.40234375 C 327.31146240234375 265.7016296386719 261.1394348144531 278.41558837890625 252.90623474121094 233.3351593017578 C 265.5635986328125 250.82492065429688 341.7296447753906 251.2869415283203 297.3381652832031 247.53195190429688 C 314.16094970703125 245.55186462402344 321.4764709472656 254.60464477539062 256.9005432128906 235.31201171875" stroke-width="0.0" fill="rgb(58, 0, 43)" opacity="1.0"/>
    <path d="M 627.4675903320312 68.0728759765625 C 464.70135498046875 60.19428253173828 452.891357421875 35.41801834106445 459.66357421875 115.2144775390625 C 423.5832214355469 101.46446990966797 383.9700622558594 100.45843505859375 327.7978210449219 52.43824768066406 C 266.80889892578125 -6.93223762512207 367.4354248046875 -98.86949920654297 476.9248046875 -30.849794387817383 C 649.1681518554688 3.939074993133545 667.7398681640625 -21.097599029541016 627.4675903320312 68.0728759765625" stroke-width="0.0" fill="rgb(181, 240, 225)" opacity="1.0"/>
    <path d="M 488.58935546875 370.8018798828125 C 433.6212463378906 377.3323059082031 453.7986145019531 384.512939453125 448.5385437011719 419.3204650878906 C 460.159423828125 376.1262512207031 455.6758117675781 380.738037109375 326.44573974609375 294.42926025390625 C 376.66607666015625 265.6632995605469 395.4202880859375 276.8271789550781 461.8872375488281 329.3108215332031 C 487.0707092285156 350.5995178222656 491.0304260253906 393.2052917480469 488.58935546875 370.8018798828125" stroke-width="0.0" fill="rgb(149, 42, 1)" opacity="0.99814284"/>
    <path d="M 20.37897300720215 0.985308825969696 C 17.699480056762695 10.985308647155762 10.378973007202148 18.305816650390625 0.378973126411438 20.985309600830078 C -9.621026992797852 18.305816650390625 -16.9415340423584 10.985308647155762 -19.62102699279785 0.985308825969696 C -16.9415340423584 -9.014691352844238 -9.621026992797852 -16.33519744873047 0.378973126411438 -19.014690399169922 C 10.378973007202148 -16.33519744873047 17.699480056762695 -9.014691352844238 20.37897300720215 0.985308825969696" stroke-width="0.0" fill="rgb(117, 105, 165)" opacity="0.71868193" stroke="rgb(130, 205, 117)" stroke-opacity="0.05195658" stroke-linecap="round" stroke-linejoin="round"/>
    <path d="M 20.878009796142578 0.9469494223594666 C 18.198516845703125 10.946949005126953 10.878009796142578 18.2674560546875 0.8780096173286438 20.946949005126953 C -9.121990203857422 18.2674560546875 -16.44249725341797 10.946949005126953 -19.121990203857422 0.9469494223594666 C -16.44249725341797 -9.053050994873047 -9.121990203857422 -16.373558044433594 0.8780096173286438 -19.053050994873047 C 10.878009796142578 -16.373558044433594 18.198516845703125 -9.053050994873047 20.878009796142578 0.9469494223594666" stroke-width="0.0" fill="rgb(14, 253, 14)" opacity="0.99510366" stroke="rgb(60, 36, 30)" stroke-opacity="0.30327514" stroke-linecap="round" stroke-linejoin="round"/>
    <path d="M 20.859636306762695 0.07085735350847244 C 18.180143356323242 10.070857048034668 10.859635353088379 17.39136505126953 0.8596354126930237 20.070858001708984 C -9.140364646911621 17.39136505126953 -16.46087074279785 10.070857048034668 -19.140363693237305 0.07085735350847244 C -16.46087074279785 -9.929142951965332 -9.140364646911621 -17.249649047851562 0.8596354126930237 -19.929141998291016 C 10.859635353088379 -17.249649047851562 18.180143356323242 -9.929142951965332 20.859636306762695 0.07085735350847244" stroke-width="0.0" fill="rgb(214, 185, 197)" opacity="0.7532286" stroke="rgb(138, 251, 239)" stroke-opacity="0.043173734" stroke-linecap="round" stroke-linejoin="round"/>
    <path d="M 20.76583480834961 0.12839145958423615 C 18.086341857910156 10.12839126586914 10.76583480834961 17.448898315429688 0.7658344507217407 20.12839126586914 C -9.23416519165039 17.448898315429688 -16.554672241210938 10.12839126586914 -19.23416519165039 0.12839145958423615 C -16.554672241210938 -9.87160873413086 -9.23416519165039 -17.192115783691406 0.7658344507217407 -19.87160873413086 C 10.76583480834961 -17.192115783691406 18.086341857910156 -9.87160873413086 20.76583480834961 0.12839145958423615" stroke-width="0.0" fill="rgb(187, 196, 2)" opacity="0.84440327" stroke="rgb(4, 66, 193)" stroke-opacity="0.13710971" stroke-linecap="round" stroke-linejoin="round"/>
    <path d="M 377.7648620605469 -10.58181095123291 C 166.91090393066406 5.326308727264404 176.1792755126953 -4.915091037750244 186.00357055664062 -22.42848014831543 C 182.2165985107422 -3.5169901847839355 195.26629638671875 -2.31549334526062 -32.79600143432617 -33.15237808227539 C 161.51535034179688 -14.817011833190918 200.19093322753906 5.7126922607421875 187.60118103027344 -8.279816627502441 C 174.76580810546875 -20.784114837646484 189.94375610351562 -21.366710662841797 377.7648620605469 -10.58181095123291" stroke-width="0.0" fill="rgb(116, 230, 105)" opacity="0.39520302"/>
    <path d="M 20.26520347595215 0.784070611000061 C 17.585710525512695 10.78407096862793 10.265203475952148 18.104578018188477 0.265203058719635 20.78407096862793 C -9.734796524047852 18.104578018188477 -17.0553035736084 10.78407096862793 -19.73479652404785 0.784070611000061 C -17.0553035736084 -9.21592903137207 -9.734796524047852 -16.536436080932617 0.265203058719635 -19.21592903137207 C 10.265203475952148 -16.536436080932617 17.585710525512695 -9.21592903137207 20.26520347595215 0.784070611000061" stroke-width="0.0" fill="rgb(200, 51, 65)" opacity="0.7990645" stroke="rgb(192, 132, 52)" stroke-opacity="0.8778301" stroke-linecap="round" stroke-linejoin="round"/>
    <path d="M 20.455007553100586 0.4230074882507324 C 17.775514602661133 10.42300796508789 10.455008506774902 17.743515014648438 0.4550083577632904 20.42300796508789 C -9.544991493225098 17.743515014648438 -16.86549949645996 10.42300796508789 -19.544992446899414 0.4230074882507324 C -16.86549949645996 -9.57699203491211 -9.544991493225098 -16.897499084472656 0.4550083577632904 -19.57699203491211 C 10.455008506774902 -16.897499084472656 17.775514602661133 -9.57699203491211 20.455007553100586 0.4230074882507324" stroke-width="0.0" fill="rgb(224, 221, 60)" opacity="0.99549687" stroke="rgb(196, 6, 16)" stroke-opacity="0.46393138" stroke-linecap="round" stroke-linejoin="round"/>
    <path d="M 472.16796875 49.36610794067383 C 393.1091003417969 74.6221694946289 572.2799072265625 28.00255584716797 657.5435791015625 74.87886047363281 C 372.5319519042969 76.6330337524414 444.237548828125 89.0076675415039 428.0283508300781 56.39179992675781 C 556.1810913085938 58.66841125488281 564.0216674804688 44.2181282043457 291.3646240234375 5.207244873046875 C 572.0489501953125 -2.763599395751953 574.2088623046875 40.88946533203125 472.16796875 49.36610794067383" stroke-width="0.0" fill="rgb(206, 223, 250)" opacity="0.22566094"/>
    <path d="M 20.4235782623291 0.46702465415000916 C 17.74408531188965 10.467024803161621 10.423578262329102 17.78753089904785 0.4235786199569702 20.467023849487305 C -9.576421737670898 17.78753089904785 -16.896928787231445 10.467024803161621 -19.5764217376709 0.46702465415000916 C -16.896928787231445 -9.532975196838379 -9.576421737670898 -16.853483200073242 0.4235786199569702 -19.532976150512695 C 10.423578262329102 -16.853483200073242 17.74408531188965 -9.532975196838379 20.4235782623291 0.46702465415000916" stroke-width="0.0" fill="rgb(0, 157, 90)" opacity="0.72789717" stroke="rgb(149, 122, 163)" stroke-opacity="0.06485359" stroke-linecap="round" stroke-linejoin="round"/>
    <path d="M 365.3801574707031 121.92053985595703 C 298.8245849609375 129.82717895507812 292.0733642578125 117.82685089111328 295.8758239746094 120.87454223632812 C 288.6902770996094 132.48239135742188 275.0341796875 148.09742736816406 318.0835266113281 115.21572875976562 C 224.84555053710938 131.58380126953125 221.0201416015625 79.78447723388672 279.05792236328125 65.42011260986328 C 381.8192443847656 61.46022415161133 345.3289489746094 125.23970794677734 365.3801574707031 121.92053985595703" stroke-width="0.0" fill="rgb(0, 2, 7)" opacity="0.99809504"/>
    <path d="M 676.178466796875 163.41836547851562 C 590.4349365234375 145.8372802734375 575.4719848632812 156.37991333007812 622.7328491210938 191.90122985839844 C 537.2146606445312 190.42454528808594 483.0694885253906 179.3727264404297 513.0016479492188 164.974853515625 C 484.88592529296875 135.13088989257812 554.133056640625 152.8327178955078 562.7769775390625 162.09324645996094 C 569.9287109375 161.40673828125 583.5440673828125 173.59246826171875 676.178466796875 163.41836547851562" stroke-width="0.0" fill="rgb(181, 249, 219)" opacity="0.52552336"/>
    <path d="M 414.0986633300781 504.7076416015625 C 405.8564453125 457.6221008300781 371.64141845703125 492.4737243652344 384.3604431152344 496.7873840332031 C 383.9262390136719 502.05987548828125 397.6986389160156 493.4901428222656 340.2098693847656 452.0633544921875 C 351.014892578125 401.6822814941406 340.6640319824219 460.457763671875 421.14776611328125 423.7111511230469 C 495.4166259765625 457.6515197753906 382.5342102050781 439.3013000488281 414.0986633300781 504.7076416015625" stroke-width="0.0" fill="rgb(246, 165, 91)" opacity="0.9889083"/>
    <path d="M 412.057861328125 424.9726867675781 C 364.1948547363281 441.61883544921875 398.88720703125 412.6003112792969 378.1065673828125 445.7595520019531 C 358.2574768066406 431.7707214355469 358.88958740234375 447.5660400390625 348.8365478515625 442.2527770996094 C 334.8200378417969 363.3001708984375 331.5676574707031 321.0586242675781 327.0445556640625 290.7388000488281 C 420.7523193359375 296.9017333984375 393.200927734375 352.734619140625 412.057861328125 424.9726867675781" stroke-width="0.0" fill="rgb(147, 68, 1)" opacity="0.99420696"/>
    <path d="M 20.875852584838867 0.26338905096054077 C 18.196359634399414 10.263388633728027 10.875852584838867 17.58389663696289 0.8758529424667358 20.263389587402344 C -9.124147415161133 17.58389663696289 -16.44465446472168 10.263388633728027 -19.124147415161133 0.26338905096054077 C -16.44465446472168 -9.736611366271973 -9.124147415161133 -17.057117462158203 0.8758529424667358 -19.736610412597656 C 10.875852584838867 -17.057117462158203 18.196359634399414 -9.736611366271973 20.875852584838867 0.26338905096054077" stroke-width="0.0" fill="rgb(170, 253, 168)" opacity="0.9191952" stroke="rgb(118, 15, 143)" stroke-opacity="0.95762527" stroke-linecap="round" stroke-linejoin="round"/>
    <path d="M 121.84700012207031 532.9927368164062 C 116.92736053466797 527.9300537109375 104.94297790527344 547.5541381835938 94.93508911132812 533.6810302734375 C 89.33306121826172 565.5763549804688 54.73965835571289 553.2228393554688 54.38337326049805 506.3136901855469 C 99.74617767333984 507.93170166015625 92.30985260009766 486.8874816894531 113.9607925415039 490.4218444824219 C 122.27741241455078 538.861083984375 134.9998779296875 544.5003662109375 121.84700012207031 532.9927368164062" stroke-width="0.0" fill="rgb(166, 241, 253)" opacity="0.44872624"/>
    <path d="M 202.1104736328125 528.3229370117188 C 257.5654602050781 592.3836059570312 222.8484344482422 585.2734375 156.9437713623047 576.2464599609375 C 54.65652084350586 564.3338623046875 -68.32540893554688 577.46240234375 -165.2375946044922 544.1754150390625 C 40.315093994140625 471.5933837890625 92.35745239257812 498.4227600097656 165.59751892089844 465.0108642578125 C 195.65509033203125 465.3170166015625 189.72129821777344 514.9578247070312 202.1104736328125 528.3229370117188" stroke-width="0.0" fill="rgb(181, 241, 227)" opacity="1.0"/>
    <path d="M 279.69525146484375 192.97401428222656 C 279.8813781738281 225.4778289794922 236.92713928222656 224.39947509765625 226.23419189453125 235.4985809326172 C 209.99307250976562 258.5031433105469 207.640625 258.21063232421875 208.24710083007812 226.6746063232422 C 223.0755157470703 205.10682678222656 230.8948974609375 191.9395294189453 252.65762329101562 184.0939483642578 C 261.44183349609375 178.1719970703125 271.844482421875 180.8223419189453 279.69525146484375 192.97401428222656" stroke-width="0.0" fill="rgb(29, 0, 2)" opacity="0.8757564"/>
    <path d="M 230.11456298828125 100.85608673095703 C 73.33523559570312 85.09170532226562 52.284645080566406 70.70848083496094 123.18403625488281 71.23194122314453 C 87.79031372070312 93.83477783203125 78.25531768798828 91.00837707519531 -125.17041778564453 35.217681884765625 C 80.48296356201172 22.32082176208496 160.09866333007812 19.236064910888672 114.2691879272461 41.97978210449219 C 83.51262664794922 30.94630241394043 167.39340209960938 76.376953125 230.11456298828125 100.85608673095703" stroke-width="0.0" fill="rgb(192, 229, 240)" opacity="0.08658708"/>
    <path d="M 598.240966796875 63.63376998901367 C 433.611328125 73.63774108886719 381.3022766113281 85.74148559570312 365.55706787109375 78.78656005859375 C 373.3946228027344 94.29710388183594 354.3586120605469 80.77327728271484 321.07391357421875 38.772369384765625 C 359.736083984375 54.605140686035156 372.9335021972656 58.5155029296875 388.4837646484375 59.32208251953125 C 373.97418212890625 60.60524368286133 387.48486328125 48.41023254394531 598.240966796875 63.63376998901367" stroke-width="0.0" fill="rgb(165, 252, 204)" opacity="0.18924342"/>
    <path d="M 20.995149612426758 0.6498780846595764 C 18.315656661987305 10.64987850189209 10.995149612426758 17.97038459777832 0.9951493740081787 20.649877548217773 C -9.004850387573242 17.97038459777832 -16.32535743713379 10.64987850189209 -19.004850387573242 0.6498780846595764 C -16.32535743713379 -9.35012149810791 -9.004850387573242 -16.670629501342773 0.9951493740081787 -19.350122451782227 C 10.995149612426758 -16.670629501342773 18.315656661987305 -9.35012149810791 20.995149612426758 0.6498780846595764" stroke-width="0.0" fill="rgb(21, 182, 18)" opacity="0.70363253" stroke="rgb(243, 188, 90)" stroke-opacity="0.29653558" stroke-linecap="round" stroke-linejoin="round"/>
    <path d="M 20.912628173828125 0.8705185651779175 C 18.233135223388672 10.870518684387207 10.912628173828125 18.191024780273438 0.9126278162002563 20.87051773071289 C -9.087371826171875 18.191024780273438 -16.407878875732422 10.870518684387207 -19.087371826171875 0.8705185651779175 C -16.407878875732422 -9.129481315612793 -9.087371826171875 -16.449989318847656 0.9126278162002563 -19.12948226928711 C 10.912628173828125 -16.449989318847656 18.233135223388672 -9.129481315612793 20.912628173828125 0.8705185651779175" stroke-width="0.0" fill="rgb(202, 236, 59)" opacity="0.7457248" stroke="rgb(253, 236, 137)" stroke-opacity="0.84203327" stroke-linecap="round" stroke-linejoin="round"/>
    <path d="M 20.968996047973633 0.9263669848442078 C 18.28950309753418 10.926366806030273 10.968996047973633 18.24687385559082 0.9689962863922119 20.926366806030273 C -9.031003952026367 18.24687385559082 -16.351511001586914 10.926366806030273 -19.031003952026367 0.9263669848442078 C -16.351511001586914 -9.073633193969727 -9.031003952026367 -16.394140243530273 0.9689962863922119 -19.073633193969727 C 10.968996047973633 -16.394140243530273 18.28950309753418 -9.073633193969727 20.968996047973633 0.9263669848442078" stroke-width="0.0" fill="rgb(245, 142, 238)" opacity="0.825638" stroke="rgb(66, 186, 250)" stroke-opacity="0.25653008" stroke-linecap="round" stroke-linejoin="round"/>
    <path d="M -4.481731414794922 520.7914428710938 C 15.02558708190918 536.40625 15.421832084655762 519.1861572265625 30.80911636352539 522.3882446289062 C 26.62917709350586 515.121337890625 -4.491827964782715 509.4313659667969 -82.52660369873047 494.7525329589844 C -43.59239196777344 473.3085632324219 23.18004035949707 475.20745849609375 82.3826904296875 481.7473449707031 C 86.54993438720703 521.9616088867188 43.36132049560547 524.6567993164062 -4.481731414794922 520.7914428710938" stroke-width="0.0" fill="rgb(182, 239, 228)" opacity="0.88258517"/>
    <path d="M 20.848695755004883 0.166311115026474 C 18.16920280456543 10.166311264038086 10.848695755004883 17.486818313598633 0.8486957550048828 20.166311264038086 C -9.151304244995117 17.486818313598633 -16.471811294555664 10.166311264038086 -19.151304244995117 0.166311115026474 C -16.471811294555664 -9.833688735961914 -9.151304244995117 -17.15419578552246 0.8486957550048828 -19.833688735961914 C 10.848695755004883 -17.15419578552246 18.16920280456543 -9.833688735961914 20.848695755004883 0.166311115026474" stroke-width="0.0" fill="rgb(166, 50, 144)" opacity="0.9916016" stroke="rgb(155, 89, 29)" stroke-opacity="0.15124683" stroke-linecap="round" stroke-linejoin="round"/>
    <path d="M 159.61233520507812 479.003173828125 C 98.37831115722656 525.6693115234375 36.57142639160156 488.98858642578125 101.571533203125 492.37408447265625 C 48.053279876708984 500.05426025390625 9.188555717468262 504.0854187011719 -55.015289306640625 500.0242614746094 C -32.359622955322266 458.9620361328125 -2.130314826965332 468.4841613769531 12.474699020385742 470.5476989746094 C 36.57110595703125 483.4267272949219 100.58977508544922 448.4906921386719 159.61233520507812 479.003173828125" stroke-width="0.0" fill="rgb(183, 238, 229)" opacity="0.52636355"/>
    <path d="M 178.36196899414062 458.9662780761719 C 196.83792114257812 515.7979125976562 107.14335632324219 479.63616943359375 45.08842849731445 496.9025573730469 C -8.354105949401855 463.3058166503906 -29.431547164916992 470.2907409667969 -57.01788330078125 450.6852722167969 C -8.06115436553955 436.12701416015625 -13.992039680480957 445.2983703613281 17.259347915649414 448.2850036621094 C 3.413808822631836 453.471923828125 20.135700225830078 462.4165344238281 178.36196899414062 458.9662780761719" stroke-width="0.0" fill="rgb(176, 238, 225)" opacity="0.32390475"/>
    <path d="M 20.298444747924805 0.6389495134353638 C 17.61895179748535 10.638949394226074 10.298444747924805 17.959457397460938 0.2984447777271271 20.63895034790039 C -9.701555252075195 17.959457397460938 -17.022062301635742 10.638949394226074 -19.701555252075195 0.6389495134353638 C -17.022062301635742 -9.361050605773926 -9.701555252075195 -16.681556701660156 0.2984447777271271 -19.36104965209961 C 10.298444747924805 -16.681556701660156 17.61895179748535 -9.361050605773926 20.298444747924805 0.6389495134353638" stroke-width="0.0" fill="rgb(132, 159, 22)" opacity="0.73831403" stroke="rgb(210, 199, 180)" stroke-opacity="0.03616038" stroke-linecap="round" stroke-linejoin="round"/>
    <path d="M 20.438100814819336 0.5175758600234985 C 17.758607864379883 10.517576217651367 10.43809986114502 17.838083267211914 0.43810006976127625 20.517576217651367 C -9.56190013885498 17.838083267211914 -16.88240623474121 10.517576217651367 -19.561899185180664 0.5175758600234985 C -16.88240623474121 -9.482423782348633 -9.56190013885498 -16.80293083190918 0.43810006976127625 -19.482423782348633 C 10.43809986114502 -16.80293083190918 17.758607864379883 -9.482423782348633 20.438100814819336 0.5175758600234985" stroke-width="0.0" fill="rgb(89, 197, 168)" opacity="0.7522328" stroke="rgb(25, 168, 194)" stroke-opacity="0.26504642" stroke-linecap="round" stroke-linejoin="round"/>
    <path d="M 355.6067810058594 463.22650146484375 C 349.4684753417969 470.5328369140625 358.53802490234375 464.04803466796875 339.0482177734375 464.6930847167969 C 323.4748840332031 463.4388122558594 309.24041748046875 447.3017272949219 302.3837890625 469.0308532714844 C 327.4995422363281 459.54949951171875 336.7176208496094 477.6180419921875 334.7054748535156 477.891845703125 C 326.898681640625 474.40850830078125 363.92156982421875 488.95068359375 355.6067810058594 463.22650146484375" stroke-width="0.0" fill="rgb(57, 1, 50)" opacity="0.70340896"/>
    <path d="M 693.0771484375 557.1683959960938 C 574.2517700195312 568.473876953125 527.456787109375 570.1069946289062 485.0133361816406 589.864013671875 C 496.49859619140625 572.2957153320312 369.47552490234375 570.4164428710938 400.63946533203125 534.6412963867188 C 446.25927734375 510.75762939453125 482.8646240234375 527.0375366210938 548.68408203125 531.009521484375 C 533.3958740234375 523.4720458984375 578.3846435546875 530.7296752929688 693.0771484375 557.1683959960938" stroke-width="0.0" fill="rgb(79, 207, 157)" opacity="0.45931378"/>
    <path d="M 20.485641479492188 0.2137472927570343 C 17.806148529052734 10.213747024536133 10.485641479492188 17.53425407409668 0.48564112186431885 20.213747024536133 C -9.514358520507812 17.53425407409668 -16.83486557006836 10.213747024536133 -19.514358520507812 0.2137472927570343 C -16.83486557006836 -9.786252975463867 -9.514358520507812 -17.106760025024414 0.48564112186431885 -19.786252975463867 C 10.485641479492188 -17.106760025024414 17.806148529052734 -9.786252975463867 20.485641479492188 0.2137472927570343" stroke-width="0.0" fill="rgb(57, 63, 216)" opacity="0.8570173" stroke="rgb(29, 219, 184)" stroke-opacity="0.06766836" stroke-linecap="round" stroke-linejoin="round"/>
    <path d="M 20.09693145751953 0.43105119466781616 C 17.417438507080078 10.431051254272461 10.096930503845215 17.751558303833008 0.09693081676959991 20.43105125427246 C -9.903069496154785 17.751558303833008 -17.223575592041016 10.431051254272461 -19.90306854248047 0.43105119466781616 C -17.223575592041016 -9.568948745727539 -9.903069496154785 -16.889455795288086 0.09693081676959991 -19.56894874572754 C 10.096930503845215 -16.889455795288086 17.417438507080078 -9.568948745727539 20.09693145751953 0.43105119466781616" stroke-width="0.0" fill="rgb(254, 93, 114)" opacity="0.96585876" stroke="rgb(151, 99, 105)" stroke-opacity="0.69561815" stroke-linecap="round" stroke-linejoin="round"/>
    <path d="M 154.91424560546875 491.7655944824219 C 153.87933349609375 520.3994140625 29.51109504699707 511.16180419921875 -27.960233688354492 515.7969360351562 C 8.959982872009277 486.72314453125 6.454455852508545 486.6371765136719 55.64191818237305 488.3771667480469 C 13.6129732131958 514.1249389648438 -9.186535835266113 521.5372924804688 -24.647523880004883 462.07476806640625 C 55.901695251464844 459.2723083496094 83.69644165039062 473.2157897949219 154.91424560546875 491.7655944824219" stroke-width="0.0" fill="rgb(181, 239, 229)" opacity="0.23025694"/>
    <path d="M 20.238004684448242 0.6689777970314026 C 17.55851173400879 10.668977737426758 10.238004684448242 17.989484786987305 0.2380046397447586 20.668977737426758 C -9.761995315551758 17.989484786987305 -17.082502365112305 10.668977737426758 -19.761995315551758 0.6689777970314026 C -17.082502365112305 -9.331022262573242 -9.761995315551758 -16.65152931213379 0.2380046397447586 -19.331022262573242 C 10.238004684448242 -16.65152931213379 17.55851173400879 -9.331022262573242 20.238004684448242 0.6689777970314026" stroke-width="0.0" fill="rgb(42, 33, 185)" opacity="0.7640534" stroke="rgb(128, 214, 186)" stroke-opacity="0.5422372" stroke-linecap="round" stroke-linejoin="round"/>
    <path d="M 20.249807357788086 0.9232655763626099 C 17.570314407348633 10.92326545715332 10.24980640411377 18.243772506713867 0.2498064488172531 20.92326545715332 C -9.75019359588623 18.243772506713867 -17.07069969177246 10.92326545715332 -19.750192642211914 0.9232655763626099 C -17.07069969177246 -9.07673454284668 -9.75019359588623 -16.397241592407227 0.2498064488172531 -19.07673454284668 C 10.24980640411377 -16.397241592407227 17.570314407348633 -9.07673454284668 20.249807357788086 0.9232655763626099" stroke-width="0.0" fill="rgb(34, 20, 185)" opacity="0.8310552" stroke="rgb(186, 195, 40)" stroke-opacity="0.61022514" stroke-linecap="round" stroke-linejoin="round"/>
    <path d="M 20.729076385498047 0.673364520072937 C 18.049583435058594 10.673364639282227 10.72907543182373 17.993871688842773 0.7290758490562439 20.673364639282227 C -9.27092456817627 17.993871688842773 -16.5914306640625 10.673364639282227 -19.270923614501953 0.673364520072937 C -16.5914306640625 -9.326635360717773 -9.27092456817627 -16.64714241027832 0.7290758490562439 -19.326635360717773 C 10.72907543182373 -16.64714241027832 18.049583435058594 -9.326635360717773 20.729076385498047 0.673364520072937" stroke-width="0.0" fill="rgb(147, 143, 142)" opacity="0.9029404" stroke="rgb(205, 68, 210)" stroke-opacity="0.49825567" stroke-linecap="round" stroke-linejoin="round"/>
    <path d="M 589.0568237304688 55.74867248535156 C 582.2565307617188 39.932579040527344 586.1670532226562 28.64150619506836 587.1859741210938 48.22508239746094 C 633.5720825195312 24.049272537231445 606.0745849609375 27.696012496948242 563.9467163085938 26.061784744262695 C 553.7705078125 65.23268127441406 623.5223388671875 60.615474700927734 611.796630859375 23.751712799072266 C 556.9263916015625 29.790023803710938 562.6652221679688 78.79631805419922 589.0568237304688 55.74867248535156" stroke-width="0.0" fill="rgb(240, 194, 245)" opacity="0.32437217"/>
    <path d="M 245.68702697753906 68.76701354980469 C 201.79510498046875 87.09799194335938 92.18769836425781 88.36402130126953 94.71504974365234 80.89920806884766 C 136.17091369628906 92.87481689453125 81.30541229248047 97.40150451660156 -55.1517219543457 106.61055755615234 C 96.72421264648438 104.87071990966797 119.93656921386719 105.15003204345703 91.72872924804688 53.66996383666992 C 104.34142303466797 47.67291259765625 189.2147979736328 48.680843353271484 245.68702697753906 68.76701354980469" stroke-width="0.0" fill="rgb(165, 255, 209)" opacity="0.0733803"/>
    <path d="M 104.59213256835938 474.5693664550781 C -9.290441513061523 466.7032165527344 -29.223617553710938 468.3448486328125 -30.124393463134766 479.7518615722656 C -3.1022489070892334 476.6905212402344 -9.663259506225586 469.21990966796875 -17.176761627197266 452.69635009765625 C -12.165942192077637 439.1269226074219 -7.055014610290527 439.5492248535156 -19.406898498535156 451.1358947753906 C 59.631195068359375 449.5989685058594 140.4860076904297 442.5182189941406 104.59213256835938 474.5693664550781" stroke-width="0.0" fill="rgb(189, 228, 236)" opacity="0.16091987"/>
    <path d="M 73.9405746459961 530.8153076171875 C 19.977306365966797 547.461669921875 2.1732895374298096 534.52294921875 10.480460166931152 533.7348022460938 C 20.21133804321289 545.8316650390625 14.571237564086914 571.5097045898438 4.068036079406738 528.5192260742188 C 36.35546875 534.0888061523438 53.42390823364258 525.6129150390625 25.815406799316406 538.8117065429688 C -17.43610382080078 525.7561645507812 -6.248003005981445 522.97802734375 73.9405746459961 530.8153076171875" stroke-width="0.0" fill="rgb(172, 234, 250)" opacity="0.03742008"/>
    <path d="M 20.4218807220459 0.2785451412200928 C 17.742387771606445 10.278545379638672 10.421881675720215 17.59905242919922 0.42188164591789246 20.278545379638672 C -9.578118324279785 17.59905242919922 -16.89862632751465 10.278545379638672 -19.5781192779541 0.2785451412200928 C -16.89862632751465 -9.721454620361328 -9.578118324279785 -17.041961669921875 0.42188164591789246 -19.721454620361328 C 10.421881675720215 -17.041961669921875 17.742387771606445 -9.721454620361328 20.4218807220459 0.2785451412200928" stroke-width="0.0" fill="rgb(239, 66, 109)" opacity="0.9525801" stroke="rgb(47, 204, 116)" stroke-opacity="0.48296887" stroke-linecap="round" stroke-linejoin="round"/>
    <path d="M 20.957317352294922 0.9954226613044739 C 18.27782440185547 10.99542236328125 10.957317352294922 18.315929412841797 0.9573176503181458 20.99542236328125 C -9.042682647705078 18.315929412841797 -16.363189697265625 10.99542236328125 -19.042682647705078 0.9954226613044739 C -16.363189697265625 -9.00457763671875 -9.042682647705078 -16.325084686279297 0.9573176503181458 -19.00457763671875 C 10.957317352294922 -16.325084686279297 18.27782440185547 -9.00457763671875 20.957317352294922 0.9954226613044739" stroke-width="0.0" fill="rgb(231, 137, 126)" opacity="0.89703405" stroke="rgb(209, 97, 197)" stroke-opacity="0.96447664" stroke-linecap="round" stroke-linejoin="round"/>
    <path d="M 558.26123046875 1.581780195236206 C 563.4716186523438 65.2752914428711 598.356201171875 38.24650955200195 478.8345031738281 21.12053871154785 C 515.3128051757812 40.88837814331055 498.644287109375 41.500579833984375 458.0394287109375 13.898459434509277 C 514.6087646484375 22.96660614013672 542.64990234375 23.07170295715332 551.7738647460938 32.56866455078125 C 493.0142822265625 6.092215061187744 523.3491821289062 0.1994277536869049 558.26123046875 1.581780195236206" stroke-width="0.0" fill="rgb(181, 239, 239)" opacity="0.07972"/>
    <path d="M 20.608970642089844 0.1528392732143402 C 17.92947769165039 10.152839660644531 10.608970642089844 17.473346710205078 0.6089702248573303 20.15283966064453 C -9.391029357910156 17.473346710205078 -16.711536407470703 10.152839660644531 -19.391029357910156 0.1528392732143402 C -16.711536407470703 -9.847160339355469 -9.391029357910156 -17.167667388916016 0.6089702248573303 -19.84716033935547 C 10.608970642089844 -17.167667388916016 17.92947769165039 -9.847160339355469 20.608970642089844 0.1528392732143402" stroke-width="0.0" fill="rgb(77, 67, 91)" opacity="0.9810873" stroke="rgb(141, 77, 101)" stroke-opacity="0.44720253" stroke-linecap="round" stroke-linejoin="round"/>
    <path d="M 107.35272216796875 504.38690185546875 C 98.24928283691406 512.3355102539062 77.0968246459961 537.9089965820312 178.06443786621094 509.234619140625 C 171.99581909179688 443.471923828125 109.68822479248047 458.09735107421875 -73.09257507324219 487.99908447265625 C 29.219371795654297 551.336669921875 98.68224334716797 523.7876586914062 124.95903778076172 510.7265319824219 C 126.94647216796875 477.1230163574219 126.99694061279297 498.80706787109375 107.35272216796875 504.38690185546875" stroke-width="0.0" fill="rgb(186, 232, 235)" opacity="0.30064234"/>
    <path d="M 20.214237213134766 0.1323118507862091 C 17.534744262695312 10.132311820983887 10.214237213134766 17.45281982421875 0.2142368108034134 20.132312774658203 C -9.785762786865234 17.45281982421875 -17.10626983642578 10.132311820983887 -19.785762786865234 0.1323118507862091 C -17.10626983642578 -9.867688179016113 -9.785762786865234 -17.188194274902344 0.2142368108034134 -19.867687225341797 C 10.214237213134766 -17.188194274902344 17.534744262695312 -9.867688179016113 20.214237213134766 0.1323118507862091" stroke-width="0.0" fill="rgb(150, 129, 75)" opacity="0.90666556" stroke="rgb(222, 162, 194)" stroke-opacity="0.16007164" stroke-linecap="round" stroke-linejoin="round"/>
    <path d="M 20.555768966674805 0.7184082865715027 C 17.87627601623535 10.718408584594727 10.555768013000488 18.038915634155273 0.5557683110237122 20.718408584594727 C -9.444231986999512 18.038915634155273 -16.764738082885742 10.718408584594727 -19.444231033325195 0.7184082865715027 C -16.764738082885742 -9.281591415405273 -9.444231986999512 -16.60209846496582 0.5557683110237122 -19.281591415405273 C 10.555768013000488 -16.60209846496582 17.87627601623535 -9.281591415405273 20.555768966674805 0.7184082865715027" stroke-width="0.0" fill="rgb(51, 133, 73)" opacity="0.873278" stroke="rgb(161, 203, 100)" stroke-opacity="0.9150901" stroke-linecap="round" stroke-linejoin="round"/>
    <path d="M 20.443130493164062 0.8613491058349609 C 17.76363754272461 10.861349105834961 10.443130493164062 18.181856155395508 0.4431307315826416 20.86134910583496 C -9.556869506835938 18.181856155395508 -16.877376556396484 10.861349105834961 -19.556869506835938 0.8613491058349609 C -16.877376556396484 -9.138650894165039 -9.556869506835938 -16.459157943725586 0.4431307315826416 -19.13865089416504 C 10.443130493164062 -16.459157943725586 17.76363754272461 -9.138650894165039 20.443130493164062 0.8613491058349609" stroke-width="0.0" fill="rgb(34, 191, 167)" opacity="0.7206874" stroke="rgb(14, 71, 66)" stroke-opacity="0.2469788" stroke-linecap="round" stroke-linejoin="round"/>
    <path d="M 20.121004104614258 0.22469733655452728 C 17.441511154174805 10.22469711303711 10.121004104614258 17.545204162597656 0.12100419402122498 20.22469711303711 C -9.878995895385742 17.545204162597656 -17.19950294494629 10.22469711303711 -19.878995895385742 0.22469733655452728 C -17.19950294494629 -9.77530288696289 -9.878995895385742 -17.095809936523438 0.12100419402122498 -19.77530288696289 C 10.121004104614258 -17.095809936523438 17.441511154174805 -9.77530288696289 20.121004104614258 0.22469733655452728" stroke-width="0.0" fill="rgb(5, 20, 246)" opacity="0.93076694" stroke="rgb(159, 97, 52)" stroke-opacity="0.121386416" stroke-linecap="round" stroke-linejoin="round"/>
    <path d="M 618.3922729492188 66.55406951904297 C 469.8867492675781 71.32611846923828 471.60479736328125 63.99979019165039 458.23748779296875 68.46440887451172 C 449.39349365234375 37.42123794555664 461.3651123046875 37.0132942199707 446.73779296875 26.564048767089844 C 454.01239013671875 21.872634887695312 472.56292724609375 55.95579528808594 431.6979675292969 7.828508377075195 C 530.9510498046875 -18.269561767578125 583.9745483398438 -26.74479103088379 618.3922729492188 66.55406951904297" stroke-width="0.0" fill="rgb(182, 237, 228)" opacity="0.8167069"/>
    <path d="M 20.338085174560547 0.5883086919784546 C 17.658592224121094 10.588308334350586 10.338085174560547 17.908815383911133 0.3380855619907379 20.588308334350586 C -9.661914825439453 17.908815383911133 -16.982421875 10.588308334350586 -19.661914825439453 0.5883086919784546 C -16.982421875 -9.411691665649414 -9.661914825439453 -16.73219871520996 0.3380855619907379 -19.411691665649414 C 10.338085174560547 -16.73219871520996 17.658592224121094 -9.411691665649414 20.338085174560547 0.5883086919784546" stroke-width="0.0" fill="rgb(156, 197, 164)" opacity="0.7125854" stroke="rgb(246, 203, 74)" stroke-opacity="0.97997034" stroke-linecap="round" stroke-linejoin="round"/>
    <path d="M 87.51457977294922 319.7903747558594 C 29.364051818847656 307.40283203125 -31.30597686767578 317.196533203125 11.81725025177002 337.3097229003906 C 23.238197326660156 320.32696533203125 25.451053619384766 309.2059020996094 -30.977054595947266 338.2550048828125 C 12.780259132385254 349.228271484375 53.996646881103516 338.05609130859375 43.19309616088867 351.1569519042969 C 75.85015106201172 353.53839111328125 121.35250854492188 370.98455810546875 87.51457977294922 319.7903747558594" stroke-width="0.0" fill="rgb(183, 241, 230)" opacity="0.29759052"/>
    <path d="M 20.01947593688965 0.9290986061096191 C 17.339982986450195 10.929098129272461 10.019476890563965 18.249605178833008 0.019476741552352905 20.92909812927246 C -9.980523109436035 18.249605178833008 -17.3010311126709 10.929098129272461 -19.98052406311035 0.9290986061096191 C -17.3010311126709 -9.070901870727539 -9.980523109436035 -16.391408920288086 0.019476741552352905 -19.07090187072754 C 10.019476890563965 -16.391408920288086 17.339982986450195 -9.070901870727539 20.01947593688965 0.9290986061096191" stroke-width="0.0" fill="rgb(124, 154, 195)" opacity="0.8507698" stroke="rgb(101, 37, 93)" stroke-opacity="0.068172306" stroke-linecap="round" stroke-linejoin="round"/>
    <path d="M 20.878721237182617 0.8316655158996582 C 18.199228286743164 10.8316650390625 10.878722190856934 18.152172088623047 0.8787218928337097 20.8316650390625 C -9.121277809143066 18.152172088623047 -16.44178581237793 10.8316650390625 -19.121278762817383 0.8316655158996582 C -16.44178581237793 -9.1683349609375 -9.121277809143066 -16.488842010498047 0.8787218928337097 -19.1683349609375 C 10.878722190856934 -16.488842010498047 18.199228286743164 -9.1683349609375 20.878721237182617 0.8316655158996582" stroke-width="0.0" fill="rgb(6, 34, 245)" opacity="0.98974663" stroke="rgb(110, 79, 129)" stroke-opacity="0.4395117" stroke-linecap="round" stroke-linejoin="round"/>
    <path d="M 144.19029235839844 481.0145263671875 C 48.58285140991211 481.4702453613281 0.8227468132972717 462.5151062011719 -31.607776641845703 455.7770690917969 C -5.689108371734619 464.8779602050781 -11.527172088623047 457.6322937011719 -16.384981155395508 448.0628662109375 C -11.700739860534668 438.2437438964844 -7.431414604187012 429.9697265625 -25.766796112060547 433.9485778808594 C 6.084596157073975 463.9588623046875 69.7972183227539 418.1830139160156 144.19029235839844 481.0145263671875" stroke-width="0.0" fill="rgb(182, 241, 220)" opacity="0.08937709"/>
    <path d="M -38.60927200317383 481.00750732421875 C -12.714393615722656 488.12066650390625 -7.8625617027282715 516.7136840820312 -0.19185379147529602 552.4764404296875 C 35.032676696777344 529.42822265625 37.23363494873047 519.6229248046875 -18.555204391479492 557.9846801757812 C 64.65737915039062 560.9077758789062 91.84513854980469 570.3806762695312 81.7267074584961 506.2048645019531 C 17.57461929321289 474.2029113769531 13.42351245880127 485.26275634765625 -38.60927200317383 481.00750732421875" stroke-width="0.0" fill="rgb(183, 237, 229)" opacity="0.40588644"/>
    <path d="M 20.230113983154297 0.22021739184856415 C 17.550621032714844 10.22021770477295 10.230114936828613 17.54072380065918 0.23011472821235657 20.220216751098633 C -9.769885063171387 17.54072380065918 -17.09039306640625 10.22021770477295 -19.769886016845703 0.22021739184856415 C -17.09039306640625 -9.77978229522705 -9.769885063171387 -17.100290298461914 0.23011472821235657 -19.779783248901367 C 10.230114936828613 -17.100290298461914 17.550621032714844 -9.77978229522705 20.230113983154297 0.22021739184856415" stroke-width="0.0" fill="rgb(153, 148, 190)" opacity="0.89694357" stroke="rgb(32, 86, 236)" stroke-opacity="0.22461562" stroke-linecap="round" stroke-linejoin="round"/>
    <path d="M 20.98416519165039 0.09841787070035934 C 18.304672241210938 10.098418235778809 10.98416519165039 17.41892433166504 0.9841651916503906 20.098417282104492 C -9.01583480834961 17.41892433166504 -16.336341857910156 10.098418235778809 -19.01583480834961 0.09841787070035934 C -16.336341857910156 -9.901581764221191 -9.01583480834961 -17.222089767456055 0.9841651916503906 -19.901582717895508 C 10.98416519165039 -17.222089767456055 18.304672241210938 -9.901581764221191 20.98416519165039 0.09841787070035934" stroke-width="0.0" fill="rgb(19, 14, 85)" opacity="0.9123043" stroke="rgb(201, 131, 112)" stroke-opacity="0.14745253" stroke-linecap="round" stroke-linejoin="round"/>
    <path d="M 20.40262222290039 0.33930259943008423 C 17.723129272460938 10.339303016662598 10.402621269226074 17.659809112548828 0.4026212692260742 20.33930206298828 C -9.597378730773926 17.659809112548828 -16.917884826660156 10.339303016662598 -19.59737777709961 0.33930259943008423 C -16.917884826660156 -9.660696983337402 -9.597378730773926 -16.981204986572266 0.4026212692260742 -19.66069793701172 C 10.402621269226074 -16.981204986572266 17.723129272460938 -9.660696983337402 20.40262222290039 0.33930259943008423" stroke-width="0.0" fill="rgb(83, 110, 22)" opacity="0.8794676" stroke="rgb(187, 254, 237)" stroke-opacity="0.6425652" stroke-linecap="round" stroke-linejoin="round"/>
    <path d="M 586.1781005859375 539.8419799804688 C 544.9929809570312 486.234619140625 486.638427734375 498.75177001953125 436.971435546875 511.3414306640625 C 478.31121826171875 519.3735961914062 466.0478820800781 505.5639343261719 446.0337219238281 505.12445068359375 C 443.0103454589844 531.7763671875 438.9106140136719 476.9243469238281 395.20654296875 494.7066345214844 C 385.3262634277344 565.8916625976562 428.7944030761719 551.1286010742188 586.1781005859375 539.8419799804688" stroke-width="0.0" fill="rgb(77, 211, 158)" opacity="0.33232403"/>
    <path d="M 20.08565330505371 0.4859904646873474 C 17.406160354614258 10.485990524291992 10.085653305053711 17.80649757385254 0.08565345406532288 20.485990524291992 C -9.914346694946289 17.80649757385254 -17.234853744506836 10.485990524291992 -19.91434669494629 0.4859904646873474 C -17.234853744506836 -9.514009475708008 -9.914346694946289 -16.834516525268555 0.08565345406532288 -19.514009475708008 C 10.085653305053711 -16.834516525268555 17.406160354614258 -9.514009475708008 20.08565330505371 0.4859904646873474" stroke-width="0.0" fill="rgb(25, 176, 15)" opacity="0.9990091" stroke="rgb(207, 156, 78)" stroke-opacity="0.6238958" stroke-linecap="round" stroke-linejoin="round"/>
    <path d="M 20.762510299682617 0.5393790006637573 C 18.083017349243164 10.539379119873047 10.762510299682617 17.859886169433594 0.7625107765197754 20.539379119873047 C -9.237489700317383 17.859886169433594 -16.55799674987793 10.539379119873047 -19.237489700317383 0.5393790006637573 C -16.55799674987793 -9.460620880126953 -9.237489700317383 -16.7811279296875 0.7625107765197754 -19.460620880126953 C 10.762510299682617 -16.7811279296875 18.083017349243164 -9.460620880126953 20.762510299682617 0.5393790006637573" stroke-width="0.0" fill="rgb(153, 131, 234)" opacity="0.9976474" stroke="rgb(217, 53, 237)" stroke-opacity="0.1163664" stroke-linecap="round" stroke-linejoin="round"/>
    <path d="M 443.1813049316406 547.322998046875 C 450.1327209472656 560.6298217773438 449.19415283203125 534.3414916992188 463.5537109375 574.7776489257812 C 467.2344055175781 524.5072021484375 461.13153076171875 527.574951171875 438.6129455566406 529.5477294921875 C 404.871826171875 514.4107055664062 422.02069091796875 563.24560546875 456.66845703125 570.7786865234375 C 466.9940490722656 522.0621948242188 457.32635498046875 517.6452026367188 443.1813049316406 547.322998046875" stroke-width="0.0" fill="rgb(88, 207, 183)" opacity="0.25224516"/>
    <path d="M 20.475282669067383 0.549803614616394 C 17.79578971862793 10.549803733825684 10.475282669067383 17.870309829711914 0.47528237104415894 20.549802780151367 C -9.524717330932617 17.870309829711914 -16.845224380493164 10.549803733825684 -19.524717330932617 0.549803614616394 C -16.845224380493164 -9.450196266174316 -9.524717330932617 -16.77070426940918 0.47528237104415894 -19.450197219848633 C 10.475282669067383 -16.77070426940918 17.79578971862793 -9.450196266174316 20.475282669067383 0.549803614616394" stroke-width="0.0" fill="rgb(136, 54, 3)" opacity="0.99276215" stroke="rgb(204, 244, 124)" stroke-opacity="0.1097362" stroke-linecap="round" stroke-linejoin="round"/>
    <path d="M 20.86167335510254 0.24865633249282837 C 18.182180404663086 10.248656272888184 10.861672401428223 17.569164276123047 0.8616725206375122 20.2486572265625 C -9.138327598571777 17.569164276123047 -16.458833694458008 10.248656272888184 -19.13832664489746 0.24865633249282837 C -16.458833694458008 -9.751343727111816 -9.138327598571777 -17.071849822998047 0.8616725206375122 -19.7513427734375 C 10.861672401428223 -17.071849822998047 18.182180404663086 -9.751343727111816 20.86167335510254 0.24865633249282837" stroke-width="0.0" fill="rgb(107, 162, 200)" opacity="0.82297146" stroke="rgb(214, 97, 145)" stroke-opacity="0.5877694" stroke-linecap="round" stroke-linejoin="round"/>
    <path d="M 20.778627395629883 0.5303536653518677 C 18.09913444519043 10.530353546142578 10.778626441955566 17.850860595703125 0.7786265015602112 20.530353546142578 C -9.221373558044434 17.850860595703125 -16.541879653930664 10.530353546142578 -19.221372604370117 0.5303536653518677 C -16.541879653930664 -9.469646453857422 -9.221373558044434 -16.79015350341797 0.7786265015602112 -19.469646453857422 C 10.778626441955566 -16.79015350341797 18.09913444519043 -9.469646453857422 20.778627395629883 0.5303536653518677" stroke-width="0.0" fill="rgb(208, 97, 223)" opacity="0.94177765" stroke="rgb(201, 77, 20)" stroke-opacity="0.40298018" stroke-linecap="round" stroke-linejoin="round"/>
  </g>
</svg>
