<?xml version="1.0" ?>
<svg xmlns="http://www.w3.org/2000/svg" version="1.1" width="600" height="600">
  <defs/>
  <g>
    <path d="M 619.6119995117188 305.55682373046875 C 626.7667846679688 405.4271545410156 622.1936645507812 419.78173828125 402.4476013183594 391.1792907714844 C 340.0429992675781 429.7967529296875 345.20477294921875 391.3392639160156 376.257080078125 238.65414428710938 C 463.70257568359375 238.53440856933594 457.46185302734375 239.33450317382812 471.4876708984375 200.57843017578125 C 646.2681274414062 200.50144958496094 642.2998657226562 179.7077178955078 619.6119995117188 305.55682373046875" stroke-width="0.0" fill="rgb(112, 114, 121)" opacity="0.9099531"/>
    <path d="M 222.94314575195312 238.55880737304688 C 256.5757141113281 364.2257995605469 216.73281860351562 405.29864501953125 173.09982299804688 449.1724548339844 C -47.1375617980957 464.91998291015625 -36.079891204833984 446.7579345703125 -16.86104393005371 296.3077087402344 C -47.38300323486328 173.84645080566406 -60.2337760925293 149.23782348632812 72.55671691894531 139.11471557617188 C 181.8411407470703 214.79098510742188 159.44346618652344 257.299560546875 222.94314575195312 238.55880737304688" stroke-width="0.0" fill="rgb(123, 125, 131)" opacity="1.0"/>
    <path d="M 471.5451965332031 450.00439453125 C 409.55377197265625 580.043701171875 397.98785400390625 553.1222534179688 297.092529296875 561.5223388671875 C 204.170166015625 554.4142456054688 182.7001190185547 579.841064453125 172.2779998779297 503.8057861328125 C 169.3625946044922 511.9380798339844 204.7310028076172 454.9278869628906 348.16448974609375 468.1614990234375 C 330.5627746582031 409.8269958496094 464.1163024902344 414.08795166015625 471.5451965332031 450.00439453125" stroke-width="0.0" fill="rgb(14, 53, 87)" opacity="0.73799396"/>
    <path d="M 391.24407958984375 51.49403381347656 C 377.20770263671875 108.85469055175781 385.1966857910156 93.97134399414062 323.865966796875 86.04940795898438 C 243.73165893554688 89.656005859375 222.95936584472656 104.75467681884766 171.70635986328125 68.23999786376953 C 178.5691375732422 41.81870651245117 206.18502807617188 48.10521697998047 301.6220703125 46.112220764160156 C 394.0858459472656 46.252601623535156 421.1524353027344 43.98982238769531 391.24407958984375 51.49403381347656" stroke-width="0.0" fill="rgb(95, 93, 88)" opacity="0.590361"/>
    <path d="M 168.88125610351562 220.71725463867188 C 351.950927734375 163.72023010253906 237.64828491210938 196.30319213867188 241.93321228027344 343.75579833984375 C 39.60607147216797 356.2129211425781 0.4528910219669342 281.692138671875 -20.487789154052734 41.52577209472656 C -4.024953365325928 -44.88911056518555 4.745839595794678 -46.05680847167969 342.9028625488281 -11.828405380249023 C 461.7552490234375 118.4057846069336 313.7202453613281 79.7042007446289 168.88125610351562 220.71725463867188" stroke-width="0.0" fill="rgb(122, 124, 133)" opacity="0.96933895"/>
    <path d="M 505.4218444824219 158.01239013671875 C 518.519287109375 220.16763305664062 485.68402099609375 217.7711639404297 448.8864440917969 183.41452026367188 C 382.47052001953125 175.69175720214844 384.02520751953125 161.00277709960938 370.4315185546875 127.86493682861328 C 368.2647399902344 101.6240005493164 366.10595703125 80.4260025024414 458.0018005371094 43.5323600769043 C 495.4874267578125 41.9666633605957 490.56195068359375 53.21457290649414 505.4218444824219 158.01239013671875" stroke-width="0.0" fill="rgb(170, 173, 160)" opacity="0.12884934"/>
    <path d="M 456.899658203125 24.28411293029785 C 361.6788635253906 111.39857482910156 370.43048095703125 135.4555206298828 356.47686767578125 178.5819549560547 C 343.62841796875 129.04339599609375 308.46502685546875 150.0546875 287.8057556152344 135.241455078125 C 330.9590148925781 149.230224609375 351.3039855957031 87.60340881347656 436.126708984375 65.4249038696289 C 455.9215087890625 43.600975036621094 474.0408935546875 43.88379669189453 456.899658203125 24.28411293029785" stroke-width="0.0" fill="rgb(10, 13, 19)" opacity="0.9978107"/>
    <path d="M 481.38897705078125 205.06121826171875 C 492.430908203125 289.9651184082031 522.0682983398438 339.1403503417969 375.4036865234375 378.3880615234375 C 255.59408569335938 329.1388244628906 250.01564025878906 338.1538391113281 248.49424743652344 221.15567016601562 C 361.9425964355469 146.58560180664062 387.1083984375 174.9235076904297 421.0745544433594 172.64450073242188 C 448.3257751464844 164.6648712158203 481.11932373046875 145.61520385742188 481.38897705078125 205.06121826171875" stroke-width="0.0" fill="rgb(72, 56, 3)" opacity="0.059338294"/>
    <path d="M 429.3475341796875 173.86459350585938 C 433.7835693359375 192.7770233154297 429.30340576171875 202.96905517578125 379.6847229003906 223.166015625 C 353.0119323730469 181.35707092285156 355.3872375488281 176.35147094726562 348.5884704589844 158.59095764160156 C 319.8757019042969 132.1436004638672 364.8183288574219 125.31262969970703 393.4451904296875 112.23152923583984 C 404.74896240234375 124.72327423095703 408.7662048339844 136.5952911376953 429.3475341796875 173.86459350585938" stroke-width="0.0" fill="rgb(70, 33, 20)" opacity="1.0"/>
    <path d="M 335.7483215332031 143.29612731933594 C 214.33135986328125 132.88453674316406 267.54144287109375 173.05886840820312 227.56834411621094 207.18304443359375 C 202.98403930664062 288.19549560546875 162.968017578125 202.0517578125 207.96241760253906 81.3868637084961 C 165.1062774658203 64.36466979980469 170.46524047851562 67.03719329833984 223.41612243652344 87.13602447509766 C 211.43186950683594 115.3291015625 226.93299865722656 128.82948303222656 335.7483215332031 143.29612731933594" stroke-width="0.0" fill="rgb(58, 22, 8)" opacity="0.93807197"/>
    <path d="M 397.3074951171875 308.6083679199219 C 417.3986511230469 470.256103515625 382.0132141113281 538.055419921875 188.36766052246094 529.4169921875 C 170.910888671875 525.4180908203125 193.60818481445312 456.6072082519531 227.50079345703125 290.62921142578125 C 289.0715637207031 407.4436950683594 214.91461181640625 449.63275146484375 264.30438232421875 464.6545104980469 C 381.9170837402344 499.2581787109375 331.7707824707031 424.0352478027344 397.3074951171875 308.6083679199219" stroke-width="0.0" fill="rgb(87, 37, 0)" opacity="0.45856366"/>
    <path d="M 62.056312561035156 496.81158447265625 C 87.68963623046875 579.6458740234375 140.4412384033203 557.0205078125 65.54839324951172 560.4007568359375 C -38.72382736206055 558.1322631835938 -31.379669189453125 573.218994140625 -23.201749801635742 495.2777404785156 C -32.37080001831055 404.93792724609375 -46.096160888671875 382.1946716308594 21.177915573120117 383.3963928222656 C 49.0356330871582 412.67474365234375 12.326623916625977 433.2746887207031 62.056312561035156 496.81158447265625" stroke-width="0.0" fill="rgb(106, 115, 139)" opacity="0.55200213"/>
    <path d="M 629.1250610351562 123.22624969482422 C 639.0370483398438 235.82130432128906 640.1295776367188 239.722412109375 513.6008911132812 250.49072265625 C 448.0602722167969 265.9533386230469 480.95703125 190.36587524414062 276.5147399902344 128.4680938720703 C 303.5013427734375 -20.53174591064453 313.3368225097656 -41.33389663696289 438.9050598144531 -18.691917419433594 C 684.476806640625 -12.19272518157959 660.1649169921875 8.683310508728027 629.1250610351562 123.22624969482422" stroke-width="0.0" fill="rgb(106, 100, 83)" opacity="0.13601546"/>
    <path d="M 250.20843505859375 427.7719421386719 C 354.281982421875 674.309326171875 334.9261474609375 668.5136108398438 122.2991943359375 638.9111938476562 C -39.606258392333984 615.4560546875 -21.21713638305664 593.7671508789062 5.632003307342529 505.98919677734375 C 23.53571891784668 432.0836181640625 31.532663345336914 439.1827392578125 195.00131225585938 317.88287353515625 C 296.2356262207031 285.515380859375 246.950927734375 286.160400390625 250.20843505859375 427.7719421386719" stroke-width="0.0" fill="rgb(210, 193, 162)" opacity="0.2718562"/>
    <path d="M 623.9375 444.30059814453125 C 619.3436889648438 540.3692626953125 610.404052734375 545.3340454101562 547.2721557617188 541.746826171875 C 414.78265380859375 564.9596557617188 393.72833251953125 591.670654296875 347.95343017578125 407.2231140136719 C 342.68072509765625 267.64581298828125 379.25238037109375 274.071044921875 456.03369140625 371.8140563964844 C 613.0634155273438 395.1973876953125 626.9935302734375 387.2287902832031 623.9375 444.30059814453125" stroke-width="0.0" fill="rgb(112, 102, 100)" opacity="0.7538283"/>
    <path d="M 620.1249389648438 563.2484130859375 C 614.5086059570312 627.6199340820312 604.5728759765625 629.0905151367188 495.35980224609375 624.4840087890625 C 357.80792236328125 665.1522216796875 284.6500244140625 724.7699584960938 275.3432312011719 584.3635864257812 C 425.2508850097656 460.0378112792969 423.4001159667969 447.2965393066406 503.9552917480469 460.33685302734375 C 606.1280517578125 469.2068786621094 616.4360961914062 478.7887268066406 620.1249389648438 563.2484130859375" stroke-width="0.0" fill="rgb(51, 86, 120)" opacity="0.07401301"/>
    <path d="M 89.302490234375 340.868896484375 C 91.65248107910156 357.9293518066406 111.34209442138672 389.29779052734375 85.08505249023438 385.194091796875 C 81.65328979492188 377.01025390625 71.18710327148438 344.4644775390625 70.27369689941406 335.5556945800781 C 71.78205108642578 328.61871337890625 56.22227096557617 311.5506286621094 84.9446792602539 274.01690673828125 C 81.55423736572266 338.5312805175781 96.85557556152344 357.6687316894531 89.302490234375 340.868896484375" stroke-width="0.0" fill="rgb(3, 4, 3)" opacity="0.99932903"/>
    <path d="M 530.111572265625 304.04583740234375 C 543.3583984375 319.7748718261719 493.8078308105469 473.9525146484375 419.8656005859375 486.1280517578125 C 530.4368286132812 370.87017822265625 510.4845275878906 311.95269775390625 517.683349609375 263.3524169921875 C 511.84075927734375 313.7925109863281 520.6363525390625 292.7980651855469 504.1246337890625 227.8838653564453 C 536.6275634765625 223.5678253173828 536.0284423828125 327.00201416015625 530.111572265625 304.04583740234375" stroke-width="0.0" fill="rgb(0, 0, 0)" opacity="0.97675276"/>
    <path d="M 620.3512573242188 579.9027099609375 C 591.080322265625 611.16650390625 575.6094970703125 612.370361328125 563.1490478515625 617.2501831054688 C 549.4883422851562 617.7413940429688 486.14581298828125 711.4202270507812 196.50112915039062 564.7044067382812 C 311.8935852050781 566.1144409179688 373.75543212890625 564.4418334960938 495.0378723144531 564.94384765625 C 620.1290893554688 566.0313720703125 623.0501098632812 560.9029541015625 620.3512573242188 579.9027099609375" stroke-width="0.0" fill="rgb(101, 103, 110)" opacity="0.89404994"/>
    <path d="M 420.4962463378906 513.1546630859375 C 393.6898498535156 538.1250610351562 324.70745849609375 563.5420532226562 304.0960693359375 558.0123901367188 C 310.4530944824219 565.802001953125 181.2470245361328 552.9322509765625 146.2061309814453 467.77069091796875 C 259.62298583984375 572.6846313476562 337.27593994140625 535.7338256835938 353.6910400390625 532.0718383789062 C 393.8659973144531 518.4082641601562 401.7669677734375 498.7629699707031 420.4962463378906 513.1546630859375" stroke-width="0.0" fill="rgb(0, 0, 0)" opacity="0.97180814"/>
    <path d="M 519.3934326171875 226.27099609375 C 516.0846557617188 232.28758239746094 540.6268920898438 253.8931884765625 513.8792724609375 267.8292236328125 C 502.08038330078125 226.52374267578125 495.8395690917969 219.7708740234375 487.9583740234375 203.5650177001953 C 452.81243896484375 145.97494506835938 452.4867248535156 173.50445556640625 453.5320129394531 137.0233154296875 C 503.45703125 172.44020080566406 521.0241088867188 239.31240844726562 519.3934326171875 226.27099609375" stroke-width="0.0" fill="rgb(2, 1, 0)" opacity="0.9947444"/>
    <path d="M 146.51939392089844 157.88124084472656 C 57.47626876831055 148.5974578857422 35.218318939208984 166.00225830078125 56.77839279174805 157.8285675048828 C 88.61491394042969 153.685791015625 99.21736907958984 156.34130859375 -63.26449966430664 154.74517822265625 C 63.733829498291016 164.93682861328125 69.25019836425781 154.77996826171875 59.9144287109375 158.41156005859375 C 48.665008544921875 158.30404663085938 36.810543060302734 161.13787841796875 146.51939392089844 157.88124084472656" stroke-width="0.0" fill="rgb(251, 251, 253)" opacity="0.96079975"/>
    <path d="M 84.18395233154297 279.7063293457031 C 98.15874481201172 226.9202423095703 85.5595703125 247.77679443359375 82.36128234863281 321.5508117675781 C 61.5211181640625 333.5451965332031 65.91773986816406 293.062744140625 70.0179214477539 257.5771179199219 C 70.65907287597656 269.3630676269531 76.46308135986328 193.90968322753906 144.86373901367188 136.43833923339844 C 162.1855926513672 170.06686401367188 107.8741226196289 159.96815490722656 84.18395233154297 279.7063293457031" stroke-width="0.0" fill="rgb(0, 0, 0)" opacity="0.97100914"/>
    <path d="M 128.97691345214844 497.9579772949219 C 126.00531768798828 491.5283203125 118.32820129394531 498.24737548828125 118.78614044189453 498.82415771484375 C 129.35195922851562 502.7125244140625 119.19402313232422 499.3258972167969 110.26210021972656 495.15631103515625 C 110.31063079833984 489.020263671875 114.72933959960938 482.710205078125 117.18254089355469 490.71136474609375 C 122.17062377929688 496.2807312011719 128.91061401367188 503.84326171875 128.97691345214844 497.9579772949219" stroke-width="0.0" fill="rgb(211, 212, 214)" opacity="0.74554193"/>
    <path d="M 115.54864501953125 405.3102722167969 C 151.80128479003906 469.47235107421875 186.78541564941406 477.8399963378906 144.05918884277344 473.3633117675781 C 96.5938720703125 419.2053527832031 99.4415054321289 406.72186279296875 90.6167221069336 397.46966552734375 C 79.6216049194336 371.2836608886719 87.11848449707031 348.9412841796875 102.1103515625 377.60723876953125 C 106.94732666015625 394.56597900390625 107.03572082519531 386.3543701171875 115.54864501953125 405.3102722167969" stroke-width="0.0" fill="rgb(2, 1, 0)" opacity="0.99131525"/>
    <path d="M 256.26849365234375 439.86505126953125 C 248.48590087890625 536.107666015625 155.89822387695312 517.167724609375 74.5287857055664 517.2405395507812 C 79.14578247070312 508.2963562011719 56.996856689453125 464.57513427734375 33.91067886352539 457.5452575683594 C 50.77022171020508 456.71038818359375 63.997684478759766 458.0485534667969 129.24325561523438 456.6307067871094 C 81.60859680175781 431.9852600097656 188.96153259277344 402.582763671875 256.26849365234375 439.86505126953125" stroke-width="0.0" fill="rgb(4, 5, 17)" opacity="0.41515267"/>
    <path d="M 318.0321044921875 244.3096466064453 C 298.90411376953125 245.2971954345703 270.2971496582031 265.42266845703125 348.4406433105469 246.98487854003906 C 277.6636962890625 277.0194091796875 316.20294189453125 242.3065185546875 282.81732177734375 244.7420654296875 C 270.4332580566406 215.67356872558594 287.8097229003906 225.33621215820312 299.06201171875 223.5301055908203 C 315.16571044921875 225.70680236816406 328.3994140625 215.2555694580078 318.0321044921875 244.3096466064453" stroke-width="0.0" fill="rgb(0, 0, 1)" opacity="0.9508005"/>
    <path d="M 400.79779052734375 268.3971252441406 C 374.5635070800781 477.4573974609375 412.1983337402344 372.31170654296875 331.29327392578125 336.12542724609375 C 208.1763153076172 340.879150390625 167.46519470214844 329.032470703125 224.46246337890625 174.096435546875 C 194.67755126953125 298.3999328613281 305.5850830078125 319.77740478515625 349.94915771484375 282.24517822265625 C 394.0212707519531 249.56448364257812 380.6670837402344 150.34214782714844 400.79779052734375 268.3971252441406" stroke-width="0.0" fill="rgb(68, 29, 14)" opacity="0.9559016"/>
    <path d="M 288.6481628417969 140.6087646484375 C 173.7601318359375 159.00619506835938 233.3731231689453 230.2245330810547 219.49696350097656 239.678466796875 C 143.2896270751953 233.46949768066406 153.1910400390625 138.2869415283203 149.44703674316406 134.09939575195312 C 148.1478271484375 130.13336181640625 165.54795837402344 106.96897888183594 176.52381896972656 98.70384979248047 C 209.68202209472656 64.8974380493164 231.71144104003906 109.62824249267578 288.6481628417969 140.6087646484375" stroke-width="0.0" fill="rgb(22, 20, 22)" opacity="0.9992164"/>
    <path d="M 293.69873046875 610.9232788085938 C 254.74732971191406 706.1839599609375 166.55245971679688 643.958740234375 99.43694305419922 630.3444213867188 C 37.21700668334961 636.8741455078125 -9.699036598205566 652.8560180664062 0.11816368252038956 564.7471313476562 C 314.3960876464844 567.6212768554688 251.83058166503906 556.1904296875 -63.1363639831543 560.8353271484375 C 284.2525329589844 519.7987060546875 157.8672637939453 551.0629272460938 293.69873046875 610.9232788085938" stroke-width="0.0" fill="rgb(116, 115, 123)" opacity="0.98375815"/>
    <path d="M 371.8749084472656 221.56314086914062 C 376.2388610839844 228.42189025878906 363.0107727050781 233.16732788085938 352.9994201660156 231.436767578125 C 348.1452941894531 232.2226104736328 322.2610778808594 220.11209106445312 324.424072265625 210.74932861328125 C 329.1331787109375 190.32363891601562 329.45465087890625 193.84878540039062 344.0208740234375 196.4813995361328 C 357.1262512207031 198.7565155029297 369.0769348144531 213.9503936767578 371.8749084472656 221.56314086914062" stroke-width="0.0" fill="rgb(60, 32, 19)" opacity="1.0"/>
    <path d="M 450.3939514160156 172.0144805908203 C 437.0622863769531 210.24391174316406 435.5433349609375 226.96299743652344 380.3669128417969 244.3949432373047 C 372.6932067871094 262.5428771972656 384.6788330078125 171.05630493164062 369.086181640625 162.36517333984375 C 292.83868408203125 141.02737426757812 374.9156188964844 76.84590148925781 411.2908935546875 88.01612091064453 C 462.2046813964844 127.71798706054688 448.0360412597656 154.339599609375 450.3939514160156 172.0144805908203" stroke-width="0.0" fill="rgb(27, 24, 24)" opacity="1.0"/>
    <path d="M 317.6907653808594 75.58183288574219 C 274.78631591796875 78.12883758544922 265.06524658203125 75.66707611083984 251.90740966796875 82.08037567138672 C 225.49368286132812 89.2461166381836 208.79510498046875 107.61772155761719 207.29136657714844 83.41625213623047 C 242.04161071777344 59.63600540161133 261.3922424316406 63.31139373779297 264.03936767578125 61.753570556640625 C 272.9763488769531 59.03830337524414 319.99725341796875 55.3377685546875 317.6907653808594 75.58183288574219" stroke-width="0.0" fill="rgb(4, 4, 5)" opacity="1.0"/>
    <path d="M 517.5501098632812 481.5467529296875 C 515.0950317382812 478.5433349609375 584.69189453125 483.9586486816406 664.2447509765625 476.9529113769531 C 534.6829833984375 476.0940856933594 493.0375671386719 477.0400085449219 451.6639099121094 476.6563415527344 C 422.5302429199219 484.8681640625 516.701171875 477.765869140625 514.6758422851562 481.85968017578125 C 509.0923767089844 479.7570495605469 521.8663940429688 480.4583435058594 517.5501098632812 481.5467529296875" stroke-width="0.0" fill="rgb(255, 255, 251)" opacity="0.9741196"/>
    <path d="M 38.132686614990234 195.2600555419922 C 3.0500481128692627 195.14723205566406 35.989158630371094 194.8035888671875 46.58353805541992 199.4367218017578 C 52.228721618652344 203.83514404296875 41.033531188964844 186.66595458984375 -53.72972869873047 201.04795837402344 C 65.7116928100586 196.15318298339844 102.00078582763672 204.0884552001953 93.67093658447266 194.4080810546875 C 52.12968826293945 196.19635009765625 37.915016174316406 194.7716827392578 38.132686614990234 195.2600555419922" stroke-width="0.0" fill="rgb(254, 253, 249)" opacity="0.9720228"/>
    <path d="M 662.2210693359375 502.97174072265625 C 577.0108642578125 493.7256164550781 520.5224609375 501.5454406738281 559.4696655273438 498.2596740722656 C 534.3018188476562 498.0249938964844 521.3974609375 498.2200927734375 489.85906982421875 498.114990234375 C 540.630859375 501.9032897949219 466.60943603515625 494.1186218261719 429.3514404296875 502.10003662109375 C 452.89483642578125 503.38299560546875 524.9954833984375 501.6433410644531 662.2210693359375 502.97174072265625" stroke-width="0.0" fill="rgb(254, 255, 252)" opacity="0.9060092"/>
    <path d="M 631.4104614257812 98.21397399902344 C 630.084716796875 144.32037353515625 629.3071899414062 131.3985595703125 478.91546630859375 133.61720275878906 C 435.1563720703125 137.0987091064453 404.7362060546875 106.230224609375 596.028076171875 91.05255889892578 C 297.7760009765625 99.73373413085938 334.1031494140625 73.48951721191406 430.690673828125 78.3012466430664 C 635.8224487304688 80.0510482788086 636.1080322265625 71.5845947265625 631.4104614257812 98.21397399902344" stroke-width="0.0" fill="rgb(82, 85, 98)" opacity="0.758816"/>
    <path d="M 198.01300048828125 389.15020751953125 C 179.49603271484375 406.5389709472656 185.93576049804688 420.9550476074219 169.8515167236328 418.3054504394531 C 105.939697265625 426.8868408203125 143.2569580078125 433.78912353515625 152.13735961914062 396.3753662109375 C 159.0840301513672 384.9078063964844 160.0275115966797 375.4239196777344 169.2998809814453 363.3184509277344 C 179.3628387451172 370.01904296875 186.5243682861328 377.788818359375 198.01300048828125 389.15020751953125" stroke-width="0.0" fill="rgb(102, 62, 31)" opacity="0.96069485"/>
    <path d="M 621.1801147460938 224.32608032226562 C 650.0094604492188 208.9538116455078 620.29150390625 220.25595092773438 512.40673828125 215.44924926757812 C 514.5677490234375 204.58184814453125 662.6824340820312 226.39495849609375 613.6834716796875 192.32684326171875 C 563.9348754882812 164.06842041015625 568.4119873046875 158.34298706054688 583.5621337890625 173.77491760253906 C 613.83251953125 157.4539794921875 614.2705078125 168.29782104492188 621.1801147460938 224.32608032226562" stroke-width="0.0" fill="rgb(253, 252, 253)" opacity="0.910414"/>
    <path d="M 396.9334716796875 88.92607116699219 C 385.9500732421875 115.1604995727539 361.696533203125 73.69009399414062 321.65875244140625 77.34027099609375 C 343.5838928222656 76.44485473632812 295.0350341796875 77.09760284423828 254.81991577148438 76.67225646972656 C 271.2411804199219 51.42873001098633 317.5671691894531 61.8520393371582 325.7708435058594 60.12693405151367 C 308.115234375 61.0335693359375 380.4607238769531 58.801597595214844 396.9334716796875 88.92607116699219" stroke-width="0.0" fill="rgb(2, 2, 2)" opacity="0.99538255"/>
    <path d="M 262.4721374511719 335.31195068359375 C 218.67298889160156 362.0243835449219 284.4450988769531 452.99163818359375 200.81521606445312 416.8051452636719 C 225.90478515625 327.9748229980469 189.52882385253906 345.4878845214844 182.4248504638672 334.29791259765625 C 186.1096649169922 330.9122009277344 191.89064025878906 318.4264221191406 203.97169494628906 308.69122314453125 C 204.7333984375 293.6109619140625 199.8082275390625 330.9833984375 262.4721374511719 335.31195068359375" stroke-width="0.0" fill="rgb(89, 40, 6)" opacity="0.79104984"/>
    <path d="M 607.8194580078125 140.53465270996094 C 619.24658203125 205.15625 645.3093872070312 193.40780639648438 506.0014953613281 194.8056182861328 C 489.5164794921875 195.75035095214844 474.3888854980469 173.30577087402344 510.80340576171875 180.7139129638672 C 415.4241027832031 147.5299835205078 461.4433288574219 134.21234130859375 487.9075927734375 139.3907928466797 C 602.6522216796875 139.38958740234375 619.4776611328125 138.47352600097656 607.8194580078125 140.53465270996094" stroke-width="0.0" fill="rgb(5, 8, 22)" opacity="0.5111241"/>
    <path d="M 322.510986328125 463.1748962402344 C 324.5804138183594 565.3921508789062 340.570068359375 528.5123291015625 299.8992919921875 539.53076171875 C 250.58566284179688 539.3680419921875 226.94287109375 526.2792358398438 250.9998779296875 518.4066162109375 C 257.7967834472656 482.93890380859375 230.6383819580078 454.96734619140625 324.61102294921875 464.5428466796875 C 232.09811401367188 503.8560485839844 289.2503967285156 489.4289855957031 322.510986328125 463.1748962402344" stroke-width="0.0" fill="rgb(97, 135, 166)" opacity="0.89723593"/>
    <path d="M 268.31903076171875 514.279541015625 C 271.7190246582031 509.1338806152344 263.5907897949219 510.52001953125 252.93234252929688 510.7849426269531 C 250.1752471923828 519.0034790039062 252.00253295898438 501.33721923828125 251.1881561279297 493.3326721191406 C 253.3256072998047 494.8983459472656 242.7064666748047 461.6043701171875 258.3246765136719 468.1560974121094 C 273.3641662597656 469.1389465332031 262.89910888671875 459.5184326171875 268.31903076171875 514.279541015625" stroke-width="0.0" fill="rgb(0, 0, 0)" opacity="0.79807526"/>
    <path d="M 640.6058959960938 560.3355102539062 C 532.2247314453125 559.7703857421875 500.6441345214844 560.4649658203125 505.104736328125 560.2451171875 C 510.5099792480469 560.2997436523438 481.10186767578125 559.9158325195312 335.125732421875 560.185546875 C 481.6706848144531 490.97088623046875 417.5906677246094 527.0678100585938 434.59088134765625 523.169189453125 C 568.0016479492188 531.3082275390625 634.9373779296875 504.6620788574219 640.6058959960938 560.3355102539062" stroke-width="0.0" fill="rgb(114, 116, 124)" opacity="0.97963107"/>
    <path d="M 217.91575622558594 361.7908630371094 C 198.7904815673828 384.6246337890625 191.0015411376953 400.3159484863281 183.0595245361328 411.9771423339844 C 168.33973693847656 392.7052307128906 161.8213653564453 384.80596923828125 159.16761779785156 380.06219482421875 C 165.2505645751953 367.4486389160156 170.39224243164062 351.33612060546875 182.63677978515625 334.70086669921875 C 203.5567169189453 341.400146484375 214.19236755371094 350.2162780761719 217.91575622558594 361.7908630371094" stroke-width="0.0" fill="rgb(103, 63, 29)" opacity="0.9615773"/>
    <path d="M 65.31278228759766 311.8246765136719 C 76.47801971435547 302.52288818359375 37.00394058227539 309.8774108886719 29.14915657043457 306.0705261230469 C 41.96171188354492 309.445068359375 3.1465282440185547 303.78070068359375 -40.687782287597656 311.4154052734375 C 52.895511627197266 312.5151672363281 40.56794357299805 310.783203125 30.394107818603516 312.2336120605469 C 26.3389892578125 312.0997314453125 24.18309783935547 311.68115234375 65.31278228759766 311.8246765136719" stroke-width="0.0" fill="rgb(255, 254, 251)" opacity="0.9546868"/>
    <path d="M 107.05091857910156 174.46817016601562 C 46.819419860839844 175.57315063476562 -5.058942794799805 172.50035095214844 -43.84944534301758 178.19456481933594 C 45.29872131347656 179.64959716796875 57.499420166015625 177.65309143066406 35.6065673828125 179.9396514892578 C 44.08658981323242 179.62472534179688 63.08292770385742 177.22018432617188 91.26605987548828 179.9038543701172 C 50.07990264892578 172.1336212158203 115.14083862304688 186.5115509033203 107.05091857910156 174.46817016601562" stroke-width="0.0" fill="rgb(255, 253, 253)" opacity="0.9317521"/>
    <path d="M 312.4404602050781 469.5801696777344 C 312.82708740234375 500.83807373046875 314.9304504394531 490.681640625 302.1733093261719 493.24139404296875 C 266.6247863769531 492.3649597167969 275.9432678222656 497.4173889160156 274.1912536621094 480.3978576660156 C 272.67779541015625 464.57257080078125 275.38330078125 470.4731750488281 276.5160827636719 469.2124938964844 C 300.6363525390625 469.53277587890625 312.3599853515625 468.74566650390625 312.4404602050781 469.5801696777344" stroke-width="0.0" fill="rgb(0, 0, 0)" opacity="0.98476636"/>
    <path d="M 80.0427474975586 232.1385040283203 C 72.91647338867188 228.26473999023438 18.203323364257812 232.0980682373047 49.717506408691406 230.17601013183594 C 52.02530288696289 231.95565795898438 21.404462814331055 226.6441650390625 -42.819435119628906 233.1434783935547 C 62.09197235107422 233.51890563964844 58.183692932128906 234.01321411132812 42.316551208496094 231.85189819335938 C 28.069488525390625 225.86370849609375 45.519775390625 237.55502319335938 80.0427474975586 232.1385040283203" stroke-width="0.0" fill="rgb(255, 253, 254)" opacity="0.9560244"/>
    <path d="M 644.0425415039062 269.26416015625 C 564.52783203125 267.0177307128906 546.80126953125 269.6275329589844 535.5275268554688 267.2223815917969 C 568.05322265625 274.956298828125 522.5366821289062 262.43292236328125 532.1419067382812 271.8563232421875 C 558.7457885742188 271.9190368652344 574.0939331054688 271.71923828125 574.5059204101562 272.2600402832031 C 551.6693725585938 269.2785949707031 570.6615600585938 274.9779968261719 644.0425415039062 269.26416015625" stroke-width="0.0" fill="rgb(255, 254, 252)" opacity="0.9660839"/>
    <path d="M 259.4071960449219 248.079345703125 C 260.54022216796875 262.7839050292969 249.29542541503906 259.7134094238281 252.39859008789062 284.0435485839844 C 234.32818603515625 270.486328125 224.9037322998047 250.51795959472656 223.53103637695312 238.0165557861328 C 212.89749145507812 193.90196228027344 288.23681640625 170.7640380859375 227.12757873535156 221.91990661621094 C 249.2338409423828 255.84051513671875 289.1378479003906 189.04098510742188 259.4071960449219 248.079345703125" stroke-width="0.0" fill="rgb(255, 255, 244)" opacity="0.952509"/>
    <path d="M 658.0189208984375 116.7677001953125 C 568.193115234375 117.95830535888672 512.8907470703125 116.97274017333984 524.5404052734375 117.4499282836914 C 547.1174926757812 119.63610076904297 484.421875 105.71720123291016 436.2117004394531 117.31165313720703 C 541.6746826171875 117.50284576416016 549.3897705078125 118.5789566040039 488.327880859375 111.73739624023438 C 512.0662841796875 114.5615234375 563.6787719726562 108.99039459228516 658.0189208984375 116.7677001953125" stroke-width="0.0" fill="rgb(255, 254, 250)" opacity="0.944625"/>
    <path d="M 160.3999481201172 112.46017456054688 C 116.2813949584961 113.07394409179688 72.0643081665039 112.43804931640625 77.50254821777344 112.58354187011719 C 136.38916015625 117.14875793457031 71.4803466796875 107.28087615966797 -65.69099426269531 117.2288589477539 C 96.43585205078125 117.59674072265625 132.04779052734375 117.23828887939453 135.56631469726562 117.59635162353516 C 87.72725677490234 111.55928039550781 166.29254150390625 123.77706146240234 160.3999481201172 112.46017456054688" stroke-width="0.0" fill="rgb(246, 246, 243)" opacity="1.0"/>
    <path d="M 572.3119506835938 587.1397705078125 C 242.14854431152344 588.531982421875 254.74307250976562 586.037841796875 279.0439147949219 589.0067749023438 C 263.158935546875 586.6781005859375 277.8666687011719 587.8369750976562 120.01025390625 587.4443969726562 C 225.76446533203125 607.255615234375 256.0283203125 612.4459228515625 92.4559555053711 582.4954223632812 C 339.78076171875 583.71044921875 498.3099060058594 579.8097534179688 572.3119506835938 587.1397705078125" stroke-width="0.0" fill="rgb(228, 232, 227)" opacity="0.99996454"/>
    <path d="M 249.81495666503906 520.5799560546875 C 186.22488403320312 515.3011474609375 207.0972900390625 504.5075988769531 184.26243591308594 510.4609680175781 C 164.3102569580078 519.77392578125 144.60211181640625 534.2180786132812 153.75428771972656 472.70135498046875 C 181.5772705078125 459.2994079589844 70.91902923583984 420.3757019042969 197.217529296875 422.33026123046875 C 286.2438659667969 443.2630615234375 245.52854919433594 426.02899169921875 249.81495666503906 520.5799560546875" stroke-width="0.0" fill="rgb(117, 73, 35)" opacity="0.9464686"/>
    <path d="M 461.8235168457031 410.8507385253906 C 469.4966735839844 435.0130920410156 468.9549865722656 422.0831604003906 428.0010986328125 418.6752014160156 C 415.89666748046875 417.7861022949219 425.1459045410156 426.0533142089844 401.34136962890625 386.9603271484375 C 385.5521545410156 361.6958312988281 384.5191345214844 349.2022705078125 409.58282470703125 338.8363952636719 C 453.97430419921875 374.80645751953125 464.5268859863281 383.8047180175781 461.8235168457031 410.8507385253906" stroke-width="0.0" fill="rgb(111, 64, 30)" opacity="0.9809986"/>
    <path d="M 494.9473571777344 213.77294921875 C 457.00311279296875 231.61956787109375 548.93359375 239.44007873535156 474.2306213378906 237.83570861816406 C 393.18511962890625 241.18113708496094 410.3838806152344 211.6448516845703 474.4581298828125 220.69004821777344 C 428.6209716796875 197.7998809814453 429.6409606933594 238.66265869140625 450.88873291015625 183.40577697753906 C 518.4247436523438 178.52780151367188 426.4057922363281 218.07713317871094 494.9473571777344 213.77294921875" stroke-width="0.0" fill="rgb(191, 192, 192)" opacity="1.0"/>
    <path d="M 186.5163116455078 95.03221893310547 C 113.26487731933594 86.9211196899414 19.071584701538086 101.35502624511719 105.66800689697266 91.74311065673828 C 88.48518371582031 94.56241607666016 47.32140350341797 89.96745300292969 -57.19921875 95.74527740478516 C 53.49421691894531 98.27131652832031 86.29931640625 95.12491607666016 55.714786529541016 97.45649719238281 C 37.73794174194336 93.77188110351562 114.36327362060547 100.75659942626953 186.5163116455078 95.03221893310547" stroke-width="0.0" fill="rgb(255, 253, 240)" opacity="0.8856434"/>
    <path d="M 260.7269592285156 246.55770874023438 C 248.96365356445312 244.01010131835938 308.013427734375 299.6546325683594 341.318603515625 241.53135681152344 C 343.93603515625 276.7463684082031 273.5660705566406 286.9429931640625 257.6778259277344 248.12786865234375 C 259.61383056640625 256.7084045410156 326.2013854980469 268.53924560546875 297.7137451171875 245.96759033203125 C 293.66607666015625 239.68394470214844 316.1575622558594 267.4761657714844 260.7269592285156 246.55770874023438" stroke-width="0.0" fill="rgb(20, 18, 20)" opacity="0.9838942"/>
    <path d="M 630.6566162109375 74.11482238769531 C 471.87640380859375 75.10499572753906 442.7502136230469 73.92986297607422 470.4395751953125 75.42977905273438 C 411.5401916503906 70.92535400390625 380.1323547363281 83.34954071044922 346.3904724121094 56.45048141479492 C 317.0774230957031 -45.7918701171875 398.1815490722656 -95.4367446899414 478.634521484375 7.6723713874816895 C 628.2741088867188 16.095060348510742 647.1397094726562 -11.680052757263184 630.6566162109375 74.11482238769531" stroke-width="0.0" fill="rgb(119, 122, 135)" opacity="1.0"/>
    <path d="M 481.4851989746094 379.80035400390625 C 481.9529113769531 401.90728759765625 482.4975891113281 393.2913513183594 464.3647766113281 419.11968994140625 C 459.49578857421875 395.0723571777344 435.3638916015625 404.7243347167969 343.0529479980469 342.39654541015625 C 407.74114990234375 315.2759704589844 380.1365966796875 306.3833312988281 451.4299621582031 341.5820617675781 C 471.0108642578125 356.91949462890625 482.6455078125 385.7588195800781 481.4851989746094 379.80035400390625" stroke-width="0.0" fill="rgb(106, 61, 27)" opacity="1.0"/>
    <path d="M 542.3876342773438 97.09133911132812 C 480.5506286621094 112.40078735351562 469.7444152832031 111.83004760742188 456.9582214355469 112.79041290283203 C 433.4366760253906 111.40189361572266 445.90899658203125 117.23261260986328 427.475830078125 97.23358917236328 C 439.1535949707031 97.05773162841797 460.1769104003906 97.32183837890625 445.0839538574219 97.17811584472656 C 449.9356384277344 97.05728149414062 461.8475036621094 97.68794250488281 542.3876342773438 97.09133911132812" stroke-width="0.0" fill="rgb(119, 119, 126)" opacity="0.9991034"/>
    <path d="M 366.5846862792969 24.537952423095703 C 299.4781799316406 33.04560852050781 335.0411682128906 19.385704040527344 324.1175842285156 40.99633026123047 C 335.8614196777344 14.02707576751709 312.7373046875 37.585411071777344 96.05593872070312 21.70286750793457 C 470.30157470703125 20.090476989746094 305.177978515625 28.149372100830078 311.3509826660156 3.58278751373291 C 464.330810546875 4.1669745445251465 218.0834197998047 0.21280674636363983 366.5846862792969 24.537952423095703" stroke-width="0.0" fill="rgb(255, 231, 215)" opacity="0.6291933"/>
    <path d="M 639.06103515625 294.07379150390625 C 580.2232666015625 281.78094482421875 551.0564575195312 290.9331970214844 548.327392578125 292.5170593261719 C 587.6935424804688 285.2366027832031 562.5736083984375 288.788818359375 533.3290405273438 287.4370422363281 C 524.0247802734375 301.3648681640625 589.9994506835938 283.5142822265625 557.086181640625 290.0301513671875 C 533.82958984375 295.5090026855469 549.065185546875 290.8398742675781 639.06103515625 294.07379150390625" stroke-width="0.0" fill="rgb(255, 253, 250)" opacity="0.9311332"/>
    <path d="M 207.40977478027344 308.8371887207031 C 157.81556701660156 301.9822692871094 140.37142944335938 315.5 126.96183013916016 297.3926086425781 C 136.2821044921875 311.9793701171875 166.47288513183594 305.23736572265625 85.68833923339844 307.2514343261719 C 74.42892456054688 316.60845947265625 139.30604553222656 307.8973083496094 133.9807586669922 313.8819580078125 C 130.41867065429688 307.7619323730469 167.81771850585938 316.388671875 207.40977478027344 308.8371887207031" stroke-width="0.0" fill="rgb(255, 254, 249)" opacity="0.9360486"/>
    <path d="M 376.0760803222656 7.939476013183594 C 170.0558624267578 14.28684139251709 171.7074737548828 6.371723651885986 167.06312561035156 13.544974327087402 C 173.20849609375 6.8572797775268555 178.57859802246094 13.745260238647461 -59.40900421142578 8.179460525512695 C 146.52407836914062 0.7598114609718323 180.91146850585938 7.405711650848389 176.25637817382812 2.5338730812072754 C 169.24258422851562 8.485188484191895 204.68634033203125 -1.5962035655975342 376.0760803222656 7.939476013183594" stroke-width="0.0" fill="rgb(217, 207, 188)" opacity="0.9727617"/>
    <path d="M 615.8101806640625 6.83094596862793 C 548.4088134765625 5.13004732131958 536.439697265625 5.378157138824463 541.2572021484375 5.89733362197876 C 547.232421875 3.3735766410827637 533.0255126953125 10.068888664245605 448.9951477050781 3.548581123352051 C 516.3694458007812 -24.43987274169922 535.070556640625 -16.37366485595703 547.312744140625 -21.45332908630371 C 556.7530517578125 -13.942055702209473 581.1115112304688 -24.98750114440918 615.8101806640625 6.83094596862793" stroke-width="0.0" fill="rgb(130, 134, 156)" opacity="0.97699225"/>
    <path d="M 655.1931762695312 385.0771484375 C 528.6167602539062 386.37109375 512.6044311523438 383.1070861816406 559.9467163085938 390.3123779296875 C 549.5340576171875 389.0360107421875 533.4285278320312 389.5385437011719 512.6130981445312 389.83831787109375 C 507.79168701171875 380.8122863769531 537.1239013671875 388.9908447265625 535.343505859375 383.6568908691406 C 533.9102172851562 383.2643127441406 525.0908813476562 395.8844299316406 655.1931762695312 385.0771484375" stroke-width="0.0" fill="rgb(251, 253, 247)" opacity="0.97121024"/>
    <path d="M 426.9088134765625 45.31321334838867 C 340.8404846191406 71.21484375 543.5157470703125 48.682308197021484 636.150634765625 62.63814163208008 C 340.8433532714844 60.81679916381836 426.4278259277344 68.5875473022461 404.1819763183594 41.06525421142578 C 573.960693359375 43.930564880371094 588.6488037109375 24.894180297851562 297.83575439453125 27.7376766204834 C 562.832763671875 3.592940092086792 552.0819702148438 55.49137496948242 426.9088134765625 45.31321334838867" stroke-width="0.0" fill="rgb(215, 199, 184)" opacity="0.93985224"/>
    <path d="M 465.379638671875 4.373991966247559 C 539.127197265625 5.31110954284668 534.5669555664062 1.8650926351547241 553.215576171875 10.202906608581543 C 516.2772216796875 10.689461708068848 510.9043273925781 10.637219429016113 278.0666809082031 10.545852661132812 C 465.8119201660156 -9.668046951293945 498.8485412597656 26.06887435913086 509.3138122558594 -29.655620574951172 C 522.804931640625 -16.560720443725586 522.136962890625 -2.354344606399536 465.379638671875 4.373991966247559" stroke-width="0.0" fill="rgb(226, 213, 185)" opacity="0.825406"/>
    <path d="M 336.97100830078125 116.3971176147461 C 323.7333679199219 126.45197296142578 310.09600830078125 132.93182373046875 301.24334716796875 132.41744995117188 C 295.2110595703125 132.44509887695312 275.8221130371094 133.33221435546875 326.08709716796875 116.47289276123047 C 224.41452026367188 119.2661361694336 228.47572326660156 107.30140686035156 299.911376953125 112.50940704345703 C 359.6646423339844 111.19896697998047 296.84295654296875 118.33418273925781 336.97100830078125 116.3971176147461" stroke-width="0.0" fill="rgb(119, 122, 128)" opacity="1.0"/>
    <path d="M 652.893798828125 158.73643493652344 C 567.8579711914062 150.3328857421875 536.9487915039062 160.40353393554688 588.8680419921875 152.50985717773438 C 553.7379760742188 159.61740112304688 461.7351989746094 149.7880096435547 477.000732421875 158.27586364746094 C 480.5799255371094 160.2425994873047 563.8020629882812 159.18858337402344 540.975341796875 159.65785217285156 C 545.9386596679688 159.1921844482422 563.60986328125 160.3129425048828 652.893798828125 158.73643493652344" stroke-width="0.0" fill="rgb(255, 254, 254)" opacity="0.9167328"/>
    <path d="M 451.4667663574219 517.8547973632812 C 385.4718017578125 499.7021179199219 364.2664794921875 524.2138061523438 370.5278015136719 525.6366577148438 C 354.0532531738281 525.6793823242188 344.4259338378906 526.6030883789062 348.5776672363281 484.61676025390625 C 356.43121337890625 436.9687805175781 308.2416687011719 439.2612609863281 418.1139221191406 421.17828369140625 C 527.6007690429688 436.52142333984375 411.08154296875 419.3111267089844 451.4667663574219 517.8547973632812" stroke-width="0.0" fill="rgb(118, 70, 28)" opacity="0.854861"/>
    <path d="M 400.4797058105469 419.1298828125 C 335.7357482910156 430.17364501953125 359.8442077636719 428.96832275390625 382.2305908203125 452.1783752441406 C 356.58441162109375 435.4549255371094 359.23590087890625 438.1609191894531 354.8676452636719 408.39080810546875 C 351.933349609375 375.6090087890625 355.93829345703125 356.3703308105469 353.42462158203125 333.10009765625 C 400.059814453125 358.9884948730469 387.481201171875 388.5889892578125 400.4797058105469 419.1298828125" stroke-width="0.0" fill="rgb(106, 62, 29)" opacity="0.95550376"/>
    <path d="M 454.8902282714844 343.85888671875 C 452.7323913574219 344.58636474609375 448.37249755859375 353.8307189941406 435.59527587890625 362.9757080078125 C 432.4145202636719 372.84356689453125 432.14923095703125 354.31256103515625 411.6000671386719 326.8009338378906 C 419.585205078125 320.68963623046875 431.0323181152344 328.1068115234375 444.9272766113281 336.6159973144531 C 445.2808837890625 335.9610900878906 453.2545471191406 344.12237548828125 454.8902282714844 343.85888671875" stroke-width="0.0" fill="rgb(5, 13, 21)" opacity="0.8592739"/>
    <path d="M 117.15626525878906 529.7864990234375 C 132.97235107421875 533.1555786132812 122.84044647216797 538.4627685546875 116.19793701171875 536.65673828125 C 106.24983978271484 538.368896484375 95.69351196289062 533.6892700195312 110.00662994384766 530.7222290039062 C 115.57172393798828 525.4124755859375 111.85901641845703 515.78076171875 112.05571746826172 514.1119995117188 C 115.3978042602539 516.1922607421875 109.63554382324219 527.0730590820312 117.15626525878906 529.7864990234375" stroke-width="0.0" fill="rgb(96, 159, 224)" opacity="0.5764729"/>
    <path d="M 190.2978057861328 522.2406005859375 C 232.435546875 544.0181884765625 164.91148376464844 537.2859497070312 120.95321655273438 538.7158813476562 C 81.88774871826172 537.1309204101562 -18.914934158325195 545.0601196289062 -90.44678497314453 524.61474609375 C 91.64102172851562 521.7145385742188 129.74241638183594 522.47509765625 104.22764587402344 522.5380249023438 C 103.45758819580078 521.9086303710938 128.4752197265625 523.3601684570312 190.2978057861328 522.2406005859375" stroke-width="0.0" fill="rgb(105, 109, 118)" opacity="0.87933046"/>
    <path d="M 275.70196533203125 212.512451171875 C 276.67633056640625 221.22166442871094 242.13189697265625 236.9263916015625 232.14944458007812 229.95542907714844 C 227.65814208984375 228.1845703125 223.55433654785156 226.3148651123047 232.87054443359375 212.84957885742188 C 233.23683166503906 212.6391143798828 237.93228149414062 205.5540008544922 248.6973876953125 198.63046264648438 C 264.7612609863281 195.1444091796875 272.7455139160156 187.38380432128906 275.70196533203125 212.512451171875" stroke-width="0.0" fill="rgb(43, 14, 0)" opacity="0.8954591"/>
    <path d="M 284.6411437988281 59.705867767333984 C 90.42181396484375 55.14091110229492 76.08183288574219 64.12786865234375 142.1565399169922 61.289310455322266 C 106.6205825805664 59.634437561035156 118.19021606445312 56.06367874145508 -69.08956909179688 60.278724670410156 C 116.4863510131836 67.4076156616211 176.7586669921875 53.883785247802734 110.50838470458984 58.6404914855957 C 47.16230010986328 52.31276321411133 152.7899627685547 68.89656829833984 284.6411437988281 59.705867767333984" stroke-width="0.0" fill="rgb(255, 254, 247)" opacity="0.93407494"/>
    <path d="M 569.4859619140625 60.07658386230469 C 392.63104248046875 54.84498596191406 373.2726135253906 63.229095458984375 410.4037780761719 58.57246780395508 C 393.4280090332031 58.79443359375 370.6784973144531 58.739219665527344 316.5631103515625 58.49757385253906 C 384.8055419921875 67.19883728027344 391.88134765625 58.861114501953125 379.7161560058594 62.9397087097168 C 386.3548583984375 61.51273727416992 383.541015625 63.5567626953125 569.4859619140625 60.07658386230469" stroke-width="0.0" fill="rgb(248, 249, 244)" opacity="0.9578047"/>
    <path d="M 641.133544921875 174.92828369140625 C 533.5604858398438 174.45809936523438 561.3916625976562 172.8374481201172 537.8545532226562 178.93484497070312 C 574.0891723632812 182.45172119140625 542.4971313476562 171.85491943359375 488.5323181152344 174.80467224121094 C 529.584716796875 187.3260040283203 568.921142578125 171.2605743408203 537.1858520507812 174.9439239501953 C 522.2725219726562 169.20266723632812 549.2285766601562 187.92807006835938 641.133544921875 174.92828369140625" stroke-width="0.0" fill="rgb(255, 255, 255)" opacity="0.9090529"/>
    <path d="M 136.99868774414062 138.65966796875 C 61.748558044433594 137.47801208496094 48.28670883178711 143.79286193847656 83.97330474853516 132.81924438476562 C 80.25308990478516 135.43565368652344 42.675636291503906 130.62950134277344 -50.99739456176758 137.66232299804688 C 38.643287658691406 141.6770477294922 74.68612670898438 137.60899353027344 85.95536041259766 138.02978515625 C 50.23196792602539 141.00048828125 89.761962890625 128.90184020996094 136.99868774414062 138.65966796875" stroke-width="0.0" fill="rgb(242, 242, 237)" opacity="0.954335"/>
    <path d="M 86.46036529541016 389.3700866699219 C 91.03638458251953 379.11505126953125 37.80724334716797 393.4874572753906 79.89109802246094 383.95367431640625 C 68.4948501586914 388.1011047363281 36.10265350341797 382.4928283691406 -64.16210174560547 388.59735107421875 C 57.028812408447266 390.65008544921875 69.10086822509766 388.5628967285156 48.981075286865234 389.5028076171875 C 47.25436782836914 389.7138977050781 60.35696792602539 389.4295349121094 86.46036529541016 389.3700866699219" stroke-width="0.0" fill="rgb(252, 253, 249)" opacity="0.93521124"/>
    <path d="M 62.356605529785156 501.8130187988281 C 42.793846130371094 515.4951782226562 34.186431884765625 517.9957885742188 40.56441879272461 518.0885620117188 C 26.414703369140625 516.2357177734375 3.8707778453826904 521.208984375 -38.822818756103516 514.4212036132812 C -11.641609191894531 495.6965026855469 22.348405838012695 507.68731689453125 60.64285659790039 500.0628967285156 C 46.742610931396484 488.2163391113281 52.44061279296875 495.6133728027344 62.356605529785156 501.8130187988281" stroke-width="0.0" fill="rgb(116, 117, 122)" opacity="0.99388623"/>
    <path d="M 661.7727661132812 436.0406494140625 C 495.1099853515625 439.9135437011719 479.1853332519531 433.69879150390625 481.8287353515625 440.710205078125 C 579.9425048828125 440.41278076171875 565.4403686523438 441.7957458496094 535.155517578125 438.74713134765625 C 533.71630859375 441.281494140625 540.5540771484375 430.03924560546875 535.2053833007812 438.8226013183594 C 516.8619384765625 433.4803771972656 543.2098999023438 447.8804016113281 661.7727661132812 436.0406494140625" stroke-width="0.0" fill="rgb(254, 255, 255)" opacity="0.9149946"/>
    <path d="M 154.8931121826172 484.51605224609375 C 110.47740173339844 524.1683959960938 27.317842483520508 484.88519287109375 61.16793441772461 497.8101806640625 C 27.69568634033203 497.4900817871094 2.0214383602142334 498.80303955078125 -27.893957138061523 496.70745849609375 C 7.8322577476501465 475.3106384277344 21.220426559448242 477.5318908691406 12.191524505615234 470.890869140625 C 26.778005599975586 493.5830993652344 54.5843391418457 470.0463562011719 154.8931121826172 484.51605224609375" stroke-width="0.0" fill="rgb(116, 117, 124)" opacity="1.0"/>
    <path d="M 133.12786865234375 458.79119873046875 C 145.56434631347656 526.5177612304688 62.28925323486328 471.66082763671875 41.49387741088867 476.40179443359375 C 16.740936279296875 473.67620849609375 -4.802443504333496 482.9274597167969 -23.433015823364258 463.06964111328125 C 13.45345687866211 454.6466064453125 13.951476097106934 458.1932678222656 24.93253517150879 457.3544616699219 C 10.491851806640625 457.3039245605469 27.213035583496094 457.5900573730469 133.12786865234375 458.79119873046875" stroke-width="0.0" fill="rgb(114, 114, 120)" opacity="0.98368967"/>
    <path d="M 349.69976806640625 112.22093200683594 C 244.38778686523438 113.78585052490234 240.2698211669922 108.93366241455078 254.08067321777344 116.58211517333984 C 303.3674011230469 116.14701843261719 319.2784729003906 119.12327575683594 301.7869873046875 115.01690673828125 C 303.989501953125 114.29403686523438 289.5749816894531 116.01250457763672 291.7975158691406 90.66451263427734 C 295.4029541015625 98.27885437011719 277.7203369140625 128.10276794433594 349.69976806640625 112.22093200683594" stroke-width="0.0" fill="rgb(249, 250, 245)" opacity="0.988285"/>
    <path d="M 443.4217224121094 42.86147689819336 C 205.71629333496094 49.37712860107422 125.83663940429688 41.468177795410156 133.94110107421875 48.4382209777832 C 139.66653442382812 41.652645111083984 98.82310485839844 49.48866653442383 -72.39301300048828 42.21728515625 C 147.3700714111328 39.61026382446289 133.3252716064453 44.37565231323242 122.78675079345703 38.00812530517578 C 130.9263153076172 44.9183464050293 133.68853759765625 39.06559371948242 443.4217224121094 42.86147689819336" stroke-width="0.0" fill="rgb(227, 217, 208)" opacity="1.0"/>
    <path d="M 347.28521728515625 466.3697204589844 C 350.7320556640625 491.67584228515625 345.4151916503906 484.80712890625 347.1641845703125 485.48052978515625 C 325.8592834472656 484.5425109863281 323.5682678222656 485.73553466796875 324.1282958984375 485.49591064453125 C 326.63775634765625 462.25689697265625 316.30816650390625 469.99951171875 333.3157653808594 467.78948974609375 C 326.17425537109375 467.0195007324219 354.42767333984375 470.73565673828125 347.28521728515625 466.3697204589844" stroke-width="0.0" fill="rgb(0, 0, 0)" opacity="0.98665595"/>
    <path d="M 665.9362182617188 540.8102416992188 C 538.4971923828125 545.1557006835938 497.53741455078125 539.8942260742188 492.1946105957031 545.089111328125 C 516.1110229492188 538.712646484375 360.2949523925781 546.65966796875 378.81817626953125 539.2932739257812 C 482.7792663574219 538.06005859375 519.6868286132812 539.4581909179688 530.8381958007812 537.7672729492188 C 500.6826477050781 540.0554809570312 541.8768920898438 536.8768310546875 665.9362182617188 540.8102416992188" stroke-width="0.0" fill="rgb(254, 250, 248)" opacity="0.915297"/>
    <path d="M 154.98475646972656 477.8879699707031 C 127.8514633178711 486.9875183105469 22.504302978515625 476.7951354980469 41.57331466674805 481.0915832519531 C 43.52449035644531 478.4849548339844 34.167999267578125 482.5207214355469 -28.35547637939453 479.6305847167969 C 27.073150634765625 471.0580139160156 32.2628288269043 482.49493408203125 5.45033597946167 472.9455871582031 C 26.04646873474121 481.7552795410156 52.1130485534668 472.6099853515625 154.98475646972656 477.8879699707031" stroke-width="0.0" fill="rgb(255, 255, 252)" opacity="0.9282137"/>
    <path d="M 148.9941864013672 124.09739685058594 C 159.05300903320312 152.7694091796875 93.19165802001953 127.73346710205078 51.58338928222656 142.10401916503906 C 80.05973815917969 134.169921875 61.61929702758789 133.32342529296875 50.58436965942383 137.27670288085938 C 83.34413146972656 137.37954711914062 97.33206939697266 127.16651916503906 53.515411376953125 140.2770233154297 C 82.22309112548828 124.08872985839844 150.0292510986328 145.0970458984375 148.9941864013672 124.09739685058594" stroke-width="0.0" fill="rgb(254, 255, 250)" opacity="0.8490614"/>
    <path d="M 153.9000244140625 503.7789611816406 C 138.74647521972656 527.0413818359375 51.97250747680664 512.434814453125 23.779335021972656 519.673828125 C 50.57394790649414 515.4849243164062 36.059383392333984 509.5481872558594 65.9908676147461 500.94586181640625 C 39.25046920776367 502.5257263183594 32.61827850341797 486.4597473144531 28.468507766723633 480.4541320800781 C 46.49332046508789 507.14923095703125 52.660221099853516 501.90545654296875 153.9000244140625 503.7789611816406" stroke-width="0.0" fill="rgb(115, 120, 132)" opacity="0.9815989"/>
    <path d="M 527.1160278320312 422.39691162109375 C 526.9852294921875 422.6401672363281 512.232421875 424.6639404296875 527.3612670898438 424.4984436035156 C 671.160888671875 425.54119873046875 631.153076171875 417.9546813964844 491.23382568359375 421.55877685546875 C 522.1749267578125 432.0227966308594 548.5433349609375 410.7964172363281 534.5439453125 423.8163146972656 C 544.02197265625 415.70770263671875 533.9811401367188 421.32147216796875 527.1160278320312 422.39691162109375" stroke-width="0.0" fill="rgb(255, 255, 248)" opacity="0.94396853"/>
    <path d="M 511.93914794921875 307.2613830566406 C 532.4813232421875 317.0515441894531 429.8907775878906 307.1678771972656 504.32281494140625 314.0675354003906 C 419.91314697265625 305.591064453125 381.282470703125 324.181884765625 399.6744079589844 293.1810607910156 C 518.6828002929688 296.6213684082031 587.8534545898438 285.969482421875 399.4705810546875 288.9877014160156 C 398.0711669921875 314.2512512207031 362.5240173339844 304.3055725097656 511.93914794921875 307.2613830566406" stroke-width="0.0" fill="rgb(255, 255, 247)" opacity="0.92030644"/>
    <path d="M 128.77073669433594 586.9343872070312 C 52.64958572387695 575.7294311523438 9.842578887939453 590.7239379882812 40.045169830322266 587.120361328125 C 62.799598693847656 592.5120239257812 19.43010711669922 577.9430541992188 -12.563883781433105 585.563232421875 C 29.26323127746582 592.7561645507812 60.6379508972168 578.7000122070312 42.48994827270508 583.645751953125 C 11.768162727355957 581.03271484375 16.242843627929688 589.9923706054688 128.77073669433594 586.9343872070312" stroke-width="0.0" fill="rgb(238, 241, 237)" opacity="0.9993974"/>
    <path d="M 579.72412109375 57.097713470458984 C 575.5624389648438 60.10231399536133 574.6810913085938 58.53174591064453 600.10498046875 58.352813720703125 C 616.5759887695312 41.46039962768555 596.917236328125 45.70977783203125 570.0734252929688 45.408443450927734 C 549.8007202148438 71.03813934326172 621.3304443359375 64.9262924194336 615.8432006835938 45.37038040161133 C 555.7128295898438 26.639055252075195 559.6461181640625 69.60144805908203 579.72412109375 57.097713470458984" stroke-width="0.0" fill="rgb(255, 255, 255)" opacity="0.73744917"/>
    <path d="M 222.74163818359375 76.2079086303711 C 204.99093627929688 70.15817260742188 97.60308837890625 77.39955139160156 107.89830017089844 74.2184066772461 C 143.29119873046875 76.42133331298828 89.98777770996094 72.7356185913086 -71.76045227050781 75.82833099365234 C 72.93986511230469 81.45565795898438 128.92527770996094 76.10006713867188 100.9783706665039 79.4764633178711 C 93.31349182128906 76.8258285522461 151.2618408203125 80.5522689819336 222.74163818359375 76.2079086303711" stroke-width="0.0" fill="rgb(255, 250, 230)" opacity="0.90243655"/>
    <path d="M 116.54257202148438 440.5732421875 C -6.4719014167785645 441.0724182128906 -12.755501747131348 438.7786865234375 -8.042350769042969 447.5987854003906 C -4.0834808349609375 464.0892333984375 -10.667474746704102 457.6318359375 -13.392646789550781 448.51043701171875 C -12.633951187133789 439.0117492675781 -6.330437660217285 440.2290954589844 -19.655210494995117 436.72418212890625 C 37.231346130371094 439.0144958496094 127.37164306640625 434.49005126953125 116.54257202148438 440.5732421875" stroke-width="0.0" fill="rgb(255, 253, 253)" opacity="0.9169598"/>
    <path d="M 111.92041015625 543.1231689453125 C 45.06913757324219 559.8798217773438 24.76898956298828 551.529541015625 22.658123016357422 551.3992919921875 C 21.44502830505371 554.995849609375 4.661099910736084 564.6134033203125 -15.586030960083008 543.04345703125 C 22.240772247314453 543.4677734375 26.428504943847656 542.5899047851562 19.02353286743164 543.5034790039062 C 21.635774612426758 542.6087646484375 23.064313888549805 543.8372802734375 111.92041015625 543.1231689453125" stroke-width="0.0" fill="rgb(116, 116, 121)" opacity="0.9926853"/>
    <path d="M 649.8759155273438 26.873254776000977 C 467.7453308105469 24.684307098388672 474.8684387207031 30.95560646057129 608.119873046875 43.042484283447266 C 507.6820068359375 50.71324157714844 501.489501953125 38.327938079833984 508.5494384765625 29.457429885864258 C 512.8786010742188 18.161678314208984 513.6272583007812 15.643726348876953 512.3599243164062 19.64468002319336 C 504.5776062011719 29.109127044677734 576.9032592773438 15.920721054077148 649.8759155273438 26.873254776000977" stroke-width="0.0" fill="rgb(248, 241, 236)" opacity="0.95027274"/>
    <path d="M 200.32485961914062 27.410051345825195 C 100.00012969970703 27.458993911743164 81.29833221435547 27.1861515045166 91.03179931640625 28.219825744628906 C 101.06098937988281 24.19867706298828 58.58952331542969 29.21747398376465 -67.20089721679688 24.970317840576172 C 47.72501754760742 18.59165382385254 95.76234436035156 25.713550567626953 93.18038177490234 19.958908081054688 C 89.4557113647461 22.516071319580078 100.712890625 22.47843360900879 200.32485961914062 27.410051345825195" stroke-width="0.0" fill="rgb(223, 211, 206)" opacity="0.9999981"/>
    <path d="M 544.7498779296875 25.782997131347656 C 558.4368896484375 55.054664611816406 560.3125 43.45763397216797 474.6145324707031 47.43679428100586 C 512.7666015625 30.409208297729492 505.8449401855469 32.4185676574707 449.6876220703125 21.560657501220703 C 510.95550537109375 21.402793884277344 525.4225463867188 21.373117446899414 562.5370483398438 21.921092987060547 C 509.7843933105469 25.974624633789062 515.7522583007812 24.665525436401367 544.7498779296875 25.782997131347656" stroke-width="0.0" fill="rgb(215, 196, 180)" opacity="0.86811"/>
    <path d="M 449.69232177734375 182.4206085205078 C 504.4765625 177.99813842773438 530.4232177734375 199.89076232910156 447.0704345703125 195.87818908691406 C 446.34942626953125 172.67518615722656 471.06378173828125 180.66168212890625 452.34991455078125 178.15602111816406 C 452.5083923339844 174.2082977294922 457.1366271972656 155.48089599609375 455.1731872558594 158.7798309326172 C 481.46026611328125 192.52239990234375 470.4082946777344 170.05470275878906 449.69232177734375 182.4206085205078" stroke-width="0.0" fill="rgb(3, 0, 11)" opacity="0.40175647"/>
    <path d="M 153.9056854248047 501.29766845703125 C 135.6007537841797 493.9152526855469 73.68611145019531 502.85577392578125 119.82940673828125 497.7277526855469 C 113.26496887207031 499.4424133300781 81.207275390625 495.34796142578125 -43.56161880493164 500.7079772949219 C 68.09838104248047 504.13482666015625 104.50289154052734 501.0312194824219 117.3911361694336 503.549560546875 C 75.0438232421875 496.5639343261719 112.81670379638672 506.1028747558594 153.9056854248047 501.29766845703125" stroke-width="0.0" fill="rgb(253, 254, 249)" opacity="0.9085191"/>
    <path d="M 618.75341796875 328.1884460449219 C 556.3412475585938 322.7423400878906 533.8010864257812 334.1946716308594 572.3010864257812 330.9568786621094 C 565.255859375 326.4049072265625 572.7772827148438 325.8304748535156 529.5613403320312 327.3721618652344 C 528.6790771484375 339.88336181640625 589.701171875 319.9676208496094 569.234375 326.52490234375 C 568.1554565429688 325.05767822265625 559.8229370117188 337.1705017089844 618.75341796875 328.1884460449219" stroke-width="0.0" fill="rgb(255, 254, 249)" opacity="0.9376181"/>
    <path d="M 103.4473876953125 420.5936584472656 C 68.66751098632812 421.1240539550781 55.54645538330078 419.0937194824219 96.09983825683594 424.0137939453125 C 79.71131896972656 426.5224609375 67.22686767578125 414.6448059082031 -43.283756256103516 424.60107421875 C 102.19574737548828 424.04119873046875 100.35859680175781 425.36859130859375 57.41841506958008 421.0984191894531 C 71.03978729248047 418.27178955078125 115.77996826171875 429.9700012207031 103.4473876953125 420.5936584472656" stroke-width="0.0" fill="rgb(255, 253, 248)" opacity="0.96736544"/>
    <path d="M 645.9689331054688 230.62692260742188 C 556.0664672851562 230.34292602539062 526.7752075195312 229.89657592773438 546.1171264648438 230.7967987060547 C 585.341552734375 236.03904724121094 504.4194641113281 224.06307983398438 523.0938110351562 233.4235076904297 C 564.0692749023438 232.75653076171875 582.8966064453125 234.93760681152344 546.1370239257812 231.98268127441406 C 540.5103149414062 230.6262969970703 563.5534057617188 237.09683227539062 645.9689331054688 230.62692260742188" stroke-width="0.0" fill="rgb(254, 253, 254)" opacity="0.9705768"/>
    <path d="M 652.0152587890625 455.55230712890625 C 565.8432006835938 450.8222961425781 519.8859252929688 455.5880126953125 545.32958984375 452.82672119140625 C 567.0031127929688 456.2085266113281 516.6163940429688 451.04718017578125 466.3247985839844 454.8033752441406 C 483.0239562988281 461.59600830078125 571.7882080078125 452.1617736816406 515.048095703125 457.0823669433594 C 514.8609008789062 456.5870361328125 550.0633544921875 459.1523132324219 652.0152587890625 455.55230712890625" stroke-width="0.0" fill="rgb(255, 253, 252)" opacity="0.9348384"/>
    <path d="M 595.7687377929688 41.39289474487305 C 496.7362365722656 42.164791107177734 487.3553771972656 38.578330993652344 498.6007080078125 45.4071044921875 C 513.91748046875 44.04194641113281 504.27166748046875 46.28849792480469 469.4275817871094 45.59872055053711 C 507.4674072265625 49.29165267944336 515.2377319335938 41.95961380004883 431.24505615234375 27.22762680053711 C 541.482666015625 29.107173919677734 555.8515014648438 21.361167907714844 595.7687377929688 41.39289474487305" stroke-width="0.0" fill="rgb(107, 118, 130)" opacity="0.83946544"/>
    <path d="M 517.7059326171875 273.1920166015625 C 465.246337890625 265.7658996582031 393.3150939941406 275.8926086425781 441.5479431152344 274.1681823730469 C 466.6414489746094 276.2668762207031 437.6780090332031 267.3236999511719 398.0321960449219 271.8197326660156 C 415.83917236328125 281.3316650390625 463.0233154296875 263.85186767578125 445.2772216796875 269.578125 C 440.86810302734375 269.4185485839844 431.9737854003906 277.7813720703125 517.7059326171875 273.1920166015625" stroke-width="0.0" fill="rgb(255, 255, 250)" opacity="0.9846404"/>
    <path d="M 69.87981414794922 329.1184997558594 C 65.29606628417969 321.14990234375 3.408600091934204 334.301025390625 46.74304962158203 331.0314636230469 C 27.6173152923584 327.25537109375 39.46194076538086 325.55181884765625 -19.01651382446289 327.93408203125 C 29.587589263916016 337.7802429199219 54.287147521972656 323.3167419433594 40.547035217285156 327.33819580078125 C 14.075214385986328 323.60772705078125 57.89493942260742 336.5648498535156 69.87981414794922 329.1184997558594" stroke-width="0.0" fill="rgb(254, 254, 246)" opacity="0.93704665"/>
    <path d="M 472.1361083984375 218.5413818359375 C 469.9974365234375 232.90049743652344 461.8327941894531 236.24566650390625 466.5455627441406 233.62344360351562 C 458.5386657714844 233.3022918701172 443.85467529296875 233.96388244628906 418.2612609863281 233.95082092285156 C 443.7553405761719 210.70510864257812 435.9085693359375 213.77146911621094 444.2155456542969 200.49075317382812 C 485.7120056152344 202.40345764160156 464.1218566894531 194.61968994140625 472.1361083984375 218.5413818359375" stroke-width="0.0" fill="rgb(55, 58, 67)" opacity="0.51613855"/>
    <path d="M 500.7402038574219 232.8927764892578 C 497.814208984375 234.01466369628906 484.9657897949219 233.12689208984375 469.25433349609375 233.31924438476562 C 469.4856872558594 232.9521026611328 461.6897888183594 235.56710815429688 454.8118896484375 226.10684204101562 C 462.8888854980469 216.01742553710938 467.8481140136719 213.4320068359375 467.2961730957031 216.53221130371094 C 487.5896911621094 220.61346435546875 498.68212890625 214.2185516357422 500.7402038574219 232.8927764892578" stroke-width="0.0" fill="rgb(116, 115, 121)" opacity="0.94365144"/>
    <path d="M 126.1666488647461 450.217041015625 C 11.734200477600098 456.65411376953125 -1.5525723695755005 448.417236328125 -9.264518737792969 457.1971130371094 C -5.627625942230225 464.8394775390625 -11.618193626403809 457.67779541015625 -16.319442749023438 448.0039367675781 C -11.675329208374023 438.2569885253906 -7.322994709014893 429.93316650390625 -8.065260887145996 431.51727294921875 C 1.1215678453445435 459.0733642578125 51.21229934692383 427.3966064453125 126.1666488647461 450.217041015625" stroke-width="0.0" fill="rgb(111, 114, 122)" opacity="0.98102677"/>
    <path d="M 21.849700927734375 519.2196655273438 C 27.553997039794922 521.2075805664062 22.921037673950195 524.8348388671875 21.20077896118164 525.650634765625 C 29.184900283813477 520.5890502929688 26.200130462646484 513.775634765625 -22.212074279785156 522.73193359375 C 33.25885772705078 521.4658813476562 62.071250915527344 524.5194091796875 78.80431365966797 518.4486694335938 C 5.86465311050415 518.2382202148438 18.943281173706055 518.385009765625 21.849700927734375 519.2196655273438" stroke-width="0.0" fill="rgb(243, 242, 236)" opacity="1.0"/>
    <path d="M 435.1549377441406 217.56529235839844 C 480.6898498535156 232.29190063476562 466.80413818359375 245.9542236328125 472.3133544921875 260.39776611328125 C 467.0535888671875 226.8573760986328 476.4189453125 235.31796264648438 408.61517333984375 234.7994842529297 C 476.90472412109375 242.95079040527344 481.43328857421875 234.86634826660156 430.0026550292969 214.7771453857422 C 520.027587890625 212.17599487304688 512.9021606445312 220.6743927001953 435.1549377441406 217.56529235839844" stroke-width="0.0" fill="rgb(255, 255, 254)" opacity="0.88896435"/>
    <path d="M 643.1395263671875 406.89794921875 C 558.8002319335938 399.0115966796875 537.232177734375 406.3276672363281 561.28173828125 408.17718505859375 C 548.3345947265625 405.4907531738281 485.71710205078125 411.3649597167969 507.3184814453125 403.4710998535156 C 536.960205078125 403.5300598144531 568.9436645507812 403.2243347167969 566.701416015625 403.0506896972656 C 532.3878784179688 407.52593994140625 555.9334716796875 408.4252624511719 643.1395263671875 406.89794921875" stroke-width="0.0" fill="rgb(252, 255, 248)" opacity="0.8926811"/>
    <path d="M 636.9221801757812 521.3475341796875 C 559.829345703125 515.66162109375 537.7762451171875 519.3728637695312 564.9649658203125 522.8726806640625 C 567.4112548828125 516.343994140625 546.0757446289062 517.0087890625 489.3626403808594 522.564697265625 C 563.3212890625 522.0363159179688 574.4169921875 524.9922485351562 559.66064453125 518.1001586914062 C 543.49658203125 522.1723022460938 560.0684204101562 524.3436889648438 636.9221801757812 521.3475341796875" stroke-width="0.0" fill="rgb(255, 254, 249)" opacity="0.89621645"/>
    <path d="M 541.53076171875 518.0849609375 C 482.0971374511719 526.01953125 447.80047607421875 521.8251342773438 442.5906677246094 520.5454711914062 C 458.7597961425781 516.5341186523438 467.51507568359375 518.1814575195312 431.334716796875 518.5742797851562 C 459.065673828125 524.5025024414062 473.49127197265625 521.2071533203125 440.5669860839844 522.0318603515625 C 449.2279052734375 516.2229614257812 465.11395263671875 518.829345703125 541.53076171875 518.0849609375" stroke-width="0.0" fill="rgb(243, 242, 238)" opacity="1.0"/>
    <path d="M 633.45751953125 252.69569396972656 C 575.8208618164062 245.68218994140625 556.8751831054688 252.6024627685547 574.19873046875 249.48414611816406 C 581.6131591796875 250.25833129882812 559.2767333984375 248.52569580078125 528.0809936523438 250.16644287109375 C 520.4459228515625 257.46826171875 581.288330078125 249.47689819335938 549.2958374023438 253.08169555664062 C 545.43701171875 253.2345428466797 568.9441528320312 253.4070281982422 633.45751953125 252.69569396972656" stroke-width="0.0" fill="rgb(253, 253, 250)" opacity="0.9716319"/>
    <path d="M 25.71673583984375 541.5294189453125 C 31.065309524536133 535.4419555664062 21.524497985839844 542.2096557617188 30.228242874145508 535.7459716796875 C 27.177581787109375 540.2393798828125 20.665021896362305 534.7858276367188 26.5413818359375 526.1126098632812 C 27.126419067382812 528.9038696289062 22.170429229736328 518.69677734375 21.808834075927734 525.0061645507812 C 27.10434913635254 533.927490234375 28.00716781616211 544.615966796875 25.71673583984375 541.5294189453125" stroke-width="0.0" fill="rgb(112, 112, 109)" opacity="0.4422281"/>
    <path d="M 458.59735107421875 519.355224609375 C 463.9807434082031 518.6842651367188 450.56512451171875 520.4989624023438 461.41912841796875 521.9320068359375 C 474.6803894042969 523.843994140625 458.6150207519531 521.5502319335938 423.8107604980469 523.5883178710938 C 413.2523193359375 505.1427001953125 440.5320739746094 530.6751708984375 478.6618347167969 518.4630737304688 C 457.2491760253906 521.3492431640625 464.3835754394531 518.7738037109375 458.59735107421875 519.355224609375" stroke-width="0.0" fill="rgb(255, 254, 250)" opacity="0.8927909"/>
    <path d="M 204.23294067382812 253.7464599609375 C 132.83010864257812 275.6838073730469 309.25360107421875 276.9486389160156 61.664886474609375 272.87908935546875 C 204.15963745117188 271.92071533203125 258.4139404296875 253.23231506347656 85.69065856933594 257.89093017578125 C 131.4654998779297 242.666748046875 180.08392333984375 269.44000244140625 164.6699981689453 233.05055236816406 C 177.548583984375 262.08709716796875 134.68942260742188 249.1753387451172 204.23294067382812 253.7464599609375" stroke-width="0.0" fill="rgb(255, 255, 243)" opacity="0.7122596"/>
    <path d="M 109.54318237304688 540.774658203125 C 39.86703109741211 535.1087036132812 16.415796279907227 542.247802734375 43.04896926879883 538.09033203125 C 36.84481430053711 539.4273071289062 17.986236572265625 537.928466796875 -20.46881103515625 539.8676147460938 C 23.77092933654785 544.7825317382812 29.44049644470215 542.5869140625 5.942270278930664 542.6237182617188 C 15.647380828857422 540.7335815429688 33.38684844970703 543.9805297851562 109.54318237304688 540.774658203125" stroke-width="0.0" fill="rgb(253, 249, 246)" opacity="0.8841014"/>
    <path d="M 618.4893188476562 309.52630615234375 C 564.1299438476562 301.59625244140625 529.7311401367188 315.6239013671875 558.8475952148438 311.7655029296875 C 587.9497680664062 315.1861572265625 544.532958984375 303.3256530761719 533.4487915039062 307.7118835449219 C 526.9353637695312 320.4280700683594 579.96435546875 301.3987121582031 570.1205444335938 308.4085998535156 C 535.47705078125 301.92864990234375 565.430419921875 318.55535888671875 618.4893188476562 309.52630615234375" stroke-width="0.0" fill="rgb(255, 254, 251)" opacity="0.94602615"/>
  </g>
</svg>
