<?xml version="1.0" ?>
<svg xmlns="http://www.w3.org/2000/svg" version="1.1" width="600" height="600">
  <defs/>
  <g>
    <path d="M 635.8648681640625 253.0356903076172 C 639.15234375 477.4913024902344 624.2975463867188 476.6855773925781 496.0718078613281 520.5459594726562 C 312.40264892578125 542.6109008789062 351.53759765625 523.5543823242188 261.747802734375 342.947509765625 C 282.869384765625 209.1436309814453 335.9243469238281 226.4734649658203 415.0251159667969 190.7582244873047 C 659.0650024414062 170.8073272705078 668.8587646484375 197.9358367919922 635.8648681640625 253.0356903076172" stroke-width="1.0" fill="rgb(17, 60, 98)" opacity="0.82715553"/>
    <path d="M 612.0879516601562 414.8291931152344 C 574.4168090820312 527.8377685546875 536.3107299804688 528.4071655273438 428.32928466796875 618.68115234375 C 395.71728515625 618.7130737304688 384.1901550292969 596.7210083007812 317.8672790527344 451.5408020019531 C 378.905517578125 372.38165283203125 294.4758605957031 356.307373046875 490.0632019042969 310.39208984375 C 655.3084716796875 322.91387939453125 620.8180541992188 364.67095947265625 612.0879516601562 414.8291931152344" stroke-width="1.0" fill="rgb(255, 169, 0)" opacity="1.0"/>
    <path d="M 622.8211669921875 570.4306640625 C 617.62548828125 615.7877807617188 608.4556274414062 621.8777465820312 546.4888916015625 626.4057006835938 C 411.3131408691406 639.1881713867188 393.2847595214844 641.6550903320312 379.7305603027344 597.5681762695312 C 443.9732666015625 495.64752197265625 517.76708984375 526.0733032226562 618.76025390625 456.75604248046875 C 614.938720703125 429.3420715332031 620.8027954101562 438.1055908203125 622.8211669921875 570.4306640625" stroke-width="1.0" fill="rgb(14, 130, 133)" opacity="0.8081555"/>
    <path d="M 499.32073974609375 185.4582061767578 C 494.4864807128906 216.07608032226562 480.98065185546875 228.33505249023438 260.3568420410156 332.8561706542969 C 148.10009765625 282.9472351074219 140.69091796875 296.88873291015625 -11.285027503967285 128.46995544433594 C -9.074618339538574 -219.38406372070312 13.886266708374023 -159.07093811035156 126.92573547363281 -68.84282684326172 C 385.388916015625 50.47268295288086 393.0856628417969 69.06562805175781 499.32073974609375 185.4582061767578" stroke-width="1.0" fill="rgb(61, 180, 229)" opacity="0.6378743"/>
    <path d="M 146.7202606201172 542.758544921875 C 149.2274627685547 610.4136352539062 153.12709045410156 634.4061279296875 40.45814514160156 637.7433471679688 C -18.541322708129883 614.8509521484375 -22.907041549682617 604.1402587890625 -41.786678314208984 526.2605590820312 C -34.94025421142578 421.99652099609375 -17.350522994995117 415.4479675292969 27.6912841796875 422.67779541015625 C 100.24073028564453 478.41094970703125 119.9532470703125 464.8534240722656 146.7202606201172 542.758544921875" stroke-width="1.0" fill="rgb(14, 154, 186)" opacity="0.88356775"/>
    <path d="M 419.7743835449219 506.0015563964844 C 389.80841064453125 614.57421875 397.2170104980469 638.466552734375 339.0259704589844 656.8797607421875 C 244.59793090820312 619.5972900390625 259.6563720703125 563.275146484375 153.8828887939453 398.48028564453125 C 246.35519409179688 381.25799560546875 261.1785888671875 368.5205383300781 404.495849609375 359.7931213378906 C 439.33917236328125 477.8835754394531 415.1971130371094 455.6150207519531 419.7743835449219 506.0015563964844" stroke-width="1.0" fill="rgb(250, 160, 0)" opacity="1.0"/>
    <path d="M 247.20013427734375 390.4368896484375 C 67.85989379882812 473.2947082519531 71.18132019042969 465.2173156738281 119.75845336914062 559.7791748046875 C 88.30684661865234 545.6622924804688 102.02284240722656 514.4627685546875 51.591548919677734 504.7731018066406 C 33.41020965576172 435.7434997558594 12.098602294921875 420.3773498535156 192.74644470214844 412.866943359375 C 195.41636657714844 149.58775329589844 321.51617431640625 296.5413513183594 247.20013427734375 390.4368896484375" stroke-width="1.0" fill="rgb(155, 77, 144)" opacity="0.5730993"/>
    <path d="M 276.7241516113281 496.9970703125 C 222.70164489746094 530.539794921875 234.0675048828125 543.321044921875 240.43392944335938 586.087890625 C 144.5770721435547 595.0736694335938 135.28167724609375 602.7810668945312 28.054126739501953 540.6740112304688 C 49.26145935058594 380.16778564453125 48.413692474365234 373.03192138671875 175.39968872070312 408.581787109375 C 251.04283142089844 468.22760009765625 272.081298828125 474.6864318847656 276.7241516113281 496.9970703125" stroke-width="1.0" fill="rgb(127, 115, 48)" opacity="0.56143796"/>
    <path d="M 470.44512939453125 0.07293064147233963 C 411.303955078125 75.09931182861328 430.9378662109375 110.45220947265625 379.798095703125 105.46829223632812 C 330.94915771484375 133.41403198242188 292.6124267578125 153.10130310058594 242.3929443359375 41.507076263427734 C 265.0001220703125 -59.373558044433594 281.8581848144531 -60.28571319580078 359.02374267578125 -67.73207092285156 C 470.52117919921875 -51.33735275268555 483.1893310546875 -48.026615142822266 470.44512939453125 0.07293064147233963" stroke-width="1.0" fill="rgb(125, 207, 239)" opacity="0.95359105"/>
    <path d="M 244.86976623535156 593.8744506835938 C 278.5930480957031 609.5486450195312 288.7916564941406 603.5455322265625 210.2252655029297 601.2992553710938 C 113.97966766357422 614.6572875976562 100.56962585449219 607.755615234375 131.0970001220703 637.8128051757812 C 139.01235961914062 518.7348022460938 121.97137451171875 468.8397521972656 136.8898162841797 477.30413818359375 C 221.8271026611328 485.2750549316406 185.77401733398438 548.4100952148438 244.86976623535156 593.8744506835938" stroke-width="1.0" fill="rgb(32, 172, 175)" opacity="0.99805504"/>
    <path d="M 467.37322998046875 519.0384521484375 C 388.6336364746094 604.7311401367188 384.066650390625 617.5005493164062 351.28839111328125 644.9954223632812 C 207.15005493164062 611.6935424804688 202.51258850097656 580.9578857421875 166.9202423095703 396.696044921875 C 174.77337646484375 295.01800537109375 266.8760681152344 279.45806884765625 166.57485961914062 433.8787841796875 C 286.0378723144531 498.6875 396.9136657714844 395.5519714355469 467.37322998046875 519.0384521484375" stroke-width="1.0" fill="rgb(27, 171, 198)" opacity="0.97112846"/>
    <path d="M 266.4996032714844 399.9195556640625 C 20.84407615661621 375.2383728027344 67.0127944946289 413.971923828125 69.48065185546875 501.22967529296875 C 32.18390655517578 500.5032653808594 2.6478164196014404 531.5989379882812 -28.903444290161133 326.0993957519531 C -163.06332397460938 165.76318359375 -230.54953002929688 134.642578125 56.61155700683594 141.24465942382812 C 335.72760009765625 269.01617431640625 346.81524658203125 291.05157470703125 266.4996032714844 399.9195556640625" stroke-width="1.0" fill="rgb(0, 0, 4)" opacity="1.0"/>
    <path d="M 612.0631103515625 68.92263793945312 C 603.8353881835938 195.5709686279297 587.6284790039062 211.71990966796875 591.8571166992188 232.00567626953125 C 367.7399597167969 157.8604278564453 419.8768005371094 94.32439422607422 429.7351379394531 18.956012725830078 C 391.0054016113281 -15.665404319763184 377.1977844238281 -27.355758666992188 466.4996337890625 -30.823123931884766 C 582.3059692382812 -60.99491500854492 608.9822387695312 -90.74565124511719 612.0631103515625 68.92263793945312" stroke-width="1.0" fill="rgb(49, 114, 144)" opacity="0.9880797"/>
    <path d="M 310.1162109375 650.8777465820312 C 344.13079833984375 631.9819946289062 329.30218505859375 633.224365234375 254.6180877685547 642.4213256835938 C 175.2946014404297 633.2237548828125 190.01870727539062 608.013671875 144.4605255126953 516.1682739257812 C 140.59512329101562 452.315673828125 134.06329345703125 443.1087341308594 250.8869171142578 451.7380065917969 C 297.2308654785156 464.9107971191406 264.6540222167969 533.0889892578125 310.1162109375 650.8777465820312" stroke-width="1.0" fill="rgb(33, 173, 190)" opacity="0.7069282"/>
    <path d="M 214.90695190429688 516.7113037109375 C 226.25531005859375 611.231201171875 240.46192932128906 650.7139892578125 148.56900024414062 627.16259765625 C 103.39844512939453 587.689208984375 109.81648254394531 565.852294921875 87.43400573730469 507.2716064453125 C 52.93074417114258 465.5437927246094 92.15865325927734 472.5140380859375 175.0149383544922 426.34771728515625 C 223.41371154785156 436.6086730957031 206.9634552001953 468.1182861328125 214.90695190429688 516.7113037109375" stroke-width="1.0" fill="rgb(32, 170, 191)" opacity="0.9612149"/>
    <path d="M 637.1181640625 117.33690643310547 C 626.2794799804688 301.7729187011719 589.498291015625 299.381103515625 514.4525146484375 256.5161437988281 C 294.9562683105469 277.6399841308594 354.0486145019531 191.347412109375 420.0499267578125 131.05319213867188 C 417.40771484375 31.796953201293945 394.7242431640625 49.76786422729492 421.9134826660156 48.30216979980469 C 425.5295104980469 26.69069480895996 446.3627014160156 34.118350982666016 637.1181640625 117.33690643310547" stroke-width="1.0" fill="rgb(41, 180, 72)" opacity="0.97549206"/>
    <path d="M 367.2835998535156 56.51237869262695 C 408.4313049316406 120.78087615966797 380.1983642578125 119.13599395751953 330.5979919433594 101.17449951171875 C 254.1428680419922 92.82567596435547 240.41552734375 79.0647964477539 217.0918731689453 77.1531982421875 C 223.4149932861328 25.85213279724121 213.4595184326172 -0.8897201418876648 258.664794921875 -35.05323028564453 C 364.21478271484375 -4.70740270614624 355.5021057128906 -1.5429264307022095 367.2835998535156 56.51237869262695" stroke-width="1.0" fill="rgb(126, 210, 234)" opacity="0.7110341"/>
    <path d="M 156.0364532470703 35.293521881103516 C 108.8210678100586 75.32135772705078 87.932861328125 65.60100555419922 61.882911682128906 103.78022766113281 C 65.58513641357422 103.78872680664062 45.641841888427734 63.34888458251953 52.214195251464844 51.973777770996094 C 52.43501281738281 71.89031219482422 41.34943389892578 38.24534225463867 52.02759552001953 65.81758880615234 C 149.3828887939453 53.858795166015625 187.5370330810547 38.47917175292969 156.0364532470703 35.293521881103516" stroke-width="1.0" fill="rgb(134, 210, 228)" opacity="0.00010504264"/>
    <path d="M 220.1988983154297 40.90201187133789 C 213.79470825195312 102.91407775878906 230.19918823242188 107.2296371459961 212.03500366210938 113.18657684326172 C 171.3109893798828 120.8480453491211 181.11993408203125 122.56623077392578 176.18478393554688 42.429866790771484 C 173.66844177246094 25.51776695251465 182.8737335205078 19.109403610229492 205.93545532226562 15.417013168334961 C 215.12969970703125 52.84273910522461 206.545654296875 16.491004943847656 220.1988983154297 40.90201187133789" stroke-width="1.0" fill="rgb(118, 214, 231)" opacity="0.3376123"/>
    <path d="M 233.7166748046875 49.13291549682617 C 245.75404357910156 89.95965576171875 235.14833068847656 79.61125183105469 213.26353454589844 92.16781616210938 C 188.74539184570312 128.31887817382812 185.4764404296875 124.18988800048828 195.3844451904297 127.74276733398438 C 195.11463928222656 77.48103332519531 187.6883087158203 51.73513412475586 166.9777374267578 47.84847640991211 C 167.5477294921875 69.88272094726562 173.68702697753906 43.996768951416016 233.7166748046875 49.13291549682617" stroke-width="1.0" fill="rgb(125, 211, 230)" opacity="0.18708523"/>
    <path d="M 561.9815063476562 132.5706329345703 C 503.49749755859375 167.88536071777344 416.2685546875 143.16807556152344 389.64898681640625 98.39595031738281 C 324.5050964355469 101.45651245117188 319.1419372558594 95.91853332519531 317.95013427734375 85.05133819580078 C 328.7735595703125 17.288232803344727 290.841064453125 13.766681671142578 436.92559814453125 -3.822315216064453 C 604.299560546875 34.796058654785156 581.7847900390625 21.259565353393555 561.9815063476562 132.5706329345703" stroke-width="1.0" fill="rgb(133, 204, 235)" opacity="0.9975177"/>
    <path d="M 569.5780029296875 102.91771697998047 C 571.8342895507812 138.85589599609375 582.6136474609375 178.36061096191406 544.8746948242188 157.46311950683594 C 460.8468017578125 163.27435302734375 453.48223876953125 176.4947967529297 473.4991455078125 145.83084106445312 C 498.2481384277344 111.65766143798828 522.8599243164062 91.43386840820312 552.6288452148438 91.946533203125 C 550.2572021484375 96.67244720458984 572.1951904296875 82.6377182006836 569.5780029296875 102.91771697998047" stroke-width="1.0" fill="rgb(131, 159, 56)" opacity="0.8866089"/>
    <path d="M 267.78509521484375 198.27139282226562 C 409.2359619140625 218.6563720703125 387.132568359375 316.19744873046875 281.6865234375 340.7127685546875 C 211.91458129882812 338.547119140625 161.0254669189453 307.3966064453125 178.36227416992188 275.04437255859375 C 282.2408142089844 359.2898864746094 219.23388671875 150.04074096679688 298.74603271484375 218.92784118652344 C 268.6522216796875 249.31246948242188 340.1634826660156 314.9032287597656 267.78509521484375 198.27139282226562" stroke-width="1.0" fill="rgb(255, 255, 255)" opacity="1.0"/>
    <path d="M 618.8261108398438 273.1971435546875 C 591.2176513671875 329.57977294921875 573.6192016601562 330.5323486328125 516.83447265625 313.14605712890625 C 405.2001647949219 321.8427734375 360.133544921875 325.90728759765625 365.24676513671875 301.221435546875 C 399.4092712402344 221.77435302734375 367.0540771484375 280.78680419921875 474.3575134277344 250.47914123535156 C 622.6188354492188 261.5614318847656 622.8250122070312 257.4070739746094 618.8261108398438 273.1971435546875" stroke-width="1.0" fill="rgb(11, 171, 54)" opacity="0.7886893"/>
    <path d="M 315.3314208984375 92.87861633300781 C 310.29150390625 105.80923461914062 331.22308349609375 106.32569885253906 237.25537109375 94.3082046508789 C 170.55868530273438 86.50999450683594 180.4441680908203 98.76609802246094 172.04400634765625 74.9825210571289 C 194.15371704101562 60.954612731933594 222.4919891357422 62.820289611816406 234.36740112304688 83.22097778320312 C 230.028076171875 58.11504364013672 280.4613342285156 51.14005661010742 315.3314208984375 92.87861633300781" stroke-width="1.0" fill="rgb(132, 205, 240)" opacity="0.30030102"/>
    <path d="M 296.03173828125 197.92543029785156 C 120.79730987548828 173.87062072753906 199.2129669189453 261.25689697265625 177.22923278808594 286.90997314453125 C 127.73941040039062 301.87554931640625 125.77899169921875 302.3099670410156 116.9586410522461 243.2234649658203 C 120.41116333007812 184.31089782714844 125.71177673339844 167.82513427734375 169.78814697265625 125.46049499511719 C 239.2307586669922 76.53135681152344 295.645263671875 157.76263427734375 296.03173828125 197.92543029785156" stroke-width="1.0" fill="rgb(56, 214, 60)" opacity="0.9863427"/>
    <path d="M 357.7032165527344 215.19032287597656 C 187.6546630859375 226.94900512695312 217.6971893310547 241.86099243164062 179.87301635742188 301.985595703125 C 144.96212768554688 247.850830078125 153.58563232421875 245.8901824951172 178.86203002929688 246.36187744140625 C 159.62347412109375 228.84786987304688 148.52626037597656 220.1573028564453 183.70541381835938 231.60000610351562 C 196.91891479492188 221.93295288085938 218.41119384765625 146.83834838867188 357.7032165527344 215.19032287597656" stroke-width="1.0" fill="rgb(255, 252, 255)" opacity="1.0"/>
    <path d="M 493.9722900390625 491.8497314453125 C 344.3739013671875 619.177490234375 397.613037109375 636.110595703125 460.51959228515625 515.4092407226562 C 296.1136779785156 524.4909057617188 478.22479248046875 539.0046997070312 413.43597412109375 464.1894836425781 C 152.94667053222656 437.57940673828125 111.50402069091797 445.807861328125 181.02650451660156 444.765380859375 C 530.1952514648438 462.25689697265625 400.2514343261719 401.59197998046875 493.9722900390625 491.8497314453125" stroke-width="1.0" fill="rgb(88, 189, 185)" opacity="0.72204953"/>
    <path d="M 20.733078002929688 -6.0936689376831055 C 27.549646377563477 14.43195915222168 16.310985565185547 13.495591163635254 -1.892976999282837 20.925979614257812 C -4.431095600128174 13.218551635742188 -11.892148971557617 5.753810882568359 -14.5081205368042 -4.165348052978516 C -16.328975677490234 -9.47056770324707 -9.008468627929688 -16.791074752807617 0.9915703535079956 -19.47057342529297 C 11.001153945922852 -16.793777465820312 19.087919235229492 -9.713242530822754 20.733078002929688 -6.0936689376831055" stroke-width="1.0" fill="rgb(210, 136, 22)" opacity="0.9409792"/>
    <path d="M 223.46160888671875 102.18940734863281 C 179.2268829345703 119.70775604248047 167.45120239257812 121.89503479003906 166.35240173339844 83.7125015258789 C 153.43003845214844 35.81108474731445 132.68309020996094 59.65435028076172 136.65248107910156 71.1099624633789 C 121.10096740722656 57.671085357666016 118.43490600585938 40.89753341674805 158.33682250976562 8.866063117980957 C 228.8266143798828 -6.382615566253662 246.1579132080078 11.377948760986328 223.46160888671875 102.18940734863281" stroke-width="1.0" fill="rgb(124, 213, 230)" opacity="0.23171766"/>
    <path d="M 284.511962890625 97.9056167602539 C 246.34329223632812 109.79830932617188 204.63397216796875 104.05735778808594 189.86329650878906 108.43486022949219 C 158.3876953125 119.0418701171875 145.47203063964844 109.10689544677734 147.52694702148438 62.38274383544922 C 138.23880004882812 2.575753927230835 120.66134643554688 -11.852755546569824 231.82827758789062 -47.7543830871582 C 269.7291259765625 -30.906660079956055 249.1725616455078 10.951887130737305 284.511962890625 97.9056167602539" stroke-width="1.0" fill="rgb(122, 212, 232)" opacity="0.2612957"/>
    <path d="M 582.8046875 156.61843872070312 C 586.1842651367188 185.96417236328125 526.1803588867188 169.67881774902344 489.7352600097656 173.2119598388672 C 494.78424072265625 211.8223876953125 435.8134460449219 247.21603393554688 454.48016357421875 190.8858642578125 C 468.17572021484375 140.7330780029297 486.16241455078125 118.68492889404297 520.296630859375 93.0081558227539 C 569.2015991210938 76.52275085449219 595.5178833007812 87.85226440429688 582.8046875 156.61843872070312" stroke-width="1.0" fill="rgb(46, 186, 59)" opacity="0.92616683"/>
    <path d="M 684.7350463867188 390.9642028808594 C 643.0025024414062 462.13018798828125 634.9765014648438 479.7292175292969 519.314208984375 599.9215087890625 C 320.57855224609375 513.925537109375 300.2378234863281 459.7374267578125 441.10247802734375 454.4617919921875 C 537.44775390625 385.0896911621094 498.3486328125 329.1121520996094 542.2875366210938 321.01513671875 C 608.2835083007812 320.3460693359375 630.10791015625 284.48095703125 684.7350463867188 390.9642028808594" stroke-width="1.0" fill="rgb(32, 170, 198)" opacity="1.0"/>
    <path d="M 141.18557739257812 381.1675109863281 C 169.22354125976562 463.7328796386719 94.22328186035156 424.93377685546875 13.209896087646484 428.66790771484375 C -9.210306167602539 443.667724609375 -10.279427528381348 445.0213317871094 -24.525409698486328 418.96466064453125 C 12.047396659851074 367.0386657714844 6.956077575683594 359.1277160644531 69.19779205322266 364.4979248046875 C 111.83740234375 381.92449951171875 148.62881469726562 383.3830261230469 141.18557739257812 381.1675109863281" stroke-width="1.0" fill="rgb(177, 125, 124)" opacity="0.5502143"/>
    <path d="M 612.123779296875 334.7369689941406 C 536.2996826171875 373.7803955078125 500.3677062988281 413.1759338378906 521.8863525390625 321.64532470703125 C 532.4702758789062 269.4645690917969 346.20928955078125 423.9408264160156 371.69061279296875 317.4815673828125 C 470.37322998046875 325.8357849121094 460.79638671875 311.37274169921875 495.60748291015625 308.2615966796875 C 525.3847045898438 309.3315124511719 569.128662109375 319.4602355957031 612.123779296875 334.7369689941406" stroke-width="1.0" fill="rgb(26, 169, 223)" opacity="0.9713237"/>
    <path d="M 91.53407287597656 366.933837890625 C 101.87870788574219 409.1564636230469 110.73365020751953 436.4573974609375 75.2387924194336 444.02581787109375 C 22.485631942749023 432.82281494140625 0.6132659912109375 434.78265380859375 -11.486507415771484 401.4808654785156 C -2.4588987827301025 334.3406982421875 -2.652170419692993 318.1109313964844 10.05007266998291 315.44549560546875 C 76.61538696289062 365.6390686035156 98.38851165771484 374.2088623046875 91.53407287597656 366.933837890625" stroke-width="1.0" fill="rgb(255, 154, 0)" opacity="1.0"/>
    <path d="M 110.53153991699219 254.96746826171875 C 110.77008819580078 278.044921875 114.44761657714844 291.969970703125 97.02298736572266 289.79718017578125 C 54.453697204589844 268.9071350097656 44.15708541870117 280.9735107421875 -8.101449012756348 258.9191589355469 C 9.692787170410156 197.3060302734375 11.994630813598633 205.04403686523438 57.56385803222656 189.97190856933594 C 120.8280258178711 220.78543090820312 121.77120971679688 228.56593322753906 110.53153991699219 254.96746826171875" stroke-width="1.0" fill="rgb(63, 230, 78)" opacity="0.8971434"/>
    <path d="M 171.9097442626953 300.59130859375 C 180.6534423828125 295.16961669921875 180.13803100585938 315.19873046875 155.70228576660156 340.7077331542969 C 185.26361083984375 373.4825744628906 125.30706024169922 372.30657958984375 89.6641616821289 337.86993408203125 C 98.51740264892578 233.84039306640625 118.79135131835938 249.8960418701172 128.97528076171875 278.1507263183594 C 173.53131103515625 292.9928894042969 173.6947784423828 280.59539794921875 171.9097442626953 300.59130859375" stroke-width="1.0" fill="rgb(132, 220, 166)" opacity="0.6842389"/>
    <path d="M 176.36802673339844 399.7360534667969 C 185.58094787597656 391.98712158203125 200.43936157226562 377.6667175292969 128.45925903320312 386.652099609375 C 125.37580871582031 380.5011291503906 109.01504516601562 377.8302001953125 98.86798095703125 359.7497863769531 C 86.80284118652344 309.1672058105469 102.29289245605469 315.86639404296875 172.93699645996094 294.26806640625 C 185.36172485351562 309.88031005859375 169.08230590820312 318.19671630859375 176.36802673339844 399.7360534667969" stroke-width="1.0" fill="rgb(41, 159, 134)" opacity="0.7587801"/>
    <path d="M 21.50840950012207 363.251708984375 C -7.036249160766602 377.0965270996094 27.955209732055664 394.5947265625 45.4725341796875 461.6018371582031 C -51.6871452331543 456.83697509765625 -40.301605224609375 426.3929748535156 -21.246477127075195 402.5763244628906 C -14.303504943847656 359.9253845214844 -34.11075210571289 316.096923828125 -8.35461711883545 301.1461181640625 C 5.938540935516357 358.948486328125 67.88817596435547 344.3362731933594 21.50840950012207 363.251708984375" stroke-width="1.0" fill="rgb(26, 172, 192)" opacity="0.95997"/>
    <path d="M 172.17372131347656 287.22784423828125 C 190.6300506591797 320.9044494628906 166.49581909179688 311.7432556152344 117.71412658691406 303.58953857421875 C 107.28874206542969 308.9090881347656 90.81256103515625 308.6895751953125 71.04254150390625 299.0128479003906 C 55.54135513305664 248.0772705078125 91.48469543457031 242.5818328857422 145.9755401611328 251.11367797851562 C 156.28675842285156 291.0723876953125 151.3404541015625 287.4189453125 172.17372131347656 287.22784423828125" stroke-width="1.0" fill="rgb(47, 212, 81)" opacity="0.85164255"/>
    <path d="M 113.80592346191406 277.29010009765625 C 108.01519012451172 371.41162109375 82.06877136230469 373.6056213378906 25.495988845825195 331.7076416015625 C -18.57166862487793 317.58795166015625 -28.40134620666504 341.14483642578125 -29.013429641723633 264.5400695800781 C -11.787944793701172 249.02076721191406 17.550867080688477 256.9761047363281 82.20597076416016 246.47305297851562 C 124.32140350341797 234.25982666015625 140.39344787597656 238.8553466796875 113.80592346191406 277.29010009765625" stroke-width="1.0" fill="rgb(53, 207, 80)" opacity="0.9941978"/>
    <path d="M 179.66029357910156 296.9455871582031 C 173.0049591064453 406.8144226074219 165.51785278320312 405.1007995605469 130.50454711914062 373.5527038574219 C 72.70592498779297 380.877197265625 1.6184487342834473 374.16778564453125 9.113247871398926 311.152099609375 C 41.71517562866211 310.19329833984375 48.85192108154297 312.30084228515625 59.81615447998047 307.8913879394531 C 88.12528228759766 302.39404296875 134.28480529785156 298.5785217285156 179.66029357910156 296.9455871582031" stroke-width="1.0" fill="rgb(3, 174, 218)" opacity="1.0"/>
    <path d="M 138.74334716796875 449.6026306152344 C 133.0308837890625 576.3203125 170.96044921875 605.863037109375 20.6650447845459 575.4437255859375 C -20.42303466796875 580.1060791015625 -25.014020919799805 538.24951171875 -30.56240463256836 460.2513427734375 C -23.558286666870117 401.40313720703125 15.580892562866211 435.84466552734375 82.2234115600586 434.36248779296875 C 90.62168884277344 427.21258544921875 63.34548568725586 443.3264465332031 138.74334716796875 449.6026306152344" stroke-width="1.0" fill="rgb(35, 171, 190)" opacity="0.99596703"/>
    <path d="M 126.10517883300781 273.9090576171875 C 98.51412200927734 198.34487915039062 30.834217071533203 148.87594604492188 -15.234892845153809 272.3996276855469 C -16.41901969909668 280.704833984375 -10.294598579406738 252.65296936035156 -50.639896392822266 173.41961669921875 C -35.15273666381836 110.93568420410156 -45.33760452270508 74.26432800292969 -6.722150802612305 108.9326400756836 C 237.89114379882812 171.31263732910156 87.6972427368164 159.95425415039062 126.10517883300781 273.9090576171875" stroke-width="1.0" fill="rgb(72, 182, 81)" opacity="0.999996"/>
    <path d="M 594.923095703125 377.0361022949219 C 615.7462768554688 358.53497314453125 622.5721435546875 275.9490051269531 638.9010620117188 252.60043334960938 C 583.9850463867188 250.6571044921875 524.4832763671875 252.1842041015625 524.4654541015625 249.56858825683594 C 523.5618896484375 184.72256469726562 477.55206298828125 246.64407348632812 562.0343627929688 183.62832641601562 C 601.2862548828125 257.2299499511719 603.9241943359375 246.25717163085938 594.923095703125 377.0361022949219" stroke-width="1.0" fill="rgb(107, 162, 3)" opacity="0.1544329"/>
    <path d="M -5.048662185668945 -14.520628929138184 C 1.4148759841918945 -2.099010944366455 -4.544948101043701 13.996188163757324 -6.942868232727051 26.205230712890625 C -16.1728515625 22.463058471679688 -19.69126319885254 11.59648609161377 -20.568592071533203 -0.05314206704497337 C -17.152517318725586 -9.426115989685059 -9.832011222839355 -16.74662208557129 0.16357603669166565 -19.42527198791504 C 9.098133087158203 -16.423154830932617 9.80420207977295 -3.519977331161499 -5.048662185668945 -14.520628929138184" stroke-width="1.0" fill="rgb(6, 69, 182)" opacity="0.57207155"/>
    <path d="M 500.0173645019531 320.64288330078125 C 396.2918701171875 383.45751953125 307.08453369140625 367.6701354980469 359.9998474121094 377.1097412109375 C 346.711181640625 408.2315368652344 387.36474609375 463.1341247558594 369.4284362792969 427.9864807128906 C 347.9591979980469 363.2462463378906 324.0875244140625 373.36846923828125 328.5667724609375 377.5904846191406 C 347.1974792480469 363.6683349609375 355.7814636230469 366.07720947265625 500.0173645019531 320.64288330078125" stroke-width="1.0" fill="rgb(255, 113, 46)" opacity="0.8654715"/>
    <path d="M 358.22625732421875 243.04818725585938 C 358.9847412109375 260.3004455566406 363.3117980957031 245.56324768066406 338.17694091796875 233.22537231445312 C 321.09954833984375 205.71365356445312 318.04876708984375 204.5956573486328 307.06591796875 199.25759887695312 C 304.6971435546875 190.22296142578125 308.85125732421875 179.30429077148438 322.736572265625 176.300537109375 C 343.2859802246094 177.8482208251953 368.94647216796875 190.6663818359375 358.22625732421875 243.04818725585938" stroke-width="1.0" fill="rgb(0, 0, 14)" opacity="1.0"/>
    <path d="M 604.7005004882812 594.2606201171875 C 492.8729553222656 615.1199951171875 433.7263488769531 604.7926635742188 388.09283447265625 601.737548828125 C 380.9918212890625 611.263671875 392.3605651855469 572.4017333984375 385.89990234375 530.8051147460938 C 383.677734375 524.6963500976562 411.4618835449219 544.765869140625 431.5234069824219 513.5807495117188 C 529.1166381835938 489.1021728515625 640.2825317382812 452.6861572265625 604.7005004882812 594.2606201171875" stroke-width="1.0" fill="rgb(35, 171, 190)" opacity="0.99418133"/>
    <path d="M 495.55133056640625 437.8651428222656 C 448.9908447265625 428.64404296875 452.3384094238281 427.6788635253906 476.1170959472656 440.26318359375 C 437.4978942871094 444.976806640625 415.3102111816406 452.1649169921875 408.3282775878906 450.06365966796875 C 404.7489013671875 471.557861328125 392.4161682128906 456.9788513183594 462.6871032714844 452.484130859375 C 488.1060485839844 463.0611572265625 483.7102966308594 453.3893127441406 495.55133056640625 437.8651428222656" stroke-width="1.0" fill="rgb(49, 167, 206)" opacity="0.12011038"/>
    <path d="M 26.79463005065918 -13.24365234375 C 0.8725113868713379 -6.812999725341797 -5.656384468078613 2.3207242488861084 -12.459746360778809 6.789363861083984 C -8.331884384155273 14.99449348449707 -16.687040328979492 10.195168495178223 -19.38077163696289 0.24558497965335846 C -16.701330184936523 -9.754215240478516 -9.380823135375977 -17.074722290039062 0.6333194375038147 -19.758108139038086 C 13.679710388183594 -18.398157119750977 26.11689567565918 -17.485498428344727 26.79463005065918 -13.24365234375" stroke-width="1.0" fill="rgb(147, 25, 175)" opacity="0.9021593"/>
    <path d="M 15.188370704650879 -9.876347541809082 C 7.407209396362305 -3.9552314281463623 -5.089622497558594 -2.06083607673645 -22.951345443725586 -3.375523090362549 C -9.520933151245117 17.463510513305664 -17.095096588134766 10.829310417175293 -19.78054428100586 0.84635990858078 C -17.10109519958496 -9.153494834899902 -9.780588150024414 -16.474002838134766 0.2196018397808075 -19.153560638427734 C 10.233193397521973 -16.47905158996582 17.922927856445312 -9.295780181884766 15.188370704650879 -9.876347541809082" stroke-width="1.0" fill="rgb(68, 203, 0)" opacity="0.8567398"/>
    <path d="M 27.84872055053711 11.494402885437012 C 33.34010696411133 27.540925979614258 20.942777633666992 25.909454345703125 3.531745195388794 17.402639389038086 C 6.009827613830566 -3.0109217166900635 -3.688687801361084 -6.652626991271973 -18.309072494506836 -1.7549406290054321 C -16.553665161132812 -9.000393867492676 -9.233158111572266 -16.32090187072754 -2.761871576309204 -17.160341262817383 C -4.100826740264893 -6.365301609039307 4.849164962768555 -0.020759642124176025 27.84872055053711 11.494402885437012" stroke-width="1.0" fill="rgb(67, 65, 167)" opacity="0.72339857"/>
    <path d="M 224.6008758544922 262.4198913574219 C 239.1670684814453 243.1357421875 228.4845428466797 260.6400451660156 237.6543426513672 265.052490234375 C 256.2044982910156 235.98806762695312 261.0235595703125 255.09542846679688 242.11572265625 261.5016784667969 C 215.1306610107422 252.69627380371094 250.2353057861328 259.7901306152344 250.25157165527344 241.30706787109375 C 260.1551818847656 249.72621154785156 250.23513793945312 281.99505615234375 224.6008758544922 262.4198913574219" stroke-width="1.0" fill="rgb(96, 11, 11)" opacity="1.0"/>
    <path d="M 293.33990478515625 267.82574462890625 C 315.3932800292969 308.1443786621094 344.2926025390625 293.8847351074219 338.57470703125 269.77667236328125 C 318.2613525390625 241.1244354248047 287.57623291015625 217.97315979003906 287.2734680175781 251.51702880859375 C 298.5890808105469 244.4532012939453 320.9296569824219 247.75819396972656 296.3863830566406 232.256591796875 C 275.42645263671875 229.86851501464844 272.893798828125 259.3783264160156 293.33990478515625 267.82574462890625" stroke-width="1.0" fill="rgb(14, 0, 5)" opacity="0.9677395"/>
    <path d="M 0.6064803004264832 -20.185565948486328 C -0.26675525307655334 -4.224613666534424 -0.5305077433586121 9.59001350402832 -6.6683783531188965 18.221633911132812 C -12.504498481750488 20.922067642211914 -16.608985900878906 10.78917121887207 -17.531442642211914 -1.9581907987594604 C -16.523117065429688 -9.645195007324219 -9.202609062194824 -16.965702056884766 0.7972381711006165 -19.645153045654297 C 10.777332305908203 -16.95941925048828 17.296302795410156 -9.360980987548828 0.6064803004264832 -20.185565948486328" stroke-width="1.0" fill="rgb(217, 208, 130)" opacity="0.6953545"/>
    <path d="M 365.87213134765625 279.81884765625 C 370.8887634277344 267.0207214355469 433.8748779296875 267.9677429199219 309.1719970703125 331.7511901855469 C 323.5650939941406 310.6175537109375 266.2097473144531 352.75933837890625 364.7415771484375 311.0134582519531 C 370.1147766113281 223.45277404785156 354.01507568359375 221.6519012451172 368.3036193847656 200.78457641601562 C 338.5046691894531 170.01498413085938 388.4646911621094 209.0872802734375 365.87213134765625 279.81884765625" stroke-width="1.0" fill="rgb(99, 254, 55)" opacity="0.32852522"/>
    <path d="M 117.38444519042969 148.58352661132812 C 99.2761459350586 159.97300720214844 99.352783203125 168.34446716308594 120.09273529052734 218.53529357910156 C 98.17227172851562 192.0314178466797 85.4111328125 172.8473358154297 52.666160583496094 175.9354248046875 C 45.94816970825195 166.12371826171875 50.735435485839844 142.29367065429688 48.57353591918945 144.69754028320312 C 82.45267486572266 145.8989715576172 77.40904998779297 150.06153869628906 117.38444519042969 148.58352661132812" stroke-width="1.0" fill="rgb(26, 203, 49)" opacity="0.11477036"/>
    <path d="M 547.7329711914062 250.96609497070312 C 501.1943359375 284.79986572265625 469.54254150390625 267.3106689453125 475.23553466796875 258.3775939941406 C 477.9415283203125 269.8034973144531 464.7384033203125 273.4977111816406 421.73321533203125 260.8792419433594 C 445.10040283203125 215.798828125 440.112060546875 228.71485900878906 471.36614990234375 233.66798400878906 C 539.6033935546875 199.59075927734375 572.784912109375 167.02389526367188 547.7329711914062 250.96609497070312" stroke-width="1.0" fill="rgb(255, 129, 2)" opacity="1.0"/>
    <path d="M 469.1104736328125 258.70361328125 C 449.0892028808594 202.45651245117188 437.8116455078125 210.8355712890625 434.31536865234375 290.8216857910156 C 431.97125244140625 241.8769989013672 442.2120056152344 278.3708801269531 403.91925048828125 268.713134765625 C 414.255615234375 230.46128845214844 450.0112609863281 222.8641815185547 471.2359924316406 228.96327209472656 C 444.65667724609375 226.8724822998047 488.0733337402344 211.1741943359375 469.1104736328125 258.70361328125" stroke-width="1.0" fill="rgb(201, 115, 85)" opacity="0.15594374"/>
    <path d="M 11.426140785217285 -9.348169326782227 C -2.643294095993042 -11.629262924194336 -9.481436729431152 -2.2243239879608154 -16.474613189697266 5.447298049926758 C -7.729889392852783 14.47050952911377 -16.959142684936523 9.936080932617188 -19.71965980529785 0.13578514754772186 C -17.04073143005371 -9.862764358520508 -9.720224380493164 -17.183271408081055 0.2797754406929016 -19.862764358520508 C 10.27922534942627 -17.183128356933594 17.43756866455078 -9.817501068115234 11.426140785217285 -9.348169326782227" stroke-width="1.0" fill="rgb(78, 115, 54)" opacity="0.81042814"/>
    <path d="M 401.15985107421875 313.9716796875 C 414.86395263671875 358.0022277832031 398.5851135253906 357.1711730957031 334.6845397949219 364.2365417480469 C 339.3125 364.2599182128906 343.6433410644531 374.0408630371094 348.4559631347656 338.1438903808594 C 349.6451416015625 333.2940979003906 340.3443298339844 351.7178039550781 348.8371887207031 337.34259033203125 C 373.3358154296875 347.9256591796875 396.79364013671875 354.7527160644531 401.15985107421875 313.9716796875" stroke-width="1.0" fill="rgb(55, 132, 188)" opacity="0.6323924"/>
    <path d="M 436.09417724609375 257.2129821777344 C 409.5172119140625 320.5925598144531 395.970703125 313.28765869140625 321.1358337402344 324.08038330078125 C 358.0821838378906 298.85986328125 370.50421142578125 285.4154357910156 340.10009765625 234.86489868164062 C 372.6883850097656 212.20469665527344 351.1832580566406 185.09713745117188 358.7299499511719 200.20819091796875 C 375.21282958984375 193.67161560058594 423.5716857910156 180.13185119628906 436.09417724609375 257.2129821777344" stroke-width="1.0" fill="rgb(9, 192, 107)" opacity="0.97091323"/>
    <path d="M 440.5148010253906 216.65646362304688 C 459.5663757324219 198.78305053710938 489.01715087890625 241.86061096191406 464.2078857421875 266.6506042480469 C 467.7388000488281 253.701416015625 437.740478515625 304.91229248046875 376.9111633300781 290.2029724121094 C 373.9266357421875 228.32406616210938 419.091064453125 241.2890167236328 459.4471740722656 238.01084899902344 C 441.35089111328125 225.49546813964844 451.0688171386719 254.71546936035156 440.5148010253906 216.65646362304688" stroke-width="1.0" fill="rgb(3, 187, 110)" opacity="0.91732866"/>
    <path d="M 366.2368469238281 312.179931640625 C 388.095947265625 301.4081726074219 386.7064208984375 325.9665222167969 345.73468017578125 337.5596008300781 C 358.9498291015625 344.0713806152344 343.8854675292969 340.3686828613281 312.49749755859375 351.0145263671875 C 291.41314697265625 339.4156799316406 310.4024353027344 341.4059753417969 360.47308349609375 317.2841491699219 C 405.0520935058594 285.775390625 441.90869140625 302.4577941894531 366.2368469238281 312.179931640625" stroke-width="1.0" fill="rgb(255, 120, 0)" opacity="1.0"/>
    <path d="M 51.1357536315918 -3.730806827545166 C 45.72246170043945 20.458213806152344 40.66386413574219 28.743432998657227 -6.659745693206787 20.672475814819336 C 0.5319535136222839 38.2416877746582 -11.177702903747559 32.2523307800293 -20.290861129760742 15.245119094848633 C -17.025402069091797 -9.588007926940918 -9.70489501953125 -16.90851402282715 0.29510653018951416 -19.5880069732666 C 10.295633316040039 -16.90865707397461 17.6909236907959 -9.60897445678711 51.1357536315918 -3.730806827545166" stroke-width="1.0" fill="rgb(76, 80, 89)" opacity="0.7867919"/>
    <path d="M 497.54217529296875 218.24241638183594 C 472.04840087890625 234.267333984375 476.9728698730469 253.4093017578125 472.7145080566406 271.7598876953125 C 435.70751953125 253.23655700683594 434.468017578125 272.0301208496094 432.3957214355469 202.20956420898438 C 407.6231994628906 201.83384704589844 448.947998046875 212.6108856201172 443.7833251953125 170.31605529785156 C 496.8499450683594 170.85549926757812 500.00775146484375 157.05519104003906 497.54217529296875 218.24241638183594" stroke-width="1.0" fill="rgb(39, 185, 79)" opacity="0.9624187"/>
    <path d="M 10.340036392211914 20.797868728637695 C 15.815181732177734 32.22549057006836 0.6961682438850403 27.78643035888672 -19.51416015625 28.421390533447266 C -5.859159469604492 12.512781143188477 -17.066131591796875 10.68960189819336 -19.800453186035156 0.8842877149581909 C -17.121049880981445 -9.115347862243652 -9.800541877746582 -16.435853958129883 0.06732237339019775 -26.40399169921875 C 6.926380634307861 -21.28638458251953 20.488279342651367 -17.49191665649414 10.340036392211914 20.797868728637695" stroke-width="1.0" fill="rgb(246, 93, 195)" opacity="0.88670015"/>
    <path d="M 214.13092041015625 208.59214782714844 C 220.30615234375 194.73094177246094 201.07786560058594 225.0873260498047 190.33740234375 204.66456604003906 C 208.8062286376953 192.61477661132812 207.01846313476562 213.50274658203125 168.53689575195312 239.3519744873047 C 152.68124389648438 206.2639923095703 170.7357635498047 160.51792907714844 212.6306915283203 184.22467041015625 C 218.5908966064453 201.9350128173828 218.44924926757812 208.4390106201172 214.13092041015625 208.59214782714844" stroke-width="1.0" fill="rgb(0, 0, 16)" opacity="1.0"/>
    <path d="M 626.9985961914062 27.465063095092773 C 605.0632934570312 38.92472457885742 614.1213989257812 52.326141357421875 609.1673583984375 58.746212005615234 C 561.9659423828125 69.57630920410156 590.342529296875 31.65675926208496 568.2911376953125 14.82645034790039 C 577.9258422851562 30.361757278442383 598.9424438476562 25.031269073486328 610.248291015625 31.889711380004883 C 591.572998046875 17.56941795349121 585.7392578125 23.668216705322266 626.9985961914062 27.465063095092773" stroke-width="1.0" fill="rgb(76, 113, 176)" opacity="0.062151074"/>
    <path d="M 219.24935913085938 438.38934326171875 C 247.66627502441406 446.53143310546875 221.4127655029297 445.0454406738281 188.35902404785156 457.45269775390625 C 170.80130004882812 462.3164367675781 148.53280639648438 452.6649475097656 164.67987060546875 395.98516845703125 C 209.48806762695312 399.92584228515625 210.43943786621094 411.7252502441406 169.38027954101562 396.9385986328125 C 195.9386444091797 409.25225830078125 191.09556579589844 419.46856689453125 219.24935913085938 438.38934326171875" stroke-width="1.0" fill="rgb(144, 161, 109)" opacity="0.756911"/>
    <path d="M 1.289931058883667 6.274594783782959 C 17.956342697143555 19.829753875732422 21.82097816467285 2.5871455669403076 14.36333179473877 -1.691489577293396 C -23.228771209716797 0.006376020610332489 -28.9078369140625 -3.640770673751831 -22.00885009765625 -5.546721935272217 C -16.504222869873047 -9.082740783691406 -9.183714866638184 -16.403247833251953 5.616203308105469 -27.450037002563477 C 8.012093544006348 -39.87240219116211 7.693603992462158 -38.94921875 1.289931058883667 6.274594783782959" stroke-width="1.0" fill="rgb(48, 151, 135)" opacity="0.8199801"/>
    <path d="M 444.93878173828125 264.6724548339844 C 433.4537658691406 276.09564208984375 418.1486511230469 284.3323974609375 408.1588439941406 287.7236328125 C 428.0462951660156 294.92999267578125 425.6856384277344 282.3585205078125 389.1590881347656 315.6155700683594 C 374.0382385253906 314.888671875 378.6639709472656 282.6983947753906 378.0924377441406 189.52603149414062 C 405.23162841796875 187.0145721435547 433.39654541015625 210.28526306152344 444.93878173828125 264.6724548339844" stroke-width="1.0" fill="rgb(27, 173, 116)" opacity="0.5446499"/>
    <path d="M 374.0849609375 369.5369567871094 C 360.0342102050781 384.77349853515625 325.0592041015625 357.1372985839844 341.673583984375 386.6636657714844 C 349.2962341308594 436.6798095703125 370.0137023925781 418.9486083984375 391.493408203125 421.8369140625 C 388.9765319824219 367.4134826660156 348.4985046386719 357.7445068359375 356.3012390136719 357.1271667480469 C 434.5677185058594 341.0949401855469 422.4053649902344 353.3128967285156 374.0849609375 369.5369567871094" stroke-width="1.0" fill="rgb(251, 149, 0)" opacity="0.64094275"/>
    <path d="M 12.21430492401123 -16.132278442382812 C 7.535939693450928 -1.6193228960037231 -4.014329433441162 1.5436617136001587 -16.47538185119629 -3.883625030517578 C -1.792694091796875 6.669675350189209 -11.552204132080078 0.3233661651611328 -19.423324584960938 -2.2067999839782715 C -16.835826873779297 -9.087323188781738 -9.515320777893066 -16.40782928466797 -2.0537219047546387 -17.289430618286133 C 7.1364922523498535 -14.69646167755127 20.183103561401367 -13.114226341247559 12.21430492401123 -16.132278442382812" stroke-width="1.0" fill="rgb(58, 114, 240)" opacity="0.68876934"/>
    <path d="M 304.0673828125 330.7233581542969 C 277.297607421875 360.6046142578125 262.7516784667969 365.889404296875 307.9527893066406 340.62506103515625 C 316.0438537597656 342.69329833984375 318.8306884765625 355.2718811035156 277.0235900878906 367.145751953125 C 302.50225830078125 314.8138732910156 330.038818359375 324.9625244140625 298.19598388671875 328.1357116699219 C 295.3500671386719 342.5306091308594 309.75421142578125 315.7403259277344 304.0673828125 330.7233581542969" stroke-width="1.0" fill="rgb(255, 191, 56)" opacity="0.8883012"/>
    <path d="M 4.088317394256592 -15.027520179748535 C 2.183206081390381 -4.247111797332764 -4.443840503692627 4.022078037261963 -14.485856056213379 12.7117338180542 C -3.606043577194214 11.211939811706543 -16.8946475982666 9.957287788391113 -19.870786666870117 0.9035096764564514 C -17.191715240478516 -9.094922065734863 -9.871208190917969 -16.415428161621094 0.12879155576229095 -19.094921112060547 C 10.128791809082031 -16.415428161621094 17.449298858642578 -9.094922065734863 4.088317394256592 -15.027520179748535" stroke-width="1.0" fill="rgb(174, 237, 186)" opacity="0.8175305"/>
    <path d="M 11.880897521972656 -29.01839828491211 C -1.536457896232605 -6.100950717926025 -6.38798189163208 5.575200080871582 -7.815497875213623 -7.27132511138916 C -13.156468391418457 5.192221164703369 -25.984834671020508 5.406041145324707 -27.703643798828125 -5.149885177612305 C -16.331104278564453 -9.218084335327148 -9.01059627532959 -16.538591384887695 0.0642801821231842 -19.27128028869629 C 12.678990364074707 -20.9963321685791 20.174062728881836 -17.771240234375 11.880897521972656 -29.01839828491211" stroke-width="1.0" fill="rgb(107, 160, 163)" opacity="0.53468674"/>
    <path d="M 474.416015625 236.73104858398438 C 424.7587585449219 248.7700958251953 456.65216064453125 253.04847717285156 430.421630859375 181.17153930664062 C 429.3525085449219 247.0323944091797 414.2032470703125 257.6220703125 446.5164489746094 240.09254455566406 C 448.7025451660156 236.29391479492188 427.0697326660156 229.86135864257812 451.7433776855469 162.67625427246094 C 494.0547180175781 151.74118041992188 470.3660583496094 189.6278076171875 474.416015625 236.73104858398438" stroke-width="1.0" fill="rgb(61, 158, 80)" opacity="0.23240902"/>
    <path d="M 137.84524536132812 434.8489074707031 C 112.02788543701172 449.13983154296875 88.2678451538086 444.1514587402344 81.48185729980469 428.35516357421875 C 116.56241607666016 422.8418884277344 85.98274993896484 448.53082275390625 96.98042297363281 403.36749267578125 C 40.68932342529297 379.6424560546875 27.444868087768555 357.19000244140625 144.400390625 376.99749755859375 C 133.45645141601562 455.48297119140625 127.84857177734375 425.2897033691406 137.84524536132812 434.8489074707031" stroke-width="1.0" fill="rgb(255, 98, 20)" opacity="0.7241562"/>
    <path d="M 20.923564910888672 -21.312612533569336 C 9.38486099243164 -0.9549054503440857 -13.76318359375 4.132333755493164 -29.20777702331543 4.885067939758301 C -32.57667541503906 37.15666198730469 -39.740882873535156 27.25885772705078 -29.12325096130371 12.233043670654297 C -16.794692993164062 -9.369245529174805 -9.474185943603516 -16.68975257873535 2.156815767288208 -24.947532653808594 C 16.424558639526367 -21.823335647583008 32.818809509277344 -22.638927459716797 20.923564910888672 -21.312612533569336" stroke-width="1.0" fill="rgb(91, 61, 140)" opacity="0.51715976"/>
    <path d="M 434.4928894042969 277.8581848144531 C 433.8359680175781 287.9531555175781 420.57611083984375 296.2623291015625 414.8843688964844 289.0821533203125 C 379.82470703125 297.2861022949219 398.21112060546875 317.851806640625 380.5845642089844 315.1585998535156 C 400.95172119140625 290.359619140625 396.6426086425781 273.1764221191406 406.1665954589844 294.7252197265625 C 446.1593933105469 278.6559753417969 416.7894592285156 283.0848083496094 434.4928894042969 277.8581848144531" stroke-width="1.0" fill="rgb(146, 138, 154)" opacity="0.23064898"/>
    <path d="M -2.456279754638672 12.05422592163086 C 15.745196342468262 18.073223114013672 15.906454086303711 19.18219757080078 -10.958755493164062 25.184797286987305 C -11.27743911743164 17.35700225830078 -22.163888931274414 13.143719673156738 -27.426406860351562 7.043324947357178 C -16.961395263671875 -9.455482482910156 -9.640888214111328 -16.775989532470703 -7.4992828369140625 -24.465469360351562 C -2.3515682220458984 -28.527835845947266 -1.6895153522491455 -23.770347595214844 -2.456279754638672 12.05422592163086" stroke-width="1.0" fill="rgb(114, 157, 241)" opacity="0.6549258"/>
    <path d="M 173.8203887939453 443.21588134765625 C 161.0298614501953 478.70355224609375 114.4709701538086 462.9808044433594 94.45659637451172 435.83050537109375 C 100.24333953857422 413.3564758300781 124.94967651367188 404.0230712890625 96.9962387084961 405.4622802734375 C 96.8212661743164 407.0784606933594 105.1318588256836 394.59844970703125 82.56739807128906 395.4276428222656 C 101.35643768310547 398.4324645996094 125.42463684082031 389.66253662109375 173.8203887939453 443.21588134765625" stroke-width="1.0" fill="rgb(195, 153, 76)" opacity="0.44223776"/>
    <path d="M 485.10345458984375 272.1310729980469 C 510.1575927734375 244.99771118164062 447.02783203125 274.0245056152344 410.673095703125 293.4171447753906 C 431.2926940917969 301.7259216308594 418.5887756347656 284.1268615722656 406.4004211425781 295.2860412597656 C 412.6073303222656 304.4550476074219 403.23272705078125 276.3955993652344 397.29595947265625 320.04632568359375 C 390.8704528808594 320.1600036621094 404.2769470214844 310.45404052734375 485.10345458984375 272.1310729980469" stroke-width="1.0" fill="rgb(255, 78, 63)" opacity="1.0"/>
    <path d="M 174.27310180664062 376.1719665527344 C 175.4872589111328 454.423828125 180.81271362304688 452.2696533203125 150.87896728515625 434.2901916503906 C 122.9881591796875 418.1681823730469 117.78768157958984 433.83001708984375 93.29348754882812 400.9619445800781 C 86.708251953125 376.22882080078125 92.91767883300781 371.41644287109375 156.20497131347656 371.8164978027344 C 174.9434356689453 373.380859375 176.15972900390625 358.172607421875 174.27310180664062 376.1719665527344" stroke-width="1.0" fill="rgb(204, 79, 43)" opacity="0.8581986"/>
    <path d="M 179.93466186523438 443.6378173828125 C 181.6469268798828 402.21044921875 197.97581481933594 397.96649169921875 199.82412719726562 464.0406799316406 C 157.50491333007812 473.6635437011719 122.04534912109375 457.62469482421875 125.47796630859375 420.50653076171875 C 110.6878662109375 415.85638427734375 129.53099060058594 426.20635986328125 162.76437377929688 431.4017639160156 C 181.83543395996094 423.5439758300781 195.63856506347656 431.1584167480469 179.93466186523438 443.6378173828125" stroke-width="1.0" fill="rgb(115, 182, 159)" opacity="0.7211987"/>
    <path d="M 2.7577154636383057 -15.510744094848633 C -2.4977505207061768 -5.437215328216553 -4.779640197753906 5.900279521942139 -9.973466873168945 12.731865882873535 C -10.02244758605957 18.79275894165039 -17.10170555114746 10.896336555480957 -19.78097915649414 0.8957647681236267 C -17.101486206054688 -9.104235649108887 -9.780980110168457 -16.424741744995117 0.21913592517375946 -19.104263305664062 C 10.230057716369629 -16.42806053161621 17.827436447143555 -9.196032524108887 2.7577154636383057 -15.510744094848633" stroke-width="1.0" fill="rgb(227, 105, 34)" opacity="0.9673028"/>
    <path d="M 105.5347671508789 440.3300476074219 C 98.17205810546875 437.8052673339844 112.55036163330078 447.3763427734375 80.7643814086914 443.5399475097656 C 61.31425857543945 439.1600036621094 72.3204345703125 419.65667724609375 70.2501449584961 417.2641906738281 C 69.30863952636719 396.2094421386719 73.72550964355469 397.031982421875 71.10040283203125 414.983154296875 C 55.759647369384766 445.2105407714844 60.215126037597656 440.32720947265625 105.5347671508789 440.3300476074219" stroke-width="1.0" fill="rgb(191, 155, 134)" opacity="0.18328106"/>
    <path d="M 209.6077423095703 430.15557861328125 C 204.8771209716797 458.8124084472656 145.3907470703125 463.19189453125 124.5691146850586 441.2774963378906 C 195.2084197998047 435.0304260253906 152.89674377441406 459.1698303222656 50.965694427490234 454.02801513671875 C -4.225748538970947 360.4861145019531 101.15255737304688 385.3679504394531 163.15020751953125 381.4280700683594 C 176.55551147460938 384.1068115234375 196.7474365234375 371.50189208984375 209.6077423095703 430.15557861328125" stroke-width="1.0" fill="rgb(252, 160, 0)" opacity="0.9982027"/>
    <path d="M 355.703369140625 306.13946533203125 C 315.5747985839844 346.2259521484375 311.91827392578125 318.27362060546875 319.2547912597656 320.7846374511719 C 350.6355895996094 296.9507751464844 324.3341369628906 322.4482116699219 315.0179138183594 327.87274169921875 C 295.75067138671875 323.5091247558594 276.9836120605469 354.3759765625 289.8841247558594 341.9381103515625 C 296.562255859375 346.08099365234375 303.69482421875 341.85791015625 355.703369140625 306.13946533203125" stroke-width="1.0" fill="rgb(14, 32, 55)" opacity="0.11685112"/>
    <path d="M 97.99324035644531 446.6259460449219 C 129.33926391601562 443.32049560546875 120.13040924072266 416.21612548828125 101.20391845703125 418.79583740234375 C 81.7145767211914 412.5887756347656 83.7444839477539 413.9853820800781 99.87132263183594 429.7707214355469 C 102.41506958007812 445.53839111328125 153.51976013183594 448.9250183105469 87.98365783691406 431.7306823730469 C 50.43447494506836 379.229736328125 55.37930679321289 415.0697021484375 97.99324035644531 446.6259460449219" stroke-width="1.0" fill="rgb(230, 166, 0)" opacity="0.32946676"/>
    <path d="M 28.859066009521484 23.338520050048828 C 23.101943969726562 30.95846176147461 13.530081748962402 21.444652557373047 -9.803201675415039 16.032108306884766 C -21.076251983642578 29.1002197265625 -22.489376068115234 16.863372802734375 -20.043630599975586 1.0970383882522583 C -17.264598846435547 -9.003607749938965 -9.944091796875 -16.324115753173828 6.11428689956665 -25.20370864868164 C 3.4215102195739746 -10.375353813171387 8.246583938598633 -0.682165801525116 28.859066009521484 23.338520050048828" stroke-width="1.0" fill="rgb(66, 107, 168)" opacity="0.46645778"/>
    <path d="M 6.0342559814453125 -14.991805076599121 C 0.7862502932548523 -6.772529125213623 -7.103065013885498 1.8527462482452393 -13.560925483703613 8.666531562805176 C -1.4774919748306274 10.51026439666748 -11.233132362365723 4.368411064147949 -18.987104415893555 0.4065164029598236 C -16.490135192871094 -9.017433166503906 -9.169628143310547 -16.337940216064453 0.8576685190200806 -19.025548934936523 C 12.891154289245605 -17.154600143432617 25.13245391845703 -14.927513122558594 6.0342559814453125 -14.991805076599121" stroke-width="1.0" fill="rgb(85, 97, 151)" opacity="0.853812"/>
    <path d="M 203.2224884033203 379.4019470214844 C 225.0030975341797 397.1449890136719 253.09701538085938 392.5016174316406 252.16769409179688 447.5188293457031 C 163.06845092773438 453.04248046875 183.38650512695312 432.9449768066406 170.2578887939453 392.7285461425781 C 138.55323791503906 386.69927978515625 158.14718627929688 386.041748046875 187.1344757080078 386.6296691894531 C 162.85655212402344 377.4412536621094 169.2016143798828 383.3929138183594 203.2224884033203 379.4019470214844" stroke-width="1.0" fill="rgb(252, 150, 0)" opacity="0.96930903"/>
    <path d="M 3.6241488456726074 -16.158527374267578 C -6.60610818862915 -12.571578025817871 -10.52066707611084 4.642445087432861 -11.371700286865234 19.033615112304688 C -17.21537971496582 25.32073211669922 -22.23671531677246 16.075321197509766 -20.559803009033203 1.660989761352539 C -17.291025161743164 -9.316786766052246 -9.970518112182617 -16.63729476928711 0.0293715950101614 -19.316762924194336 C 9.987465858459473 -16.625621795654297 12.691017150878906 -6.716317653656006 3.6241488456726074 -16.158527374267578" stroke-width="1.0" fill="rgb(0, 147, 180)" opacity="0.654423"/>
    <path d="M 186.6785888671875 232.2184295654297 C 156.17901611328125 293.40765380859375 184.4529266357422 298.024658203125 175.893798828125 300.5086669921875 C 165.2969207763672 302.4177551269531 158.72463989257812 290.2215881347656 153.51644897460938 254.8478546142578 C 161.9042510986328 199.2650909423828 150.07691955566406 198.60159301757812 164.4877471923828 216.88890075683594 C 173.94143676757812 235.4138641357422 189.38412475585938 229.05564880371094 186.6785888671875 232.2184295654297" stroke-width="1.0" fill="rgb(65, 199, 90)" opacity="0.99977946"/>
    <path d="M 402.0455017089844 285.897705078125 C 362.3485412597656 286.3021240234375 370.8131103515625 306.0030822753906 397.2310485839844 301.9919738769531 C 383.7575988769531 297.2474365234375 420.7504577636719 282.27056884765625 409.7196044921875 289.3292541503906 C 382.75506591796875 304.0590515136719 391.1864929199219 272.8529968261719 392.12542724609375 291.81903076171875 C 415.18194580078125 271.276611328125 407.0097961425781 297.31939697265625 402.0455017089844 285.897705078125" stroke-width="1.0" fill="rgb(73, 129, 146)" opacity="0.27318093"/>
    <path d="M 244.17837524414062 198.68844604492188 C 230.76820373535156 215.28489685058594 240.4712677001953 211.78890991210938 230.60096740722656 202.75230407714844 C 235.56788635253906 194.53309631347656 226.46466064453125 217.67295837402344 191.902587890625 227.92367553710938 C 207.2362823486328 195.8061065673828 230.4876708984375 191.69895935058594 232.86367797851562 199.26449584960938 C 240.139892578125 209.096435546875 256.7662048339844 213.5013885498047 244.17837524414062 198.68844604492188" stroke-width="1.0" fill="rgb(253, 247, 252)" opacity="0.92122996"/>
    <path d="M 39.872169494628906 16.791772842407227 C 31.735702514648438 21.732099533081055 13.390350341796875 28.554182052612305 -11.953435897827148 22.136796951293945 C -18.38332748413086 16.964160919189453 -26.361652374267578 15.413981437683105 -26.51563835144043 6.476797103881836 C -16.346527099609375 -9.899866104125977 -9.026020050048828 -17.220373153686523 -3.699655294418335 -17.603904724121094 C -1.3206592798233032 -6.411428451538086 12.274737358093262 -4.549564838409424 39.872169494628906 16.791772842407227" stroke-width="1.0" fill="rgb(26, 134, 64)" opacity="0.64676696"/>
    <path d="M 155.96827697753906 228.71182250976562 C 171.55349731445312 286.41387939453125 181.3606719970703 303.2117919921875 155.16012573242188 301.0013427734375 C 100.71513366699219 311.175537109375 105.34135437011719 279.0009460449219 122.40208435058594 233.51071166992188 C 133.07627868652344 206.248291015625 122.14705657958984 195.74935913085938 157.31503295898438 202.33538818359375 C 171.7880859375 199.04945373535156 162.15855407714844 186.1979217529297 155.96827697753906 228.71182250976562" stroke-width="1.0" fill="rgb(61, 204, 83)" opacity="0.68105847"/>
    <path d="M 25.777082443237305 -34.413673400878906 C 18.338184356689453 -6.139359474182129 19.04433822631836 43.215003967285156 18.205551147460938 51.82854080200195 C -43.05929183959961 57.0247688293457 -39.9500846862793 43.43925476074219 -27.043352127075195 16.977388381958008 C -17.18979263305664 -9.176326751708984 -9.869284629821777 -16.49683380126953 7.701584815979004 -20.266159057617188 C 18.712278366088867 -20.431232452392578 28.51010513305664 -15.469907760620117 25.777082443237305 -34.413673400878906" stroke-width="1.0" fill="rgb(118, 216, 251)" opacity="0.104693726"/>
    <path d="M 10.844278335571289 -25.80247688293457 C 0.14634305238723755 -0.7908210754394531 -1.4514260292053223 15.210668563842773 -9.621087074279785 18.26531219482422 C -16.0533390045166 24.610273361206055 -23.084667205810547 16.755496978759766 -23.359586715698242 5.324774265289307 C -16.66364288330078 -9.73347282409668 -9.343135833740234 -17.053979873657227 10.11666202545166 -30.397052764892578 C 18.384645462036133 -26.909120559692383 20.855854034423828 -14.45942497253418 10.844278335571289 -25.80247688293457" stroke-width="1.0" fill="rgb(36, 122, 136)" opacity="0.62542945"/>
    <path d="M 17.201005935668945 -1.8676385879516602 C 5.27633810043335 -3.745335578918457 -4.63106107711792 1.132148027420044 -14.345588684082031 4.016397953033447 C -4.683559894561768 11.272618293762207 -16.782367706298828 10.074155807495117 -19.62710952758789 0.6279531121253967 C -16.948266983032227 -9.369702339172363 -9.62775993347168 -16.690210342407227 -2.969961404800415 -18.52161407470703 C 1.7560755014419556 -10.007279396057129 10.235057830810547 -5.641170978546143 17.201005935668945 -1.8676385879516602" stroke-width="1.0" fill="rgb(87, 93, 152)" opacity="0.83546126"/>
    <path d="M 3.317706346511841 -16.91300392150879 C 0.28727757930755615 -7.402139663696289 -7.685397624969482 -0.5906868577003479 -18.45289421081543 2.1248888969421387 C -3.5023841857910156 10.931821823120117 -16.194915771484375 9.195637702941895 -19.352758407592773 0.5733131766319275 C -16.67582130432129 -9.417675971984863 -9.355315208435059 -16.738183975219727 0.6484087705612183 -19.41872215270996 C 11.376362800598145 -16.96749496459961 24.376773834228516 -14.293160438537598 3.317706346511841 -16.91300392150879" stroke-width="1.0" fill="rgb(77, 215, 183)" opacity="0.56734765"/>
    <path d="M 49.75634765625 16.21671485900879 C 60.11880111694336 -13.762628555297852 52.88728332519531 -17.749963760375977 27.882722854614258 -20.3756046295166 C -36.8547248840332 3.0053346157073975 -44.79544448852539 -9.838061332702637 -35.41808319091797 -3.902665376663208 C -22.48157501220703 -5.476693153381348 -16.55232810974121 -12.53867244720459 -12.095640182495117 18.530921936035156 C -6.572322845458984 33.28801345825195 -8.582140922546387 42.1160774230957 49.75634765625 16.21671485900879" stroke-width="1.0" fill="rgb(21, 98, 121)" opacity="0.7424466"/>
    <path d="M 617.65478515625 415.431396484375 C 610.9541625976562 420.18756103515625 603.0576782226562 426.2615051269531 612.10107421875 450.3428649902344 C 610.5344848632812 435.4830322265625 603.62890625 417.3275146484375 604.5946044921875 426.69622802734375 C 594.875244140625 394.76129150390625 604.5807495117188 353.24371337890625 609.3255615234375 241.34817504882812 C 651.2725219726562 371.58734130859375 622.3402099609375 400.0949401855469 617.65478515625 415.431396484375" stroke-width="1.0" fill="rgb(41, 189, 175)" opacity="0.23853695"/>
    <path d="M 6.686545372009277 -18.248172760009766 C -0.16783560812473297 -7.526810169219971 -6.013309955596924 2.9489078521728516 -12.173834800720215 8.965779304504395 C -11.8654203414917 22.771011352539062 -16.01270866394043 8.997344970703125 -19.16605567932129 0.3159189224243164 C -16.49114990234375 -9.668450355529785 -9.17064380645752 -16.988956451416016 0.8293561935424805 -19.66844940185547 C 10.82935619354248 -16.988956451416016 18.149864196777344 -9.668450355529785 6.686545372009277 -18.248172760009766" stroke-width="1.0" fill="rgb(89, 180, 134)" opacity="0.88630813"/>
    <path d="M -11.427789688110352 -42.25960922241211 C -0.30080240964889526 -5.312114715576172 2.8615572452545166 16.77175521850586 -9.72093391418457 51.196834564208984 C -53.04203796386719 59.50206756591797 -48.758113861083984 43.87956619262695 -36.697776794433594 16.84552574157715 C -16.437084197998047 -9.965350151062012 -9.116576194763184 -17.285858154296875 9.048398971557617 -15.082802772521973 C 22.56495475769043 -11.962835311889648 31.373313903808594 -16.52712631225586 -11.427789688110352 -42.25960922241211" stroke-width="1.0" fill="rgb(37, 86, 87)" opacity="0.8053543"/>
    <path d="M 207.8845977783203 384.8943176269531 C 180.0161590576172 381.9204406738281 154.71600341796875 405.0042419433594 111.34454345703125 372.404052734375 C 188.05874633789062 357.36376953125 182.68597412109375 382.5177001953125 169.1776580810547 399.298828125 C 177.86109924316406 387.9096984863281 181.90928649902344 392.4379577636719 161.05543518066406 385.5862121582031 C 184.54595947265625 380.7338562011719 208.97662353515625 381.5693664550781 207.8845977783203 384.8943176269531" stroke-width="1.0" fill="rgb(218, 120, 93)" opacity="0.120394476"/>
    <path d="M 7.083434104919434 249.71990966796875 C -8.152515411376953 272.32342529296875 17.508583068847656 236.73851013183594 16.85862922668457 243.67453002929688 C 6.543379783630371 318.6631164550781 -17.079744338989258 338.431396484375 -86.29541015625 215.03158569335938 C -0.0484950914978981 111.40296173095703 18.605548858642578 122.4339828491211 18.033233642578125 253.20838928222656 C 23.69225311279297 189.57666015625 25.110307693481445 222.1293487548828 7.083434104919434 249.71990966796875" stroke-width="1.0" fill="rgb(53, 227, 0)" opacity="0.22975622"/>
    <path d="M 172.170166015625 26.689376831054688 C 118.64311218261719 25.083492279052734 146.4171905517578 41.605587005615234 133.61436462402344 42.002315521240234 C 107.83206939697266 54.041038513183594 100.5367202758789 49.876834869384766 112.2734603881836 50.82642364501953 C 107.4464340209961 20.067434310913086 114.03535461425781 12.815610885620117 142.37623596191406 6.197602272033691 C 175.58978271484375 -19.926136016845703 201.0919189453125 -7.091300010681152 172.170166015625 26.689376831054688" stroke-width="1.0" fill="rgb(116, 221, 228)" opacity="0.093788914"/>
    <path d="M 6.028070449829102 -14.347965240478516 C 1.420648217201233 -5.9261298179626465 -7.262246131896973 1.3449808359146118 -14.64084529876709 12.080087661743164 C -13.370735168457031 23.109586715698242 -17.173786163330078 10.424638748168945 -19.81291389465332 0.28011012077331543 C -17.13335609436035 -9.720145225524902 -9.812849044799805 -17.040653228759766 0.18715347349643707 -19.72014617919922 C 10.188236236572266 -17.04094886779785 17.68705940246582 -9.770628929138184 6.028070449829102 -14.347965240478516" stroke-width="1.0" fill="rgb(5, 80, 127)" opacity="0.73663765"/>
    <path d="M 5.157717227935791 -13.05532169342041 C 8.41054630279541 -4.086968898773193 -5.353833198547363 1.770296573638916 -16.04999351501465 4.014533519744873 C -3.119635820388794 10.241557121276855 -16.80722999572754 9.269425392150879 -19.819730758666992 0.3171740174293518 C -17.14069175720215 -9.681122779846191 -9.820183753967285 -17.001628875732422 0.17894215881824493 -19.68207359313965 C 9.926535606384277 -17.360689163208008 15.535674095153809 -18.115880966186523 5.157717227935791 -13.05532169342041" stroke-width="1.0" fill="rgb(112, 234, 131)" opacity="0.86655533"/>
    <path d="M 39.836753845214844 335.6782531738281 C 62.65498733520508 336.2936096191406 44.545433044433594 356.7825012207031 52.02865219116211 341.7044982910156 C 40.41564178466797 325.546875 15.020879745483398 338.7585754394531 41.346492767333984 339.2313537597656 C 16.206850051879883 323.9195861816406 24.65005874633789 336.4140930175781 -11.377691268920898 338.1122131347656 C -10.779032707214355 314.4037780761719 18.817367553710938 325.41943359375 39.836753845214844 335.6782531738281" stroke-width="1.0" fill="rgb(17, 170, 179)" opacity="0.36548406"/>
    <path d="M 546.6627807617188 156.5652618408203 C 508.3023986816406 139.60693359375 495.11663818359375 144.99501037597656 483.4923095703125 139.31431579589844 C 478.5792541503906 143.4110565185547 467.0057373046875 149.37843322753906 510.2392272949219 158.19602966308594 C 502.31622314453125 137.6888885498047 488.5372619628906 113.54861450195312 528.8447265625 110.5046157836914 C 540.4866333007812 105.7889175415039 537.9078369140625 110.41319274902344 546.6627807617188 156.5652618408203" stroke-width="1.0" fill="rgb(49, 205, 12)" opacity="0.15922348"/>
    <path d="M 44.74372482299805 18.436145782470703 C 57.92494201660156 -12.396720886230469 42.68815994262695 -14.67309856414795 8.016813278198242 -23.254613876342773 C -18.500837326049805 14.072351455688477 -24.299238204956055 3.467836856842041 -26.704421997070312 -6.208427429199219 C -17.27781105041504 -9.539005279541016 -9.957304000854492 -16.859512329101562 -45.91537857055664 9.263602256774902 C -40.1871223449707 25.67072105407715 0.7130683660507202 25.515758514404297 44.74372482299805 18.436145782470703" stroke-width="1.0" fill="rgb(23, 53, 102)" opacity="0.5998279"/>
    <path d="M 287.9842529296875 281.4530944824219 C 273.69256591796875 303.5865173339844 254.586181640625 315.9385070800781 248.99392700195312 302.03619384765625 C 315.6650085449219 314.915771484375 299.2145080566406 288.72113037109375 282.6120910644531 304.3564453125 C 256.9072570800781 286.90655517578125 237.2093048095703 279.9685974121094 271.20526123046875 280.6010437011719 C 287.1987609863281 274.875244140625 280.9696960449219 281.0508117675781 287.9842529296875 281.4530944824219" stroke-width="1.0" fill="rgb(0, 0, 20)" opacity="1.0"/>
    <path d="M 32.300636291503906 22.59475326538086 C -47.865257263183594 29.131011962890625 -66.66421508789062 24.03279685974121 -72.16141510009766 20.96517562866211 C -22.764726638793945 32.99794387817383 -31.248844146728516 25.888999938964844 -32.26467514038086 14.836320877075195 C -17.06168556213379 -9.18725299835205 -9.741179466247559 -16.50775909423828 39.895694732666016 -80.28563690185547 C 48.6864013671875 -72.28739929199219 47.94728469848633 -50.6114387512207 32.300636291503906 22.59475326538086" stroke-width="1.0" fill="rgb(15, 76, 77)" opacity="0.5383024"/>
    <path d="M 2.851254463195801 -9.95541763305664 C 2.559149742126465 -5.191282272338867 -7.2206621170043945 3.916905164718628 -11.95984935760498 9.868563652038574 C -2.6294748783111572 10.029657363891602 -13.984164237976074 4.960011005401611 -19.933124542236328 -0.08086775988340378 C -17.2987060546875 -9.935527801513672 -9.97819995880127 -17.25603485107422 6.4536285400390625 -26.32797622680664 C 14.889657020568848 -23.19292449951172 20.702308654785156 -15.189563751220703 2.851254463195801 -9.95541763305664" stroke-width="1.0" fill="rgb(71, 87, 101)" opacity="0.7429974"/>
    <path d="M 576.9796142578125 100.25445556640625 C 555.7506713867188 125.0189437866211 598.6508178710938 150.53271484375 548.2744750976562 128.64022827148438 C 534.13427734375 80.88507843017578 544.4713134765625 98.521240234375 509.1023254394531 104.07925415039062 C 542.9459228515625 86.1142349243164 566.4424438476562 86.2601547241211 577.7920532226562 117.1541748046875 C 552.6390991210938 114.33853149414062 512.415771484375 80.52547454833984 576.9796142578125 100.25445556640625" stroke-width="1.0" fill="rgb(68, 193, 12)" opacity="0.16560867"/>
    <path d="M 11.138640403747559 -32.12726974487305 C 9.631534576416016 -11.023591041564941 10.095417976379395 5.802701473236084 -2.5075387954711914 38.640647888183594 C -19.18899917602539 27.007802963256836 -23.16109275817871 21.716135025024414 -25.839401245117188 5.70177698135376 C -16.541969299316406 -9.94140911102295 -9.221461296081543 -17.26191520690918 3.070439338684082 -23.145307540893555 C 11.754108428955078 -19.633214950561523 21.974937438964844 -14.767190933227539 11.138640403747559 -32.12726974487305" stroke-width="1.0" fill="rgb(37, 68, 82)" opacity="0.4978461"/>
    <path d="M 268.2281799316406 122.25163269042969 C 281.9500732421875 110.9826889038086 266.6262512207031 108.30279541015625 288.41461181640625 122.99803161621094 C 294.0319519042969 121.55516815185547 274.2488098144531 118.32526397705078 311.23675537109375 115.3639907836914 C 332.809814453125 123.1428451538086 320.1880798339844 121.77062225341797 317.5841369628906 95.46532440185547 C 297.3796691894531 60.3158073425293 246.59971618652344 78.02200317382812 268.2281799316406 122.25163269042969" stroke-width="1.0" fill="rgb(121, 217, 230)" opacity="0.32340723"/>
    <path d="M 0.13245026767253876 -20.29925537109375 C -5.262323379516602 -0.823386013507843 -2.8737361431121826 5.488631725311279 -16.83909797668457 5.402734279632568 C -15.877039909362793 23.872556686401367 -20.081865310668945 14.021650314331055 -20.20844268798828 1.2649776935577393 C -16.769819259643555 -9.939021110534668 -9.449311256408691 -17.2595272064209 0.03527422249317169 -20.83662986755371 C 12.864609718322754 -20.686365127563477 24.54925537109375 -16.084026336669922 0.13245026767253876 -20.29925537109375" stroke-width="1.0" fill="rgb(99, 68, 22)" opacity="0.5888024"/>
    <path d="M 124.83817291259766 368.9650573730469 C 94.59283447265625 378.4035949707031 57.28810501098633 371.69189453125 6.850283622741699 363.7877502441406 C -46.663448333740234 391.9631652832031 -19.70562171936035 397.99176025390625 -16.016027450561523 321.6797180175781 C 11.552458763122559 297.78472900390625 60.19867706298828 308.78790283203125 73.34333038330078 334.0020446777344 C 91.2764663696289 346.50445556640625 131.18499755859375 324.75396728515625 124.83817291259766 368.9650573730469" stroke-width="1.0" fill="rgb(0, 169, 215)" opacity="0.80487156"/>
    <path d="M 421.4906311035156 313.84130859375 C 414.27197265625 357.46636962890625 380.33477783203125 356.877197265625 366.7521057128906 360.44805908203125 C 349.0379943847656 369.58758544921875 332.1217956542969 356.2607421875 329.05462646484375 346.6431579589844 C 376.6812744140625 321.3511047363281 379.26629638671875 330.4892578125 370.3730773925781 305.7786865234375 C 395.5135803222656 280.4224853515625 410.5079040527344 281.645263671875 421.4906311035156 313.84130859375" stroke-width="1.0" fill="rgb(1, 0, 5)" opacity="1.0"/>
    <path d="M 9.094327926635742 -15.163025856018066 C 4.669459819793701 -2.2072784900665283 -7.264286994934082 2.140381097793579 -26.037635803222656 5.687509536743164 C -12.956443786621094 21.775075912475586 -22.193710327148438 16.472618103027344 -25.36625862121582 7.211456298828125 C -16.518339157104492 -9.205153465270996 -9.197832107543945 -16.52566146850586 12.457483291625977 -27.643802642822266 C 22.196151733398438 -26.216175079345703 27.145822525024414 -16.435970306396484 9.094327926635742 -15.163025856018066" stroke-width="1.0" fill="rgb(67, 104, 127)" opacity="0.5124671"/>
  </g>
</svg>
