<?xml version="1.0" ?>
<svg xmlns="http://www.w3.org/2000/svg" version="1.1" width="600" height="600">
  <defs/>
  <g>
    <path d="M 630.0623168945312 261.453857421875 C 618.3787231445312 468.3925476074219 610.02197265625 471.7591247558594 550.3336791992188 469.7109375 C 369.8739318847656 485.53778076171875 402.55694580078125 471.111083984375 315.65252685546875 286.21563720703125 C 297.8736877441406 196.36216735839844 329.5100402832031 209.2762908935547 422.09930419921875 202.6737518310547 C 678.8690795898438 198.74673461914062 673.689208984375 206.76417541503906 630.0623168945312 261.453857421875" stroke-width="1.0" fill="rgb(31, 25, 17)" opacity="0.96822864"/>
    <path d="M 616.40869140625 439.75244140625 C 581.7750854492188 537.94775390625 532.7210083007812 521.4007568359375 418.0916442871094 600.1646728515625 C 401.1359558105469 605.5459594726562 383.6884765625 599.116943359375 354.4918212890625 448.2793884277344 C 390.9620666503906 371.03741455078125 286.9116516113281 329.2745056152344 427.4339294433594 370.2213439941406 C 583.1334228515625 407.038330078125 597.912353515625 411.3698425292969 616.40869140625 439.75244140625" stroke-width="1.0" fill="rgb(58, 65, 68)" opacity="0.98122615"/>
    <path d="M 620.2261352539062 569.4014282226562 C 617.62548828125 615.7877807617188 608.4556274414062 621.8777465820312 552.4976806640625 620.8403930664062 C 430.6153869628906 621.3355712890625 412.9336242675781 620.3201904296875 388.90008544921875 594.8380126953125 C 431.27545166015625 475.6209411621094 490.1756286621094 496.74127197265625 595.8480224609375 421.3974914550781 C 613.1800537109375 424.88720703125 619.39990234375 436.1346435546875 620.2261352539062 569.4014282226562" stroke-width="1.0" fill="rgb(121, 117, 149)" opacity="0.99978787"/>
    <path d="M 497.3847351074219 216.47467041015625 C 514.6909790039062 235.26132202148438 491.5688781738281 235.43136596679688 257.0814514160156 336.0765380859375 C 140.19329833984375 288.8532409667969 124.4574203491211 309.9364318847656 -9.087837219238281 136.5758056640625 C -2.985780715942383 -214.6103973388672 19.24510383605957 -154.42947387695312 125.54751586914062 -67.05809783935547 C 386.0643310546875 52.41055679321289 389.2088623046875 67.3961181640625 497.3847351074219 216.47467041015625" stroke-width="1.0" fill="rgb(95, 81, 141)" opacity="0.95786476"/>
    <path d="M 122.99097442626953 563.3300170898438 C 129.53746032714844 595.4388427734375 135.1096954345703 612.6063842773438 18.716577529907227 618.360107421875 C -18.541322708129883 614.8509521484375 -22.907041549682617 604.1402587890625 -20.884824752807617 554.1262817382812 C -19.118471145629883 446.8821716308594 -10.633194923400879 438.6980285644531 7.311993598937988 452.40960693359375 C 79.74939727783203 498.2081298828125 86.51371765136719 506.0617980957031 122.99097442626953 563.3300170898438" stroke-width="1.0" fill="rgb(122, 117, 148)" opacity="0.9926441"/>
    <path d="M 415.234130859375 497.86053466796875 C 399.9761962890625 602.5392456054688 390.1716613769531 611.7071533203125 386.1647033691406 616.918701171875 C 265.49005126953125 591.816650390625 267.53564453125 550.5407104492188 179.27061462402344 438.9915466308594 C 264.4318542480469 448.6822509765625 232.34100341796875 446.00372314453125 357.7323913574219 446.6050109863281 C 417.2493591308594 453.6729736328125 394.55035400390625 430.0716552734375 415.234130859375 497.86053466796875" stroke-width="1.0" fill="rgb(48, 46, 51)" opacity="1.0"/>
    <path d="M 253.05258178710938 392.6962890625 C 62.79219055175781 468.2480773925781 71.78657531738281 464.6581115722656 109.9220199584961 557.1181640625 C 69.74573516845703 548.8013916015625 73.25745391845703 527.261962890625 69.08020782470703 492.24786376953125 C 49.65465545654297 443.9368591308594 23.560649871826172 427.7897033691406 198.3506317138672 416.5782470703125 C 232.75083923339844 192.35581970214844 372.68670654296875 332.44073486328125 253.05258178710938 392.6962890625" stroke-width="1.0" fill="rgb(40, 26, 28)" opacity="0.99795914"/>
    <path d="M 259.2836608886719 505.2300109863281 C 234.13473510742188 547.1939697265625 231.56155395507812 560.0341796875 221.50392150878906 575.046630859375 C 195.23695373535156 560.75341796875 193.12667846679688 545.8018188476562 89.52513885498047 484.8465576171875 C 68.26460266113281 379.5539855957031 61.50965881347656 373.971435546875 195.06134033203125 392.00848388671875 C 253.48170471191406 465.21795654296875 257.872314453125 487.9439697265625 259.2836608886719 505.2300109863281" stroke-width="1.0" fill="rgb(89, 193, 187)" opacity="0.23134346"/>
    <path d="M 448.37738037109375 20.23815155029297 C 411.92999267578125 63.40016555786133 397.1955261230469 65.93954467773438 371.95068359375 85.03723907470703 C 358.0199890136719 81.45243072509766 328.8316955566406 88.6397933959961 231.13363647460938 22.686342239379883 C 295.6338195800781 -26.478349685668945 316.43096923828125 -23.51262664794922 363.3172607421875 -20.17669105529785 C 438.77447509765625 -15.312110900878906 443.4587097167969 -5.305898189544678 448.37738037109375 20.23815155029297" stroke-width="1.0" fill="rgb(124, 114, 151)" opacity="0.99855083"/>
    <path d="M 241.84014892578125 585.6975708007812 C 248.64935302734375 607.6380004882812 245.12661743164062 616.8832397460938 169.7222137451172 619.9566040039062 C 122.05181121826172 619.3480224609375 112.68194580078125 613.0235595703125 116.4063720703125 593.335693359375 C 153.69993591308594 520.1287231445312 158.2650146484375 509.16583251953125 172.40475463867188 495.665771484375 C 210.99293518066406 509.39141845703125 209.96609497070312 529.8516845703125 241.84014892578125 585.6975708007812" stroke-width="1.0" fill="rgb(92, 123, 147)" opacity="0.943781"/>
    <path d="M 415.7835693359375 537.643798828125 C 391.07684326171875 606.9259643554688 388.6604919433594 621.000732421875 353.2917785644531 621.6928100585938 C 216.58731079101562 600.4263305664062 224.3878936767578 567.3718872070312 192.2990264892578 374.4723205566406 C 177.87139892578125 325.5232849121094 269.38397216796875 301.30181884765625 181.3693084716797 430.41448974609375 C 265.1717224121094 518.627685546875 359.2926025390625 428.11578369140625 415.7835693359375 537.643798828125" stroke-width="1.0" fill="rgb(75, 162, 162)" opacity="0.960535"/>
    <path d="M 250.1615447998047 394.24151611328125 C 2.3343701362609863 377.8503112792969 76.35745239257812 433.2186584472656 86.9928970336914 514.6884765625 C 51.540870666503906 504.83416748046875 16.531497955322266 515.4744262695312 -18.953580856323242 311.9508056640625 C -124.69593048095703 176.79986572265625 -204.41778564453125 133.15211486816406 45.61901092529297 138.37701416015625 C 309.2565002441406 274.61566162109375 327.998779296875 294.9637756347656 250.1615447998047 394.24151611328125" stroke-width="1.0" fill="rgb(35, 27, 22)" opacity="0.98214483"/>
    <path d="M 619.1626586914062 83.68037414550781 C 620.5900268554688 222.85394287109375 617.8587036132812 241.8069305419922 593.2294311523438 245.5835418701172 C 377.18939208984375 151.4095458984375 413.3302001953125 76.46156311035156 422.87481689453125 19.29776954650879 C 393.2800598144531 0.060451045632362366 389.1768798828125 -13.409211158752441 489.6620788574219 -24.044715881347656 C 582.3059692382812 -60.963844299316406 608.974365234375 -90.74565124511719 619.1626586914062 83.68037414550781" stroke-width="1.0" fill="rgb(121, 112, 149)" opacity="0.9711754"/>
    <path d="M 340.2790222167969 592.2678833007812 C 329.6851806640625 618.2020263671875 316.5678405761719 621.3240966796875 275.0687561035156 619.4966430664062 C 191.3953094482422 612.111572265625 197.03366088867188 594.3948364257812 191.4188232421875 560.9229736328125 C 209.29641723632812 515.77099609375 207.95790100097656 496.1044006347656 241.85472106933594 476.1061096191406 C 276.7882995605469 497.2117614746094 283.6641540527344 508.66583251953125 340.2790222167969 592.2678833007812" stroke-width="1.0" fill="rgb(73, 157, 157)" opacity="0.9961387"/>
    <path d="M 214.382568359375 519.810546875 C 184.99961853027344 569.8497924804688 187.95960998535156 600.2152099609375 95.53611755371094 618.6724853515625 C 68.48021697998047 616.919189453125 64.16548919677734 606.7337646484375 52.46513366699219 559.2345581054688 C 81.4198989868164 480.579833984375 94.20191955566406 474.1803283691406 175.1195831298828 404.6015625 C 216.06700134277344 445.0231628417969 212.31988525390625 481.20330810546875 214.382568359375 519.810546875" stroke-width="1.0" fill="rgb(71, 159, 158)" opacity="0.91748023"/>
    <path d="M 599.7803955078125 128.0252685546875 C 584.2874755859375 237.2660675048828 578.2815551757812 242.72462463378906 525.2744750976562 249.48683166503906 C 319.10540771484375 213.2019500732422 354.8376159667969 124.31840515136719 364.478515625 87.83456420898438 C 384.4996337890625 66.98526763916016 396.3670654296875 63.02882385253906 416.05810546875 46.41814041137695 C 414.914794921875 53.82535934448242 426.36492919921875 54.4263916015625 599.7803955078125 128.0252685546875" stroke-width="1.0" fill="rgb(90, 74, 146)" opacity="0.98546743"/>
    <path d="M 332.7625427246094 50.33743667602539 C 318.4509582519531 118.2133560180664 313.0099182128906 123.95178985595703 289.8102722167969 117.81258392333984 C 252.96693420410156 92.72645568847656 246.6304931640625 84.06749725341797 233.23233032226562 64.39402770996094 C 231.51634216308594 43.833984375 229.95852661132812 23.625720977783203 280.22198486328125 25.414371490478516 C 338.9795227050781 26.303930282592773 345.57342529296875 19.82029914855957 332.7625427246094 50.33743667602539" stroke-width="1.0" fill="rgb(114, 211, 209)" opacity="0.92185396"/>
    <path d="M 146.27426147460938 30.457426071166992 C 109.53096008300781 75.13060760498047 102.00728607177734 82.32801055908203 89.31426239013672 89.78901672363281 C 73.12645721435547 86.01055145263672 20.05474090576172 77.17546081542969 20.52345848083496 67.31027221679688 C 22.47341537475586 13.083069801330566 13.196964263916016 26.590530395507812 41.07225799560547 24.549331665039062 C 136.63438415527344 25.03375244140625 153.24745178222656 22.90595054626465 146.27426147460938 30.457426071166992" stroke-width="1.0" fill="rgb(119, 200, 204)" opacity="0.9900482"/>
    <path d="M 272.22393798828125 33.225399017333984 C 248.8255157470703 76.10142517089844 239.9648895263672 84.06294250488281 216.13272094726562 95.22401428222656 C 199.4315643310547 88.66536712646484 193.57403564453125 77.4333267211914 156.04554748535156 25.241966247558594 C 163.2814178466797 25.39920997619629 181.5590362548828 25.708995819091797 233.43878173828125 25.237834930419922 C 262.9041442871094 26.45744514465332 275.8697509765625 22.29962158203125 272.22393798828125 33.225399017333984" stroke-width="1.0" fill="rgb(108, 203, 207)" opacity="0.99039435"/>
    <path d="M 231.24078369140625 99.32648468017578 C 228.8052978515625 120.73346710205078 220.37071228027344 117.76178741455078 190.81210327148438 117.26817321777344 C 162.99935913085938 114.80159759521484 150.52001953125 114.6527099609375 139.805908203125 108.11061096191406 C 166.4263916015625 78.13687896728516 178.49436950683594 73.42578887939453 190.84471130371094 69.80982971191406 C 207.31951904296875 67.61817932128906 220.838623046875 69.9006118774414 231.24078369140625 99.32648468017578" stroke-width="1.0" fill="rgb(116, 204, 210)" opacity="0.994299"/>
    <path d="M 580.322509765625 109.31954956054688 C 497.4159851074219 133.3623504638672 420.7907409667969 132.5061798095703 363.27276611328125 124.97142791748047 C 302.4472961425781 117.02518463134766 284.5921325683594 125.86042022705078 281.52191162109375 100.33259582519531 C 287.6313781738281 6.032822132110596 284.5590515136719 29.74751853942871 405.06134033203125 24.680084228515625 C 599.4469604492188 30.77661895751953 578.9421997070312 0.8888838887214661 580.322509765625 109.31954956054688" stroke-width="1.0" fill="rgb(118, 204, 206)" opacity="0.9966829"/>
    <path d="M 560.5191040039062 107.8609390258789 C 561.8770141601562 139.9319305419922 554.244140625 153.38003540039062 520.9081420898438 150.02752685546875 C 459.53192138671875 145.6663055419922 453.684814453125 141.9008026123047 452.9188537597656 110.7759017944336 C 456.5665588378906 74.23421478271484 490.1380920410156 62.65216827392578 504.29107666015625 63.5032958984375 C 522.8281860351562 61.06879425048828 552.170654296875 73.402587890625 560.5191040039062 107.8609390258789" stroke-width="1.0" fill="rgb(218, 182, 49)" opacity="0.9185564"/>
    <path d="M 265.2762756347656 203.03158569335938 C 334.3592529296875 211.234130859375 328.1551818847656 278.2862243652344 274.0980529785156 286.1461181640625 C 239.3767852783203 288.708740234375 208.58355712890625 284.2466735839844 207.151123046875 229.17286682128906 C 272.2177734375 323.57000732421875 226.39471435546875 143.98350524902344 283.6504211425781 223.01243591308594 C 236.367919921875 234.0218505859375 364.931884765625 289.3245544433594 265.2762756347656 203.03158569335938" stroke-width="1.0" fill="rgb(252, 254, 252)" opacity="0.98854387"/>
    <path d="M 607.1088256835938 289.4701843261719 C 605.4007568359375 329.3940734863281 597.997802734375 320.1213684082031 529.7732543945312 321.5208435058594 C 424.0988464355469 321.57666015625 393.1774597167969 321.3324279785156 402.0097961425781 321.9056396484375 C 412.15789794921875 266.23956298828125 364.3707275390625 287.38421630859375 475.86102294921875 282.5245666503906 C 602.4561157226562 283.24822998046875 605.962158203125 279.80426025390625 607.1088256835938 289.4701843261719" stroke-width="1.0" fill="rgb(144, 192, 1)" opacity="0.9998552"/>
    <path d="M 301.4556884765625 119.36461639404297 C 293.1201171875 120.27412414550781 279.21612548828125 118.0504379272461 244.3030242919922 118.51864624023438 C 211.07763671875 118.05789184570312 201.48939514160156 120.9376449584961 200.05030822753906 104.1099853515625 C 212.67674255371094 70.99942016601562 224.12022399902344 65.13571166992188 236.47369384765625 61.66017150878906 C 254.01821899414062 74.65045166015625 261.6739501953125 81.64274597167969 301.4556884765625 119.36461639404297" stroke-width="1.0" fill="rgb(116, 206, 209)" opacity="0.9901927"/>
    <path d="M 230.88845825195312 208.1403045654297 C 173.4556884765625 184.25148010253906 245.50375366210938 276.7895812988281 196.05227661132812 277.3088073730469 C 136.85037231445312 275.1232604980469 136.9288787841797 289.4833679199219 124.4521484375 231.51979064941406 C 129.13800048828125 195.43099975585938 135.88633728027344 182.84312438964844 160.40052795410156 161.97421264648438 C 207.22727966308594 145.23797607421875 235.0731964111328 191.3233642578125 230.88845825195312 208.1403045654297" stroke-width="1.0" fill="rgb(120, 150, 1)" opacity="0.9921282"/>
    <path d="M 316.8965759277344 225.4701690673828 C 200.01913452148438 213.68890380859375 238.8975830078125 252.01693725585938 214.09881591796875 265.8982238769531 C 188.35276794433594 209.2942352294922 149.84835815429688 252.69471740722656 142.0254669189453 254.5028533935547 C 160.9974822998047 235.53692626953125 168.2548828125 228.7844696044922 202.7952880859375 250.03175354003906 C 207.90098571777344 238.16015625 208.9188690185547 171.3746795654297 316.8965759277344 225.4701690673828" stroke-width="1.0" fill="rgb(251, 253, 252)" opacity="0.973958"/>
    <path d="M 461.0707702636719 513.05810546875 C 363.92620849609375 640.3777465820312 391.6589660644531 636.8534545898438 431.4860534667969 539.0809326171875 C 234.6632537841797 538.9098510742188 398.7875671386719 516.53076171875 354.3384704589844 488.7199401855469 C 110.58467864990234 477.496337890625 76.90058898925781 474.6446228027344 199.91819763183594 450.24786376953125 C 520.7416381835938 463.8563232421875 360.79302978515625 424.163330078125 461.0707702636719 513.05810546875" stroke-width="1.0" fill="rgb(123, 213, 213)" opacity="0.96600854"/>
    <path d="M 129.7783660888672 74.77195739746094 C 129.2880096435547 99.2405776977539 125.10508728027344 110.65176391601562 109.6129150390625 105.5121078491211 C 83.87232971191406 98.76516723632812 68.34164428710938 93.99028015136719 31.067134857177734 75.86637878417969 C 82.43895721435547 65.42442321777344 91.1768798828125 61.01305389404297 104.58934783935547 53.81395721435547 C 119.82646179199219 52.09840393066406 128.40660095214844 58.427616119384766 129.7783660888672 74.77195739746094" stroke-width="1.0" fill="rgb(121, 204, 211)" opacity="0.974293"/>
    <path d="M 176.3905792236328 86.31425476074219 C 173.8356475830078 111.13492584228516 166.96754455566406 116.375244140625 147.36451721191406 112.64273071289062 C 112.04928588867188 107.51480102539062 101.43251037597656 105.39028930664062 101.52991485595703 89.42044830322266 C 106.49921417236328 57.59697723388672 103.97242736816406 34.888893127441406 143.25662231445312 25.47308921813965 C 179.895263671875 22.150714874267578 174.59796142578125 45.49705123901367 176.3905792236328 86.31425476074219" stroke-width="1.0" fill="rgb(112, 205, 209)" opacity="0.9776288"/>
    <path d="M 217.76316833496094 71.67024993896484 C 203.9600067138672 88.13461303710938 194.09552001953125 94.17807006835938 181.67990112304688 98.36520385742188 C 165.22305297851562 101.34363555908203 153.03968811035156 98.15608978271484 137.63525390625 59.93115997314453 C 121.88128662109375 18.534278869628906 117.77620697021484 6.2847089767456055 199.2039031982422 -4.5425214767456055 C 235.2340087890625 17.775634765625 222.02052307128906 50.01808166503906 217.76316833496094 71.67024993896484" stroke-width="1.0" fill="rgb(155, 204, 181)" opacity="0.21477273"/>
    <path d="M 556.242919921875 139.21046447753906 C 537.73193359375 178.17507934570312 499.1454772949219 170.84130859375 505.049560546875 171.6988983154297 C 509.81695556640625 171.13214111328125 471.0648498535156 177.15609741210938 454.86431884765625 135.3343048095703 C 446.2340393066406 112.01858520507812 460.32708740234375 102.59270477294922 480.6254577636719 99.3779296875 C 562.7257690429688 92.92677307128906 564.9702758789062 90.55622863769531 556.242919921875 139.21046447753906" stroke-width="1.0" fill="rgb(252, 203, 0)" opacity="0.95374185"/>
    <path d="M 623.2291870117188 351.2093200683594 C 599.4527587890625 420.4960632324219 592.7557373046875 439.1497497558594 533.2130737304688 540.5430297851562 C 370.0591125488281 487.29302978515625 354.7078552246094 496.01751708984375 405.2975769042969 455.5769958496094 C 471.56683349609375 322.77874755859375 498.6435241699219 324.0502624511719 565.6471557617188 340.247314453125 C 593.9492797851562 330.4327392578125 604.4266967773438 280.6745910644531 623.2291870117188 351.2093200683594" stroke-width="1.0" fill="rgb(72, 158, 157)" opacity="1.0"/>
    <path d="M 137.7023468017578 392.4781494140625 C 162.54019165039062 466.6326904296875 116.86299133300781 430.82769775390625 52.18618392944336 431.1392822265625 C 20.11916732788086 459.49072265625 4.567732334136963 454.54949951171875 -6.355404853820801 439.9136657714844 C 36.906681060791016 399.6706237792969 48.757328033447266 395.5119934082031 60.40007781982422 392.312255859375 C 75.37006378173828 398.1817626953125 107.73546600341797 390.7888488769531 137.7023468017578 392.4781494140625" stroke-width="1.0" fill="rgb(88, 199, 198)" opacity="0.71418256"/>
    <path d="M 581.5997314453125 331.3241882324219 C 527.3179321289062 364.1466979980469 516.5269165039062 379.2769470214844 445.24896240234375 378.8713684082031 C 470.6242980957031 311.4786376953125 356.2295227050781 461.1355895996094 399.7810974121094 331.1873474121094 C 462.72393798828125 331.482421875 497.7834167480469 331.2098083496094 502.6521301269531 331.4063415527344 C 488.9063415527344 331.1007995605469 521.64306640625 331.4560852050781 581.5997314453125 331.3241882324219" stroke-width="1.0" fill="rgb(75, 157, 156)" opacity="0.9931145"/>
    <path d="M 73.64683532714844 370.0169677734375 C 78.17211151123047 412.1846008300781 77.5052490234375 421.87481689453125 46.855255126953125 427.2999572753906 C 22.065696716308594 432.2483215332031 10.39254379272461 428.3136291503906 8.889613151550293 408.6096496582031 C 20.985233306884766 372.3431396484375 19.97608757019043 352.8916320800781 46.90999984741211 331.1098327636719 C 84.59358978271484 351.01690673828125 92.39263916015625 363.34930419921875 73.64683532714844 370.0169677734375" stroke-width="1.0" fill="rgb(70, 156, 157)" opacity="0.9780921"/>
    <path d="M 122.22410583496094 276.9484558105469 C 122.4161376953125 276.42999267578125 99.15228271484375 276.5668029785156 78.80602264404297 276.5613708496094 C 60.6600456237793 276.5952453613281 42.51091003417969 276.38861083984375 40.60703659057617 276.6145935058594 C 47.55905532836914 248.49061584472656 68.43842315673828 240.9663543701172 79.74478912353516 241.3863525390625 C 95.65824127197266 240.48867797851562 112.89028930664062 246.40438842773438 122.22410583496094 276.9484558105469" stroke-width="1.0" fill="rgb(119, 155, 1)" opacity="0.9993476"/>
    <path d="M 203.0661163330078 321.2682800292969 C 201.72129821777344 322.1923828125 199.2852020263672 320.9267883300781 173.98410034179688 321.5787353515625 C 193.8710174560547 321.2318115234375 158.8360595703125 321.55047607421875 132.0962677001953 321.6021423339844 C 140.49557495117188 275.975341796875 144.8917694091797 283.6489562988281 193.39381408691406 282.53326416015625 C 235.57994079589844 284.95513916015625 217.30227661132812 264.2516174316406 203.0661163330078 321.2682800292969" stroke-width="1.0" fill="rgb(152, 207, 5)" opacity="0.8957125"/>
    <path d="M 196.6809844970703 371.6102600097656 C 195.7910614013672 389.17156982421875 210.9740447998047 380.81036376953125 150.15994262695312 385.267578125 C 116.15826416015625 386.3472595214844 101.1964340209961 392.5480651855469 98.1530990600586 365.75726318359375 C 110.96931457519531 326.2393493652344 120.6822509765625 331.76885986328125 187.4776611328125 331.2174987792969 C 209.88992309570312 332.81512451171875 194.58978271484375 317.0564880371094 196.6809844970703 371.6102600097656" stroke-width="1.0" fill="rgb(79, 175, 176)" opacity="0.8609958"/>
    <path d="M 52.85978317260742 368.0478820800781 C 37.06512451171875 404.5011291503906 40.7304573059082 424.225341796875 17.842920303344727 472.63031005859375 C -21.600509643554688 425.3276672363281 -13.529462814331055 401.099609375 -12.17270565032959 382.52032470703125 C -16.144315719604492 358.9195251464844 -31.919076919555664 318.628173828125 22.457469940185547 295.00823974609375 C 12.72540283203125 371.99169921875 37.24932098388672 357.95184326171875 52.85978317260742 368.0478820800781" stroke-width="1.0" fill="rgb(125, 117, 147)" opacity="0.9951924"/>
    <path d="M 196.75733947753906 296.6363830566406 C 186.26548767089844 330.79107666015625 167.8823699951172 318.8681335449219 131.2413330078125 321.66033935546875 C 91.4059066772461 321.2713623046875 76.63279724121094 323.1249694824219 74.4804458618164 317.81292724609375 C 84.9212875366211 277.5662536621094 96.52362060546875 284.3582458496094 131.48597717285156 283.1654357910156 C 164.48594665527344 283.85784912109375 182.8977508544922 280.8879089355469 196.75733947753906 296.6363830566406" stroke-width="1.0" fill="rgb(145, 194, 0)" opacity="0.97772884"/>
    <path d="M 121.54924011230469 283.19305419921875 C 114.46257019042969 328.3895568847656 107.13495635986328 320.8955078125 46.654090881347656 321.5613708496094 C 6.8701934814453125 319.8791809082031 23.751842498779297 328.9980773925781 19.637615203857422 290.65460205078125 C 7.302793502807617 277.2072448730469 40.02254104614258 284.64556884765625 65.19698333740234 283.186279296875 C 80.55062103271484 283.8126525878906 109.37425231933594 281.46685791015625 121.54924011230469 283.19305419921875" stroke-width="1.0" fill="rgb(142, 192, 1)" opacity="0.98560363"/>
    <path d="M 142.58970642089844 330.7412414550781 C 135.62229919433594 382.86541748046875 135.3068084716797 387.992919921875 98.1541976928711 387.54901123046875 C 57.551307678222656 391.87237548828125 27.78476905822754 384.5778503417969 19.420013427734375 331.2003173828125 C 65.80396270751953 332.0376281738281 87.7948226928711 330.22308349609375 89.65809631347656 330.6080017089844 C 98.48341369628906 330.4979248046875 127.26801300048828 330.58966064453125 142.58970642089844 330.7412414550781" stroke-width="1.0" fill="rgb(76, 157, 156)" opacity="0.95719177"/>
    <path d="M 123.29663848876953 445.28875732421875 C 141.83177185058594 536.5394897460938 155.4422607421875 580.4850463867188 21.295429229736328 575.2252197265625 C 21.349090576171875 562.12744140625 21.278491973876953 500.10687255859375 21.372867584228516 454.0463562011719 C -1.9179145097732544 415.9339904785156 22.728227615356445 421.3648681640625 86.07459259033203 414.0903015136719 C 119.97246551513672 414.8619384765625 82.16520690917969 449.3515625 123.29663848876953 445.28875732421875" stroke-width="1.0" fill="rgb(73, 158, 159)" opacity="0.9556251"/>
    <path d="M 127.3182373046875 267.76531982421875 C 114.2121810913086 235.22824096679688 52.85110855102539 200.93389892578125 6.905152320861816 312.99066162109375 C -31.57561492919922 299.562744140625 -21.140214920043945 267.181884765625 -21.89556121826172 210.09707641601562 C -28.42317008972168 152.69346618652344 -33.86762619018555 116.37633514404297 41.04789733886719 85.47107696533203 C 268.52880859375 148.04208374023438 82.70511627197266 144.56570434570312 127.3182373046875 267.76531982421875" stroke-width="1.0" fill="rgb(91, 75, 146)" opacity="0.98830414"/>
    <path d="M 586.7704467773438 357.90875244140625 C 576.0834350585938 361.287353515625 583.026123046875 272.0778503417969 579.4451293945312 276.7663879394531 C 550.3634643554688 277.0887451171875 519.2518920898438 276.56341552734375 497.4921569824219 276.75885009765625 C 487.47515869140625 190.00778198242188 476.1825866699219 278.82977294921875 571.0208740234375 235.3663330078125 C 605.8336791992188 249.84951782226562 634.5819091796875 229.5511932373047 586.7704467773438 357.90875244140625" stroke-width="1.0" fill="rgb(105, 85, 180)" opacity="0.7682918"/>
    <path d="M 393.9466857910156 416.86273193359375 C 383.89276123046875 438.16009521484375 366.69378662109375 435.5477294921875 359.87506103515625 447.550048828125 C 373.0012512207031 415.7318420410156 362.804443359375 379.4901428222656 364.13262939453125 396.6943054199219 C 363.15545654296875 421.832763671875 363.5529479980469 414.49462890625 364.4109802246094 389.0102233886719 C 401.7956237792969 397.3416748046875 386.81378173828125 388.81195068359375 393.9466857910156 416.86273193359375" stroke-width="1.0" fill="rgb(235, 244, 243)" opacity="0.99115336"/>
    <path d="M 460.0400695800781 347.0597839355469 C 408.9638671875 433.6151123046875 400.05780029296875 449.8561706542969 405.6326904296875 446.83251953125 C 328.7777404785156 445.4598388671875 368.42108154296875 454.21929931640625 389.1338195800781 406.6981506347656 C 402.62646484375 387.5560607910156 355.98699951171875 391.2896728515625 358.92999267578125 389.85394287109375 C 396.4436340332031 393.5420227050781 398.9408264160156 409.4139709472656 460.0400695800781 347.0597839355469" stroke-width="1.0" fill="rgb(127, 222, 223)" opacity="0.8996684"/>
    <path d="M 359.44439697265625 221.2207489013672 C 365.3211364746094 242.3870849609375 352.15850830078125 237.25474548339844 320.5478210449219 242.0994873046875 C 303.14666748046875 218.68760681152344 309.829833984375 212.6885223388672 271.18536376953125 203.18084716796875 C 271.3871765136719 183.81163024902344 301.2645568847656 171.1524658203125 318.4828186035156 177.17617797851562 C 334.5511474609375 178.88644409179688 354.3959655761719 195.95086669921875 359.44439697265625 221.2207489013672" stroke-width="1.0" fill="rgb(24, 21, 7)" opacity="0.90837455"/>
    <path d="M 582.1453247070312 575.5256958007812 C 454.3882141113281 575.5241088867188 420.8656311035156 575.4242553710938 414.78448486328125 575.5519409179688 C 385.4967041015625 576.3267822265625 391.4346618652344 570.4716186523438 389.8338317871094 542.94482421875 C 377.20440673828125 530.3108520507812 406.3575439453125 545.6163940429688 453.49261474609375 521.005859375 C 498.0813293457031 486.928955078125 565.423095703125 456.8905334472656 582.1453247070312 575.5256958007812" stroke-width="1.0" fill="rgb(71, 158, 158)" opacity="0.985779"/>
    <path d="M 478.457275390625 426.6689147949219 C 470.35797119140625 452.0114440917969 464.3006896972656 453.1418151855469 447.1958312988281 454.5295104980469 C 429.95709228515625 452.5208740234375 427.7154846191406 451.6237487792969 415.0666198730469 439.54779052734375 C 416.8916931152344 425.8416748046875 431.8405456542969 427.6183166503906 452.04656982421875 427.5254211425781 C 458.2425231933594 431.709716796875 464.7228088378906 424.8636169433594 478.457275390625 426.6689147949219" stroke-width="1.0" fill="rgb(124, 213, 216)" opacity="0.9399175"/>
    <path d="M 211.1489715576172 67.08391571044922 C 205.49363708496094 82.40396118164062 197.17543029785156 91.25423431396484 180.08274841308594 101.66554260253906 C 163.77944946289062 87.92424774169922 156.30117797851562 79.3660888671875 148.79330444335938 65.02767181396484 C 157.10736083984375 50.94878005981445 165.15347290039062 43.018489837646484 178.199951171875 37.66971206665039 C 191.623779296875 44.56892776489258 199.79440307617188 51.927459716796875 211.1489715576172 67.08391571044922" stroke-width="1.0" fill="rgb(113, 204, 204)" opacity="0.88154256"/>
    <path d="M 234.43438720703125 435.1425476074219 C 257.6507873535156 451.3409729003906 273.0871887207031 448.4808044433594 227.1056671142578 451.7085876464844 C 240.68893432617188 443.9840393066406 245.2057647705078 460.6357116699219 112.62652587890625 443.7428894042969 C 253.4626922607422 426.1655578613281 180.7841339111328 385.28424072265625 204.55667114257812 392.0317077636719 C 203.01625061035156 416.58428955078125 224.04132080078125 426.9056091308594 234.43438720703125 435.1425476074219" stroke-width="1.0" fill="rgb(51, 45, 51)" opacity="0.98645157"/>
    <path d="M 211.53419494628906 512.8519287109375 C 190.8820343017578 568.9006958007812 185.01153564453125 576.8046875 189.4589385986328 569.0975341796875 C 181.3670654296875 578.720703125 184.29258728027344 587.4280395507812 211.92759704589844 511.9006042480469 C 157.8070831298828 511.6866149902344 83.15486907958984 515.3279418945312 150.5303497314453 473.4480895996094 C 265.6916809082031 512.3228149414062 249.28211975097656 499.3832092285156 211.53419494628906 512.8519287109375" stroke-width="1.0" fill="rgb(119, 208, 208)" opacity="1.0"/>
    <path d="M 239.3754425048828 232.37950134277344 C 246.05149841308594 253.6863555908203 233.55853271484375 233.48875427246094 238.6179656982422 257.7543640136719 C 262.5894470214844 234.5275421142578 242.3203582763672 234.7100372314453 229.39967346191406 255.7143096923828 C 224.91680908203125 252.1451416015625 229.33718872070312 227.99227905273438 241.50672912597656 224.42697143554688 C 263.4623107910156 220.6003875732422 257.03302001953125 256.52935791015625 239.3754425048828 232.37950134277344" stroke-width="1.0" fill="rgb(32, 23, 28)" opacity="0.9689163"/>
    <path d="M 292.1698913574219 255.4922637939453 C 305.06878662109375 256.0789794921875 307.2032165527344 240.48037719726562 303.5318603515625 250.8166046142578 C 304.7002258300781 239.75608825683594 278.03802490234375 204.58880615234375 272.48138427734375 236.5750732421875 C 272.09625244140625 236.82627868652344 300.9976806640625 246.9957275390625 286.4942626953125 230.5205841064453 C 275.29583740234375 230.61648559570312 278.0137939453125 246.5785369873047 292.1698913574219 255.4922637939453" stroke-width="1.0" fill="rgb(26, 16, 15)" opacity="0.90248764"/>
    <path d="M 352.4174499511719 261.2026672363281 C 359.94073486328125 286.29736328125 336.5481872558594 303.2867126464844 301.1334533691406 275.2750549316406 C 308.49041748046875 266.02972412109375 315.4096374511719 252.49940490722656 314.1045227050781 242.21136474609375 C 323.05010986328125 248.8685760498047 324.3187561035156 253.6629638671875 330.52215576171875 258.22064208984375 C 327.0713195800781 242.60073852539062 335.7214050292969 248.30462646484375 352.4174499511719 261.2026672363281" stroke-width="1.0" fill="rgb(165, 201, 77)" opacity="0.74617505"/>
    <path d="M 350.6571350097656 278.0206604003906 C 369.959228515625 271.90032958984375 427.2530822753906 262.767333984375 303.73486328125 305.23333740234375 C 305.42938232421875 275.0335998535156 221.1710968017578 314.7219543457031 305.3922119140625 276.89739990234375 C 322.02508544921875 237.4213409423828 316.3409729003906 226.03440856933594 331.0318908691406 212.49295043945312 C 345.5116271972656 198.33926391601562 378.936767578125 223.7560577392578 350.6571350097656 278.0206604003906" stroke-width="1.0" fill="rgb(22, 16, 0)" opacity="0.83603513"/>
    <path d="M 101.34243774414062 169.75633239746094 C 100.90328216552734 174.9767303466797 92.10034942626953 177.88133239746094 90.9932861328125 177.7520294189453 C 81.00389862060547 182.31582641601562 46.415523529052734 185.43780517578125 44.487247467041016 169.80337524414062 C 49.05458450317383 158.56246948242188 72.71646881103516 152.53590393066406 86.05921936035156 154.866455078125 C 95.25992584228516 157.29026794433594 102.76741027832031 160.4520263671875 101.34243774414062 169.75633239746094" stroke-width="1.0" fill="rgb(123, 205, 210)" opacity="0.9984614"/>
    <path d="M 490.601318359375 266.7032775878906 C 489.3017578125 280.4229736328125 497.637939453125 275.7719421386719 467.09185791015625 276.6390380859375 C 452.4388122558594 275.87518310546875 464.2591552734375 282.2815856933594 449.30609130859375 246.38824462890625 C 443.8553771972656 234.2144012451172 448.2501220703125 224.67298889160156 458.3858947753906 206.85702514648438 C 483.37054443359375 225.09243774414062 488.0630187988281 247.90054321289062 490.601318359375 266.7032775878906" stroke-width="1.0" fill="rgb(126, 158, 0)" opacity="0.9820159"/>
    <path d="M 495.7805480957031 259.8117980957031 C 459.3367614746094 196.89060974121094 466.98175048828125 202.50418090820312 444.34503173828125 283.54998779296875 C 439.75555419921875 236.87997436523438 446.70458984375 259.9219665527344 395.54681396484375 267.5389404296875 C 394.4440612792969 201.0413818359375 430.33416748046875 196.9266815185547 449.1703186035156 201.41444396972656 C 446.8807678222656 200.25994873046875 486.150146484375 206.97735595703125 495.7805480957031 259.8117980957031" stroke-width="1.0" fill="rgb(27, 22, 8)" opacity="0.93416923"/>
    <path d="M 507.32342529296875 436.0203552246094 C 491.0822448730469 441.77532958984375 477.80810546875 438.6791687011719 478.1183776855469 439.7583923339844 C 474.71868896484375 438.1867980957031 477.2919921875 443.5393371582031 461.3777770996094 429.7832946777344 C 472.2774353027344 424.8996887207031 497.3160400390625 429.52960205078125 478.14385986328125 426.1004638671875 C 479.39971923828125 427.7096862792969 510.0072021484375 427.91485595703125 507.32342529296875 436.0203552246094" stroke-width="1.0" fill="rgb(244, 254, 253)" opacity="0.9860399"/>
    <path d="M 394.29180908203125 346.1528015136719 C 401.9356994628906 395.1334228515625 409.72589111328125 391.2177429199219 363.3640441894531 382.4697570800781 C 361.5179138183594 383.6248779296875 363.16693115234375 380.3010559082031 348.028564453125 352.4404602050781 C 350.8067321777344 353.886962890625 368.2742614746094 356.8937683105469 367.4114685058594 356.368896484375 C 382.1439208984375 356.6824035644531 392.2226257324219 355.3430480957031 394.29180908203125 346.1528015136719" stroke-width="1.0" fill="rgb(76, 160, 156)" opacity="0.9580964"/>
    <path d="M 355.26068115234375 245.43470764160156 C 350.25555419921875 274.0122985839844 350.3297119140625 280.262939453125 303.7623291015625 276.0655212402344 C 303.9470520019531 268.5841369628906 326.4378356933594 252.7000732421875 306.4562072753906 221.27989196777344 C 314.3515319824219 202.84060668945312 299.5351257324219 205.091064453125 279.4207458496094 193.30667114257812 C 320.05072021484375 158.23533630371094 361.19915771484375 202.44699096679688 355.26068115234375 245.43470764160156" stroke-width="1.0" fill="rgb(134, 167, 1)" opacity="0.8859684"/>
    <path d="M 421.9200439453125 239.6470947265625 C 439.7819519042969 228.12579345703125 455.44384765625 252.11900329589844 422.32659912109375 257.84698486328125 C 444.9532470703125 214.97764587402344 415.846435546875 250.9832305908203 402.0174865722656 246.2962188720703 C 405.0408935546875 219.28150939941406 419.2763977050781 204.51312255859375 438.6965026855469 204.8099822998047 C 446.3453063964844 203.76510620117188 448.76776123046875 216.24708557128906 421.9200439453125 239.6470947265625" stroke-width="1.0" fill="rgb(112, 141, 6)" opacity="0.86921054"/>
    <path d="M 347.5328369140625 295.1296081542969 C 364.7829284667969 288.8830261230469 350.3473205566406 296.3341979980469 319.34820556640625 305.1653747558594 C 332.3015441894531 303.21807861328125 330.4208679199219 301.0343933105469 315.87554931640625 310.0887145996094 C 305.476806640625 309.637451171875 293.8742370605469 306.9052734375 339.4373474121094 294.1991271972656 C 389.881591796875 270.8970642089844 412.0127868652344 274.7690124511719 347.5328369140625 295.1296081542969" stroke-width="1.0" fill="rgb(243, 254, 239)" opacity="0.9403737"/>
    <path d="M 221.24200439453125 434.36181640625 C 177.634521484375 442.1380920410156 190.0950927734375 452.7992858886719 114.84928894042969 445.1758117675781 C 143.66416931152344 507.9544372558594 203.1092987060547 433.3804016113281 155.8520965576172 443.1211242675781 C 181.1457061767578 434.07421875 191.57972717285156 433.1912536621094 204.22190856933594 425.0048522949219 C 214.4866943359375 420.78955078125 206.8653564453125 420.9824523925781 221.24200439453125 434.36181640625" stroke-width="1.0" fill="rgb(168, 255, 255)" opacity="0.3878982"/>
    <path d="M 467.68072509765625 216.4441375732422 C 468.46051025390625 239.07177734375 457.3309631347656 255.33412170410156 444.2858581542969 234.4158172607422 C 432.1933288574219 224.67095947265625 422.3271789550781 243.43055725097656 409.960693359375 223.88136291503906 C 419.186767578125 205.0701904296875 436.64752197265625 206.13650512695312 440.15533447265625 206.077392578125 C 443.2970275878906 203.14064025878906 458.73431396484375 208.72337341308594 467.68072509765625 216.4441375732422" stroke-width="1.0" fill="rgb(128, 162, 0)" opacity="0.95592993"/>
    <path d="M 372.7597961425781 289.9506530761719 C 377.4632873535156 280.0015869140625 347.869873046875 335.7354736328125 357.3489074707031 319.1482849121094 C 348.0345764160156 313.6306457519531 328.55279541015625 314.0126953125 327.84307861328125 307.94610595703125 C 334.8258972167969 261.2591552734375 345.935546875 303.078857421875 303.8321838378906 274.5260314941406 C 348.0941162109375 313.77398681640625 333.886474609375 301.4626770019531 372.7597961425781 289.9506530761719" stroke-width="1.0" fill="rgb(195, 255, 18)" opacity="0.52593595"/>
    <path d="M 223.48611450195312 215.62942504882812 C 212.86685180664062 191.814453125 204.8045654296875 219.01727294921875 208.45724487304688 232.9212188720703 C 215.14418029785156 231.91783142089844 204.12232971191406 213.13644409179688 208.61160278320312 234.19737243652344 C 191.9782257080078 226.2585906982422 193.5334930419922 197.6682891845703 225.22801208496094 203.98731994628906 C 202.36184692382812 216.21527099609375 212.9650115966797 238.0884552001953 223.48611450195312 215.62942504882812" stroke-width="1.0" fill="rgb(26, 16, 20)" opacity="0.927144"/>
    <path d="M 580.34423828125 32.70150375366211 C 580.4075927734375 41.120460510253906 580.332763671875 58.31157684326172 580.3139038085938 55.882259368896484 C 566.149169921875 46.226715087890625 559.2060546875 40.156185150146484 547.2027587890625 25.296432495117188 C 551.3172607421875 25.288711547851562 566.0247802734375 25.602739334106445 577.4349365234375 25.233549118041992 C 581.0635375976562 23.605958938598633 580.2118530273438 25.358442306518555 580.34423828125 32.70150375366211" stroke-width="1.0" fill="rgb(119, 201, 205)" opacity="0.9854808"/>
    <path d="M 234.06768798828125 445.6051940917969 C 226.37979125976562 445.98773193359375 194.41390991210938 445.83221435546875 181.18641662597656 445.3607482910156 C 184.7404022216797 444.01055908203125 160.33717346191406 443.90380859375 160.1173858642578 442.7225341796875 C 192.9724884033203 431.9910583496094 201.98764038085938 429.48681640625 194.64573669433594 430.81414794921875 C 221.8176727294922 420.1994934082031 196.85972595214844 418.6190490722656 234.06768798828125 445.6051940917969" stroke-width="1.0" fill="rgb(122, 216, 217)" opacity="0.9967377"/>
    <path d="M 430.4739685058594 248.6002197265625 C 456.297119140625 249.85731506347656 447.4530029296875 279.52838134765625 454.2728271484375 277.6333923339844 C 424.84619140625 275.86260986328125 425.685546875 280.85699462890625 426.6981506347656 268.3310241699219 C 454.3888854980469 259.983642578125 439.9739074707031 263.197021484375 445.59893798828125 253.14822387695312 C 440.1679992675781 244.10057067871094 444.97479248046875 239.48023986816406 430.4739685058594 248.6002197265625" stroke-width="1.0" fill="rgb(123, 169, 0)" opacity="0.78117245"/>
    <path d="M 417.2334899902344 258.8701171875 C 419.265625 260.0587463378906 402.2859191894531 264.4369201660156 400.002197265625 259.38824462890625 C 404.9617004394531 263.802001953125 399.97802734375 259.12353515625 403.5448913574219 266.98052978515625 C 399.69854736328125 259.1965026855469 400.3207702636719 249.6264190673828 409.160888671875 224.36441040039062 C 442.19488525390625 231.03492736816406 416.84661865234375 231.86849975585938 417.2334899902344 258.8701171875" stroke-width="1.0" fill="rgb(126, 159, 2)" opacity="0.9584356"/>
    <path d="M 394.912109375 417.5660400390625 C 393.2929992675781 423.6858215332031 386.4151306152344 428.0554504394531 375.1171569824219 434.6299133300781 C 362.1644287109375 441.76898193359375 365.6881408691406 437.14697265625 367.23260498046875 422.9299011230469 C 365.78570556640625 408.17510986328125 365.7865295410156 393.1343994140625 379.6678466796875 392.7490539550781 C 393.5102233886719 396.28802490234375 394.6117858886719 414.3895263671875 394.912109375 417.5660400390625" stroke-width="1.0" fill="rgb(254, 255, 255)" opacity="0.91422236"/>
    <path d="M 572.528564453125 107.65618896484375 C 559.6630249023438 113.60057067871094 553.3079223632812 115.50483703613281 579.5801391601562 117.64004516601562 C 582.3146362304688 105.51752471923828 576.8035888671875 104.93167114257812 571.9109497070312 105.34819030761719 C 569.20703125 114.07843780517578 571.624267578125 102.90554809570312 567.9527587890625 104.54534149169922 C 571.8829345703125 107.65724182128906 579.30712890625 113.75151062011719 572.528564453125 107.65618896484375" stroke-width="1.0" fill="rgb(120, 203, 214)" opacity="0.94989556"/>
    <path d="M 294.212890625 314.09173583984375 C 287.8140563964844 318.5057373046875 278.0237121582031 321.538818359375 289.51177978515625 316.46563720703125 C 291.1424255371094 314.6351623535156 288.19854736328125 318.3998718261719 269.8562316894531 322.65985107421875 C 266.09515380859375 314.1147155761719 279.9840087890625 317.1468200683594 284.0599060058594 310.0680236816406 C 276.5303955078125 318.7064514160156 296.4736022949219 302.2638244628906 294.212890625 314.09173583984375" stroke-width="1.0" fill="rgb(231, 238, 237)" opacity="0.99195844"/>
    <path d="M 304.747802734375 201.24374389648438 C 303.1361999511719 206.5487060546875 296.0771789550781 201.02110290527344 292.92315673828125 207.12619018554688 C 291.7381591796875 213.20376586914062 284.6037292480469 206.80235290527344 273.5987854003906 204.85447692871094 C 282.22259521484375 189.1140594482422 275.8406677246094 193.27784729003906 293.5384826660156 200.20120239257812 C 297.8399963378906 193.486328125 303.17510986328125 195.63172912597656 304.747802734375 201.24374389648438" stroke-width="1.0" fill="rgb(142, 175, 4)" opacity="0.84468323"/>
    <path d="M 244.97763061523438 198.3582000732422 C 234.71286010742188 196.0751495361328 231.68772888183594 188.60105895996094 213.04672241210938 174.21981811523438 C 229.56317138671875 193.07711791992188 229.3258056640625 204.3272247314453 228.32582092285156 210.9454803466797 C 260.2554626464844 203.87220764160156 173.7849578857422 95.68741607666016 121.81156921386719 204.61195373535156 C 186.7449188232422 112.36936950683594 226.7864990234375 197.87210083007812 244.97763061523438 198.3582000732422" stroke-width="1.0" fill="rgb(20, 13, 13)" opacity="0.82768166"/>
    <path d="M 457.1841735839844 245.117919921875 C 445.71917724609375 259.9228210449219 460.2313537597656 255.81101989746094 436.6065673828125 226.22189331054688 C 443.5298767089844 262.76165771484375 410.25909423828125 267.95391845703125 429.1524963378906 239.2382354736328 C 446.3610534667969 238.302734375 430.8871765136719 229.64932250976562 438.725341796875 218.32518005371094 C 457.1221618652344 225.09466552734375 462.81561279296875 233.64007568359375 457.1841735839844 245.117919921875" stroke-width="1.0" fill="rgb(133, 164, 2)" opacity="0.8166278"/>
    <path d="M 149.645263671875 440.92822265625 C 144.4184112548828 445.9312438964844 113.04434967041016 431.7474365234375 96.8043441772461 418.0868225097656 C 103.12955474853516 426.8453063964844 98.3990249633789 419.43212890625 89.85185241699219 409.5534362792969 C 74.96749114990234 389.23858642578125 80.0427017211914 377.99481201171875 92.4441146850586 401.1786804199219 C 101.400634765625 417.3812561035156 114.97259521484375 422.4421691894531 149.645263671875 440.92822265625" stroke-width="1.0" fill="rgb(59, 48, 55)" opacity="0.9337966"/>
    <path d="M 431.3624267578125 489.3387145996094 C 440.7532653808594 527.6006469726562 416.7174987792969 494.8799133300781 371.12542724609375 511.67547607421875 C 369.72808837890625 512.2709350585938 353.41461181640625 517.8703002929688 335.7256774902344 521.9769287109375 C 369.1354675292969 493.5113525390625 376.76959228515625 461.0787353515625 388.5876159667969 493.88421630859375 C 344.4676513671875 473.5333557128906 353.8510437011719 528.3828125 431.3624267578125 489.3387145996094" stroke-width="1.0" fill="rgb(73, 158, 157)" opacity="0.94795644"/>
    <path d="M 392.5919189453125 285.86236572265625 C 413.9073791503906 276.9776611328125 393.9296569824219 281.3483581542969 375.772705078125 298.29046630859375 C 369.97857666015625 280.99273681640625 405.9886474609375 292.6182556152344 375.512939453125 274.33941650390625 C 375.57257080078125 270.347900390625 382.92694091796875 255.5895233154297 397.55487060546875 265.64569091796875 C 394.8545227050781 261.51837158203125 363.7814025878906 270.37701416015625 392.5919189453125 285.86236572265625" stroke-width="1.0" fill="rgb(242, 255, 241)" opacity="0.83221316"/>
    <path d="M 453.610107421875 341.96392822265625 C 453.00054931640625 350.2901916503906 450.30865478515625 375.8116455078125 438.4619445800781 385.33843994140625 C 450.4559326171875 341.48779296875 441.5735168457031 377.2254638671875 418.21868896484375 377.8838195800781 C 442.16229248046875 357.1646728515625 444.6561584472656 348.45574951171875 449.0664978027344 345.1354675292969 C 453.44317626953125 340.1952819824219 454.2541809082031 347.7671203613281 453.610107421875 341.96392822265625" stroke-width="1.0" fill="rgb(58, 58, 62)" opacity="1.0"/>
    <path d="M 128.27737426757812 435.9271545410156 C 140.82421875 442.1636047363281 104.32742309570312 434.8190002441406 98.99398040771484 438.1268615722656 C 91.5858383178711 426.5322265625 89.3973159790039 417.4305114746094 83.67902374267578 412.3741149902344 C 79.76475524902344 414.57501220703125 77.90011596679688 403.3132019042969 82.86229705810547 394.348876953125 C 92.5681381225586 412.39263916015625 95.230712890625 420.1942443847656 128.27737426757812 435.9271545410156" stroke-width="1.0" fill="rgb(145, 249, 246)" opacity="0.62844974"/>
    <path d="M 440.5174255371094 261.3042297363281 C 442.3777160644531 248.0710906982422 428.6264343261719 265.8250732421875 397.8377990722656 266.7728576660156 C 420.5692138671875 264.8197937011719 411.8345031738281 265.4052429199219 399.7165222167969 267.633544921875 C 412.4679870605469 264.6938781738281 421.79693603515625 262.0923767089844 395.080078125 269.0530700683594 C 388.3726806640625 284.3734130859375 380.42523193359375 276.9725646972656 440.5174255371094 261.3042297363281" stroke-width="1.0" fill="rgb(245, 255, 237)" opacity="0.8702242"/>
    <path d="M 183.24551391601562 392.6598205566406 C 154.7334747314453 419.45269775390625 147.59751892089844 426.8206787109375 136.49525451660156 422.3398132324219 C 126.99059295654297 416.1244812011719 118.33235168457031 421.72161865234375 112.2366714477539 423.33721923828125 C 135.2252197265625 418.5990295410156 137.25955200195312 400.75457763671875 138.4837188720703 390.768310546875 C 173.52406311035156 391.1851501464844 201.2340087890625 386.6008605957031 183.24551391601562 392.6598205566406" stroke-width="1.0" fill="rgb(78, 159, 145)" opacity="0.640564"/>
    <path d="M 166.47479248046875 423.5058898925781 C 161.3140411376953 430.0459289550781 152.20054626464844 435.8270263671875 147.25953674316406 432.93060302734375 C 131.6221466064453 437.4134521484375 122.81222534179688 446.37451171875 139.97471618652344 434.69586181640625 C 109.96479034423828 422.82696533203125 133.09402465820312 422.7193908691406 144.96212768554688 416.86883544921875 C 153.33392333984375 415.6864318847656 160.74575805664062 418.0351867675781 166.47479248046875 423.5058898925781" stroke-width="1.0" fill="rgb(64, 158, 153)" opacity="0.9631759"/>
    <path d="M 296.3264465332031 293.3344421386719 C 308.376220703125 303.0065002441406 302.45947265625 318.4627990722656 300.4667053222656 313.4845275878906 C 300.15924072265625 298.5727233886719 294.20001220703125 303.8410339355469 283.0667724609375 307.4585876464844 C 278.2923889160156 294.3570861816406 299.97900390625 284.64276123046875 285.99298095703125 305.8693542480469 C 304.29302978515625 305.15283203125 279.8236999511719 288.4801940917969 296.3264465332031 293.3344421386719" stroke-width="1.0" fill="rgb(235, 241, 232)" opacity="0.950009"/>
    <path d="M 84.74925994873047 395.76959228515625 C 81.0632095336914 406.398681640625 94.29981994628906 427.5657653808594 92.59307861328125 435.51983642578125 C 73.55908966064453 427.0967712402344 66.9534912109375 420.39703369140625 71.65476989746094 413.9249572753906 C 67.8428955078125 407.80694580078125 73.0286636352539 402.1695251464844 76.3261947631836 396.1315002441406 C 92.2777099609375 395.4390869140625 98.61396789550781 394.6974792480469 84.74925994873047 395.76959228515625" stroke-width="1.0" fill="rgb(68, 157, 159)" opacity="0.7478736"/>
    <path d="M 192.05935668945312 412.4871520996094 C 186.38356018066406 419.3332824707031 175.96859741210938 418.15399169921875 161.78073120117188 419.7629699707031 C 190.75856018066406 413.3405456542969 148.92486572265625 427.0316162109375 132.17529296875 412.880126953125 C 116.59870910644531 401.59564208984375 155.91172790527344 390.52703857421875 184.83152770996094 391.3593444824219 C 194.51388549804688 395.0396728515625 191.29055786132812 389.0090637207031 192.05935668945312 412.4871520996094" stroke-width="1.0" fill="rgb(252, 255, 255)" opacity="0.9789339"/>
    <path d="M 366.9383544921875 289.2724914550781 C 290.7432556152344 319.7416076660156 300.7984924316406 303.421875 299.8191223144531 313.9591979980469 C 335.8829650878906 296.1157531738281 320.69573974609375 312.5604248046875 285.7503356933594 309.1824035644531 C 287.286376953125 281.5133972167969 306.2863464355469 311.0446472167969 296.8694152832031 309.73370361328125 C 284.4851989746094 328.97119140625 293.4840393066406 322.9814453125 366.9383544921875 289.2724914550781" stroke-width="1.0" fill="rgb(32, 21, 11)" opacity="0.77645"/>
    <path d="M 107.18721771240234 417.14996337890625 C 128.4953155517578 427.6358337402344 122.1292724609375 420.1016540527344 97.41278839111328 415.1465148925781 C 84.69251251220703 414.93756103515625 77.31205749511719 410.3660888671875 107.414794921875 417.28729248046875 C 120.24783325195312 393.9154968261719 139.80682373046875 391.8957824707031 95.35433959960938 395.0726013183594 C 83.75694274902344 393.9237060546875 94.86273193359375 399.2644348144531 107.18721771240234 417.14996337890625" stroke-width="1.0" fill="rgb(121, 217, 214)" opacity="0.9774573"/>
    <path d="M 130.59017944335938 410.73992919921875 C 130.12374877929688 387.704833984375 131.198486328125 408.83685302734375 138.28089904785156 418.5503845214844 C 121.923828125 423.17169189453125 117.27651977539062 421.31103515625 130.28366088867188 405.54449462890625 C 138.19154357910156 397.1321105957031 163.91912841796875 394.1653747558594 160.13104248046875 393.14703369140625 C 118.71968078613281 391.1280517578125 139.89537048339844 410.6150817871094 130.59017944335938 410.73992919921875" stroke-width="1.0" fill="rgb(131, 238, 230)" opacity="0.56966645"/>
    <path d="M 425.7249450683594 257.875 C 406.7901611328125 266.2279052734375 397.2733459472656 270.9409484863281 398.3827819824219 267.66583251953125 C 382.6233825683594 256.36395263671875 383.6671142578125 249.48793029785156 366.0968933105469 276.03338623046875 C 390.34405517578125 291.5373229980469 362.0945739746094 256.54052734375 388.3705139160156 256.39501953125 C 395.5361633300781 253.76004028320312 409.36859130859375 272.3638610839844 425.7249450683594 257.875" stroke-width="1.0" fill="rgb(38, 32, 26)" opacity="0.8473971"/>
    <path d="M 203.01986694335938 402.79351806640625 C 204.30023193359375 411.150146484375 210.7484893798828 416.0254821777344 205.69094848632812 417.5177001953125 C 184.791748046875 428.5409851074219 169.22706604003906 435.3444519042969 169.0062255859375 423.9021301269531 C 197.32310485839844 415.5248107910156 206.26690673828125 403.40631103515625 201.23605346679688 399.2788391113281 C 192.61317443847656 406.3441162109375 194.73255920410156 417.87811279296875 203.01986694335938 402.79351806640625" stroke-width="1.0" fill="rgb(65, 157, 146)" opacity="0.9181387"/>
    <path d="M 252.33370971679688 339.25555419921875 C 245.60256958007812 341.4938049316406 234.18344116210938 352.107421875 234.1141357421875 356.61016845703125 C 233.47775268554688 353.9625549316406 235.66835021972656 348.1274719238281 232.34609985351562 362.0259704589844 C 239.71043395996094 360.5869140625 247.778076171875 347.82257080078125 252.31643676757812 339.6967468261719 C 245.8591766357422 342.5999755859375 244.38783264160156 344.2997131347656 252.33370971679688 339.25555419921875" stroke-width="1.0" fill="rgb(229, 237, 241)" opacity="0.96026313"/>
    <path d="M 206.3165283203125 233.13265991210938 C 202.3350372314453 258.9697570800781 220.77261352539062 260.23870849609375 205.47662353515625 276.6816101074219 C 176.1260528564453 272.5546875 172.42225646972656 259.197998046875 171.3665313720703 242.62460327148438 C 173.67127990722656 228.5946044921875 180.56309509277344 217.7655487060547 196.19529724121094 212.68264770507812 C 200.7207489013672 232.0264129638672 200.9669189453125 240.3003692626953 206.3165283203125 233.13265991210938" stroke-width="1.0" fill="rgb(132, 158, 1)" opacity="0.8948734"/>
    <path d="M 385.8927917480469 275.23333740234375 C 394.9818420410156 295.0106201171875 392.3556213378906 308.4580993652344 398.7669372558594 279.0626220703125 C 384.96240234375 275.9363098144531 405.3221740722656 253.5195770263672 378.98675537109375 258.8533935546875 C 365.4748229980469 287.5638427734375 386.79498291015625 247.49172973632812 393.7873840332031 265.9761962890625 C 378.57598876953125 265.5300598144531 374.8600158691406 283.66229248046875 385.8927917480469 275.23333740234375" stroke-width="1.0" fill="rgb(34, 23, 14)" opacity="0.8516574"/>
    <path d="M 213.9180145263672 221.8433380126953 C 226.8223114013672 205.7834930419922 212.99679565429688 212.44056701660156 229.34906005859375 212.55520629882812 C 228.4633331298828 202.7359619140625 204.7548065185547 198.78529357910156 209.845458984375 227.81597900390625 C 212.34783935546875 222.7015380859375 227.5679168701172 207.06100463867188 215.5026397705078 210.80349731445312 C 209.28379821777344 214.80384826660156 211.9182891845703 226.6269073486328 213.9180145263672 221.8433380126953" stroke-width="1.0" fill="rgb(251, 255, 250)" opacity="0.88564724"/>
    <path d="M 263.909423828125 326.7247009277344 C 252.53684997558594 295.3052978515625 259.3235168457031 334.5223083496094 253.81448364257812 330.3398132324219 C 247.69395446777344 322.7208557128906 257.4542236328125 311.5804748535156 255.40769958496094 331.2100830078125 C 255.49252319335938 322.46490478515625 247.62765502929688 317.4492492675781 261.7258605957031 313.90887451171875 C 249.37428283691406 304.86163330078125 273.42901611328125 326.1770935058594 263.909423828125 326.7247009277344" stroke-width="1.0" fill="rgb(200, 195, 209)" opacity="0.9083295"/>
    <path d="M 185.8724365234375 241.9963836669922 C 181.9425811767578 259.00048828125 177.65771484375 270.87481689453125 159.9830322265625 275.66552734375 C 138.05731201171875 272.16387939453125 131.71240234375 261.9234619140625 127.86322021484375 240.18775939941406 C 130.14035034179688 223.84812927246094 139.548828125 215.89605712890625 156.95230102539062 206.33236694335938 C 173.5579833984375 219.3583984375 181.0636749267578 227.97109985351562 185.8724365234375 241.9963836669922" stroke-width="1.0" fill="rgb(128, 159, 0)" opacity="0.9567224"/>
    <path d="M 18.528993606567383 285.184814453125 C 22.6403751373291 291.2974548339844 23.392314910888672 292.33251953125 19.817827224731445 287.1043395996094 C 18.079593658447266 297.7766418457031 19.765840530395508 286.4670715332031 19.72072982788086 279.098388671875 C 16.966384887695312 278.79388427734375 24.300209045410156 277.4210510253906 27.85083770751953 271.2240295410156 C 31.54909324645996 270.4264221191406 29.6766300201416 276.0156555175781 18.528993606567383 285.184814453125" stroke-width="1.0" fill="rgb(18, 18, 12)" opacity="0.9037658"/>
    <path d="M 295.3614501953125 333.1603088378906 C 295.3644714355469 337.3819885253906 295.3385925292969 337.1913757324219 295.0088195800781 334.503662109375 C 295.8182678222656 342.25042724609375 295.4569396972656 321.2993469238281 295.1504211425781 319.81011962890625 C 289.4245910644531 318.29364013671875 293.5864562988281 337.419189453125 295.3367004394531 350.61370849609375 C 294.1454772949219 342.6379089355469 295.1357727050781 357.0032958984375 295.3614501953125 333.1603088378906" stroke-width="1.0" fill="rgb(216, 218, 218)" opacity="0.8845693"/>
    <path d="M 262.45062255859375 318.8122253417969 C 265.2727355957031 311.4118347167969 248.3822784423828 309.543701171875 254.75131225585938 323.5620422363281 C 255.77200317382812 325.73663330078125 254.5852813720703 317.2289733886719 254.16848754882812 332.8070983886719 C 254.85971069335938 306.3948974609375 255.81329345703125 311.0813293457031 262.46502685546875 327.94189453125 C 254.69288635253906 334.39385986328125 251.09152221679688 299.5013122558594 262.45062255859375 318.8122253417969" stroke-width="1.0" fill="rgb(251, 248, 255)" opacity="0.7824484"/>
    <path d="M 221.69351196289062 268.62933349609375 C 222.8965301513672 284.9396667480469 205.565185546875 285.37017822265625 211.79449462890625 278.7988586425781 C 218.16009521484375 282.96197509765625 212.70370483398438 276.3778381347656 210.26390075683594 297.5143127441406 C 216.8944091796875 286.4339904785156 223.07577514648438 279.114013671875 211.91688537597656 285.6576843261719 C 207.809814453125 282.4247741699219 224.4492645263672 289.1698303222656 221.69351196289062 268.62933349609375" stroke-width="1.0" fill="rgb(126, 156, 152)" opacity="0.8693666"/>
    <path d="M 284.6168212890625 284.71661376953125 C 211.57469177246094 293.9091491699219 215.72015380859375 245.6355743408203 249.02561950683594 314.8212890625 C 234.80979919433594 281.4386291503906 220.44961547851562 278.603759765625 243.252685546875 286.8171081542969 C 260.02606201171875 292.9588317871094 258.2086181640625 292.4344482421875 241.73707580566406 286.18621826171875 C 248.89413452148438 287.71173095703125 274.9330749511719 292.0726623535156 284.6168212890625 284.71661376953125" stroke-width="1.0" fill="rgb(136, 147, 157)" opacity="0.7634777"/>
    <path d="M 618.14501953125 415.9540100097656 C 615.8267211914062 426.4843444824219 611.190673828125 436.3892517089844 588.505859375 465.5386657714844 C 576.7616577148438 458.8546142578125 581.7756958007812 441.50579833984375 580.3649291992188 410.2465515136719 C 581.0590209960938 386.4299011230469 579.7091064453125 346.61114501953125 581.7843017578125 236.27842712402344 C 649.3974609375 373.78082275390625 618.9917602539062 403.7586669921875 618.14501953125 415.9540100097656" stroke-width="1.0" fill="rgb(129, 115, 149)" opacity="0.9508778"/>
    <path d="M 247.4147491455078 235.06346130371094 C 241.44256591796875 223.75982666015625 238.1729278564453 237.60247802734375 236.50244140625 242.11085510253906 C 247.0430908203125 243.92999267578125 231.7058868408203 237.28964233398438 245.02719116210938 241.91432189941406 C 240.828369140625 240.0997772216797 253.38104248046875 240.49380493164062 243.15646362304688 232.64059448242188 C 236.0491180419922 240.39602661132812 239.05975341796875 246.89077758789062 247.4147491455078 235.06346130371094" stroke-width="1.0" fill="rgb(190, 184, 198)" opacity="0.84721386"/>
    <path d="M 133.94827270507812 278.2033996582031 C 131.22940063476562 266.2685852050781 128.7190704345703 274.8567810058594 130.58221435546875 270.3424072265625 C 133.4896697998047 275.35870361328125 128.4016571044922 267.9982604980469 133.9434051513672 276.24310302734375 C 128.51280212402344 272.3378601074219 128.70921325683594 256.48095703125 111.83486938476562 247.7921142578125 C 130.50575256347656 266.5450134277344 124.2127914428711 280.4656677246094 133.94827270507812 278.2033996582031" stroke-width="1.0" fill="rgb(86, 64, 154)" opacity="0.84658355"/>
    <path d="M 200.01011657714844 388.229736328125 C 187.0979766845703 380.35955810546875 178.46676635742188 385.4207763671875 198.8564453125 399.11895751953125 C 203.3157501220703 377.1763000488281 185.3923797607422 390.4493408203125 188.11892700195312 381.0179443359375 C 175.6783447265625 384.1783447265625 183.4367218017578 382.6745910644531 188.32156372070312 380.27880859375 C 188.12142944335938 385.9069519042969 181.97335815429688 392.9234619140625 200.01011657714844 388.229736328125" stroke-width="1.0" fill="rgb(89, 201, 190)" opacity="0.58254224"/>
    <path d="M 39.39894104003906 262.7455139160156 C 30.32112693786621 283.9299011230469 40.241825103759766 275.471435546875 20.325786590576172 277.9207763671875 C 23.35025978088379 328.23333740234375 4.063210487365723 343.293212890625 -41.78038787841797 230.42266845703125 C 27.5123291015625 109.25334930419922 21.566513061523438 103.82686614990234 20.54315948486328 279.28228759765625 C 57.52100372314453 237.809814453125 52.09904098510742 244.04061889648438 39.39894104003906 262.7455139160156" stroke-width="1.0" fill="rgb(135, 124, 150)" opacity="0.7940502"/>
    <path d="M 161.73553466796875 38.87242126464844 C 154.53208923339844 52.53895568847656 146.2584228515625 59.925559997558594 134.21583557128906 64.80728149414062 C 122.45484161376953 58.967227935791016 114.87483215332031 51.307472229003906 108.50239562988281 38.47385025024414 C 115.34330749511719 28.141948699951172 125.77703857421875 24.43090057373047 133.6326446533203 26.489606857299805 C 142.10118103027344 24.22681999206543 152.8629150390625 27.529531478881836 161.73553466796875 38.87242126464844" stroke-width="1.0" fill="rgb(114, 204, 205)" opacity="1.0"/>
    <path d="M 561.1101684570312 198.36749267578125 C 557.7025146484375 208.75616455078125 550.216796875 216.1372528076172 539.94091796875 218.9270782470703 C 529.6875610351562 215.58822631835938 522.46484375 208.18087768554688 520.0927734375 198.23492431640625 C 522.5580444335938 188.34593200683594 529.8178100585938 180.9882049560547 539.8724365234375 177.91549682617188 C 549.9696044921875 180.5668182373047 557.4033813476562 187.9128875732422 561.1101684570312 198.36749267578125" stroke-width="1.0" fill="rgb(89, 74, 146)" opacity="0.9783978"/>
    <path d="M 57.322139739990234 235.490966796875 C 52.51908874511719 244.76358032226562 45.180294036865234 252.58038330078125 36.27647399902344 258.6229248046875 C 26.13874626159668 253.050537109375 19.995681762695312 245.44688415527344 25.042436599731445 238.1188201904297 C 21.25005340576172 226.48495483398438 25.66119956970215 217.6622772216797 35.28981399536133 214.29469299316406 C 45.844154357910156 218.10348510742188 53.32300567626953 225.39891052246094 57.322139739990234 235.490966796875" stroke-width="1.0" fill="rgb(94, 73, 148)" opacity="0.8032535"/>
    <path d="M 33.41373062133789 348.09130859375 C 41.06235122680664 341.71490478515625 36.452327728271484 349.77227783203125 21.783170700073242 373.7189025878906 C 19.48073959350586 349.616943359375 20.767026901245117 338.24383544921875 21.29358673095703 331.71807861328125 C 20.552104949951172 332.2436218261719 33.001346588134766 331.31854248046875 20.18886947631836 341.2245788574219 C 19.60915184020996 333.0896301269531 30.042808532714844 339.8360900878906 33.41373062133789 348.09130859375" stroke-width="1.0" fill="rgb(77, 158, 163)" opacity="0.89763695"/>
    <path d="M 507.90277099609375 114.57661437988281 C 491.3376770019531 126.50994873046875 483.6925964355469 132.93377685546875 474.688232421875 140.13243103027344 C 463.5030517578125 134.3072509765625 457.1702575683594 125.05936431884766 451.7535095214844 119.85614776611328 C 449.7217712402344 107.80068969726562 460.9300231933594 72.34832763671875 497.18328857421875 65.16402435302734 C 517.1715698242188 65.40802764892578 515.5936279296875 90.30929565429688 507.90277099609375 114.57661437988281" stroke-width="1.0" fill="rgb(250, 202, 0)" opacity="0.7901794"/>
    <path d="M 91.12108612060547 346.5707702636719 C 93.69017028808594 351.86151123046875 86.75492095947266 359.3021240234375 76.80406188964844 361.9827575683594 C 66.78924560546875 359.2637634277344 59.51372528076172 351.92913818359375 60.50981140136719 345.9921569824219 C 67.8178939819336 341.4111328125 77.24650573730469 336.9886474609375 77.28347778320312 340.6377258300781 C 75.64987182617188 337.9416809082031 85.65218353271484 341.7465515136719 91.12108612060547 346.5707702636719" stroke-width="1.0" fill="rgb(58, 124, 121)" opacity="0.8026216"/>
    <path d="M 288.09136962890625 268.8641662597656 C 280.07568359375 274.2845458984375 269.8939208984375 278.4526672363281 266.1958923339844 279.2502136230469 C 273.5475769042969 279.8866271972656 261.575439453125 278.0384216308594 248.41551208496094 273.4658203125 C 251.60401916503906 261.2093505859375 260.29937744140625 254.058837890625 272.0709533691406 249.42584228515625 C 283.18035888671875 254.82748413085938 290.4577331542969 262.7740783691406 288.09136962890625 268.8641662597656" stroke-width="1.0" fill="rgb(254, 255, 254)" opacity="1.0"/>
    <path d="M 168.66566467285156 306.84075927734375 C 165.1173553466797 310.45318603515625 158.63565063476562 317.0292663574219 161.6438751220703 311.7376708984375 C 174.20346069335938 314.77252197265625 167.5367889404297 310.51385498046875 164.3297882080078 306.1412658691406 C 151.29354858398438 309.7881774902344 158.920654296875 305.630859375 166.46522521972656 301.35260009765625 C 174.20484924316406 304.9147644042969 181.4860382080078 309.7298889160156 168.66566467285156 306.84075927734375" stroke-width="1.0" fill="rgb(150, 190, 0)" opacity="0.710023"/>
    <path d="M 23.177270889282227 201.9806671142578 C 28.557146072387695 206.43858337402344 23.243730545043945 212.05284118652344 18.266695022583008 210.45913696289062 C 13.71616268157959 215.01492309570312 7.356701374053955 208.9693145751953 8.968774795532227 202.4150848388672 C 6.820314884185791 195.91062927246094 13.257109642028809 189.626953125 18.311485290527344 194.36358642578125 C 23.944290161132812 193.00308227539062 29.519023895263672 198.32220458984375 23.177270889282227 201.9806671142578" stroke-width="1.0" fill="rgb(192, 129, 52)" opacity="0.027988132"/>
    <path d="M 556.9147338867188 101.52685546875 C 550.098388671875 82.19744110107422 550.7544555664062 97.13467407226562 545.6620483398438 106.12059020996094 C 536.7365112304688 110.89119720458984 515.322021484375 117.59246826171875 473.6495056152344 77.18653869628906 C 507.0079345703125 52.7709846496582 538.1361694335938 67.13729095458984 552.6778564453125 91.70430755615234 C 549.9884033203125 92.08480834960938 544.7803344726562 103.02395629882812 556.9147338867188 101.52685546875" stroke-width="1.0" fill="rgb(250, 202, 0)" opacity="0.96426445"/>
    <path d="M 20.27484130859375 246.4910888671875 C 23.06189727783203 257.06463623046875 17.622798919677734 266.166015625 7.429018974304199 269.9742736816406 C -3.8582634925842285 264.9764709472656 -11.143038749694824 257.58135986328125 -13.816699028015137 247.57435607910156 C -11.120207786560059 237.6056365966797 -3.7378275394439697 230.40286254882812 7.617387771606445 225.74929809570312 C 18.508329391479492 227.59152221679688 22.764049530029297 236.23199462890625 20.27484130859375 246.4910888671875" stroke-width="1.0" fill="rgb(129, 119, 148)" opacity="0.8139539"/>
    <path d="M 312.63568115234375 106.42240905761719 C 306.4082336425781 110.46442413330078 296.8611755371094 114.78932189941406 298.3592834472656 111.41280364990234 C 301.6290283203125 114.32598876953125 292.3746643066406 109.64838409423828 285.6619567871094 105.7937240600586 C 282.4839782714844 101.85160827636719 289.6679382324219 94.83773803710938 298.6745300292969 93.6073989868164 C 307.68194580078125 95.18162536621094 314.8166198730469 102.12738037109375 312.63568115234375 106.42240905761719" stroke-width="1.0" fill="rgb(114, 207, 206)" opacity="0.7357713"/>
    <path d="M 91.32643127441406 169.42356872558594 C 95.0720443725586 159.97006225585938 90.20930480957031 166.2779998779297 87.86290740966797 165.9000244140625 C 94.95889282226562 170.23562622070312 85.50287628173828 165.40762329101562 86.54034423828125 168.85523986816406 C 90.61894226074219 167.8690185546875 99.80162048339844 162.56179809570312 88.14629364013672 165.2687530517578 C 90.10958862304688 166.17308044433594 97.06454467773438 170.7568359375 91.32643127441406 169.42356872558594" stroke-width="1.0" fill="rgb(123, 217, 208)" opacity="0.71848863"/>
    <path d="M 90.7495346069336 376.0060119628906 C 80.35360717773438 386.4885559082031 69.11638641357422 390.41455078125 46.50102615356445 413.8237609863281 C 15.516108512878418 435.5386047363281 21.286392211914062 434.0715637207031 20.652273178100586 376.0663757324219 C 21.621084213256836 345.7322692871094 44.5694694519043 351.41961669921875 59.76509475708008 353.73699951171875 C 70.49493408203125 357.2450256347656 78.97034454345703 363.7082824707031 90.7495346069336 376.0060119628906" stroke-width="1.0" fill="rgb(73, 159, 158)" opacity="0.8261998"/>
    <path d="M 400.1614990234375 332.47479248046875 C 395.72760009765625 355.1829833984375 382.3213195800781 355.2856750488281 372.17840576171875 354.95684814453125 C 358.0992431640625 355.3775329589844 344.02789306640625 355.4059753417969 335.6626281738281 324.80450439453125 C 340.9140930175781 318.06817626953125 356.9628601074219 322.1553649902344 372.8409423828125 313.0120544433594 C 372.4971618652344 334.31610107421875 388.0044250488281 323.7164001464844 400.1614990234375 332.47479248046875" stroke-width="1.0" fill="rgb(31, 1, 15)" opacity="0.4748442"/>
    <path d="M 100.22373962402344 350.48016357421875 C 93.08525848388672 363.497802734375 84.81839752197266 370.6182556152344 73.37712097167969 371.87451171875 C 62.31855010986328 367.6698913574219 54.92395782470703 360.3831481933594 52.544830322265625 350.5525817871094 C 54.92925262451172 339.4657897949219 61.3807487487793 331.1907043457031 72.01558685302734 333.5576477050781 C 83.57965087890625 332.48138427734375 92.2543716430664 338.38922119140625 100.22373962402344 350.48016357421875" stroke-width="1.0" fill="rgb(72, 157, 155)" opacity="0.9416842"/>
  </g>
</svg>
