<?xml version="1.0" ?>
<svg xmlns="http://www.w3.org/2000/svg" version="1.1" width="600" height="600">
  <defs/>
  <g>
    <path d="M 432.27618408203125 344.29754638671875 C 416.3760070800781 423.40911865234375 397.5407409667969 421.2286682128906 353.8384094238281 426.6150817871094 C 291.06317138671875 391.6091003417969 248.17239379882812 353.1462097167969 271.6230773925781 329.9145812988281 C 303.20135498046875 326.1473083496094 304.701416015625 276.67669677734375 301.1003723144531 178.40463256835938 C 423.9090270996094 193.092041015625 406.9873962402344 237.0890655517578 432.27618408203125 344.29754638671875" stroke-width="0.0" fill="rgb(3, 1, 16)" opacity="0.9845346"/>
    <path d="M 20.957555770874023 0.9736286401748657 C 17.657608032226562 10.038623809814453 9.411567687988281 15.617301940917969 -3.877323627471924 13.999872207641602 C -9.274904251098633 17.92918586730957 -16.666301727294922 10.856512069702148 -19.346263885498047 0.8582151532173157 C -16.666770935058594 -9.141780853271484 -9.346263885498047 -16.46228790283203 0.6537356972694397 -19.141780853271484 C 10.653736114501953 -16.46228790283203 17.9742431640625 -9.141780853271484 20.957555770874023 0.9736286401748657" stroke-width="0.0" fill="rgb(211, 120, 211)" opacity="0.7628285"/>
    <path d="M 444.6487731933594 210.2067413330078 C 408.5206298828125 306.52862548828125 400.9895324707031 323.3215637207031 381.34039306640625 315.9239807128906 C 398.19317626953125 186.64283752441406 469.0946960449219 218.87176513671875 206.93258666992188 164.6679229736328 C 404.5896911621094 209.48675537109375 217.1590576171875 168.9910430908203 325.0665588378906 123.48920440673828 C 465.4520568847656 191.6166229248047 474.2506408691406 229.33583068847656 444.6487731933594 210.2067413330078" stroke-width="0.0" fill="rgb(0, 0, 13)" opacity="0.99953073"/>
    <path d="M 538.4623413085938 264.3013610839844 C 485.5798034667969 342.8406066894531 482.04534912109375 358.74005126953125 449.29693603515625 369.4699401855469 C 401.1493835449219 333.21337890625 398.727783203125 326.3369140625 394.0114440917969 321.1986389160156 C 402.3043212890625 200.0996551513672 380.76556396484375 146.7017822265625 438.47796630859375 189.32241821289062 C 508.3936767578125 231.39173889160156 522.3500366210938 246.4364471435547 538.4623413085938 264.3013610839844" stroke-width="0.0" fill="rgb(0, 6, 24)" opacity="0.97037584"/>
    <path d="M 686.4597778320312 379.7398986816406 C 619.0467529296875 373.8888854980469 611.535400390625 392.72308349609375 491.9694519042969 431.5564270019531 C 438.88916015625 454.3896484375 472.082275390625 434.831787109375 483.87298583984375 265.989501953125 C 429.63897705078125 189.76300048828125 440.39483642578125 192.59573364257812 515.0623779296875 239.52798461914062 C 598.00146484375 296.1268615722656 632.8688354492188 286.4349670410156 686.4597778320312 379.7398986816406" stroke-width="0.0" fill="rgb(0, 0, 7)" opacity="1.0"/>
    <path d="M 476.7371826171875 500.7070007324219 C 534.8778076171875 509.94915771484375 401.32611083984375 511.2021484375 420.2491760253906 513.4598999023438 C 290.71923828125 500.40509033203125 296.3797912597656 496.56195068359375 321.62237548828125 469.6968994140625 C 333.27142333984375 480.638671875 541.9287719726562 495.4676208496094 454.1015930175781 487.40899658203125 C 482.17279052734375 485.32958984375 500.36859130859375 505.4822082519531 476.7371826171875 500.7070007324219" stroke-width="0.0" fill="rgb(115, 121, 139)" opacity="0.07004673"/>
    <path d="M 19.8306827545166 0.5154964327812195 C 15.892573356628418 8.823929786682129 7.270599365234375 14.58666706085205 -2.761969804763794 17.177366256713867 C -9.925651550292969 18.246091842651367 -17.246158599853516 10.92558479309082 -19.92565155029297 0.9255847930908203 C -17.246158599853516 -9.07441520690918 -9.925651550292969 -16.394922256469727 0.07434806227684021 -19.07441520690918 C 10.074348449707031 -16.394922256469727 17.394855499267578 -9.07441520690918 19.8306827545166 0.5154964327812195" stroke-width="0.0" fill="rgb(32, 12, 223)" opacity="0.7445029"/>
    <path d="M 163.16429138183594 389.1578063964844 C 70.14871978759766 494.35028076171875 236.9861297607422 358.8898010253906 260.98687744140625 502.21728515625 C -35.37725830078125 618.0394287109375 23.544139862060547 454.72607421875 23.869665145874023 443.0142517089844 C 64.86493682861328 318.3554382324219 87.46204376220703 306.8681945800781 62.85105895996094 281.0 C 137.8076629638672 363.74542236328125 156.67613220214844 357.4716491699219 163.16429138183594 389.1578063964844" stroke-width="0.0" fill="rgb(128, 165, 204)" opacity="0.35413522"/>
    <path d="M 20.977909088134766 -0.08804597705602646 C 16.50102424621582 7.372482776641846 6.776953220367432 10.755814552307129 -6.0600905418396 10.086395263671875 C -9.330402374267578 17.825103759765625 -16.753660202026367 10.854429244995117 -19.43414306640625 0.8579452037811279 C -16.754650115966797 -9.14203929901123 -9.43414306640625 -16.462547302246094 0.5658566355705261 -19.142040252685547 C 10.56585693359375 -16.462547302246094 17.886363983154297 -9.14203929901123 20.977909088134766 -0.08804597705602646" stroke-width="0.0" fill="rgb(3, 55, 16)" opacity="0.92676234"/>
    <path d="M 338.6679992675781 470.4501647949219 C 307.4078674316406 473.5972900390625 288.25341796875 461.5691223144531 166.43353271484375 454.26904296875 C 208.35855102539062 509.1572570800781 180.3314208984375 493.0259704589844 117.86421966552734 372.81146240234375 C 82.31913757324219 324.8531494140625 116.8602523803711 346.0333557128906 144.8531951904297 366.264404296875 C 198.16598510742188 400.4041442871094 233.30650329589844 388.12640380859375 338.6679992675781 470.4501647949219" stroke-width="0.0" fill="rgb(42, 23, 23)" opacity="0.8073228"/>
    <path d="M 394.744384765625 470.43817138671875 C 295.72344970703125 505.4804382324219 250.9224853515625 559.5228881835938 284.4112548828125 468.1288146972656 C 190.86070251464844 407.4658508300781 149.12449645996094 441.13909912109375 118.66717529296875 383.9207763671875 C 143.52200317382812 333.597412109375 132.18478393554688 321.8204650878906 163.755859375 332.7516784667969 C 249.45802307128906 346.9251708984375 308.1040954589844 329.4560852050781 394.744384765625 470.43817138671875" stroke-width="0.0" fill="rgb(37, 24, 0)" opacity="0.92453605"/>
    <path d="M 343.91314697265625 132.69105529785156 C 214.90541076660156 156.18763732910156 178.34376525878906 109.88832092285156 105.46117401123047 173.99449157714844 C 80.47073364257812 241.69496154785156 52.0457763671875 201.08778381347656 77.91864013671875 147.85682678222656 C 107.22602844238281 97.83973693847656 179.29624938964844 89.7467269897461 199.42308044433594 91.87771606445312 C 171.8883819580078 94.47652435302734 269.8786926269531 72.86326599121094 343.91314697265625 132.69105529785156" stroke-width="0.0" fill="rgb(0, 0, 11)" opacity="1.0"/>
    <path d="M 530.3488159179688 411.08660888671875 C 448.1899719238281 443.5082092285156 462.4085998535156 444.2333068847656 436.0831604003906 455.08746337890625 C 317.460205078125 517.0689697265625 305.79986572265625 507.01507568359375 300.3267517089844 456.6394348144531 C 327.4799499511719 320.0742492675781 328.84808349609375 331.4160461425781 388.4800109863281 340.4537048339844 C 487.5717468261719 332.41485595703125 505.1644592285156 317.6696472167969 530.3488159179688 411.08660888671875" stroke-width="0.0" fill="rgb(0, 0, 5)" opacity="1.0"/>
    <path d="M 177.13624572753906 220.22021484375 C 216.09716796875 327.04986572265625 220.47093200683594 340.9775085449219 104.0871353149414 410.80035400390625 C 65.2212142944336 395.8961181640625 59.1767463684082 398.3545837402344 66.93404388427734 201.2484130859375 C 71.50753784179688 152.05531311035156 96.05421447753906 179.75816345214844 119.76974487304688 139.2496337890625 C 230.5814208984375 139.6826629638672 190.4148712158203 166.48785400390625 177.13624572753906 220.22021484375" stroke-width="0.0" fill="rgb(0, 0, 12)" opacity="1.0"/>
    <path d="M 239.30044555664062 325.35711669921875 C 380.17840576171875 325.01837158203125 329.9277038574219 314.5585632324219 234.5898895263672 403.4263610839844 C 115.43264770507812 354.57745361328125 108.04417419433594 349.2254943847656 72.96231079101562 320.6640930175781 C 77.03311920166016 239.91510009765625 108.85932922363281 251.325439453125 175.11026000976562 183.9696807861328 C 193.3347930908203 229.2122344970703 183.7317352294922 271.5811767578125 239.30044555664062 325.35711669921875" stroke-width="0.0" fill="rgb(0, 0, 18)" opacity="0.99707353"/>
    <path d="M 380.3978576660156 152.93333435058594 C 356.5648498535156 177.95484924316406 335.3587341308594 183.60757446289062 169.87881469726562 192.34164428710938 C 144.8819122314453 190.23243713378906 156.14796447753906 184.98805236816406 129.1418914794922 145.75677490234375 C 184.01927185058594 111.49910736083984 195.5519256591797 96.72405242919922 229.9773406982422 95.26309967041016 C 274.4993896484375 87.46473693847656 348.0730895996094 120.82845306396484 380.3978576660156 152.93333435058594" stroke-width="0.0" fill="rgb(0, 0, 6)" opacity="0.99785185"/>
    <path d="M 370.3415832519531 485.7576904296875 C 254.9496612548828 561.115966796875 229.78164672851562 559.0134887695312 246.0967559814453 568.317138671875 C 159.88751220703125 575.2196044921875 108.21173858642578 588.9424438476562 122.45571899414062 546.068603515625 C 210.99900817871094 526.0650634765625 173.29930114746094 509.47015380859375 236.7645721435547 503.1246337890625 C 205.3866424560547 515.4918212890625 221.78555297851562 498.0860290527344 370.3415832519531 485.7576904296875" stroke-width="0.0" fill="rgb(0, 0, 5)" opacity="1.0"/>
    <path d="M 174.20071411132812 544.6538696289062 C 262.1487731933594 578.712646484375 262.6943359375 575.4996948242188 -13.738183975219727 574.526611328125 C -41.4398193359375 518.4751586914062 59.44609832763672 554.33203125 116.71011352539062 541.3101806640625 C 199.2342987060547 538.812744140625 135.93829345703125 523.8261108398438 307.8168029785156 480.7067565917969 C 321.8786926269531 524.2976684570312 136.92149353027344 509.1706237792969 174.20071411132812 544.6538696289062" stroke-width="0.0" fill="rgb(0, 1, 4)" opacity="0.9984647"/>
    <path d="M 510.40045166015625 389.2183837890625 C 501.0834045410156 392.6543273925781 456.80804443359375 400.8514404296875 332.9178771972656 425.08135986328125 C 324.757568359375 398.42413330078125 316.5323181152344 408.6030578613281 322.7213134765625 142.00933837890625 C 427.03564453125 158.59359741210938 293.3312072753906 386.48333740234375 421.2166442871094 295.9613952636719 C 435.23809814453125 363.9867248535156 541.1985473632812 324.5657653808594 510.40045166015625 389.2183837890625" stroke-width="0.0" fill="rgb(252, 56, 1)" opacity="0.99215126"/>
    <path d="M 300.71551513671875 346.98272705078125 C 367.89068603515625 404.1471252441406 255.69302368164062 359.1662902832031 147.45297241210938 438.7281188964844 C 124.44615936279297 357.799072265625 39.599552154541016 416.7298278808594 57.727352142333984 338.3762512207031 C 67.94331359863281 345.1320495605469 72.0648422241211 347.5257568359375 200.3568115234375 345.083984375 C 205.98385620117188 340.9232482910156 286.4201965332031 349.38885498046875 300.71551513671875 346.98272705078125" stroke-width="0.0" fill="rgb(255, 36, 5)" opacity="1.0"/>
    <path d="M 175.21157836914062 271.341552734375 C 154.36053466796875 297.7457580566406 168.4899139404297 328.84521484375 102.9594497680664 326.11328125 C 115.41020202636719 324.7953186035156 99.36123657226562 310.3084411621094 83.66857147216797 272.1885986328125 C 86.50421905517578 195.3769073486328 79.8044662475586 195.53317260742188 173.6108856201172 183.66818237304688 C 220.25657653808594 198.59889221191406 205.34906005859375 233.50405883789062 175.21157836914062 271.341552734375" stroke-width="0.0" fill="rgb(57, 206, 235)" opacity="0.95780224"/>
    <path d="M 215.97250366210938 324.3978576660156 C 196.0871124267578 328.7924499511719 181.59507751464844 326.4232177734375 129.23931884765625 323.3074035644531 C 117.29859161376953 326.9492492675781 94.00592803955078 335.9351806640625 79.84418487548828 317.06842041015625 C 76.1136703491211 244.98439025878906 107.14303588867188 251.13803100585938 160.58717346191406 213.61541748046875 C 201.7894744873047 233.6086883544922 216.1331024169922 231.46121215820312 215.97250366210938 324.3978576660156" stroke-width="0.0" fill="rgb(39, 221, 242)" opacity="0.9669201"/>
    <path d="M 210.8932342529297 251.8082733154297 C 177.80389404296875 303.98724365234375 157.53375244140625 301.2719421386719 95.22686004638672 307.0845947265625 C 89.85515594482422 259.15667724609375 93.92793273925781 236.5634002685547 132.1268310546875 271.6828918457031 C 86.25786590576172 299.367431640625 83.4284896850586 268.9462890625 97.70303344726562 205.7833251953125 C 143.83145141601562 207.7864990234375 158.60504150390625 217.86810302734375 210.8932342529297 251.8082733154297" stroke-width="0.0" fill="rgb(70, 217, 238)" opacity="0.8429635"/>
    <path d="M 258.0828857421875 236.96836853027344 C 251.90174865722656 354.7209167480469 284.427734375 327.7852478027344 168.74005126953125 326.03143310546875 C 116.88710021972656 335.5655212402344 138.73716735839844 302.6543884277344 125.67998504638672 227.2805938720703 C 119.31036376953125 219.488037109375 105.55548858642578 191.89857482910156 172.9918975830078 203.4015655517578 C 182.29116821289062 212.23880004882812 197.35792541503906 205.3578338623047 258.0828857421875 236.96836853027344" stroke-width="0.0" fill="rgb(65, 203, 253)" opacity="1.0"/>
    <path d="M 336.66387939453125 175.62680053710938 C 360.2291564941406 451.07171630859375 339.3235168457031 420.40966796875 273.28997802734375 450.89703369140625 C 231.7395782470703 450.19610595703125 217.02099609375 438.3365783691406 167.4122772216797 422.5459289550781 C 199.74932861328125 348.4065246582031 237.64144897460938 399.6437683105469 307.4437255859375 372.7094421386719 C 326.26513671875 198.88204956054688 320.26910400390625 121.83236694335938 336.66387939453125 175.62680053710938" stroke-width="0.0" fill="rgb(255, 72, 0)" opacity="1.0"/>
    <path d="M 232.23117065429688 441.8191833496094 C 205.936767578125 467.24578857421875 184.16065979003906 471.67437744140625 139.45849609375 435.45672607421875 C 128.33958435058594 404.8225402832031 89.58905792236328 426.7813720703125 53.19547653198242 375.72467041015625 C 87.78353881835938 401.7215270996094 69.54341125488281 406.23052978515625 118.24063873291016 406.1529541015625 C 140.1392822265625 351.3895263671875 136.00514221191406 359.29205322265625 232.23117065429688 441.8191833496094" stroke-width="0.0" fill="rgb(181, 86, 10)" opacity="0.99368197"/>
    <path d="M 331.2073059082031 182.17263793945312 C 308.3751220703125 114.33714294433594 334.0740661621094 146.08172607421875 114.3671875 146.32969665527344 C 88.55181884765625 150.98513793945312 87.81195831298828 162.75143432617188 100.48567962646484 214.5283203125 C 58.03358459472656 141.5186767578125 147.08164978027344 106.93123626708984 214.51731872558594 108.00981903076172 C 234.33738708496094 103.080322265625 362.87225341796875 123.84259796142578 331.2073059082031 182.17263793945312" stroke-width="0.0" fill="rgb(255, 111, 30)" opacity="1.0"/>
    <path d="M 511.38232421875 253.65817260742188 C 518.4396362304688 349.0823974609375 522.4046020507812 401.43572998046875 481.5759582519531 385.0115661621094 C 460.924072265625 336.17987060546875 448.3019104003906 328.2705078125 453.7618713378906 341.3077087402344 C 485.48834228515625 325.68646240234375 494.6578674316406 280.08477783203125 464.55059814453125 232.9369354248047 C 495.9815673828125 233.51351928710938 450.88250732421875 253.18096923828125 511.38232421875 253.65817260742188" stroke-width="0.0" fill="rgb(242, 70, 0)" opacity="0.9878241"/>
    <path d="M 510.02264404296875 252.35592651367188 C 493.8209533691406 306.0954284667969 508.43731689453125 357.5877685546875 484.7008972167969 398.1557922363281 C 460.6962585449219 364.6809387207031 485.4493408203125 306.1699523925781 482.0727844238281 266.8409423828125 C 462.0320129394531 213.9525909423828 406.7708435058594 254.60113525390625 355.2166748046875 158.64315795898438 C 510.1821594238281 252.85354614257812 498.11077880859375 245.2855224609375 510.02264404296875 252.35592651367188" stroke-width="0.0" fill="rgb(250, 74, 0)" opacity="0.990834"/>
    <path d="M 350.1558837890625 530.6064453125 C 392.1215515136719 543.0654296875 346.3148498535156 532.44970703125 378.7132263183594 543.4489135742188 C 358.3995056152344 547.744384765625 235.29180908203125 541.653076171875 163.50218200683594 536.0750732421875 C 134.95932006835938 517.7291870117188 309.9607238769531 532.8378295898438 347.1927185058594 528.472412109375 C 323.35906982421875 533.6278686523438 376.9520263671875 532.823974609375 350.1558837890625 530.6064453125" stroke-width="0.0" fill="rgb(0, 3, 0)" opacity="0.084570184"/>
    <path d="M 124.3664321899414 394.1973571777344 C 138.71832275390625 416.7572326660156 106.7435302734375 394.60870361328125 49.967620849609375 447.626708984375 C -34.37895584106445 456.4769592285156 -9.02771282196045 336.39013671875 46.708168029785156 341.4796447753906 C 97.70362854003906 377.4215393066406 86.0108871459961 192.42372131347656 89.69076538085938 192.4503173828125 C 95.92808532714844 349.84014892578125 33.164493560791016 364.99859619140625 124.3664321899414 394.1973571777344" stroke-width="0.0" fill="rgb(172, 86, 2)" opacity="1.0"/>
    <path d="M 239.39071655273438 417.6376953125 C 231.40753173828125 449.4254150390625 237.93553161621094 432.54833984375 147.76422119140625 436.07965087890625 C 143.25320434570312 430.4840393066406 152.62548828125 455.7647399902344 146.7207794189453 398.525634765625 C 157.59478759765625 375.3846130371094 141.16941833496094 350.1109619140625 212.7236328125 357.2934265136719 C 241.6397247314453 362.654052734375 240.1013946533203 364.71954345703125 239.39071655273438 417.6376953125" stroke-width="0.0" fill="rgb(162, 95, 16)" opacity="0.9716363"/>
    <path d="M 352.1792907714844 330.5415954589844 C 311.84002685546875 305.38421630859375 333.38153076171875 326.08428955078125 346.1663818359375 311.4299621582031 C 314.59808349609375 304.6683654785156 357.8973693847656 287.1192321777344 339.3766784667969 326.296142578125 C 326.88677978515625 309.87225341796875 325.7167663574219 247.33340454101562 355.42193603515625 179.75181579589844 C 365.024169921875 189.0207061767578 357.2221374511719 264.01141357421875 352.1792907714844 330.5415954589844" stroke-width="0.0" fill="rgb(252, 66, 0)" opacity="0.663074"/>
    <path d="M 202.52320861816406 187.98399353027344 C 192.2908477783203 208.7811279296875 151.52044677734375 227.62823486328125 101.83778381347656 242.59820556640625 C 88.1173095703125 254.8037872314453 83.0295639038086 240.1322479248047 89.19568634033203 180.93838500976562 C 100.41007232666016 156.73287963867188 110.98292541503906 163.0627899169922 122.26296997070312 162.47470092773438 C 131.1178436279297 161.02967834472656 181.58023071289062 165.1746368408203 202.52320861816406 187.98399353027344" stroke-width="0.0" fill="rgb(73, 215, 237)" opacity="0.98045594"/>
    <path d="M 23.363082885742188 -1.776637077331543 C 17.68363380432129 5.937066078186035 7.6173787117004395 9.674520492553711 -8.230950355529785 5.49714994430542 C -9.190239906311035 17.224084854125977 -16.559946060180664 10.09013843536377 -19.240413665771484 0.0934741273522377 C -16.56092071533203 -9.906499862670898 -9.240413665771484 -17.227006912231445 0.7595858573913574 -19.9064998626709 C 10.759586334228516 -17.227006912231445 18.080093383789062 -9.906499862670898 23.363082885742188 -1.776637077331543" stroke-width="0.0" fill="rgb(241, 15, 229)" opacity="0.8500444"/>
    <path d="M 24.311824798583984 18.051177978515625 C 24.008026123046875 34.47896194458008 24.196157455444336 44.271541595458984 27.21800994873047 25.723987579345703 C 13.197614669799805 -1.4504317045211792 0.8481898307800293 -3.5614733695983887 -10.754491806030273 -8.379315376281738 C -17.052045822143555 -9.32632827758789 -9.731538772583008 -16.646835327148438 0.20241650938987732 -19.309011459350586 C 5.655531883239746 -14.030343055725098 7.857197284698486 1.4810187816619873 24.311824798583984 18.051177978515625" stroke-width="0.0" fill="rgb(137, 32, 84)" opacity="0.88801944"/>
    <path d="M 380.2204284667969 177.6653289794922 C 373.2099609375 218.1604461669922 371.0674133300781 286.61865234375 331.1030578613281 291.1742858886719 C 337.3327941894531 217.99317932128906 339.62127685546875 158.5019073486328 334.62176513671875 175.24879455566406 C 332.43896484375 164.46026611328125 335.70367431640625 151.50526428222656 317.3901672363281 132.5570526123047 C 344.8797912597656 151.62059020996094 363.2908020019531 158.5701904296875 380.2204284667969 177.6653289794922" stroke-width="0.0" fill="rgb(255, 45, 0)" opacity="1.0"/>
    <path d="M 539.6905517578125 364.9267272949219 C 550.658935546875 369.8758239746094 542.7809448242188 379.7769470214844 539.3795776367188 391.7380065917969 C 534.2767333984375 379.9620056152344 543.4965209960938 396.759521484375 528.77099609375 256.1095275878906 C 550.1678466796875 276.5282897949219 540.8732299804688 249.4726104736328 539.6943359375 281.7529602050781 C 544.3095092773438 382.9134216308594 545.5473022460938 314.25030517578125 539.6905517578125 364.9267272949219" stroke-width="0.0" fill="rgb(227, 0, 0)" opacity="0.88208723"/>
    <path d="M 378.603515625 401.11370849609375 C 357.3850402832031 401.0097961425781 363.5463562011719 407.72991943359375 321.11834716796875 439.8560485839844 C 327.614501953125 450.446533203125 330.55419921875 421.5209045410156 318.5685119628906 404.856689453125 C 329.59991455078125 354.4676513671875 319.57183837890625 257.5115966796875 358.99993896484375 244.13818359375 C 353.5698547363281 313.3649597167969 353.31201171875 355.2978515625 378.603515625 401.11370849609375" stroke-width="0.0" fill="rgb(255, 50, 0)" opacity="0.9808602"/>
    <path d="M 195.5957489013672 177.820068359375 C 213.50189208984375 234.58578491210938 213.6960906982422 233.10191345214844 132.9109649658203 233.55772399902344 C 126.5816650390625 177.3514404296875 135.67762756347656 190.51834106445312 129.88047790527344 197.32568359375 C 139.0115509033203 198.5399932861328 149.5751953125 201.05133056640625 143.44580078125 195.00604248046875 C 128.11984252929688 178.33837890625 144.2882537841797 174.18002319335938 195.5957489013672 177.820068359375" stroke-width="0.0" fill="rgb(55, 215, 243)" opacity="0.83294076"/>
    <path d="M 581.046875 321.27294921875 C 587.5925903320312 380.4300842285156 580.2738647460938 387.1270446777344 566.0156860351562 374.78533935546875 C 508.6827087402344 382.9022521972656 527.0233764648438 402.2667236328125 534.27685546875 337.49853515625 C 543.2626953125 327.266357421875 597.3541259765625 335.7682189941406 577.5203247070312 350.77349853515625 C 589.6822509765625 319.2510681152344 575.4552612304688 286.1558532714844 581.046875 321.27294921875" stroke-width="0.0" fill="rgb(224, 1, 0)" opacity="0.99600315"/>
    <path d="M 17.40999412536621 -2.3263306617736816 C 15.638806343078613 8.09047794342041 10.350793838500977 20.00234031677246 14.994032859802246 13.688217163085938 C -2.7039942741394043 8.821585655212402 -16.718656539916992 8.321512222290039 -19.947858810424805 0.7246395945549011 C -17.12857437133789 -9.473544120788574 -9.80806827545166 -16.794050216674805 0.16567598283290863 -19.50484275817871 C 6.806825160980225 -13.775903701782227 12.354887008666992 -3.896233558654785 17.40999412536621 -2.3263306617736816" stroke-width="0.0" fill="rgb(195, 71, 241)" opacity="0.91662055"/>
    <path d="M 600.7968139648438 300.5145568847656 C 575.2889404296875 293.2538757324219 590.7611694335938 362.180419921875 579.2125244140625 351.9910583496094 C 584.3425903320312 358.8291931152344 577.7561645507812 308.1341247558594 580.0929565429688 296.02581787109375 C 560.9791259765625 284.9362487792969 517.6528930664062 280.5539245605469 525.6819458007812 242.94422912597656 C 600.3837280273438 283.1152038574219 588.9065551757812 276.0996398925781 600.7968139648438 300.5145568847656" stroke-width="0.0" fill="rgb(223, 0, 7)" opacity="0.9812518"/>
    <path d="M 17.695396423339844 -1.3308274745941162 C 11.521681785583496 6.043309688568115 5.604581832885742 16.403831481933594 10.52445125579834 18.426191329956055 C -5.92122745513916 13.094703674316406 -16.60148811340332 10.009105682373047 -19.607940673828125 0.5315371155738831 C -16.941242218017578 -9.447299003601074 -9.620736122131348 -16.767805099487305 0.3792640268802643 -19.447298049926758 C 10.379263877868652 -16.767805099487305 17.69977378845215 -9.447299003601074 17.695396423339844 -1.3308274745941162" stroke-width="0.0" fill="rgb(108, 44, 91)" opacity="0.7571033"/>
    <path d="M 12.26756763458252 -9.409320831298828 C 7.580624103546143 -0.4781964123249054 1.2393230199813843 8.652544975280762 -5.10480260848999 15.659847259521484 C -9.01042366027832 17.549402236938477 -16.33027458190918 10.22585678100586 -19.009767532348633 0.22585725784301758 C -16.33027458190918 -9.77414321899414 -9.009766578674316 -17.094650268554688 0.9902330040931702 -19.77414321899414 C 10.990233421325684 -17.094650268554688 18.310739517211914 -9.77414321899414 12.26756763458252 -9.409320831298828" stroke-width="0.0" fill="rgb(218, 122, 210)" opacity="0.9747976"/>
    <path d="M 21.329898834228516 -1.24299955368042 C 10.065069198608398 0.10622570663690567 -0.6311914920806885 5.692072868347168 -7.608956336975098 12.882843017578125 C -9.626799583435059 17.938343048095703 -16.94730567932129 10.61783504486084 -19.626798629760742 0.6178352236747742 C -16.94730567932129 -9.38216495513916 -9.626799583435059 -16.70267105102539 0.3751324713230133 -19.383068084716797 C 10.542130470275879 -16.78444480895996 20.654781341552734 -11.255012512207031 21.329898834228516 -1.24299955368042" stroke-width="0.0" fill="rgb(80, 223, 88)" opacity="0.8300142"/>
    <path d="M 388.71246337890625 222.201171875 C 417.5430908203125 275.8015441894531 423.8786315917969 234.738037109375 404.2271728515625 205.93360900878906 C 356.96356201171875 216.2623748779297 349.4037780761719 212.9408416748047 387.1686706542969 208.35630798339844 C 372.33447265625 240.47427368164062 359.52069091796875 221.4524688720703 363.3554382324219 187.28106689453125 C 374.4653015136719 236.10433959960938 384.5151672363281 241.31436157226562 388.71246337890625 222.201171875" stroke-width="0.0" fill="rgb(118, 43, 0)" opacity="0.42319804"/>
    <path d="M 196.58547973632812 257.5661926269531 C 103.86233520507812 267.63543701171875 87.16804504394531 245.3888702392578 135.31187438964844 164.17312622070312 C 158.21438598632812 226.43443298339844 124.82573699951172 234.7693634033203 128.75009155273438 201.71463012695312 C 117.89778900146484 206.2003173828125 107.53408813476562 176.3836212158203 123.08185577392578 192.4588623046875 C 204.1761932373047 206.11370849609375 208.2311553955078 181.18307495117188 196.58547973632812 257.5661926269531" stroke-width="0.0" fill="rgb(67, 208, 241)" opacity="0.39799908"/>
    <path d="M 416.3414611816406 314.4037780761719 C 392.3580627441406 295.8426208496094 386.78851318359375 312.61614990234375 406.5353698730469 324.7807922363281 C 425.9156188964844 307.8962707519531 397.4921569824219 302.7240295410156 394.03436279296875 308.61810302734375 C 389.90118408203125 251.60797119140625 423.9480895996094 244.29359436035156 405.8865051269531 200.19577026367188 C 410.0826416015625 235.6949005126953 420.376953125 264.97003173828125 416.3414611816406 314.4037780761719" stroke-width="0.0" fill="rgb(255, 51, 8)" opacity="0.9551526"/>
    <path d="M 474.32781982421875 238.6801300048828 C 442.9967346191406 245.24635314941406 439.1597900390625 248.8160858154297 427.8556823730469 309.9873352050781 C 387.12945556640625 266.6641845703125 404.7173156738281 224.5662841796875 379.1004943847656 210.36795043945312 C 369.8504638671875 202.90907287597656 385.00567626953125 192.7122802734375 399.8933410644531 197.27859497070312 C 421.6294860839844 198.7117156982422 434.8514709472656 204.18458557128906 474.32781982421875 238.6801300048828" stroke-width="0.0" fill="rgb(255, 66, 0)" opacity="1.0"/>
    <path d="M 5.659877777099609 -6.2220964431762695 C 4.273471355438232 25.145700454711914 14.552247047424316 32.3875617980957 23.536771774291992 22.249984741210938 C -8.753995895385742 19.419862747192383 -7.920152187347412 1.3202412128448486 -15.697056770324707 -4.758913993835449 C -16.71758460998535 -9.12637996673584 -9.397077560424805 -16.44688606262207 0.4197739064693451 -19.071273803710938 C 5.264401435852051 -13.136431694030762 9.70276927947998 -1.2649201154708862 5.659877777099609 -6.2220964431762695" stroke-width="0.0" fill="rgb(237, 175, 156)" opacity="0.3909184"/>
    <path d="M 430.6157531738281 207.86618041992188 C 385.4934997558594 225.35366821289062 352.1108093261719 216.09197998046875 359.5852966308594 249.04360961914062 C 344.6236572265625 247.10963439941406 358.8424987792969 209.7174072265625 363.07159423828125 165.98475646972656 C 341.3269958496094 147.9569091796875 333.9933776855469 185.46881103515625 341.3919677734375 163.66806030273438 C 369.527587890625 166.97702026367188 392.8724060058594 183.03457641601562 430.6157531738281 207.86618041992188" stroke-width="0.0" fill="rgb(255, 39, 0)" opacity="0.96236527"/>
    <path d="M 20.983457565307617 0.4008910357952118 C 19.200504302978516 11.58092975616455 10.689391136169434 14.126798629760742 -6.330372333526611 13.189260482788086 C -9.315958023071289 18.16837501525879 -16.636465072631836 10.847867012023926 -19.31595802307129 0.8478671312332153 C -16.636465072631836 -9.152132987976074 -9.315958023071289 -16.472639083862305 0.6840416193008423 -19.152132034301758 C 10.684041976928711 -16.472639083862305 18.004549026489258 -9.152132987976074 20.983457565307617 0.4008910357952118" stroke-width="0.0" fill="rgb(75, 242, 38)" opacity="0.8294817"/>
    <path d="M 26.30838394165039 -8.51970100402832 C 12.765913009643555 -0.9822885990142822 -3.6496896743774414 1.4530680179595947 -19.912282943725586 2.625772476196289 C -4.822628498077393 11.008617401123047 -16.537012100219727 9.761610984802246 -19.419605255126953 0.4132215678691864 C -16.741363525390625 -9.582422256469727 -9.420857429504395 -16.902929306030273 -0.7480071187019348 -18.662870407104492 C 10.086400985717773 -17.193134307861328 25.445423126220703 -17.32749366760254 26.30838394165039 -8.51970100402832" stroke-width="0.0" fill="rgb(123, 229, 159)" opacity="0.98486763"/>
    <path d="M 17.749496459960938 9.529757499694824 C 24.086666107177734 16.00478172302246 10.667740821838379 13.124502182006836 -7.282583236694336 10.252720832824707 C -9.900165557861328 17.83209800720215 -17.22514533996582 10.528142929077148 -19.904638290405273 0.5281592011451721 C -17.22514533996582 -9.471840858459473 -9.904638290405273 -16.792346954345703 0.06965699046850204 -19.459171295166016 C 8.803330421447754 -16.058618545532227 12.498326301574707 -5.230310440063477 17.749496459960938 9.529757499694824" stroke-width="0.0" fill="rgb(207, 1, 127)" opacity="0.74662036"/>
    <path d="M 284.7365417480469 343.93310546875 C 278.7983703613281 368.94354248046875 271.5788269042969 384.721435546875 307.4732360839844 403.08245849609375 C 314.6522521972656 335.7071533203125 284.25616455078125 362.513427734375 315.4364013671875 358.7528381347656 C 317.8103332519531 346.2408752441406 313.8342590332031 373.66448974609375 317.5844421386719 308.05279541015625 C 306.5662841796875 323.7874450683594 309.25018310546875 330.0395812988281 284.7365417480469 343.93310546875" stroke-width="0.0" fill="rgb(250, 67, 9)" opacity="0.99252546"/>
    <path d="M 427.5831604003906 279.953125 C 432.0873718261719 320.43328857421875 469.7102966308594 355.9525451660156 385.0967712402344 324.3762512207031 C 399.9083557128906 309.4976501464844 393.8252258300781 272.469482421875 396.654296875 268.0391540527344 C 405.69976806640625 308.0006408691406 386.9471130371094 304.0173034667969 382.3143310546875 246.74070739746094 C 418.71875 241.4625701904297 406.1210021972656 268.9598693847656 427.5831604003906 279.953125" stroke-width="0.0" fill="rgb(253, 56, 0)" opacity="1.0"/>
    <path d="M 45.77756118774414 17.37452507019043 C 35.34286117553711 11.322961807250977 23.293371200561523 11.785964965820312 -6.662589073181152 10.619107246398926 C -11.742319107055664 28.70553970336914 -16.3892879486084 14.152698516845703 -19.932655334472656 0.8830538392066956 C -17.132343292236328 -9.238303184509277 -9.811836242675781 -16.55881118774414 58.038848876953125 -19.87664031982422 C 97.63480377197266 -10.057254791259766 84.9664306640625 -7.062625885009766 45.77756118774414 17.37452507019043" stroke-width="0.0" fill="rgb(0, 67, 158)" opacity="1.0"/>
    <path d="M 30.944549560546875 -11.967231750488281 C 25.543827056884766 13.356905937194824 9.900540351867676 16.67514419555664 -10.124385833740234 21.028841018676758 C -6.627915859222412 13.187390327453613 -14.96076774597168 7.898247718811035 -18.654733657836914 -0.5970516204833984 C -16.596200942993164 -9.441149711608887 -9.275694847106934 -16.761655807495117 21.99920082092285 -39.18611526489258 C 32.060020446777344 -39.0923957824707 40.38212585449219 -33.20686340332031 30.944549560546875 -11.967231750488281" stroke-width="0.0" fill="rgb(58, 77, 70)" opacity="0.8401693"/>
    <path d="M 14.84674072265625 -5.733505725860596 C 13.115376472473145 2.5774476528167725 0.921958327293396 3.7577829360961914 -11.486295700073242 4.6871209144592285 C -9.95744800567627 17.531923294067383 -17.277956008911133 10.211417198181152 -19.957448959350586 0.2114170491695404 C -17.277956008911133 -9.788582801818848 -9.95744800567627 -17.10909080505371 0.042887989431619644 -19.78874397277832 C 10.055563926696777 -17.11546516418457 17.269575119018555 -9.75565242767334 14.84674072265625 -5.733505725860596" stroke-width="0.0" fill="rgb(165, 21, 46)" opacity="0.8960695"/>
    <path d="M -25.429780960083008 18.716571807861328 C -6.999276161193848 48.99087905883789 0.6184284687042236 41.156803131103516 16.884140014648438 29.845714569091797 C 9.356168746948242 59.419715881347656 -0.5389543175697327 43.970455169677734 -20.416101455688477 17.818092346191406 C -16.84111213684082 -9.130526542663574 -9.52060604095459 -16.451032638549805 -9.19550609588623 -25.1287841796875 C 1.5850094556808472 -32.16696548461914 15.049630165100098 -28.08511734008789 -25.429780960083008 18.716571807861328" stroke-width="0.0" fill="rgb(231, 68, 203)" opacity="0.7340936"/>
    <path d="M 5.473896026611328 19.89773178100586 C 26.573938369750977 7.267605304718018 13.066593170166016 7.242064476013184 -5.32500696182251 3.4650986194610596 C -9.564724922180176 16.41567039489746 -17.146896362304688 10.48418140411377 -19.828617095947266 0.49980953335762024 C -17.149124145507812 -9.500141143798828 -9.82861614227295 -16.820648193359375 0.07955833524465561 -19.47138786315918 C 7.043295383453369 -15.493398666381836 3.3720903396606445 0.5758124589920044 5.473896026611328 19.89773178100586" stroke-width="0.0" fill="rgb(162, 175, 170)" opacity="0.9068055"/>
    <path d="M 27.14338493347168 19.85776710510254 C 12.757585525512695 19.92220687866211 2.8189475536346436 14.17747974395752 -25.08099937438965 10.192292213439941 C -10.015724182128906 18.14098358154297 -17.168832778930664 10.33258056640625 -19.847583770751953 0.3298400342464447 C -17.1680965423584 -9.670134544372559 -9.847588539123535 -16.990642547607422 -1.0489604473114014 -20.439882278442383 C 2.700822353363037 -13.939929962158203 8.788225173950195 -9.177770614624023 27.14338493347168 19.85776710510254" stroke-width="0.0" fill="rgb(190, 68, 70)" opacity="0.71030664"/>
    <path d="M 388.1059875488281 205.72109985351562 C 355.3268127441406 200.19459533691406 334.67120361328125 294.6208801269531 375.1629333496094 322.3551025390625 C 422.1744384765625 326.0069885253906 398.7438659667969 264.8172607421875 398.5797424316406 240.50479125976562 C 373.7716979980469 271.125732421875 370.8544616699219 247.97239685058594 399.4699401855469 315.37017822265625 C 411.4071044921875 286.1579284667969 423.61395263671875 222.70941162109375 388.1059875488281 205.72109985351562" stroke-width="0.0" fill="rgb(0, 40, 76)" opacity="0.9980785"/>
    <path d="M 284.6495361328125 385.6505432128906 C 286.896240234375 405.7580261230469 252.4684600830078 377.9161682128906 295.6896057128906 386.42999267578125 C 307.3478698730469 407.2475891113281 236.0377655029297 414.1651306152344 242.00453186035156 399.9844665527344 C 241.833984375 384.0180969238281 240.92379760742188 369.08929443359375 241.24658203125 359.4250793457031 C 278.55963134765625 352.4554748535156 288.9447937011719 353.26861572265625 284.6495361328125 385.6505432128906" stroke-width="0.0" fill="rgb(255, 67, 14)" opacity="0.8984447"/>
    <path d="M 144.10458374023438 396.5328369140625 C 146.68507385253906 393.5569152832031 124.77570343017578 386.2991638183594 138.5606231689453 392.937744140625 C 131.87828063964844 385.7156677246094 124.0765609741211 364.7756042480469 125.55459594726562 367.35076904296875 C 138.50225830078125 396.910400390625 145.80918884277344 396.8852844238281 139.72836303710938 407.2510986328125 C 134.04261779785156 349.14227294921875 148.81272888183594 356.3994445800781 144.10458374023438 396.5328369140625" stroke-width="0.0" fill="rgb(238, 73, 4)" opacity="0.08589869"/>
    <path d="M 332.3316955566406 460.1470947265625 C 334.4134216308594 463.9841003417969 312.3807373046875 454.0327453613281 322.1339111328125 460.562744140625 C 350.2579650878906 430.98583984375 344.2982482910156 420.385009765625 307.17108154296875 436.01300048828125 C 312.5528869628906 454.3354797363281 328.2301025390625 461.0637512207031 333.1241760253906 453.4596862792969 C 335.0826721191406 461.7773742675781 324.57659912109375 463.75439453125 332.3316955566406 460.1470947265625" stroke-width="0.0" fill="rgb(16, 21, 52)" opacity="0.88376456"/>
    <path d="M 0.3226761519908905 -11.666379928588867 C -2.4624335765838623 2.708811044692993 2.266080379486084 21.08038902282715 -5.9383745193481445 41.990116119384766 C -22.467449188232422 31.211278915405273 -23.242673873901367 17.335046768188477 -20.190492630004883 1.2846144437789917 C -16.914480209350586 -9.43499755859375 -9.593972206115723 -16.755504608154297 0.40470919013023376 -19.43474006652832 C 10.312248229980469 -16.74175453186035 17.802995681762695 -9.78608226776123 0.3226761519908905 -11.666379928588867" stroke-width="0.0" fill="rgb(3, 184, 107)" opacity="0.75925756"/>
    <path d="M 140.18954467773438 372.2642822265625 C 152.10105895996094 408.0489501953125 126.76585388183594 405.4561462402344 135.11537170410156 417.6756896972656 C 100.53036499023438 421.996826171875 94.93403625488281 399.5693054199219 104.438720703125 361.7803955078125 C 149.8152313232422 379.30584716796875 146.5197296142578 392.7201843261719 136.521484375 367.08770751953125 C 135.29624938964844 360.5027160644531 144.81460571289062 370.0226745605469 140.18954467773438 372.2642822265625" stroke-width="0.0" fill="rgb(250, 57, 1)" opacity="0.37729472"/>
    <path d="M 278.3054504394531 229.0025634765625 C 279.760986328125 214.2071990966797 264.5391540527344 214.03453063964844 263.26025390625 202.99041748046875 C 261.8477478027344 236.81431579589844 242.39996337890625 230.7045440673828 235.5487518310547 202.12667846679688 C 255.35789489746094 169.47262573242188 297.08026123046875 160.92185974121094 300.87811279296875 196.61630249023438 C 290.8796691894531 233.3500518798828 276.33642578125 218.28421020507812 278.3054504394531 229.0025634765625" stroke-width="0.0" fill="rgb(173, 211, 208)" opacity="0.51501346"/>
    <path d="M 10.249008178710938 3.5755817890167236 C 7.150536060333252 0.07049879431724548 -11.010298728942871 4.579733371734619 -13.272924423217773 19.40953254699707 C -11.074591636657715 16.513978958129883 -20.524417877197266 14.094807624816895 -19.712238311767578 0.9169340133666992 C -16.9406681060791 -9.166637420654297 -9.620160102844238 -16.487144470214844 -3.1766347885131836 -21.376953125 C 3.4903979301452637 -20.44891357421875 6.616954326629639 -9.665688514709473 10.249008178710938 3.5755817890167236" stroke-width="0.0" fill="rgb(113, 29, 188)" opacity="0.9273477"/>
    <path d="M 136.00576782226562 351.1388244628906 C 102.66485595703125 380.8517150878906 132.53758239746094 414.62921142578125 133.58175659179688 385.1706848144531 C 120.26143646240234 357.3993835449219 136.16648864746094 379.3804626464844 112.82077026367188 370.3750915527344 C 115.53008270263672 398.2160949707031 95.07072448730469 366.0517578125 103.90711975097656 390.2289123535156 C 132.6678466796875 421.5997009277344 163.96543884277344 394.54815673828125 136.00576782226562 351.1388244628906" stroke-width="0.0" fill="rgb(222, 47, 0)" opacity="0.6643865"/>
    <path d="M 18.737916946411133 -15.399614334106445 C -1.31233811378479 -7.933750152587891 -8.698847770690918 -0.4964630603790283 -15.109333038330078 15.034390449523926 C -14.047922134399414 43.151939392089844 -24.843982696533203 26.06119155883789 -21.208911895751953 4.064894199371338 C -16.821205139160156 -9.345392227172852 -9.50069808959961 -16.6658992767334 -0.21149665117263794 -18.758520126342773 C 9.41781997680664 -16.33294677734375 17.676185607910156 -9.529919624328613 18.737916946411133 -15.399614334106445" stroke-width="0.0" fill="rgb(118, 56, 130)" opacity="0.8420966"/>
    <path d="M 200.0265655517578 188.13442993164062 C 195.60293579101562 222.13291931152344 193.05996704101562 250.77365112304688 250.39422607421875 210.7696075439453 C 266.0443115234375 167.2856903076172 221.35557556152344 156.10870361328125 167.1541748046875 171.7533416748047 C 224.25462341308594 257.7358093261719 296.4884338378906 277.68316650390625 286.6692199707031 182.72633361816406 C 182.5060577392578 165.9427947998047 212.71388244628906 191.70790100097656 200.0265655517578 188.13442993164062" stroke-width="0.0" fill="rgb(56, 209, 246)" opacity="0.9666722"/>
    <path d="M 30.730451583862305 5.579780578613281 C 24.64681053161621 16.848621368408203 14.919493675231934 20.521255493164062 0.2517886459827423 18.75908088684082 C -8.936878204345703 17.586111068725586 -16.449186325073242 10.87646198272705 -19.131868362426758 0.887479305267334 C -16.452390670776367 -9.112445831298828 -9.131882667541504 -16.432952880859375 0.8686830401420593 -19.112661361694336 C 10.912676811218262 -16.45049285888672 19.154878616333008 -9.542707443237305 30.730451583862305 5.579780578613281" stroke-width="0.0" fill="rgb(37, 47, 52)" opacity="0.7680781"/>
    <path d="M 273.15216064453125 234.82015991210938 C 224.044921875 222.69778442382812 283.440673828125 199.1510009765625 296.7646484375 231.7635498046875 C 227.4237518310547 238.94813537597656 227.93824768066406 231.00331115722656 235.59042358398438 165.46836853027344 C 282.6975402832031 154.8386688232422 310.16253662109375 147.3361053466797 306.548583984375 174.38400268554688 C 297.6523132324219 236.00689697265625 314.5168151855469 248.95684814453125 273.15216064453125 234.82015991210938" stroke-width="0.0" fill="rgb(27, 221, 245)" opacity="0.9890178"/>
    <path d="M 2.773063898086548 -0.983741819858551 C 25.81967544555664 10.960962295532227 19.287343978881836 25.4388484954834 13.030550003051758 27.362518310546875 C -42.4235954284668 30.256807327270508 -32.82145690917969 31.199687957763672 -19.29246711730957 1.9251725673675537 C -16.9875431060791 -9.042980194091797 -9.667036056518555 -16.363487243652344 -21.672630310058594 3.956385850906372 C -10.767914772033691 14.938800811767578 -14.558833122253418 24.082136154174805 2.773063898086548 -0.983741819858551" stroke-width="0.0" fill="rgb(195, 36, 231)" opacity="0.9353316"/>
    <path d="M 207.4841766357422 239.72393798828125 C 214.18211364746094 192.63214111328125 196.4450225830078 176.22935485839844 203.1095733642578 170.0930938720703 C 185.9505157470703 167.195068359375 162.42117309570312 150.70510864257812 177.90914916992188 195.65194702148438 C 203.75808715820312 212.00250244140625 182.4220733642578 192.75701904296875 174.33843994140625 188.34832763671875 C 176.6359100341797 231.5507049560547 160.09909057617188 244.23854064941406 207.4841766357422 239.72393798828125" stroke-width="0.0" fill="rgb(62, 214, 254)" opacity="0.25421095"/>
    <path d="M 578.6603393554688 338.2235107421875 C 583.0089111328125 381.0072021484375 574.0504760742188 381.3741149902344 577.9713745117188 369.0728759765625 C 629.2697143554688 370.4488220214844 623.72412109375 348.2090148925781 634.2354125976562 350.1963195800781 C 607.3536376953125 390.5555725097656 611.712158203125 380.7743225097656 648.7598266601562 333.2358703613281 C 645.2733154296875 333.90106201171875 644.9288940429688 343.4411315917969 578.6603393554688 338.2235107421875" stroke-width="0.0" fill="rgb(224, 0, 3)" opacity="0.90326667"/>
    <path d="M 58.82688522338867 36.32573318481445 C 67.50907135009766 63.55757141113281 66.0169448852539 50.769256591796875 50.494930267333984 20.102872848510742 C -11.936653137207031 16.772090911865234 -28.304014205932617 18.52459144592285 -31.741836547851562 12.602093696594238 C -17.308656692504883 -9.470582008361816 -9.98814868927002 -16.79109001159668 15.295963287353516 -36.743465423583984 C 24.69015884399414 -32.39552688598633 40.40353775024414 -32.3758430480957 58.82688522338867 36.32573318481445" stroke-width="0.0" fill="rgb(255, 255, 243)" opacity="0.012571843"/>
    <path d="M -2.050973892211914 -20.219385147094727 C -3.9024085998535156 -8.937170028686523 -8.93186092376709 0.7065616250038147 -17.09490966796875 3.604405403137207 C -9.198498725891113 16.128292083740234 -17.304950714111328 10.936297416687012 -19.98466682434082 0.9371597766876221 C -17.305173873901367 -9.062840461730957 -9.984665870666504 -16.383346557617188 0.015140235424041748 -19.062793731689453 C 9.850820541381836 -16.337556838989258 11.017857551574707 -4.68523645401001 -2.050973892211914 -20.219385147094727" stroke-width="0.0" fill="rgb(50, 72, 40)" opacity="0.8817095"/>
    <path d="M 310.1947021484375 433.51568603515625 C 353.9122314453125 449.26861572265625 339.5901184082031 472.2015380859375 353.2080993652344 426.99658203125 C 326.3035888671875 430.6549987792969 301.78887939453125 421.3346252441406 295.92889404296875 425.72381591796875 C 271.26513671875 478.5538635253906 279.4598693847656 476.7926330566406 358.38616943359375 465.5494079589844 C 360.5227966308594 391.9437561035156 346.14617919921875 416.9616394042969 310.1947021484375 433.51568603515625" stroke-width="0.0" fill="rgb(32, 20, 4)" opacity="0.98268354"/>
    <path d="M 3.063401222229004 -17.42451286315918 C 1.3385803699493408 -6.481663227081299 -5.799619197845459 1.0557491779327393 -15.547432899475098 4.106729030609131 C -9.314592361450195 17.575801849365234 -16.63566017150879 10.257317543029785 -19.315153121948242 0.25732675194740295 C -16.63566017150879 -9.74267292022705 -9.315153121948242 -17.063180923461914 0.6848354339599609 -19.742673873901367 C 10.680480003356934 -17.061983108520508 17.452190399169922 -9.577489852905273 3.063401222229004 -17.42451286315918" stroke-width="0.0" fill="rgb(85, 22, 254)" opacity="0.8796004"/>
    <path d="M 0.03364088758826256 -18.640174865722656 C 3.1522088050842285 -5.328280925750732 -4.008488655090332 1.6188021898269653 -17.059457778930664 3.3986291885375977 C -9.452722549438477 17.945016860961914 -16.778236389160156 10.641318321228027 -19.457862854003906 0.6418067216873169 C -16.778369903564453 -9.358190536499023 -9.457862854003906 -16.67869758605957 0.5421366691589355 -19.358190536499023 C 10.542062759399414 -16.678682327270508 17.856380462646484 -9.356430053710938 0.03364088758826256 -18.640174865722656" stroke-width="0.0" fill="rgb(165, 71, 33)" opacity="0.89108986"/>
    <path d="M -3.979215383529663 19.863317489624023 C 21.1679630279541 23.412221908569336 20.188573837280273 6.8149261474609375 21.044597625732422 24.810016632080078 C -8.206974983215332 44.7298469543457 -20.992055892944336 40.30337905883789 -8.153549194335938 35.20536422729492 C -16.358428955078125 -9.882683753967285 -9.037922859191895 -17.20319175720215 -4.507752895355225 -30.136320114135742 C -0.5371875166893005 -35.77429962158203 0.5691304206848145 -26.208829879760742 -3.979215383529663 19.863317489624023" stroke-width="0.0" fill="rgb(111, 0, 4)" opacity="0.85452557"/>
    <path d="M 26.512086868286133 -9.207744598388672 C 19.17903709411621 10.318585395812988 13.347352027893066 24.765621185302734 4.928192138671875 16.538354873657227 C -8.313297271728516 15.551953315734863 -16.04109001159668 6.781479835510254 -20.189830780029297 0.3123689591884613 C -17.26177406311035 -9.96617603302002 -9.941267967224121 -17.286684036254883 0.0709100142121315 -19.98054313659668 C 10.721566200256348 -17.970224380493164 24.28658103942871 -15.708291053771973 26.512086868286133 -9.207744598388672" stroke-width="0.0" fill="rgb(173, 49, 49)" opacity="0.83147395"/>
    <path d="M 8.029121398925781 -14.750044822692871 C -0.5364183783531189 -9.316744804382324 -9.486913681030273 -2.173342704772949 -20.143413543701172 -0.5032579898834229 C -9.333266258239746 17.937114715576172 -16.653751373291016 10.6165189743042 -19.33324432373047 0.6165193319320679 C -16.653751373291016 -9.3834810256958 -9.333245277404785 -16.70398712158203 0.6667636632919312 -19.383480072021484 C 10.668569564819336 -16.70449447631836 18.135663986206055 -9.42708683013916 8.029121398925781 -14.750044822692871" stroke-width="0.0" fill="rgb(116, 246, 75)" opacity="0.8256184"/>
    <path d="M 273.6325378417969 478.4898681640625 C 284.16094970703125 485.8338317871094 300.5970458984375 516.087890625 322.2157897949219 501.4356384277344 C 303.64764404296875 453.9617919921875 319.7087707519531 444.0248107910156 262.41748046875 458.62530517578125 C 251.1313934326172 497.2590026855469 256.2588806152344 503.60186767578125 270.3614807128906 484.66693115234375 C 291.0417175292969 479.4835205078125 281.1040954589844 475.70013427734375 273.6325378417969 478.4898681640625" stroke-width="0.0" fill="rgb(0, 0, 3)" opacity="0.6092287"/>
    <path d="M 31.170677185058594 -2.33225417137146 C 35.63822937011719 20.417505264282227 28.356412887573242 32.35789489746094 9.903603553771973 43.864253997802734 C -30.793880462646484 50.79096984863281 -27.95354461669922 61.8456916809082 -25.9345760345459 48.068843841552734 C -16.320934295654297 -9.521079063415527 -9.000428199768066 -16.84158706665039 1.4047837257385254 -21.055971145629883 C 14.028851509094238 -22.464860916137695 12.419065475463867 -3.1515004634857178 31.170677185058594 -2.33225417137146" stroke-width="0.0" fill="rgb(160, 145, 150)" opacity="0.6842902"/>
    <path d="M 6.032845973968506 -8.10314655303955 C 5.532473087310791 -4.6279072761535645 -9.687952995300293 -0.25185540318489075 -24.15846824645996 0.4842582941055298 C -9.516976356506348 17.808923721313477 -16.837303161621094 10.487861633300781 -19.516796112060547 0.48785439133644104 C -16.837303161621094 -9.51214599609375 -9.516796112060547 -16.832653045654297 -0.2801964581012726 -19.206756591796875 C 4.550372123718262 -12.224507331848145 17.959285736083984 -9.051584243774414 6.032845973968506 -8.10314655303955" stroke-width="0.0" fill="rgb(0, 112, 211)" opacity="0.78094065"/>
    <path d="M 228.40029907226562 324.73712158203125 C 293.3040466308594 330.9496765136719 302.71087646484375 336.7820129394531 304.7903747558594 219.6754913330078 C 235.30050659179688 182.67454528808594 209.44903564453125 194.3390655517578 193.46810913085938 181.73141479492188 C 191.92080688476562 198.0050048828125 189.4630584716797 191.6348419189453 192.9273223876953 204.22247314453125 C 204.73406982421875 183.7900390625 187.70156860351562 257.56280517578125 228.40029907226562 324.73712158203125" stroke-width="0.0" fill="rgb(39, 216, 254)" opacity="0.48674563"/>
    <path d="M 16.570680618286133 -7.748744010925293 C -1.0892316102981567 -11.368612289428711 -6.92844295501709 1.6704264879226685 -10.19273567199707 16.06510353088379 C -2.5256733894348145 10.416221618652344 -13.020735740661621 5.086745262145996 -19.620256423950195 0.2438317835330963 C -17.077913284301758 -9.395598411560059 -9.757407188415527 -16.716106414794922 1.1055665016174316 -19.693998336791992 C 14.413322448730469 -20.488821029663086 21.0147705078125 -12.685065269470215 16.570680618286133 -7.748744010925293" stroke-width="0.0" fill="rgb(46, 101, 113)" opacity="0.82797194"/>
    <path d="M 16.490827560424805 11.543508529663086 C 25.80556869506836 31.100313186645508 15.671623229980469 38.09153366088867 6.361971855163574 32.25129699707031 C -6.802497386932373 13.17430591583252 -16.855243682861328 9.844573974609375 -19.33926010131836 1.5894168615341187 C -17.11599349975586 -9.08487319946289 -9.795486450195312 -16.405380249023438 7.680932998657227 -27.184465408325195 C 19.057292938232422 -24.858667373657227 7.94342565536499 -0.49077337980270386 16.490827560424805 11.543508529663086" stroke-width="0.0" fill="rgb(69, 166, 97)" opacity="0.671049"/>
    <path d="M 20.66736602783203 -15.794159889221191 C 21.91533851623535 11.259552001953125 13.520807266235352 22.15943717956543 11.301154136657715 19.974536895751953 C -7.843193054199219 17.18368148803711 -14.088492393493652 7.431574821472168 -16.32818603515625 -2.7423882484436035 C -16.49891471862793 -9.033492088317871 -9.178407669067383 -16.3539981842041 7.645521640777588 -25.651758193969727 C 19.6210880279541 -24.77644157409668 28.487112045288086 -19.520544052124023 20.66736602783203 -15.794159889221191" stroke-width="0.0" fill="rgb(82, 142, 89)" opacity="0.70691156"/>
    <path d="M 341.0522155761719 486.2610168457031 C 330.916015625 459.98095703125 339.33154296875 458.75872802734375 358.6772766113281 490.0932312011719 C 355.5932922363281 471.543212890625 298.09027099609375 476.8276062011719 317.1099548339844 458.7748718261719 C 323.95684814453125 451.07672119140625 310.73016357421875 477.53955078125 298.5717468261719 458.24896240234375 C 356.5259094238281 455.94158935546875 358.9183654785156 450.055908203125 341.0522155761719 486.2610168457031" stroke-width="0.0" fill="rgb(0, 0, 1)" opacity="0.67992735"/>
    <path d="M 126.13948059082031 524.2952880859375 C 130.0346221923828 522.5179443359375 125.6410140991211 527.1690063476562 128.857177734375 537.953857421875 C 144.11778259277344 525.3782348632812 138.7391357421875 526.427734375 124.92591857910156 530.8284912109375 C 131.90969848632812 527.6234130859375 142.92269897460938 525.1453857421875 126.59942626953125 522.9171752929688 C 119.04613494873047 514.5582885742188 139.29391479492188 529.8244018554688 126.13948059082031 524.2952880859375" stroke-width="0.0" fill="rgb(25, 88, 14)" opacity="0.15959644"/>
    <path d="M 1.885115623474121 -17.379966735839844 C 1.057791829109192 -6.067508697509766 -6.1934709548950195 0.7224295735359192 -17.285846710205078 0.9054083228111267 C -9.358328819274902 17.81118392944336 -16.67881202697754 10.490596771240234 -19.358304977416992 0.49059557914733887 C -16.67881202697754 -9.509404182434082 -9.358305931091309 -16.829912185668945 0.6416831016540527 -19.5094051361084 C 10.638337135314941 -16.8289794921875 17.489927291870117 -9.370356559753418 1.885115623474121 -17.379966735839844" stroke-width="0.0" fill="rgb(152, 15, 153)" opacity="0.74361575"/>
    <path d="M -9.984636306762695 8.718810081481934 C 21.462621688842773 13.832423210144043 24.479440689086914 36.611698150634766 13.722649574279785 66.69148254394531 C -30.099035263061523 38.185142517089844 -45.797882080078125 38.21768569946289 -49.40557098388672 26.888975143432617 C -17.152273178100586 -9.205024719238281 -9.831766128540039 -16.525531768798828 -6.46746301651001 -15.64309310913086 C 0.5662809610366821 -19.172449111938477 1.6604512929916382 -12.865249633789062 -9.984636306762695 8.718810081481934" stroke-width="0.0" fill="rgb(12, 14, 64)" opacity="0.93867314"/>
    <path d="M 273.69219970703125 485.5721740722656 C 274.9367980957031 486.9198303222656 301.13604736328125 505.03387451171875 311.51092529296875 488.84161376953125 C 326.8873291015625 436.5408630371094 304.31298828125 427.0185241699219 286.77459716796875 457.33154296875 C 313.3220520019531 459.355224609375 282.9206237792969 444.2467346191406 282.7039794921875 446.2742004394531 C 264.7290954589844 467.86578369140625 261.26983642578125 477.5489196777344 273.69219970703125 485.5721740722656" stroke-width="0.0" fill="rgb(17, 6, 11)" opacity="0.3553047"/>
    <path d="M 8.273036003112793 23.508289337158203 C 12.175386428833008 17.69236183166504 1.8827104568481445 17.017292022705078 -13.558711051940918 8.793081283569336 C -3.796651840209961 11.970701217651367 -16.23130226135254 8.884256362915039 -19.7227725982666 0.9684766530990601 C -17.045766830444336 -9.022521018981934 -9.725258827209473 -16.343027114868164 -0.7786350846290588 -20.71656608581543 C 3.6339354515075684 -14.740753173828125 -3.2277610301971436 6.587231636047363 8.273036003112793 23.508289337158203" stroke-width="0.0" fill="rgb(76, 189, 216)" opacity="0.6199554"/>
    <path d="M 2.3566982746124268 6.560770034790039 C 8.000279426574707 28.780582427978516 14.799022674560547 26.74072265625 4.319918632507324 8.536046028137207 C 12.543581008911133 -10.042508125305176 0.4648451507091522 -18.05242347717285 -8.563237190246582 -14.874802589416504 C -16.7684268951416 -9.224486351013184 -9.447920799255371 -16.544992446899414 4.295792579650879 -23.932403564453125 C 9.37533187866211 -19.483572006225586 14.814547538757324 -10.99503231048584 2.3566982746124268 6.560770034790039" stroke-width="0.0" fill="rgb(25, 39, 204)" opacity="0.90051204"/>
    <path d="M 7.1949639320373535 -14.949018478393555 C 2.3190131187438965 -4.052711009979248 -3.083723306655884 5.3728346824646 -13.413982391357422 17.36306381225586 C -9.003381729125977 18.59307861328125 -15.348231315612793 10.339676856994629 -19.111106872558594 0.9069404006004333 C -16.47381019592285 -9.054811477661133 -9.153302192687988 -16.37531852722168 0.8465813994407654 -19.05478286743164 C 10.832525253295898 -16.371150970458984 17.573400497436523 -8.866175651550293 7.1949639320373535 -14.949018478393555" stroke-width="0.0" fill="rgb(185, 119, 165)" opacity="0.48421875"/>
    <path d="M 32.66657257080078 -6.100458145141602 C 15.240606307983398 -4.310267448425293 -3.0174765586853027 3.4040112495422363 -6.616312503814697 16.489381790161133 C -3.0865070819854736 10.232593536376953 -16.44731903076172 9.100000381469727 -19.617631912231445 0.5275008678436279 C -16.93984603881836 -9.466349601745605 -9.619338035583496 -16.78685760498047 7.911327362060547 -27.082059860229492 C 19.235713958740234 -25.20895767211914 27.069538116455078 -18.91838836669922 32.66657257080078 -6.100458145141602" stroke-width="0.0" fill="rgb(121, 195, 163)" opacity="0.9601074"/>
    <path d="M 4.076019763946533 -22.864055633544922 C 1.7997123003005981 -5.011008262634277 -6.8284502029418945 0.751081645488739 -17.376970291137695 12.545648574829102 C -16.02582550048828 23.638452529907227 -22.779193878173828 17.04304313659668 -20.435745239257812 2.558161497116089 C -16.96124839782715 -9.738438606262207 -9.640740394592285 -17.058944702148438 0.3707049787044525 -19.741594314575195 C 13.045438766479492 -18.15910530090332 25.819921493530273 -17.379247665405273 4.076019763946533 -22.864055633544922" stroke-width="0.0" fill="rgb(59, 175, 39)" opacity="0.8504737"/>
    <path d="M 11.058782577514648 -5.619464874267578 C 7.248993396759033 11.567398071289062 -6.4960784912109375 19.975421905517578 1.7978835105895996 -0.02955480106174946 C -5.574407577514648 8.357401847839355 -11.053365707397461 3.2488458156585693 -16.94864273071289 -5.379145622253418 C -17.303363800048828 -9.186842918395996 -9.982857704162598 -16.507349014282227 0.005877410061657429 -19.18179702758789 C 9.80447769165039 -16.301610946655273 19.4122257232666 -5.854471683502197 11.058782577514648 -5.619464874267578" stroke-width="0.0" fill="rgb(205, 22, 240)" opacity="0.7231778"/>
    <path d="M 24.604143142700195 -0.4268932640552521 C 30.682889938354492 29.235830307006836 22.713085174560547 42.45659637451172 12.846146583557129 26.561813354492188 C -2.2705705165863037 11.87771224975586 -12.695642471313477 5.357498645782471 -19.38455581665039 0.4218462109565735 C -16.8865966796875 -9.21562385559082 -9.56609058380127 -16.536130905151367 1.7423560619354248 -20.04266929626465 C 14.329763412475586 -20.322425842285156 24.617130279541016 -14.92643928527832 24.604143142700195 -0.4268932640552521" stroke-width="0.0" fill="rgb(0, 183, 206)" opacity="1.0"/>
    <path d="M 22.02944564819336 -9.704540252685547 C -0.5613688230514526 -8.209833145141602 -8.507760047912598 -4.441272735595703 -13.369140625 9.055405616760254 C -9.152563095092773 16.79396629333496 -16.803226470947266 10.481487274169922 -19.487165451049805 0.4972051978111267 C -16.807689666748047 -9.50272274017334 -9.487183570861816 -16.82322883605957 2.4661848545074463 -22.240619659423828 C 19.949848175048828 -26.9821720123291 25.034791946411133 -16.961406707763672 22.02944564819336 -9.704540252685547" stroke-width="0.0" fill="rgb(255, 132, 129)" opacity="1.0"/>
    <path d="M 0.3291897773742676 -19.263431549072266 C -2.1684446334838867 -8.813228607177734 -8.07003402709961 0.5904969573020935 -16.50594139099121 4.6162519454956055 C -4.816417217254639 11.492595672607422 -17.172338485717773 10.803077697753906 -19.901351928710938 0.9811568260192871 C -17.221899032592773 -9.018681526184082 -9.901391983032227 -16.339187622070312 0.09809796512126923 -19.018545150756836 C 9.900877952575684 -16.283023834228516 11.832695007324219 -5.528561592102051 0.3291897773742676 -19.263431549072266" stroke-width="0.0" fill="rgb(200, 108, 194)" opacity="0.68229103"/>
    <path d="M 46.20615768432617 21.051353454589844 C 41.65678024291992 26.193323135375977 12.704570770263672 31.518535614013672 -15.756174087524414 20.620899200439453 C -9.389572143554688 18.285396575927734 -16.652925491333008 10.766603469848633 -19.331785202026367 0.7643473744392395 C -16.652292251586914 -9.235661506652832 -9.33178424835205 -16.556167602539062 5.810070514678955 -24.09104347229004 C 6.953945159912109 -14.509907722473145 9.543706893920898 1.0179849863052368 46.20615768432617 21.051353454589844" stroke-width="0.0" fill="rgb(15, 146, 132)" opacity="0.87224585"/>
    <path d="M 14.568031311035156 -5.8319878578186035 C 10.121079444885254 1.2783619165420532 1.4440571069717407 6.852618217468262 -6.450684547424316 12.017623901367188 C -9.524499893188477 17.367069244384766 -16.845006942749023 10.046562194824219 -19.524499893188477 0.04656197130680084 C -16.845006942749023 -9.953437805175781 -9.524499893188477 -17.273944854736328 0.47550028562545776 -19.95343780517578 C 10.475500106811523 -17.273944854736328 17.795948028564453 -9.953423500061035 14.568031311035156 -5.8319878578186035" stroke-width="0.0" fill="rgb(83, 148, 95)" opacity="0.8661173"/>
    <path d="M 24.505937576293945 -12.399779319763184 C 27.618810653686523 17.826492309570312 34.45590591430664 42.944862365722656 12.017467498779297 30.963031768798828 C -31.364639282226562 31.359052658081055 -16.737747192382812 8.72884464263916 -9.114117622375488 -12.251959800720215 C -16.851016998291016 -9.160268783569336 -9.530509948730469 -16.480775833129883 -2.784191370010376 -19.853662490844727 C 10.039654731750488 -20.33176040649414 16.23585319519043 -14.450004577636719 24.505937576293945 -12.399779319763184" stroke-width="0.0" fill="rgb(0, 17, 174)" opacity="1.0"/>
    <path d="M 70.04248809814453 13.016657829284668 C 23.143634796142578 19.93427848815918 12.049907684326172 22.11344337463379 4.38981819152832 10.692023277282715 C -15.954936027526855 14.327425956726074 -20.91428565979004 11.994216918945312 -21.164508819580078 0.7361755967140198 C -17.151241302490234 -9.279685974121094 -9.830734252929688 -16.60019302368164 20.701858520507812 -29.659107208251953 C 50.598426818847656 -58.172325134277344 68.06515502929688 -52.451236724853516 70.04248809814453 13.016657829284668" stroke-width="0.0" fill="rgb(10, 0, 255)" opacity="1.0"/>
    <path d="M 2.54506778717041 -15.906761169433594 C -0.1085958182811737 -5.831743240356445 -6.50667142868042 5.388247966766357 -10.026256561279297 15.965373039245605 C -9.557741165161133 18.057254791259766 -16.9078426361084 10.841545104980469 -19.587608337402344 0.8425415754318237 C -16.90811538696289 -9.157455444335938 -9.587607383728027 -16.477962493896484 0.41204074025154114 -19.157358169555664 C 10.363428115844727 -16.463638305664062 16.006114959716797 -8.502291679382324 2.54506778717041 -15.906761169433594" stroke-width="0.0" fill="rgb(85, 223, 74)" opacity="0.9109715"/>
    <path d="M 263.66143798828125 493.74200439453125 C 272.8979187011719 495.07489013671875 301.868896484375 509.2510986328125 318.7944641113281 480.4920959472656 C 336.071533203125 421.8177795410156 296.62249755859375 435.8601989746094 254.78797912597656 451.97772216796875 C 253.0187530517578 477.56610107421875 263.17926025390625 480.977783203125 274.21759033203125 456.6745910644531 C 266.73681640625 468.54705810546875 255.64065551757812 459.2275390625 263.66143798828125 493.74200439453125" stroke-width="0.0" fill="rgb(14, 10, 17)" opacity="0.99309313"/>
    <path d="M 35.17618179321289 9.874624252319336 C 4.853798866271973 -6.625609874725342 20.611186981201172 7.660519599914551 -3.9892001152038574 2.5223963260650635 C 2.6810243129730225 16.466936111450195 -12.540886878967285 11.667875289916992 -18.17845344543457 1.3285284042358398 C -16.406177520751953 -9.629295349121094 -9.08566951751709 -16.94980239868164 -3.8031392097473145 -6.690133571624756 C 7.323894023895264 -7.053040504455566 10.244945526123047 5.756124973297119 35.17618179321289 9.874624252319336" stroke-width="0.0" fill="rgb(121, 69, 115)" opacity="0.40802938"/>
    <path d="M 13.79739761352539 -14.237689018249512 C 3.0914244651794434 -6.740170955657959 -14.130465507507324 -7.205021858215332 -16.547513961791992 5.502808570861816 C -2.6698365211486816 10.073555946350098 -16.14988899230957 8.548280715942383 -19.582931518554688 0.5513045191764832 C -16.90657615661621 -9.437475204467773 -9.58607006072998 -16.75798225402832 4.701883792877197 -24.19602394104004 C 16.306777954101562 -22.50252342224121 24.399179458618164 -16.30051612854004 13.79739761352539 -14.237689018249512" stroke-width="0.0" fill="rgb(166, 221, 50)" opacity="0.6971974"/>
    <path d="M 54.577964782714844 2.6606698036193848 C 13.964883804321289 0.2102769911289215 8.392495155334473 4.582065582275391 -7.647104263305664 17.529916763305664 C -12.500213623046875 36.755672454833984 -22.063560485839844 25.144315719604492 -19.673425674438477 5.05907678604126 C -16.646474838256836 -9.193832397460938 -9.325966835021973 -16.514339447021484 0.5929436087608337 -19.176591873168945 C 13.793906211853027 -18.31560516357422 39.19020462036133 -22.066513061523438 54.577964782714844 2.6606698036193848" stroke-width="0.0" fill="rgb(0, 0, 112)" opacity="1.0"/>
    <path d="M 31.66207504272461 12.326752662658691 C 56.4542121887207 38.613426208496094 7.623274803161621 39.262657165527344 -11.522929191589355 35.80843734741211 C -9.472580909729004 16.663131713867188 -17.115455627441406 10.43320083618164 -19.778057098388672 0.7123501896858215 C -17.089073181152344 -9.292830467224121 -9.768566131591797 -16.61333656311035 0.864971399307251 -18.038280487060547 C 6.491549015045166 -13.559649467468262 16.37601661682129 -10.66322135925293 31.66207504272461 12.326752662658691" stroke-width="0.0" fill="rgb(0, 117, 192)" opacity="0.87642276"/>
    <path d="M 127.40293884277344 557.861083984375 C 127.42198944091797 556.2838134765625 121.25498962402344 580.805908203125 131.51083374023438 542.5237426757812 C 157.39187622070312 531.2871704101562 137.84799194335938 516.1227416992188 124.60870361328125 525.092529296875 C 110.2496337890625 548.5731201171875 117.06969451904297 544.9144287109375 114.9866943359375 520.826416015625 C 107.3251724243164 527.52392578125 113.98596954345703 557.7235717773438 127.40293884277344 557.861083984375" stroke-width="0.0" fill="rgb(0, 0, 16)" opacity="0.014657395"/>
    <path d="M 3.8831987380981445 -11.357701301574707 C -0.32219773530960083 -10.241324424743652 -0.11253263056278229 6.373557090759277 -3.8853471279144287 20.614965438842773 C -11.309662818908691 31.977645874023438 -24.727783203125 23.887855529785156 -27.377927780151367 9.449048042297363 C -17.099233627319336 -9.854077339172363 -9.778725624084473 -17.174583435058594 7.976291656494141 -27.279680252075195 C 16.148700714111328 -22.772266387939453 13.052278518676758 -5.471961498260498 3.8831987380981445 -11.357701301574707" stroke-width="0.0" fill="rgb(103, 47, 0)" opacity="0.9663982"/>
    <path d="M 23.369516372680664 -13.010990142822266 C 5.145397186279297 -4.188911437988281 -3.776531934738159 1.0369192361831665 -23.754270553588867 5.549167156219482 C -16.677127838134766 25.18292999267578 -19.865598678588867 15.495080947875977 -19.123443603515625 0.22235757112503052 C -16.410734176635742 -9.892983436584473 -9.090227127075195 -17.213491439819336 3.675581455230713 -21.449527740478516 C 18.495691299438477 -25.111167907714844 21.33670425415039 -13.429061889648438 23.369516372680664 -13.010990142822266" stroke-width="0.0" fill="rgb(151, 35, 56)" opacity="0.52892417"/>
    <path d="M 3.8007073402404785 -2.93473744392395 C 7.091302394866943 -11.600802421569824 4.643220901489258 -15.327008247375488 -8.05832290649414 64.67608642578125 C -48.57915115356445 56.13121795654297 -39.813114166259766 35.053916931152344 -24.387643814086914 11.028387069702148 C -17.311365127563477 -9.494267463684082 -9.99085807800293 -16.814773559570312 -0.051152318716049194 -19.02451515197754 C 9.293224334716797 -14.68056583404541 11.850898742675781 -6.01286506652832 3.8007073402404785 -2.93473744392395" stroke-width="0.0" fill="rgb(0, 54, 0)" opacity="0.6394241"/>
    <path d="M -5.468957424163818 14.503962516784668 C 15.571887016296387 21.583772659301758 12.531182289123535 8.393941879272461 5.824192523956299 43.31025314331055 C -4.391986846923828 12.661728858947754 1.3599756956100464 -6.395864009857178 -1.3493342399597168 -19.165876388549805 C -16.832191467285156 -9.083100318908691 -9.511683464050293 -16.403608322143555 0.5212200880050659 -19.099340438842773 C 16.101911544799805 -13.018442153930664 33.19975280761719 -5.9560370445251465 -5.468957424163818 14.503962516784668" stroke-width="0.0" fill="rgb(103, 151, 80)" opacity="0.5897009"/>
    <path d="M 21.373170852661133 -6.4764180183410645 C 17.469284057617188 13.527020454406738 18.524137496948242 24.0353946685791 -12.247371673583984 11.952890396118164 C -9.993387222290039 17.872150421142578 -17.313894271850586 10.551643371582031 -19.99338722229004 0.5516435503959656 C -17.313894271850586 -9.448356628417969 -9.993387222290039 -16.768863677978516 2.003819227218628 -22.531003952026367 C 9.8938570022583 -17.987770080566406 18.202075958251953 -11.491157531738281 21.373170852661133 -6.4764180183410645" stroke-width="0.0" fill="rgb(0, 96, 117)" opacity="0.8270697"/>
    <path d="M 91.4371337890625 6.972751140594482 C 39.80799102783203 22.350820541381836 22.36027717590332 42.14194869995117 3.499807834625244 116.56060028076172 C -101.46810150146484 123.39241027832031 -98.99424743652344 105.73686981201172 -65.04682159423828 51.227874755859375 C -17.05973243713379 -9.065241813659668 -9.739226341247559 -16.3857479095459 98.36299896240234 -20.3426570892334 C 128.82188415527344 -8.944596290588379 142.02944946289062 -1.0092954635620117 91.4371337890625 6.972751140594482" stroke-width="0.0" fill="rgb(0, 0, 0)" opacity="1.0"/>
    <path d="M 6.416499614715576 -18.78861427307129 C 1.726413607597351 -7.972282886505127 -7.45236873626709 -4.684986591339111 -25.65526580810547 -3.2034645080566406 C -5.850368022918701 11.400391578674316 -17.24527359008789 9.939252853393555 -19.943880081176758 0.009412197396159172 C -17.264392852783203 -9.99055004119873 -9.94388484954834 -17.31105613708496 0.056114938110113144 -19.990549087524414 C 10.05611515045166 -17.31105613708496 17.37662124633789 -9.99055004119873 6.416499614715576 -18.78861427307129" stroke-width="0.0" fill="rgb(30, 67, 130)" opacity="0.6700312"/>
    <path d="M 9.531604766845703 -18.654584884643555 C 3.1547129154205322 -8.082064628601074 -6.729474067687988 -0.4887109398841858 -20.932254791259766 5.909033298492432 C -13.59596061706543 21.614469528198242 -22.127971649169922 15.129897117614746 -27.23126983642578 7.585549354553223 C -16.92361068725586 -9.626948356628418 -9.603103637695312 -16.94745635986328 -0.24069534242153168 -17.467853546142578 C 20.454486846923828 -30.35367202758789 29.599002838134766 -25.129440307617188 9.531604766845703 -18.654584884643555" stroke-width="0.0" fill="rgb(171, 171, 79)" opacity="0.4461424"/>
    <path d="M 2.00825572013855 -18.382770538330078 C -1.7983638048171997 -7.047798156738281 -6.145205497741699 3.2892539501190186 -19.200300216674805 14.713994979858398 C -21.85834503173828 17.060623168945312 -24.140350341796875 9.023926734924316 -20.000547409057617 -0.3445401191711426 C -17.224193572998047 -9.851102828979492 -9.9036865234375 -17.17160987854004 4.239385604858398 -24.023250579833984 C 14.449305534362793 -21.679454803466797 21.666913986206055 -14.299758911132812 2.00825572013855 -18.382770538330078" stroke-width="0.0" fill="rgb(14, 7, 19)" opacity="0.38196722"/>
  </g>
</svg>
