<?xml version="1.0" ?>
<svg xmlns="http://www.w3.org/2000/svg" version="1.1" width="600" height="600">
  <defs/>
  <g>
    <path d="M 392.8447570800781 344.74261474609375 C 374.9948425292969 384.0339050292969 372.0331115722656 399.4647521972656 318.7406311035156 423.98455810546875 C 250.43423461914062 417.41949462890625 237.30581665039062 382.96844482421875 279.4353332519531 327.39434814453125 C 277.9657897949219 261.9333190917969 279.5740051269531 223.88787841796875 278.3118591308594 203.05975341796875 C 396.0285949707031 222.717041015625 390.47503662109375 265.7912292480469 392.8447570800781 344.74261474609375" stroke-width="0.0" fill="rgb(2, 0, 0)" opacity="0.99207246"/>
    <path d="M 303.216796875 217.0451202392578 C 123.08087921142578 221.4425506591797 192.10150146484375 202.1393280029297 193.32339477539062 274.9054870605469 C 158.21435546875 288.867431640625 183.59657287597656 255.57022094726562 165.07276916503906 234.9761962890625 C 155.0140838623047 209.79454040527344 189.1981201171875 103.94731903076172 195.8572998046875 170.64425659179688 C 193.5224151611328 245.7532196044922 199.6634521484375 177.5612030029297 303.216796875 217.0451202392578" stroke-width="0.0" fill="rgb(2, 4, 4)" opacity="1.0"/>
    <path d="M 431.61895751953125 243.7743377685547 C 433.50860595703125 333.3385314941406 430.46209716796875 341.56744384765625 369.2530517578125 352.2691955566406 C 376.0281066894531 222.42111206054688 441.8027038574219 238.21478271484375 150.07289123535156 201.4313507080078 C 382.798828125 211.58795166015625 201.6116180419922 188.94625854492188 329.8838195800781 132.2688446044922 C 472.52447509765625 177.58897399902344 460.06243896484375 231.92088317871094 431.61895751953125 243.7743377685547" stroke-width="0.0" fill="rgb(2, 1, 1)" opacity="0.9934852"/>
    <path d="M 560.6309204101562 256.5948181152344 C 511.082763671875 368.03070068359375 509.578857421875 377.9906921386719 458.6793212890625 358.0029296875 C 387.3103942871094 346.70928955078125 377.1667785644531 352.18963623046875 385.5967712402344 326.9447937011719 C 395.60205078125 187.0010223388672 362.1092834472656 154.40504455566406 440.5042724609375 186.94638061523438 C 514.762939453125 222.69577026367188 537.3087768554688 231.15858459472656 560.6309204101562 256.5948181152344" stroke-width="0.0" fill="rgb(3, 0, 1)" opacity="0.9909085"/>
    <path d="M 682.8916625976562 379.77154541015625 C 633.2667236328125 389.26220703125 614.6100463867188 395.6529541015625 490.9833679199219 428.61688232421875 C 435.9864196777344 442.997314453125 456.8961181640625 419.8647155761719 472.1911926269531 320.41888427734375 C 466.8352355957031 218.70578002929688 464.7217712402344 197.86859130859375 526.4912109375 228.55206298828125 C 616.4143676757812 274.7213134765625 644.3899536132812 271.7555236816406 682.8916625976562 379.77154541015625" stroke-width="0.0" fill="rgb(6, 1, 1)" opacity="0.9937869"/>
    <path d="M 545.0055541992188 502.3930969238281 C 536.2008056640625 502.87933349609375 376.2045593261719 502.0979919433594 438.4206237792969 502.8485107421875 C 316.5839538574219 500.7740783691406 318.8497314453125 508.83758544921875 322.09039306640625 488.61602783203125 C 326.1840515136719 487.8247375488281 550.1328125 489.40216064453125 451.9222412109375 487.0421447753906 C 534.826416015625 491.5722961425781 556.8775024414062 480.0530090332031 545.0055541992188 502.3930969238281" stroke-width="0.0" fill="rgb(2, 3, 3)" opacity="1.0"/>
    <path d="M 330.3544616699219 454.897216796875 C 144.30210876464844 513.0491943359375 353.6177978515625 565.912841796875 103.46831512451172 519.09326171875 C 146.66929626464844 436.2254333496094 337.6026306152344 564.365234375 281.7098693847656 393.5089416503906 C 174.25103759765625 316.02191162109375 172.0852508544922 332.7858581542969 270.60797119140625 338.93023681640625 C 321.6690673828125 321.8691101074219 272.1017761230469 325.99310302734375 330.3544616699219 454.897216796875" stroke-width="0.0" fill="rgb(97, 49, 44)" opacity="0.98350954"/>
    <path d="M 140.53846740722656 426.4634094238281 C 28.215959548950195 529.0928344726562 175.96188354492188 402.2748107910156 234.75050354003906 516.5030517578125 C 19.064069747924805 609.2462158203125 84.57183837890625 440.2225341796875 66.13560485839844 430.8232116699219 C 61.81056213378906 297.11761474609375 81.09046173095703 275.0328369140625 72.9197769165039 261.1051330566406 C 176.15963745117188 328.76690673828125 184.16542053222656 337.7955017089844 140.53846740722656 426.4634094238281" stroke-width="0.0" fill="rgb(250, 252, 252)" opacity="0.9586964"/>
    <path d="M 683.3617553710938 469.7441101074219 C 627.4822387695312 472.07562255859375 472.88055419921875 470.7980041503906 452.8248291015625 471.562744140625 C 475.2325744628906 465.9159851074219 425.5836181640625 481.6971435546875 440.1297607421875 457.5299987792969 C 441.3565673828125 455.5018005371094 530.1047973632812 457.6959228515625 538.7886962890625 456.0133972167969 C 501.0110778808594 458.8131103515625 670.957763671875 450.6265869140625 683.3617553710938 469.7441101074219" stroke-width="0.0" fill="rgb(0, 0, 0)" opacity="0.97741205"/>
    <path d="M 292.4836120605469 460.18798828125 C 268.58306884765625 460.497802734375 245.21031188964844 460.6097106933594 110.05108642578125 460.4666748046875 C 173.03964233398438 545.215087890625 133.0053253173828 536.0371704101562 68.37602996826172 424.4652404785156 C 101.86441802978516 346.90155029296875 133.28829956054688 358.6065979003906 151.66339111328125 363.27105712890625 C 191.45448303222656 408.2412414550781 215.54214477539062 405.58734130859375 292.4836120605469 460.18798828125" stroke-width="0.0" fill="rgb(5, 2, 2)" opacity="1.0"/>
    <path d="M 341.20587158203125 441.480712890625 C 274.7300720214844 479.3624572753906 236.49258422851562 541.6657104492188 285.8443603515625 458.7540283203125 C 207.5992889404297 396.59197998046875 177.8094940185547 410.4447021484375 147.82315063476562 353.804931640625 C 146.28160095214844 340.957275390625 153.06900024414062 331.052978515625 186.6812744140625 337.4808654785156 C 240.94309997558594 345.7099914550781 281.30596923828125 341.23065185546875 341.20587158203125 441.480712890625" stroke-width="0.0" fill="rgb(4, 0, 0)" opacity="0.98759145"/>
    <path d="M 323.7330017089844 136.2552947998047 C 222.3314666748047 149.56729125976562 194.6993865966797 127.69316101074219 100.69000244140625 177.56617736816406 C 91.88094329833984 215.9537811279297 53.54399871826172 186.84661865234375 69.27772521972656 132.57298278808594 C 90.86581420898438 75.54966735839844 149.9140167236328 65.22015380859375 186.31185913085938 69.34380340576172 C 192.1196746826172 68.95071411132812 272.690673828125 57.26060485839844 323.7330017089844 136.2552947998047" stroke-width="0.0" fill="rgb(2, 0, 0)" opacity="0.9817147"/>
    <path d="M 521.6539306640625 414.5323486328125 C 451.434814453125 445.984619140625 449.41241455078125 430.7641906738281 435.37066650390625 449.4226989746094 C 329.7991638183594 501.7069091796875 324.6117248535156 470.9189758300781 328.7952575683594 427.19580078125 C 318.20941162109375 330.51129150390625 335.8371276855469 322.51031494140625 385.906982421875 327.2344055175781 C 465.13031005859375 332.4496765136719 481.7298583984375 332.5995788574219 521.6539306640625 414.5323486328125" stroke-width="0.0" fill="rgb(5, 1, 1)" opacity="0.9978318"/>
    <path d="M 176.02122497558594 246.79595947265625 C 187.3937225341797 294.05133056640625 174.3596649169922 294.4153137207031 71.97631072998047 421.1331481933594 C 63.54552459716797 426.9403381347656 66.06818389892578 416.54876708984375 65.55072784423828 216.4636688232422 C 66.02177429199219 140.89569091796875 63.16322326660156 141.44268798828125 75.33097076416016 156.3029022216797 C 217.42794799804688 176.26123046875 188.99087524414062 198.03811645507812 176.02122497558594 246.79595947265625" stroke-width="0.0" fill="rgb(2, 1, 1)" opacity="0.9979112"/>
    <path d="M 195.57650756835938 330.3709716796875 C 336.81329345703125 332.11456298828125 301.72979736328125 319.53253173828125 219.24496459960938 388.1948547363281 C 114.431396484375 358.6701965332031 105.14447784423828 352.65716552734375 83.69131469726562 315.2464599609375 C 96.63684844970703 261.7633056640625 128.22142028808594 267.30712890625 195.93238830566406 203.23057556152344 C 195.40829467773438 241.3705596923828 195.9149627685547 259.60162353515625 195.57650756835938 330.3709716796875" stroke-width="0.0" fill="rgb(2, 2, 2)" opacity="1.0"/>
    <path d="M 368.3365478515625 149.51809692382812 C 349.013427734375 171.9560546875 334.2864990234375 164.6803436279297 150.1212921142578 167.00079345703125 C 132.72828674316406 188.3356475830078 124.21028137207031 190.05569458007812 117.27156829833984 173.27207946777344 C 186.34706115722656 111.29830932617188 195.2430877685547 100.58196258544922 222.60147094726562 75.41321563720703 C 252.52674865722656 120.88572692871094 337.9429016113281 136.5958709716797 368.3365478515625 149.51809692382812" stroke-width="0.0" fill="rgb(5, 2, 2)" opacity="0.9991444"/>
    <path d="M 313.1701354980469 439.1688232421875 C 237.83119201660156 547.3684692382812 204.92091369628906 530.9694213867188 225.3665008544922 537.0792236328125 C 154.66864013671875 535.02099609375 132.1334686279297 544.2734985351562 145.0097198486328 516.4518432617188 C 239.69569396972656 515.4297485351562 201.47996520996094 520.8641357421875 237.2389678955078 499.5769958496094 C 205.60572814941406 511.8125305175781 232.7080078125 502.087158203125 313.1701354980469 439.1688232421875" stroke-width="0.0" fill="rgb(0, 0, 0)" opacity="0.9799061"/>
    <path d="M 133.23072814941406 512.5933837890625 C 234.8074188232422 543.1997680664062 217.6595001220703 537.533935546875 82.85335540771484 538.3937377929688 C 70.27867126464844 518.3319091796875 93.79154968261719 525.1239013671875 118.56181335449219 523.64990234375 C 129.9816131591797 476.3250427246094 57.50883483886719 492.5987548828125 270.8685302734375 488.7124328613281 C 279.6283874511719 518.04443359375 94.67350769042969 491.6962890625 133.23072814941406 512.5933837890625" stroke-width="0.0" fill="rgb(0, 0, 0)" opacity="0.98389256"/>
    <path d="M 484.22711181640625 402.72967529296875 C 492.79681396484375 399.9807434082031 464.4291687011719 407.8050842285156 339.71685791015625 427.37445068359375 C 359.2249755859375 421.8008728027344 351.9701843261719 455.4568786621094 352.6800231933594 193.32444763183594 C 417.05633544921875 188.20704650878906 317.6960144042969 420.296875 420.8890380859375 356.26666259765625 C 402.4513244628906 379.33941650390625 496.5831604003906 350.5044860839844 484.22711181640625 402.72967529296875" stroke-width="0.0" fill="rgb(242, 36, 10)" opacity="0.9997623"/>
    <path d="M 293.9466857910156 344.6455993652344 C 342.943115234375 392.45257568359375 211.15943908691406 335.61578369140625 163.61297607421875 395.9258117675781 C 167.29815673828125 334.03253173828125 81.17778778076172 405.0033264160156 94.82797241210938 333.2054443359375 C 107.78630065917969 348.8269348144531 95.07035064697266 343.5313720703125 170.30020141601562 344.7294006347656 C 165.7106170654297 344.4998779296875 257.8961181640625 344.7539367675781 293.9466857910156 344.6455993652344" stroke-width="0.0" fill="rgb(255, 79, 21)" opacity="0.9435442"/>
    <path d="M 163.18003845214844 260.08056640625 C 148.15322875976562 278.83087158203125 155.53871154785156 309.56640625 107.1934585571289 327.5617370605469 C 107.47611236572266 318.4792785644531 107.4479751586914 303.7118225097656 107.41902923583984 261.23126220703125 C 107.76731872558594 230.09994506835938 104.72952270507812 227.94126892089844 172.50057983398438 221.8178253173828 C 186.3585662841797 217.33279418945312 183.96827697753906 230.77920532226562 163.18003845214844 260.08056640625" stroke-width="0.0" fill="rgb(113, 208, 203)" opacity="0.9664091"/>
    <path d="M 182.48728942871094 329.0455627441406 C 181.38015747070312 330.9269714355469 188.3085479736328 330.1197204589844 152.17445373535156 330.3487854003906 C 107.88865661621094 330.0158386230469 111.24099731445312 331.3428039550781 107.95903015136719 328.0220947265625 C 116.68352508544922 274.4967956542969 130.80029296875 273.0045166015625 182.46160888671875 243.43190002441406 C 182.45465087890625 251.28045654296875 182.49252319335938 269.51153564453125 182.48728942871094 329.0455627441406" stroke-width="0.0" fill="rgb(105, 199, 199)" opacity="0.9522429"/>
    <path d="M 182.2380828857422 217.35406494140625 C 129.75326538085938 264.51043701171875 122.38761138916016 272.3929138183594 110.73468780517578 282.9767150878906 C 110.35323333740234 260.52825927734375 108.78213500976562 249.981201171875 107.76485443115234 265.42608642578125 C 107.31998443603516 272.0186767578125 107.41813659667969 241.64328002929688 107.34645080566406 217.60130310058594 C 157.3258056640625 217.41770935058594 175.371337890625 217.66873168945312 182.2380828857422 217.35406494140625" stroke-width="0.0" fill="rgb(105, 203, 202)" opacity="0.98546124"/>
    <path d="M 182.462158203125 243.74075317382812 C 177.20721435546875 296.63616943359375 171.4377899169922 299.58306884765625 123.87126159667969 312.4022521972656 C 113.78540802001953 310.5578918457031 113.03592681884766 298.23858642578125 120.63728332519531 275.78497314453125 C 126.6659927368164 255.25067138671875 117.93915557861328 218.18479919433594 182.09156799316406 218.16766357421875 C 182.74215698242188 213.38980102539062 182.42578125 218.84744262695312 182.462158203125 243.74075317382812" stroke-width="0.0" fill="rgb(102, 196, 195)" opacity="0.95098215"/>
    <path d="M 306.4418029785156 177.3570098876953 C 304.22613525390625 459.45501708984375 315.8912353515625 446.1053466796875 280.3144836425781 445.60174560546875 C 228.97109985351562 445.2997131347656 210.61257934570312 446.8201599121094 169.44566345214844 442.52691650390625 C 224.26437377929688 380.882080078125 286.265625 435.3788757324219 295.72882080078125 392.1021423339844 C 286.6336364746094 159.17420959472656 299.3880920410156 115.74069213867188 306.4418029785156 177.3570098876953" stroke-width="0.0" fill="rgb(248, 91, 27)" opacity="0.972238"/>
    <path d="M 198.8780517578125 444.869873046875 C 192.34320068359375 445.96832275390625 156.43807983398438 445.53826904296875 108.617431640625 445.7095947265625 C 108.78564453125 444.82879638671875 91.80117797851562 460.9148254394531 79.47969055175781 381.130859375 C 108.00353240966797 404.0346984863281 77.94117736816406 414.7826843261719 149.08258056640625 410.1365661621094 C 182.5673065185547 385.1025390625 172.2342071533203 406.19561767578125 198.8780517578125 444.869873046875" stroke-width="0.0" fill="rgb(248, 76, 18)" opacity="0.98587286"/>
    <path d="M 292.6552734375 207.56837463378906 C 291.8958740234375 137.78810119628906 309.6068115234375 154.03982543945312 122.1916275024414 151.2738800048828 C 85.14945220947266 151.74990844726562 95.42668914794922 164.461181640625 93.53913879394531 228.86224365234375 C 47.04332733154297 117.51592254638672 125.16658782958984 83.79554748535156 195.74293518066406 90.67798614501953 C 231.8259735107422 85.11697387695312 344.7928161621094 119.11099243164062 292.6552734375 207.56837463378906" stroke-width="0.0" fill="rgb(255, 83, 23)" opacity="0.94787484"/>
    <path d="M 485.2648620605469 261.5118713378906 C 484.574462890625 371.1277160644531 487.47509765625 414.62884521484375 479.4052429199219 378.5168762207031 C 408.5028991699219 353.8270263671875 456.2646789550781 384.4248962402344 460.53680419921875 342.99188232421875 C 459.9784851074219 290.4438781738281 466.079345703125 274.2571105957031 455.10968017578125 237.70172119140625 C 511.0599365234375 248.7235870361328 469.1087951660156 276.2917785644531 485.2648620605469 261.5118713378906" stroke-width="0.0" fill="rgb(249, 47, 8)" opacity="0.94902337"/>
    <path d="M 485.6786193847656 238.69044494628906 C 483.9769287109375 297.5767517089844 487.56573486328125 315.1352233886719 481.9678039550781 337.095703125 C 452.710693359375 325.3196105957031 462.54046630859375 313.1199951171875 460.1698913574219 272.549072265625 C 465.0791015625 213.6721649169922 419.335693359375 243.0893096923828 349.8760070800781 188.4773406982422 C 508.2434997558594 256.4523010253906 482.8193359375 254.3093719482422 485.6786193847656 238.69044494628906" stroke-width="0.0" fill="rgb(255, 75, 25)" opacity="0.6006696"/>
    <path d="M 397.12030029296875 524.8892211914062 C 414.8876953125 548.5930786132812 353.9190368652344 532.6414184570312 380.91595458984375 538.1334228515625 C 349.5754089355469 538.466064453125 257.04486083984375 538.3018798828125 173.5254669189453 538.25439453125 C 169.929931640625 516.0641479492188 330.7794494628906 527.2662353515625 362.3724060058594 523.455810546875 C 322.11627197265625 525.3639526367188 396.97967529296875 523.4404907226562 397.12030029296875 524.8892211914062" stroke-width="0.0" fill="rgb(0, 0, 0)" opacity="0.97538805"/>
    <path d="M 146.8999481201172 361.3655090332031 C 95.91767120361328 370.693115234375 82.0802001953125 365.3547058105469 96.27025604248047 437.27978515625 C 64.72589111328125 412.2596130371094 89.60562133789062 337.1034851074219 79.05989074707031 379.6679992675781 C 81.3580093383789 374.1708679199219 76.84137725830078 166.44528198242188 83.18887329101562 140.4099884033203 C 115.48345947265625 326.3382568359375 57.4555549621582 356.52044677734375 146.8999481201172 361.3655090332031" stroke-width="0.0" fill="rgb(252, 94, 30)" opacity="0.9633174"/>
    <path d="M 230.16151428222656 426.5486755371094 C 250.44952392578125 449.5701904296875 236.88583374023438 445.0893859863281 202.39892578125 445.7095031738281 C 157.63978576660156 445.45880126953125 154.76356506347656 446.6125183105469 146.42288208007812 419.6130065917969 C 166.1022186279297 406.5013732910156 158.79263305664062 372.1264953613281 210.09251403808594 346.27532958984375 C 237.1161651611328 343.64544677734375 226.8548583984375 358.9267272949219 230.16151428222656 426.5486755371094" stroke-width="0.0" fill="rgb(247, 77, 17)" opacity="0.9754423"/>
    <path d="M 337.7442932128906 304.4692687988281 C 335.60302734375 282.49566650390625 343.9341125488281 301.3031311035156 320.2417297363281 318.7876281738281 C 319.8680725097656 289.4913635253906 321.1186218261719 276.95166015625 319.46502685546875 304.49737548828125 C 320.73974609375 280.9051513671875 315.9905090332031 220.86741638183594 330.8912658691406 165.9060821533203 C 340.5452880859375 198.36387634277344 336.30474853515625 256.1773376464844 337.7442932128906 304.4692687988281" stroke-width="0.0" fill="rgb(239, 83, 21)" opacity="0.97333956"/>
    <path d="M 181.76882934570312 187.30210876464844 C 169.7841796875 204.92193603515625 151.0100555419922 203.43862915039062 109.27983856201172 203.33285522460938 C 106.64910888671875 201.99191284179688 107.52690887451172 212.07557678222656 107.29084777832031 169.16543579101562 C 108.30912780761719 165.16392517089844 101.8494873046875 166.95523071289062 125.89022827148438 166.52578735351562 C 152.19696044921875 166.89523315429688 165.30357360839844 163.11038208007812 181.76882934570312 187.30210876464844" stroke-width="0.0" fill="rgb(126, 249, 247)" opacity="0.7705175"/>
    <path d="M 334.47601318359375 281.4895935058594 C 332.9760437011719 284.20361328125 328.1173095703125 292.9508361816406 330.44818115234375 288.0666809082031 C 321.42108154296875 282.4697265625 316.44921875 273.4808654785156 327.2591857910156 274.0289611816406 C 329.2760925292969 287.74322509765625 336.1251220703125 283.98919677734375 335.8843078613281 277.80419921875 C 324.1170959472656 268.59295654296875 329.5115661621094 276.1012878417969 334.47601318359375 281.4895935058594" stroke-width="0.0" fill="rgb(255, 89, 16)" opacity="0.6214248"/>
    <path d="M 336.4239196777344 282.0674133300781 C 337.0045166015625 282.5679931640625 338.64306640625 298.5067443847656 337.32611083984375 348.91546630859375 C 312.3352355957031 345.55645751953125 321.5953063964844 322.32855224609375 319.183349609375 299.24761962890625 C 322.96502685546875 307.1920166015625 337.225830078125 300.8492431640625 336.2698059082031 270.9728088378906 C 337.7845764160156 268.1575622558594 336.4841003417969 287.65899658203125 336.4239196777344 282.0674133300781" stroke-width="0.0" fill="rgb(179, 61, 25)" opacity="0.6898213"/>
    <path d="M 337.48858642578125 190.05337524414062 C 336.53717041015625 211.36419677734375 342.2927551269531 253.21353149414062 319.7146911621094 255.67190551757812 C 319.6474609375 188.22068786621094 319.6498718261719 163.1842041015625 319.5908203125 178.00904846191406 C 319.57464599609375 186.38449096679688 319.88360595703125 166.08016967773438 319.0923156738281 145.1907958984375 C 332.6151123046875 164.3141632080078 335.8836364746094 171.73928833007812 337.48858642578125 190.05337524414062" stroke-width="0.0" fill="rgb(248, 84, 17)" opacity="0.9116402"/>
    <path d="M 574.5702514648438 372.1831359863281 C 560.7711181640625 388.63311767578125 544.6043090820312 389.17962646484375 497.9787292480469 399.528076171875 C 497.0218200683594 398.5713806152344 497.4315185546875 420.2143249511719 497.2624816894531 255.37481689453125 C 540.3141479492188 286.7788391113281 503.0396728515625 243.5751190185547 509.3931884765625 300.630859375 C 501.87322998046875 419.9032287597656 542.8013305664062 342.1714782714844 574.5702514648438 372.1831359863281" stroke-width="0.0" fill="rgb(245, 52, 15)" opacity="0.99999917"/>
    <path d="M 337.5609436035156 394.0330505371094 C 331.3792724609375 381.7557373046875 351.9179382324219 405.58355712890625 312.8830871582031 449.30657958984375 C 323.7619934082031 437.56378173828125 319.5219421386719 388.2998352050781 320.3338928222656 345.04913330078125 C 320.6656799316406 341.732177734375 317.2478942871094 281.3746643066406 335.18048095703125 259.9925842285156 C 338.3982238769531 340.29510498046875 337.1437072753906 377.4261779785156 337.5609436035156 394.0330505371094" stroke-width="0.0" fill="rgb(250, 85, 17)" opacity="0.9819443"/>
    <path d="M 182.48416137695312 166.33206176757812 C 182.95187377929688 207.4623565673828 176.3565216064453 211.37791442871094 157.42259216308594 189.1973419189453 C 154.14744567871094 168.43649291992188 149.51211547851562 168.48435974121094 127.58311462402344 167.2197265625 C 141.95806884765625 166.19102478027344 156.04647827148438 169.0803680419922 146.72190856933594 169.53482055664062 C 129.68283081054688 165.30856323242188 146.2311553955078 166.56906127929688 182.48416137695312 166.33206176757812" stroke-width="0.0" fill="rgb(80, 163, 165)" opacity="0.8542001"/>
    <path d="M 574.488525390625 360.5643005371094 C 573.8854370117188 392.53375244140625 578.3956298828125 380.6134338378906 562.284423828125 386.36187744140625 C 513.380126953125 393.7424011230469 505.1742248535156 411.8638610839844 510.9248352050781 351.5449523925781 C 512.4570922851562 363.3297119140625 558.8062133789062 364.2859802246094 557.6227416992188 350.3080139160156 C 575.8768920898438 300.2045593261719 574.9080200195312 312.2835693359375 574.488525390625 360.5643005371094" stroke-width="0.0" fill="rgb(246, 26, 7)" opacity="0.9735134"/>
    <path d="M 399.9377136230469 304.56207275390625 C 399.1723937988281 277.40093994140625 399.8793029785156 345.1592712402344 399.4264221191406 347.1747741699219 C 374.743896484375 360.13690185546875 395.05645751953125 311.7626037597656 387.21435546875 334.1424255371094 C 387.7620544433594 309.9109191894531 387.1315612792969 246.79693603515625 387.68829345703125 231.9024200439453 C 404.2764892578125 219.23672485351562 398.0298767089844 266.0513610839844 399.9377136230469 304.56207275390625" stroke-width="0.0" fill="rgb(99, 193, 189)" opacity="0.9816196"/>
    <path d="M 575.3904418945312 286.12646484375 C 574.048828125 308.8263244628906 580.7239379882812 352.2644958496094 558.3922119140625 354.75738525390625 C 558.4263916015625 336.32232666015625 559.25830078125 278.8825378417969 558.0693969726562 291.9639892578125 C 562.2036743164062 271.6456604003906 512.3700561523438 274.80645751953125 496.6851501464844 255.6505889892578 C 589.4386596679688 291.42803955078125 573.5989990234375 282.22698974609375 575.3904418945312 286.12646484375" stroke-width="0.0" fill="rgb(249, 57, 20)" opacity="0.93412215"/>
    <path d="M 534.1890869140625 304.0538024902344 C 534.6683959960938 310.33563232421875 533.4625854492188 315.6807556152344 533.6583251953125 333.9491882324219 C 527.0860595703125 344.4510803222656 532.5909423828125 299.3710021972656 529.2645263671875 309.7365417480469 C 532.520263671875 308.5531005859375 527.296875 275.19427490234375 533.5352783203125 283.8274230957031 C 535.8464965820312 309.3825378417969 531.8403930664062 313.390869140625 534.1890869140625 304.0538024902344" stroke-width="0.0" fill="rgb(204, 23, 22)" opacity="0.999559"/>
    <path d="M 294.6214294433594 381.7310485839844 C 307.3259582519531 384.041015625 304.1004943847656 390.3433532714844 304.8641662597656 370.8216552734375 C 304.22271728515625 362.7317199707031 305.1125793457031 356.0180969238281 303.6196594238281 345.5135803222656 C 281.78106689453125 365.15216064453125 286.2978515625 358.6900939941406 278.9915771484375 363.5030822753906 C 274.7397766113281 370.67633056640625 286.4952087402344 362.5014343261719 294.6214294433594 381.7310485839844" stroke-width="0.0" fill="rgb(253, 80, 15)" opacity="0.9248109"/>
    <path d="M 321.4837951660156 396.6449890136719 C 322.328125 432.24066162109375 317.8488464355469 438.9649658203125 319.5838317871094 395.4912109375 C 321.4081726074219 390.1051330566406 309.0339660644531 388.82275390625 282.0286865234375 378.12939453125 C 289.6959533691406 381.7305603027344 315.010986328125 388.86151123046875 322.6882019042969 394.1085510253906 C 315.8340148925781 385.24652099609375 320.8442687988281 391.8791809082031 321.4837951660156 396.6449890136719" stroke-width="0.0" fill="rgb(146, 30, 19)" opacity="0.410407"/>
    <path d="M 399.285400390625 230.08798217773438 C 402.8818664550781 287.5646057128906 385.8687438964844 268.0545959472656 387.4213562011719 234.0518341064453 C 377.4756774902344 244.76620483398438 367.7873229980469 245.98794555664062 370.6394958496094 229.07066345214844 C 366.72259521484375 246.25839233398438 379.6617126464844 244.5035400390625 387.5365295410156 233.3150634765625 C 382.5370788574219 222.34642028808594 400.0627136230469 233.222412109375 399.285400390625 230.08798217773438" stroke-width="0.0" fill="rgb(96, 191, 190)" opacity="0.69499844"/>
    <path d="M 182.44862365722656 203.24749755859375 C 152.57901000976562 203.35519409179688 129.24078369140625 203.597412109375 144.78744506835938 203.15005493164062 C 159.7454376220703 201.8157958984375 148.04559326171875 201.77142333984375 133.30384826660156 201.9929656982422 C 145.99993896484375 201.91305541992188 143.78756713867188 189.75338745117188 153.58387756347656 167.86183166503906 C 187.3687286376953 169.9586639404297 181.9933319091797 153.0109405517578 182.44862365722656 203.24749755859375" stroke-width="0.0" fill="rgb(101, 198, 196)" opacity="0.8493932"/>
    <path d="M 418.4021301269531 298.7236022949219 C 418.3660583496094 279.7455139160156 417.715576171875 290.79083251953125 418.6353454589844 301.9488830566406 C 421.8038330078125 287.1437072753906 420.81134033203125 275.68292236328125 419.41693115234375 294.9848327636719 C 418.76007080078125 293.242431640625 426.297607421875 285.28631591796875 416.2095031738281 218.9972686767578 C 415.6467590332031 276.1961975097656 418.4906005859375 290.700439453125 418.4021301269531 298.7236022949219" stroke-width="0.0" fill="rgb(225, 53, 22)" opacity="0.9270457"/>
    <path d="M 431.0958251953125 225.70303344726562 C 415.8092346191406 226.14634704589844 420.7247314453125 227.8307647705078 421.34820556640625 264.6660461425781 C 412.988525390625 234.20846557617188 415.9052429199219 223.92117309570312 389.7816162109375 208.31182861328125 C 395.3913879394531 211.13746643066406 410.1395263671875 210.92491149902344 399.8950500488281 211.26646423339844 C 410.6185302734375 215.73907470703125 420.15765380859375 220.09071350097656 431.0958251953125 225.70303344726562" stroke-width="0.0" fill="rgb(249, 39, 17)" opacity="0.9006152"/>
    <path d="M 406.1322021484375 190.51956176757812 C 387.6377258300781 216.41317749023438 414.2933044433594 230.95753479003906 401.59661865234375 216.35479736328125 C 392.9328308105469 231.93194580078125 378.6346435546875 223.5495147705078 371.45068359375 217.10140991210938 C 378.2397766113281 207.3309326171875 393.515625 209.44371032714844 400.0281982421875 216.24029541015625 C 396.1711730957031 193.2263641357422 418.80126953125 199.8025665283203 406.1322021484375 190.51956176757812" stroke-width="0.0" fill="rgb(1, 0, 0)" opacity="0.8746358"/>
    <path d="M 396.8287353515625 210.12574768066406 C 377.26043701171875 207.57763671875 365.3380432128906 212.98764038085938 371.2457580566406 260.23822021484375 C 347.10797119140625 255.35618591308594 353.6014099121094 232.95684814453125 353.1359558105469 203.29336547851562 C 361.9063720703125 199.4141387939453 372.2728576660156 205.21420288085938 351.4438171386719 191.60475158691406 C 355.5585632324219 190.48593139648438 375.48382568359375 201.4615020751953 396.8287353515625 210.12574768066406" stroke-width="0.0" fill="rgb(251, 54, 14)" opacity="0.9561859"/>
    <path d="M 583.595947265625 349.4671936035156 C 572.2175903320312 348.1181945800781 634.3449096679688 355.4239807128906 608.3381958007812 373.08270263671875 C 567.5865478515625 401.16796875 592.3884887695312 326.8108215332031 586.2239990234375 341.5693054199219 C 587.2525024414062 302.78790283203125 580.8739013671875 290.0099792480469 609.4348754882812 294.1657409667969 C 570.7383422851562 284.7662658691406 588.3380737304688 270.7037658691406 583.595947265625 349.4671936035156" stroke-width="0.0" fill="rgb(220, 41, 22)" opacity="0.92651117"/>
    <path d="M 493.11810302734375 479.9370422363281 C 496.3763732910156 479.74737548828125 488.23773193359375 481.2046203613281 492.4336242675781 478.5678405761719 C 498.90533447265625 478.81707763671875 491.8866271972656 480.2134704589844 495.69622802734375 480.2831726074219 C 492.34466552734375 484.396728515625 492.9129638671875 481.2934265136719 491.33575439453125 485.19500732421875 C 489.6630859375 483.5446472167969 494.3785705566406 486.792724609375 493.11810302734375 479.9370422363281" stroke-width="0.0" fill="rgb(232, 229, 229)" opacity="0.011789777"/>
    <path d="M 144.33563232421875 498.57342529296875 C 144.4911346435547 483.7842102050781 145.352783203125 486.9299011230469 147.9054718017578 500.6175231933594 C 157.72222900390625 493.3111267089844 155.36192321777344 490.3835144042969 147.91268920898438 501.6628112792969 C 151.57521057128906 498.3698425292969 155.10768127441406 491.9400939941406 151.01834106445312 490.7457275390625 C 143.7515869140625 496.6890563964844 148.2742919921875 497.1020812988281 144.33563232421875 498.57342529296875" stroke-width="0.0" fill="rgb(0, 0, 0)" opacity="0.7821206"/>
    <path d="M 281.20928955078125 344.2658996582031 C 285.8685607910156 350.2409362792969 290.6573181152344 355.8301086425781 286.6897888183594 359.3647766113281 C 281.0066833496094 355.3943786621094 274.8045349121094 351.0995788574219 291.8323669433594 360.80084228515625 C 295.1451416015625 354.5251770019531 307.52520751953125 351.0368957519531 304.1301574707031 330.7079162597656 C 280.5732727050781 315.4179992675781 304.9953918457031 329.7182922363281 281.20928955078125 344.2658996582031" stroke-width="0.0" fill="rgb(253, 83, 19)" opacity="0.9292939"/>
    <path d="M 422.3740539550781 296.8505859375 C 415.9705810546875 320.0340270996094 431.8619384765625 365.1443176269531 407.13714599609375 363.0837097167969 C 426.6977233886719 348.0335388183594 411.6529846191406 310.8193054199219 420.965576171875 289.5163269042969 C 417.5910339355469 309.72369384765625 415.41424560546875 298.073486328125 421.28173828125 275.1902770996094 C 422.3691101074219 289.2600402832031 420.4707946777344 307.5630187988281 422.3740539550781 296.8505859375" stroke-width="0.0" fill="rgb(244, 39, 18)" opacity="0.86005515"/>
    <path d="M 529.8599243164062 479.1856689453125 C 525.404296875 478.615966796875 520.1922607421875 480.6241760253906 525.1947021484375 479.9215087890625 C 531.8110961914062 478.3641357421875 528.7100830078125 476.9106750488281 525.235595703125 476.6001281738281 C 516.2793579101562 481.4491882324219 528.715576171875 481.7029113769531 524.8792114257812 484.5694580078125 C 522.737060546875 481.2413024902344 531.6708984375 482.51318359375 529.8599243164062 479.1856689453125" stroke-width="0.0" fill="rgb(240, 242, 235)" opacity="0.046772175"/>
    <path d="M 446.1040344238281 477.618896484375 C 438.6026916503906 479.51318359375 435.6656494140625 480.1695861816406 441.3177490234375 484.1678466796875 C 449.93414306640625 484.04168701171875 443.8067321777344 480.4360656738281 442.3398742675781 478.61309814453125 C 433.76068115234375 483.5550537109375 436.6869201660156 479.56829833984375 438.9765625 475.2209167480469 C 443.036865234375 480.2982482910156 450.1253356933594 484.23419189453125 446.1040344238281 477.618896484375" stroke-width="0.0" fill="rgb(221, 242, 247)" opacity="0.064324416"/>
    <path d="M 421.7688903808594 312.6043701171875 C 417.55279541015625 296.3369445800781 416.5730895996094 313.171630859375 416.3033447265625 367.7086486816406 C 428.2964782714844 306.1631774902344 417.335693359375 294.4787902832031 417.12200927734375 318.1385192871094 C 416.9536437988281 319.0841979980469 415.4423522949219 297.51312255859375 419.0960998535156 244.46365356445312 C 420.91448974609375 294.073486328125 422.4990234375 318.76043701171875 421.7688903808594 312.6043701171875" stroke-width="0.0" fill="rgb(255, 70, 33)" opacity="0.59151727"/>
    <path d="M 264.0646667480469 533.5663452148438 C 255.43154907226562 521.579345703125 249.6204071044922 525.6956787109375 256.9368591308594 537.5311889648438 C 267.8206787109375 523.0941772460938 273.5567321777344 519.0474243164062 276.1282043457031 536.9982299804688 C 257.52679443359375 537.1251220703125 266.29302978515625 531.2377319335938 262.4397277832031 525.0689086914062 C 256.59661865234375 525.8484497070312 259.6983337402344 529.860595703125 264.0646667480469 533.5663452148438" stroke-width="0.0" fill="rgb(0, 0, 0)" opacity="1.0"/>
    <path d="M 80.19945526123047 184.60301208496094 C 80.44216918945312 180.3135986328125 79.26300048828125 188.89149475097656 79.94081115722656 184.6829071044922 C 82.45523834228516 168.35601806640625 78.02008056640625 157.38853454589844 79.13079071044922 203.87918090820312 C 79.24647521972656 222.9539337158203 81.60204315185547 201.45919799804688 79.80584716796875 186.0596160888672 C 79.78923034667969 183.36268615722656 80.11465454101562 192.86207580566406 80.19945526123047 184.60301208496094" stroke-width="0.0" fill="rgb(151, 62, 36)" opacity="0.58934534"/>
    <path d="M 365.5788269042969 479.3566589355469 C 364.1496887207031 479.64495849609375 357.4455261230469 480.8238525390625 365.2145080566406 479.7579040527344 C 371.2569885253906 480.20343017578125 363.7468566894531 479.2906799316406 365.5639953613281 479.58184814453125 C 365.0256652832031 490.498046875 365.3697814941406 483.87860107421875 365.3130187988281 485.4296875 C 365.216796875 487.5210266113281 365.20794677734375 488.4228515625 365.5788269042969 479.3566589355469" stroke-width="0.0" fill="rgb(196, 198, 199)" opacity="0.051233277"/>
    <path d="M 374.6158142089844 218.04917907714844 C 369.8734436035156 220.58978271484375 371.8623352050781 235.49371337890625 371.2320251464844 305.7429504394531 C 392.7934265136719 243.32440185546875 382.59375 230.5017547607422 375.98858642578125 234.7764434814453 C 368.17352294921875 245.36227416992188 373.1444091796875 238.2570343017578 376.299072265625 234.49293518066406 C 376.2103271484375 235.91488647460938 383.9130859375 245.8895263671875 374.6158142089844 218.04917907714844" stroke-width="0.0" fill="rgb(0, 0, 0)" opacity="0.97753084"/>
    <path d="M 281.5003662109375 391.342529296875 C 281.4089660644531 397.73809814453125 267.3506164550781 394.5257873535156 264.0897216796875 395.90716552734375 C 270.0693359375 394.7297058105469 244.2017822265625 396.92254638671875 250.28662109375 394.54443359375 C 250.944580078125 375.9644775390625 248.8247528076172 381.7299499511719 253.83331298828125 380.68133544921875 C 278.984375 381.9338073730469 282.0852355957031 376.22503662109375 281.5003662109375 391.342529296875" stroke-width="0.0" fill="rgb(250, 18, 9)" opacity="0.9729892"/>
    <path d="M 149.81436157226562 387.2847595214844 C 150.8491973876953 399.8760681152344 135.93142700195312 397.0982360839844 134.36900329589844 393.0761413574219 C 139.3190155029297 396.05908203125 128.2476348876953 387.8580322265625 134.55532836914062 391.9953308105469 C 133.6753692626953 398.0415344238281 133.29115295410156 385.53875732421875 133.45806884765625 386.79876708984375 C 136.87901306152344 377.7305603027344 150.5886993408203 380.6426696777344 149.81436157226562 387.2847595214844" stroke-width="0.0" fill="rgb(238, 76, 29)" opacity="0.9431498"/>
    <path d="M 332.55621337890625 439.3578186035156 C 320.96246337890625 441.0022888183594 312.6346435546875 443.08624267578125 339.8753356933594 448.3418273925781 C 334.0367126464844 451.7714538574219 325.8490295410156 441.9117126464844 314.03350830078125 443.6822814941406 C 308.9434509277344 451.0787658691406 320.9582824707031 450.2998352050781 335.3749084472656 447.2857666015625 C 330.3377685546875 442.03924560546875 336.2196044921875 447.7578125 332.55621337890625 439.3578186035156" stroke-width="0.0" fill="rgb(0, 0, 0)" opacity="0.9993963"/>
    <path d="M 358.780029296875 486.86932373046875 C 340.5589599609375 479.8808288574219 336.307373046875 478.28289794921875 341.844970703125 480.3761901855469 C 345.5303649902344 481.8419189453125 338.6035461425781 479.1141357421875 360.4158020019531 487.4808654785156 C 365.06304931640625 490.5476989746094 320.6697998046875 485.064697265625 323.17425537109375 491.61553955078125 C 312.4714660644531 484.04827880859375 364.986083984375 489.3832092285156 358.780029296875 486.86932373046875" stroke-width="0.0" fill="rgb(169, 193, 196)" opacity="0.98337567"/>
    <path d="M 148.5108184814453 387.130859375 C 146.8822479248047 404.32757568359375 137.7749786376953 389.3616027832031 122.29421997070312 387.04449462890625 C 123.92056274414062 406.226318359375 110.84770202636719 386.8098449707031 121.73023986816406 388.83563232421875 C 112.39313507080078 387.88800048828125 119.37684631347656 384.2525329589844 132.6554412841797 390.3603515625 C 128.90890502929688 382.42816162109375 147.9813690185547 372.7950439453125 148.5108184814453 387.130859375" stroke-width="0.0" fill="rgb(255, 53, 11)" opacity="0.44202048"/>
    <path d="M 268.9938049316406 193.20877075195312 C 270.4841613769531 191.3231964111328 265.2377624511719 201.10928344726562 272.0680236816406 194.30101013183594 C 269.1260070800781 199.61358642578125 266.0182189941406 197.95132446289062 266.8985290527344 194.29537963867188 C 263.4833679199219 190.5281219482422 263.6067199707031 188.19085693359375 267.15789794921875 192.2828826904297 C 266.719482421875 201.30703735351562 268.44610595703125 211.04859924316406 268.9938049316406 193.20877075195312" stroke-width="0.0" fill="rgb(235, 224, 226)" opacity="0.52791524"/>
    <path d="M 260.7585144042969 203.08804321289062 C 277.2911682128906 201.46612548828125 279.2895202636719 206.28530883789062 278.2539978027344 196.40293884277344 C 270.12548828125 201.09332275390625 264.6495666503906 196.6692352294922 266.5797424316406 195.34188842773438 C 268.14892578125 203.1305694580078 270.0133361816406 201.1138153076172 274.1687316894531 199.72738647460938 C 264.49725341796875 195.95260620117188 270.6117858886719 200.5868377685547 260.7585144042969 203.08804321289062" stroke-width="0.0" fill="rgb(255, 255, 250)" opacity="0.94631773"/>
    <path d="M 118.34659576416016 381.2982177734375 C 118.89360046386719 398.0151062011719 107.36571502685547 386.1894226074219 104.95631408691406 387.7516784667969 C 107.46165466308594 386.0327453613281 101.9798812866211 372.4200134277344 101.87781524658203 392.35015869140625 C 110.64720153808594 400.6858215332031 99.95699310302734 382.6280212402344 110.85739135742188 389.7715148925781 C 109.58206176757812 391.840576171875 131.34083557128906 388.1552734375 118.34659576416016 381.2982177734375" stroke-width="0.0" fill="rgb(133, 15, 7)" opacity="0.85278"/>
    <path d="M 284.2726745605469 175.05856323242188 C 281.30975341796875 167.12908935546875 282.3539733886719 176.7108154296875 280.67034912109375 181.82818603515625 C 276.8547058105469 178.24337768554688 279.25872802734375 167.19223022460938 278.3935241699219 153.2250518798828 C 264.8248596191406 160.89501953125 273.8421936035156 157.05247497558594 268.4570007324219 161.73748779296875 C 280.447265625 162.02972412109375 287.1746826171875 166.62969970703125 284.2726745605469 175.05856323242188" stroke-width="0.0" fill="rgb(0, 0, 1)" opacity="0.9969008"/>
    <path d="M 216.99411010742188 199.7853546142578 C 225.4193572998047 196.6058807373047 220.04348754882812 205.4394073486328 217.1035614013672 209.80174255371094 C 225.28265380859375 197.93849182128906 222.01844787597656 195.73228454589844 208.87051391601562 204.27569580078125 C 230.55929565429688 202.5620574951172 254.52139282226562 205.57699584960938 252.73532104492188 202.7703857421875 C 205.87210083007812 202.24789428710938 208.30718994140625 204.1519317626953 216.99411010742188 199.7853546142578" stroke-width="0.0" fill="rgb(101, 128, 125)" opacity="0.44925374"/>
    <path d="M 591.8878173828125 352.81109619140625 C 611.787353515625 354.3086242675781 597.7184448242188 367.31048583984375 587.9837036132812 358.17718505859375 C 593.4769287109375 352.2731628417969 583.020263671875 354.8128356933594 582.9868774414062 349.810302734375 C 587.3396606445312 358.5317687988281 596.1160278320312 360.4437561035156 586.195068359375 342.06005859375 C 581.4708862304688 358.43695068359375 582.7656860351562 367.0643310546875 591.8878173828125 352.81109619140625" stroke-width="0.0" fill="rgb(255, 26, 10)" opacity="0.60511756"/>
    <path d="M 278.08953857421875 195.6749267578125 C 264.52996826171875 174.90890502929688 282.2859802246094 177.54425048828125 278.67230224609375 203.85421752929688 C 230.9091033935547 203.87596130371094 235.81878662109375 206.32986450195312 264.2105712890625 177.21875 C 270.99212646484375 171.24429321289062 273.4998474121094 165.45484924316406 278.4317932128906 167.75579833984375 C 279.90380859375 171.7726593017578 278.5909423828125 197.3779754638672 278.08953857421875 195.6749267578125" stroke-width="0.0" fill="rgb(249, 252, 249)" opacity="0.6400168"/>
    <path d="M 190.83297729492188 61.97531509399414 C 184.5842742919922 59.337371826171875 179.1304168701172 57.71770477294922 191.0114288330078 61.96610641479492 C 193.47291564941406 63.64003372192383 186.1321258544922 59.60219955444336 190.6765594482422 62.17323303222656 C 187.11607360839844 64.4572525024414 186.99122619628906 61.95872497558594 192.99981689453125 68.48988342285156 C 161.31736755371094 68.4398193359375 177.76507568359375 70.47271728515625 190.83297729492188 61.97531509399414" stroke-width="0.0" fill="rgb(242, 247, 242)" opacity="0.5650855"/>
    <path d="M 194.62171936035156 199.84849548339844 C 202.0218963623047 190.65602111816406 180.75404357910156 201.50863647460938 214.24818420410156 203.02613830566406 C 201.15098571777344 204.19908142089844 193.4247283935547 203.9917449951172 195.7060089111328 203.91685485839844 C 202.00282287597656 208.27191162109375 202.210205078125 208.43955993652344 195.98341369628906 204.07363891601562 C 194.09109497070312 200.164794921875 196.5341796875 205.21609497070312 194.62171936035156 199.84849548339844" stroke-width="0.0" fill="rgb(216, 237, 239)" opacity="0.5021716"/>
    <path d="M 585.3129272460938 345.0474853515625 C 583.9691772460938 365.5332946777344 584.3298950195312 384.13092041015625 584.5560302734375 381.1607360839844 C 609.7088623046875 377.01165771484375 601.8917846679688 367.0339050292969 600.4259033203125 367.9529113769531 C 588.5648803710938 380.94000244140625 591.4192504882812 377.71209716796875 595.9567260742188 372.7958068847656 C 605.076904296875 362.2400817871094 606.5628662109375 367.0669250488281 585.3129272460938 345.0474853515625" stroke-width="0.0" fill="rgb(255, 20, 3)" opacity="0.9276632"/>
    <path d="M 130.11474609375 490.57781982421875 C 129.8299102783203 482.7357482910156 123.30962371826172 484.16497802734375 131.62359619140625 490.0868835449219 C 166.26580810546875 489.2342224121094 170.50701904296875 489.7545471191406 157.1655731201172 489.8433532714844 C 157.69078063964844 490.76483154296875 179.7261199951172 487.9862365722656 147.53489685058594 488.1570129394531 C 123.72050476074219 488.9801330566406 131.10140991210938 486.34930419921875 130.11474609375 490.57781982421875" stroke-width="0.0" fill="rgb(115, 127, 124)" opacity="0.5952645"/>
    <path d="M 486.00677490234375 481.3401794433594 C 487.5874938964844 479.14154052734375 481.2643127441406 479.02899169921875 489.7738037109375 475.25311279296875 C 495.68609619140625 478.841552734375 488.5936279296875 478.4308776855469 490.726806640625 478.1337890625 C 486.3653259277344 484.0544738769531 490.670654296875 476.5824279785156 494.44622802734375 477.2919921875 C 494.7551574707031 483.15380859375 492.0594482421875 488.8677673339844 486.00677490234375 481.3401794433594" stroke-width="0.0" fill="rgb(253, 253, 253)" opacity="0.018220998"/>
    <path d="M 331.7823181152344 456.7667541503906 C 334.02276611328125 462.467529296875 335.05291748046875 472.09112548828125 358.1168518066406 445.276611328125 C 337.22119140625 442.2205505371094 326.64892578125 440.6773376464844 309.0833740234375 443.6712951660156 C 302.39801025390625 462.528564453125 310.2241516113281 462.2898864746094 332.7187194824219 452.565185546875 C 331.8728942871094 440.2164611816406 333.1775207519531 447.84356689453125 331.7823181152344 456.7667541503906" stroke-width="0.0" fill="rgb(0, 0, 0)" opacity="0.98263204"/>
    <path d="M 159.1733856201172 497.0388488769531 C 158.9346923828125 484.9077453613281 156.98721313476562 487.36529541015625 156.6554718017578 499.3293151855469 C 168.58326721191406 492.3642883300781 168.42257690429688 490.3822021484375 159.37588500976562 497.9515380859375 C 162.86997985839844 496.0215759277344 166.66925048828125 491.5679016113281 161.56192016601562 493.0571594238281 C 156.57888793945312 494.7823486328125 159.3001251220703 496.2797546386719 159.1733856201172 497.0388488769531" stroke-width="0.0" fill="rgb(0, 0, 0)" opacity="0.3822468"/>
    <path d="M 546.8824462890625 489.4296875 C 542.705078125 487.60345458984375 540.3346557617188 483.6690368652344 547.3824462890625 485.23834228515625 C 546.618896484375 487.3656005859375 536.6588745117188 485.554443359375 538.0643920898438 482.1894836425781 C 539.3567504882812 482.11102294921875 540.517578125 479.16009521484375 535.8202514648438 480.0651550292969 C 517.6245727539062 493.1202087402344 529.5355834960938 483.0591125488281 546.8824462890625 489.4296875" stroke-width="0.0" fill="rgb(249, 251, 252)" opacity="0.29933807"/>
    <path d="M 252.7610626220703 483.9593811035156 C 239.80848693847656 492.5087585449219 221.37066650390625 486.0181579589844 155.9805450439453 488.74432373046875 C 249.46514892578125 490.6929016113281 249.04220581054688 487.5367126464844 238.1540985107422 493.4521179199219 C 240.2853240966797 492.6539306640625 244.33856201171875 489.7117919921875 243.05899047851562 490.74310302734375 C 237.42811584472656 493.7619323730469 235.7802276611328 495.7721862792969 252.7610626220703 483.9593811035156" stroke-width="0.0" fill="rgb(158, 170, 166)" opacity="0.6901957"/>
    <path d="M 325.7779846191406 133.463623046875 C 329.0114440917969 130.6425018310547 324.0417785644531 136.34698486328125 329.8276062011719 130.60833740234375 C 340.1767272949219 138.00588989257812 336.59661865234375 132.1880645751953 333.9801940917969 133.0670623779297 C 355.19769287109375 140.47491455078125 345.5541076660156 136.42413330078125 327.6268310546875 133.52403259277344 C 313.9053955078125 132.81253051757812 327.24127197265625 136.03118896484375 325.7779846191406 133.463623046875" stroke-width="0.0" fill="rgb(245, 254, 251)" opacity="0.62882984"/>
    <path d="M 293.1160583496094 310.4722900390625 C 294.4110107421875 269.6433410644531 291.62164306640625 280.1890563964844 291.856689453125 307.4048156738281 C 291.9125061035156 309.13787841796875 291.7626647949219 306.0232849121094 291.8034362792969 304.8492126464844 C 291.8900146484375 314.4641418457031 291.9933166503906 310.5077819824219 291.7034912109375 305.65509033203125 C 291.9636535644531 321.7093811035156 294.24444580078125 343.95361328125 293.1160583496094 310.4722900390625" stroke-width="0.0" fill="rgb(147, 50, 21)" opacity="0.7179351"/>
    <path d="M 284.2771301269531 458.7408447265625 C 286.74432373046875 457.47320556640625 280.1358947753906 462.0933837890625 299.42022705078125 449.8509521484375 C 293.9081115722656 449.6617126464844 285.6047058105469 445.1210021972656 273.8279724121094 447.8897705078125 C 277.25006103515625 461.7088317871094 279.42230224609375 458.7641906738281 278.9078674316406 453.84466552734375 C 272.3182678222656 458.74713134765625 278.7572021484375 459.51361083984375 284.2771301269531 458.7408447265625" stroke-width="0.0" fill="rgb(0, 0, 0)" opacity="1.0"/>
    <path d="M 450.0565490722656 478.8061218261719 C 453.1241455078125 479.5637512207031 445.58477783203125 477.8470764160156 451.7604064941406 475.0614929199219 C 458.06744384765625 480.9505615234375 450.0359802246094 478.1556091308594 453.8653564453125 479.1255798339844 C 453.0367431640625 485.5315246582031 452.5057373046875 482.0413818359375 450.9634704589844 485.23004150390625 C 450.48809814453125 480.858154296875 450.6230773925781 485.4306945800781 450.0565490722656 478.8061218261719" stroke-width="0.0" fill="rgb(218, 218, 220)" opacity="0.04211219"/>
    <path d="M 201.76097106933594 493.8814697265625 C 205.9663848876953 492.85247802734375 200.47727966308594 494.4158630371094 206.98489379882812 492.4695129394531 C 206.45111083984375 501.1826477050781 203.8330841064453 494.1773986816406 202.25607299804688 487.7825927734375 C 207.30201721191406 505.07403564453125 208.73324584960938 501.47222900390625 207.65130615234375 492.4942626953125 C 205.30996704101562 500.6871643066406 203.80038452148438 505.9381103515625 201.76097106933594 493.8814697265625" stroke-width="0.0" fill="rgb(0, 0, 0)" opacity="0.39849296"/>
    <path d="M 196.2899932861328 227.18101501464844 C 197.89346313476562 223.38912963867188 195.19960021972656 230.2266845703125 197.24053955078125 219.77101135253906 C 195.79000854492188 216.9449005126953 207.94332885742188 212.1331329345703 203.9072265625 225.16897583007812 C 202.4091339111328 224.82920837402344 210.918701171875 217.32008361816406 195.39039611816406 216.8101806640625 C 193.2365264892578 230.4756317138672 197.13595581054688 248.44146728515625 196.2899932861328 227.18101501464844" stroke-width="0.0" fill="rgb(54, 102, 98)" opacity="0.42648634"/>
    <path d="M 353.2420654296875 480.1773376464844 C 357.4014587402344 479.99127197265625 348.5005798339844 480.34295654296875 355.44873046875 480.53070068359375 C 363.6453552246094 479.97601318359375 356.7081604003906 479.6119384765625 353.12249755859375 479.5224304199219 C 350.0531311035156 483.5819396972656 354.71197509765625 478.5071105957031 353.4949035644531 479.8216247558594 C 352.17364501953125 481.41973876953125 350.7587890625 483.2262878417969 353.2420654296875 480.1773376464844" stroke-width="0.0" fill="rgb(198, 200, 201)" opacity="0.021281062"/>
    <path d="M 267.75543212890625 152.8587188720703 C 267.2002868652344 147.41983032226562 267.4353942871094 150.40869140625 268.2723693847656 156.03512573242188 C 267.4957275390625 150.58230590820312 267.1593017578125 148.05149841308594 267.7863464355469 152.48947143554688 C 278.5291442871094 154.28826904296875 293.6717529296875 159.59185791015625 275.39605712890625 151.7017822265625 C 236.27944946289062 150.4876708984375 246.09878540039062 153.77882385253906 267.75543212890625 152.8587188720703" stroke-width="0.0" fill="rgb(41, 8, 6)" opacity="0.9371146"/>
    <path d="M 247.74468994140625 526.7794189453125 C 236.97918701171875 522.2879028320312 235.8589324951172 526.8807983398438 340.3243713378906 523.6611328125 C 279.6225280761719 522.1137084960938 257.77227783203125 523.4159545898438 238.63409423828125 522.7628173828125 C 257.85235595703125 531.562255859375 254.40060424804688 529.5797729492188 243.6587371826172 525.113525390625 C 249.2494354248047 527.3306884765625 251.99127197265625 528.9972534179688 247.74468994140625 526.7794189453125" stroke-width="0.0" fill="rgb(115, 139, 137)" opacity="0.38369668"/>
    <path d="M 349.5379333496094 477.45428466796875 C 328.99212646484375 470.4155578613281 344.47906494140625 476.82025146484375 347.6474914550781 477.0726623535156 C 350.1754455566406 476.5350036621094 326.16021728515625 474.49957275390625 328.9814453125 453.2864074707031 C 327.78643798828125 444.10052490234375 327.9678039550781 448.796630859375 331.3489074707031 464.54913330078125 C 339.38140869140625 476.01751708984375 348.9595031738281 475.43682861328125 349.5379333496094 477.45428466796875" stroke-width="0.0" fill="rgb(92, 105, 119)" opacity="0.65638506"/>
    <path d="M 121.51885223388672 518.7913208007812 C 126.10503387451172 519.9190673828125 121.40171813964844 527.0302124023438 118.89181518554688 529.5986328125 C 120.58203887939453 520.6879272460938 121.7763671875 516.2870483398438 120.99910736083984 536.5587158203125 C 130.57659912109375 540.1033325195312 138.9942626953125 533.1710815429688 143.5115509033203 517.2804565429688 C 114.2342300415039 520.4754638671875 119.27543640136719 528.6198120117188 121.51885223388672 518.7913208007812" stroke-width="0.0" fill="rgb(0, 0, 0)" opacity="0.9998691"/>
    <path d="M 491.2371520996094 480.7701110839844 C 490.5323486328125 480.532958984375 484.8323974609375 480.1174621582031 491.7688903808594 480.4195251464844 C 498.07269287109375 482.1863708496094 491.0914306640625 480.5015869140625 488.599609375 480.03411865234375 C 493.3784484863281 482.5050354003906 493.1598205566406 481.1247253417969 492.6080322265625 481.30352783203125 C 485.28033447265625 479.86785888671875 497.61376953125 481.6793518066406 491.2371520996094 480.7701110839844" stroke-width="0.0" fill="rgb(237, 237, 233)" opacity="0.56374997"/>
    <path d="M 444.0384521484375 479.9341735839844 C 449.3858642578125 479.77447509765625 439.809814453125 480.2288513183594 437.4732360839844 480.4210205078125 C 446.16162109375 480.44024658203125 444.7150573730469 479.5899353027344 445.7872619628906 478.89306640625 C 436.167724609375 485.2569885253906 446.6988220214844 478.4809265136719 439.6031188964844 483.6069030761719 C 439.686767578125 482.4350891113281 440.5814514160156 483.1240539550781 444.0384521484375 479.9341735839844" stroke-width="0.0" fill="rgb(203, 201, 201)" opacity="0.2145287"/>
    <path d="M 289.57861328125 456.58642578125 C 286.0874328613281 457.6781311035156 278.3685607910156 461.83441162109375 296.9320373535156 455.8189697265625 C 292.6932373046875 451.7870178222656 283.612548828125 446.3330993652344 279.8919982910156 449.888427734375 C 274.4441223144531 461.1569519042969 279.8726806640625 453.39227294921875 278.1371154785156 457.4952392578125 C 274.5218811035156 458.3232727050781 283.163330078125 457.89434814453125 289.57861328125 456.58642578125" stroke-width="0.0" fill="rgb(0, 0, 0)" opacity="0.75767916"/>
    <path d="M 68.78334045410156 422.27850341796875 C 65.60809326171875 405.24224853515625 64.26061248779297 420.67510986328125 71.24486541748047 426.038330078125 C 70.98915100097656 429.9878234863281 69.46913146972656 420.53472900390625 68.51048278808594 424.4544372558594 C 71.45952606201172 430.4742126464844 73.10592651367188 429.102294921875 76.13289642333984 429.16851806640625 C 64.3448257446289 429.0721130371094 75.80651092529297 431.878662109375 68.78334045410156 422.27850341796875" stroke-width="0.0" fill="rgb(181, 180, 185)" opacity="0.82227963"/>
    <path d="M 535.8719482421875 489.8002014160156 C 527.2115478515625 489.497314453125 524.5114135742188 479.47406005859375 534.7496948242188 482.3700256347656 C 531.451416015625 488.0621643066406 523.8516235351562 482.61163330078125 523.7937622070312 480.4123840332031 C 519.4439697265625 482.1024475097656 527.3582763671875 479.0570983886719 524.3124389648438 480.524169921875 C 523.0382690429688 481.5506286621094 528.2670288085938 489.88848876953125 535.8719482421875 489.8002014160156" stroke-width="0.0" fill="rgb(236, 239, 237)" opacity="0.061961807"/>
    <path d="M 399.164794921875 476.453857421875 C 396.3506774902344 477.1520690917969 390.1829833984375 478.97357177734375 399.76788330078125 476.2161865234375 C 401.8672790527344 479.0734558105469 402.2351379394531 477.00433349609375 423.1816101074219 456.3875732421875 C 385.2019958496094 472.3664855957031 389.39923095703125 469.7849426269531 380.2923278808594 471.4053649902344 C 391.5190124511719 485.8061828613281 403.9045104980469 481.4178466796875 399.164794921875 476.453857421875" stroke-width="0.0" fill="rgb(241, 243, 245)" opacity="0.41516986"/>
    <path d="M 135.78282165527344 491.02239990234375 C 141.62413024902344 497.3810119628906 134.1470184326172 505.83636474609375 131.3270263671875 511.9886169433594 C 135.9809112548828 515.9618530273438 128.08154296875 508.2493591308594 132.04788208007812 515.7379760742188 C 140.4952392578125 514.7494506835938 145.8382110595703 507.64642333984375 133.89971923828125 499.25360107421875 C 132.20635986328125 508.9046630859375 132.70892333984375 513.113037109375 135.78282165527344 491.02239990234375" stroke-width="0.0" fill="rgb(0, 0, 0)" opacity="0.6147267"/>
    <path d="M 569.8225708007812 480.1498718261719 C 573.6298828125 481.54534912109375 574.3533325195312 482.7801513671875 572.1292114257812 481.1728820800781 C 576.6973876953125 484.02227783203125 570.0390625 477.6455078125 576.5042114257812 484.591064453125 C 581.6419067382812 483.6561584472656 583.84521484375 482.7250671386719 572.4977416992188 475.1736755371094 C 566.802978515625 477.76849365234375 573.9336547851562 482.27960205078125 569.8225708007812 480.1498718261719" stroke-width="0.0" fill="rgb(234, 235, 234)" opacity="0.058394186"/>
    <path d="M 321.562255859375 498.8855895996094 C 329.24334716796875 495.08087158203125 324.3143615722656 497.4024963378906 327.2178955078125 496.0531311035156 C 334.6855163574219 492.16497802734375 332.9942626953125 493.2178039550781 322.625 498.3204345703125 C 326.4290466308594 506.1799011230469 338.35955810546875 499.347412109375 361.5323486328125 502.6026306152344 C 324.8475341796875 502.945068359375 325.57611083984375 504.80584716796875 321.562255859375 498.8855895996094" stroke-width="0.0" fill="rgb(92, 100, 99)" opacity="0.91225934"/>
    <path d="M 137.91075134277344 410.7021179199219 C 127.70121765136719 407.5389099121094 121.2856674194336 405.6147155761719 131.09869384765625 408.58990478515625 C 131.0635986328125 408.4136657714844 124.43387603759766 403.2799987792969 131.15574645996094 408.52520751953125 C 138.30624389648438 411.55474853515625 140.69081115722656 409.0147399902344 100.59219360351562 410.5587463378906 C 117.26673889160156 412.0386657714844 143.3251953125 411.7596130371094 137.91075134277344 410.7021179199219" stroke-width="0.0" fill="rgb(137, 32, 24)" opacity="0.6871395"/>
    <path d="M 550.7758178710938 482.1094970703125 C 562.3844604492188 478.6691589355469 554.5845336914062 483.75531005859375 559.822998046875 475.8433532714844 C 549.9166870117188 477.9905700683594 548.6751708984375 481.5456237792969 558.052734375 481.66754150390625 C 555.6417846679688 481.58740234375 564.0448608398438 478.04681396484375 564.6554565429688 483.09197998046875 C 551.2783203125 488.3642883300781 549.639404296875 486.93328857421875 550.7758178710938 482.1094970703125" stroke-width="0.0" fill="rgb(226, 225, 242)" opacity="0.047411263"/>
    <path d="M 440.5105285644531 479.55902099609375 C 443.7026062011719 479.3961486816406 439.51806640625 480.95953369140625 449.34320068359375 481.6770935058594 C 445.9656066894531 485.29949951171875 437.01727294921875 479.1117248535156 436.1584167480469 479.735595703125 C 432.4387512207031 482.5458068847656 437.64874267578125 476.2283630371094 435.8135681152344 476.85235595703125 C 439.1487731933594 478.69146728515625 448.4615173339844 482.2010498046875 440.5105285644531 479.55902099609375" stroke-width="0.0" fill="rgb(234, 238, 238)" opacity="0.061988715"/>
    <path d="M 545.8753051757812 491.30364990234375 C 541.3677368164062 488.29144287109375 531.9834594726562 480.3111572265625 546.857666015625 490.9776611328125 C 548.6724853515625 486.31402587890625 546.8275756835938 490.4096984863281 434.4963684082031 487.75250244140625 C 567.8682250976562 485.89093017578125 541.5012817382812 486.3712158203125 549.0677490234375 498.8957824707031 C 547.5444946289062 481.8441162109375 545.9124145507812 497.6357421875 545.8753051757812 491.30364990234375" stroke-width="0.0" fill="rgb(167, 187, 189)" opacity="0.72162515"/>
    <path d="M 132.57833862304688 513.474853515625 C 125.14968872070312 520.5457763671875 118.77752685546875 530.1577758789062 137.45005798339844 518.3514404296875 C 131.2572784423828 512.6580810546875 127.55995178222656 511.729248046875 125.58878326416016 536.095703125 C 121.42225646972656 530.4359130859375 129.67613220214844 524.2442016601562 128.71080017089844 522.0107421875 C 123.27566528320312 508.98583984375 130.0558319091797 514.1675415039062 132.57833862304688 513.474853515625" stroke-width="0.0" fill="rgb(0, 0, 0)" opacity="0.85358983"/>
    <path d="M 210.19247436523438 509.8514099121094 C 211.5016326904297 510.72412109375 205.19412231445312 509.6513366699219 210.7469940185547 514.6412353515625 C 217.0363006591797 514.5775756835938 215.18548583984375 506.2655029296875 207.4142608642578 504.8970947265625 C 213.56008911132812 521.2495727539062 216.6914825439453 516.3674926757812 209.66543579101562 511.963134765625 C 211.4553985595703 517.7608032226562 209.4005584716797 520.5441284179688 210.19247436523438 509.8514099121094" stroke-width="0.0" fill="rgb(255, 255, 255)" opacity="0.57803875"/>
    <path d="M 155.8066864013672 542.5984497070312 C 144.44239807128906 532.6571044921875 132.04696655273438 540.171875 121.9625015258789 536.6578979492188 C 129.472412109375 542.4479370117188 122.78999328613281 537.1958618164062 123.89948272705078 553.0772705078125 C 133.49159240722656 553.8623657226562 136.24005126953125 552.2105712890625 132.9338836669922 548.2935180664062 C 123.94279479980469 545.2885131835938 129.9952850341797 552.33544921875 155.8066864013672 542.5984497070312" stroke-width="0.0" fill="rgb(238, 246, 244)" opacity="0.21131809"/>
    <path d="M 444.14007568359375 477.3263854980469 C 442.888916015625 477.8850402832031 436.70458984375 480.2168273925781 440.67864990234375 478.4083557128906 C 450.6914978027344 477.4304504394531 445.73834228515625 477.9087219238281 441.962646484375 478.2262878417969 C 436.1263122558594 480.8678283691406 446.3341979980469 476.28961181640625 444.15118408203125 477.317138671875 C 444.7884216308594 478.79437255859375 446.8998718261719 483.6609191894531 444.14007568359375 477.3263854980469" stroke-width="0.0" fill="rgb(230, 225, 224)" opacity="0.34337834"/>
    <path d="M 284.3036804199219 458.31317138671875 C 287.9512634277344 456.1017150878906 280.81494140625 460.5191650390625 298.1185607910156 452.9502868652344 C 292.3620910644531 453.1943664550781 284.4503173828125 448.122314453125 280.9798889160156 448.01055908203125 C 274.7865295410156 461.009033203125 279.7967834472656 453.08740234375 277.7685852050781 458.02911376953125 C 274.20074462890625 458.9778747558594 279.5288391113281 459.4626770019531 284.3036804199219 458.31317138671875" stroke-width="0.0" fill="rgb(0, 0, 0)" opacity="0.73603636"/>
    <path d="M 401.4713134765625 473.832275390625 C 394.7712707519531 477.3995361328125 388.5746154785156 481.292724609375 391.3254089355469 479.83642578125 C 404.3888854980469 477.6743469238281 398.8335266113281 476.1722412109375 395.9084167480469 475.0505065917969 C 393.8179016113281 483.4860534667969 394.773193359375 478.0673522949219 393.31866455078125 483.34796142578125 C 394.4349060058594 475.1607971191406 400.4761657714844 481.0885314941406 401.4713134765625 473.832275390625" stroke-width="0.0" fill="rgb(255, 255, 255)" opacity="0.3006928"/>
    <path d="M 209.19288635253906 514.0173950195312 C 210.45550537109375 502.8855895996094 209.368408203125 508.4108581542969 209.40957641601562 507.4822998046875 C 211.2271270751953 506.103759765625 207.5761260986328 494.53558349609375 204.1820526123047 489.4562683105469 C 203.4709014892578 505.58111572265625 206.60008239746094 501.8377990722656 207.52957153320312 498.3782958984375 C 207.932373046875 496.01739501953125 211.18930053710938 500.8237609863281 209.19288635253906 514.0173950195312" stroke-width="0.0" fill="rgb(0, 0, 0)" opacity="0.02245649"/>
    <path d="M 206.87405395507812 503.4814147949219 C 203.8996124267578 504.5770568847656 203.98089599609375 505.3595886230469 206.97283935546875 505.8402404785156 C 212.67971801757812 506.84307861328125 209.26327514648438 503.69464111328125 208.07595825195312 503.7061462402344 C 176.4697265625 502.8656921386719 205.38711547851562 504.6686706542969 208.69761657714844 505.81768798828125 C 210.29843139648438 506.46826171875 211.08396911621094 506.2774963378906 206.87405395507812 503.4814147949219" stroke-width="0.0" fill="rgb(230, 255, 253)" opacity="0.33533564"/>
    <path d="M 573.35107421875 477.5261535644531 C 574.4619140625 479.2274475097656 573.460693359375 480.0951843261719 572.116455078125 479.2247619628906 C 576.7527465820312 482.0299072265625 569.4608764648438 477.53271484375 575.999267578125 481.376708984375 C 581.0287475585938 483.4901428222656 583.7448120117188 484.614013671875 569.9282836914062 478.3504638671875 C 568.2700805664062 477.2471618652344 575.59423828125 482.0667724609375 573.35107421875 477.5261535644531" stroke-width="0.0" fill="rgb(193, 193, 192)" opacity="0.5982709"/>
    <path d="M 120.99712371826172 525.5067749023438 C 126.04167175292969 521.564453125 119.25662231445312 525.9990234375 127.91020965576172 518.6443481445312 C 126.8864974975586 516.3428344726562 124.06510162353516 512.6858520507812 124.37232208251953 527.6844482421875 C 119.34841918945312 524.4591064453125 125.80010223388672 517.8911743164062 118.91922760009766 505.9107666015625 C 118.82987213134766 517.9569091796875 120.23563385009766 524.2515258789062 120.99712371826172 525.5067749023438" stroke-width="0.0" fill="rgb(0, 0, 0)" opacity="0.6513713"/>
    <path d="M 553.6119384765625 482.28326416015625 C 559.2167358398438 476.2535705566406 556.5305786132812 478.9682922363281 558.0521850585938 475.4141540527344 C 555.7393188476562 483.1153564453125 554.22607421875 477.6169738769531 553.9329833984375 478.44281005859375 C 555.5174560546875 482.4210510253906 561.0681762695312 474.6265869140625 562.3992919921875 474.49725341796875 C 549.4152221679688 485.6015319824219 549.6224975585938 485.6177978515625 553.6119384765625 482.28326416015625" stroke-width="0.0" fill="rgb(218, 210, 214)" opacity="0.12633748"/>
    <path d="M 138.8545379638672 505.4002685546875 C 141.6670379638672 509.7298889160156 141.97027587890625 511.980712890625 140.1292724609375 509.71759033203125 C 143.28904724121094 515.034912109375 141.057373046875 514.7935180664062 160.1426544189453 515.787841796875 C 126.70761108398438 517.981201171875 148.92147827148438 513.7867431640625 146.52163696289062 515.2647705078125 C 135.15431213378906 510.01629638671875 142.74124145507812 515.7454223632812 138.8545379638672 505.4002685546875" stroke-width="0.0" fill="rgb(105, 147, 148)" opacity="0.5762513"/>
    <path d="M 129.16514587402344 552.9627075195312 C 136.54129028320312 540.9790649414062 131.87319946289062 540.1807861328125 132.53111267089844 537.0430297851562 C 134.22889709472656 544.5031127929688 133.26126098632812 541.9848022460938 132.16236877441406 547.9622802734375 C 130.57106018066406 547.4747924804688 137.84637451171875 545.180419921875 139.58920288085938 545.6743774414062 C 129.21868896484375 545.6077880859375 131.44467163085938 551.5123291015625 129.16514587402344 552.9627075195312" stroke-width="0.0" fill="rgb(212, 220, 223)" opacity="0.3804343"/>
    <path d="M 189.54234313964844 277.94775390625 C 191.70538330078125 268.2822570800781 188.42591857910156 272.7890930175781 187.38934326171875 272.4170227050781 C 201.020263671875 267.19195556640625 199.71994018554688 266.064208984375 189.96041870117188 269.56842041015625 C 189.92300415039062 281.7337951660156 195.6735382080078 278.6094055175781 179.724853515625 274.8512878417969 C 187.1234588623047 275.555419921875 195.1378631591797 278.41461181640625 189.54234313964844 277.94775390625" stroke-width="0.0" fill="rgb(0, 4, 5)" opacity="0.23104015"/>
    <path d="M 378.0019836425781 362.1210021972656 C 369.08905029296875 329.74505615234375 370.5400085449219 336.735595703125 371.1399230957031 347.6858215332031 C 371.40472412109375 346.15582275390625 372.7757263183594 338.60577392578125 371.7430725097656 344.07745361328125 C 371.0497741699219 347.8436279296875 372.2961120605469 342.9228820800781 372.6650390625 344.6309814453125 C 370.3733215332031 344.1311950683594 370.32537841796875 352.11322021484375 378.0019836425781 362.1210021972656" stroke-width="0.0" fill="rgb(0, 0, 2)" opacity="0.603908"/>
    <path d="M 501.4234313964844 434.6253356933594 C 504.67547607421875 426.09027099609375 500.39471435546875 433.615234375 508.17254638671875 430.58636474609375 C 512.11181640625 421.8762512207031 508.8725891113281 419.8551940917969 503.7241516113281 431.0269775390625 C 502.528564453125 432.19573974609375 508.16766357421875 429.7682189941406 506.6907958984375 431.83990478515625 C 500.59881591796875 429.16729736328125 503.583251953125 433.5562744140625 501.4234313964844 434.6253356933594" stroke-width="0.0" fill="rgb(160, 182, 183)" opacity="0.12716046"/>
    <path d="M 456.10882568359375 437.95758056640625 C 474.7765808105469 432.57611083984375 446.70098876953125 437.91796875 440.2200622558594 441.5585632324219 C 459.2330627441406 437.97418212890625 456.5908203125 435.1575012207031 453.2757568359375 443.6290588378906 C 451.356201171875 446.95733642578125 454.33355712890625 441.3037414550781 453.2567138671875 443.5299072265625 C 450.4878845214844 448.8096008300781 452.0528564453125 445.9239196777344 456.10882568359375 437.95758056640625" stroke-width="0.0" fill="rgb(104, 138, 127)" opacity="0.5951092"/>
    <path d="M 430.8023376464844 451.1775817871094 C 425.33880615234375 452.542236328125 419.2661437988281 453.861083984375 430.9016418457031 451.4240417480469 C 446.7177734375 437.9374694824219 445.1706237792969 443.0899963378906 430.0428161621094 452.6402282714844 C 404.9099426269531 465.243408203125 411.83941650390625 459.7913513183594 424.8036193847656 453.9991149902344 C 437.5821838378906 447.16180419921875 436.82696533203125 446.3482666015625 430.8023376464844 451.1775817871094" stroke-width="0.0" fill="rgb(101, 132, 118)" opacity="0.6714026"/>
    <path d="M 109.67774200439453 507.42218017578125 C 116.59805297851562 496.7622985839844 122.41248321533203 498.9007263183594 119.05778503417969 515.5608520507812 C 119.4103012084961 521.1203002929688 121.14862823486328 521.3203125 118.79485321044922 525.1737060546875 C 117.48229217529297 515.9151000976562 120.56989288330078 501.1518859863281 115.84646606445312 500.9225158691406 C 112.2284927368164 503.52392578125 109.6925277709961 506.6895446777344 109.67774200439453 507.42218017578125" stroke-width="0.0" fill="rgb(157, 158, 139)" opacity="0.5558901"/>
  </g>
</svg>
