<?xml version="1.0" ?>
<svg xmlns="http://www.w3.org/2000/svg" version="1.1" width="600" height="600">
  <defs/>
  <g>
    <path d="M 359.88104248046875 414.9700927734375 C 259.6625671386719 637.875 244.53192138671875 614.4218139648438 20.959184646606445 617.960205078125 C -14.096549987792969 630.1954956054688 -20.293609619140625 623.9188232421875 -56.71080780029297 348.6632080078125 C -93.32792663574219 275.71588134765625 -114.1571044921875 232.06715393066406 184.92916870117188 190.1685333251953 C 393.03765869140625 267.7148742675781 428.4298095703125 224.346923828125 359.88104248046875 414.9700927734375" stroke-width="0.0" fill="rgb(60, 76, 90)" opacity="0.53111136"/>
    <path d="M 528.3051147460938 -5.339130401611328 C 515.0648193359375 153.30723571777344 577.8511962890625 225.19212341308594 525.0697021484375 289.43798828125 C 286.69122314453125 232.80313110351562 334.80755615234375 161.7918701171875 346.62042236328125 52.063507080078125 C 330.3233642578125 -4.270231246948242 351.4919128417969 -14.486184120178223 453.6632995605469 -26.431137084960938 C 504.2227478027344 -15.224489212036133 527.6541137695312 -24.160179138183594 528.3051147460938 -5.339130401611328" stroke-width="0.0" fill="rgb(87, 114, 87)" opacity="0.98083574"/>
    <path d="M 574.7920532226562 501.0364990234375 C 516.06982421875 567.8032836914062 491.8129577636719 569.2389526367188 337.7478942871094 619.0951538085938 C 256.5265808105469 706.7504272460938 218.51905822753906 742.93310546875 190.66018676757812 460.48809814453125 C 384.5312194824219 346.15594482421875 486.01678466796875 404.00091552734375 519.2672119140625 410.0888671875 C 579.4248657226562 416.56842041015625 588.5100708007812 443.67718505859375 574.7920532226562 501.0364990234375" stroke-width="0.0" fill="rgb(88, 122, 109)" opacity="0.98869365"/>
    <path d="M 616.6464233398438 27.584632873535156 C 606.045654296875 196.57986450195312 604.4453125 199.7388458251953 558.4580078125 194.54542541503906 C 499.52252197265625 124.87069702148438 478.4184265136719 119.7233657836914 441.2048034667969 28.100364685058594 C 419.4876403808594 -13.902655601501465 398.9320983886719 -28.334857940673828 540.5751342773438 -23.651254653930664 C 616.4534301757812 -16.9198055267334 622.1636962890625 -8.089035034179688 616.6464233398438 27.584632873535156" stroke-width="0.0" fill="rgb(233, 138, 25)" opacity="0.99831915"/>
    <path d="M 272.0132751464844 115.85594177246094 C 203.25064086914062 176.23605346679688 161.82476806640625 180.55979919433594 117.7294692993164 202.4090118408203 C 94.73976135253906 123.02180480957031 49.308433532714844 141.83035278320312 55.109153747558594 125.1227798461914 C 81.0238037109375 104.56576538085938 114.21844482421875 109.69288635253906 217.9384307861328 75.62579345703125 C 219.84634399414062 -23.695899963378906 204.5644073486328 4.058055400848389 272.0132751464844 115.85594177246094" stroke-width="0.0" fill="rgb(92, 62, 30)" opacity="0.6745866"/>
    <path d="M 656.9273681640625 483.02044677734375 C 643.6641845703125 577.465576171875 649.7089233398438 582.6239624023438 597.6321411132812 576.2872924804688 C 435.00592041015625 559.69287109375 360.8580627441406 577.4847412109375 403.6446838378906 537.9710083007812 C 518.5807495117188 490.6317138671875 510.877685546875 442.38531494140625 516.83251953125 393.456787109375 C 603.8037109375 398.70074462890625 649.0635986328125 385.1926574707031 656.9273681640625 483.02044677734375" stroke-width="0.0" fill="rgb(75, 56, 9)" opacity="0.7980092"/>
    <path d="M 161.6871337890625 27.02869415283203 C 168.13560485839844 136.84861755371094 141.66934204101562 134.1912078857422 24.321308135986328 144.3893585205078 C -13.571895599365234 145.48812866210938 -26.645700454711914 139.64183044433594 -31.489959716796875 29.54691505432129 C -17.392807006835938 -18.179319381713867 -8.031432151794434 -22.795265197753906 107.38499450683594 -43.24672317504883 C 152.42489624023438 -52.273956298828125 155.94869995117188 -45.074073791503906 161.6871337890625 27.02869415283203" stroke-width="0.0" fill="rgb(231, 131, 0)" opacity="0.90673935"/>
    <path d="M 372.88458251953125 111.07096862792969 C 324.344970703125 99.45963287353516 246.4013214111328 104.83747100830078 189.99668884277344 169.38180541992188 C 99.8090591430664 162.06651306152344 109.67510986328125 143.2635040283203 111.06302642822266 15.263860702514648 C 74.75971984863281 -11.504637718200684 86.19055938720703 -20.282190322875977 230.93301391601562 -31.16922378540039 C 311.9864807128906 -47.10993194580078 361.55230712890625 -54.869937896728516 372.88458251953125 111.07096862792969" stroke-width="0.0" fill="rgb(233, 148, 25)" opacity="1.0"/>
    <path d="M 430.6440124511719 138.99362182617188 C 515.8128051757812 264.35906982421875 564.085205078125 316.72320556640625 155.83700561523438 298.1368408203125 C 132.19140625 378.44427490234375 82.11466979980469 216.28746032714844 245.2530059814453 120.71424102783203 C 344.88385009765625 66.87779998779297 405.0224914550781 165.2425079345703 289.0381774902344 3.6780524253845215 C 392.44000244140625 -15.81721019744873 350.479248046875 32.55654525756836 430.6440124511719 138.99362182617188" stroke-width="0.0" fill="rgb(102, 216, 182)" opacity="0.581942"/>
    <path d="M 630.6129760742188 399.2055358886719 C 623.7269287109375 471.1654357910156 622.9380493164062 484.0786437988281 573.309326171875 520.1980590820312 C 516.8414306640625 446.7945556640625 481.8090515136719 436.3326110839844 494.00445556640625 369.1959533691406 C 518.9102783203125 340.9881286621094 495.0576477050781 311.2939758300781 568.8961181640625 318.43060302734375 C 636.8392333984375 316.408935546875 642.90576171875 318.0326232910156 630.6129760742188 399.2055358886719" stroke-width="0.0" fill="rgb(84, 69, 35)" opacity="0.9942196"/>
    <path d="M 562.7928466796875 189.66983032226562 C 581.2195434570312 223.50433349609375 556.8666381835938 201.993896484375 491.93133544921875 188.4285430908203 C 474.7017822265625 171.56602478027344 450.81744384765625 168.27830505371094 390.9925231933594 134.38217163085938 C 386.33477783203125 9.604283332824707 390.4488220214844 32.74198913574219 464.4765625 40.1365852355957 C 502.626708984375 112.8349838256836 530.8683471679688 104.90743255615234 562.7928466796875 189.66983032226562" stroke-width="0.0" fill="rgb(222, 132, 66)" opacity="0.79533046"/>
    <path d="M 174.59877014160156 170.5122833251953 C 114.9765853881836 204.82980346679688 88.71569061279297 282.66949462890625 100.42224884033203 376.39422607421875 C -110.06583404541016 381.93829345703125 -95.3509521484375 365.7038879394531 -36.334388732910156 308.7001953125 C 30.356849670410156 114.55018615722656 2.2786877155303955 60.16968536376953 107.94233703613281 94.22652435302734 C 152.49928283691406 105.90338134765625 199.29904174804688 109.145263671875 174.59877014160156 170.5122833251953" stroke-width="0.0" fill="rgb(224, 141, 30)" opacity="0.99594796"/>
    <path d="M 640.76025390625 310.4805908203125 C 626.919677734375 342.3470153808594 567.0775146484375 279.8859558105469 407.7524719238281 449.5790710449219 C 309.2861022949219 422.6471862792969 274.553955078125 428.67437744140625 278.6412658691406 170.84033203125 C 478.2431335449219 250.16357421875 480.8084716796875 289.28546142578125 568.0950927734375 234.2429656982422 C 654.4030151367188 223.5561065673828 661.197509765625 234.64830017089844 640.76025390625 310.4805908203125" stroke-width="0.0" fill="rgb(90, 66, 95)" opacity="0.35647407"/>
    <path d="M 679.6775512695312 185.307373046875 C 651.5772705078125 284.2062683105469 637.5164794921875 279.82879638671875 534.5941772460938 276.6734619140625 C 528.0328979492188 236.50042724609375 529.5405883789062 228.90921020507812 461.41943359375 182.5438995361328 C 479.034423828125 91.76873779296875 448.6496887207031 107.81005859375 580.033447265625 95.3029556274414 C 626.49658203125 86.88842010498047 636.7379760742188 100.01905822753906 679.6775512695312 185.307373046875" stroke-width="0.0" fill="rgb(226, 139, 30)" opacity="0.9915129"/>
    <path d="M 94.55589294433594 120.80181121826172 C 73.88377380371094 227.37039184570312 129.31121826171875 276.07928466796875 20.59473419189453 260.3536071777344 C -46.87669372558594 254.729736328125 -39.016845703125 236.3326873779297 -45.151790618896484 138.04978942871094 C -43.42754364013672 93.43527221679688 -44.636024475097656 78.64173126220703 5.006016254425049 64.83987426757812 C 129.93968200683594 69.82749938964844 100.63020324707031 96.02164459228516 94.55589294433594 120.80181121826172" stroke-width="0.0" fill="rgb(228, 144, 22)" opacity="0.993819"/>
    <path d="M 624.8588256835938 572.1409301757812 C 609.6686401367188 659.28173828125 585.84765625 637.3558959960938 496.8301086425781 644.4196166992188 C 427.39129638671875 646.3448486328125 419.7511291503906 637.4562377929688 387.4364013671875 587.221923828125 C 402.87152099609375 514.4521484375 444.28363037109375 523.1239013671875 573.6015014648438 507.0750427246094 C 564.5835571289062 460.4349670410156 600.3577270507812 464.0544128417969 624.8588256835938 572.1409301757812" stroke-width="0.0" fill="rgb(83, 65, 37)" opacity="0.99222046"/>
    <path d="M 216.3479766845703 471.3547058105469 C 186.2549285888672 591.3233642578125 181.88088989257812 629.3614501953125 131.57716369628906 566.019287109375 C 60.567588806152344 548.86474609375 56.580421447753906 541.6109619140625 72.84153747558594 518.555419921875 C 82.1959457397461 494.9983825683594 69.01659393310547 465.4737854003906 148.87294006347656 435.95849609375 C 147.6061248779297 462.1439514160156 164.2787322998047 461.65374755859375 216.3479766845703 471.3547058105469" stroke-width="0.0" fill="rgb(230, 151, 13)" opacity="0.9844236"/>
    <path d="M 183.6408233642578 575.033935546875 C 161.7765655517578 638.226318359375 150.58016967773438 638.7887573242188 130.68984985351562 614.29296875 C 100.098876953125 610.2954711914062 94.25662231445312 601.7882690429688 79.64556884765625 557.8062744140625 C 48.72395706176758 546.0355834960938 48.86432647705078 543.9302978515625 82.12571716308594 549.6597900390625 C 138.3773193359375 559.060302734375 176.1465606689453 558.2570190429688 183.6408233642578 575.033935546875" stroke-width="0.0" fill="rgb(228, 147, 29)" opacity="0.8832284"/>
    <path d="M 423.3838195800781 414.7876892089844 C 292.91656494140625 577.0381469726562 273.0488586425781 565.08837890625 289.2357177734375 574.5726928710938 C 241.57240295410156 547.91552734375 259.42877197265625 515.1995239257812 213.8873748779297 513.8755493164062 C 168.72779846191406 454.93133544921875 178.8526611328125 424.9488220214844 225.9510040283203 472.9429016113281 C 296.761962890625 493.6893310546875 357.2358093261719 472.06292724609375 423.3838195800781 414.7876892089844" stroke-width="0.0" fill="rgb(57, 138, 137)" opacity="0.47614172"/>
    <path d="M 170.26983642578125 507.78094482421875 C 161.56265258789062 508.0870056152344 181.47166442871094 525.3766479492188 165.50537109375 598.2220458984375 C 121.0893783569336 593.4447631835938 93.77310180664062 588.667236328125 71.67915344238281 539.5274658203125 C 125.57770538330078 502.9667053222656 74.3339614868164 415.59527587890625 165.17037963867188 431.7964172363281 C 215.44387817382812 486.70037841796875 206.3778533935547 500.4957580566406 170.26983642578125 507.78094482421875" stroke-width="0.0" fill="rgb(232, 144, 27)" opacity="0.5718594"/>
    <path d="M 75.56396484375 589.5547485351562 C 94.70571899414062 610.8834838867188 80.76658630371094 607.1942749023438 28.280441284179688 638.9169921875 C -11.996828079223633 615.2105712890625 -18.52080535888672 606.3845825195312 -23.834117889404297 551.8485717773438 C -41.49142837524414 491.0963439941406 -44.74504089355469 477.4752502441406 23.040361404418945 465.377197265625 C 85.96345520019531 474.2011413574219 60.04633712768555 506.69610595703125 75.56396484375 589.5547485351562" stroke-width="0.0" fill="rgb(158, 96, 22)" opacity="0.9292238"/>
    <path d="M 237.47958374023438 599.8557739257812 C 207.6524658203125 602.84423828125 208.71939086914062 614.798095703125 199.37057495117188 625.9599609375 C 143.97222900390625 620.2794799804688 130.5568084716797 619.3396606445312 151.0049591064453 591.4257202148438 C 152.5599365234375 527.7625732421875 139.0525360107422 534.3516235351562 171.896728515625 548.1508178710938 C 220.8428497314453 551.6273803710938 232.3563232421875 563.6611328125 237.47958374023438 599.8557739257812" stroke-width="0.0" fill="rgb(225, 151, 5)" opacity="0.5577738"/>
    <path d="M 388.8758850097656 516.5086669921875 C 410.7274475097656 597.5090942382812 422.3327331542969 614.1463012695312 383.5713806152344 674.9191284179688 C 321.8719482421875 640.5192260742188 262.21966552734375 582.1469116210938 373.3721008300781 453.9792785644531 C 546.8154296875 294.653076171875 531.533203125 463.2552795410156 371.55413818359375 496.20928955078125 C 388.8834533691406 566.8358154296875 425.810791015625 520.165771484375 388.8758850097656 516.5086669921875" stroke-width="0.0" fill="rgb(35, 159, 135)" opacity="0.53342164"/>
    <path d="M 141.8828887939453 440.95843505859375 C 206.58010864257812 449.5926513671875 205.9982147216797 466.5233459472656 144.46505737304688 500.3057556152344 C -10.633734703063965 507.3657531738281 -9.863075256347656 500.0140380859375 -49.339237213134766 374.3371887207031 C -40.45194625854492 327.9925842285156 -7.022824287414551 345.8960876464844 89.2375717163086 337.6099853515625 C 96.95417022705078 353.15802001953125 99.18679809570312 395.0028076171875 141.8828887939453 440.95843505859375" stroke-width="0.0" fill="rgb(223, 144, 25)" opacity="0.9919371"/>
    <path d="M 61.174461364746094 636.0182495117188 C 102.56883239746094 644.1255493164062 86.38567352294922 631.7008666992188 55.352394104003906 619.0508422851562 C 29.994659423828125 612.7406005859375 14.151897430419922 613.9771118164062 21.63003921508789 629.2755737304688 C 25.738008499145508 573.6463623046875 23.709625244140625 554.993896484375 41.59620666503906 529.166015625 C 58.56101608276367 566.5360717773438 56.21225357055664 590.0608520507812 61.174461364746094 636.0182495117188" stroke-width="0.0" fill="rgb(178, 111, 3)" opacity="0.54594636"/>
    <path d="M 130.19789123535156 426.4423828125 C 133.77145385742188 528.8678588867188 157.14920043945312 570.1470947265625 132.11489868164062 558.67138671875 C 34.33518981933594 547.0486450195312 41.96626663208008 545.19287109375 33.86719512939453 471.12017822265625 C 10.458992958068848 419.66302490234375 9.679152488708496 431.6999816894531 93.73738861083984 440.0137634277344 C 171.0265655517578 446.7203674316406 149.31640625 416.8455505371094 130.19789123535156 426.4423828125" stroke-width="0.0" fill="rgb(229, 138, 30)" opacity="0.48080823"/>
    <path d="M 120.52265930175781 563.261474609375 C 143.489501953125 611.7710571289062 143.5779266357422 606.9483642578125 73.64811706542969 608.3583984375 C 6.680360317230225 599.4906005859375 2.7797608375549316 589.083740234375 -28.317081451416016 536.3775024414062 C -27.282115936279297 439.74127197265625 -19.719715118408203 443.8824462890625 45.91527557373047 486.5898132324219 C 111.23921203613281 499.2356872558594 100.83150482177734 495.03778076171875 120.52265930175781 563.261474609375" stroke-width="0.0" fill="rgb(234, 146, 21)" opacity="0.9996713"/>
    <path d="M 46.104835510253906 462.35498046875 C 62.547447204589844 531.2013549804688 72.35997009277344 574.6077270507812 51.1116943359375 549.6237182617188 C -31.8385009765625 540.3970336914062 -42.899261474609375 537.1990356445312 -41.06624221801758 498.9674072265625 C -31.566797256469727 421.57672119140625 -38.922027587890625 392.9970397949219 6.031672477722168 395.9525451660156 C 56.536258697509766 413.277099609375 42.11399841308594 428.4053955078125 46.104835510253906 462.35498046875" stroke-width="0.0" fill="rgb(233, 146, 13)" opacity="0.42870337"/>
    <path d="M 347.8923034667969 616.878173828125 C 346.3746032714844 662.0888061523438 301.3088684082031 636.8191528320312 213.88037109375 657.389892578125 C 166.6506805419922 666.5335693359375 152.2095489501953 656.0764770507812 152.45510864257812 590.5652465820312 C 202.78530883789062 562.782958984375 174.3206787109375 529.424560546875 149.7010955810547 487.0680236816406 C 239.37646484375 501.1178283691406 303.75592041015625 485.8124084472656 347.8923034667969 616.878173828125" stroke-width="0.0" fill="rgb(240, 145, 15)" opacity="0.96633327"/>
    <path d="M 85.71617126464844 354.8245849609375 C 115.47770690917969 427.1227722167969 112.84556579589844 407.0343322753906 -0.972695529460907 410.0552978515625 C -11.364205360412598 422.59564208984375 -14.071863174438477 412.9189453125 -8.618538856506348 366.2731018066406 C -0.3240792155265808 287.988525390625 12.05750846862793 288.409423828125 44.27179718017578 301.61199951171875 C 83.88236999511719 297.3561706542969 97.2642593383789 284.6029052734375 85.71617126464844 354.8245849609375" stroke-width="0.0" fill="rgb(231, 138, 35)" opacity="0.20735717"/>
    <path d="M 192.4613800048828 562.4837646484375 C 202.2940216064453 591.5653076171875 201.7443084716797 606.4461669921875 167.91354370117188 637.98095703125 C 119.20309448242188 652.0105590820312 120.20606231689453 637.8362426757812 121.0146713256836 591.159912109375 C 116.28474426269531 520.9810180664062 106.28963470458984 557.5031127929688 155.31173706054688 550.9649658203125 C 191.95701599121094 553.0114135742188 189.23182678222656 561.1461791992188 192.4613800048828 562.4837646484375" stroke-width="0.0" fill="rgb(232, 150, 16)" opacity="0.78598654"/>
    <path d="M 20.32232093811035 0.2503679096698761 C 17.6428279876709 10.250368118286133 10.322321891784668 17.57087516784668 0.3223215937614441 20.250368118286133 C -9.677678108215332 17.57087516784668 -16.998186111450195 10.250368118286133 -19.67767906188965 0.2503679096698761 C -16.998186111450195 -9.749631881713867 -9.677678108215332 -17.070138931274414 0.3223215937614441 -19.749631881713867 C 10.322321891784668 -17.070138931274414 17.6428279876709 -9.749631881713867 20.32232093811035 0.2503679096698761" stroke-width="0.0" fill="rgb(249, 51, 54)" opacity="0.7518272" stroke="rgb(96, 232, 156)" stroke-opacity="0.41194654" stroke-linecap="round" stroke-linejoin="round"/>
    <path d="M 476.8057861328125 29.53464698791504 C 465.7454833984375 108.61429595947266 439.00341796875 105.39337921142578 365.7117004394531 121.33121490478516 C 331.50634765625 143.95208740234375 323.0935363769531 136.9503936767578 320.75115966796875 106.99446868896484 C 398.2915954589844 65.36963653564453 429.8540954589844 85.98654174804688 423.7166442871094 -9.10547924041748 C 443.9126281738281 21.15584945678711 438.8970031738281 29.81570816040039 476.8057861328125 29.53464698791504" stroke-width="0.0" fill="rgb(254, 76, 163)" opacity="0.8256811"/>
    <path d="M 249.42930603027344 243.29495239257812 C 229.6172637939453 258.2079162597656 142.59254455566406 183.65933227539062 203.16534423828125 450.1568603515625 C 174.05824279785156 457.0261535644531 101.84626007080078 336.5582580566406 128.84808349609375 211.4400634765625 C 154.5433807373047 178.49671936035156 190.89288330078125 118.38064575195312 267.17401123046875 123.98985290527344 C 303.08721923828125 166.28060913085938 265.5536193847656 188.79637145996094 249.42930603027344 243.29495239257812" stroke-width="0.0" fill="rgb(37, 203, 202)" opacity="0.8408395"/>
    <path d="M 535.1243286132812 138.9091796875 C 539.700439453125 192.43624877929688 553.6740112304688 179.8341827392578 460.2158203125 183.3437042236328 C 404.40673828125 148.82992553710938 410.448974609375 137.79486083984375 416.6092224121094 82.81768798828125 C 444.7768249511719 113.22833251953125 438.1492919921875 69.64575958251953 446.1571044921875 33.91717529296875 C 527.5039672851562 31.21629524230957 547.4026489257812 22.62467384338379 535.1243286132812 138.9091796875" stroke-width="0.0" fill="rgb(229, 141, 24)" opacity="0.9651064"/>
    <path d="M 506.5832824707031 269.4015197753906 C 362.83160400390625 302.9385070800781 321.6269836425781 285.2829895019531 337.4743347167969 232.96054077148438 C 312.1176452636719 193.17709350585938 299.2919921875 185.0677032470703 232.18911743164062 131.6165771484375 C 245.53225708007812 102.37673950195312 252.1985321044922 110.4150390625 326.3474426269531 117.51933288574219 C 370.3697204589844 153.26449584960938 420.286376953125 86.92935180664062 506.5832824707031 269.4015197753906" stroke-width="0.0" fill="rgb(41, 214, 222)" opacity="0.7701982"/>
    <path d="M 619.5809936523438 325.1666564941406 C 608.0609741210938 317.0520324707031 570.5565185546875 308.1323547363281 522.6605834960938 307.1519470214844 C 507.5267639160156 287.1188049316406 528.1425170898438 424.1191711425781 443.10693359375 454.0973205566406 C 442.5599365234375 96.82274627685547 475.02496337890625 197.45846557617188 513.4288330078125 287.5648498535156 C 562.1876831054688 318.1707763671875 590.131591796875 299.0669250488281 619.5809936523438 325.1666564941406" stroke-width="0.0" fill="rgb(38, 195, 191)" opacity="0.9980999"/>
    <path d="M 411.1640930175781 134.725830078125 C 293.6069641113281 195.66024780273438 299.0404968261719 206.19976806640625 285.846435546875 202.52748107910156 C 286.04803466796875 195.34523010253906 269.1033935546875 190.60279846191406 252.78439331054688 162.60052490234375 C 287.817138671875 171.34986877441406 269.4228820800781 137.4383544921875 284.5767517089844 147.4990997314453 C 330.0740051269531 127.63800811767578 352.3601379394531 112.31243133544922 411.1640930175781 134.725830078125" stroke-width="0.0" fill="rgb(33, 211, 190)" opacity="0.71476096"/>
    <path d="M 435.5876159667969 60.738311767578125 C 447.29412841796875 92.69970703125 440.4743347167969 98.3071060180664 340.5676574707031 113.98552703857422 C 308.4647521972656 132.17807006835938 282.690673828125 131.51512145996094 223.3596954345703 63.52259826660156 C 253.1731414794922 -70.25804901123047 295.30950927734375 -53.303768157958984 385.7970275878906 -64.16543579101562 C 425.15045166015625 -22.366779327392578 418.17376708984375 3.3422799110412598 435.5876159667969 60.738311767578125" stroke-width="0.0" fill="rgb(223, 142, 11)" opacity="1.0"/>
    <path d="M 481.4441833496094 293.4941711425781 C 478.9691467285156 350.4513854980469 450.5072937011719 330.36328125 457.008544921875 333.9827880859375 C 340.87542724609375 319.5914306640625 303.7251892089844 322.27508544921875 239.7791290283203 293.1078186035156 C 340.5713806152344 290.8846130371094 358.65435791015625 287.71954345703125 403.6785583496094 312.34381103515625 C 422.3639221191406 302.02252197265625 454.3558044433594 300.7333679199219 481.4441833496094 293.4941711425781" stroke-width="0.0" fill="rgb(254, 253, 245)" opacity="0.99674135"/>
    <path d="M 265.9230651855469 175.4739227294922 C 265.385009765625 219.65231323242188 294.2562255859375 262.7644348144531 276.31585693359375 278.81634521484375 C 196.73336791992188 252.5054168701172 206.11419677734375 290.3177795410156 152.9986572265625 275.0630798339844 C 179.60157775878906 136.89297485351562 188.07896423339844 168.8114776611328 232.75042724609375 205.177490234375 C 293.9272766113281 187.7815704345703 305.11328125 195.716796875 265.9230651855469 175.4739227294922" stroke-width="0.0" fill="rgb(40, 210, 210)" opacity="0.7949543"/>
    <path d="M 457.9952697753906 323.5779724121094 C 366.93695068359375 341.2147216796875 331.0089111328125 343.160888671875 334.9590148925781 326.5524597167969 C 356.3152770996094 331.82574462890625 313.06787109375 336.3582763671875 176.49954223632812 325.2209167480469 C 152.6926727294922 236.5349884033203 128.88365173339844 270.4527893066406 226.64308166503906 275.5627746582031 C 396.1871643066406 294.265625 451.6364440917969 261.8834533691406 457.9952697753906 323.5779724121094" stroke-width="0.0" fill="rgb(254, 250, 241)" opacity="1.0"/>
    <path d="M 509.1968078613281 23.515880584716797 C 510.78863525390625 112.57152557373047 523.26318359375 90.39603424072266 459.99542236328125 96.47630310058594 C 369.8924560546875 103.84127807617188 379.2356262207031 87.72917938232422 377.31634521484375 -20.950157165527344 C 373.71539306640625 -21.84823989868164 394.5694274902344 -14.589338302612305 449.1898193359375 -30.866628646850586 C 486.18011474609375 -32.7879638671875 504.04803466796875 -33.99620819091797 509.1968078613281 23.515880584716797" stroke-width="0.0" fill="rgb(230, 142, 13)" opacity="0.9791974"/>
    <path d="M 545.293701171875 297.97332763671875 C 526.0040893554688 296.73944091796875 535.199462890625 310.84674072265625 554.8348388671875 335.1133728027344 C 489.0273132324219 291.83331298828125 518.350341796875 286.114501953125 502.0721435546875 266.9202880859375 C 493.8592834472656 229.61801147460938 486.0469970703125 235.77127075195312 496.93890380859375 235.47572326660156 C 562.6736450195312 243.63331604003906 580.4681396484375 277.5513610839844 545.293701171875 297.97332763671875" stroke-width="0.0" fill="rgb(74, 105, 77)" opacity="0.8593686"/>
    <path d="M 439.7716369628906 132.22772216796875 C 426.04925537109375 173.4752197265625 444.91827392578125 151.4867401123047 400.7832336425781 136.61056518554688 C 390.49224853515625 125.46473693847656 362.7212219238281 119.55573272705078 327.1775817871094 139.8086700439453 C 325.19696044921875 62.00381851196289 339.58233642578125 75.62297058105469 391.7485046386719 66.46072387695312 C 454.2345886230469 62.864994049072266 435.3627624511719 69.46257019042969 439.7716369628906 132.22772216796875" stroke-width="0.0" fill="rgb(223, 142, 21)" opacity="0.90490866"/>
    <path d="M 337.0885009765625 228.74757385253906 C 364.3141784667969 268.3007507324219 380.3545227050781 262.7474060058594 360.5738830566406 289.89288330078125 C 250.9552764892578 281.8887023925781 238.0436553955078 264.23272705078125 183.93296813964844 261.2159118652344 C 189.73727416992188 135.7689666748047 220.20013427734375 164.795654296875 289.8050231933594 193.00930786132812 C 299.22625732421875 233.2259979248047 344.3331298828125 226.1544952392578 337.0885009765625 228.74757385253906" stroke-width="0.0" fill="rgb(13, 221, 217)" opacity="1.0"/>
    <path d="M 378.52362060546875 124.31568908691406 C 386.23565673828125 255.820556640625 294.2001953125 214.9840850830078 240.89710998535156 233.6041717529297 C 203.66819763183594 227.81332397460938 217.46372985839844 248.6326446533203 125.49396514892578 234.02420043945312 C 167.17367553710938 141.26303100585938 243.16937255859375 140.9237823486328 268.3982849121094 115.27963256835938 C 304.5274658203125 105.83091735839844 359.28204345703125 108.12667846679688 378.52362060546875 124.31568908691406" stroke-width="0.0" fill="rgb(46, 209, 205)" opacity="0.9847355"/>
    <path d="M 674.7498168945312 316.2743835449219 C 658.8942260742188 369.97259521484375 645.9380493164062 388.2441711425781 558.6680297851562 381.2421875 C 513.1968994140625 349.3472900390625 532.542236328125 328.5320129394531 524.9774780273438 254.9781036376953 C 532.97314453125 226.1373748779297 514.4130249023438 255.76036071777344 591.7208862304688 285.6228942871094 C 652.2548217773438 248.86964416503906 647.5919799804688 242.8238067626953 674.7498168945312 316.2743835449219" stroke-width="0.0" fill="rgb(81, 68, 34)" opacity="0.99687123"/>
    <path d="M 163.200439453125 272.0732421875 C 184.2847900390625 334.2646179199219 229.85183715820312 391.5049133300781 139.17532348632812 355.5839538574219 C 114.49578094482422 306.06396484375 102.60887908935547 260.6918640136719 119.18537139892578 236.82382202148438 C 183.5319366455078 258.3818664550781 183.12265014648438 226.90399169921875 174.12879943847656 213.43775939941406 C 168.25177001953125 232.60394287109375 171.62449645996094 242.7352294921875 163.200439453125 272.0732421875" stroke-width="0.0" fill="rgb(37, 198, 208)" opacity="0.8746722"/>
    <path d="M 20.826631546020508 0.07140983641147614 C 18.147138595581055 10.071410179138184 10.826631546020508 17.391916275024414 0.8266311883926392 20.071409225463867 C -9.173368453979492 17.391916275024414 -16.49387550354004 10.071410179138184 -19.173368453979492 0.07140983641147614 C -16.49387550354004 -9.928589820861816 -9.173368453979492 -17.24909782409668 0.8266311883926392 -19.928590774536133 C 10.826631546020508 -17.24909782409668 18.147138595581055 -9.928589820861816 20.826631546020508 0.07140983641147614" stroke-width="0.0" fill="rgb(246, 233, 42)" opacity="0.72562253" stroke="rgb(231, 49, 106)" stroke-opacity="0.44885138" stroke-linecap="round" stroke-linejoin="round"/>
    <path d="M 239.8801727294922 271.8901062011719 C 164.38682556152344 266.0142517089844 137.54666137695312 255.68324279785156 147.23056030273438 260.9601745605469 C 131.27139282226562 257.7718505859375 137.92930603027344 267.448974609375 124.57341766357422 224.90194702148438 C 142.81150817871094 215.2772216796875 132.02052307128906 172.91676330566406 205.5220947265625 144.90370178222656 C 240.06019592285156 195.0719757080078 233.86949157714844 236.10389709472656 239.8801727294922 271.8901062011719" stroke-width="0.0" fill="rgb(26, 205, 206)" opacity="0.7584374"/>
    <path d="M 433.4969177246094 542.9573364257812 C 428.095947265625 660.3779296875 395.12115478515625 651.3615112304688 340.246826171875 596.0543212890625 C 301.77520751953125 562.3734130859375 276.51727294921875 553.237548828125 266.0202941894531 531.6884155273438 C 296.4994201660156 531.5548706054688 320.86724853515625 542.8348388671875 336.3725891113281 515.8399658203125 C 353.4689636230469 499.24224853515625 381.2278137207031 477.3428039550781 433.4969177246094 542.9573364257812" stroke-width="0.0" fill="rgb(80, 69, 42)" opacity="0.977264"/>
    <path d="M 375.0435485839844 523.2224731445312 C 379.7436218261719 568.35595703125 358.7809143066406 552.6542358398438 315.81195068359375 553.8980102539062 C 282.1268005371094 549.046142578125 266.1604309082031 552.49609375 233.47476196289062 519.2884521484375 C 290.2080383300781 480.041015625 317.4621887207031 493.8240966796875 344.01202392578125 493.80987548828125 C 390.96429443359375 492.5597839355469 370.1802062988281 483.9166259765625 375.0435485839844 523.2224731445312" stroke-width="0.0" fill="rgb(66, 78, 35)" opacity="0.63325566"/>
    <path d="M 483.31024169921875 412.1529235839844 C 448.47186279296875 477.0442810058594 395.7301940917969 488.04193115234375 382.92352294921875 499.3960876464844 C 344.1899108886719 519.3311157226562 196.51925659179688 550.0881958007812 141.42312622070312 419.9479675292969 C 231.41636657714844 313.12603759765625 293.6250305175781 373.6095886230469 368.0357360839844 357.2189636230469 C 399.8600769042969 361.4832458496094 400.2935485839844 365.5888366699219 483.31024169921875 412.1529235839844" stroke-width="0.0" fill="rgb(16, 167, 182)" opacity="0.95979846"/>
    <path d="M 326.7890930175781 516.5321655273438 C 335.8277893066406 548.7494506835938 323.3082580566406 550.0499877929688 283.28973388671875 548.2596435546875 C 258.53253173828125 539.3531494140625 242.04498291015625 527.04931640625 222.5625 507.9095458984375 C 185.08950805664062 477.2961120605469 199.237548828125 485.1411437988281 223.8815460205078 496.07611083984375 C 246.9502410888672 510.94439697265625 274.7591857910156 516.369384765625 326.7890930175781 516.5321655273438" stroke-width="0.0" fill="rgb(88, 91, 69)" opacity="0.9829445"/>
    <path d="M 495.0638427734375 312.6105041503906 C 508.8310241699219 288.8630065917969 518.7424926757812 282.6584777832031 447.6520080566406 288.4953918457031 C 447.2048645019531 258.0902404785156 463.1524963378906 262.6626892089844 482.7426452636719 260.1067810058594 C 491.10943603515625 264.62164306640625 503.80316162109375 207.37696838378906 477.5517883300781 192.83224487304688 C 491.0474548339844 231.78013610839844 500.519287109375 267.15411376953125 495.0638427734375 312.6105041503906" stroke-width="0.0" fill="rgb(130, 141, 219)" opacity="0.077686556"/>
    <path d="M 216.1947021484375 527.7040405273438 C 216.82546997070312 497.1827392578125 211.07749938964844 537.6251220703125 212.75343322753906 578.1677856445312 C 143.76043701171875 568.5528564453125 148.41360473632812 564.4786376953125 144.10670471191406 506.9995422363281 C 149.22679138183594 460.0645751953125 158.2042694091797 460.9713134765625 178.31552124023438 468.83258056640625 C 190.9548797607422 507.4676208496094 210.0092010498047 504.4678649902344 216.1947021484375 527.7040405273438" stroke-width="0.0" fill="rgb(234, 146, 23)" opacity="0.653935"/>
    <path d="M 406.7008056640625 235.63710021972656 C 429.3652648925781 356.36553955078125 277.92578125 222.0388641357422 404.33929443359375 204.95709228515625 C 373.5679931640625 224.7940216064453 347.4324035644531 374.5346374511719 317.5051574707031 213.84075927734375 C 402.7890625 208.2858428955078 335.18060302734375 151.13516235351562 377.05865478515625 177.0680389404297 C 328.62139892578125 175.85079956054688 408.626953125 225.5063018798828 406.7008056640625 235.63710021972656" stroke-width="0.0" fill="rgb(229, 236, 247)" opacity="0.9249917"/>
    <path d="M 385.0689392089844 201.8588409423828 C 443.3525085449219 250.51284790039062 369.3782958984375 187.8406524658203 386.83056640625 206.08518981933594 C 421.4422912597656 208.58792114257812 387.509765625 200.01414489746094 289.0212707519531 200.70028686523438 C 308.67108154296875 228.95358276367188 379.0031433105469 207.74195861816406 395.5131530761719 202.38987731933594 C 371.43060302734375 199.9688262939453 453.0009765625 232.4335174560547 385.0689392089844 201.8588409423828" stroke-width="0.0" fill="rgb(253, 166, 48)" opacity="1.0"/>
    <path d="M 470.6438293457031 305.18792724609375 C 236.838134765625 301.48553466796875 235.50753784179688 281.32135009765625 277.7151794433594 295.0582275390625 C 227.2111358642578 290.65277099609375 230.48423767089844 291.240234375 147.03399658203125 278.92596435546875 C 133.36203002929688 250.2359619140625 183.39505004882812 273.9793395996094 282.4631652832031 278.31829833984375 C 424.5765686035156 293.91192626953125 517.4459228515625 272.066162109375 470.6438293457031 305.18792724609375" stroke-width="0.0" fill="rgb(188, 87, 0)" opacity="0.9996627"/>
    <path d="M 246.76490783691406 449.6812438964844 C 222.3704833984375 505.14764404296875 229.70948791503906 516.4534912109375 210.84889221191406 509.58111572265625 C 201.4438018798828 497.2670593261719 190.06455993652344 489.1004333496094 173.36595153808594 463.061767578125 C 167.69070434570312 439.9915466308594 181.77552795410156 452.00848388671875 202.21495056152344 439.6554870605469 C 233.56446838378906 442.0680236816406 255.51416015625 455.9425964355469 246.76490783691406 449.6812438964844" stroke-width="0.0" fill="rgb(101, 115, 128)" opacity="0.4529003"/>
    <path d="M 240.3041229248047 535.8521728515625 C 263.3681945800781 538.031005859375 252.247314453125 554.046630859375 200.80859375 614.5509643554688 C 183.0352325439453 612.69677734375 189.12777709960938 570.3585815429688 205.47010803222656 501.81414794921875 C 216.19577026367188 492.323486328125 197.75453186035156 495.2030334472656 212.45443725585938 511.6770324707031 C 227.14349365234375 511.6398010253906 236.90248107910156 511.0538635253906 240.3041229248047 535.8521728515625" stroke-width="0.0" fill="rgb(232, 149, 12)" opacity="0.5087258"/>
    <path d="M 507.0207214355469 355.24945068359375 C 485.9616394042969 496.28582763671875 433.13116455078125 455.466552734375 365.57708740234375 483.9745788574219 C 307.1351318359375 502.0980529785156 175.36697387695312 569.8314819335938 102.28024291992188 394.5307312011719 C 314.1336669921875 357.37567138671875 353.50994873046875 368.4673767089844 375.92767333984375 366.78167724609375 C 329.50921630859375 348.92822265625 337.9519348144531 349.42645263671875 507.0207214355469 355.24945068359375" stroke-width="0.0" fill="rgb(12, 165, 177)" opacity="1.0"/>
    <path d="M 224.5644073486328 368.46063232421875 C 182.1064910888672 394.0207214355469 178.92945861816406 409.45526123046875 184.01870727539062 402.3740539550781 C 159.88958740234375 403.02825927734375 97.44767761230469 425.0334777832031 103.5846176147461 373.41583251953125 C 128.228271484375 333.12310791015625 120.7625732421875 354.5493469238281 168.13824462890625 280.9034423828125 C 171.79945373535156 293.8428955078125 200.63897705078125 362.51708984375 224.5644073486328 368.46063232421875" stroke-width="0.0" fill="rgb(26, 205, 209)" opacity="0.99981624"/>
    <path d="M 528.7993774414062 314.0121154785156 C 514.666015625 357.5601501464844 491.39276123046875 428.28558349609375 458.7604064941406 450.06597900390625 C 508.30718994140625 414.1853942871094 499.96795654296875 344.3302307128906 491.65447998046875 339.2276916503906 C 512.9218139648438 342.6566162109375 517.1390380859375 337.1858215332031 516.0611572265625 325.1215515136719 C 506.973876953125 288.4631042480469 528.7064819335938 273.7648010253906 528.7993774414062 314.0121154785156" stroke-width="0.0" fill="rgb(56, 151, 168)" opacity="0.6516445"/>
    <path d="M 186.8917694091797 144.79611206054688 C 187.1003875732422 172.5373992919922 175.70033264160156 165.0950927734375 81.1597900390625 162.25360107421875 C 71.97676849365234 134.50343322753906 78.22466278076172 116.10118865966797 85.16483306884766 84.36796569824219 C 112.7188720703125 110.29462432861328 92.66834259033203 90.94347381591797 116.67050170898438 0.5427065491676331 C 174.73060607910156 46.57787322998047 170.61672973632812 61.19172286987305 186.8917694091797 144.79611206054688" stroke-width="0.0" fill="rgb(231, 141, 32)" opacity="0.53694534"/>
    <path d="M 130.04055786132812 308.6329345703125 C 89.42032623291016 314.0015563964844 94.92350769042969 308.7330017089844 97.5948486328125 315.5538635253906 C 107.48690795898438 301.2142639160156 93.01276397705078 307.9873046875 110.73843383789062 330.20623779296875 C 105.90151977539062 306.75115966796875 109.13292694091797 276.7489929199219 114.63318634033203 288.08575439453125 C 129.37997436523438 314.7546691894531 129.59353637695312 329.1437072753906 130.04055786132812 308.6329345703125" stroke-width="0.0" fill="rgb(98, 174, 154)" opacity="0.23020343"/>
    <path d="M 338.8749084472656 350.4131774902344 C 348.97467041015625 362.7012634277344 390.65875244140625 398.14361572265625 538.3147583007812 338.9063415527344 C 390.8497009277344 329.749755859375 302.7555236816406 336.14453125 265.5232849121094 355.75494384765625 C 317.6498718261719 381.7878723144531 356.2438659667969 375.8338317871094 371.0252380371094 362.96533203125 C 337.45660400390625 342.7559814453125 343.5451354980469 347.42242431640625 338.8749084472656 350.4131774902344" stroke-width="0.0" fill="rgb(0, 0, 145)" opacity="0.9974616"/>
    <path d="M 121.71900939941406 261.6381530761719 C 117.55168151855469 190.39694213867188 121.30262756347656 229.98228454589844 114.47075653076172 275.76300048828125 C 119.71563720703125 253.3287811279297 117.61695098876953 262.6461486816406 113.68049621582031 271.59429931640625 C 104.34483337402344 282.1253662109375 107.85801696777344 165.69790649414062 223.43072509765625 132.7877960205078 C 130.46640014648438 203.63265991210938 118.90254974365234 219.95098876953125 121.71900939941406 261.6381530761719" stroke-width="0.0" fill="rgb(138, 164, 147)" opacity="0.8416594"/>
    <path d="M 20.59381103515625 0.2912592887878418 C 17.914318084716797 10.291259765625 10.59381103515625 17.611766815185547 0.5938112139701843 20.291259765625 C -9.40618896484375 17.611766815185547 -16.726696014404297 10.291259765625 -19.40618896484375 0.2912592887878418 C -16.726696014404297 -9.708740234375 -9.40618896484375 -17.029247283935547 0.5938112139701843 -19.708740234375 C 10.59381103515625 -17.029247283935547 17.914318084716797 -9.708740234375 20.59381103515625 0.2912592887878418" stroke-width="0.0" fill="rgb(59, 224, 83)" opacity="0.9610075" stroke="rgb(162, 42, 109)" stroke-opacity="0.2872577" stroke-linecap="round" stroke-linejoin="round"/>
    <path d="M 433.94244384765625 225.08863830566406 C 428.7100830078125 254.10537719726562 427.4339599609375 268.8104553222656 437.37939453125 233.19554138183594 C 448.09967041015625 298.702392578125 447.47723388671875 291.8946228027344 448.7065124511719 234.07833862304688 C 424.0060119628906 217.97999572753906 427.22503662109375 232.39450073242188 428.3641357421875 252.76026916503906 C 437.3573303222656 243.16513061523438 453.20306396484375 233.191650390625 433.94244384765625 225.08863830566406" stroke-width="0.0" fill="rgb(219, 151, 107)" opacity="0.4593019"/>
    <path d="M 110.79630279541016 322.1047668457031 C 123.60746002197266 310.4831848144531 127.9874038696289 317.23968505859375 141.53582763671875 353.153076171875 C 96.28276824951172 356.5428466796875 92.75637817382812 354.52294921875 98.68599700927734 327.7341613769531 C 98.326904296875 311.9183654785156 93.91719055175781 273.9862060546875 123.1631088256836 255.3671875 C 138.75613403320312 291.0494079589844 137.92495727539062 327.0406799316406 110.79630279541016 322.1047668457031" stroke-width="0.0" fill="rgb(20, 223, 177)" opacity="0.33612117"/>
    <path d="M 20.231475830078125 0.7069558501243591 C 17.551982879638672 10.706955909729004 10.231475830078125 18.027462005615234 0.23147623240947723 20.706954956054688 C -9.768524169921875 18.027462005615234 -17.089031219482422 10.706955909729004 -19.768524169921875 0.7069558501243591 C -17.089031219482422 -9.293044090270996 -9.768524169921875 -16.61355209350586 0.23147623240947723 -19.293045043945312 C 10.231475830078125 -16.61355209350586 17.551982879638672 -9.293044090270996 20.231475830078125 0.7069558501243591" stroke-width="0.0" fill="rgb(187, 115, 252)" opacity="0.8065046" stroke="rgb(122, 128, 80)" stroke-opacity="0.72924024" stroke-linecap="round" stroke-linejoin="round"/>
    <path d="M 316.8434753417969 360.20562744140625 C 255.8783416748047 367.6683654785156 255.5023651123047 369.35693359375 294.0482482910156 349.2563171386719 C 312.0136413574219 339.1415100097656 226.73587036132812 324.8428649902344 200.73062133789062 341.8931884765625 C 335.4043884277344 357.7214660644531 353.41876220703125 366.58544921875 299.8853454589844 366.0126037597656 C 279.06634521484375 361.1289367675781 271.135009765625 364.3085021972656 316.8434753417969 360.20562744140625" stroke-width="0.0" fill="rgb(0, 2, 180)" opacity="0.6219553"/>
    <path d="M 372.0959167480469 151.35751342773438 C 370.0855407714844 162.49261474609375 385.1670837402344 160.5676727294922 389.8986511230469 148.47433471679688 C 380.99224853515625 132.37721252441406 374.8824157714844 162.71873474121094 372.67431640625 176.1154327392578 C 367.6819152832031 148.39498901367188 361.3624572753906 125.45500946044922 379.98065185546875 131.6265869140625 C 382.24365234375 190.348876953125 367.27020263671875 177.4695587158203 372.0959167480469 151.35751342773438" stroke-width="0.0" fill="rgb(133, 184, 119)" opacity="0.042871397"/>
    <path d="M 210.0609588623047 377.74456787109375 C 191.1374053955078 357.2945861816406 169.93453979492188 369.24151611328125 239.45938110351562 369.1083068847656 C 208.9146728515625 364.2080383300781 202.1511688232422 340.48956298828125 224.67340087890625 373.4779052734375 C 215.8282928466797 380.3565979003906 187.1674041748047 379.9591979980469 187.5161895751953 360.1515808105469 C 222.23582458496094 369.1690979003906 218.28062438964844 366.1003112792969 210.0609588623047 377.74456787109375" stroke-width="0.0" fill="rgb(9, 214, 184)" opacity="0.22447076"/>
    <path d="M 478.54541015625 246.17373657226562 C 442.5370178222656 141.88131713867188 392.16107177734375 140.02316284179688 397.5623474121094 171.36375427246094 C 350.2618713378906 125.81232452392578 402.55413818359375 155.84088134765625 367.7851867675781 153.66964721679688 C 383.1149597167969 193.28253173828125 380.7142028808594 197.7127685546875 379.33087158203125 127.29881286621094 C 434.3999328613281 149.97149658203125 369.7168884277344 254.38861083984375 478.54541015625 246.17373657226562" stroke-width="0.0" fill="rgb(47, 197, 189)" opacity="0.47845802"/>
    <path d="M 354.4078674316406 362.3259582519531 C 316.635009765625 329.9593200683594 256.53851318359375 324.7845764160156 213.1981658935547 335.98492431640625 C 206.4235076904297 338.47607421875 195.81341552734375 337.8465270996094 195.28558349609375 341.83026123046875 C 200.53781127929688 356.63330078125 211.54681396484375 349.16485595703125 199.54324340820312 346.9366149902344 C 207.42355346679688 372.2319641113281 238.19198608398438 376.9878845214844 354.4078674316406 362.3259582519531" stroke-width="0.0" fill="rgb(0, 7, 143)" opacity="0.99013835"/>
    <path d="M 20.522571563720703 0.45051446557044983 C 17.84307861328125 10.450514793395996 10.52257251739502 17.771020889282227 0.5225725173950195 20.45051383972168 C -9.47742748260498 17.771020889282227 -16.797935485839844 10.450514793395996 -19.477428436279297 0.45051446557044983 C -16.797935485839844 -9.549485206604004 -9.47742748260498 -16.869993209838867 0.5225725173950195 -19.54948616027832 C 10.52257251739502 -16.869993209838867 17.84307861328125 -9.549485206604004 20.522571563720703 0.45051446557044983" stroke-width="0.0" fill="rgb(95, 89, 138)" opacity="0.93703943" stroke="rgb(55, 172, 204)" stroke-opacity="0.56187695" stroke-linecap="round" stroke-linejoin="round"/>
    <path d="M 363.95404052734375 365.663818359375 C 331.61273193359375 366.0469055175781 328.73760986328125 364.2174987792969 325.823974609375 367.49432373046875 C 340.26666259765625 368.0108947753906 297.3424987792969 375.4555969238281 378.4169921875 370.059326171875 C 424.8565368652344 369.1327209472656 380.1756286621094 364.9739685058594 321.44677734375 363.0788269042969 C 356.5633850097656 372.0110168457031 359.72039794921875 362.2133483886719 363.95404052734375 365.663818359375" stroke-width="0.0" fill="rgb(0, 84, 131)" opacity="0.0"/>
    <path d="M 380.2687683105469 213.35098266601562 C 408.85662841796875 211.3685302734375 371.55218505859375 193.4216766357422 367.726806640625 227.55010986328125 C 370.93756103515625 205.0341796875 357.1343994140625 234.75747680664062 344.8999938964844 223.2140350341797 C 358.4339294433594 210.97474670410156 358.88909912109375 184.03924560546875 366.01104736328125 166.1086883544922 C 376.54644775390625 184.4235382080078 357.2259826660156 208.15673828125 380.2687683105469 213.35098266601562" stroke-width="0.0" fill="rgb(210, 153, 72)" opacity="0.80403376"/>
    <path d="M 20.165922164916992 0.3076118230819702 C 17.48642921447754 10.307611465454102 10.165923118591309 17.62811851501465 0.16592279076576233 20.3076114654541 C -9.834076881408691 17.62811851501465 -17.154584884643555 10.307611465454102 -19.834077835083008 0.3076118230819702 C -17.154584884643555 -9.692388534545898 -9.834076881408691 -17.012895584106445 0.16592279076576233 -19.6923885345459 C 10.165923118591309 -17.012895584106445 17.48642921447754 -9.692388534545898 20.165922164916992 0.3076118230819702" stroke-width="0.0" fill="rgb(152, 18, 57)" opacity="0.97252303" stroke="rgb(199, 4, 83)" stroke-opacity="0.6279587" stroke-linecap="round" stroke-linejoin="round"/>
    <path d="M 20.68738555908203 0.9239110350608826 C 18.007892608642578 10.923911094665527 10.687384605407715 18.244417190551758 0.6873849034309387 20.92391014099121 C -9.312615394592285 18.244417190551758 -16.633121490478516 10.923911094665527 -19.31261444091797 0.9239110350608826 C -16.633121490478516 -9.076088905334473 -9.312615394592285 -16.396596908569336 0.6873849034309387 -19.07608985900879 C 10.687384605407715 -16.396596908569336 18.007892608642578 -9.076088905334473 20.68738555908203 0.9239110350608826" stroke-width="0.0" fill="rgb(119, 72, 245)" opacity="0.7294134" stroke="rgb(134, 14, 28)" stroke-opacity="0.2193894" stroke-linecap="round" stroke-linejoin="round"/>
    <path d="M 20.942676544189453 0.5004721879959106 C 18.26318359375 10.500472068786621 10.942676544189453 17.820980072021484 0.9426762461662292 20.500473022460938 C -9.057323455810547 17.820980072021484 -16.377830505371094 10.500472068786621 -19.057323455810547 0.5004721879959106 C -16.377830505371094 -9.499527931213379 -9.057323455810547 -16.82003402709961 0.9426762461662292 -19.499526977539062 C 10.942676544189453 -16.82003402709961 18.26318359375 -9.499527931213379 20.942676544189453 0.5004721879959106" stroke-width="0.0" fill="rgb(240, 237, 52)" opacity="0.7448198" stroke="rgb(130, 117, 229)" stroke-opacity="0.9300054" stroke-linecap="round" stroke-linejoin="round"/>
    <path d="M 20.83595848083496 0.5751991271972656 C 18.156465530395508 10.575199127197266 10.835958480834961 17.895706176757812 0.8359586000442505 20.575199127197266 C -9.164041519165039 17.895706176757812 -16.484548568725586 10.575199127197266 -19.16404151916504 0.5751991271972656 C -16.484548568725586 -9.424800872802734 -9.164041519165039 -16.74530792236328 0.8359586000442505 -19.424800872802734 C 10.835958480834961 -16.74530792236328 18.156465530395508 -9.424800872802734 20.83595848083496 0.5751991271972656" stroke-width="0.0" fill="rgb(162, 81, 23)" opacity="0.73862636" stroke="rgb(241, 121, 80)" stroke-opacity="0.7663041" stroke-linecap="round" stroke-linejoin="round"/>
    <path d="M 20.091327667236328 0.9619110822677612 C 17.411834716796875 10.96191120147705 10.091326713562012 18.28241729736328 0.09132688492536545 20.961910247802734 C -9.908673286437988 18.28241729736328 -17.22917938232422 10.96191120147705 -19.908672332763672 0.9619110822677612 C -17.22917938232422 -9.03808879852295 -9.908673286437988 -16.358596801757812 0.09132688492536545 -19.038089752197266 C 10.091326713562012 -16.358596801757812 17.411834716796875 -9.03808879852295 20.091327667236328 0.9619110822677612" stroke-width="0.0" fill="rgb(238, 12, 53)" opacity="0.8846658" stroke="rgb(10, 102, 165)" stroke-opacity="0.6980705" stroke-linecap="round" stroke-linejoin="round"/>
    <path d="M 20.660429000854492 0.15705709159374237 C 17.98093605041504 10.15705680847168 10.660428047180176 17.477563858032227 0.6604281663894653 20.15705680847168 C -9.339571952819824 17.477563858032227 -16.660078048706055 10.15705680847168 -19.339570999145508 0.15705709159374237 C -16.660078048706055 -9.84294319152832 -9.339571952819824 -17.163450241088867 0.6604281663894653 -19.84294319152832 C 10.660428047180176 -17.163450241088867 17.98093605041504 -9.84294319152832 20.660429000854492 0.15705709159374237" stroke-width="0.0" fill="rgb(43, 28, 145)" opacity="0.843133" stroke="rgb(253, 173, 18)" stroke-opacity="0.9928321" stroke-linecap="round" stroke-linejoin="round"/>
    <path d="M 395.59075927734375 205.4610137939453 C 381.0248107910156 207.10171508789062 399.9965515136719 227.30496215820312 416.3326110839844 261.712158203125 C 462.8754577636719 257.5734558105469 461.8583984375 228.37741088867188 427.7792663574219 195.6107177734375 C 439.8136291503906 205.21804809570312 442.2692565917969 199.0832977294922 412.5986022949219 204.99147033691406 C 366.3598937988281 215.06793212890625 408.3696594238281 211.17237854003906 395.59075927734375 205.4610137939453" stroke-width="0.0" fill="rgb(134, 223, 246)" opacity="0.9980678"/>
    <path d="M 365.2100524902344 263.88604736328125 C 346.4066162109375 275.7030334472656 342.7625427246094 241.83897399902344 345.3739318847656 256.65924072265625 C 343.9282531738281 243.70567321777344 347.78619384765625 224.27157592773438 373.2235107421875 219.97689819335938 C 360.17816162109375 235.90370178222656 354.70703125 196.24378967285156 358.8165588378906 228.3286895751953 C 368.6978454589844 228.10507202148438 394.6645202636719 207.40081787109375 365.2100524902344 263.88604736328125" stroke-width="0.0" fill="rgb(137, 244, 233)" opacity="0.21206695"/>
    <path d="M 468.63775634765625 337.1133117675781 C 470.04901123046875 323.3810729980469 463.26641845703125 363.0815124511719 480.2182312011719 369.3087158203125 C 490.3009948730469 353.46380615234375 501.6351623535156 361.7778625488281 440.1347961425781 362.31890869140625 C 460.316650390625 376.9765319824219 527.6226196289062 387.9500427246094 543.2354125976562 349.6409606933594 C 508.5384216308594 324.5185852050781 473.1086730957031 357.4894104003906 468.63775634765625 337.1133117675781" stroke-width="0.0" fill="rgb(0, 0, 159)" opacity="0.97599"/>
    <path d="M 257.2823181152344 85.94509887695312 C 298.47149658203125 91.47693634033203 261.598388671875 110.60989379882812 309.46063232421875 119.85337829589844 C 299.8639221191406 91.0176010131836 299.9954833984375 94.39360046386719 298.9693603515625 106.94205474853516 C 274.36029052734375 113.26146697998047 276.3717346191406 87.65866088867188 285.70013427734375 147.43016052246094 C 176.90940856933594 154.90257263183594 185.46202087402344 94.42169952392578 257.2823181152344 85.94509887695312" stroke-width="0.0" fill="rgb(182, 185, 70)" opacity="0.020977877"/>
    <path d="M 377.3990173339844 218.716064453125 C 410.26715087890625 236.17477416992188 439.911376953125 228.5954132080078 402.2206726074219 198.50872802734375 C 371.22381591796875 226.46408081054688 384.46063232421875 232.65603637695312 368.71185302734375 206.03634643554688 C 400.7003479003906 201.31407165527344 393.6534423828125 205.3930206298828 383.94451904296875 200.85145568847656 C 409.5600891113281 214.6519317626953 389.1361389160156 207.45123291015625 377.3990173339844 218.716064453125" stroke-width="0.0" fill="rgb(234, 221, 190)" opacity="0.32429448"/>
    <path d="M 359.61981201171875 283.9036560058594 C 279.7334289550781 277.3460693359375 282.8250427246094 301.8951721191406 308.5248718261719 209.44744873046875 C 300.64996337890625 211.17189025878906 331.5149841308594 214.32418823242188 377.93328857421875 213.90782165527344 C 341.8583984375 241.2359161376953 327.3768310546875 217.21119689941406 381.2845458984375 209.00494384765625 C 383.8697814941406 281.55548095703125 397.0704345703125 287.1379089355469 359.61981201171875 283.9036560058594" stroke-width="0.0" fill="rgb(252, 250, 255)" opacity="1.0"/>
    <path d="M 387.2344055175781 212.2957305908203 C 380.603515625 185.4005584716797 403.85235595703125 208.512451171875 393.8782958984375 204.76124572753906 C 396.85235595703125 223.24264526367188 421.37628173828125 179.3721923828125 432.4827575683594 210.01736450195312 C 380.61932373046875 205.73643493652344 379.3415832519531 209.5526885986328 376.51129150390625 206.44761657714844 C 437.65362548828125 207.2386016845703 434.833740234375 209.6894989013672 387.2344055175781 212.2957305908203" stroke-width="0.0" fill="rgb(167, 193, 61)" opacity="0.2938066"/>
    <path d="M 409.768798828125 201.21112060546875 C 403.154296875 221.82421875 424.2826232910156 185.78958129882812 418.66473388671875 212.29627990722656 C 370.3283996582031 213.392578125 360.143798828125 218.47129821777344 369.10797119140625 200.7045440673828 C 437.92315673828125 206.8143310546875 474.3750305175781 194.7725067138672 455.8544616699219 212.2191619873047 C 378.61590576171875 213.4557342529297 400.376708984375 206.74505615234375 409.768798828125 201.21112060546875" stroke-width="0.0" fill="rgb(223, 142, 52)" opacity="0.97284377"/>
    <path d="M 20.442720413208008 0.8601666688919067 C 17.763227462768555 10.860166549682617 10.442721366882324 18.180673599243164 0.44272100925445557 20.860166549682617 C -9.557278633117676 18.180673599243164 -16.87778663635254 10.860166549682617 -19.557279586791992 0.8601666688919067 C -16.87778663635254 -9.139833450317383 -9.557278633117676 -16.46034049987793 0.44272100925445557 -19.139833450317383 C 10.442721366882324 -16.46034049987793 17.763227462768555 -9.139833450317383 20.442720413208008 0.8601666688919067" stroke-width="0.0" fill="rgb(188, 168, 90)" opacity="0.7884104" stroke="rgb(145, 190, 96)" stroke-opacity="0.3027676" stroke-linecap="round" stroke-linejoin="round"/>
    <path d="M 621.1469116210938 76.60309600830078 C 606.0217895507812 140.54103088378906 602.0686645507812 145.1811981201172 594.89208984375 112.05257415771484 C 586.2575073242188 99.32390594482422 579.02880859375 82.64059448242188 580.8480224609375 57.67355728149414 C 610.4241333007812 53.59566879272461 592.4931640625 72.39481353759766 586.2805786132812 59.88550567626953 C 597.5119018554688 47.50191116333008 608.2498779296875 39.03109359741211 621.1469116210938 76.60309600830078" stroke-width="0.0" fill="rgb(213, 155, 12)" opacity="0.35892338"/>
    <path d="M 20.425138473510742 0.5445623993873596 C 17.74564552307129 10.544562339782715 10.425139427185059 17.865070343017578 0.4251389801502228 20.54456329345703 C -9.574860572814941 17.865070343017578 -16.895368576049805 10.544562339782715 -19.574861526489258 0.5445623993873596 C -16.895368576049805 -9.455437660217285 -9.574860572814941 -16.775943756103516 0.4251389801502228 -19.45543670654297 C 10.425139427185059 -16.775943756103516 17.74564552307129 -9.455437660217285 20.425138473510742 0.5445623993873596" stroke-width="0.0" fill="rgb(132, 248, 246)" opacity="0.94333136" stroke="rgb(50, 54, 172)" stroke-opacity="0.4050011" stroke-linecap="round" stroke-linejoin="round"/>
    <path d="M 504.9817810058594 544.1670532226562 C 495.29119873046875 588.595703125 505.1596374511719 576.9248046875 464.84234619140625 572.5700073242188 C 419.8314208984375 577.7470092773438 431.4443359375 599.1665649414062 453.27777099609375 545.6990356445312 C 448.6017150878906 509.8453369140625 448.79852294921875 512.5355224609375 453.0013732910156 516.4865112304688 C 412.11322021484375 544.3656005859375 427.85198974609375 545.2357788085938 504.9817810058594 544.1670532226562" stroke-width="0.0" fill="rgb(107, 39, 79)" opacity="0.07071218"/>
    <path d="M 614.2083740234375 471.46185302734375 C 612.0814819335938 522.004638671875 571.9337158203125 507.6762390136719 524.5420532226562 498.5111999511719 C 480.3529052734375 486.45281982421875 467.3459777832031 501.3554382324219 488.8214111328125 488.14324951171875 C 511.7169494628906 515.0493774414062 493.93121337890625 505.0867004394531 501.2193603515625 466.064208984375 C 511.63751220703125 471.1036071777344 577.0263061523438 445.79425048828125 614.2083740234375 471.46185302734375" stroke-width="0.0" fill="rgb(85, 57, 43)" opacity="0.23163688"/>
    <path d="M 576.6985473632812 121.17220306396484 C 588.9407958984375 138.4953155517578 598.7235107421875 128.8810272216797 594.775634765625 96.9936294555664 C 549.1802368164062 101.52140808105469 523.9551391601562 93.22187042236328 578.4793701171875 118.93335723876953 C 575.6290893554688 73.15680694580078 579.2323608398438 63.165000915527344 592.2139282226562 96.03280639648438 C 560.3587036132812 110.83968353271484 576.4130249023438 123.74403381347656 576.6985473632812 121.17220306396484" stroke-width="0.0" fill="rgb(222, 147, 7)" opacity="0.20433678"/>
    <path d="M 20.173812866210938 0.07506486773490906 C 17.494319915771484 10.075064659118652 10.173813819885254 17.395572662353516 0.17381355166435242 20.07506561279297 C -9.826186180114746 17.395572662353516 -17.14669418334961 10.075064659118652 -19.826187133789062 0.07506486773490906 C -17.14669418334961 -9.924935340881348 -9.826186180114746 -17.245441436767578 0.17381355166435242 -19.92493438720703 C 10.173813819885254 -17.245441436767578 17.494319915771484 -9.924935340881348 20.173812866210938 0.07506486773490906" stroke-width="0.0" fill="rgb(104, 73, 142)" opacity="0.72593725" stroke="rgb(0, 114, 213)" stroke-opacity="0.57231516" stroke-linecap="round" stroke-linejoin="round"/>
    <path d="M 20.647634506225586 0.90841144323349 C 17.968141555786133 10.908411026000977 10.647634506225586 18.228918075561523 0.647634744644165 20.908411026000977 C -9.352365493774414 18.228918075561523 -16.67287254333496 10.908411026000977 -19.352365493774414 0.90841144323349 C -16.67287254333496 -9.091588973999023 -9.352365493774414 -16.41209602355957 0.647634744644165 -19.091588973999023 C 10.647634506225586 -16.41209602355957 17.968141555786133 -9.091588973999023 20.647634506225586 0.90841144323349" stroke-width="0.0" fill="rgb(237, 22, 130)" opacity="0.9712341" stroke="rgb(39, 93, 157)" stroke-opacity="0.15939489" stroke-linecap="round" stroke-linejoin="round"/>
    <path d="M 445.8487548828125 518.8203125 C 432.3589782714844 548.1681518554688 440.6130065917969 556.5916748046875 434.8714294433594 532.5919189453125 C 401.2442321777344 523.8795166015625 387.2560119628906 536.6972045898438 374.3717346191406 523.3784790039062 C 369.8970031738281 524.1375732421875 367.9251403808594 499.6053771972656 414.283935546875 481.3233642578125 C 452.8270263671875 487.6874694824219 457.7652893066406 506.6352233886719 445.8487548828125 518.8203125" stroke-width="0.0" fill="rgb(63, 86, 36)" opacity="0.3034468"/>
    <path d="M 20.748958587646484 0.5692070722579956 C 18.06946563720703 10.569207191467285 10.748957633972168 17.889713287353516 0.7489576935768127 20.56920623779297 C -9.251042366027832 17.889713287353516 -16.571548461914062 10.569207191467285 -19.251041412353516 0.5692070722579956 C -16.571548461914062 -9.430792808532715 -9.251042366027832 -16.751300811767578 0.7489576935768127 -19.43079376220703 C 10.748957633972168 -16.751300811767578 18.06946563720703 -9.430792808532715 20.748958587646484 0.5692070722579956" stroke-width="0.0" fill="rgb(70, 231, 161)" opacity="0.97270167" stroke="rgb(244, 19, 135)" stroke-opacity="0.30336428" stroke-linecap="round" stroke-linejoin="round"/>
    <path d="M 20.950786590576172 0.9995723962783813 C 18.27129364013672 10.99957275390625 10.950786590576172 18.320079803466797 0.950786292552948 20.99957275390625 C -9.049213409423828 18.320079803466797 -16.369720458984375 10.99957275390625 -19.049213409423828 0.9995723962783813 C -16.369720458984375 -9.00042724609375 -9.049213409423828 -16.320934295654297 0.950786292552948 -19.00042724609375 C 10.950786590576172 -16.320934295654297 18.27129364013672 -9.00042724609375 20.950786590576172 0.9995723962783813" stroke-width="0.0" fill="rgb(126, 79, 207)" opacity="0.90190244" stroke="rgb(11, 144, 194)" stroke-opacity="0.13650301" stroke-linecap="round" stroke-linejoin="round"/>
    <path d="M 20.03986167907715 0.4320286512374878 C 17.360368728637695 10.432028770446777 10.039860725402832 17.752534866333008 0.03986078500747681 20.43202781677246 C -9.960139274597168 17.752534866333008 -17.2806453704834 10.432028770446777 -19.96013832092285 0.4320286512374878 C -17.2806453704834 -9.567971229553223 -9.960139274597168 -16.888479232788086 0.03986078500747681 -19.56797218322754 C 10.039860725402832 -16.888479232788086 17.360368728637695 -9.567971229553223 20.03986167907715 0.4320286512374878" stroke-width="0.0" fill="rgb(9, 164, 66)" opacity="0.7692938" stroke="rgb(204, 217, 123)" stroke-opacity="0.41607067" stroke-linecap="round" stroke-linejoin="round"/>
    <path d="M 20.002676010131836 0.45050370693206787 C 17.323183059692383 10.4505033493042 10.002676010131836 17.771011352539062 0.002675722585991025 20.450504302978516 C -9.997323989868164 17.771011352539062 -17.31783103942871 10.4505033493042 -19.997323989868164 0.45050370693206787 C -17.31783103942871 -9.5494966506958 -9.997323989868164 -16.87000274658203 0.002675722585991025 -19.549495697021484 C 10.002676010131836 -16.87000274658203 17.323183059692383 -9.5494966506958 20.002676010131836 0.45050370693206787" stroke-width="0.0" fill="rgb(254, 73, 71)" opacity="0.74921906" stroke="rgb(72, 202, 230)" stroke-opacity="0.97508717" stroke-linecap="round" stroke-linejoin="round"/>
    <path d="M 447.9646911621094 307.0381164550781 C 447.13531494140625 316.855712890625 431.9295959472656 310.2936706542969 428.40277099609375 305.7146301269531 C 425.7210693359375 302.666748046875 424.24627685546875 297.49884033203125 421.6575012207031 311.41595458984375 C 425.3829650878906 333.82232666015625 393.34002685546875 307.6374816894531 388.2259216308594 325.6196594238281 C 407.1864013671875 304.3430480957031 420.7909851074219 303.4943542480469 447.9646911621094 307.0381164550781" stroke-width="0.0" fill="rgb(250, 237, 252)" opacity="0.37366465"/>
    <path d="M 20.49379539489746 0.08044185489416122 C 17.814302444458008 10.08044147491455 10.493795394897461 17.400949478149414 0.4937952160835266 20.080442428588867 C -9.506204605102539 17.400949478149414 -16.826711654663086 10.08044147491455 -19.50620460510254 0.08044185489416122 C -16.826711654663086 -9.91955852508545 -9.506204605102539 -17.24006462097168 0.4937952160835266 -19.919557571411133 C 10.493795394897461 -17.24006462097168 17.814302444458008 -9.91955852508545 20.49379539489746 0.08044185489416122" stroke-width="0.0" fill="rgb(97, 125, 228)" opacity="0.7010969" stroke="rgb(81, 107, 58)" stroke-opacity="0.19957161" stroke-linecap="round" stroke-linejoin="round"/>
    <path d="M 20.702987670898438 0.4540313184261322 C 18.023494720458984 10.454030990600586 10.702987670898438 17.774538040161133 0.702987551689148 20.454030990600586 C -9.297012329101562 17.774538040161133 -16.61751937866211 10.454030990600586 -19.297012329101562 0.4540313184261322 C -16.61751937866211 -9.545969009399414 -9.297012329101562 -16.86647605895996 0.702987551689148 -19.545969009399414 C 10.702987670898438 -16.86647605895996 18.023494720458984 -9.545969009399414 20.702987670898438 0.4540313184261322" stroke-width="0.0" fill="rgb(223, 239, 205)" opacity="0.86516356" stroke="rgb(210, 77, 101)" stroke-opacity="0.316913" stroke-linecap="round" stroke-linejoin="round"/>
    <path d="M 384.8014221191406 246.6741485595703 C 403.91387939453125 240.37295532226562 381.65509033203125 236.84939575195312 383.1937561035156 233.94021606445312 C 371.29351806640625 290.3085632324219 385.1637268066406 287.8152160644531 428.190185546875 261.30230712890625 C 431.03790283203125 228.601806640625 424.1750793457031 214.0229034423828 398.8659973144531 208.42282104492188 C 379.66241455078125 239.5391845703125 381.2277526855469 233.16546630859375 384.8014221191406 246.6741485595703" stroke-width="0.0" fill="rgb(220, 250, 250)" opacity="0.3939728"/>
    <path d="M 297.9470520019531 230.68597412109375 C 297.15423583984375 241.68844604492188 308.37884521484375 245.3863067626953 261.7828063964844 244.6512908935547 C 213.0599365234375 252.36903381347656 237.870361328125 209.58409118652344 193.20086669921875 154.162841796875 C 191.7288055419922 132.25856018066406 204.06639099121094 138.1262969970703 276.8616638183594 124.23615264892578 C 291.9024353027344 123.89906311035156 285.7349548339844 145.55628967285156 297.9470520019531 230.68597412109375" stroke-width="0.0" fill="rgb(26, 213, 207)" opacity="0.4463945"/>
    <path d="M 20.78782844543457 0.6250579953193665 C 18.108335494995117 10.6250581741333 10.78782844543457 17.94556427001953 0.7878280282020569 20.625057220458984 C -9.21217155456543 17.94556427001953 -16.532678604125977 10.6250581741333 -19.21217155456543 0.6250579953193665 C -16.532678604125977 -9.3749418258667 -9.21217155456543 -16.695449829101562 0.7878280282020569 -19.374942779541016 C 10.78782844543457 -16.695449829101562 18.108335494995117 -9.3749418258667 20.78782844543457 0.6250579953193665" stroke-width="0.0" fill="rgb(118, 110, 203)" opacity="0.82789546" stroke="rgb(85, 80, 197)" stroke-opacity="0.052072406" stroke-linecap="round" stroke-linejoin="round"/>
    <path d="M 20.661182403564453 0.9336684346199036 C 17.981689453125 10.93366813659668 10.66118335723877 18.254175186157227 0.6611830592155457 20.93366813659668 C -9.33881664276123 18.254175186157227 -16.659324645996094 10.93366813659668 -19.338817596435547 0.9336684346199036 C -16.659324645996094 -9.06633186340332 -9.33881664276123 -16.386838912963867 0.6611830592155457 -19.06633186340332 C 10.66118335723877 -16.386838912963867 17.981689453125 -9.06633186340332 20.661182403564453 0.9336684346199036" stroke-width="0.0" fill="rgb(3, 202, 121)" opacity="0.77066976" stroke="rgb(237, 219, 180)" stroke-opacity="0.48222524" stroke-linecap="round" stroke-linejoin="round"/>
    <path d="M 556.6661987304688 160.9754638671875 C 575.2138671875 190.68572998046875 574.39990234375 201.12710571289062 577.1056518554688 232.2222442626953 C 530.3345947265625 213.86456298828125 540.7852783203125 217.62442016601562 543.2306518554688 177.91802978515625 C 521.16064453125 122.09209442138672 538.6677856445312 110.1729507446289 575.7047119140625 157.53985595703125 C 597.81201171875 187.89059448242188 592.9815063476562 191.75534057617188 556.6661987304688 160.9754638671875" stroke-width="0.0" fill="rgb(215, 149, 12)" opacity="0.22202256"/>
    <path d="M 20.288610458374023 0.12435365468263626 C 17.60911750793457 10.124353408813477 10.288610458374023 17.444860458374023 0.288610577583313 20.124353408813477 C -9.711389541625977 17.444860458374023 -17.031896591186523 10.124353408813477 -19.711389541625977 0.12435365468263626 C -17.031896591186523 -9.875646591186523 -9.711389541625977 -17.19615364074707 0.288610577583313 -19.875646591186523 C 10.288610458374023 -17.19615364074707 17.60911750793457 -9.875646591186523 20.288610458374023 0.12435365468263626" stroke-width="0.0" fill="rgb(100, 45, 147)" opacity="0.8509218" stroke="rgb(21, 158, 86)" stroke-opacity="0.8559252" stroke-linecap="round" stroke-linejoin="round"/>
    <path d="M 90.88888549804688 243.62513732910156 C 85.93794250488281 278.2767028808594 96.79373931884766 329.2972717285156 85.93466186523438 308.7514953613281 C 48.33915710449219 265.5882568359375 53.28718948364258 229.0397186279297 54.461875915527344 235.08285522460938 C 57.61471176147461 220.35902404785156 54.78337860107422 226.6223907470703 58.01436233520508 209.9167022705078 C 76.54074096679688 223.51332092285156 72.66656494140625 251.28671264648438 90.88888549804688 243.62513732910156" stroke-width="0.0" fill="rgb(221, 150, 24)" opacity="0.115164146"/>
    <path d="M 20.990032196044922 0.305380254983902 C 18.31053924560547 10.305379867553711 10.990031242370605 17.625886917114258 0.9900312423706055 20.30537986755371 C -9.009968757629395 17.625886917114258 -16.330474853515625 10.305379867553711 -19.009967803955078 0.305380254983902 C -16.330474853515625 -9.694620132446289 -9.009968757629395 -17.015127182006836 0.9900312423706055 -19.69462013244629 C 10.990031242370605 -17.015127182006836 18.31053924560547 -9.694620132446289 20.990032196044922 0.305380254983902" stroke-width="0.0" fill="rgb(117, 208, 237)" opacity="0.8984399" stroke="rgb(230, 25, 59)" stroke-opacity="0.70890003" stroke-linecap="round" stroke-linejoin="round"/>
    <path d="M 20.688678741455078 0.6997336745262146 C 18.009185791015625 10.69973373413086 10.688677787780762 18.020240783691406 0.688677966594696 20.69973373413086 C -9.311322212219238 18.020240783691406 -16.63182830810547 10.69973373413086 -19.311321258544922 0.6997336745262146 C -16.63182830810547 -9.30026626586914 -9.311322212219238 -16.620773315429688 0.688677966594696 -19.30026626586914 C 10.688677787780762 -16.620773315429688 18.009185791015625 -9.30026626586914 20.688678741455078 0.6997336745262146" stroke-width="0.0" fill="rgb(110, 49, 48)" opacity="0.77967626" stroke="rgb(195, 52, 82)" stroke-opacity="0.46548697" stroke-linecap="round" stroke-linejoin="round"/>
    <path d="M 66.93858337402344 285.32470703125 C -14.450203895568848 274.8265380859375 6.770493507385254 287.6802673339844 31.134349822998047 295.5048828125 C 50.37900161743164 312.44073486328125 43.78589630126953 301.8050537109375 22.80335807800293 265.2095947265625 C 27.6458683013916 220.6996612548828 22.890548706054688 202.7075653076172 47.712730407714844 216.76873779296875 C 63.26804733276367 242.2534637451172 66.53498840332031 275.3165588378906 66.93858337402344 285.32470703125" stroke-width="0.0" fill="rgb(210, 162, 1)" opacity="0.13373272"/>
    <path d="M 164.32403564453125 240.17233276367188 C 175.60093688964844 234.04684448242188 160.92613220214844 251.04002380371094 136.28614807128906 258.3267822265625 C 114.02071380615234 273.1255798339844 114.1208267211914 256.6661376953125 126.13648986816406 231.6016845703125 C 146.10894775390625 218.85733032226562 159.3649444580078 250.65927124023438 146.49415588378906 225.81201171875 C 145.7396240234375 234.03555297851562 167.4014434814453 253.9252471923828 164.32403564453125 240.17233276367188" stroke-width="0.0" fill="rgb(18, 208, 209)" opacity="0.4380545"/>
    <path d="M 64.51181030273438 499.98614501953125 C 74.46885681152344 524.6742553710938 79.85053253173828 558.53955078125 69.64327239990234 535.939208984375 C 38.94412612915039 501.8919677734375 -7.469371795654297 503.2973937988281 39.499488830566406 522.5988159179688 C 43.73337936401367 496.361328125 40.65593338012695 500.2066345214844 3.004786968231201 494.55426025390625 C 21.980344772338867 486.7786865234375 44.3988151550293 494.0968322753906 64.51181030273438 499.98614501953125" stroke-width="0.0" fill="rgb(222, 158, 3)" opacity="0.10031885"/>
    <path d="M 20.62102699279785 0.6096308827400208 C 17.9415340423584 10.609630584716797 10.621026992797852 17.930137634277344 0.6210273504257202 20.609630584716797 C -9.378973007202148 17.930137634277344 -16.699480056762695 10.609630584716797 -19.37897300720215 0.6096308827400208 C -16.699480056762695 -9.390369415283203 -9.378973007202148 -16.71087646484375 0.6210273504257202 -19.390369415283203 C 10.621026992797852 -16.71087646484375 17.9415340423584 -9.390369415283203 20.62102699279785 0.6096308827400208" stroke-width="0.0" fill="rgb(210, 218, 105)" opacity="0.8313345" stroke="rgb(58, 74, 196)" stroke-opacity="0.07552709" stroke-linecap="round" stroke-linejoin="round"/>
    <path d="M 20.740089416503906 0.947590172290802 C 18.060596466064453 10.947589874267578 10.740089416503906 18.268096923828125 0.7400892972946167 20.947589874267578 C -9.259910583496094 18.268096923828125 -16.58041763305664 10.947589874267578 -19.259910583496094 0.947590172290802 C -16.58041763305664 -9.052410125732422 -9.259910583496094 -16.37291717529297 0.7400892972946167 -19.052410125732422 C 10.740089416503906 -16.37291717529297 18.060596466064453 -9.052410125732422 20.740089416503906 0.947590172290802" stroke-width="0.0" fill="rgb(211, 109, 151)" opacity="0.8012077" stroke="rgb(22, 245, 205)" stroke-opacity="0.45963275" stroke-linecap="round" stroke-linejoin="round"/>
    <path d="M 129.49899291992188 108.10084533691406 C 128.7653350830078 138.3109893798828 92.95498657226562 108.91790008544922 63.54999542236328 85.67524719238281 C 75.66922760009766 141.346923828125 59.7640495300293 124.48200988769531 56.60972595214844 73.80714416503906 C 49.896915435791016 41.42893981933594 24.80695152282715 57.53571319580078 108.99778747558594 53.02599334716797 C 116.8325424194336 -19.902807235717773 121.65506744384766 8.172514915466309 129.49899291992188 108.10084533691406" stroke-width="0.0" fill="rgb(219, 153, 7)" opacity="0.26695994"/>
    <path d="M 130.33445739746094 567.9012451171875 C 99.02957153320312 573.0919799804688 80.30340576171875 557.819091796875 82.76471710205078 543.1869506835938 C 61.82835006713867 521.7085571289062 50.28425598144531 540.778564453125 68.38108825683594 559.7921142578125 C 59.58086013793945 483.5127868652344 53.68194580078125 444.60406494140625 70.88613891601562 481.8807373046875 C 107.86952209472656 480.842529296875 114.20276641845703 488.0332946777344 130.33445739746094 567.9012451171875" stroke-width="0.0" fill="rgb(223, 154, 11)" opacity="0.29010642"/>
    <path d="M 20.207788467407227 0.2110251933336258 C 17.528295516967773 10.21102523803711 10.20778751373291 17.531532287597656 0.2077879011631012 20.21102523803711 C -9.79221248626709 17.531532287597656 -17.11271858215332 10.21102523803711 -19.792211532592773 0.2110251933336258 C -17.11271858215332 -9.78897476196289 -9.79221248626709 -17.109481811523438 0.2077879011631012 -19.78897476196289 C 10.20778751373291 -17.109481811523438 17.528295516967773 -9.78897476196289 20.207788467407227 0.2110251933336258" stroke-width="0.0" fill="rgb(57, 238, 87)" opacity="0.8689493" stroke="rgb(240, 0, 60)" stroke-opacity="0.93844765" stroke-linecap="round" stroke-linejoin="round"/>
  </g>
</svg>
