<?xml version="1.0" ?>
<svg xmlns="http://www.w3.org/2000/svg" version="1.1" width="600" height="600">
  <defs/>
  <g>
    <path d="M 546.4716796875 332.4899597167969 C 582.5511474609375 394.2309265136719 525.23486328125 377.47357177734375 486.5378723144531 356.1619873046875 C 459.0640563964844 355.8692626953125 432.37750244140625 355.6576232910156 364.8783874511719 343.1766357421875 C 366.21600341796875 245.89474487304688 405.7550048828125 285.7163391113281 453.4671630859375 275.0736083984375 C 516.4917602539062 228.60264587402344 535.004638671875 248.5382080078125 546.4716796875 332.4899597167969" stroke-width="0.0" fill="rgb(0, 168, 162)" opacity="0.959676"/>
    <path d="M 181.48265075683594 480.8619384765625 C 223.81968688964844 485.3399658203125 200.84194946289062 467.8406677246094 154.35919189453125 611.9879760742188 C 81.9327392578125 613.2665405273438 11.354660034179688 631.426025390625 -87.8240966796875 463.0563659667969 C -1.7016222476959229 343.7203674316406 77.85041046142578 354.9530944824219 195.04489135742188 429.53082275390625 C 214.9053955078125 428.4093017578125 196.8433074951172 450.41424560546875 181.48265075683594 480.8619384765625" stroke-width="0.0" fill="rgb(9, 217, 221)" opacity="0.87687767"/>
    <path d="M 435.79443359375 233.70101928710938 C 462.53082275390625 262.47509765625 451.8556213378906 239.30828857421875 477.17669677734375 236.8728485107422 C 513.843994140625 250.03427124023438 498.60565185546875 274.27264404296875 473.0721740722656 245.21754455566406 C 469.8856506347656 276.1158752441406 471.9117126464844 298.1802062988281 431.54718017578125 270.8695983886719 C 438.3719177246094 224.2344512939453 453.361328125 215.9202880859375 435.79443359375 233.70101928710938" stroke-width="0.0" fill="rgb(200, 253, 77)" opacity="0.008477816"/>
    <path d="M 315.3277282714844 122.62714385986328 C 320.38720703125 98.9552001953125 314.6538391113281 120.67878723144531 300.1591491699219 105.12591552734375 C 300.230224609375 87.10338592529297 268.1556396484375 79.56257629394531 280.8033447265625 116.27252960205078 C 269.22564697265625 108.16044616699219 247.8842010498047 89.72281646728516 302.3904724121094 81.11115264892578 C 331.6362609863281 120.27498626708984 339.54052734375 121.8400650024414 315.3277282714844 122.62714385986328" stroke-width="0.0" fill="rgb(101, 197, 34)" opacity="0.0"/>
    <path d="M 370.6493835449219 596.0203857421875 C 361.5849304199219 621.6011962890625 340.3881530761719 640.163818359375 346.09503173828125 604.8795166015625 C 340.2895202636719 620.043701171875 336.623779296875 627.7833862304688 279.27789306640625 611.4639892578125 C 268.52301025390625 560.1063842773438 279.0985412597656 531.6173706054688 296.5585021972656 537.7801513671875 C 314.1832275390625 583.1481323242188 349.1132507324219 573.6533813476562 370.6493835449219 596.0203857421875" stroke-width="0.0" fill="rgb(40, 232, 31)" opacity="0.48883656"/>
    <path d="M 657.8146362304688 184.75411987304688 C 614.072021484375 197.3775634765625 582.5592651367188 209.50704956054688 588.3331298828125 185.0962677001953 C 544.6939086914062 211.67591857910156 505.0725402832031 206.2006072998047 505.0467834472656 159.4415283203125 C 581.34765625 170.30191040039062 587.9662475585938 163.73687744140625 580.5989379882812 160.3465576171875 C 600.0115356445312 205.77976989746094 612.3035888671875 192.7366485595703 657.8146362304688 184.75411987304688" stroke-width="0.0" fill="rgb(32, 64, 151)" opacity="0.64196235"/>
    <path d="M 417.3342590332031 200.36001586914062 C 384.2208557128906 197.1055450439453 353.76226806640625 203.98619079589844 361.0976257324219 222.91949462890625 C 320.09014892578125 233.0605926513672 287.7632141113281 200.59690856933594 306.34747314453125 184.71438598632812 C 380.7651062011719 207.18211364746094 408.6853942871094 198.7916717529297 435.09136962890625 196.67762756347656 C 440.390380859375 154.88079833984375 488.8382568359375 190.87380981445312 417.3342590332031 200.36001586914062" stroke-width="0.0" fill="rgb(53, 96, 88)" opacity="0.7338895"/>
    <path d="M 204.56907653808594 348.3468017578125 C 236.067138671875 382.80224609375 221.01365661621094 383.3771667480469 171.33743286132812 386.1695861816406 C 117.14957427978516 398.19732666015625 17.631330490112305 426.18017578125 4.020752429962158 294.8142395019531 C 51.66031265258789 255.66134643554688 104.58443450927734 214.38189697265625 174.47119140625 232.2552947998047 C 202.4421844482422 280.33404541015625 191.14541625976562 327.4956970214844 204.56907653808594 348.3468017578125" stroke-width="0.0" fill="rgb(2, 165, 166)" opacity="0.9372802"/>
    <path d="M 118.73777770996094 128.8938446044922 C 92.47259521484375 153.4679412841797 66.8762435913086 143.00360107421875 32.520023345947266 136.52574157714844 C 50.130531311035156 150.878173828125 23.95146942138672 175.06593322753906 39.140140533447266 116.56397247314453 C 42.014427185058594 103.36070251464844 90.15825653076172 127.96080780029297 101.57605743408203 91.4736328125 C 115.36060333251953 68.30322265625 147.0850372314453 88.60032653808594 118.73777770996094 128.8938446044922" stroke-width="0.0" fill="rgb(3, 83, 138)" opacity="0.68518734"/>
    <path d="M 140.1656494140625 38.33946228027344 C 158.13099670410156 87.79618835449219 151.98423767089844 112.81980895996094 70.65847778320312 87.75308227539062 C 7.384910583496094 104.60741424560547 8.28625774383545 97.41728210449219 0.6901002526283264 14.584070205688477 C 64.98641967773438 13.161556243896484 90.79182434082031 28.53380584716797 66.54808044433594 24.144243240356445 C 93.50016021728516 22.5714168548584 135.14772033691406 12.093036651611328 140.1656494140625 38.33946228027344" stroke-width="0.0" fill="rgb(6, 143, 167)" opacity="0.7110311"/>
    <path d="M 619.4214477539062 264.241455078125 C 597.5371704101562 267.4832458496094 597.8885498046875 234.12789916992188 594.8338012695312 192.00717163085938 C 561.4583740234375 191.54190063476562 522.702392578125 196.43698120117188 542.1752319335938 170.85617065429688 C 570.4818115234375 154.6000213623047 581.0266723632812 176.36094665527344 605.3593139648438 188.57762145996094 C 602.135009765625 158.5686798095703 620.7988891601562 157.1563262939453 619.4214477539062 264.241455078125" stroke-width="0.0" fill="rgb(15, 43, 24)" opacity="0.9173734"/>
    <path d="M 351.3644714355469 197.91546630859375 C 384.15557861328125 236.61228942871094 341.0964660644531 189.0795135498047 324.7126159667969 218.05320739746094 C 274.7925720214844 224.3321533203125 269.78076171875 243.77786254882812 216.5321502685547 218.40208435058594 C 157.1186065673828 191.0980987548828 171.15184020996094 150.51890563964844 281.18389892578125 107.79511260986328 C 305.0516357421875 116.23046875 299.6761169433594 149.71258544921875 351.3644714355469 197.91546630859375" stroke-width="0.0" fill="rgb(13, 79, 98)" opacity="1.0"/>
    <path d="M 156.84072875976562 412.5620422363281 C 208.5415496826172 470.76287841796875 184.32679748535156 518.0912475585938 136.11219787597656 489.81683349609375 C 158.8385772705078 469.7059631347656 152.9503631591797 479.9697570800781 155.43458557128906 527.88671875 C 227.87376403808594 528.38916015625 230.8611297607422 496.38702392578125 152.0954132080078 489.86468505859375 C 121.4324951171875 474.9643249511719 107.58273315429688 442.56390380859375 156.84072875976562 412.5620422363281" stroke-width="0.0" fill="rgb(0, 235, 247)" opacity="0.18974808"/>
    <path d="M 59.588130950927734 118.86957550048828 C 99.9352035522461 143.88967895507812 96.72454833984375 155.5611572265625 62.21988296508789 186.87026977539062 C 8.409541130065918 177.47708129882812 -29.31752586364746 193.64642333984375 -37.12543487548828 171.14236450195312 C -33.44150161743164 98.5044174194336 -35.06019973754883 114.98657989501953 -50.93397903442383 79.3511962890625 C 4.0592217445373535 62.11115646362305 52.66746139526367 78.9406967163086 59.588130950927734 118.86957550048828" stroke-width="0.0" fill="rgb(4, 38, 42)" opacity="0.93971294"/>
    <path d="M 200.58799743652344 339.21197509765625 C 230.67247009277344 315.88995361328125 185.52334594726562 305.6083679199219 195.32093811035156 269.6303405761719 C 162.12396240234375 251.53565979003906 156.4722137451172 289.8223571777344 175.81784057617188 273.6765441894531 C 171.03526306152344 262.6841735839844 149.3485107421875 260.9273376464844 147.83657836914062 256.4922180175781 C 153.7454833984375 310.593017578125 153.65872192382812 310.1114807128906 200.58799743652344 339.21197509765625" stroke-width="0.0" fill="rgb(112, 182, 40)" opacity="0.0064897495"/>
    <path d="M 406.80767822265625 283.4772033691406 C 413.6588134765625 322.8079833984375 383.5373840332031 319.8203125 367.286376953125 329.6492614746094 C 348.2072448730469 342.85491943359375 342.8914489746094 339.3526916503906 338.7673034667969 302.65020751953125 C 339.542236328125 333.66607666015625 351.0570983886719 320.1534423828125 344.09588623046875 296.0804748535156 C 373.6197814941406 302.2315979003906 401.062744140625 318.3226318359375 406.80767822265625 283.4772033691406" stroke-width="0.0" fill="rgb(79, 144, 95)" opacity="0.36583975"/>
    <path d="M 377.12841796875 35.944122314453125 C 462.64056396484375 48.31894302368164 461.3053894042969 55.875648498535156 454.9834899902344 28.905353546142578 C 442.064697265625 24.701671600341797 437.27630615234375 27.323158264160156 380.47344970703125 -1.1620728969573975 C 389.9137878417969 44.93137741088867 405.7792053222656 54.06953811645508 404.2242431640625 51.989925384521484 C 403.1908874511719 65.74434661865234 396.2939147949219 80.71898651123047 377.12841796875 35.944122314453125" stroke-width="0.0" fill="rgb(254, 227, 171)" opacity="0.0022373952"/>
    <path d="M 482.0360107421875 146.9218292236328 C 464.89599609375 169.9115753173828 435.00103759765625 177.82240295410156 297.972900390625 149.36460876464844 C 318.83099365234375 69.50780487060547 339.4808044433594 75.74745178222656 344.2136535644531 81.99658966064453 C 331.3670654296875 64.22100067138672 348.9247741699219 21.616357803344727 412.3612365722656 23.932039260864258 C 435.5042419433594 3.3353936672210693 461.9219055175781 31.780057907104492 482.0360107421875 146.9218292236328" stroke-width="0.0" fill="rgb(255, 253, 38)" opacity="0.0"/>
    <path d="M 174.57098388671875 600.1594848632812 C 221.77584838867188 600.9227294921875 213.9627685546875 612.0105590820312 210.4022216796875 629.190673828125 C 97.57936096191406 620.3631591796875 60.294586181640625 616.8497924804688 4.827646732330322 605.32958984375 C 43.64897537231445 591.535400390625 43.51356887817383 597.7081909179688 100.04055786132812 594.720947265625 C 105.67841339111328 591.7054443359375 129.77037048339844 595.9452514648438 174.57098388671875 600.1594848632812" stroke-width="0.0" fill="rgb(0, 85, 83)" opacity="0.95158863"/>
    <path d="M 243.92625427246094 307.4656677246094 C 231.8333740234375 274.4320068359375 224.1171417236328 305.78668212890625 247.83753967285156 302.5941467285156 C 219.63372802734375 300.1797790527344 218.851806640625 296.2355041503906 237.52430725097656 269.84490966796875 C 239.56719970703125 279.9500732421875 278.3355407714844 295.57098388671875 223.16925048828125 301.1192321777344 C 223.66107177734375 292.0326843261719 218.28952026367188 297.98150634765625 243.92625427246094 307.4656677246094" stroke-width="0.0" fill="rgb(207, 244, 183)" opacity="0.030664587"/>
    <path d="M 482.2526550292969 567.1654663085938 C 479.72698974609375 589.7626953125 466.49456787109375 568.7288208007812 402.4568786621094 566.7903442382812 C 374.8804626464844 573.8707275390625 368.0907287597656 565.9409790039062 330.403076171875 528.9823608398438 C 314.9476318359375 486.06640625 396.58221435546875 527.1180419921875 408.6386413574219 537.7412109375 C 459.955078125 512.328857421875 479.6960144042969 480.6063232421875 482.2526550292969 567.1654663085938" stroke-width="0.0" fill="rgb(114, 225, 139)" opacity="0.35797077"/>
    <path d="M 54.01058578491211 -2.8330178260803223 C 24.0679874420166 18.548490524291992 15.113043785095215 15.92311954498291 19.76520347595215 51.54566955566406 C -21.305849075317383 47.80076217651367 -44.16556167602539 51.15785217285156 -46.40053939819336 40.92084884643555 C -13.78525161743164 -2.1159186363220215 -6.464744567871094 -9.436426162719727 51.94549560546875 -51.54990768432617 C 65.48866271972656 -45.6173210144043 68.10200500488281 -30.379234313964844 54.01058578491211 -2.8330178260803223" stroke-width="0.0" fill="rgb(0, 0, 0)" opacity="1.0"/>
    <path d="M 410.3817443847656 167.1744842529297 C 421.6670227050781 194.58065795898438 382.6806335449219 209.27664184570312 321.8575439453125 186.27789306640625 C 334.43731689453125 117.99864196777344 364.29351806640625 113.9762191772461 409.6190490722656 99.64396667480469 C 392.676513671875 22.562576293945312 341.4456481933594 37.96407699584961 314.1116638183594 115.2535400390625 C 368.7400207519531 158.76597595214844 401.03692626953125 157.51919555664062 410.3817443847656 167.1744842529297" stroke-width="0.0" fill="rgb(103, 211, 22)" opacity="0.0"/>
    <path d="M 315.655517578125 330.21490478515625 C 303.5213623046875 325.9563903808594 273.53460693359375 316.2740173339844 257.2742919921875 334.0209655761719 C 260.7292785644531 399.396728515625 235.87228393554688 403.8950500488281 210.24356079101562 409.6844482421875 C 206.0355224609375 342.61993408203125 248.6804656982422 316.8199157714844 276.0771484375 323.9613037109375 C 285.6456298828125 282.4680480957031 326.86810302734375 300.37591552734375 315.655517578125 330.21490478515625" stroke-width="0.0" fill="rgb(0, 155, 183)" opacity="0.93262863"/>
    <path d="M 608.4205322265625 572.6469116210938 C 603.4132690429688 622.6842041015625 590.552490234375 622.71533203125 492.1496276855469 595.935546875 C 497.3999328613281 587.8145141601562 509.10565185546875 600.7811279296875 559.665283203125 578.4227294921875 C 589.1253051757812 559.9619750976562 581.6612548828125 532.572998046875 599.0879516601562 500.873291015625 C 635.27978515625 500.9227294921875 632.923828125 504.2902526855469 608.4205322265625 572.6469116210938" stroke-width="0.0" fill="rgb(0, 0, 0)" opacity="1.0"/>
    <path d="M 161.32626342773438 65.56663513183594 C 169.3827362060547 125.56327056884766 168.63113403320312 84.26953125 85.37594604492188 111.47233581542969 C 51.215187072753906 120.38227844238281 43.137271881103516 119.55005645751953 3.635594129562378 130.3094482421875 C -43.287139892578125 18.822412490844727 0.34074583649635315 12.861166000366211 78.1348648071289 -16.009599685668945 C 128.31077575683594 12.169341087341309 137.34530639648438 29.872882843017578 161.32626342773438 65.56663513183594" stroke-width="0.0" fill="rgb(12, 59, 82)" opacity="0.99749154"/>
    <path d="M 302.1089782714844 126.44758605957031 C 313.0910949707031 158.20265197753906 311.95074462890625 168.88658142089844 279.4012145996094 159.85592651367188 C 230.93003845214844 127.07332611083984 208.1326904296875 123.20862579345703 187.30178833007812 105.5987319946289 C 170.7696533203125 80.5595474243164 211.04522705078125 87.1429443359375 233.60374450683594 101.7639389038086 C 270.7581481933594 97.05179595947266 302.4538879394531 95.11048889160156 302.1089782714844 126.44758605957031" stroke-width="0.0" fill="rgb(42, 97, 121)" opacity="0.58467335"/>
    <path d="M 186.614990234375 85.71863555908203 C 224.58547973632812 103.84374237060547 237.8516845703125 102.1987075805664 177.6063232421875 123.6974105834961 C 141.85986328125 147.0966339111328 93.66590881347656 132.83311462402344 74.60951232910156 95.23345184326172 C 149.9311981201172 83.6078872680664 164.5772247314453 77.4392318725586 181.8037567138672 79.84130096435547 C 157.53684997558594 87.2269058227539 169.9840850830078 69.4822998046875 186.614990234375 85.71863555908203" stroke-width="0.0" fill="rgb(28, 71, 21)" opacity="0.8185569"/>
    <path d="M 565.542236328125 188.95858764648438 C 536.8290405273438 178.60952758789062 541.0357666015625 191.75540161132812 557.295654296875 186.25088500976562 C 579.7901000976562 154.771240234375 585.5462646484375 142.36663818359375 533.3450317382812 141.58334350585938 C 530.6270141601562 197.1420440673828 523.2496948242188 192.75083923339844 528.8385009765625 184.281982421875 C 554.6119995117188 165.93658447265625 578.7556762695312 177.5334014892578 565.542236328125 188.95858764648438" stroke-width="0.0" fill="rgb(12, 84, 38)" opacity="0.29774487"/>
    <path d="M 223.08392333984375 126.53477478027344 C 207.60125732421875 118.60025787353516 217.29185485839844 100.86548614501953 183.7177276611328 87.09294128417969 C 193.68087768554688 94.64982604980469 220.62051391601562 91.19610595703125 165.56192016601562 112.63954162597656 C 139.77406311035156 81.37345123291016 146.37481689453125 52.39967727661133 180.2061767578125 87.36309051513672 C 206.9706268310547 91.29023742675781 230.66122436523438 92.18341064453125 223.08392333984375 126.53477478027344" stroke-width="0.0" fill="rgb(13, 75, 6)" opacity="0.7568204"/>
    <path d="M 541.3013305664062 407.5190124511719 C 475.127197265625 438.4056396484375 469.2661437988281 413.7110595703125 456.9393005371094 475.4352111816406 C 384.51483154296875 493.41693115234375 354.6039733886719 511.01251220703125 353.669677734375 460.17034912109375 C 423.48919677734375 447.8306579589844 453.0457763671875 461.3353271484375 471.43963623046875 377.5165100097656 C 481.2961730957031 315.3512878417969 541.2173461914062 349.1733093261719 541.3013305664062 407.5190124511719" stroke-width="0.0" fill="rgb(13, 163, 169)" opacity="1.0"/>
    <path d="M 309.4256286621094 134.4238739013672 C 309.52630615234375 173.01885986328125 322.7433776855469 142.6343231201172 309.3407287597656 165.99151611328125 C 244.12350463867188 173.60186767578125 218.00738525390625 162.2926025390625 196.0982208251953 84.89725494384766 C 212.99090576171875 66.60741424560547 236.35128784179688 34.86459732055664 270.7152099609375 52.092315673828125 C 301.7214660644531 70.99443054199219 306.428466796875 105.40567779541016 309.4256286621094 134.4238739013672" stroke-width="0.0" fill="rgb(0, 91, 111)" opacity="1.0"/>
    <path d="M 413.6640930175781 330.31060791015625 C 448.9848327636719 333.7349853515625 426.015625 314.5080871582031 415.4671325683594 315.0718078613281 C 416.7057800292969 361.1092834472656 387.916748046875 340.7271423339844 358.4486083984375 319.2260437011719 C 328.6091003417969 325.3748474121094 360.1288146972656 317.5635681152344 385.66180419921875 315.67474365234375 C 391.3910217285156 322.0804138183594 407.0056457519531 347.3302307128906 413.6640930175781 330.31060791015625" stroke-width="0.0" fill="rgb(50, 96, 78)" opacity="0.29307836"/>
    <path d="M 335.7685852050781 541.8182373046875 C 337.6412658691406 542.516357421875 295.05084228515625 540.4946899414062 287.0326232910156 582.5144653320312 C 266.5146179199219 602.0841064453125 231.64413452148438 593.6051635742188 237.08404541015625 550.0322265625 C 270.4689636230469 556.51953125 276.8604736328125 518.13818359375 296.3433837890625 505.0533752441406 C 340.7845764160156 518.5745239257812 327.9339904785156 518.4072265625 335.7685852050781 541.8182373046875" stroke-width="0.0" fill="rgb(40, 200, 175)" opacity="0.42648676"/>
    <path d="M 236.1155548095703 149.8387451171875 C 250.10208129882812 181.15126037597656 234.02601623535156 170.41732788085938 215.6636962890625 196.7056884765625 C 165.99795532226562 200.63233947753906 135.0876922607422 212.2696533203125 90.71588897705078 141.94493103027344 C 112.76576232910156 113.52102661132812 160.63856506347656 125.60008239746094 211.29132080078125 132.33131408691406 C 205.02761840820312 104.6932144165039 228.73309326171875 127.27363586425781 236.1155548095703 149.8387451171875" stroke-width="0.0" fill="rgb(10, 71, 86)" opacity="0.9456422"/>
    <path d="M 420.9666442871094 305.72247314453125 C 447.6131896972656 371.2299499511719 424.5445556640625 375.01763916015625 405.08209228515625 314.2027893066406 C 357.0090026855469 330.8927917480469 330.7330017089844 357.77056884765625 275.8418273925781 277.7596435546875 C 329.86865234375 277.24847412109375 354.87158203125 303.4959716796875 379.0255432128906 332.3236999511719 C 418.0711364746094 345.70904541015625 436.9351806640625 318.36517333984375 420.9666442871094 305.72247314453125" stroke-width="0.0" fill="rgb(51, 138, 179)" opacity="0.6226378"/>
    <path d="M 313.17724609375 106.09503936767578 C 301.2513122558594 114.27513122558594 299.65625 128.9248046875 308.7120056152344 124.83061218261719 C 261.5113830566406 129.00010681152344 233.39431762695312 136.14097595214844 208.03579711914062 104.82508087158203 C 235.01234436035156 117.04226684570312 254.61900329589844 100.98260498046875 278.8410339355469 105.15336608886719 C 315.0030212402344 118.23251342773438 308.88555908203125 115.6356201171875 313.17724609375 106.09503936767578" stroke-width="0.0" fill="rgb(9, 96, 81)" opacity="0.020528354"/>
    <path d="M 484.6379089355469 536.6168212890625 C 426.5603332519531 619.22216796875 421.20574951171875 631.0616455078125 361.6446228027344 626.9198608398438 C 289.11761474609375 604.6841430664062 236.7822265625 597.4046020507812 242.43519592285156 530.3587646484375 C 253.0474395751953 464.6411437988281 277.4132995605469 466.80609130859375 293.42193603515625 431.7221984863281 C 370.8727111816406 416.421630859375 445.7073669433594 404.3081970214844 484.6379089355469 536.6168212890625" stroke-width="0.0" fill="rgb(18, 179, 189)" opacity="1.0"/>
    <path d="M 258.5962829589844 16.218137741088867 C 243.618408203125 76.08756256103516 223.9986114501953 34.580963134765625 228.9651641845703 65.87288665771484 C 188.10585021972656 48.27519226074219 190.70782470703125 22.003694534301758 232.36131286621094 23.749958038330078 C 232.657958984375 -27.152070999145508 229.47305297851562 -45.55399703979492 232.04344177246094 -62.411781311035156 C 260.8893737792969 -24.090829849243164 268.8066101074219 -26.517581939697266 258.5962829589844 16.218137741088867" stroke-width="0.0" fill="rgb(253, 252, 222)" opacity="0.00040911222"/>
    <path d="M 340.13128662109375 331.3192138671875 C 313.9305419921875 338.06512451171875 302.95843505859375 324.67315673828125 340.2728271484375 325.7099609375 C 340.987060546875 339.41412353515625 307.6148681640625 332.80078125 238.94224548339844 312.05059814453125 C 200.81918334960938 355.0465087890625 251.7523956298828 314.97119140625 288.6863098144531 328.911376953125 C 304.5198059082031 318.742919921875 323.7791442871094 317.2076721191406 340.13128662109375 331.3192138671875" stroke-width="0.0" fill="rgb(9, 151, 143)" opacity="0.6340705"/>
    <path d="M 467.8141784667969 400.0123596191406 C 508.36798095703125 381.1148986816406 501.1492004394531 401.8645324707031 464.02569580078125 434.8048095703125 C 446.2058410644531 450.926025390625 448.5248107910156 455.1531677246094 419.0535583496094 435.3577880859375 C 410.216796875 381.41314697265625 397.5301818847656 375.634765625 475.4394836425781 358.8277587890625 C 481.7207336425781 430.0728759765625 490.8620300292969 470.49017333984375 467.8141784667969 400.0123596191406" stroke-width="0.0" fill="rgb(129, 126, 106)" opacity="0.08195077"/>
    <path d="M 101.26805114746094 384.968505859375 C 112.16862487792969 409.737060546875 113.40736389160156 417.0989685058594 94.4889144897461 432.7808837890625 C 37.512149810791016 438.08245849609375 -31.73577308654785 425.9320068359375 -42.93488693237305 305.84844970703125 C 58.912200927734375 284.87945556640625 128.1051483154297 324.3201599121094 145.84828186035156 356.51580810546875 C 122.84030151367188 439.6507568359375 102.13599395751953 441.4151306152344 101.26805114746094 384.968505859375" stroke-width="0.0" fill="rgb(12, 174, 171)" opacity="0.9944524"/>
    <path d="M 99.5235366821289 597.8438110351562 C 80.1208267211914 589.7754516601562 78.69178771972656 584.9593505859375 81.58377075195312 575.0958862304688 C 99.9661865234375 613.785888671875 73.6385726928711 610.0579833984375 76.45381927490234 607.0762939453125 C 115.19139099121094 575.7261352539062 115.52833557128906 556.7578125 101.05632019042969 564.4774169921875 C 96.083251953125 587.8140869140625 108.50955200195312 586.6022338867188 99.5235366821289 597.8438110351562" stroke-width="0.0" fill="rgb(40, 160, 12)" opacity="0.09815495"/>
    <path d="M 202.35694885253906 239.26124572753906 C 282.21368408203125 249.19720458984375 283.79296875 254.25515747070312 245.4547119140625 315.0599670410156 C 173.50709533691406 307.2550354003906 167.9750518798828 298.468017578125 214.85565185546875 294.16363525390625 C 199.04640197753906 363.61810302734375 208.6134796142578 364.5755310058594 243.177490234375 309.96746826171875 C 194.02243041992188 274.4730529785156 184.0808868408203 279.638427734375 202.35694885253906 239.26124572753906" stroke-width="0.0" fill="rgb(196, 253, 84)" opacity="0.004006727"/>
    <path d="M 620.0952758789062 415.5731506347656 C 672.6299438476562 457.55621337890625 647.5118408203125 450.6268310546875 579.1653442382812 451.4702453613281 C 566.3448486328125 416.6454162597656 552.81640625 403.9125061035156 557.7540283203125 448.11126708984375 C 557.5155029296875 400.72503662109375 582.998779296875 408.8130798339844 557.4212036132812 399.4743957519531 C 561.776123046875 396.7962951660156 581.1734008789062 400.3795166015625 620.0952758789062 415.5731506347656" stroke-width="0.0" fill="rgb(33, 154, 130)" opacity="0.7105974"/>
    <path d="M 197.35289001464844 154.60821533203125 C 202.9575653076172 216.6697235107422 172.87709045410156 220.2718505859375 118.62168884277344 219.572509765625 C 54.14932632446289 223.95416259765625 65.42391967773438 197.9835205078125 51.9293098449707 137.1580810546875 C 61.1735725402832 97.93431091308594 71.27586364746094 117.1247787475586 112.0230484008789 99.82559967041016 C 164.16783142089844 94.15323638916016 187.45315551757812 110.89859771728516 197.35289001464844 154.60821533203125" stroke-width="0.0" fill="rgb(7, 78, 77)" opacity="0.93353534"/>
    <path d="M 109.4520492553711 130.63795471191406 C 149.25180053710938 174.27586364746094 163.68370056152344 243.40321350097656 75.58838653564453 231.8100128173828 C 9.531684875488281 204.9295654296875 -10.925820350646973 198.20590209960938 3.8823816776275635 87.0282211303711 C 112.27662658691406 70.15706634521484 116.7517318725586 83.29705047607422 124.20597839355469 72.10070037841797 C 130.88143920898438 122.30460357666016 124.42696380615234 151.1537628173828 109.4520492553711 130.63795471191406" stroke-width="0.0" fill="rgb(10, 61, 83)" opacity="1.0"/>
    <path d="M 575.8873291015625 194.4915771484375 C 563.9949951171875 213.80755615234375 535.8318481445312 223.95802307128906 562.1610107421875 171.82073974609375 C 578.6110229492188 151.55979919433594 586.59326171875 149.6099853515625 630.1964111328125 196.49713134765625 C 619.2976684570312 210.7069854736328 584.81396484375 220.67572021484375 551.4718017578125 190.539306640625 C 569.9493408203125 179.88156127929688 609.6068115234375 204.00067138671875 575.8873291015625 194.4915771484375" stroke-width="0.0" fill="rgb(12, 117, 44)" opacity="0.017401751"/>
    <path d="M 461.3968505859375 336.65277099609375 C 482.0741271972656 355.5530700683594 473.63677978515625 359.50555419921875 421.75469970703125 344.78057861328125 C 447.60321044921875 339.6490783691406 433.6275939941406 341.96905517578125 427.57080078125 348.39666748046875 C 440.1596374511719 346.3686218261719 495.096923828125 365.5350341796875 483.32464599609375 354.37152099609375 C 406.9461364746094 327.0484313964844 428.37188720703125 335.2862243652344 461.3968505859375 336.65277099609375" stroke-width="0.0" fill="rgb(57, 179, 60)" opacity="0.10397996"/>
    <path d="M 412.7546691894531 277.79217529296875 C 359.2306823730469 320.8803405761719 375.7033996582031 317.7720031738281 377.3982849121094 328.2015075683594 C 355.8158874511719 326.7690124511719 319.1009521484375 315.6952819824219 306.2222900390625 341.30462646484375 C 294.40655517578125 328.2519836425781 291.340576171875 277.4282531738281 286.3620910644531 283.79876708984375 C 383.3746337890625 267.9551696777344 409.37554931640625 270.2751159667969 412.7546691894531 277.79217529296875" stroke-width="0.0" fill="rgb(98, 151, 205)" opacity="0.47431403"/>
    <path d="M 415.8699645996094 335.4579772949219 C 396.8305358886719 332.16571044921875 374.9611511230469 330.9837646484375 382.8314208984375 348.0518493652344 C 405.2061767578125 369.5018615722656 386.5478210449219 356.2504577636719 344.94000244140625 340.977783203125 C 304.5820007324219 286.94476318359375 334.09051513671875 289.38006591796875 409.6880187988281 288.021240234375 C 416.126220703125 297.0615234375 417.0124206542969 312.9997253417969 415.8699645996094 335.4579772949219" stroke-width="0.0" fill="rgb(120, 177, 154)" opacity="0.3163465"/>
    <path d="M 402.8733825683594 156.6558380126953 C 364.8424987792969 157.3082275390625 329.7029724121094 160.1776885986328 314.4805603027344 147.9348907470703 C 317.7414245605469 140.03114318847656 311.67022705078125 145.8653564453125 322.4053649902344 142.44070434570312 C 321.56396484375 144.19732666015625 300.3749694824219 141.29708862304688 327.3433837890625 152.9659423828125 C 336.05767822265625 159.70921325683594 411.8236083984375 153.4205322265625 402.8733825683594 156.6558380126953" stroke-width="0.0" fill="rgb(186, 138, 64)" opacity="0.26221126"/>
    <path d="M 419.3751525878906 312.2190856933594 C 422.3056335449219 345.5177917480469 408.71466064453125 322.77557373046875 378.65716552734375 324.1363830566406 C 388.1000671386719 349.7273864746094 371.5781555175781 344.1346130371094 321.73553466796875 330.48779296875 C 268.3720703125 269.2630615234375 280.0684814453125 292.1061706542969 362.7264709472656 280.50244140625 C 424.9428405761719 271.62701416015625 426.1342468261719 281.40435791015625 419.3751525878906 312.2190856933594" stroke-width="0.0" fill="rgb(62, 158, 178)" opacity="0.71933126"/>
    <path d="M 244.02340698242188 121.42418670654297 C 281.9189453125 195.5386505126953 262.7589416503906 216.24642944335938 191.74020385742188 213.8567352294922 C 149.5498046875 226.3323974609375 116.6693344116211 247.90663146972656 41.349205017089844 217.33363342285156 C 44.03240966796875 55.10624694824219 48.342647552490234 94.88604736328125 128.33193969726562 90.60769653320312 C 187.6399688720703 91.5005111694336 209.51577758789062 83.9352798461914 244.02340698242188 121.42418670654297" stroke-width="0.0" fill="rgb(11, 59, 84)" opacity="0.98805505"/>
    <path d="M 366.152587890625 457.2755432128906 C 369.7380065917969 395.7246398925781 402.44769287109375 423.7913818359375 397.89837646484375 459.46160888671875 C 372.44244384765625 456.68792724609375 299.5122375488281 470.7331237792969 276.0301513671875 433.2508850097656 C 283.8601379394531 391.385009765625 317.943359375 419.5125732421875 343.9587707519531 447.6389465332031 C 352.7099609375 399.252197265625 366.1045227050781 436.95452880859375 366.152587890625 457.2755432128906" stroke-width="0.0" fill="rgb(213, 145, 72)" opacity="0.5613296"/>
    <path d="M 573.7424926757812 197.2049560546875 C 545.2776489257812 210.96429443359375 522.6646118164062 216.32818603515625 491.7430419921875 225.928466796875 C 477.1751708984375 230.92330932617188 448.03997802734375 207.09521484375 409.17034912109375 201.81544494628906 C 424.65106201171875 168.27841186523438 457.1015930175781 175.89715576171875 483.285400390625 161.8975372314453 C 499.94769287109375 163.6754150390625 533.2049560546875 148.1646270751953 573.7424926757812 197.2049560546875" stroke-width="0.0" fill="rgb(4, 52, 93)" opacity="0.97821283"/>
    <path d="M 193.8730926513672 417.93212890625 C 174.42556762695312 464.88055419921875 181.69952392578125 492.5215148925781 170.12608337402344 529.0806884765625 C 123.05167388916016 550.1260375976562 102.13705444335938 545.349609375 111.85629272460938 528.6989135742188 C 116.1467056274414 477.072998046875 163.17608642578125 473.3140563964844 186.01080322265625 477.2076721191406 C 216.76824951171875 471.0826416015625 228.11257934570312 454.5853271484375 193.8730926513672 417.93212890625" stroke-width="0.0" fill="rgb(58, 228, 227)" opacity="0.035267014"/>
    <path d="M 316.41741943359375 529.8367919921875 C 331.4086608886719 601.6539916992188 301.06781005859375 606.577880859375 277.2256774902344 608.5776977539062 C 237.27688598632812 599.7406005859375 203.75289916992188 599.9954833984375 207.45120239257812 581.5187377929688 C 200.41722106933594 527.4459838867188 176.34996032714844 479.46478271484375 230.59722900390625 477.5372314453125 C 296.13714599609375 503.4324951171875 326.50579833984375 511.1737976074219 316.41741943359375 529.8367919921875" stroke-width="0.0" fill="rgb(21, 180, 194)" opacity="0.2543182"/>
    <path d="M 334.0907897949219 407.9150390625 C 341.352294921875 397.4650573730469 328.7349548339844 378.53741455078125 321.3839416503906 404.65716552734375 C 248.97308349609375 421.2126770019531 239.40542602539062 439.43035888671875 251.4626007080078 326.7295837402344 C 362.09796142578125 324.1735534667969 364.47308349609375 327.7681579589844 357.99566650390625 381.8330383300781 C 308.82940673828125 375.9999084472656 306.5497741699219 399.93939208984375 334.0907897949219 407.9150390625" stroke-width="0.0" fill="rgb(210, 175, 26)" opacity="0.020496683"/>
    <path d="M 56.20028305053711 611.9927978515625 C 95.32161712646484 615.2281494140625 85.80447387695312 592.2294921875 58.28578186035156 628.5249633789062 C -1.1060702800750732 605.9832153320312 -26.574546813964844 604.1583251953125 -51.005706787109375 559.4741821289062 C -41.45060348510742 509.7407531738281 -42.178768157958984 501.9656066894531 -2.995555877685547 527.4727783203125 C 7.509456634521484 576.3062133789062 32.192405700683594 587.3002319335938 56.20028305053711 611.9927978515625" stroke-width="0.0" fill="rgb(2, 1, 4)" opacity="0.99466103"/>
    <path d="M 556.88720703125 244.0094757080078 C 539.2034301757812 214.70233154296875 570.57080078125 240.48178100585938 526.8810424804688 236.5407257080078 C 554.063720703125 198.61744689941406 561.8965454101562 162.36871337890625 570.6234130859375 188.47183227539062 C 581.38671875 235.7691650390625 567.6165161132812 226.75624084472656 565.8865966796875 219.8645477294922 C 538.4829711914062 253.78150939941406 534.9746704101562 255.84490966796875 556.88720703125 244.0094757080078" stroke-width="0.0" fill="rgb(247, 222, 231)" opacity="0.0007677411"/>
    <path d="M 499.23187255859375 526.9591674804688 C 441.85833740234375 506.11260986328125 467.25567626953125 493.2599792480469 472.7899475097656 507.3126525878906 C 449.0364685058594 504.5738525390625 402.51544189453125 501.0513000488281 362.75213623046875 460.2571105957031 C 415.783935546875 451.1458740234375 444.8177490234375 421.0266418457031 497.9666748046875 424.9902038574219 C 509.50921630859375 437.8985900878906 528.1255493164062 450.84710693359375 499.23187255859375 526.9591674804688" stroke-width="0.0" fill="rgb(49, 165, 222)" opacity="1.0"/>
    <path d="M 324.54638671875 320.8746643066406 C 264.0237121582031 334.6067199707031 281.63177490234375 313.48199462890625 267.6094055175781 345.46197509765625 C 258.39398193359375 369.7958984375 254.34173583984375 388.4222106933594 214.7498321533203 400.6414794921875 C 158.83267211914062 357.1137390136719 205.55206298828125 344.1039123535156 232.552978515625 312.7947082519531 C 245.8352813720703 276.56915283203125 279.381591796875 291.3580627441406 324.54638671875 320.8746643066406" stroke-width="0.0" fill="rgb(3, 175, 183)" opacity="0.9995233"/>
    <path d="M 300.93060302734375 484.4760437011719 C 293.74835205078125 469.301513671875 311.4988098144531 497.8325500488281 305.5419921875 527.4854736328125 C 221.0003204345703 525.689208984375 184.28811645507812 538.2681884765625 194.38291931152344 482.8165283203125 C 240.91749572753906 464.031494140625 258.5935974121094 482.81536865234375 255.35934448242188 518.3077392578125 C 254.1298828125 473.96917724609375 249.3798065185547 476.3259582519531 300.93060302734375 484.4760437011719" stroke-width="0.0" fill="rgb(15, 158, 255)" opacity="0.62501025"/>
    <path d="M 23.548099517822266 11.097064971923828 C 17.79454803466797 5.596351623535156 6.010571479797363 2.741363048553467 0.8897554278373718 50.50550842285156 C -1.65188467502594 62.97453308105469 -22.466604232788086 69.84521484375 -58.312564849853516 37.58993148803711 C -23.650869369506836 -9.293850898742676 5.007727146148682 0.09793095290660858 58.55655288696289 -11.463179588317871 C 60.576988220214844 -32.94884490966797 25.869918823242188 -30.47437286376953 23.548099517822266 11.097064971923828" stroke-width="0.0" fill="rgb(0, 0, 52)" opacity="0.16456236"/>
    <path d="M 663.45458984375 202.47061157226562 C 613.0681762695312 211.53158569335938 602.8916015625 203.5751495361328 568.6173095703125 196.5437774658203 C 533.5859375 188.01229858398438 519.4561157226562 188.6260223388672 494.9630432128906 178.41859436035156 C 528.6307373046875 166.7947998046875 531.391357421875 171.9571990966797 552.09619140625 165.4248046875 C 599.5001831054688 171.16094970703125 620.3861694335938 173.8507537841797 663.45458984375 202.47061157226562" stroke-width="0.0" fill="rgb(9, 55, 84)" opacity="0.9753524"/>
    <path d="M 265.11688232421875 337.2669982910156 C 270.2369689941406 347.9151306152344 276.1371765136719 332.7204895019531 292.9964904785156 300.9554748535156 C 278.3548278808594 302.2684326171875 249.1976776123047 303.9025573730469 225.8072967529297 300.2139892578125 C 222.36837768554688 346.3502197265625 236.0931396484375 353.495849609375 216.26211547851562 336.2598876953125 C 183.33290100097656 335.64337158203125 222.87840270996094 352.74114990234375 265.11688232421875 337.2669982910156" stroke-width="0.0" fill="rgb(10, 212, 147)" opacity="0.054815423"/>
    <path d="M 149.840576171875 512.154052734375 C 219.1588592529297 525.6192016601562 221.09129333496094 565.4249877929688 153.71238708496094 548.7158813476562 C 169.6156768798828 519.8792724609375 191.4785919189453 525.7476806640625 181.9950408935547 523.8167724609375 C 171.8494873046875 515.95849609375 172.63217163085938 517.0913696289062 140.903076171875 526.6776733398438 C 167.68716430664062 521.8882446289062 167.75946044921875 504.5412902832031 149.840576171875 512.154052734375" stroke-width="0.0" fill="rgb(63, 193, 126)" opacity="0.27268103"/>
    <path d="M 371.6457214355469 -4.803775787353516 C 362.783935546875 -5.2060699462890625 386.31658935546875 -1.7443410158157349 363.7351379394531 -4.350030422210693 C 343.89501953125 -5.257688522338867 350.2442321777344 -5.6591877937316895 353.3456115722656 -7.716129779815674 C 320.10552978515625 -5.127618312835693 291.2648620605469 2.3411662578582764 413.0031433105469 -14.274669647216797 C 406.9346008300781 -10.833783149719238 373.2611389160156 -5.123165130615234 371.6457214355469 -4.803775787353516" stroke-width="0.0" fill="rgb(39, 16, 14)" opacity="0.82530487"/>
    <path d="M 656.9528198242188 427.57794189453125 C 622.4043579101562 431.37042236328125 587.3077392578125 437.06414794921875 564.0023803710938 422.2568664550781 C 495.7933349609375 442.8037109375 489.8458251953125 442.7131042480469 491.5916442871094 385.5373840332031 C 510.620361328125 372.35888671875 524.5447387695312 364.057373046875 592.5985717773438 362.11639404296875 C 609.379150390625 371.13970947265625 643.5178833007812 376.1634216308594 656.9528198242188 427.57794189453125" stroke-width="0.0" fill="rgb(11, 152, 161)" opacity="0.7582566"/>
    <path d="M -5.005714416503906 319.0391540527344 C -9.096014022827148 318.17388916015625 0.7213302254676819 315.76287841796875 -4.247412204742432 304.0619201660156 C -14.337467193603516 327.36956787109375 -18.815946578979492 324.45648193359375 -21.663349151611328 317.80499267578125 C -12.637683868408203 298.4072570800781 -9.186385154724121 291.7414855957031 -15.237323760986328 325.14080810546875 C -6.811542510986328 325.49603271484375 -2.9388179779052734 325.6460266113281 -5.005714416503906 319.0391540527344" stroke-width="0.0" fill="rgb(52, 46, 34)" opacity="0.49853912"/>
    <path d="M 267.8301086425781 151.67587280273438 C 287.27496337890625 205.80686950683594 298.7549133300781 235.89523315429688 255.59054565429688 241.7413330078125 C 212.32923889160156 221.1238250732422 193.72288513183594 216.95162963867188 162.515869140625 224.25669860839844 C 162.40740966796875 57.40625762939453 170.88052368164062 97.73310089111328 231.54750061035156 106.41069030761719 C 236.5359649658203 112.99317932128906 256.9823303222656 133.51922607421875 267.8301086425781 151.67587280273438" stroke-width="0.0" fill="rgb(10, 58, 78)" opacity="0.9387739"/>
    <path d="M 558.893798828125 282.0523986816406 C 548.132080078125 276.3280334472656 538.4476318359375 288.32843017578125 548.408203125 321.6173400878906 C 540.8888549804688 277.3315124511719 556.8068237304688 271.071533203125 537.93896484375 284.6713562011719 C 554.5538940429688 317.412109375 557.4417724609375 328.9312438964844 524.2686767578125 325.30474853515625 C 506.6296691894531 272.642578125 525.9347534179688 278.7439270019531 558.893798828125 282.0523986816406" stroke-width="0.0" fill="rgb(146, 185, 99)" opacity="0.0062937215"/>
    <path d="M 423.98443603515625 398.8066101074219 C 440.7906494140625 425.2713623046875 413.816650390625 434.3581848144531 376.8899841308594 440.8208923339844 C 352.6153259277344 457.2171936035156 364.3075866699219 470.0721740722656 364.39959716796875 422.1589050292969 C 375.03369140625 430.6979675292969 404.65606689453125 405.7140808105469 381.8025817871094 394.3046569824219 C 380.9863586425781 384.8985595703125 420.1712646484375 396.8459167480469 423.98443603515625 398.8066101074219" stroke-width="0.0" fill="rgb(123, 142, 65)" opacity="0.0"/>
    <path d="M 624.8816528320312 514.8907470703125 C 539.8282470703125 510.537109375 521.899658203125 480.4889221191406 504.8045349121094 515.0558471679688 C 480.4739685058594 517.466796875 474.1411437988281 515.8905639648438 495.2403259277344 541.1130981445312 C 488.8709716796875 474.7146301269531 479.68475341796875 439.83624267578125 527.6223754882812 408.4086608886719 C 626.6923828125 396.6434020996094 637.449462890625 477.9949951171875 624.8816528320312 514.8907470703125" stroke-width="0.0" fill="rgb(34, 214, 228)" opacity="0.97934335"/>
    <path d="M 274.2032165527344 425.7487487792969 C 300.21441650390625 443.8550109863281 279.0539245605469 453.3478088378906 257.8201599121094 450.22283935546875 C 239.6522674560547 469.1898498535156 210.03697204589844 459.715087890625 160.4312286376953 372.4855651855469 C 183.4732666015625 381.7109069824219 208.41946411132812 371.3870849609375 248.59228515625 399.6830749511719 C 241.01971435546875 392.58551025390625 258.77789306640625 389.798828125 274.2032165527344 425.7487487792969" stroke-width="0.0" fill="rgb(102, 101, 87)" opacity="0.69517106"/>
    <path d="M 307.764892578125 101.83659362792969 C 324.1852111816406 142.8105926513672 320.46539306640625 133.5209503173828 268.0169982910156 132.79640197753906 C 277.0041198730469 80.04083251953125 284.0940246582031 71.11285400390625 285.57342529296875 128.58224487304688 C 230.02650451660156 110.60417175292969 303.3418884277344 116.89617156982422 308.0421142578125 105.59769439697266 C 264.4095764160156 87.52091217041016 311.76458740234375 101.4716567993164 307.764892578125 101.83659362792969" stroke-width="0.0" fill="rgb(21, 118, 0)" opacity="0.015265148"/>
    <path d="M 531.158203125 314.1625061035156 C 528.5689697265625 336.8378601074219 520.7909545898438 364.1213073730469 511.32427978515625 365.3664855957031 C 503.4060363769531 350.02618408203125 487.85980224609375 356.1485290527344 494.17669677734375 358.03717041015625 C 478.1285400390625 362.7042541503906 508.72991943359375 362.39312744140625 553.723876953125 349.8705749511719 C 534.548095703125 314.5625915527344 540.12451171875 318.7911376953125 531.158203125 314.1625061035156" stroke-width="0.0" fill="rgb(9, 160, 54)" opacity="0.015643919"/>
    <path d="M 322.9433898925781 520.9873657226562 C 307.6116943359375 523.6629028320312 313.6766052246094 543.6444091796875 316.9666442871094 607.271240234375 C 301.0416564941406 592.4895629882812 135.12408447265625 613.8965454101562 76.44886016845703 597.7146606445312 C 166.13426208496094 437.5877990722656 216.1826629638672 438.0565185546875 282.4405822753906 432.2463684082031 C 300.89154052734375 441.55804443359375 317.6095886230469 455.5038757324219 322.9433898925781 520.9873657226562" stroke-width="0.0" fill="rgb(25, 173, 200)" opacity="1.0"/>
    <path d="M 82.03421783447266 599.0093994140625 C 153.62974548339844 604.2628173828125 138.1889190673828 600.1489868164062 106.58037567138672 608.4747314453125 C 28.477510452270508 605.2763671875 18.911468505859375 623.4929809570312 13.43466567993164 569.4798583984375 C -13.334497451782227 531.496337890625 -6.366508483886719 563.0113525390625 22.973453521728516 585.1948852539062 C 42.9603385925293 591.2817993164062 45.800941467285156 593.0582885742188 82.03421783447266 599.0093994140625" stroke-width="0.0" fill="rgb(0, 0, 4)" opacity="0.9133254"/>
    <path d="M 562.7339477539062 82.90242767333984 C 509.64190673828125 71.86968231201172 508.4088134765625 65.01190185546875 556.0370483398438 87.0167236328125 C 552.5991821289062 44.16828536987305 518.1231079101562 56.8104362487793 518.4508056640625 61.1766357421875 C 518.7609252929688 50.54627990722656 536.3380737304688 54.62812423706055 555.5037231445312 58.977779388427734 C 551.5361938476562 48.07040023803711 579.0681762695312 61.69194412231445 562.7339477539062 82.90242767333984" stroke-width="0.0" fill="rgb(249, 238, 240)" opacity="0.008526013"/>
    <path d="M 465.38970947265625 536.7775268554688 C 473.8299255371094 541.013671875 486.0224609375 564.2083740234375 490.6909484863281 530.317138671875 C 454.7055969238281 552.7294311523438 426.0866394042969 571.1498413085938 446.381103515625 517.6689453125 C 445.98004150390625 572.8661499023438 433.8830871582031 544.479736328125 445.2392272949219 515.014892578125 C 458.3731994628906 512.3939819335938 478.3906555175781 542.72802734375 465.38970947265625 536.7775268554688" stroke-width="0.0" fill="rgb(104, 223, 191)" opacity="0.61256623"/>
    <path d="M 224.3509979248047 432.66729736328125 C 228.49337768554688 439.760009765625 206.18148803710938 454.92901611328125 162.7753143310547 417.6078186035156 C 83.8505859375 434.92620849609375 73.01841735839844 451.9478759765625 120.17772674560547 406.64044189453125 C 129.6924285888672 377.0256042480469 139.07180786132812 385.937744140625 216.8678741455078 413.5596618652344 C 235.07272338867188 432.9794921875 216.38816833496094 419.685791015625 224.3509979248047 432.66729736328125" stroke-width="0.0" fill="rgb(35, 119, 196)" opacity="0.63230777"/>
    <path d="M 529.9078979492188 42.17422103881836 C 509.17529296875 73.26544189453125 508.2740173339844 81.26947021484375 494.35797119140625 67.99058532714844 C 478.1952209472656 87.5867691040039 475.0716552734375 94.88235473632812 485.4824523925781 97.03271484375 C 481.9569091796875 72.98704528808594 474.9022521972656 98.37486267089844 494.5717468261719 79.60248565673828 C 551.74560546875 103.40180969238281 567.0572509765625 77.69033813476562 529.9078979492188 42.17422103881836" stroke-width="0.0" fill="rgb(254, 254, 243)" opacity="0.000633953"/>
    <path d="M 12.199488639831543 584.979736328125 C 6.83414888381958 551.2273559570312 5.758340358734131 551.7958984375 -39.57799530029297 569.9143676757812 C -30.595022201538086 554.7149658203125 -26.735027313232422 544.6814575195312 -12.641443252563477 444.3001708984375 C -7.448606014251709 486.36669921875 -4.101313591003418 495.533935546875 1.0072684288024902 532.44775390625 C 4.0534586906433105 555.9241943359375 9.784538269042969 566.4920043945312 12.199488639831543 584.979736328125" stroke-width="0.0" fill="rgb(1, 0, 0)" opacity="0.82584953"/>
    <path d="M 533.4708251953125 347.9870910644531 C 544.421875 377.17608642578125 516.7132568359375 383.69384765625 456.53216552734375 360.43426513671875 C 506.8555603027344 337.85931396484375 487.1390075683594 317.3189392089844 509.8962707519531 329.7960205078125 C 508.88909912109375 316.70965576171875 513.2061767578125 314.05029296875 506.6706848144531 313.3612976074219 C 517.0963745117188 320.0652770996094 527.0072631835938 304.0387268066406 533.4708251953125 347.9870910644531" stroke-width="0.0" fill="rgb(14, 169, 171)" opacity="0.33801422"/>
    <path d="M 287.1019592285156 -1.2054096460342407 C 239.57797241210938 -8.266016960144043 266.17132568359375 -15.782588005065918 265.3310546875 -23.688156127929688 C 275.346435546875 -6.739972114562988 269.4489440917969 -25.937747955322266 269.57122802734375 -13.81413459777832 C 258.4996643066406 -3.0282773971557617 258.11328125 -13.250575065612793 335.736328125 2.9195024967193604 C 320.97607421875 9.00500202178955 280.1624450683594 -5.539545059204102 287.1019592285156 -1.2054096460342407" stroke-width="0.0" fill="rgb(185, 189, 105)" opacity="0.061409276"/>
    <path d="M 195.0461883544922 9.046841621398926 C 172.58123779296875 11.539257049560547 152.92408752441406 16.205158233642578 140.2845916748047 22.91640853881836 C 139.1015167236328 34.31098556518555 139.06613159179688 26.885499954223633 125.21723937988281 21.602529525756836 C 97.51388549804688 1.4238271713256836 39.8971061706543 -0.2178085595369339 110.74747467041016 -2.1758992671966553 C 294.70904541015625 -11.742033004760742 252.8922576904297 3.0053975582122803 195.0461883544922 9.046841621398926" stroke-width="0.0" fill="rgb(0, 0, 1)" opacity="1.0"/>
    <path d="M 283.0381164550781 617.360107421875 C 290.2039794921875 613.846923828125 286.1383361816406 620.7719116210938 274.5242919921875 630.9360961914062 C 257.52508544921875 621.7262573242188 253.29286193847656 614.3914794921875 267.2543029785156 638.4754028320312 C 267.17877197265625 623.8726196289062 260.6802673339844 606.4580078125 265.1568298339844 608.5115356445312 C 276.1139221191406 605.802490234375 277.9693908691406 612.4879150390625 283.0381164550781 617.360107421875" stroke-width="0.0" fill="rgb(107, 147, 29)" opacity="0.08776617"/>
    <path d="M 31.49582862854004 118.0687026977539 C 16.23910903930664 60.90085983276367 4.409378528594971 51.311981201171875 0.4924931824207306 30.84409523010254 C 33.34012222290039 27.483089447021484 48.87080001831055 38.38753890991211 37.27324295043945 9.226178169250488 C -10.619665145874023 14.441441535949707 -25.485734939575195 26.48520278930664 -35.904632568359375 64.17528533935547 C -19.86808967590332 93.01716613769531 -21.9571590423584 117.73175048828125 31.49582862854004 118.0687026977539" stroke-width="0.0" fill="rgb(54, 35, 62)" opacity="0.07521955"/>
    <path d="M 85.75499725341797 282.6498107910156 C 83.75585174560547 277.78094482421875 66.18353271484375 266.767822265625 73.9687271118164 254.0357208251953 C 71.87789154052734 276.6996154785156 68.45065307617188 268.72442626953125 63.72373580932617 243.22747802734375 C 58.89912414550781 237.4271240234375 125.51107025146484 247.7026824951172 107.9476089477539 234.22462463378906 C 87.51659393310547 248.83709716796875 91.40478515625 261.6319274902344 85.75499725341797 282.6498107910156" stroke-width="0.0" fill="rgb(205, 180, 76)" opacity="0.020545237"/>
    <path d="M 600.69775390625 410.8764343261719 C 574.3416137695312 425.74920654296875 555.8807983398438 426.9583435058594 530.0098876953125 428.9715881347656 C 520.4539794921875 450.0574645996094 474.3108215332031 453.66583251953125 456.148681640625 413.24786376953125 C 481.5976257324219 356.9452209472656 506.3597106933594 337.5657043457031 584.9129028320312 332.0638732910156 C 654.0498046875 349.8138122558594 663.0250854492188 362.477294921875 600.69775390625 410.8764343261719" stroke-width="0.0" fill="rgb(20, 163, 175)" opacity="1.0"/>
    <path d="M 244.30787658691406 120.8695068359375 C 240.91981506347656 134.29049682617188 241.95138549804688 123.5779037475586 212.44683837890625 120.63916015625 C 230.722900390625 105.11181640625 171.30838012695312 115.03276062011719 102.61135864257812 99.85332489013672 C 117.2978744506836 44.7507438659668 168.14247131347656 74.66268920898438 187.0072021484375 85.13933563232422 C 209.34698486328125 94.32876586914062 233.73419189453125 104.73304748535156 244.30787658691406 120.8695068359375" stroke-width="0.0" fill="rgb(9, 61, 81)" opacity="0.9834178"/>
    <path d="M 225.13710021972656 50.09727478027344 C 228.42701721191406 66.25157928466797 184.4248809814453 67.50578308105469 182.9532470703125 79.09349060058594 C 234.6190948486328 75.79299926757812 225.7902374267578 82.82891845703125 222.09657287597656 58.531822204589844 C 225.5540771484375 32.01776123046875 229.04876708984375 17.43631935119629 205.2349090576172 38.70443344116211 C 222.8307342529297 52.45255661010742 219.59027099609375 32.05166244506836 225.13710021972656 50.09727478027344" stroke-width="0.0" fill="rgb(237, 226, 89)" opacity="0.010946304"/>
    <path d="M 570.2711181640625 578.0225830078125 C 605.1837158203125 591.1156616210938 577.497802734375 584.2097778320312 576.4597778320312 613.1820068359375 C 561.293212890625 601.2276611328125 575.0849609375 613.1417236328125 584.015380859375 592.0853271484375 C 545.9572143554688 586.962158203125 563.6727294921875 589.6560668945312 588.0338134765625 576.4146728515625 C 579.4503173828125 567.58056640625 583.2806396484375 595.7740478515625 570.2711181640625 578.0225830078125" stroke-width="0.0" fill="rgb(10, 4, 27)" opacity="0.048333384"/>
    <path d="M -16.698259353637695 225.77210998535156 C -34.5238037109375 188.52430725097656 4.546072006225586 201.5535125732422 9.574995040893555 204.30136108398438 C 25.507709503173828 216.10391235351562 11.920099258422852 223.21910095214844 17.085739135742188 198.05824279785156 C 19.54008674621582 215.939697265625 9.782491683959961 229.1763916015625 55.3856315612793 230.588623046875 C 25.120792388916016 213.08753967285156 31.435108184814453 218.23944091796875 -16.698259353637695 225.77210998535156" stroke-width="0.0" fill="rgb(193, 196, 129)" opacity="0.0"/>
    <path d="M 204.01174926757812 36.610748291015625 C 237.0703125 63.20200729370117 238.6327362060547 56.48173141479492 222.0040283203125 74.44889068603516 C 219.1578369140625 58.1696891784668 213.4957733154297 76.0473403930664 211.51382446289062 54.15199279785156 C 207.26333618164062 63.581504821777344 222.658447265625 36.83186721801758 217.27069091796875 42.06255340576172 C 207.33949279785156 38.035194396972656 224.42779541015625 8.97800064086914 204.01174926757812 36.610748291015625" stroke-width="0.0" fill="rgb(254, 248, 195)" opacity="0.000491963"/>
    <path d="M 283.330078125 407.1922607421875 C 288.8834228515625 454.8290100097656 248.72911071777344 449.1625671386719 217.11065673828125 470.63494873046875 C 178.90628051757812 494.0841064453125 144.95899963378906 455.4435729980469 130.10797119140625 357.73199462890625 C 125.89500427246094 347.921875 137.24594116210938 355.5306701660156 205.88534545898438 379.80072021484375 C 260.1177978515625 402.4141845703125 246.7066650390625 395.2574768066406 283.330078125 407.1922607421875" stroke-width="0.0" fill="rgb(255, 18, 6)" opacity="0.99488884"/>
    <path d="M 423.3747863769531 487.5067138671875 C 374.3607177734375 571.6846923828125 333.0419616699219 541.5926513671875 264.53167724609375 512.5040893554688 C 258.7713317871094 471.9950866699219 253.58172607421875 483.1943054199219 243.33209228515625 459.8968200683594 C 235.8545379638672 469.1560363769531 243.49337768554688 458.361083984375 235.6242218017578 413.5362548828125 C 316.26837158203125 419.3043518066406 411.5819091796875 418.3065185546875 423.3747863769531 487.5067138671875" stroke-width="0.0" fill="rgb(37, 159, 208)" opacity="0.6316435"/>
    <path d="M 659.4883422851562 442.095458984375 C 650.0283203125 449.1934814453125 634.4378051757812 442.30902099609375 581.6277465820312 433.34759521484375 C 549.8138427734375 419.7107238769531 548.103515625 437.0328063964844 555.803466796875 395.9145202636719 C 601.5711059570312 393.6027526855469 645.2863159179688 393.9955749511719 661.1494140625 392.9441833496094 C 608.90625 390.6854248046875 617.4465942382812 396.618408203125 659.4883422851562 442.095458984375" stroke-width="0.0" fill="rgb(17, 158, 177)" opacity="0.96981496"/>
    <path d="M 473.1494140625 581.079345703125 C 491.20281982421875 619.6420288085938 476.41986083984375 632.4638061523438 421.248779296875 604.2264404296875 C 392.50457763671875 585.6255493164062 419.7432556152344 593.2589111328125 413.8182678222656 573.76171875 C 433.84405517578125 529.1887817382812 419.0576171875 516.9564208984375 441.4059753417969 530.2711791992188 C 441.30352783203125 509.7737121582031 443.8518981933594 542.6806640625 473.1494140625 581.079345703125" stroke-width="0.0" fill="rgb(23, 190, 168)" opacity="0.7368545"/>
    <path d="M 396.0584716796875 414.94134521484375 C 424.3739318847656 440.6650390625 448.4023742675781 445.8960876464844 389.35467529296875 444.1802062988281 C 367.6460266113281 459.8947448730469 324.4970703125 480.783447265625 340.71160888671875 441.3868408203125 C 366.9524230957031 421.1376953125 368.5969543457031 420.2472839355469 382.24322509765625 407.6700134277344 C 389.8293151855469 381.64910888671875 407.7897644042969 391.7533874511719 396.0584716796875 414.94134521484375" stroke-width="0.0" fill="rgb(199, 138, 78)" opacity="0.0137599455"/>
    <path d="M 171.45880126953125 470.6047668457031 C 191.09201049804688 482.10272216796875 156.23724365234375 466.20452880859375 151.355224609375 433.3759765625 C 140.6215057373047 424.5686950683594 78.92513275146484 442.4744873046875 111.6041488647461 410.6342468261719 C 109.06938934326172 351.26153564453125 142.33665466308594 345.8162841796875 126.93659210205078 360.72381591796875 C 138.36672973632812 414.3377685546875 148.71116638183594 447.10662841796875 171.45880126953125 470.6047668457031" stroke-width="0.0" fill="rgb(20, 159, 183)" opacity="0.890621"/>
    <path d="M 447.02117919921875 276.2569885253906 C 444.4832458496094 392.7510986328125 423.13897705078125 344.0310363769531 392.31378173828125 341.7161560058594 C 326.3816223144531 328.43719482421875 232.92811584472656 329.0337219238281 241.32643127441406 303.0873718261719 C 254.04977416992188 263.62762451171875 247.233154296875 244.72601318359375 284.2138671875 213.07046508789062 C 366.20159912109375 173.0987548828125 406.19329833984375 182.6441650390625 447.02117919921875 276.2569885253906" stroke-width="0.0" fill="rgb(25, 176, 171)" opacity="0.9921103"/>
    <path d="M 416.5381164550781 248.96871948242188 C 449.1512756347656 269.4176025390625 453.0559387207031 267.7475280761719 468.2786560058594 224.6494903564453 C 414.8392639160156 202.56748962402344 412.7083435058594 205.5323944091797 359.40704345703125 228.19097900390625 C 340.6369323730469 206.20819091796875 361.25 184.2501983642578 396.6016845703125 147.43138122558594 C 392.46624755859375 167.8656768798828 398.0702209472656 200.79647827148438 416.5381164550781 248.96871948242188" stroke-width="0.0" fill="rgb(118, 255, 48)" opacity="0.010302128"/>
    <path d="M 110.25272369384766 425.6030578613281 C 66.65441131591797 420.3940124511719 89.69493103027344 419.234375 108.5372085571289 434.8126220703125 C 108.38585662841797 390.67205810546875 72.50516510009766 391.232177734375 45.98767852783203 428.98309326171875 C 104.8560562133789 430.57550048828125 121.41831970214844 413.52197265625 51.6231689453125 408.6741027832031 C 28.424928665161133 433.06231689453125 66.72137451171875 418.5036315917969 110.25272369384766 425.6030578613281" stroke-width="0.0" fill="rgb(97, 88, 226)" opacity="0.058507442"/>
    <path d="M 315.376953125 -16.261415481567383 C 296.50726318359375 2.8048999309539795 310.89447021484375 -1.5248888731002808 309.5717468261719 -17.992422103881836 C 292.8858947753906 -11.147976875305176 298.7318420410156 2.7582430839538574 271.1019287109375 -10.813440322875977 C 219.93841552734375 -0.27565523982048035 198.56065368652344 5.431089878082275 182.27743530273438 -9.372159957885742 C 326.1626892089844 -37.2216911315918 341.28118896484375 -8.991814613342285 315.376953125 -16.261415481567383" stroke-width="0.0" fill="rgb(0, 0, 0)" opacity="0.9355324"/>
    <path d="M 574.7108764648438 149.82110595703125 C 620.2884521484375 186.1846923828125 573.2811279296875 210.03611755371094 471.7942199707031 211.73838806152344 C 423.5901794433594 195.16949462890625 396.2462158203125 205.12879943847656 420.0833435058594 168.21157836914062 C 458.43524169921875 165.71531677246094 467.3472595214844 155.8912353515625 491.7464904785156 127.81180572509766 C 525.6058959960938 116.56864929199219 547.0972290039062 122.0918197631836 574.7108764648438 149.82110595703125" stroke-width="0.0" fill="rgb(0, 56, 88)" opacity="0.9999273"/>
    <path d="M 123.7578353881836 423.2530822753906 C 128.32664489746094 428.1629943847656 120.94498443603516 450.27362060546875 98.663818359375 444.9951477050781 C 94.7876968383789 466.7164306640625 75.0472412109375 419.0364685058594 89.41790008544922 416.2691650390625 C 59.393348693847656 405.3434753417969 55.90335464477539 397.3589172363281 80.0219497680664 439.8358459472656 C 98.8587417602539 433.9795227050781 116.96546936035156 458.92669677734375 123.7578353881836 423.2530822753906" stroke-width="0.0" fill="rgb(85, 196, 185)" opacity="0.0"/>
    <path d="M -7.910634994506836 267.51690673828125 C -4.251060485839844 269.3469543457031 -5.62769889831543 272.1700439453125 -0.5184091329574585 280.57012939453125 C -18.26226234436035 279.9205322265625 -25.239656448364258 273.90521240234375 -34.07320785522461 251.52670288085938 C -23.70055389404297 218.95248413085938 -11.831185340881348 211.1513671875 -8.435626983642578 212.1552734375 C -1.554258942604065 252.74085998535156 -3.728166103363037 262.42205810546875 -7.910634994506836 267.51690673828125" stroke-width="0.0" fill="rgb(23, 18, 4)" opacity="0.90650326"/>
    <path d="M 295.7684326171875 412.4561767578125 C 360.8658142089844 427.0896911621094 361.7170715332031 451.77398681640625 316.03131103515625 445.2536315917969 C 302.0165710449219 464.0262145996094 274.7596130371094 476.1333923339844 239.82192993164062 454.15582275390625 C 229.11866760253906 381.64141845703125 227.4269256591797 394.33880615234375 234.2059326171875 396.2596740722656 C 222.58663940429688 391.4372863769531 243.99972534179688 396.30609130859375 295.7684326171875 412.4561767578125" stroke-width="0.0" fill="rgb(251, 24, 9)" opacity="0.98136103"/>
    <path d="M 54.35448455810547 460.8993835449219 C 52.72534942626953 461.086669921875 67.87256622314453 448.47442626953125 48.440345764160156 469.5517272949219 C 43.60090255737305 486.9274597167969 26.630847930908203 458.83154296875 37.63016128540039 408.2787780761719 C 80.44310760498047 432.1058349609375 80.77216339111328 458.9649353027344 63.674442291259766 448.6463928222656 C 48.53667068481445 430.8961181640625 71.52335357666016 435.2756652832031 54.35448455810547 460.8993835449219" stroke-width="0.0" fill="rgb(56, 225, 230)" opacity="0.062531404"/>
    <path d="M 163.79205322265625 262.05853271484375 C 148.3677215576172 284.86846923828125 151.82125854492188 246.37765502929688 178.74032592773438 266.17889404296875 C 173.90699768066406 269.8766174316406 181.82191467285156 273.8788146972656 178.1086883544922 266.9984130859375 C 172.83441162109375 258.9161071777344 177.46060180664062 272.4488830566406 201.75314331054688 257.8844909667969 C 140.5952606201172 244.72772216796875 155.23304748535156 220.3714599609375 163.79205322265625 262.05853271484375" stroke-width="0.0" fill="rgb(161, 173, 65)" opacity="0.003751416"/>
    <path d="M 474.1629943847656 155.54238891601562 C 441.91461181640625 177.09129333496094 452.5367126464844 151.44488525390625 445.4632568359375 210.36634826660156 C 393.28759765625 198.13397216796875 389.31524658203125 193.1459503173828 400.8504333496094 204.00564575195312 C 392.08642578125 194.6982421875 431.50482177734375 186.51956176757812 441.4768371582031 163.6931915283203 C 476.54046630859375 157.259033203125 480.45361328125 159.73875427246094 474.1629943847656 155.54238891601562" stroke-width="0.0" fill="rgb(5, 59, 65)" opacity="0.35491577"/>
    <path d="M 428.3752136230469 147.17138671875 C 437.39605712890625 150.14866638183594 409.47332763671875 149.1125030517578 375.75738525390625 158.89064025878906 C 384.4465637207031 155.35816955566406 392.0387878417969 160.821044921875 370.9881286621094 158.93853759765625 C 371.9964294433594 101.29149627685547 370.4053955078125 30.591718673706055 371.03564453125 35.28789138793945 C 391.4146423339844 149.7150421142578 347.0982971191406 164.31005859375 428.3752136230469 147.17138671875" stroke-width="0.0" fill="rgb(255, 216, 104)" opacity="0.015877917"/>
    <path d="M 521.7745361328125 369.3197021484375 C 521.9473266601562 386.542236328125 540.4055786132812 370.5964660644531 509.9802551269531 364.86700439453125 C 506.5487365722656 393.52685546875 520.9798583984375 366.4689025878906 539.2503051757812 383.5058898925781 C 544.9703979492188 359.975830078125 547.2510986328125 366.60382080078125 525.4317626953125 346.3988037109375 C 532.8656005859375 368.29449462890625 534.0254516601562 361.42022705078125 521.7745361328125 369.3197021484375" stroke-width="0.0" fill="rgb(63, 156, 63)" opacity="0.0"/>
    <path d="M 637.330322265625 86.1314468383789 C 617.2275390625 86.28455352783203 610.9693603515625 77.27725219726562 657.363525390625 61.77753829956055 C 619.4627075195312 63.379215240478516 593.3751831054688 58.319034576416016 591.87451171875 76.543212890625 C 579.1517944335938 133.89956665039062 579.8026733398438 115.48339080810547 599.7490844726562 95.78788757324219 C 607.033935546875 72.5955810546875 621.4352416992188 77.78910827636719 637.330322265625 86.1314468383789" stroke-width="0.0" fill="rgb(255, 255, 119)" opacity="0.011164277"/>
    <path d="M 400.8031005859375 372.5083312988281 C 388.57696533203125 436.0160217285156 392.0885314941406 453.653076171875 334.88507080078125 451.2867736816406 C 286.9624938964844 430.8145751953125 284.5933532714844 396.67694091796875 295.4627380371094 415.2378234863281 C 308.4707946777344 414.3857727050781 316.57708740234375 388.9327392578125 336.9432067871094 341.9303894042969 C 341.0556335449219 350.7832946777344 376.1927795410156 353.16387939453125 400.8031005859375 372.5083312988281" stroke-width="0.0" fill="rgb(195, 152, 142)" opacity="0.445337"/>
    <path d="M 257.38690185546875 507.4422912597656 C 259.2159423828125 501.1559143066406 264.192626953125 477.246826171875 281.0279846191406 520.5523681640625 C 267.31494140625 531.2571411132812 259.08074951171875 511.51458740234375 259.987060546875 488.777099609375 C 264.9660949707031 524.3743896484375 261.15704345703125 502.56201171875 258.90106201171875 517.6472778320312 C 230.49363708496094 498.4991455078125 290.6630859375 501.52496337890625 257.38690185546875 507.4422912597656" stroke-width="0.0" fill="rgb(15, 184, 207)" opacity="0.010123295"/>
    <path d="M 85.59101867675781 485.17742919921875 C 79.32179260253906 516.2607421875 80.7442855834961 495.84832763671875 50.43729782104492 499.702392578125 C 74.79203796386719 510.4965515136719 44.799198150634766 518.2184448242188 46.328792572021484 484.41009521484375 C 58.88180160522461 489.1124572753906 79.5749282836914 516.9010620117188 71.8906021118164 502.1692199707031 C 76.76408386230469 465.0210266113281 68.96980285644531 453.1267395019531 85.59101867675781 485.17742919921875" stroke-width="0.0" fill="rgb(32, 212, 218)" opacity="0.0021975494"/>
    <path d="M 554.1444091796875 305.6201171875 C 552.0612182617188 304.0267639160156 532.4694213867188 307.5616760253906 517.5586547851562 313.6280212402344 C 515.9730224609375 337.803955078125 546.5798950195312 342.4034423828125 532.9345703125 284.43914794921875 C 543.3814697265625 296.2115478515625 564.3211669921875 295.5855712890625 575.75390625 353.31298828125 C 499.1961669921875 347.0113830566406 510.4637145996094 314.3157043457031 554.1444091796875 305.6201171875" stroke-width="0.0" fill="rgb(146, 202, 81)" opacity="0.013767432"/>
    <path d="M 491.7764587402344 408.2878112792969 C 467.16107177734375 466.7236328125 409.72802734375 441.1749267578125 364.7764892578125 448.1994934082031 C 339.051025390625 471.9300842285156 333.23779296875 455.1793518066406 304.5898742675781 446.8572998046875 C 271.1431579589844 390.28533935546875 263.09759521484375 405.044921875 331.0909729003906 421.25653076171875 C 417.7321472167969 429.5243835449219 440.36602783203125 421.6316833496094 491.7764587402344 408.2878112792969" stroke-width="0.0" fill="rgb(255, 7, 0)" opacity="1.0"/>
    <path d="M 344.482421875 560.2880859375 C 350.1081237792969 567.9625854492188 369.40948486328125 590.5291748046875 373.0152587890625 616.3880004882812 C 312.3511657714844 622.0618286132812 312.1922607421875 614.38671875 307.12945556640625 616.56494140625 C 292.3705139160156 594.0479125976562 299.0527648925781 583.336669921875 357.3761901855469 586.06884765625 C 368.92962646484375 580.6956787109375 357.4657897949219 572.6692504882812 344.482421875 560.2880859375" stroke-width="0.0" fill="rgb(64, 196, 58)" opacity="0.02976028"/>
    <path d="M 466.041259765625 399.07952880859375 C 442.3056945800781 429.89404296875 410.87799072265625 421.7492980957031 351.6336975097656 422.7375183105469 C 387.2701721191406 419.1623840332031 388.32672119140625 419.0200500488281 367.7552185058594 374.3680114746094 C 368.00555419921875 387.1038513183594 371.193115234375 352.9529113769531 394.8112487792969 315.5141296386719 C 449.8891296386719 331.109375 477.8972473144531 326.36053466796875 466.041259765625 399.07952880859375" stroke-width="0.0" fill="rgb(201, 194, 203)" opacity="0.5459816"/>
    <path d="M 392.0345458984375 526.6387939453125 C 414.6991882324219 576.4169921875 413.9661865234375 594.5336303710938 336.98468017578125 552.373291015625 C 303.4715881347656 512.572998046875 351.9603576660156 533.0858764648438 338.2314147949219 529.4923095703125 C 317.4077453613281 486.9213562011719 356.7925109863281 490.5966796875 425.5757751464844 493.6085205078125 C 409.746826171875 535.4265747070312 407.89569091796875 506.833251953125 392.0345458984375 526.6387939453125" stroke-width="0.0" fill="rgb(8, 198, 188)" opacity="0.07316885"/>
    <path d="M 125.84068298339844 615.8756713867188 C 110.20552825927734 625.7608642578125 105.78897857666016 638.1867065429688 96.82471466064453 645.0217895507812 C 71.59583282470703 623.4967041015625 76.36750793457031 619.252197265625 27.225418090820312 620.028564453125 C 24.818227767944336 572.5262451171875 48.40232467651367 582.4237670898438 49.203407287597656 619.3983154296875 C 85.54875183105469 595.7678833007812 105.80693054199219 599.3958129882812 125.84068298339844 615.8756713867188" stroke-width="0.0" fill="rgb(0, 4, 29)" opacity="0.04875329"/>
    <path d="M 595.4873046875 521.8052368164062 C 578.9073486328125 604.200439453125 524.2702026367188 588.2435302734375 477.7035217285156 611.876708984375 C 397.466796875 625.4927978515625 378.89459228515625 606.6131591796875 406.7111511230469 606.1791381835938 C 404.1578369140625 513.4228515625 403.0708312988281 526.7730712890625 424.9646911621094 494.3717346191406 C 486.2787170410156 461.26324462890625 599.5565795898438 447.6439514160156 595.4873046875 521.8052368164062" stroke-width="0.0" fill="rgb(42, 219, 220)" opacity="0.99797994"/>
    <path d="M 113.83165740966797 408.2030334472656 C 100.45275115966797 439.9412536621094 81.87092590332031 444.8296813964844 55.87923049926758 425.57281494140625 C 28.700767517089844 432.4419250488281 2.731806755065918 436.13690185546875 -29.519689559936523 405.05615234375 C 23.246915817260742 391.0316467285156 76.05076599121094 389.48065185546875 95.684814453125 391.3821105957031 C 97.27627563476562 399.3941650390625 116.30180358886719 383.9659118652344 113.83165740966797 408.2030334472656" stroke-width="0.0" fill="rgb(29, 155, 181)" opacity="0.925749"/>
  </g>
</svg>
