<?xml version="1.0" ?>
<svg xmlns="http://www.w3.org/2000/svg" version="1.1" width="600" height="600">
  <defs/>
  <g>
    <path d="M 203.13616943359375 293.1581726074219 C 222.3642578125 310.0227966308594 194.88584899902344 313.74688720703125 183.61248779296875 286.3653869628906 C 188.8931427001953 287.8608703613281 207.78868103027344 297.9325866699219 221.32852172851562 299.099609375 C 233.7685546875 314.0433654785156 220.156005859375 297.96356201171875 215.99159240722656 316.8887023925781 C 164.28073120117188 300.8998718261719 184.3428192138672 332.5465393066406 203.9767303466797 340.76434326171875 C 219.32693481445312 344.27716064453125 252.95822143554688 350.7105712890625 281.2068786621094 352.1712341308594" stroke-width="6.0" fill="none" stroke="rgb(0, 0, 0)" stroke-opacity="1.0" stroke-linecap="round" stroke-linejoin="round"/>
    <path d="M 473.2643737792969 97.47007751464844 C 467.1993408203125 100.0004653930664 484.4222106933594 93.9433364868164 500.9690856933594 95.83003234863281 C 496.0995788574219 112.62964630126953 480.8996276855469 111.8126449584961 445.10150146484375 115.32050323486328 C 447.9493713378906 133.9684295654297 417.55804443359375 124.03832244873047 422.2790832519531 152.22943115234375 C 410.1901550292969 152.02137756347656 405.37322998046875 144.08604431152344 423.64874267578125 161.52203369140625 C 438.36151123046875 154.01307678222656 451.61737060546875 178.32382202148438 445.78131103515625 200.9759521484375" stroke-width="6.0" fill="none" stroke="rgb(0, 0, 0)" stroke-opacity="1.0" stroke-linecap="round" stroke-linejoin="round"/>
    <path d="M 175.40330505371094 93.61940002441406 C 165.42747497558594 127.26423645019531 132.4595489501953 106.22199249267578 112.92668151855469 114.9177474975586 C 94.72859191894531 123.04751586914062 110.06037139892578 152.96926879882812 124.92462158203125 145.10702514648438 C 144.43304443359375 164.4032745361328 136.9936065673828 186.37342834472656 116.90924835205078 171.25636291503906 C 133.38665771484375 177.20913696289062 131.0533905029297 190.6993865966797 127.84465789794922 181.4733123779297 C 134.61546325683594 200.64651489257812 111.20902252197266 205.72198486328125 88.67264556884766 183.57093811035156" stroke-width="6.0" fill="none" stroke="rgb(0, 0, 0)" stroke-opacity="1.0" stroke-linecap="round" stroke-linejoin="round"/>
    <path d="M 222.19723510742188 94.20127868652344 C 186.77816772460938 99.60709381103516 162.57371520996094 76.0405502319336 154.11285400390625 61.096065521240234 C 159.74327087402344 44.76435852050781 180.41099548339844 23.621837615966797 188.97715759277344 39.05946731567383 C 177.12063598632812 21.060476303100586 190.63392639160156 35.294342041015625 188.75155639648438 51.20429229736328 C 197.7405242919922 45.260162353515625 168.9732208251953 64.03742218017578 179.8229217529297 73.14363098144531 C 166.01441955566406 53.17534637451172 159.27076721191406 37.090206146240234 164.13218688964844 45.26972961425781" stroke-width="6.0" fill="none" stroke="rgb(0, 0, 0)" stroke-opacity="1.0" stroke-linecap="round" stroke-linejoin="round"/>
    <path d="M 596.9983520507812 436.07403564453125 C 624.9855346679688 456.41845703125 636.4658203125 440.5958251953125 651.5039672851562 463.0578918457031 C 645.38525390625 464.9226379394531 641.1851196289062 482.7102966308594 660.6635131835938 462.0693664550781 C 665.2838745117188 468.92437744140625 666.3760375976562 496.048095703125 665.7669677734375 493.45245361328125 C 670.4334716796875 513.5969848632812 676.0325927734375 540.6929931640625 646.88720703125 548.7428588867188 C 638.18798828125 567.5435180664062 658.9566650390625 572.6544799804688 656.835693359375 596.862548828125" stroke-width="6.0" fill="none" stroke="rgb(0, 0, 0)" stroke-opacity="1.0" stroke-linecap="round" stroke-linejoin="round"/>
    <path d="M 535.8050537109375 175.8225555419922 C 542.2465209960938 207.55511474609375 534.5588989257812 212.79159545898438 532.3877563476562 197.26783752441406 C 550.1245727539062 194.62863159179688 552.5385131835938 216.4920196533203 552.1312866210938 186.0182647705078 C 555.376953125 156.52886962890625 532.37109375 174.38128662109375 537.345703125 135.46263122558594 C 557.949951171875 126.51103973388672 585.8635864257812 112.66752624511719 600.9620971679688 93.70502471923828 C 593.728271484375 121.63113403320312 623.331787109375 93.03875732421875 621.0921630859375 65.70519256591797" stroke-width="6.0" fill="none" stroke="rgb(0, 0, 0)" stroke-opacity="1.0" stroke-linecap="round" stroke-linejoin="round"/>
    <path d="M 301.4255065917969 373.8810119628906 C 333.0264587402344 369.1354675292969 315.17230224609375 346.6053466796875 283.8982238769531 352.6260986328125 C 284.8387145996094 323.80810546875 256.18798828125 313.5163879394531 220.25039672851562 317.6379699707031 C 232.47775268554688 324.47509765625 228.28126525878906 325.49957275390625 240.9049072265625 302.61865234375 C 259.1136474609375 293.99871826171875 284.90380859375 313.1741943359375 287.3023681640625 304.7345886230469 C 277.71435546875 333.3013000488281 251.50637817382812 322.3173828125 230.27133178710938 322.5911560058594" stroke-width="6.0" fill="none" stroke="rgb(0, 0, 0)" stroke-opacity="1.0" stroke-linecap="round" stroke-linejoin="round"/>
    <path d="M 500.5025329589844 114.28219604492188 C 475.35284423828125 98.95948791503906 485.7186584472656 102.19158172607422 487.6097412109375 74.94359588623047 C 499.9537048339844 57.67327117919922 504.8082275390625 51.246524810791016 484.4785461425781 48.696983337402344 C 465.2691955566406 58.756771087646484 457.1858825683594 77.47490692138672 463.46453857421875 103.2745361328125 C 483.5261535644531 73.89189910888672 471.151611328125 84.69898223876953 454.5208740234375 69.62713623046875 C 463.6571350097656 75.7099609375 450.24853515625 80.34242248535156 463.7890319824219 76.36566925048828" stroke-width="6.0" fill="none" stroke="rgb(0, 0, 0)" stroke-opacity="1.0" stroke-linecap="round" stroke-linejoin="round"/>
    <path d="M 154.12686157226562 82.28083038330078 C 168.2664337158203 90.48491668701172 185.722412109375 69.21305084228516 198.13148498535156 78.21797180175781 C 177.12631225585938 85.91941833496094 168.5704803466797 67.71456146240234 170.68418884277344 48.325157165527344 C 153.4958953857422 58.17623519897461 143.24624633789062 79.17304229736328 165.6700439453125 90.17889404296875 C 151.41757202148438 74.71379089355469 173.02845764160156 68.02705383300781 156.40830993652344 44.51472854614258 C 167.2330322265625 46.811458587646484 178.3874969482422 26.00318145751953 186.85250854492188 33.96957778930664" stroke-width="6.0" fill="none" stroke="rgb(0, 0, 0)" stroke-opacity="1.0" stroke-linecap="round" stroke-linejoin="round"/>
    <path d="M 580.1258544921875 15.28565502166748 C 565.9168090820312 -10.534971237182617 563.8688354492188 -29.508996963500977 583.3739013671875 -21.118206024169922 C 548.9434814453125 -36.81294631958008 541.5346069335938 -63.28349304199219 546.1138305664062 -81.0513687133789 C 563.4814453125 -65.55787658691406 573.3900756835938 -37.55504608154297 553.6911010742188 -27.44783592224121 C 553.8610229492188 -29.13724136352539 548.2213134765625 -15.890060424804688 575.21533203125 -23.60453987121582 C 582.894775390625 -26.56505584716797 566.8974609375 -53.60353088378906 556.8576049804688 -35.6528205871582" stroke-width="6.0" fill="none" stroke="rgb(0, 0, 0)" stroke-opacity="1.0" stroke-linecap="round" stroke-linejoin="round"/>
    <path d="M 495.8905944824219 123.2702407836914 C 505.4917907714844 107.746337890625 500.0755615234375 106.01338958740234 497.36273193359375 125.10578918457031 C 488.84808349609375 139.6666259765625 469.6386413574219 117.41815185546875 472.6635437011719 96.04674530029297 C 455.7313537597656 90.00041198730469 460.5118713378906 72.95973205566406 450.2165222167969 60.89616775512695 C 449.1705322265625 37.22223663330078 425.93243408203125 60.48741912841797 407.8961181640625 76.6227035522461 C 385.2322692871094 83.30370330810547 387.6241455078125 86.94596099853516 401.9024658203125 78.47748565673828" stroke-width="6.0" fill="none" stroke="rgb(0, 0, 0)" stroke-opacity="1.0" stroke-linecap="round" stroke-linejoin="round"/>
    <path d="M 324.95697021484375 375.2697448730469 C 380.6376953125 376.6595458984375 372.7933349609375 385.6219177246094 379.7920837402344 355.4412841796875 C 381.97076416015625 313.84130859375 375.451904296875 332.337890625 372.5119934082031 324.1033020019531 C 375.6640319824219 339.1773376464844 375.6468811035156 357.494384765625 364.44293212890625 349.072265625 C 322.6501159667969 359.57843017578125 338.2571716308594 349.020751953125 324.8363952636719 320.6803283691406 C 309.8378601074219 319.2464904785156 310.622802734375 329.8501281738281 339.788330078125 326.9008483886719" stroke-width="6.0" fill="none" stroke="rgb(0, 0, 0)" stroke-opacity="1.0" stroke-linecap="round" stroke-linejoin="round"/>
    <path d="M 546.357666015625 256.66265869140625 C 505.57623291015625 251.66555786132812 491.501953125 230.36135864257812 503.642578125 242.47862243652344 C 488.90838623046875 224.7421417236328 485.67034912109375 202.2071533203125 490.93218994140625 210.7389373779297 C 519.3578491210938 228.1559600830078 537.968017578125 224.35858154296875 572.7314453125 232.0469970703125 C 531.4070434570312 230.10693359375 501.10968017578125 224.1557159423828 486.3483581542969 202.64102172851562 C 518.5050659179688 198.9488983154297 538.8616943359375 184.08779907226562 542.2200927734375 157.3704071044922" stroke-width="6.0" fill="none" stroke="rgb(0, 0, 0)" stroke-opacity="1.0" stroke-linecap="round" stroke-linejoin="round"/>
    <path d="M 101.1375961303711 511.9026794433594 C 94.8292007446289 528.5134887695312 98.68741607666016 510.8477783203125 104.30661010742188 496.8534851074219 C 109.7468490600586 477.66119384765625 133.58847045898438 504.25048828125 120.03662872314453 497.437255859375 C 117.43195343017578 514.50732421875 139.3805389404297 534.9421997070312 156.8861541748047 547.1669311523438 C 132.70242309570312 551.08935546875 118.87714385986328 551.458740234375 101.81641387939453 561.0201416015625 C 130.70181274414062 535.382568359375 134.603271484375 555.5423583984375 120.59327697753906 551.1309814453125" stroke-width="6.0" fill="none" stroke="rgb(0, 0, 0)" stroke-opacity="1.0" stroke-linecap="round" stroke-linejoin="round"/>
    <path d="M 351.77191162109375 311.022705078125 C 359.403564453125 335.6625671386719 345.83209228515625 357.5426330566406 369.8335876464844 376.5480041503906 C 393.505126953125 412.2084655761719 382.2929382324219 393.8571472167969 363.5177307128906 399.7003479003906 C 382.3637390136719 384.92694091796875 359.2371520996094 402.5954284667969 330.2546081542969 390.473876953125 C 328.1988220214844 404.2625732421875 331.8966979980469 390.6136779785156 333.6667175292969 367.2571716308594 C 326.9637756347656 333.5953674316406 341.1681213378906 329.5968322753906 320.6513366699219 322.3003845214844" stroke-width="6.0" fill="none" stroke="rgb(0, 0, 0)" stroke-opacity="1.0" stroke-linecap="round" stroke-linejoin="round"/>
    <path d="M 206.8573760986328 109.67509460449219 C 197.11090087890625 103.24430847167969 190.64678955078125 82.81562042236328 212.3575897216797 92.18390655517578 C 208.73941040039062 70.83174133300781 216.5440673828125 77.46755981445312 207.55064392089844 57.739013671875 C 206.72044372558594 45.09031677246094 213.40887451171875 43.57501983642578 175.6473846435547 60.66850662231445 C 180.71347045898438 90.49869537353516 181.2542724609375 81.34595489501953 183.42877197265625 82.03992462158203 C 212.6303253173828 77.38155364990234 209.43582153320312 74.35465240478516 207.10662841796875 93.10922241210938" stroke-width="6.0" fill="none" stroke="rgb(0, 0, 0)" stroke-opacity="1.0" stroke-linecap="round" stroke-linejoin="round"/>
    <path d="M 393.9851379394531 201.12655639648438 C 416.59625244140625 183.8001708984375 417.9652099609375 189.9296417236328 411.89569091796875 188.2095489501953 C 434.5146179199219 187.0321502685547 418.4087219238281 161.69332885742188 420.3912658691406 155.40211486816406 C 430.4029846191406 154.11058044433594 423.34051513671875 136.15040588378906 411.76300048828125 151.35519409179688 C 391.6905212402344 137.22991943359375 378.3028564453125 146.715576171875 369.96343994140625 166.0836181640625 C 384.3936767578125 187.0980682373047 370.7664794921875 206.0314483642578 378.043212890625 252.52804565429688" stroke-width="6.0" fill="none" stroke="rgb(0, 0, 0)" stroke-opacity="1.0" stroke-linecap="round" stroke-linejoin="round"/>
    <path d="M 460.34417724609375 450.8992614746094 C 445.0655212402344 440.3809509277344 422.5976257324219 454.92901611328125 398.33941650390625 468.8060302734375 C 423.17120361328125 463.90545654296875 412.103515625 498.8831481933594 426.88970947265625 475.5077819824219 C 398.8189697265625 493.3115234375 379.9641418457031 508.969970703125 399.85162353515625 533.2020874023438 C 388.7096252441406 535.32763671875 379.7584228515625 530.5162963867188 414.0406188964844 504.34112548828125 C 402.6202087402344 525.8153076171875 397.84747314453125 535.0807495117188 400.3505554199219 520.5623168945312" stroke-width="6.0" fill="none" stroke="rgb(0, 0, 0)" stroke-opacity="1.0" stroke-linecap="round" stroke-linejoin="round"/>
    <path d="M 543.87060546875 41.94599914550781 C 532.2528076171875 29.00373649597168 533.3980712890625 58.99515914916992 544.762939453125 48.956764221191406 C 539.1991577148438 33.02833938598633 534.7008056640625 0.9630694389343262 528.4359741210938 -14.806453704833984 C 543.5948486328125 -32.608177185058594 521.2294311523438 -12.702064514160156 534.7083740234375 -31.240968704223633 C 511.9786376953125 -27.007680892944336 483.67474365234375 -25.91116714477539 494.8913879394531 -7.46513032913208 C 504.8953552246094 -22.278146743774414 518.7969970703125 -43.59550476074219 545.9507446289062 -33.54407501220703" stroke-width="6.0" fill="none" stroke="rgb(0, 0, 0)" stroke-opacity="1.0" stroke-linecap="round" stroke-linejoin="round"/>
    <path d="M 49.6073112487793 169.7986297607422 C 73.58976745605469 189.5094757080078 46.41478729248047 215.00343322753906 83.30133819580078 203.87823486328125 C 72.82267761230469 203.69757080078125 71.3480453491211 193.97982788085938 87.88453674316406 212.8970184326172 C 60.94734573364258 191.41575622558594 37.98663330078125 202.1443328857422 61.884559631347656 229.794677734375 C 37.62240219116211 239.7089080810547 54.74177169799805 221.1132354736328 54.440006256103516 235.12039184570312 C 83.07162475585938 227.55038452148438 104.67105865478516 223.6637420654297 86.80451965332031 203.4326629638672" stroke-width="6.0" fill="none" stroke="rgb(0, 0, 0)" stroke-opacity="1.0" stroke-linecap="round" stroke-linejoin="round"/>
    <path d="M 276.4261474609375 208.39491271972656 C 282.46783447265625 205.98208618164062 311.8455810546875 219.73013305664062 339.4584045410156 223.92124938964844 C 357.2232971191406 256.06317138671875 349.7465515136719 289.4664611816406 352.0227966308594 308.1314392089844 C 342.05035400390625 292.1326599121094 331.6162109375 285.60186767578125 329.1602783203125 317.96441650390625 C 319.4738464355469 332.4151306152344 340.04638671875 337.8332214355469 329.7080993652344 300.4183654785156 C 326.5833740234375 279.554443359375 363.8563537597656 304.23175048828125 364.8019104003906 314.89544677734375" stroke-width="6.0" fill="none" stroke="rgb(0, 0, 0)" stroke-opacity="1.0" stroke-linecap="round" stroke-linejoin="round"/>
    <path d="M 323.3638916015625 -4.445982933044434 C 300.498291015625 21.44671058654785 288.7853088378906 23.315473556518555 262.82513427734375 18.047794342041016 C 261.2986145019531 4.150267601013184 237.94786071777344 -24.191360473632812 211.8728790283203 -25.07198715209961 C 236.51742553710938 -45.16680908203125 258.0716247558594 -68.89318084716797 283.35101318359375 -91.45494079589844 C 257.602294921875 -101.13346862792969 244.69448852539062 -125.89151000976562 236.95643615722656 -102.8316650390625 C 240.50979614257812 -107.08491516113281 243.22552490234375 -107.73589324951172 223.06813049316406 -109.62732696533203" stroke-width="6.0" fill="none" stroke="rgb(0, 0, 0)" stroke-opacity="1.0" stroke-linecap="round" stroke-linejoin="round"/>
    <path d="M 446.36383056640625 52.058631896972656 C 427.61126708984375 55.16035079956055 423.86859130859375 65.98345184326172 414.2010498046875 53.07902145385742 C 394.1304016113281 52.09398651123047 394.93170166015625 44.12227249145508 390.6553039550781 54.38706970214844 C 404.465087890625 45.018775939941406 428.0370788574219 63.058719635009766 419.2359313964844 57.79636764526367 C 399.2587585449219 46.442832946777344 369.9919128417969 53.23480987548828 373.4375915527344 81.83355712890625 C 360.3627624511719 64.58905792236328 382.591552734375 79.44203186035156 394.9160461425781 95.32622528076172" stroke-width="6.0" fill="none" stroke="rgb(0, 0, 0)" stroke-opacity="1.0" stroke-linecap="round" stroke-linejoin="round"/>
    <path d="M 358.72265625 24.38351058959961 C 365.3825378417969 11.812250137329102 350.045166015625 -9.732516288757324 356.8995056152344 -8.01370620727539 C 358.66339111328125 10.31944751739502 366.6104431152344 28.54241180419922 349.91552734375 27.054780960083008 C 329.7066955566406 49.690303802490234 305.4495849609375 71.03067779541016 334.91925048828125 96.48772430419922 C 308.7472229003906 101.44794464111328 317.9181213378906 85.14261627197266 348.749755859375 100.29135131835938 C 326.2812194824219 116.40165710449219 335.2812805175781 117.66157531738281 335.89349365234375 111.10066986083984" stroke-width="6.0" fill="none" stroke="rgb(0, 0, 0)" stroke-opacity="1.0" stroke-linecap="round" stroke-linejoin="round"/>
    <path d="M 257.34814453125 110.26261901855469 C 269.5163269042969 116.5259017944336 285.2068786621094 124.75138854980469 268.1701354980469 148.95791625976562 C 274.8751525878906 135.8353271484375 283.6495056152344 151.02796936035156 297.49798583984375 181.79710388183594 C 264.7307434082031 174.5633087158203 247.3085479736328 179.9112548828125 226.13087463378906 178.18783569335938 C 212.33021545410156 174.86227416992188 196.3083038330078 153.87869262695312 162.55960083007812 183.00204467773438 C 177.19300842285156 170.77745056152344 191.89186096191406 163.7159881591797 166.2538604736328 179.3546600341797" stroke-width="6.0" fill="none" stroke="rgb(0, 0, 0)" stroke-opacity="1.0" stroke-linecap="round" stroke-linejoin="round"/>
    <path d="M 327.00079345703125 393.5054016113281 C 317.39251708984375 391.0820007324219 336.624267578125 407.4263610839844 325.99505615234375 391.29278564453125 C 324.58074951171875 370.46588134765625 318.9305419921875 377.6536865234375 316.4543762207031 353.0347900390625 C 305.62054443359375 327.6515197753906 311.9382019042969 299.05047607421875 312.6141662597656 330.63720703125 C 316.12847900390625 306.3826599121094 347.2462158203125 331.9720153808594 363.2608642578125 338.76300048828125 C 369.0664978027344 356.5715637207031 394.7318420410156 375.8745422363281 363.9323425292969 377.0232238769531" stroke-width="6.0" fill="none" stroke="rgb(0, 0, 0)" stroke-opacity="1.0" stroke-linecap="round" stroke-linejoin="round"/>
    <path d="M 437.75323486328125 431.4127197265625 C 467.7167053222656 410.4590759277344 465.2940979003906 383.9003601074219 446.75885009765625 394.2234802246094 C 442.8451843261719 370.7539367675781 447.62359619140625 396.5739440917969 420.6755676269531 393.2943420410156 C 439.47686767578125 389.2782287597656 439.4417724609375 379.2108154296875 421.9051513671875 340.9930114746094 C 439.9441223144531 342.703125 435.5533447265625 363.2940673828125 435.3973388671875 344.9043273925781 C 455.27874755859375 331.84283447265625 457.067626953125 351.3492431640625 459.4224853515625 350.9812316894531" stroke-width="6.0" fill="none" stroke="rgb(0, 0, 0)" stroke-opacity="1.0" stroke-linecap="round" stroke-linejoin="round"/>
    <path d="M 483.1266174316406 46.53993606567383 C 466.4347229003906 62.296058654785156 493.87750244140625 56.209781646728516 477.6779479980469 55.71839141845703 C 485.8662414550781 64.9888916015625 484.7203674316406 85.84065246582031 488.49334716796875 93.91657257080078 C 488.1818542480469 116.84191131591797 496.13275146484375 97.41719055175781 515.7052001953125 73.56929779052734 C 520.3667602539062 53.63887023925781 506.6943359375 37.546199798583984 496.4833984375 51.47865295410156 C 471.68133544921875 49.61274719238281 502.1752014160156 37.35417938232422 479.4497375488281 57.337039947509766" stroke-width="6.0" fill="none" stroke="rgb(0, 0, 0)" stroke-opacity="1.0" stroke-linecap="round" stroke-linejoin="round"/>
    <path d="M 495.2163391113281 104.73001861572266 C 470.52655029296875 132.60292053222656 452.9649963378906 148.66473388671875 471.3557434082031 159.17718505859375 C 455.8762512207031 142.75611877441406 418.9144287109375 141.29666137695312 424.4260559082031 160.8330078125 C 419.681396484375 186.95899963378906 432.9967346191406 185.53375244140625 432.45196533203125 193.3162384033203 C 452.90673828125 206.27122497558594 424.1949768066406 189.07797241210938 438.005615234375 196.92283630371094 C 413.64752197265625 199.6340789794922 404.0558776855469 210.34197998046875 421.3523254394531 197.33412170410156" stroke-width="6.0" fill="none" stroke="rgb(0, 0, 0)" stroke-opacity="1.0" stroke-linecap="round" stroke-linejoin="round"/>
    <path d="M 172.8016357421875 66.4181900024414 C 187.9304656982422 55.15117645263672 218.10366821289062 70.16522216796875 214.6673583984375 73.41039276123047 C 207.8998565673828 51.9948844909668 187.96844482421875 61.00914764404297 175.43821716308594 89.77865600585938 C 174.2580108642578 107.14151763916016 156.6630859375 114.57245635986328 176.18710327148438 97.58619689941406 C 147.16700744628906 74.05115509033203 142.46363830566406 80.21058654785156 143.21536254882812 78.19600677490234 C 162.08834838867188 68.50686645507812 184.96946716308594 52.280311584472656 212.2732391357422 46.05001449584961" stroke-width="6.0" fill="none" stroke="rgb(0, 0, 0)" stroke-opacity="1.0" stroke-linecap="round" stroke-linejoin="round"/>
    <path d="M 580.1283569335938 426.5196533203125 C 606.367431640625 432.650390625 596.0693969726562 458.65985107421875 598.06201171875 487.5122985839844 C 597.3914184570312 502.56683349609375 599.153076171875 523.9642333984375 611.466064453125 519.3300170898438 C 594.0136108398438 504.2901916503906 577.046142578125 484.5428771972656 605.9409790039062 509.7118225097656 C 592.595947265625 494.914306640625 572.6491088867188 511.02716064453125 576.9037475585938 507.313232421875 C 579.0833740234375 504.31549072265625 595.2498779296875 501.0438232421875 574.7860107421875 505.2436218261719" stroke-width="6.0" fill="none" stroke="rgb(0, 0, 0)" stroke-opacity="1.0" stroke-linecap="round" stroke-linejoin="round"/>
    <path d="M 98.64693450927734 -4.748569011688232 C 106.11689758300781 23.116592407226562 126.03327941894531 9.008646011352539 157.64259338378906 14.404017448425293 C 150.94601440429688 49.11227798461914 171.6022186279297 53.15961837768555 153.45108032226562 48.05219650268555 C 183.1949920654297 33.98257064819336 208.41603088378906 13.822733879089355 188.24026489257812 -20.454524993896484 C 190.13743591308594 1.8721529245376587 179.470947265625 17.1348819732666 188.04119873046875 24.8908634185791 C 194.92355346679688 -7.278226375579834 218.4673614501953 -29.125146865844727 245.77706909179688 -53.17805862426758" stroke-width="6.0" fill="none" stroke="rgb(0, 0, 0)" stroke-opacity="1.0" stroke-linecap="round" stroke-linejoin="round"/>
    <path d="M -3.620269775390625 364.5413513183594 C 3.0533511638641357 395.7490234375 2.4860119819641113 426.1611328125 -20.780502319335938 412.906494140625 C -30.772563934326172 425.6578369140625 -16.646724700927734 418.31097412109375 -4.459131717681885 446.1063537597656 C 27.3039608001709 458.9387512207031 30.007837295532227 455.0224609375 40.047611236572266 449.87237548828125 C 30.68228530883789 458.59686279296875 44.80748748779297 447.1797180175781 72.55696868896484 430.5715637207031 C 56.15695571899414 424.3670959472656 63.11636734008789 395.6923522949219 74.53182983398438 369.3163146972656" stroke-width="6.0" fill="none" stroke="rgb(0, 0, 0)" stroke-opacity="1.0" stroke-linecap="round" stroke-linejoin="round"/>
    <path d="M 199.97914123535156 308.96954345703125 C 162.43089294433594 307.0163269042969 136.5623779296875 298.22674560546875 146.20541381835938 284.8596496582031 C 162.79110717773438 281.0554504394531 182.4557647705078 304.5333251953125 214.40908813476562 292.2803649902344 C 247.01913452148438 300.85333251953125 217.66006469726562 309.66461181640625 199.12010192871094 301.2597961425781 C 190.16534423828125 302.0516357421875 209.472900390625 306.7308349609375 221.92298889160156 265.87451171875 C 194.8876953125 245.84315490722656 196.92520141601562 259.1156921386719 179.10317993164062 259.4995422363281" stroke-width="6.0" fill="none" stroke="rgb(0, 0, 0)" stroke-opacity="1.0" stroke-linecap="round" stroke-linejoin="round"/>
    <path d="M 256.7359619140625 76.08678436279297 C 254.304443359375 84.43978881835938 250.59689331054688 91.02142333984375 243.73904418945312 111.50445556640625 C 259.78790283203125 115.1063003540039 276.80877685546875 87.0239028930664 282.9541931152344 67.30902862548828 C 285.66253662109375 78.83750915527344 277.2679138183594 80.87504577636719 250.24404907226562 74.2488784790039 C 231.06138610839844 72.95860290527344 209.5591583251953 79.1421890258789 234.12005615234375 73.09552764892578 C 250.31727600097656 81.4237060546875 269.3310852050781 105.20101928710938 283.8013610839844 115.55280303955078" stroke-width="6.0" fill="none" stroke="rgb(0, 0, 0)" stroke-opacity="1.0" stroke-linecap="round" stroke-linejoin="round"/>
    <path d="M 525.1600341796875 360.92376708984375 C 514.213134765625 369.262451171875 500.4530334472656 346.0652770996094 488.2377624511719 381.8876037597656 C 485.4268798828125 339.203369140625 488.3840026855469 366.3767395019531 495.92510986328125 373.2822570800781 C 514.1829223632812 378.2566833496094 500.1788024902344 401.1487121582031 514.9210205078125 383.9966125488281 C 511.7247619628906 375.1615905761719 507.97906494140625 361.80859375 509.0923767089844 370.4643249511719 C 518.7205200195312 392.040771484375 536.927978515625 412.3303527832031 548.64404296875 408.5279846191406" stroke-width="6.0" fill="none" stroke="rgb(0, 0, 0)" stroke-opacity="1.0" stroke-linecap="round" stroke-linejoin="round"/>
    <path d="M 377.945556640625 81.25065612792969 C 346.97442626953125 66.5033187866211 331.94677734375 85.20118713378906 311.2729187011719 99.82805633544922 C 287.95904541015625 88.91840362548828 277.8020324707031 111.22330474853516 276.987060546875 94.99932098388672 C 301.74658203125 92.41584014892578 279.5965270996094 80.0506591796875 283.1891174316406 67.45474243164062 C 265.1110534667969 60.4252815246582 271.7244873046875 53.86306381225586 252.26446533203125 80.58308410644531 C 230.3060302734375 77.56367492675781 245.06173706054688 83.48091888427734 246.05018615722656 98.3851318359375" stroke-width="6.0" fill="none" stroke="rgb(0, 0, 0)" stroke-opacity="1.0" stroke-linecap="round" stroke-linejoin="round"/>
    <path d="M 455.88165283203125 346.7984924316406 C 474.49896240234375 375.0350341796875 472.3164978027344 372.4127502441406 437.7348937988281 394.9176025390625 C 440.3671569824219 373.46942138671875 451.55950927734375 378.01715087890625 463.5734558105469 399.2059631347656 C 453.6159362792969 383.1062927246094 449.6221618652344 359.5335388183594 426.8536071777344 330.6533508300781 C 415.0963439941406 305.9750671386719 410.5728454589844 289.9630432128906 396.70208740234375 264.7335510253906 C 360.50970458984375 243.8556365966797 376.1664123535156 266.02325439453125 375.66937255859375 260.7785949707031" stroke-width="6.0" fill="none" stroke="rgb(0, 0, 0)" stroke-opacity="1.0" stroke-linecap="round" stroke-linejoin="round"/>
    <path d="M 176.67495727539062 585.5078735351562 C 139.30174255371094 571.2857055664062 111.75298309326172 581.6729125976562 106.55274963378906 576.7178344726562 C 124.32862091064453 585.8572387695312 151.8045196533203 588.5022583007812 132.0513916015625 585.6294555664062 C 153.8740234375 597.4307861328125 177.88931274414062 587.9386596679688 195.9186248779297 582.741455078125 C 216.87689208984375 606.4744873046875 183.38284301757812 588.5977783203125 167.62571716308594 594.1430053710938 C 203.3624267578125 583.9417724609375 228.06539916992188 594.9622802734375 250.26589965820312 592.9085083007812" stroke-width="6.0" fill="none" stroke="rgb(0, 0, 0)" stroke-opacity="1.0" stroke-linecap="round" stroke-linejoin="round"/>
    <path d="M 229.40399169921875 408.2562255859375 C 232.87216186523438 417.76092529296875 232.93685913085938 442.1634216308594 240.26788330078125 430.5382080078125 C 252.42910766601562 453.2887878417969 231.0289764404297 431.837158203125 226.89801025390625 427.171630859375 C 217.13526916503906 415.2216491699219 235.9117431640625 433.45391845703125 235.63319396972656 413.5173645019531 C 263.9827880859375 422.0621337890625 250.3168182373047 435.5760803222656 227.34860229492188 403.53204345703125 C 248.83236694335938 425.0247802734375 263.2221984863281 417.39996337890625 300.84844970703125 439.4659118652344" stroke-width="6.0" fill="none" stroke="rgb(0, 0, 0)" stroke-opacity="1.0" stroke-linecap="round" stroke-linejoin="round"/>
    <path d="M 379.49078369140625 556.568115234375 C 364.38568115234375 553.7526245117188 337.45330810546875 561.0233764648438 340.2895202636719 576.860595703125 C 347.1957702636719 577.2470703125 325.3523254394531 577.1958618164062 299.28900146484375 586.4065551757812 C 275.0713806152344 582.7222900390625 252.6622314453125 596.1614379882812 239.61410522460938 609.6607666015625 C 279.09588623046875 651.4085693359375 290.35675048828125 643.78125 318.6301574707031 628.7194213867188 C 332.14306640625 612.1240234375 329.2762756347656 606.9663696289062 312.23785400390625 608.8626098632812" stroke-width="6.0" fill="none" stroke="rgb(0, 0, 0)" stroke-opacity="1.0" stroke-linecap="round" stroke-linejoin="round"/>
    <path d="M 336.480224609375 111.2300033569336 C 352.5219421386719 93.82662963867188 357.28192138671875 90.29499053955078 375.4527893066406 96.29705810546875 C 392.1732177734375 106.93375396728516 371.6949768066406 91.30116271972656 388.46722412109375 105.8531723022461 C 390.5787658691406 95.74361419677734 411.860595703125 91.5511245727539 438.3017272949219 104.17314910888672 C 460.57012939453125 80.7625961303711 480.2051086425781 101.65636444091797 464.6461486816406 118.07954406738281 C 487.4349670410156 94.62995910644531 494.907470703125 76.66455078125 477.4217224121094 55.42886734008789" stroke-width="6.0" fill="none" stroke="rgb(0, 0, 0)" stroke-opacity="1.0" stroke-linecap="round" stroke-linejoin="round"/>
    <path d="M 375.2055358886719 533.2171020507812 C 345.63568115234375 543.790283203125 358.8515930175781 545.469970703125 387.5853271484375 545.9121704101562 C 362.6331481933594 569.63671875 370.0703430175781 556.6659545898438 354.37078857421875 541.3240966796875 C 379.8922424316406 555.459228515625 366.5427551269531 565.9234008789062 340.7368469238281 577.5094604492188 C 351.1779479980469 565.8597412109375 338.5445556640625 551.7389526367188 366.03271484375 540.7311401367188 C 346.66705322265625 556.3333740234375 346.3211975097656 576.5165405273438 357.1865539550781 568.3816528320312" stroke-width="6.0" fill="none" stroke="rgb(0, 0, 0)" stroke-opacity="1.0" stroke-linecap="round" stroke-linejoin="round"/>
    <path d="M 460.756591796875 43.012359619140625 C 488.6129455566406 52.28184127807617 484.14654541015625 86.2786865234375 494.0500183105469 114.20665740966797 C 495.5948181152344 119.41532135009766 515.1846923828125 145.0706024169922 540.87841796875 118.54379272460938 C 536.9371337890625 145.49734497070312 532.12255859375 130.62814331054688 545.949951171875 107.16626739501953 C 571.9595947265625 116.23065948486328 572.033447265625 123.86643981933594 542.3231201171875 107.5027084350586 C 524.9562377929688 115.14916229248047 545.3452758789062 151.85214233398438 532.5940551757812 182.9654541015625" stroke-width="6.0" fill="none" stroke="rgb(0, 0, 0)" stroke-opacity="1.0" stroke-linecap="round" stroke-linejoin="round"/>
    <path d="M 23.177593231201172 523.6943969726562 C 29.479625701904297 509.7175598144531 41.524932861328125 531.5224609375 22.337646484375 520.3768310546875 C -10.589635848999023 543.281982421875 5.025454521179199 567.9884033203125 23.160053253173828 564.3464965820312 C 49.54011917114258 569.4298706054688 59.56555938720703 541.1069946289062 70.52806091308594 531.6773071289062 C 103.29717254638672 513.3572998046875 110.67251586914062 508.0673522949219 92.11427307128906 508.645263671875 C 112.43121337890625 501.4949645996094 88.43594360351562 495.0230407714844 110.14683532714844 490.8179626464844" stroke-width="6.0" fill="none" stroke="rgb(0, 0, 0)" stroke-opacity="1.0" stroke-linecap="round" stroke-linejoin="round"/>
    <path d="M 527.88818359375 591.1480712890625 C 526.2971801757812 598.6179809570312 544.9791870117188 618.0224609375 518.9129638671875 602.8645629882812 C 544.7359008789062 628.90869140625 534.5394287109375 604.7448120117188 564.483154296875 616.5550537109375 C 555.4703369140625 636.4274291992188 569.9916381835938 657.0286254882812 577.0940551757812 676.9506225585938 C 593.3402709960938 673.8045043945312 580.96044921875 666.0877075195312 608.4244384765625 687.564208984375 C 628.5830688476562 683.24365234375 625.6372680664062 663.9447631835938 626.2913208007812 673.7874145507812" stroke-width="6.0" fill="none" stroke="rgb(0, 0, 0)" stroke-opacity="1.0" stroke-linecap="round" stroke-linejoin="round"/>
    <path d="M 271.0092468261719 145.73611450195312 C 277.47216796875 132.20567321777344 278.6473388671875 122.1080551147461 263.2744140625 113.57746124267578 C 253.1248016357422 108.62030792236328 232.69117736816406 133.44471740722656 202.0895538330078 119.79296112060547 C 219.20115661621094 130.63739013671875 200.92111206054688 107.58467102050781 218.31594848632812 106.95297241210938 C 204.2675018310547 104.00031280517578 240.80569458007812 78.43386840820312 266.6855773925781 79.73222351074219 C 275.1742858886719 97.9472885131836 278.06610107421875 104.18568420410156 310.08624267578125 80.64779663085938" stroke-width="6.0" fill="none" stroke="rgb(0, 0, 0)" stroke-opacity="1.0" stroke-linecap="round" stroke-linejoin="round"/>
    <path d="M 22.427539825439453 565.5009155273438 C -9.0286283493042 544.594970703125 -17.675199508666992 553.224609375 11.468664169311523 533.511474609375 C 34.096961975097656 517.7278442382812 51.035282135009766 501.0456848144531 74.01726531982422 513.04345703125 C 76.50395965576172 488.0203857421875 54.82927703857422 465.7527770996094 55.50033187866211 478.3385925292969 C 78.19642639160156 478.0365295410156 88.96941375732422 500.7877502441406 91.55197143554688 529.9853515625 C 115.5995101928711 523.3416137695312 138.65171813964844 538.6243896484375 154.3154754638672 526.4750366210938" stroke-width="6.0" fill="none" stroke="rgb(0, 0, 0)" stroke-opacity="1.0" stroke-linecap="round" stroke-linejoin="round"/>
    <path d="M 29.66029167175293 154.70562744140625 C 29.19704818725586 151.57240295410156 32.68509292602539 158.27867126464844 22.438488006591797 176.6680145263672 C 46.38341522216797 196.14288330078125 63.548919677734375 185.2869110107422 52.45914077758789 170.14614868164062 C 63.27823257446289 143.74253845214844 71.30830383300781 168.27914428710938 68.70313262939453 166.650390625 C 71.0857162475586 179.29421997070312 73.91780853271484 201.35092163085938 75.26793670654297 196.81382751464844 C 75.7762680053711 210.6749267578125 79.52832794189453 208.9910430908203 76.89071655273438 199.0793914794922" stroke-width="6.0" fill="none" stroke="rgb(0, 0, 0)" stroke-opacity="1.0" stroke-linecap="round" stroke-linejoin="round"/>
    <path d="M 215.3110809326172 536.062744140625 C 194.7802734375 561.4750366210938 227.14476013183594 553.6705932617188 209.5813446044922 535.7525024414062 C 227.88778686523438 499.0474853515625 231.0496063232422 474.5424499511719 238.60711669921875 456.84881591796875 C 232.4761962890625 469.9006652832031 228.7556915283203 457.3131103515625 214.49534606933594 458.4742431640625 C 212.2738037109375 476.90911865234375 230.78427124023438 478.01788330078125 207.6666717529297 490.64898681640625 C 185.84304809570312 483.0462341308594 203.7200927734375 472.9975280761719 181.45211791992188 472.6967468261719" stroke-width="6.0" fill="none" stroke="rgb(0, 0, 0)" stroke-opacity="1.0" stroke-linecap="round" stroke-linejoin="round"/>
    <path d="M 260.17462158203125 57.956512451171875 C 233.2566375732422 66.58168029785156 244.43701171875 84.04486846923828 214.4615936279297 86.63439178466797 C 235.35374450683594 103.58802795410156 250.52108764648438 100.25495910644531 236.21536254882812 81.69078826904297 C 236.05355834960938 105.86674499511719 238.81228637695312 123.5912857055664 256.69317626953125 111.4851303100586 C 249.62037658691406 102.82478332519531 247.93936157226562 116.07543182373047 247.67959594726562 116.76841735839844 C 221.43394470214844 102.0372085571289 195.9425506591797 110.8515625 217.97579956054688 123.94493865966797" stroke-width="6.0" fill="none" stroke="rgb(0, 0, 0)" stroke-opacity="1.0" stroke-linecap="round" stroke-linejoin="round"/>
    <path d="M 442.22406005859375 439.146728515625 C 436.7218017578125 423.49334716796875 412.0487060546875 443.0708923339844 420.0247802734375 457.22119140625 C 399.79412841796875 442.06683349609375 374.5079650878906 462.91693115234375 355.47296142578125 469.6705627441406 C 374.1632080078125 472.835205078125 360.6522521972656 470.85205078125 382.8155822753906 445.354736328125 C 354.4662780761719 443.5980224609375 334.0455627441406 433.16107177734375 333.4824523925781 451.65704345703125 C 362.6676940917969 453.86627197265625 340.05810546875 437.3883361816406 355.26153564453125 444.53436279296875" stroke-width="6.0" fill="none" stroke="rgb(0, 0, 0)" stroke-opacity="1.0" stroke-linecap="round" stroke-linejoin="round"/>
    <path d="M 346.34637451171875 33.35711669921875 C 349.82733154296875 38.72413635253906 339.35870361328125 19.033668518066406 334.6197509765625 32.11653518676758 C 329.6968994140625 19.99187660217285 305.8804931640625 33.26699447631836 301.99993896484375 35.54096603393555 C 319.06024169921875 24.35728645324707 332.51959228515625 32.828121185302734 314.93927001953125 12.081661224365234 C 316.51422119140625 -14.65452766418457 334.0585632324219 -16.69472885131836 310.7957458496094 -23.112077713012695 C 342.7283630371094 -43.16371536254883 356.94677734375 -28.99074935913086 344.912353515625 -36.49702072143555" stroke-width="6.0" fill="none" stroke="rgb(0, 0, 0)" stroke-opacity="1.0" stroke-linecap="round" stroke-linejoin="round"/>
    <path d="M 518.113525390625 -1.85611891746521 C 501.4991455078125 2.5597829818725586 492.6645812988281 -11.3704195022583 488.9444580078125 -13.076836585998535 C 479.794189453125 -14.238850593566895 494.26739501953125 -8.301267623901367 472.3392639160156 -7.073382377624512 C 460.4712829589844 -19.173738479614258 480.279052734375 -26.604887008666992 472.9629211425781 -29.216651916503906 C 476.42626953125 -49.20442199707031 455.0818786621094 -36.117408752441406 477.5153503417969 -23.228618621826172 C 503.4932556152344 1.0429197549819946 513.0964965820312 3.797893762588501 509.4613342285156 -5.9742655754089355" stroke-width="6.0" fill="none" stroke="rgb(0, 0, 0)" stroke-opacity="1.0" stroke-linecap="round" stroke-linejoin="round"/>
    <path d="M 474.2012634277344 320.4324035644531 C 489.2922668457031 336.7960205078125 471.7550354003906 327.31329345703125 493.37738037109375 332.9232482910156 C 502.1626892089844 325.128662109375 527.8179321289062 321.8733215332031 532.205810546875 347.0704345703125 C 518.7737426757812 362.984130859375 538.2294311523438 338.54083251953125 545.208251953125 362.38287353515625 C 549.2837524414062 374.8604736328125 531.9789428710938 361.7420959472656 522.3146362304688 353.740234375 C 534.506103515625 334.9905090332031 542.8704223632812 301.36114501953125 515.1011962890625 312.7342529296875" stroke-width="6.0" fill="none" stroke="rgb(0, 0, 0)" stroke-opacity="1.0" stroke-linecap="round" stroke-linejoin="round"/>
    <path d="M 127.23377990722656 276.69036865234375 C 147.6181640625 256.0900573730469 171.07681274414062 247.89794921875 171.53675842285156 276.1294250488281 C 169.54443359375 300.1278076171875 188.3597412109375 287.8316955566406 176.27789306640625 273.27899169921875 C 163.80783081054688 290.0059814453125 152.9923553466797 311.3229064941406 133.54336547851562 287.30999755859375 C 157.9451141357422 278.9789123535156 167.9521942138672 295.3018798828125 187.47996520996094 305.6697998046875 C 179.16122436523438 307.540771484375 199.4925994873047 303.1344299316406 175.15164184570312 284.6568603515625" stroke-width="6.0" fill="none" stroke="rgb(0, 0, 0)" stroke-opacity="1.0" stroke-linecap="round" stroke-linejoin="round"/>
    <path d="M 375.9207458496094 180.48216247558594 C 389.39178466796875 188.9785614013672 369.4654235839844 159.16343688964844 338.0462341308594 166.2261962890625 C 332.80181884765625 184.0452880859375 310.4895935058594 177.3531494140625 318.9011535644531 203.83975219726562 C 321.6318054199219 203.2736358642578 346.131103515625 191.2329559326172 373.0139465332031 204.36300659179688 C 360.2938537597656 198.65878295898438 358.75146484375 191.12051391601562 374.3013610839844 201.4083709716797 C 411.035888671875 209.8297119140625 414.01800537109375 186.48178100585938 394.43841552734375 176.3245391845703" stroke-width="6.0" fill="none" stroke="rgb(0, 0, 0)" stroke-opacity="1.0" stroke-linecap="round" stroke-linejoin="round"/>
    <path d="M 55.348567962646484 270.2008056640625 C 73.59904479980469 257.39422607421875 87.0428466796875 263.2664489746094 105.1107406616211 253.2649688720703 C 144.95718383789062 258.10943603515625 142.3316650390625 270.55316162109375 131.96080017089844 273.06988525390625 C 140.8715362548828 290.7333068847656 150.2686309814453 321.2577209472656 128.33248901367188 338.14788818359375 C 141.5154571533203 317.0862121582031 159.958740234375 330.25360107421875 144.6726531982422 318.7269287109375 C 130.86647033691406 316.7541198730469 124.90435791015625 293.5054931640625 116.89701843261719 279.2669677734375" stroke-width="6.0" fill="none" stroke="rgb(0, 0, 0)" stroke-opacity="1.0" stroke-linecap="round" stroke-linejoin="round"/>
    <path d="M 487.2679138183594 130.92449951171875 C 516.0308837890625 118.64612579345703 538.6326904296875 133.70468139648438 523.22900390625 156.9893798828125 C 533.8612060546875 163.07704162597656 521.7407836914062 153.06016540527344 516.4943237304688 173.70033264160156 C 532.0091552734375 174.30917358398438 504.8918151855469 173.17491149902344 498.38055419921875 164.5811309814453 C 522.7168579101562 173.25860595703125 511.1552734375 187.59083557128906 525.3766479492188 206.0840301513672 C 535.8018798828125 202.52420043945312 533.5524291992188 194.14353942871094 509.71466064453125 202.82302856445312" stroke-width="6.0" fill="none" stroke="rgb(0, 0, 0)" stroke-opacity="1.0" stroke-linecap="round" stroke-linejoin="round"/>
    <path d="M 335.8226318359375 254.16940307617188 C 337.6677551269531 256.0085754394531 335.09149169921875 236.23233032226562 345.9730529785156 228.88661193847656 C 372.3296813964844 234.70118713378906 393.115966796875 247.54721069335938 374.1757507324219 230.33737182617188 C 396.9656982421875 248.5924530029297 420.7886047363281 246.6732940673828 413.0694580078125 260.3139953613281 C 393.80584716796875 267.0700378417969 396.75445556640625 261.2124938964844 416.2054443359375 261.84527587890625 C 410.16912841796875 236.0056610107422 381.456298828125 237.32095336914062 396.7219543457031 262.453369140625" stroke-width="6.0" fill="none" stroke="rgb(0, 0, 0)" stroke-opacity="1.0" stroke-linecap="round" stroke-linejoin="round"/>
    <path d="M 53.71738815307617 569.10009765625 C 40.21946334838867 577.7123413085938 11.72301959991455 561.51025390625 -10.326888084411621 569.4859619140625 C 18.593217849731445 575.9849853515625 -0.90450119972229 601.25927734375 -14.70661449432373 630.8590087890625 C -22.66428565979004 624.9976806640625 -7.536334991455078 616.0176391601562 10.974089622497559 608.4609985351562 C -11.532224655151367 627.7420654296875 -5.474664688110352 601.7399291992188 -13.899670600891113 611.299560546875 C -38.93313980102539 620.6864624023438 -55.733089447021484 600.1473388671875 -38.87107467651367 595.3907470703125" stroke-width="6.0" fill="none" stroke="rgb(0, 0, 0)" stroke-opacity="1.0" stroke-linecap="round" stroke-linejoin="round"/>
    <path d="M 82.62434387207031 201.08209228515625 C 99.25651550292969 171.4545440673828 90.36186981201172 154.58636474609375 70.86712646484375 162.43743896484375 C 73.83390045166016 126.52665710449219 75.8333740234375 135.3716583251953 80.35757446289062 117.45250701904297 C 55.78258514404297 101.10182189941406 82.8834457397461 106.21682739257812 78.29370880126953 124.44585418701172 C 100.74606323242188 155.77346801757812 87.699951171875 189.38754272460938 82.46685791015625 205.94796752929688 C 90.40007019042969 179.44529724121094 103.42076873779297 212.5243377685547 82.52067565917969 194.55491638183594" stroke-width="6.0" fill="none" stroke="rgb(0, 0, 0)" stroke-opacity="1.0" stroke-linecap="round" stroke-linejoin="round"/>
    <path d="M 26.111268997192383 32.030906677246094 C 27.05397605895996 61.10345458984375 30.208663940429688 82.03148651123047 5.750152587890625 82.57239532470703 C -14.025580406188965 107.5950698852539 14.765666961669922 85.60618591308594 20.06168556213379 76.7508773803711 C 13.561528205871582 91.83260345458984 9.367415428161621 108.75765228271484 -12.067965507507324 130.9486083984375 C 7.590946197509766 144.69100952148438 -19.70217514038086 127.1440658569336 -19.384323120117188 125.2762222290039 C -6.07545804977417 113.4457015991211 30.895612716674805 108.29708099365234 6.528201580047607 91.40757751464844" stroke-width="6.0" fill="none" stroke="rgb(0, 0, 0)" stroke-opacity="1.0" stroke-linecap="round" stroke-linejoin="round"/>
    <path d="M 42.10831832885742 72.24402618408203 C 17.198198318481445 67.70379638671875 3.2742762565612793 85.44149780273438 21.375621795654297 83.93864440917969 C 10.61191177368164 77.13570404052734 37.474029541015625 73.9251937866211 56.907718658447266 73.12753295898438 C 54.783241271972656 88.32662963867188 29.18557357788086 107.11083984375 42.3129997253418 96.20304107666016 C 50.73808288574219 89.42201232910156 72.61431121826172 99.51226043701172 87.38455200195312 90.2724609375 C 98.26155853271484 63.536190032958984 102.12003326416016 51.10188293457031 117.40957641601562 65.76932525634766" stroke-width="6.0" fill="none" stroke="rgb(0, 0, 0)" stroke-opacity="1.0" stroke-linecap="round" stroke-linejoin="round"/>
    <path d="M 69.82156372070312 407.3238220214844 C 51.58296585083008 395.7040710449219 76.8948745727539 373.33447265625 91.25853729248047 358.3891906738281 C 98.09561157226562 353.10113525390625 130.2817840576172 356.889892578125 97.71977996826172 353.6676940917969 C 70.79457092285156 337.5694274902344 80.07144165039062 340.0139465332031 89.08915710449219 320.1073913574219 C 82.52326202392578 336.0991516113281 99.85015869140625 350.76849365234375 84.3224868774414 366.8658142089844 C 54.614654541015625 384.5398864746094 73.01922607421875 400.6118469238281 62.467838287353516 410.0111083984375" stroke-width="6.0" fill="none" stroke="rgb(0, 0, 0)" stroke-opacity="1.0" stroke-linecap="round" stroke-linejoin="round"/>
    <path d="M 306.1139221191406 436.7049865722656 C 341.2720947265625 434.2148742675781 323.3147277832031 461.2664489746094 350.0250549316406 481.059814453125 C 323.2771301269531 463.3205261230469 295.2134094238281 462.2610778808594 272.4208984375 458.0547790527344 C 299.4630432128906 470.8315734863281 279.37347412109375 465.3636169433594 270.6976013183594 456.27679443359375 C 236.4443817138672 455.84600830078125 253.6373291015625 438.5505676269531 279.2120666503906 443.2019348144531 C 308.43243408203125 401.0895690917969 296.7008361816406 382.2839660644531 258.359619140625 387.0137023925781" stroke-width="6.0" fill="none" stroke="rgb(0, 0, 0)" stroke-opacity="1.0" stroke-linecap="round" stroke-linejoin="round"/>
    <path d="M 34.77122116088867 115.14176177978516 C 55.88894271850586 102.32818603515625 58.956871032714844 119.38151550292969 84.73612213134766 112.51092529296875 C 106.74134063720703 113.36988830566406 123.80028533935547 79.20762634277344 135.03244018554688 54.149383544921875 C 149.84669494628906 59.97732162475586 170.1476287841797 44.28183364868164 158.73236083984375 72.02030944824219 C 164.1315155029297 38.04594802856445 165.2073516845703 47.80539321899414 134.3454132080078 65.34412384033203 C 152.44699096679688 45.44172286987305 177.28836059570312 55.256019592285156 206.63629150390625 63.75014114379883" stroke-width="6.0" fill="none" stroke="rgb(0, 0, 0)" stroke-opacity="1.0" stroke-linecap="round" stroke-linejoin="round"/>
    <path d="M 392.24896240234375 376.55450439453125 C 364.8133544921875 369.5572814941406 383.9817199707031 403.859619140625 352.75592041015625 387.4486083984375 C 365.0012512207031 408.40576171875 358.3345947265625 404.1911315917969 345.5647888183594 395.3924865722656 C 318.28790283203125 404.4408874511719 328.1767272949219 390.9021911621094 305.4687805175781 396.8536376953125 C 302.8463439941406 365.943115234375 300.83721923828125 374.2635803222656 273.0443420410156 372.6650085449219 C 269.7294921875 376.8300476074219 252.59022521972656 359.3013916015625 229.55877685546875 368.67059326171875" stroke-width="6.0" fill="none" stroke="rgb(0, 0, 0)" stroke-opacity="1.0" stroke-linecap="round" stroke-linejoin="round"/>
    <path d="M 175.32911682128906 589.5274658203125 C 143.20278930664062 584.7686157226562 115.95184326171875 570.0490112304688 88.2282943725586 572.0528564453125 C 112.4065933227539 549.42138671875 145.36363220214844 537.7323608398438 176.01771545410156 545.1990966796875 C 161.66555786132812 550.6290893554688 167.6184844970703 571.4892578125 154.37208557128906 577.4793701171875 C 167.9298553466797 561.4005126953125 181.3044891357422 567.7935180664062 161.82566833496094 561.0205688476562 C 193.90914916992188 539.083251953125 177.96226501464844 535.6339111328125 156.11395263671875 526.3358764648438" stroke-width="6.0" fill="none" stroke="rgb(0, 0, 0)" stroke-opacity="1.0" stroke-linecap="round" stroke-linejoin="round"/>
    <path d="M 41.30887985229492 560.7606201171875 C 21.448265075683594 540.8809814453125 48.31687927246094 528.7423706054688 22.996875762939453 553.07275390625 C 17.053064346313477 545.6585083007812 24.171964645385742 549.6405029296875 46.85791015625 533.8809814453125 C 68.89901733398438 550.2200927734375 48.820369720458984 540.5127563476562 57.778900146484375 569.7156982421875 C 71.9640884399414 550.9025268554688 89.53964233398438 559.1827392578125 62.93844223022461 581.0517578125 C 54.20476150512695 589.8851928710938 45.87713623046875 619.9083251953125 53.38553237915039 604.9331665039062" stroke-width="6.0" fill="none" stroke="rgb(0, 0, 0)" stroke-opacity="1.0" stroke-linecap="round" stroke-linejoin="round"/>
    <path d="M 17.421560287475586 27.75255584716797 C 13.871841430664062 18.439104080200195 40.638179779052734 48.3878288269043 68.2181167602539 21.89583969116211 C 88.07681274414062 1.2643897533416748 64.55343627929688 -21.212360382080078 86.30435180664062 -13.427847862243652 C 109.54444885253906 -34.75437927246094 114.29613494873047 -22.027652740478516 88.12042236328125 -6.9833574295043945 C 69.9663314819336 -6.17759895324707 60.01103973388672 -23.599224090576172 47.06814956665039 -5.801621913909912 C 44.4532585144043 -34.059356689453125 21.662710189819336 -11.41572093963623 45.67131042480469 -3.1166067123413086" stroke-width="6.0" fill="none" stroke="rgb(0, 0, 0)" stroke-opacity="1.0" stroke-linecap="round" stroke-linejoin="round"/>
    <path d="M 416.617919921875 390.2464904785156 C 411.21405029296875 358.19622802734375 404.488037109375 337.7512512207031 403.6009826660156 308.2803649902344 C 402.3035583496094 333.6615905761719 419.09210205078125 357.21392822265625 396.30560302734375 351.93792724609375 C 382.29412841796875 340.8714599609375 364.9250793457031 349.8418884277344 378.9000244140625 310.25372314453125 C 375.6650695800781 291.4736633300781 398.18212890625 265.3664245605469 428.19451904296875 245.7692108154297 C 452.13641357421875 279.9970397949219 458.4682922363281 296.2983093261719 482.3332214355469 334.12335205078125" stroke-width="6.0" fill="none" stroke="rgb(0, 0, 0)" stroke-opacity="1.0" stroke-linecap="round" stroke-linejoin="round"/>
    <path d="M 527.7216796875 80.12699890136719 C 545.2335205078125 69.98257446289062 571.98583984375 71.91094207763672 576.0838623046875 89.33331298828125 C 592.8324584960938 96.30542755126953 575.7432861328125 90.0242919921875 570.4299926757812 92.14105987548828 C 605.276611328125 90.39698028564453 576.7772827148438 117.63546752929688 569.8883666992188 146.74082946777344 C 576.4679565429688 166.2778778076172 585.0143432617188 168.5587158203125 596.6624145507812 148.81407165527344 C 602.18505859375 186.0778350830078 588.0308227539062 209.0492706298828 608.0552368164062 206.68572998046875" stroke-width="6.0" fill="none" stroke="rgb(0, 0, 0)" stroke-opacity="1.0" stroke-linecap="round" stroke-linejoin="round"/>
    <path d="M 360.4918518066406 484.4134216308594 C 360.1226501464844 465.33843994140625 376.54656982421875 465.3312072753906 380.2267761230469 450.615234375 C 377.2129211425781 437.5446472167969 384.1938171386719 426.9700012207031 384.2049865722656 464.3693542480469 C 419.20416259765625 473.8447265625 435.6641845703125 475.0577392578125 400.77850341796875 518.8035278320312 C 398.21917724609375 484.7831115722656 434.59307861328125 497.61297607421875 406.0682373046875 499.08013916015625 C 411.2021179199219 521.1237182617188 404.6485290527344 491.98211669921875 384.6914978027344 509.5703430175781" stroke-width="6.0" fill="none" stroke="rgb(0, 0, 0)" stroke-opacity="1.0" stroke-linecap="round" stroke-linejoin="round"/>
    <path d="M 400.43450927734375 321.3830261230469 C 376.5965576171875 316.6825256347656 373.00518798828125 299.20751953125 375.3231201171875 319.9281921386719 C 385.45751953125 350.6336975097656 384.0135498046875 355.70867919921875 387.5514831542969 367.8539123535156 C 395.7509460449219 393.3976745605469 425.9653015136719 407.92413330078125 450.5497741699219 392.28399658203125 C 478.02886962890625 372.6089782714844 482.0572814941406 394.1058349609375 512.3137817382812 367.83367919921875 C 476.8674011230469 359.0076904296875 509.04803466796875 337.5045471191406 519.98876953125 361.4596252441406" stroke-width="6.0" fill="none" stroke="rgb(0, 0, 0)" stroke-opacity="1.0" stroke-linecap="round" stroke-linejoin="round"/>
    <path d="M 17.32929039001465 231.9608154296875 C 15.036070823669434 231.71885681152344 33.586910247802734 225.84677124023438 46.80946350097656 227.1980438232422 C 51.238609313964844 244.2037811279297 84.63274383544922 227.5443572998047 94.40503692626953 219.28338623046875 C 86.77034759521484 217.24928283691406 105.20065307617188 224.99960327148438 92.86016082763672 251.4492950439453 C 91.59317779541016 266.2776184082031 69.09797668457031 270.9586486816406 82.53217315673828 261.6531982421875 C 103.60769653320312 261.7458190917969 103.13021850585938 290.82098388671875 112.93846893310547 324.3157043457031" stroke-width="6.0" fill="none" stroke="rgb(0, 0, 0)" stroke-opacity="1.0" stroke-linecap="round" stroke-linejoin="round"/>
    <path d="M 597.1693725585938 599.4848022460938 C 596.5549926757812 581.8690795898438 609.5596313476562 581.6235961914062 633.8716430664062 579.5291748046875 C 617.2886352539062 569.407958984375 634.261962890625 564.4338989257812 614.4579467773438 563.34326171875 C 588.8560180664062 555.1564331054688 559.7693481445312 540.278076171875 574.1326904296875 552.7616577148438 C 564.450439453125 564.9035034179688 564.845947265625 542.4963989257812 572.5089721679688 553.89990234375 C 582.8782958984375 558.6253051757812 570.1041870117188 540.7107543945312 557.39208984375 562.8749389648438" stroke-width="6.0" fill="none" stroke="rgb(0, 0, 0)" stroke-opacity="1.0" stroke-linecap="round" stroke-linejoin="round"/>
    <path d="M 151.69447326660156 237.26004028320312 C 157.9064483642578 273.7787170410156 140.17698669433594 300.570556640625 170.97381591796875 299.4346618652344 C 137.05599975585938 308.1927185058594 152.96316528320312 283.0919189453125 152.35800170898438 271.3984069824219 C 153.34620666503906 257.880126953125 163.24960327148438 262.6761169433594 171.9871826171875 247.29066467285156 C 176.79373168945312 266.6837463378906 168.0515594482422 256.9480285644531 144.51145935058594 258.9611511230469 C 149.37657165527344 236.9920196533203 173.3337860107422 232.9736785888672 170.47727966308594 199.37533569335938" stroke-width="6.0" fill="none" stroke="rgb(0, 0, 0)" stroke-opacity="1.0" stroke-linecap="round" stroke-linejoin="round"/>
    <path d="M 95.00871276855469 231.97158813476562 C 102.19490814208984 233.98326110839844 89.08267974853516 246.6897430419922 108.59244537353516 253.9315948486328 C 90.6733627319336 258.8248291015625 87.07283020019531 259.8053283691406 75.53821563720703 274.4851989746094 C 64.78038024902344 273.5538635253906 85.80508422851562 262.46539306640625 91.63522338867188 254.0467987060547 C 100.34746551513672 237.5940399169922 93.1292953491211 213.9536590576172 88.16170501708984 202.38893127441406 C 90.7365951538086 216.81471252441406 122.83139038085938 210.0516815185547 154.21994018554688 211.71128845214844" stroke-width="6.0" fill="none" stroke="rgb(0, 0, 0)" stroke-opacity="1.0" stroke-linecap="round" stroke-linejoin="round"/>
    <path d="M 575.6673583984375 302.4214172363281 C 574.939453125 303.1880798339844 580.2276000976562 299.3045959472656 585.5985107421875 279.6191711425781 C 565.6041870117188 258.75592041015625 576.888671875 281.3227233886719 564.7430419921875 294.28265380859375 C 537.1806030273438 316.4600830078125 511.52557373046875 338.2212219238281 519.3103637695312 331.2995910644531 C 507.1186828613281 315.46270751953125 485.9103698730469 329.4619445800781 463.7931213378906 340.3793640136719 C 468.42620849609375 346.0195007324219 455.26641845703125 318.64227294921875 449.9775390625 312.6624755859375" stroke-width="6.0" fill="none" stroke="rgb(0, 0, 0)" stroke-opacity="1.0" stroke-linecap="round" stroke-linejoin="round"/>
    <path d="M 421.60546875 60.035133361816406 C 445.855224609375 52.44612121582031 454.49932861328125 53.592063903808594 463.415283203125 40.07052230834961 C 466.81451416015625 13.735944747924805 484.2473449707031 -5.506313323974609 482.4339294433594 22.978673934936523 C 504.48504638671875 32.774635314941406 498.76300048828125 32.19686508178711 499.98541259765625 51.361351013183594 C 493.3349914550781 67.54875183105469 505.75634765625 66.8500747680664 503.7809753417969 78.5092544555664 C 479.5667724609375 67.25334167480469 497.7328796386719 69.53036499023438 503.0236511230469 47.5321044921875" stroke-width="6.0" fill="none" stroke="rgb(0, 0, 0)" stroke-opacity="1.0" stroke-linecap="round" stroke-linejoin="round"/>
    <path d="M 317.5122375488281 320.8185729980469 C 290.8931884765625 324.4364318847656 252.6758270263672 337.1642761230469 288.0093078613281 320.3122253417969 C 298.98956298828125 293.0136413574219 292.1205749511719 304.9815368652344 318.9155578613281 280.9028625488281 C 323.76800537109375 252.22113037109375 311.34722900390625 225.69383239746094 295.75872802734375 210.09010314941406 C 277.6488037109375 232.12155151367188 296.75677490234375 248.0048370361328 308.8969421386719 220.4684600830078 C 274.3926086425781 216.5745849609375 266.2864685058594 197.33184814453125 283.4555969238281 207.6389923095703" stroke-width="6.0" fill="none" stroke="rgb(0, 0, 0)" stroke-opacity="1.0" stroke-linecap="round" stroke-linejoin="round"/>
    <path d="M 399.71771240234375 263.25390625 C 389.4672546386719 280.6884460449219 392.2227478027344 295.53912353515625 366.04644775390625 280.8599853515625 C 387.7749328613281 280.0920104980469 414.1351318359375 297.0604248046875 438.63720703125 292.0097351074219 C 416.2239685058594 285.7101135253906 425.4555358886719 288.0909423828125 449.1257019042969 288.998291015625 C 435.9131164550781 283.0854187011719 407.8780822753906 277.89117431640625 433.1739196777344 282.5085754394531 C 415.3586120605469 295.48492431640625 397.6151123046875 300.4479064941406 390.8805236816406 287.226806640625" stroke-width="6.0" fill="none" stroke="rgb(0, 0, 0)" stroke-opacity="1.0" stroke-linecap="round" stroke-linejoin="round"/>
    <path d="M 21.487272262573242 439.0504455566406 C 20.27280044555664 441.6456604003906 33.47650146484375 421.8222351074219 11.623856544494629 399.0240173339844 C 27.03824806213379 401.9558410644531 42.70597457885742 371.0913391113281 28.0156307220459 369.14093017578125 C 13.946578979492188 364.94378662109375 20.598514556884766 374.43115234375 10.409189224243164 373.15289306640625 C 26.638248443603516 360.8936462402344 33.64548110961914 383.864990234375 59.011314392089844 366.9847106933594 C 104.66349792480469 370.52691650390625 123.74735260009766 394.5684814453125 104.86653137207031 420.96954345703125" stroke-width="6.0" fill="none" stroke="rgb(0, 0, 0)" stroke-opacity="1.0" stroke-linecap="round" stroke-linejoin="round"/>
    <path d="M 572.4285888671875 204.77748107910156 C 597.9599609375 192.88461303710938 605.677001953125 174.35267639160156 585.8768310546875 170.0214080810547 C 612.0757446289062 145.4210968017578 623.4472045898438 167.1574249267578 604.3973388671875 144.72653198242188 C 578.7855224609375 155.04893493652344 582.7920532226562 171.37588500976562 560.3604125976562 171.57484436035156 C 579.3228759765625 183.44085693359375 562.140625 211.13214111328125 540.8358154296875 203.7530975341797 C 549.1030883789062 215.27645874023438 534.287353515625 231.69110107421875 556.806396484375 232.01779174804688" stroke-width="6.0" fill="none" stroke="rgb(0, 0, 0)" stroke-opacity="1.0" stroke-linecap="round" stroke-linejoin="round"/>
    <path d="M 47.03953170776367 532.8243408203125 C 48.45165252685547 546.5789794921875 36.440433502197266 542.7598876953125 49.81670379638672 527.3111572265625 C 61.207096099853516 544.5062255859375 42.65043258666992 539.2467041015625 38.88751983642578 540.6198120117188 C 66.43415069580078 524.88671875 45.88190841674805 539.0881958007812 38.131256103515625 540.3841552734375 C 30.765377044677734 549.141845703125 43.03159713745117 557.3193969726562 29.268795013427734 577.7700805664062 C 7.3459391593933105 566.703369140625 -8.576545715332031 571.7052612304688 0.9971787333488464 588.9913330078125" stroke-width="6.0" fill="none" stroke="rgb(0, 0, 0)" stroke-opacity="1.0" stroke-linecap="round" stroke-linejoin="round"/>
    <path d="M 301.0120849609375 435.8603515625 C 310.064208984375 458.4042053222656 339.1371154785156 443.18951416015625 311.7359313964844 442.808349609375 C 333.65093994140625 420.5721435546875 354.1802673339844 421.6197204589844 325.2628173828125 428.68035888671875 C 330.657958984375 449.4354553222656 335.3762512207031 455.10418701171875 372.7015686035156 451.8828430175781 C 380.10162353515625 437.93060302734375 415.9147033691406 444.7894287109375 413.4943542480469 438.2493896484375 C 427.4974670410156 435.24224853515625 420.5429992675781 444.0423583984375 403.84967041015625 450.341552734375" stroke-width="6.0" fill="none" stroke="rgb(0, 0, 0)" stroke-opacity="1.0" stroke-linecap="round" stroke-linejoin="round"/>
    <path d="M 373.29254150390625 442.5152893066406 C 381.0158386230469 426.8600769042969 371.435791015625 390.72271728515625 379.04559326171875 381.39532470703125 C 371.416015625 361.5312194824219 378.7897033691406 341.382568359375 381.46234130859375 307.5995788574219 C 372.62762451171875 306.2447814941406 378.5530090332031 284.3270263671875 377.63055419921875 259.4350891113281 C 375.5333251953125 266.6336975097656 405.8128356933594 260.3311462402344 387.84259033203125 254.08306884765625 C 406.3090515136719 230.9774169921875 394.56610107421875 245.0001678466797 391.6846618652344 226.03076171875" stroke-width="6.0" fill="none" stroke="rgb(0, 0, 0)" stroke-opacity="1.0" stroke-linecap="round" stroke-linejoin="round"/>
    <path d="M 351.5171203613281 270.1627197265625 C 322.1123352050781 258.1317443847656 312.7560119628906 237.83370971679688 320.38995361328125 260.6727294921875 C 335.1297607421875 252.7764129638672 308.8083801269531 263.104248046875 341.1678161621094 255.1852569580078 C 318.0845947265625 248.91236877441406 318.78472900390625 281.0461120605469 314.6074523925781 281.2777404785156 C 325.76800537109375 297.06597900390625 313.76007080078125 315.4369812011719 269.0910949707031 297.5911560058594 C 267.1065673828125 316.2216796875 238.63279724121094 309.2159729003906 259.7056579589844 303.6746520996094" stroke-width="6.0" fill="none" stroke="rgb(0, 0, 0)" stroke-opacity="1.0" stroke-linecap="round" stroke-linejoin="round"/>
    <path d="M 151.25033569335938 113.22650909423828 C 158.36009216308594 137.70635986328125 157.9483642578125 116.08524322509766 154.9178466796875 133.31822204589844 C 185.80874633789062 137.6287841796875 204.54534912109375 121.80615997314453 165.4175262451172 110.81393432617188 C 182.36656188964844 83.90354919433594 174.3726043701172 112.15989685058594 150.4151611328125 113.04434967041016 C 165.60986328125 144.7366943359375 147.15252685546875 167.5867462158203 127.68672180175781 182.78854370117188 C 149.4773406982422 167.12069702148438 124.06417083740234 145.95118713378906 113.21771240234375 110.20426177978516" stroke-width="6.0" fill="none" stroke="rgb(0, 0, 0)" stroke-opacity="1.0" stroke-linecap="round" stroke-linejoin="round"/>
    <path d="M 526.6460571289062 361.5227355957031 C 504.7286682128906 379.13092041015625 484.0119934082031 368.3375549316406 488.49969482421875 344.3476867675781 C 482.7935791015625 363.1375732421875 508.2816162109375 351.5821533203125 463.6701965332031 356.70001220703125 C 470.5953674316406 361.69427490234375 479.2206726074219 381.61932373046875 460.78289794921875 394.5398254394531 C 491.5862121582031 423.9912109375 463.07928466796875 458.18756103515625 422.4990234375 437.4058532714844 C 457.7788391113281 437.0595703125 481.9768371582031 428.2652893066406 507.5195007324219 441.4311828613281" stroke-width="6.0" fill="none" stroke="rgb(0, 0, 0)" stroke-opacity="1.0" stroke-linecap="round" stroke-linejoin="round"/>
    <path d="M 303.1851806640625 15.513227462768555 C 322.45098876953125 -1.510716199874878 303.27752685546875 -11.714180946350098 285.98974609375 -21.245670318603516 C 245.37359619140625 -35.83694076538086 268.02923583984375 -10.072965621948242 253.55935668945312 2.350217580795288 C 267.9353942871094 21.297014236450195 246.0368194580078 40.20926284790039 219.78048706054688 12.550296783447266 C 227.16299438476562 16.97456169128418 252.6622772216797 44.450401306152344 237.74928283691406 58.815895080566406 C 252.37155151367188 66.13218688964844 264.3736877441406 63.47331619262695 261.0758361816406 43.38865661621094" stroke-width="6.0" fill="none" stroke="rgb(0, 0, 0)" stroke-opacity="1.0" stroke-linecap="round" stroke-linejoin="round"/>
    <path d="M 344.4549255371094 562.19580078125 C 328.5020751953125 575.15673828125 325.3279113769531 571.6026611328125 309.3984069824219 574.9099731445312 C 345.012939453125 563.742919921875 344.14251708984375 542.2807006835938 362.0311279296875 555.1470947265625 C 391.8568420410156 553.930908203125 371.94256591796875 533.7035522460938 339.0169982910156 526.3596801757812 C 329.2645263671875 500.7727966308594 308.00592041015625 490.7858581542969 314.9360656738281 499.72161865234375 C 350.9918518066406 506.46087646484375 360.48388671875 492.908935546875 329.9555358886719 453.3002014160156" stroke-width="6.0" fill="none" stroke="rgb(0, 0, 0)" stroke-opacity="1.0" stroke-linecap="round" stroke-linejoin="round"/>
    <path d="M 237.05487060546875 547.523193359375 C 235.35357666015625 558.5736083984375 260.60333251953125 538.2774047851562 255.2537841796875 526.0315551757812 C 253.89907836914062 509.7806091308594 252.75877380371094 480.31695556640625 254.18548583984375 453.5471496582031 C 267.0466613769531 441.08685302734375 277.4426574707031 465.12109375 281.1159362792969 463.3944396972656 C 297.45733642578125 438.01885986328125 287.15618896484375 399.3232116699219 304.2426452636719 387.68341064453125 C 338.4485778808594 408.9095458984375 337.31707763671875 393.937744140625 333.97613525390625 369.5907287597656" stroke-width="6.0" fill="none" stroke="rgb(0, 0, 0)" stroke-opacity="1.0" stroke-linecap="round" stroke-linejoin="round"/>
    <path d="M 489.6143798828125 505.59466552734375 C 509.7816467285156 511.6075744628906 495.3488464355469 530.9392700195312 517.7666625976562 546.1869506835938 C 494.5812683105469 569.80712890625 514.2808837890625 565.7410888671875 511.8259582519531 546.3787841796875 C 500.63031005859375 525.776611328125 496.3294677734375 519.6605834960938 507.9185791015625 511.4312744140625 C 474.3450012207031 506.3642578125 484.1788635253906 489.22845458984375 502.0995788574219 475.5096435546875 C 504.5635986328125 475.98638916015625 486.69921875 486.09576416015625 511.977294921875 476.77978515625" stroke-width="6.0" fill="none" stroke="rgb(0, 0, 0)" stroke-opacity="1.0" stroke-linecap="round" stroke-linejoin="round"/>
    <path d="M 114.64138793945312 81.69617462158203 C 126.42461395263672 65.12592315673828 106.65599822998047 48.950233459472656 88.6099853515625 77.36793518066406 C 63.158668518066406 69.81719970703125 60.377071380615234 74.14532470703125 83.09546661376953 76.30867767333984 C 98.051025390625 64.56746673583984 125.51971435546875 51.89524841308594 146.78421020507812 59.54254150390625 C 124.5035171508789 68.39403533935547 122.4591064453125 84.25739288330078 114.48109436035156 60.84986877441406 C 85.41404724121094 64.81287384033203 112.62281799316406 62.622589111328125 99.54061889648438 76.679443359375" stroke-width="6.0" fill="none" stroke="rgb(0, 0, 0)" stroke-opacity="1.0" stroke-linecap="round" stroke-linejoin="round"/>
    <path d="M 49.74699401855469 189.44471740722656 C 85.32259368896484 192.3271484375 104.5832748413086 204.59228515625 88.56800842285156 203.77259826660156 C 100.48161315917969 229.9347686767578 101.1154556274414 255.03419494628906 72.3309555053711 276.85089111328125 C 97.07461547851562 252.49691772460938 99.4440689086914 254.9304962158203 83.2221908569336 258.50091552734375 C 79.00582885742188 249.4310302734375 59.498226165771484 274.52984619140625 48.50377655029297 275.72393798828125 C 28.74539566040039 259.2415771484375 15.346156120300293 267.1026611328125 -5.4365997314453125 277.8956298828125" stroke-width="6.0" fill="none" stroke="rgb(0, 0, 0)" stroke-opacity="1.0" stroke-linecap="round" stroke-linejoin="round"/>
    <path d="M 223.1764678955078 260.9465026855469 C 218.5946044921875 231.35647583007812 237.78013610839844 250.134765625 266.7833557128906 249.58128356933594 C 309.807861328125 261.5682678222656 335.18206787109375 243.74131774902344 334.9042053222656 265.8697204589844 C 330.2005310058594 274.6846618652344 336.12591552734375 286.7117004394531 330.4726867675781 290.4212646484375 C 301.0630187988281 279.8449401855469 301.5353698730469 292.8338623046875 315.2313537597656 284.5491638183594 C 287.4312438964844 288.4709777832031 304.88848876953125 309.337890625 314.70343017578125 302.1036682128906" stroke-width="6.0" fill="none" stroke="rgb(0, 0, 0)" stroke-opacity="1.0" stroke-linecap="round" stroke-linejoin="round"/>
    <path d="M 418.1932678222656 112.71880340576172 C 444.6485290527344 118.6649398803711 468.8840026855469 92.80398559570312 498.8515319824219 59.55720138549805 C 495.8437805175781 53.54814910888672 510.542724609375 87.33381652832031 508.0026550292969 118.9406509399414 C 506.602783203125 103.7438735961914 484.20013427734375 115.24343872070312 509.9892578125 116.65560913085938 C 508.1565856933594 117.27925109863281 533.4862060546875 103.5672378540039 544.8858032226562 129.6075439453125 C 553.4037475585938 130.89825439453125 547.5110473632812 127.50341033935547 536.04931640625 127.23329162597656" stroke-width="6.0" fill="none" stroke="rgb(0, 0, 0)" stroke-opacity="1.0" stroke-linecap="round" stroke-linejoin="round"/>
    <path d="M 240.33583068847656 434.5171203613281 C 224.1942596435547 433.5013122558594 223.853759765625 420.5149841308594 210.56202697753906 391.7204895019531 C 225.36305236816406 365.3034973144531 239.5128936767578 367.354248046875 232.54638671875 368.3952331542969 C 201.4462890625 354.70318603515625 196.07191467285156 360.6578063964844 185.13510131835938 355.23199462890625 C 204.0526123046875 391.53900146484375 188.4289093017578 414.20843505859375 154.44290161132812 424.3755798339844 C 168.54629516601562 407.3726501464844 152.7021026611328 432.5327453613281 120.21697235107422 409.0843200683594" stroke-width="6.0" fill="none" stroke="rgb(0, 0, 0)" stroke-opacity="1.0" stroke-linecap="round" stroke-linejoin="round"/>
    <path d="M 580.6990966796875 505.72271728515625 C 549.7219848632812 493.2626037597656 577.5100708007812 474.27490234375 613.6597290039062 458.9505310058594 C 597.5021362304688 430.7333679199219 570.3111572265625 412.8963317871094 553.6907348632812 437.8736572265625 C 532.3448486328125 431.5064697265625 530.4242553710938 422.426513671875 503.9692687988281 444.0072326660156 C 483.63824462890625 480.0269470214844 468.8256530761719 453.0704345703125 465.90557861328125 455.9222717285156 C 451.6383056640625 429.5255432128906 460.1368103027344 442.51519775390625 466.58990478515625 458.4327392578125" stroke-width="6.0" fill="none" stroke="rgb(0, 0, 0)" stroke-opacity="1.0" stroke-linecap="round" stroke-linejoin="round"/>
    <path d="M 91.57646179199219 55.20665740966797 C 81.42460632324219 72.12751007080078 99.84185028076172 97.61415100097656 82.57682037353516 114.67092895507812 C 99.7515869140625 109.24930572509766 109.1636962890625 126.65699005126953 109.90801239013672 115.50557708740234 C 112.51158142089844 98.6923828125 129.1962432861328 131.02389526367188 121.56901550292969 100.6153793334961 C 113.87743377685547 66.3622817993164 95.048828125 68.409423828125 104.4979019165039 104.89154052734375 C 92.58859252929688 109.08879089355469 76.42720031738281 129.76263427734375 93.483642578125 163.73048400878906" stroke-width="6.0" fill="none" stroke="rgb(0, 0, 0)" stroke-opacity="1.0" stroke-linecap="round" stroke-linejoin="round"/>
    <path d="M 323.50726318359375 199.0713653564453 C 322.08209228515625 197.26837158203125 324.138916015625 211.45729064941406 316.6757507324219 193.28656005859375 C 324.7867126464844 168.03976440429688 296.56549072265625 187.55126953125 253.58212280273438 174.38597106933594 C 251.2981719970703 183.3968963623047 258.8009338378906 208.94760131835938 254.2950897216797 217.93870544433594 C 252.49407958984375 204.11215209960938 250.02964782714844 210.42523193359375 227.92120361328125 204.52694702148438 C 244.68763732910156 186.0071563720703 231.80368041992188 183.80091857910156 219.44041442871094 175.99864196777344" stroke-width="6.0" fill="none" stroke="rgb(0, 0, 0)" stroke-opacity="1.0" stroke-linecap="round" stroke-linejoin="round"/>
    <path d="M 21.86961555480957 412.6900329589844 C 9.127568244934082 402.05938720703125 -10.156900405883789 412.5651550292969 7.0443196296691895 405.85498046875 C 34.454505920410156 388.3985290527344 39.079505920410156 363.9546203613281 44.99332046508789 387.4034118652344 C 51.53370666503906 377.05157470703125 26.868783950805664 400.2201232910156 -4.14695405960083 396.74603271484375 C 27.186548233032227 399.2476806640625 25.36763572692871 387.6988220214844 46.56941604614258 394.6840515136719 C 35.540767669677734 394.99859619140625 49.965362548828125 380.8674621582031 61.56120300292969 393.5792541503906" stroke-width="6.0" fill="none" stroke="rgb(0, 0, 0)" stroke-opacity="1.0" stroke-linecap="round" stroke-linejoin="round"/>
    <path d="M 440.66717529296875 115.28544616699219 C 463.385986328125 107.41902160644531 455.38275146484375 90.9501724243164 423.1553955078125 94.9884033203125 C 446.0659484863281 103.51081085205078 451.05133056640625 120.0483169555664 454.71978759765625 110.32069396972656 C 429.7334289550781 125.869140625 451.6446838378906 122.88555145263672 469.6683044433594 132.21836853027344 C 484.6667175292969 124.30967712402344 494.7809143066406 136.49671936035156 488.78887939453125 124.98103332519531 C 473.0348205566406 140.59085083007812 502.8105773925781 125.15104675292969 508.01092529296875 100.35594940185547" stroke-width="6.0" fill="none" stroke="rgb(0, 0, 0)" stroke-opacity="1.0" stroke-linecap="round" stroke-linejoin="round"/>
    <path d="M 381.4906311035156 510.8177490234375 C 347.7370300292969 528.7678833007812 331.527099609375 534.6051025390625 309.4060363769531 538.784912109375 C 293.60211181640625 543.5215454101562 285.8095703125 541.62060546875 284.3641052246094 550.9839477539062 C 295.8534240722656 526.849609375 277.6183166503906 506.7564392089844 280.2392578125 509.6044616699219 C 271.80133056640625 481.7267150878906 263.9853820800781 503.66986083984375 255.10671997070312 490.88970947265625 C 241.2700958251953 522.2487182617188 256.64910888671875 553.6519165039062 255.42062377929688 551.19921875" stroke-width="6.0" fill="none" stroke="rgb(0, 0, 0)" stroke-opacity="1.0" stroke-linecap="round" stroke-linejoin="round"/>
    <path d="M 230.01902770996094 206.0546417236328 C 245.15293884277344 192.99542236328125 220.7815399169922 167.23727416992188 236.23289489746094 187.37806701660156 C 230.2813262939453 192.2173614501953 241.5653076171875 181.54818725585938 229.02748107910156 209.28250122070312 C 230.84323120117188 218.22784423828125 227.46475219726562 230.1289825439453 218.76361083984375 258.1773986816406 C 189.9180145263672 259.66180419921875 174.4759521484375 262.8594665527344 163.6022186279297 230.61094665527344 C 147.53578186035156 259.9214782714844 122.73674011230469 276.36944580078125 122.54657745361328 290.7698059082031" stroke-width="6.0" fill="none" stroke="rgb(0, 0, 0)" stroke-opacity="1.0" stroke-linecap="round" stroke-linejoin="round"/>
    <path d="M 173.78221130371094 98.8152084350586 C 150.40097045898438 126.81275939941406 159.62681579589844 109.29373931884766 189.08566284179688 87.69316864013672 C 177.78773498535156 61.825965881347656 172.17611694335938 79.06468963623047 190.5756072998047 71.7237548828125 C 208.75579833984375 82.21450805664062 222.26866149902344 65.86868286132812 203.00692749023438 61.407527923583984 C 222.14877319335938 31.491806030273438 233.57330322265625 15.73193359375 255.98731994628906 9.956930160522461 C 268.0694580078125 19.638669967651367 282.13458251953125 25.437530517578125 264.6643981933594 15.841405868530273" stroke-width="6.0" fill="none" stroke="rgb(0, 0, 0)" stroke-opacity="1.0" stroke-linecap="round" stroke-linejoin="round"/>
    <path d="M 167.96673583984375 196.21420288085938 C 158.99798583984375 159.98809814453125 143.62142944335938 119.97557067871094 159.49778747558594 113.55819702148438 C 150.490478515625 103.4161148071289 127.43254089355469 80.40179443359375 141.1593780517578 46.423709869384766 C 150.9511260986328 17.90538215637207 178.9236297607422 -2.091636896133423 203.83509826660156 -10.395051002502441 C 217.11119079589844 -34.71028518676758 198.7487335205078 -15.116369247436523 222.86610412597656 15.501469612121582 C 238.2130584716797 28.16985511779785 206.81594848632812 46.01601028442383 212.42379760742188 46.7142448425293" stroke-width="6.0" fill="none" stroke="rgb(0, 0, 0)" stroke-opacity="1.0" stroke-linecap="round" stroke-linejoin="round"/>
    <path d="M 7.718451499938965 573.3903198242188 C 18.997112274169922 593.655029296875 -7.963347434997559 608.6238403320312 8.667769432067871 637.0902099609375 C -9.54061222076416 632.3692626953125 -32.53556823730469 625.7108764648438 -35.32479476928711 633.2969970703125 C -22.178665161132812 638.67578125 -36.77608108520508 650.5020751953125 -19.25537109375 643.6150512695312 C -48.29811477661133 631.9465942382812 -45.12751007080078 648.2575073242188 -55.65542221069336 632.9564819335938 C -38.73277282714844 613.8109741210938 -31.06563949584961 584.4013671875 -26.081899642944336 557.2785034179688" stroke-width="6.0" fill="none" stroke="rgb(0, 0, 0)" stroke-opacity="1.0" stroke-linecap="round" stroke-linejoin="round"/>
    <path d="M 412.0093994140625 74.78595733642578 C 434.7989807128906 95.6055908203125 462.3769226074219 93.77471160888672 472.28912353515625 115.56816101074219 C 500.4625244140625 118.90984344482422 516.8234252929688 112.10082244873047 504.9853210449219 81.16471099853516 C 535.2009887695312 60.87569808959961 522.4030151367188 91.95616149902344 546.8700561523438 114.81817626953125 C 567.2230834960938 124.92647552490234 571.63134765625 145.9618377685547 570.0045166015625 138.3218231201172 C 584.4229736328125 115.61017608642578 559.3284912109375 139.97869873046875 576.9893798828125 161.45948791503906" stroke-width="6.0" fill="none" stroke="rgb(0, 0, 0)" stroke-opacity="1.0" stroke-linecap="round" stroke-linejoin="round"/>
    <path d="M 175.0081787109375 537.2916870117188 C 201.16262817382812 562.9136352539062 212.13888549804688 541.423583984375 225.95542907714844 514.5189819335938 C 216.7966766357422 518.0160522460938 229.8273468017578 514.2455444335938 252.00526428222656 532.8656616210938 C 263.4341735839844 528.2061157226562 238.79525756835938 495.8201599121094 255.47537231445312 470.81329345703125 C 275.2784118652344 501.36566162109375 265.3188171386719 523.4056396484375 277.51165771484375 533.9790649414062 C 275.39013671875 557.3170166015625 307.1959228515625 538.6294555664062 258.0745544433594 547.3927001953125" stroke-width="6.0" fill="none" stroke="rgb(0, 0, 0)" stroke-opacity="1.0" stroke-linecap="round" stroke-linejoin="round"/>
    <path d="M 39.518611907958984 176.4335174560547 C 56.25646209716797 152.58326721191406 43.353511810302734 178.679931640625 30.08161735534668 188.8100128173828 C 17.32912826538086 171.73855590820312 8.98711109161377 184.53607177734375 -19.272560119628906 202.94126892089844 C -22.592866897583008 224.0687713623047 -3.10503888130188 214.0955810546875 12.345977783203125 221.71018981933594 C -8.803622245788574 212.3712615966797 -15.58459186553955 224.644775390625 -19.405141830444336 235.61383056640625 C -20.705713272094727 230.1299591064453 -3.8814656734466553 221.49098205566406 13.581206321716309 222.8522491455078" stroke-width="6.0" fill="none" stroke="rgb(0, 0, 0)" stroke-opacity="1.0" stroke-linecap="round" stroke-linejoin="round"/>
    <path d="M 321.9356689453125 577.69140625 C 320.6169738769531 576.400146484375 353.2701416015625 562.2733764648438 367.279296875 562.3260498046875 C 379.5465393066406 548.1106567382812 392.0870666503906 567.0440063476562 368.1481018066406 546.2262573242188 C 385.7825622558594 519.4622192382812 400.935302734375 523.9449462890625 368.524169921875 510.3609313964844 C 327.50732421875 491.4709777832031 359.4879455566406 474.7562255859375 390.2583312988281 491.75634765625 C 361.9825744628906 476.68743896484375 385.4387512207031 459.8169250488281 376.8561096191406 428.3407897949219" stroke-width="6.0" fill="none" stroke="rgb(0, 0, 0)" stroke-opacity="1.0" stroke-linecap="round" stroke-linejoin="round"/>
    <path d="M 388.3561096191406 200.7660675048828 C 369.67852783203125 195.28958129882812 399.5947570800781 195.5690460205078 395.2413024902344 201.17330932617188 C 402.74945068359375 191.1019744873047 434.4405822753906 177.022216796875 431.2233581542969 193.240234375 C 441.4142761230469 215.34564208984375 449.6573181152344 192.30197143554688 472.7689208984375 202.17709350585938 C 476.76141357421875 238.781982421875 477.8897399902344 250.2262420654297 437.1404724121094 256.84515380859375 C 440.93756103515625 268.5841369628906 462.468994140625 284.8039245605469 437.2669677734375 292.2909851074219" stroke-width="6.0" fill="none" stroke="rgb(0, 0, 0)" stroke-opacity="1.0" stroke-linecap="round" stroke-linejoin="round"/>
    <path d="M 159.81893920898438 163.9136199951172 C 151.0921173095703 141.11322021484375 156.4312286376953 160.82540893554688 133.19505310058594 177.804931640625 C 125.0221939086914 181.38735961914062 149.2598114013672 175.05699157714844 129.4356689453125 152.80311584472656 C 140.77993774414062 143.4361572265625 129.3488006591797 154.4596710205078 136.758544921875 144.34274291992188 C 124.38247680664062 162.688232421875 129.84410095214844 178.63363647460938 99.81396484375 201.8772735595703 C 81.24703216552734 183.15371704101562 93.36599731445312 204.25314331054688 127.81777954101562 201.6271209716797" stroke-width="6.0" fill="none" stroke="rgb(0, 0, 0)" stroke-opacity="1.0" stroke-linecap="round" stroke-linejoin="round"/>
    <path d="M 112.86360168457031 29.279817581176758 C 104.97415161132812 33.81529235839844 74.25159454345703 25.793621063232422 66.28934478759766 21.29307746887207 C 77.5130615234375 25.341432571411133 70.94773864746094 31.385971069335938 85.38482666015625 24.769548416137695 C 72.02918243408203 35.93659591674805 56.56612777709961 33.482826232910156 81.28350830078125 27.429283142089844 C 103.80779266357422 16.367528915405273 73.15800476074219 3.414524793624878 72.0213623046875 -18.299612045288086 C 97.51699829101562 -2.021183967590332 71.58564758300781 -30.78432273864746 91.86075592041016 -43.1373291015625" stroke-width="6.0" fill="none" stroke="rgb(0, 0, 0)" stroke-opacity="1.0" stroke-linecap="round" stroke-linejoin="round"/>
    <path d="M 566.6434936523438 191.29379272460938 C 555.1369018554688 208.01490783691406 590.007080078125 205.4383087158203 613.3988037109375 203.39495849609375 C 604.080810546875 226.99581909179688 581.466796875 199.0089569091797 594.0457763671875 172.3220977783203 C 599.2679443359375 145.43435668945312 621.0586547851562 147.02871704101562 637.9575805664062 169.24826049804688 C 675.7052612304688 185.4280242919922 660.3329467773438 162.0747528076172 666.1115112304688 181.41209411621094 C 657.7395629882812 178.11257934570312 685.3970947265625 194.34742736816406 702.493408203125 223.29525756835938" stroke-width="6.0" fill="none" stroke="rgb(0, 0, 0)" stroke-opacity="1.0" stroke-linecap="round" stroke-linejoin="round"/>
    <path d="M 130.94827270507812 285.4120788574219 C 140.37734985351562 294.6925354003906 143.56532287597656 309.35870361328125 140.34921264648438 309.2345886230469 C 158.0663604736328 350.8218078613281 139.50650024414062 346.3116149902344 114.93641662597656 360.7664794921875 C 145.79290771484375 351.1828308105469 128.59237670898438 357.761474609375 157.4942169189453 339.83734130859375 C 170.00067138671875 355.7483215332031 168.70860290527344 336.97857666015625 174.42726135253906 349.9971618652344 C 193.91954040527344 358.43408203125 192.97915649414062 379.5162353515625 194.22694396972656 385.830322265625" stroke-width="6.0" fill="none" stroke="rgb(0, 0, 0)" stroke-opacity="1.0" stroke-linecap="round" stroke-linejoin="round"/>
    <path d="M 273.8206787109375 212.1826934814453 C 268.89617919921875 204.4582061767578 272.72589111328125 220.5101776123047 253.8209228515625 195.95956420898438 C 248.6322021484375 218.6120147705078 261.96234130859375 217.72848510742188 257.44036865234375 198.8223419189453 C 249.52085876464844 200.41925048828125 256.2149963378906 220.19671630859375 255.09762573242188 206.29428100585938 C 252.33779907226562 180.10086059570312 259.6149597167969 207.61305236816406 251.7410888671875 242.12660217285156 C 249.84722900390625 252.9055633544922 256.6643371582031 281.1367492675781 255.48915100097656 263.3484802246094" stroke-width="6.0" fill="none" stroke="rgb(0, 0, 0)" stroke-opacity="1.0" stroke-linecap="round" stroke-linejoin="round"/>
    <path d="M 596.1106567382812 119.66531372070312 C 608.2943115234375 115.05681610107422 582.189453125 91.49958038330078 563.0142822265625 77.30440521240234 C 570.41845703125 63.258544921875 583.3246459960938 65.54625701904297 607.9078369140625 75.7186050415039 C 641.8906860351562 57.473350524902344 655.2116088867188 33.94880676269531 648.870849609375 34.231056213378906 C 659.7323608398438 58.01179885864258 680.3638916015625 82.85395812988281 656.6366577148438 112.24249267578125 C 683.1702880859375 98.861328125 688.5430908203125 88.65493774414062 696.0049438476562 93.58106231689453" stroke-width="6.0" fill="none" stroke="rgb(0, 0, 0)" stroke-opacity="1.0" stroke-linecap="round" stroke-linejoin="round"/>
    <path d="M 285.114501953125 603.63720703125 C 286.14208984375 603.32861328125 274.10845947265625 615.0767822265625 302.3324279785156 642.434326171875 C 316.5467224121094 648.95068359375 324.3405456542969 664.2850341796875 300.93719482421875 643.887451171875 C 288.0010986328125 669.3408813476562 313.609375 698.9148559570312 305.56573486328125 681.2362670898438 C 303.04010009765625 704.23583984375 329.8885498046875 730.896240234375 332.0832824707031 747.1650390625 C 306.5728759765625 752.1382446289062 292.50592041015625 740.2501831054688 289.9161376953125 730.5077514648438" stroke-width="6.0" fill="none" stroke="rgb(0, 0, 0)" stroke-opacity="1.0" stroke-linecap="round" stroke-linejoin="round"/>
    <path d="M 471.7644958496094 458.5335388183594 C 490.5001525878906 468.5620422363281 492.1641845703125 448.9989013671875 515.0767211914062 476.2419128417969 C 487.041748046875 482.76287841796875 465.92431640625 492.0250549316406 472.6903991699219 514.4985961914062 C 493.7976379394531 538.093505859375 506.0248107910156 555.8628540039062 504.2069396972656 526.3842163085938 C 498.4883728027344 508.1500244140625 510.8656311035156 518.3364868164062 512.3207397460938 502.660400390625 C 525.1926879882812 528.9136962890625 532.7987060546875 547.76171875 547.7858276367188 541.0382690429688" stroke-width="6.0" fill="none" stroke="rgb(0, 0, 0)" stroke-opacity="1.0" stroke-linecap="round" stroke-linejoin="round"/>
    <path d="M 255.5804901123047 262.79425048828125 C 261.90740966796875 237.72354125976562 246.72129821777344 228.05482482910156 257.6006774902344 206.73362731933594 C 255.26165771484375 239.0584259033203 253.13583374023438 261.3160400390625 217.72930908203125 263.5859069824219 C 220.11834716796875 292.6700439453125 206.49505615234375 280.6546325683594 191.84243774414062 242.08670043945312 C 169.1267852783203 220.09918212890625 165.05438232421875 245.4681396484375 168.10400390625 263.1137390136719 C 200.45916748046875 252.53851318359375 193.94520568847656 232.87525939941406 220.33348083496094 240.77151489257812" stroke-width="6.0" fill="none" stroke="rgb(0, 0, 0)" stroke-opacity="1.0" stroke-linecap="round" stroke-linejoin="round"/>
    <path d="M 175.88221740722656 303.475830078125 C 144.2340850830078 283.1634826660156 148.2371368408203 271.1583557128906 162.23660278320312 252.4364471435547 C 127.68328857421875 266.39825439453125 97.91085815429688 264.81439208984375 95.19192504882812 231.68446350097656 C 129.79786682128906 239.66514587402344 155.79661560058594 241.88070678710938 176.25282287597656 213.66241455078125 C 141.1549835205078 190.61666870117188 112.85075378417969 207.67459106445312 124.84967041015625 202.52345275878906 C 139.87997436523438 193.78826904296875 142.92422485351562 173.66209411621094 150.5625 193.74082946777344" stroke-width="6.0" fill="none" stroke="rgb(0, 0, 0)" stroke-opacity="1.0" stroke-linecap="round" stroke-linejoin="round"/>
    <path d="M 313.9811096191406 94.30252838134766 C 269.91473388671875 82.6111831665039 256.024169921875 97.5979232788086 245.9336700439453 97.28164672851562 C 243.074951171875 98.6860122680664 253.58587646484375 82.93431854248047 244.27630615234375 98.69690704345703 C 259.1220703125 74.08212280273438 268.18231201171875 46.39173126220703 263.7897033691406 74.07209014892578 C 256.4896240234375 99.89344024658203 266.08917236328125 123.09519958496094 269.0974426269531 113.90586853027344 C 303.3557434082031 107.88471221923828 322.55499267578125 114.45536804199219 325.0076599121094 104.26813507080078" stroke-width="6.0" fill="none" stroke="rgb(0, 0, 0)" stroke-opacity="1.0" stroke-linecap="round" stroke-linejoin="round"/>
    <path d="M 101.30642700195312 198.73684692382812 C 80.93265533447266 168.7146759033203 95.53831481933594 137.50210571289062 83.43681335449219 130.8455810546875 C 97.13292694091797 102.00080871582031 114.69770812988281 111.26171875 98.6089096069336 92.30429077148438 C 120.5311279296875 119.72589111328125 126.61067199707031 145.9928436279297 125.61318969726562 147.6427001953125 C 142.33502197265625 171.7103729248047 145.76329040527344 177.56130981445312 139.95907592773438 168.37709045410156 C 120.31519317626953 144.78001403808594 144.03529357910156 146.36109924316406 154.35035705566406 133.60772705078125" stroke-width="6.0" fill="none" stroke="rgb(0, 0, 0)" stroke-opacity="1.0" stroke-linecap="round" stroke-linejoin="round"/>
    <path d="M 446.4450378417969 575.0882568359375 C 425.54193115234375 585.571533203125 449.00726318359375 613.0606689453125 486.8353576660156 609.3120727539062 C 508.83306884765625 593.0044555664062 501.58099365234375 574.8346557617188 476.84716796875 569.158935546875 C 471.9244079589844 559.6378173828125 476.4012145996094 584.17431640625 468.5397033691406 552.1190185546875 C 487.7296447753906 542.9425048828125 494.85040283203125 529.3640747070312 513.6676025390625 544.015380859375 C 505.8496398925781 571.5795288085938 521.6714477539062 548.8391723632812 496.8735046386719 560.5016479492188" stroke-width="6.0" fill="none" stroke="rgb(0, 0, 0)" stroke-opacity="1.0" stroke-linecap="round" stroke-linejoin="round"/>
  </g>
</svg>
