<?xml version="1.0" ?>
<svg xmlns="http://www.w3.org/2000/svg" version="1.1" width="600" height="600">
  <defs/>
  <g>
    <path d="M 451.6210021972656 347.32501220703125 C 419.9252014160156 329.2542724609375 398.4592590332031 357.6658020019531 389.302734375 357.2172546386719 C 359.3937072753906 343.0386047363281 354.1334228515625 335.330322265625 324.0668640136719 321.31060791015625 C 318.33966064453125 312.7856750488281 334.0035705566406 313.3662109375 363.8079528808594 295.30548095703125 C 367.44287109375 296.80596923828125 394.6747741699219 268.2369689941406 390.54425048828125 285.8744201660156 C 427.90216064453125 261.4578552246094 445.2851257324219 235.0575408935547 434.24908447265625 234.223388671875" stroke-width="6.0" fill="none" stroke="rgb(0, 0, 0)" stroke-opacity="1.0" stroke-linecap="round" stroke-linejoin="round"/>
    <path d="M 33.36031723022461 17.963851928710938 C 3.7532706260681152 14.771086692810059 9.871175765991211 10.393406867980957 -5.9067511558532715 -15.663687705993652 C 18.224002838134766 -36.2916374206543 5.35336971282959 -43.21544647216797 11.036764144897461 -51.169010162353516 C 14.909599304199219 -37.1940803527832 -5.203321933746338 -36.38520050048828 -15.655303001403809 -36.20945358276367 C -35.69710159301758 -30.80722427368164 -25.513124465942383 -26.12027931213379 -8.898675918579102 -46.48894119262695 C -19.658164978027344 -31.188034057617188 -21.29525375366211 -8.159698486328125 2.9926915168762207 -23.099287033081055" stroke-width="6.0" fill="none" stroke="rgb(0, 0, 0)" stroke-opacity="1.0" stroke-linecap="round" stroke-linejoin="round"/>
    <path d="M 218.39883422851562 303.42864990234375 C 224.2503204345703 297.6223449707031 256.4695129394531 276.8553771972656 257.85455322265625 253.05044555664062 C 266.0809020996094 242.77955627441406 287.3627014160156 241.71649169921875 283.5223083496094 255.53045654296875 C 257.13690185546875 257.0342102050781 283.8519592285156 271.75701904296875 290.993896484375 250.71697998046875 C 278.46978759765625 230.88360595703125 274.3817138671875 247.6245574951172 277.5978088378906 251.5074920654297 C 268.4834289550781 257.3071594238281 279.01971435546875 249.94581604003906 252.24180603027344 240.44895935058594" stroke-width="6.0" fill="none" stroke="rgb(0, 0, 0)" stroke-opacity="1.0" stroke-linecap="round" stroke-linejoin="round"/>
    <path d="M 311.92779541015625 158.49209594726562 C 319.8987121582031 151.16323852539062 293.3526306152344 141.0397491455078 300.1943359375 127.05467224121094 C 302.9952697753906 118.91112518310547 316.146240234375 122.19256591796875 284.6831359863281 115.88134765625 C 295.49859619140625 98.98130798339844 315.350830078125 116.6710433959961 337.6163635253906 105.48477172851562 C 352.9082946777344 75.80680084228516 370.8627014160156 68.28079223632812 371.9644470214844 87.05316162109375 C 399.0693054199219 108.507080078125 403.7682800292969 117.99596405029297 416.41009521484375 130.82974243164062" stroke-width="6.0" fill="none" stroke="rgb(0, 0, 0)" stroke-opacity="1.0" stroke-linecap="round" stroke-linejoin="round"/>
    <path d="M 405.4728698730469 252.60435485839844 C 420.7554016113281 243.26727294921875 404.38214111328125 241.94090270996094 407.8443603515625 221.59779357910156 C 373.742919921875 204.2015838623047 359.6628112792969 174.95697021484375 355.1662292480469 176.8880615234375 C 359.133544921875 207.7294158935547 355.7608642578125 184.1090850830078 370.9364929199219 156.80154418945312 C 395.3290710449219 142.4239959716797 400.62054443359375 156.69871520996094 396.14007568359375 157.47068786621094 C 411.32373046875 175.48524475097656 422.5892333984375 203.69972229003906 423.2596740722656 195.44952392578125" stroke-width="6.0" fill="none" stroke="rgb(0, 0, 0)" stroke-opacity="1.0" stroke-linecap="round" stroke-linejoin="round"/>
    <path d="M 380.4881591796875 177.5117950439453 C 388.1888427734375 158.16770935058594 375.8918151855469 178.50238037109375 384.15289306640625 175.32009887695312 C 387.4222717285156 165.03114318847656 371.4331359863281 171.3806915283203 360.223876953125 146.77374267578125 C 375.0484313964844 163.96282958984375 367.0822448730469 180.83352661132812 347.5209045410156 166.5963592529297 C 329.0274658203125 182.23965454101562 334.62286376953125 154.69627380371094 341.22772216796875 185.7107696533203 C 333.3548583984375 186.89208984375 305.0760192871094 210.08985900878906 299.73785400390625 213.55389404296875" stroke-width="6.0" fill="none" stroke="rgb(0, 0, 0)" stroke-opacity="1.0" stroke-linecap="round" stroke-linejoin="round"/>
    <path d="M 458.838134765625 33.95064163208008 C 454.6689453125 12.586213111877441 447.6298828125 8.812332153320312 433.5879211425781 -1.0856393575668335 C 415.32293701171875 18.0059871673584 416.33404541015625 -7.136109352111816 389.2987365722656 6.598501682281494 C 385.8001403808594 -25.592958450317383 415.3314208984375 -25.032283782958984 396.4229736328125 -50.33704376220703 C 397.83953857421875 -33.85480880737305 382.8485412597656 -57.32795333862305 398.0904541015625 -51.40512466430664 C 414.1741638183594 -38.35218811035156 442.4985046386719 -25.470670700073242 447.06121826171875 -55.15825653076172" stroke-width="6.0" fill="none" stroke="rgb(0, 0, 0)" stroke-opacity="1.0" stroke-linecap="round" stroke-linejoin="round"/>
    <path d="M 337.0398864746094 371.0203552246094 C 358.74456787109375 376.77691650390625 378.7833557128906 403.6590270996094 340.43499755859375 386.2393798828125 C 353.22412109375 375.2574768066406 360.4364318847656 387.8155212402344 395.3627014160156 376.7386779785156 C 408.2154846191406 380.35089111328125 393.9203796386719 386.9222412109375 377.32403564453125 416.5225524902344 C 413.4936828613281 424.61224365234375 441.3714599609375 421.3030700683594 417.0572509765625 420.19842529296875 C 423.5787048339844 437.1999206542969 415.3532409667969 435.57794189453125 447.8500061035156 446.02374267578125" stroke-width="6.0" fill="none" stroke="rgb(0, 0, 0)" stroke-opacity="1.0" stroke-linecap="round" stroke-linejoin="round"/>
    <path d="M 422.92340087890625 336.256103515625 C 435.3904113769531 320.9450378417969 442.9253845214844 328.12872314453125 447.187255859375 334.9917297363281 C 460.27764892578125 342.14007568359375 483.6863098144531 347.4314880371094 503.20782470703125 379.58349609375 C 485.1854248046875 401.5975646972656 497.9765930175781 383.95501708984375 531.707275390625 408.8067626953125 C 504.953125 393.9713439941406 485.0079345703125 397.4628601074219 464.61663818359375 406.14288330078125 C 466.749267578125 401.91748046875 441.01702880859375 420.75677490234375 459.9618835449219 399.6704406738281" stroke-width="6.0" fill="none" stroke="rgb(0, 0, 0)" stroke-opacity="1.0" stroke-linecap="round" stroke-linejoin="round"/>
    <path d="M 296.4122314453125 360.8626403808594 C 342.6564636230469 352.0565490722656 351.0911560058594 329.7447814941406 360.0677490234375 346.31341552734375 C 348.83740234375 340.33551025390625 371.5125427246094 363.5068054199219 393.0431823730469 369.19940185546875 C 387.9898681640625 384.4010925292969 381.1345520019531 355.7186584472656 410.20758056640625 384.1308898925781 C 364.1719665527344 394.9451599121094 349.429443359375 388.0203552246094 387.9693298339844 388.8332824707031 C 365.31451416015625 365.1299133300781 359.03741455078125 346.9117736816406 314.4310607910156 327.2109680175781" stroke-width="6.0" fill="none" stroke="rgb(0, 0, 0)" stroke-opacity="1.0" stroke-linecap="round" stroke-linejoin="round"/>
    <path d="M 72.24102020263672 67.46932220458984 C 78.7801742553711 79.26234436035156 103.43521118164062 65.27084350585938 116.34040069580078 40.391319274902344 C 110.33737182617188 21.757009506225586 87.08987426757812 45.11555099487305 73.88202667236328 65.47832489013672 C 91.16404724121094 83.47200012207031 106.7497787475586 101.34329223632812 114.21621704101562 109.37358093261719 C 106.10218811035156 132.98570251464844 85.8404769897461 137.6980743408203 60.845909118652344 134.07278442382812 C 57.80758285522461 118.92498779296875 37.309791564941406 104.3597640991211 33.27281188964844 96.2081298828125" stroke-width="6.0" fill="none" stroke="rgb(0, 0, 0)" stroke-opacity="1.0" stroke-linecap="round" stroke-linejoin="round"/>
    <path d="M 510.4701843261719 190.77171325683594 C 508.6443786621094 205.34503173828125 481.5025634765625 228.70169067382812 471.436767578125 240.4180145263672 C 480.46246337890625 226.89137268066406 501.27545166015625 262.283935546875 504.2750549316406 239.72607421875 C 492.1639404296875 220.12429809570312 507.3471374511719 227.96966552734375 499.28936767578125 256.3631286621094 C 473.56805419921875 232.23109436035156 473.50006103515625 219.9661407470703 466.55511474609375 212.92568969726562 C 479.79754638671875 188.5705108642578 467.70074462890625 192.64453125 450.7945556640625 193.02792358398438" stroke-width="6.0" fill="none" stroke="rgb(0, 0, 0)" stroke-opacity="1.0" stroke-linecap="round" stroke-linejoin="round"/>
    <path d="M 390.4229431152344 61.688087463378906 C 394.9426574707031 46.286502838134766 417.80963134765625 31.254749298095703 423.8226623535156 33.713783264160156 C 400.75775146484375 14.979001998901367 402.352783203125 18.593647003173828 394.85369873046875 -2.7960689067840576 C 395.37469482421875 26.243465423583984 381.699951171875 29.082582473754883 392.480712890625 11.473591804504395 C 407.8565673828125 4.944787979125977 401.97509765625 -9.492908477783203 381.8811340332031 -14.606132507324219 C 369.75970458984375 -41.409515380859375 363.65362548828125 -45.46113967895508 384.56512451171875 -46.42829132080078" stroke-width="6.0" fill="none" stroke="rgb(0, 0, 0)" stroke-opacity="1.0" stroke-linecap="round" stroke-linejoin="round"/>
    <path d="M 336.4300537109375 131.77537536621094 C 332.82586669921875 133.2156219482422 345.44122314453125 115.38134765625 377.4386901855469 108.94973754882812 C 362.46307373046875 147.74310302734375 336.42718505859375 161.21630859375 317.04876708984375 130.90728759765625 C 297.5028991699219 103.60405731201172 262.2564697265625 125.72950744628906 226.30596923828125 105.95550537109375 C 228.74588012695312 121.59197998046875 202.9105224609375 100.78534698486328 196.10684204101562 89.05426788330078 C 192.85914611816406 81.82911682128906 165.5393524169922 62.254249572753906 141.6065673828125 43.39532470703125" stroke-width="6.0" fill="none" stroke="rgb(0, 0, 0)" stroke-opacity="1.0" stroke-linecap="round" stroke-linejoin="round"/>
    <path d="M 314.3797302246094 83.44232940673828 C 340.8367614746094 94.42908477783203 320.446044921875 83.8886947631836 345.1583557128906 124.50504302978516 C 323.8728942871094 135.63352966308594 338.94989013671875 120.82141876220703 318.79742431640625 120.18800354003906 C 315.3230895996094 126.99103546142578 306.29541015625 125.46511840820312 293.8125 114.78996276855469 C 290.7386779785156 86.94465637207031 273.16290283203125 67.06624603271484 252.1590118408203 79.87279510498047 C 239.133056640625 87.99232482910156 226.26492309570312 100.38345336914062 232.38888549804688 111.17132568359375" stroke-width="6.0" fill="none" stroke="rgb(0, 0, 0)" stroke-opacity="1.0" stroke-linecap="round" stroke-linejoin="round"/>
    <path d="M -4.133194923400879 192.3843536376953 C 10.062439918518066 170.9026641845703 39.97213363647461 177.3522186279297 55.59212875366211 161.091552734375 C 47.76388168334961 180.44117736816406 76.13340759277344 199.95518493652344 64.68392944335938 186.8077392578125 C 98.20347595214844 188.4334259033203 95.97230529785156 182.80508422851562 58.025508880615234 167.21746826171875 C 38.015380859375 196.61204528808594 21.97167205810547 192.8621826171875 -0.7018617391586304 205.2467498779297 C -25.778276443481445 203.00399780273438 3.3231704235076904 198.35665893554688 23.24847412109375 201.0671844482422" stroke-width="6.0" fill="none" stroke="rgb(0, 0, 0)" stroke-opacity="1.0" stroke-linecap="round" stroke-linejoin="round"/>
    <path d="M 200.82894897460938 319.1132507324219 C 228.7504425048828 341.3023376464844 207.05767822265625 317.8528747558594 222.1560821533203 290.73675537109375 C 219.96664428710938 282.7723083496094 229.80943298339844 272.94189453125 239.56898498535156 309.6352233886719 C 215.67300415039062 310.8927307128906 193.9471893310547 335.27191162109375 210.58563232421875 340.00177001953125 C 195.61978149414062 340.1065673828125 211.53973388671875 337.4500427246094 211.9038543701172 339.4992370605469 C 191.42369079589844 327.052978515625 161.42941284179688 328.4151916503906 146.10008239746094 293.57904052734375" stroke-width="6.0" fill="none" stroke="rgb(0, 0, 0)" stroke-opacity="1.0" stroke-linecap="round" stroke-linejoin="round"/>
    <path d="M 94.26904296875 546.0098266601562 C 91.5785903930664 556.03515625 98.29998779296875 535.7568359375 67.32754516601562 558.799560546875 C 84.1921157836914 589.3760986328125 69.44955444335938 603.1541748046875 77.16145324707031 600.5081176757812 C 83.4178237915039 611.0035400390625 91.6165542602539 632.9692993164062 95.64443969726562 597.6251220703125 C 77.26318359375 597.0226440429688 40.94754409790039 597.587646484375 49.11410903930664 596.5353393554688 C 13.055715560913086 601.9389038085938 36.887943267822266 626.3167114257812 37.63175964355469 606.9091186523438" stroke-width="6.0" fill="none" stroke="rgb(0, 0, 0)" stroke-opacity="1.0" stroke-linecap="round" stroke-linejoin="round"/>
    <path d="M 478.2148132324219 129.5772247314453 C 482.86822509765625 131.6809844970703 470.1060485839844 132.5897674560547 451.7025451660156 167.02340698242188 C 438.24566650390625 180.02865600585938 444.61590576171875 159.7499542236328 450.84295654296875 169.21585083007812 C 427.4552001953125 139.6654815673828 421.1367492675781 127.66648864746094 441.4006652832031 114.581298828125 C 466.2289123535156 132.21531677246094 458.6306457519531 129.71978759765625 484.5523376464844 154.6923065185547 C 462.52484130859375 133.51034545898438 464.1751403808594 134.87008666992188 483.5408630371094 153.96592712402344" stroke-width="6.0" fill="none" stroke="rgb(0, 0, 0)" stroke-opacity="1.0" stroke-linecap="round" stroke-linejoin="round"/>
    <path d="M 147.78103637695312 243.39793395996094 C 129.08718872070312 246.3182373046875 115.59733581542969 238.98170471191406 108.69754028320312 251.77076721191406 C 104.12301635742188 251.58546447753906 110.49018096923828 276.760498046875 94.41114044189453 288.4588928222656 C 93.87748718261719 324.92755126953125 77.06639099121094 352.8682861328125 78.50602722167969 325.07965087890625 C 73.72225952148438 315.9422912597656 46.68533706665039 289.05877685546875 57.26523208618164 285.9648132324219 C 95.73088073730469 291.5919494628906 71.81876373291016 308.5631103515625 67.86475372314453 274.7073669433594" stroke-width="6.0" fill="none" stroke="rgb(0, 0, 0)" stroke-opacity="1.0" stroke-linecap="round" stroke-linejoin="round"/>
    <path d="M 94.7431640625 299.4532775878906 C 102.65890502929688 304.1532897949219 108.19583892822266 310.5951843261719 87.8968505859375 289.92840576171875 C 92.09941864013672 274.4341125488281 68.16633605957031 297.6140441894531 94.59480285644531 325.8664245605469 C 99.74351501464844 332.4071960449219 126.7694091796875 348.48748779296875 97.53416442871094 323.2018737792969 C 117.82259368896484 296.6214904785156 122.24217987060547 303.5999450683594 122.70474243164062 281.9642333984375 C 114.90164947509766 279.29608154296875 144.79434204101562 309.6544189453125 128.66929626464844 296.2158203125" stroke-width="6.0" fill="none" stroke="rgb(0, 0, 0)" stroke-opacity="1.0" stroke-linecap="round" stroke-linejoin="round"/>
    <path d="M 260.1499938964844 597.7307739257812 C 270.2071838378906 603.4229125976562 253.31268310546875 587.468017578125 227.54493713378906 615.8278198242188 C 260.6705017089844 630.0022583007812 274.0085144042969 640.5316162109375 271.27825927734375 639.284423828125 C 288.4945068359375 640.6317749023438 265.3677978515625 661.890380859375 279.8774719238281 678.6072998046875 C 307.4399108886719 662.3341064453125 319.30377197265625 683.5421142578125 293.84332275390625 656.7265625 C 268.72003173828125 677.5000610351562 240.12255859375 674.0795288085938 260.6806335449219 660.5170288085938" stroke-width="6.0" fill="none" stroke="rgb(0, 0, 0)" stroke-opacity="1.0" stroke-linecap="round" stroke-linejoin="round"/>
    <path d="M 315.84075927734375 123.66121673583984 C 333.3947448730469 101.68498992919922 332.3725280761719 106.24111938476562 343.85333251953125 93.66217803955078 C 334.0172424316406 131.21194458007812 351.1797790527344 117.8730697631836 371.0388488769531 89.07861328125 C 391.43939208984375 101.08375549316406 401.1029052734375 92.05023956298828 382.0176086425781 70.75595092773438 C 389.6485595703125 93.95992279052734 410.3478698730469 70.46162414550781 408.1826477050781 70.8252182006836 C 427.7826843261719 54.037879943847656 427.0306396484375 51.002376556396484 404.1375427246094 39.48529815673828" stroke-width="6.0" fill="none" stroke="rgb(0, 0, 0)" stroke-opacity="1.0" stroke-linecap="round" stroke-linejoin="round"/>
    <path d="M 263.7049865722656 396.549560546875 C 214.70755004882812 384.0801696777344 193.37220764160156 371.9745178222656 180.92018127441406 370.8055725097656 C 170.72618103027344 368.8536682128906 161.76641845703125 357.0032653808594 146.22772216796875 379.0644836425781 C 163.4002227783203 398.5567321777344 141.11521911621094 379.0378723144531 128.28408813476562 363.29339599609375 C 103.49512481689453 374.6190185546875 119.75525665283203 401.199951171875 113.61228942871094 375.96185302734375 C 116.69779205322266 393.0171203613281 107.8360595703125 381.8647155761719 115.15289306640625 387.1343078613281" stroke-width="6.0" fill="none" stroke="rgb(0, 0, 0)" stroke-opacity="1.0" stroke-linecap="round" stroke-linejoin="round"/>
    <path d="M 31.780803680419922 443.6919250488281 C 46.43032455444336 433.1620178222656 63.85984420776367 459.7580261230469 40.31523132324219 442.9343566894531 C 24.632966995239258 455.052978515625 47.44807815551758 438.3518371582031 54.54243469238281 406.6502685546875 C 48.698577880859375 433.85089111328125 28.618825912475586 457.7969055175781 13.980222702026367 442.367919921875 C -4.906897068023682 460.8662109375 11.382791519165039 470.020263671875 19.067317962646484 477.4628601074219 C 11.700404167175293 479.4266357421875 -13.943280220031738 467.1504211425781 -15.40029239654541 490.82086181640625" stroke-width="6.0" fill="none" stroke="rgb(0, 0, 0)" stroke-opacity="1.0" stroke-linecap="round" stroke-linejoin="round"/>
    <path d="M 415.0987854003906 243.38584899902344 C 422.8328857421875 238.19717407226562 399.9082336425781 247.93128967285156 395.40625 280.89312744140625 C 378.34814453125 255.34869384765625 373.6377258300781 232.99609375 393.3795166015625 241.40333557128906 C 384.3849182128906 238.2991485595703 407.1659851074219 241.2313232421875 394.0469970703125 271.33990478515625 C 404.0537109375 290.491455078125 375.489501953125 283.6392822265625 392.69024658203125 283.5662536621094 C 385.9118347167969 279.2801818847656 390.8899841308594 265.312744140625 373.36541748046875 258.3684387207031" stroke-width="6.0" fill="none" stroke="rgb(0, 0, 0)" stroke-opacity="1.0" stroke-linecap="round" stroke-linejoin="round"/>
    <path d="M 100.20894622802734 302.6651916503906 C 89.1362075805664 306.86395263671875 58.23159408569336 332.1846923828125 83.9515609741211 311.3907470703125 C 112.1887435913086 299.6777038574219 109.53706359863281 284.23382568359375 114.0374984741211 280.500244140625 C 121.52791595458984 290.6958312988281 136.0284881591797 304.19866943359375 111.07982635498047 288.0871276855469 C 99.7630615234375 259.1236267089844 116.86963653564453 275.57025146484375 111.08887481689453 271.38372802734375 C 123.25802612304688 279.777099609375 101.4447250366211 295.3765563964844 79.48197937011719 263.9991455078125" stroke-width="6.0" fill="none" stroke="rgb(0, 0, 0)" stroke-opacity="1.0" stroke-linecap="round" stroke-linejoin="round"/>
    <path d="M 22.88018798828125 199.133544921875 C 25.057247161865234 211.25009155273438 50.41298294067383 187.3162841796875 49.453407287597656 168.6859588623047 C 54.92742919921875 164.62542724609375 76.33259582519531 168.8629608154297 75.87471008300781 163.01011657714844 C 85.219482421875 178.81375122070312 78.40494537353516 203.76318359375 55.20410919189453 174.8615264892578 C 71.1528549194336 165.4193878173828 106.036376953125 166.96791076660156 128.3311309814453 166.7660369873047 C 124.38594818115234 166.87266540527344 106.76449584960938 180.70655822753906 134.37942504882812 181.74281311035156" stroke-width="6.0" fill="none" stroke="rgb(0, 0, 0)" stroke-opacity="1.0" stroke-linecap="round" stroke-linejoin="round"/>
    <path d="M 202.37950134277344 38.541690826416016 C 178.20362854003906 53.89786148071289 186.52976989746094 54.27883529663086 206.12841796875 70.38154602050781 C 183.63560485839844 45.56986618041992 169.76463317871094 59.53266525268555 165.61476135253906 68.72777557373047 C 142.87779235839844 94.02542114257812 125.35899353027344 108.7644271850586 132.1503143310547 109.30455017089844 C 109.89302062988281 94.54438781738281 119.52218627929688 75.18730926513672 156.79798889160156 53.65727996826172 C 169.03150939941406 61.11701965332031 182.2913818359375 75.68437194824219 174.9609375 69.43486785888672" stroke-width="6.0" fill="none" stroke="rgb(0, 0, 0)" stroke-opacity="1.0" stroke-linecap="round" stroke-linejoin="round"/>
    <path d="M 199.15771484375 229.2820281982422 C 173.4030303955078 248.96620178222656 215.64173889160156 223.55380249023438 227.5940704345703 244.14227294921875 C 244.1599578857422 227.6154327392578 222.49227905273438 239.43336486816406 194.35760498046875 260.8376770019531 C 193.66021728515625 275.9953918457031 227.85560607910156 272.50201416015625 227.9176025390625 305.96917724609375 C 236.17257690429688 294.28216552734375 254.2047119140625 293.1844177246094 262.2460632324219 262.8019104003906 C 273.0715026855469 290.1973571777344 254.94871520996094 327.9361877441406 225.1348419189453 311.3408508300781" stroke-width="6.0" fill="none" stroke="rgb(0, 0, 0)" stroke-opacity="1.0" stroke-linecap="round" stroke-linejoin="round"/>
    <path d="M 392.23516845703125 280.8738708496094 C 376.2419738769531 269.37005615234375 349.33990478515625 260.3150939941406 340.8304138183594 257.6255187988281 C 349.91461181640625 276.5238952636719 350.78533935546875 282.46563720703125 340.26971435546875 306.7178649902344 C 348.1925048828125 315.1956481933594 318.29034423828125 326.9754333496094 310.21240234375 310.68603515625 C 270.74774169921875 308.1984558105469 275.3507385253906 330.0352478027344 249.24331665039062 337.8317565917969 C 259.30474853515625 310.0301513671875 253.53369140625 299.2334899902344 236.31979370117188 292.8666687011719" stroke-width="6.0" fill="none" stroke="rgb(0, 0, 0)" stroke-opacity="1.0" stroke-linecap="round" stroke-linejoin="round"/>
    <path d="M 53.01310348510742 287.8587341308594 C 69.1866455078125 311.2517395019531 56.102237701416016 302.5643005371094 45.788780212402344 327.9374084472656 C 50.49816131591797 320.97552490234375 81.56509399414062 330.7880554199219 78.8122787475586 324.3382873535156 C 62.30022048950195 295.76727294921875 44.549888610839844 301.07220458984375 11.901787757873535 303.7879943847656 C 11.698066711425781 316.4993896484375 23.61423683166504 341.13787841796875 11.069498062133789 360.7815246582031 C 1.840003490447998 375.4888610839844 -19.913421630859375 385.32159423828125 2.499872922897339 365.8763427734375" stroke-width="6.0" fill="none" stroke="rgb(0, 0, 0)" stroke-opacity="1.0" stroke-linecap="round" stroke-linejoin="round"/>
    <path d="M 539.8324584960938 131.56985473632812 C 505.9888000488281 128.60629272460938 489.58447265625 112.29513549804688 467.04351806640625 81.73059844970703 C 452.998291015625 97.2378158569336 448.806640625 139.41232299804688 458.50726318359375 156.24220275878906 C 476.0226745605469 130.0068359375 495.6024475097656 118.31233215332031 506.95684814453125 130.40306091308594 C 512.9751586914062 107.99653625488281 491.92474365234375 133.72586059570312 474.142578125 127.347900390625 C 504.5164489746094 96.80164337158203 519.2177734375 73.21142578125 517.3519897460938 82.60588073730469" stroke-width="6.0" fill="none" stroke="rgb(0, 0, 0)" stroke-opacity="1.0" stroke-linecap="round" stroke-linejoin="round"/>
    <path d="M 429.9839782714844 362.8252868652344 C 438.63153076171875 351.6585693359375 464.32464599609375 367.37860107421875 433.5177917480469 371.42987060546875 C 434.3500061035156 357.9129333496094 450.8020935058594 371.99395751953125 432.05206298828125 375.2760009765625 C 450.3492736816406 355.7562561035156 454.9274597167969 343.4194030761719 439.7782287597656 348.7165832519531 C 450.7588806152344 346.01678466796875 452.5098571777344 333.7629089355469 422.61090087890625 326.7900085449219 C 423.70281982421875 293.868896484375 437.19061279296875 276.08660888671875 463.32086181640625 260.9290771484375" stroke-width="6.0" fill="none" stroke="rgb(0, 0, 0)" stroke-opacity="1.0" stroke-linecap="round" stroke-linejoin="round"/>
    <path d="M 244.61509704589844 311.8999938964844 C 247.0621337890625 297.990966796875 239.47499084472656 286.781982421875 241.42100524902344 262.2027587890625 C 217.31764221191406 255.40147399902344 219.03829956054688 245.2559814453125 207.5919189453125 237.97714233398438 C 203.34580993652344 251.83872985839844 229.0120849609375 245.97718811035156 214.42984008789062 258.2186584472656 C 194.76605224609375 277.5795593261719 194.0335693359375 280.618896484375 195.60250854492188 255.0310516357422 C 180.7452850341797 249.53338623046875 181.1147003173828 227.50425720214844 200.24090576171875 252.13119506835938" stroke-width="6.0" fill="none" stroke="rgb(0, 0, 0)" stroke-opacity="1.0" stroke-linecap="round" stroke-linejoin="round"/>
    <path d="M 97.47528076171875 405.7446594238281 C 101.26140594482422 410.3154296875 110.26885223388672 403.0532531738281 136.5176544189453 419.3434753417969 C 138.55136108398438 428.9975280761719 159.9004669189453 413.74664306640625 142.33811950683594 406.15283203125 C 132.02484130859375 386.5507507324219 103.08644104003906 384.73077392578125 76.1845474243164 393.5072021484375 C 101.32140350341797 382.65118408203125 85.22661590576172 401.0169372558594 114.5094985961914 384.857666015625 C 96.95558166503906 400.43731689453125 78.66386413574219 383.61724853515625 50.57101058959961 388.7626647949219" stroke-width="6.0" fill="none" stroke="rgb(0, 0, 0)" stroke-opacity="1.0" stroke-linecap="round" stroke-linejoin="round"/>
    <path d="M 445.3231506347656 417.79791259765625 C 481.28662109375 409.2147521972656 479.0390625 407.1173095703125 476.7269592285156 387.4267883300781 C 482.26055908203125 387.930908203125 496.7356262207031 421.558837890625 484.3447570800781 412.93267822265625 C 516.9002685546875 396.2309265136719 505.4452819824219 407.6341247558594 509.0907287597656 373.119384765625 C 519.1591186523438 389.1431884765625 530.5307006835938 373.4169921875 562.852783203125 389.17303466796875 C 547.4190673828125 398.8146667480469 580.3333129882812 418.5216369628906 616.5963134765625 399.3045349121094" stroke-width="6.0" fill="none" stroke="rgb(0, 0, 0)" stroke-opacity="1.0" stroke-linecap="round" stroke-linejoin="round"/>
    <path d="M 332.8738098144531 583.1487426757812 C 328.6972351074219 580.8001708984375 343.5031433105469 600.8904418945312 332.5893859863281 625.6323852539062 C 350.6583251953125 608.3732299804688 373.8625183105469 590.631103515625 365.3883056640625 583.9063720703125 C 336.73236083984375 577.868408203125 349.1394958496094 553.1588745117188 349.994384765625 566.0213623046875 C 349.8714599609375 558.7760009765625 344.02301025390625 561.6731567382812 354.513916015625 561.8435668945312 C 371.8028259277344 560.0667114257812 362.0268249511719 561.6181030273438 381.5226745605469 558.4071655273438" stroke-width="6.0" fill="none" stroke="rgb(0, 0, 0)" stroke-opacity="1.0" stroke-linecap="round" stroke-linejoin="round"/>
    <path d="M 338.9596252441406 73.8362808227539 C 318.353271484375 52.75239944458008 332.4687194824219 68.46798706054688 340.3199462890625 74.73641204833984 C 355.2317810058594 71.79518127441406 353.84893798828125 50.26900863647461 324.92852783203125 35.01177978515625 C 328.7565002441406 34.60337448120117 340.5329284667969 3.1413156986236572 327.8104553222656 1.8676116466522217 C 315.91156005859375 32.20939254760742 305.8013000488281 44.999488830566406 295.2789306640625 32.53607177734375 C 327.96038818359375 55.226783752441406 311.5518493652344 81.39466094970703 286.7165832519531 44.58849334716797" stroke-width="6.0" fill="none" stroke="rgb(0, 0, 0)" stroke-opacity="1.0" stroke-linecap="round" stroke-linejoin="round"/>
    <path d="M 7.735787868499756 603.2794189453125 C 11.300167083740234 618.568603515625 15.55208969116211 624.4408569335938 -10.714062690734863 600.6473999023438 C -37.334014892578125 594.8273315429688 -33.020729064941406 583.7415771484375 -41.82501220703125 553.9967041015625 C -24.666257858276367 578.3662109375 -36.73417282104492 578.8291625976562 -53.596927642822266 583.4248657226562 C -57.61178970336914 558.30615234375 -48.23909378051758 528.793701171875 -45.227970123291016 514.7386474609375 C -41.93026351928711 508.210205078125 -22.179187774658203 496.78839111328125 -49.89329528808594 515.95849609375" stroke-width="6.0" fill="none" stroke="rgb(0, 0, 0)" stroke-opacity="1.0" stroke-linecap="round" stroke-linejoin="round"/>
    <path d="M 350.8067626953125 576.3377075195312 C 348.27288818359375 584.7744750976562 339.92340087890625 566.7819213867188 362.9005432128906 584.6257934570312 C 376.6813049316406 585.572265625 368.4719543457031 587.0924072265625 372.7715759277344 610.3561401367188 C 399.6898498535156 626.15380859375 396.4360656738281 613.363525390625 386.806640625 639.3829345703125 C 370.2635192871094 649.3328857421875 342.74853515625 633.8087768554688 330.68377685546875 641.0875854492188 C 302.023193359375 662.252197265625 325.28076171875 652.732177734375 320.95574951171875 671.53466796875" stroke-width="6.0" fill="none" stroke="rgb(0, 0, 0)" stroke-opacity="1.0" stroke-linecap="round" stroke-linejoin="round"/>
    <path d="M 149.5907745361328 565.381591796875 C 167.0916748046875 578.658447265625 165.22891235351562 605.2942504882812 172.18003845214844 582.5501708984375 C 157.8636474609375 601.04345703125 150.37982177734375 620.5197143554688 124.59148406982422 602.7960815429688 C 135.04946899414062 617.5494384765625 116.40470886230469 639.3984985351562 93.89794921875 645.9960327148438 C 78.30915069580078 673.1530151367188 68.36058044433594 674.9254150390625 42.26810836791992 681.36669921875 C 25.773780822753906 692.5797729492188 0.6548365354537964 705.205322265625 17.03911781311035 695.2825317382812" stroke-width="6.0" fill="none" stroke="rgb(0, 0, 0)" stroke-opacity="1.0" stroke-linecap="round" stroke-linejoin="round"/>
    <path d="M 498.39007568359375 587.1563720703125 C 499.8965759277344 594.4786376953125 498.29937744140625 568.0353393554688 520.5162963867188 570.9291381835938 C 490.43994140625 561.6732177734375 517.9189453125 558.6939697265625 488.15545654296875 579.2361450195312 C 469.8930969238281 589.9631958007812 493.48028564453125 601.3248291015625 460.00811767578125 597.1515502929688 C 444.253173828125 569.80078125 466.24676513671875 542.2517700195312 482.70965576171875 570.3631591796875 C 507.53631591796875 584.0696411132812 542.9701538085938 562.999755859375 559.6709594726562 549.3770751953125" stroke-width="6.0" fill="none" stroke="rgb(0, 0, 0)" stroke-opacity="1.0" stroke-linecap="round" stroke-linejoin="round"/>
    <path d="M 274.3825988769531 444.78094482421875 C 284.23046875 429.0151672363281 297.2217712402344 419.31719970703125 286.65411376953125 430.1973571777344 C 298.58660888671875 406.2524719238281 307.5555114746094 393.0976257324219 288.8633117675781 397.0698547363281 C 302.99383544921875 396.0518493652344 331.13348388671875 386.77081298828125 316.27178955078125 417.1843566894531 C 332.1656494140625 388.5771789550781 305.9089050292969 360.082275390625 335.8791198730469 382.7246398925781 C 298.8186340332031 374.8173522949219 329.6767578125 398.5542297363281 341.5199279785156 379.7752380371094" stroke-width="6.0" fill="none" stroke="rgb(0, 0, 0)" stroke-opacity="1.0" stroke-linecap="round" stroke-linejoin="round"/>
    <path d="M 539.2135620117188 90.88467407226562 C 543.55078125 102.32372283935547 553.75439453125 92.48480224609375 558.109619140625 71.93584442138672 C 554.4735717773438 92.71292114257812 545.494873046875 100.85108184814453 531.739990234375 81.80107116699219 C 513.416259765625 112.21617126464844 489.8337707519531 106.76515197753906 510.6396484375 90.93742370605469 C 493.3145751953125 89.13400268554688 495.6186828613281 81.28059387207031 492.51641845703125 105.76461029052734 C 508.0466003417969 124.13858032226562 523.3789672851562 142.95559692382812 536.5597534179688 159.8505401611328" stroke-width="6.0" fill="none" stroke="rgb(0, 0, 0)" stroke-opacity="1.0" stroke-linecap="round" stroke-linejoin="round"/>
    <path d="M 357.6277160644531 497.6618347167969 C 365.51788330078125 513.4150390625 389.5912780761719 524.4307861328125 372.545654296875 534.778564453125 C 340.6683654785156 520.94091796875 331.80511474609375 524.0667724609375 327.7574768066406 505.2908020019531 C 365.33966064453125 511.9698791503906 361.65484619140625 502.7618408203125 356.176025390625 495.16961669921875 C 363.6588439941406 514.09765625 365.98773193359375 504.96209716796875 356.2292175292969 514.912353515625 C 344.55169677734375 543.759033203125 363.9425354003906 520.3120727539062 353.7741394042969 529.6689453125" stroke-width="6.0" fill="none" stroke="rgb(0, 0, 0)" stroke-opacity="1.0" stroke-linecap="round" stroke-linejoin="round"/>
    <path d="M 546.2716064453125 63.19051742553711 C 526.5885620117188 47.94865036010742 531.6565551757812 22.989761352539062 539.4546508789062 3.764612913131714 C 562.8235473632812 14.219067573547363 566.3246459960938 -5.697161674499512 540.3471069335938 1.720221757888794 C 545.8209838867188 20.801179885864258 518.4376831054688 42.75379180908203 548.6116333007812 26.797204971313477 C 525.9514770507812 16.75653076171875 543.0806884765625 22.770061492919922 556.1228637695312 47.21848678588867 C 555.7926025390625 38.84756088256836 577.3951416015625 8.28415298461914 562.604248046875 -15.315624237060547" stroke-width="6.0" fill="none" stroke="rgb(0, 0, 0)" stroke-opacity="1.0" stroke-linecap="round" stroke-linejoin="round"/>
    <path d="M 593.3248291015625 250.1683349609375 C 615.0782470703125 218.88600158691406 611.406494140625 234.9613494873047 592.7080078125 215.5594940185547 C 581.1145629882812 257.38262939453125 554.5276489257812 271.88818359375 567.461181640625 279.3681945800781 C 576.5761108398438 287.87420654296875 541.8494873046875 270.5543212890625 512.189453125 280.7639465332031 C 511.2418212890625 256.6031494140625 533.1255493164062 254.07550048828125 543.4246826171875 266.8275146484375 C 555.501953125 296.9045104980469 533.1942138671875 273.1920471191406 534.9459228515625 280.3224182128906" stroke-width="6.0" fill="none" stroke="rgb(0, 0, 0)" stroke-opacity="1.0" stroke-linecap="round" stroke-linejoin="round"/>
    <path d="M 17.28911781311035 479.5433349609375 C 38.93891143798828 481.2806091308594 25.733983993530273 498.5018615722656 8.52656364440918 498.7038879394531 C 42.953941345214844 496.4442138671875 58.742034912109375 475.2027587890625 40.04863357543945 466.6480712890625 C 20.953702926635742 478.8110656738281 11.050826072692871 478.1939392089844 11.755694389343262 463.54803466796875 C -2.0390961170196533 455.4049072265625 -23.10330581665039 476.74114990234375 -14.230021476745605 485.04736328125 C -14.577512741088867 461.88299560546875 -17.79296112060547 484.5827331542969 -7.850722312927246 459.601318359375" stroke-width="6.0" fill="none" stroke="rgb(0, 0, 0)" stroke-opacity="1.0" stroke-linecap="round" stroke-linejoin="round"/>
    <path d="M 458.5387878417969 270.3043212890625 C 479.8990173339844 285.2200927734375 484.0037841796875 272.2694091796875 486.97998046875 283.102783203125 C 474.9625244140625 289.83172607421875 503.6811828613281 269.5293273925781 533.2763061523438 279.9878845214844 C 496.81536865234375 288.93695068359375 471.669921875 277.7865295410156 490.2452087402344 254.92178344726562 C 513.2899169921875 249.1400146484375 498.2230224609375 225.84085083007812 494.4085693359375 209.81295776367188 C 486.1748046875 221.84176635742188 516.8965454101562 198.65821838378906 539.7960815429688 182.23605346679688" stroke-width="6.0" fill="none" stroke="rgb(0, 0, 0)" stroke-opacity="1.0" stroke-linecap="round" stroke-linejoin="round"/>
    <path d="M 433.6789245605469 238.36962890625 C 424.8739013671875 240.56118774414062 444.9131164550781 226.54983520507812 421.13824462890625 239.0751953125 C 442.50396728515625 231.98800659179688 439.8479919433594 238.76467895507812 398.15087890625 242.21176147460938 C 395.5916442871094 228.5908203125 378.9415283203125 248.30686950683594 350.96551513671875 235.5125274658203 C 349.84912109375 226.69442749023438 358.1136474609375 207.9462890625 377.13165283203125 202.8634490966797 C 382.83477783203125 189.00633239746094 372.28668212890625 189.1403350830078 408.2243347167969 193.12908935546875" stroke-width="6.0" fill="none" stroke="rgb(0, 0, 0)" stroke-opacity="1.0" stroke-linecap="round" stroke-linejoin="round"/>
    <path d="M 583.0767211914062 175.05593872070312 C 594.8259887695312 136.10740661621094 612.8919677734375 146.427734375 624.8500366210938 170.45419311523438 C 609.1406860351562 179.95504760742188 609.7265014648438 172.6221923828125 593.7636108398438 197.35769653320312 C 592.59716796875 177.90476989746094 618.743896484375 147.0689697265625 623.5309448242188 128.53814697265625 C 627.3472900390625 143.24899291992188 648.9985961914062 119.89663696289062 644.69580078125 122.66046905517578 C 673.5834350585938 131.46688842773438 683.8013916015625 157.4972381591797 663.9752807617188 180.147705078125" stroke-width="6.0" fill="none" stroke="rgb(0, 0, 0)" stroke-opacity="1.0" stroke-linecap="round" stroke-linejoin="round"/>
    <path d="M 20.112836837768555 196.43975830078125 C 26.859256744384766 204.373046875 10.574499130249023 199.7698211669922 23.477619171142578 175.99691772460938 C 24.439992904663086 170.00103759765625 5.940154075622559 162.52491760253906 -0.9032140970230103 135.37342834472656 C 16.414527893066406 94.77452850341797 39.45010757446289 116.10358428955078 29.90719985961914 142.9115753173828 C 35.33147430419922 156.67991638183594 24.802276611328125 142.43577575683594 15.793810844421387 129.0139617919922 C 28.042062759399414 145.27523803710938 32.81632614135742 161.191162109375 46.41031265258789 137.77792358398438" stroke-width="6.0" fill="none" stroke="rgb(0, 0, 0)" stroke-opacity="1.0" stroke-linecap="round" stroke-linejoin="round"/>
    <path d="M 218.73597717285156 452.3124694824219 C 259.7364807128906 457.6067810058594 284.5130310058594 464.111328125 293.33709716796875 475.3387145996094 C 293.38702392578125 485.2106018066406 260.93817138671875 500.6018371582031 266.9727783203125 507.56787109375 C 293.0745544433594 517.1635131835938 290.34381103515625 539.8607788085938 293.9429931640625 548.0442504882812 C 294.0333557128906 539.3258666992188 325.68365478515625 560.6617431640625 328.7797546386719 552.3634033203125 C 321.90655517578125 576.7921752929688 297.43865966796875 566.88330078125 313.0562438964844 568.8717651367188" stroke-width="6.0" fill="none" stroke="rgb(0, 0, 0)" stroke-opacity="1.0" stroke-linecap="round" stroke-linejoin="round"/>
    <path d="M 316.9778747558594 380.81365966796875 C 275.810302734375 368.10406494140625 279.4184265136719 373.3922119140625 284.2486267089844 369.1299133300781 C 285.5170593261719 394.1407775878906 310.36614990234375 414.6683044433594 317.51751708984375 422.4950256347656 C 313.7979736328125 423.2904357910156 304.0849304199219 444.5908203125 289.90667724609375 455.9173889160156 C 279.9981994628906 481.9681396484375 298.36138916015625 467.9510498046875 305.0063781738281 461.9685363769531 C 302.0396423339844 463.2043762207031 313.0794982910156 454.9104919433594 339.5505676269531 455.3048095703125" stroke-width="6.0" fill="none" stroke="rgb(0, 0, 0)" stroke-opacity="1.0" stroke-linecap="round" stroke-linejoin="round"/>
    <path d="M 491.5410461425781 9.904975891113281 C 502.6983642578125 -9.460949897766113 512.3532104492188 -5.433048248291016 503.3390197753906 20.0003604888916 C 480.19342041015625 -9.077568054199219 460.656494140625 16.999385833740234 457.0123291015625 44.21127700805664 C 442.166259765625 39.3503303527832 424.55047607421875 17.86287498474121 445.5407409667969 -7.9404096603393555 C 442.9344787597656 -9.708377838134766 430.2297058105469 -0.9137319922447205 415.1963806152344 2.592851161956787 C 388.3435974121094 4.3473944664001465 417.23211669921875 35.11941909790039 437.6373596191406 41.4940071105957" stroke-width="6.0" fill="none" stroke="rgb(0, 0, 0)" stroke-opacity="1.0" stroke-linecap="round" stroke-linejoin="round"/>
    <path d="M 326.6998291015625 194.41668701171875 C 347.9569091796875 176.58767700195312 376.7522277832031 200.59866333007812 376.6680603027344 184.94857788085938 C 364.2473449707031 200.0125274658203 391.1566162109375 198.5351104736328 370.709228515625 194.4791259765625 C 370.2021179199219 193.28976440429688 391.7709655761719 162.26199340820312 403.2315673828125 145.8018798828125 C 432.7173767089844 166.2390899658203 404.9999084472656 139.81837463378906 392.7354431152344 156.44515991210938 C 400.7862854003906 165.2878875732422 416.1132507324219 180.67404174804688 398.5359191894531 162.5987091064453" stroke-width="6.0" fill="none" stroke="rgb(0, 0, 0)" stroke-opacity="1.0" stroke-linecap="round" stroke-linejoin="round"/>
    <path d="M 355.73809814453125 145.53965759277344 C 376.37176513671875 166.95932006835938 373.5577392578125 163.72178649902344 374.640380859375 148.294677734375 C 365.0843811035156 179.234375 357.3809509277344 178.11593627929688 343.6275939941406 197.03311157226562 C 363.59490966796875 190.96951293945312 356.5852355957031 159.5780487060547 333.9862365722656 143.5442352294922 C 320.0580139160156 150.7225799560547 327.408447265625 149.98434448242188 344.13665771484375 121.0918197631836 C 331.5743713378906 101.96627807617188 320.3535461425781 82.66905975341797 327.87255859375 67.51293182373047" stroke-width="6.0" fill="none" stroke="rgb(0, 0, 0)" stroke-opacity="1.0" stroke-linecap="round" stroke-linejoin="round"/>
    <path d="M 179.6534881591797 244.9376678466797 C 143.30010986328125 241.40542602539062 129.5259246826172 248.03219604492188 124.14168548583984 277.1899108886719 C 91.21880340576172 266.24969482421875 71.07727813720703 247.54885864257812 68.12683868408203 238.8037109375 C 73.87580871582031 234.64205932617188 96.29313659667969 248.40817260742188 92.77876281738281 230.5499725341797 C 124.56593322753906 204.1653289794922 116.66153717041016 233.46893310546875 94.16696166992188 222.2432403564453 C 91.4012451171875 229.38027954101562 93.29076385498047 239.4027862548828 89.72528839111328 231.29354858398438" stroke-width="6.0" fill="none" stroke="rgb(0, 0, 0)" stroke-opacity="1.0" stroke-linecap="round" stroke-linejoin="round"/>
    <path d="M 381.711181640625 242.40774536132812 C 411.4189758300781 201.99623107910156 377.05908203125 213.32522583007812 373.5249938964844 190.3651123046875 C 365.4831237792969 200.40200805664062 340.32623291015625 183.0320587158203 310.17987060546875 204.0601348876953 C 316.912109375 233.90200805664062 304.7853698730469 236.2239227294922 306.56671142578125 214.86929321289062 C 287.6768493652344 192.47927856445312 279.83587646484375 222.18621826171875 264.0279235839844 200.87997436523438 C 277.7939758300781 183.1867218017578 296.3601379394531 200.2976531982422 255.7607879638672 219.24374389648438" stroke-width="6.0" fill="none" stroke="rgb(0, 0, 0)" stroke-opacity="1.0" stroke-linecap="round" stroke-linejoin="round"/>
    <path d="M 535.6305541992188 186.14996337890625 C 554.7127685546875 169.88143920898438 568.520751953125 191.78982543945312 566.084716796875 191.8346405029297 C 557.0651245117188 175.6255340576172 546.1751098632812 200.28932189941406 570.3851318359375 175.98907470703125 C 552.5797729492188 189.35537719726562 544.4508056640625 172.3057098388672 557.8604125976562 143.52247619628906 C 582.18408203125 150.0237274169922 577.218017578125 139.7843780517578 581.9962158203125 148.7950439453125 C 575.4710693359375 150.14964294433594 544.8046264648438 147.3869171142578 552.727294921875 159.20498657226562" stroke-width="6.0" fill="none" stroke="rgb(0, 0, 0)" stroke-opacity="1.0" stroke-linecap="round" stroke-linejoin="round"/>
    <path d="M 45.13201904296875 513.4267578125 C 43.28065872192383 503.88641357421875 21.49353790283203 522.2125244140625 17.532690048217773 518.925537109375 C 30.591320037841797 548.7288208007812 57.21452331542969 520.1959838867188 35.561641693115234 537.391845703125 C 45.35113525390625 553.0656127929688 20.190664291381836 566.8245849609375 44.30656814575195 583.7190551757812 C 34.13484573364258 604.4693603515625 16.90167999267578 615.9436645507812 35.22134017944336 615.5090942382812 C 42.9186897277832 629.3709106445312 15.344322204589844 635.3206787109375 44.35794448852539 631.2415161132812" stroke-width="6.0" fill="none" stroke="rgb(0, 0, 0)" stroke-opacity="1.0" stroke-linecap="round" stroke-linejoin="round"/>
    <path d="M 447.16766357421875 192.73202514648438 C 462.1511535644531 226.11550903320312 453.3459167480469 196.4987335205078 440.1820373535156 190.1865234375 C 425.4671630859375 201.50228881835938 407.50787353515625 183.1155548095703 393.60797119140625 147.6068115234375 C 360.0286865234375 153.4541015625 387.4503479003906 140.3811798095703 367.8445129394531 163.51321411132812 C 361.37841796875 189.11952209472656 336.38433837890625 193.29898071289062 319.94476318359375 198.05543518066406 C 311.0588073730469 193.93722534179688 333.4484558105469 199.0574188232422 359.35894775390625 182.34689331054688" stroke-width="6.0" fill="none" stroke="rgb(0, 0, 0)" stroke-opacity="1.0" stroke-linecap="round" stroke-linejoin="round"/>
    <path d="M 459.1723327636719 600.2627563476562 C 431.36602783203125 581.637451171875 442.1191101074219 596.9473876953125 445.5508728027344 603.13232421875 C 461.4865417480469 607.5472412109375 434.65338134765625 580.0072631835938 429.8450622558594 594.8062133789062 C 448.9955139160156 567.2540283203125 454.5826416015625 565.0086669921875 429.2503356933594 560.6747436523438 C 443.6919860839844 540.14306640625 412.77362060546875 532.3046875 413.4517517089844 527.4039916992188 C 397.96417236328125 531.4380493164062 371.88897705078125 537.05126953125 386.0409240722656 547.6373291015625" stroke-width="6.0" fill="none" stroke="rgb(0, 0, 0)" stroke-opacity="1.0" stroke-linecap="round" stroke-linejoin="round"/>
    <path d="M 213.80667114257812 202.6714324951172 C 205.7399139404297 212.0111541748047 195.7705841064453 240.66957092285156 206.61351013183594 254.46896362304688 C 233.9835662841797 274.0870056152344 263.5782470703125 283.3473815917969 251.27333068847656 260.29150390625 C 227.1889190673828 266.4590759277344 220.43557739257812 296.0354919433594 244.05018615722656 325.80853271484375 C 255.9573516845703 293.5739440917969 260.9860534667969 288.42449951171875 240.71026611328125 251.88490295410156 C 266.9098815917969 269.9695129394531 261.8403625488281 239.91867065429688 271.1365966796875 274.7621765136719" stroke-width="6.0" fill="none" stroke="rgb(0, 0, 0)" stroke-opacity="1.0" stroke-linecap="round" stroke-linejoin="round"/>
    <path d="M 251.43446350097656 365.5204162597656 C 243.0801239013672 367.44183349609375 271.58453369140625 395.583251953125 284.8911437988281 411.24468994140625 C 256.81365966796875 411.49420166015625 281.0290222167969 412.0357971191406 306.62890625 414.5180969238281 C 294.1935119628906 393.6244201660156 290.6788024902344 383.7541809082031 274.2489929199219 366.4948425292969 C 268.5207214355469 361.7893371582031 283.98443603515625 381.3515625 251.85592651367188 361.0411376953125 C 282.2999572753906 370.9803771972656 299.9309387207031 392.8398742675781 303.5391845703125 414.65545654296875" stroke-width="6.0" fill="none" stroke="rgb(0, 0, 0)" stroke-opacity="1.0" stroke-linecap="round" stroke-linejoin="round"/>
    <path d="M 7.751242160797119 387.6105041503906 C -15.739534378051758 401.4071960449219 2.9857301712036133 435.5442199707031 9.17110538482666 436.3584899902344 C 9.504866600036621 425.6276550292969 8.696075439453125 451.4180908203125 3.4391422271728516 447.4126281738281 C 0.43632394075393677 422.9618835449219 17.89671516418457 445.0263977050781 34.63621139526367 466.9471130371094 C 13.561420440673828 465.2762756347656 32.0572395324707 500.54547119140625 50.180137634277344 517.2899169921875 C 70.11519622802734 535.1417846679688 76.63885498046875 541.2810668945312 84.17100524902344 531.1961059570312" stroke-width="6.0" fill="none" stroke="rgb(0, 0, 0)" stroke-opacity="1.0" stroke-linecap="round" stroke-linejoin="round"/>
    <path d="M 7.778622627258301 295.87823486328125 C 13.344459533691406 307.7322082519531 26.34807777404785 310.223388671875 25.782041549682617 291.85760498046875 C 13.395425796508789 263.3884582519531 3.2417550086975098 253.908935546875 -28.404144287109375 239.17860412597656 C -3.1985089778900146 206.08712768554688 16.692047119140625 173.22280883789062 35.46033477783203 149.98928833007812 C 35.26507568359375 150.61585998535156 1.6534796953201294 124.88739776611328 11.99788761138916 114.42695617675781 C 22.72316551208496 100.80374145507812 43.164424896240234 79.62200164794922 38.063507080078125 85.25421905517578" stroke-width="6.0" fill="none" stroke="rgb(0, 0, 0)" stroke-opacity="1.0" stroke-linecap="round" stroke-linejoin="round"/>
    <path d="M 439.33868408203125 539.3451538085938 C 457.3997802734375 525.8458862304688 482.03302001953125 524.8880004882812 508.05572509765625 538.4463500976562 C 476.1385192871094 568.9337158203125 477.0721130371094 584.8408203125 487.622314453125 602.8613891601562 C 464.7795715332031 626.959716796875 480.8975524902344 647.4918212890625 458.1617736816406 627.70068359375 C 450.8313903808594 631.5199584960938 457.16455078125 652.8129272460938 430.6290283203125 676.666748046875 C 443.94793701171875 655.9879150390625 464.5416564941406 671.448974609375 487.1256408691406 693.5315551757812" stroke-width="6.0" fill="none" stroke="rgb(0, 0, 0)" stroke-opacity="1.0" stroke-linecap="round" stroke-linejoin="round"/>
    <path d="M 607.6571655273438 92.12107849121094 C 573.6215209960938 94.98905181884766 570.829345703125 120.72307586669922 560.9010009765625 100.85633087158203 C 538.5610961914062 109.86415100097656 517.936279296875 98.1690902709961 491.3225402832031 101.91282653808594 C 521.8545532226562 109.7027587890625 515.9010620117188 96.29051971435547 530.7640380859375 84.61237335205078 C 542.15625 46.65462112426758 536.2861938476562 60.206050872802734 566.4071655273438 78.47677612304688 C 566.2430419921875 59.70701217651367 573.9343872070312 69.20140838623047 591.580322265625 72.9012222290039" stroke-width="6.0" fill="none" stroke="rgb(0, 0, 0)" stroke-opacity="1.0" stroke-linecap="round" stroke-linejoin="round"/>
    <path d="M 206.17214965820312 584.8333129882812 C 218.58938598632812 588.048095703125 212.53277587890625 610.4114379882812 241.57923889160156 610.4869384765625 C 257.0037841796875 607.7609252929688 247.34608459472656 613.6400146484375 219.36187744140625 636.9027709960938 C 244.65953063964844 648.1478271484375 263.92901611328125 646.2096557617188 260.73663330078125 646.0199584960938 C 245.4573516845703 648.53173828125 242.88653564453125 656.6333618164062 246.93345642089844 638.162109375 C 275.7590026855469 611.4840698242188 253.68154907226562 585.7405395507812 272.1849365234375 564.9619750976562" stroke-width="6.0" fill="none" stroke="rgb(0, 0, 0)" stroke-opacity="1.0" stroke-linecap="round" stroke-linejoin="round"/>
    <path d="M 43.022987365722656 377.2810974121094 C 44.36922836303711 372.2915344238281 32.27861022949219 367.6133117675781 22.49280548095703 346.6521301269531 C 10.53164005279541 353.12176513671875 35.264198303222656 323.5716552734375 53.139854431152344 351.2828063964844 C 56.01042175292969 372.8282165527344 62.5535888671875 354.2694396972656 45.13227462768555 376.3948059082031 C 52.78474426269531 364.37493896484375 71.3466796875 354.7740783691406 102.82793426513672 365.1589050292969 C 131.21478271484375 333.15679931640625 111.48983764648438 343.5552673339844 91.48973846435547 329.2760009765625" stroke-width="6.0" fill="none" stroke="rgb(0, 0, 0)" stroke-opacity="1.0" stroke-linecap="round" stroke-linejoin="round"/>
    <path d="M 176.45013427734375 305.43994140625 C 160.16314697265625 329.7945556640625 144.8861541748047 314.4421691894531 129.2275848388672 281.0572814941406 C 130.6790771484375 266.8724060058594 151.85888671875 248.8125762939453 138.2583770751953 244.35263061523438 C 139.49444580078125 256.3695068359375 149.61978149414062 257.2301330566406 183.27874755859375 252.033203125 C 185.81622314453125 239.2671661376953 206.3147430419922 248.85467529296875 213.10537719726562 222.7872772216797 C 196.299560546875 220.34266662597656 186.08306884765625 228.8527069091797 182.15924072265625 245.8155975341797" stroke-width="6.0" fill="none" stroke="rgb(0, 0, 0)" stroke-opacity="1.0" stroke-linecap="round" stroke-linejoin="round"/>
    <path d="M 150.78292846679688 296.2415466308594 C 169.06011962890625 308.8999938964844 199.0091552734375 317.306640625 240.21229553222656 333.0289611816406 C 219.96546936035156 312.7640380859375 249.84658813476562 306.7320861816406 246.08145141601562 282.3718566894531 C 248.19215393066406 308.7186279296875 275.0337219238281 299.79095458984375 295.27349853515625 302.26251220703125 C 269.6065368652344 324.9249267578125 244.52993774414062 307.1946105957031 247.58889770507812 334.867919921875 C 218.74989318847656 303.76409912109375 208.61695861816406 321.9715576171875 200.47293090820312 337.74298095703125" stroke-width="6.0" fill="none" stroke="rgb(0, 0, 0)" stroke-opacity="1.0" stroke-linecap="round" stroke-linejoin="round"/>
    <path d="M 458.4674987792969 14.09077262878418 C 478.8452453613281 -6.992867469787598 452.00115966796875 1.117265224456787 421.4949035644531 9.239579200744629 C 424.0028991699219 34.08546829223633 413.6064147949219 50.95713424682617 390.2908630371094 28.334583282470703 C 395.54254150390625 3.5638320446014404 408.5936279296875 0.6930015087127686 390.6023254394531 19.91873550415039 C 399.1373291015625 42.104705810546875 404.7879943847656 39.463558197021484 386.1042785644531 24.336376190185547 C 367.0522766113281 49.984432220458984 361.89971923828125 31.77914810180664 378.9373474121094 17.175504684448242" stroke-width="6.0" fill="none" stroke="rgb(0, 0, 0)" stroke-opacity="1.0" stroke-linecap="round" stroke-linejoin="round"/>
    <path d="M 532.419189453125 227.93515014648438 C 546.0811157226562 194.8662567138672 574.124267578125 185.0420379638672 599.0276489257812 163.93881225585938 C 571.8624267578125 191.0882110595703 562.13037109375 214.63809204101562 531.1404418945312 188.2717742919922 C 551.294189453125 166.9904022216797 553.1226196289062 186.8008270263672 581.1707763671875 202.79505920410156 C 552.2498168945312 235.97433471679688 568.680908203125 254.57070922851562 560.4736938476562 246.3098907470703 C 542.6333618164062 242.9923553466797 519.7957763671875 240.41146850585938 542.2632446289062 267.4395751953125" stroke-width="6.0" fill="none" stroke="rgb(0, 0, 0)" stroke-opacity="1.0" stroke-linecap="round" stroke-linejoin="round"/>
    <path d="M 388.36773681640625 558.4088134765625 C 352.6751708984375 557.49072265625 323.9634704589844 557.3274536132812 325.858642578125 556.44384765625 C 304.6509704589844 554.5979614257812 300.5935363769531 550.6370239257812 292.0081787109375 519.01416015625 C 324.3851623535156 508.98101806640625 336.0570373535156 511.8926696777344 332.3948974609375 514.1055297851562 C 351.3786926269531 489.9090576171875 328.1252746582031 473.7878112792969 294.60540771484375 483.29180908203125 C 294.2235107421875 457.3301696777344 272.9005126953125 439.35919189453125 276.891357421875 440.1296691894531" stroke-width="6.0" fill="none" stroke="rgb(0, 0, 0)" stroke-opacity="1.0" stroke-linecap="round" stroke-linejoin="round"/>
    <path d="M 574.15869140625 495.8062438964844 C 593.3391723632812 500.318115234375 607.8215942382812 517.00537109375 591.6248779296875 541.792724609375 C 624.5138549804688 528.9172973632812 588.4644165039062 532.2007446289062 559.8228759765625 540.4367065429688 C 533.5104370117188 523.4741821289062 554.09033203125 524.8866577148438 529.5731811523438 534.7853393554688 C 549.7364501953125 526.9597778320312 577.2523803710938 498.6314697265625 554.8453369140625 518.8287353515625 C 534.5468139648438 510.3970947265625 561.8528442382812 523.4371948242188 562.2714233398438 513.1161499023438" stroke-width="6.0" fill="none" stroke="rgb(0, 0, 0)" stroke-opacity="1.0" stroke-linecap="round" stroke-linejoin="round"/>
    <path d="M 47.19546127319336 344.8908386230469 C 42.31953048706055 362.2685546875 21.60050392150879 373.32470703125 23.961071014404297 382.2115173339844 C 21.799278259277344 379.16241455078125 22.933609008789062 374.6934814453125 -4.637816905975342 363.3791809082031 C -27.061243057250977 377.80615234375 -22.36753273010254 401.38641357421875 -27.20473861694336 403.7891845703125 C -42.3286018371582 411.5185852050781 -39.029327392578125 426.2392272949219 -46.21269607543945 409.4291687011719 C -25.155046463012695 398.1795654296875 -43.18461990356445 382.48260498046875 -36.94023132324219 384.2273254394531" stroke-width="6.0" fill="none" stroke="rgb(0, 0, 0)" stroke-opacity="1.0" stroke-linecap="round" stroke-linejoin="round"/>
    <path d="M 437.6727294921875 543.5571899414062 C 429.35345458984375 562.7396240234375 426.8988952636719 557.9247436523438 439.8749084472656 542.1405639648438 C 444.5093994140625 514.5672607421875 423.7731628417969 503.8739013671875 403.45086669921875 488.3714599609375 C 423.1284484863281 511.38458251953125 393.5066223144531 488.4491882324219 416.6537780761719 473.4437561035156 C 407.80682373046875 474.300048828125 409.3716125488281 487.43408203125 400.1003112792969 506.2457275390625 C 414.4029235839844 472.6173095703125 401.91046142578125 483.941162109375 428.7235107421875 464.86865234375" stroke-width="6.0" fill="none" stroke="rgb(0, 0, 0)" stroke-opacity="1.0" stroke-linecap="round" stroke-linejoin="round"/>
    <path d="M 53.99415969848633 421.3218688964844 C 45.49352264404297 397.0802001953125 42.62635040283203 402.2425537109375 33.4719123840332 387.9405517578125 C 19.682798385620117 393.9661560058594 -12.009549140930176 376.59442138671875 -28.166765213012695 386.0072326660156 C -13.05506706237793 392.15899658203125 2.159926652908325 384.69427490234375 -30.120872497558594 362.6816101074219 C -9.423931121826172 337.0950622558594 14.74376392364502 306.1026306152344 26.819562911987305 297.3927001953125 C 3.7186968326568604 313.2103576660156 15.739006042480469 324.271728515625 13.489684104919434 315.6207580566406" stroke-width="6.0" fill="none" stroke="rgb(0, 0, 0)" stroke-opacity="1.0" stroke-linecap="round" stroke-linejoin="round"/>
    <path d="M 76.47891998291016 1.9256627559661865 C 98.41717529296875 -4.8534255027771 117.15889739990234 23.665552139282227 137.8412628173828 40.7204475402832 C 161.41615295410156 58.38893127441406 151.2506103515625 54.42295455932617 145.16685485839844 62.75852584838867 C 133.4014434814453 58.622467041015625 142.93711853027344 65.71092224121094 127.07984924316406 74.61312103271484 C 125.67335510253906 65.61497497558594 132.73074340820312 88.41166687011719 143.6056365966797 102.8019790649414 C 151.06948852539062 107.21485900878906 129.1569061279297 98.11848449707031 155.4774932861328 78.80397033691406" stroke-width="6.0" fill="none" stroke="rgb(0, 0, 0)" stroke-opacity="1.0" stroke-linecap="round" stroke-linejoin="round"/>
    <path d="M 74.36455535888672 553.6160278320312 C 82.17941284179688 549.5996704101562 85.62163543701172 543.92919921875 81.91373443603516 549.3226928710938 C 93.46537017822266 549.670166015625 102.15885162353516 546.5819091796875 84.34919738769531 547.3794555664062 C 67.1312255859375 529.3211669921875 77.36492919921875 510.5852355957031 74.8441162109375 522.5924072265625 C 83.88610076904297 503.7880859375 115.9455795288086 512.1896362304688 87.49940490722656 530.0049438476562 C 68.64498138427734 552.5753784179688 84.68830871582031 526.7202758789062 58.84318161010742 508.7969055175781" stroke-width="6.0" fill="none" stroke="rgb(0, 0, 0)" stroke-opacity="1.0" stroke-linecap="round" stroke-linejoin="round"/>
    <path d="M 19.755056381225586 1.2802090644836426 C 52.907649993896484 11.945869445800781 34.1890754699707 31.485271453857422 30.051218032836914 10.14572811126709 C 46.06938171386719 -0.7168086767196655 29.66737937927246 28.818729400634766 40.004844665527344 26.597490310668945 C 68.00917053222656 3.1042675971984863 60.47685623168945 -17.11812973022461 48.759864807128906 9.084025382995605 C 9.152010917663574 20.55250358581543 19.406333923339844 46.04378128051758 35.63238525390625 60.6070671081543 C 56.2300910949707 80.46458435058594 59.403465270996094 109.82632446289062 82.44878387451172 97.01762390136719" stroke-width="6.0" fill="none" stroke="rgb(0, 0, 0)" stroke-opacity="1.0" stroke-linecap="round" stroke-linejoin="round"/>
    <path d="M 463.8500061035156 78.84971618652344 C 428.3262023925781 82.18385314941406 440.1339111328125 79.93817901611328 430.559814453125 79.70624542236328 C 462.55859375 90.77426147460938 442.7803955078125 65.59601593017578 469.6473693847656 54.53303527832031 C 463.3500671386719 45.744510650634766 487.8946533203125 30.720623016357422 491.4178771972656 65.95746612548828 C 495.80230712890625 51.54594421386719 490.74560546875 62.46535110473633 487.65887451171875 70.57547760009766 C 506.9715881347656 44.717716217041016 514.4381713867188 49.94965362548828 531.257568359375 78.7262191772461" stroke-width="6.0" fill="none" stroke="rgb(0, 0, 0)" stroke-opacity="1.0" stroke-linecap="round" stroke-linejoin="round"/>
    <path d="M 212.8896942138672 449.0265808105469 C 175.8646240234375 434.9940185546875 193.11781311035156 414.09326171875 159.0115509033203 420.46826171875 C 157.2934112548828 443.5296936035156 140.4739227294922 443.8351135253906 167.6134033203125 419.0847473144531 C 154.48976135253906 438.5926818847656 129.11447143554688 409.7087707519531 147.25009155273438 417.6895751953125 C 152.6989288330078 392.7310485839844 158.57171630859375 379.7121276855469 192.80482482910156 376.5864562988281 C 191.16453552246094 361.4480895996094 174.41380310058594 366.7098083496094 143.10264587402344 355.4532775878906" stroke-width="6.0" fill="none" stroke="rgb(0, 0, 0)" stroke-opacity="1.0" stroke-linecap="round" stroke-linejoin="round"/>
    <path d="M 440.0325622558594 63.257530212402344 C 442.8522033691406 97.80831909179688 418.4543151855469 94.52471923828125 422.2370300292969 107.41496276855469 C 434.4745788574219 78.24808502197266 443.3017883300781 88.18006896972656 454.27587890625 106.18549346923828 C 457.3370666503906 124.65470886230469 454.2065124511719 114.38335418701172 436.5902404785156 124.09175872802734 C 453.4410400390625 118.71907043457031 450.0558776855469 113.19182586669922 459.9175720214844 127.71401977539062 C 447.3738098144531 145.3729248046875 439.6567687988281 125.00624084472656 438.033447265625 107.25627136230469" stroke-width="6.0" fill="none" stroke="rgb(0, 0, 0)" stroke-opacity="1.0" stroke-linecap="round" stroke-linejoin="round"/>
    <path d="M 395.3677062988281 560.6729736328125 C 384.535888671875 549.566650390625 384.88818359375 533.8099365234375 351.83880615234375 527.5816040039062 C 360.21905517578125 503.18988037109375 353.9456787109375 515.9686279296875 353.61480712890625 527.0458374023438 C 357.591552734375 511.47711181640625 353.908447265625 508.4143981933594 363.1804504394531 492.3297424316406 C 392.3553771972656 467.4255065917969 398.5496520996094 441.27044677734375 385.9665222167969 466.6497802734375 C 396.8033752441406 447.6740417480469 390.46142578125 457.43426513671875 384.25885009765625 472.6883544921875" stroke-width="6.0" fill="none" stroke="rgb(0, 0, 0)" stroke-opacity="1.0" stroke-linecap="round" stroke-linejoin="round"/>
    <path d="M 480.9159851074219 74.5777816772461 C 462.76324462890625 52.89002990722656 466.97564697265625 45.738243103027344 483.66998291015625 34.15153884887695 C 457.25604248046875 62.03682327270508 442.6046142578125 85.49549102783203 438.9273986816406 89.12422943115234 C 455.19207763671875 100.64008331298828 465.4047546386719 129.97242736816406 441.1472473144531 118.47868347167969 C 452.3421630859375 120.69271850585938 460.4930114746094 123.33078002929688 463.65869140625 121.06526947021484 C 478.2108154296875 96.49142456054688 471.1871032714844 88.21609497070312 487.11590576171875 71.54883575439453" stroke-width="6.0" fill="none" stroke="rgb(0, 0, 0)" stroke-opacity="1.0" stroke-linecap="round" stroke-linejoin="round"/>
    <path d="M 43.7143440246582 531.627685546875 C 71.135009765625 533.985107421875 94.1635513305664 533.184326171875 110.12479400634766 530.6705322265625 C 122.42868041992188 527.3767700195312 136.5918426513672 542.39501953125 103.35244750976562 529.8770141601562 C 85.81517028808594 533.4879150390625 105.43037414550781 515.406005859375 117.33563232421875 487.0273742675781 C 93.85462188720703 490.4416809082031 85.83053588867188 494.6626281738281 78.634033203125 514.6532592773438 C 71.13523864746094 521.0955810546875 43.89787292480469 513.1314697265625 40.8904914855957 509.4190368652344" stroke-width="6.0" fill="none" stroke="rgb(0, 0, 0)" stroke-opacity="1.0" stroke-linecap="round" stroke-linejoin="round"/>
    <path d="M 559.40869140625 542.9588623046875 C 554.4978637695312 559.1171875 557.369384765625 558.9136352539062 599.1763305664062 560.8831176757812 C 580.5863647460938 587.9959716796875 604.6292114257812 567.552490234375 619.4710693359375 585.5321044921875 C 628.7579345703125 603.6686401367188 652.5081176757812 594.119140625 636.619384765625 614.7073974609375 C 657.3063354492188 607.8882446289062 656.1593017578125 587.7503051757812 673.9783935546875 557.812255859375 C 689.1211547851562 533.6593627929688 716.5523681640625 524.2437744140625 714.0614624023438 528.768310546875" stroke-width="6.0" fill="none" stroke="rgb(0, 0, 0)" stroke-opacity="1.0" stroke-linecap="round" stroke-linejoin="round"/>
    <path d="M 256.303466796875 326.4400634765625 C 269.5244445800781 325.86822509765625 301.3408508300781 333.29449462890625 299.9919738769531 304.27490234375 C 322.90643310546875 319.99761962890625 296.7259521484375 318.81402587890625 305.5108642578125 344.51947021484375 C 317.71826171875 316.13909912109375 309.9682922363281 335.4559631347656 289.5811462402344 297.3299865722656 C 264.1768798828125 286.01434326171875 281.75982666015625 285.96197509765625 256.3802185058594 315.8168029785156 C 277.4859619140625 306.0340270996094 259.14569091796875 310.9200439453125 281.67059326171875 305.612548828125" stroke-width="6.0" fill="none" stroke="rgb(0, 0, 0)" stroke-opacity="1.0" stroke-linecap="round" stroke-linejoin="round"/>
    <path d="M 515.843505859375 214.06004333496094 C 503.92919921875 178.02069091796875 513.0763549804688 152.71450805664062 535.4393920898438 190.29173278808594 C 506.6111755371094 202.3742218017578 479.91729736328125 220.56375122070312 505.40460205078125 235.20970153808594 C 518.1713256835938 206.4956512451172 527.839599609375 214.4755859375 549.802001953125 203.31460571289062 C 573.9510498046875 192.39706420898438 558.1210327148438 169.67564392089844 567.3419799804688 185.83279418945312 C 545.7915649414062 212.9444580078125 526.6232299804688 225.3450469970703 545.4954833984375 210.3177032470703" stroke-width="6.0" fill="none" stroke="rgb(0, 0, 0)" stroke-opacity="1.0" stroke-linecap="round" stroke-linejoin="round"/>
    <path d="M 478.151611328125 187.974365234375 C 457.06854248046875 215.6547393798828 485.39410400390625 214.21844482421875 455.71026611328125 210.80723571777344 C 473.72332763671875 215.77943420410156 477.3866271972656 197.0403594970703 482.7355041503906 213.96389770507812 C 507.1109313964844 218.89962768554688 482.4507141113281 236.74774169921875 500.5744934082031 222.66973876953125 C 472.5929870605469 229.107421875 493.698974609375 218.63568115234375 471.357421875 242.01100158691406 C 468.8009948730469 258.0658874511719 487.80487060546875 254.15736389160156 471.4600524902344 257.1220703125" stroke-width="6.0" fill="none" stroke="rgb(0, 0, 0)" stroke-opacity="1.0" stroke-linecap="round" stroke-linejoin="round"/>
    <path d="M 437.5184326171875 561.1431274414062 C 426.65576171875 548.669677734375 452.43194580078125 539.3442993164062 433.45751953125 513.5294189453125 C 440.6269836425781 522.3926391601562 448.494873046875 543.2123413085938 419.9371643066406 565.8619384765625 C 446.8261413574219 600.2230224609375 457.3321838378906 620.8338012695312 428.26654052734375 629.6118774414062 C 405.88507080078125 641.2190551757812 433.3097839355469 654.851806640625 438.76104736328125 669.1373901367188 C 453.0856628417969 659.3461303710938 476.2386779785156 642.874267578125 505.63323974609375 625.0147705078125" stroke-width="6.0" fill="none" stroke="rgb(0, 0, 0)" stroke-opacity="1.0" stroke-linecap="round" stroke-linejoin="round"/>
    <path d="M 196.53964233398438 412.6303405761719 C 212.76748657226562 420.63604736328125 173.66775512695312 428.5233459472656 153.76254272460938 450.7962951660156 C 136.367431640625 454.4655456542969 129.71044921875 461.26922607421875 134.67442321777344 456.717041015625 C 155.74612426757812 448.0549621582031 153.05526733398438 455.2982177734375 159.3512725830078 444.6394958496094 C 154.82748413085938 412.3475036621094 146.06243896484375 418.5368957519531 149.92832946777344 406.0870056152344 C 168.2475128173828 412.52642822265625 198.73910522460938 386.5233154296875 198.66285705566406 373.25250244140625" stroke-width="6.0" fill="none" stroke="rgb(0, 0, 0)" stroke-opacity="1.0" stroke-linecap="round" stroke-linejoin="round"/>
    <path d="M 397.8438415527344 454.359375 C 417.1850280761719 480.60321044921875 403.8522644042969 517.3823852539062 391.4305114746094 493.8642272949219 C 401.55401611328125 511.6680908203125 413.4750671386719 517.0371704101562 414.3892822265625 512.5008544921875 C 388.2958679199219 515.6240844726562 409.6006164550781 493.68609619140625 409.4178771972656 472.7255859375 C 390.0111083984375 491.927978515625 375.78253173828125 474.2974853515625 359.4404296875 437.717529296875 C 369.43438720703125 445.3070373535156 386.1786804199219 420.9524841308594 402.2485046386719 441.6437683105469" stroke-width="6.0" fill="none" stroke="rgb(0, 0, 0)" stroke-opacity="1.0" stroke-linecap="round" stroke-linejoin="round"/>
    <path d="M 465.53057861328125 279.38323974609375 C 453.0446472167969 259.48590087890625 454.6957702636719 261.49786376953125 487.01727294921875 256.10418701171875 C 516.232177734375 234.18836975097656 539.4489135742188 251.8959197998047 541.9260864257812 276.5237121582031 C 531.2550659179688 265.6651916503906 547.2237548828125 282.833984375 546.4111328125 266.3311462402344 C 549.3414916992188 265.02392578125 559.0661010742188 239.2436981201172 588.0484619140625 248.58961486816406 C 562.1246337890625 233.45703125 559.505615234375 260.9068908691406 566.3718872070312 245.48548889160156" stroke-width="6.0" fill="none" stroke="rgb(0, 0, 0)" stroke-opacity="1.0" stroke-linecap="round" stroke-linejoin="round"/>
    <path d="M 506.7132873535156 72.79474639892578 C 489.2856140136719 46.144195556640625 493.0877990722656 66.96855926513672 503.3532409667969 53.981178283691406 C 510.0903625488281 42.21299743652344 483.66473388671875 20.608489990234375 451.9868469238281 -5.397042751312256 C 450.083251953125 15.387852668762207 464.142333984375 2.5680134296417236 497.26947021484375 1.1387187242507935 C 500.9376525878906 -30.398048400878906 529.9823608398438 -9.725406646728516 505.28082275390625 -35.21118927001953 C 522.3603515625 -62.34886932373047 511.373779296875 -40.84636306762695 495.2807312011719 -15.579594612121582" stroke-width="6.0" fill="none" stroke="rgb(0, 0, 0)" stroke-opacity="1.0" stroke-linecap="round" stroke-linejoin="round"/>
    <path d="M 497.681640625 366.65655517578125 C 489.90618896484375 390.16668701171875 485.75506591796875 412.4389953613281 460.04339599609375 424.0460205078125 C 458.10198974609375 421.0321350097656 450.8217468261719 394.2048645019531 419.2457275390625 419.9883728027344 C 406.4805908203125 412.7772216796875 416.838134765625 438.73370361328125 441.1620178222656 423.7327575683594 C 449.07196044921875 421.8915100097656 459.6483459472656 419.0822448730469 458.88800048828125 426.221923828125 C 421.2889404296875 433.86053466796875 430.88787841796875 425.18121337890625 448.87640380859375 400.0458679199219" stroke-width="6.0" fill="none" stroke="rgb(0, 0, 0)" stroke-opacity="1.0" stroke-linecap="round" stroke-linejoin="round"/>
    <path d="M 124.44999694824219 585.4710693359375 C 132.29647827148438 580.628173828125 159.8544158935547 571.4945678710938 173.50807189941406 584.354736328125 C 160.98573303222656 586.840087890625 135.7992706298828 566.0120849609375 168.1380157470703 542.9837036132812 C 139.56008911132812 521.389404296875 127.87798309326172 511.7923889160156 156.953857421875 497.609375 C 141.67047119140625 476.3553161621094 148.54888916015625 485.60272216796875 183.10867309570312 464.84033203125 C 187.10655212402344 455.7508850097656 159.63119506835938 443.0433349609375 180.9065704345703 456.73388671875" stroke-width="6.0" fill="none" stroke="rgb(0, 0, 0)" stroke-opacity="1.0" stroke-linecap="round" stroke-linejoin="round"/>
    <path d="M 103.4879150390625 470.4853210449219 C 102.91969299316406 455.7718200683594 75.12751770019531 486.6662902832031 67.52067565917969 473.3008728027344 C 47.55781173706055 450.3266296386719 62.483734130859375 459.88885498046875 46.43440628051758 473.7038879394531 C 46.67552947998047 473.641845703125 49.653411865234375 480.61322021484375 44.03622055053711 475.65960693359375 C 51.300113677978516 462.7120056152344 60.4826774597168 459.25970458984375 51.9157829284668 444.81005859375 C 82.6134262084961 446.7727966308594 78.2485122680664 436.7427062988281 52.2669792175293 446.95831298828125" stroke-width="6.0" fill="none" stroke="rgb(0, 0, 0)" stroke-opacity="1.0" stroke-linecap="round" stroke-linejoin="round"/>
    <path d="M 233.3416748046875 345.5597839355469 C 264.6780090332031 357.5901184082031 259.5823974609375 355.7853698730469 293.50628662109375 360.94744873046875 C 293.61065673828125 349.23809814453125 320.40283203125 368.197265625 300.38232421875 335.0577697753906 C 300.74359130859375 334.3642883300781 258.2561340332031 349.4388427734375 254.73947143554688 324.7738037109375 C 276.6630554199219 312.9870910644531 279.3276062011719 329.13787841796875 292.6351623535156 314.01800537109375 C 295.4144287109375 327.30609130859375 295.1625671386719 311.34259033203125 269.1056213378906 286.9060974121094" stroke-width="6.0" fill="none" stroke="rgb(0, 0, 0)" stroke-opacity="1.0" stroke-linecap="round" stroke-linejoin="round"/>
    <path d="M 298.3158264160156 26.4876651763916 C 309.56146240234375 -6.749719619750977 329.9436340332031 -2.621554136276245 310.17730712890625 -22.353782653808594 C 324.7267150878906 -42.70651626586914 338.91766357421875 -20.849206924438477 320.66644287109375 -44.949527740478516 C 327.40179443359375 -54.91371536254883 331.1844482421875 -74.19895935058594 339.4145202636719 -103.4670181274414 C 327.5694580078125 -116.76174926757812 300.8633117675781 -112.45451354980469 281.696533203125 -106.51598358154297 C 294.0301208496094 -118.24571228027344 283.4079895019531 -101.35536193847656 300.7300109863281 -83.27552032470703" stroke-width="6.0" fill="none" stroke="rgb(0, 0, 0)" stroke-opacity="1.0" stroke-linecap="round" stroke-linejoin="round"/>
    <path d="M 392.64111328125 458.4842224121094 C 377.6929016113281 445.8034362792969 378.6894836425781 424.7755126953125 362.823486328125 430.8040771484375 C 326.50250244140625 412.3709716796875 308.073486328125 422.0513916015625 299.1006164550781 450.66357421875 C 282.1821594238281 462.0718078613281 291.22698974609375 444.62115478515625 243.2153778076172 433.6493835449219 C 262.0504150390625 471.9625244140625 254.87271118164062 463.8866882324219 285.58306884765625 487.0722961425781 C 268.7565002441406 478.1500244140625 259.2694091796875 473.4644775390625 245.55699157714844 473.4272766113281" stroke-width="6.0" fill="none" stroke="rgb(0, 0, 0)" stroke-opacity="1.0" stroke-linecap="round" stroke-linejoin="round"/>
    <path d="M 249.4530792236328 599.2149047851562 C 222.7008819580078 596.3392944335938 223.6151123046875 606.2059936523438 224.08631896972656 586.060791015625 C 221.90753173828125 601.0962524414062 206.20262145996094 576.4962768554688 217.53707885742188 589.9067993164062 C 218.6200408935547 596.650634765625 240.0883331298828 571.1747436523438 227.43603515625 578.9672241210938 C 210.2165069580078 604.9082641601562 192.8594970703125 575.9856567382812 207.7574462890625 549.326904296875 C 204.97140502929688 550.6154174804688 238.2353057861328 567.6148681640625 218.76194763183594 591.3906860351562" stroke-width="6.0" fill="none" stroke="rgb(0, 0, 0)" stroke-opacity="1.0" stroke-linecap="round" stroke-linejoin="round"/>
    <path d="M 387.4813537597656 511.8362121582031 C 408.4173889160156 512.7963256835938 427.8092346191406 534.3413696289062 446.53656005859375 569.6091918945312 C 433.3731994628906 535.1300659179688 403.6717529296875 524.69921875 409.98828125 515.9256591796875 C 396.4520263671875 500.6030578613281 376.4598083496094 488.3435363769531 385.4352722167969 496.1156921386719 C 369.4381103515625 486.9646911621094 363.660400390625 469.0691833496094 393.9646911621094 481.19622802734375 C 385.1815490722656 484.7484436035156 405.3612060546875 510.27899169921875 393.811767578125 495.3028564453125" stroke-width="6.0" fill="none" stroke="rgb(0, 0, 0)" stroke-opacity="1.0" stroke-linecap="round" stroke-linejoin="round"/>
    <path d="M 452.4588928222656 166.5357666015625 C 465.9364929199219 177.33319091796875 494.5127258300781 171.5434112548828 485.20672607421875 180.8842315673828 C 495.839111328125 166.54945373535156 481.6063537597656 172.01071166992188 491.0091247558594 172.30856323242188 C 476.97314453125 174.13339233398438 498.6910095214844 176.50799560546875 470.2628173828125 173.31785583496094 C 502.18939208984375 173.42422485351562 529.371337890625 169.43722534179688 550.1395874023438 205.28240966796875 C 571.947021484375 178.0190887451172 566.8817749023438 174.89593505859375 570.2893676757812 154.1331024169922" stroke-width="6.0" fill="none" stroke="rgb(0, 0, 0)" stroke-opacity="1.0" stroke-linecap="round" stroke-linejoin="round"/>
    <path d="M 111.12600708007812 220.3582000732422 C 117.64192962646484 221.51351928710938 106.05994415283203 251.91709899902344 115.82136535644531 262.1462707519531 C 91.86743927001953 237.53173828125 71.37733459472656 235.90635681152344 105.79359436035156 221.2129364013672 C 97.31954193115234 231.9031219482422 75.29485321044922 252.6900177001953 66.4955825805664 274.55474853515625 C 49.56473159790039 258.0917053222656 17.778045654296875 277.8749084472656 34.534393310546875 268.711669921875 C 21.248144149780273 287.3705749511719 -3.5707125663757324 279.9137268066406 -37.5889892578125 277.6730041503906" stroke-width="6.0" fill="none" stroke="rgb(0, 0, 0)" stroke-opacity="1.0" stroke-linecap="round" stroke-linejoin="round"/>
    <path d="M 144.52877807617188 603.1188354492188 C 134.15057373046875 619.2777709960938 121.82508087158203 644.75732421875 110.0181884765625 654.813232421875 C 131.22122192382812 643.1986083984375 154.29490661621094 669.6774291992188 158.89341735839844 643.0447998046875 C 183.1773223876953 666.3357543945312 172.3019561767578 636.85888671875 162.61277770996094 619.356689453125 C 147.4017333984375 592.7021484375 129.57862854003906 618.590087890625 105.95137023925781 630.6124877929688 C 110.27407836914062 649.7244873046875 122.10652160644531 660.6295776367188 118.54784393310547 668.1317749023438" stroke-width="6.0" fill="none" stroke="rgb(0, 0, 0)" stroke-opacity="1.0" stroke-linecap="round" stroke-linejoin="round"/>
    <path d="M 386.36981201171875 273.582763671875 C 362.008056640625 270.9233093261719 378.2176513671875 245.12796020507812 342.36676025390625 253.88560485839844 C 326.7083435058594 223.82647705078125 307.5070495605469 198.9898681640625 287.61614990234375 188.73731994628906 C 268.3328552246094 201.61976623535156 255.1443328857422 217.97186279296875 229.09326171875 241.54737854003906 C 232.5039825439453 232.84140014648438 197.39718627929688 235.25526428222656 232.96719360351562 245.3376922607422 C 203.22549438476562 265.2230529785156 185.310791015625 279.0652770996094 154.21371459960938 292.8367614746094" stroke-width="6.0" fill="none" stroke="rgb(0, 0, 0)" stroke-opacity="1.0" stroke-linecap="round" stroke-linejoin="round"/>
    <path d="M 408.11529541015625 474.68450927734375 C 390.167236328125 437.2827453613281 406.5644226074219 432.8649597167969 428.6638488769531 412.790771484375 C 464.4151306152344 408.4491271972656 434.11865234375 430.354248046875 429.876708984375 405.8556823730469 C 432.5738830566406 431.1574401855469 463.3160705566406 426.8551330566406 431.9482727050781 409.54095458984375 C 408.52886962890625 387.3888244628906 409.1309509277344 370.78045654296875 433.502685546875 385.5546569824219 C 408.6058044433594 355.7669372558594 415.1323547363281 373.2776794433594 400.5569152832031 388.9542541503906" stroke-width="6.0" fill="none" stroke="rgb(0, 0, 0)" stroke-opacity="1.0" stroke-linecap="round" stroke-linejoin="round"/>
    <path d="M 286.7770080566406 268.23553466796875 C 303.9721984863281 253.11553955078125 300.9708557128906 245.97299194335938 274.2165222167969 274.2888488769531 C 277.7646484375 268.8623352050781 276.1995544433594 256.0679016113281 245.7655029296875 242.794677734375 C 263.1793518066406 258.1329040527344 242.96701049804688 262.0799255371094 230.68020629882812 291.0181579589844 C 209.85400390625 321.31414794921875 228.12258911132812 344.7899475097656 241.5869140625 354.9171142578125 C 215.71986389160156 336.8232421875 197.25645446777344 327.04718017578125 219.3204803466797 345.5181884765625" stroke-width="6.0" fill="none" stroke="rgb(0, 0, 0)" stroke-opacity="1.0" stroke-linecap="round" stroke-linejoin="round"/>
    <path d="M 74.81962585449219 493.6331481933594 C 87.32317352294922 508.6341247558594 63.70268249511719 480.0035705566406 81.3294448852539 501.6274719238281 C 68.33539581298828 530.18798828125 74.7705078125 530.8480224609375 57.9339599609375 528.727294921875 C 54.46989822387695 513.0946044921875 64.79661560058594 506.2081298828125 52.83489990234375 498.55670166015625 C 57.35110092163086 479.9402770996094 56.53423309326172 507.364501953125 59.32118606567383 522.0397338867188 C 60.950599670410156 499.89166259765625 61.90171813964844 485.69219970703125 89.88573455810547 469.58154296875" stroke-width="6.0" fill="none" stroke="rgb(0, 0, 0)" stroke-opacity="1.0" stroke-linecap="round" stroke-linejoin="round"/>
    <path d="M 545.734130859375 428.2696228027344 C 513.06005859375 424.8589172363281 484.88311767578125 441.1964416503906 470.8599548339844 464.45611572265625 C 469.476806640625 484.8439025878906 467.8133239746094 465.93310546875 485.1138610839844 477.0660095214844 C 515.4609985351562 482.76055908203125 531.5455322265625 475.9415588378906 510.5680847167969 483.6344299316406 C 548.0825805664062 473.2765808105469 581.7095947265625 476.6614685058594 565.8125610351562 475.0348205566406 C 557.9195556640625 469.91473388671875 529.52392578125 485.20263671875 553.103759765625 474.938720703125" stroke-width="6.0" fill="none" stroke="rgb(0, 0, 0)" stroke-opacity="1.0" stroke-linecap="round" stroke-linejoin="round"/>
    <path d="M 151.68356323242188 355.0592041015625 C 125.14441680908203 350.4288024902344 115.83142852783203 331.2859191894531 114.89977264404297 347.03912353515625 C 95.278076171875 332.408935546875 90.28756713867188 319.8430480957031 123.88577270507812 297.10455322265625 C 145.98220825195312 305.1236877441406 125.3032455444336 316.1439208984375 142.37490844726562 282.7778015136719 C 153.16078186035156 304.0304260253906 131.71127319335938 310.06298828125 108.41536712646484 324.23760986328125 C 125.62188720703125 310.8054504394531 128.0279541015625 325.6616516113281 165.85940551757812 340.6497802734375" stroke-width="6.0" fill="none" stroke="rgb(0, 0, 0)" stroke-opacity="1.0" stroke-linecap="round" stroke-linejoin="round"/>
    <path d="M 447.8507385253906 465.9606018066406 C 472.2478942871094 484.2156982421875 446.7755126953125 481.7589111328125 423.0677490234375 494.9126281738281 C 418.8995361328125 530.8742065429688 394.2450256347656 509.8152160644531 390.2825622558594 479.7854919433594 C 398.1883544921875 486.05072021484375 383.451171875 507.5197448730469 375.72125244140625 533.3600463867188 C 387.4444885253906 552.0322265625 404.426513671875 575.3707885742188 432.1066589355469 554.682861328125 C 455.2169494628906 560.6344604492188 484.0599670410156 587.0582275390625 485.5112609863281 610.792724609375" stroke-width="6.0" fill="none" stroke="rgb(0, 0, 0)" stroke-opacity="1.0" stroke-linecap="round" stroke-linejoin="round"/>
    <path d="M -4.027463436126709 5.8134942054748535 C 18.503692626953125 5.086970329284668 46.547019958496094 -14.724605560302734 32.51715850830078 18.83409309387207 C 46.4742317199707 17.74146270751953 55.8700065612793 -10.28457260131836 27.914587020874023 -19.216615676879883 C 20.037633895874023 -25.7423038482666 -4.313737869262695 -11.236910820007324 -9.836627006530762 5.287320137023926 C 17.76913070678711 -5.021897315979004 -11.913222312927246 21.019201278686523 18.763113021850586 25.901670455932617 C -1.3825881481170654 16.611045837402344 16.96272087097168 -8.729166030883789 39.17044448852539 20.94239616394043" stroke-width="6.0" fill="none" stroke="rgb(0, 0, 0)" stroke-opacity="1.0" stroke-linecap="round" stroke-linejoin="round"/>
    <path d="M 384.2306213378906 74.1143798828125 C 366.91790771484375 51.48661804199219 350.6822509765625 36.09260559082031 348.8509826660156 30.094152450561523 C 364.5346984863281 16.953262329101562 352.392822265625 23.77725601196289 342.2753601074219 38.13337707519531 C 322.6640319824219 53.06075668334961 322.8614501953125 59.13389205932617 348.4867248535156 86.59378051757812 C 334.383056640625 96.17606353759766 337.7989501953125 115.75448608398438 344.6933288574219 123.8584213256836 C 369.4301452636719 102.0509033203125 383.5073547363281 109.20567321777344 376.1446228027344 116.56907653808594" stroke-width="6.0" fill="none" stroke="rgb(0, 0, 0)" stroke-opacity="1.0" stroke-linecap="round" stroke-linejoin="round"/>
    <path d="M 483.51910400390625 579.9059448242188 C 496.8627624511719 571.3087768554688 512.2687377929688 561.7020263671875 523.408935546875 566.63720703125 C 518.1984252929688 550.8489379882812 532.031005859375 543.1174926757812 528.1185302734375 501.19140625 C 548.467041015625 487.9378356933594 554.7264404296875 496.10174560546875 552.6436767578125 492.2769775390625 C 537.1982421875 519.4569091796875 562.286865234375 541.5306396484375 560.4027709960938 556.9841918945312 C 542.070556640625 562.3790283203125 520.4885864257812 566.0255737304688 549.9566040039062 580.3615112304688" stroke-width="6.0" fill="none" stroke="rgb(0, 0, 0)" stroke-opacity="1.0" stroke-linecap="round" stroke-linejoin="round"/>
    <path d="M 528.5608520507812 411.5723571777344 C 540.7561645507812 391.5755920410156 568.5557861328125 403.6061096191406 564.4660034179688 399.5987548828125 C 583.4591064453125 422.0775451660156 578.61279296875 425.68646240234375 546.6593627929688 446.5908508300781 C 577.1616821289062 459.24835205078125 602.8817138671875 460.9160461425781 631.4201049804688 448.1663818359375 C 625.9407958984375 435.6776123046875 596.7756958007812 420.10113525390625 577.416259765625 424.6232604980469 C 568.1508178710938 399.9315185546875 581.0436401367188 408.2666320800781 578.8829345703125 407.1944274902344" stroke-width="6.0" fill="none" stroke="rgb(0, 0, 0)" stroke-opacity="1.0" stroke-linecap="round" stroke-linejoin="round"/>
    <path d="M 467.1327819824219 490.38330078125 C 505.34912109375 493.61822509765625 512.7161865234375 500.507568359375 506.56475830078125 489.4320983886719 C 515.1614990234375 518.9774780273438 537.110107421875 527.5025634765625 526.6370849609375 542.3140258789062 C 523.909912109375 561.5706787109375 496.7392883300781 541.115966796875 507.7435302734375 519.5294799804688 C 539.4446411132812 509.4692077636719 559.1694946289062 517.7931518554688 582.996826171875 515.2046508789062 C 607.1780395507812 500.67681884765625 612.8947143554688 510.3925476074219 567.379638671875 494.3782958984375" stroke-width="6.0" fill="none" stroke="rgb(0, 0, 0)" stroke-opacity="1.0" stroke-linecap="round" stroke-linejoin="round"/>
    <path d="M 469.4668273925781 419.01409912109375 C 501.240966796875 415.5640869140625 508.44720458984375 407.1778564453125 498.41168212890625 406.7553405761719 C 512.4366455078125 372.0035095214844 510.6020812988281 384.066162109375 539.17578125 382.63006591796875 C 526.74365234375 377.96826171875 517.7893676757812 380.15423583984375 493.87994384765625 391.1710205078125 C 511.03033447265625 430.58795166015625 507.1982727050781 399.3673095703125 481.1456604003906 406.7574768066406 C 462.4461975097656 387.8154296875 463.9767761230469 389.3690490722656 462.1163330078125 423.897705078125" stroke-width="6.0" fill="none" stroke="rgb(0, 0, 0)" stroke-opacity="1.0" stroke-linecap="round" stroke-linejoin="round"/>
    <path d="M 191.19708251953125 182.003173828125 C 191.53868103027344 185.39120483398438 198.3373565673828 179.76678466796875 175.7743377685547 179.82740783691406 C 152.49742126464844 182.12081909179688 129.7102813720703 174.5670623779297 151.42018127441406 159.27354431152344 C 178.15371704101562 144.4307098388672 148.0933074951172 130.99513244628906 115.1347885131836 136.2339630126953 C 108.38198852539062 136.4459228515625 96.67646026611328 128.10086059570312 112.96538543701172 132.9847869873047 C 144.21328735351562 132.6837615966797 157.31298828125 139.10533142089844 159.5844268798828 124.36772155761719" stroke-width="6.0" fill="none" stroke="rgb(0, 0, 0)" stroke-opacity="1.0" stroke-linecap="round" stroke-linejoin="round"/>
    <path d="M 242.6782989501953 579.4223022460938 C 253.17950439453125 623.36962890625 244.2408905029297 617.223876953125 262.1497497558594 632.1517944335938 C 244.04869079589844 634.7613525390625 214.81710815429688 620.3890380859375 220.62213134765625 616.0067749023438 C 242.36077880859375 613.7988891601562 225.5008087158203 592.83935546875 203.9810028076172 576.3129272460938 C 186.48007202148438 592.2808837890625 156.16119384765625 574.4459838867188 146.98255920410156 562.6908569335938 C 170.29783630371094 550.3433837890625 156.7435302734375 525.3617553710938 179.9370880126953 515.5758666992188" stroke-width="6.0" fill="none" stroke="rgb(0, 0, 0)" stroke-opacity="1.0" stroke-linecap="round" stroke-linejoin="round"/>
    <path d="M 448.8644714355469 469.3143615722656 C 407.5935974121094 449.9765625 414.2173156738281 461.9709167480469 403.7365417480469 454.3647766113281 C 420.19873046875 456.77593994140625 416.8929443359375 437.4150390625 432.9009704589844 413.65264892578125 C 433.0762634277344 419.99713134765625 410.24981689453125 437.3714599609375 430.1271057128906 424.15484619140625 C 396.9671630859375 433.5209045410156 402.7955627441406 407.27496337890625 427.72967529296875 416.64276123046875 C 450.4608459472656 408.5887756347656 449.8424987792969 401.6302185058594 441.7064208984375 393.28448486328125" stroke-width="6.0" fill="none" stroke="rgb(0, 0, 0)" stroke-opacity="1.0" stroke-linecap="round" stroke-linejoin="round"/>
    <path d="M -3.4434852600097656 356.22515869140625 C 8.98255729675293 365.4227294921875 2.891284704208374 355.1214904785156 26.742788314819336 383.928466796875 C 3.698899030685425 401.2684020996094 -6.560511589050293 378.9743957519531 -36.890106201171875 373.7677917480469 C -23.929847717285156 345.3538513183594 -32.356239318847656 363.4593505859375 -11.005816459655762 338.1760559082031 C 15.452715873718262 351.3508605957031 20.83312225341797 321.2575378417969 22.456085205078125 324.5427551269531 C 44.599605560302734 305.03387451171875 19.217262268066406 327.1987609863281 -0.00731502752751112 347.7442626953125" stroke-width="6.0" fill="none" stroke="rgb(0, 0, 0)" stroke-opacity="1.0" stroke-linecap="round" stroke-linejoin="round"/>
    <path d="M 292.38873291015625 486.36932373046875 C 318.2910461425781 480.8808288574219 336.1932678222656 490.8702087402344 335.1304626464844 484.2644958496094 C 364.92333984375 448.6883850097656 362.60369873046875 421.4629211425781 316.9307861328125 416.501708984375 C 317.219970703125 394.4993896484375 343.5769958496094 405.32672119140625 345.5072937011719 401.51458740234375 C 359.0252380371094 397.28692626953125 335.4031066894531 384.90130615234375 358.0871276855469 389.5924072265625 C 335.7527770996094 374.1936340332031 314.4658508300781 362.7899169921875 350.6860046386719 373.7772216796875" stroke-width="6.0" fill="none" stroke="rgb(0, 0, 0)" stroke-opacity="1.0" stroke-linecap="round" stroke-linejoin="round"/>
  </g>
</svg>
