<?xml version="1.0" ?>
<svg xmlns="http://www.w3.org/2000/svg" version="1.1" width="600" height="600">
  <defs/>
  <g>
    <path d="M 385.3868103027344 312.6816711425781 C 382.65863037109375 301.7920837402344 386.1188049316406 328.2917175292969 344.5578918457031 362.7993469238281 C 328.3240661621094 378.21881103515625 325.0508728027344 376.02001953125 385.6583251953125 380.81292724609375 C 379.29962158203125 330.14898681640625 363.9018859863281 316.0713195800781 372.1355285644531 323.7971496582031 C 368.4465026855469 315.2974548339844 391.6078186035156 331.7250671386719 385.3868103027344 312.6816711425781" stroke-width="0.0" fill="rgb(0, 11, 37)" opacity="0.82272446"/>
    <path d="M 621.0711059570312 547.4060668945312 C 597.0773315429688 553.9977416992188 585.6350708007812 543.2899169921875 566.4358520507812 531.994140625 C 584.9734497070312 485.2257080078125 564.9950561523438 470.9373474121094 593.7069702148438 471.9696350097656 C 592.938232421875 456.3742980957031 608.4736938476562 447.7653503417969 601.0249633789062 393.8865966796875 C 649.8245849609375 393.4085998535156 648.1738891601562 398.8538513183594 621.0711059570312 547.4060668945312" stroke-width="0.0" fill="rgb(9, 47, 0)" opacity="0.8974801"/>
    <path d="M 139.71670532226562 182.9545440673828 C 140.952880859375 214.14755249023438 181.421875 204.46673583984375 136.89564514160156 183.6790771484375 C 174.51431274414062 179.69839477539062 170.91864013671875 173.70669555664062 147.0697479248047 146.15530395507812 C 146.37628173828125 158.1961212158203 146.51522827148438 174.25592041015625 174.6004180908203 169.24505615234375 C 165.39720153808594 164.50161743164062 164.09439086914062 165.7604522705078 139.71670532226562 182.9545440673828" stroke-width="0.0" fill="rgb(158, 198, 83)" opacity="0.23114462"/>
    <path d="M 660.4237670898438 59.78443908691406 C 605.9217529296875 203.7557373046875 536.4515380859375 213.95068359375 515.548828125 127.2933120727539 C 486.6326904296875 119.89517974853516 513.2733764648438 142.72708129882812 504.7257995605469 98.26087188720703 C 513.8743286132812 102.03824615478516 500.3684997558594 117.67119598388672 516.2913208007812 16.00092124938965 C 608.9841918945312 5.634982109069824 635.4894409179688 14.675996780395508 660.4237670898438 59.78443908691406" stroke-width="0.0" fill="rgb(30, 129, 135)" opacity="0.84275734"/>
    <path d="M 580.5740966796875 262.7210998535156 C 551.5487670898438 423.2630615234375 471.2275085449219 430.6107482910156 366.8326416015625 395.2392578125 C 337.3050537109375 358.3197937011719 343.927734375 368.72314453125 362.8145751953125 323.7738952636719 C 362.7950744628906 272.4274597167969 359.4630432128906 291.57061767578125 362.91668701171875 246.57395935058594 C 356.8488464355469 217.08944702148438 427.9582824707031 225.715576171875 580.5740966796875 262.7210998535156" stroke-width="0.0" fill="rgb(196, 82, 0)" opacity="1.0"/>
    <path d="M 556.7249145507812 526.93994140625 C 552.382080078125 595.0469360351562 530.3760986328125 595.6825561523438 504.6104736328125 616.0317993164062 C 419.72100830078125 653.184326171875 396.7459411621094 641.3056030273438 389.775634765625 544.4203491210938 C 450.3653564453125 545.5467529296875 497.334716796875 531.9268188476562 490.7879333496094 533.8386840820312 C 503.2887268066406 535.6851196289062 514.9348754882812 539.7903442382812 556.7249145507812 526.93994140625" stroke-width="0.0" fill="rgb(8, 144, 201)" opacity="0.98506916"/>
    <path d="M 212.51510620117188 252.87420654296875 C 183.49673461914062 305.08795166015625 192.36697387695312 326.4053955078125 185.71144104003906 342.155029296875 C 141.57858276367188 312.9476318359375 109.16758728027344 283.6943054199219 147.80543518066406 288.7339782714844 C 183.36058044433594 272.6407165527344 165.3341827392578 251.3138427734375 118.72415161132812 248.12985229492188 C 146.12303161621094 252.82949829101562 164.83067321777344 242.96803283691406 212.51510620117188 252.87420654296875" stroke-width="0.0" fill="rgb(43, 255, 227)" opacity="0.036708094"/>
    <path d="M 328.4244079589844 169.23507690429688 C 291.6341857910156 196.473876953125 279.7033996582031 198.66539001464844 188.61256408691406 197.11402893066406 C 130.78875732421875 92.71145629882812 152.4033966064453 100.03439331054688 176.0190887451172 116.43820190429688 C 190.62022399902344 140.3918914794922 210.01248168945312 130.19761657714844 284.7791748046875 145.32237243652344 C 304.86895751953125 144.50250244140625 339.5400390625 129.93284606933594 328.4244079589844 169.23507690429688" stroke-width="0.0" fill="rgb(34, 171, 208)" opacity="0.72214377"/>
    <path d="M 463.25140380859375 392.70703125 C 474.459716796875 451.3077697753906 460.7350158691406 461.90081787109375 417.5372619628906 453.1679382324219 C 355.7008056640625 468.32830810546875 354.6719665527344 395.2942810058594 360.37908935546875 364.2494812011719 C 407.07257080078125 352.76776123046875 466.46710205078125 330.9364929199219 539.9219360351562 316.8844299316406 C 420.0644836425781 433.51519775390625 407.4829406738281 378.6476135253906 463.25140380859375 392.70703125" stroke-width="0.0" fill="rgb(92, 29, 5)" opacity="0.9109802"/>
    <path d="M 113.19874572753906 86.82422637939453 C 109.39105224609375 121.56002044677734 70.83241271972656 107.71819305419922 55.29316329956055 136.5091094970703 C 10.804499626159668 132.0722198486328 12.438519477844238 120.07073974609375 19.230819702148438 72.57892608642578 C 34.545692443847656 53.57539367675781 45.927955627441406 69.65999603271484 79.5734634399414 79.3335952758789 C 78.15924835205078 45.494163513183594 82.73654174804688 58.224273681640625 113.19874572753906 86.82422637939453" stroke-width="0.0" fill="rgb(34, 82, 28)" opacity="0.85237175"/>
    <path d="M 336.6833190917969 530.0617065429688 C 329.025146484375 524.4557495117188 309.89569091796875 542.0321655273438 224.6424102783203 557.119873046875 C 163.6856231689453 496.0528564453125 143.17208862304688 398.94940185546875 252.27098083496094 385.42462158203125 C 303.7969970703125 438.3418884277344 299.389892578125 454.0840148925781 307.0467834472656 452.2264404296875 C 318.36395263671875 435.440185546875 340.5316467285156 467.512939453125 336.6833190917969 530.0617065429688" stroke-width="0.0" fill="rgb(142, 172, 61)" opacity="0.7301622"/>
    <path d="M 297.6851501464844 407.5528869628906 C 351.10528564453125 442.89794921875 332.00958251953125 444.5122375488281 189.813232421875 436.6581115722656 C 218.15237426757812 387.36346435546875 221.79409790039062 387.150634765625 215.6977081298828 393.8950500488281 C 177.42620849609375 391.8168029785156 167.18911743164062 365.3067626953125 206.19276428222656 372.7094421386719 C 223.08253479003906 386.5787353515625 237.9291229248047 401.9057312011719 297.6851501464844 407.5528869628906" stroke-width="0.0" fill="rgb(105, 42, 23)" opacity="0.9926476"/>
    <path d="M 454.20697021484375 66.98365783691406 C 393.4054260253906 97.65925598144531 426.7696533203125 129.8599853515625 472.5603942871094 131.1581268310547 C 432.7610168457031 113.1039047241211 426.6590576171875 104.37640380859375 412.166259765625 76.53018951416016 C 388.0650939941406 21.326400756835938 369.79010009765625 39.727264404296875 435.0810546875 40.39369201660156 C 487.20184326171875 22.929967880249023 462.275390625 30.130685806274414 454.20697021484375 66.98365783691406" stroke-width="0.0" fill="rgb(139, 213, 109)" opacity="0.52050734"/>
    <path d="M 324.40093994140625 342.0793151855469 C 245.98680114746094 332.93829345703125 249.8815460205078 330.9430847167969 252.35531616210938 334.57568359375 C 261.1253967285156 352.36810302734375 277.2231140136719 352.9724426269531 287.14434814453125 335.8359680175781 C 330.5018005371094 350.9617919921875 277.40679931640625 319.9522399902344 280.4986267089844 300.61785888671875 C 283.9451599121094 256.55401611328125 371.76092529296875 327.0987243652344 324.40093994140625 342.0793151855469" stroke-width="0.0" fill="rgb(10, 0, 3)" opacity="0.99725294"/>
    <path d="M 587.6482543945312 475.7410888671875 C 579.8176879882812 540.7098388671875 600.4954833984375 530.95458984375 595.2457885742188 546.6926879882812 C 564.9295043945312 578.3298950195312 526.0194091796875 567.270263671875 537.1016235351562 504.6845397949219 C 524.9451293945312 477.8540344238281 529.4255981445312 469.7547912597656 536.3009033203125 467.24163818359375 C 561.5611572265625 483.9153747558594 577.2788696289062 480.1524963378906 587.6482543945312 475.7410888671875" stroke-width="0.0" fill="rgb(41, 254, 157)" opacity="0.5119871"/>
    <path d="M 68.41618347167969 410.85211181640625 C 76.12935638427734 424.3966979980469 88.89241790771484 435.0316162109375 85.91764068603516 456.65679931640625 C 66.04283905029297 444.0079650878906 52.17940139770508 426.5590515136719 31.55674934387207 412.0869140625 C 64.24855041503906 406.7708435058594 82.18846893310547 421.2757873535156 85.62551879882812 430.1180114746094 C 65.76853942871094 432.8343811035156 77.85002136230469 421.175048828125 68.41618347167969 410.85211181640625" stroke-width="0.0" fill="rgb(193, 255, 64)" opacity="0.0026700003"/>
    <path d="M 634.4906616210938 130.8211212158203 C 614.4424438476562 182.26174926757812 597.6538696289062 179.1723175048828 568.9158325195312 142.3519744873047 C 585.32177734375 48.38789749145508 589.3673706054688 27.945966720581055 561.2335205078125 20.70765495300293 C 513.374755859375 48.49683380126953 514.2083740234375 -11.57341194152832 534.240234375 -8.726335525512695 C 597.8189697265625 -22.805997848510742 617.0906982421875 -20.79522132873535 634.4906616210938 130.8211212158203" stroke-width="0.0" fill="rgb(0, 2, 0)" opacity="1.0"/>
    <path d="M 248.34349060058594 295.1141052246094 C 260.84808349609375 303.8338928222656 260.1106872558594 313.3841247558594 239.89195251464844 330.9906311035156 C 220.03164672851562 353.82025146484375 199.93016052246094 310.9687194824219 222.4851837158203 311.185302734375 C 236.3511962890625 294.6171875 237.64382934570312 284.29742431640625 232.3533172607422 291.7556457519531 C 244.28880310058594 282.88250732421875 240.9238739013672 290.0738830566406 248.34349060058594 295.1141052246094" stroke-width="0.0" fill="rgb(147, 7, 8)" opacity="0.7912391"/>
    <path d="M 297.05535888671875 1.9518516063690186 C 340.7060852050781 164.7117156982422 340.5672912597656 121.32719421386719 265.4056396484375 100.64315795898438 C 196.02529907226562 100.81157684326172 155.30169677734375 116.6313705444336 165.04261779785156 80.47061157226562 C 224.593505859375 74.88118743896484 217.7915802001953 91.77691650390625 192.1771240234375 3.3248729705810547 C 221.22671508789062 -13.517491340637207 247.91323852539062 -32.078956604003906 297.05535888671875 1.9518516063690186" stroke-width="0.0" fill="rgb(16, 154, 171)" opacity="0.9288989"/>
    <path d="M 367.1460876464844 207.2160186767578 C 323.6017150878906 208.4188690185547 274.6354675292969 201.82606506347656 281.0179138183594 215.32351684570312 C 323.39068603515625 214.75196838378906 307.2931823730469 229.65931701660156 300.3904724121094 215.8795928955078 C 295.5836181640625 206.6088104248047 326.251220703125 214.78924560546875 269.1562805175781 192.6204071044922 C 357.62799072265625 185.27272033691406 370.0754089355469 191.7455596923828 367.1460876464844 207.2160186767578" stroke-width="0.0" fill="rgb(91, 212, 23)" opacity="0.1680181"/>
    <path d="M 577.4349975585938 26.675426483154297 C 601.7981567382812 101.72251892089844 603.3729858398438 193.1543426513672 522.2700805664062 193.15748596191406 C 417.4538269042969 159.32896423339844 444.2706604003906 129.2463836669922 401.0118408203125 5.059351444244385 C 399.7500305175781 -31.912378311157227 441.65911865234375 -40.84357452392578 520.5365600585938 -27.94124412536621 C 548.1541748046875 11.457050323486328 544.2277221679688 24.381011962890625 577.4349975585938 26.675426483154297" stroke-width="0.0" fill="rgb(49, 160, 165)" opacity="1.0"/>
    <path d="M 15.586553573608398 194.6116485595703 C 5.179566383361816 221.20187377929688 -0.8140955567359924 240.7889862060547 34.26401138305664 257.3996887207031 C -15.360250473022461 249.98760986328125 -46.9953498840332 266.1772155761719 -42.702205657958984 195.316162109375 C -32.32448196411133 115.23932647705078 -17.624637603759766 110.4426498413086 31.8383846282959 126.82649230957031 C 27.10959243774414 153.1838836669922 6.805770397186279 149.24813842773438 15.586553573608398 194.6116485595703" stroke-width="0.0" fill="rgb(5, 38, 39)" opacity="0.994581"/>
    <path d="M 105.25497436523438 31.842966079711914 C 98.24785614013672 34.24745178222656 60.11958694458008 38.29477310180664 60.26144027709961 98.47362518310547 C 22.180118560791016 107.86127471923828 28.175546646118164 134.7906951904297 -5.635566711425781 129.79678344726562 C -23.61894416809082 -14.568730354309082 -17.721525192260742 -20.642112731933594 92.97332000732422 -33.30343246459961 C 124.02108764648438 -20.96624183654785 128.1096954345703 -9.381226539611816 105.25497436523438 31.842966079711914" stroke-width="0.0" fill="rgb(2, 2, 1)" opacity="0.98945653"/>
    <path d="M 66.7984848022461 307.81976318359375 C 113.16059112548828 282.3970947265625 111.06954956054688 256.63543701171875 0.9113662242889404 264.5003356933594 C 17.415000915527344 232.2633056640625 37.74814987182617 220.53819274902344 52.35728073120117 264.7991027832031 C 25.089170455932617 303.62310791015625 31.839366912841797 271.9090270996094 49.03939437866211 279.185302734375 C 14.832820892333984 283.60418701171875 27.835121154785156 298.92462158203125 66.7984848022461 307.81976318359375" stroke-width="0.0" fill="rgb(143, 166, 100)" opacity="0.43743002"/>
    <path d="M 439.43231201171875 462.12841796875 C 445.7985534667969 462.6139831542969 459.9796447753906 437.5797119140625 470.1375732421875 474.2806091308594 C 476.3859558105469 557.1776123046875 496.17291259765625 545.4783325195312 391.6001892089844 537.0144653320312 C 337.4109191894531 511.9444274902344 346.8441162109375 484.6681823730469 433.9100036621094 430.448974609375 C 470.8994140625 441.479736328125 445.5091552734375 456.3631896972656 439.43231201171875 462.12841796875" stroke-width="0.0" fill="rgb(20, 237, 170)" opacity="0.37885487"/>
    <path d="M 507.38946533203125 529.3728637695312 C 493.8605041503906 541.0369262695312 485.5423278808594 544.5203857421875 483.1427307128906 518.9277954101562 C 473.0675048828125 554.3847045898438 483.2157897949219 534.087158203125 491.7845153808594 545.9530639648438 C 464.9126281738281 520.1512451171875 488.91107177734375 498.28985595703125 547.3062133789062 498.2892761230469 C 529.8802490234375 533.3024291992188 540.0439453125 560.5555419921875 507.38946533203125 529.3728637695312" stroke-width="0.0" fill="rgb(110, 255, 255)" opacity="0.035741623"/>
    <path d="M 540.3291625976562 475.520751953125 C 508.0734558105469 477.7615966796875 503.51153564453125 459.24603271484375 540.0419921875 439.1471862792969 C 534.6820678710938 489.4924011230469 519.3641357421875 502.34979248046875 552.2882080078125 479.55755615234375 C 505.5103454589844 455.1910095214844 510.77618408203125 398.1743469238281 486.1189270019531 478.2594909667969 C 517.8523559570312 495.4368896484375 533.3132934570312 508.54833984375 540.3291625976562 475.520751953125" stroke-width="0.0" fill="rgb(145, 255, 255)" opacity="0.13281827"/>
    <path d="M 611.0203247070312 557.6332397460938 C 600.7196044921875 658.0929565429688 580.45458984375 651.0745849609375 553.70947265625 642.1826171875 C 518.2254638671875 614.6860961914062 513.0708618164062 606.6376953125 502.6508483886719 636.7499389648438 C 507.35748291015625 617.3731079101562 522.7903442382812 611.7051391601562 527.8546752929688 530.0780639648438 C 542.6205444335938 513.3750610351562 578.603515625 523.3817749023438 611.0203247070312 557.6332397460938" stroke-width="0.0" fill="rgb(91, 108, 175)" opacity="0.89486164"/>
    <path d="M 666.7930297851562 454.16876220703125 C 649.7147216796875 489.90142822265625 632.3805541992188 512.1676635742188 610.4382934570312 516.6593627929688 C 567.2766723632812 554.2876586914062 571.3016967773438 506.63043212890625 550.0198364257812 469.6300354003906 C 565.011962890625 455.7204895019531 541.86328125 478.64068603515625 583.258056640625 520.0733642578125 C 651.0316162109375 488.36419677734375 653.982421875 481.43280029296875 666.7930297851562 454.16876220703125" stroke-width="0.0" fill="rgb(29, 162, 174)" opacity="0.36515993"/>
    <path d="M 434.8275146484375 108.513671875 C 428.911865234375 131.36521911621094 431.1153564453125 126.23401641845703 447.14593505859375 206.24586486816406 C 354.005126953125 219.24649047851562 302.44561767578125 216.5138702392578 283.753662109375 219.76052856445312 C 332.9011535644531 68.81576538085938 334.3607177734375 74.10243225097656 366.2161560058594 93.76134490966797 C 420.46942138671875 111.49181365966797 455.08892822265625 99.38400268554688 434.8275146484375 108.513671875" stroke-width="0.0" fill="rgb(59, 139, 224)" opacity="0.887514"/>
    <path d="M 213.02313232421875 259.6453552246094 C 237.87777709960938 266.8329162597656 222.2206573486328 251.24163818359375 200.95252990722656 286.94232177734375 C 131.55502319335938 292.2403259277344 153.7903289794922 270.976318359375 205.88223266601562 273.84307861328125 C 223.11923217773438 274.82293701171875 220.39065551757812 271.3742980957031 229.72361755371094 221.2609405517578 C 207.03067016601562 200.52210998535156 223.20547485351562 212.1014404296875 213.02313232421875 259.6453552246094" stroke-width="0.0" fill="rgb(232, 243, 195)" opacity="0.034872744"/>
    <path d="M 591.8499755859375 530.25146484375 C 546.40380859375 579.2484130859375 495.8520812988281 566.256591796875 512.3983154296875 576.1522216796875 C 539.578857421875 597.2933349609375 497.25274658203125 560.6524658203125 519.8206176757812 567.0299682617188 C 514.6707763671875 539.7832641601562 512.5853881835938 536.2412109375 524.7587280273438 544.9315795898438 C 579.0286865234375 513.3333129882812 583.0674438476562 497.38262939453125 591.8499755859375 530.25146484375" stroke-width="0.0" fill="rgb(1, 155, 168)" opacity="0.8224833"/>
    <path d="M 383.2529296875 378.4020690917969 C 422.2764892578125 426.98345947265625 401.26495361328125 437.3948669433594 361.93353271484375 431.8960266113281 C 362.6487731933594 403.2117614746094 357.194091796875 423.24786376953125 332.052001953125 398.98602294921875 C 318.64825439453125 372.9295654296875 339.9916687011719 368.5814514160156 352.85845947265625 378.5638122558594 C 355.8526611328125 371.4864196777344 381.9632873535156 370.4773254394531 383.2529296875 378.4020690917969" stroke-width="0.0" fill="rgb(137, 19, 0)" opacity="0.42536193"/>
    <path d="M 615.4617919921875 1.6025334596633911 C 615.3991088867188 32.11508560180664 599.3096923828125 19.7222843170166 614.82763671875 39.3348503112793 C 572.5394287109375 26.78893280029297 537.3795776367188 11.936735153198242 489.4698791503906 21.4322509765625 C 498.99591064453125 -55.08804702758789 484.3724365234375 -84.01378631591797 502.21600341796875 -94.01844024658203 C 576.468994140625 -26.425983428955078 578.7735595703125 -14.233607292175293 615.4617919921875 1.6025334596633911" stroke-width="0.0" fill="rgb(0, 0, 0)" opacity="0.9910787"/>
    <path d="M 263.8607482910156 107.62974548339844 C 256.70721435546875 87.16792297363281 256.4637145996094 94.638671875 253.0369110107422 136.96624755859375 C 243.37722778320312 91.8091812133789 229.69081115722656 92.18831634521484 232.1136474609375 78.64860534667969 C 219.28858947753906 83.25373840332031 208.9462890625 81.89374542236328 316.5558166503906 110.88874816894531 C 281.7271728515625 119.54097747802734 277.7480773925781 114.73368072509766 263.8607482910156 107.62974548339844" stroke-width="0.0" fill="rgb(0, 234, 145)" opacity="0.016682677"/>
    <path d="M 545.6790771484375 424.8121337890625 C 508.7738342285156 441.9539794921875 487.9037170410156 440.6275329589844 456.0634460449219 466.0616149902344 C 353.2295837402344 486.0923767089844 261.07989501953125 422.1446533203125 362.2008361816406 388.8246154785156 C 425.3515930175781 375.21051025390625 447.39007568359375 370.9340515136719 516.1309814453125 335.3990478515625 C 596.09423828125 257.50286865234375 588.5369873046875 310.17327880859375 545.6790771484375 424.8121337890625" stroke-width="0.0" fill="rgb(255, 197, 9)" opacity="1.0"/>
    <path d="M 588.0081787109375 142.3751678466797 C 616.3748779296875 184.8484344482422 602.50439453125 203.14808654785156 545.3617553710938 199.36500549316406 C 425.51165771484375 175.92161560058594 417.48956298828125 161.4041290283203 411.5335388183594 118.20648193359375 C 451.9602966308594 110.41343688964844 463.6182861328125 140.03024291992188 552.2843627929688 152.4703369140625 C 602.7572631835938 76.51656341552734 551.224853515625 75.13655090332031 588.0081787109375 142.3751678466797" stroke-width="0.0" fill="rgb(22, 158, 203)" opacity="0.24916486"/>
    <path d="M 365.5602722167969 377.548828125 C 365.09344482421875 399.5771789550781 359.6478271484375 415.58966064453125 344.92181396484375 421.7590026855469 C 282.42120361328125 399.8983154296875 284.5926818847656 394.44305419921875 267.8982238769531 380.6827697753906 C 305.9010925292969 379.0792236328125 319.03173828125 375.39990234375 350.54876708984375 349.01910400390625 C 357.87701416015625 341.4162292480469 351.8936462402344 337.29779052734375 365.5602722167969 377.548828125" stroke-width="0.0" fill="rgb(0, 0, 6)" opacity="1.0"/>
    <path d="M 131.61642456054688 60.31018829345703 C 93.99606323242188 48.67151641845703 101.01023864746094 50.22664260864258 113.57413482666016 52.99565505981445 C 112.80986022949219 49.40773010253906 106.0423355102539 16.076135635375977 100.73995208740234 64.2243881225586 C 91.14104461669922 61.60044479370117 96.3573989868164 48.06898880004883 98.50664520263672 46.24791717529297 C 116.73670196533203 47.6257209777832 137.71995544433594 40.83158874511719 131.61642456054688 60.31018829345703" stroke-width="0.0" fill="rgb(59, 84, 29)" opacity="0.64943844"/>
    <path d="M 76.41624450683594 327.827392578125 C 90.28569030761719 313.567626953125 105.30845642089844 294.1287841796875 120.48043060302734 294.8099365234375 C 73.82205200195312 301.996337890625 63.779876708984375 302.0852355957031 74.3843765258789 268.2142333984375 C 29.72959327697754 274.8423156738281 35.70273208618164 334.0466613769531 80.5229263305664 322.9726867675781 C 71.32208251953125 326.9460754394531 76.68035888671875 309.9637145996094 76.41624450683594 327.827392578125" stroke-width="0.0" fill="rgb(63, 162, 182)" opacity="0.3554249"/>
    <path d="M 433.2311706542969 475.9052429199219 C 403.292236328125 513.4761352539062 419.2366027832031 535.1334228515625 395.5674743652344 569.5053100585938 C 419.10943603515625 538.6743774414062 416.45465087890625 530.8104248046875 420.3549499511719 550.7791748046875 C 393.3412170410156 547.2007446289062 415.5765686035156 544.6751708984375 530.88916015625 533.7608642578125 C 542.8111572265625 438.5197448730469 524.545654296875 440.2478332519531 433.2311706542969 475.9052429199219" stroke-width="0.0" fill="rgb(19, 249, 181)" opacity="0.4394907"/>
    <path d="M 311.5427551269531 438.046630859375 C 260.1883239746094 438.51806640625 263.3734436035156 446.12481689453125 276.07421875 453.628662109375 C 256.95306396484375 456.8813171386719 258.1047058105469 497.6653747558594 312.1722412109375 500.32916259765625 C 345.99676513671875 484.01458740234375 333.0443115234375 440.12841796875 315.54608154296875 442.351806640625 C 312.7204284667969 448.510986328125 319.8185119628906 453.1744384765625 311.5427551269531 438.046630859375" stroke-width="0.0" fill="rgb(223, 98, 0)" opacity="0.6410964"/>
    <path d="M 578.2984008789062 529.4954223632812 C 555.8335571289062 568.026123046875 532.815673828125 590.2814331054688 494.81329345703125 649.9856567382812 C 489.44451904296875 611.6509399414062 501.0534362792969 541.6807250976562 498.9847717285156 534.22021484375 C 537.6180419921875 528.2339477539062 555.798583984375 514.173583984375 529.6536865234375 530.6561889648438 C 532.628173828125 523.8945922851562 546.2219848632812 491.4743957519531 578.2984008789062 529.4954223632812" stroke-width="0.0" fill="rgb(17, 145, 190)" opacity="0.7023016"/>
    <path d="M 124.09134674072266 336.8617858886719 C 189.47640991210938 372.6376647949219 168.725341796875 412.177001953125 45.74755859375 436.9891357421875 C -52.627872467041016 405.30828857421875 -66.65189361572266 390.5688171386719 -78.94953155517578 284.1352844238281 C -27.396142959594727 243.7873077392578 17.669963836669922 259.1098937988281 34.343238830566406 253.6387176513672 C 81.29052734375 270.7913818359375 46.94589614868164 244.89950561523438 124.09134674072266 336.8617858886719" stroke-width="0.0" fill="rgb(0, 163, 198)" opacity="0.98598045"/>
    <path d="M 165.5003204345703 111.32780456542969 C 156.73606872558594 206.0828857421875 153.1441650390625 172.08456420898438 107.97052764892578 122.3947982788086 C 49.73488235473633 157.09417724609375 33.874935150146484 190.0492706298828 47.030853271484375 130.21592712402344 C 34.68349838256836 75.07845306396484 35.33393478393555 59.10084915161133 132.0945281982422 61.15530776977539 C 181.83712768554688 67.62442779541016 185.1101531982422 81.70333862304688 165.5003204345703 111.32780456542969" stroke-width="0.0" fill="rgb(11, 146, 183)" opacity="0.9048898"/>
    <path d="M 433.7549743652344 466.99127197265625 C 414.4143371582031 448.1446838378906 386.92559814453125 463.9832763671875 377.4906311035156 442.003662109375 C 379.960205078125 448.8249206542969 384.5886535644531 466.58489990234375 373.9264221191406 443.03955078125 C 362.8048095703125 456.2365417480469 356.2572021484375 486.78564453125 354.6824645996094 490.0916442871094 C 423.47601318359375 484.9046936035156 436.98187255859375 481.4560852050781 433.7549743652344 466.99127197265625" stroke-width="0.0" fill="rgb(134, 255, 93)" opacity="0.0017654009"/>
    <path d="M 246.96702575683594 390.1808166503906 C 251.38633728027344 380.897216796875 248.91311645507812 399.1888122558594 228.62205505371094 414.2567138671875 C 190.1842498779297 414.9537353515625 166.2156524658203 425.79937744140625 131.9885711669922 370.634765625 C 130.517578125 332.6122741699219 151.35867309570312 327.43695068359375 151.19110107421875 318.55731201171875 C 203.82958984375 345.9886779785156 206.2878875732422 376.6463928222656 246.96702575683594 390.1808166503906" stroke-width="0.0" fill="rgb(0, 0, 7)" opacity="1.0"/>
    <path d="M 429.57672119140625 77.6646728515625 C 451.684326171875 131.8043975830078 452.3063659667969 113.02012634277344 390.92779541015625 141.1035614013672 C 310.4923095703125 160.41290283203125 310.2622375488281 151.26100158691406 290.7303161621094 12.040815353393555 C 277.71038818359375 -20.638450622558594 276.93707275390625 -32.05194854736328 357.6412658691406 -29.217952728271484 C 436.7158203125 -9.936348915100098 419.1413879394531 16.444324493408203 429.57672119140625 77.6646728515625" stroke-width="0.0" fill="rgb(39, 160, 178)" opacity="0.9985256"/>
    <path d="M 634.030517578125 386.98748779296875 C 647.584716796875 450.86529541015625 613.0942993164062 457.5169982910156 611.9464111328125 452.414306640625 C 602.38623046875 438.26446533203125 564.2740478515625 438.9610595703125 545.9697265625 406.1219177246094 C 561.0355834960938 389.3753356933594 581.819580078125 405.8689270019531 562.76416015625 427.38214111328125 C 574.3975219726562 400.9216613769531 600.4431762695312 392.4164123535156 634.030517578125 386.98748779296875" stroke-width="0.0" fill="rgb(103, 200, 145)" opacity="0.45781344"/>
    <path d="M 622.2890625 593.984619140625 C 561.3453979492188 661.7981567382812 548.2020263671875 662.6871948242188 461.4965515136719 662.3325805664062 C 418.9426574707031 679.1690673828125 418.8279724121094 663.150390625 411.06884765625 604.5963134765625 C 467.5284423828125 593.9747314453125 495.5160217285156 595.885986328125 521.9874267578125 577.372314453125 C 569.3138427734375 561.2532958984375 578.6401977539062 552.4201049804688 622.2890625 593.984619140625" stroke-width="0.0" fill="rgb(3, 0, 43)" opacity="0.9965666"/>
    <path d="M 96.97700500488281 43.672306060791016 C 107.9130859375 75.45606231689453 96.51105499267578 84.70799255371094 134.53915405273438 99.25196075439453 C 83.78826904296875 133.7059783935547 69.20426177978516 139.3689422607422 51.28450393676758 60.50054931640625 C 58.439674377441406 36.4600830078125 81.69990539550781 39.77302932739258 101.43946075439453 29.230167388916016 C 112.49717712402344 44.97152328491211 105.30870056152344 49.663780212402344 96.97700500488281 43.672306060791016" stroke-width="0.0" fill="rgb(0, 173, 137)" opacity="0.9732918"/>
    <path d="M 484.239990234375 -36.966373443603516 C 507.8548889160156 -11.085038185119629 494.7517395019531 -1.9073621034622192 500.2828063964844 27.916248321533203 C 457.92230224609375 22.741098403930664 419.42205810546875 28.956274032592773 429.9949035644531 -14.355595588684082 C 455.9872741699219 -12.204679489135742 464.6124267578125 -17.012428283691406 478.27587890625 -19.076168060302734 C 479.5058288574219 -11.972694396972656 484.5894470214844 -2.0755271911621094 484.239990234375 -36.966373443603516" stroke-width="0.0" fill="rgb(0, 0, 0)" opacity="0.9188721"/>
    <path d="M 213.40182495117188 213.29788208007812 C 238.25729370117188 242.72500610351562 233.60369873046875 239.5438690185547 214.24293518066406 254.28482055664062 C 191.72869873046875 276.68988037109375 206.8883819580078 285.9104309082031 171.04794311523438 273.8121032714844 C 150.28582763671875 173.2804718017578 156.74850463867188 182.23411560058594 192.16128540039062 182.87661743164062 C 203.8726806640625 178.29147338867188 206.697509765625 217.1822967529297 213.40182495117188 213.29788208007812" stroke-width="0.0" fill="rgb(4, 0, 6)" opacity="1.0"/>
    <path d="M 190.23654174804688 467.6527404785156 C 197.75169372558594 486.1006164550781 186.61578369140625 480.5124816894531 172.91473388671875 413.5914001464844 C 121.28548431396484 413.0018310546875 56.273563385009766 435.05157470703125 89.83598327636719 417.8615417480469 C 133.9538116455078 401.04949951171875 158.55177307128906 393.6077575683594 166.12156677246094 400.2162170410156 C 161.20814514160156 386.5535888671875 163.6475830078125 409.5862731933594 190.23654174804688 467.6527404785156" stroke-width="0.0" fill="rgb(110, 58, 98)" opacity="0.61325115"/>
    <path d="M 610.1026611328125 426.0393371582031 C 597.3591918945312 486.89434814453125 571.0098266601562 505.1952819824219 578.840087890625 512.150634765625 C 540.3547973632812 496.2259826660156 516.3739624023438 496.7817687988281 439.0150146484375 465.8285827636719 C 488.67462158203125 438.5883483886719 516.6073608398438 439.3650207519531 539.6524047851562 418.42144775390625 C 593.187744140625 404.11859130859375 609.9264526367188 404.29522705078125 610.1026611328125 426.0393371582031" stroke-width="0.0" fill="rgb(62, 213, 218)" opacity="0.97151464"/>
    <path d="M 414.5522155761719 405.3603820800781 C 422.4660339355469 423.2967224121094 437.71044921875 418.5196533203125 423.5826110839844 411.240478515625 C 424.5973205566406 435.7355041503906 426.361083984375 408.23809814453125 417.41204833984375 420.40814208984375 C 420.817138671875 413.81988525390625 421.1280517578125 412.9507751464844 414.9375 422.4620666503906 C 434.9118957519531 406.5814514160156 416.73687744140625 394.1580810546875 414.5522155761719 405.3603820800781" stroke-width="0.0" fill="rgb(245, 206, 7)" opacity="0.0"/>
    <path d="M 648.2826538085938 504.5407409667969 C 615.7031860351562 588.8880004882812 598.079833984375 588.9744262695312 568.4642333984375 558.1937255859375 C 580.8272705078125 526.5852661132812 580.4019165039062 535.2964477539062 578.9766845703125 517.7714233398438 C 583.7706298828125 550.5817260742188 579.2178344726562 541.8328247070312 578.6051635742188 504.06439208984375 C 629.820556640625 490.9692687988281 638.39990234375 487.3424072265625 648.2826538085938 504.5407409667969" stroke-width="0.0" fill="rgb(44, 22, 56)" opacity="0.66584104"/>
    <path d="M 314.7236633300781 350.4287109375 C 320.2942810058594 430.7099304199219 318.05792236328125 438.0278625488281 281.220458984375 421.9761962890625 C 259.5069580078125 394.1749572753906 232.89743041992188 391.7666931152344 211.2024688720703 366.44873046875 C 161.7858123779297 315.2303161621094 210.85086059570312 326.2010192871094 245.27911376953125 353.9850769042969 C 326.4073181152344 357.13836669921875 306.4303894042969 340.6268310546875 314.7236633300781 350.4287109375" stroke-width="0.0" fill="rgb(255, 229, 183)" opacity="0.73923934"/>
    <path d="M 446.6423645019531 118.80602264404297 C 421.70086669921875 139.40696716308594 416.28448486328125 156.37942504882812 371.3651428222656 167.86935424804688 C 413.115966796875 184.21348571777344 442.3937683105469 161.3270263671875 400.1749267578125 169.3562774658203 C 370.4669189453125 185.46734619140625 379.7800598144531 135.61422729492188 392.72943115234375 89.59835052490234 C 412.6966552734375 109.9162368774414 442.3692321777344 94.03038024902344 446.6423645019531 118.80602264404297" stroke-width="0.0" fill="rgb(12, 134, 237)" opacity="0.16068873"/>
    <path d="M 324.69940185546875 397.0244140625 C 310.95343017578125 440.6029968261719 306.6231689453125 459.6816711425781 235.449951171875 483.16925048828125 C 212.4947052001953 453.9064636230469 221.12191772460938 421.256591796875 233.79237365722656 418.855224609375 C 291.83477783203125 411.54217529296875 316.4145812988281 412.4817810058594 319.0924377441406 414.4953308105469 C 290.2542724609375 369.5615539550781 310.27545166015625 395.8539733886719 324.69940185546875 397.0244140625" stroke-width="0.0" fill="rgb(187, 143, 0)" opacity="0.541428"/>
    <path d="M 89.26173400878906 40.45351028442383 C 118.57920837402344 52.22419738769531 119.92127227783203 74.83521270751953 97.8851089477539 98.9690170288086 C 52.813148498535156 95.8556900024414 94.97981262207031 69.74085998535156 82.4016342163086 17.281686782836914 C 73.6753921508789 13.46666145324707 100.09518432617188 29.28298568725586 110.0594711303711 22.50242042541504 C 110.75642395019531 21.941160202026367 122.83120727539062 33.16175842285156 89.26173400878906 40.45351028442383" stroke-width="0.0" fill="rgb(69, 104, 135)" opacity="0.09195115"/>
    <path d="M 469.4013671875 155.4715576171875 C 465.7655334472656 124.59104919433594 465.31671142578125 106.08792877197266 449.9847106933594 107.08792114257812 C 467.76947021484375 108.63916778564453 483.3268737792969 107.96662902832031 469.558837890625 136.64613342285156 C 461.6831359863281 153.18951416015625 442.2923889160156 106.09519958496094 419.5220031738281 135.71580505371094 C 479.4320373535156 137.60275268554688 489.9726867675781 138.45420837402344 469.4013671875 155.4715576171875" stroke-width="0.0" fill="rgb(27, 164, 156)" opacity="0.0"/>
    <path d="M 233.6659698486328 313.8381652832031 C 243.91513061523438 322.1500244140625 255.68551635742188 309.344970703125 239.64828491210938 333.5239562988281 C 230.43614196777344 349.85174560546875 211.72206115722656 352.3930969238281 197.55133056640625 327.05450439453125 C 230.2344970703125 285.8402404785156 243.95516967773438 279.7254943847656 256.2162780761719 292.0627136230469 C 270.25286865234375 330.2105407714844 236.766357421875 287.9451599121094 233.6659698486328 313.8381652832031" stroke-width="0.0" fill="rgb(0, 0, 15)" opacity="1.0"/>
    <path d="M 125.15225219726562 541.583984375 C 119.32520294189453 670.2098999023438 124.45155334472656 670.4628295898438 82.88247680664062 658.5480346679688 C 29.25173568725586 604.567626953125 4.871944904327393 607.0892944335938 -25.409191131591797 595.43359375 C -51.000545501708984 496.4214172363281 -18.93852424621582 498.81341552734375 41.83104705810547 487.92730712890625 C 92.11819458007812 507.0801086425781 121.08466339111328 498.1337585449219 125.15225219726562 541.583984375" stroke-width="0.0" fill="rgb(12, 118, 174)" opacity="0.9928576"/>
    <path d="M 693.9998779296875 323.85638427734375 C 594.19482421875 268.16326904296875 560.8406372070312 273.33209228515625 573.8238525390625 311.9986877441406 C 575.23388671875 329.770751953125 566.5300903320312 345.2256164550781 559.3812866210938 367.4244689941406 C 539.627197265625 424.3371887207031 520.2319946289062 436.51800537109375 518.60205078125 432.1932067871094 C 593.3906860351562 434.10162353515625 645.2885131835938 432.4002380371094 693.9998779296875 323.85638427734375" stroke-width="0.0" fill="rgb(10, 124, 204)" opacity="0.99149597"/>
    <path d="M 600.9898071289062 503.0223083496094 C 594.13037109375 467.56951904296875 566.4483032226562 487.1365661621094 538.1294555664062 482.9693298339844 C 589.1214599609375 492.7389831542969 570.5001220703125 488.8831481933594 573.14990234375 506.3497619628906 C 549.7488403320312 469.6119384765625 533.5707397460938 486.27850341796875 559.296875 549.2454223632812 C 571.759033203125 511.1205749511719 601.3351440429688 521.9912719726562 600.9898071289062 503.0223083496094" stroke-width="0.0" fill="rgb(67, 191, 152)" opacity="0.44788238"/>
    <path d="M 113.56967163085938 52.44413375854492 C 128.23533630371094 89.52533721923828 110.59550476074219 79.72221374511719 82.93527221679688 90.15567016601562 C 42.041263580322266 111.01549530029297 15.120450973510742 92.58780670166016 52.864036560058594 39.94243240356445 C 121.37484741210938 47.24056625366211 116.68830871582031 45.39891052246094 87.00665283203125 32.88307189941406 C 90.45881652832031 10.506097793579102 129.16876220703125 13.581365585327148 113.56967163085938 52.44413375854492" stroke-width="0.0" fill="rgb(13, 82, 36)" opacity="0.84921795"/>
    <path d="M 183.89561462402344 561.8306884765625 C 177.2412109375 547.9902954101562 139.98094177246094 543.943115234375 162.8583984375 525.3055419921875 C 180.72726440429688 552.7081298828125 187.0731201171875 540.3409423828125 146.97854614257812 546.6471557617188 C 170.52484130859375 554.8699340820312 175.06285095214844 556.2566528320312 160.8520050048828 555.1666259765625 C 190.60194396972656 573.1016845703125 191.48301696777344 581.26806640625 183.89561462402344 561.8306884765625" stroke-width="0.0" fill="rgb(250, 251, 254)" opacity="0.009814389"/>
    <path d="M 595.0435180664062 481.4372253417969 C 575.4791870117188 548.092529296875 589.7850952148438 539.4937744140625 561.980712890625 545.5294189453125 C 465.6256103515625 541.8006591796875 461.0933837890625 555.0750122070312 543.603515625 518.4647827148438 C 505.5452575683594 472.1946716308594 502.0859375 494.3400573730469 520.9352416992188 486.64019775390625 C 515.4534301757812 486.23419189453125 548.9624633789062 490.77166748046875 595.0435180664062 481.4372253417969" stroke-width="0.0" fill="rgb(19, 146, 190)" opacity="0.9781185"/>
    <path d="M 68.41157531738281 247.25225830078125 C 59.87665557861328 298.3907470703125 71.6612319946289 308.0245666503906 14.406071662902832 320.5911865234375 C -29.221988677978516 329.2161865234375 -34.4124870300293 314.4044189453125 -39.36908721923828 291.04742431640625 C -26.76683807373047 264.1697998046875 -19.294326782226562 257.694580078125 -20.32132911682129 256.35015869140625 C 32.00294494628906 252.47256469726562 58.98870849609375 269.2278747558594 68.41157531738281 247.25225830078125" stroke-width="0.0" fill="rgb(6, 180, 177)" opacity="0.372595"/>
    <path d="M 488.3443908691406 346.5776672363281 C 484.13018798828125 385.12554931640625 521.0785522460938 406.2474060058594 500.7643737792969 371.66162109375 C 503.091064453125 343.4425048828125 477.84527587890625 373.88494873046875 508.5966491699219 364.7279357910156 C 468.1412048339844 374.45257568359375 487.0423278808594 371.7187194824219 485.4864501953125 341.4684753417969 C 481.9256896972656 362.69317626953125 491.4052429199219 361.78387451171875 488.3443908691406 346.5776672363281" stroke-width="0.0" fill="rgb(190, 90, 15)" opacity="0.038430464"/>
    <path d="M 605.9651489257812 388.4314270019531 C 700.561279296875 588.35107421875 697.685546875 588.7709350585938 555.7796630859375 579.4030151367188 C 569.8984375 558.3356323242188 585.2217407226562 541.1944580078125 589.4572143554688 503.252197265625 C 593.5208129882812 498.953857421875 593.3192749023438 493.9378967285156 597.2677612304688 477.5538330078125 C 610.8679809570312 424.30767822265625 604.3721313476562 401.22650146484375 605.9651489257812 388.4314270019531" stroke-width="0.0" fill="rgb(4, 8, 0)" opacity="0.95500314"/>
    <path d="M 66.48677062988281 239.30897521972656 C 93.14701843261719 259.1924133300781 81.58447265625 278.9775695800781 60.420955657958984 255.30271911621094 C 11.422575950622559 213.14122009277344 9.119226455688477 220.5040740966797 -8.53760814666748 222.91363525390625 C -40.6422233581543 225.5620574951172 -6.061417579650879 225.21583557128906 57.83928680419922 220.54696655273438 C 52.120574951171875 185.48423767089844 64.67296600341797 188.86521911621094 66.48677062988281 239.30897521972656" stroke-width="0.0" fill="rgb(103, 179, 177)" opacity="0.0"/>
    <path d="M 345.31964111328125 296.4331970214844 C 376.228515625 357.1868896484375 414.22161865234375 366.05133056640625 383.3379211425781 358.235107421875 C 386.6656494140625 361.9678039550781 412.3589782714844 358.68701171875 361.2167053222656 293.37451171875 C 336.40869140625 243.0092315673828 354.7838134765625 231.3844757080078 382.3246765136719 229.8855438232422 C 358.3948974609375 261.9236755371094 369.8282775878906 282.03765869140625 345.31964111328125 296.4331970214844" stroke-width="0.0" fill="rgb(75, 169, 0)" opacity="0.05798395"/>
    <path d="M 158.1381378173828 100.38418579101562 C 155.48390197753906 106.55195617675781 145.1151580810547 104.96012878417969 130.95578002929688 93.92940521240234 C 84.14842987060547 89.1521987915039 89.70299530029297 77.49714660644531 82.52525329589844 99.46915435791016 C 85.53912353515625 64.2978515625 101.31270599365234 52.94203567504883 133.5706329345703 15.791875839233398 C 139.20558166503906 15.936491966247559 150.93173217773438 75.65449523925781 158.1381378173828 100.38418579101562" stroke-width="0.0" fill="rgb(89, 148, 68)" opacity="0.3671956"/>
    <path d="M 422.07928466796875 466.1886291503906 C 352.2948303222656 475.8213195800781 368.70330810546875 494.7728576660156 358.9294738769531 511.01068115234375 C 257.9711608886719 499.6324768066406 257.82940673828125 521.17724609375 259.5318908691406 492.04559326171875 C 250.78494262695312 388.27545166015625 244.2101593017578 380.4363708496094 233.0257568359375 383.1683349609375 C 309.85125732421875 403.3301696777344 345.80126953125 410.30792236328125 422.07928466796875 466.1886291503906" stroke-width="0.0" fill="rgb(255, 198, 6)" opacity="0.9533579"/>
    <path d="M 125.4424057006836 444.42340087890625 C 102.08837127685547 539.4368896484375 68.39933013916016 516.2010498046875 -0.670396089553833 514.7040405273438 C -47.080047607421875 507.3570556640625 -44.948184967041016 505.59759521484375 -20.274860382080078 500.2998962402344 C -10.620352745056152 465.7409362792969 -5.551848411560059 460.1910095214844 -50.03904342651367 438.2520446777344 C -24.27666664123535 424.8482971191406 21.026769638061523 400.0486145019531 125.4424057006836 444.42340087890625" stroke-width="0.0" fill="rgb(9, 140, 197)" opacity="1.0"/>
    <path d="M 206.59170532226562 396.9501647949219 C 232.55130004882812 403.5982971191406 227.2687530517578 430.1580505371094 198.8606719970703 444.48919677734375 C 144.09732055664062 432.2356872558594 155.06617736816406 405.4909973144531 145.81436157226562 376.29071044921875 C 119.36377716064453 368.3821105957031 134.95591735839844 341.3087463378906 155.4445343017578 327.0142517089844 C 217.08087158203125 350.8555908203125 213.8323974609375 341.2563781738281 206.59170532226562 396.9501647949219" stroke-width="0.0" fill="rgb(0, 0, 4)" opacity="1.0"/>
    <path d="M 62.22639846801758 72.85889434814453 C 52.52528762817383 126.92009735107422 27.769638061523438 129.3307647705078 21.7368106842041 181.95494079589844 C -12.782060623168945 187.6076202392578 -27.06255340576172 182.09410095214844 -35.67071533203125 150.12631225585938 C -33.27678680419922 67.61006927490234 -28.734317779541016 54.308685302734375 -12.695721626281738 54.325782775878906 C 51.697994232177734 34.71461486816406 88.52775573730469 21.397823333740234 62.22639846801758 72.85889434814453" stroke-width="0.0" fill="rgb(0, 2, 0)" opacity="0.9377369"/>
    <path d="M 658.6593627929688 199.550537109375 C 644.038330078125 264.7610778808594 651.0890502929688 242.85763549804688 486.6576232910156 291.6527404785156 C 328.7680969238281 336.32635498046875 352.7579650878906 341.1071472167969 350.1493225097656 209.58306884765625 C 388.668212890625 37.472774505615234 365.2638244628906 91.45930480957031 437.03448486328125 115.29090881347656 C 455.8009033203125 168.57476806640625 502.1751708984375 119.4264907836914 658.6593627929688 199.550537109375" stroke-width="0.0" fill="rgb(8, 164, 193)" opacity="0.9971829"/>
    <path d="M 247.81028747558594 222.7172393798828 C 235.4851531982422 223.80859375 231.5858154296875 259.9327392578125 201.0693817138672 264.0484313964844 C 221.63116455078125 220.81951904296875 240.25137329101562 209.9613494873047 222.74771118164062 192.49685668945312 C 229.6116485595703 181.03164672851562 243.44189453125 214.96600341796875 220.5811309814453 224.9475555419922 C 217.0463104248047 208.28128051757812 235.29185485839844 225.03163146972656 247.81028747558594 222.7172393798828" stroke-width="0.0" fill="rgb(0, 0, 37)" opacity="0.15047471"/>
    <path d="M 234.40179443359375 514.6644897460938 C 249.17874145507812 571.7611083984375 240.7183380126953 562.2957763671875 235.31069946289062 528.192626953125 C 219.7105255126953 511.87933349609375 185.8914337158203 525.5601806640625 146.1608428955078 507.3045959472656 C 143.23789978027344 513.0733032226562 141.1927490234375 468.9357604980469 181.3750457763672 422.49395751953125 C 272.4598693847656 422.6699523925781 286.8435363769531 442.5723876953125 234.40179443359375 514.6644897460938" stroke-width="0.0" fill="rgb(247, 191, 13)" opacity="0.98331416"/>
    <path d="M 178.89698791503906 163.69720458984375 C 201.50071716308594 165.80514526367188 168.5415802001953 173.95567321777344 97.0299072265625 169.13145446777344 C 89.77915954589844 165.78683471679688 86.84538269042969 146.84310913085938 156.8226776123047 159.1097869873047 C 144.42926025390625 162.24526977539062 156.93922424316406 172.205322265625 146.38259887695312 89.9673080444336 C 184.27281188964844 106.6954574584961 188.14749145507812 124.75401306152344 178.89698791503906 163.69720458984375" stroke-width="0.0" fill="rgb(68, 144, 199)" opacity="0.84797347"/>
    <path d="M 210.51727294921875 419.8600158691406 C 280.2842712402344 407.3476867675781 300.0782470703125 413.9198303222656 320.6386413574219 445.19189453125 C 312.7309875488281 411.0032958984375 321.76922607421875 370.4227294921875 298.2122802734375 424.8582458496094 C 311.92926025390625 448.30169677734375 298.47052001953125 430.73602294921875 243.9495391845703 392.1274719238281 C 179.82386779785156 401.50250244140625 198.7513427734375 428.3987731933594 210.51727294921875 419.8600158691406" stroke-width="0.0" fill="rgb(19, 0, 33)" opacity="0.98422205"/>
    <path d="M 466.7875671386719 132.9390106201172 C 407.67388916015625 129.207763671875 429.9446716308594 126.54244995117188 390.6740417480469 105.77899932861328 C 371.6786193847656 102.1353759765625 367.9228820800781 102.28099822998047 367.2645568847656 1.219539761543274 C 400.25775146484375 4.418828964233398 434.9083557128906 27.50029945373535 452.3031311035156 47.345115661621094 C 468.19781494140625 4.69900369644165 474.28106689453125 24.43356704711914 466.7875671386719 132.9390106201172" stroke-width="0.0" fill="rgb(31, 173, 158)" opacity="0.34497812"/>
    <path d="M 76.44731903076172 473.2445068359375 C 136.31484985351562 528.7788696289062 138.57131958007812 534.3067016601562 147.433349609375 398.1480407714844 C 145.2954559326172 394.7022399902344 116.91378021240234 387.2673034667969 65.55340576171875 376.81512451171875 C 75.32535552978516 381.83599853515625 72.54176330566406 374.828857421875 41.81888961791992 372.2249755859375 C 29.495948791503906 385.3263854980469 52.204524993896484 437.2716064453125 76.44731903076172 473.2445068359375" stroke-width="0.0" fill="rgb(255, 175, 6)" opacity="0.99825215"/>
    <path d="M 532.5571899414062 -15.07666015625 C 539.9462280273438 18.482614517211914 505.1130065917969 34.16392135620117 477.2591857910156 30.15941047668457 C 450.0653381347656 27.251102447509766 447.469970703125 26.54342269897461 429.8938293457031 15.101788520812988 C 370.95416259765625 -8.964966773986816 354.07196044921875 -24.917457580566406 391.5918884277344 -35.960289001464844 C 492.4337158203125 -17.70105743408203 512.3224487304688 -23.06574058532715 532.5571899414062 -15.07666015625" stroke-width="0.0" fill="rgb(0, 1, 1)" opacity="0.9829904"/>
    <path d="M 172.72265625 277.63787841796875 C 136.91226196289062 285.2444152832031 96.08985900878906 288.92681884765625 29.014310836791992 280.3254089355469 C 67.7817611694336 244.39039611816406 29.804649353027344 263.6248779296875 -11.878660202026367 261.01019287109375 C 20.00835418701172 126.82317352294922 14.757506370544434 104.93818664550781 44.78436279296875 105.93013000488281 C 127.3267593383789 146.7134246826172 158.7319793701172 130.9404754638672 172.72265625 277.63787841796875" stroke-width="0.0" fill="rgb(31, 159, 183)" opacity="0.9999765"/>
    <path d="M 494.08453369140625 107.99954986572266 C 523.1185913085938 152.1966552734375 511.0693664550781 150.0862579345703 426.99786376953125 141.4096221923828 C 348.049560546875 124.22557830810547 354.0445556640625 127.23223114013672 374.3050231933594 23.476369857788086 C 375.30157470703125 26.806833267211914 408.31341552734375 16.982664108276367 475.6502685546875 30.237424850463867 C 475.9090576171875 72.49734497070312 472.83258056640625 87.88420867919922 494.08453369140625 107.99954986572266" stroke-width="0.0" fill="rgb(50, 154, 173)" opacity="0.49070218"/>
    <path d="M 140.0411834716797 78.02924346923828 C 130.93740844726562 158.0734100341797 150.27069091796875 180.49501037597656 136.83737182617188 174.641845703125 C 22.662113189697266 163.15798950195312 11.507715225219727 160.36021423339844 11.143986701965332 151.35418701171875 C 30.490924835205078 76.2577133178711 52.25410079956055 54.036964416503906 64.56591033935547 33.56108856201172 C 102.71713256835938 -11.436293601989746 135.32432556152344 -9.67258358001709 140.0411834716797 78.02924346923828" stroke-width="0.0" fill="rgb(52, 156, 177)" opacity="1.0"/>
    <path d="M 521.2521362304688 153.09722900390625 C 451.71429443359375 146.83319091796875 393.3205871582031 151.76942443847656 379.2984619140625 141.4477081298828 C 399.17962646484375 116.87773895263672 373.289306640625 156.81680297851562 352.2165222167969 118.95100402832031 C 341.4000244140625 61.812435150146484 359.73309326171875 86.66297912597656 440.9674072265625 69.41024017333984 C 471.0467529296875 66.5407485961914 504.30120849609375 45.98432922363281 521.2521362304688 153.09722900390625" stroke-width="0.0" fill="rgb(43, 162, 162)" opacity="0.39926946"/>
    <path d="M 141.20867919921875 257.3729248046875 C 107.79457092285156 298.7463684082031 77.69793701171875 290.9833984375 70.3883285522461 285.111328125 C 69.79370880126953 244.10699462890625 22.493980407714844 232.66685485839844 6.166341781616211 242.57736206054688 C -0.08569429814815521 280.404296875 21.351648330688477 255.03277587890625 55.89882278442383 284.4879455566406 C 116.55179595947266 252.2666473388672 147.186279296875 232.84164428710938 141.20867919921875 257.3729248046875" stroke-width="0.0" fill="rgb(9, 166, 221)" opacity="0.31834278"/>
    <path d="M 545.0292358398438 332.6959533691406 C 551.429931640625 297.9054260253906 535.7125244140625 330.5981140136719 530.9075317382812 333.8551025390625 C 535.755859375 358.62139892578125 532.265380859375 331.8329162597656 562.650390625 273.00860595703125 C 505.4242248535156 283.6177062988281 598.0945434570312 254.92433166503906 582.1838989257812 256.94476318359375 C 585.347412109375 337.63995361328125 581.09326171875 335.4044189453125 545.0292358398438 332.6959533691406" stroke-width="0.0" fill="rgb(255, 204, 0)" opacity="0.98740405"/>
    <path d="M 238.8597412109375 -9.763599395751953 C 252.9686737060547 101.47728729248047 210.1307373046875 105.5257339477539 141.29763793945312 128.15150451660156 C 78.5537338256836 127.75287628173828 91.32495880126953 144.80545043945312 86.11282348632812 32.458377838134766 C 96.72691345214844 -18.75530242919922 154.537841796875 -2.906942844390869 197.43380737304688 -11.13041877746582 C 243.777099609375 -32.31690979003906 238.37852478027344 -33.761756896972656 238.8597412109375 -9.763599395751953" stroke-width="0.0" fill="rgb(43, 161, 179)" opacity="1.0"/>
    <path d="M 314.1130065917969 507.9902038574219 C 343.3440856933594 493.0870666503906 298.39599609375 503.54620361328125 234.7439727783203 513.300048828125 C 230.24533081054688 462.8641357421875 219.340087890625 458.3155517578125 207.2240447998047 419.02099609375 C 196.99913024902344 402.8364562988281 274.4039306640625 410.3221130371094 333.7709655761719 409.7757873535156 C 327.0203552246094 453.4423828125 311.629150390625 445.5528259277344 314.1130065917969 507.9902038574219" stroke-width="0.0" fill="rgb(255, 194, 3)" opacity="0.9554641"/>
    <path d="M 212.326171875 208.48095703125 C 165.91159057617188 246.2589569091797 174.08358764648438 266.42401123046875 196.2469482421875 277.6864929199219 C 175.171630859375 326.8757019042969 177.74639892578125 357.446044921875 114.6293716430664 288.18902587890625 C 145.35690307617188 99.935302734375 144.2510986328125 141.26255798339844 158.0982666015625 162.14569091796875 C 173.63217163085938 158.55784606933594 190.8436279296875 157.78919982910156 212.326171875 208.48095703125" stroke-width="0.0" fill="rgb(2, 167, 206)" opacity="1.0"/>
    <path d="M 316.77197265625 124.37090301513672 C 311.19573974609375 208.68841552734375 294.76953125 211.51425170898438 218.13829040527344 197.10826110839844 C 225.13291931152344 170.1573486328125 202.49032592773438 161.5907440185547 165.51651000976562 152.34547424316406 C 162.97605895996094 106.82035827636719 211.62290954589844 97.96385955810547 236.79942321777344 103.51661682128906 C 257.0285949707031 92.18012237548828 294.4546203613281 106.94467163085938 316.77197265625 124.37090301513672" stroke-width="0.0" fill="rgb(4, 239, 154)" opacity="0.38093302"/>
    <path d="M 228.571044921875 104.49171447753906 C 184.70806884765625 103.94960021972656 166.92100524902344 102.19200134277344 133.83892822265625 122.32686614990234 C 153.8778533935547 149.8336944580078 185.0907440185547 124.57848358154297 215.75856018066406 158.22607421875 C 228.1346435546875 166.53321838378906 224.7200164794922 114.93297576904297 234.80169677734375 105.97439575195312 C 258.1468200683594 120.39093017578125 227.00070190429688 125.1072006225586 228.571044921875 104.49171447753906" stroke-width="0.0" fill="rgb(49, 253, 152)" opacity="0.0025320996"/>
    <path d="M 243.84852600097656 599.6016845703125 C 250.14015197753906 633.0548095703125 255.125244140625 628.1893920898438 225.30760192871094 633.676513671875 C 212.0967559814453 619.7211303710938 212.87759399414062 611.9842529296875 218.87481689453125 622.2919311523438 C 264.60693359375 606.8089599609375 315.9373474121094 619.7606811523438 283.796142578125 574.3570556640625 C 232.71673583984375 538.3693237304688 242.39706420898438 546.0889282226562 243.84852600097656 599.6016845703125" stroke-width="0.0" fill="rgb(24, 208, 192)" opacity="0.38589668"/>
    <path d="M 314.349853515625 617.2046508789062 C 318.5649108886719 541.2935180664062 317.6273193359375 531.2216186523438 322.24151611328125 531.6392211914062 C 332.2964782714844 505.6705017089844 329.4867248535156 493.6623840332031 263.9966735839844 509.00982666015625 C 207.93226623535156 510.7740173339844 194.49407958984375 512.0131225585938 198.72938537597656 591.4891967773438 C 215.97569274902344 635.266357421875 279.58331298828125 633.304931640625 314.349853515625 617.2046508789062" stroke-width="0.0" fill="rgb(11, 221, 241)" opacity="0.69247633"/>
    <path d="M 423.0525817871094 542.4859619140625 C 419.6613464355469 616.8438720703125 447.03192138671875 576.9544677734375 421.5018615722656 595.4539184570312 C 378.898681640625 619.7305908203125 373.65838623046875 566.69580078125 392.52862548828125 534.7008666992188 C 404.0050964355469 540.3114624023438 414.5231018066406 538.6876831054688 417.63458251953125 559.4830932617188 C 386.2906494140625 531.3146362304688 400.88116455078125 535.0762939453125 423.0525817871094 542.4859619140625" stroke-width="0.0" fill="rgb(83, 200, 251)" opacity="0.4967424"/>
    <path d="M 157.78558349609375 293.3897399902344 C 168.3066864013672 298.4560546875 125.93400573730469 377.7015686035156 85.66374969482422 376.1525573730469 C 86.57108306884766 318.1796875 79.1705322265625 320.4159240722656 83.00736236572266 323.91571044921875 C 63.82254409790039 333.8100891113281 60.837493896484375 323.1147155761719 46.001590728759766 267.04876708984375 C 75.5818862915039 285.1471862792969 107.31352996826172 303.0950622558594 157.78558349609375 293.3897399902344" stroke-width="0.0" fill="rgb(3, 164, 198)" opacity="0.9688281"/>
    <path d="M 174.33682250976562 509.53118896484375 C 166.0988006591797 461.02789306640625 169.0684814453125 440.2649230957031 125.39034271240234 432.9065856933594 C 69.43611145019531 483.3343505859375 100.02588653564453 523.0664672851562 89.0208740234375 491.2209167480469 C 61.14942169189453 446.42626953125 53.344993591308594 418.14447021484375 92.57075500488281 437.8938293457031 C 88.0479965209961 513.9876708984375 95.69176483154297 523.900634765625 174.33682250976562 509.53118896484375" stroke-width="0.0" fill="rgb(222, 174, 5)" opacity="0.776394"/>
    <path d="M 577.5083618164062 149.8328399658203 C 605.5695190429688 119.55181884765625 575.8943481445312 134.99517822265625 545.1071166992188 120.60310363769531 C 581.3009643554688 122.04978942871094 538.954345703125 96.09563446044922 552.8602905273438 114.97246551513672 C 551.6947631835938 74.84447479248047 535.37646484375 82.25977325439453 579.0467529296875 90.69400024414062 C 588.7899169921875 102.64530944824219 580.3754272460938 97.305419921875 577.5083618164062 149.8328399658203" stroke-width="0.0" fill="rgb(99, 133, 110)" opacity="0.5878679"/>
    <path d="M 92.91085052490234 106.73485565185547 C 93.848388671875 126.99726104736328 121.57220458984375 122.72313690185547 45.77744674682617 128.3345489501953 C 27.74019432067871 142.94996643066406 52.62023162841797 98.3466567993164 39.94375228881836 101.80431365966797 C 59.83815002441406 62.92015075683594 77.60391235351562 28.48873519897461 94.27754974365234 14.20241928100586 C 84.1860580444336 62.783775329589844 88.68863677978516 118.29627227783203 92.91085052490234 106.73485565185547" stroke-width="0.0" fill="rgb(17, 176, 176)" opacity="0.23987974"/>
    <path d="M 632.9443969726562 550.8488159179688 C 637.7739868164062 605.8955688476562 624.4334106445312 613.5999145507812 469.3916931152344 603.1891479492188 C 474.7059326171875 585.1725463867188 519.0628051757812 588.6735229492188 558.7896118164062 551.1321411132812 C 573.064697265625 544.6334228515625 577.0264282226562 533.5901489257812 589.2125244140625 491.9980163574219 C 601.5346069335938 475.2478332519531 608.8966064453125 486.3209533691406 632.9443969726562 550.8488159179688" stroke-width="0.0" fill="rgb(0, 1, 0)" opacity="0.97636914"/>
    <path d="M 479.3177795410156 606.068603515625 C 481.85540771484375 615.3873901367188 478.15240478515625 623.518798828125 458.93359375 625.5283203125 C 384.1586608886719 652.6782836914062 376.2066955566406 642.1099243164062 400.1596374511719 617.4539794921875 C 425.9659118652344 605.2330322265625 439.2655944824219 603.7876586914062 463.77099609375 603.5623168945312 C 444.5891418457031 615.1276245117188 462.2757873535156 596.281982421875 479.3177795410156 606.068603515625" stroke-width="0.0" fill="rgb(0, 1, 10)" opacity="0.75012845"/>
    <path d="M 452.0499267578125 573.852294921875 C 443.8421325683594 599.8382568359375 431.4480895996094 589.5103149414062 373.33831787109375 618.0404052734375 C 305.5586853027344 667.4298095703125 253.33253479003906 689.8115844726562 251.8932342529297 566.1190185546875 C 277.95916748046875 492.8406982421875 318.3484191894531 503.7044677734375 370.9598693847656 491.2195739746094 C 385.0821533203125 549.302490234375 469.5398254394531 516.9122314453125 452.0499267578125 573.852294921875" stroke-width="0.0" fill="rgb(59, 202, 216)" opacity="0.9974904"/>
    <path d="M 262.9499206542969 500.1814880371094 C 278.2743835449219 506.8006591796875 271.50146484375 512.2459716796875 275.76593017578125 432.2372131347656 C 329.9178161621094 470.78778076171875 337.8905334472656 448.07666015625 291.1585693359375 449.9476623535156 C 234.5374298095703 416.6843566894531 260.93231201171875 445.9574890136719 280.4664611816406 453.70281982421875 C 281.6186218261719 450.0638122558594 270.87530517578125 507.2420654296875 262.9499206542969 500.1814880371094" stroke-width="0.0" fill="rgb(163, 237, 0)" opacity="0.08528715"/>
    <path d="M -5.427367687225342 283.96783447265625 C -16.861665725708008 306.0152282714844 -20.91880989074707 321.9245910644531 -32.44429016113281 329.02239990234375 C -17.893909454345703 343.0810546875 -24.289865493774414 335.2809753417969 -55.132476806640625 276.8266906738281 C -54.571144104003906 256.95257568359375 -40.92451477050781 245.3144073486328 -6.860381603240967 245.55943298339844 C 1.8531500101089478 256.18310546875 -4.913242816925049 280.8973388671875 -5.427367687225342 283.96783447265625" stroke-width="0.0" fill="rgb(2, 115, 69)" opacity="0.5992227"/>
    <path d="M 286.3842468261719 562.2976684570312 C 280.6080017089844 694.0014038085938 267.7112731933594 690.240234375 123.02092742919922 600.324951171875 C 94.10720825195312 579.433349609375 83.4754867553711 571.4073486328125 84.87890625 560.6387329101562 C 120.10277557373047 508.68756103515625 135.11557006835938 496.7108154296875 109.79393005371094 524.7695922851562 C 185.73892211914062 518.7990112304688 267.82391357421875 491.436767578125 286.3842468261719 562.2976684570312" stroke-width="0.0" fill="rgb(64, 201, 207)" opacity="0.9996322"/>
    <path d="M 164.0367431640625 334.8822326660156 C 225.09849548339844 383.4496154785156 273.22991943359375 396.0724182128906 190.7079620361328 332.9505920410156 C 142.04693603515625 305.0043640136719 142.5125732421875 297.28363037109375 121.43205261230469 285.74908447265625 C 113.69818878173828 219.3399200439453 -17.51381492614746 163.7842254638672 45.002105712890625 275.2812194824219 C 127.22013854980469 325.5085754394531 142.3447265625 314.4846496582031 164.0367431640625 334.8822326660156" stroke-width="0.0" fill="rgb(255, 220, 8)" opacity="1.0"/>
    <path d="M 451.0761413574219 160.6130828857422 C 455.1450500488281 221.34664916992188 466.2749938964844 203.21070861816406 374.87298583984375 193.2580108642578 C 358.5166931152344 184.3639373779297 365.1865234375 147.93508911132812 362.4146728515625 67.66190338134766 C 364.15869140625 44.78448486328125 402.1915283203125 75.70726013183594 388.13995361328125 120.20543670654297 C 410.1520690917969 139.09893798828125 457.3282165527344 120.7591323852539 451.0761413574219 160.6130828857422" stroke-width="0.0" fill="rgb(47, 147, 202)" opacity="0.19466572"/>
    <path d="M 178.44265747070312 572.5555419921875 C 177.7498779296875 568.5119018554688 155.14739990234375 585.308349609375 154.1768035888672 564.0847778320312 C 176.4745330810547 592.9711303710938 169.52040100097656 574.2230224609375 109.21281433105469 572.6881103515625 C 178.06593322753906 568.67041015625 210.5998077392578 571.840087890625 215.50502014160156 575.6259155273438 C 196.40748596191406 549.5346069335938 165.90682983398438 566.3547973632812 178.44265747070312 572.5555419921875" stroke-width="0.0" fill="rgb(91, 194, 189)" opacity="0.055529326"/>
    <path d="M 662.3242797851562 253.49293518066406 C 614.2971801757812 306.55712890625 609.6384887695312 303.345703125 667.76708984375 348.5774841308594 C 641.3541870117188 359.8801574707031 608.2235717773438 366.6516418457031 561.7128295898438 359.064453125 C 572.096923828125 306.17193603515625 575.3814086914062 297.1451416015625 576.887451171875 261.0368957519531 C 567.1976318359375 232.80772399902344 592.77587890625 250.15321350097656 662.3242797851562 253.49293518066406" stroke-width="0.0" fill="rgb(1, 144, 189)" opacity="0.9845631"/>
    <path d="M 620.6618041992188 394.2686767578125 C 604.481689453125 424.5728454589844 577.1651611328125 425.7915954589844 584.2160034179688 416.6357421875 C 596.0296020507812 444.1594543457031 597.5594482421875 415.41351318359375 582.798095703125 414.0762939453125 C 538.5994873046875 416.78814697265625 542.1260375976562 395.4466247558594 580.622314453125 391.4669494628906 C 696.0101318359375 396.4786071777344 698.74462890625 396.9687194824219 620.6618041992188 394.2686767578125" stroke-width="0.0" fill="rgb(16, 150, 184)" opacity="0.03572922"/>
    <path d="M 350.4800109863281 235.2249298095703 C 275.5445251464844 231.0994415283203 225.09921264648438 251.603759765625 226.11106872558594 234.77450561523438 C 199.7750701904297 206.13330078125 188.74929809570312 250.50460815429688 158.240966796875 227.44683837890625 C 111.01216888427734 117.23958587646484 135.8468780517578 149.93942260742188 216.45701599121094 160.9397735595703 C 311.3990478515625 145.12298583984375 362.74884033203125 164.0020751953125 350.4800109863281 235.2249298095703" stroke-width="0.0" fill="rgb(12, 163, 191)" opacity="1.0"/>
    <path d="M 585.615234375 555.5106201171875 C 615.77734375 566.7086181640625 617.8621826171875 537.8444213867188 590.132568359375 558.551513671875 C 558.0762939453125 597.0089721679688 559.8653564453125 572.152587890625 590.3452758789062 561.3820190429688 C 596.8866577148438 551.2963256835938 588.4457397460938 509.2395324707031 613.87060546875 537.5623168945312 C 576.310546875 545.6583251953125 579.2550659179688 566.5494384765625 585.615234375 555.5106201171875" stroke-width="0.0" fill="rgb(0, 0, 0)" opacity="0.010287136"/>
    <path d="M 177.690185546875 120.03376770019531 C 176.59915161132812 214.19296264648438 170.6759490966797 205.9259796142578 73.20066833496094 204.5871124267578 C 40.87204360961914 209.09841918945312 -17.77436065673828 227.60516357421875 14.96692943572998 167.0016632080078 C 10.582717895507812 120.60602569580078 54.47149658203125 136.13584899902344 57.566749572753906 114.98185729980469 C 210.7342071533203 98.08405303955078 205.74176025390625 91.41093444824219 177.690185546875 120.03376770019531" stroke-width="0.0" fill="rgb(45, 163, 172)" opacity="0.8626042"/>
    <path d="M 187.67190551757812 128.95445251464844 C 177.8928985595703 165.5489044189453 175.75782775878906 208.41171264648438 164.86669921875 188.11337280273438 C 111.49951171875 196.6429443359375 132.4751739501953 194.8201141357422 130.5426025390625 124.6484375 C 133.25509643554688 125.59183502197266 165.63729858398438 134.28582763671875 181.4692840576172 144.61434936523438 C 135.21795654296875 124.06886291503906 147.5132293701172 122.21124267578125 187.67190551757812 128.95445251464844" stroke-width="0.0" fill="rgb(64, 147, 184)" opacity="0.22437781"/>
    <path d="M 379.6202697753906 168.98268127441406 C 381.30438232421875 255.6265106201172 300.3749694824219 249.3499755859375 261.1039123535156 228.78399658203125 C 253.97120666503906 134.63180541992188 280.8592224121094 162.9955596923828 313.2713317871094 135.45237731933594 C 321.1329345703125 102.73260498046875 318.2303466796875 109.07306671142578 316.60101318359375 127.91585540771484 C 322.48492431640625 143.47360229492188 390.39508056640625 110.39897918701172 379.6202697753906 168.98268127441406" stroke-width="0.0" fill="rgb(8, 167, 188)" opacity="0.954934"/>
    <path d="M 135.09046936035156 530.0988159179688 C 175.67254638671875 514.5083618164062 193.8680419921875 538.1168212890625 259.848388671875 410.33050537109375 C 263.49078369140625 401.3373718261719 213.90403747558594 407.7470397949219 157.12049865722656 396.1278381347656 C 54.087684631347656 381.9399719238281 11.867941856384277 372.0047607421875 78.19734191894531 479.147216796875 C 113.30184936523438 523.0391235351562 116.9379653930664 523.30712890625 135.09046936035156 530.0988159179688" stroke-width="0.0" fill="rgb(250, 194, 0)" opacity="0.9902134"/>
    <path d="M 601.3409423828125 168.46087646484375 C 661.3773803710938 162.982421875 641.80029296875 162.10357666015625 634.5529174804688 183.7894744873047 C 558.7154541015625 165.36148071289062 544.5009155273438 154.71128845214844 543.0661010742188 88.68329620361328 C 533.1589965820312 19.874942779541016 539.33837890625 17.35798454284668 580.122314453125 43.10976028442383 C 588.5119018554688 90.08158874511719 599.1099853515625 116.48202514648438 601.3409423828125 168.46087646484375" stroke-width="0.0" fill="rgb(49, 157, 171)" opacity="0.9675427"/>
    <path d="M 410.98382568359375 112.19403076171875 C 424.018798828125 143.2954864501953 425.8265686035156 143.8964080810547 363.99951171875 138.40362548828125 C 323.2960205078125 136.0787811279297 305.73455810546875 154.68328857421875 311.1063537597656 85.43181610107422 C 306.2457580566406 53.8265380859375 299.6336364746094 82.69165802001953 376.9970703125 66.85913848876953 C 374.6982116699219 38.352806091308594 394.5544738769531 32.37184143066406 410.98382568359375 112.19403076171875" stroke-width="0.0" fill="rgb(41, 157, 177)" opacity="0.43379793"/>
    <path d="M 366.83935546875 402.5415954589844 C 366.3915710449219 429.5943908691406 333.0252990722656 452.9238586425781 321.2235412597656 443.15789794921875 C 300.1331481933594 399.3741760253906 282.99530029296875 402.84014892578125 247.90167236328125 374.73748779296875 C 266.6184997558594 381.4844970703125 296.4660949707031 379.9173889160156 311.6114196777344 374.7477722167969 C 332.1036682128906 364.1611633300781 370.1224060058594 346.8571472167969 366.83935546875 402.5415954589844" stroke-width="0.0" fill="rgb(0, 0, 5)" opacity="1.0"/>
    <path d="M 347.6353759765625 224.3306884765625 C 369.21405029296875 241.36477661132812 374.48858642578125 266.0381774902344 345.41064453125 279.0630798339844 C 320.49951171875 235.75181579589844 302.81817626953125 249.14698791503906 310.1965026855469 238.6455078125 C 320.1099548339844 218.88754272460938 329.23333740234375 222.4182891845703 350.762451171875 224.9717559814453 C 321.39599609375 224.05149841308594 341.0112609863281 217.1798858642578 347.6353759765625 224.3306884765625" stroke-width="0.0" fill="rgb(3, 0, 5)" opacity="1.0"/>
    <path d="M 9.368074417114258 180.66224670410156 C 11.021039962768555 172.47714233398438 30.96519660949707 235.54261779785156 36.877342224121094 257.0022888183594 C -58.7349853515625 234.50851440429688 -57.75090026855469 150.0484161376953 -37.55887222290039 182.89630126953125 C -9.987667083740234 175.1905059814453 19.239788055419922 172.25491333007812 14.679436683654785 176.0352783203125 C 2.8120036125183105 131.43048095703125 20.655380249023438 149.0595245361328 9.368074417114258 180.66224670410156" stroke-width="0.0" fill="rgb(109, 132, 135)" opacity="0.041011702"/>
    <path d="M 125.338623046875 339.0472717285156 C 89.73238372802734 333.93450927734375 105.7709732055664 329.4771728515625 104.95618438720703 341.99481201171875 C 103.10929107666016 333.99688720703125 45.86821365356445 341.415771484375 16.514436721801758 319.6169128417969 C -0.0955711305141449 237.14476013183594 26.764673233032227 248.7408447265625 73.01420593261719 294.5758056640625 C 124.93013763427734 292.7295227050781 155.3350067138672 328.14361572265625 125.338623046875 339.0472717285156" stroke-width="0.0" fill="rgb(1, 170, 201)" opacity="0.9571201"/>
  </g>
</svg>
