<?xml version="1.0" ?>
<svg xmlns="http://www.w3.org/2000/svg" version="1.1" width="600" height="600">
  <defs/>
  <g>
    <path d="M 651.6051635742188 157.95953369140625 C 607.9251098632812 246.87318420410156 603.3932495117188 243.20709228515625 577.492919921875 188.879150390625 C 475.5084228515625 194.07481384277344 464.84527587890625 184.6406707763672 469.2032165527344 107.4893569946289 C 428.8827819824219 51.63798141479492 427.99188232421875 35.22841262817383 470.58319091796875 12.876654624938965 C 583.1861572265625 61.57160949707031 620.4357299804688 57.849666595458984 651.6051635742188 157.95953369140625" stroke-width="0.0" fill="rgb(255, 76, 0)" opacity="1.0"/>
    <path d="M 547.9757080078125 466.37481689453125 C 536.02294921875 560.4285888671875 525.0095825195312 548.442138671875 425.6130676269531 548.0997924804688 C 387.3617858886719 556.10205078125 336.41412353515625 574.7105102539062 307.1904602050781 448.3904113769531 C 279.9575500488281 359.9585876464844 277.79205322265625 328.33599853515625 375.7012634277344 336.15203857421875 C 533.1295776367188 394.78875732421875 537.293701171875 397.71099853515625 547.9757080078125 466.37481689453125" stroke-width="0.0" fill="rgb(216, 153, 81)" opacity="0.8577753"/>
    <path d="M 358.7697448730469 4.502056121826172 C 313.4547119140625 249.30902099609375 350.7896728515625 168.1787109375 283.7985534667969 131.3168182373047 C 174.2219696044922 117.48883819580078 113.74816131591797 219.27272033691406 85.13101196289062 10.307767868041992 C 93.99458312988281 -21.19856834411621 93.72737121582031 -19.20404624938965 200.2183380126953 -29.9858455657959 C 383.7361145019531 -5.1235198974609375 386.2521667480469 -13.610368728637695 358.7697448730469 4.502056121826172" stroke-width="0.0" fill="rgb(10, 145, 119)" opacity="0.81741256"/>
    <path d="M 389.6695251464844 596.7848510742188 C 352.8277587890625 625.552734375 330.8974304199219 625.5374755859375 198.51931762695312 637.6923828125 C 31.746082305908203 625.8157348632812 13.343523979187012 614.941162109375 -75.14872741699219 555.70068359375 C 61.77952194213867 432.4340515136719 134.7347412109375 470.6882019042969 233.89320373535156 453.78302001953125 C 255.7672576904297 432.0186767578125 302.0805358886719 417.3598327636719 389.6695251464844 596.7848510742188" stroke-width="0.0" fill="rgb(6, 151, 191)" opacity="0.8925073"/>
    <path d="M 369.3504638671875 508.94549560546875 C 407.839599609375 599.6767578125 412.7145080566406 591.8367309570312 367.2916564941406 543.781494140625 C 313.3905944824219 501.39892578125 272.2414245605469 493.56597900390625 197.03594970703125 402.74468994140625 C 214.90496826171875 333.2909240722656 195.77090454101562 295.0036315917969 307.8722229003906 329.073486328125 C 382.4283142089844 372.9830322265625 374.3574523925781 394.45849609375 369.3504638671875 508.94549560546875" stroke-width="0.0" fill="rgb(237, 182, 51)" opacity="0.776826"/>
    <path d="M 147.10494995117188 282.7037658691406 C 195.2073974609375 343.2843322753906 214.4747772216797 269.5055847167969 34.437984466552734 284.16973876953125 C 16.704496383666992 237.54861450195312 -3.634143590927124 243.88453674316406 -17.271596908569336 161.97467041015625 C -26.591957092285156 121.36933898925781 -16.120513916015625 108.38373565673828 -2.6884140968322754 120.14302062988281 C 155.47779846191406 136.7576446533203 118.97987365722656 153.0695037841797 147.10494995117188 282.7037658691406" stroke-width="0.0" fill="rgb(3, 38, 89)" opacity="0.85814923"/>
    <path d="M 230.3223876953125 144.24050903320312 C 175.3175506591797 164.68067932128906 139.27597045898438 245.86819458007812 151.07427978515625 252.26463317871094 C 22.2000732421875 210.41354370117188 15.909318923950195 190.0435791015625 -11.660429000854492 43.38663101196289 C -43.21237564086914 4.536396026611328 -34.10154724121094 18.023038864135742 91.68522644042969 10.397205352783203 C 163.56069946289062 16.104812622070312 154.24142456054688 32.32194137573242 230.3223876953125 144.24050903320312" stroke-width="0.0" fill="rgb(3, 0, 3)" opacity="1.0"/>
    <path d="M 308.558837890625 302.7957458496094 C 191.50485229492188 489.97979736328125 151.3319854736328 478.7906188964844 62.237518310546875 465.04327392578125 C 64.9219970703125 493.3947448730469 78.31877136230469 473.4833679199219 17.326091766357422 416.5159912109375 C 11.706005096435547 370.1385192871094 43.04574966430664 378.9957275390625 184.8438720703125 286.8851013183594 C 283.3027038574219 306.87103271484375 334.21197509765625 246.68565368652344 308.558837890625 302.7957458496094" stroke-width="0.0" fill="rgb(229, 150, 91)" opacity="0.24909337"/>
    <path d="M 554.990966796875 302.4566650390625 C 519.2403564453125 345.8428649902344 519.1027221679688 362.69903564453125 386.80615234375 381.65716552734375 C 283.5601806640625 365.32342529296875 254.25099182128906 406.1296081542969 250.717529296875 317.55755615234375 C 386.39141845703125 258.6089172363281 381.5052185058594 195.36151123046875 454.17950439453125 229.7288055419922 C 499.3774108886719 197.31980895996094 530.3607788085938 203.4944305419922 554.990966796875 302.4566650390625" stroke-width="0.0" fill="rgb(0, 0, 4)" opacity="0.9993019"/>
    <path d="M 532.296630859375 75.27825927734375 C 512.2327270507812 257.6628112792969 533.0 266.14434814453125 366.5117492675781 270.7879638671875 C 311.27032470703125 287.3517761230469 381.3797302246094 229.83709716796875 268.9014587402344 149.54397583007812 C 263.8648376464844 5.106900691986084 291.8330078125 22.524682998657227 358.8882751464844 -43.36692428588867 C 540.0076293945312 -30.909242630004883 537.5697021484375 -22.303503036499023 532.296630859375 75.27825927734375" stroke-width="0.0" fill="rgb(20, 0, 2)" opacity="1.0"/>
    <path d="M 635.6106567382812 40.47458267211914 C 623.7450561523438 152.99034118652344 618.25732421875 179.90740966796875 614.4113159179688 141.4558563232422 C 505.73944091796875 121.15108489990234 443.4478454589844 141.31309509277344 368.2441101074219 0.2013016790151596 C 419.7331848144531 -0.3895223140716553 450.4212646484375 -7.568506240844727 532.7670288085938 -7.374319553375244 C 634.4139404296875 -16.76278305053711 643.1427612304688 -18.775146484375 635.6106567382812 40.47458267211914" stroke-width="0.0" fill="rgb(0, 0, 3)" opacity="1.0"/>
    <path d="M 655.87744140625 589.8547973632812 C 618.6253662109375 604.0362548828125 588.3992919921875 610.8667602539062 439.6083679199219 614.797607421875 C 301.5935974121094 604.003662109375 286.6439514160156 602.6303100585938 315.7840881347656 625.700439453125 C 401.66033935546875 466.2220764160156 399.3235778808594 468.5602722167969 424.6371154785156 495.0856018066406 C 512.4130859375 470.3182373046875 602.1429443359375 415.4372863769531 655.87744140625 589.8547973632812" stroke-width="0.0" fill="rgb(5, 112, 145)" opacity="0.97106755"/>
    <path d="M 619.2440185546875 261.1515808105469 C 623.054443359375 327.1446838378906 613.82666015625 334.5220947265625 603.1701049804688 298.1781005859375 C 482.1082763671875 261.7127685546875 461.21014404296875 250.86082458496094 393.975341796875 201.4494171142578 C 486.00421142578125 220.47377014160156 480.6383056640625 167.77723693847656 520.7340087890625 133.96694946289062 C 595.5775756835938 128.66098022460938 615.3911743164062 132.3552703857422 619.2440185546875 261.1515808105469" stroke-width="0.0" fill="rgb(180, 25, 4)" opacity="0.46784282"/>
    <path d="M 668.439697265625 378.395263671875 C 646.9225463867188 527.1123657226562 681.372802734375 570.8705444335938 606.7420043945312 561.8801879882812 C 448.36651611328125 547.3663940429688 459.3907470703125 535.6984252929688 495.3115234375 406.41168212890625 C 496.3615417480469 331.9654541015625 476.1688232421875 318.1014709472656 582.631103515625 226.7839813232422 C 732.9644165039062 235.6700439453125 700.2544555664062 276.77630615234375 668.439697265625 378.395263671875" stroke-width="0.0" fill="rgb(5, 163, 214)" opacity="0.98367107"/>
    <path d="M 76.71569061279297 482.7388916015625 C 35.42635726928711 479.96319580078125 31.730426788330078 489.02899169921875 -49.25505828857422 506.7496643066406 C -91.32992553710938 569.2110595703125 -73.5842056274414 582.0209350585938 -28.82487678527832 517.1098022460938 C -19.24860191345215 402.8218688964844 -13.901092529296875 392.9795227050781 59.30056381225586 338.1986083984375 C 126.42372131347656 361.2079772949219 89.16850280761719 393.9122314453125 76.71569061279297 482.7388916015625" stroke-width="0.0" fill="rgb(115, 174, 74)" opacity="0.25328058"/>
    <path d="M 220.17974853515625 322.2709045410156 C 211.49754333496094 405.8112487792969 180.07156372070312 409.57586669921875 112.72532653808594 404.6634216308594 C 2.464006185531616 353.7572326660156 -20.05674171447754 356.3830261230469 -30.51547622680664 336.2496337890625 C -23.546974182128906 236.02706909179688 -17.868253707885742 252.41847229003906 60.82524490356445 246.70272827148438 C 113.07755279541016 233.53060913085938 141.87603759765625 315.0716552734375 220.17974853515625 322.2709045410156" stroke-width="0.0" fill="rgb(122, 37, 7)" opacity="1.0"/>
    <path d="M 191.54730224609375 119.25218963623047 C 207.21434020996094 201.82867431640625 192.21432495117188 117.06597900390625 148.08453369140625 163.6097412109375 C 82.58970642089844 172.04653930664062 77.14291381835938 171.7830352783203 98.228271484375 73.35931396484375 C 94.69181823730469 25.77389907836914 122.69073486328125 30.20070457458496 195.35328674316406 26.424970626831055 C 220.29324340820312 36.02497863769531 191.888916015625 25.034263610839844 191.54730224609375 119.25218963623047" stroke-width="0.0" fill="rgb(37, 178, 200)" opacity="0.9788096"/>
    <path d="M 142.74517822265625 167.23800659179688 C 136.39317321777344 218.65347290039062 187.97044372558594 191.2581024169922 148.4599151611328 220.3619842529297 C 45.658164978027344 177.97694396972656 -1.0518009662628174 182.4294891357422 -10.488434791564941 156.9961700439453 C 28.796104431152344 91.71247863769531 48.500125885009766 99.73895263671875 111.12803649902344 84.59706115722656 C 132.32994079589844 99.06690216064453 170.3592071533203 83.76712799072266 142.74517822265625 167.23800659179688" stroke-width="0.0" fill="rgb(30, 174, 198)" opacity="0.9820276"/>
    <path d="M 499.7340087890625 487.92572021484375 C 491.4586181640625 546.2604370117188 472.7117614746094 550.921630859375 389.7393493652344 541.8049926757812 C 298.9728088378906 530.9237060546875 282.0958251953125 533.8480224609375 470.4791564941406 453.9249267578125 C 485.93377685546875 373.7371520996094 141.68885803222656 480.2875061035156 165.69093322753906 347.5008239746094 C 577.8662719726562 333.5767822265625 474.3136291503906 300.3201599121094 499.7340087890625 487.92572021484375" stroke-width="0.0" fill="rgb(247, 189, 0)" opacity="1.0"/>
    <path d="M 163.4888916015625 44.09760284423828 C 155.67474365234375 119.65208435058594 104.55616760253906 103.86441040039062 19.747297286987305 122.62428283691406 C 19.304821014404297 178.4585418701172 2.615557909011841 150.11886596679688 -22.312694549560547 74.83382415771484 C -35.474571228027344 16.263607025146484 -44.09880065917969 9.418614387512207 69.11311340332031 -41.13862991333008 C 165.34390258789062 -29.226057052612305 152.9322509765625 -24.447429656982422 163.4888916015625 44.09760284423828" stroke-width="0.0" fill="rgb(39, 155, 66)" opacity="1.0"/>
    <path d="M 517.6068115234375 485.7900085449219 C 511.4075927734375 550.6531372070312 485.457275390625 541.3308715820312 495.76947021484375 559.4364013671875 C 437.4454040527344 547.1841430664062 485.5423583984375 483.42303466796875 452.4070739746094 407.3791198730469 C 406.0022277832031 436.95550537109375 421.6711120605469 456.24395751953125 497.08660888671875 397.2001647949219 C 534.3972778320312 482.9283447265625 443.27044677734375 443.30706787109375 517.6068115234375 485.7900085449219" stroke-width="0.0" fill="rgb(41, 133, 232)" opacity="0.6781002"/>
    <path d="M 599.7979736328125 112.14244842529297 C 543.0162963867188 144.49002075195312 529.5927124023438 158.37278747558594 554.3162841796875 147.7952117919922 C 461.7889099121094 154.3372802734375 421.25732421875 163.12939453125 407.4852600097656 100.21024322509766 C 406.2640380859375 -0.7784183621406555 398.7447814941406 28.35051155090332 460.8450927734375 17.03919792175293 C 573.5072631835938 28.278310775756836 594.0521240234375 21.710662841796875 599.7979736328125 112.14244842529297" stroke-width="0.0" fill="rgb(33, 193, 213)" opacity="0.91022384"/>
    <path d="M 167.6047821044922 204.21566772460938 C 136.55030822753906 275.51092529296875 151.9771728515625 311.1324462890625 131.30276489257812 302.3592834472656 C -26.173683166503906 297.4404296875 -70.97615814208984 311.3241882324219 -110.66126251220703 248.46954345703125 C -63.62978744506836 112.59022521972656 -34.05564498901367 117.4030990600586 66.91893768310547 125.11568450927734 C 97.14041900634766 136.01287841796875 107.84233856201172 170.9945068359375 167.6047821044922 204.21566772460938" stroke-width="0.0" fill="rgb(21, 174, 206)" opacity="0.9970378"/>
    <path d="M 634.9138793945312 80.13467407226562 C 657.2548217773438 158.71524047851562 663.982177734375 187.34324645996094 604.2059326171875 167.14540100097656 C 549.8687744140625 115.25440216064453 536.30322265625 86.08482360839844 524.0528564453125 56.2193603515625 C 520.6002807617188 31.847570419311523 522.5631103515625 20.37321662902832 591.1864013671875 27.405929565429688 C 632.4227905273438 39.431640625 633.0830688476562 29.94699478149414 634.9138793945312 80.13467407226562" stroke-width="0.0" fill="rgb(25, 143, 179)" opacity="0.99767774"/>
    <path d="M 536.0133666992188 164.076171875 C 485.773193359375 193.6109161376953 468.348876953125 202.055908203125 361.1653137207031 256.3697814941406 C 285.3941345214844 321.26995849609375 359.7516174316406 253.72415161132812 317.2982482910156 190.71633911132812 C 374.7511291503906 119.471435546875 315.2359924316406 47.713966369628906 311.66400146484375 34.6749267578125 C 475.037353515625 65.46392822265625 533.29638671875 20.763866424560547 536.0133666992188 164.076171875" stroke-width="0.0" fill="rgb(24, 177, 210)" opacity="1.0"/>
    <path d="M 327.7694091796875 113.68611907958984 C 240.2563018798828 150.15524291992188 299.6590881347656 158.9528350830078 255.25372314453125 154.13954162597656 C 179.68356323242188 153.66488647460938 214.64004516601562 197.2925567626953 166.4199981689453 102.64646911621094 C 172.59718322753906 8.780238151550293 178.50875854492188 22.563459396362305 254.239990234375 16.785341262817383 C 333.49517822265625 12.112251281738281 335.5511779785156 15.689105033874512 327.7694091796875 113.68611907958984" stroke-width="0.0" fill="rgb(23, 177, 200)" opacity="0.9996149"/>
    <path d="M 463.064453125 404.6589660644531 C 457.2450256347656 603.6622314453125 441.7376708984375 573.859619140625 352.1627502441406 563.4493408203125 C 280.61541748046875 481.48406982421875 265.025634765625 490.9880676269531 144.90367126464844 417.62261962890625 C 100.53811645507812 411.5937194824219 98.99546813964844 398.6204528808594 274.21697998046875 432.98345947265625 C 426.10430908203125 436.55047607421875 431.4194641113281 402.4643859863281 463.064453125 404.6589660644531" stroke-width="0.0" fill="rgb(103, 213, 215)" opacity="1.0"/>
    <path d="M 145.12066650390625 317.2519836425781 C 141.06802368164062 346.6585998535156 153.93605041503906 334.81829833984375 134.95655822753906 337.15435791015625 C -23.65386199951172 333.3483581542969 -14.117012023925781 331.40509033203125 -3.6149940490722656 283.94085693359375 C -71.88420104980469 283.6079406738281 -71.66864013671875 276.498291015625 10.590280532836914 298.3922119140625 C 218.8330535888672 300.2789001464844 198.0500030517578 299.908935546875 145.12066650390625 317.2519836425781" stroke-width="0.0" fill="rgb(168, 126, 0)" opacity="0.31632927"/>
    <path d="M 428.6297912597656 52.225406646728516 C 393.115966796875 150.2614288330078 403.197021484375 156.46652221679688 329.349365234375 166.02561950683594 C 310.03900146484375 105.59200286865234 251.47337341308594 170.68292236328125 266.06292724609375 114.03298950195312 C 247.09593200683594 11.675823211669922 246.38587951660156 17.86525535583496 296.3291015625 -23.935483932495117 C 416.8038635253906 -3.5444250106811523 427.4610595703125 12.391663551330566 428.6297912597656 52.225406646728516" stroke-width="0.0" fill="rgb(28, 175, 212)" opacity="1.0"/>
    <path d="M 528.384521484375 88.20445251464844 C 545.866943359375 169.41551208496094 519.06689453125 144.51747131347656 427.2261047363281 154.48654174804688 C 317.650390625 173.45278930664062 320.7308654785156 187.0196990966797 319.6015930175781 22.379892349243164 C 356.4203796386719 -28.114145278930664 405.88800048828125 -21.33915901184082 455.2002258300781 2.387101650238037 C 502.97198486328125 5.748422145843506 518.200927734375 11.94176959991455 528.384521484375 88.20445251464844" stroke-width="0.0" fill="rgb(28, 172, 212)" opacity="1.0"/>
    <path d="M 645.0906372070312 510.0972900390625 C 628.8759765625 562.0195922851562 624.729736328125 564.3734741210938 542.9345703125 574.9932250976562 C 466.1261901855469 556.240478515625 433.6402282714844 557.7276611328125 396.6112060546875 562.7747802734375 C 402.94659423828125 411.39422607421875 433.35223388671875 425.03656005859375 579.204345703125 416.48016357421875 C 637.0536499023438 418.38641357421875 647.5802612304688 438.5115966796875 645.0906372070312 510.0972900390625" stroke-width="0.0" fill="rgb(105, 215, 212)" opacity="0.9962357"/>
    <path d="M 271.5412902832031 483.0913391113281 C 276.079345703125 483.93853759765625 244.06533813476562 488.0035705566406 145.52601623535156 483.3416748046875 C 65.83097839355469 466.4167175292969 -1.504663348197937 496.83355712890625 -68.21636199951172 520.1265258789062 C -114.68096160888672 386.79205322265625 -94.13978576660156 421.1720886230469 135.85684204101562 410.25164794921875 C 282.1612243652344 396.92730712890625 275.1875915527344 464.3064270019531 271.5412902832031 483.0913391113281" stroke-width="0.0" fill="rgb(111, 222, 214)" opacity="0.98758566"/>
    <path d="M 633.9862670898438 203.8887176513672 C 483.11285400390625 293.9334716796875 479.0807189941406 308.03485107421875 437.1696472167969 290.1702880859375 C 408.1728515625 304.937744140625 409.2361145019531 285.2914733886719 420.55035400390625 298.1123046875 C 458.13140869140625 302.49700927734375 454.6094970703125 286.5973205566406 469.3773193359375 224.18409729003906 C 566.4608154296875 157.17701721191406 624.1846313476562 126.15878295898438 633.9862670898438 203.8887176513672" stroke-width="0.0" fill="rgb(128, 165, 134)" opacity="0.84556276"/>
    <path d="M 667.0977783203125 227.61106872558594 C 485.6455993652344 295.1288757324219 465.18896484375 292.9449157714844 392.4072570800781 300.11383056640625 C 399.8627014160156 271.9932556152344 410.293212890625 239.4676055908203 405.4898376464844 248.55343627929688 C 447.4102783203125 232.16807556152344 438.21673583984375 228.99234008789062 447.3671569824219 226.60081481933594 C 574.2018432617188 160.72607421875 615.50634765625 161.5450439453125 667.0977783203125 227.61106872558594" stroke-width="0.0" fill="rgb(12, 173, 217)" opacity="1.0"/>
    <path d="M 180.58909606933594 360.0648498535156 C 172.22434997558594 421.7162780761719 164.24266052246094 398.8323059082031 107.58380126953125 385.5543518066406 C 19.430025100708008 396.15936279296875 28.358810424804688 411.55072021484375 13.678803443908691 370.25982666015625 C 39.24944305419922 369.4315185546875 41.170021057128906 416.54461669921875 16.64029884338379 350.1534729003906 C 80.7142105102539 342.7167053222656 136.0130157470703 348.810546875 180.58909606933594 360.0648498535156" stroke-width="0.0" fill="rgb(255, 115, 16)" opacity="0.8272347"/>
    <path d="M 443.61724853515625 294.2527770996094 C 425.91998291015625 335.4858703613281 391.4669189453125 337.0478515625 293.6746520996094 346.32183837890625 C 310.35552978515625 319.8125915527344 332.94488525390625 369.8192138671875 307.619140625 313.931396484375 C 352.5352783203125 333.8084411621094 368.12969970703125 320.98126220703125 401.9482116699219 298.50146484375 C 423.6213684082031 296.2572326660156 428.9786682128906 294.54339599609375 443.61724853515625 294.2527770996094" stroke-width="0.0" fill="rgb(132, 67, 26)" opacity="0.6058199"/>
    <path d="M 470.6280517578125 311.60333251953125 C 466.65771484375 343.0741882324219 427.2647705078125 349.2603759765625 396.5392761230469 328.1004333496094 C 411.50189208984375 313.4328308105469 420.7490539550781 329.6503601074219 366.483154296875 323.32183837890625 C 393.63861083984375 295.94769287109375 417.6086120605469 292.8110656738281 407.25 304.8754577636719 C 420.8431396484375 294.4154357910156 439.8122863769531 293.03399658203125 470.6280517578125 311.60333251953125" stroke-width="0.0" fill="rgb(77, 52, 0)" opacity="0.6448381"/>
    <path d="M 428.75238037109375 261.28961181640625 C 434.05224609375 294.8209228515625 417.3680419921875 292.50360107421875 374.4777526855469 319.69317626953125 C 360.80828857421875 319.79193115234375 356.8265380859375 327.2353210449219 368.3501892089844 318.5103454589844 C 425.9425354003906 296.28680419921875 413.9990234375 247.066650390625 394.1664733886719 226.6336669921875 C 414.2929992675781 242.68275451660156 413.3939514160156 268.471923828125 428.75238037109375 261.28961181640625" stroke-width="0.0" fill="rgb(8, 186, 186)" opacity="0.23933843"/>
    <path d="M 556.2232666015625 318.2610778808594 C 542.41259765625 359.113525390625 535.0867919921875 369.1152038574219 510.48486328125 394.5819396972656 C 454.28125 400.6271057128906 491.1493835449219 386.3713684082031 497.005126953125 349.51739501953125 C 476.31866455078125 322.8213806152344 487.22955322265625 317.83709716796875 500.66845703125 297.31488037109375 C 545.2489013671875 263.2154235839844 557.1328125 256.0396423339844 556.2232666015625 318.2610778808594" stroke-width="0.0" fill="rgb(254, 176, 13)" opacity="0.99869204"/>
    <path d="M 277.5801696777344 414.87103271484375 C 216.7917938232422 419.9075927734375 186.5682373046875 427.0601501464844 149.40966796875 434.2398376464844 C 133.88165283203125 423.6819152832031 90.3648681640625 411.8302307128906 61.618072509765625 406.1368408203125 C 64.52523803710938 334.7422790527344 109.92231750488281 347.8431396484375 191.08627319335938 346.91802978515625 C 237.92398071289062 370.24041748046875 249.1968994140625 345.6413879394531 277.5801696777344 414.87103271484375" stroke-width="0.0" fill="rgb(249, 187, 20)" opacity="0.97538906"/>
    <path d="M 335.28228759765625 345.9699401855469 C 322.28948974609375 335.3853454589844 342.390869140625 346.61846923828125 335.55755615234375 342.6018371582031 C 309.894775390625 343.76611328125 246.0611572265625 353.2178039550781 207.82557678222656 334.2471618652344 C 280.3883972167969 326.3327331542969 302.380859375 324.7839660644531 302.6482238769531 293.5230407714844 C 308.8636169433594 285.872802734375 303.3679504394531 308.5004577636719 335.28228759765625 345.9699401855469" stroke-width="0.0" fill="rgb(172, 164, 162)" opacity="0.83579606"/>
    <path d="M 570.7877197265625 258.9512023925781 C 560.0369262695312 311.36151123046875 562.9996337890625 321.736083984375 540.4611206054688 340.0812683105469 C 469.77197265625 334.1905517578125 450.8348693847656 337.0910949707031 493.1150817871094 296.3053283691406 C 512.0830078125 275.38720703125 527.4921264648438 271.8330993652344 565.617431640625 242.41729736328125 C 569.6294555664062 240.10098266601562 572.0416870117188 239.35887145996094 570.7877197265625 258.9512023925781" stroke-width="0.0" fill="rgb(255, 186, 0)" opacity="1.0"/>
    <path d="M 566.366455078125 256.65509033203125 C 561.2882080078125 298.19598388671875 556.2384033203125 324.7355041503906 536.7066040039062 369.2273254394531 C 516.5973510742188 374.7842712402344 543.123046875 364.244384765625 566.7101440429688 302.9629821777344 C 546.50439453125 346.74053955078125 588.64990234375 249.40164184570312 563.6146240234375 244.2616424560547 C 573.3731689453125 217.92605590820312 580.9652709960938 258.7525634765625 566.366455078125 256.65509033203125" stroke-width="0.0" fill="rgb(146, 122, 119)" opacity="0.20455961"/>
    <path d="M 302.2221374511719 211.432861328125 C 332.3230285644531 231.17117309570312 328.74432373046875 255.0926971435547 297.5885314941406 256.2850646972656 C 267.4634704589844 217.45352172851562 258.2032775878906 218.7142333984375 260.4212951660156 206.3519744873047 C 264.4541320800781 195.15895080566406 269.1968078613281 193.72850036621094 274.8255310058594 194.3216552734375 C 277.70550537109375 196.43463134765625 292.0674133300781 200.23780822753906 302.2221374511719 211.432861328125" stroke-width="0.0" fill="rgb(4, 0, 3)" opacity="1.0"/>
    <path d="M 108.78587341308594 401.8368835449219 C 53.153133392333984 425.3642578125 38.51407241821289 420.2578430175781 14.581351280212402 422.3739929199219 C -4.516111850738525 414.3133239746094 -19.765914916992188 416.8067626953125 -45.95955276489258 395.3359375 C -8.438810348510742 337.9237976074219 6.429512977600098 337.8997802734375 50.38630676269531 351.586181640625 C 76.53777313232422 362.3941955566406 99.269287109375 348.06072998046875 108.78587341308594 401.8368835449219" stroke-width="0.0" fill="rgb(242, 201, 50)" opacity="0.90436673"/>
    <path d="M 136.8048858642578 407.9869689941406 C 38.39618682861328 413.6376953125 14.903295516967773 419.06146240234375 8.966279983520508 389.2249755859375 C 73.41282653808594 413.1076354980469 34.62862014770508 400.18511962890625 -33.70106506347656 401.003173828125 C -40.784420013427734 322.38409423828125 -30.789520263671875 340.1019287109375 71.10771942138672 351.4934997558594 C 131.3411102294922 345.4142150878906 126.34657287597656 344.9727783203125 136.8048858642578 407.9869689941406" stroke-width="0.0" fill="rgb(253, 196, 0)" opacity="1.0"/>
    <path d="M 522.3397827148438 334.385986328125 C 519.2258911132812 391.8490295410156 519.0715942382812 404.8819580078125 460.5407409667969 427.2568054199219 C 330.9356994628906 404.1617126464844 301.5816955566406 338.4509582519531 365.60321044921875 338.5695495605469 C 430.2530212402344 328.533935546875 449.29705810546875 310.1883239746094 467.2956237792969 301.80682373046875 C 522.0992431640625 288.2605285644531 507.3289489746094 271.39227294921875 522.3397827148438 334.385986328125" stroke-width="0.0" fill="rgb(253, 189, 0)" opacity="1.0"/>
    <path d="M 492.8985595703125 295.36566162109375 C 431.0792541503906 330.9650573730469 393.5851135253906 336.9067077636719 372.345703125 334.376953125 C 418.8615417480469 330.88543701171875 409.555419921875 329.6632995605469 390.3736572265625 332.7433166503906 C 386.9386901855469 306.4259948730469 371.984375 293.33599853515625 422.21014404296875 297.0276184082031 C 444.454833984375 299.65179443359375 454.0260009765625 291.4834289550781 492.8985595703125 295.36566162109375" stroke-width="0.0" fill="rgb(150, 42, 0)" opacity="0.8920183"/>
    <path d="M 235.87034606933594 213.75990295410156 C 240.56265258789062 212.62881469726562 224.1670379638672 248.625732421875 209.19442749023438 266.9267272949219 C 168.482666015625 267.8081970214844 175.14886474609375 239.56204223632812 203.71629333496094 213.8498992919922 C 212.540771484375 198.55230712890625 221.19485473632812 198.18145751953125 227.91854858398438 197.71737670898438 C 209.36660766601562 201.6822967529297 230.71263122558594 192.75619506835938 235.87034606933594 213.75990295410156" stroke-width="0.0" fill="rgb(9, 0, 12)" opacity="0.9942063"/>
    <path d="M 370.80877685546875 264.4893798828125 C 363.6272277832031 253.24839782714844 365.5198669433594 269.73712158203125 362.1552429199219 255.47586059570312 C 375.2558288574219 254.04885864257812 367.10198974609375 247.81874084472656 310.9657287597656 301.35418701171875 C 359.2637939453125 278.7592468261719 379.784423828125 268.6430969238281 362.20556640625 270.8423156738281 C 356.3599548339844 249.5895233154297 356.16546630859375 264.204833984375 370.80877685546875 264.4893798828125" stroke-width="0.0" fill="rgb(255, 103, 64)" opacity="0.3571536"/>
    <path d="M 593.99853515625 257.42901611328125 C 642.4746704101562 306.0305480957031 637.873779296875 303.77020263671875 565.0567626953125 291.43145751953125 C 567.9552612304688 263.4495544433594 597.2804565429688 256.5849304199219 631.2848510742188 262.7679138183594 C 607.4723510742188 235.63417053222656 634.3944702148438 227.72166442871094 561.255615234375 232.102294921875 C 572.870361328125 274.1366271972656 576.1378784179688 274.47320556640625 593.99853515625 257.42901611328125" stroke-width="0.0" fill="rgb(6, 176, 191)" opacity="0.41724524"/>
    <path d="M 571.511474609375 246.99183654785156 C 568.5220336914062 266.8388671875 576.8314819335938 243.8433837890625 565.7733154296875 240.4999237060547 C 554.0504150390625 254.571533203125 510.1463317871094 272.2804870605469 483.6849365234375 297.8548583984375 C 566.7988891601562 255.849853515625 554.8831176757812 233.18482971191406 556.0155639648438 250.62551879882812 C 573.0775756835938 241.10520935058594 573.1969604492188 243.79275512695312 571.511474609375 246.99183654785156" stroke-width="0.0" fill="rgb(224, 33, 0)" opacity="0.6471749"/>
    <path d="M 433.1451110839844 429.4366149902344 C 454.15179443359375 424.6067199707031 465.9469299316406 428.74432373046875 455.9050598144531 421.42816162109375 C 437.43756103515625 411.3168029785156 403.14459228515625 437.8445739746094 383.7333984375 415.23980712890625 C 432.8289489746094 403.1379699707031 448.3688659667969 417.0771789550781 466.7765808105469 400.33154296875 C 420.9755859375 413.7969055175781 444.19287109375 423.7545471191406 433.1451110839844 429.4366149902344" stroke-width="0.0" fill="rgb(238, 151, 115)" opacity="0.102810815"/>
    <path d="M 20.530853271484375 0.9134869575500488 C 17.851360321044922 10.91348648071289 10.530852317810059 18.233993530273438 0.5308523774147034 20.91348648071289 C -9.469147682189941 18.233993530273438 -16.789653778076172 10.91348648071289 -19.469146728515625 0.9134869575500488 C -16.789653778076172 -9.08651351928711 -9.469147682189941 -16.407020568847656 0.5308523774147034 -19.08651351928711 C 10.530852317810059 -16.407020568847656 17.851360321044922 -9.08651351928711 20.530853271484375 0.9134869575500488" stroke-width="0.0" fill="rgb(112, 182, 98)" opacity="0.8898031" stroke="rgb(248, 79, 117)" stroke-opacity="0.6740014" stroke-linecap="round" stroke-linejoin="round"/>
    <path d="M 20.009397506713867 0.8046330809593201 C 17.329904556274414 10.804633140563965 10.009397506713867 18.125139236450195 0.009397431276738644 20.80463218688965 C -9.990602493286133 18.125139236450195 -17.31110954284668 10.804633140563965 -19.990602493286133 0.8046330809593201 C -17.31110954284668 -9.195366859436035 -9.990602493286133 -16.5158748626709 0.009397431276738644 -19.19536781311035 C 10.009397506713867 -16.5158748626709 17.329904556274414 -9.195366859436035 20.009397506713867 0.8046330809593201" stroke-width="0.0" fill="rgb(156, 110, 18)" opacity="0.9106493" stroke="rgb(130, 222, 73)" stroke-opacity="0.08624917" stroke-linecap="round" stroke-linejoin="round"/>
    <path d="M 480.3011474609375 439.2693176269531 C 453.19989013671875 430.4036865234375 431.6031188964844 438.9293518066406 396.61187744140625 430.1302185058594 C 419.01312255859375 448.1826171875 392.16094970703125 456.186767578125 365.8973388671875 425.22796630859375 C 406.22705078125 404.6012268066406 423.6315002441406 422.4866638183594 454.8845520019531 422.482666015625 C 444.7010192871094 410.6955871582031 472.3489685058594 422.9526062011719 480.3011474609375 439.2693176269531" stroke-width="0.0" fill="rgb(127, 201, 216)" opacity="0.17409036"/>
    <path d="M 472.5635070800781 429.717041015625 C 464.72430419921875 443.65283203125 462.09393310546875 417.7739562988281 484.67291259765625 427.9646301269531 C 466.34375 432.08465576171875 436.9096374511719 423.6907653808594 442.7242736816406 426.0767517089844 C 438.4580078125 418.09210205078125 470.92333984375 406.5284729003906 471.9985656738281 420.3379821777344 C 481.5181884765625 405.0553283691406 473.90704345703125 435.5677490234375 472.5635070800781 429.717041015625" stroke-width="0.0" fill="rgb(244, 172, 144)" opacity="0.13297215"/>
    <path d="M 458.714111328125 421.05047607421875 C 441.0981750488281 422.9637145996094 468.3397521972656 436.14666748046875 452.18072509765625 413.7218322753906 C 418.35076904296875 422.3003845214844 439.24884033203125 432.9776306152344 461.57916259765625 421.93072509765625 C 445.5298156738281 427.044189453125 446.0201721191406 430.38043212890625 477.3799743652344 422.3855895996094 C 445.37176513671875 411.515869140625 468.2994384765625 415.8330078125 458.714111328125 421.05047607421875" stroke-width="0.0" fill="rgb(199, 194, 141)" opacity="0.19307469"/>
    <path d="M 20.345565795898438 0.5875716805458069 C 17.666072845458984 10.58757209777832 10.345565795898438 17.908079147338867 0.3455656170845032 20.58757209777832 C -9.654434204101562 17.908079147338867 -16.97494125366211 10.58757209777832 -19.654434204101562 0.5875716805458069 C -16.97494125366211 -9.41242790222168 -9.654434204101562 -16.732934951782227 0.3455656170845032 -19.41242790222168 C 10.345565795898438 -16.732934951782227 17.666072845458984 -9.41242790222168 20.345565795898438 0.5875716805458069" stroke-width="0.0" fill="rgb(153, 251, 239)" opacity="0.9667392" stroke="rgb(119, 167, 228)" stroke-opacity="0.39295077" stroke-linecap="round" stroke-linejoin="round"/>
    <path d="M 258.5559997558594 255.93850708007812 C 268.31585693359375 297.27935791015625 207.3834686279297 246.71327209472656 250.38201904296875 270.5833740234375 C 326.2457275390625 244.03187561035156 243.04042053222656 291.1083679199219 256.9293212890625 259.1134338378906 C 215.898681640625 241.88087463378906 249.6973876953125 248.49761962890625 261.0417785644531 241.5028533935547 C 269.7271423339844 240.63816833496094 283.60089111328125 248.23402404785156 258.5559997558594 255.93850708007812" stroke-width="0.0" fill="rgb(0, 0, 18)" opacity="1.0"/>
    <path d="M 20.27448081970215 0.5659289956092834 C 17.594987869262695 10.565929412841797 10.274480819702148 17.886436462402344 0.2744803726673126 20.565929412841797 C -9.725519180297852 17.886436462402344 -17.0460262298584 10.565929412841797 -19.72551918029785 0.5659289956092834 C -17.0460262298584 -9.434070587158203 -9.725519180297852 -16.75457763671875 0.2744803726673126 -19.434070587158203 C 10.274480819702148 -16.75457763671875 17.594987869262695 -9.434070587158203 20.27448081970215 0.5659289956092834" stroke-width="0.0" fill="rgb(243, 207, 230)" opacity="0.9801576" stroke="rgb(206, 213, 23)" stroke-opacity="0.73877805" stroke-linecap="round" stroke-linejoin="round"/>
    <path d="M 455.2800598144531 419.7423095703125 C 466.1387939453125 414.78680419921875 480.4463195800781 407.6120910644531 491.9158630371094 424.1676025390625 C 413.40447998046875 437.3907470703125 403.5069885253906 402.57305908203125 410.8298645019531 416.968505859375 C 470.10858154296875 420.3761291503906 483.5793151855469 422.99749755859375 471.208740234375 404.08367919921875 C 474.3197326660156 411.2485656738281 475.8470153808594 409.6134948730469 455.2800598144531 419.7423095703125" stroke-width="0.0" fill="rgb(229, 139, 195)" opacity="0.12566103"/>
    <path d="M 20.037019729614258 0.5022911429405212 C 17.357526779174805 10.502290725708008 10.037019729614258 17.822797775268555 0.03701961040496826 20.502290725708008 C -9.962980270385742 17.822797775268555 -17.28348731994629 10.502290725708008 -19.962980270385742 0.5022911429405212 C -17.28348731994629 -9.497709274291992 -9.962980270385742 -16.81821632385254 0.03701961040496826 -19.497709274291992 C 10.037019729614258 -16.81821632385254 17.357526779174805 -9.497709274291992 20.037019729614258 0.5022911429405212" stroke-width="0.0" fill="rgb(148, 234, 12)" opacity="0.95608896" stroke="rgb(61, 223, 4)" stroke-opacity="0.73245466" stroke-linecap="round" stroke-linejoin="round"/>
    <path d="M 20.590181350708008 0.8697003126144409 C 17.910688400268555 10.86970043182373 10.590180397033691 18.19020652770996 0.5901804566383362 20.869699478149414 C -9.409819602966309 18.19020652770996 -16.73032569885254 10.86970043182373 -19.409818649291992 0.8697003126144409 C -16.73032569885254 -9.13029956817627 -9.409819602966309 -16.450807571411133 0.5901804566383362 -19.130300521850586 C 10.590180397033691 -16.450807571411133 17.910688400268555 -9.13029956817627 20.590181350708008 0.8697003126144409" stroke-width="0.0" fill="rgb(237, 167, 111)" opacity="0.97603416" stroke="rgb(119, 7, 175)" stroke-opacity="0.48183724" stroke-linecap="round" stroke-linejoin="round"/>
    <path d="M 459.8145751953125 294.5352783203125 C 436.7867736816406 300.5781555175781 412.9974060058594 299.6606750488281 394.2564697265625 300.0722961425781 C 401.75189208984375 300.6805114746094 400.6656188964844 296.24365234375 386.5873107910156 302.17083740234375 C 396.1668395996094 288.6850280761719 434.2485046386719 297.5509033203125 448.56707763671875 293.25445556640625 C 428.74945068359375 300.0485534667969 432.0185852050781 291.8093566894531 459.8145751953125 294.5352783203125" stroke-width="0.0" fill="rgb(74, 219, 82)" opacity="0.44582582"/>
    <path d="M 20.87257957458496 0.4436785578727722 C 18.193086624145508 10.443678855895996 10.872579574584961 17.764184951782227 0.8725792169570923 20.44367790222168 C -9.127420425415039 17.764184951782227 -16.447927474975586 10.443678855895996 -19.12742042541504 0.4436785578727722 C -16.447927474975586 -9.556321144104004 -9.127420425415039 -16.876829147338867 0.8725792169570923 -19.55632209777832 C 10.872579574584961 -16.876829147338867 18.193086624145508 -9.556321144104004 20.87257957458496 0.4436785578727722" stroke-width="0.0" fill="rgb(64, 51, 86)" opacity="0.7888197" stroke="rgb(131, 42, 249)" stroke-opacity="0.10792456" stroke-linecap="round" stroke-linejoin="round"/>
    <path d="M 20.44082260131836 0.5795738101005554 C 17.761329650878906 10.579573631286621 10.440823554992676 17.900081634521484 0.44082319736480713 20.579574584960938 C -9.559176445007324 17.900081634521484 -16.879684448242188 10.579573631286621 -19.55917739868164 0.5795738101005554 C -16.879684448242188 -9.420426368713379 -9.559176445007324 -16.74093246459961 0.44082319736480713 -19.420425415039062 C 10.440823554992676 -16.74093246459961 17.761329650878906 -9.420426368713379 20.44082260131836 0.5795738101005554" stroke-width="0.0" fill="rgb(209, 103, 56)" opacity="0.8646525" stroke="rgb(137, 144, 241)" stroke-opacity="0.90224564" stroke-linecap="round" stroke-linejoin="round"/>
    <path d="M 20.68579864501953 0.7446688413619995 C 18.006305694580078 10.744668960571289 10.685799598693848 18.065176010131836 0.6857994794845581 20.74466896057129 C -9.314200401306152 18.065176010131836 -16.634708404541016 10.744668960571289 -19.31420135498047 0.7446688413619995 C -16.634708404541016 -9.255331039428711 -9.314200401306152 -16.575838088989258 0.6857994794845581 -19.25533103942871 C 10.685799598693848 -16.575838088989258 18.006305694580078 -9.255331039428711 20.68579864501953 0.7446688413619995" stroke-width="0.0" fill="rgb(244, 173, 145)" opacity="0.83288115" stroke="rgb(152, 121, 237)" stroke-opacity="0.076084726" stroke-linecap="round" stroke-linejoin="round"/>
    <path d="M 280.2960205078125 213.31712341308594 C 261.9026794433594 223.58551025390625 283.5857849121094 224.11680603027344 283.3093566894531 222.15562438964844 C 288.5790710449219 213.5952606201172 293.13458251953125 220.6942901611328 280.8069152832031 224.66314697265625 C 285.9984436035156 209.35838317871094 281.09991455078125 219.0784454345703 280.57171630859375 229.46414184570312 C 277.2465515136719 199.76942443847656 297.4669494628906 217.04945373535156 280.2960205078125 213.31712341308594" stroke-width="0.0" fill="rgb(255, 199, 255)" opacity="1.0"/>
    <path d="M 20.694000244140625 0.903424084186554 C 18.014507293701172 10.903424263000488 10.694001197814941 18.22393035888672 0.6940011382102966 20.903423309326172 C -9.305998802185059 18.22393035888672 -16.626506805419922 10.903424263000488 -19.305999755859375 0.903424084186554 C -16.626506805419922 -9.096575736999512 -9.305998802185059 -16.417083740234375 0.6940011382102966 -19.096576690673828 C 10.694001197814941 -16.417083740234375 18.014507293701172 -9.096575736999512 20.694000244140625 0.903424084186554" stroke-width="0.0" fill="rgb(237, 232, 133)" opacity="0.8308145" stroke="rgb(160, 86, 76)" stroke-opacity="0.5782298" stroke-linecap="round" stroke-linejoin="round"/>
    <path d="M 20.045991897583008 0.7961434721946716 C 17.366498947143555 10.796143531799316 10.045990943908691 18.116649627685547 0.045990969985723495 20.796142578125 C -9.954009056091309 18.116649627685547 -17.27451515197754 10.796143531799316 -19.954008102416992 0.7961434721946716 C -17.27451515197754 -9.203856468200684 -9.954009056091309 -16.524364471435547 0.045990969985723495 -19.203857421875 C 10.045990943908691 -16.524364471435547 17.366498947143555 -9.203856468200684 20.045991897583008 0.7961434721946716" stroke-width="0.0" fill="rgb(127, 147, 73)" opacity="0.72516936" stroke="rgb(13, 64, 18)" stroke-opacity="0.10377471" stroke-linecap="round" stroke-linejoin="round"/>
    <path d="M 20.29511070251465 0.7474808692932129 C 17.615617752075195 10.747480392456055 10.295110702514648 18.0679874420166 0.29511046409606934 20.747480392456055 C -9.704889297485352 18.0679874420166 -17.0253963470459 10.747480392456055 -19.70488929748535 0.7474808692932129 C -17.0253963470459 -9.252519607543945 -9.704889297485352 -16.573026657104492 0.29511046409606934 -19.252519607543945 C 10.295110702514648 -16.573026657104492 17.615617752075195 -9.252519607543945 20.29511070251465 0.7474808692932129" stroke-width="0.0" fill="rgb(35, 64, 186)" opacity="0.8054068" stroke="rgb(67, 89, 180)" stroke-opacity="0.36784717" stroke-linecap="round" stroke-linejoin="round"/>
    <path d="M 20.649837493896484 0.8517652750015259 C 17.97034454345703 10.851765632629395 10.649836540222168 18.172271728515625 0.6498366594314575 20.851764678955078 C -9.350163459777832 18.172271728515625 -16.670669555664062 10.851765632629395 -19.350162506103516 0.8517652750015259 C -16.670669555664062 -9.148234367370605 -9.350163459777832 -16.46874237060547 0.6498366594314575 -19.148235321044922 C 10.649836540222168 -16.46874237060547 17.97034454345703 -9.148234367370605 20.649837493896484 0.8517652750015259" stroke-width="0.0" fill="rgb(251, 186, 198)" opacity="0.76469195" stroke="rgb(21, 123, 131)" stroke-opacity="0.8291818" stroke-linecap="round" stroke-linejoin="round"/>
    <path d="M 20.874191284179688 0.4403062164783478 C 18.194698333740234 10.440306663513184 10.874190330505371 17.760812759399414 0.8741903901100159 20.440305709838867 C -9.125809669494629 17.760812759399414 -16.44631576538086 10.440306663513184 -19.125808715820312 0.4403062164783478 C -16.44631576538086 -9.559693336486816 -9.125809669494629 -16.88020133972168 0.8741903901100159 -19.559694290161133 C 10.874190330505371 -16.88020133972168 18.194698333740234 -9.559693336486816 20.874191284179688 0.4403062164783478" stroke-width="0.0" fill="rgb(31, 54, 16)" opacity="0.88660884" stroke="rgb(128, 208, 219)" stroke-opacity="0.61562437" stroke-linecap="round" stroke-linejoin="round"/>
    <path d="M 20.852340698242188 0.8593421578407288 C 18.172847747802734 10.859342575073242 10.852341651916504 18.17984962463379 0.85234135389328 20.859342575073242 C -9.147658348083496 18.17984962463379 -16.46816635131836 10.859342575073242 -19.147659301757812 0.8593421578407288 C -16.46816635131836 -9.140657424926758 -9.147658348083496 -16.461164474487305 0.85234135389328 -19.140657424926758 C 10.852341651916504 -16.461164474487305 18.172847747802734 -9.140657424926758 20.852340698242188 0.8593421578407288" stroke-width="0.0" fill="rgb(113, 145, 134)" opacity="0.88456446" stroke="rgb(211, 40, 151)" stroke-opacity="0.5936105" stroke-linecap="round" stroke-linejoin="round"/>
    <path d="M 20.293367385864258 0.3748410940170288 C 17.613874435424805 10.37484073638916 10.293367385864258 17.695348739624023 0.29336777329444885 20.374841690063477 C -9.706632614135742 17.695348739624023 -17.02713966369629 10.37484073638916 -19.706632614135742 0.3748410940170288 C -17.02713966369629 -9.62515926361084 -9.706632614135742 -16.94566535949707 0.29336777329444885 -19.625158309936523 C 10.293367385864258 -16.94566535949707 17.613874435424805 -9.62515926361084 20.293367385864258 0.3748410940170288" stroke-width="0.0" fill="rgb(207, 9, 168)" opacity="0.9614637" stroke="rgb(123, 77, 131)" stroke-opacity="0.381958" stroke-linecap="round" stroke-linejoin="round"/>
    <path d="M 20.525951385498047 0.4569280743598938 C 17.846458435058594 10.456928253173828 10.525951385498047 17.777435302734375 0.525951087474823 20.456928253173828 C -9.474048614501953 17.777435302734375 -16.7945556640625 10.456928253173828 -19.474048614501953 0.4569280743598938 C -16.7945556640625 -9.543071746826172 -9.474048614501953 -16.86357879638672 0.525951087474823 -19.543071746826172 C 10.525951385498047 -16.86357879638672 17.846458435058594 -9.543071746826172 20.525951385498047 0.4569280743598938" stroke-width="0.0" fill="rgb(3, 177, 106)" opacity="0.8947242" stroke="rgb(89, 233, 34)" stroke-opacity="0.6715118" stroke-linecap="round" stroke-linejoin="round"/>
    <path d="M 20.380008697509766 0.31666114926338196 C 17.700515747070312 10.31666088104248 10.380009651184082 17.637168884277344 0.38000938296318054 20.316661834716797 C -9.619990348815918 17.637168884277344 -16.94049835205078 10.31666088104248 -19.619991302490234 0.31666114926338196 C -16.94049835205078 -9.68333911895752 -9.619990348815918 -17.00384521484375 0.38000938296318054 -19.683338165283203 C 10.380009651184082 -17.00384521484375 17.700515747070312 -9.68333911895752 20.380008697509766 0.31666114926338196" stroke-width="0.0" fill="rgb(41, 31, 249)" opacity="0.7682265" stroke="rgb(43, 170, 155)" stroke-opacity="0.6435521" stroke-linecap="round" stroke-linejoin="round"/>
    <path d="M 20.718717575073242 0.759401798248291 C 18.03922462463379 10.759401321411133 10.718717575073242 18.07990837097168 0.7187173962593079 20.759401321411133 C -9.281282424926758 18.07990837097168 -16.601789474487305 10.759401321411133 -19.281282424926758 0.759401798248291 C -16.601789474487305 -9.240598678588867 -9.281282424926758 -16.561105728149414 0.7187173962593079 -19.240598678588867 C 10.718717575073242 -16.561105728149414 18.03922462463379 -9.240598678588867 20.718717575073242 0.759401798248291" stroke-width="0.0" fill="rgb(22, 227, 99)" opacity="0.83870846" stroke="rgb(99, 220, 236)" stroke-opacity="0.3034532" stroke-linecap="round" stroke-linejoin="round"/>
    <path d="M 20.049043655395508 0.6064065098762512 C 17.369550704956055 10.606406211853027 10.049044609069824 17.92691421508789 0.049044251441955566 20.606407165527344 C -9.950955390930176 17.92691421508789 -17.27146339416504 10.606406211853027 -19.950956344604492 0.6064065098762512 C -17.27146339416504 -9.393593788146973 -9.950955390930176 -16.714099884033203 0.049044251441955566 -19.393592834472656 C 10.049044609069824 -16.714099884033203 17.369550704956055 -9.393593788146973 20.049043655395508 0.6064065098762512" stroke-width="0.0" fill="rgb(127, 175, 201)" opacity="0.9726753" stroke="rgb(240, 16, 102)" stroke-opacity="0.023459021" stroke-linecap="round" stroke-linejoin="round"/>
    <path d="M 20.14556884765625 0.5311663150787354 C 17.466075897216797 10.531166076660156 10.145569801330566 17.851673126220703 0.1455698013305664 20.531166076660156 C -9.854430198669434 17.851673126220703 -17.174938201904297 10.531166076660156 -19.85443115234375 0.5311663150787354 C -17.174938201904297 -9.468833923339844 -9.854430198669434 -16.78934097290039 0.1455698013305664 -19.468833923339844 C 10.145569801330566 -16.78934097290039 17.466075897216797 -9.468833923339844 20.14556884765625 0.5311663150787354" stroke-width="0.0" fill="rgb(143, 29, 254)" opacity="0.80446917" stroke="rgb(181, 92, 212)" stroke-opacity="0.45427072" stroke-linecap="round" stroke-linejoin="round"/>
    <path d="M 20.638938903808594 0.4243089258670807 C 17.95944595336914 10.424308776855469 10.638938903808594 17.744815826416016 0.6389387249946594 20.42430877685547 C -9.361061096191406 17.744815826416016 -16.681568145751953 10.424308776855469 -19.361061096191406 0.4243089258670807 C -16.681568145751953 -9.575691223144531 -9.361061096191406 -16.896198272705078 0.6389387249946594 -19.57569122314453 C 10.638938903808594 -16.896198272705078 17.95944595336914 -9.575691223144531 20.638938903808594 0.4243089258670807" stroke-width="0.0" fill="rgb(245, 106, 153)" opacity="0.9851776" stroke="rgb(62, 190, 132)" stroke-opacity="0.26855713" stroke-linecap="round" stroke-linejoin="round"/>
    <path d="M 20.496726989746094 0.9041553139686584 C 17.81723403930664 10.904155731201172 10.496726989746094 18.22466278076172 0.4967272877693176 20.904155731201172 C -9.503273010253906 18.22466278076172 -16.823780059814453 10.904155731201172 -19.503273010253906 0.9041553139686584 C -16.823780059814453 -9.095844268798828 -9.503273010253906 -16.416351318359375 0.4967272877693176 -19.095844268798828 C 10.496726989746094 -16.416351318359375 17.81723403930664 -9.095844268798828 20.496726989746094 0.9041553139686584" stroke-width="0.0" fill="rgb(84, 136, 232)" opacity="0.7382499" stroke="rgb(23, 150, 135)" stroke-opacity="0.26637763" stroke-linecap="round" stroke-linejoin="round"/>
    <path d="M 20.571922302246094 0.5748119354248047 C 17.89242935180664 10.574811935424805 10.571922302246094 17.89531898498535 0.5719227194786072 20.574811935424805 C -9.428077697753906 17.89531898498535 -16.748584747314453 10.574811935424805 -19.428077697753906 0.5748119354248047 C -16.748584747314453 -9.425188064575195 -9.428077697753906 -16.745695114135742 0.5719227194786072 -19.425188064575195 C 10.571922302246094 -16.745695114135742 17.89242935180664 -9.425188064575195 20.571922302246094 0.5748119354248047" stroke-width="0.0" fill="rgb(162, 196, 93)" opacity="0.9461384" stroke="rgb(217, 43, 69)" stroke-opacity="0.2856266" stroke-linecap="round" stroke-linejoin="round"/>
    <path d="M 20.901208877563477 0.6776108741760254 C 18.221715927124023 10.677610397338867 10.901209831237793 17.998117446899414 0.9012094140052795 20.677610397338867 C -9.098790168762207 17.998117446899414 -16.41929817199707 10.677610397338867 -19.098791122436523 0.6776108741760254 C -16.41929817199707 -9.322389602661133 -9.098790168762207 -16.64289665222168 0.9012094140052795 -19.322389602661133 C 10.901209831237793 -16.64289665222168 18.221715927124023 -9.322389602661133 20.901208877563477 0.6776108741760254" stroke-width="0.0" fill="rgb(238, 96, 146)" opacity="0.7972941" stroke="rgb(182, 34, 74)" stroke-opacity="0.14471063" stroke-linecap="round" stroke-linejoin="round"/>
    <path d="M 20.28619384765625 0.7988601326942444 C 17.606700897216797 10.798860549926758 10.28619384765625 18.119367599487305 0.2861941456794739 20.798860549926758 C -9.71380615234375 18.119367599487305 -17.034313201904297 10.798860549926758 -19.71380615234375 0.7988601326942444 C -17.034313201904297 -9.201139450073242 -9.71380615234375 -16.52164649963379 0.2861941456794739 -19.201139450073242 C 10.28619384765625 -16.52164649963379 17.606700897216797 -9.201139450073242 20.28619384765625 0.7988601326942444" stroke-width="0.0" fill="rgb(229, 236, 102)" opacity="0.81518465" stroke="rgb(187, 121, 31)" stroke-opacity="0.9279342" stroke-linecap="round" stroke-linejoin="round"/>
    <path d="M 20.62824821472168 0.9034036993980408 C 17.948755264282227 10.903403282165527 10.62824821472168 18.22391128540039 0.6282480955123901 20.903404235839844 C -9.37175178527832 18.22391128540039 -16.692258834838867 10.903403282165527 -19.37175178527832 0.9034036993980408 C -16.692258834838867 -9.096596717834473 -9.37175178527832 -16.417102813720703 0.6282480955123901 -19.096595764160156 C 10.62824821472168 -16.417102813720703 17.948755264282227 -9.096596717834473 20.62824821472168 0.9034036993980408" stroke-width="0.0" fill="rgb(73, 78, 133)" opacity="0.81433016" stroke="rgb(183, 85, 74)" stroke-opacity="0.54118806" stroke-linecap="round" stroke-linejoin="round"/>
    <path d="M -19.26416015625 227.8960418701172 C 1.73722505569458 220.698486328125 -6.983808994293213 232.9976806640625 -20.525375366210938 252.40219116210938 C -20.016090393066406 274.0586853027344 -25.08746910095215 265.7679138183594 -8.933241844177246 264.81219482421875 C -6.227997779846191 257.90643310546875 1.4896160364151 254.5001678466797 -12.417376518249512 233.18580627441406 C -0.017213594168424606 211.806640625 0.04048113524913788 230.9893035888672 -19.26416015625 227.8960418701172" stroke-width="0.0" fill="rgb(84, 179, 128)" opacity="0.3675344"/>
    <path d="M 304.19879150390625 290.91534423828125 C 240.5498046875 326.0186462402344 253.00979614257812 381.1978759765625 224.0979461669922 384.8642272949219 C 167.29241943359375 359.0669250488281 138.97508239746094 355.8876647949219 144.50392150878906 303.076416015625 C 148.64114379882812 254.35784912109375 137.92137145996094 271.7645568847656 201.80210876464844 311.24029541015625 C 276.4078369140625 357.8017883300781 300.3785705566406 292.3392639160156 304.19879150390625 290.91534423828125" stroke-width="0.0" fill="rgb(0, 0, 6)" opacity="1.0"/>
    <path d="M 20.732358932495117 0.09013337641954422 C 18.052865982055664 10.090133666992188 10.732359886169434 17.410640716552734 0.732359766960144 20.090133666992188 C -9.267640113830566 17.410640716552734 -16.58814811706543 10.090133666992188 -19.267641067504883 0.09013337641954422 C -16.58814811706543 -9.909866333007812 -9.267640113830566 -17.23037338256836 0.732359766960144 -19.909866333007812 C 10.732359886169434 -17.23037338256836 18.052865982055664 -9.909866333007812 20.732358932495117 0.09013337641954422" stroke-width="0.0" fill="rgb(223, 204, 240)" opacity="0.77953696" stroke="rgb(126, 215, 128)" stroke-opacity="0.7480347" stroke-linecap="round" stroke-linejoin="round"/>
    <path d="M 20.63661766052246 0.6208911538124084 C 17.957124710083008 10.620891571044922 10.636617660522461 17.94139862060547 0.63661789894104 20.620891571044922 C -9.363382339477539 17.94139862060547 -16.683889389038086 10.620891571044922 -19.36338233947754 0.6208911538124084 C -16.683889389038086 -9.379108428955078 -9.363382339477539 -16.699615478515625 0.63661789894104 -19.379108428955078 C 10.636617660522461 -16.699615478515625 17.957124710083008 -9.379108428955078 20.63661766052246 0.6208911538124084" stroke-width="0.0" fill="rgb(178, 179, 125)" opacity="0.84675896" stroke="rgb(114, 50, 78)" stroke-opacity="0.042334493" stroke-linecap="round" stroke-linejoin="round"/>
    <path d="M 20.250099182128906 0.8453039526939392 C 17.570606231689453 10.845303535461426 10.25009822845459 18.16581153869629 0.25009822845458984 20.845304489135742 C -9.74990177154541 18.16581153869629 -17.07040786743164 10.845303535461426 -19.749900817871094 0.8453039526939392 C -17.07040786743164 -9.154696464538574 -9.74990177154541 -16.475202560424805 0.25009822845458984 -19.154695510864258 C 10.25009822845459 -16.475202560424805 17.570606231689453 -9.154696464538574 20.250099182128906 0.8453039526939392" stroke-width="0.0" fill="rgb(198, 140, 168)" opacity="0.84438217" stroke="rgb(157, 103, 50)" stroke-opacity="0.9616405" stroke-linecap="round" stroke-linejoin="round"/>
    <path d="M 104.238037109375 304.2946472167969 C 134.03428649902344 302.4407958984375 155.5205535888672 326.185546875 99.69114685058594 306.38873291015625 C 64.82997131347656 307.6176452636719 94.35781860351562 315.6761169433594 88.75855255126953 320.1031799316406 C 44.47184753417969 297.1197509765625 78.96018981933594 303.0346374511719 107.86051177978516 320.3489685058594 C 98.01173400878906 295.608642578125 81.32618713378906 306.0567321777344 104.238037109375 304.2946472167969" stroke-width="0.0" fill="rgb(168, 35, 71)" opacity="0.1679339"/>
    <path d="M 20.175640106201172 0.13215979933738708 C 17.49614715576172 10.132160186767578 10.175640106201172 17.452667236328125 0.1756400763988495 20.132160186767578 C -9.824359893798828 17.452667236328125 -17.144866943359375 10.132160186767578 -19.824359893798828 0.13215979933738708 C -17.144866943359375 -9.867839813232422 -9.824359893798828 -17.18834686279297 0.1756400763988495 -19.867839813232422 C 10.175640106201172 -17.18834686279297 17.49614715576172 -9.867839813232422 20.175640106201172 0.13215979933738708" stroke-width="0.0" fill="rgb(141, 25, 205)" opacity="0.8945603" stroke="rgb(184, 53, 225)" stroke-opacity="0.6162242" stroke-linecap="round" stroke-linejoin="round"/>
    <path d="M 20.722444534301758 0.40997862815856934 C 18.042951583862305 10.409978866577148 10.722443580627441 17.730485916137695 0.7224438190460205 20.40997886657715 C -9.277556419372559 17.730485916137695 -16.59806251525879 10.409978866577148 -19.277555465698242 0.40997862815856934 C -16.59806251525879 -9.590021133422852 -9.277556419372559 -16.9105281829834 0.7224438190460205 -19.59002113342285 C 10.722443580627441 -16.9105281829834 18.042951583862305 -9.590021133422852 20.722444534301758 0.40997862815856934" stroke-width="0.0" fill="rgb(1, 235, 28)" opacity="0.79990226" stroke="rgb(95, 54, 149)" stroke-opacity="0.4429141" stroke-linecap="round" stroke-linejoin="round"/>
    <path d="M 20.565927505493164 0.7925194501876831 C 17.88643455505371 10.792519569396973 10.56592845916748 18.113025665283203 0.565928041934967 20.792518615722656 C -9.43407154083252 18.113025665283203 -16.754579544067383 10.792519569396973 -19.434072494506836 0.7925194501876831 C -16.754579544067383 -9.207480430603027 -9.43407154083252 -16.52798843383789 0.565928041934967 -19.207481384277344 C 10.56592845916748 -16.52798843383789 17.88643455505371 -9.207480430603027 20.565927505493164 0.7925194501876831" stroke-width="0.0" fill="rgb(183, 27, 215)" opacity="0.76351506" stroke="rgb(37, 80, 248)" stroke-opacity="0.2568316" stroke-linecap="round" stroke-linejoin="round"/>
    <path d="M 20.607065200805664 0.35232096910476685 C 17.92757225036621 10.352320671081543 10.607065200805664 17.672828674316406 0.6070650219917297 20.35232162475586 C -9.392934799194336 17.672828674316406 -16.713441848754883 10.352320671081543 -19.392934799194336 0.35232096910476685 C -16.713441848754883 -9.647679328918457 -9.392934799194336 -16.968185424804688 0.6070650219917297 -19.64767837524414 C 10.607065200805664 -16.968185424804688 17.92757225036621 -9.647679328918457 20.607065200805664 0.35232096910476685" stroke-width="0.0" fill="rgb(115, 187, 93)" opacity="0.7301591" stroke="rgb(126, 175, 85)" stroke-opacity="0.69548845" stroke-linecap="round" stroke-linejoin="round"/>
    <path d="M 20.87238311767578 0.035899098962545395 C 18.192890167236328 10.03589916229248 10.872383117675781 17.35640525817871 0.8723829984664917 20.035898208618164 C -9.127616882324219 17.35640525817871 -16.448123931884766 10.03589916229248 -19.12761688232422 0.035899098962545395 C -16.448123931884766 -9.96410083770752 -9.127616882324219 -17.284608840942383 0.8723829984664917 -19.964101791381836 C 10.872383117675781 -17.284608840942383 18.192890167236328 -9.96410083770752 20.87238311767578 0.035899098962545395" stroke-width="0.0" fill="rgb(220, 199, 237)" opacity="0.87308776" stroke="rgb(70, 210, 1)" stroke-opacity="0.56481916" stroke-linecap="round" stroke-linejoin="round"/>
    <path d="M 20.16998291015625 0.0789683535695076 C 17.490489959716797 10.078968048095703 10.169983863830566 17.39947509765625 0.1699836552143097 20.078968048095703 C -9.830016136169434 17.39947509765625 -17.150524139404297 10.078968048095703 -19.83001708984375 0.0789683535695076 C -17.150524139404297 -9.921031951904297 -9.830016136169434 -17.241539001464844 0.1699836552143097 -19.921031951904297 C 10.169983863830566 -17.241539001464844 17.490489959716797 -9.921031951904297 20.16998291015625 0.0789683535695076" stroke-width="0.0" fill="rgb(116, 7, 101)" opacity="0.98593736" stroke="rgb(131, 208, 139)" stroke-opacity="0.040785015" stroke-linecap="round" stroke-linejoin="round"/>
    <path d="M 20.157976150512695 0.4417297840118408 C 17.478483200073242 10.441729545593262 10.157975196838379 17.762237548828125 0.15797562897205353 20.441730499267578 C -9.842024803161621 17.762237548828125 -17.16253089904785 10.441729545593262 -19.842023849487305 0.4417297840118408 C -17.16253089904785 -9.558270454406738 -9.842024803161621 -16.87877655029297 0.15797562897205353 -19.558269500732422 C 10.157975196838379 -16.87877655029297 17.478483200073242 -9.558270454406738 20.157976150512695 0.4417297840118408" stroke-width="0.0" fill="rgb(206, 56, 182)" opacity="0.8583317" stroke="rgb(137, 117, 83)" stroke-opacity="0.47565502" stroke-linecap="round" stroke-linejoin="round"/>
    <path d="M 20.06842041015625 0.6311610341072083 C 17.388927459716797 10.631160736083984 10.06842041015625 17.95166778564453 0.06842074543237686 20.631160736083984 C -9.93157958984375 17.95166778564453 -17.252086639404297 10.631160736083984 -19.93157958984375 0.6311610341072083 C -17.252086639404297 -9.368839263916016 -9.93157958984375 -16.689346313476562 0.06842074543237686 -19.368839263916016 C 10.06842041015625 -16.689346313476562 17.388927459716797 -9.368839263916016 20.06842041015625 0.6311610341072083" stroke-width="0.0" fill="rgb(86, 82, 164)" opacity="0.8827586" stroke="rgb(217, 67, 132)" stroke-opacity="0.45053655" stroke-linecap="round" stroke-linejoin="round"/>
    <path d="M 182.1467742919922 73.07064819335938 C 196.0889129638672 116.12792205810547 209.83865356445312 141.56170654296875 168.8551025390625 136.1971893310547 C 165.3249969482422 108.67658233642578 153.82791137695312 93.54486846923828 150.70570373535156 88.54463958740234 C 201.79815673828125 78.16080474853516 183.94363403320312 83.01593017578125 182.0740966796875 59.683189392089844 C 181.74928283691406 50.868350982666016 182.32373046875 76.2640151977539 182.1467742919922 73.07064819335938" stroke-width="0.0" fill="rgb(42, 169, 205)" opacity="0.36542338"/>
    <path d="M 534.331787109375 80.80391693115234 C 555.4635009765625 139.51930236816406 550.9842529296875 152.02896118164062 515.2060546875 170.86573791503906 C 515.4208374023438 151.6559600830078 508.12994384765625 134.58946228027344 506.6618347167969 100.76766204833984 C 507.7325744628906 119.35307312011719 510.18695068359375 92.28473663330078 509.3763122558594 89.43428802490234 C 521.6848754882812 99.34256744384766 502.9840393066406 66.41901397705078 534.331787109375 80.80391693115234" stroke-width="0.0" fill="rgb(28, 178, 208)" opacity="0.8521299"/>
    <path d="M 20.53940773010254 0.9714896082878113 C 17.859914779663086 10.971489906311035 10.539407730102539 18.291996002197266 0.5394077301025391 20.97148895263672 C -9.460592269897461 18.291996002197266 -16.781099319458008 10.971489906311035 -19.46059226989746 0.9714896082878113 C -16.781099319458008 -9.028510093688965 -9.460592269897461 -16.349018096923828 0.5394077301025391 -19.02851104736328 C 10.539407730102539 -16.349018096923828 17.859914779663086 -9.028510093688965 20.53940773010254 0.9714896082878113" stroke-width="0.0" fill="rgb(109, 46, 240)" opacity="0.76240736" stroke="rgb(86, 206, 177)" stroke-opacity="0.76578426" stroke-linecap="round" stroke-linejoin="round"/>
    <path d="M 20.677764892578125 0.7209283709526062 C 17.998271942138672 10.720928192138672 10.677764892578125 18.04143524169922 0.6777644753456116 20.720928192138672 C -9.322235107421875 18.04143524169922 -16.642742156982422 10.720928192138672 -19.322235107421875 0.7209283709526062 C -16.642742156982422 -9.279071807861328 -9.322235107421875 -16.599578857421875 0.6777644753456116 -19.279071807861328 C 10.677764892578125 -16.599578857421875 17.998271942138672 -9.279071807861328 20.677764892578125 0.7209283709526062" stroke-width="0.0" fill="rgb(161, 63, 77)" opacity="0.79816633" stroke="rgb(61, 43, 197)" stroke-opacity="0.12970626" stroke-linecap="round" stroke-linejoin="round"/>
    <path d="M 20.920928955078125 0.99742591381073 C 18.241436004638672 10.99742603302002 10.920928955078125 18.31793212890625 0.9209290742874146 20.997425079345703 C -9.079071044921875 18.31793212890625 -16.399578094482422 10.99742603302002 -19.079071044921875 0.99742591381073 C -16.399578094482422 -9.00257396697998 -9.079071044921875 -16.323081970214844 0.9209290742874146 -19.002574920654297 C 10.920928955078125 -16.323081970214844 18.241436004638672 -9.00257396697998 20.920928955078125 0.99742591381073" stroke-width="0.0" fill="rgb(2, 141, 168)" opacity="0.92088395" stroke="rgb(145, 17, 29)" stroke-opacity="0.5964746" stroke-linecap="round" stroke-linejoin="round"/>
    <path d="M 358.46246337890625 439.40655517578125 C 286.970458984375 444.0594787597656 286.6144714355469 434.851318359375 303.8988037109375 423.7383728027344 C 282.7540283203125 439.6844177246094 258.1662292480469 429.28460693359375 271.689453125 426.2975769042969 C 271.99639892578125 435.35882568359375 287.16998291015625 432.9365234375 292.0605773925781 433.74951171875 C 337.3576354980469 410.5490417480469 370.9249267578125 424.302734375 358.46246337890625 439.40655517578125" stroke-width="0.0" fill="rgb(134, 204, 186)" opacity="0.9392539"/>
    <path d="M 20.870840072631836 0.619710385799408 C 18.191347122192383 10.619709968566895 10.870840072631836 17.940217971801758 0.8708395957946777 20.61971092224121 C -9.129159927368164 17.940217971801758 -16.44966697692871 10.619709968566895 -19.129159927368164 0.619710385799408 C -16.44966697692871 -9.380290031433105 -9.129159927368164 -16.700796127319336 0.8708395957946777 -19.38028907775879 C 10.870840072631836 -16.700796127319336 18.191347122192383 -9.380290031433105 20.870840072631836 0.619710385799408" stroke-width="0.0" fill="rgb(80, 146, 242)" opacity="0.7685067" stroke="rgb(56, 51, 235)" stroke-opacity="0.85266614" stroke-linecap="round" stroke-linejoin="round"/>
    <path d="M 20.240829467773438 0.9128290414810181 C 17.561336517333984 10.912829399108887 10.240829467773438 18.233335494995117 0.24082979559898376 20.91282844543457 C -9.759170532226562 18.233335494995117 -17.07967758178711 10.912829399108887 -19.759170532226562 0.9128290414810181 C -17.07967758178711 -9.087170600891113 -9.759170532226562 -16.407678604125977 0.24082979559898376 -19.08717155456543 C 10.240829467773438 -16.407678604125977 17.561336517333984 -9.087170600891113 20.240829467773438 0.9128290414810181" stroke-width="0.0" fill="rgb(197, 100, 128)" opacity="0.77601945" stroke="rgb(128, 7, 33)" stroke-opacity="0.8865896" stroke-linecap="round" stroke-linejoin="round"/>
    <path d="M 20.199216842651367 0.3846932351589203 C 17.519723892211914 10.384693145751953 10.199216842651367 17.7052001953125 0.19921699166297913 20.384693145751953 C -9.800783157348633 17.7052001953125 -17.12129020690918 10.384693145751953 -19.800783157348633 0.3846932351589203 C -17.12129020690918 -9.615306854248047 -9.800783157348633 -16.935813903808594 0.19921699166297913 -19.615306854248047 C 10.199216842651367 -16.935813903808594 17.519723892211914 -9.615306854248047 20.199216842651367 0.3846932351589203" stroke-width="0.0" fill="rgb(130, 187, 104)" opacity="0.8221493" stroke="rgb(104, 138, 138)" stroke-opacity="0.49715382" stroke-linecap="round" stroke-linejoin="round"/>
    <path d="M 196.0229949951172 79.89305877685547 C 198.2615966796875 147.38986206054688 209.4475555419922 153.49391174316406 171.40652465820312 141.96041870117188 C 137.73533630371094 154.52711486816406 134.9187774658203 125.43072509765625 149.4651641845703 88.69239807128906 C 148.77296447753906 82.34698486328125 158.2903289794922 96.55778503417969 159.01165771484375 58.61956024169922 C 199.2445831298828 47.8903694152832 195.5012969970703 66.51943969726562 196.0229949951172 79.89305877685547" stroke-width="0.0" fill="rgb(22, 184, 193)" opacity="0.39689907"/>
    <path d="M 20.654781341552734 0.15436121821403503 C 17.97528839111328 10.1543607711792 10.654781341552734 17.474868774414062 0.6547813415527344 20.154361724853516 C -9.345218658447266 17.474868774414062 -16.665725708007812 10.1543607711792 -19.345218658447266 0.15436121821403503 C -16.665725708007812 -9.8456392288208 -9.345218658447266 -17.16614532470703 0.6547813415527344 -19.845638275146484 C 10.654781341552734 -17.16614532470703 17.97528839111328 -9.8456392288208 20.654781341552734 0.15436121821403503" stroke-width="0.0" fill="rgb(8, 81, 206)" opacity="0.9174613" stroke="rgb(178, 79, 25)" stroke-opacity="0.2724672" stroke-linecap="round" stroke-linejoin="round"/>
    <path d="M 20.746767044067383 0.43397146463394165 C 18.06727409362793 10.433971405029297 10.746766090393066 17.754478454589844 0.7467663884162903 20.433971405029297 C -9.253233909606934 17.754478454589844 -16.573740005493164 10.433971405029297 -19.253232955932617 0.43397146463394165 C -16.573740005493164 -9.566028594970703 -9.253233909606934 -16.88653564453125 0.7467663884162903 -19.566028594970703 C 10.746766090393066 -16.88653564453125 18.06727409362793 -9.566028594970703 20.746767044067383 0.43397146463394165" stroke-width="0.0" fill="rgb(70, 20, 109)" opacity="0.7986238" stroke="rgb(183, 164, 84)" stroke-opacity="0.7548725" stroke-linecap="round" stroke-linejoin="round"/>
    <path d="M 20.09844398498535 0.6337478160858154 C 17.4189510345459 10.633748054504395 10.098443031311035 17.954254150390625 0.09844312816858292 20.633747100830078 C -9.901556968688965 17.954254150390625 -17.222063064575195 10.633748054504395 -19.90155601501465 0.6337478160858154 C -17.222063064575195 -9.366251945495605 -9.901556968688965 -16.68675994873047 0.09844312816858292 -19.366252899169922 C 10.098443031311035 -16.68675994873047 17.4189510345459 -9.366251945495605 20.09844398498535 0.6337478160858154" stroke-width="0.0" fill="rgb(165, 162, 141)" opacity="0.9089522" stroke="rgb(95, 240, 208)" stroke-opacity="0.58769447" stroke-linecap="round" stroke-linejoin="round"/>
    <path d="M 20.48320770263672 0.23720569908618927 C 17.803714752197266 10.237205505371094 10.483207702636719 17.55771255493164 0.4832080602645874 20.237205505371094 C -9.516792297363281 17.55771255493164 -16.837299346923828 10.237205505371094 -19.51679229736328 0.23720569908618927 C -16.837299346923828 -9.762794494628906 -9.516792297363281 -17.083301544189453 0.4832080602645874 -19.762794494628906 C 10.483207702636719 -17.083301544189453 17.803714752197266 -9.762794494628906 20.48320770263672 0.23720569908618927" stroke-width="0.0" fill="rgb(34, 126, 43)" opacity="0.9797937" stroke="rgb(154, 168, 102)" stroke-opacity="0.9089809" stroke-linecap="round" stroke-linejoin="round"/>
    <path d="M 20.46949005126953 0.9692036509513855 C 17.789997100830078 10.96920394897461 10.469491004943848 18.289710998535156 0.46949058771133423 20.96920394897461 C -9.530508995056152 18.289710998535156 -16.851016998291016 10.96920394897461 -19.53050994873047 0.9692036509513855 C -16.851016998291016 -9.03079605102539 -9.530508995056152 -16.351303100585938 0.46949058771133423 -19.03079605102539 C 10.469491004943848 -16.351303100585938 17.789997100830078 -9.03079605102539 20.46949005126953 0.9692036509513855" stroke-width="0.0" fill="rgb(212, 250, 125)" opacity="0.74201345" stroke="rgb(82, 147, 19)" stroke-opacity="0.9433573" stroke-linecap="round" stroke-linejoin="round"/>
    <path d="M 20.143117904663086 0.4611499011516571 C 17.463624954223633 10.461150169372559 10.143117904663086 17.78165626525879 0.1431177258491516 20.461149215698242 C -9.856882095336914 17.78165626525879 -17.17738914489746 10.461150169372559 -19.856882095336914 0.4611499011516571 C -17.17738914489746 -9.538849830627441 -9.856882095336914 -16.859357833862305 0.1431177258491516 -19.538850784301758 C 10.143117904663086 -16.859357833862305 17.463624954223633 -9.538849830627441 20.143117904663086 0.4611499011516571" stroke-width="0.0" fill="rgb(191, 107, 131)" opacity="0.92223394" stroke="rgb(199, 194, 184)" stroke-opacity="0.20450434" stroke-linecap="round" stroke-linejoin="round"/>
    <path d="M 20.64634132385254 0.3089328706264496 C 17.966848373413086 10.30893325805664 10.646340370178223 17.629440307617188 0.6463406085968018 20.30893325805664 C -9.353659629821777 17.629440307617188 -16.674165725708008 10.30893325805664 -19.35365867614746 0.3089328706264496 C -16.674165725708008 -9.69106674194336 -9.353659629821777 -17.011573791503906 0.6463406085968018 -19.69106674194336 C 10.646340370178223 -17.011573791503906 17.966848373413086 -9.69106674194336 20.64634132385254 0.3089328706264496" stroke-width="0.0" fill="rgb(6, 20, 106)" opacity="0.91645354" stroke="rgb(22, 215, 186)" stroke-opacity="0.61094654" stroke-linecap="round" stroke-linejoin="round"/>
    <path d="M 20.992692947387695 0.2952307462692261 C 18.313199996948242 10.295230865478516 10.992691993713379 17.615737915039062 0.9926920533180237 20.295230865478516 C -9.007308006286621 17.615737915039062 -16.32781410217285 10.295230865478516 -19.007307052612305 0.2952307462692261 C -16.32781410217285 -9.704769134521484 -9.007308006286621 -17.02527618408203 0.9926920533180237 -19.704769134521484 C 10.992691993713379 -17.02527618408203 18.313199996948242 -9.704769134521484 20.992692947387695 0.2952307462692261" stroke-width="0.0" fill="rgb(69, 218, 8)" opacity="0.78217447" stroke="rgb(50, 59, 203)" stroke-opacity="0.5631266" stroke-linecap="round" stroke-linejoin="round"/>
    <path d="M 394.3123779296875 325.25537109375 C 401.3299255371094 306.6951599121094 398.6881103515625 318.4587097167969 406.6800231933594 325.2628479003906 C 384.0765075683594 339.7181396484375 395.9416198730469 334.1231689453125 386.773193359375 334.1138610839844 C 385.9499206542969 317.5833740234375 365.58807373046875 314.7021484375 404.84698486328125 300.2833251953125 C 423.6950378417969 305.3316955566406 434.8948974609375 333.50616455078125 394.3123779296875 325.25537109375" stroke-width="0.0" fill="rgb(104, 59, 0)" opacity="0.7918524"/>
    <path d="M 20.659181594848633 0.8383371233940125 C 17.97968864440918 10.838336944580078 10.659181594848633 18.158843994140625 0.659181535243988 20.838336944580078 C -9.340818405151367 18.158843994140625 -16.661325454711914 10.838336944580078 -19.340818405151367 0.8383371233940125 C -16.661325454711914 -9.161663055419922 -9.340818405151367 -16.48217010498047 0.659181535243988 -19.161663055419922 C 10.659181594848633 -16.48217010498047 17.97968864440918 -9.161663055419922 20.659181594848633 0.8383371233940125" stroke-width="0.0" fill="rgb(115, 129, 175)" opacity="0.9432162" stroke="rgb(11, 75, 71)" stroke-opacity="0.14601691" stroke-linecap="round" stroke-linejoin="round"/>
    <path d="M 20.97794532775879 0.6582298278808594 C 18.298452377319336 10.65822982788086 10.977944374084473 17.978736877441406 0.9779444932937622 20.65822982788086 C -9.022055625915527 17.978736877441406 -16.342561721801758 10.65822982788086 -19.02205467224121 0.6582298278808594 C -16.342561721801758 -9.34177017211914 -9.022055625915527 -16.662277221679688 0.9779444932937622 -19.34177017211914 C 10.977944374084473 -16.662277221679688 18.298452377319336 -9.34177017211914 20.97794532775879 0.6582298278808594" stroke-width="0.0" fill="rgb(1, 109, 104)" opacity="0.9028425" stroke="rgb(179, 183, 185)" stroke-opacity="5.2826934e-05" stroke-linecap="round" stroke-linejoin="round"/>
    <path d="M 168.1990509033203 296.6516418457031 C 181.66546630859375 300.2234191894531 177.40357971191406 309.05609130859375 158.20083618164062 303.1165771484375 C 150.04917907714844 298.6490783691406 152.56973266601562 301.47601318359375 145.0406951904297 301.89605712890625 C 146.05702209472656 289.752197265625 151.5431365966797 275.4513244628906 146.99794006347656 273.2821350097656 C 158.61016845703125 290.4107360839844 176.0891876220703 295.918701171875 168.1990509033203 296.6516418457031" stroke-width="0.0" fill="rgb(0, 0, 0)" opacity="0.87675333"/>
    <path d="M 20.33856201171875 0.6927046179771423 C 17.659069061279297 10.692704200744629 10.338561058044434 18.013212203979492 0.3385612368583679 20.692705154418945 C -9.661438941955566 18.013212203979492 -16.981945037841797 10.692704200744629 -19.66143798828125 0.6927046179771423 C -16.981945037841797 -9.307295799255371 -9.661438941955566 -16.6278018951416 0.3385612368583679 -19.307294845581055 C 10.338561058044434 -16.6278018951416 17.659069061279297 -9.307295799255371 20.33856201171875 0.6927046179771423" stroke-width="0.0" fill="rgb(93, 232, 199)" opacity="0.8820159" stroke="rgb(159, 162, 160)" stroke-opacity="0.5537282" stroke-linecap="round" stroke-linejoin="round"/>
    <path d="M 183.76968383789062 378.11395263671875 C 209.53561401367188 372.6807861328125 189.4049072265625 379.36151123046875 198.25917053222656 388.3917236328125 C 213.47445678710938 389.7412414550781 227.7022705078125 379.3101501464844 194.08941650390625 377.09686279296875 C 224.62904357910156 387.2835998535156 215.84365844726562 394.1932373046875 215.83026123046875 383.26788330078125 C 198.8939971923828 373.33123779296875 195.07772827148438 388.3409729003906 183.76968383789062 378.11395263671875" stroke-width="0.0" fill="rgb(237, 166, 47)" opacity="0.14489068"/>
    <path d="M 219.3743133544922 92.37377166748047 C 208.26828002929688 87.83758544921875 220.63087463378906 90.96900177001953 178.09620666503906 91.07653045654297 C 154.9972381591797 78.10285186767578 158.104736328125 71.90261840820312 175.33042907714844 60.40842819213867 C 182.54168701171875 7.060741901397705 207.19802856445312 4.316656589508057 265.3631591796875 26.95672035217285 C 210.54388427734375 29.549501419067383 214.17562866210938 22.298099517822266 219.3743133544922 92.37377166748047" stroke-width="0.0" fill="rgb(63, 181, 221)" opacity="0.029866533"/>
    <path d="M 239.46214294433594 409.49603271484375 C 180.92999267578125 415.0612487792969 144.35023498535156 406.9622802734375 178.7757568359375 389.5130310058594 C 192.8766632080078 413.6716613769531 161.92538452148438 410.5011291503906 146.6088409423828 407.3822326660156 C 138.04331970214844 370.2069396972656 131.27682495117188 365.8573303222656 149.56976318359375 375.1521301269531 C 203.25485229492188 368.88348388671875 219.03497314453125 377.2340087890625 239.46214294433594 409.49603271484375" stroke-width="0.0" fill="rgb(243, 193, 2)" opacity="0.8971963"/>
    <path d="M 20.253976821899414 0.2553267180919647 C 17.57448387145996 10.255326271057129 10.25397777557373 17.575834274291992 0.25397732853889465 20.255327224731445 C -9.74602222442627 17.575834274291992 -17.066530227661133 10.255326271057129 -19.746023178100586 0.2553267180919647 C -17.066530227661133 -9.744673728942871 -9.74602222442627 -17.0651798248291 0.25397732853889465 -19.744672775268555 C 10.25397777557373 -17.0651798248291 17.57448387145996 -9.744673728942871 20.253976821899414 0.2553267180919647" stroke-width="0.0" fill="rgb(86, 119, 84)" opacity="0.7988061" stroke="rgb(35, 101, 249)" stroke-opacity="0.22588141" stroke-linecap="round" stroke-linejoin="round"/>
  </g>
</svg>
