<?xml version="1.0" ?>
<svg xmlns="http://www.w3.org/2000/svg" version="1.1" width="600" height="600">
  <defs/>
  <g>
    <path d="M 617.3282470703125 180.04800415039062 C 612.9620971679688 228.23492431640625 602.1192626953125 231.314453125 581.2003173828125 226.15737915039062 C 566.1829223632812 215.08863830566406 547.85302734375 217.92599487304688 472.7949523925781 158.2350616455078 C 486.509765625 130.71961975097656 509.9458923339844 132.99781799316406 562.3187866210938 135.78843688964844 C 621.9968872070312 140.96827697753906 622.97802734375 152.9910888671875 617.3282470703125 180.04800415039062" stroke-width="0.0" fill="rgb(96, 130, 145)" opacity="0.9689295"/>
    <path d="M 629.7715454101562 440.5306091308594 C 654.2080688476562 599.3603515625 669.9100952148438 614.8861694335938 438.6312561035156 627.4352416992188 C 352.8123779296875 672.2686157226562 333.0157165527344 681.64501953125 423.352783203125 435.6051940917969 C 374.0077819824219 294.9148254394531 360.76727294921875 337.85650634765625 479.78076171875 309.2282409667969 C 688.9095458984375 274.1458740234375 663.2379150390625 332.56707763671875 629.7715454101562 440.5306091308594" stroke-width="0.0" fill="rgb(21, 18, 61)" opacity="0.9637695"/>
    <path d="M 324.0933532714844 49.39432907104492 C 320.5805358886719 91.53812408447266 312.17333984375 99.05644226074219 282.9111022949219 92.97662353515625 C 201.11618041992188 53.79007339477539 186.40423583984375 50.5837516784668 151.25741577148438 -5.913715362548828 C 166.13986206054688 -34.634361267089844 191.64682006835938 -25.28359031677246 236.5198974609375 -17.537338256835938 C 293.14605712890625 -33.70513153076172 316.49298095703125 -48.14764404296875 324.0933532714844 49.39432907104492" stroke-width="0.0" fill="rgb(93, 127, 143)" opacity="0.9551997"/>
    <path d="M 465.9768371582031 -1.3078861236572266 C 453.1265563964844 84.4576416015625 427.0576171875 75.85649108886719 323.8951416015625 101.25656127929688 C 289.5010986328125 120.45118713378906 281.4187927246094 113.20629119873047 282.4927978515625 59.12028503417969 C 289.7320556640625 -37.18117904663086 305.5422058105469 -30.1790714263916 363.9054870605469 -20.774337768554688 C 427.25860595703125 -23.82630729675293 451.9847106933594 -30.663936614990234 465.9768371582031 -1.3078861236572266" stroke-width="0.0" fill="rgb(100, 133, 147)" opacity="1.0"/>
    <path d="M 320.6102600097656 119.67137145996094 C 317.8345947265625 153.38516235351562 310.50836181640625 163.12112426757812 293.1959228515625 162.01426696777344 C 201.03158569335938 86.38468170166016 173.591796875 89.47179412841797 139.86978149414062 14.90668773651123 C 141.2036590576172 -9.009557723999023 150.05088806152344 -16.31696319580078 180.69813537597656 -6.037952899932861 C 265.1567687988281 21.44524383544922 302.5477600097656 11.361532211303711 320.6102600097656 119.67137145996094" stroke-width="0.0" fill="rgb(99, 132, 147)" opacity="1.0"/>
    <path d="M 616.8819580078125 14.208184242248535 C 566.83984375 115.8863296508789 572.0838012695312 155.74163818359375 476.7734375 178.09986877441406 C 438.2085266113281 161.30227661132812 437.8570556640625 145.24253845214844 432.89971923828125 42.13072204589844 C 428.9520568847656 -13.04444408416748 436.93658447265625 -20.444334030151367 508.40673828125 -21.379669189453125 C 603.730224609375 -23.734193801879883 615.1324462890625 -20.754785537719727 616.8819580078125 14.208184242248535" stroke-width="0.0" fill="rgb(98, 132, 146)" opacity="1.0"/>
    <path d="M 481.03509521484375 170.11203002929688 C 511.0010986328125 270.87493896484375 450.8277282714844 179.86367797851562 336.4983825683594 239.41311645507812 C 307.48712158203125 261.5771179199219 314.3650207519531 235.18421936035156 241.01141357421875 166.55758666992188 C 303.22393798828125 37.59308624267578 336.9571228027344 48.43928146362305 434.2646789550781 32.03334426879883 C 458.2051696777344 13.773177146911621 461.6673889160156 22.00918960571289 481.03509521484375 170.11203002929688" stroke-width="0.0" fill="rgb(0, 0, 57)" opacity="0.94758165"/>
    <path d="M 338.54583740234375 259.7494201660156 C 471.0850830078125 395.72967529296875 346.29913330078125 494.8520812988281 320.12579345703125 266.2357482910156 C 236.3424530029297 116.68717956542969 137.06199645996094 162.65538024902344 119.58557891845703 119.91716003417969 C 125.90432739257812 33.132381439208984 133.7677001953125 24.321130752563477 144.64797973632812 30.49663734436035 C 214.76589965820312 78.9985122680664 223.06182861328125 87.1230697631836 338.54583740234375 259.7494201660156" stroke-width="0.0" fill="rgb(21, 7, 54)" opacity="0.973802"/>
    <path d="M 79.09132385253906 66.34674072265625 C 69.46304321289062 128.9326171875 69.22770690917969 154.6415252685547 -10.078859329223633 181.9097900390625 C -29.32277488708496 169.37013244628906 -24.03070831298828 146.6951141357422 -20.59450912475586 98.10433197021484 C -26.134521484375 33.47427749633789 -35.25068664550781 7.435674667358398 -3.41474986076355 -11.645885467529297 C 87.19470977783203 17.390167236328125 88.42417907714844 36.435569763183594 79.09132385253906 66.34674072265625" stroke-width="0.0" fill="rgb(95, 129, 144)" opacity="0.97087175"/>
    <path d="M 166.1948699951172 77.8896713256836 C 157.92933654785156 158.20277404785156 144.851318359375 155.108642578125 111.66487121582031 132.57504272460938 C 74.33055877685547 116.11128997802734 60.376617431640625 113.0785140991211 40.55202102661133 73.195556640625 C 36.90034103393555 49.596046447753906 36.84333419799805 36.6197509765625 111.91598510742188 31.358272552490234 C 147.6407012939453 31.12372398376465 158.50416564941406 36.0633659362793 166.1948699951172 77.8896713256836" stroke-width="0.0" fill="rgb(99, 133, 147)" opacity="1.0"/>
    <path d="M 616.8151245117188 96.08977508544922 C 613.6105346679688 108.71892547607422 608.9437255859375 120.7379379272461 602.8099365234375 132.19921875 C 585.5567626953125 116.37690734863281 578.667236328125 108.03307342529297 545.1906127929688 68.22614288330078 C 540.9014282226562 46.27907943725586 540.6607666015625 22.43385124206543 600.7835693359375 2.8272953033447266 C 643.4567260742188 30.460996627807617 624.6402587890625 66.4941177368164 616.8151245117188 96.08977508544922" stroke-width="0.0" fill="rgb(103, 134, 148)" opacity="1.0"/>
    <path d="M 616.909423828125 133.9090576171875 C 623.964111328125 157.27870178222656 622.8602294921875 169.58067321777344 556.0208740234375 175.98526000976562 C 512.6350708007812 177.01852416992188 491.7443542480469 180.83348083496094 466.65966796875 163.75985717773438 C 506.15203857421875 63.86807632446289 533.522216796875 61.794898986816406 550.4627075195312 55.71590805053711 C 589.3073120117188 89.6990737915039 594.3709716796875 100.90189361572266 616.909423828125 133.9090576171875" stroke-width="0.0" fill="rgb(99, 133, 148)" opacity="0.97728676"/>
    <path d="M 447.63201904296875 396.9291076660156 C 412.3134765625 735.8306274414062 370.75115966796875 702.0813598632812 256.76983642578125 640.5562744140625 C 6.01796293258667 674.79443359375 -13.783039093017578 703.078369140625 -21.666364669799805 441.51361083984375 C -44.53536605834961 327.41082763671875 -47.97270584106445 314.7369079589844 111.8207015991211 313.94219970703125 C 396.8637390136719 315.6452941894531 387.8462219238281 307.6734619140625 447.63201904296875 396.9291076660156" stroke-width="0.0" fill="rgb(113, 117, 187)" opacity="0.072182186"/>
    <path d="M 231.88099670410156 234.45440673828125 C 243.68540954589844 336.7518615722656 239.97372436523438 428.76776123046875 158.655029296875 395.6348876953125 C -136.90797424316406 399.7440490722656 -89.94187927246094 349.8955993652344 -19.7584228515625 261.069091796875 C 59.850975036621094 102.15081024169922 71.43573760986328 106.21987915039062 90.56177520751953 115.37443542480469 C 143.2158966064453 96.11331176757812 190.47389221191406 23.389501571655273 231.88099670410156 234.45440673828125" stroke-width="0.0" fill="rgb(21, 7, 51)" opacity="0.9958714"/>
    <path d="M 179.46791076660156 12.48906421661377 C 170.46612548828125 68.92656707763672 160.063232421875 74.9552230834961 111.30259704589844 71.67523956298828 C 34.1556396484375 67.03691864013672 11.461638450622559 64.15216064453125 -9.206182479858398 0.6813346743583679 C 22.51487922668457 -49.1414909362793 62.78466796875 -26.745567321777344 94.42491912841797 -19.498027801513672 C 128.75587463378906 -28.731019973754883 164.6720733642578 -50.10475158691406 179.46791076660156 12.48906421661377" stroke-width="0.0" fill="rgb(98, 132, 146)" opacity="0.9991311"/>
    <path d="M 619.736328125 265.4690856933594 C 660.3524780273438 326.8488464355469 700.2798461914062 340.8964538574219 491.01959228515625 303.2936706542969 C 563.7636108398438 232.7398681640625 409.9376525878906 328.0945129394531 406.6768493652344 322.44537353515625 C 452.7423400878906 121.21329498291016 356.944091796875 101.32133483886719 488.6005859375 159.83444213867188 C 577.2174072265625 192.75204467773438 584.9164428710938 199.63478088378906 619.736328125 265.4690856933594" stroke-width="0.0" fill="rgb(1, 1, 50)" opacity="0.96014225"/>
    <path d="M 285.5384826660156 536.699462890625 C 282.1608581542969 573.5842895507812 276.9516296386719 588.9237670898438 252.74488830566406 602.2762451171875 C 159.90921020507812 546.1212768554688 159.05564880371094 523.026611328125 157.94094848632812 506.9244079589844 C 171.16793823242188 473.3481750488281 170.28712463378906 456.28851318359375 206.2678985595703 445.4729919433594 C 231.59376525878906 452.9894104003906 260.5844421386719 450.876708984375 285.5384826660156 536.699462890625" stroke-width="0.0" fill="rgb(97, 131, 146)" opacity="0.98576874"/>
    <path d="M 479.6047058105469 402.759765625 C -19.147823333740234 400.8363952636719 3.4649579524993896 406.632080078125 11.184751510620117 396.343017578125 C 16.32206916809082 480.19110107421875 4.026419162750244 475.8722839355469 -21.4058895111084 445.79345703125 C 13.534303665161133 347.72637939453125 123.14994049072266 425.4822082519531 281.81243896484375 370.68316650390625 C 131.31832885742188 288.5974426269531 100.70561981201172 348.697021484375 479.6047058105469 402.759765625" stroke-width="0.0" fill="rgb(77, 73, 124)" opacity="0.9718767"/>
    <path d="M 132.5904998779297 452.78662109375 C 114.77748107910156 471.601806640625 106.91270446777344 481.7234191894531 60.301177978515625 507.4071960449219 C 41.99553298950195 501.8732604980469 32.24136734008789 493.6217346191406 0.3013506531715393 444.5374450683594 C -4.383653163909912 392.33502197265625 23.059083938598633 414.65057373046875 135.46661376953125 410.6667785644531 C 137.60800170898438 417.99658203125 131.52249145507812 431.8580627441406 132.5904998779297 452.78662109375" stroke-width="0.0" fill="rgb(66, 109, 130)" opacity="0.8303094"/>
    <path d="M 155.96311950683594 479.234375 C 151.49578857421875 511.64251708984375 145.6776885986328 525.7086181640625 91.62139892578125 543.4085083007812 C 64.72480010986328 537.7417602539062 56.950950622558594 528.7366943359375 54.18282699584961 510.2314758300781 C 77.8963623046875 457.9891662597656 92.75516510009766 452.628662109375 139.89404296875 434.1881103515625 C 152.37217712402344 430.9828186035156 157.040283203125 442.3218688964844 155.96311950683594 479.234375" stroke-width="0.0" fill="rgb(113, 153, 167)" opacity="0.8373489"/>
    <path d="M 205.87620544433594 461.0155944824219 C 185.18702697753906 496.50054931640625 182.9232940673828 508.22088623046875 160.94976806640625 516.330322265625 C 137.34002685546875 512.1369018554688 126.56977081298828 507.428955078125 119.73603820800781 469.1084899902344 C 121.66899871826172 444.70184326171875 129.0721893310547 436.8960876464844 156.836669921875 438.1279602050781 C 195.0342559814453 441.6919860839844 204.17701721191406 447.8894348144531 205.87620544433594 461.0155944824219" stroke-width="0.0" fill="rgb(99, 132, 147)" opacity="0.994817"/>
    <path d="M 90.27267456054688 507.010986328125 C 80.43267822265625 553.886474609375 65.84728240966797 560.0859985351562 6.159200191497803 574.0646362304688 C -17.557390213012695 571.5355224609375 -20.383543014526367 558.8168334960938 -19.646995544433594 511.05096435546875 C -23.962202072143555 462.35833740234375 -27.35869598388672 442.9302062988281 4.213012218475342 433.8863525390625 C 73.91214752197266 457.0655212402344 82.8750228881836 469.31744384765625 90.27267456054688 507.010986328125" stroke-width="0.0" fill="rgb(100, 134, 149)" opacity="1.0"/>
    <path d="M 260.2400817871094 593.296875 C 255.9978485107422 613.9799194335938 240.57015991210938 618.3529052734375 173.57366943359375 618.608642578125 C 91.93254089355469 603.6543579101562 91.82744598388672 581.0892333984375 89.3087158203125 544.978759765625 C 106.60309600830078 487.9798583984375 121.20323181152344 482.4783630371094 139.30673217773438 481.27911376953125 C 178.15606689453125 489.190673828125 189.3190155029297 494.8670959472656 260.2400817871094 593.296875" stroke-width="0.0" fill="rgb(99, 133, 147)" opacity="1.0"/>
    <path d="M 573.7723999023438 526.3345336914062 C 489.5650939941406 652.2648315429688 445.8269348144531 634.45068359375 293.7448425292969 622.3048095703125 C 250.20816040039062 621.8388671875 238.1228790283203 617.0472412109375 241.21127319335938 555.7540893554688 C 263.9439697265625 465.0537414550781 256.135986328125 427.08099365234375 282.86566162109375 409.317138671875 C 501.4617004394531 410.6351013183594 540.4200439453125 393.3445129394531 573.7723999023438 526.3345336914062" stroke-width="0.0" fill="rgb(99, 132, 148)" opacity="1.0"/>
    <path d="M 146.837158203125 574.6038818359375 C 145.80331420898438 628.9487915039062 129.78964233398438 627.026123046875 101.0810546875 618.6320190429688 C 54.98543167114258 585.32763671875 46.80156707763672 578.4854125976562 15.441662788391113 544.1193237304688 C 21.24346923828125 532.2724609375 29.89457130432129 522.5545043945312 85.92169952392578 505.2232971191406 C 114.40026092529297 509.7168273925781 122.99356842041016 518.246826171875 146.837158203125 574.6038818359375" stroke-width="0.0" fill="rgb(98, 132, 145)" opacity="1.0"/>
    <path d="M 92.65782165527344 606.8639526367188 C 83.8458251953125 612.6716918945312 69.02670288085938 613.3989868164062 43.71247482299805 613.1785888671875 C 9.673192024230957 624.1766357421875 -10.833380699157715 630.8328857421875 -17.68992042541504 576.3106689453125 C -9.251557350158691 541.2299194335938 3.401407241821289 536.7730712890625 21.038515090942383 538.433349609375 C 59.00988006591797 570.67236328125 66.77185821533203 577.7720336914062 92.65782165527344 606.8639526367188" stroke-width="0.0" fill="rgb(105, 132, 145)" opacity="1.0"/>
    <path d="M 75.59699249267578 382.53436279296875 C 6.7307634353637695 370.5657653808594 40.641597747802734 410.45977783203125 12.53686809539795 462.5153503417969 C -32.99820327758789 455.5255432128906 -25.948400497436523 433.5924072265625 -20.99800682067871 380.1927490234375 C -54.892032623291016 264.5693054199219 -134.03565979003906 143.82408142089844 191.0474090576172 75.79219055175781 C 113.20222473144531 271.72137451171875 107.35210418701172 246.5620574951172 75.59699249267578 382.53436279296875" stroke-width="0.0" fill="rgb(96, 129, 149)" opacity="0.99395114"/>
    <path d="M 215.19776916503906 419.0382995605469 C 208.04331970214844 462.39306640625 201.8751983642578 471.11712646484375 171.6634979248047 471.5098876953125 C 135.8683319091797 471.39459228515625 130.57064819335938 468.88970947265625 135.8759002685547 410.1729736328125 C 111.21495819091797 409.6217956542969 121.60204315185547 409.4229736328125 157.78097534179688 409.4485778808594 C 205.1082000732422 410.0784912109375 216.76840209960938 406.3141174316406 215.19776916503906 419.0382995605469" stroke-width="0.0" fill="rgb(61, 52, 93)" opacity="0.9249035"/>
    <path d="M 162.5618133544922 410.4326477050781 C 136.9249725341797 466.33489990234375 123.639892578125 466.9346618652344 102.84074401855469 458.8197326660156 C 95.65130615234375 457.3521423339844 135.6629638671875 461.9775390625 154.2444610595703 414.5487365722656 C -27.197309494018555 417.4444274902344 -18.59959602355957 410.6452331542969 56.65243148803711 409.6199035644531 C 137.61390686035156 409.06622314453125 141.46417236328125 410.95892333984375 162.5618133544922 410.4326477050781" stroke-width="0.0" fill="rgb(0, 0, 17)" opacity="0.8746719"/>
    <path d="M 299.3114013671875 410.759033203125 C 228.85369873046875 438.8525085449219 223.57833862304688 449.615234375 194.67724609375 474.5740661621094 C 182.7198028564453 472.7294921875 176.61497497558594 463.4454650878906 164.87599182128906 425.7387390136719 C 146.30296325683594 403.7600402832031 160.76063537597656 413.38153076171875 206.38394165039062 409.4871826171875 C 250.8846435546875 409.8631896972656 272.7720031738281 408.69659423828125 299.3114013671875 410.759033203125" stroke-width="0.0" fill="rgb(6, 4, 21)" opacity="0.9415674"/>
    <path d="M 299.4964294433594 414.73126220703125 C 289.3204650878906 496.91070556640625 312.0621032714844 507.4376220703125 274.1667785644531 524.3082885742188 C 209.7126007080078 511.8975524902344 221.06027221679688 480.9058837890625 223.52822875976562 427.6299133300781 C 221.39788818359375 408.32525634765625 226.14097595214844 410.01727294921875 449.6347961425781 410.3725891113281 C 578.0704956054688 410.0882568359375 588.5841674804688 416.97235107421875 299.4964294433594 414.73126220703125" stroke-width="0.0" fill="rgb(4, 0, 18)" opacity="0.9480951"/>
    <path d="M 290.97576904296875 422.75518798828125 C 269.6234436035156 486.5303649902344 274.82891845703125 506.10107421875 252.3155975341797 512.53173828125 C 194.3856201171875 484.1128234863281 187.4725341796875 474.7021484375 160.09597778320312 447.9699401855469 C 139.90760803222656 403.7225036621094 137.75828552246094 417.50634765625 202.80088806152344 414.749267578125 C 314.3135986328125 415.1931457519531 320.8468322753906 412.3851318359375 290.97576904296875 422.75518798828125" stroke-width="0.0" fill="rgb(96, 132, 151)" opacity="0.9922898"/>
    <path d="M 502.11358642578125 304.5105285644531 C 471.1787414550781 367.2219543457031 479.87982177734375 375.6287841796875 473.6899719238281 339.33074951171875 C 400.12579345703125 381.0045166015625 369.6788330078125 418.4892578125 415.9744567871094 313.74029541015625 C 421.7102966308594 311.7798156738281 447.9223327636719 286.6983642578125 487.02154541015625 280.26519775390625 C 516.2879028320312 275.9486389160156 512.4133911132812 272.3516845703125 502.11358642578125 304.5105285644531" stroke-width="0.0" fill="rgb(247, 249, 250)" opacity="0.9733193"/>
    <path d="M 317.8002624511719 213.40443420410156 C 309.588134765625 237.90774536132812 312.2455139160156 191.05870056152344 222.48316955566406 155.6341552734375 C 201.42724609375 154.1071014404297 197.88162231445312 125.59227752685547 207.2487335205078 240.80421447753906 C -5.695775032043457 100.85297393798828 -16.08930015563965 159.81068420410156 157.50982666015625 42.06158447265625 C 307.28765869140625 121.52873229980469 316.3636169433594 131.2573699951172 317.8002624511719 213.40443420410156" stroke-width="0.0" fill="rgb(99, 133, 148)" opacity="1.0"/>
    <path d="M 611.7364501953125 341.0989074707031 C 528.7172241210938 310.551025390625 546.0518188476562 245.88572692871094 492.9344177246094 385.0322265625 C 448.789794921875 340.6998291015625 575.6445922851562 278.2253112792969 483.04693603515625 195.29905700683594 C 502.3515319824219 249.84542846679688 510.0564270019531 242.8689422607422 520.4462890625 237.87258911132812 C 536.1875610351562 240.95285034179688 573.5642700195312 227.58189392089844 611.7364501953125 341.0989074707031" stroke-width="0.0" fill="rgb(198, 240, 255)" opacity="0.23015593"/>
    <path d="M 532.4871215820312 213.68865966796875 C 518.5738525390625 231.09292602539062 511.0097961425781 238.3238983154297 501.0000915527344 241.00001525878906 C 491.0 238.3205108642578 483.67950439453125 231.0 475.5880126953125 216.1893310546875 C 475.6423645019531 203.4956817626953 483.8608703613281 196.8661346435547 497.59918212890625 197.5094451904297 C 512.6954345703125 202.73687744140625 524.602783203125 207.03009033203125 532.4871215820312 213.68865966796875" stroke-width="0.0" fill="rgb(98, 131, 143)" opacity="0.982716"/>
    <path d="M 475.3070373535156 226.95228576660156 C 471.32049560546875 239.0 464.0 246.3205108642578 453.786865234375 249.0530548095703 C 440.2562561035156 247.56890869140625 425.5859680175781 244.65533447265625 426.30987548828125 210.64495849609375 C 366.2732849121094 213.58848571777344 388.6423034667969 164.30007934570312 413.73980712890625 146.76393127441406 C 481.4481201171875 187.10841369628906 479.05303955078125 207.39089965820312 475.3070373535156 226.95228576660156" stroke-width="0.0" fill="rgb(96, 126, 146)" opacity="0.9912598"/>
    <path d="M 496.2211608886719 228.60104370117188 C 493.32049560546875 239.0 486.0 246.3205108642578 476.0 249.0 C 466.0 246.3205108642578 458.67950439453125 239.0 455.0307922363281 227.60153198242188 C 452.8086853027344 211.0181884765625 453.55908203125 196.0724334716797 466.82958984375 189.46107482910156 C 492.5158386230469 202.05084228515625 495.45147705078125 215.3683319091797 496.2211608886719 228.60104370117188" stroke-width="0.0" fill="rgb(98, 134, 147)" opacity="1.0"/>
    <path d="M 471.6338195800781 241.4722900390625 C 475.86907958984375 264.08758544921875 476.0799865722656 271.7778625488281 417.74884033203125 306.10589599609375 C 412.6450500488281 311.3484802246094 423.71124267578125 284.0648498535156 425.59765625 235.60316467285156 C 428.41015625 206.4050750732422 420.782958984375 206.04840087890625 440.0551452636719 216.3813934326172 C 459.0 222.67950439453125 466.32049560546875 230.0 471.6338195800781 241.4722900390625" stroke-width="0.0" fill="rgb(100, 135, 156)" opacity="0.9631435"/>
    <path d="M 525.57177734375 245.48277282714844 C 532.5237426757812 277.2523498535156 512.9810180664062 313.11737060546875 518.1753540039062 271.8746032714844 C 467.1735534667969 278.120849609375 471.24102783203125 268.91168212890625 475.6794128417969 245.32542419433594 C 481.67950439453125 231.0 489.0 223.6794891357422 499.0 221.0 C 509.0 223.6794891357422 516.3204956054688 231.0 525.57177734375 245.48277282714844" stroke-width="0.0" fill="rgb(100, 134, 151)" opacity="0.9780003"/>
    <path d="M 573.4916381835938 259.9005432128906 C 565.175048828125 273.3345947265625 545.7662963867188 270.19580078125 525.2005004882812 264.5687255859375 C 513.0 259.32049560546875 505.67950439453125 252.0 502.999755859375 241.9991455078125 C 505.66058349609375 231.95028686523438 512.5570678710938 223.61595153808594 531.3954467773438 206.7705535888672 C 542.7847900390625 213.71707153320312 551.3463745117188 222.34120178222656 573.4916381835938 259.9005432128906" stroke-width="0.0" fill="rgb(98, 132, 147)" opacity="1.0"/>
    <path d="M 501.33868408203125 262.2763977050781 C 509.845947265625 280.88336181640625 490.6410827636719 267.5430908203125 447.6595153808594 288.66973876953125 C 422.0982971191406 304.440185546875 433.00054931640625 280.2818603515625 442.09173583984375 250.15330505371094 C 448.67950439453125 235.0 456.0 227.6794891357422 466.0 225.0 C 476.0 227.6794891357422 483.32049560546875 235.0 501.33868408203125 262.2763977050781" stroke-width="0.0" fill="rgb(97, 135, 149)" opacity="0.9447165"/>
    <path d="M 220.925537109375 293.4715881347656 C 229.2491455078125 340.7665100097656 229.82826232910156 398.8400573730469 219.49281311035156 376.8998718261719 C 187.36404418945312 367.08612060546875 172.5848846435547 278.34326171875 178.857421875 331.6973876953125 C 101.17947387695312 200.73681640625 29.366483688354492 187.06549072265625 144.74835205078125 219.42843627929688 C 238.29568481445312 278.3665771484375 216.8953399658203 290.787353515625 220.925537109375 293.4715881347656" stroke-width="0.0" fill="rgb(249, 252, 253)" opacity="0.9644373"/>
    <path d="M 445.0423278808594 185.4462432861328 C 443.5545959472656 228.97080993652344 403.6510925292969 191.89952087402344 324.5211181640625 239.114990234375 C 310.4711608886719 218.40357971191406 295.30743408203125 198.6610565185547 261.88397216796875 174.44541931152344 C 293.88299560546875 131.1215057373047 307.6201477050781 126.69343566894531 373.84527587890625 100.31424713134766 C 416.5758361816406 87.54485321044922 430.6332702636719 93.7977066040039 445.0423278808594 185.4462432861328" stroke-width="0.0" fill="rgb(101, 139, 155)" opacity="0.93357533"/>
    <path d="M 522.87939453125 175.14686584472656 C 509.32049560546875 194.99990844726562 501.9993896484375 202.31900024414062 480.08282470703125 217.87216186523438 C 462.6106262207031 218.90008544921875 443.7101745605469 217.38412475585938 398.5927429199219 135.6152801513672 C 398.2475891113281 89.62681579589844 396.3705139160156 60.877723693847656 469.003662109375 39.114566802978516 C 541.8626708984375 122.33882904052734 528.4446411132812 155.7500457763672 522.87939453125 175.14686584472656" stroke-width="0.0" fill="rgb(100, 133, 147)" opacity="0.84556854"/>
    <path d="M 475.08172607421875 35.83871841430664 C 426.2460632324219 171.89190673828125 372.607666015625 156.1522674560547 306.8380126953125 164.17544555664062 C 282.4143981933594 160.61366271972656 268.3778381347656 153.3717803955078 235.89732360839844 84.12554931640625 C 248.85858154296875 44.574623107910156 262.0579528808594 28.556520462036133 359.23382568359375 1.2913769483566284 C 426.7135925292969 1.1341826915740967 455.183837890625 -5.382275581359863 475.08172607421875 35.83871841430664" stroke-width="0.0" fill="rgb(99, 132, 147)" opacity="0.9880378"/>
    <path d="M 555.735595703125 182.20989990234375 C 541.5873413085938 217.94691467285156 532.4541015625 224.81375122070312 517.6857299804688 223.4488067626953 C 500.9987487792969 213.32138061523438 493.6758117675781 206.0021209716797 490.992919921875 195.9983367919922 C 493.5841979980469 185.79257202148438 499.254638671875 175.2014617919922 524.3455810546875 155.18975830078125 C 541.452392578125 158.6361083984375 551.9881591796875 164.91226196289062 555.735595703125 182.20989990234375" stroke-width="0.0" fill="rgb(100, 133, 148)" opacity="1.0"/>
    <path d="M 615.413818359375 234.27377319335938 C 619.2017822265625 270.15203857421875 624.8812866210938 294.4522705078125 584.6305541992188 348.9739685058594 C 527.087158203125 251.36721801757812 526.085693359375 234.40682983398438 517.9962158203125 209.3843536376953 C 522.4642944335938 187.57717895507812 527.007080078125 174.61825561523438 547.7745971679688 169.1842803955078 C 580.920166015625 179.90997314453125 590.7817993164062 187.5191650390625 615.413818359375 234.27377319335938" stroke-width="0.0" fill="rgb(99, 133, 148)" opacity="0.98997176"/>
    <path d="M 361.4705810546875 294.7439270019531 C 381.66015625 329.149169921875 385.0986328125 331.2677001953125 347.34515380859375 336.2066650390625 C 339.9830322265625 332.2720031738281 341.9200744628906 295.8063659667969 341.0657043457031 306.1346435546875 C 343.5398864746094 280.7017517089844 329.64422607421875 234.8912353515625 336.60919189453125 257.318115234375 C 356.7808837890625 288.0264587402344 362.3558044433594 292.95721435546875 361.4705810546875 294.7439270019531" stroke-width="0.0" fill="rgb(246, 251, 255)" opacity="0.9463512"/>
    <path d="M 497.7877502441406 409.5829162597656 C 423.7908935546875 409.5648498535156 414.60888671875 409.9183044433594 432.6224060058594 409.7568359375 C 442.22711181640625 409.263427734375 427.8560485839844 410.1388854980469 393.0845642089844 408.23394775390625 C 392.2571105957031 398.23065185546875 421.80706787109375 403.6489562988281 398.24969482421875 402.1190185546875 C 427.3069152832031 402.57025146484375 477.14178466796875 400.6795349121094 497.7877502441406 409.5829162597656" stroke-width="0.0" fill="rgb(249, 247, 253)" opacity="0.9753772"/>
    <path d="M 532.847412109375 320.3130798339844 C 540.1292114257812 314.7615661621094 533.033447265625 317.88140869140625 538.3076782226562 315.00543212890625 C 519.9478149414062 330.7591552734375 528.9015502929688 340.87127685546875 506.65521240234375 306.8656921386719 C 503.5335388183594 302.37066650390625 529.2457275390625 299.4242248535156 548.3236083984375 298.51947021484375 C 550.43017578125 302.7233581542969 534.2645874023438 317.3141784667969 532.847412109375 320.3130798339844" stroke-width="0.0" fill="rgb(237, 240, 243)" opacity="1.0"/>
    <path d="M 234.72572326660156 284.09918212890625 C 221.31044006347656 324.75146484375 233.59678649902344 382.6924133300781 221.99221801757812 387.3097229003906 C 234.95220947265625 417.58392333984375 237.0127716064453 321.46197509765625 236.65623474121094 309.6426696777344 C 237.33340454101562 359.1228942871094 236.3281707763672 355.02728271484375 236.4539031982422 332.87054443359375 C 230.2151336669922 351.2403259277344 238.9874267578125 358.1906433105469 234.72572326660156 284.09918212890625" stroke-width="0.0" fill="rgb(8, 4, 44)" opacity="0.9612934"/>
    <path d="M 566.596435546875 409.1920166015625 C 563.5993041992188 410.96356201171875 482.3104553222656 407.59283447265625 545.1153564453125 409.7629699707031 C 510.9617919921875 408.96337890625 489.0271301269531 412.1897277832031 420.3360595703125 403.00152587890625 C 475.4391784667969 401.1728515625 564.8631591796875 402.85540771484375 564.854736328125 402.612060546875 C 542.722412109375 346.9181213378906 548.730712890625 348.91387939453125 566.596435546875 409.1920166015625" stroke-width="0.0" fill="rgb(246, 247, 253)" opacity="0.9757787"/>
    <path d="M 129.36175537109375 496.4469299316406 C 121.62104797363281 509.4151611328125 114.57804870605469 516.8510131835938 104.79650115966797 519.7979736328125 C 94.98971557617188 517.3507690429688 87.6803970336914 510.0064697265625 85.00521087646484 500.004150390625 C 87.67866516113281 489.9988098144531 94.96862030029297 482.6307067871094 115.07767486572266 466.0590515136719 C 126.860107421875 469.5341491699219 132.04608154296875 481.2071228027344 129.36175537109375 496.4469299316406" stroke-width="0.0" fill="rgb(98, 131, 146)" opacity="0.9005843"/>
    <path d="M 513.7758178710938 282.21331787109375 C 472.562744140625 385.9344482421875 484.33349609375 375.9078369140625 499.12188720703125 387.72149658203125 C 435.7399597167969 393.2230529785156 396.42181396484375 393.7674255371094 385.4985046386719 391.7300720214844 C 452.5867004394531 357.5811767578125 458.5896301269531 346.224365234375 472.76617431640625 338.1455993652344 C 477.91900634765625 387.5677185058594 475.3785400390625 357.3480529785156 513.7758178710938 282.21331787109375" stroke-width="0.0" fill="rgb(14, 0, 47)" opacity="0.7270257"/>
    <path d="M 565.456298828125 397.423828125 C 512.7593994140625 346.8219299316406 528.9580078125 306.81634521484375 497.63568115234375 385.992431640625 C 489.980712890625 379.2985534667969 472.64215087890625 353.1438293457031 492.27484130859375 356.9605712890625 C 475.7659912109375 368.7057800292969 489.3937072753906 354.4917907714844 487.97900390625 393.4736633300781 C 327.39117431640625 392.8471984863281 246.08251953125 398.0242919921875 565.456298828125 397.423828125" stroke-width="0.0" fill="rgb(253, 249, 254)" opacity="0.940181"/>
    <path d="M 335.0516662597656 294.7431335449219 C 369.2441711425781 408.3115539550781 407.37353515625 390.6437072753906 172.2714385986328 392.8793029785156 C 107.32788848876953 390.9071960449219 235.34713745117188 394.4759826660156 251.53887939453125 377.44830322265625 C 317.3709716796875 338.8859558105469 277.09149169921875 348.41033935546875 325.4227600097656 352.8288879394531 C 330.4723815917969 297.46978759765625 314.47137451171875 278.51654052734375 335.0516662597656 294.7431335449219" stroke-width="0.0" fill="rgb(21, 7, 53)" opacity="1.0"/>
    <path d="M 395.1719665527344 358.51312255859375 C 403.5625305175781 401.3175964355469 438.611572265625 391.2759704589844 319.7189636230469 392.7908935546875 C 342.28253173828125 377.8346862792969 332.24456787109375 382.82525634765625 330.1405334472656 371.2372131347656 C 364.0062561035156 352.7298278808594 388.42425537109375 345.62841796875 368.9136962890625 294.92840576171875 C 402.931640625 340.44830322265625 410.57525634765625 340.61846923828125 395.1719665527344 358.51312255859375" stroke-width="0.0" fill="rgb(22, 6, 57)" opacity="0.977895"/>
    <path d="M 109.96100616455078 236.8328094482422 C 130.10427856445312 258.0633239746094 106.7349853515625 245.49075317382812 99.51158142089844 306.6609802246094 C 78.4985580444336 238.41127014160156 80.36993408203125 219.1373291015625 78.12350463867188 223.98629760742188 C 86.24171447753906 234.0210418701172 59.44749450683594 176.20013427734375 96.77250671386719 205.9594268798828 C 69.93063354492188 203.46890258789062 79.06067657470703 199.50611877441406 109.96100616455078 236.8328094482422" stroke-width="0.0" fill="rgb(14, 0, 52)" opacity="0.927938"/>
    <path d="M 204.09915161132812 451.5546875 C 182.28477478027344 488.86865234375 160.2888946533203 487.0750427246094 127.19962310791016 485.32611083984375 C 106.0591812133789 481.8557434082031 95.01741790771484 475.2431335449219 85.12565612792969 458.50579833984375 C 106.39252471923828 436.5474548339844 116.61932373046875 430.02020263671875 135.4659423828125 415.2828674316406 C 161.00436401367188 415.014404296875 171.3242645263672 413.61212158203125 204.09915161132812 451.5546875" stroke-width="0.0" fill="rgb(98, 133, 149)" opacity="1.0"/>
    <path d="M 555.0943603515625 374.92138671875 C 552.2666625976562 403.20477294921875 611.4085083007812 392.1258239746094 505.973388671875 393.597412109375 C 424.3542785644531 392.391845703125 399.9006042480469 397.7445068359375 494.6517333984375 379.46417236328125 C 521.8407592773438 319.7582092285156 545.7219848632812 307.7564697265625 498.0553283691406 375.19512939453125 C 571.2845458984375 362.9816589355469 524.9223022460938 363.63934326171875 555.0943603515625 374.92138671875" stroke-width="0.0" fill="rgb(22, 7, 61)" opacity="0.99006474"/>
    <path d="M 523.2445678710938 316.4032897949219 C 522.8995971679688 329.04608154296875 511.7940979003906 339.3359069824219 493.06695556640625 380.1985168457031 C 470.9861755371094 361.5207214355469 495.5287780761719 336.1708068847656 501.92578125 313.0646057128906 C 494.66705322265625 337.46063232421875 499.2051696777344 320.39642333984375 505.89508056640625 306.90557861328125 C 531.5338134765625 294.087646484375 544.6589965820312 312.1201477050781 523.2445678710938 316.4032897949219" stroke-width="0.0" fill="rgb(252, 254, 253)" opacity="0.96066093"/>
    <path d="M 390.8135986328125 352.21905517578125 C 391.793701171875 353.0586242675781 377.25537109375 353.9366760253906 338.5105895996094 357.9199523925781 C 339.5147705078125 355.62646484375 336.0681457519531 361.89178466796875 337.6732177734375 350.6734619140625 C 344.2669982910156 299.97235107421875 335.80328369140625 279.1521301269531 362.5245056152344 294.7206115722656 C 370.46728515625 307.430908203125 378.9363098144531 322.57000732421875 390.8135986328125 352.21905517578125" stroke-width="0.0" fill="rgb(247, 255, 255)" opacity="0.5179209"/>
    <path d="M 116.80101013183594 493.0605163574219 C 113.29837036132812 503.9556579589844 105.88821411132812 511.0758361816406 95.76464080810547 513.6383666992188 C 86.00025939941406 511.175048828125 78.25008392333984 504.17755126953125 74.47916412353516 492.2716064453125 C 71.32179260253906 476.6312255859375 73.13175201416016 462.6618347167969 89.07415008544922 450.99591064453125 C 112.32611846923828 468.49853515625 116.74939727783203 479.8585510253906 116.80101013183594 493.0605163574219" stroke-width="0.0" fill="rgb(99, 132, 147)" opacity="0.9387406"/>
    <path d="M 608.8866577148438 551.9388427734375 C 614.3635864257812 574.3721313476562 618.1134643554688 595.9102783203125 594.2901000976562 613.8211669921875 C 558.0758056640625 586.5235595703125 558.4795532226562 568.6151123046875 561.9088134765625 551.2384643554688 C 566.3492431640625 538.38134765625 572.7240600585938 529.4122314453125 582.8416137695312 525.4156494140625 C 596.5292358398438 529.3734741210938 604.3855590820312 536.2443237304688 608.8866577148438 551.9388427734375" stroke-width="0.0" fill="rgb(102, 136, 152)" opacity="0.9386809"/>
    <path d="M 602.0 459.0 C 599.3204956054688 469.0 592.0 476.32049560546875 582.0 479.0 C 572.0 476.32049560546875 564.6795043945312 469.0 562.0 459.0 C 564.6795043945312 449.0 572.0 441.67950439453125 582.0 439.0 C 592.0 441.67950439453125 599.3204956054688 449.0 602.0 459.0" stroke-width="0.0" fill="rgb(97, 132, 148)" opacity="1.0"/>
    <path d="M 579.0321655273438 340.4262390136719 C 579.255126953125 354.2773742675781 562.2443237304688 352.38946533203125 556.91015625 340.67449951171875 C 546.9110107421875 336.441650390625 534.5233764648438 333.421142578125 528.625 333.1574401855469 C 536.980224609375 322.9970397949219 543.8064575195312 312.9921875 555.1104736328125 298.9619445800781 C 557.2190551757812 291.6681823730469 562.7655639648438 312.72076416015625 579.0321655273438 340.4262390136719" stroke-width="0.0" fill="rgb(96, 131, 151)" opacity="0.998024"/>
    <path d="M 610.1607055664062 378.14501953125 C 609.7909545898438 398.15484619140625 605.0325317382812 409.2452392578125 584.9221801757812 393.5316467285156 C 526.93115234375 391.40386962890625 575.7088012695312 381.09906005859375 543.7409057617188 372.11053466796875 C 539.916259765625 362.50238037109375 561.8341064453125 333.9234619140625 583.3500366210938 311.9487609863281 C 616.3369140625 334.67120361328125 613.8104248046875 354.4911804199219 610.1607055664062 378.14501953125" stroke-width="0.0" fill="rgb(99, 133, 151)" opacity="1.0"/>
    <path d="M 611.5728759765625 421.1363830566406 C 604.85205078125 440.789794921875 594.0783081054688 445.39996337890625 578.311767578125 447.1793212890625 C 566.9935302734375 444.151123046875 560.7068481445312 435.3982238769531 565.3012084960938 427.7623596191406 C 573.1146240234375 423.2704772949219 569.2212524414062 407.92083740234375 570.5886840820312 383.0958557128906 C 602.0697021484375 392.1973876953125 609.3685302734375 401.38922119140625 611.5728759765625 421.1363830566406" stroke-width="0.0" fill="rgb(101, 137, 156)" opacity="0.9758026"/>
    <path d="M 577.9398803710938 422.83758544921875 C 573.1411743164062 437.81719970703125 565.81640625 445.13726806640625 551.0553588867188 451.6205749511719 C 538.817138671875 448.5021057128906 525.4096069335938 442.0581359863281 484.8511657714844 414.75213623046875 C 525.109619140625 415.35394287109375 548.3197021484375 415.0489807128906 564.8208618164062 415.027099609375 C 565.7149658203125 415.11883544921875 577.3659057617188 411.7584533691406 577.9398803710938 422.83758544921875" stroke-width="0.0" fill="rgb(96, 133, 152)" opacity="0.9951086"/>
    <path d="M 607.4607543945312 453.3733215332031 C 603.3204956054688 465.0 596.0 472.32049560546875 586.0 475.0 C 576.0 472.32049560546875 568.6795043945312 465.0 565.6752319335938 454.6955871582031 C 567.8636474609375 444.23126220703125 575.2688598632812 436.9881591796875 590.009033203125 429.7769775390625 C 602.3377685546875 430.3793029785156 608.08056640625 439.6254577636719 607.4607543945312 453.3733215332031" stroke-width="0.0" fill="rgb(97, 135, 150)" opacity="1.0"/>
    <path d="M 582.1337890625 458.7991027832031 C 579.3204956054688 469.0 572.0 476.32049560546875 561.9938354492188 479.0096740722656 C 551.8836669921875 476.4184875488281 544.3467407226562 469.2555236816406 535.5899047851562 454.7529602050781 C 536.8890991210938 442.7389221191406 547.0669555664062 437.5282287597656 562.7013549804688 435.49041748046875 C 573.9456787109375 438.8534240722656 580.1927490234375 447.7033386230469 582.1337890625 458.7991027832031" stroke-width="0.0" fill="rgb(99, 132, 147)" opacity="0.99528295"/>
    <path d="M 611.1041259765625 463.1658630371094 C 609.144775390625 474.3038635253906 603.254638671875 483.7785339355469 593.5364990234375 488.0953674316406 C 580.9474487304688 480.463623046875 573.6778564453125 473.0050354003906 571.0 463.0 C 573.6795043945312 453.0 581.0 445.6794738769531 591.0033569335938 442.99041748046875 C 601.0003662109375 445.6777038574219 608.3203125 453.00030517578125 611.1041259765625 463.1658630371094" stroke-width="0.0" fill="rgb(106, 135, 148)" opacity="1.0"/>
    <path d="M 589.599853515625 504.4088134765625 C 586.6298828125 515.6179809570312 580.4722900390625 525.0616455078125 571.9880981445312 529.017822265625 C 559.7056884765625 521.505126953125 552.1942749023438 514.4776000976562 549.129150390625 505.8092956542969 C 552.2886352539062 495.23175048828125 559.0584716796875 487.6961669921875 570.0892944335938 483.7450866699219 C 581.1951293945312 485.2382507324219 588.145751953125 493.00048828125 589.599853515625 504.4088134765625" stroke-width="0.0" fill="rgb(100, 135, 149)" opacity="0.9943005"/>
    <path d="M 582.4905395507812 481.3089294433594 C 579.87255859375 491.3499755859375 572.2247314453125 498.4598083496094 561.2833862304688 502.32012939453125 C 551.203857421875 499.5792236328125 544.072509765625 491.5838623046875 540.77490234375 481.6263427734375 C 545.59228515625 471.7309875488281 552.568603515625 464.1864013671875 562.1489868164062 461.1739196777344 C 572.0 463.67950439453125 579.3204956054688 471.0 582.4905395507812 481.3089294433594" stroke-width="0.0" fill="rgb(98, 131, 146)" opacity="1.0"/>
    <path d="M 618.0003662109375 502.9988708496094 C 615.3204956054688 513.0 608.0 520.3204956054688 598.0 523.0 C 588.0 520.3204956054688 580.6795043945312 513.0 576.4768676757812 501.5717468261719 C 577.0403442382812 489.2403564453125 583.593994140625 480.5251159667969 595.1492309570312 476.3938293457031 C 608.2911987304688 484.9797668457031 615.3410034179688 492.95068359375 618.0003662109375 502.9988708496094" stroke-width="0.0" fill="rgb(93, 129, 140)" opacity="0.97367877"/>
    <path d="M 613.037353515625 516.0701293945312 C 610.7658081054688 526.8240356445312 604.720947265625 536.2955932617188 594.5398559570312 540.625244140625 C 578.9611206054688 536.7991333007812 570.00634765625 530.8042602539062 568.818603515625 519.1437377929688 C 575.6798706054688 506.000244140625 583.000244140625 498.68017578125 593.0003662109375 496.0011291503906 C 603.0 498.67950439453125 610.3204956054688 506.0 613.037353515625 516.0701293945312" stroke-width="0.0" fill="rgb(98, 133, 147)" opacity="0.9912639"/>
    <path d="M 584.1832275390625 542.8531494140625 C 581.2879028320312 555.6339721679688 577.512939453125 568.3268432617188 567.6445922851562 579.0896606445312 C 549.64013671875 566.1492309570312 544.0607299804688 556.224853515625 542.131103515625 544.2830200195312 C 545.4550170898438 533.8145141601562 552.8607177734375 526.5736694335938 565.954833984375 521.745361328125 C 577.6640014648438 521.3887329101562 583.957763671875 529.901123046875 584.1832275390625 542.8531494140625" stroke-width="0.0" fill="rgb(99, 133, 147)" opacity="0.9817271"/>
    <path d="M 599.2521362304688 468.34320068359375 C 597.74609375 480.0064697265625 592.185791015625 489.92816162109375 583.24169921875 494.9442443847656 C 568.9903564453125 485.3449401855469 561.678955078125 478.00128173828125 559.0 468.0 C 561.6795043945312 457.99981689453125 568.9995727539062 450.6784362792969 578.9992065429688 447.9979553222656 C 589.0 450.67950439453125 596.3204956054688 458.0 599.2521362304688 468.34320068359375" stroke-width="0.0" fill="rgb(95, 131, 150)" opacity="1.0"/>
    <path d="M 592.5485229492188 592.4371337890625 C 586.167724609375 609.8311157226562 571.9961547851562 613.9310302734375 536.4649047851562 616.62744140625 C 508.50494384765625 610.3654174804688 504.4817199707031 597.9603881835938 512.4854736328125 578.0828857421875 C 521.9967651367188 563.257080078125 529.1634521484375 555.8399047851562 539.9959106445312 551.9262084960938 C 552.5498657226562 552.8207397460938 564.13525390625 557.5999145507812 592.5485229492188 592.4371337890625" stroke-width="0.0" fill="rgb(99, 132, 147)" opacity="1.0"/>
    <path d="M 312.8402099609375 486.36309814453125 C 312.7033996582031 511.3834533691406 310.0616149902344 525.5088500976562 263.58306884765625 542.0020751953125 C 228.04251098632812 536.5958862304688 215.43228149414062 520.4373168945312 216.04322814941406 483.4893493652344 C 255.48602294921875 465.4383850097656 249.750244140625 439.34735107421875 295.4637451171875 417.8634033203125 C 321.83349609375 427.4556579589844 315.3161926269531 453.0546569824219 312.8402099609375 486.36309814453125" stroke-width="0.0" fill="rgb(100, 133, 148)" opacity="1.0"/>
    <path d="M 326.22003173828125 393.51458740234375 C 151.8755340576172 398.2711486816406 141.96478271484375 397.1675720214844 412.4328308105469 397.2881774902344 C 322.856201171875 387.3005676269531 256.82275390625 401.31842041015625 22.119007110595703 396.4801330566406 C 40.260433197021484 390.57427978515625 179.6464080810547 395.8871765136719 233.4396514892578 392.6273498535156 C 187.3928985595703 394.3223876953125 204.81033325195312 393.6623229980469 326.22003173828125 393.51458740234375" stroke-width="0.0" fill="rgb(247, 239, 248)" opacity="0.96696466"/>
    <path d="M 376.7752380371094 351.6230773925781 C 379.5901794433594 354.3410949707031 365.0182800292969 354.45361328125 338.060302734375 356.6630554199219 C 340.33563232421875 340.34320068359375 340.9606628417969 322.9171142578125 341.31683349609375 320.7020568847656 C 349.159912109375 344.58453369140625 350.0904541015625 333.1646728515625 355.8355407714844 327.4171447753906 C 356.126953125 324.2061767578125 363.81414794921875 330.0289611816406 376.7752380371094 351.6230773925781" stroke-width="0.0" fill="rgb(247, 250, 252)" opacity="0.9991117"/>
    <path d="M 151.8282928466797 351.71221923828125 C 152.3999786376953 367.4586181640625 144.2982177734375 372.4898986816406 132.33084106445312 374.1527099609375 C 122.0 371.32049560546875 114.67948913574219 364.0 106.86100006103516 348.5534973144531 C 105.54354095458984 337.1714172363281 115.85625457763672 338.4198913574219 136.11611938476562 338.3813781738281 C 148.8304901123047 338.6981506347656 153.96011352539062 335.879150390625 151.8282928466797 351.71221923828125" stroke-width="0.0" fill="rgb(110, 38, 116)" opacity="0.96378106"/>
    <path d="M 207.03756713867188 374.0819091796875 C 225.79296875 394.16156005859375 221.11856079101562 384.71142578125 156.6973114013672 388.66070556640625 C 154.8350372314453 389.8497009277344 158.53656005859375 368.23712158203125 156.93032836914062 367.4332275390625 C 158.49440002441406 361.8916320800781 155.74404907226562 346.8807067871094 158.74623107910156 337.5803527832031 C 173.36416625976562 342.8546142578125 175.65725708007812 353.2915954589844 207.03756713867188 374.0819091796875" stroke-width="0.0" fill="rgb(95, 30, 103)" opacity="0.92396814"/>
    <path d="M 149.79383850097656 367.5439453125 C 151.70245361328125 393.50537109375 154.6358184814453 387.8231506347656 141.5587615966797 388.6641845703125 C 125.13170623779297 385.8744201660156 117.46060180664062 375.5928955078125 114.21764373779297 366.7120056152344 C 116.7060317993164 357.06951904296875 124.12496185302734 350.002197265625 133.40028381347656 349.1346130371094 C 143.88034057617188 350.9832458496094 151.98822021484375 355.9950256347656 149.79383850097656 367.5439453125" stroke-width="0.0" fill="rgb(252, 72, 253)" opacity="0.98572475"/>
    <path d="M 389.4753723144531 351.4774169921875 C 376.43035888671875 354.0511779785156 365.5325927734375 352.3328552246094 356.28515625 349.552001953125 C 368.8864440917969 347.2735900878906 355.41949462890625 347.3201599121094 343.0395202636719 333.49713134765625 C 336.63299560546875 302.0836181640625 348.2195129394531 301.19415283203125 372.0509338378906 312.95098876953125 C 377.2953796386719 323.8530578613281 383.93890380859375 336.99322509765625 389.4753723144531 351.4774169921875" stroke-width="0.0" fill="rgb(249, 252, 251)" opacity="0.9715697"/>
    <path d="M 204.6691436767578 394.2170715332031 C 148.16310119628906 401.4349060058594 126.53612518310547 403.05328369140625 499.03936767578125 400.42730712890625 C 240.65582275390625 393.1045837402344 124.08505249023438 403.5989074707031 205.48463439941406 394.1835021972656 C 192.88938903808594 390.80596923828125 213.23284912109375 400.60235595703125 221.52239990234375 381.87567138671875 C 249.9113311767578 384.4930725097656 250.11102294921875 377.5609436035156 204.6691436767578 394.2170715332031" stroke-width="0.0" fill="rgb(6, 6, 48)" opacity="0.9201696"/>
    <path d="M 113.01656341552734 359.9427490234375 C 110.24891662597656 369.9007873535156 102.85685729980469 377.05853271484375 92.17635345458984 379.32269287109375 C 75.00872039794922 380.4673156738281 60.616004943847656 387.04327392578125 62.534576416015625 350.3504943847656 C 60.40445327758789 328.76153564453125 70.42000579833984 335.8138427734375 92.94833374023438 338.7372131347656 C 103.19539642333984 342.36773681640625 110.43541717529297 349.8600158691406 113.01656341552734 359.9427490234375" stroke-width="0.0" fill="rgb(9, 5, 35)" opacity="0.9991963"/>
    <path d="M 145.60867309570312 376.0572814941406 C 134.32150268554688 378.2845764160156 128.02923583984375 382.39263916015625 140.24945068359375 388.6614074707031 C 132.73184204101562 388.54229736328125 123.24272155761719 391.1597900390625 106.27653503417969 380.4024353027344 C 112.96473693847656 370.5953369140625 120.9305191040039 363.6408386230469 130.99032592773438 361.0071716308594 C 140.96240234375 363.70782470703125 148.26705932617188 371.0371398925781 145.60867309570312 376.0572814941406" stroke-width="0.0" fill="rgb(225, 50, 175)" opacity="0.26268154"/>
    <path d="M 157.44631958007812 374.3157043457031 C 156.17095947265625 379.5682373046875 160.3251495361328 397.2838439941406 151.8709716796875 392.4580078125 C 132.7529754638672 384.756591796875 123.63259887695312 387.692626953125 122.56781005859375 375.298583984375 C 127.56745147705078 362.91302490234375 131.1403350830078 352.406982421875 155.28269958496094 327.59832763671875 C 159.6157684326172 343.72113037109375 155.45741271972656 360.6820373535156 157.44631958007812 374.3157043457031" stroke-width="0.0" fill="rgb(0, 0, 0)" opacity="0.6137595"/>
    <path d="M 125.10055541992188 338.5597839355469 C 113.46614074707031 360.1920166015625 106.31036376953125 367.86322021484375 94.97027587890625 371.0636901855469 C 74.735595703125 373.3433837890625 64.94367980957031 377.2625732421875 66.92362976074219 340.45452880859375 C 76.05487823486328 335.6136169433594 87.40411376953125 328.158203125 86.857421875 338.44488525390625 C 102.89411926269531 338.58502197265625 119.29824829101562 338.0730895996094 125.10055541992188 338.5597839355469" stroke-width="0.0" fill="rgb(108, 35, 109)" opacity="1.0"/>
    <path d="M 86.58656311035156 331.37261962890625 C 122.09986877441406 336.1723937988281 100.82804107666016 338.9536437988281 62.53742218017578 338.7303771972656 C 71.7166519165039 367.1537780761719 52.9279899597168 325.70501708984375 68.70695495605469 339.055419921875 C 73.03778839111328 310.13232421875 59.719478607177734 327.07672119140625 89.26972198486328 306.8101806640625 C 115.9866714477539 287.0292053222656 114.9251480102539 306.18267822265625 86.58656311035156 331.37261962890625" stroke-width="0.0" fill="rgb(10, 0, 46)" opacity="0.9319535"/>
    <path d="M 99.20335388183594 375.98492431640625 C 90.2857894897461 379.71435546875 83.94853973388672 384.8631896972656 83.3603286743164 384.8361511230469 C 82.29766845703125 380.8363342285156 66.67424011230469 394.5706787109375 61.99031448364258 385.6333923339844 C 63.627986907958984 353.2026672363281 57.33501434326172 357.3970031738281 79.63116455078125 364.01873779296875 C 94.6395263671875 364.5240783691406 102.05535125732422 371.4365539550781 99.20335388183594 375.98492431640625" stroke-width="0.0" fill="rgb(8, 3, 34)" opacity="0.9776023"/>
    <path d="M 138.6778106689453 379.0292053222656 C 135.5415802001953 391.80517578125 122.11524200439453 387.39959716796875 91.85903930664062 388.6203918457031 C 62.41555404663086 383.5308532714844 67.35202026367188 403.00762939453125 66.54183197021484 359.4251708984375 C 78.90686798095703 356.1757507324219 90.66080474853516 353.396484375 100.98819732666016 351.0148620605469 C 111.06317138671875 353.6118469238281 118.80878448486328 360.5008850097656 138.6778106689453 379.0292053222656" stroke-width="0.0" fill="rgb(111, 31, 101)" opacity="0.9083023"/>
    <path d="M 151.17929077148438 374.38330078125 C 161.99159240722656 368.28216552734375 152.96292114257812 373.1688232421875 144.11289978027344 379.0363464355469 C 134.40975952148438 377.1737060546875 127.36703491210938 369.44342041015625 125.23267364501953 359.4937744140625 C 128.94700622558594 350.12811279296875 135.127685546875 336.6282043457031 151.37747192382812 337.6394958496094 C 150.8455810546875 351.10076904296875 151.64430236816406 364.4571228027344 151.17929077148438 374.38330078125" stroke-width="0.0" fill="rgb(114, 38, 113)" opacity="0.91295767"/>
    <path d="M 193.7181854248047 356.4427795410156 C 159.6610870361328 259.83612060546875 144.75787353515625 275.9922790527344 144.07177734375 282.1905212402344 C 142.1710205078125 296.2196350097656 141.54864501953125 260.9849548339844 162.19027709960938 286.983642578125 C 165.99058532714844 296.7284240722656 160.80776977539062 275.9529724121094 122.36375427246094 230.67025756835938 C 140.53909301757812 264.22705078125 150.33480834960938 264.0110168457031 193.7181854248047 356.4427795410156" stroke-width="0.0" fill="rgb(12, 9, 60)" opacity="0.8764158"/>
    <path d="M 96.71182250976562 383.5004577636719 C 96.52823638916016 386.2526550292969 94.2560806274414 398.5301513671875 94.00636291503906 400.3632507324219 C 97.5771484375 397.2793884277344 93.35033416748047 397.35003662109375 95.6857681274414 386.94146728515625 C 93.76573944091797 397.7008361816406 95.85179901123047 391.8846740722656 96.92539978027344 383.9909973144531 C 97.70684814453125 386.9926452636719 100.25279235839844 396.3388671875 96.71182250976562 383.5004577636719" stroke-width="0.0" fill="rgb(63, 38, 84)" opacity="0.17677845"/>
    <path d="M 529.4292602539062 289.6357727050781 C 536.6409301757812 301.4856262207031 541.3500366210938 290.9396667480469 556.1408081054688 297.7254638671875 C 510.999267578125 296.647705078125 497.2585754394531 310.6492614746094 506.89471435546875 297.4877014160156 C 527.28271484375 299.3931579589844 531.4367065429688 294.60797119140625 533.3279418945312 281.9912109375 C 537.4633178710938 281.2783508300781 541.8125 286.45904541015625 529.4292602539062 289.6357727050781" stroke-width="0.0" fill="rgb(1, 0, 43)" opacity="0.90142953"/>
    <path d="M 535.2854614257812 287.39422607421875 C 533.6962890625 295.7486877441406 532.3762817382812 302.3755187988281 533.8783569335938 295.31060791015625 C 497.5923767089844 297.582763671875 517.684326171875 297.8645935058594 510.6589050292969 298.3429260253906 C 509.89794921875 302.1211242675781 509.67413330078125 295.9896545410156 518.2647094726562 274.137939453125 C 524.6057739257812 278.5142822265625 531.4605712890625 283.6012878417969 535.2854614257812 287.39422607421875" stroke-width="0.0" fill="rgb(100, 135, 155)" opacity="1.0"/>
    <path d="M 553.9588012695312 295.059326171875 C 529.0111083984375 293.3695983886719 534.2640380859375 295.12091064453125 539.083740234375 300.6654052734375 C 532.88232421875 294.96319580078125 531.14794921875 289.61859130859375 534.1515502929688 285.23223876953125 C 518.7488403320312 289.80621337890625 524.1609497070312 278.8399963378906 527.1843872070312 258.9621276855469 C 545.9638061523438 268.8833312988281 560.8497314453125 291.1658630371094 553.9588012695312 295.059326171875" stroke-width="0.0" fill="rgb(99, 133, 149)" opacity="0.99423176"/>
    <path d="M 440.6922912597656 381.1162414550781 C 445.6690673828125 387.2540588378906 447.89892578125 391.1721496582031 431.9734191894531 388.7140808105469 C 450.55108642578125 388.3905029296875 446.1067810058594 388.8856506347656 447.7438049316406 380.7132873535156 C 442.8955078125 392.5806579589844 438.4803466796875 379.64990234375 446.6290588378906 380.8284606933594 C 446.0138244628906 384.2567443847656 449.21026611328125 396.884765625 440.6922912597656 381.1162414550781" stroke-width="0.0" fill="rgb(119, 26, 133)" opacity="0.6825175"/>
    <path d="M 26.504453659057617 398.1272888183594 C 77.68994903564453 398.3682556152344 70.42129516601562 396.7539978027344 120.8288803100586 397.3664245605469 C 101.3589859008789 394.4994812011719 81.75151824951172 385.346923828125 11.100302696228027 401.77685546875 C 128.15451049804688 401.7267150878906 149.6018524169922 402.0535583496094 107.32424926757812 394.9991760253906 C 82.24552154541016 390.4768981933594 82.7753677368164 388.9954833984375 26.504453659057617 398.1272888183594" stroke-width="0.0" fill="rgb(0, 0, 26)" opacity="0.77440655"/>
    <path d="M 396.6086730957031 387.83831787109375 C 391.8729553222656 394.13226318359375 386.98114013671875 402.88031005859375 396.28924560546875 387.65887451171875 C 391.3614501953125 392.54248046875 389.6999206542969 381.2703857421875 378.73626708984375 385.26104736328125 C 353.5262451171875 388.619384765625 353.5178527832031 378.44866943359375 379.0548400878906 380.0417785644531 C 402.80731201171875 379.6356506347656 394.7802429199219 379.73028564453125 396.6086730957031 387.83831787109375" stroke-width="0.0" fill="rgb(110, 51, 157)" opacity="0.4097137"/>
    <path d="M 154.9356689453125 392.68682861328125 C 160.95465087890625 402.02886962890625 152.76385498046875 394.3473205566406 183.23773193359375 399.604736328125 C 161.3577880859375 407.5480651855469 165.51397705078125 389.2821350097656 85.92129516601562 401.56658935546875 C 180.79776000976562 401.1596984863281 160.98590087890625 407.5223388671875 155.05615234375 392.39556884765625 C 173.08786010742188 385.0498046875 180.98597717285156 393.3603820800781 154.9356689453125 392.68682861328125" stroke-width="0.0" fill="rgb(0, 0, 40)" opacity="0.7546445"/>
    <path d="M 161.04505920410156 379.0921630859375 C 164.7799835205078 389.5010070800781 166.44996643066406 400.0625 163.3932647705078 397.5456848144531 C 166.6855010986328 400.6363830566406 164.37168884277344 392.5111083984375 164.215087890625 389.7145080566406 C 166.47618103027344 405.9511413574219 165.3728485107422 397.43548583984375 163.4338836669922 384.7255554199219 C 168.68246459960938 385.8097229003906 171.77932739257812 392.03094482421875 161.04505920410156 379.0921630859375" stroke-width="0.0" fill="rgb(163, 53, 138)" opacity="0.17658381"/>
    <path d="M 406.8905029296875 384.30841064453125 C 407.696533203125 388.4770202636719 409.63909912109375 399.3026123046875 407.9931335449219 390.3106994628906 C 409.39361572265625 397.0823974609375 408.5783996582031 393.15899658203125 406.3929748535156 383.4913024902344 C 398.0115051269531 387.283447265625 405.9339904785156 383.1919860839844 420.3992004394531 380.607421875 C 423.4114990234375 380.5604248046875 426.4183349609375 386.22503662109375 406.8905029296875 384.30841064453125" stroke-width="0.0" fill="rgb(120, 27, 133)" opacity="0.51460403"/>
    <path d="M 414.2660217285156 392.77801513671875 C 410.7022399902344 392.3198547363281 399.6346435546875 394.44390869140625 414.21783447265625 393.96337890625 C 417.3379211425781 393.4651184082031 400.5519104003906 399.8241271972656 397.81793212890625 402.2748718261719 C 402.83258056640625 398.97998046875 407.59210205078125 397.316162109375 415.37738037109375 393.8308410644531 C 409.9225158691406 392.5037536621094 410.20416259765625 393.6585998535156 414.2660217285156 392.77801513671875" stroke-width="0.0" fill="rgb(168, 90, 152)" opacity="0.4406949"/>
    <path d="M 409.24615478515625 393.34356689453125 C 404.8855895996094 394.2864990234375 410.9153137207031 393.9332580566406 400.34002685546875 394.00311279296875 C 382.7688293457031 393.9790954589844 375.12640380859375 393.88360595703125 380.60858154296875 394.0282897949219 C 376.4765319824219 393.5807800292969 384.0535583496094 394.50738525390625 354.7014465332031 393.75811767578125 C 349.19000244140625 393.6001281738281 371.1426086425781 391.73846435546875 409.24615478515625 393.34356689453125" stroke-width="0.0" fill="rgb(163, 129, 180)" opacity="0.8718516"/>
    <path d="M 41.75691223144531 393.86663818359375 C 27.84917449951172 395.7857971191406 27.308116912841797 392.56329345703125 27.851892471313477 396.6621398925781 C 26.84935760498047 420.764892578125 21.34610366821289 421.5898132324219 22.503719329833984 396.642822265625 C 22.2939395904541 387.5709533691406 34.25730895996094 398.6914367675781 35.74687957763672 380.5228271484375 C 67.01959228515625 380.4804992675781 21.869239807128906 379.6361999511719 41.75691223144531 393.86663818359375" stroke-width="0.0" fill="rgb(25, 23, 66)" opacity="1.0"/>
    <path d="M 418.5577087402344 216.42840576171875 C 419.8351135253906 211.4925079345703 422.6333312988281 226.0425567626953 409.3504638671875 314.0443115234375 C 426.0569763183594 237.0302276611328 417.8459777832031 219.4913787841797 421.97210693359375 211.90574645996094 C 416.4609375 226.7792205810547 420.7022705078125 223.018798828125 419.64813232421875 220.48399353027344 C 417.3782958984375 223.0189971923828 421.19854736328125 239.18585205078125 418.5577087402344 216.42840576171875" stroke-width="0.0" fill="rgb(136, 132, 228)" opacity="0.536329"/>
    <path d="M 266.7510681152344 378.75537109375 C 261.6783752441406 383.27984619140625 258.5045471191406 378.6809387207031 261.2808532714844 380.1509094238281 C 263.1178283691406 382.8630676269531 248.36306762695312 374.55743408203125 262.4148864746094 392.74945068359375 C 272.1513671875 377.59185791015625 284.8939514160156 391.88421630859375 391.6854553222656 381.1092529296875 C 253.70367431640625 376.884521484375 256.9948425292969 385.7869873046875 266.7510681152344 378.75537109375" stroke-width="0.0" fill="rgb(143, 40, 177)" opacity="0.36084753"/>
    <path d="M 123.03689575195312 205.92605590820312 C 101.62864685058594 211.59033203125 93.68240356445312 199.77572631835938 148.28811645507812 221.7579803466797 C 138.2820281982422 207.5121612548828 111.0439453125 202.61851501464844 80.57986450195312 197.28269958496094 C 99.86273956298828 211.74693298339844 121.15804290771484 207.2474822998047 122.1218490600586 205.72557067871094 C 114.23357391357422 208.49160766601562 120.96202087402344 205.99606323242188 123.03689575195312 205.92605590820312" stroke-width="0.0" fill="rgb(11, 6, 54)" opacity="1.0"/>
    <path d="M 139.5264129638672 357.651123046875 C 140.69818115234375 368.28912353515625 132.8258819580078 374.1342468261719 119.42521667480469 379.15399169921875 C 105.50102996826172 385.1792907714844 93.53324890136719 380.47418212890625 88.88388061523438 363.5574035644531 C 102.70406341552734 345.321533203125 111.61265563964844 339.0431823730469 122.24168395996094 341.61248779296875 C 133.2481689453125 340.96435546875 140.876708984375 347.53851318359375 139.5264129638672 357.651123046875" stroke-width="0.0" fill="rgb(114, 36, 105)" opacity="0.8631381"/>
    <path d="M 267.1343078613281 361.8475341796875 C 266.1732482910156 365.9478759765625 254.24844360351562 368.92633056640625 240.92498779296875 365.70489501953125 C 231.66224670410156 368.8492736816406 237.63026428222656 354.708740234375 234.8787384033203 347.1427001953125 C 236.63458251953125 358.6838073730469 232.86099243164062 339.4364013671875 248.97174072265625 342.29833984375 C 253.06777954101562 340.4122009277344 258.44140625 347.6711120605469 267.1343078613281 361.8475341796875" stroke-width="0.0" fill="rgb(253, 255, 254)" opacity="0.9586847"/>
    <path d="M 418.4682312011719 336.75244140625 C 414.04315185546875 338.17401123046875 402.6882019042969 335.30633544921875 411.76971435546875 330.9212341308594 C 407.31243896484375 325.4246826171875 401.423095703125 305.0833435058594 389.1835632324219 320.3561706542969 C 405.26336669921875 340.38055419921875 396.6627197265625 344.16827392578125 410.2305908203125 310.1006164550781 C 401.8153381347656 322.15081787109375 408.96685791015625 326.2652587890625 418.4682312011719 336.75244140625" stroke-width="0.0" fill="rgb(250, 252, 254)" opacity="0.9248445"/>
    <path d="M 23.617042541503906 421.30450439453125 C 29.405981063842773 421.67962646484375 26.41705894470215 431.39788818359375 14.1536865234375 443.6456604003906 C 0.9948648810386658 434.1248474121094 -4.2736921310424805 424.0311279296875 -5.440128803253174 412.3785400390625 C -2.221021890640259 402.0906066894531 5.379621505737305 395.3612976074219 21.06144142150879 391.7423095703125 C 24.29553985595703 394.8142395019531 21.108308792114258 409.2168884277344 23.617042541503906 421.30450439453125" stroke-width="0.0" fill="rgb(98, 135, 149)" opacity="0.98027366"/>
    <path d="M 203.21759033203125 365.9979553222656 C 209.35223388671875 359.104736328125 204.37181091308594 365.5409851074219 213.55288696289062 355.4149475097656 C 205.9436492919922 353.7249450683594 201.60911560058594 345.81304931640625 191.86886596679688 341.57330322265625 C 193.29559326171875 358.82623291015625 188.20938110351562 338.25067138671875 191.3146514892578 343.28265380859375 C 191.5035400390625 353.3645324707031 198.18365478515625 360.8729248046875 203.21759033203125 365.9979553222656" stroke-width="0.0" fill="rgb(251, 255, 255)" opacity="0.76992655"/>
    <path d="M 182.6727294921875 334.5716247558594 C 184.4219512939453 319.5844421386719 194.02490234375 360.29315185546875 186.01748657226562 328.72137451171875 C 176.22994995117188 340.2752990722656 182.5613250732422 331.6611328125 177.61184692382812 329.66400146484375 C 180.910888671875 336.3985595703125 185.89639282226562 337.1846618652344 176.96835327148438 321.1512145996094 C 178.7254180908203 332.664794921875 184.05755615234375 342.3721008300781 182.6727294921875 334.5716247558594" stroke-width="0.0" fill="rgb(153, 147, 204)" opacity="1.0"/>
    <path d="M 208.6344451904297 247.59127807617188 C 207.56869506835938 220.18492126464844 202.82125854492188 228.9100799560547 198.91928100585938 235.14923095703125 C 206.0924072265625 243.84463500976562 199.42977905273438 238.20962524414062 208.37722778320312 245.5986785888672 C 202.32919311523438 244.18624877929688 201.2818145751953 229.8634490966797 181.80059814453125 225.20733642578125 C 202.20767211914062 238.70382690429688 206.5105438232422 245.39491271972656 208.6344451904297 247.59127807617188" stroke-width="0.0" fill="rgb(85, 138, 166)" opacity="0.8150528"/>
    <path d="M 184.52960205078125 353.01483154296875 C 176.80760192871094 328.21734619140625 190.86294555664062 359.85028076171875 200.3514862060547 369.8742980957031 C 185.2880859375 349.6867980957031 176.8070068359375 338.9372863769531 168.73695373535156 323.3830261230469 C 152.31829833984375 322.521484375 161.59205627441406 265.8071594238281 96.78038787841797 283.21490478515625 C 167.7427978515625 339.9090270996094 181.4033660888672 340.554443359375 184.52960205078125 353.01483154296875" stroke-width="0.0" fill="rgb(70, 11, 99)" opacity="0.5656087"/>
    <path d="M 220.85232543945312 383.03863525390625 C 205.2921905517578 361.6893310546875 193.6866912841797 357.16937255859375 196.7415313720703 364.2076110839844 C 202.61148071289062 378.12158203125 199.21128845214844 367.8076477050781 187.0048828125 339.9104919433594 C 178.50811767578125 342.6507263183594 191.59359741210938 349.71051025390625 190.48773193359375 365.86090087890625 C 202.15541076660156 362.51947021484375 205.31259155273438 376.4354248046875 220.85232543945312 383.03863525390625" stroke-width="0.0" fill="rgb(3, 2, 20)" opacity="0.51639307"/>
    <path d="M 483.68780517578125 380.7992248535156 C 466.72723388671875 378.3265075683594 456.7273254394531 379.48431396484375 467.8705139160156 387.5168762207031 C 474.59881591796875 384.0824890136719 459.98834228515625 376.5014343261719 445.866455078125 382.7579040527344 C 462.99383544921875 387.83099365234375 474.8782653808594 380.74871826171875 460.5352783203125 381.91619873046875 C 458.9581604003906 381.1337890625 475.0165100097656 386.35638427734375 483.68780517578125 380.7992248535156" stroke-width="0.0" fill="rgb(87, 24, 105)" opacity="1.0"/>
    <path d="M 28.149951934814453 373.9131774902344 C 25.98211669921875 373.6439208984375 21.161697387695312 381.53118896484375 8.124537467956543 385.645263671875 C 23.835248947143555 402.1776428222656 20.0976619720459 395.6217346191406 23.8439998626709 391.2899475097656 C 24.42594337463379 385.3142395019531 29.149917602539062 378.4720764160156 31.74048614501953 378.30364990234375 C 31.891813278198242 380.17401123046875 32.41515350341797 392.1524658203125 28.149951934814453 373.9131774902344" stroke-width="0.0" fill="rgb(101, 137, 150)" opacity="0.6694155"/>
    <path d="M 214.41355895996094 161.15994262695312 C 211.57662963867188 158.4308319091797 212.56910705566406 161.2493438720703 227.32167053222656 164.76295471191406 C 220.42562866210938 163.6792449951172 218.5055389404297 163.2169952392578 217.30577087402344 161.96629333496094 C 236.43275451660156 171.73187255859375 261.54302978515625 190.7530975341797 241.76048278808594 174.9014434814453 C 210.21592712402344 151.55877685546875 216.00086975097656 173.99810791015625 214.41355895996094 161.15994262695312" stroke-width="0.0" fill="rgb(169, 170, 234)" opacity="0.6522443"/>
    <path d="M 153.7059326171875 202.1193084716797 C 138.72154235839844 203.81491088867188 133.9513397216797 197.9373779296875 160.05393981933594 211.31361389160156 C 141.4696807861328 189.51010131835938 127.51564025878906 217.27615356445312 96.75101470947266 194.5049285888672 C 108.18255615234375 177.62530517578125 125.41204071044922 180.50022888183594 140.29248046875 183.04156494140625 C 150.50299072265625 183.9554901123047 157.5850372314453 191.53384399414062 153.7059326171875 202.1193084716797" stroke-width="0.0" fill="rgb(99, 135, 149)" opacity="0.9212647"/>
    <path d="M 550.7606201171875 373.4627685546875 C 549.3277587890625 384.14825439453125 542.449462890625 379.4496765136719 553.6280517578125 376.2273254394531 C 560.6853637695312 374.5513916015625 551.9025268554688 375.6178894042969 544.9735107421875 380.6171875 C 550.2237548828125 395.2301940917969 547.4122314453125 378.16455078125 549.7767333984375 378.07257080078125 C 550.9396362304688 369.1796875 555.8238525390625 380.2438659667969 550.7606201171875 373.4627685546875" stroke-width="0.0" fill="rgb(124, 86, 155)" opacity="1.0"/>
    <path d="M 139.14120483398438 202.05868530273438 C 134.9395751953125 224.9014129638672 127.26405334472656 210.7979736328125 157.91433715820312 228.33627319335938 C 149.30242919921875 215.1126251220703 146.31552124023438 209.18878173828125 138.8187255859375 200.65501403808594 C 125.83042907714844 207.21343994140625 133.9708709716797 197.11587524414062 150.76356506347656 208.1281280517578 C 149.802978515625 212.6825714111328 146.63291931152344 227.7914581298828 139.14120483398438 202.05868530273438" stroke-width="0.0" fill="rgb(0, 0, 34)" opacity="0.57205844"/>
  </g>
</svg>
