<?xml version="1.0" ?>
<svg xmlns="http://www.w3.org/2000/svg" version="1.1" width="600" height="600">
  <defs/>
  <g>
    <path d="M 612.6259765625 214.12168884277344 C 597.4032592773438 254.80650329589844 606.1663208007812 250.1973876953125 559.3599243164062 241.94854736328125 C 574.0112915039062 204.05564880371094 553.625244140625 211.91696166992188 486.59161376953125 145.08892822265625 C 495.1875915527344 134.63623046875 524.0516357421875 124.08345031738281 562.146240234375 127.8923110961914 C 626.242919921875 136.46353149414062 624.4553833007812 148.984619140625 612.6259765625 214.12168884277344" stroke-width="0.0" fill="rgb(80, 57, 133)" opacity="1.0"/>
    <path d="M 611.3944702148438 425.0960693359375 C 654.2080688476562 599.3603515625 669.9100952148438 614.8861694335938 479.5799865722656 668.6324462890625 C 400.4327392578125 719.8154907226562 388.06878662109375 738.8285522460938 420.95501708984375 440.3058166503906 C 377.6661071777344 298.6565856933594 387.90966796875 369.4501647949219 509.8975830078125 342.6842346191406 C 674.3587036132812 258.65185546875 644.7281494140625 314.5543518066406 611.3944702148438 425.0960693359375" stroke-width="0.0" fill="rgb(9, 0, 1)" opacity="1.0"/>
    <path d="M 350.2859802246094 26.83432388305664 C 361.2052001953125 125.7479019165039 336.9650573730469 120.35200500488281 245.9059600830078 134.92074584960938 C 149.0435333251953 93.21234893798828 134.71560668945312 101.31698608398438 108.26404571533203 3.638535737991333 C 125.08847045898438 -75.9334487915039 161.3734588623047 -52.22705078125 257.5321960449219 -46.95720672607422 C 310.22320556640625 -52.15354537963867 338.088623046875 -68.74312591552734 350.2859802246094 26.83432388305664" stroke-width="0.0" fill="rgb(16, 34, 136)" opacity="0.99279636"/>
    <path d="M 476.4313659667969 1.326745629310608 C 474.75457763671875 103.93658447265625 438.770751953125 82.8004150390625 331.7618103027344 112.4880599975586 C 293.4681396484375 88.5623779296875 274.8280334472656 70.45514678955078 302.5564880371094 70.6368637084961 C 310.2559814453125 -28.46368980407715 316.06072998046875 -32.97328567504883 373.05133056640625 -38.20607376098633 C 424.93560791015625 -23.284040451049805 453.211669921875 -32.12834930419922 476.4313659667969 1.326745629310608" stroke-width="0.0" fill="rgb(9, 52, 92)" opacity="1.0"/>
    <path d="M 380.1149597167969 75.4244613647461 C 284.4233093261719 127.69700622558594 275.78363037109375 124.74968719482422 277.35601806640625 178.77757263183594 C 167.2391357421875 119.13363647460938 119.73152923583984 133.9167022705078 104.68126678466797 38.907371520996094 C 110.23455047607422 -32.14154815673828 129.08026123046875 -37.92327880859375 206.7570343017578 -28.59963607788086 C 300.42547607421875 -5.9898810386657715 346.9231262207031 -18.396448135375977 380.1149597167969 75.4244613647461" stroke-width="0.0" fill="rgb(9, 39, 133)" opacity="0.8510928"/>
    <path d="M 648.0643920898438 50.21495819091797 C 607.9675903320312 164.50547790527344 623.6071166992188 212.18173217773438 524.7388916015625 225.4211883544922 C 440.8072814941406 160.8820037841797 454.74267578125 132.75360107421875 431.064208984375 62.330810546875 C 435.5721435546875 -6.209934711456299 444.1597900390625 -10.507038116455078 518.1315307617188 -8.931669235229492 C 603.730224609375 -23.734193801879883 615.1324462890625 -20.754785537719727 648.0643920898438 50.21495819091797" stroke-width="0.0" fill="rgb(7, 41, 122)" opacity="0.99886626"/>
    <path d="M 520.2758178710938 179.84996032714844 C 551.7304077148438 286.84710693359375 471.28558349609375 195.29986572265625 358.0677795410156 270.1855773925781 C 325.937744140625 305.2371520996094 345.7524108886719 230.88613891601562 256.4904479980469 157.55291748046875 C 303.7597351074219 53.02629470825195 350.75103759765625 73.77949523925781 470.1597900390625 74.3225326538086 C 463.6257019042969 -4.509492874145508 442.6241760253906 34.41035842895508 520.2758178710938 179.84996032714844" stroke-width="0.0" fill="rgb(1, 35, 141)" opacity="1.0"/>
    <path d="M 342.9275207519531 283.8127136230469 C 475.7876892089844 412.5215759277344 345.5124816894531 480.2176513671875 338.7091064453125 263.62689208984375 C 238.8074951171875 111.0411148071289 137.20114135742188 154.43771362304688 119.3351058959961 113.65953063964844 C 109.93838500976562 43.831504821777344 127.66067504882812 42.67673110961914 188.3649139404297 39.72730255126953 C 242.40589904785156 48.59977722167969 248.4498291015625 60.94272232055664 342.9275207519531 283.8127136230469" stroke-width="0.0" fill="rgb(17, 24, 143)" opacity="0.99958116"/>
    <path d="M 110.62548065185547 92.14102935791016 C 102.78824615478516 162.37741088867188 92.95069885253906 168.3859100341797 0.7688336968421936 206.00634765625 C -40.2191047668457 180.00277709960938 -36.17612075805664 158.4976806640625 -30.642166137695312 108.60930633544922 C -26.028444290161133 33.469444274902344 -35.15114974975586 7.581382751464844 21.24541664123535 -38.58976745605469 C 102.78152465820312 -0.8755543231964111 90.09938049316406 37.997554779052734 110.62548065185547 92.14102935791016" stroke-width="0.0" fill="rgb(18, 107, 121)" opacity="0.99344575"/>
    <path d="M 162.7530059814453 100.53630065917969 C 154.18507385253906 149.80136108398438 132.7781524658203 150.92300415039062 104.45984649658203 145.63137817382812 C 84.9545669555664 138.70376586914062 85.54388427734375 118.20240020751953 79.16675567626953 51.107444763183594 C 26.026784896850586 17.86533546447754 36.05851364135742 28.10472297668457 160.17723083496094 40.006404876708984 C 162.32005310058594 31.675186157226562 163.3730926513672 40.94575881958008 162.7530059814453 100.53630065917969" stroke-width="0.0" fill="rgb(20, 91, 124)" opacity="0.72856295"/>
    <path d="M 619.1926879882812 93.35252380371094 C 613.7274169921875 108.76091766357422 609.4628295898438 120.80337524414062 611.5545043945312 127.63069152832031 C 599.6571655273438 107.42669677734375 601.1312255859375 97.7899398803711 580.8489379882812 92.78784942626953 C 576.3383178710938 82.33756256103516 565.8954467773438 23.87127113342285 601.6776123046875 -14.704748153686523 C 650.3152465820312 23.716690063476562 630.4815063476562 60.644134521484375 619.1926879882812 93.35252380371094" stroke-width="0.0" fill="rgb(23, 51, 72)" opacity="0.30813453"/>
    <path d="M 653.7232055664062 107.12297058105469 C 620.3958740234375 156.36219787597656 624.231689453125 173.60830688476562 561.1672973632812 175.76925659179688 C 469.125244140625 200.57037353515625 461.8550109863281 213.2860565185547 393.0827941894531 109.9384994506836 C 428.0686950683594 -0.27622947096824646 479.8529052734375 25.226646423339844 580.6370849609375 11.327339172363281 C 644.7178955078125 34.36106872558594 638.5799560546875 55.5086555480957 653.7232055664062 107.12297058105469" stroke-width="0.0" fill="rgb(11, 43, 118)" opacity="0.7246205"/>
    <path d="M 20.639427185058594 0.02501075528562069 C 17.95993423461914 10.02501106262207 10.639427185058594 17.345518112182617 0.6394268274307251 20.02501106262207 C -9.360572814941406 17.345518112182617 -16.681079864501953 10.02501106262207 -19.360572814941406 0.02501075528562069 C -16.681079864501953 -9.97498893737793 -9.360572814941406 -17.295495986938477 0.6394268274307251 -19.97498893737793 C 10.639427185058594 -17.295495986938477 17.95993423461914 -9.97498893737793 20.639427185058594 0.02501075528562069" stroke-width="0.0" fill="rgb(237, 220, 11)" opacity="0.812939" stroke="rgb(206, 251, 38)" stroke-opacity="0.5941307" stroke-linecap="round" stroke-linejoin="round"/>
    <path d="M 225.75489807128906 258.37310791015625 C 266.3233947753906 360.2455139160156 281.2833557128906 451.2869873046875 207.7091522216797 403.60931396484375 C -118.86681365966797 386.7072448730469 -67.7436294555664 331.8288269042969 -30.184799194335938 247.3212127685547 C 63.82993698120117 113.73847198486328 95.46775817871094 131.0897674560547 80.67164611816406 154.92137145996094 C 101.61149597167969 130.874267578125 141.62278747558594 67.50911712646484 225.75489807128906 258.37310791015625" stroke-width="0.0" fill="rgb(21, 21, 0)" opacity="1.0"/>
    <path d="M 186.11219787597656 15.479992866516113 C 145.0966339111328 49.64524841308594 132.9310302734375 76.27655792236328 90.51182556152344 117.17555236816406 C 32.52958297729492 112.3994140625 41.30097198486328 57.83803939819336 26.300296783447266 -36.91519546508789 C 22.51487922668457 -49.1414909362793 62.78466796875 -26.745567321777344 94.58082580566406 -7.822495460510254 C 143.22511291503906 -11.144766807556152 194.1929168701172 -36.30937957763672 186.11219787597656 15.479992866516113" stroke-width="0.0" fill="rgb(18, 106, 125)" opacity="1.0"/>
    <path d="M 646.636474609375 247.64437866210938 C 653.291748046875 334.7344055175781 686.1366577148438 355.7075500488281 478.1053771972656 306.29217529296875 C 549.5980224609375 228.47174072265625 393.0074768066406 336.6924743652344 450.53399658203125 365.87109375 C 515.7890625 150.05751037597656 423.1861572265625 133.79286193847656 537.9568481445312 200.7865447998047 C 588.4400024414062 182.8646240234375 606.8766479492188 177.97962951660156 646.636474609375 247.64437866210938" stroke-width="0.0" fill="rgb(19, 57, 105)" opacity="0.7698943"/>
    <path d="M 294.123291015625 528.2234497070312 C 297.8701477050781 578.3958740234375 300.9550476074219 596.8865356445312 285.22332763671875 607.1293334960938 C 173.12901306152344 537.0411376953125 174.61846923828125 507.9486083984375 98.4577407836914 455.7108154296875 C 111.01288604736328 426.03631591796875 141.27711486816406 451.69354248046875 200.9616241455078 433.06536865234375 C 225.9659423828125 440.95745849609375 257.5381774902344 449.99676513671875 294.123291015625 528.2234497070312" stroke-width="0.0" fill="rgb(51, 137, 163)" opacity="0.8729852"/>
    <path d="M 501.30389404296875 422.697265625 C -4.4358906745910645 414.1069030761719 20.167064666748047 426.8407897949219 26.412776947021484 424.24066162109375 C 34.03445053100586 486.9376525878906 34.28059005737305 455.50372314453125 -44.374141693115234 435.0224609375 C -6.197793483734131 338.89739990234375 79.43283081054688 393.8780517578125 240.1427764892578 360.83514404296875 C 91.86058044433594 334.89471435546875 103.2195816040039 348.5718078613281 501.30389404296875 422.697265625" stroke-width="0.0" fill="rgb(158, 83, 25)" opacity="0.9654285"/>
    <path d="M 145.80780029296875 523.607177734375 C 176.47943115234375 525.2970581054688 126.10017395019531 506.018798828125 76.71309661865234 533.6215209960938 C 30.873212814331055 515.9136962890625 20.748382568359375 504.6271667480469 -21.42560577392578 449.2866516113281 C -3.1692848205566406 394.7889709472656 37.87104415893555 419.5380554199219 171.8042755126953 417.9950256347656 C 147.7862548828125 440.3228759765625 139.20391845703125 457.8484191894531 145.80780029296875 523.607177734375" stroke-width="0.0" fill="rgb(50, 101, 118)" opacity="0.9403706"/>
    <path d="M 168.2393798828125 466.93414306640625 C 129.82752990722656 489.0634460449219 119.3636703491211 498.7119140625 64.32071685791016 553.6141967773438 C 18.311397552490234 605.5750122070312 19.15637969970703 589.5618286132812 9.49423885345459 516.0618896484375 C 64.6894302368164 446.9041442871094 104.18155670166016 448.7431945800781 151.25660705566406 453.8630065917969 C 150.2519989013672 432.03570556640625 173.34921264648438 441.6650695800781 168.2393798828125 466.93414306640625" stroke-width="0.0" fill="rgb(8, 86, 159)" opacity="0.68612945"/>
    <path d="M 199.26470947265625 432.6855163574219 C 202.52047729492188 485.5384521484375 210.02684020996094 526.7122192382812 188.10879516601562 548.0432739257812 C 101.83244323730469 544.9124145507812 133.69932556152344 541.49267578125 131.93093872070312 431.17822265625 C 87.90592956542969 426.64886474609375 106.3284912109375 446.63330078125 164.07106018066406 455.6308898925781 C 152.58055114746094 443.5425109863281 191.78541564941406 443.9580383300781 199.26470947265625 432.6855163574219" stroke-width="0.0" fill="rgb(44, 110, 197)" opacity="0.69883996"/>
    <path d="M 106.21949768066406 475.1372375488281 C 126.84274291992188 600.8349609375 87.61588287353516 608.7114868164062 13.652822494506836 584.624755859375 C -12.090022087097168 576.3947143554688 -11.460596084594727 574.3486938476562 -57.970008850097656 494.4504699707031 C -52.27728271484375 437.407958984375 -38.15168762207031 437.85882568359375 38.55506134033203 421.6873474121094 C 111.43576049804688 416.65948486328125 115.13911437988281 421.176025390625 106.21949768066406 475.1372375488281" stroke-width="0.0" fill="rgb(14, 100, 124)" opacity="0.9932134"/>
    <path d="M 289.34149169921875 539.1600952148438 C 258.5381774902344 620.4491577148438 246.0249481201172 623.8107299804688 175.82945251464844 631.4227905273438 C 71.33500671386719 623.451416015625 61.851993560791016 606.757080078125 88.0844497680664 557.180419921875 C 103.20884704589844 479.8309020996094 104.47091674804688 462.94830322265625 142.49375915527344 446.4956359863281 C 233.8485870361328 439.7407531738281 244.31689453125 422.9808654785156 289.34149169921875 539.1600952148438" stroke-width="0.0" fill="rgb(12, 100, 129)" opacity="0.99955523"/>
    <path d="M 638.4835205078125 500.4230041503906 C 526.610595703125 690.9166259765625 485.95654296875 673.0962524414062 290.1035461425781 659.063232421875 C 225.07705688476562 648.8032836914062 232.881103515625 656.7953491210938 250.05255126953125 561.71240234375 C 265.57098388671875 449.4019775390625 236.62342834472656 421.11199951171875 268.5060119628906 417.04473876953125 C 501.0914306640625 402.42572021484375 564.3414306640625 371.0422668457031 638.4835205078125 500.4230041503906" stroke-width="0.0" fill="rgb(9, 96, 130)" opacity="0.9977575"/>
    <path d="M 110.62385559082031 610.545654296875 C 137.48939514160156 640.2704467773438 126.06855773925781 634.6197509765625 61.30691146850586 660.2887573242188 C 14.149662971496582 627.7066650390625 10.805869102478027 617.055419921875 -40.090301513671875 547.9346923828125 C 35.67222213745117 546.3475341796875 29.350385665893555 523.4998779296875 90.4710464477539 464.60113525390625 C 121.65518188476562 476.326416015625 107.16471099853516 493.4092102050781 110.62385559082031 610.545654296875" stroke-width="0.0" fill="rgb(15, 99, 128)" opacity="1.0"/>
    <path d="M 61.825103759765625 634.8460083007812 C 83.84516143798828 612.6415405273438 69.02670288085938 613.3963623046875 43.7085075378418 613.1686401367188 C 9.677155494689941 624.1893920898438 -10.844095230102539 630.8328857421875 -39.03227233886719 566.94873046875 C -22.193199157714844 543.1821899414062 -1.6160534620285034 546.4597778320312 7.467380046844482 555.7208251953125 C 53.975643157958984 558.7876586914062 28.751550674438477 603.3158569335938 61.825103759765625 634.8460083007812" stroke-width="0.0" fill="rgb(16, 99, 127)" opacity="0.98300016"/>
    <path d="M 57.856414794921875 386.4748229980469 C -13.3544921875 369.1456298828125 48.61342239379883 385.7735900878906 6.650478839874268 427.2799072265625 C -43.7267951965332 463.7510986328125 -48.74925231933594 435.26531982421875 -2.319934844970703 437.4582214355469 C -7.304001808166504 311.1565856933594 -91.60265350341797 180.65478515625 186.47193908691406 84.94886779785156 C 96.9540786743164 257.9562683105469 97.456787109375 238.90321350097656 57.856414794921875 386.4748229980469" stroke-width="0.0" fill="rgb(0, 36, 149)" opacity="0.97880155"/>
    <path d="M 237.5938262939453 400.1598205566406 C 230.65667724609375 449.512451171875 206.68978881835938 449.9427185058594 131.80613708496094 442.0502014160156 C 141.4659423828125 466.9448547363281 139.18365478515625 465.80914306640625 132.91712951660156 390.7296447753906 C 118.87486267089844 369.6112365722656 150.81915283203125 374.2413024902344 184.0926971435547 375.9081726074219 C 238.6703643798828 391.41851806640625 217.9270477294922 394.34234619140625 237.5938262939453 400.1598205566406" stroke-width="0.0" fill="rgb(108, 109, 47)" opacity="0.6610794"/>
    <path d="M 172.33763122558594 391.37213134765625 C 170.0669708251953 490.0907287597656 146.760009765625 486.6593322753906 129.08572387695312 432.55047607421875 C 133.6405792236328 430.6137390136719 180.61801147460938 464.8017883300781 177.96987915039062 390.81842041015625 C -11.252091407775879 412.2166748046875 -55.02605056762695 421.9790954589844 46.32058334350586 424.4640197753906 C 135.680908203125 416.57928466796875 135.05702209472656 408.36968994140625 172.33763122558594 391.37213134765625" stroke-width="0.0" fill="rgb(114, 110, 66)" opacity="0.1423556"/>
    <path d="M 283.2281799316406 439.15936279296875 C 232.89169311523438 441.6158752441406 209.09291076660156 436.5954895019531 147.56451416015625 439.419677734375 C 200.00050354003906 438.8847961425781 198.1306610107422 439.4335632324219 165.81663513183594 426.5549621582031 C 152.19639587402344 369.7546081542969 153.35580444335938 371.7785339355469 212.52041625976562 380.3288879394531 C 257.2657165527344 413.123046875 274.25665283203125 425.580078125 283.2281799316406 439.15936279296875" stroke-width="0.0" fill="rgb(155, 85, 49)" opacity="0.9531259"/>
    <path d="M 261.8667907714844 366.457275390625 C 252.34117126464844 474.9002380371094 295.6127624511719 501.82244873046875 267.9751281738281 493.8694763183594 C 231.02378845214844 485.3399353027344 225.07269287109375 456.9442443847656 224.74197387695312 445.5424499511719 C 224.50914001464844 418.3868103027344 223.39430236816406 415.1953430175781 456.2713317871094 417.26690673828125 C 642.762939453125 419.1941223144531 635.5180053710938 397.35009765625 261.8667907714844 366.457275390625" stroke-width="0.0" fill="rgb(144, 77, 37)" opacity="0.8417595"/>
    <path d="M 307.97412109375 429.76904296875 C 298.9772033691406 531.0426025390625 313.106689453125 536.1307983398438 255.94483947753906 527.6157836914062 C 193.82708740234375 485.9993591308594 181.44744873046875 482.5325927734375 121.9796371459961 462.940185546875 C 104.96416473388672 406.5500793457031 104.91596984863281 417.3478698730469 169.7200927734375 417.17205810546875 C 322.4225769042969 417.0860595703125 338.4316101074219 422.4216613769531 307.97412109375 429.76904296875" stroke-width="0.0" fill="rgb(12, 99, 133)" opacity="0.9958481"/>
    <path d="M 527.1892700195312 336.2919921875 C 495.5907287597656 373.22308349609375 514.4576416015625 358.9327392578125 464.3309020996094 300.2198181152344 C 422.0224609375 400.2848815917969 413.8244323730469 471.728271484375 382.6739196777344 298.7156677246094 C 401.32354736328125 291.07623291015625 419.9762878417969 260.2784118652344 464.68365478515625 248.9765167236328 C 529.5153198242188 279.6689147949219 515.486572265625 295.5167541503906 527.1892700195312 336.2919921875" stroke-width="0.0" fill="rgb(255, 255, 249)" opacity="1.0"/>
    <path d="M 344.8070373535156 216.5771026611328 C 319.268798828125 232.10313415527344 313.2818908691406 195.2102508544922 206.1225128173828 146.58258056640625 C 134.5748748779297 139.80645751953125 161.95301818847656 89.65455627441406 171.189697265625 232.571044921875 C 31.206314086914062 126.12198638916016 20.59780502319336 194.623779296875 175.40985107421875 27.47502899169922 C 362.628662109375 64.53227996826172 354.84222412109375 72.06195831298828 344.8070373535156 216.5771026611328" stroke-width="0.0" fill="rgb(7, 37, 136)" opacity="0.9971049"/>
    <path d="M 584.4485473632812 356.21856689453125 C 506.00994873046875 335.3656311035156 521.3134155273438 277.3611145019531 520.344482421875 368.2525634765625 C 474.6337585449219 345.6099548339844 592.3300170898438 316.4270935058594 477.1163330078125 239.3346710205078 C 492.1791076660156 236.38238525390625 491.7732849121094 223.41705322265625 507.75970458984375 222.76564025878906 C 521.6529541015625 246.2965087890625 558.587890625 241.38893127441406 584.4485473632812 356.21856689453125" stroke-width="0.0" fill="rgb(120, 146, 183)" opacity="0.24335968"/>
    <path d="M 526.9234619140625 230.54750061035156 C 518.5015258789062 232.31381225585938 525.329345703125 250.70062255859375 531.2770385742188 258.6937561035156 C 480.2899169921875 250.34222412109375 472.20806884765625 237.53355407714844 471.9779052734375 189.68118286132812 C 460.1247863769531 174.196533203125 488.65252685546875 160.72039794921875 472.46087646484375 189.1471710205078 C 499.3882141113281 220.40682983398438 520.2012329101562 228.67935180664062 526.9234619140625 230.54750061035156" stroke-width="0.0" fill="rgb(6, 22, 181)" opacity="0.657758"/>
    <path d="M 477.3943176269531 208.1980438232422 C 464.8198547363281 201.4918975830078 455.7772216796875 223.3524932861328 510.2051086425781 219.58705139160156 C 502.61700439453125 196.94696044921875 482.5526428222656 194.9312744140625 456.97100830078125 192.1182861328125 C 366.63446044921875 213.36553955078125 383.6357421875 178.36447143554688 361.0708923339844 130.81936645507812 C 477.3594055175781 154.65277099609375 478.2890625 195.0313720703125 477.3943176269531 208.1980438232422" stroke-width="0.0" fill="rgb(14, 49, 96)" opacity="0.37013692"/>
    <path d="M 476.0239562988281 252.8507843017578 C 495.72882080078125 259.1148681640625 501.2101135253906 258.151123046875 502.47607421875 276.3960876464844 C 479.9851989746094 270.9212341308594 461.7610168457031 269.17303466796875 482.50189208984375 253.90292358398438 C 467.8274230957031 184.3981475830078 454.19354248046875 150.18031311035156 472.07611083984375 181.34901428222656 C 495.9936828613281 192.2397003173828 487.6344909667969 213.84674072265625 476.0239562988281 252.8507843017578" stroke-width="0.0" fill="rgb(10, 44, 162)" opacity="0.36961174"/>
    <path d="M 491.11688232421875 223.21629333496094 C 523.244140625 297.4726257324219 510.6763916015625 298.11688232421875 447.5673522949219 304.11083984375 C 477.6722717285156 307.175537109375 472.8748474121094 304.5964660644531 484.6318664550781 244.45921325683594 C 488.02081298828125 138.11643981933594 453.27142333984375 169.3559112548828 475.3294677734375 191.6268310546875 C 495.0431823730469 203.248779296875 494.67218017578125 210.8846893310547 491.11688232421875 223.21629333496094" stroke-width="0.0" fill="rgb(23, 103, 31)" opacity="0.19147633"/>
    <path d="M 559.4277954101562 279.3433532714844 C 552.9195556640625 304.03851318359375 533.37744140625 333.2380676269531 529.8765258789062 284.4595031738281 C 481.95928955078125 281.181396484375 485.60443115234375 246.75521850585938 504.7091979980469 233.77366638183594 C 496.5966796875 251.47848510742188 486.7669677734375 216.48822021484375 480.0247802734375 240.2574920654297 C 511.709716796875 237.11891174316406 509.80084228515625 237.39910888671875 559.4277954101562 279.3433532714844" stroke-width="0.0" fill="rgb(4, 121, 126)" opacity="0.7325585"/>
    <path d="M 627.347412109375 281.5873718261719 C 595.5325317382812 290.8027038574219 555.2498779296875 280.5738525390625 515.3579711914062 276.0704040527344 C 504.33282470703125 275.04681396484375 515.60400390625 242.7363739013672 517.518798828125 188.03564453125 C 519.8709716796875 175.94483947753906 525.428955078125 200.14645385742188 586.0524291992188 203.83555603027344 C 565.9327392578125 205.13352966308594 563.949462890625 216.55677795410156 627.347412109375 281.5873718261719" stroke-width="0.0" fill="rgb(0, 86, 189)" opacity="0.6943674"/>
    <path d="M 528.9739990234375 271.87310791015625 C 555.7589111328125 301.1539001464844 523.6848754882812 283.0816650390625 480.4577331542969 315.27239990234375 C 448.1043395996094 290.79888916015625 461.1404113769531 322.4751281738281 467.52398681640625 278.71868896484375 C 477.17962646484375 241.06507873535156 481.34613037109375 218.8563690185547 480.78887939453125 196.17041015625 C 526.9166870117188 190.7996063232422 524.0913696289062 198.61241149902344 528.9739990234375 271.87310791015625" stroke-width="0.0" fill="rgb(0, 31, 147)" opacity="1.0"/>
    <path d="M 220.01121520996094 283.6035461425781 C 251.949951171875 343.5357360839844 272.8395080566406 398.20184326171875 234.36083984375 381.81732177734375 C 165.15855407714844 395.1194152832031 155.97496032714844 311.57513427734375 168.99717712402344 352.4736633300781 C 93.7922134399414 191.0500030517578 -16.004148483276367 215.7390594482422 182.47042846679688 215.38330078125 C 221.41075134277344 273.27581787109375 223.92691040039062 299.0318603515625 220.01121520996094 283.6035461425781" stroke-width="0.0" fill="rgb(255, 253, 245)" opacity="1.0"/>
    <path d="M 518.7453002929688 198.16148376464844 C 513.7942504882812 242.36451721191406 436.0055847167969 205.5512237548828 335.70428466796875 234.13304138183594 C 308.2684326171875 232.55767822265625 296.40869140625 198.72921752929688 271.6390075683594 173.12118530273438 C 269.71551513671875 96.90717315673828 253.04364013671875 99.10411071777344 364.50799560546875 92.61822509765625 C 413.39581298828125 87.73957824707031 466.8537902832031 62.75318908691406 518.7453002929688 198.16148376464844" stroke-width="0.0" fill="rgb(2, 44, 129)" opacity="0.56903684"/>
    <path d="M 536.245849609375 199.54690551757812 C 554.1863403320312 216.67242431640625 536.4996948242188 229.34255981445312 499.325927734375 203.2900848388672 C 469.18511962890625 197.0987548828125 437.7264404296875 216.18862915039062 396.09637451171875 130.4423828125 C 370.9003601074219 75.43778228759766 367.0986328125 34.15010070800781 515.7420043945312 -1.3664182424545288 C 563.5396118164062 55.400245666503906 523.4581909179688 132.89881896972656 536.245849609375 199.54690551757812" stroke-width="0.0" fill="rgb(6, 42, 119)" opacity="0.50350934"/>
    <path d="M 484.53839111328125 42.062068939208984 C 484.7057800292969 177.31875610351562 410.2708435058594 144.03318786621094 304.1186218261719 153.1397247314453 C 251.52474975585938 145.25294494628906 256.8128662109375 159.8839874267578 240.20458984375 74.86454010009766 C 224.1066131591797 11.911298751831055 223.8919219970703 -11.294503211975098 324.2303771972656 -31.228702545166016 C 464.6686706542969 -23.30681610107422 493.2801818847656 -48.19366455078125 484.53839111328125 42.062068939208984" stroke-width="0.0" fill="rgb(7, 40, 125)" opacity="0.8537739"/>
    <path d="M 601.3569946289062 187.6492462158203 C 586.6373901367188 266.67327880859375 593.243896484375 252.88555908203125 515.8367309570312 248.88839721679688 C 474.3050231933594 238.71363830566406 463.33984375 229.0633087158203 463.459716796875 197.9639129638672 C 474.15557861328125 155.98147583007812 460.0301208496094 162.2273406982422 515.9032592773438 163.29049682617188 C 591.1736450195312 175.5709228515625 585.9141845703125 160.4344940185547 601.3569946289062 187.6492462158203" stroke-width="0.0" fill="rgb(3, 45, 120)" opacity="0.3298701"/>
    <path d="M 673.6334838867188 232.04489135742188 C 650.5958862304688 301.16204833984375 652.5462036132812 321.96527099609375 587.736083984375 353.99664306640625 C 512.1964111328125 272.17266845703125 518.712158203125 249.33444213867188 509.0765686035156 200.41835021972656 C 510.21295166015625 168.77142333984375 510.0855712890625 186.09683227539062 580.4664916992188 182.9958953857422 C 634.94482421875 167.0870361328125 642.6383666992188 182.90283203125 673.6334838867188 232.04489135742188" stroke-width="0.0" fill="rgb(2, 37, 127)" opacity="1.0"/>
    <path d="M 366.4400939941406 305.72601318359375 C 400.0224609375 330.1020202636719 401.3999938964844 344.370849609375 321.8969421386719 379.656494140625 C 302.6682434082031 365.3255310058594 301.92144775390625 319.131591796875 337.54925537109375 302.4927062988281 C 318.6075744628906 240.46408081054688 326.6805114746094 251.62937927246094 334.43798828125 274.2240295410156 C 352.04541015625 292.1279296875 360.02532958984375 300.1340026855469 366.4400939941406 305.72601318359375" stroke-width="0.0" fill="rgb(255, 255, 218)" opacity="0.95960784"/>
    <path d="M 20.101001739501953 0.27797359228134155 C 17.4215087890625 10.277973175048828 10.101001739501953 17.598480224609375 0.10100142657756805 20.277973175048828 C -9.898998260498047 17.598480224609375 -17.219505310058594 10.277973175048828 -19.898998260498047 0.27797359228134155 C -17.219505310058594 -9.722026824951172 -9.898998260498047 -17.04253387451172 0.10100142657756805 -19.722026824951172 C 10.101001739501953 -17.04253387451172 17.4215087890625 -9.722026824951172 20.101001739501953 0.27797359228134155" stroke-width="0.0" fill="rgb(186, 239, 46)" opacity="0.9223362" stroke="rgb(146, 214, 35)" stroke-opacity="0.7952673" stroke-linecap="round" stroke-linejoin="round"/>
    <path d="M 546.577392578125 339.2827453613281 C 532.2914428710938 338.6332092285156 515.001220703125 326.25628662109375 553.9715576171875 334.86871337890625 C 526.0885009765625 373.26043701171875 518.0999755859375 382.02392578125 508.008544921875 308.31512451171875 C 502.9826354980469 297.7996826171875 534.113525390625 288.9873352050781 583.4192504882812 288.119873046875 C 568.4856567382812 314.77178955078125 550.8348388671875 339.510498046875 546.577392578125 339.2827453613281" stroke-width="0.0" fill="rgb(255, 255, 253)" opacity="1.0"/>
    <path d="M 20.805818557739258 0.6981393694877625 C 18.126325607299805 10.698139190673828 10.805819511413574 18.018646240234375 0.8058192729949951 20.698139190673828 C -9.194180488586426 18.018646240234375 -16.51468849182129 10.698139190673828 -19.194181442260742 0.6981393694877625 C -16.51468849182129 -9.301860809326172 -9.194180488586426 -16.62236785888672 0.8058192729949951 -19.301860809326172 C 10.805819511413574 -16.62236785888672 18.126325607299805 -9.301860809326172 20.805818557739258 0.6981393694877625" stroke-width="0.0" fill="rgb(45, 22, 30)" opacity="0.7619001" stroke="rgb(92, 128, 176)" stroke-opacity="0.03931214" stroke-linecap="round" stroke-linejoin="round"/>
    <path d="M 592.142822265625 429.6259765625 C 592.7418212890625 436.6797790527344 511.221435546875 413.877685546875 581.189697265625 405.6108093261719 C 561.5265502929688 402.9551086425781 491.17669677734375 401.5525817871094 376.7117004394531 398.20794677734375 C 410.1952209472656 375.87066650390625 536.3536987304688 394.6806640625 589.0601196289062 382.24920654296875 C 592.3782348632812 311.7245178222656 581.576904296875 325.79852294921875 592.142822265625 429.6259765625" stroke-width="0.0" fill="rgb(253, 252, 135)" opacity="0.9916296"/>
    <path d="M 92.35155487060547 445.0826721191406 C 96.812255859375 499.976318359375 83.06461334228516 516.281005859375 70.8701400756836 494.1193542480469 C 105.41675567626953 510.5028991699219 92.97837829589844 513.144775390625 111.98084259033203 484.0204162597656 C 141.78341674804688 509.0743408203125 104.87477111816406 520.26904296875 89.77029418945312 480.4342041015625 C 99.33499908447266 476.5028381347656 90.39247131347656 478.782958984375 92.35155487060547 445.0826721191406" stroke-width="0.0" fill="rgb(5, 116, 151)" opacity="0.106362276"/>
    <path d="M 20.86170768737793 0.5773521661758423 C 18.182214736938477 10.577352523803711 10.861706733703613 17.897859573364258 0.8617069125175476 20.57735252380371 C -9.138293266296387 17.897859573364258 -16.458799362182617 10.577352523803711 -19.13829231262207 0.5773521661758423 C -16.458799362182617 -9.422647476196289 -9.138293266296387 -16.743154525756836 0.8617069125175476 -19.42264747619629 C 10.861706733703613 -16.743154525756836 18.182214736938477 -9.422647476196289 20.86170768737793 0.5773521661758423" stroke-width="0.0" fill="rgb(170, 236, 141)" opacity="0.7839937" stroke="rgb(196, 47, 82)" stroke-opacity="0.42543644" stroke-linecap="round" stroke-linejoin="round"/>
    <path d="M 527.8768920898438 377.5346984863281 C 461.5704040527344 381.8493957519531 489.7589111328125 349.82794189453125 499.1758117675781 400.4197692871094 C 502.4085998535156 410.7711181640625 500.46405029296875 397.11749267578125 539.8363647460938 385.6746520996094 C 503.5762939453125 350.38360595703125 516.9854125976562 352.27484130859375 482.8173522949219 399.09063720703125 C 324.08380126953125 420.8294677734375 213.7765350341797 376.7589416503906 527.8768920898438 377.5346984863281" stroke-width="0.0" fill="rgb(234, 154, 31)" opacity="0.5167941"/>
    <path d="M 20.163402557373047 0.37945544719696045 C 17.483909606933594 10.37945556640625 10.163402557373047 17.699962615966797 0.1634024977684021 20.37945556640625 C -9.836597442626953 17.699962615966797 -17.1571044921875 10.37945556640625 -19.836597442626953 0.37945544719696045 C -17.1571044921875 -9.62054443359375 -9.836597442626953 -16.941051483154297 0.1634024977684021 -19.62054443359375 C 10.163402557373047 -16.941051483154297 17.483909606933594 -9.62054443359375 20.163402557373047 0.37945544719696045" stroke-width="0.0" fill="rgb(101, 203, 38)" opacity="0.91667575" stroke="rgb(183, 163, 176)" stroke-opacity="0.54272443" stroke-linecap="round" stroke-linejoin="round"/>
    <path d="M 402.2550354003906 345.021484375 C 436.3643798828125 401.5644226074219 468.6371765136719 386.4815979003906 293.81427001953125 389.2953796386719 C 294.7032165527344 363.73126220703125 274.95330810546875 369.1138916015625 307.0205993652344 336.97576904296875 C 365.616455078125 357.9640197753906 404.22174072265625 360.2082214355469 361.396484375 298.8918762207031 C 399.39306640625 332.3526611328125 396.3053894042969 332.09307861328125 402.2550354003906 345.021484375" stroke-width="0.0" fill="rgb(0, 0, 6)" opacity="1.0"/>
    <path d="M 98.1911849975586 246.71998596191406 C 111.09337615966797 288.80731201171875 111.26052856445312 282.55352783203125 89.30850982666016 321.501708984375 C 74.83905792236328 244.1217803955078 74.44102478027344 234.37701416015625 71.71469116210938 221.1968536376953 C 82.33399200439453 237.65138244628906 68.97298431396484 211.87103271484375 90.70072937011719 208.98854064941406 C 78.14454650878906 210.90771484375 65.91783905029297 223.1809844970703 98.1911849975586 246.71998596191406" stroke-width="0.0" fill="rgb(82, 80, 0)" opacity="0.99985045"/>
    <path d="M 189.82289123535156 444.4137268066406 C 186.85836791992188 502.7079162597656 206.32180786132812 478.2316589355469 103.66688537597656 486.4250183105469 C 73.92127990722656 483.7811584472656 79.30120086669922 504.0278015136719 73.04734802246094 431.1084899902344 C 78.6339111328125 418.7359619140625 114.39112854003906 407.3262939453125 133.03036499023438 426.9803161621094 C 195.239501953125 422.3188781738281 195.6748046875 412.33587646484375 189.82289123535156 444.4137268066406" stroke-width="0.0" fill="rgb(20, 108, 135)" opacity="0.82677984"/>
    <path d="M 20.34025001525879 0.15547950565814972 C 17.660757064819336 10.155479431152344 10.340250968933105 17.47598648071289 0.34025052189826965 20.155479431152344 C -9.659749031066895 17.47598648071289 -16.980257034301758 10.155479431152344 -19.65974998474121 0.15547950565814972 C -16.980257034301758 -9.844520568847656 -9.659749031066895 -17.165027618408203 0.34025052189826965 -19.844520568847656 C 10.340250968933105 -17.165027618408203 17.660757064819336 -9.844520568847656 20.34025001525879 0.15547950565814972" stroke-width="0.0" fill="rgb(203, 160, 20)" opacity="0.97626173" stroke="rgb(15, 70, 205)" stroke-opacity="0.74825966" stroke-linecap="round" stroke-linejoin="round"/>
    <path d="M 544.2584228515625 328.27032470703125 C 536.8165893554688 337.148193359375 535.1336059570312 372.7966613769531 515.9524536132812 371.1554870605469 C 484.191650390625 366.781005859375 502.7580871582031 301.4668273925781 492.31304931640625 314.591552734375 C 474.2907409667969 322.4656677246094 484.25482177734375 312.00823974609375 509.0470275878906 307.18310546875 C 554.7868041992188 294.9356384277344 568.51513671875 305.5901794433594 544.2584228515625 328.27032470703125" stroke-width="0.0" fill="rgb(255, 255, 250)" opacity="1.0"/>
    <path d="M 20.635684967041016 0.36483219265937805 C 17.956192016601562 10.364831924438477 10.6356840133667 17.685338973999023 0.6356844305992126 20.364831924438477 C -9.3643159866333 17.685338973999023 -16.68482208251953 10.364831924438477 -19.364315032958984 0.36483219265937805 C -16.68482208251953 -9.635168075561523 -9.3643159866333 -16.95567512512207 0.6356844305992126 -19.635168075561523 C 10.6356840133667 -16.95567512512207 17.956192016601562 -9.635168075561523 20.635684967041016 0.36483219265937805" stroke-width="0.0" fill="rgb(51, 41, 41)" opacity="0.89955914" stroke="rgb(133, 91, 223)" stroke-opacity="0.39244512" stroke-linecap="round" stroke-linejoin="round"/>
    <path d="M 139.1359100341797 496.8549499511719 C 108.44203186035156 511.45025634765625 133.15187072753906 518.3612670898438 108.05574035644531 517.888427734375 C 57.422550201416016 512.003662109375 68.7503433227539 527.8778076171875 66.51268005371094 465.4058532714844 C 52.17691421508789 425.2083740234375 24.045442581176758 418.2286071777344 65.14203643798828 414.9176025390625 C 161.33311462402344 420.7415466308594 141.4595489501953 434.87060546875 139.1359100341797 496.8549499511719" stroke-width="0.0" fill="rgb(11, 102, 136)" opacity="0.3275454"/>
    <path d="M 605.741943359375 553.50244140625 C 614.0099487304688 575.170654296875 617.9276733398438 596.2567138671875 578.3321533203125 633.3992309570312 C 552.4967651367188 602.2193603515625 554.7698364257812 585.2432861328125 569.890380859375 564.5664672851562 C 586.676025390625 560.8904418945312 592.5418701171875 557.71142578125 601.104736328125 532.5748291015625 C 608.1078491210938 529.586181640625 611.4910278320312 535.3142700195312 605.741943359375 553.50244140625" stroke-width="0.0" fill="rgb(44, 77, 145)" opacity="0.8968082"/>
    <path d="M 20.842851638793945 0.775999903678894 C 18.163358688354492 10.776000022888184 10.842851638793945 18.096506118774414 0.8428519368171692 20.775999069213867 C -9.157148361206055 18.096506118774414 -16.4776554107666 10.776000022888184 -19.157148361206055 0.775999903678894 C -16.4776554107666 -9.223999977111816 -9.157148361206055 -16.54450798034668 0.8428519368171692 -19.224000930786133 C 10.842851638793945 -16.54450798034668 18.163358688354492 -9.223999977111816 20.842851638793945 0.775999903678894" stroke-width="0.0" fill="rgb(180, 38, 146)" opacity="0.8272392" stroke="rgb(187, 238, 236)" stroke-opacity="0.45083937" stroke-linecap="round" stroke-linejoin="round"/>
    <path d="M 647.400634765625 321.07940673828125 C 595.5181884765625 382.18603515625 579.39453125 362.8847351074219 553.3262939453125 349.2677001953125 C 543.5293579101562 339.77728271484375 555.5936889648438 334.0572814941406 565.7313232421875 317.7203063964844 C 564.0855712890625 336.2213439941406 560.9139404296875 320.2316589355469 579.769287109375 304.3580017089844 C 561.7894287109375 307.5462646484375 630.4710693359375 291.2831115722656 647.400634765625 321.07940673828125" stroke-width="0.0" fill="rgb(0, 12, 131)" opacity="0.98829454"/>
    <path d="M 605.015380859375 377.170654296875 C 589.41015625 394.06561279296875 570.6801147460938 382.7525939941406 603.936279296875 387.257568359375 C 562.8478393554688 403.8935546875 618.7940673828125 377.3805236816406 554.7464599609375 384.16131591796875 C 549.5540771484375 379.19549560546875 574.8674926757812 354.10394287109375 613.9126586914062 343.24896240234375 C 625.7575073242188 321.2704162597656 618.1619873046875 335.5483093261719 605.015380859375 377.170654296875" stroke-width="0.0" fill="rgb(12, 32, 127)" opacity="0.99632335"/>
    <path d="M 641.3958129882812 421.1999206542969 C 620.0558471679688 447.37774658203125 596.7969970703125 437.0280456542969 579.8298950195312 441.5734558105469 C 597.4923095703125 477.56634521484375 586.362060546875 466.4808349609375 578.3950805664062 425.47418212890625 C 558.0445556640625 448.58941650390625 564.1986694335938 428.2169494628906 590.334228515625 397.161376953125 C 632.5271606445312 389.6654357910156 636.5748291015625 381.17767333984375 641.3958129882812 421.1999206542969" stroke-width="0.0" fill="rgb(151, 135, 94)" opacity="0.811946"/>
    <path d="M 618.5045776367188 417.162353515625 C 606.2176513671875 464.5440979003906 596.4339599609375 476.86968994140625 566.6937866210938 453.2487487792969 C 564.3372192382812 426.6263732910156 522.3074951171875 432.47955322265625 523.3887939453125 437.2996826171875 C 531.4259033203125 417.9678039550781 555.8672485351562 402.4479064941406 574.1502685546875 429.8111572265625 C 527.9827270507812 417.9450378417969 536.6395263671875 414.8161926269531 618.5045776367188 417.162353515625" stroke-width="0.0" fill="rgb(17, 103, 138)" opacity="0.94278824"/>
    <path d="M 650.1113891601562 436.797607421875 C 611.37109375 475.7864685058594 607.3873901367188 484.5977783203125 640.7808837890625 462.18426513671875 C 630.1216430664062 445.4742431640625 619.0167236328125 448.40692138671875 545.4790649414062 424.6307678222656 C 542.88671875 404.52813720703125 542.0892333984375 396.29742431640625 565.8958740234375 418.1493835449219 C 630.9227905273438 422.9909973144531 647.7814331054688 422.50909423828125 650.1113891601562 436.797607421875" stroke-width="0.0" fill="rgb(6, 108, 129)" opacity="0.46490332"/>
    <path d="M 563.5833740234375 459.1014709472656 C 596.5358276367188 500.90234375 604.85888671875 513.877197265625 553.701171875 534.04150390625 C 539.5528564453125 507.22869873046875 552.6226806640625 457.71405029296875 546.1154174804688 445.7537841796875 C 539.4729614257812 426.74383544921875 544.4390258789062 421.77728271484375 566.1430053710938 439.8830261230469 C 580.53173828125 450.9334716796875 569.9461059570312 427.1105651855469 563.5833740234375 459.1014709472656" stroke-width="0.0" fill="rgb(7, 114, 151)" opacity="0.093535"/>
    <path d="M 604.7883911132812 425.609619140625 C 606.3570556640625 469.4917907714844 600.6659545898438 478.73028564453125 612.098876953125 505.50640869140625 C 589.1918334960938 497.28314208984375 588.89599609375 494.33258056640625 561.686279296875 486.4742431640625 C 549.6155395507812 426.5026550292969 541.5277709960938 401.4585266113281 554.1754760742188 411.48065185546875 C 601.824951171875 392.1857604980469 616.170654296875 403.63800048828125 604.7883911132812 425.609619140625" stroke-width="0.0" fill="rgb(32, 95, 128)" opacity="0.5516131"/>
    <path d="M 20.957212448120117 0.3365945518016815 C 18.277719497680664 10.336594581604004 10.957213401794434 17.657100677490234 0.9572130441665649 20.336593627929688 C -9.042786598205566 17.657100677490234 -16.36329460144043 10.336594581604004 -19.042787551879883 0.3365945518016815 C -16.36329460144043 -9.663405418395996 -9.042786598205566 -16.98391342163086 0.9572130441665649 -19.663406372070312 C 10.957213401794434 -16.98391342163086 18.277719497680664 -9.663405418395996 20.957212448120117 0.3365945518016815" stroke-width="0.0" fill="rgb(47, 53, 94)" opacity="0.8854764" stroke="rgb(94, 117, 190)" stroke-opacity="0.0366832" stroke-linecap="round" stroke-linejoin="round"/>
    <path d="M 608.9904174804688 466.57476806640625 C 607.5916748046875 517.5280151367188 606.5393676757812 515.4940185546875 601.4558715820312 504.768310546875 C 570.7794189453125 503.34466552734375 565.3820190429688 511.111083984375 554.2742919921875 472.9415283203125 C 535.0724487304688 469.8657531738281 543.7470092773438 471.9374084472656 544.326171875 407.8846435546875 C 570.4151611328125 426.5769958496094 602.9703979492188 418.968505859375 608.9904174804688 466.57476806640625" stroke-width="0.0" fill="rgb(5, 102, 122)" opacity="0.5047928"/>
    <path d="M 608.7030029296875 466.2591857910156 C 578.3635864257812 460.25250244140625 569.212158203125 467.4600830078125 593.5972290039062 548.6593017578125 C 614.7874145507812 564.6378173828125 617.8202514648438 516.7030029296875 575.2655639648438 488.7485046386719 C 571.3903198242188 533.7731323242188 595.8828735351562 512.173828125 581.5242309570312 489.1374206542969 C 602.7765502929688 508.02490234375 603.2928466796875 521.70166015625 608.7030029296875 466.2591857910156" stroke-width="0.0" fill="rgb(46, 83, 135)" opacity="0.2953433"/>
    <path d="M 613.5402221679688 521.0980834960938 C 613.6493530273438 526.65380859375 613.0656127929688 531.340087890625 607.3629760742188 534.2920532226562 C 577.7440795898438 556.680908203125 542.3910522460938 569.6187744140625 539.635986328125 554.0083618164062 C 532.3734130859375 439.4749755859375 534.6686401367188 450.5760803222656 595.7091064453125 449.7362976074219 C 624.8294067382812 479.2179260253906 617.9751586914062 501.595458984375 613.5402221679688 521.0980834960938" stroke-width="0.0" fill="rgb(8, 97, 134)" opacity="0.5890814"/>
    <path d="M 20.556949615478516 0.6846142411231995 C 17.877456665039062 10.684614181518555 10.556949615478516 18.0051212310791 0.5569497346878052 20.684614181518555 C -9.443050384521484 18.0051212310791 -16.76355743408203 10.684614181518555 -19.443050384521484 0.6846142411231995 C -16.76355743408203 -9.315385818481445 -9.443050384521484 -16.635892868041992 0.5569497346878052 -19.315385818481445 C 10.556949615478516 -16.635892868041992 17.877456665039062 -9.315385818481445 20.556949615478516 0.6846142411231995" stroke-width="0.0" fill="rgb(149, 129, 155)" opacity="0.9616372" stroke="rgb(237, 144, 177)" stroke-opacity="0.92249936" stroke-linecap="round" stroke-linejoin="round"/>
    <path d="M 620.8906860351562 460.8489990234375 C 609.840087890625 508.1915283203125 601.2734375 501.6214904785156 570.9623413085938 495.548095703125 C 582.8848876953125 499.0832824707031 577.5110473632812 486.79583740234375 567.6181640625 466.8858642578125 C 573.806640625 489.60308837890625 560.0374145507812 478.8995361328125 577.6099243164062 442.09161376953125 C 587.80078125 442.6085510253906 613.603515625 441.0740966796875 620.8906860351562 460.8489990234375" stroke-width="0.0" fill="rgb(11, 100, 124)" opacity="0.17129707"/>
    <path d="M 635.2611694335938 566.7244873046875 C 596.7593383789062 622.5103149414062 584.9979858398438 629.561279296875 542.0668334960938 643.5598754882812 C 497.0210876464844 615.150146484375 492.9258728027344 607.1729736328125 536.0789794921875 644.1131591796875 C 548.90087890625 606.056396484375 554.7593994140625 549.2944946289062 558.0809326171875 568.0231323242188 C 556.8572998046875 547.3798828125 600.6432495117188 537.3636474609375 635.2611694335938 566.7244873046875" stroke-width="0.0" fill="rgb(19, 91, 132)" opacity="0.7769127"/>
    <path d="M 308.8669738769531 499.3349609375 C 300.307373046875 533.1721801757812 320.2009582519531 529.4873657226562 253.53587341308594 534.5940551757812 C 226.51528930664062 510.1129455566406 218.6321258544922 512.5899047851562 235.01040649414062 490.18206787109375 C 250.3977508544922 442.2469177246094 230.25054931640625 410.8796081542969 269.5017395019531 429.8663635253906 C 327.92010498046875 432.462890625 325.63995361328125 451.2749938964844 308.8669738769531 499.3349609375" stroke-width="0.0" fill="rgb(1, 103, 127)" opacity="0.23622009"/>
    <path d="M 366.79144287109375 403.47760009765625 C 159.96359252929688 406.86492919921875 125.72195434570312 384.7400207519531 422.0178527832031 383.4454345703125 C 336.4352722167969 354.26898193359375 258.330078125 370.8326721191406 45.77947998046875 380.6805419921875 C 68.74813842773438 391.84417724609375 183.4996795654297 384.10107421875 233.78842163085938 379.8773498535156 C 191.76614379882812 383.8782043457031 218.26268005371094 377.365478515625 366.79144287109375 403.47760009765625" stroke-width="0.0" fill="rgb(185, 61, 70)" opacity="0.55659604"/>
    <path d="M 405.03271484375 341.3768310546875 C 350.3591003417969 354.18670654296875 352.36126708984375 357.7930603027344 324.3092346191406 339.3123474121094 C 311.8548583984375 349.3221130371094 339.59063720703125 324.8837890625 346.1129455566406 325.28369140625 C 327.21356201171875 323.63934326171875 319.8424987792969 296.67718505859375 326.6863098144531 318.82672119140625 C 369.09344482421875 306.46636962890625 376.1459655761719 315.5785217285156 405.03271484375 341.3768310546875" stroke-width="0.0" fill="rgb(255, 254, 225)" opacity="1.0"/>
    <path d="M 155.7861785888672 372.63458251953125 C 119.73881530761719 369.63116455078125 107.50181579589844 360.42193603515625 128.66563415527344 360.7174377441406 C 118.9491195678711 375.7799987792969 102.72205352783203 368.61083984375 76.64562225341797 337.3267517089844 C 97.12397003173828 338.0832824707031 130.4398956298828 341.7174377441406 143.56356811523438 336.4457092285156 C 140.884033203125 343.9924011230469 160.63687133789062 351.7536315917969 155.7861785888672 372.63458251953125" stroke-width="0.0" fill="rgb(127, 30, 0)" opacity="0.95186704"/>
    <path d="M 225.56248474121094 345.025390625 C 273.9548034667969 406.12860107421875 288.989990234375 396.3775634765625 169.39727783203125 389.3578186035156 C 139.2552490234375 385.6069030761719 162.43826293945312 354.4632263183594 150.697509765625 358.3113098144531 C 147.08485412597656 365.2247009277344 130.65220642089844 317.32421875 148.17320251464844 339.7696533203125 C 163.73863220214844 345.7922058105469 162.70523071289062 348.1165466308594 225.56248474121094 345.025390625" stroke-width="0.0" fill="rgb(149, 107, 28)" opacity="1.0"/>
    <path d="M 162.38392639160156 370.1427307128906 C 146.07327270507812 408.8968200683594 134.57720947265625 400.5418395996094 118.2327651977539 385.6249694824219 C 96.79003143310547 396.0511169433594 105.28640747070312 387.7759094238281 120.4798812866211 364.9181213378906 C 116.62484741210938 401.9334716796875 110.05123901367188 402.3614501953125 109.79180145263672 335.63653564453125 C 150.16976928710938 328.9050598144531 159.57005310058594 328.7037658691406 162.38392639160156 370.1427307128906" stroke-width="0.0" fill="rgb(175, 75, 32)" opacity="0.9887398"/>
    <path d="M 404.515625 324.60418701171875 C 375.178466796875 357.1766052246094 356.2962951660156 355.06341552734375 333.4732360839844 344.9928283691406 C 349.37445068359375 344.6085510253906 342.49700927734375 327.2764892578125 347.0258483886719 311.2744445800781 C 340.8746032714844 261.9176330566406 340.290771484375 291.3280944824219 369.4125061035156 305.1847839355469 C 394.0406494140625 288.9365539550781 419.8884582519531 290.1275939941406 404.515625 324.60418701171875" stroke-width="0.0" fill="rgb(255, 254, 250)" opacity="0.88373053"/>
    <path d="M 228.21958923339844 407.0022888183594 C 164.2403106689453 380.6282653808594 122.86115264892578 386.4635009765625 480.3883972167969 376.9510803222656 C 245.68536376953125 380.3881530761719 144.77915954589844 399.6487731933594 227.4506072998047 381.6516418457031 C 205.95423889160156 402.7030944824219 209.6886444091797 397.05291748046875 212.62799072265625 340.0452880859375 C 229.812744140625 334.9349365234375 224.65602111816406 341.2796630859375 228.21958923339844 407.0022888183594" stroke-width="0.0" fill="rgb(135, 90, 25)" opacity="0.72393405"/>
    <path d="M 116.32311248779297 375.5384216308594 C 126.28845977783203 401.2132263183594 123.46774291992188 390.9764709472656 115.50723266601562 375.6019592285156 C 69.05744934082031 379.0889892578125 47.02259063720703 390.6914978027344 62.4223518371582 373.1648864746094 C 62.68758773803711 318.9074401855469 101.5730209350586 314.8695373535156 123.30107879638672 327.04302978515625 C 98.25122833251953 355.3731994628906 109.11628723144531 345.23834228515625 116.32311248779297 375.5384216308594" stroke-width="0.0" fill="rgb(0, 60, 3)" opacity="0.9640253"/>
    <path d="M 20.648035049438477 0.6091309785842896 C 17.968542098999023 10.609130859375 10.648035049438477 17.929637908935547 0.6480354070663452 20.609130859375 C -9.351964950561523 17.929637908935547 -16.67247200012207 10.609130859375 -19.351964950561523 0.6091309785842896 C -16.67247200012207 -9.390869140625 -9.351964950561523 -16.711376190185547 0.6480354070663452 -19.390869140625 C 10.648035049438477 -16.711376190185547 17.968542098999023 -9.390869140625 20.648035049438477 0.6091309785842896" stroke-width="0.0" fill="rgb(202, 158, 136)" opacity="0.93657917" stroke="rgb(38, 79, 63)" stroke-opacity="0.7439463" stroke-linecap="round" stroke-linejoin="round"/>
    <path d="M 157.43800354003906 365.4105224609375 C 175.2100067138672 363.8382568359375 170.0676727294922 390.2369384765625 173.6511688232422 416.0665588378906 C 97.78492736816406 427.0013732910156 106.8092041015625 416.4322509765625 114.23522186279297 395.0475158691406 C 105.30243682861328 343.9011535644531 114.78899383544922 349.30718994140625 149.43753051757812 341.5447692871094 C 150.93988037109375 345.24334716796875 142.1018524169922 362.2893981933594 157.43800354003906 365.4105224609375" stroke-width="0.0" fill="rgb(123, 88, 21)" opacity="0.4097184"/>
    <path d="M 110.14105224609375 322.2916564941406 C 98.40330505371094 333.71533203125 95.67475128173828 358.0202941894531 69.22515869140625 381.4662170410156 C 81.6906967163086 390.5653991699219 65.75104522705078 379.11065673828125 56.96055221557617 316.31707763671875 C 73.73143005371094 317.2474365234375 75.55574798583984 329.6727294921875 81.70339965820312 350.0941467285156 C 134.26510620117188 343.7327575683594 148.940185546875 349.1763610839844 110.14105224609375 322.2916564941406" stroke-width="0.0" fill="rgb(71, 1, 52)" opacity="0.7417193"/>
    <path d="M 118.51571655273438 343.7983093261719 C 176.33555603027344 320.7062683105469 144.38302612304688 322.5122375488281 56.53155517578125 333.28973388671875 C 78.63774871826172 339.92926025390625 51.0943717956543 309.8081970214844 50.46440124511719 315.2276611328125 C 68.76517486572266 311.6325378417969 62.59038543701172 325.76239013671875 93.15379333496094 292.13922119140625 C 121.98558807373047 250.49061584472656 132.37149047851562 272.9942626953125 118.51571655273438 343.7983093261719" stroke-width="0.0" fill="rgb(9, 0, 0)" opacity="1.0"/>
    <path d="M 20.704572677612305 0.045824382454156876 C 18.02507972717285 10.04582405090332 10.704571723937988 17.366331100463867 0.7045718431472778 20.04582405090332 C -9.295428276062012 17.366331100463867 -16.615934371948242 10.04582405090332 -19.295427322387695 0.045824382454156876 C -16.615934371948242 -9.95417594909668 -9.295428276062012 -17.274682998657227 0.7045718431472778 -19.95417594909668 C 10.704571723937988 -17.274682998657227 18.02507972717285 -9.95417594909668 20.704572677612305 0.045824382454156876" stroke-width="0.0" fill="rgb(129, 61, 29)" opacity="0.78658915" stroke="rgb(148, 39, 122)" stroke-opacity="0.53258944" stroke-linecap="round" stroke-linejoin="round"/>
    <path d="M 152.0042724609375 411.8110046386719 C 135.9536895751953 392.2565002441406 151.6499786376953 400.1833801269531 64.82145690917969 407.7628173828125 C 55.2262077331543 400.09979248046875 73.2872314453125 422.8456115722656 59.60575485229492 331.3808898925781 C 26.67687225341797 325.8629455566406 83.86965942382812 324.3051452636719 134.1690673828125 324.4891052246094 C 148.59487915039062 373.8303527832031 149.63040161132812 383.3511657714844 152.0042724609375 411.8110046386719" stroke-width="0.0" fill="rgb(175, 98, 12)" opacity="0.891166"/>
    <path d="M 20.09274673461914 0.09671637415885925 C 17.413253784179688 10.096715927124023 10.092745780944824 17.41722297668457 0.092745840549469 20.096715927124023 C -9.907254219055176 17.41722297668457 -17.227760314941406 10.096715927124023 -19.90725326538086 0.09671637415885925 C -17.227760314941406 -9.903284072875977 -9.907254219055176 -17.223791122436523 0.092745840549469 -19.903284072875977 C 10.092745780944824 -17.223791122436523 17.413253784179688 -9.903284072875977 20.09274673461914 0.09671637415885925" stroke-width="0.0" fill="rgb(64, 181, 228)" opacity="0.85963404" stroke="rgb(27, 114, 135)" stroke-opacity="0.2424705" stroke-linecap="round" stroke-linejoin="round"/>
    <path d="M 20.892179489135742 0.08693883568048477 C 18.21268653869629 10.086938858032227 10.892179489135742 17.407445907592773 0.892179548740387 20.086938858032227 C -9.107820510864258 17.407445907592773 -16.428327560424805 10.086938858032227 -19.107820510864258 0.08693883568048477 C -16.428327560424805 -9.913061141967773 -9.107820510864258 -17.23356819152832 0.892179548740387 -19.913061141967773 C 10.892179489135742 -17.23356819152832 18.21268653869629 -9.913061141967773 20.892179489135742 0.08693883568048477" stroke-width="0.0" fill="rgb(32, 243, 154)" opacity="0.9015102" stroke="rgb(157, 91, 28)" stroke-opacity="0.6715732" stroke-linecap="round" stroke-linejoin="round"/>
    <path d="M 20.42192268371582 0.02979721873998642 C 17.742429733276367 10.029797554016113 10.421921730041504 17.350303649902344 0.42192181944847107 20.029796600341797 C -9.578078269958496 17.350303649902344 -16.898584365844727 10.029797554016113 -19.57807731628418 0.02979721873998642 C -16.898584365844727 -9.970202445983887 -9.578078269958496 -17.29071044921875 0.42192181944847107 -19.970203399658203 C 10.421921730041504 -17.29071044921875 17.742429733276367 -9.970202445983887 20.42192268371582 0.02979721873998642" stroke-width="0.0" fill="rgb(132, 196, 132)" opacity="0.86557204" stroke="rgb(143, 223, 102)" stroke-opacity="0.13401523" stroke-linecap="round" stroke-linejoin="round"/>
    <path d="M 20.84749412536621 0.6037260293960571 C 18.168001174926758 10.603726387023926 10.847494125366211 17.924232482910156 0.84749436378479 20.60372543334961 C -9.152505874633789 17.924232482910156 -16.473012924194336 10.603726387023926 -19.15250587463379 0.6037260293960571 C -16.473012924194336 -9.396273612976074 -9.152505874633789 -16.716781616210938 0.84749436378479 -19.39627456665039 C 10.847494125366211 -16.716781616210938 18.168001174926758 -9.396273612976074 20.84749412536621 0.6037260293960571" stroke-width="0.0" fill="rgb(68, 96, 5)" opacity="0.7634344" stroke="rgb(83, 30, 227)" stroke-opacity="0.59359246" stroke-linecap="round" stroke-linejoin="round"/>
    <path d="M 20.649885177612305 0.5449414849281311 C 17.97039222717285 10.544941902160645 10.649884223937988 17.865447998046875 0.6498844623565674 20.544940948486328 C -9.350115776062012 17.865447998046875 -16.670621871948242 10.544941902160645 -19.350114822387695 0.5449414849281311 C -16.670621871948242 -9.455058097839355 -9.350115776062012 -16.77556610107422 0.6498844623565674 -19.455059051513672 C 10.649884223937988 -16.77556610107422 17.97039222717285 -9.455058097839355 20.649885177612305 0.5449414849281311" stroke-width="0.0" fill="rgb(242, 37, 236)" opacity="0.77747333" stroke="rgb(117, 249, 125)" stroke-opacity="0.32875162" stroke-linecap="round" stroke-linejoin="round"/>
    <path d="M 555.943603515625 282.39727783203125 C 536.3672485351562 282.5769958496094 520.61669921875 294.9873352050781 490.9604797363281 298.1419677734375 C 531.04443359375 287.34490966796875 546.7454223632812 281.5078125 536.886962890625 294.1134948730469 C 505.587158203125 304.37774658203125 513.6570434570312 274.11212158203125 521.71044921875 235.75804138183594 C 550.0186767578125 254.29246520996094 538.3104858398438 298.99603271484375 555.943603515625 282.39727783203125" stroke-width="0.0" fill="rgb(0, 34, 160)" opacity="0.32621717"/>
    <path d="M 20.2750301361084 0.22321073710918427 C 17.595537185668945 10.223210334777832 10.275029182434082 17.543718338012695 0.27502933144569397 20.22321128845215 C -9.724970817565918 17.543718338012695 -17.04547691345215 10.223210334777832 -19.7249698638916 0.22321073710918427 C -17.04547691345215 -9.776789665222168 -9.724970817565918 -17.0972957611084 0.27502933144569397 -19.77678871154785 C 10.275029182434082 -17.0972957611084 17.595537185668945 -9.776789665222168 20.2750301361084 0.22321073710918427" stroke-width="0.0" fill="rgb(97, 247, 214)" opacity="0.84060794" stroke="rgb(105, 69, 14)" stroke-opacity="0.8647224" stroke-linecap="round" stroke-linejoin="round"/>
    <path d="M -24.330934524536133 402.72869873046875 C 67.07659149169922 380.6928405761719 46.73471450805664 393.48321533203125 124.22105407714844 397.50726318359375 C 107.32144165039062 392.5092468261719 75.15213775634766 391.46734619140625 11.930063247680664 379.4820251464844 C 139.63720703125 370.81878662109375 171.00778198242188 376.338134765625 171.08213806152344 409.27032470703125 C 106.82821655273438 416.7250671386719 53.7034912109375 423.2817077636719 -24.330934524536133 402.72869873046875" stroke-width="0.0" fill="rgb(174, 75, 47)" opacity="0.6621577"/>
    <path d="M 20.079792022705078 0.23279088735580444 C 17.400299072265625 10.23279094696045 10.079792022705078 17.55329704284668 0.07979197800159454 20.232789993286133 C -9.920207977294922 17.55329704284668 -17.24071502685547 10.23279094696045 -19.920207977294922 0.23279088735580444 C -17.24071502685547 -9.76720905303955 -9.920207977294922 -17.087717056274414 0.07979197800159454 -19.767210006713867 C 10.079792022705078 -17.087717056274414 17.400299072265625 -9.76720905303955 20.079792022705078 0.23279088735580444" stroke-width="0.0" fill="rgb(193, 151, 120)" opacity="0.8046605" stroke="rgb(237, 211, 246)" stroke-opacity="0.124297224" stroke-linecap="round" stroke-linejoin="round"/>
    <path d="M 20.98952293395996 0.6399997472763062 C 18.310029983520508 10.639999389648438 10.989522933959961 17.960506439208984 0.9895233511924744 20.639999389648438 C -9.010477066040039 17.960506439208984 -16.330984115600586 10.639999389648438 -19.01047706604004 0.6399997472763062 C -16.330984115600586 -9.360000610351562 -9.010477066040039 -16.68050765991211 0.9895233511924744 -19.360000610351562 C 10.989522933959961 -16.68050765991211 18.310029983520508 -9.360000610351562 20.98952293395996 0.6399997472763062" stroke-width="0.0" fill="rgb(64, 88, 46)" opacity="0.8750175" stroke="rgb(102, 117, 241)" stroke-opacity="0.1533514" stroke-linecap="round" stroke-linejoin="round"/>
    <path d="M 20.53622817993164 0.9731157422065735 C 17.856735229492188 10.973115921020508 10.53622817993164 18.293622970581055 0.5362281203269958 20.973115921020508 C -9.46377182006836 18.293622970581055 -16.784278869628906 10.973115921020508 -19.46377182006836 0.9731157422065735 C -16.784278869628906 -9.026884078979492 -9.46377182006836 -16.34739112854004 0.5362281203269958 -19.026884078979492 C 10.53622817993164 -16.34739112854004 17.856735229492188 -9.026884078979492 20.53622817993164 0.9731157422065735" stroke-width="0.0" fill="rgb(72, 92, 164)" opacity="0.80682904" stroke="rgb(251, 154, 60)" stroke-opacity="0.10178247" stroke-linecap="round" stroke-linejoin="round"/>
    <path d="M 409.33087158203125 380.5364990234375 C 393.4693298339844 372.4555358886719 400.9526062011719 398.3587341308594 382.19952392578125 370.34246826171875 C 399.6959533691406 393.64459228515625 395.3462829589844 395.2195129394531 391.2232971191406 410.7890319824219 C 382.7571716308594 416.956787109375 402.2607421875 414.447509765625 463.7222900390625 393.72503662109375 C 474.94366455078125 368.05889892578125 476.2114562988281 372.5533447265625 409.33087158203125 380.5364990234375" stroke-width="0.0" fill="rgb(140, 100, 26)" opacity="0.38279834"/>
    <path d="M 402.1593933105469 381.94598388671875 C 395.6922302246094 406.4607849121094 382.0711975097656 393.78271484375 451.0960998535156 400.40631103515625 C 457.0633544921875 382.42938232421875 438.33258056640625 377.6532897949219 385.37982177734375 402.1924743652344 C 388.8274841308594 413.9795837402344 407.8024597167969 394.0233154296875 433.62493896484375 387.3456726074219 C 412.9555969238281 422.8990478515625 413.8702697753906 413.19183349609375 402.1593933105469 381.94598388671875" stroke-width="0.0" fill="rgb(222, 70, 85)" opacity="0.2825693"/>
    <path d="M 413.0679626464844 407.75970458984375 C 427.9106140136719 414.38397216796875 441.352783203125 393.6844787597656 417.13507080078125 384.56451416015625 C 388.6273193359375 400.67340087890625 373.823486328125 413.85467529296875 378.3287353515625 398.88006591796875 C 368.1795654296875 413.818359375 397.52587890625 404.6684265136719 361.5149841308594 366.0278625488281 C 350.1766662597656 413.91815185546875 338.8020935058594 406.62017822265625 413.0679626464844 407.75970458984375" stroke-width="0.0" fill="rgb(185, 75, 75)" opacity="0.5264663"/>
    <path d="M 20.3785343170166 0.5520406365394592 C 17.69904136657715 10.552041053771973 10.378534317016602 17.872547149658203 0.37853437662124634 20.552040100097656 C -9.621465682983398 17.872547149658203 -16.941972732543945 10.552041053771973 -19.6214656829834 0.5520406365394592 C -16.941972732543945 -9.447958946228027 -9.621465682983398 -16.76846694946289 0.37853437662124634 -19.447959899902344 C 10.378534317016602 -16.76846694946289 17.69904136657715 -9.447958946228027 20.3785343170166 0.5520406365394592" stroke-width="0.0" fill="rgb(38, 62, 40)" opacity="0.78552854" stroke="rgb(44, 228, 20)" stroke-opacity="0.5245114" stroke-linecap="round" stroke-linejoin="round"/>
    <path d="M 20.220439910888672 0.5892657041549683 C 17.54094696044922 10.589265823364258 10.220440864562988 17.909772872924805 0.22044062614440918 20.589265823364258 C -9.779559135437012 17.909772872924805 -17.100067138671875 10.589265823364258 -19.779560089111328 0.5892657041549683 C -17.100067138671875 -9.410734176635742 -9.779559135437012 -16.73124122619629 0.22044062614440918 -19.410734176635742 C 10.220440864562988 -16.73124122619629 17.54094696044922 -9.410734176635742 20.220439910888672 0.5892657041549683" stroke-width="0.0" fill="rgb(161, 61, 19)" opacity="0.73841375" stroke="rgb(38, 35, 163)" stroke-opacity="0.18188009" stroke-linecap="round" stroke-linejoin="round"/>
    <path d="M 248.7834014892578 366.7130126953125 C 265.49249267578125 417.27239990234375 319.5154724121094 415.184814453125 317.1049499511719 373.89019775390625 C 261.3107604980469 370.919189453125 267.9830322265625 384.2290954589844 261.804931640625 393.1535949707031 C 274.5730285644531 369.2173767089844 300.3734130859375 397.4619140625 496.9278869628906 376.7071533203125 C 273.66253662109375 359.3268127441406 215.1134490966797 379.06024169921875 248.7834014892578 366.7130126953125" stroke-width="0.0" fill="rgb(153, 90, 42)" opacity="0.9081588"/>
    <path d="M 20.829404830932617 0.6185197234153748 C 18.149911880493164 10.61851978302002 10.829404830932617 17.93902587890625 0.8294046521186829 20.618518829345703 C -9.170595169067383 17.93902587890625 -16.49110221862793 10.61851978302002 -19.170595169067383 0.6185197234153748 C -16.49110221862793 -9.38148021697998 -9.170595169067383 -16.701988220214844 0.8294046521186829 -19.381481170654297 C 10.829404830932617 -16.701988220214844 18.149911880493164 -9.38148021697998 20.829404830932617 0.6185197234153748" stroke-width="0.0" fill="rgb(104, 250, 28)" opacity="0.99084115" stroke="rgb(220, 208, 65)" stroke-opacity="0.17088759" stroke-linecap="round" stroke-linejoin="round"/>
    <path d="M 170.55064392089844 386.9816589355469 C 145.20846557617188 400.9121398925781 153.0382843017578 379.6645202636719 152.86756896972656 416.9464111328125 C 92.12159729003906 423.6462707519531 112.03158569335938 421.3652038574219 113.73387908935547 324.9241638183594 C 81.53863525390625 317.7413635253906 107.76334381103516 326.9710998535156 130.57672119140625 321.57275390625 C 129.60568237304688 329.8066711425781 163.18353271484375 337.8676452636719 170.55064392089844 386.9816589355469" stroke-width="0.0" fill="rgb(147, 103, 33)" opacity="0.9733922"/>
    <path d="M 20.171138763427734 0.7291268110275269 C 17.49164581298828 10.729126930236816 10.171138763427734 18.049633026123047 0.17113864421844482 20.7291259765625 C -9.828861236572266 18.049633026123047 -17.149368286132812 10.729126930236816 -19.828861236572266 0.7291268110275269 C -17.149368286132812 -9.270873069763184 -9.828861236572266 -16.591381072998047 0.17113864421844482 -19.2708740234375 C 10.171138763427734 -16.591381072998047 17.49164581298828 -9.270873069763184 20.171138763427734 0.7291268110275269" stroke-width="0.0" fill="rgb(8, 145, 194)" opacity="0.8026245" stroke="rgb(209, 28, 215)" stroke-opacity="0.12748866" stroke-linecap="round" stroke-linejoin="round"/>
    <path d="M 20.370180130004883 0.2095070332288742 C 17.69068717956543 10.20950698852539 10.3701810836792 17.530014038085938 0.37018096446990967 20.20950698852539 C -9.6298189163208 17.530014038085938 -16.950326919555664 10.20950698852539 -19.629819869995117 0.2095070332288742 C -16.950326919555664 -9.79049301147461 -9.6298189163208 -17.111000061035156 0.37018096446990967 -19.79049301147461 C 10.3701810836792 -17.111000061035156 17.69068717956543 -9.79049301147461 20.370180130004883 0.2095070332288742" stroke-width="0.0" fill="rgb(208, 111, 96)" opacity="0.7904134" stroke="rgb(190, 128, 59)" stroke-opacity="0.8995746" stroke-linecap="round" stroke-linejoin="round"/>
    <path d="M 31.01142692565918 427.4370422363281 C 37.9150276184082 421.5386962890625 40.520851135253906 434.34869384765625 21.370746612548828 436.4019470214844 C -24.961254119873047 436.91729736328125 -45.744529724121094 440.606201171875 -18.10462760925293 399.56195068359375 C 13.838801383972168 388.3018798828125 33.68482971191406 379.0338134765625 18.967187881469727 423.47564697265625 C 22.76175880432129 430.1646423339844 37.382511138916016 427.5928039550781 31.01142692565918 427.4370422363281" stroke-width="0.0" fill="rgb(40, 89, 146)" opacity="0.8710086"/>
    <path d="M 20.266977310180664 0.9366545677185059 C 17.58748435974121 10.936655044555664 10.26697826385498 18.25716209411621 0.26697781682014465 20.936655044555664 C -9.73302173614502 18.25716209411621 -17.053529739379883 10.936655044555664 -19.733022689819336 0.9366545677185059 C -17.053529739379883 -9.063344955444336 -9.73302173614502 -16.383852005004883 0.26697781682014465 -19.063344955444336 C 10.26697826385498 -16.383852005004883 17.58748435974121 -9.063344955444336 20.266977310180664 0.9366545677185059" stroke-width="0.0" fill="rgb(97, 138, 231)" opacity="0.7350694" stroke="rgb(239, 160, 85)" stroke-opacity="0.13927208" stroke-linecap="round" stroke-linejoin="round"/>
    <path d="M 20.73647117614746 0.6766994595527649 C 18.056978225708008 10.6766996383667 10.736471176147461 17.99720573425293 0.7364712357521057 20.676698684692383 C -9.263528823852539 17.99720573425293 -16.584035873413086 10.6766996383667 -19.26352882385254 0.6766994595527649 C -16.584035873413086 -9.3233003616333 -9.263528823852539 -16.643808364868164 0.7364712357521057 -19.323301315307617 C 10.736471176147461 -16.643808364868164 18.056978225708008 -9.3233003616333 20.73647117614746 0.6766994595527649" stroke-width="0.0" fill="rgb(207, 254, 254)" opacity="0.93069625" stroke="rgb(240, 216, 63)" stroke-opacity="0.45054415" stroke-linecap="round" stroke-linejoin="round"/>
    <path d="M 20.218637466430664 0.5053552985191345 C 17.53914451599121 10.505354881286621 10.21863842010498 17.825862884521484 0.21863797307014465 20.505355834960938 C -9.78136157989502 17.825862884521484 -17.101869583129883 10.505354881286621 -19.781362533569336 0.5053552985191345 C -17.101869583129883 -9.494645118713379 -9.78136157989502 -16.81515121459961 0.21863797307014465 -19.494644165039062 C 10.21863842010498 -16.81515121459961 17.53914451599121 -9.494645118713379 20.218637466430664 0.5053552985191345" stroke-width="0.0" fill="rgb(7, 192, 158)" opacity="0.76388925" stroke="rgb(34, 3, 89)" stroke-opacity="0.58991766" stroke-linecap="round" stroke-linejoin="round"/>
    <path d="M 20.80712890625 0.7297317981719971 C 18.127635955810547 10.729731559753418 10.807127952575684 18.05023956298828 0.8071282505989075 20.729732513427734 C -9.192872047424316 18.05023956298828 -16.513378143310547 10.729731559753418 -19.19287109375 0.7297317981719971 C -16.513378143310547 -9.270268440246582 -9.192872047424316 -16.590774536132812 0.8071282505989075 -19.270267486572266 C 10.807127952575684 -16.590774536132812 18.127635955810547 -9.270268440246582 20.80712890625 0.7297317981719971" stroke-width="0.0" fill="rgb(173, 201, 127)" opacity="0.86113197" stroke="rgb(149, 190, 110)" stroke-opacity="0.1275803" stroke-linecap="round" stroke-linejoin="round"/>
    <path d="M 236.79896545410156 346.454345703125 C 233.59902954101562 322.7515563964844 216.38633728027344 339.5343933105469 179.5470428466797 316.687255859375 C 177.47283935546875 347.68255615234375 178.454833984375 349.17181396484375 165.04953002929688 344.54400634765625 C 167.53561401367188 343.9665222167969 182.79295349121094 344.5554504394531 188.18746948242188 345.39892578125 C 223.7596893310547 350.5306091308594 261.44793701171875 386.60345458984375 236.79896545410156 346.454345703125" stroke-width="0.0" fill="rgb(0, 0, 8)" opacity="1.0"/>
    <path d="M 504.85235595703125 370.0746154785156 C 460.2312927246094 370.024658203125 458.942138671875 406.3104553222656 491.76055908203125 370.2987365722656 C 511.3468322753906 361.55316162109375 488.3425598144531 360.2745361328125 385.61669921875 374.97552490234375 C 441.3757019042969 408.1261291503906 485.11236572265625 397.8502197265625 449.2522277832031 388.79290771484375 C 451.0893249511719 404.11285400390625 496.85906982421875 410.45001220703125 504.85235595703125 370.0746154785156" stroke-width="0.0" fill="rgb(140, 82, 18)" opacity="1.0"/>
    <path d="M 20.026535034179688 0.19883765280246735 C 17.347042083740234 10.198837280273438 10.026535987854004 17.519344329833984 0.026535969227552414 20.198837280273438 C -9.973464012145996 17.519344329833984 -17.29397201538086 10.198837280273438 -19.973464965820312 0.19883765280246735 C -17.29397201538086 -9.801162719726562 -9.973464012145996 -17.12166976928711 0.026535969227552414 -19.801162719726562 C 10.026535987854004 -17.12166976928711 17.347042083740234 -9.801162719726562 20.026535034179688 0.19883765280246735" stroke-width="0.0" fill="rgb(100, 111, 230)" opacity="0.85419685" stroke="rgb(199, 101, 158)" stroke-opacity="0.8623637" stroke-linecap="round" stroke-linejoin="round"/>
    <path d="M 20.809431076049805 0.006498759612441063 C 18.12993812561035 10.006498336791992 10.809430122375488 17.32700538635254 0.8094304800033569 20.006498336791992 C -9.190569877624512 17.32700538635254 -16.511075973510742 10.006498336791992 -19.190568923950195 0.006498759612441063 C -16.511075973510742 -9.993501663208008 -9.190569877624512 -17.314008712768555 0.8094304800033569 -19.993501663208008 C 10.809430122375488 -17.314008712768555 18.12993812561035 -9.993501663208008 20.809431076049805 0.006498759612441063" stroke-width="0.0" fill="rgb(88, 228, 120)" opacity="0.751696" stroke="rgb(49, 10, 43)" stroke-opacity="0.27859035" stroke-linecap="round" stroke-linejoin="round"/>
    <path d="M 154.38999938964844 139.88510131835938 C 162.23655700683594 147.68470764160156 170.87014770507812 156.6984405517578 168.2877960205078 237.67098999023438 C 101.95447540283203 207.72047424316406 88.77515411376953 223.43798828125 89.1109390258789 209.27464294433594 C 100.23228454589844 160.82635498046875 116.74137878417969 192.46368408203125 114.64979553222656 182.86009216308594 C 179.47935485839844 177.94479370117188 159.83892822265625 194.03944396972656 154.38999938964844 139.88510131835938" stroke-width="0.0" fill="rgb(0, 41, 139)" opacity="1.0"/>
    <path d="M 563.6029052734375 385.6082763671875 C 533.576416015625 388.07012939453125 503.9839782714844 368.29071044921875 533.9546508789062 372.40484619140625 C 592.80908203125 370.5065612792969 599.9100952148438 392.00042724609375 585.7562255859375 395.8564758300781 C 510.064453125 399.05560302734375 503.170654296875 387.7684326171875 568.0118408203125 394.25115966796875 C 607.32275390625 394.3587951660156 580.6763916015625 386.6556091308594 563.6029052734375 385.6082763671875" stroke-width="0.0" fill="rgb(141, 55, 47)" opacity="0.9152646"/>
    <path d="M 20.22789764404297 0.289387971162796 C 17.548404693603516 10.289387702941895 10.227898597717285 17.609895706176758 0.2278982698917389 20.28938865661621 C -9.772101402282715 17.609895706176758 -17.092609405517578 10.289387702941895 -19.77210235595703 0.289387971162796 C -17.092609405517578 -9.710612297058105 -9.772101402282715 -17.031118392944336 0.2278982698917389 -19.71061134338379 C 10.227898597717285 -17.031118392944336 17.548404693603516 -9.710612297058105 20.22789764404297 0.289387971162796" stroke-width="0.0" fill="rgb(13, 85, 34)" opacity="0.99698806" stroke="rgb(82, 206, 64)" stroke-opacity="0.6815027" stroke-linecap="round" stroke-linejoin="round"/>
  </g>
</svg>
