<?xml version="1.0" ?>
<svg xmlns="http://www.w3.org/2000/svg" version="1.1" width="600" height="600">
  <defs/>
  <g>
    <path d="M 372.5224304199219 454.6579895019531 C 360.6854248046875 490.3829040527344 343.95904541015625 475.7676696777344 308.1377258300781 501.2194519042969 C 262.915771484375 491.2580261230469 242.931396484375 497.2077331542969 250.5270233154297 445.8970642089844 C 292.5039367675781 440.67120361328125 301.5830993652344 447.73883056640625 316.41192626953125 400.2945861816406 C 334.031005859375 407.587158203125 339.2328796386719 424.4217834472656 372.5224304199219 454.6579895019531" stroke-width="0.0" fill="rgb(131, 43, 82)" opacity="0.8487899"/>
    <path d="M 277.5995788574219 452.6478576660156 C 307.5463562011719 434.78228759765625 304.2794189453125 448.0810241699219 266.3232421875 477.2027587890625 C 240.0376434326172 469.7857971191406 259.59515380859375 421.7590637207031 249.86814880371094 380.5775146484375 C 198.33126831054688 404.643798828125 191.32420349121094 337.4132385253906 218.0360107421875 350.41485595703125 C 299.468017578125 351.40631103515625 278.65740966796875 385.2001037597656 277.5995788574219 452.6478576660156" stroke-width="0.0" fill="rgb(0, 97, 34)" opacity="0.6304597"/>
    <path d="M 467.1368103027344 387.65771484375 C 414.9222412109375 462.4333190917969 397.84796142578125 468.5825500488281 373.2796325683594 486.1933898925781 C 292.1949157714844 470.2247619628906 303.335205078125 473.7521667480469 342.3121337890625 488.5027160644531 C 350.7780456542969 432.343017578125 338.8651123046875 381.94732666015625 397.620849609375 324.3108825683594 C 452.9434509277344 303.1703186035156 463.4142150878906 308.271484375 467.1368103027344 387.65771484375" stroke-width="0.0" fill="rgb(97, 103, 0)" opacity="0.94149184"/>
    <path d="M 654.65576171875 464.9311218261719 C 537.5069580078125 502.0775451660156 477.8575744628906 494.68634033203125 429.9411315917969 391.7506408691406 C 381.100830078125 390.9851989746094 363.33819580078125 400.0538330078125 318.5257568359375 250.1228485107422 C 331.3481750488281 140.7605743408203 390.4059143066406 104.18844604492188 595.8926391601562 -9.430034637451172 C 670.5343627929688 125.76953125 675.0650024414062 145.38316345214844 654.65576171875 464.9311218261719" stroke-width="0.0" fill="rgb(32, 242, 255)" opacity="0.98639494"/>
    <path d="M 642.1133422851562 449.12725830078125 C 627.4395751953125 628.4208374023438 605.4940185546875 630.3829956054688 459.6036071777344 661.3990478515625 C 371.3993225097656 604.8876342773438 392.8628234863281 527.46142578125 403.8695373535156 448.6722412109375 C 390.56719970703125 337.2395324707031 384.8179016113281 341.53424072265625 428.363037109375 330.0876770019531 C 478.6623840332031 323.82904052734375 524.2496948242188 310.2140808105469 642.1133422851562 449.12725830078125" stroke-width="0.0" fill="rgb(35, 122, 172)" opacity="1.0"/>
    <path d="M 265.84332275390625 389.91278076171875 C 292.3343200683594 464.0141296386719 275.7688903808594 477.65643310546875 261.8995666503906 384.49169921875 C 271.1946105957031 392.72320556640625 272.2048645019531 424.93463134765625 251.39013671875 377.6967468261719 C 240.89720153808594 331.3173522949219 243.50367736816406 318.17083740234375 313.4393615722656 348.39306640625 C 370.1861267089844 357.27984619140625 379.3590087890625 402.7008361816406 265.84332275390625 389.91278076171875" stroke-width="0.0" fill="rgb(47, 91, 121)" opacity="0.9040039"/>
    <path d="M 308.0752868652344 436.27545166015625 C 290.57147216796875 455.103515625 271.4168701171875 449.0187072753906 232.71849060058594 463.6419677734375 C 226.35379028320312 479.0299072265625 219.9348907470703 476.7511901855469 213.26406860351562 436.0740051269531 C 227.5816650390625 368.886962890625 229.19830322265625 377.056396484375 264.11199951171875 386.6478576660156 C 302.4259948730469 386.9195556640625 327.8609313964844 376.279296875 308.0752868652344 436.27545166015625" stroke-width="0.0" fill="rgb(145, 125, 0)" opacity="0.81309277"/>
    <path d="M 351.96807861328125 426.4630126953125 C 357.50469970703125 442.70269775390625 333.7661437988281 450.77996826171875 264.50311279296875 453.86419677734375 C 258.0517272949219 448.0719909667969 263.8586730957031 429.0777893066406 282.1409912109375 436.01373291015625 C 304.70635986328125 423.4684143066406 301.49835205078125 396.5663146972656 297.9588623046875 415.4314880371094 C 283.8218688964844 441.61712646484375 297.6685485839844 423.0748596191406 351.96807861328125 426.4630126953125" stroke-width="0.0" fill="rgb(88, 125, 14)" opacity="0.44857925"/>
    <path d="M 270.47784423828125 371.4135437011719 C 210.13360595703125 408.2702331542969 225.6792449951172 436.4761657714844 114.39804077148438 432.1391296386719 C -7.030989646911621 476.52825927734375 -33.20153045654297 506.0760498046875 -51.582767486572266 285.5467529296875 C 7.845629692077637 201.28038024902344 38.40802764892578 234.51824951171875 134.8394775390625 315.6624450683594 C 258.971435546875 318.9409484863281 270.6772766113281 322.1121520996094 270.47784423828125 371.4135437011719" stroke-width="0.0" fill="rgb(170, 37, 255)" opacity="0.75939417"/>
    <path d="M 309.09246826171875 421.6324768066406 C 318.1742858886719 500.30975341796875 368.5146484375 566.4151611328125 298.3956604003906 702.2470092773438 C 10.76755428314209 663.885986328125 -22.269376754760742 665.5330200195312 -16.005369186401367 466.54443359375 C 152.09564208984375 351.9703369140625 169.50965881347656 343.51123046875 194.55374145507812 372.2608947753906 C 279.5829162597656 402.758056640625 295.1155090332031 410.2742919921875 309.09246826171875 421.6324768066406" stroke-width="0.0" fill="rgb(21, 228, 255)" opacity="1.0"/>
    <path d="M 409.13775634765625 518.6389770507812 C 473.1222839355469 570.068603515625 495.3025207519531 632.655517578125 276.51611328125 687.9561157226562 C 171.79180908203125 598.8600463867188 219.39459228515625 484.7339172363281 265.67913818359375 458.543701171875 C 329.6073913574219 452.8045654296875 330.9265441894531 428.8695373535156 329.08172607421875 475.4087219238281 C 336.7923889160156 453.8153381347656 355.8577575683594 443.4960632324219 409.13775634765625 518.6389770507812" stroke-width="0.0" fill="rgb(37, 224, 252)" opacity="0.99769247"/>
    <path d="M 273.816650390625 440.8761291503906 C 286.0263977050781 549.9723510742188 293.13885498046875 530.1378784179688 169.36764526367188 491.4715270996094 C 58.25652313232422 447.7117919921875 9.932625770568848 463.93646240234375 116.71372985839844 430.5496826171875 C 157.638916015625 415.8164978027344 146.51687622070312 414.764892578125 147.96653747558594 339.4320983886719 C 206.36956787109375 350.6923828125 237.4808349609375 336.4705810546875 273.816650390625 440.8761291503906" stroke-width="0.0" fill="rgb(246, 158, 126)" opacity="0.7653739"/>
    <path d="M 570.5115966796875 106.47514343261719 C 403.861083984375 380.8204345703125 376.2481384277344 362.282470703125 275.073486328125 340.82574462890625 C 208.897216796875 356.3505554199219 108.12959289550781 422.0624084472656 -15.395907402038574 141.75950622558594 C -24.48038101196289 -9.187200546264648 -11.943994522094727 -52.38034439086914 246.95811462402344 -22.58169937133789 C 552.7667846679688 -0.34391462802886963 566.468994140625 19.67230796813965 570.5115966796875 106.47514343261719" stroke-width="0.0" fill="rgb(116, 113, 82)" opacity="0.6350422"/>
    <path d="M 329.5006408691406 452.619384765625 C 368.79583740234375 511.1661071777344 350.10211181640625 503.0461730957031 242.0269775390625 521.8298950195312 C 239.08132934570312 510.6261291503906 221.637451171875 494.0315246582031 156.5877685546875 487.129638671875 C 252.98536682128906 450.7798156738281 263.3864440917969 444.12518310546875 239.01380920410156 444.6481018066406 C 268.70867919921875 447.4788513183594 312.07440185546875 438.29132080078125 329.5006408691406 452.619384765625" stroke-width="0.0" fill="rgb(208, 164, 162)" opacity="0.8202519"/>
    <path d="M 414.5855407714844 410.104248046875 C 348.3188171386719 405.0699462890625 363.9209289550781 441.2746887207031 337.6893310546875 473.8036804199219 C 301.1870422363281 443.8800964355469 288.7608947753906 413.9123840332031 306.26275634765625 346.4284362792969 C 325.13543701171875 320.056396484375 279.59173583984375 299.6322937011719 420.42413330078125 285.1952819824219 C 483.54901123046875 337.6279296875 492.7779541015625 413.08734130859375 414.5855407714844 410.104248046875" stroke-width="0.0" fill="rgb(116, 91, 66)" opacity="0.9871586"/>
    <path d="M 191.76187133789062 396.7352600097656 C 192.37326049804688 433.10833740234375 172.54989624023438 430.0567321777344 175.947998046875 434.224609375 C 138.88320922851562 415.9168701171875 145.42562866210938 415.0281677246094 148.33766174316406 344.1043395996094 C 97.24374389648438 341.5010070800781 81.0184326171875 292.0130310058594 127.3861083984375 301.2685546875 C 188.02035522460938 331.4704895019531 150.79283142089844 386.6722717285156 191.76187133789062 396.7352600097656" stroke-width="0.0" fill="rgb(169, 160, 0)" opacity="1.0"/>
    <path d="M 509.2757873535156 344.26702880859375 C 484.58636474609375 335.1949462890625 538.662109375 331.5152587890625 475.2497253417969 361.2733459472656 C 507.037109375 384.1656188964844 409.26519775390625 336.1742248535156 326.1355895996094 293.1825256347656 C 379.71734619140625 260.06317138671875 445.47747802734375 234.4122314453125 444.35333251953125 305.28594970703125 C 503.5867004394531 323.1618957519531 528.0746459960938 316.3377685546875 509.2757873535156 344.26702880859375" stroke-width="0.0" fill="rgb(69, 48, 67)" opacity="1.0"/>
    <path d="M 529.43310546875 434.53375244140625 C 463.9537353515625 456.39459228515625 417.2250061035156 489.626953125 422.87396240234375 470.7748718261719 C 366.55419921875 502.36383056640625 369.1814270019531 436.4021911621094 410.6197814941406 472.8768005371094 C 410.7470397949219 446.727294921875 412.58123779296875 413.2252197265625 437.851318359375 364.4237060546875 C 441.6084899902344 385.9088134765625 454.6542053222656 388.57684326171875 529.43310546875 434.53375244140625" stroke-width="0.0" fill="rgb(16, 19, 69)" opacity="0.5342547"/>
    <path d="M 20.111902236938477 0.9884179830551147 C 17.432409286499023 10.988417625427246 10.111902236938477 18.30892562866211 0.11190222948789597 20.988418579101562 C -9.888097763061523 18.30892562866211 -17.20860481262207 10.988417625427246 -19.888097763061523 0.9884179830551147 C -17.20860481262207 -9.011582374572754 -9.888097763061523 -16.332088470458984 0.11190222948789597 -19.011581420898438 C 10.111902236938477 -16.332088470458984 17.432409286499023 -9.011582374572754 20.111902236938477 0.9884179830551147" stroke-width="0.0" fill="rgb(48, 0, 136)" opacity="0.8258211" stroke="rgb(11, 217, 123)" stroke-opacity="0.5380085" stroke-linecap="round" stroke-linejoin="round"/>
    <path d="M 440.37066650390625 313.7369689941406 C 355.6437683105469 324.8691101074219 330.8990783691406 384.2142333984375 334.9000549316406 338.39825439453125 C 347.1396789550781 314.7532958984375 364.0950622558594 299.5265808105469 222.8400421142578 260.9971923828125 C 160.95278930664062 222.26861572265625 246.33900451660156 196.97373962402344 330.3843078613281 -54.74288558959961 C 413.97332763671875 386.2463073730469 441.7503662109375 182.30955505371094 440.37066650390625 313.7369689941406" stroke-width="0.0" fill="rgb(69, 56, 48)" opacity="0.93967503"/>
    <path d="M 216.69537353515625 395.366455078125 C 206.83404541015625 446.4670104980469 218.54722595214844 449.9077453613281 189.24496459960938 456.8898620605469 C 164.41395568847656 447.6424865722656 160.14918518066406 443.75030517578125 175.9536895751953 419.7220458984375 C 200.76651000976562 420.46124267578125 177.24075317382812 392.38916015625 166.8848876953125 400.7988586425781 C 160.74070739746094 417.40374755859375 204.125 384.5379943847656 216.69537353515625 395.366455078125" stroke-width="0.0" fill="rgb(74, 78, 112)" opacity="0.7345205"/>
    <path d="M 20.306955337524414 0.03231952711939812 C 17.62746238708496 10.032319068908691 10.306955337524414 17.352827072143555 0.3069553077220917 20.032320022583008 C -9.693044662475586 17.352827072143555 -17.013551712036133 10.032319068908691 -19.693044662475586 0.03231952711939812 C -17.013551712036133 -9.967680931091309 -9.693044662475586 -17.28818702697754 0.3069553077220917 -19.967679977416992 C 10.306955337524414 -17.28818702697754 17.62746238708496 -9.967680931091309 20.306955337524414 0.03231952711939812" stroke-width="0.0" fill="rgb(58, 57, 102)" opacity="0.98371726" stroke="rgb(131, 138, 214)" stroke-opacity="0.6607085" stroke-linecap="round" stroke-linejoin="round"/>
    <path d="M 20.169836044311523 0.5115798115730286 C 17.49034309387207 10.511579513549805 10.16983699798584 17.83208656311035 0.16983681917190552 20.511579513549805 C -9.83016300201416 17.83208656311035 -17.150671005249023 10.511579513549805 -19.830163955688477 0.5115798115730286 C -17.150671005249023 -9.488420486450195 -9.83016300201416 -16.808927536010742 0.16983681917190552 -19.488420486450195 C 10.16983699798584 -16.808927536010742 17.49034309387207 -9.488420486450195 20.169836044311523 0.5115798115730286" stroke-width="0.0" fill="rgb(58, 129, 88)" opacity="0.84957165" stroke="rgb(119, 41, 98)" stroke-opacity="0.47606474" stroke-linecap="round" stroke-linejoin="round"/>
    <path d="M 472.4344177246094 419.1299133300781 C 486.0770568847656 458.8621520996094 471.92626953125 468.6604919433594 417.989013671875 488.1800842285156 C 401.0116271972656 444.743408203125 373.0618591308594 454.2940979003906 348.2969665527344 411.07818603515625 C 350.8272399902344 324.636962890625 371.0392150878906 310.0311584472656 436.3470458984375 338.9163818359375 C 471.6217041015625 358.1253967285156 488.7042541503906 362.2367858886719 472.4344177246094 419.1299133300781" stroke-width="0.0" fill="rgb(147, 48, 0)" opacity="0.46164125"/>
    <path d="M 425.2568664550781 503.1131896972656 C 378.84149169921875 535.5918579101562 402.2939758300781 522.1437377929688 353.5628967285156 511.6346435546875 C 316.3598327636719 527.6085205078125 318.5562438964844 514.3671875 315.3699035644531 461.1341552734375 C 333.9917297363281 449.10601806640625 334.5290222167969 499.6254577636719 306.948974609375 460.3594970703125 C 357.4650573730469 457.9938659667969 425.5234375 445.9322814941406 425.2568664550781 503.1131896972656" stroke-width="0.0" fill="rgb(106, 92, 97)" opacity="0.99720937"/>
    <path d="M 284.3578186035156 394.88055419921875 C 276.9413757324219 475.9104919433594 266.3581237792969 467.3214416503906 244.98460388183594 476.1495666503906 C 226.28953552246094 403.75689697265625 194.96180725097656 396.9298095703125 173.96932983398438 380.0060729980469 C 122.2797622680664 324.9033203125 137.96707153320312 332.4205627441406 212.6799774169922 349.3333435058594 C 246.58436584472656 367.6928405761719 272.2091064453125 364.1223449707031 284.3578186035156 394.88055419921875" stroke-width="0.0" fill="rgb(147, 94, 0)" opacity="0.90502036"/>
    <path d="M 20.297685623168945 0.7972882390022278 C 17.618192672729492 10.797287940979004 10.297686576843262 18.117795944213867 0.29768630862236023 20.79728889465332 C -9.702313423156738 18.117795944213867 -17.0228214263916 10.797287940979004 -19.702314376831055 0.7972882390022278 C -17.0228214263916 -9.202712059020996 -9.702313423156738 -16.523218154907227 0.29768630862236023 -19.20271110534668 C 10.297686576843262 -16.523218154907227 17.618192672729492 -9.202712059020996 20.297685623168945 0.7972882390022278" stroke-width="0.0" fill="rgb(226, 56, 124)" opacity="0.9401343" stroke="rgb(37, 78, 140)" stroke-opacity="0.0767136" stroke-linecap="round" stroke-linejoin="round"/>
    <path d="M 437.81634521484375 418.47076416015625 C 539.21484375 407.9317626953125 604.7977905273438 437.4021301269531 477.97991943359375 460.4878845214844 C 404.2706604003906 450.67291259765625 418.2645263671875 432.3565673828125 429.3122863769531 390.3871765136719 C 424.71759033203125 374.1640319824219 430.1640930175781 378.3604431152344 453.35357666015625 359.1451416015625 C 437.66064453125 326.79595947265625 412.9310302734375 348.6782531738281 437.81634521484375 418.47076416015625" stroke-width="0.0" fill="rgb(106, 56, 62)" opacity="0.78528726"/>
    <path d="M 20.073606491088867 0.05721104517579079 C 17.394113540649414 10.057210922241211 10.073606491088867 17.377717971801758 0.07360623776912689 20.05721092224121 C -9.926393508911133 17.377717971801758 -17.24690055847168 10.057210922241211 -19.926393508911133 0.05721104517579079 C -17.24690055847168 -9.942789077758789 -9.926393508911133 -17.263296127319336 0.07360623776912689 -19.94278907775879 C 10.073606491088867 -17.263296127319336 17.394113540649414 -9.942789077758789 20.073606491088867 0.05721104517579079" stroke-width="0.0" fill="rgb(244, 112, 1)" opacity="0.73526615" stroke="rgb(67, 168, 56)" stroke-opacity="0.75385034" stroke-linecap="round" stroke-linejoin="round"/>
    <path d="M 347.50396728515625 385.7816467285156 C 301.40301513671875 402.08843994140625 303.0863342285156 422.8563232421875 290.2693176269531 403.70513916015625 C 274.1819763183594 409.2950134277344 253.34609985351562 409.8861999511719 234.94036865234375 350.75103759765625 C 292.3581848144531 351.139404296875 279.0565185546875 360.3462219238281 274.3179016113281 344.3926696777344 C 320.8790283203125 348.2480773925781 328.1336975097656 355.0238952636719 347.50396728515625 385.7816467285156" stroke-width="0.0" fill="rgb(134, 81, 79)" opacity="0.67865497"/>
    <path d="M 282.0700988769531 398.4936828613281 C 282.01324462890625 370.3999938964844 310.685791015625 405.2118835449219 268.1532287597656 452.6723937988281 C 276.6636657714844 366.3775939941406 314.4929504394531 356.87127685546875 260.41082763671875 369.890625 C 266.5372619628906 330.406005859375 327.6891784667969 348.82220458984375 307.3764343261719 389.50408935546875 C 291.62298583984375 395.8593444824219 266.05731201171875 386.3006591796875 282.0700988769531 398.4936828613281" stroke-width="0.0" fill="rgb(104, 112, 71)" opacity="0.4193301"/>
    <path d="M 372.1531066894531 376.9162902832031 C 281.1033935546875 351.08978271484375 317.7103576660156 332.20513916015625 317.28863525390625 490.5538024902344 C 251.42294311523438 491.7833251953125 260.36444091796875 381.44952392578125 258.63348388671875 400.4640808105469 C 273.8806457519531 408.81597900390625 285.54705810546875 400.4830322265625 279.8857727050781 389.8627014160156 C 290.27044677734375 412.7181701660156 315.2861328125 412.29266357421875 372.1531066894531 376.9162902832031" stroke-width="0.0" fill="rgb(97, 106, 51)" opacity="0.33262452"/>
    <path d="M 208.9620819091797 100.8734359741211 C 197.828369140625 178.90032958984375 210.03822326660156 217.5019989013672 126.99579620361328 287.0844421386719 C 35.714508056640625 263.883056640625 49.21882629394531 237.93035888671875 37.3558349609375 125.85659790039062 C 71.4269790649414 78.27252960205078 93.68529510498047 70.41043853759766 134.2257537841797 3.8062522411346436 C 224.93414306640625 24.270620346069336 209.54080200195312 62.74071502685547 208.9620819091797 100.8734359741211" stroke-width="0.0" fill="rgb(222, 80, 249)" opacity="0.8722838"/>
    <path d="M 409.4022216796875 11.270289421081543 C 403.88116455078125 108.0726547241211 414.25433349609375 178.9770050048828 314.59893798828125 129.9094696044922 C 295.3487548828125 56.95169448852539 303.9061584472656 38.15762710571289 264.9205322265625 19.760242462158203 C 274.4054870605469 -26.133285522460938 282.95758056640625 -34.281314849853516 335.8013916015625 -38.90282440185547 C 394.6508483886719 -21.968027114868164 414.46160888671875 -21.823204040527344 409.4022216796875 11.270289421081543" stroke-width="0.0" fill="rgb(205, 93, 253)" opacity="0.99835294"/>
    <path d="M 658.0390014648438 129.7907257080078 C 601.7962646484375 230.82421875 573.3033447265625 220.2470245361328 496.5580139160156 215.74168395996094 C 405.9383850097656 199.53294372558594 396.11834716796875 195.42881774902344 361.28607177734375 137.73880004882812 C 403.4998474121094 73.36640930175781 412.9100646972656 60.38728332519531 557.3685302734375 -15.512297630310059 C 609.8250732421875 -18.84652328491211 620.8194580078125 0.5280106067657471 658.0390014648438 129.7907257080078" stroke-width="0.0" fill="rgb(202, 103, 255)" opacity="0.9889403"/>
    <path d="M 284.20330810546875 171.54246520996094 C 267.9452819824219 220.77951049804688 291.8703308105469 194.41551208496094 199.77154541015625 243.8500518798828 C 170.6070098876953 192.03916931152344 152.913330078125 197.73422241210938 165.64439392089844 175.69488525390625 C 167.4027099609375 150.5584716796875 172.47203063964844 138.66049194335938 203.01971435546875 50.50180435180664 C 268.8941955566406 45.78492736816406 267.8001403808594 83.23982238769531 284.20330810546875 171.54246520996094" stroke-width="0.0" fill="rgb(197, 102, 243)" opacity="0.99925363"/>
    <path d="M 535.2681274414062 39.913963317871094 C 498.457275390625 153.4462127685547 517.9922485351562 193.6522674560547 384.7975769042969 210.35214233398438 C 341.12249755859375 189.0027618408203 348.69732666015625 144.48854064941406 364.21917724609375 88.8668212890625 C 380.63641357421875 29.728713989257812 373.50775146484375 4.8571457862854 430.1615295410156 -14.826766014099121 C 508.16241455078125 -43.080814361572266 534.4019165039062 -41.43486404418945 535.2681274414062 39.913963317871094" stroke-width="0.0" fill="rgb(206, 92, 255)" opacity="0.9879618"/>
    <path d="M 111.56172180175781 57.25717544555664 C 95.93444061279297 86.80174255371094 75.51544952392578 105.82112884521484 73.23019409179688 108.41806030273438 C 39.74806594848633 111.15239715576172 46.96132278442383 111.25125885009766 -15.361526489257812 106.73412322998047 C -30.102407455444336 49.579444885253906 -39.10428237915039 32.24604797363281 76.72212982177734 -60.123374938964844 C 129.72561645507812 -2.978881597518921 117.31987762451172 25.03693962097168 111.56172180175781 57.25717544555664" stroke-width="0.0" fill="rgb(248, 85, 203)" opacity="1.0"/>
    <path d="M 509.84588623046875 235.3533172607422 C 487.5414123535156 270.09893798828125 475.83453369140625 299.3450012207031 422.18389892578125 281.5046691894531 C 446.62152099609375 240.70225524902344 343.4336242675781 244.75743103027344 370.7054138183594 246.2386932373047 C 434.6909484863281 195.34645080566406 325.47821044921875 232.9768524169922 352.87005615234375 159.09519958496094 C 488.73175048828125 128.7276153564453 503.5184326171875 184.6111602783203 509.84588623046875 235.3533172607422" stroke-width="0.0" fill="rgb(188, 87, 255)" opacity="0.9890018"/>
    <path d="M 227.06695556640625 21.12094497680664 C 200.3782196044922 68.01226043701172 200.8666229248047 76.22929382324219 132.0500946044922 80.61128997802734 C 83.6292953491211 97.35509490966797 77.35895538330078 86.23016357421875 81.01448059082031 -8.400991439819336 C 84.63090515136719 -16.064023971557617 105.81161499023438 -16.51352310180664 151.86940002441406 -26.27617835998535 C 184.03953552246094 -30.871177673339844 214.68896484375 -41.97947692871094 227.06695556640625 21.12094497680664" stroke-width="0.0" fill="rgb(233, 85, 220)" opacity="0.90158904"/>
    <path d="M 103.67565155029297 78.96348571777344 C 78.82929992675781 134.7228546142578 82.5239028930664 154.03541564941406 55.97455596923828 148.6266326904297 C 35.313316345214844 121.1158676147461 7.724727630615234 131.94503784179688 -44.88412857055664 128.85682678222656 C -21.190587997436523 76.05826568603516 -29.55292320251465 47.59892272949219 27.493114471435547 -39.419620513916016 C 83.54426574707031 27.842510223388672 97.44347381591797 42.49234390258789 103.67565155029297 78.96348571777344" stroke-width="0.0" fill="rgb(237, 84, 222)" opacity="0.8334555"/>
    <path d="M 279.7748718261719 85.4068603515625 C 258.7269287109375 146.1454620361328 225.36862182617188 141.74945068359375 105.54042053222656 131.3107147216797 C 67.04984283447266 130.52236938476562 83.00753021240234 122.74022674560547 90.78048706054688 50.0250244140625 C 125.71038818359375 5.4571428298950195 99.14085388183594 11.886563301086426 128.6868896484375 35.37446212768555 C 192.3373565673828 42.11220169067383 233.548583984375 24.264041900634766 279.7748718261719 85.4068603515625" stroke-width="0.0" fill="rgb(222, 85, 234)" opacity="0.65140134"/>
    <path d="M 89.16621398925781 132.7424774169922 C 65.92601776123047 203.41018676757812 72.01361846923828 226.18014526367188 15.898508071899414 215.13206481933594 C -13.977859497070312 170.3350372314453 -7.787012100219727 146.88124084472656 -14.24506950378418 122.1424331665039 C -11.291006088256836 89.93223571777344 -6.573414325714111 72.09309387207031 -16.648944854736328 100.22747039794922 C 31.06486701965332 111.52327728271484 69.4003677368164 97.97408294677734 89.16621398925781 132.7424774169922" stroke-width="0.0" fill="rgb(226, 89, 230)" opacity="0.9749189"/>
    <path d="M 126.69688415527344 216.5220947265625 C 137.2848358154297 253.2343292236328 128.43154907226562 286.2518005371094 82.00701141357422 318.0409240722656 C -8.170495986938477 284.626708984375 -31.563777923583984 284.4656677246094 -52.48173522949219 200.2858123779297 C -3.6467032432556152 165.26138305664062 45.34904861450195 172.2247314453125 91.23977661132812 158.35096740722656 C 78.7836685180664 158.15933227539062 96.83775329589844 179.63040161132812 126.69688415527344 216.5220947265625" stroke-width="0.0" fill="rgb(212, 88, 241)" opacity="1.0"/>
    <path d="M 253.973876953125 249.13929748535156 C 82.44856262207031 329.1487121582031 248.2740020751953 272.2386169433594 92.23819732666016 341.6767272949219 C 192.7708740234375 346.8470458984375 10.759697914123535 337.81475830078125 49.846187591552734 347.486572265625 C 134.1361083984375 231.34095764160156 144.27325439453125 215.83775329589844 175.1248321533203 160.88368225097656 C 168.68423461914062 216.26467895507812 263.3110656738281 221.69981384277344 253.973876953125 249.13929748535156" stroke-width="0.0" fill="rgb(192, 95, 250)" opacity="0.9921017"/>
    <path d="M 607.4480590820312 202.9922637939453 C 532.11572265625 241.20758056640625 513.8646850585938 250.60337829589844 448.5602111816406 292.7331237792969 C 439.30474853515625 295.6756591796875 444.3184814453125 244.54554748535156 439.0467529296875 191.77276611328125 C 447.7659912109375 142.35580444335938 430.2325439453125 149.15110778808594 473.6664123535156 154.40211486816406 C 550.28515625 156.18846130371094 612.136962890625 136.78062438964844 607.4480590820312 202.9922637939453" stroke-width="0.0" fill="rgb(181, 89, 255)" opacity="0.99567956"/>
    <path d="M 242.589599609375 1.3598579168319702 C 213.47279357910156 6.373213768005371 219.05789184570312 37.502197265625 201.91357421875 86.5623550415039 C 159.949951171875 69.4639892578125 165.69406127929688 49.75239944458008 169.04176330566406 -4.210224151611328 C 175.17779541015625 -14.140199661254883 200.81138610839844 -9.615099906921387 212.56500244140625 -19.169551849365234 C 219.86050415039062 -17.6152286529541 235.71432495117188 -16.83536720275879 242.589599609375 1.3598579168319702" stroke-width="0.0" fill="rgb(220, 81, 235)" opacity="0.45697054"/>
    <path d="M 320.9881591796875 71.5869369506836 C 287.0801086425781 65.534423828125 323.028564453125 39.95209884643555 306.9843444824219 137.73687744140625 C 190.2928466796875 207.42105102539062 194.01364135742188 135.13377380371094 209.43295288085938 73.85859680175781 C 217.07203674316406 -4.690441131591797 205.5787811279297 -30.8963680267334 268.6931457519531 -71.15479278564453 C 323.80108642578125 -32.79621124267578 403.4037170410156 50.059852600097656 320.9881591796875 71.5869369506836" stroke-width="0.0" fill="rgb(206, 93, 250)" opacity="0.9833671"/>
    <path d="M 197.13209533691406 299.6303405761719 C 211.98765563964844 330.2762145996094 221.71218872070312 299.5682067871094 175.91136169433594 305.2995910644531 C 160.47108459472656 332.9296569824219 157.7895965576172 315.01837158203125 158.57350158691406 296.2817077636719 C 191.46849060058594 280.82293701171875 186.40469360351562 268.63555908203125 201.53277587890625 273.2098693847656 C 200.6436004638672 279.8029479980469 203.8200225830078 293.34619140625 197.13209533691406 299.6303405761719" stroke-width="0.0" fill="rgb(147, 132, 228)" opacity="0.63321453"/>
    <path d="M 185.91261291503906 413.92864990234375 C 207.4432830810547 379.5957946777344 192.2692413330078 440.8172912597656 159.9441680908203 441.7954406738281 C 165.8601531982422 396.2696228027344 182.39158630371094 360.5029296875 220.71690368652344 401.363525390625 C 194.64019775390625 442.116943359375 174.52577209472656 414.4825744628906 202.06715393066406 393.2532958984375 C 185.54501342773438 440.1670227050781 163.74488830566406 450.3049011230469 185.91261291503906 413.92864990234375" stroke-width="0.0" fill="rgb(126, 133, 7)" opacity="0.33660477"/>
    <path d="M 457.7004699707031 387.0864562988281 C 475.1889343261719 394.0935363769531 452.5667724609375 397.32806396484375 451.7267150878906 423.525390625 C 408.1902770996094 428.45196533203125 435.1402587890625 416.5633239746094 421.4219665527344 362.49090576171875 C 402.02459716796875 330.4470520019531 381.5809326171875 326.0935974121094 480.8797607421875 324.1168518066406 C 476.8731994628906 410.1045837402344 469.630615234375 404.851806640625 457.7004699707031 387.0864562988281" stroke-width="0.0" fill="rgb(125, 44, 50)" opacity="0.67128366"/>
    <path d="M 89.34075164794922 437.96099853515625 C 98.02842712402344 430.8089599609375 132.87425231933594 419.08721923828125 86.87178039550781 426.9556884765625 C 101.82408142089844 427.69464111328125 60.020469665527344 441.451904296875 -52.153778076171875 515.435302734375 C 45.448646545410156 388.8327941894531 109.90586853027344 410.8433837890625 143.37850952148438 395.9151611328125 C 94.82386016845703 412.28192138671875 85.52001953125 414.4709167480469 89.34075164794922 437.96099853515625" stroke-width="0.0" fill="rgb(16, 239, 246)" opacity="0.28694993"/>
    <path d="M 487.09185791015625 377.3760070800781 C 454.1503601074219 394.369384765625 429.8123474121094 381.8251037597656 437.3242492675781 427.7938537597656 C 466.1225891113281 426.0731506347656 468.27008056640625 424.0881652832031 467.8648986816406 371.2791748046875 C 458.3114013671875 354.1602783203125 440.6744689941406 362.62200927734375 426.3229064941406 368.8497619628906 C 443.7876892089844 348.195556640625 496.71392822265625 351.1529235839844 487.09185791015625 377.3760070800781" stroke-width="0.0" fill="rgb(77, 95, 2)" opacity="0.5651417"/>
    <path d="M 20.845354080200195 0.3861626386642456 C 18.165861129760742 10.386162757873535 10.845354080200195 17.706668853759766 0.8453542590141296 20.38616180419922 C -9.154645919799805 17.706668853759766 -16.47515296936035 10.386162757873535 -19.154645919799805 0.3861626386642456 C -16.47515296936035 -9.613837242126465 -9.154645919799805 -16.934345245361328 0.8453542590141296 -19.61383819580078 C 10.845354080200195 -16.934345245361328 18.165861129760742 -9.613837242126465 20.845354080200195 0.3861626386642456" stroke-width="0.0" fill="rgb(172, 78, 249)" opacity="0.82839257" stroke="rgb(237, 33, 223)" stroke-opacity="0.7685134" stroke-linecap="round" stroke-linejoin="round"/>
    <path d="M 20.40892791748047 0.4248851537704468 C 17.729434967041016 10.424884796142578 10.408926963806152 17.745391845703125 0.4089270234107971 20.424884796142578 C -9.591073036193848 17.745391845703125 -16.911579132080078 10.424884796142578 -19.59107208251953 0.4248851537704468 C -16.911579132080078 -9.575115203857422 -9.591073036193848 -16.89562225341797 0.4089270234107971 -19.575115203857422 C 10.408926963806152 -16.89562225341797 17.729434967041016 -9.575115203857422 20.40892791748047 0.4248851537704468" stroke-width="0.0" fill="rgb(216, 20, 151)" opacity="0.7987614" stroke="rgb(239, 140, 109)" stroke-opacity="0.9939711" stroke-linecap="round" stroke-linejoin="round"/>
    <path d="M 20.38217544555664 0.18296246230602264 C 17.702682495117188 10.182962417602539 10.382176399230957 17.503469467163086 0.382176011800766 20.18296241760254 C -9.617823600769043 17.503469467163086 -16.938331604003906 10.182962417602539 -19.61782455444336 0.18296246230602264 C -16.938331604003906 -9.817037582397461 -9.617823600769043 -17.137544631958008 0.382176011800766 -19.81703758239746 C 10.382176399230957 -17.137544631958008 17.702682495117188 -9.817037582397461 20.38217544555664 0.18296246230602264" stroke-width="0.0" fill="rgb(11, 153, 115)" opacity="0.82901204" stroke="rgb(232, 163, 159)" stroke-opacity="0.40348265" stroke-linecap="round" stroke-linejoin="round"/>
    <path d="M 481.2689514160156 389.57769775390625 C 471.53802490234375 414.8471984863281 457.8857421875 445.9481506347656 409.617431640625 430.8228454589844 C 404.73699951171875 381.09210205078125 463.23583984375 394.10137939453125 427.7631530761719 469.93719482421875 C 404.528564453125 378.74786376953125 445.97503662109375 405.2015686035156 454.4541320800781 385.14794921875 C 451.6015930175781 396.98052978515625 463.9825439453125 399.6793518066406 481.2689514160156 389.57769775390625" stroke-width="0.0" fill="rgb(89, 85, 4)" opacity="0.36147553"/>
    <path d="M 20.63176727294922 0.8146588802337646 C 17.952274322509766 10.814659118652344 10.631767272949219 18.13516616821289 0.6317670941352844 20.814659118652344 C -9.368232727050781 18.13516616821289 -16.688739776611328 10.814659118652344 -19.36823272705078 0.8146588802337646 C -16.688739776611328 -9.185340881347656 -9.368232727050781 -16.505847930908203 0.6317670941352844 -19.185340881347656 C 10.631767272949219 -16.505847930908203 17.952274322509766 -9.185340881347656 20.63176727294922 0.8146588802337646" stroke-width="0.0" fill="rgb(198, 88, 242)" opacity="0.89068943" stroke="rgb(17, 125, 33)" stroke-opacity="0.14694123" stroke-linecap="round" stroke-linejoin="round"/>
    <path d="M 471.9242248535156 398.8526306152344 C 466.3260192871094 410.13275146484375 471.20989990234375 416.9760437011719 485.2398986816406 434.3250732421875 C 468.6073913574219 410.48028564453125 505.33935546875 427.1847839355469 449.4559631347656 464.866455078125 C 404.0321350097656 361.9088134765625 408.8695068359375 349.7637634277344 454.2344665527344 361.84173583984375 C 455.8808288574219 402.6081237792969 451.54547119140625 393.72100830078125 471.9242248535156 398.8526306152344" stroke-width="0.0" fill="rgb(94, 71, 30)" opacity="0.28634235"/>
    <path d="M 430.1392822265625 397.03802490234375 C 439.5322570800781 406.104248046875 425.06048583984375 452.84356689453125 443.87420654296875 477.193603515625 C 399.8941955566406 486.16229248046875 391.2877502441406 505.7236328125 395.75958251953125 404.5604553222656 C 433.3157043457031 391.042236328125 441.7577209472656 332.9000549316406 429.6789855957031 455.7103271484375 C 414.78985595703125 484.3783264160156 394.7205505371094 435.23577880859375 430.1392822265625 397.03802490234375" stroke-width="0.0" fill="rgb(102, 63, 5)" opacity="0.87811065"/>
    <path d="M 20.16160774230957 0.013785408809781075 C 17.482114791870117 10.013785362243652 10.161606788635254 17.334293365478516 0.16160717606544495 20.01378631591797 C -9.838393211364746 17.334293365478516 -17.158899307250977 10.013785362243652 -19.83839225769043 0.013785408809781075 C -17.158899307250977 -9.986214637756348 -9.838393211364746 -17.306720733642578 0.16160717606544495 -19.98621368408203 C 10.161606788635254 -17.306720733642578 17.482114791870117 -9.986214637756348 20.16160774230957 0.013785408809781075" stroke-width="0.0" fill="rgb(164, 23, 115)" opacity="0.80786437" stroke="rgb(144, 197, 14)" stroke-opacity="0.24235599" stroke-linecap="round" stroke-linejoin="round"/>
    <path d="M 343.06219482421875 492.6702880859375 C 334.624267578125 428.4922180175781 358.8132629394531 457.3050537109375 388.5671691894531 463.66546630859375 C 366.7598876953125 494.8749694824219 339.553466796875 462.7934875488281 330.95758056640625 457.0246276855469 C 357.53375244140625 465.7643737792969 361.2554931640625 466.4292907714844 351.3369140625 495.4025573730469 C 292.6195068359375 478.8681640625 262.16021728515625 505.8736572265625 343.06219482421875 492.6702880859375" stroke-width="0.0" fill="rgb(128, 85, 121)" opacity="0.12755589"/>
    <path d="M 403.99908447265625 272.5904846191406 C 380.3136901855469 267.4066467285156 387.9715270996094 303.1716003417969 403.5827941894531 332.4255676269531 C 447.2045593261719 345.26055908203125 423.6609802246094 302.1272888183594 394.896484375 286.4215087890625 C 383.3413391113281 277.718994140625 408.5174255371094 289.6419677734375 399.5226135253906 295.1028747558594 C 380.6603698730469 278.78076171875 423.5091247558594 307.0471496582031 403.99908447265625 272.5904846191406" stroke-width="0.0" fill="rgb(46, 67, 48)" opacity="0.39538494"/>
    <path d="M 412.3247985839844 244.81260681152344 C 393.5470275878906 278.43560791015625 395.7191162109375 291.75787353515625 390.0279235839844 284.5724182128906 C 389.68145751953125 268.18414306640625 387.5914001464844 263.0538635253906 395.25286865234375 274.7053527832031 C 386.97381591796875 295.6167907714844 412.0484313964844 287.1727600097656 417.41363525390625 260.3075866699219 C 412.474853515625 266.1325988769531 434.9736328125 241.27716064453125 412.3247985839844 244.81260681152344" stroke-width="0.0" fill="rgb(54, 38, 121)" opacity="0.044030458"/>
    <path d="M 280.2493591308594 385.94354248046875 C 292.2950439453125 419.3486633300781 299.7218322753906 470.1466369628906 270.0528564453125 480.0862121582031 C 249.67677307128906 445.4532470703125 293.2602233886719 412.08172607421875 261.4585876464844 473.8216857910156 C 254.1076202392578 409.3998718261719 245.13656616210938 363.408203125 280.9631652832031 362.10894775390625 C 287.3695068359375 399.7625732421875 274.4526062011719 439.747314453125 280.2493591308594 385.94354248046875" stroke-width="0.0" fill="rgb(45, 52, 52)" opacity="0.79008824"/>
    <path d="M 347.9546813964844 328.0492858886719 C 344.8313903808594 336.7457580566406 344.13104248046875 350.41644287109375 344.0931396484375 348.7940979003906 C 314.38311767578125 349.35369873046875 323.19671630859375 357.89447021484375 320.2456970214844 340.6770935058594 C 348.0507507324219 341.4088439941406 342.1636657714844 336.96661376953125 363.4087219238281 321.3484802246094 C 350.59246826171875 321.23968505859375 373.6888427734375 343.50860595703125 347.9546813964844 328.0492858886719" stroke-width="0.0" fill="rgb(78, 50, 118)" opacity="0.3929885"/>
    <path d="M 159.0036163330078 310.5099792480469 C 92.5839614868164 324.422119140625 58.60915756225586 349.7394104003906 253.4051513671875 379.22625732421875 C 89.44090270996094 317.7952880859375 70.38423156738281 340.3475646972656 217.92359924316406 353.3520202636719 C 116.81229400634766 321.0318298339844 143.85694885253906 341.3182067871094 132.78663635253906 342.0918884277344 C 168.6154022216797 345.31201171875 165.12278747558594 347.4761047363281 159.0036163330078 310.5099792480469" stroke-width="0.0" fill="rgb(152, 37, 199)" opacity="0.44102976"/>
    <path d="M 20.10234832763672 0.7723105549812317 C 17.422855377197266 10.772310256958008 10.102348327636719 18.092817306518555 0.10234840214252472 20.772310256958008 C -9.897651672363281 18.092817306518555 -17.218158721923828 10.772310256958008 -19.89765167236328 0.7723105549812317 C -17.218158721923828 -9.227689743041992 -9.897651672363281 -16.54819679260254 0.10234840214252472 -19.227689743041992 C 10.102348327636719 -16.54819679260254 17.422855377197266 -9.227689743041992 20.10234832763672 0.7723105549812317" stroke-width="0.0" fill="rgb(94, 138, 195)" opacity="0.9995228" stroke="rgb(200, 185, 138)" stroke-opacity="0.18912897" stroke-linecap="round" stroke-linejoin="round"/>
    <path d="M 417.66552734375 441.6981506347656 C 375.36700439453125 449.1477966308594 382.2601623535156 444.53106689453125 401.33599853515625 411.4321594238281 C 401.8327331542969 421.69537353515625 378.7093811035156 478.61578369140625 371.3966369628906 421.6452941894531 C 375.056884765625 380.7928771972656 405.1655578613281 375.4595947265625 412.836181640625 434.1591491699219 C 394.74359130859375 387.9758605957031 411.674072265625 417.1911315917969 417.66552734375 441.6981506347656" stroke-width="0.0" fill="rgb(125, 100, 0)" opacity="0.23277006"/>
    <path d="M 403.3218078613281 324.4287109375 C 339.14373779296875 323.70635986328125 301.7231140136719 320.8232727050781 322.9552001953125 322.7789001464844 C 307.1176452636719 344.52227783203125 326.89300537109375 383.1859436035156 316.52764892578125 334.1744079589844 C 314.0542297363281 352.91497802734375 323.7425537109375 353.89739990234375 377.70977783203125 349.7197570800781 C 360.34326171875 345.81048583984375 397.7647399902344 316.7135314941406 403.3218078613281 324.4287109375" stroke-width="0.0" fill="rgb(102, 62, 155)" opacity="0.15000312"/>
    <path d="M 20.6197452545166 0.189056396484375 C 17.94025230407715 10.189056396484375 10.619744300842285 17.509563446044922 0.6197444796562195 20.189056396484375 C -9.380255699157715 17.509563446044922 -16.700761795043945 10.189056396484375 -19.3802547454834 0.189056396484375 C -16.700761795043945 -9.810943603515625 -9.380255699157715 -17.131450653076172 0.6197444796562195 -19.810943603515625 C 10.619744300842285 -17.131450653076172 17.94025230407715 -9.810943603515625 20.6197452545166 0.189056396484375" stroke-width="0.0" fill="rgb(113, 132, 4)" opacity="0.89220643" stroke="rgb(240, 190, 34)" stroke-opacity="0.3857928" stroke-linecap="round" stroke-linejoin="round"/>
    <path d="M 252.39697265625 457.3078308105469 C 247.6355743408203 439.83404541015625 240.53094482421875 466.4006042480469 239.80484008789062 469.25836181640625 C 220.77337646484375 472.0431213378906 224.4592742919922 483.3912658691406 196.4205322265625 400.88690185546875 C 249.39723205566406 456.4232482910156 239.12062072753906 411.9856262207031 225.96041870117188 375.3102722167969 C 231.38377380371094 434.5845947265625 246.13815307617188 470.892578125 252.39697265625 457.3078308105469" stroke-width="0.0" fill="rgb(150, 137, 32)" opacity="0.11585048"/>
    <path d="M 20.0639591217041 0.7236881852149963 C 17.38446617126465 10.723688125610352 10.063959121704102 18.0441951751709 0.06395955383777618 20.72368812561035 C -9.936040878295898 18.0441951751709 -17.256547927856445 10.723688125610352 -19.9360408782959 0.7236881852149963 C -17.256547927856445 -9.276311874389648 -9.936040878295898 -16.596818923950195 0.06395955383777618 -19.27631187438965 C 10.063959121704102 -16.596818923950195 17.38446617126465 -9.276311874389648 20.0639591217041 0.7236881852149963" stroke-width="0.0" fill="rgb(67, 50, 154)" opacity="0.8090932" stroke="rgb(102, 0, 246)" stroke-opacity="0.5912069" stroke-linecap="round" stroke-linejoin="round"/>
    <path d="M 163.86856079101562 393.0575866699219 C 163.2328338623047 383.0276184082031 141.71713256835938 403.8053894042969 165.68417358398438 451.3313293457031 C 154.06683349609375 381.0873107910156 163.70233154296875 391.14794921875 141.32383728027344 416.0992431640625 C 152.4063262939453 406.9900817871094 152.48373413085938 392.2000732421875 177.43612670898438 400.9263000488281 C 168.5519256591797 419.6182556152344 137.94113159179688 397.0076904296875 163.86856079101562 393.0575866699219" stroke-width="0.0" fill="rgb(117, 206, 10)" opacity="0.180884"/>
    <path d="M 248.9825439453125 437.4578552246094 C 255.9507598876953 453.5136413574219 267.9288330078125 490.1666564941406 220.0785369873047 460.9992370605469 C 229.87161254882812 398.0450134277344 229.92965698242188 336.0694580078125 197.54681396484375 390.4367370605469 C 229.40084838867188 339.4223937988281 238.3153533935547 370.5382080078125 248.69956970214844 371.9015197753906 C 248.68324279785156 455.3765869140625 255.610595703125 448.2540588378906 248.9825439453125 437.4578552246094" stroke-width="0.0" fill="rgb(222, 160, 0)" opacity="0.99448425"/>
    <path d="M 20.14027214050293 0.23074744641780853 C 17.460779190063477 10.23074722290039 10.140273094177246 17.551254272460938 0.1402728259563446 20.23074722290039 C -9.859726905822754 17.551254272460938 -17.180234909057617 10.23074722290039 -19.85972785949707 0.23074744641780853 C -17.180234909057617 -9.76925277709961 -9.859726905822754 -17.089759826660156 0.1402728259563446 -19.76925277709961 C 10.140273094177246 -17.089759826660156 17.460779190063477 -9.76925277709961 20.14027214050293 0.23074744641780853" stroke-width="0.0" fill="rgb(183, 45, 210)" opacity="0.975923" stroke="rgb(159, 115, 53)" stroke-opacity="0.031020451" stroke-linecap="round" stroke-linejoin="round"/>
    <path d="M 175.58396911621094 389.1368408203125 C 168.55776977539062 399.02703857421875 200.58238220214844 368.225341796875 188.43069458007812 426.0829162597656 C 146.17343139648438 405.8233642578125 166.05023193359375 388.20513916015625 163.0460968017578 400.75164794921875 C 156.27114868164062 375.8822937011719 165.44247436523438 388.10589599609375 158.9445343017578 410.15057373046875 C 179.8323211669922 406.35162353515625 178.78616333007812 384.00372314453125 175.58396911621094 389.1368408203125" stroke-width="0.0" fill="rgb(156, 135, 41)" opacity="0.26971236"/>
    <path d="M 20.13991928100586 0.8580793142318726 C 17.460426330566406 10.858078956604004 10.13991928100586 18.178586959838867 0.13991974294185638 20.85807991027832 C -9.86008071899414 18.178586959838867 -17.180587768554688 10.858078956604004 -19.86008071899414 0.8580793142318726 C -17.180587768554688 -9.141921043395996 -9.86008071899414 -16.462427139282227 0.13991974294185638 -19.14192008972168 C 10.13991928100586 -16.462427139282227 17.460426330566406 -9.141921043395996 20.13991928100586 0.8580793142318726" stroke-width="0.0" fill="rgb(241, 22, 49)" opacity="0.73068076" stroke="rgb(244, 211, 238)" stroke-opacity="0.05078955" stroke-linecap="round" stroke-linejoin="round"/>
    <path d="M 147.9083251953125 402.0579833984375 C 171.77845764160156 406.435302734375 211.75914001464844 451.3854675292969 140.281494140625 436.49847412109375 C 132.0859375 418.7918701171875 146.9599609375 426.6893615722656 136.06622314453125 427.7627258300781 C 137.96275329589844 416.639892578125 128.21563720703125 413.2154846191406 164.26063537597656 414.0879211425781 C 143.7273712158203 378.7300720214844 143.2296600341797 399.24273681640625 147.9083251953125 402.0579833984375" stroke-width="0.0" fill="rgb(90, 149, 48)" opacity="0.24249221"/>
    <path d="M 164.36216735839844 409.6377868652344 C 160.34519958496094 387.4222106933594 176.96661376953125 418.1332092285156 180.968017578125 443.7349548339844 C 141.90701293945312 449.14398193359375 151.98048400878906 440.977783203125 165.8195343017578 419.0790710449219 C 168.02761840820312 395.4994201660156 163.2064208984375 359.8187561035156 162.8607940673828 404.0536804199219 C 152.55271911621094 388.1456604003906 166.4189453125 390.45623779296875 164.36216735839844 409.6377868652344" stroke-width="0.0" fill="rgb(153, 146, 165)" opacity="0.5308118"/>
    <path d="M 464.1905822753906 356.612548828125 C 448.9000549316406 370.8028869628906 434.9145812988281 410.2809143066406 492.1603698730469 440.9217834472656 C 500.89984130859375 298.7122497558594 473.6318664550781 367.3476867675781 489.72216796875 348.37030029296875 C 456.76422119140625 392.5385437011719 466.08734130859375 376.7535705566406 489.10101318359375 377.6130065917969 C 484.490478515625 373.4571533203125 482.5725402832031 348.48651123046875 464.1905822753906 356.612548828125" stroke-width="0.0" fill="rgb(130, 67, 3)" opacity="0.9907035"/>
    <path d="M 20.899999618530273 0.5093562602996826 C 18.22050666809082 10.509356498718262 10.899999618530273 17.829862594604492 0.89999920129776 20.509355545043945 C -9.100000381469727 17.829862594604492 -16.420507431030273 10.509356498718262 -19.100000381469727 0.5093562602996826 C -16.420507431030273 -9.490643501281738 -9.100000381469727 -16.8111515045166 0.89999920129776 -19.490644454956055 C 10.899999618530273 -16.8111515045166 18.22050666809082 -9.490643501281738 20.899999618530273 0.5093562602996826" stroke-width="0.0" fill="rgb(204, 19, 248)" opacity="0.9130494" stroke="rgb(176, 208, 206)" stroke-opacity="0.42699635" stroke-linecap="round" stroke-linejoin="round"/>
    <path d="M 321.21240234375 410.2886657714844 C 320.7765197753906 412.607177734375 299.9383544921875 481.3787536621094 375.26788330078125 469.62591552734375 C 369.74371337890625 403.6771545410156 340.73809814453125 428.2232360839844 328.1847229003906 428.5943298339844 C 317.9913024902344 435.2224426269531 331.1681823730469 428.51104736328125 371.7604064941406 404.66729736328125 C 320.8975524902344 409.8777770996094 317.8388366699219 407.20611572265625 321.21240234375 410.2886657714844" stroke-width="0.0" fill="rgb(104, 147, 0)" opacity="0.40669397"/>
    <path d="M 20.495494842529297 0.2333843857049942 C 17.816001892089844 10.233384132385254 10.495494842529297 17.553892135620117 0.4954947233200073 20.23338508605957 C -9.504505157470703 17.553892135620117 -16.82501220703125 10.233384132385254 -19.504505157470703 0.2333843857049942 C -16.82501220703125 -9.766615867614746 -9.504505157470703 -17.087121963500977 0.4954947233200073 -19.76661491394043 C 10.495494842529297 -17.087121963500977 17.816001892089844 -9.766615867614746 20.495494842529297 0.2333843857049942" stroke-width="0.0" fill="rgb(135, 33, 183)" opacity="0.7877177" stroke="rgb(47, 11, 82)" stroke-opacity="0.36519346" stroke-linecap="round" stroke-linejoin="round"/>
    <path d="M 20.984254837036133 0.20878808200359344 C 18.30476188659668 10.20878791809082 10.984254837036133 17.529294967651367 0.9842546582221985 20.20878791809082 C -9.015745162963867 17.529294967651367 -16.336252212524414 10.20878791809082 -19.015745162963867 0.20878808200359344 C -16.336252212524414 -9.79121208190918 -9.015745162963867 -17.111719131469727 0.9842546582221985 -19.79121208190918 C 10.984254837036133 -17.111719131469727 18.30476188659668 -9.79121208190918 20.984254837036133 0.20878808200359344" stroke-width="0.0" fill="rgb(13, 85, 174)" opacity="0.8144434" stroke="rgb(9, 246, 0)" stroke-opacity="0.42702663" stroke-linecap="round" stroke-linejoin="round"/>
    <path d="M 398.4040832519531 476.2760009765625 C 392.8285827636719 404.1849365234375 388.72894287109375 432.6303405761719 427.811767578125 452.11346435546875 C 443.6972351074219 433.7579650878906 430.8742980957031 421.7713928222656 435.022705078125 434.1897277832031 C 464.07513427734375 433.4546203613281 465.6346435546875 438.7828063964844 451.50341796875 373.8242492675781 C 409.8238830566406 406.5245666503906 409.5120849609375 454.4756164550781 398.4040832519531 476.2760009765625" stroke-width="0.0" fill="rgb(75, 96, 0)" opacity="0.27739397"/>
    <path d="M 303.1372375488281 60.20693588256836 C 310.4959716796875 53.94304656982422 305.9790344238281 62.225318908691406 331.8378601074219 122.75658416748047 C 296.307373046875 169.53367614746094 290.0035095214844 140.8031005859375 313.6022033691406 70.22581481933594 C 318.0408630371094 91.2668685913086 332.7142333984375 49.01637649536133 311.4269104003906 55.79841613769531 C 318.22760009765625 90.1400375366211 300.9667663574219 76.48096466064453 303.1372375488281 60.20693588256836" stroke-width="0.0" fill="rgb(205, 161, 0)" opacity="0.9999049"/>
    <path d="M 134.4882354736328 352.22686767578125 C 130.6272735595703 348.52313232421875 100.81513977050781 343.389892578125 171.4369659423828 353.13360595703125 C 117.39373779296875 337.61517333984375 138.91470336914062 346.1979064941406 120.79129028320312 327.77655029296875 C 106.60089874267578 342.0784606933594 128.28118896484375 337.885498046875 127.20047760009766 335.0912170410156 C 159.61517333984375 361.5003356933594 251.30325317382812 372.9768981933594 134.4882354736328 352.22686767578125" stroke-width="0.0" fill="rgb(80, 77, 50)" opacity="0.35571754"/>
    <path d="M 449.9375305175781 342.68792724609375 C 478.7726135253906 326.2913818359375 461.4177551269531 310.7085876464844 403.1187744140625 285.55706787109375 C 337.09149169921875 329.45404052734375 319.29949951171875 329.92657470703125 437.7540588378906 326.5087890625 C 416.94580078125 327.7616271972656 485.98114013671875 336.9488220214844 427.80914306640625 306.3378601074219 C 360.7838439941406 338.50970458984375 391.60198974609375 331.0748596191406 449.9375305175781 342.68792724609375" stroke-width="0.0" fill="rgb(82, 58, 78)" opacity="0.4138003"/>
    <path d="M 20.641685485839844 0.037336546927690506 C 17.96219253540039 10.037336349487305 10.64168643951416 17.35784339904785 0.6416860222816467 20.037336349487305 C -9.35831356048584 17.35784339904785 -16.678821563720703 10.037336349487305 -19.358314514160156 0.037336546927690506 C -16.678821563720703 -9.962663650512695 -9.35831356048584 -17.283170700073242 0.6416860222816467 -19.962663650512695 C 10.64168643951416 -17.283170700073242 17.96219253540039 -9.962663650512695 20.641685485839844 0.037336546927690506" stroke-width="0.0" fill="rgb(86, 240, 44)" opacity="0.9074014" stroke="rgb(24, 165, 50)" stroke-opacity="0.88352245" stroke-linecap="round" stroke-linejoin="round"/>
    <path d="M 20.476709365844727 0.25595399737358093 C 17.797216415405273 10.255953788757324 10.47670841217041 17.576461791992188 0.4767087399959564 20.25595474243164 C -9.52329158782959 17.576461791992188 -16.84379768371582 10.255953788757324 -19.523290634155273 0.25595399737358093 C -16.84379768371582 -9.744046211242676 -9.52329158782959 -17.064552307128906 0.4767087399959564 -19.74404525756836 C 10.47670841217041 -17.064552307128906 17.797216415405273 -9.744046211242676 20.476709365844727 0.25595399737358093" stroke-width="0.0" fill="rgb(91, 45, 30)" opacity="0.71471363" stroke="rgb(199, 58, 86)" stroke-opacity="0.61020356" stroke-linecap="round" stroke-linejoin="round"/>
    <path d="M 342.2320556640625 342.9412841796875 C 349.4164733886719 379.3261413574219 346.0418701171875 368.5656433105469 363.0313415527344 394.0671081542969 C 316.39117431640625 391.90069580078125 338.6074523925781 342.41363525390625 334.4910888671875 335.6842041015625 C 320.0209655761719 357.1826171875 349.8102111816406 337.87017822265625 343.0170593261719 337.641845703125 C 330.8351135253906 337.109130859375 304.6415100097656 358.2300109863281 342.2320556640625 342.9412841796875" stroke-width="0.0" fill="rgb(60, 78, 98)" opacity="0.40569782"/>
    <path d="M 20.481061935424805 0.5759718418121338 C 17.80156898498535 10.575971603393555 10.481061935424805 17.8964786529541 0.4810616075992584 20.575971603393555 C -9.518938064575195 17.8964786529541 -16.839445114135742 10.575971603393555 -19.518938064575195 0.5759718418121338 C -16.839445114135742 -9.424028396606445 -9.518938064575195 -16.744535446166992 0.4810616075992584 -19.424028396606445 C 10.481061935424805 -16.744535446166992 17.80156898498535 -9.424028396606445 20.481061935424805 0.5759718418121338" stroke-width="0.0" fill="rgb(217, 183, 54)" opacity="0.71091753" stroke="rgb(1, 88, 29)" stroke-opacity="0.28135848" stroke-linecap="round" stroke-linejoin="round"/>
    <path d="M 20.515321731567383 0.20042046904563904 C 17.83582878112793 10.200420379638672 10.515321731567383 17.52092742919922 0.515321671962738 20.200420379638672 C -9.484678268432617 17.52092742919922 -16.805185317993164 10.200420379638672 -19.484678268432617 0.20042046904563904 C -16.805185317993164 -9.799579620361328 -9.484678268432617 -17.120086669921875 0.515321671962738 -19.799579620361328 C 10.515321731567383 -17.120086669921875 17.83582878112793 -9.799579620361328 20.515321731567383 0.20042046904563904" stroke-width="0.0" fill="rgb(160, 211, 60)" opacity="0.80149496" stroke="rgb(43, 167, 193)" stroke-opacity="0.14314848" stroke-linecap="round" stroke-linejoin="round"/>
    <path d="M 20.44655990600586 0.6944386959075928 C 17.767066955566406 10.694438934326172 10.446560859680176 18.01494598388672 0.4465606212615967 20.694438934326172 C -9.553439140319824 18.01494598388672 -16.873947143554688 10.694438934326172 -19.55344009399414 0.6944386959075928 C -16.873947143554688 -9.305561065673828 -9.553439140319824 -16.626068115234375 0.4465606212615967 -19.305561065673828 C 10.446560859680176 -16.626068115234375 17.767066955566406 -9.305561065673828 20.44655990600586 0.6944386959075928" stroke-width="0.0" fill="rgb(164, 186, 227)" opacity="0.9609048" stroke="rgb(33, 61, 87)" stroke-opacity="0.37093532" stroke-linecap="round" stroke-linejoin="round"/>
    <path d="M 20.821313858032227 0.9884234666824341 C 18.141820907592773 10.988423347473145 10.821313858032227 18.308931350708008 0.821313738822937 20.98842430114746 C -9.178686141967773 18.308931350708008 -16.49919319152832 10.988423347473145 -19.178686141967773 0.9884234666824341 C -16.49919319152832 -9.011576652526855 -9.178686141967773 -16.332082748413086 0.821313738822937 -19.01157569885254 C 10.821313858032227 -16.332082748413086 18.141820907592773 -9.011576652526855 20.821313858032227 0.9884234666824341" stroke-width="0.0" fill="rgb(43, 241, 46)" opacity="0.89513534" stroke="rgb(79, 245, 196)" stroke-opacity="0.5262271" stroke-linecap="round" stroke-linejoin="round"/>
    <path d="M 20.822574615478516 0.1953282654285431 C 18.143081665039062 10.195328712463379 10.8225736618042 17.51583480834961 0.8225736618041992 20.195327758789062 C -9.1774263381958 17.51583480834961 -16.49793243408203 10.195328712463379 -19.177425384521484 0.1953282654285431 C -16.49793243408203 -9.804671287536621 -9.1774263381958 -17.125179290771484 0.8225736618041992 -19.804672241210938 C 10.8225736618042 -17.125179290771484 18.143081665039062 -9.804671287536621 20.822574615478516 0.1953282654285431" stroke-width="0.0" fill="rgb(240, 125, 153)" opacity="0.7039987" stroke="rgb(140, 218, 27)" stroke-opacity="0.009010464" stroke-linecap="round" stroke-linejoin="round"/>
    <path d="M 20.267765045166016 0.8356440663337708 C 17.588272094726562 10.835643768310547 10.267765045166016 18.156150817871094 0.2677654027938843 20.835643768310547 C -9.732234954833984 18.156150817871094 -17.05274200439453 10.835643768310547 -19.732234954833984 0.8356440663337708 C -17.05274200439453 -9.164356231689453 -9.732234954833984 -16.48486328125 0.2677654027938843 -19.164356231689453 C 10.267765045166016 -16.48486328125 17.588272094726562 -9.164356231689453 20.267765045166016 0.8356440663337708" stroke-width="0.0" fill="rgb(24, 13, 156)" opacity="0.8924808" stroke="rgb(80, 163, 181)" stroke-opacity="0.0725288" stroke-linecap="round" stroke-linejoin="round"/>
    <path d="M 20.40559959411621 0.9882817268371582 C 17.726106643676758 10.98828125 10.405598640441895 18.308788299560547 0.405598908662796 20.98828125 C -9.594401359558105 18.308788299560547 -16.914907455444336 10.98828125 -19.59440040588379 0.9882817268371582 C -16.914907455444336 -9.01171875 -9.594401359558105 -16.332225799560547 0.405598908662796 -19.01171875 C 10.405598640441895 -16.332225799560547 17.726106643676758 -9.01171875 20.40559959411621 0.9882817268371582" stroke-width="0.0" fill="rgb(19, 155, 76)" opacity="0.88317096" stroke="rgb(197, 71, 3)" stroke-opacity="0.7199233" stroke-linecap="round" stroke-linejoin="round"/>
    <path d="M 20.573745727539062 0.7613686919212341 C 17.89425277709961 10.761368751525879 10.573745727539062 18.08187484741211 0.5737459659576416 20.761367797851562 C -9.426254272460938 18.08187484741211 -16.746761322021484 10.761368751525879 -19.426254272460938 0.7613686919212341 C -16.746761322021484 -9.238631248474121 -9.426254272460938 -16.559139251708984 0.5737459659576416 -19.238632202148438 C 10.573745727539062 -16.559139251708984 17.89425277709961 -9.238631248474121 20.573745727539062 0.7613686919212341" stroke-width="0.0" fill="rgb(111, 247, 153)" opacity="0.9795817" stroke="rgb(62, 101, 59)" stroke-opacity="0.34917867" stroke-linecap="round" stroke-linejoin="round"/>
    <path d="M 20.680706024169922 0.1300472766160965 C 18.00121307373047 10.130046844482422 10.680706977844238 17.45055389404297 0.6807066798210144 20.130046844482422 C -9.319293022155762 17.45055389404297 -16.639801025390625 10.130046844482422 -19.319293975830078 0.1300472766160965 C -16.639801025390625 -9.869953155517578 -9.319293022155762 -17.190460205078125 0.6807066798210144 -19.869953155517578 C 10.680706977844238 -17.190460205078125 18.00121307373047 -9.869953155517578 20.680706024169922 0.1300472766160965" stroke-width="0.0" fill="rgb(140, 141, 125)" opacity="0.84893376" stroke="rgb(226, 181, 29)" stroke-opacity="0.41192928" stroke-linecap="round" stroke-linejoin="round"/>
    <path d="M 20.070016860961914 0.2952171564102173 C 17.39052391052246 10.295217514038086 10.07001781463623 17.615724563598633 0.07001741230487823 20.295217514038086 C -9.92998218536377 17.615724563598633 -17.250490188598633 10.295217514038086 -19.929983139038086 0.2952171564102173 C -17.250490188598633 -9.704782485961914 -9.92998218536377 -17.02528953552246 0.07001741230487823 -19.704782485961914 C 10.07001781463623 -17.02528953552246 17.39052391052246 -9.704782485961914 20.070016860961914 0.2952171564102173" stroke-width="0.0" fill="rgb(15, 75, 233)" opacity="0.88488835" stroke="rgb(118, 24, 23)" stroke-opacity="0.2511474" stroke-linecap="round" stroke-linejoin="round"/>
    <path d="M 20.05910873413086 0.019117189571261406 C 17.379615783691406 10.01911735534668 10.059107780456543 17.339624404907227 0.059108179062604904 20.01911735534668 C -9.940892219543457 17.339624404907227 -17.261398315429688 10.01911735534668 -19.94089126586914 0.019117189571261406 C -17.261398315429688 -9.98088264465332 -9.940892219543457 -17.301389694213867 0.059108179062604904 -19.98088264465332 C 10.059107780456543 -17.301389694213867 17.379615783691406 -9.98088264465332 20.05910873413086 0.019117189571261406" stroke-width="0.0" fill="rgb(149, 172, 72)" opacity="0.90912265" stroke="rgb(245, 45, 49)" stroke-opacity="0.6767567" stroke-linecap="round" stroke-linejoin="round"/>
    <path d="M 20.21194076538086 0.9462937116622925 C 17.532447814941406 10.946293830871582 10.211939811706543 18.266799926757812 0.2119402289390564 20.946292877197266 C -9.788060188293457 18.266799926757812 -17.108566284179688 10.946293830871582 -19.78805923461914 0.9462937116622925 C -17.108566284179688 -9.053706169128418 -9.788060188293457 -16.37421417236328 0.2119402289390564 -19.053707122802734 C 10.211939811706543 -16.37421417236328 17.532447814941406 -9.053706169128418 20.21194076538086 0.9462937116622925" stroke-width="0.0" fill="rgb(85, 103, 83)" opacity="0.82569534" stroke="rgb(146, 92, 185)" stroke-opacity="0.59409595" stroke-linecap="round" stroke-linejoin="round"/>
    <path d="M 20.204242706298828 0.005148312076926231 C 17.524749755859375 10.005147933959961 10.204242706298828 17.325654983520508 0.20424282550811768 20.00514793395996 C -9.795757293701172 17.325654983520508 -17.11626434326172 10.005147933959961 -19.795757293701172 0.005148312076926231 C -17.11626434326172 -9.994852066040039 -9.795757293701172 -17.315359115600586 0.20424282550811768 -19.99485206604004 C 10.204242706298828 -17.315359115600586 17.524749755859375 -9.994852066040039 20.204242706298828 0.005148312076926231" stroke-width="0.0" fill="rgb(129, 180, 214)" opacity="0.9329645" stroke="rgb(215, 253, 125)" stroke-opacity="0.03366575" stroke-linecap="round" stroke-linejoin="round"/>
    <path d="M 222.38424682617188 356.9604797363281 C 189.52505493164062 302.66546630859375 121.6292724609375 323.0090026855469 167.27935791015625 323.4900207519531 C 133.49964904785156 309.53033447265625 102.840087890625 328.11004638671875 139.39781188964844 311.61444091796875 C 301.8412170410156 320.7793884277344 271.0250244140625 317.8442077636719 166.56085205078125 309.8149719238281 C 102.4547348022461 329.74176025390625 96.34748077392578 350.0484924316406 222.38424682617188 356.9604797363281" stroke-width="0.0" fill="rgb(49, 134, 55)" opacity="0.5673519"/>
    <path d="M 20.814714431762695 0.38505789637565613 C 18.135221481323242 10.38505744934082 10.814714431762695 17.705564498901367 0.8147146105766296 20.38505744934082 C -9.185285568237305 17.705564498901367 -16.50579261779785 10.38505744934082 -19.185285568237305 0.38505789637565613 C -16.50579261779785 -9.61494255065918 -9.185285568237305 -16.935449600219727 0.8147146105766296 -19.61494255065918 C 10.814714431762695 -16.935449600219727 18.135221481323242 -9.61494255065918 20.814714431762695 0.38505789637565613" stroke-width="0.0" fill="rgb(103, 191, 50)" opacity="0.88636905" stroke="rgb(184, 40, 23)" stroke-opacity="0.5112789" stroke-linecap="round" stroke-linejoin="round"/>
    <path d="M 189.52366638183594 324.0653991699219 C 122.23361206054688 317.99493408203125 137.32809448242188 340.9710998535156 121.04070281982422 334.1208801269531 C 130.77635192871094 326.2186584472656 125.73310852050781 324.1749267578125 138.05654907226562 290.2079162597656 C 185.7674560546875 294.091796875 174.24029541015625 327.093505859375 219.9667510986328 339.91357421875 C 58.966758728027344 298.1178894042969 146.9678955078125 292.0444030761719 189.52366638183594 324.0653991699219" stroke-width="0.0" fill="rgb(128, 179, 188)" opacity="0.11562519"/>
    <path d="M 20.039581298828125 0.9812021851539612 C 17.360088348388672 10.981202125549316 10.039581298828125 18.30171012878418 0.039581019431352615 20.981203079223633 C -9.960418701171875 18.30171012878418 -17.280925750732422 10.981202125549316 -19.960418701171875 0.9812021851539612 C -17.280925750732422 -9.018797874450684 -9.960418701171875 -16.339303970336914 0.039581019431352615 -19.018796920776367 C 10.039581298828125 -16.339303970336914 17.360088348388672 -9.018797874450684 20.039581298828125 0.9812021851539612" stroke-width="0.0" fill="rgb(101, 89, 247)" opacity="0.9204815" stroke="rgb(138, 225, 229)" stroke-opacity="0.75937307" stroke-linecap="round" stroke-linejoin="round"/>
    <path d="M 20.632997512817383 0.8259105086326599 C 17.95350456237793 10.825910568237305 10.632997512817383 18.14641761779785 0.6329977512359619 20.825910568237305 C -9.367002487182617 18.14641761779785 -16.687509536743164 10.825910568237305 -19.367002487182617 0.8259105086326599 C -16.687509536743164 -9.174089431762695 -9.367002487182617 -16.494596481323242 0.6329977512359619 -19.174089431762695 C 10.632997512817383 -16.494596481323242 17.95350456237793 -9.174089431762695 20.632997512817383 0.8259105086326599" stroke-width="0.0" fill="rgb(183, 108, 218)" opacity="0.7992563" stroke="rgb(6, 215, 170)" stroke-opacity="0.37669802" stroke-linecap="round" stroke-linejoin="round"/>
    <path d="M 397.2825012207031 308.23248291015625 C 409.2874450683594 287.59771728515625 376.0400695800781 312.9315185546875 308.5393371582031 357.7425537109375 C 366.7581481933594 304.9891052246094 382.5853576660156 298.9873352050781 368.1012878417969 315.3758239746094 C 380.5220947265625 293.4419250488281 406.7270202636719 313.9975891113281 367.836669921875 342.3289794921875 C 278.235107421875 374.4766540527344 329.3504638671875 355.22808837890625 397.2825012207031 308.23248291015625" stroke-width="0.0" fill="rgb(79, 65, 87)" opacity="0.2329055"/>
    <path d="M 226.68112182617188 416.67315673828125 C 215.4722442626953 377.6939392089844 216.882568359375 400.50177001953125 225.42027282714844 419.5465393066406 C 231.32156372070312 361.6061706542969 198.21665954589844 341.8946838378906 191.1075439453125 388.6287536621094 C 198.59103393554688 420.0768737792969 214.2745361328125 411.99981689453125 194.6906280517578 380.919921875 C 181.6260223388672 442.61981201171875 225.78868103027344 487.3482666015625 226.68112182617188 416.67315673828125" stroke-width="0.0" fill="rgb(48, 53, 37)" opacity="0.9266843"/>
    <path d="M 20.33380126953125 0.7614278197288513 C 17.654308319091797 10.761427879333496 10.33380126953125 18.081933975219727 0.3338017165660858 20.76142692565918 C -9.66619873046875 18.081933975219727 -16.986705780029297 10.761427879333496 -19.66619873046875 0.7614278197288513 C -16.986705780029297 -9.238572120666504 -9.66619873046875 -16.559080123901367 0.3338017165660858 -19.23857307434082 C 10.33380126953125 -16.559080123901367 17.654308319091797 -9.238572120666504 20.33380126953125 0.7614278197288513" stroke-width="0.0" fill="rgb(83, 153, 41)" opacity="0.825442" stroke="rgb(36, 187, 195)" stroke-opacity="0.1369215" stroke-linecap="round" stroke-linejoin="round"/>
    <path d="M 355.1990051269531 385.5773010253906 C 335.5658264160156 366.7599182128906 340.6976318359375 386.4833984375 345.2976379394531 469.60919189453125 C 363.05572509765625 435.8317565917969 340.3976135253906 413.11517333984375 337.36090087890625 487.1628112792969 C 355.3551940917969 485.75927734375 354.22088623046875 443.4454345703125 341.8548278808594 339.1683654785156 C 324.49078369140625 394.360107421875 338.40966796875 434.6611633300781 355.1990051269531 385.5773010253906" stroke-width="0.0" fill="rgb(99, 77, 55)" opacity="0.5452004"/>
    <path d="M 310.8883361816406 431.0617370605469 C 333.6565246582031 443.4798278808594 324.4310302734375 462.2496643066406 302.1222229003906 478.3497009277344 C 291.127197265625 442.7889404296875 272.0450134277344 388.69647216796875 315.8020935058594 400.9177551269531 C 330.4173889160156 457.86407470703125 309.5865783691406 452.8191833496094 293.32061767578125 418.0468444824219 C 313.652099609375 421.2804260253906 292.08746337890625 432.4479675292969 310.8883361816406 431.0617370605469" stroke-width="0.0" fill="rgb(237, 152, 0)" opacity="0.84541726"/>
    <path d="M 20.17926788330078 0.010987923480570316 C 17.499774932861328 10.010988235473633 10.179268836975098 17.33149528503418 0.1792685091495514 20.010988235473633 C -9.820731163024902 17.33149528503418 -17.141239166259766 10.010988235473633 -19.82073211669922 0.010987923480570316 C -17.141239166259766 -9.989011764526367 -9.820731163024902 -17.309518814086914 0.1792685091495514 -19.989011764526367 C 10.179268836975098 -17.309518814086914 17.499774932861328 -9.989011764526367 20.17926788330078 0.010987923480570316" stroke-width="0.0" fill="rgb(246, 125, 230)" opacity="0.92441636" stroke="rgb(98, 56, 228)" stroke-opacity="0.0124155525" stroke-linecap="round" stroke-linejoin="round"/>
    <path d="M 20.27370834350586 0.10856221616268158 C 17.594215393066406 10.108562469482422 10.273707389831543 17.42906951904297 0.2737075388431549 20.108562469482422 C -9.726292610168457 17.42906951904297 -17.046798706054688 10.108562469482422 -19.72629165649414 0.10856221616268158 C -17.046798706054688 -9.891437530517578 -9.726292610168457 -17.211944580078125 0.2737075388431549 -19.891437530517578 C 10.273707389831543 -17.211944580078125 17.594215393066406 -9.891437530517578 20.27370834350586 0.10856221616268158" stroke-width="0.0" fill="rgb(174, 176, 33)" opacity="0.8517658" stroke="rgb(142, 57, 121)" stroke-opacity="0.15031989" stroke-linecap="round" stroke-linejoin="round"/>
    <path d="M 194.67648315429688 381.5670471191406 C 217.79136657714844 374.7911071777344 241.10511779785156 388.5622863769531 219.87765502929688 355.4493713378906 C 191.1246337890625 356.1600646972656 176.03372192382812 337.0894775390625 199.36923217773438 369.8831787109375 C 194.47328186035156 374.99810791015625 200.5177764892578 385.0886535644531 195.8460235595703 408.3721008300781 C 197.94229125976562 396.2762451171875 188.62112426757812 388.4404296875 194.67648315429688 381.5670471191406" stroke-width="0.0" fill="rgb(75, 29, 72)" opacity="0.6768833"/>
    <path d="M 379.54046630859375 346.5482482910156 C 348.1969909667969 347.1864318847656 332.2366027832031 375.9920654296875 353.5826721191406 393.0324401855469 C 350.8704833984375 367.0828552246094 341.221923828125 359.3548278808594 334.3540344238281 378.7677001953125 C 360.7813720703125 416.5176696777344 350.3594665527344 384.1241455078125 382.39013671875 379.4818115234375 C 365.7087097167969 366.9363708496094 373.97821044921875 391.5354919433594 379.54046630859375 346.5482482910156" stroke-width="0.0" fill="rgb(77, 61, 110)" opacity="0.37437174"/>
    <path d="M 300.8927917480469 232.00900268554688 C 334.1392517089844 209.24176025390625 317.69207763671875 217.10313415527344 262.7579345703125 234.88304138183594 C 286.74530029296875 253.24195861816406 244.78579711914062 239.97213745117188 318.3228759765625 262.99072265625 C 303.122802734375 155.9182891845703 349.16015625 158.64910888671875 256.3470764160156 178.95513916015625 C 293.8717956542969 252.1339874267578 264.77667236328125 255.36386108398438 300.8927917480469 232.00900268554688" stroke-width="0.0" fill="rgb(143, 168, 57)" opacity="0.2916792"/>
    <path d="M 20.773910522460938 0.9657489657402039 C 18.094417572021484 10.96574878692627 10.773910522460938 18.286256790161133 0.7739105224609375 20.965749740600586 C -9.226089477539062 18.286256790161133 -16.54659652709961 10.96574878692627 -19.226089477539062 0.9657489657402039 C -16.54659652709961 -9.03425121307373 -9.226089477539062 -16.35475730895996 0.7739105224609375 -19.034250259399414 C 10.773910522460938 -16.35475730895996 18.094417572021484 -9.03425121307373 20.773910522460938 0.9657489657402039" stroke-width="0.0" fill="rgb(93, 158, 178)" opacity="0.74477255" stroke="rgb(39, 92, 36)" stroke-opacity="0.083488144" stroke-linecap="round" stroke-linejoin="round"/>
    <path d="M 512.0602416992188 329.5741271972656 C 397.7780456542969 404.1529541015625 392.3105773925781 404.80059814453125 346.237060546875 395.3575744628906 C 339.88067626953125 350.4179992675781 344.0218505859375 355.0458984375 344.6529541015625 332.93609619140625 C 342.7646179199219 319.289794921875 365.5479431152344 304.3813781738281 355.7710876464844 354.3200988769531 C 323.15802001953125 312.9866943359375 352.93365478515625 307.5528259277344 512.0602416992188 329.5741271972656" stroke-width="0.0" fill="rgb(66, 64, 67)" opacity="0.8069739"/>
    <path d="M 20.870187759399414 0.9195008277893066 C 18.19069480895996 10.919500350952148 10.870187759399414 18.240007400512695 0.8701876401901245 20.91950035095215 C -9.129812240600586 18.240007400512695 -16.450319290161133 10.919500350952148 -19.129812240600586 0.9195008277893066 C -16.450319290161133 -9.080499649047852 -9.129812240600586 -16.4010066986084 0.8701876401901245 -19.08049964904785 C 10.870187759399414 -16.4010066986084 18.19069480895996 -9.080499649047852 20.870187759399414 0.9195008277893066" stroke-width="0.0" fill="rgb(35, 99, 50)" opacity="0.7240034" stroke="rgb(90, 110, 250)" stroke-opacity="0.4580358" stroke-linecap="round" stroke-linejoin="round"/>
    <path d="M 250.9901885986328 329.6898498535156 C 281.6461181640625 349.2731018066406 263.94677734375 400.0669860839844 247.42672729492188 366.85150146484375 C 256.646728515625 367.89849853515625 250.6521453857422 367.6487731933594 161.45895385742188 351.9732971191406 C 159.7328643798828 341.7455749511719 220.44696044921875 375.093505859375 184.73500061035156 323.6228332519531 C 288.57440185546875 352.5873718261719 309.9092102050781 362.3935546875 250.9901885986328 329.6898498535156" stroke-width="0.0" fill="rgb(63, 157, 58)" opacity="0.31352705"/>
    <path d="M 200.38246154785156 367.3944091796875 C 159.88070678710938 371.40594482421875 174.4405975341797 402.0285339355469 193.15716552734375 419.04296875 C 218.3026123046875 370.06646728515625 187.0347137451172 383.2312316894531 209.97630310058594 395.098876953125 C 244.0661163330078 399.8808898925781 208.31724548339844 359.78802490234375 223.99607849121094 359.3262023925781 C 218.57740783691406 344.3304443359375 244.53057861328125 353.8074035644531 200.38246154785156 367.3944091796875" stroke-width="0.0" fill="rgb(62, 61, 3)" opacity="0.4994341"/>
    <path d="M 87.64871215820312 463.46221923828125 C 79.0736083984375 465.84210205078125 93.4938735961914 470.955810546875 91.14154815673828 462.658935546875 C 109.11572265625 476.6700744628906 89.71566009521484 463.1318054199219 86.5739517211914 456.52130126953125 C 119.01146697998047 463.0927429199219 49.74417495727539 448.2798156738281 211.9496612548828 497.3788757324219 C 117.7619857788086 455.0238037109375 81.3288345336914 461.6094970703125 87.64871215820312 463.46221923828125" stroke-width="0.0" fill="rgb(135, 43, 37)" opacity="0.19093888"/>
    <path d="M 221.8287811279297 381.09490966796875 C 253.63937377929688 389.86737060546875 250.88478088378906 399.2706604003906 271.8109130859375 378.0748291015625 C 216.46104431152344 396.3890380859375 213.406494140625 354.40850830078125 240.1026153564453 387.0514831542969 C 283.4933166503906 379.6431884765625 271.6357421875 338.7710876464844 178.84461975097656 344.1128234863281 C 212.04843139648438 365.9490051269531 217.2624053955078 396.7516174316406 221.8287811279297 381.09490966796875" stroke-width="0.0" fill="rgb(125, 98, 82)" opacity="0.6370426"/>
    <path d="M 378.6300354003906 495.0642395019531 C 328.85601806640625 474.5107421875 387.3584899902344 458.4408264160156 348.546875 492.3075256347656 C 441.0014953613281 493.0770263671875 414.642822265625 476.36907958984375 392.0875244140625 466.8179626464844 C 421.2080383300781 478.77703857421875 390.9961853027344 460.9517822265625 415.06817626953125 489.6658020019531 C 430.1708984375 459.1828918457031 370.2569274902344 481.1839904785156 378.6300354003906 495.0642395019531" stroke-width="0.0" fill="rgb(103, 69, 92)" opacity="0.18612231"/>
  </g>
</svg>
