<?xml version="1.0" ?>
<svg xmlns="http://www.w3.org/2000/svg" version="1.1" width="600" height="600">
  <defs/>
  <g>
    <path d="M 172.01315307617188 600.8282470703125 C 228.4055633544922 612.5467529296875 239.00985717773438 632.046875 233.65248107910156 643.8307495117188 C 221.25979614257812 629.3814697265625 238.52638244628906 604.6793212890625 224.72450256347656 605.3347778320312 C 234.67678833007812 598.4364624023438 232.35275268554688 607.6249389648438 212.95645141601562 621.9141845703125 C 196.7174835205078 608.4165649414062 181.4979248046875 605.78369140625 172.01315307617188 600.8282470703125" stroke-width="0.0" fill="rgb(162, 82, 0)" opacity="0.25880924"/>
    <path d="M 26.014774322509766 539.9229736328125 C 51.34366226196289 562.5045776367188 55.999237060546875 584.2744750976562 26.919506072998047 585.6439208984375 C 3.5917012691497803 604.5283203125 -16.748531341552734 609.9346313476562 -28.25265121459961 542.1689453125 C -40.58805465698242 522.918212890625 -36.10628890991211 525.8575439453125 -7.728294372558594 531.3134155273438 C 8.13840389251709 536.1788940429688 18.135099411010742 537.2427368164062 26.014774322509766 539.9229736328125" stroke-width="0.0" fill="rgb(70, 11, 6)" opacity="0.88281435"/>
    <path d="M 501.287109375 98.04177856445312 C 502.94842529296875 101.04857635498047 527.0490112304688 99.62614440917969 537.5392456054688 169.73275756835938 C 478.3453674316406 189.2708740234375 448.2063903808594 188.12171936035156 458.9501037597656 119.25820922851562 C 474.2400207519531 65.4343490600586 484.0431823730469 64.45934295654297 467.9647216796875 128.29344177246094 C 457.0093688964844 111.80596160888672 463.63165283203125 97.85630798339844 501.287109375 98.04177856445312" stroke-width="0.0" fill="rgb(42, 106, 159)" opacity="0.44971886"/>
    <path d="M 258.7784118652344 179.155517578125 C 276.3056640625 171.19700622558594 211.6946258544922 179.26222229003906 227.48214721679688 129.45132446289062 C 273.7476501464844 146.4381561279297 244.9135284423828 162.9061737060547 262.0270080566406 175.21780395507812 C 241.65438842773438 164.17848205566406 270.19659423828125 168.77792358398438 272.4336853027344 166.0404815673828 C 243.17889404296875 138.4968719482422 253.8953399658203 151.82046508789062 258.7784118652344 179.155517578125" stroke-width="0.0" fill="rgb(71, 75, 255)" opacity="0.17416911"/>
    <path d="M 226.79306030273438 480.2696838378906 C 233.20936584472656 407.8649597167969 292.3170471191406 420.50958251953125 303.5023498535156 451.6098327636719 C 296.8595275878906 498.0995178222656 296.7820129394531 493.4834289550781 260.75067138671875 478.3899841308594 C 274.06298828125 462.4696960449219 280.52789306640625 457.105712890625 308.18768310546875 494.9623107910156 C 241.3829345703125 482.1087646484375 246.6377716064453 497.9207458496094 226.79306030273438 480.2696838378906" stroke-width="0.0" fill="rgb(154, 35, 79)" opacity="0.2347573"/>
    <path d="M 389.53631591796875 101.3013687133789 C 394.58050537109375 113.58677673339844 365.489013671875 81.07483673095703 347.5406494140625 79.20709991455078 C 378.7631530761719 84.48567962646484 376.0177001953125 80.62218475341797 352.71563720703125 76.9032974243164 C 386.4908142089844 95.13060760498047 367.2897033691406 46.65226745605469 364.184326171875 82.26139831542969 C 350.30548095703125 81.76959228515625 341.82342529296875 100.72412109375 389.53631591796875 101.3013687133789" stroke-width="0.0" fill="rgb(255, 255, 255)" opacity="0.0"/>
    <path d="M 221.95376586914062 80.04205322265625 C 226.36048889160156 69.10272216796875 199.86761474609375 32.390586853027344 171.6686553955078 32.52228546142578 C 179.17054748535156 48.17109298706055 195.10145568847656 52.64422607421875 153.83212280273438 71.34622955322266 C 111.74361419677734 22.566307067871094 123.69111633300781 -0.40607354044914246 157.8214111328125 -5.858407497406006 C 153.23753356933594 55.968448638916016 163.97947692871094 50.764549255371094 221.95376586914062 80.04205322265625" stroke-width="0.0" fill="rgb(255, 236, 195)" opacity="0.0"/>
    <path d="M 56.14474868774414 576.4969482421875 C 59.6846923828125 585.4736938476562 57.56194305419922 605.8031005859375 11.411593437194824 602.919921875 C 4.676077365875244 619.1117553710938 -4.242544651031494 614.3702392578125 -13.981030464172363 569.2269897460938 C -2.642190933227539 502.0280456542969 2.4177300930023193 496.3537902832031 -21.767318725585938 542.1676635742188 C 21.996837615966797 530.668212890625 44.85793685913086 551.3192138671875 56.14474868774414 576.4969482421875" stroke-width="0.0" fill="rgb(2, 0, 1)" opacity="0.9371623"/>
    <path d="M 349.4134216308594 69.71180725097656 C 335.75 79.005615234375 331.13201904296875 87.33941650390625 344.0890197753906 109.22400665283203 C 338.0724182128906 111.59420013427734 354.7513732910156 119.17273712158203 352.46044921875 142.82681274414062 C 341.9554138183594 91.16048431396484 332.47296142578125 99.38370513916016 299.6163330078125 59.56973648071289 C 328.0679626464844 56.544254302978516 334.8551025390625 51.23860168457031 349.4134216308594 69.71180725097656" stroke-width="0.0" fill="rgb(255, 229, 244)" opacity="0.011227945"/>
    <path d="M 344.4946594238281 613.5278930664062 C 375.77294921875 583.8676147460938 353.877685546875 573.9520263671875 416.7059631347656 564.9920654296875 C 406.446044921875 592.8693237304688 373.9519348144531 609.8955078125 349.307373046875 600.6005859375 C 386.078125 582.7389526367188 384.5202941894531 573.2814331054688 344.6485595703125 551.0210571289062 C 366.66864013671875 535.6613159179688 354.9593811035156 561.804443359375 344.4946594238281 613.5278930664062" stroke-width="0.0" fill="rgb(255, 233, 255)" opacity="0.00030712428"/>
    <path d="M 290.6025695800781 165.53660583496094 C 295.7771301269531 191.8523712158203 278.1826171875 203.83763122558594 215.23890686035156 243.63046264648438 C 187.0401611328125 217.0093231201172 163.50132751464844 198.78659057617188 164.03872680664062 173.20054626464844 C 194.29379272460938 118.07788848876953 202.9711456298828 107.32816314697266 223.22946166992188 91.9980697631836 C 278.819580078125 97.59961700439453 283.7300109863281 126.50025939941406 290.6025695800781 165.53660583496094" stroke-width="0.0" fill="rgb(0, 109, 3)" opacity="1.0"/>
    <path d="M 47.77738571166992 428.9139709472656 C 48.62685012817383 448.8737487792969 33.827735900878906 447.6310729980469 52.123416900634766 442.28216552734375 C 82.3636703491211 459.1568908691406 68.63483428955078 440.95599365234375 25.159616470336914 474.376953125 C 75.52894592285156 486.3081970214844 73.13970184326172 476.23443603515625 70.46022033691406 482.2737731933594 C 75.75724029541016 438.4136962890625 90.26972198486328 423.490234375 47.77738571166992 428.9139709472656" stroke-width="0.0" fill="rgb(252, 254, 144)" opacity="0.01080824"/>
    <path d="M -24.975147247314453 518.451904296875 C 6.438951015472412 538.4688720703125 22.159927368164062 550.8897705078125 11.209444046020508 562.7767333984375 C -37.58180236816406 535.7964477539062 -41.5024299621582 525.865234375 -46.30926513671875 494.6065673828125 C -21.52103614807129 472.8843994140625 -9.574368476867676 469.5860290527344 -36.75828170776367 477.3417053222656 C -23.25840187072754 478.9833679199219 -4.5030622482299805 482.93194580078125 -24.975147247314453 518.451904296875" stroke-width="0.0" fill="rgb(23, 13, 28)" opacity="0.94297165"/>
    <path d="M 292.9358215332031 15.874581336975098 C 239.1159210205078 66.23678588867188 195.86843872070312 46.44377517700195 205.6316375732422 37.97911834716797 C 215.5985870361328 61.521907806396484 211.16787719726562 15.518206596374512 218.2686004638672 42.604984283447266 C 213.43125915527344 45.50812911987305 217.48965454101562 47.68909454345703 203.47088623046875 28.517148971557617 C 211.79501342773438 -9.124283790588379 277.6037902832031 -38.69601058959961 292.9358215332031 15.874581336975098" stroke-width="0.0" fill="rgb(87, 113, 238)" opacity="0.17717236"/>
    <path d="M 191.90037536621094 230.72592163085938 C 221.17471313476562 203.79942321777344 222.91758728027344 208.91299438476562 214.16139221191406 157.6310577392578 C 198.50730895996094 160.68719482421875 164.96112060546875 155.4077911376953 185.45330810546875 164.95423889160156 C 186.7752685546875 215.29095458984375 196.54315185546875 220.87255859375 181.42630004882812 211.32278442382812 C 152.5546112060547 217.4278564453125 188.56776428222656 210.08657836914062 191.90037536621094 230.72592163085938" stroke-width="0.0" fill="rgb(150, 179, 0)" opacity="0.0067788153"/>
    <path d="M 42.64331817626953 431.27008056640625 C 70.08344268798828 459.5412902832031 64.05618286132812 460.8908386230469 98.01808166503906 429.16851806640625 C 73.33126068115234 430.0863342285156 85.16472625732422 402.013427734375 59.79109191894531 422.0155944824219 C 47.27113723754883 406.2143249511719 37.714168548583984 426.9928894042969 59.28278732299805 422.36273193359375 C 42.34781265258789 419.7649841308594 27.56905746459961 413.20111083984375 42.64331817626953 431.27008056640625" stroke-width="0.0" fill="rgb(169, 246, 113)" opacity="0.12742028"/>
    <path d="M 319.899658203125 258.5102844238281 C 317.8643798828125 211.46694946289062 320.6678466796875 242.8739013671875 339.41717529296875 210.87493896484375 C 310.6949462890625 202.82757568359375 306.75836181640625 210.40333557128906 282.7745666503906 261.89306640625 C 244.8609619140625 300.9965515136719 258.86639404296875 332.425048828125 290.7564697265625 323.9033508300781 C 305.63116455078125 267.1629333496094 304.7463073730469 252.19305419921875 319.899658203125 258.5102844238281" stroke-width="0.0" fill="rgb(118, 76, 120)" opacity="0.2697089"/>
    <path d="M 164.2610626220703 249.08242797851562 C 168.75885009765625 357.074951171875 140.18006896972656 323.69561767578125 174.29351806640625 318.6202392578125 C 194.44485473632812 280.5155334472656 212.80372619628906 249.4959259033203 188.7878875732422 262.82183837890625 C 181.19003295898438 312.1930236816406 195.29774475097656 308.8828430175781 278.9248962402344 320.3083801269531 C 289.67327880859375 226.1219482421875 274.48406982421875 239.72836303710938 164.2610626220703 249.08242797851562" stroke-width="0.0" fill="rgb(138, 200, 178)" opacity="0.031868946"/>
    <path d="M 205.3860626220703 19.015031814575195 C 202.56309509277344 77.83749389648438 228.89122009277344 122.71424865722656 177.72805786132812 149.10606384277344 C 115.79566955566406 70.34335327148438 135.40342712402344 74.63980865478516 140.4668731689453 96.71588897705078 C 138.88104248046875 72.46493530273438 132.9576873779297 105.5301284790039 137.6374053955078 67.26205444335938 C 114.00873565673828 29.794841766357422 101.24508666992188 29.833208084106445 205.3860626220703 19.015031814575195" stroke-width="0.0" fill="rgb(249, 234, 150)" opacity="0.0"/>
    <path d="M 399.2496643066406 540.84765625 C 396.1087951660156 546.7053833007812 385.374755859375 546.7728271484375 381.78179931640625 560.7806396484375 C 347.04608154296875 587.1132202148438 318.0655212402344 591.4649658203125 306.2156066894531 542.0559692382812 C 382.8121032714844 530.7613525390625 395.2254333496094 516.187744140625 422.3598327636719 495.38641357421875 C 437.8374328613281 507.2744445800781 433.16900634765625 533.8023071289062 399.2496643066406 540.84765625" stroke-width="0.0" fill="rgb(52, 65, 251)" opacity="0.38466474"/>
    <path d="M 492.59344482421875 546.5570678710938 C 478.9771423339844 500.6539611816406 480.71307373046875 499.3365173339844 505.46002197265625 503.68243408203125 C 510.8058776855469 566.2938232421875 507.3065185546875 547.89453125 477.8691711425781 533.3355102539062 C 483.6775817871094 523.5039672851562 477.199462890625 495.4795837402344 459.10247802734375 493.458984375 C 499.0870361328125 516.8529052734375 504.4847412109375 556.95263671875 492.59344482421875 546.5570678710938" stroke-width="0.0" fill="rgb(254, 183, 255)" opacity="0.0"/>
    <path d="M 457.2588806152344 526.3565063476562 C 473.9339904785156 491.8531799316406 470.6402587890625 508.73199462890625 485.200927734375 522.08203125 C 525.6121826171875 538.1578979492188 515.7634887695312 532.6174926757812 488.02923583984375 501.4363708496094 C 480.0882263183594 451.2080383300781 449.12261962890625 466.32977294921875 466.8701171875 504.3255920410156 C 488.5831604003906 489.4802551269531 460.7341613769531 490.9646301269531 457.2588806152344 526.3565063476562" stroke-width="0.0" fill="rgb(254, 106, 254)" opacity="0.0022533159"/>
    <path d="M 87.79239654541016 187.66452026367188 C 110.70436096191406 189.83412170410156 106.22283172607422 187.72119140625 113.39972686767578 245.18380737304688 C 90.17562103271484 228.29696655273438 93.02902221679688 190.8429718017578 75.79537963867188 179.87249755859375 C 76.88491821289062 186.9359588623047 94.10234069824219 179.4739227294922 105.93045806884766 190.4882354736328 C 73.64962768554688 189.8883819580078 90.22079467773438 206.5620880126953 87.79239654541016 187.66452026367188" stroke-width="0.0" fill="rgb(253, 244, 244)" opacity="0.032497212"/>
    <path d="M 221.42562866210938 611.6318359375 C 222.53977966308594 591.8668823242188 227.03094482421875 609.9172973632812 204.01333618164062 638.6587524414062 C 189.0152130126953 631.1427612304688 174.62420654296875 614.8781127929688 149.38485717773438 601.9851684570312 C 186.28515625 596.2686157226562 207.48741149902344 610.1696166992188 225.12265014648438 623.045166015625 C 213.72467041015625 605.0662841796875 234.39599609375 598.8348388671875 221.42562866210938 611.6318359375" stroke-width="0.0" fill="rgb(16, 0, 0)" opacity="0.9370273"/>
    <path d="M 223.49462890625 33.02167892456055 C 197.88693237304688 49.76368713378906 211.06369018554688 54.14139938354492 211.10552978515625 24.088462829589844 C 197.18890380859375 28.070709228515625 195.92857360839844 27.877605438232422 180.01307678222656 17.441295623779297 C 169.63800048828125 -26.251941680908203 157.5870819091797 -42.62052536010742 230.293701171875 -59.0930290222168 C 258.9126892089844 -17.152751922607422 245.42294311523438 8.851065635681152 223.49462890625 33.02167892456055" stroke-width="0.0" fill="rgb(157, 255, 92)" opacity="0.43330047"/>
    <path d="M 556.2578125 179.52394104003906 C 526.3580932617188 145.31796264648438 546.7830810546875 161.37399291992188 528.3447265625 162.01837158203125 C 493.73748779296875 174.61595153808594 508.89959716796875 159.35809326171875 548.573974609375 164.52471923828125 C 535.6582641601562 168.81427001953125 523.20849609375 178.30950927734375 528.69091796875 125.80441284179688 C 578.7792358398438 120.45317840576172 597.6687622070312 151.30227661132812 556.2578125 179.52394104003906" stroke-width="0.0" fill="rgb(254, 103, 157)" opacity="0.0017149247"/>
    <path d="M 472.3601379394531 446.911865234375 C 454.79150390625 492.2210693359375 457.6324768066406 513.3358154296875 389.086669921875 541.2713012695312 C 324.1561279296875 559.5933227539062 355.6270446777344 549.4732666015625 321.0980224609375 478.2102355957031 C 337.4022216796875 392.67822265625 351.0823974609375 393.52764892578125 445.0988464355469 396.5323791503906 C 437.0774841308594 406.2641906738281 441.18896484375 416.7020263671875 472.3601379394531 446.911865234375" stroke-width="0.0" fill="rgb(0, 135, 23)" opacity="0.98842597"/>
    <path d="M 394.0922546386719 300.38446044921875 C 352.07928466796875 294.37359619140625 344.92987060546875 332.9826354980469 377.2091369628906 341.5888977050781 C 375.8685302734375 314.7055358886719 379.4747619628906 333.5629577636719 401.5601806640625 297.0259704589844 C 378.4971923828125 278.2611389160156 377.50885009765625 315.08447265625 385.5090637207031 332.88726806640625 C 369.6849060058594 285.5689697265625 396.994873046875 327.1442565917969 394.0922546386719 300.38446044921875" stroke-width="0.0" fill="rgb(117, 105, 134)" opacity="0.24015291"/>
    <path d="M 127.96587371826172 350.1353454589844 C 109.76671600341797 484.93218994140625 74.23489379882812 476.9825744628906 -14.581557273864746 422.3749084472656 C 1.8989930152893066 408.6649169921875 33.035118103027344 387.2428283691406 20.010881423950195 389.690673828125 C 38.21751022338867 380.234619140625 49.05322265625 368.0213928222656 69.2218246459961 360.84002685546875 C 108.38573455810547 332.3382568359375 121.79887390136719 317.12982177734375 127.96587371826172 350.1353454589844" stroke-width="0.0" fill="rgb(0, 154, 11)" opacity="0.99958545"/>
    <path d="M 427.6911926269531 115.16238403320312 C 401.0854187011719 128.59188842773438 387.6065979003906 144.46414184570312 385.13055419921875 129.79818725585938 C 402.0307312011719 141.42405700683594 409.7071228027344 128.99685668945312 401.235595703125 78.11064147949219 C 389.0129699707031 66.75447845458984 377.2587890625 44.913814544677734 378.0633850097656 73.87593078613281 C 394.5418701171875 98.50422668457031 428.46728515625 101.42186737060547 427.6911926269531 115.16238403320312" stroke-width="0.0" fill="rgb(225, 233, 217)" opacity="0.0010746849"/>
    <path d="M 228.6946258544922 82.1904525756836 C 227.04055786132812 33.57805633544922 231.7652130126953 38.3796272277832 183.5030517578125 42.94895935058594 C 218.54702758789062 46.52368927001953 187.84774780273438 74.9761962890625 223.66212463378906 114.06246948242188 C 226.93072509765625 88.74279022216797 231.06996154785156 78.94155883789062 245.73484802246094 55.68284225463867 C 197.65390014648438 69.35347747802734 201.3536834716797 81.38224029541016 228.6946258544922 82.1904525756836" stroke-width="0.0" fill="rgb(223, 228, 189)" opacity="0.0032859794"/>
    <path d="M 509.22650146484375 361.71435546875 C 512.0191040039062 383.305908203125 498.21893310546875 349.2461853027344 484.81451416015625 323.15533447265625 C 523.682861328125 324.12042236328125 520.9998779296875 333.5645446777344 496.7364501953125 327.9886169433594 C 465.30975341796875 318.6376953125 476.5202941894531 288.3035583496094 518.0824584960938 320.0240783691406 C 505.0010070800781 307.4152526855469 523.7772216796875 326.3941650390625 509.22650146484375 361.71435546875" stroke-width="0.0" fill="rgb(90, 255, 70)" opacity="0.08390727"/>
    <path d="M 575.0783081054688 367.81683349609375 C 545.5692749023438 386.7180480957031 572.2568359375 406.88970947265625 551.6170654296875 430.96075439453125 C 539.5859985351562 393.755126953125 516.19921875 343.7225036621094 521.8529052734375 351.784423828125 C 524.3306274414062 361.78173828125 528.7578125 347.5759582519531 550.1907348632812 355.5259094238281 C 531.8259887695312 349.822021484375 557.0077514648438 336.9913024902344 575.0783081054688 367.81683349609375" stroke-width="0.0" fill="rgb(57, 170, 2)" opacity="0.63488346"/>
    <path d="M 564.9028930664062 450.9830322265625 C 540.9901123046875 462.94708251953125 519.2019653320312 475.2725830078125 506.8350524902344 476.7030334472656 C 518.3185424804688 469.5037536621094 480.9544372558594 481.4731140136719 488.70904541015625 472.9192199707031 C 495.01971435546875 433.8218994140625 516.6953125 436.6191711425781 551.951904296875 433.0870361328125 C 571.5272216796875 437.45458984375 579.7047729492188 426.2774963378906 564.9028930664062 450.9830322265625" stroke-width="0.0" fill="rgb(85, 89, 252)" opacity="0.31543538"/>
    <path d="M 354.4983215332031 -34.60909652709961 C 354.66766357421875 -24.341482162475586 353.88763427734375 -9.478182792663574 353.7999267578125 -7.0399088859558105 C 331.79779052734375 -6.518897533416748 336.50640869140625 -6.744751930236816 342.08660888671875 -6.925472736358643 C 335.24578857421875 -3.266477584838867 331.23150634765625 -12.3557710647583 338.8048095703125 -16.72283363342285 C 383.4194641113281 -22.636991500854492 389.0796813964844 -16.272293090820312 354.4983215332031 -34.60909652709961" stroke-width="0.0" fill="rgb(99, 117, 0)" opacity="0.3954859"/>
    <path d="M 369.0536193847656 397.3377685546875 C 376.1402587890625 446.63226318359375 341.8759765625 492.915283203125 306.8155517578125 485.2546081542969 C 297.1204528808594 468.2164611816406 293.0845031738281 480.17864990234375 310.4586486816406 424.2843322753906 C 308.12225341796875 343.9048767089844 296.560546875 352.0558776855469 314.53228759765625 372.6206359863281 C 351.525146484375 391.86224365234375 374.4075927734375 387.1571350097656 369.0536193847656 397.3377685546875" stroke-width="0.0" fill="rgb(102, 0, 132)" opacity="0.6129081"/>
    <path d="M 231.083984375 454.9554748535156 C 235.06419372558594 466.082275390625 206.09336853027344 466.73150634765625 238.62283325195312 406.8741760253906 C 236.91629028320312 377.4848937988281 191.74609375 347.22515869140625 120.63616180419922 407.2619323730469 C 110.17257690429688 513.5280151367188 149.58470153808594 520.7554321289062 188.24139404296875 527.8305053710938 C 219.67568969726562 411.71417236328125 242.53338623046875 467.2876281738281 231.083984375 454.9554748535156" stroke-width="0.0" fill="rgb(1, 145, 18)" opacity="0.9850469"/>
    <path d="M 120.1577377319336 241.33908081054688 C 68.95697784423828 262.8329772949219 55.64582443237305 245.67477416992188 32.692543029785156 246.82676696777344 C 43.02449035644531 255.14566040039062 22.4031982421875 243.7308807373047 6.149366855621338 228.37210083007812 C -5.56748104095459 175.29119873046875 4.6518683433532715 191.60906982421875 32.67988586425781 198.4375457763672 C 104.79212188720703 195.88360595703125 151.8140411376953 186.1607666015625 120.1577377319336 241.33908081054688" stroke-width="0.0" fill="rgb(253, 219, 246)" opacity="0.0065077827"/>
    <path d="M 592.8051147460938 418.37677001953125 C 544.33740234375 431.9676208496094 551.2776489257812 408.353271484375 533.9515991210938 393.6841735839844 C 504.5197448730469 399.4869689941406 514.6290283203125 382.17437744140625 487.7082824707031 323.9830017089844 C 442.4563293457031 303.5502014160156 471.47735595703125 306.72613525390625 560.01904296875 284.0367431640625 C 657.7071533203125 274.11785888671875 695.6541748046875 329.086181640625 592.8051147460938 418.37677001953125" stroke-width="0.0" fill="rgb(110, 127, 193)" opacity="0.2288273"/>
    <path d="M 94.78512573242188 404.8441467285156 C 112.53657531738281 417.7410888671875 68.10650634765625 351.5549621582031 158.22178649902344 345.14825439453125 C 201.15432739257812 533.7028198242188 163.03907775878906 529.5604858398438 111.9130630493164 492.5513610839844 C 84.56848907470703 474.9614562988281 90.24589538574219 483.7290954589844 53.659854888916016 452.9217834472656 C 89.26171875 399.3105773925781 97.11100769042969 426.8828430175781 94.78512573242188 404.8441467285156" stroke-width="0.0" fill="rgb(8, 146, 22)" opacity="0.9909734"/>
    <path d="M 631.9149780273438 553.6566162109375 C 609.3439331054688 611.7220458984375 602.05810546875 612.6483764648438 498.1800842285156 613.3693237304688 C 506.9302978515625 601.3274536132812 534.8067016601562 603.6024780273438 585.9213256835938 596.9869995117188 C 579.2781372070312 595.37109375 571.5712280273438 610.3858642578125 597.4152221679688 602.8208618164062 C 626.6387939453125 548.0494384765625 616.4437255859375 529.3949584960938 631.9149780273438 553.6566162109375" stroke-width="0.0" fill="rgb(120, 107, 40)" opacity="0.32703307"/>
    <path d="M 254.3191680908203 607.2727661132812 C 265.9127197265625 595.8436889648438 262.64422607421875 619.083984375 226.15859985351562 620.3993530273438 C 205.8778533935547 609.2669677734375 201.3903045654297 610.3121337890625 220.465576171875 603.866943359375 C 220.86758422851562 601.7906494140625 248.50535583496094 597.5267333984375 255.14920043945312 612.5664672851562 C 250.01890563964844 610.5928955078125 242.99107360839844 603.14453125 254.3191680908203 607.2727661132812" stroke-width="0.0" fill="rgb(186, 141, 89)" opacity="0.06091805"/>
    <path d="M 635.18994140625 138.16195678710938 C 636.2243041992188 262.370849609375 570.879638671875 246.72808837890625 480.261474609375 262.88330078125 C 434.2988586425781 253.9682159423828 422.4684143066406 223.11448669433594 463.44476318359375 222.3098907470703 C 458.5893249511719 136.10345458984375 455.5002746582031 141.07542419433594 501.62200927734375 172.8007049560547 C 512.9929809570312 186.5371551513672 546.1066284179688 136.76109313964844 635.18994140625 138.16195678710938" stroke-width="0.0" fill="rgb(89, 109, 196)" opacity="0.31364825"/>
    <path d="M 332.1119384765625 17.396677017211914 C 292.52227783203125 3.993100166320801 278.5831604003906 10.378917694091797 267.7240295410156 90.3187026977539 C 354.6358642578125 123.79939270019531 381.0610046386719 119.53863525390625 409.2787780761719 80.78437805175781 C 400.1254577636719 10.86618709564209 363.2601318359375 22.358369827270508 340.6653747558594 6.882636547088623 C 315.96649169921875 13.544361114501953 334.6610412597656 8.08406925201416 332.1119384765625 17.396677017211914" stroke-width="0.0" fill="rgb(254, 252, 251)" opacity="0.00020090141"/>
    <path d="M 548.7736206054688 488.2362976074219 C 506.5119934082031 450.61834716796875 489.7757568359375 432.3603820800781 476.1424865722656 474.7612609863281 C 495.8164367675781 506.5362243652344 522.8107299804688 485.3650207519531 526.8984375 451.9745178222656 C 510.4378356933594 419.4578857421875 533.2820434570312 441.8668212890625 524.835693359375 478.12762451171875 C 506.7046813964844 507.16943359375 520.5609130859375 510.9136047363281 548.7736206054688 488.2362976074219" stroke-width="0.0" fill="rgb(182, 149, 243)" opacity="0.0065152217"/>
    <path d="M 498.73687744140625 466.9252014160156 C 505.1568908691406 469.9910888671875 479.51397705078125 470.33721923828125 483.65087890625 452.91754150390625 C 482.0172119140625 482.3317565917969 475.96551513671875 472.283935546875 472.4885559082031 468.0686950683594 C 483.2095031738281 471.1490173339844 470.0527038574219 467.0201416015625 497.88818359375 449.0081787109375 C 495.8551940917969 456.9396057128906 498.92822265625 474.3564147949219 498.73687744140625 466.9252014160156" stroke-width="0.0" fill="rgb(138, 163, 227)" opacity="0.41922873"/>
    <path d="M 525.3709716796875 365.8341369628906 C 510.19708251953125 411.50897216796875 510.5996398925781 422.7509460449219 470.57666015625 425.8230285644531 C 462.05108642578125 437.05389404296875 438.4054870605469 400.7453918457031 440.6563415527344 431.8334655761719 C 459.3817138671875 365.3957824707031 451.2358703613281 363.7985534667969 492.7081298828125 338.2674255371094 C 520.7870483398438 335.6818542480469 528.0489501953125 327.343505859375 525.3709716796875 365.8341369628906" stroke-width="0.0" fill="rgb(59, 7, 120)" opacity="0.9835603"/>
    <path d="M 219.6957550048828 21.837472915649414 C 229.1833038330078 38.83256149291992 216.5411376953125 54.67158889770508 220.94471740722656 47.41753005981445 C 214.0207977294922 50.81672668457031 209.1178741455078 42.426326751708984 208.47808837890625 49.05861282348633 C 197.78404235839844 25.84495735168457 136.42967224121094 6.79503870010376 124.12161254882812 -23.006790161132812 C 243.50308227539062 -18.381759643554688 220.68763732910156 10.733673095703125 219.6957550048828 21.837472915649414" stroke-width="0.0" fill="rgb(203, 255, 121)" opacity="0.94256216"/>
    <path d="M 224.8062744140625 364.3574523925781 C 222.39968872070312 364.7051696777344 209.87600708007812 363.523681640625 186.3456268310547 350.77325439453125 C 136.11669921875 341.2812805175781 107.8664321899414 367.21832275390625 104.1285400390625 355.2098388671875 C 108.38471221923828 255.37791442871094 128.34059143066406 227.57614135742188 170.8202362060547 262.91278076171875 C 192.2587127685547 327.3865966796875 206.52490234375 348.74493408203125 224.8062744140625 364.3574523925781" stroke-width="0.0" fill="rgb(2, 149, 1)" opacity="0.9990968"/>
    <path d="M 113.49835968017578 328.012939453125 C 118.77058410644531 294.18121337890625 117.42131805419922 295.9369201660156 88.2159194946289 288.9169921875 C 92.42610168457031 286.7117614746094 70.12960052490234 289.3794250488281 66.94960021972656 277.36151123046875 C 83.74982452392578 271.797607421875 84.00302124023438 274.66888427734375 62.50160598754883 296.565673828125 C 57.86360168457031 311.69970703125 100.59908294677734 298.6869201660156 113.49835968017578 328.012939453125" stroke-width="0.0" fill="rgb(253, 223, 216)" opacity="0.007824356"/>
    <path d="M 58.72925567626953 356.6178283691406 C 53.819679260253906 330.06732177734375 61.50989532470703 364.4431457519531 44.13925552368164 361.9395751953125 C 42.54961013793945 343.70654296875 48.873355865478516 342.20355224609375 64.50961303710938 347.3584899902344 C 35.093536376953125 352.6340026855469 26.444087982177734 352.3473205566406 53.72237777709961 360.91595458984375 C 66.17951202392578 374.21441650390625 85.56495666503906 329.12603759765625 58.72925567626953 356.6178283691406" stroke-width="0.0" fill="rgb(186, 150, 90)" opacity="0.0"/>
    <path d="M 292.60858154296875 175.64187622070312 C 294.010009765625 207.21104431152344 294.3648986816406 210.537841796875 324.9713134765625 174.9959259033203 C 312.4515380859375 165.53579711914062 296.7447814941406 162.64669799804688 323.46624755859375 207.5062713623047 C 354.7270812988281 199.6791229248047 353.7735290527344 186.74923706054688 336.3815612792969 200.21890258789062 C 290.7319641113281 199.96075439453125 267.2953796386719 202.74497985839844 292.60858154296875 175.64187622070312" stroke-width="0.0" fill="rgb(237, 88, 253)" opacity="0.039695874"/>
    <path d="M 93.4708480834961 590.7709350585938 C 115.66329956054688 648.8143310546875 118.90699005126953 666.2129516601562 102.47941589355469 674.7229614257812 C -6.865264892578125 606.7129516601562 -13.57000732421875 598.849853515625 -62.21759796142578 564.22607421875 C -54.550899505615234 521.6229858398438 -30.138113021850586 511.7950439453125 11.29710865020752 535.0442504882812 C 48.2085075378418 555.8504028320312 74.32377624511719 566.0870971679688 93.4708480834961 590.7709350585938" stroke-width="0.0" fill="rgb(1, 0, 0)" opacity="0.9982533"/>
    <path d="M 192.5753631591797 112.13098907470703 C 186.33859252929688 213.6182861328125 159.10496520996094 209.70065307617188 102.17047119140625 176.94076538085938 C 89.77306365966797 169.48239135742188 94.64376068115234 135.6331787109375 101.5364761352539 115.6941909790039 C 77.86624145507812 123.35746002197266 106.92158508300781 111.2664566040039 97.09983825683594 145.46011352539062 C 67.6053466796875 104.83710479736328 117.48856353759766 108.60189056396484 192.5753631591797 112.13098907470703" stroke-width="0.0" fill="rgb(247, 205, 149)" opacity="0.0"/>
    <path d="M 634.9379272460938 458.04156494140625 C 583.3721923828125 497.4181823730469 564.7569580078125 507.60595703125 546.3687133789062 502.23541259765625 C 527.57666015625 451.2781677246094 534.765625 435.4107666015625 572.2130126953125 419.2915344238281 C 575.0372924804688 388.7142333984375 586.495361328125 403.35821533203125 617.7194213867188 412.25390625 C 594.6664428710938 416.4642333984375 621.8290405273438 425.388671875 634.9379272460938 458.04156494140625" stroke-width="0.0" fill="rgb(254, 185, 255)" opacity="0.011619897"/>
    <path d="M 241.62533569335938 402.99114990234375 C 220.48558044433594 477.5838928222656 232.33102416992188 485.404052734375 227.17404174804688 479.04644775390625 C 186.76109313964844 477.1112365722656 168.6818084716797 477.72784423828125 195.87217712402344 484.2493896484375 C 229.90538024902344 424.3397521972656 226.93173217773438 398.648193359375 210.98080444335938 392.60845947265625 C 233.64138793945312 392.88934326171875 231.31301879882812 393.7247314453125 241.62533569335938 402.99114990234375" stroke-width="0.0" fill="rgb(115, 146, 36)" opacity="0.72175616"/>
    <path d="M 611.2166748046875 405.5416259765625 C 528.1567993164062 440.6092834472656 518.7017822265625 455.63134765625 486.8348693847656 471.3648681640625 C 452.7756042480469 489.1386413574219 407.34375 473.5408630371094 468.7903137207031 417.356201171875 C 484.1440124511719 382.313232421875 484.0404357910156 367.0705871582031 548.3739013671875 373.0614013671875 C 550.6351318359375 356.9543151855469 597.2460327148438 349.4051818847656 611.2166748046875 405.5416259765625" stroke-width="0.0" fill="rgb(0, 125, 36)" opacity="0.9901079"/>
    <path d="M 150.02093505859375 278.21441650390625 C 174.0438232421875 226.78211975097656 140.64036560058594 231.54856872558594 162.75115966796875 233.60079956054688 C 122.09120178222656 246.13751220703125 123.36864471435547 227.37464904785156 114.7186279296875 242.18267822265625 C 73.99974060058594 263.358154296875 89.8266372680664 265.8466491699219 81.99559020996094 238.5513153076172 C 89.37793731689453 242.4047393798828 99.59383392333984 265.8711853027344 150.02093505859375 278.21441650390625" stroke-width="0.0" fill="rgb(185, 170, 170)" opacity="0.0"/>
    <path d="M 269.8557434082031 330.1808166503906 C 314.9349670410156 374.50653076171875 263.6578674316406 408.14605712890625 229.6508331298828 424.4622497558594 C 213.42294311523438 417.23162841796875 189.46575927734375 405.4127502441406 142.37258911132812 382.47576904296875 C 150.0913543701172 331.5340576171875 214.04515075683594 321.1141052246094 216.87918090820312 356.19036865234375 C 207.73692321777344 341.5499267578125 194.7965545654297 332.93798828125 269.8557434082031 330.1808166503906" stroke-width="0.0" fill="rgb(205, 120, 197)" opacity="0.9979454"/>
    <path d="M 98.56963348388672 401.1669921875 C 68.59532165527344 411.0049133300781 34.3334846496582 399.8171081542969 60.55670166015625 388.9223937988281 C 23.502500534057617 403.22760009765625 38.11272048950195 394.5141296386719 45.5346794128418 358.0416564941406 C 33.33359909057617 416.9791564941406 18.06694221496582 389.7469177246094 30.193313598632812 375.6116027832031 C 96.43549346923828 365.0604553222656 131.80882263183594 361.63836669921875 98.56963348388672 401.1669921875" stroke-width="0.0" fill="rgb(5, 140, 32)" opacity="0.013859774"/>
    <path d="M 394.62359619140625 372.2747497558594 C 337.888916015625 506.38818359375 249.3919219970703 454.3175048828125 215.353515625 424.19482421875 C 190.48255920410156 407.5708923339844 187.14918518066406 415.988525390625 198.31849670410156 394.1792297363281 C 181.51504516601562 323.6088562011719 186.16172790527344 337.4278869628906 247.21299743652344 296.70135498046875 C 281.3155822753906 319.1686706542969 302.6941223144531 329.8461608886719 394.62359619140625 372.2747497558594" stroke-width="0.0" fill="rgb(170, 143, 159)" opacity="1.0"/>
    <path d="M 625.9678344726562 535.5859375 C 617.8095703125 579.2259521484375 615.134765625 589.0042114257812 646.7202758789062 574.33642578125 C 623.0164184570312 557.5678100585938 610.7552490234375 550.1790771484375 602.9005737304688 555.6116333007812 C 609.2857666015625 552.4702758789062 632.211669921875 569.7742309570312 623.189453125 551.4613647460938 C 601.8016967773438 529.0405883789062 619.6600341796875 529.0745849609375 625.9678344726562 535.5859375" stroke-width="0.0" fill="rgb(77, 56, 3)" opacity="0.68881935"/>
    <path d="M 82.33625030517578 425.2093811035156 C 36.65727615356445 427.0788879394531 42.92675018310547 446.83734130859375 16.675731658935547 398.4896545410156 C 77.02650451660156 390.191162109375 43.45607376098633 397.2735290527344 51.08449935913086 411.4353942871094 C 42.64104080200195 443.257080078125 19.238855361938477 429.1520690917969 -3.7042181491851807 399.0587158203125 C 47.62224197387695 357.783935546875 70.39082336425781 401.486328125 82.33625030517578 425.2093811035156" stroke-width="0.0" fill="rgb(80, 142, 0)" opacity="0.00014778796"/>
    <path d="M 540.6494750976562 185.27345275878906 C 541.758056640625 214.16978454589844 534.1773071289062 207.3501434326172 461.70294189453125 261.0589599609375 C 425.343017578125 222.16180419921875 402.0113220214844 225.65748596191406 393.7576904296875 180.0167694091797 C 425.65264892578125 44.52804946899414 474.2855529785156 34.355892181396484 527.105224609375 91.68403625488281 C 542.356201171875 139.13143920898438 545.2529296875 158.44845581054688 540.6494750976562 185.27345275878906" stroke-width="0.0" fill="rgb(0, 108, 5)" opacity="1.0"/>
    <path d="M 467.947265625 443.9201965332031 C 480.8316650390625 450.05560302734375 473.2657470703125 482.8240966796875 473.84393310546875 465.8159484863281 C 441.2799377441406 486.1557312011719 420.28509521484375 499.33685302734375 437.0174865722656 460.44281005859375 C 497.0965881347656 482.96343994140625 483.3968200683594 492.4583740234375 426.1373291015625 513.5741577148438 C 396.47686767578125 469.3968505859375 434.0483093261719 464.4066162109375 467.947265625 443.9201965332031" stroke-width="0.0" fill="rgb(34, 67, 84)" opacity="0.11452275"/>
    <path d="M 619.5894165039062 248.5573272705078 C 622.2557983398438 288.13287353515625 629.7075805664062 302.4955749511719 669.9329833984375 240.2993927001953 C 621.875244140625 214.9156036376953 617.3662719726562 224.72499084472656 595.3418579101562 188.64596557617188 C 542.3331909179688 183.55520629882812 549.5377197265625 214.4373016357422 601.720947265625 223.20660400390625 C 602.8899536132812 239.65499877929688 608.1842651367188 248.86245727539062 619.5894165039062 248.5573272705078" stroke-width="0.0" fill="rgb(186, 235, 178)" opacity="0.086566"/>
    <path d="M 519.8387451171875 286.9275817871094 C 507.8143615722656 290.6733703613281 492.630126953125 277.4598388671875 529.0233154296875 284.6272277832031 C 515.3535766601562 293.2408142089844 486.4894714355469 297.5922546386719 463.4369201660156 278.5292053222656 C 495.1258239746094 306.11236572265625 502.45599365234375 293.9772033691406 502.76702880859375 295.5011291503906 C 503.2537841796875 298.53082275390625 526.4017944335938 272.2257385253906 519.8387451171875 286.9275817871094" stroke-width="0.0" fill="rgb(248, 238, 189)" opacity="0.0009518643"/>
    <path d="M 336.7000427246094 521.7544555664062 C 325.7140197753906 515.976318359375 299.9040832519531 511.2335510253906 296.81640625 536.6058349609375 C 294.410400390625 550.9874877929688 278.13616943359375 512.322998046875 261.33642578125 489.30352783203125 C 252.74754333496094 465.689208984375 264.2071533203125 474.8788146972656 314.4441223144531 473.3309631347656 C 343.2633056640625 491.47479248046875 357.1120910644531 523.5477905273438 336.7000427246094 521.7544555664062" stroke-width="0.0" fill="rgb(129, 189, 10)" opacity="0.10630929"/>
    <path d="M 548.2492065429688 9.522538185119629 C 555.0924682617188 -5.397574424743652 576.7432250976562 -20.057968139648438 589.0520629882812 70.92871856689453 C 524.3447875976562 79.49397277832031 513.1367797851562 61.634429931640625 533.9197387695312 29.144866943359375 C 552.4513549804688 52.25841522216797 553.30322265625 69.26446533203125 589.3137817382812 59.256011962890625 C 574.9204711914062 56.95417785644531 540.4933471679688 43.79225540161133 548.2492065429688 9.522538185119629" stroke-width="0.0" fill="rgb(255, 226, 251)" opacity="0.0"/>
    <path d="M 393.6839599609375 269.8431396484375 C 422.97662353515625 281.6335144042969 415.7650146484375 317.5874328613281 403.62200927734375 336.78643798828125 C 391.177734375 332.9734802246094 328.46417236328125 326.5069580078125 267.58978271484375 278.3029479980469 C 340.3621520996094 234.1899871826172 344.3864440917969 224.2000732421875 368.2137145996094 256.9514465332031 C 388.3452453613281 248.27508544921875 395.2976379394531 256.0382080078125 393.6839599609375 269.8431396484375" stroke-width="0.0" fill="rgb(90, 49, 35)" opacity="0.56527144"/>
    <path d="M 475.6066589355469 474.75421142578125 C 470.8301086425781 486.1005554199219 467.3992614746094 470.9703369140625 467.2750244140625 475.5135192871094 C 462.8282165527344 500.35565185546875 435.262939453125 534.6895141601562 415.95196533203125 531.6259155273438 C 459.83599853515625 482.5577087402344 470.0316162109375 448.660888671875 493.1190490722656 437.8983154296875 C 491.9486389160156 405.3124084472656 486.0907897949219 423.0091857910156 475.6066589355469 474.75421142578125" stroke-width="0.0" fill="rgb(131, 139, 251)" opacity="0.6501124"/>
    <path d="M 316.41241455078125 531.6638793945312 C 317.04669189453125 529.3908081054688 314.6336669921875 549.6531372070312 307.3206481933594 575.0149536132812 C 270.8985595703125 540.6611938476562 281.4247741699219 548.6986083984375 252.1123504638672 583.5866088867188 C 225.61720275878906 540.7537841796875 243.82640075683594 527.4176025390625 238.58514404296875 510.4389343261719 C 272.8453369140625 525.2076416015625 295.38446044921875 544.1312866210938 316.41241455078125 531.6638793945312" stroke-width="0.0" fill="rgb(187, 255, 4)" opacity="0.029182833"/>
    <path d="M 354.73321533203125 58.69964599609375 C 380.4488525390625 55.84185028076172 371.4559020996094 89.80829620361328 385.4441223144531 8.726203918457031 C 386.53155517578125 -7.030379772186279 354.86798095703125 51.44183349609375 350.92669677734375 79.76722717285156 C 365.3343811035156 64.71622467041016 348.5979309082031 30.006040573120117 361.4435729980469 7.139118671417236 C 355.4839172363281 37.75923156738281 373.2258605957031 43.071956634521484 354.73321533203125 58.69964599609375" stroke-width="0.0" fill="rgb(254, 253, 251)" opacity="0.010255314"/>
    <path d="M 417.8514099121094 1.2087314128875732 C 371.564453125 -17.84902572631836 379.9729309082031 -14.667891502380371 370.5451965332031 21.49797821044922 C 402.0561828613281 28.64309310913086 401.4588928222656 16.6676025390625 387.5885314941406 53.0601921081543 C 443.7174987792969 55.528961181640625 437.8462829589844 45.37833786010742 410.55023193359375 41.240177154541016 C 400.80303955078125 32.708580017089844 435.608642578125 39.56500244140625 417.8514099121094 1.2087314128875732" stroke-width="0.0" fill="rgb(254, 253, 237)" opacity="0.00029002165"/>
    <path d="M 471.8531799316406 579.1704711914062 C 456.4642028808594 582.5048828125 447.6065979003906 543.152587890625 429.1239929199219 562.8499145507812 C 429.0987854003906 547.2400512695312 436.6312255859375 510.73583984375 465.39788818359375 534.3274536132812 C 464.4950256347656 577.0767822265625 476.17840576171875 614.4332885742188 469.7432861328125 588.8230590820312 C 453.2355651855469 573.833984375 490.09295654296875 555.6731567382812 471.8531799316406 579.1704711914062" stroke-width="0.0" fill="rgb(253, 213, 255)" opacity="0.0035653664"/>
    <path d="M 554.3715209960938 351.59356689453125 C 563.5404663085938 360.76275634765625 514.1608276367188 381.1098327636719 470.49176025390625 399.14453125 C 491.78863525390625 409.93743896484375 499.8442077636719 376.5481262207031 493.4198303222656 337.85552978515625 C 440.357421875 331.14276123046875 414.7528991699219 325.8313293457031 451.71600341796875 290.66796875 C 519.2042236328125 320.6441955566406 559.5301513671875 338.0860900878906 554.3715209960938 351.59356689453125" stroke-width="0.0" fill="rgb(0, 82, 0)" opacity="0.9994468"/>
    <path d="M 47.77774429321289 306.7629699707031 C 33.4672966003418 328.7098083496094 16.788612365722656 323.14007568359375 8.194995880126953 310.9281005859375 C -6.4247846603393555 287.6223449707031 -16.146146774291992 283.4217224121094 -33.39101791381836 276.5859680175781 C -21.13377571105957 254.927978515625 -17.246456146240234 251.26730346679688 -14.356705665588379 266.0310363769531 C -0.01817428134381771 275.69537353515625 33.88435745239258 278.83233642578125 47.77774429321289 306.7629699707031" stroke-width="0.0" fill="rgb(255, 215, 254)" opacity="0.011333353"/>
    <path d="M 505.14361572265625 344.3542175292969 C 479.9825744628906 372.1180114746094 457.0828857421875 350.1640319824219 455.91131591796875 304.6248474121094 C 456.72344970703125 352.456787109375 455.4532470703125 303.9028015136719 437.9255676269531 310.1551513671875 C 444.23748779296875 331.5631103515625 471.41851806640625 326.9021911621094 477.7176818847656 349.8232116699219 C 473.24725341796875 315.9589538574219 462.9651794433594 335.77069091796875 505.14361572265625 344.3542175292969" stroke-width="0.0" fill="rgb(172, 2, 44)" opacity="0.04280598"/>
    <path d="M 175.2114715576172 617.8049926757812 C 227.0642852783203 607.22216796875 213.75502014160156 618.9403686523438 186.330322265625 614.8822021484375 C 95.4285659790039 616.5166625976562 65.426513671875 620.2818603515625 49.7965202331543 559.865234375 C 70.41478729248047 566.4407958984375 99.49131774902344 580.8895263671875 117.27709197998047 593.4400024414062 C 109.54573822021484 585.5919799804688 121.87869262695312 601.0040283203125 175.2114715576172 617.8049926757812" stroke-width="0.0" fill="rgb(0, 0, 3)" opacity="0.98156285"/>
    <path d="M 322.2613830566406 607.6519775390625 C 324.919921875 600.3953857421875 327.7977600097656 620.0354614257812 321.0596618652344 638.6625366210938 C 284.1427001953125 625.5642700195312 275.0400085449219 599.5543212890625 278.49383544921875 600.7256469726562 C 293.34912109375 606.7528686523438 296.0676574707031 610.5081176757812 281.20404052734375 605.9866943359375 C 293.3076477050781 611.4389038085938 317.281982421875 615.93994140625 322.2613830566406 607.6519775390625" stroke-width="0.0" fill="rgb(39, 33, 2)" opacity="0.8021512"/>
    <path d="M 473.0238952636719 415.4767150878906 C 455.07672119140625 467.4442138671875 469.11016845703125 416.8686218261719 411.3330078125 429.7384338378906 C 322.4380798339844 492.49017333984375 315.66448974609375 487.5184631347656 371.4515075683594 409.6933898925781 C 357.1235656738281 388.7019348144531 365.4645690917969 406.2106628417969 382.58746337890625 401.6607971191406 C 415.8356628417969 388.26177978515625 431.052490234375 367.8746337890625 473.0238952636719 415.4767150878906" stroke-width="0.0" fill="rgb(58, 32, 129)" opacity="0.8525253"/>
    <path d="M 17.92718505859375 186.0679473876953 C 8.884593963623047 164.47401428222656 21.8848876953125 154.57102966308594 41.005191802978516 177.00718688964844 C 36.90113830566406 158.77442932128906 -11.047182083129883 139.93492126464844 7.3390278816223145 184.4029998779297 C 16.500913619995117 145.84811401367188 27.21956443786621 138.5773162841797 36.96043014526367 171.47071838378906 C 23.823156356811523 157.0366668701172 32.423240661621094 160.79649353027344 17.92718505859375 186.0679473876953" stroke-width="0.0" fill="rgb(255, 242, 252)" opacity="0.0172403"/>
    <path d="M 149.01856994628906 154.79212951660156 C 168.90679931640625 126.38557434082031 177.50230407714844 120.30095672607422 176.18014526367188 144.28411865234375 C 173.76687622070312 125.28024291992188 148.62049865722656 119.9237289428711 166.02383422851562 114.97313690185547 C 148.95477294921875 144.02001953125 129.67054748535156 121.25090026855469 126.9706039428711 100.6751937866211 C 160.17092895507812 107.43907928466797 144.8836669921875 126.0995864868164 149.01856994628906 154.79212951660156" stroke-width="0.0" fill="rgb(255, 228, 255)" opacity="0.0"/>
    <path d="M 639.939208984375 559.3955078125 C 601.9573974609375 601.7264404296875 594.6369018554688 609.0469360351562 567.8936767578125 634.248291015625 C 551.5505981445312 637.7964477539062 547.1599731445312 627.9514770507812 544.899658203125 626.3854370117188 C 579.9633178710938 605.9976196289062 612.279052734375 601.6617431640625 639.3585205078125 575.0493774414062 C 630.8654174804688 542.0234375 638.0054321289062 549.2612915039062 639.939208984375 559.3955078125" stroke-width="0.0" fill="rgb(45, 59, 28)" opacity="0.6960806"/>
    <path d="M 418.1764831542969 81.137451171875 C 416.86126708984375 114.79810333251953 404.1323547363281 123.1220703125 405.4588623046875 122.5635986328125 C 379.9933166503906 102.01338958740234 392.5255432128906 75.72808074951172 394.1299133300781 112.80802917480469 C 378.3365173339844 107.68392181396484 390.3138122558594 93.7370834350586 413.61407470703125 113.06403350830078 C 411.6070861816406 87.43537902832031 436.8210144042969 81.28591918945312 418.1764831542969 81.137451171875" stroke-width="0.0" fill="rgb(237, 192, 249)" opacity="0.0025188203"/>
    <path d="M 325.31573486328125 236.74986267089844 C 349.2274169921875 259.7900390625 351.9777526855469 269.53411865234375 363.89990234375 271.3088684082031 C 350.42681884765625 266.0639343261719 341.0977783203125 253.91909790039062 360.2212829589844 271.81463623046875 C 379.49615478515625 280.31121826171875 396.3512268066406 281.3131103515625 379.0694885253906 258.273193359375 C 367.25946044921875 249.50245666503906 354.9070129394531 238.3685760498047 325.31573486328125 236.74986267089844" stroke-width="0.0" fill="rgb(127, 0, 45)" opacity="0.579596"/>
    <path d="M 295.15679931640625 509.7477722167969 C 292.6053466796875 575.1715087890625 282.9195251464844 572.7138671875 232.17892456054688 560.7565307617188 C 196.37538146972656 543.2626953125 177.3372039794922 528.619873046875 173.9994354248047 524.1925048828125 C 162.40472412109375 513.5933227539062 136.01402282714844 513.5180053710938 193.2480010986328 415.471435546875 C 258.4783020019531 440.6518859863281 285.18798828125 473.3929443359375 295.15679931640625 509.7477722167969" stroke-width="0.0" fill="rgb(4, 149, 15)" opacity="0.9991149"/>
    <path d="M 686.1483764648438 473.06536865234375 C 643.4058227539062 533.952392578125 635.6803588867188 536.1615600585938 570.37890625 555.4923706054688 C 563.9210815429688 523.3093872070312 568.7197875976562 523.3654174804688 572.7489013671875 519.6474609375 C 560.1127319335938 509.1017150878906 580.4599609375 490.3664855957031 578.7164306640625 454.3779602050781 C 632.1107788085938 461.0875549316406 657.6334228515625 467.06915283203125 686.1483764648438 473.06536865234375" stroke-width="0.0" fill="rgb(251, 217, 231)" opacity="0.0028313515"/>
    <path d="M 58.13617706298828 555.0630493164062 C 50.654457092285156 556.3233642578125 74.76932525634766 581.865478515625 39.35921859741211 574.6181030273438 C -66.31082153320312 573.5037841796875 -82.30359649658203 555.8970336914062 -32.231876373291016 512.1912841796875 C 9.2411527633667 537.073486328125 9.145689964294434 533.4863891601562 42.48575973510742 553.9014892578125 C 54.266300201416016 552.4342651367188 37.47886276245117 574.0034790039062 58.13617706298828 555.0630493164062" stroke-width="0.0" fill="rgb(2, 0, 1)" opacity="0.8042118"/>
    <path d="M 439.0615234375 556.0887451171875 C 482.5439453125 539.3721313476562 483.4048156738281 549.9059448242188 481.4144592285156 550.2335205078125 C 459.2719421386719 550.4234619140625 488.9554443359375 542.6185302734375 487.36798095703125 552.6048583984375 C 494.2743225097656 575.2216796875 487.1084289550781 581.06689453125 479.13275146484375 566.3168334960938 C 469.0361022949219 572.8768310546875 476.71490478515625 590.553955078125 439.0615234375 556.0887451171875" stroke-width="0.0" fill="rgb(247, 220, 255)" opacity="0.00029904832"/>
    <path d="M 579.3827514648438 361.32977294921875 C 569.7395629882812 365.4573974609375 568.98095703125 385.801513671875 564.928466796875 426.059814453125 C 475.4021301269531 421.9555969238281 475.13323974609375 407.6023864746094 509.89422607421875 358.855224609375 C 540.95751953125 344.1374816894531 527.5213623046875 355.7530517578125 541.6414794921875 343.66558837890625 C 575.921630859375 345.7420959472656 573.754150390625 365.1939697265625 579.3827514648438 361.32977294921875" stroke-width="0.0" fill="rgb(1, 138, 19)" opacity="0.9637381"/>
    <path d="M 58.40095138549805 459.84844970703125 C 77.27864837646484 447.1636657714844 60.35064697265625 415.1439208984375 86.91275024414062 411.654296875 C 61.25835037231445 383.4129943847656 37.76565933227539 377.3701477050781 55.486263275146484 375.432373046875 C 56.30729675292969 366.7247619628906 64.15365600585938 399.794677734375 58.24076843261719 417.98907470703125 C 44.475120544433594 371.86572265625 39.05316925048828 412.34600830078125 58.40095138549805 459.84844970703125" stroke-width="0.0" fill="rgb(24, 126, 58)" opacity="0.0046164976"/>
    <path d="M 422.2345886230469 365.39593505859375 C 385.1426696777344 415.8481140136719 359.6797180175781 432.4281005859375 360.9372253417969 366.84716796875 C 317.2431945800781 340.1324462890625 301.19696044921875 327.7717590332031 259.8283386230469 309.4989929199219 C 282.3924255371094 290.1488342285156 296.5548400878906 274.9677429199219 301.02081298828125 264.5345153808594 C 354.4750671386719 303.47576904296875 388.7210998535156 294.40191650390625 422.2345886230469 365.39593505859375" stroke-width="0.0" fill="rgb(142, 124, 105)" opacity="0.7877596"/>
    <path d="M 471.3724365234375 345.7359924316406 C 497.8681640625 380.66705322265625 496.85455322265625 398.7929992675781 450.6695556640625 405.0612487792969 C 436.5964660644531 434.89556884765625 434.9841613769531 390.2093200683594 407.6949768066406 402.36810302734375 C 442.21087646484375 367.58514404296875 452.4522399902344 367.90191650390625 475.7450866699219 347.8334045410156 C 461.4951171875 337.1742858886719 444.57958984375 343.34735107421875 471.3724365234375 345.7359924316406" stroke-width="0.0" fill="rgb(44, 40, 87)" opacity="1.0"/>
    <path d="M 266.8050537109375 309.0916748046875 C 228.9465789794922 342.8423767089844 193.6680908203125 336.1595153808594 166.76084899902344 332.02325439453125 C 146.29891967773438 343.32171630859375 153.36981201171875 348.60357666015625 186.48858642578125 344.04400634765625 C 200.40283203125 310.6212463378906 192.64768981933594 309.8558654785156 200.29965209960938 322.6761169433594 C 230.96371459960938 313.00103759765625 278.5521240234375 307.73834228515625 266.8050537109375 309.0916748046875" stroke-width="0.0" fill="rgb(39, 78, 139)" opacity="0.67086583"/>
    <path d="M 342.1972351074219 490.00958251953125 C 412.5042724609375 495.4429016113281 395.5532531738281 568.3143310546875 293.4124755859375 600.1421508789062 C 204.34048461914062 551.6217041015625 219.2208709716797 551.245361328125 248.8137664794922 445.9075012207031 C 281.4824523925781 460.0499267578125 289.6328125 463.7041015625 283.0952453613281 464.0014343261719 C 285.698974609375 459.68560791015625 289.42340087890625 476.0183410644531 342.1972351074219 490.00958251953125" stroke-width="0.0" fill="rgb(2, 147, 15)" opacity="0.99949586"/>
    <path d="M 82.9626235961914 574.3694458007812 C 74.59908294677734 572.9607543945312 73.07421875 595.5679321289062 90.87014770507812 597.1616821289062 C 75.53964233398438 592.01904296875 74.62359619140625 605.0941162109375 82.6166763305664 569.1928100585938 C 66.74095153808594 562.6253662109375 67.12950897216797 555.0568237304688 71.76904296875 559.76416015625 C 34.01696014404297 564.9332275390625 59.2348518371582 566.795654296875 82.9626235961914 574.3694458007812" stroke-width="0.0" fill="rgb(52, 0, 50)" opacity="0.022690002"/>
    <path d="M 343.655029296875 176.8075714111328 C 343.01953125 208.50900268554688 320.1654968261719 205.2405548095703 322.2991638183594 207.3603057861328 C 330.2344665527344 228.5395965576172 289.2646789550781 235.9654083251953 226.13348388671875 240.07505798339844 C 293.3504333496094 179.28829956054688 312.14788818359375 142.97862243652344 341.7919616699219 142.45318603515625 C 343.7887878417969 143.83612060546875 357.1958923339844 142.67245483398438 343.655029296875 176.8075714111328" stroke-width="0.0" fill="rgb(48, 86, 187)" opacity="0.2936166"/>
    <path d="M 109.578369140625 84.01304626464844 C 126.85621643066406 121.57662200927734 138.02798461914062 108.98377990722656 101.50657653808594 77.2844009399414 C 117.40352630615234 76.62113189697266 87.71926879882812 105.09201049804688 128.69390869140625 131.2228240966797 C 141.32994079589844 85.21926879882812 165.6753692626953 57.18534469604492 114.71338653564453 29.851396560668945 C 93.68535614013672 42.40546417236328 118.9668960571289 59.553733825683594 109.578369140625 84.01304626464844" stroke-width="0.0" fill="rgb(254, 234, 252)" opacity="5.790475e-05"/>
    <path d="M 547.6143188476562 300.5354309082031 C 566.1295776367188 291.00347900390625 543.1524658203125 299.58135986328125 488.8860168457031 310.1891174316406 C 489.6098327636719 302.5038757324219 475.085693359375 328.061279296875 464.29168701171875 287.89105224609375 C 480.8183898925781 228.616455078125 510.77886962890625 207.44212341308594 542.88330078125 233.0334930419922 C 558.0944213867188 257.5888366699219 553.3202514648438 280.0116882324219 547.6143188476562 300.5354309082031" stroke-width="0.0" fill="rgb(210, 149, 192)" opacity="0.0"/>
    <path d="M 126.8523178100586 187.66477966308594 C 130.5199432373047 171.8162841796875 121.86783599853516 174.12583923339844 144.0662841796875 205.331298828125 C 108.07791137695312 213.38929748535156 104.43550109863281 202.0098419189453 27.891366958618164 188.9817352294922 C 26.416072845458984 86.46469116210938 29.852201461791992 90.51765441894531 72.40214538574219 131.57595825195312 C 93.78804779052734 161.95310974121094 102.67113494873047 166.06773376464844 126.8523178100586 187.66477966308594" stroke-width="0.0" fill="rgb(255, 224, 254)" opacity="0.0040086596"/>
    <path d="M 134.9233856201172 207.4163055419922 C 143.96682739257812 210.8359375 208.82839965820312 219.40023803710938 163.38748168945312 208.17129516601562 C 111.33354187011719 243.6337890625 138.1517333984375 227.52430725097656 142.96163940429688 207.1855010986328 C 137.8966064453125 200.1529083251953 137.9160919189453 182.63888549804688 138.20004272460938 206.7677459716797 C 129.57867431640625 201.440185546875 133.1467742919922 199.7863006591797 134.9233856201172 207.4163055419922" stroke-width="0.0" fill="rgb(243, 230, 255)" opacity="0.009171257"/>
    <path d="M 364.73736572265625 86.48896026611328 C 349.2485046386719 80.10154724121094 344.280517578125 57.051116943359375 338.2524108886719 57.980552673339844 C 363.5270690917969 61.13105010986328 370.8043518066406 71.82662200927734 372.45281982421875 83.14665222167969 C 385.4416198730469 109.80812072753906 368.1676330566406 56.77928924560547 362.4815368652344 49.52067947387695 C 362.2337646484375 65.97239685058594 358.2721252441406 55.42914962768555 364.73736572265625 86.48896026611328" stroke-width="0.0" fill="rgb(254, 238, 240)" opacity="0.022524558"/>
    <path d="M 481.58001708984375 477.3787536621094 C 500.8466491699219 478.6995544433594 484.1641540527344 483.7457275390625 468.9452819824219 489.69586181640625 C 424.7728271484375 509.4815673828125 368.83673095703125 481.087890625 422.1701965332031 420.1583557128906 C 455.9337158203125 406.8825378417969 467.25555419921875 377.432861328125 539.8985595703125 357.5434265136719 C 545.5573120117188 443.94512939453125 512.0678100585938 475.1722412109375 481.58001708984375 477.3787536621094" stroke-width="0.0" fill="rgb(0, 135, 18)" opacity="1.0"/>
    <path d="M 397.8052062988281 233.7422332763672 C 396.6495666503906 236.04818725585938 383.073974609375 250.11871337890625 367.09765625 256.6268615722656 C 356.12335205078125 251.7390594482422 291.02667236328125 236.5405731201172 305.3525085449219 230.0274200439453 C 357.55487060546875 214.34307861328125 315.898193359375 140.0126953125 359.66748046875 153.78663635253906 C 371.759521484375 214.35557556152344 357.88165283203125 219.34727478027344 397.8052062988281 233.7422332763672" stroke-width="0.0" fill="rgb(70, 43, 87)" opacity="1.0"/>
    <path d="M 464.96087646484375 467.04827880859375 C 400.4180603027344 490.69805908203125 379.905029296875 499.59417724609375 416.357666015625 498.83441162109375 C 408.204833984375 534.5508422851562 399.50006103515625 535.1858520507812 407.07470703125 494.8388366699219 C 401.4466552734375 487.1935119628906 422.3622741699219 480.9274597167969 400.2722473144531 505.2787170410156 C 427.65093994140625 507.8145751953125 486.63690185546875 499.8468017578125 464.96087646484375 467.04827880859375" stroke-width="0.0" fill="rgb(36, 71, 125)" opacity="0.10152229"/>
    <path d="M 372.4496154785156 88.64289855957031 C 374.9747619628906 132.82769775390625 344.69775390625 140.61196899414062 364.7665710449219 156.28916931152344 C 326.14422607421875 138.17869567871094 304.8109130859375 150.61492919921875 289.9674072265625 143.70411682128906 C 291.8892517089844 132.29258728027344 285.68975830078125 103.56233978271484 304.2778625488281 84.0643081665039 C 363.544921875 67.84201049804688 340.43914794921875 79.4323501586914 372.4496154785156 88.64289855957031" stroke-width="0.0" fill="rgb(222, 213, 231)" opacity="0.0056557497"/>
    <path d="M 143.59579467773438 185.01016235351562 C 131.7084197998047 191.12037658691406 149.66415405273438 185.46124267578125 140.22821044921875 217.1380615234375 C 144.7196502685547 246.82659912109375 113.1668701171875 253.45501708984375 126.41629028320312 241.6606903076172 C 125.40047454833984 192.101806640625 133.1105194091797 184.34352111816406 122.10103607177734 142.88522338867188 C 120.49707794189453 163.9891357421875 107.02055358886719 179.07940673828125 143.59579467773438 185.01016235351562" stroke-width="0.0" fill="rgb(225, 232, 219)" opacity="0.0"/>
    <path d="M 495.17657470703125 329.7408142089844 C 479.1123046875 311.2005310058594 489.4840087890625 302.4183349609375 504.3362121582031 374.6507263183594 C 410.5625915527344 384.7221984863281 382.7300720214844 443.56109619140625 409.2728271484375 386.156494140625 C 458.8516540527344 299.9644470214844 480.1526184082031 317.30035400390625 457.7283630371094 330.0131530761719 C 478.9193420410156 342.2643737792969 495.3172912597656 339.3951110839844 495.17657470703125 329.7408142089844" stroke-width="0.0" fill="rgb(88, 0, 113)" opacity="0.347005"/>
    <path d="M 276.2499084472656 102.25897216796875 C 232.0084686279297 94.915283203125 256.85504150390625 110.94007873535156 236.30628967285156 71.52841186523438 C 245.01844787597656 59.07380676269531 256.671875 55.88748550415039 254.2895050048828 65.28650665283203 C 248.66192626953125 45.25857162475586 231.54696655273438 58.95203399658203 233.5245819091797 59.777164459228516 C 252.3957061767578 71.6333999633789 311.0815124511719 65.11348724365234 276.2499084472656 102.25897216796875" stroke-width="0.0" fill="rgb(252, 253, 245)" opacity="0.012879724"/>
    <path d="M 229.21463012695312 609.5203857421875 C 242.16708374023438 596.6019897460938 233.95252990722656 618.8237915039062 213.48141479492188 630.5288696289062 C 192.8315887451172 612.9099731445312 183.95669555664062 607.52978515625 214.8206329345703 639.2471313476562 C 213.99794006347656 619.9396362304688 213.05361938476562 597.4691162109375 224.89125061035156 610.3278198242188 C 208.9595947265625 621.1425170898438 232.90184020996094 607.604248046875 229.21463012695312 609.5203857421875" stroke-width="0.0" fill="rgb(132, 124, 0)" opacity="0.1670634"/>
    <path d="M 140.66787719726562 83.51564025878906 C 155.31961059570312 106.28119659423828 177.0345916748047 132.64744567871094 172.87062072753906 145.50955200195312 C 81.90242004394531 130.13229370117188 58.24018859863281 142.7932586669922 97.77067565917969 39.414485931396484 C 176.0481719970703 86.95618438720703 129.77288818359375 80.7599868774414 147.71275329589844 54.917808532714844 C 136.55184936523438 76.21568298339844 159.03456115722656 106.41242218017578 140.66787719726562 83.51564025878906" stroke-width="0.0" fill="rgb(255, 204, 253)" opacity="0.0039020022"/>
    <path d="M 88.01952362060547 297.7985534667969 C 99.4777603149414 323.3125915527344 91.5715103149414 312.04876708984375 94.68182373046875 345.2307434082031 C 108.9928207397461 334.9253234863281 50.78774642944336 330.0310974121094 82.55470275878906 346.8795166015625 C 90.27387237548828 336.8616943359375 94.3965072631836 333.4652099609375 58.030582427978516 348.5314636230469 C 93.27627563476562 340.0230712890625 89.98403930664062 340.1492919921875 88.01952362060547 297.7985534667969" stroke-width="0.0" fill="rgb(140, 142, 44)" opacity="0.0"/>
    <path d="M 616.2158813476562 536.591552734375 C 626.3984985351562 562.4065551757812 621.7106323242188 558.9954223632812 621.00732421875 557.4414672851562 C 594.1847534179688 567.1494750976562 594.9323120117188 548.2182006835938 616.1834716796875 561.061767578125 C 604.4691772460938 545.0863647460938 619.5409545898438 552.1095581054688 625.2394409179688 521.8663940429688 C 595.3347778320312 512.2254638671875 603.7825317382812 516.5789794921875 616.2158813476562 536.591552734375" stroke-width="0.0" fill="rgb(22, 18, 30)" opacity="0.0010895509"/>
    <path d="M 523.4915161132812 370.130126953125 C 560.938720703125 377.9178161621094 576.5882568359375 377.7495422363281 599.9317626953125 369.69525146484375 C 535.2630615234375 384.67010498046875 489.3365478515625 364.0978088378906 556.9786987304688 394.5826721191406 C 578.4463500976562 315.3765869140625 593.48291015625 318.6442565917969 582.7679443359375 361.5738220214844 C 579.2161254882812 332.17767333984375 573.687744140625 338.48895263671875 523.4915161132812 370.130126953125" stroke-width="0.0" fill="rgb(116, 148, 89)" opacity="0.0"/>
    <path d="M 194.57379150390625 254.43252563476562 C 212.1431427001953 285.552734375 210.3173370361328 273.42059326171875 199.97056579589844 270.0737609863281 C 193.79086303710938 312.14984130859375 223.8936309814453 307.1780090332031 185.82322692871094 318.59515380859375 C 169.92303466796875 290.6426086425781 175.2846221923828 256.3265075683594 189.07228088378906 272.4627380371094 C 184.12832641601562 249.46302795410156 209.1280975341797 260.3253479003906 194.57379150390625 254.43252563476562" stroke-width="0.0" fill="rgb(153, 255, 135)" opacity="0.024826152"/>
    <path d="M 212.57626342773438 316.236083984375 C 226.8065643310547 322.8021240234375 210.0637664794922 332.5863952636719 189.12564086914062 347.7344970703125 C 161.00668334960938 349.155029296875 147.80679321289062 351.80517578125 155.40139770507812 354.0086669921875 C 154.45497131347656 279.7581481933594 136.6673126220703 260.7804260253906 168.04946899414062 257.6177978515625 C 186.30014038085938 307.70849609375 181.67007446289062 322.82861328125 212.57626342773438 316.236083984375" stroke-width="0.0" fill="rgb(0, 54, 2)" opacity="0.80257344"/>
    <path d="M 220.62498474121094 41.89885711669922 C 218.18344116210938 30.934022903442383 217.02224731445312 50.4944953918457 220.69564819335938 53.4290885925293 C 201.39077758789062 49.01448059082031 202.7853546142578 49.82991409301758 191.1884307861328 45.75994110107422 C 207.00929260253906 56.402339935302734 194.16566467285156 47.77658462524414 208.32252502441406 14.502495765686035 C 221.9312286376953 67.16593170166016 225.05784606933594 32.88127899169922 220.62498474121094 41.89885711669922" stroke-width="0.0" fill="rgb(250, 251, 136)" opacity="0.073074535"/>
    <path d="M 172.17222595214844 406.1515808105469 C 181.49200439453125 405.52685546875 179.811767578125 402.0521545410156 182.55130004882812 422.26007080078125 C 144.42343139648438 416.3156433105469 146.17799377441406 399.1250915527344 95.96331024169922 377.3652648925781 C 75.82721710205078 319.8684997558594 117.63550567626953 347.0455627441406 145.3692169189453 346.57257080078125 C 143.3131103515625 396.2884826660156 135.949462890625 383.4449768066406 172.17222595214844 406.1515808105469" stroke-width="0.0" fill="rgb(0, 146, 22)" opacity="0.41527766"/>
    <path d="M 220.48922729492188 573.2770385742188 C 215.60780334472656 562.6723022460938 216.04830932617188 554.8828125 236.34820556640625 598.4194946289062 C 242.65553283691406 620.94189453125 164.93807983398438 585.9692993164062 176.31109619140625 596.0697021484375 C 206.3097381591797 567.1704711914062 235.32861328125 542.4228515625 266.3036193847656 565.5728149414062 C 236.82269287109375 576.82373046875 245.3394012451172 581.9144287109375 220.48922729492188 573.2770385742188" stroke-width="0.0" fill="rgb(243, 250, 216)" opacity="0.00013045741"/>
    <path d="M 596.8921508789062 131.93084716796875 C 536.073486328125 131.37355041503906 540.6614990234375 121.61199951171875 551.2139282226562 89.83728790283203 C 561.10400390625 82.50843048095703 567.9989624023438 87.49363708496094 590.1737060546875 92.51160430908203 C 574.6590576171875 131.8894805908203 568.4420166015625 151.39393615722656 532.9256591796875 148.95733642578125 C 518.4920654296875 109.87977600097656 552.426025390625 112.52588653564453 596.8921508789062 131.93084716796875" stroke-width="0.0" fill="rgb(249, 210, 213)" opacity="0.0"/>
    <path d="M 57.33949661254883 440.84417724609375 C 60.969051361083984 442.8507385253906 38.600196838378906 458.1189270019531 46.20428466796875 486.840087890625 C 87.89405059814453 462.816650390625 73.2923583984375 470.10101318359375 82.49645233154297 492.2787170410156 C 23.171632766723633 514.4912109375 15.887423515319824 474.26495361328125 60.70956802368164 446.7576904296875 C 82.32369232177734 446.0870666503906 59.605125427246094 459.49072265625 57.33949661254883 440.84417724609375" stroke-width="0.0" fill="rgb(255, 239, 248)" opacity="0.0"/>
    <path d="M 494.7725830078125 336.19732666015625 C 461.0987854003906 352.6531677246094 426.1526794433594 351.36065673828125 363.1214294433594 391.19720458984375 C 354.05938720703125 381.9888916015625 370.8101806640625 340.37469482421875 349.5150451660156 313.5118103027344 C 350.4360046386719 212.77064514160156 339.55230712890625 227.91073608398438 430.2893981933594 277.8678283691406 C 399.1158752441406 296.19061279296875 419.846435546875 289.0055847167969 494.7725830078125 336.19732666015625" stroke-width="0.0" fill="rgb(56, 61, 85)" opacity="0.97491914"/>
    <path d="M 271.4737243652344 275.91253662109375 C 232.37953186035156 271.3829345703125 222.33743286132812 274.98284912109375 229.75962829589844 226.54733276367188 C 294.0018310546875 204.65029907226562 273.8564758300781 206.89549255371094 289.85748291015625 223.94485473632812 C 278.1129455566406 189.6657257080078 270.9002380371094 194.19395446777344 287.6051330566406 204.76341247558594 C 283.9461364746094 252.34571838378906 294.4831237792969 234.9054718017578 271.4737243652344 275.91253662109375" stroke-width="0.0" fill="rgb(158, 112, 242)" opacity="0.05544071"/>
    <path d="M 160.04840087890625 544.9222412109375 C 117.05481719970703 577.0780029296875 165.69625854492188 560.9533081054688 151.21531677246094 556.745361328125 C 143.23123168945312 546.8786010742188 133.87757873535156 527.7938232421875 137.1339569091797 523.5872802734375 C 147.86773681640625 504.1888122558594 172.77040100097656 500.17388916015625 166.48892211914062 551.5846557617188 C 136.5117950439453 539.193115234375 152.3826141357422 540.56689453125 160.04840087890625 544.9222412109375" stroke-width="0.0" fill="rgb(255, 252, 242)" opacity="0.0114919385"/>
    <path d="M 112.51493835449219 591.4590454101562 C 144.2735595703125 605.892578125 143.86907958984375 616.8203125 75.74126434326172 615.2213134765625 C 28.75740623474121 638.3969116210938 46.49714660644531 650.9420166015625 18.393558502197266 624.5624389648438 C 8.344118118286133 577.6856689453125 17.836727142333984 546.2113037109375 50.06945037841797 566.37158203125 C 40.07987594604492 572.8944702148438 87.27873229980469 569.611328125 112.51493835449219 591.4590454101562" stroke-width="0.0" fill="rgb(1, 0, 2)" opacity="0.95445645"/>
    <path d="M 400.67401123046875 301.654296875 C 405.7744445800781 294.2344055175781 371.9776611328125 315.38067626953125 349.7687072753906 326.46173095703125 C 353.63079833984375 321.0102233886719 351.6329345703125 321.7648010253906 301.59014892578125 295.1661682128906 C 312.2898864746094 260.2322998046875 336.6712646484375 275.8465270996094 367.21527099609375 287.724609375 C 324.5355224609375 338.87921142578125 359.1475830078125 329.2790832519531 400.67401123046875 301.654296875" stroke-width="0.0" fill="rgb(141, 101, 100)" opacity="0.8534509"/>
    <path d="M 178.04896545410156 458.7174987792969 C 157.03094482421875 438.7242736816406 123.1082534790039 488.0664367675781 170.50247192382812 500.82598876953125 C 161.06649780273438 443.3075256347656 145.94955444335938 430.5084228515625 182.36856079101562 440.666015625 C 207.31739807128906 452.3940124511719 212.089599609375 454.78790283203125 182.2423858642578 431.1141662597656 C 137.9865264892578 449.5304260253906 150.91644287109375 450.2604064941406 178.04896545410156 458.7174987792969" stroke-width="0.0" fill="rgb(24, 143, 6)" opacity="0.0057173744"/>
  </g>
</svg>
