<?xml version="1.0" ?>
<svg xmlns="http://www.w3.org/2000/svg" version="1.1" width="600" height="600">
  <defs/>
  <g>
    <path d="M 311.6037292480469 406.29449462890625 C 313.51654052734375 405.3819885253906 296.2772521972656 425.45330810546875 320.1502990722656 442.3764343261719 C 342.95928955078125 418.3237609863281 348.0613098144531 415.1205139160156 370.6199035644531 409.46978759765625 C 370.3021240234375 402.1473388671875 391.7886047363281 408.5204162597656 394.9718017578125 371.2203369140625 C 367.9035949707031 385.18695068359375 372.7351989746094 380.2851257324219 352.8868713378906 396.0320129394531 C 353.84375 387.9083557128906 351.2227478027344 408.8721923828125 360.75103759765625 411.32275390625" stroke-width="6.0" fill="none" stroke="rgb(0, 0, 0)" stroke-opacity="1.0" stroke-linecap="round" stroke-linejoin="round"/>
    <path d="M 174.05758666992188 392.0860290527344 C 200.056396484375 372.6871337890625 209.84555053710938 373.12896728515625 211.4519805908203 360.3049011230469 C 193.2956085205078 367.2958984375 197.76898193359375 345.5001525878906 196.76351928710938 360.17156982421875 C 205.7486114501953 344.51397705078125 222.91171264648438 333.8839416503906 237.99729919433594 344.3218078613281 C 245.92642211914062 358.99468994140625 221.95285034179688 391.1100158691406 235.55172729492188 371.7344970703125 C 228.12034606933594 391.9420166015625 223.8068084716797 369.1832275390625 198.47035217285156 360.9443664550781" stroke-width="6.0" fill="none" stroke="rgb(0, 0, 0)" stroke-opacity="1.0" stroke-linecap="round" stroke-linejoin="round"/>
    <path d="M 509.20013427734375 413.8529968261719 C 518.7101440429688 403.6269226074219 496.10382080078125 373.8221130371094 491.5227966308594 399.5091247558594 C 470.0078125 390.54278564453125 484.4407958984375 393.8744201660156 469.5132141113281 399.78363037109375 C 476.8272399902344 408.7905578613281 506.1434020996094 423.8526306152344 527.8574829101562 439.7298889160156 C 516.7836303710938 411.08013916015625 480.1293640136719 391.6524963378906 449.9849853515625 374.7320556640625 C 477.1924743652344 361.8591003417969 501.7829895019531 345.37066650390625 475.68463134765625 311.8590087890625" stroke-width="6.0" fill="none" stroke="rgb(0, 0, 0)" stroke-opacity="1.0" stroke-linecap="round" stroke-linejoin="round"/>
    <path d="M 424.84979248046875 83.2310791015625 C 411.1359558105469 76.46918487548828 380.9205627441406 74.14815521240234 355.5833740234375 53.913387298583984 C 365.35089111328125 47.47536849975586 359.0813903808594 66.77758026123047 373.63604736328125 84.64008331298828 C 348.2110290527344 102.04850006103516 375.4921875 93.55089569091797 365.6342468261719 70.81238555908203 C 334.266845703125 84.29656982421875 349.11883544921875 80.9167251586914 355.07904052734375 69.54010009765625 C 385.46600341796875 95.15377807617188 399.79547119140625 108.8449478149414 420.8167419433594 103.77294921875" stroke-width="6.0" fill="none" stroke="rgb(0, 0, 0)" stroke-opacity="1.0" stroke-linecap="round" stroke-linejoin="round"/>
    <path d="M 566.4096069335938 343.087890625 C 549.4794311523438 346.0878601074219 566.0208740234375 334.5606994628906 577.930908203125 328.2760925292969 C 568.0632934570312 320.3710632324219 540.8126220703125 299.63397216796875 520.1295166015625 288.7478942871094 C 506.8929138183594 280.14788818359375 490.9844665527344 276.3955383300781 517.0828857421875 261.68731689453125 C 525.4149780273438 250.30189514160156 558.891357421875 250.4447784423828 525.0501708984375 274.1339111328125 C 503.0867614746094 284.3173522949219 511.22760009765625 302.4498291015625 511.4078369140625 300.8288879394531" stroke-width="6.0" fill="none" stroke="rgb(0, 0, 0)" stroke-opacity="1.0" stroke-linecap="round" stroke-linejoin="round"/>
    <path d="M 94.3150634765625 242.92355346679688 C 116.3049545288086 269.00225830078125 97.83162689208984 269.37738037109375 110.08380126953125 245.65133666992188 C 92.55362701416016 241.90835571289062 88.89468383789062 238.90037536621094 65.27899932861328 217.87615966796875 C 50.79573059082031 233.347412109375 51.3708610534668 226.36798095703125 17.49822998046875 245.9869842529297 C 36.506832122802734 240.7283477783203 48.2352180480957 259.78704833984375 42.0473747253418 266.95458984375 C 50.57144546508789 248.48841857910156 23.972476959228516 249.281005859375 15.986578941345215 225.27154541015625" stroke-width="6.0" fill="none" stroke="rgb(0, 0, 0)" stroke-opacity="1.0" stroke-linecap="round" stroke-linejoin="round"/>
    <path d="M 27.080158233642578 94.9454116821289 C 41.30992889404297 111.61296844482422 48.67698669433594 89.32292938232422 66.65034484863281 79.94587707519531 C 88.40587615966797 61.200191497802734 85.63827514648438 54.58157730102539 94.6158218383789 62.33457565307617 C 83.43045043945312 67.7937240600586 64.30487823486328 64.26570892333984 66.99539184570312 78.53147888183594 C 42.988609313964844 106.02521514892578 34.441444396972656 132.72669982910156 20.710071563720703 140.57469177246094 C 40.50635528564453 147.27740478515625 35.22625732421875 170.55165100097656 6.409193992614746 145.45433044433594" stroke-width="6.0" fill="none" stroke="rgb(0, 0, 0)" stroke-opacity="1.0" stroke-linecap="round" stroke-linejoin="round"/>
    <path d="M 106.72186279296875 367.72235107421875 C 107.80720520019531 371.56732177734375 105.43513488769531 346.7318420410156 116.52595520019531 352.57928466796875 C 97.95633697509766 383.60955810546875 87.37512969970703 401.8894348144531 63.20000076293945 393.7566833496094 C 76.74083709716797 398.6675109863281 58.85275650024414 361.95025634765625 44.43104553222656 382.683837890625 C 37.09226989746094 408.2666931152344 35.24739456176758 429.6700744628906 41.75693130493164 461.04534912109375 C 31.959203720092773 493.4108581542969 55.8367919921875 465.99395751953125 77.58602905273438 454.81549072265625" stroke-width="6.0" fill="none" stroke="rgb(0, 0, 0)" stroke-opacity="1.0" stroke-linecap="round" stroke-linejoin="round"/>
    <path d="M 594.77294921875 450.0228576660156 C 609.3973388671875 443.0072937011719 599.65966796875 434.6837158203125 576.3330688476562 425.331298828125 C 593.1639404296875 428.2252502441406 566.2874755859375 423.4908752441406 559.1987915039062 408.62969970703125 C 580.8585205078125 401.7819519042969 579.6474609375 406.0521240234375 581.8203735351562 429.7920227050781 C 592.1205444335938 430.7485046386719 590.5949096679688 416.8391418457031 570.6375122070312 415.0898132324219 C 583.4933471679688 405.7706298828125 603.3639526367188 386.8979797363281 624.6910400390625 386.4261474609375" stroke-width="6.0" fill="none" stroke="rgb(0, 0, 0)" stroke-opacity="1.0" stroke-linecap="round" stroke-linejoin="round"/>
    <path d="M 567.9265747070312 335.859375 C 553.4593505859375 351.4756774902344 575.9050903320312 378.64453125 559.8917236328125 404.07843017578125 C 543.852783203125 399.3298034667969 518.477294921875 382.7169494628906 521.1717529296875 376.84765625 C 520.5859985351562 372.35791015625 522.1442260742188 380.37127685546875 502.6514892578125 392.6007080078125 C 492.1253356933594 364.1246337890625 503.06866455078125 337.5947265625 502.4556579589844 338.2586975097656 C 482.3360290527344 313.2751770019531 474.7423400878906 323.4947204589844 492.187744140625 327.6057434082031" stroke-width="6.0" fill="none" stroke="rgb(0, 0, 0)" stroke-opacity="1.0" stroke-linecap="round" stroke-linejoin="round"/>
    <path d="M 485.50262451171875 303.9252014160156 C 485.0774230957031 313.6592102050781 474.0920715332031 311.0557861328125 486.5368957519531 285.8056945800781 C 480.7767028808594 261.37261962890625 460.00701904296875 286.4393615722656 470.7527160644531 276.1811218261719 C 497.6365966796875 269.4305114746094 472.2994689941406 297.5488586425781 461.4893798828125 298.7049865722656 C 432.71197509765625 313.6142272949219 460.1173400878906 343.0809326171875 446.9979248046875 322.9069519042969 C 429.66326904296875 307.0892333984375 407.4399719238281 309.3132019042969 417.5915222167969 282.39501953125" stroke-width="6.0" fill="none" stroke="rgb(0, 0, 0)" stroke-opacity="1.0" stroke-linecap="round" stroke-linejoin="round"/>
    <path d="M 112.46558380126953 573.27294921875 C 86.24951171875 585.6646728515625 96.60675048828125 595.43310546875 110.42401123046875 578.103515625 C 115.33039855957031 554.4180908203125 124.90960693359375 560.3688354492188 117.17932891845703 549.9830322265625 C 127.52389526367188 535.9329833984375 114.42047119140625 542.69873046875 118.23868560791016 579.754150390625 C 98.46104431152344 570.3555297851562 125.5927734375 585.3236083984375 124.18096923828125 616.088623046875 C 117.19361877441406 628.6961059570312 132.19790649414062 605.1801147460938 126.54405212402344 619.240478515625" stroke-width="6.0" fill="none" stroke="rgb(0, 0, 0)" stroke-opacity="1.0" stroke-linecap="round" stroke-linejoin="round"/>
    <path d="M 375.24981689453125 225.66433715820312 C 343.4947814941406 206.13612365722656 358.30010986328125 181.9689178466797 354.38616943359375 184.67640686035156 C 391.21307373046875 168.247314453125 416.5223693847656 150.74935913085938 422.4864501953125 133.97793579101562 C 408.166259765625 136.26220703125 423.4589538574219 110.4088363647461 423.46929931640625 120.04253387451172 C 453.6473388671875 115.28907012939453 437.8067626953125 94.55345916748047 454.861083984375 82.4076919555664 C 468.67083740234375 106.77063751220703 470.2892761230469 81.93842315673828 466.6563720703125 91.05949401855469" stroke-width="6.0" fill="none" stroke="rgb(0, 0, 0)" stroke-opacity="1.0" stroke-linecap="round" stroke-linejoin="round"/>
    <path d="M 357.3249206542969 242.45660400390625 C 356.3312072753906 251.79208374023438 339.9449462890625 229.79896545410156 313.66241455078125 213.5731201171875 C 312.72198486328125 220.6417694091797 316.185546875 200.75192260742188 327.1119079589844 185.5656280517578 C 359.8917541503906 185.5081329345703 365.46697998046875 207.50811767578125 333.8861999511719 215.07272338867188 C 344.060791015625 244.25863647460938 367.0185852050781 253.20408630371094 373.9921875 230.24256896972656 C 371.2561340332031 218.53668212890625 397.2095031738281 236.16818237304688 422.1365966796875 253.39553833007812" stroke-width="6.0" fill="none" stroke="rgb(0, 0, 0)" stroke-opacity="1.0" stroke-linecap="round" stroke-linejoin="round"/>
    <path d="M 329.98297119140625 280.2243347167969 C 324.57147216796875 300.05914306640625 334.0375671386719 316.2754211425781 325.967529296875 347.70562744140625 C 298.3495178222656 311.5448913574219 287.5647888183594 321.6969299316406 271.6390075683594 338.0505676269531 C 271.8516540527344 315.1348876953125 272.56005859375 296.8230895996094 269.671875 290.0228576660156 C 274.19476318359375 252.9228973388672 254.38099670410156 258.07391357421875 239.33450317382812 278.074462890625 C 243.48992919921875 270.5952453613281 227.63519287109375 285.9471740722656 213.8334503173828 293.42474365234375" stroke-width="6.0" fill="none" stroke="rgb(0, 0, 0)" stroke-opacity="1.0" stroke-linecap="round" stroke-linejoin="round"/>
    <path d="M 13.52967643737793 486.9488220214844 C 37.198951721191406 463.23907470703125 59.69405746459961 483.00579833984375 82.84341430664062 507.0099792480469 C 73.89619445800781 517.4033203125 91.98323822021484 536.8262939453125 72.6529769897461 533.586669921875 C 90.63426971435547 504.85101318359375 74.9453353881836 494.2685546875 39.866554260253906 474.3912048339844 C 40.15204620361328 442.98602294921875 37.58088302612305 468.3839416503906 39.504783630371094 471.097900390625 C 56.20625305175781 488.5432434082031 35.29133987426758 492.4309387207031 11.08630084991455 504.0314025878906" stroke-width="6.0" fill="none" stroke="rgb(0, 0, 0)" stroke-opacity="1.0" stroke-linecap="round" stroke-linejoin="round"/>
    <path d="M 596.3367919921875 564.6409301757812 C 577.012451171875 570.0618286132812 601.3423461914062 563.4594116210938 578.9915771484375 557.4796752929688 C 561.3043212890625 570.2874755859375 529.6771850585938 564.5120849609375 499.1175842285156 576.9806518554688 C 498.306396484375 576.8788452148438 470.9331970214844 552.2412109375 459.443603515625 545.4215698242188 C 473.2891540527344 554.4912719726562 474.4379577636719 558.485107421875 463.8180847167969 548.5805053710938 C 482.9411926269531 557.6235961914062 450.19140625 574.67041015625 452.0128173828125 572.5447387695312" stroke-width="6.0" fill="none" stroke="rgb(0, 0, 0)" stroke-opacity="1.0" stroke-linecap="round" stroke-linejoin="round"/>
    <path d="M 328.3973083496094 -3.7522940635681152 C 312.408935546875 -6.628571033477783 327.8457336425781 -18.26697540283203 336.1994323730469 -32.092376708984375 C 313.7809143066406 -25.140195846557617 317.964111328125 -38.543209075927734 321.0956726074219 -39.39092254638672 C 348.02777099609375 -32.49371337890625 331.10552978515625 -44.003448486328125 340.0933837890625 -23.80488395690918 C 317.9951171875 -51.71158218383789 327.88568115234375 -62.69220733642578 314.7117614746094 -53.9565544128418 C 289.5484619140625 -75.02037811279297 294.98468017578125 -69.40919494628906 270.18218994140625 -72.29936981201172" stroke-width="6.0" fill="none" stroke="rgb(0, 0, 0)" stroke-opacity="1.0" stroke-linecap="round" stroke-linejoin="round"/>
    <path d="M 220.49093627929688 498.54339599609375 C 221.7853546142578 525.5296630859375 217.22293090820312 561.9691162109375 217.1359100341797 574.2084350585938 C 243.5270233154297 585.1397705078125 233.5062255859375 582.189453125 254.45892333984375 585.1187133789062 C 254.86512756347656 582.8960571289062 250.72454833984375 589.60693359375 273.4710388183594 575.5181884765625 C 266.5407409667969 585.6384887695312 260.4894104003906 561.328125 257.2362365722656 588.9755249023438 C 267.5415954589844 579.9479370117188 264.5023498535156 589.6053466796875 268.46575927734375 571.6229858398438" stroke-width="6.0" fill="none" stroke="rgb(0, 0, 0)" stroke-opacity="1.0" stroke-linecap="round" stroke-linejoin="round"/>
    <path d="M 293.0000305175781 220.89317321777344 C 309.238037109375 190.45567321777344 303.74847412109375 160.79779052734375 284.07867431640625 153.58065795898438 C 280.9149169921875 138.4451446533203 265.92376708984375 164.15260314941406 246.098388671875 175.21087646484375 C 246.7999725341797 147.7147674560547 255.51736450195312 137.102294921875 282.71044921875 148.2733154296875 C 255.9020538330078 158.9617919921875 275.3674011230469 154.5782928466797 295.6624450683594 178.40875244140625 C 316.6787414550781 155.8049774169922 325.6038513183594 176.41867065429688 325.2635192871094 194.6540985107422" stroke-width="6.0" fill="none" stroke="rgb(0, 0, 0)" stroke-opacity="1.0" stroke-linecap="round" stroke-linejoin="round"/>
    <path d="M 193.52786254882812 101.60879516601562 C 189.13648986816406 103.73180389404297 216.9543914794922 97.43196868896484 211.57058715820312 72.72388458251953 C 207.3668975830078 101.75313568115234 220.19000244140625 81.36248016357422 228.8453826904297 77.73096466064453 C 196.8357696533203 68.93490600585938 189.02267456054688 76.38792419433594 175.3451690673828 87.61881256103516 C 149.7760772705078 109.11034393310547 126.09871673583984 76.30061340332031 108.70249938964844 73.83267211914062 C 135.2310791015625 80.06927490234375 112.5918197631836 93.33362579345703 123.27838897705078 102.74208068847656" stroke-width="6.0" fill="none" stroke="rgb(0, 0, 0)" stroke-opacity="1.0" stroke-linecap="round" stroke-linejoin="round"/>
    <path d="M 42.894073486328125 381.55517578125 C 59.0313835144043 371.5606994628906 72.95933532714844 376.856201171875 48.26285934448242 353.64007568359375 C 41.58695983886719 328.81939697265625 61.28771209716797 321.92767333984375 49.272586822509766 335.0742492675781 C 59.16548156738281 334.1244812011719 81.71514129638672 357.70208740234375 85.2376937866211 353.25469970703125 C 87.9393081665039 339.3155517578125 116.94345092773438 349.3685607910156 90.73260498046875 322.69342041015625 C 103.93685150146484 335.3915710449219 125.32839965820312 363.2944641113281 107.5989990234375 336.63623046875" stroke-width="6.0" fill="none" stroke="rgb(0, 0, 0)" stroke-opacity="1.0" stroke-linecap="round" stroke-linejoin="round"/>
    <path d="M 196.39181518554688 575.0125732421875 C 183.89573669433594 576.4771728515625 168.21627807617188 575.01708984375 133.12783813476562 582.0919799804688 C 107.3232421875 561.5180053710938 83.32266998291016 592.6660766601562 113.4060287475586 614.1990356445312 C 121.730712890625 613.9912109375 122.6706314086914 600.0956420898438 93.66012573242188 623.196533203125 C 106.28324127197266 609.663330078125 126.27499389648438 637.5280151367188 144.63580322265625 621.7442016601562 C 154.5897674560547 633.3284301757812 154.45278930664062 647.1900024414062 177.7403564453125 632.7615966796875" stroke-width="6.0" fill="none" stroke="rgb(0, 0, 0)" stroke-opacity="1.0" stroke-linecap="round" stroke-linejoin="round"/>
    <path d="M 163.3476104736328 353.8799743652344 C 142.33843994140625 372.7427062988281 153.14854431152344 352.1629638671875 142.70289611816406 341.0517883300781 C 155.72537231445312 339.6022644042969 140.8583221435547 308.518310546875 151.73236083984375 322.3432922363281 C 149.38230895996094 318.7090148925781 146.09347534179688 303.8145446777344 148.8472137451172 280.8934020996094 C 128.59829711914062 267.4166564941406 123.88272094726562 240.2618408203125 103.9742202758789 273.58514404296875 C 94.80860137939453 273.2029113769531 129.9427947998047 299.9290466308594 119.13397979736328 291.4173278808594" stroke-width="6.0" fill="none" stroke="rgb(0, 0, 0)" stroke-opacity="1.0" stroke-linecap="round" stroke-linejoin="round"/>
    <path d="M 137.2667999267578 586.41015625 C 129.24398803710938 621.9014282226562 111.55931854248047 637.352294921875 80.00314331054688 636.1563110351562 C 109.20809173583984 623.5927124023438 80.884765625 644.3544311523438 99.3322982788086 624.6460571289062 C 118.50225067138672 599.76953125 122.62078094482422 598.0252075195312 110.48127746582031 581.0187377929688 C 111.11912536621094 563.6563110351562 86.32474517822266 592.2039794921875 57.376529693603516 604.3850708007812 C 37.658294677734375 626.5670166015625 15.288270950317383 624.6456909179688 16.23050308227539 613.4600219726562" stroke-width="6.0" fill="none" stroke="rgb(0, 0, 0)" stroke-opacity="1.0" stroke-linecap="round" stroke-linejoin="round"/>
    <path d="M 392.5967712402344 184.62644958496094 C 417.015625 208.46005249023438 414.2801208496094 189.40118408203125 437.7345275878906 203.1148223876953 C 426.00054931640625 218.23574829101562 442.9854736328125 218.7873992919922 451.8497619628906 194.80906677246094 C 434.87921142578125 222.00807189941406 430.043701171875 187.86578369140625 409.7337646484375 209.79588317871094 C 388.1170959472656 230.37908935546875 374.43096923828125 222.04273986816406 365.55078125 240.41015625 C 366.9043884277344 248.79029846191406 353.1842956542969 242.7952117919922 333.507568359375 227.83908081054688" stroke-width="6.0" fill="none" stroke="rgb(0, 0, 0)" stroke-opacity="1.0" stroke-linecap="round" stroke-linejoin="round"/>
    <path d="M 506.3380432128906 243.50299072265625 C 494.7973327636719 258.5332946777344 461.159912109375 258.1453552246094 440.8993835449219 285.7872009277344 C 419.7736511230469 272.6834411621094 398.8491516113281 279.37945556640625 384.5275573730469 260.39453125 C 363.37738037109375 273.46197509765625 354.5526428222656 278.32965087890625 380.6807556152344 262.9297790527344 C 387.30853271484375 261.52392578125 364.1608581542969 246.51426696777344 344.1900329589844 240.75115966796875 C 332.50518798828125 279.64483642578125 319.3249206542969 244.95101928710938 286.7674560546875 223.71405029296875" stroke-width="6.0" fill="none" stroke="rgb(0, 0, 0)" stroke-opacity="1.0" stroke-linecap="round" stroke-linejoin="round"/>
    <path d="M 422.8841857910156 218.03697204589844 C 437.38079833984375 204.38697814941406 408.77996826171875 183.65196228027344 397.1716613769531 176.4898681640625 C 385.2684631347656 171.4644317626953 409.5590515136719 168.9917755126953 411.3778381347656 159.60659790039062 C 432.7256164550781 185.40316772460938 407.4969482421875 181.6600799560547 425.6445007324219 194.71421813964844 C 449.1177062988281 206.08370971679688 438.1446533203125 230.74632263183594 428.7427062988281 203.47994995117188 C 455.0113220214844 224.77137756347656 433.3984069824219 208.06845092773438 413.58990478515625 191.7078857421875" stroke-width="6.0" fill="none" stroke="rgb(0, 0, 0)" stroke-opacity="1.0" stroke-linecap="round" stroke-linejoin="round"/>
    <path d="M 440.3876037597656 418.3644104003906 C 448.13409423828125 413.531982421875 427.2151184082031 429.37841796875 428.7485046386719 428.7557678222656 C 456.2797546386719 408.5278015136719 441.9989013671875 405.599365234375 416.9955139160156 392.0310363769531 C 447.31787109375 411.93304443359375 439.38482666015625 376.9486999511719 449.4031066894531 356.371826171875 C 453.28515625 339.2300720214844 422.7128601074219 323.78094482421875 404.4102478027344 313.9974060058594 C 420.2946472167969 319.6265869140625 407.9747314453125 330.3187561035156 420.6773681640625 309.1303405761719" stroke-width="6.0" fill="none" stroke="rgb(0, 0, 0)" stroke-opacity="1.0" stroke-linecap="round" stroke-linejoin="round"/>
    <path d="M 394.5801086425781 466.9452209472656 C 420.9112854003906 483.4652099609375 419.755859375 474.19744873046875 399.8715515136719 493.6414794921875 C 403.7899475097656 495.3855895996094 405.9148864746094 478.6165466308594 427.0423583984375 486.4722900390625 C 426.9285888671875 490.2495422363281 438.9634094238281 493.15234375 448.1138610839844 502.21649169921875 C 443.2166442871094 506.4141540527344 450.0131530761719 497.7400817871094 416.0331115722656 480.1061096191406 C 397.7495422363281 470.81982421875 375.07879638671875 451.0099182128906 360.08746337890625 443.6530456542969" stroke-width="6.0" fill="none" stroke="rgb(0, 0, 0)" stroke-opacity="1.0" stroke-linecap="round" stroke-linejoin="round"/>
    <path d="M 79.62147521972656 453.43878173828125 C 76.08596801757812 458.9792175292969 101.32486724853516 435.55352783203125 104.04788208007812 440.08306884765625 C 85.39637756347656 406.89239501953125 66.47602844238281 426.13232421875 79.67948913574219 420.8863525390625 C 51.67906951904297 401.0523376464844 73.07563018798828 381.2139892578125 97.320068359375 406.24151611328125 C 121.39424133300781 431.1827697753906 107.03324890136719 440.144775390625 88.7901611328125 429.09442138671875 C 74.00126647949219 409.0048522949219 56.992881774902344 395.26025390625 46.3161735534668 414.6201171875" stroke-width="6.0" fill="none" stroke="rgb(0, 0, 0)" stroke-opacity="1.0" stroke-linecap="round" stroke-linejoin="round"/>
    <path d="M 379.89776611328125 108.82693481445312 C 365.54901123046875 99.87213897705078 372.79083251953125 104.03455352783203 373.5743713378906 103.83441925048828 C 395.8722229003906 118.9018783569336 375.68902587890625 103.16735076904297 412.3678283691406 127.51290130615234 C 433.2061767578125 115.02726745605469 431.99365234375 119.32205200195312 445.7764587402344 106.1761245727539 C 469.9871826171875 107.04883575439453 461.0624694824219 89.76739501953125 448.918701171875 74.68502044677734 C 477.9208068847656 46.35452651977539 470.4846496582031 60.969932556152344 469.6474914550781 56.68752670288086" stroke-width="6.0" fill="none" stroke="rgb(0, 0, 0)" stroke-opacity="1.0" stroke-linecap="round" stroke-linejoin="round"/>
    <path d="M 508.06683349609375 126.12596893310547 C 489.08319091796875 142.1446533203125 500.6853942871094 121.93903350830078 511.1131286621094 112.87055969238281 C 527.6591186523438 107.70674133300781 544.819091796875 130.50814819335938 541.118408203125 121.73536682128906 C 540.39111328125 124.62452697753906 559.6871337890625 130.88938903808594 550.595947265625 135.48281860351562 C 530.8912353515625 160.70016479492188 520.1692504882812 152.86785888671875 542.0357055664062 141.0308074951172 C 559.7267456054688 134.1727294921875 574.1668090820312 108.91908264160156 598.3743896484375 138.70986938476562" stroke-width="6.0" fill="none" stroke="rgb(0, 0, 0)" stroke-opacity="1.0" stroke-linecap="round" stroke-linejoin="round"/>
    <path d="M 465.7736511230469 96.01376342773438 C 446.63690185546875 96.79290008544922 440.9781799316406 119.3543930053711 427.06005859375 117.70594787597656 C 413.0467529296875 121.5225830078125 413.62060546875 121.26349639892578 438.6192626953125 116.15766906738281 C 440.4740295410156 104.48883056640625 458.4376220703125 100.30480194091797 468.8969421386719 97.03658294677734 C 439.08160400390625 99.81568908691406 409.5152587890625 110.77496337890625 393.9697265625 97.43416595458984 C 362.8109436035156 65.87007141113281 356.24542236328125 82.31377410888672 370.1573791503906 78.21022033691406" stroke-width="6.0" fill="none" stroke="rgb(0, 0, 0)" stroke-opacity="1.0" stroke-linecap="round" stroke-linejoin="round"/>
    <path d="M 239.8967742919922 506.5103759765625 C 251.1017608642578 514.5662841796875 228.45387268066406 527.490234375 211.3802947998047 542.406982421875 C 210.8357391357422 537.4925537109375 213.88626098632812 548.0700073242188 218.1210479736328 552.809326171875 C 215.16543579101562 525.57275390625 226.8279571533203 553.8807373046875 226.5399932861328 536.4634399414062 C 228.37765502929688 526.2193603515625 237.0521240234375 524.2233276367188 213.82591247558594 533.3965454101562 C 229.52767944335938 524.4033813476562 215.7858428955078 534.361572265625 237.32025146484375 553.9866333007812" stroke-width="6.0" fill="none" stroke="rgb(0, 0, 0)" stroke-opacity="1.0" stroke-linecap="round" stroke-linejoin="round"/>
    <path d="M 140.3168182373047 68.31510925292969 C 108.95194244384766 96.20817565917969 116.25483703613281 124.2551040649414 108.98933410644531 106.55252075195312 C 102.66738891601562 100.9135971069336 85.98703002929688 119.43204498291016 96.68064880371094 120.6344985961914 C 116.08715057373047 140.67529296875 129.45030212402344 170.2073974609375 125.28179168701172 179.37216186523438 C 99.14781188964844 206.88848876953125 98.51741027832031 204.1634063720703 73.15373992919922 183.0194854736328 C 43.16975402832031 164.9602508544922 69.36063385009766 181.00479125976562 75.03421020507812 184.74635314941406" stroke-width="6.0" fill="none" stroke="rgb(0, 0, 0)" stroke-opacity="1.0" stroke-linecap="round" stroke-linejoin="round"/>
    <path d="M 27.149219512939453 341.857666015625 C 11.649470329284668 347.291015625 -20.537845611572266 378.2889099121094 10.884869575500488 379.03033447265625 C 32.46047592163086 353.9924621582031 48.579559326171875 364.68389892578125 43.955902099609375 381.90325927734375 C 39.65610122680664 418.70880126953125 23.58254623413086 429.246337890625 33.224979400634766 426.87548828125 C 6.94729471206665 408.26849365234375 25.464603424072266 437.9026184082031 49.45820999145508 412.0274658203125 C 56.620262145996094 392.636962890625 72.36714172363281 422.4118957519531 68.52149963378906 400.1007080078125" stroke-width="6.0" fill="none" stroke="rgb(0, 0, 0)" stroke-opacity="1.0" stroke-linecap="round" stroke-linejoin="round"/>
    <path d="M 554.222900390625 220.94764709472656 C 548.4591674804688 206.3542938232422 576.0007934570312 210.28907775878906 562.4197387695312 184.52658081054688 C 588.124755859375 184.43797302246094 586.52587890625 176.5117645263672 584.0104370117188 194.58493041992188 C 581.8232421875 208.65711975097656 574.9578857421875 220.50796508789062 549.5711059570312 220.91024780273438 C 547.6002807617188 244.18862915039062 547.4437255859375 233.91329956054688 555.4639892578125 243.77406311035156 C 543.5523681640625 265.26409912109375 570.7762451171875 281.2041931152344 534.7987060546875 251.9043731689453" stroke-width="6.0" fill="none" stroke="rgb(0, 0, 0)" stroke-opacity="1.0" stroke-linecap="round" stroke-linejoin="round"/>
    <path d="M 85.92808532714844 305.68670654296875 C 74.61917877197266 319.000732421875 49.27179718017578 319.0262756347656 74.77204895019531 332.2980041503906 C 114.19646453857422 358.3269348144531 113.35063171386719 351.0949401855469 93.43094635009766 367.26336669921875 C 107.5157699584961 371.5880432128906 121.09256744384766 362.3163146972656 99.08865356445312 377.7223205566406 C 99.4779052734375 361.1521911621094 108.01392364501953 372.568115234375 114.08938598632812 390.00457763671875 C 100.61648559570312 385.99188232421875 77.84650421142578 385.85205078125 69.10086059570312 409.82647705078125" stroke-width="6.0" fill="none" stroke="rgb(0, 0, 0)" stroke-opacity="1.0" stroke-linecap="round" stroke-linejoin="round"/>
    <path d="M 569.5940551757812 495.34942626953125 C 558.59521484375 479.1741943359375 551.31396484375 494.1790466308594 515.723876953125 515.9216918945312 C 547.2763671875 537.9649658203125 529.9537963867188 525.0452270507812 557.3255004882812 543.3021850585938 C 568.2738647460938 558.3845825195312 568.1004638671875 561.016845703125 570.926513671875 554.2582397460938 C 547.093017578125 528.3013305664062 536.9227294921875 530.72119140625 512.1297607421875 509.06390380859375 C 508.8155517578125 514.4458618164062 535.547607421875 484.488037109375 540.3455200195312 489.0088806152344" stroke-width="6.0" fill="none" stroke="rgb(0, 0, 0)" stroke-opacity="1.0" stroke-linecap="round" stroke-linejoin="round"/>
    <path d="M 482.92755126953125 301.885009765625 C 456.982421875 311.6001281738281 454.938232421875 337.53643798828125 435.6352233886719 356.9610900878906 C 463.6313171386719 336.44525146484375 446.02362060546875 308.3563232421875 445.5558776855469 302.35821533203125 C 463.15643310546875 321.099365234375 482.67669677734375 312.3715515136719 500.7268981933594 295.9726867675781 C 536.263916015625 315.13037109375 559.3357543945312 287.741455078125 573.52099609375 270.5076599121094 C 569.0419921875 284.29266357421875 571.391357421875 306.7601623535156 598.0802612304688 280.276611328125" stroke-width="6.0" fill="none" stroke="rgb(0, 0, 0)" stroke-opacity="1.0" stroke-linecap="round" stroke-linejoin="round"/>
    <path d="M 453.1923522949219 73.96256256103516 C 454.9466552734375 96.50344848632812 473.17431640625 90.64794158935547 483.201904296875 103.6300277709961 C 475.58905029296875 109.86702728271484 476.0083923339844 100.80408477783203 484.2607116699219 104.011962890625 C 489.2861022949219 75.311279296875 459.1389465332031 99.34464263916016 451.0686950683594 100.75116729736328 C 471.1927490234375 119.20426177978516 463.5816650390625 111.6827621459961 445.7983703613281 99.84673309326172 C 465.9718933105469 117.08259582519531 487.6797180175781 109.96903991699219 483.50537109375 133.20741271972656" stroke-width="6.0" fill="none" stroke="rgb(0, 0, 0)" stroke-opacity="1.0" stroke-linecap="round" stroke-linejoin="round"/>
    <path d="M 155.36814880371094 160.88632202148438 C 178.77198791503906 147.70315551757812 198.47250366210938 129.2642822265625 192.72482299804688 134.28671264648438 C 195.06045532226562 142.6314239501953 193.7218017578125 134.83270263671875 205.79571533203125 159.01524353027344 C 191.51699829101562 158.61669921875 200.0567626953125 145.25978088378906 178.3067169189453 130.1144561767578 C 202.68902587890625 135.36932373046875 201.37109375 129.93914794921875 217.817138671875 150.90965270996094 C 178.14491271972656 177.300537109375 141.85650634765625 189.47341918945312 172.61167907714844 201.28794860839844" stroke-width="6.0" fill="none" stroke="rgb(0, 0, 0)" stroke-opacity="1.0" stroke-linecap="round" stroke-linejoin="round"/>
    <path d="M 499.1835021972656 364.03778076171875 C 512.9761962890625 392.6658020019531 491.8919372558594 386.9662780761719 462.061767578125 364.4008483886719 C 440.3507080078125 354.45794677734375 446.0325622558594 330.1116943359375 473.6309814453125 306.826171875 C 497.87567138671875 280.7034606933594 483.3919677734375 274.2681884765625 491.1845703125 275.17413330078125 C 483.2303466796875 302.4731140136719 464.27520751953125 317.31158447265625 444.4617004394531 327.51123046875 C 445.691162109375 325.6379699707031 449.1025085449219 327.5684814453125 429.3076171875 310.55096435546875" stroke-width="6.0" fill="none" stroke="rgb(0, 0, 0)" stroke-opacity="1.0" stroke-linecap="round" stroke-linejoin="round"/>
    <path d="M 414.4764404296875 372.26019287109375 C 400.62384033203125 388.33062744140625 396.3610534667969 382.0325012207031 368.1988830566406 403.7437438964844 C 374.9863586425781 408.47943115234375 387.3385314941406 388.48724365234375 387.39306640625 390.6007385253906 C 417.5951843261719 402.9890441894531 410.9571228027344 426.7552185058594 396.0650634765625 406.198486328125 C 391.5548400878906 415.2868347167969 389.9446716308594 433.2122802734375 371.47149658203125 433.81146240234375 C 360.6471862792969 439.70367431640625 335.3648986816406 453.3252868652344 358.656494140625 474.9855651855469" stroke-width="6.0" fill="none" stroke="rgb(0, 0, 0)" stroke-opacity="1.0" stroke-linecap="round" stroke-linejoin="round"/>
    <path d="M 309.7745361328125 578.5439453125 C 310.9090270996094 579.5602416992188 308.300048828125 578.4215698242188 304.29638671875 580.2049560546875 C 282.826904296875 602.8242797851562 288.5748291015625 625.739501953125 253.71334838867188 596.3697509765625 C 282.1403503417969 559.9488525390625 256.87103271484375 537.275390625 260.59747314453125 544.5812377929688 C 220.5247344970703 542.956298828125 191.9504852294922 538.55712890625 170.74948120117188 570.448486328125 C 144.1727294921875 590.2928466796875 122.35589599609375 580.1244506835938 112.85858917236328 584.3784790039062" stroke-width="6.0" fill="none" stroke="rgb(0, 0, 0)" stroke-opacity="1.0" stroke-linecap="round" stroke-linejoin="round"/>
    <path d="M 119.43853759765625 216.42552185058594 C 110.99341583251953 202.44297790527344 108.0470199584961 178.70558166503906 108.11844635009766 192.5742950439453 C 78.36054229736328 208.39305114746094 59.58778381347656 233.94419860839844 64.80072021484375 215.08900451660156 C 51.810325622558594 229.49246215820312 52.600738525390625 225.05258178710938 38.717857360839844 240.69735717773438 C 23.889209747314453 221.5826873779297 12.787596702575684 202.07064819335938 27.347900390625 197.3236083984375 C 44.73390579223633 180.06626892089844 46.711002349853516 196.72349548339844 39.31774139404297 187.23468017578125" stroke-width="6.0" fill="none" stroke="rgb(0, 0, 0)" stroke-opacity="1.0" stroke-linecap="round" stroke-linejoin="round"/>
    <path d="M 295.1995849609375 57.03628921508789 C 289.90057373046875 70.05180358886719 305.8458557128906 50.87762451171875 316.05975341796875 50.559749603271484 C 290.0461120605469 66.92098999023438 306.3440246582031 72.47669982910156 307.3265686035156 60.185829162597656 C 308.73089599609375 75.63099670410156 326.5686950683594 71.59046936035156 335.24957275390625 89.39276885986328 C 323.1878356933594 99.3023452758789 319.9951171875 103.43048858642578 340.8525085449219 83.33980560302734 C 355.02288818359375 84.04313659667969 354.7705993652344 59.95832443237305 383.0329895019531 57.205875396728516" stroke-width="6.0" fill="none" stroke="rgb(0, 0, 0)" stroke-opacity="1.0" stroke-linecap="round" stroke-linejoin="round"/>
    <path d="M 154.8817596435547 92.56874084472656 C 141.5131072998047 120.95000457763672 168.79225158691406 142.33529663085938 149.3536834716797 168.33143615722656 C 150.7325897216797 178.03872680664062 145.19070434570312 159.7251434326172 168.97450256347656 179.31683349609375 C 140.52850341796875 196.16859436035156 148.17971801757812 201.10044860839844 128.4589385986328 203.4844970703125 C 153.6104736328125 214.99081420898438 156.92420959472656 219.5918731689453 158.24234008789062 226.5772247314453 C 177.84620666503906 189.0663299560547 199.6543731689453 205.54010009765625 185.88955688476562 231.29689025878906" stroke-width="6.0" fill="none" stroke="rgb(0, 0, 0)" stroke-opacity="1.0" stroke-linecap="round" stroke-linejoin="round"/>
    <path d="M 149.06753540039062 338.21221923828125 C 169.23074340820312 323.54315185546875 182.45242309570312 313.620849609375 201.80099487304688 301.1485290527344 C 196.43060302734375 308.2981262207031 214.36155700683594 319.55767822265625 206.08580017089844 333.3638000488281 C 196.3000030517578 312.9750671386719 192.63070678710938 321.5160217285156 186.5717010498047 311.83001708984375 C 188.94366455078125 288.70367431640625 176.11399841308594 267.78302001953125 186.291015625 261.3818054199219 C 174.8220977783203 241.98394775390625 163.80859375 241.61412048339844 125.37110900878906 212.9346923828125" stroke-width="6.0" fill="none" stroke="rgb(0, 0, 0)" stroke-opacity="1.0" stroke-linecap="round" stroke-linejoin="round"/>
    <path d="M 179.8658447265625 174.5458984375 C 187.21568298339844 163.15525817871094 169.86891174316406 193.44891357421875 145.25393676757812 185.4685516357422 C 146.935302734375 183.5167694091797 158.79933166503906 194.59744262695312 179.5718231201172 206.37240600585938 C 166.40151977539062 207.79061889648438 181.0698699951172 212.94337463378906 192.8964080810547 193.3469696044922 C 206.66311645507812 184.94296264648438 236.82545471191406 176.12222290039062 218.96017456054688 145.4481658935547 C 236.683349609375 157.18563842773438 233.39987182617188 183.69482421875 204.71632385253906 189.63714599609375" stroke-width="6.0" fill="none" stroke="rgb(0, 0, 0)" stroke-opacity="1.0" stroke-linecap="round" stroke-linejoin="round"/>
    <path d="M 528.1459350585938 250.55023193359375 C 563.2284545898438 223.15139770507812 578.9015502929688 195.47457885742188 586.3743896484375 181.58297729492188 C 571.8983154296875 200.3657989501953 558.1817626953125 200.95115661621094 548.2723999023438 187.01795959472656 C 522.96875 207.6602783203125 506.60919189453125 229.1363525390625 509.4927062988281 192.2887420654297 C 466.47637939453125 167.1798858642578 449.9275207519531 151.33966064453125 459.7326965332031 164.54222106933594 C 488.4283447265625 134.76449584960938 506.3888244628906 120.22331237792969 510.2821350097656 109.8169174194336" stroke-width="6.0" fill="none" stroke="rgb(0, 0, 0)" stroke-opacity="1.0" stroke-linecap="round" stroke-linejoin="round"/>
    <path d="M 254.56214904785156 482.10333251953125 C 245.95208740234375 486.40557861328125 220.64695739746094 471.83807373046875 240.40049743652344 476.1690368652344 C 239.30203247070312 469.1504211425781 249.8241424560547 496.64019775390625 237.275146484375 490.0920715332031 C 225.1375274658203 507.28265380859375 244.02662658691406 512.1171264648438 234.61895751953125 496.6283874511719 C 245.327392578125 514.9785766601562 235.19992065429688 519.0159301757812 236.30899047851562 527.1952514648438 C 244.23834228515625 514.7108764648438 234.329345703125 501.7512512207031 235.70655822753906 496.29376220703125" stroke-width="6.0" fill="none" stroke="rgb(0, 0, 0)" stroke-opacity="1.0" stroke-linecap="round" stroke-linejoin="round"/>
    <path d="M 74.46024322509766 294.2928771972656 C 64.69417572021484 283.74871826171875 54.86055374145508 282.1577453613281 37.70096206665039 267.4486999511719 C 50.50381851196289 258.9197692871094 47.925296783447266 262.4972229003906 64.76390075683594 248.5912628173828 C 90.59170532226562 275.1990661621094 110.49736022949219 282.980712890625 116.48308563232422 259.3913269042969 C 103.77294158935547 223.0117645263672 96.85845184326172 242.8645782470703 115.60260772705078 218.1957244873047 C 87.27713012695312 226.37916564941406 105.68470001220703 247.35089111328125 110.56714630126953 258.954833984375" stroke-width="6.0" fill="none" stroke="rgb(0, 0, 0)" stroke-opacity="1.0" stroke-linecap="round" stroke-linejoin="round"/>
    <path d="M 309.0769958496094 21.762754440307617 C 275.8468017578125 42.96138000488281 291.7496643066406 36.28728103637695 279.8851013183594 48.726322174072266 C 257.27392578125 50.31667709350586 247.0601348876953 71.0692367553711 232.30458068847656 74.24327850341797 C 230.56890869140625 72.12061309814453 257.47259521484375 45.52228927612305 273.2546691894531 44.65399169921875 C 283.0898742675781 43.837345123291016 288.0397644042969 69.71096801757812 289.029052734375 51.33641052246094 C 284.1951904296875 33.893524169921875 305.4789123535156 28.133405685424805 312.7176818847656 21.40617561340332" stroke-width="6.0" fill="none" stroke="rgb(0, 0, 0)" stroke-opacity="1.0" stroke-linecap="round" stroke-linejoin="round"/>
    <path d="M 298.0440368652344 -3.8987667560577393 C 310.6963195800781 -5.003424644470215 327.7590637207031 -7.553681373596191 349.9715576171875 -4.1419548988342285 C 376.4500427246094 -26.199016571044922 357.9605712890625 -12.623445510864258 386.9745178222656 -3.4755380153656006 C 365.3394775390625 -22.88243293762207 359.09423828125 -0.4408032298088074 349.0049133300781 -6.785996913909912 C 354.9857482910156 -26.397602081298828 357.55291748046875 -8.519906044006348 359.2274169921875 -8.023728370666504 C 337.2403869628906 -3.8194687366485596 335.0550842285156 -10.776561737060547 319.1752624511719 -33.74574279785156" stroke-width="6.0" fill="none" stroke="rgb(0, 0, 0)" stroke-opacity="1.0" stroke-linecap="round" stroke-linejoin="round"/>
    <path d="M 299.7135009765625 326.3065185546875 C 284.61785888671875 334.4898376464844 266.8654479980469 323.7273254394531 271.50823974609375 345.88287353515625 C 274.5238037109375 359.7865295410156 287.4091796875 351.4498291015625 260.7839050292969 341.8031311035156 C 248.7762908935547 319.8483581542969 261.3087463378906 319.9952087402344 249.3064422607422 331.4641418457031 C 262.2528381347656 349.5662841796875 258.4788818359375 367.244873046875 266.6611328125 395.5752868652344 C 245.66421508789062 402.09552001953125 231.08692932128906 372.9556884765625 231.42494201660156 380.86279296875" stroke-width="6.0" fill="none" stroke="rgb(0, 0, 0)" stroke-opacity="1.0" stroke-linecap="round" stroke-linejoin="round"/>
    <path d="M 205.24365234375 -0.8749160170555115 C 177.95538330078125 28.503877639770508 185.73727416992188 39.72612762451172 212.15858459472656 63.25641632080078 C 203.4707794189453 59.654502868652344 218.19000244140625 48.09235382080078 204.68038940429688 64.71450805664062 C 203.90953063964844 54.442832946777344 177.6080322265625 28.40256118774414 179.57054138183594 30.665969848632812 C 161.01760864257812 26.815017700195312 156.74185180664062 10.911745071411133 155.2593994140625 24.133577346801758 C 134.30226135253906 38.76551818847656 134.28372192382812 36.51353454589844 117.17439270019531 49.386478424072266" stroke-width="6.0" fill="none" stroke="rgb(0, 0, 0)" stroke-opacity="1.0" stroke-linecap="round" stroke-linejoin="round"/>
    <path d="M 356.74639892578125 579.3056640625 C 360.9219055175781 584.222900390625 355.9538879394531 573.8751220703125 353.5902404785156 582.7284545898438 C 348.0510559082031 611.8264770507812 362.3406066894531 614.3667602539062 381.108642578125 605.5829467773438 C 380.64532470703125 609.4479370117188 381.5656433105469 624.1658325195312 389.5968017578125 607.9642944335938 C 392.03546142578125 617.281005859375 407.0124206542969 599.0728759765625 412.22100830078125 608.227294921875 C 401.1671142578125 581.5303344726562 387.79144287109375 570.9210205078125 390.2848205566406 572.9874877929688" stroke-width="6.0" fill="none" stroke="rgb(0, 0, 0)" stroke-opacity="1.0" stroke-linecap="round" stroke-linejoin="round"/>
    <path d="M 514.264404296875 570.117919921875 C 490.4862976074219 586.267578125 496.0448913574219 563.255615234375 481.4483337402344 572.8287963867188 C 478.89495849609375 579.3408203125 501.8948669433594 549.4782104492188 496.4879455566406 547.3369140625 C 488.208251953125 522.0422973632812 490.990478515625 539.7498779296875 499.957763671875 544.46923828125 C 524.5734252929688 560.7637939453125 517.6107788085938 559.317138671875 507.63812255859375 549.8734130859375 C 507.1426696777344 539.2242431640625 494.60992431640625 557.2788696289062 494.7742004394531 540.173583984375" stroke-width="6.0" fill="none" stroke="rgb(0, 0, 0)" stroke-opacity="1.0" stroke-linecap="round" stroke-linejoin="round"/>
    <path d="M 437.2710876464844 436.1037292480469 C 427.460205078125 449.88104248046875 458.31121826171875 431.5155334472656 457.08612060546875 395.3743591308594 C 473.9755554199219 375.8940734863281 496.15301513671875 373.7623291015625 493.78741455078125 391.24554443359375 C 522.9628295898438 399.4251403808594 545.82421875 404.0956115722656 568.5979614257812 411.6148376464844 C 556.2122802734375 410.1587829589844 540.5219116210938 380.5276794433594 544.8873291015625 397.1098937988281 C 516.6133422851562 418.5069274902344 508.33074951171875 409.6483154296875 531.0745239257812 409.4120178222656" stroke-width="6.0" fill="none" stroke="rgb(0, 0, 0)" stroke-opacity="1.0" stroke-linecap="round" stroke-linejoin="round"/>
    <path d="M 601.23095703125 398.7836608886719 C 586.6849975585938 404.664306640625 568.2102661132812 374.6989440917969 593.8125610351562 356.4938049316406 C 614.487060546875 335.1046447753906 629.7175903320312 357.1829528808594 636.3250732421875 365.4460754394531 C 660.1454467773438 375.3535461425781 639.6061401367188 361.613525390625 664.8394775390625 364.6212158203125 C 693.5886840820312 362.34765625 668.9021606445312 392.3036193847656 669.9197387695312 389.7962341308594 C 682.0775146484375 379.8425598144531 709.4775390625 395.9218444824219 727.0902099609375 400.4561767578125" stroke-width="6.0" fill="none" stroke="rgb(0, 0, 0)" stroke-opacity="1.0" stroke-linecap="round" stroke-linejoin="round"/>
    <path d="M 427.0998840332031 466.70404052734375 C 439.3133239746094 474.93829345703125 445.73321533203125 459.818359375 435.5452575683594 441.13970947265625 C 413.65545654296875 450.92242431640625 404.99420166015625 460.30584716796875 438.7921142578125 471.22576904296875 C 429.5487976074219 448.330078125 399.7648620605469 418.4810485839844 390.72161865234375 442.7259521484375 C 375.2964172363281 440.04815673828125 383.87860107421875 431.23388671875 371.4251403808594 406.0901184082031 C 397.8342590332031 389.6489562988281 379.75384521484375 412.66326904296875 402.05206298828125 400.27606201171875" stroke-width="6.0" fill="none" stroke="rgb(0, 0, 0)" stroke-opacity="1.0" stroke-linecap="round" stroke-linejoin="round"/>
    <path d="M 366.33416748046875 26.366113662719727 C 392.30029296875 39.129878997802734 402.6294860839844 54.19467544555664 415.68487548828125 39.40892791748047 C 412.24969482421875 58.0435676574707 423.66021728515625 44.6831169128418 402.61517333984375 43.063289642333984 C 367.30914306640625 71.2554702758789 384.5133361816406 65.26671600341797 390.1023254394531 79.97844696044922 C 414.2900695800781 60.6395149230957 428.66265869140625 51.078697204589844 449.72857666015625 74.27847290039062 C 459.52801513671875 85.89169311523438 467.6551208496094 109.25369262695312 455.7834777832031 125.41370391845703" stroke-width="6.0" fill="none" stroke="rgb(0, 0, 0)" stroke-opacity="1.0" stroke-linecap="round" stroke-linejoin="round"/>
    <path d="M 311.8481750488281 265.8458557128906 C 311.9498596191406 300.69384765625 298.8808288574219 277.46441650390625 276.3685607910156 271.4240417480469 C 273.250244140625 257.86798095703125 281.36041259765625 255.35191345214844 249.69479370117188 240.31802368164062 C 240.80068969726562 207.91937255859375 265.9593811035156 201.3376007080078 278.5221252441406 223.74143981933594 C 275.6307067871094 246.91436767578125 290.82891845703125 280.1437072753906 312.07568359375 254.70411682128906 C 318.0630187988281 246.85284423828125 336.8092956542969 272.7861633300781 343.3779296875 246.9183807373047" stroke-width="6.0" fill="none" stroke="rgb(0, 0, 0)" stroke-opacity="1.0" stroke-linecap="round" stroke-linejoin="round"/>
    <path d="M 429.656494140625 175.7149658203125 C 460.6290283203125 155.62745666503906 480.7663879394531 145.4953155517578 497.0706787109375 118.17488861083984 C 508.4950256347656 115.56147003173828 493.4978942871094 90.04767608642578 459.72906494140625 117.2873764038086 C 449.8319396972656 137.98263549804688 453.4079284667969 123.77291870117188 434.3236083984375 114.6537857055664 C 472.4505310058594 94.03134155273438 498.1908874511719 84.57864379882812 489.7005310058594 89.78333282470703 C 500.2886962890625 68.7330322265625 495.5469055175781 85.95995330810547 509.32269287109375 87.82933807373047" stroke-width="6.0" fill="none" stroke="rgb(0, 0, 0)" stroke-opacity="1.0" stroke-linecap="round" stroke-linejoin="round"/>
    <path d="M 168.2117919921875 -3.6682753562927246 C 171.32432556152344 -22.993457794189453 199.30810546875 -32.60347366333008 188.88897705078125 -9.968111991882324 C 161.93955993652344 -27.680686950683594 163.61656188964844 -48.09259033203125 190.05213928222656 -54.45083236694336 C 219.27691650390625 -82.732421875 219.2064971923828 -68.98468780517578 210.6053009033203 -84.3410415649414 C 195.37841796875 -92.20128631591797 203.37998962402344 -89.99806213378906 203.29257202148438 -77.30354309082031 C 202.95159912109375 -95.10964965820312 198.71774291992188 -87.57909393310547 181.09288024902344 -74.8634033203125" stroke-width="6.0" fill="none" stroke="rgb(0, 0, 0)" stroke-opacity="1.0" stroke-linecap="round" stroke-linejoin="round"/>
    <path d="M 47.456504821777344 349.7627258300781 C 38.296409606933594 370.2644348144531 49.727508544921875 357.62567138671875 32.85420608520508 345.497314453125 C 10.790923118591309 339.0779724121094 19.040550231933594 322.0535888671875 5.179993152618408 333.27716064453125 C -14.201943397521973 352.75128173828125 -45.804420471191406 327.7532958984375 -75.5097885131836 332.92413330078125 C -69.0827407836914 314.621826171875 -80.07777404785156 300.4948425292969 -103.78861999511719 308.18609619140625 C -120.07923126220703 301.41546630859375 -113.86963653564453 272.1154479980469 -108.38877868652344 285.8790588378906" stroke-width="6.0" fill="none" stroke="rgb(0, 0, 0)" stroke-opacity="1.0" stroke-linecap="round" stroke-linejoin="round"/>
    <path d="M 512.523681640625 534.0559692382812 C 506.34405517578125 534.7669067382812 533.1754150390625 512.6231689453125 549.4989013671875 535.944580078125 C 572.5098876953125 516.1686401367188 576.1947631835938 528.3534545898438 561.75830078125 508.3123474121094 C 574.3323974609375 487.00286865234375 597.0525512695312 514.8115844726562 574.820068359375 516.0166015625 C 566.058837890625 537.332275390625 576.7910766601562 512.172607421875 583.0052490234375 507.2713317871094 C 589.9623413085938 532.8988647460938 590.3207397460938 530.0703735351562 591.704833984375 560.1263427734375" stroke-width="6.0" fill="none" stroke="rgb(0, 0, 0)" stroke-opacity="1.0" stroke-linecap="round" stroke-linejoin="round"/>
    <path d="M 426.742431640625 19.86900520324707 C 423.6191101074219 8.869460105895996 408.65582275390625 6.164651870727539 385.42230224609375 29.522037506103516 C 396.0627746582031 49.75033950805664 423.8349304199219 52.80620193481445 414.80804443359375 66.04780578613281 C 393.52508544921875 100.6409912109375 385.9992980957031 133.16421508789062 394.8954772949219 105.73048400878906 C 392.83319091796875 114.34662628173828 398.2237548828125 101.0380859375 402.6640319824219 85.40486907958984 C 422.1219177246094 94.24632263183594 413.599365234375 110.11054229736328 415.0546875 117.1814956665039" stroke-width="6.0" fill="none" stroke="rgb(0, 0, 0)" stroke-opacity="1.0" stroke-linecap="round" stroke-linejoin="round"/>
    <path d="M 330.27972412109375 61.28989791870117 C 306.0527648925781 56.27117919921875 333.01971435546875 23.848533630371094 353.427490234375 49.089088439941406 C 330.30609130859375 36.63126754760742 324.5563049316406 29.58216667175293 337.2409362792969 25.77637481689453 C 369.9458923339844 1.1422094106674194 353.74041748046875 -24.556827545166016 342.9552001953125 -9.440681457519531 C 356.77313232421875 -39.82457733154297 328.8074951171875 -50.969871520996094 333.25341796875 -71.4682846069336 C 311.0556640625 -98.03469848632812 316.5629577636719 -72.33222198486328 329.6455993652344 -73.14714050292969" stroke-width="6.0" fill="none" stroke="rgb(0, 0, 0)" stroke-opacity="1.0" stroke-linecap="round" stroke-linejoin="round"/>
    <path d="M 263.1885681152344 507.79803466796875 C 269.12890625 500.5381164550781 254.55252075195312 517.1156616210938 257.71051025390625 538.475341796875 C 270.00384521484375 558.1332397460938 244.4686737060547 538.5110473632812 264.6583251953125 526.3978271484375 C 239.83543395996094 502.9258117675781 212.82150268554688 480.4273376464844 181.33920288085938 499.09002685546875 C 163.28781127929688 516.2132568359375 164.12313842773438 511.906982421875 190.19337463378906 493.6466369628906 C 206.17002868652344 492.47161865234375 224.8730926513672 460.688720703125 236.4871063232422 478.457763671875" stroke-width="6.0" fill="none" stroke="rgb(0, 0, 0)" stroke-opacity="1.0" stroke-linecap="round" stroke-linejoin="round"/>
    <path d="M 87.92618560791016 302.8275451660156 C 107.91644287109375 315.32818603515625 120.44793701171875 340.51019287109375 116.59774017333984 375.3407897949219 C 115.90139770507812 390.3785095214844 87.86408996582031 369.2585754394531 93.5165023803711 387.278076171875 C 122.31554412841797 364.6618347167969 101.64755249023438 372.3241271972656 94.66474914550781 391.8283996582031 C 113.2764892578125 360.7554626464844 131.4033203125 360.88555908203125 110.48782348632812 314.31109619140625 C 128.7323455810547 333.18060302734375 101.7652816772461 321.8280029296875 101.0008544921875 337.85089111328125" stroke-width="6.0" fill="none" stroke="rgb(0, 0, 0)" stroke-opacity="1.0" stroke-linecap="round" stroke-linejoin="round"/>
    <path d="M 427.2611999511719 119.96058654785156 C 429.78485107421875 102.99296569824219 402.07366943359375 99.12537384033203 414.7403564453125 81.9573974609375 C 447.9219665527344 66.84245300292969 459.96563720703125 70.03203582763672 426.9449768066406 65.95246887207031 C 448.6136169433594 78.18863677978516 429.45928955078125 58.89490509033203 414.1833190917969 50.58323669433594 C 412.0924072265625 40.711124420166016 416.7897033691406 32.756629943847656 431.88262939453125 25.715564727783203 C 459.7123107910156 4.133217811584473 481.6455078125 24.427038192749023 498.60589599609375 7.598882675170898" stroke-width="6.0" fill="none" stroke="rgb(0, 0, 0)" stroke-opacity="1.0" stroke-linecap="round" stroke-linejoin="round"/>
    <path d="M 207.17823791503906 324.6465148925781 C 189.5236053466797 330.9600524902344 176.412109375 347.624755859375 150.6324005126953 359.59649658203125 C 167.16075134277344 356.4374084472656 175.68231201171875 341.2782897949219 151.68701171875 362.3149108886719 C 152.0478057861328 361.58087158203125 130.5635528564453 376.4381408691406 97.2671127319336 392.85711669921875 C 106.05467987060547 402.6021728515625 103.00089263916016 373.15869140625 112.12889099121094 375.0592956542969 C 137.18417358398438 383.5686950683594 127.1610107421875 378.141357421875 98.6781234741211 390.798095703125" stroke-width="6.0" fill="none" stroke="rgb(0, 0, 0)" stroke-opacity="1.0" stroke-linecap="round" stroke-linejoin="round"/>
    <path d="M 525.6709594726562 460.1069641113281 C 507.9463195800781 441.20098876953125 495.7538757324219 440.582763671875 468.9634094238281 418.7154235839844 C 453.1638488769531 413.2485046386719 452.0882263183594 441.1459045410156 436.6407470703125 427.2598876953125 C 420.2299499511719 409.0115661621094 410.43402099609375 409.2037353515625 421.3451843261719 427.163330078125 C 431.8359069824219 409.99169921875 412.18328857421875 412.53424072265625 429.2096252441406 426.78155517578125 C 424.5773010253906 407.9437255859375 394.8084716796875 393.9958190917969 367.76007080078125 406.5330810546875" stroke-width="6.0" fill="none" stroke="rgb(0, 0, 0)" stroke-opacity="1.0" stroke-linecap="round" stroke-linejoin="round"/>
    <path d="M 218.4073486328125 78.61417388916016 C 209.1399383544922 98.34451293945312 195.75225830078125 92.12004089355469 174.38954162597656 117.39730072021484 C 205.60519409179688 142.13755798339844 215.55812072753906 155.15235900878906 209.82290649414062 155.3749542236328 C 232.74436950683594 182.64402770996094 242.79261779785156 168.18289184570312 229.89739990234375 155.5425567626953 C 198.7483673095703 141.65916442871094 187.6702880859375 165.4407958984375 204.77044677734375 146.8235321044922 C 192.6984405517578 151.50811767578125 221.82093811035156 162.3927459716797 246.55908203125 161.5894012451172" stroke-width="6.0" fill="none" stroke="rgb(0, 0, 0)" stroke-opacity="1.0" stroke-linecap="round" stroke-linejoin="round"/>
    <path d="M 285.1561584472656 274.3332824707031 C 285.03839111328125 255.30555725097656 308.7092590332031 263.1919860839844 311.3859558105469 279.9355773925781 C 335.9708557128906 265.1615295410156 344.13433837890625 225.2993621826172 362.505126953125 214.14556884765625 C 377.7472229003906 212.50794982910156 378.8360290527344 189.94378662109375 388.53204345703125 183.33810424804688 C 369.8562927246094 206.75440979003906 362.9953918457031 205.69711303710938 334.97222900390625 179.86422729492188 C 367.039794921875 171.87017822265625 390.871826171875 162.25331115722656 412.26629638671875 197.81492614746094" stroke-width="6.0" fill="none" stroke="rgb(0, 0, 0)" stroke-opacity="1.0" stroke-linecap="round" stroke-linejoin="round"/>
    <path d="M 63.95967102050781 133.93679809570312 C 70.91658020019531 113.28071594238281 88.33332061767578 121.81753540039062 71.49884796142578 119.82731628417969 C 81.10890197753906 111.06417846679688 82.68667602539062 119.15656280517578 52.376930236816406 111.30984497070312 C 56.70840835571289 83.26001739501953 72.52742767333984 71.5439224243164 78.21658325195312 65.24663543701172 C 79.39055633544922 71.72392272949219 51.601261138916016 86.16214752197266 66.38572692871094 73.15143585205078 C 80.68817138671875 86.01829528808594 92.8263931274414 96.93526458740234 59.5329704284668 119.30094909667969" stroke-width="6.0" fill="none" stroke="rgb(0, 0, 0)" stroke-opacity="1.0" stroke-linecap="round" stroke-linejoin="round"/>
    <path d="M 451.7459716796875 212.79025268554688 C 438.7453308105469 206.1981201171875 448.1678466796875 199.88987731933594 456.5320129394531 188.165283203125 C 439.6509704589844 182.83816528320312 446.630126953125 167.3518524169922 450.5076904296875 157.27235412597656 C 481.1000061035156 131.74037170410156 493.1155700683594 121.01436614990234 512.7825317382812 107.10135650634766 C 506.5977783203125 80.67223358154297 509.43475341796875 82.59937286376953 508.05609130859375 62.21194076538086 C 517.8906860351562 57.83039093017578 525.813232421875 34.31553649902344 533.7109375 49.00746536254883" stroke-width="6.0" fill="none" stroke="rgb(0, 0, 0)" stroke-opacity="1.0" stroke-linecap="round" stroke-linejoin="round"/>
    <path d="M 318.2178649902344 136.64439392089844 C 344.3439636230469 159.4830780029297 349.821533203125 152.39356994628906 352.6909484863281 138.1831817626953 C 364.70428466796875 157.7613525390625 380.2773132324219 180.95693969726562 398.57611083984375 169.75814819335938 C 400.1301574707031 175.79258728027344 408.7796936035156 201.27659606933594 387.9776306152344 216.82342529296875 C 365.1020202636719 183.69505310058594 368.3647766113281 174.71112060546875 343.3870849609375 153.3888397216797 C 355.0497741699219 139.93087768554688 360.9158935546875 153.59970092773438 355.2260437011719 136.26576232910156" stroke-width="6.0" fill="none" stroke="rgb(0, 0, 0)" stroke-opacity="1.0" stroke-linecap="round" stroke-linejoin="round"/>
    <path d="M 248.11032104492188 584.9523315429688 C 237.66497802734375 582.1578979492188 247.4666748046875 556.4220581054688 280.3193664550781 553.9075927734375 C 291.51007080078125 584.7080688476562 298.1401062011719 605.8500366210938 277.5730895996094 599.0492553710938 C 307.2012634277344 568.0106201171875 324.7911376953125 587.0386352539062 308.14544677734375 617.6976318359375 C 284.4990234375 587.4192504882812 284.42431640625 563.9905395507812 287.8812255859375 594.4308471679688 C 291.0123596191406 583.970947265625 300.8693542480469 600.5275268554688 270.27154541015625 573.5512084960938" stroke-width="6.0" fill="none" stroke="rgb(0, 0, 0)" stroke-opacity="1.0" stroke-linecap="round" stroke-linejoin="round"/>
    <path d="M 8.826454162597656 590.6625366210938 C -8.026287078857422 600.0905151367188 -30.28851318359375 581.1995849609375 -21.266679763793945 601.8112182617188 C 3.6409428119659424 579.0557861328125 -10.826138496398926 566.0078125 4.5689568519592285 579.251220703125 C -6.119853496551514 588.9434204101562 -0.10855506360530853 594.76611328125 4.777999401092529 599.5157470703125 C 20.610715866088867 619.1406860351562 0.7113442420959473 631.7859497070312 -12.521169662475586 643.008544921875 C -32.05169677734375 624.308837890625 -45.456085205078125 634.2332153320312 -51.337100982666016 638.7925415039062" stroke-width="6.0" fill="none" stroke="rgb(0, 0, 0)" stroke-opacity="1.0" stroke-linecap="round" stroke-linejoin="round"/>
    <path d="M 370.2341003417969 499.4429626464844 C 371.3327331542969 500.07733154296875 376.4013366699219 509.6703796386719 370.6004333496094 512.677978515625 C 346.2865295410156 526.63037109375 367.34600830078125 546.2620239257812 354.10784912109375 523.0204467773438 C 339.2078552246094 535.1697998046875 352.90185546875 515.7994995117188 362.4667053222656 490.9914855957031 C 356.3924560546875 505.3831481933594 351.4693908691406 526.7500610351562 333.8875732421875 537.437744140625 C 353.2812805175781 509.8417663574219 367.57598876953125 525.4595947265625 368.9944152832031 498.314697265625" stroke-width="6.0" fill="none" stroke="rgb(0, 0, 0)" stroke-opacity="1.0" stroke-linecap="round" stroke-linejoin="round"/>
    <path d="M 34.225830078125 493.9932861328125 C 18.80217742919922 489.2987060546875 4.079582214355469 469.7929382324219 -11.557876586914062 491.8148193359375 C 15.846515655517578 506.15985107421875 23.71283721923828 537.2882690429688 46.17772674560547 529.835693359375 C 20.908775329589844 536.9443969726562 46.054420471191406 520.7507934570312 34.65227508544922 532.8150024414062 C 30.984769821166992 521.5951538085938 1.2706079483032227 501.8922424316406 15.13354778289795 496.4299011230469 C 11.598882675170898 520.6104125976562 36.72177505493164 531.160888671875 37.33384704589844 530.2308349609375" stroke-width="6.0" fill="none" stroke="rgb(0, 0, 0)" stroke-opacity="1.0" stroke-linecap="round" stroke-linejoin="round"/>
    <path d="M 120.40442657470703 94.80046081542969 C 137.8336181640625 69.47544860839844 119.1509017944336 89.87158966064453 92.00228881835938 65.60964965820312 C 94.9386215209961 52.83893585205078 115.67764282226562 82.32981872558594 132.5645294189453 91.99529266357422 C 159.00628662109375 95.02899932861328 162.61854553222656 89.52401733398438 153.88107299804688 104.26673126220703 C 135.79205322265625 88.11595153808594 109.7343521118164 79.02376556396484 101.01363372802734 68.21751403808594 C 113.1888198852539 86.82567596435547 122.61529541015625 83.80570983886719 125.54063415527344 99.38827514648438" stroke-width="6.0" fill="none" stroke="rgb(0, 0, 0)" stroke-opacity="1.0" stroke-linecap="round" stroke-linejoin="round"/>
    <path d="M 276.8194885253906 386.5059509277344 C 286.02410888671875 376.10894775390625 267.8617858886719 400.0852966308594 254.5921173095703 396.3499450683594 C 283.8924560546875 415.7567443847656 309.9129333496094 434.047119140625 315.19921875 438.2434997558594 C 301.4393005371094 425.38751220703125 326.5946960449219 442.14483642578125 345.3194274902344 458.9189147949219 C 335.4291076660156 456.25848388671875 300.5126647949219 489.5406494140625 263.2460021972656 508.23291015625 C 252.0896453857422 518.7193603515625 276.16192626953125 518.0867309570312 283.9163513183594 535.953369140625" stroke-width="6.0" fill="none" stroke="rgb(0, 0, 0)" stroke-opacity="1.0" stroke-linecap="round" stroke-linejoin="round"/>
    <path d="M 348.4007873535156 171.75828552246094 C 363.6242370605469 164.11558532714844 356.0572204589844 153.5123748779297 355.50164794921875 137.7704620361328 C 348.5239562988281 143.14138793945312 350.8702697753906 145.13241577148438 361.5066223144531 167.42816162109375 C 364.1014099121094 190.49334716796875 335.8037109375 202.1995849609375 317.4317932128906 212.6141815185547 C 319.2540283203125 247.3222198486328 312.5913391113281 267.7049255371094 289.80255126953125 263.3243713378906 C 285.67291259765625 275.0752868652344 287.61895751953125 256.3827819824219 287.3594055175781 275.7793884277344" stroke-width="6.0" fill="none" stroke="rgb(0, 0, 0)" stroke-opacity="1.0" stroke-linecap="round" stroke-linejoin="round"/>
    <path d="M 580.8463745117188 472.30023193359375 C 616.9990234375 494.86572265625 592.0274658203125 521.9024658203125 597.4534912109375 548.8353881835938 C 620.10546875 553.3067016601562 600.7343139648438 566.5755004882812 579.1472778320312 537.1737670898438 C 587.416748046875 509.4411315917969 567.3892211914062 492.338134765625 548.59619140625 520.435791015625 C 534.2936401367188 535.1453857421875 546.8032836914062 535.2927856445312 527.255126953125 522.614990234375 C 509.8599548339844 517.14794921875 531.9763793945312 505.1878356933594 542.5369873046875 497.287109375" stroke-width="6.0" fill="none" stroke="rgb(0, 0, 0)" stroke-opacity="1.0" stroke-linecap="round" stroke-linejoin="round"/>
    <path d="M 229.11407470703125 237.3429412841797 C 241.52813720703125 229.29837036132812 225.86219787597656 231.37567138671875 228.8162078857422 254.9312744140625 C 244.51113891601562 241.29232788085938 258.53369140625 267.752685546875 252.07725524902344 261.9487609863281 C 238.66354370117188 239.496337890625 222.65501403808594 244.99395751953125 228.36959838867188 263.5323181152344 C 201.97744750976562 258.09326171875 206.2172393798828 255.42657470703125 186.11715698242188 275.2508544921875 C 211.53857421875 300.235107421875 196.56471252441406 291.38677978515625 195.9722900390625 281.04754638671875" stroke-width="6.0" fill="none" stroke="rgb(0, 0, 0)" stroke-opacity="1.0" stroke-linecap="round" stroke-linejoin="round"/>
    <path d="M 82.29533386230469 585.6017456054688 C 79.28636932373047 599.95703125 95.80088806152344 577.9221801757812 103.50853729248047 561.5928955078125 C 106.42803192138672 563.8118286132812 84.15030670166016 542.5113525390625 70.34105682373047 523.215087890625 C 77.8087387084961 541.4539184570312 98.33425903320312 525.7727661132812 79.40565490722656 530.339599609375 C 102.50403594970703 526.8486328125 102.8051986694336 519.3787231445312 95.40898132324219 497.31256103515625 C 102.2472152709961 526.6629638671875 106.93946838378906 516.568603515625 79.8129653930664 536.1027221679688" stroke-width="6.0" fill="none" stroke="rgb(0, 0, 0)" stroke-opacity="1.0" stroke-linecap="round" stroke-linejoin="round"/>
    <path d="M 444.9738464355469 166.2377471923828 C 408.7120361328125 189.52281188964844 411.5895080566406 188.38134765625 387.3617858886719 173.8241729736328 C 385.5313415527344 188.30299377441406 375.5520935058594 213.87744140625 359.281982421875 216.69540405273438 C 338.0403137207031 238.4049072265625 331.0328369140625 247.9927520751953 369.01495361328125 271.1473388671875 C 386.7795715332031 278.58599853515625 399.1983642578125 292.26898193359375 412.29730224609375 296.0096740722656 C 436.1893310546875 285.81292724609375 436.03399658203125 281.69598388671875 431.5784912109375 311.0166320800781" stroke-width="6.0" fill="none" stroke="rgb(0, 0, 0)" stroke-opacity="1.0" stroke-linecap="round" stroke-linejoin="round"/>
    <path d="M 141.8915252685547 551.8063354492188 C 162.56275939941406 535.7459106445312 177.8583984375 532.8681030273438 172.57431030273438 533.5718994140625 C 137.93283081054688 547.9007568359375 131.78506469726562 572.00830078125 111.26749420166016 544.7725830078125 C 121.79668426513672 554.3739013671875 127.59112548828125 534.4326171875 148.16812133789062 519.5928344726562 C 117.49555969238281 535.7827758789062 135.9159698486328 563.3041381835938 128.95907592773438 578.5704345703125 C 163.2620849609375 576.9883422851562 187.48255920410156 583.1212158203125 171.82806396484375 575.1209716796875" stroke-width="6.0" fill="none" stroke="rgb(0, 0, 0)" stroke-opacity="1.0" stroke-linecap="round" stroke-linejoin="round"/>
    <path d="M 384.81671142578125 56.36525344848633 C 373.99395751953125 62.1331787109375 346.7044982910156 34.31046676635742 321.8905334472656 47.46978759765625 C 324.1708984375 79.24932098388672 318.6470642089844 71.51986694335938 343.74139404296875 85.88480377197266 C 328.6430358886719 95.20748901367188 324.1214294433594 61.5870246887207 347.79998779296875 42.069984436035156 C 374.84075927734375 75.02725219726562 379.7344970703125 85.29914093017578 340.40582275390625 107.90595245361328 C 332.6429138183594 104.11602783203125 348.3616943359375 111.83018493652344 359.73626708984375 122.91865539550781" stroke-width="6.0" fill="none" stroke="rgb(0, 0, 0)" stroke-opacity="1.0" stroke-linecap="round" stroke-linejoin="round"/>
    <path d="M 181.46713256835938 204.43887329101562 C 160.2382049560547 227.2052001953125 187.55210876464844 202.12355041503906 154.95523071289062 191.8898162841797 C 126.69941711425781 167.24752807617188 103.42001342773438 160.63645935058594 84.31059265136719 147.29112243652344 C 71.87969207763672 132.6297607421875 46.4254035949707 131.091064453125 43.8392333984375 114.77999877929688 C 67.3568115234375 96.69953155517578 79.33906555175781 117.45470428466797 54.36591720581055 113.40128326416016 C 68.17053985595703 108.56077575683594 53.4931640625 104.030517578125 62.2693977355957 77.65695190429688" stroke-width="6.0" fill="none" stroke="rgb(0, 0, 0)" stroke-opacity="1.0" stroke-linecap="round" stroke-linejoin="round"/>
    <path d="M 342.0120849609375 501.59283447265625 C 341.8275146484375 504.668212890625 338.5274353027344 519.1822509765625 342.5411071777344 501.04840087890625 C 363.6647644042969 497.01019287109375 362.1618347167969 492.2059631347656 370.88189697265625 498.79949951171875 C 387.74163818359375 508.82275390625 395.938232421875 511.2796630859375 413.45428466796875 525.9178466796875 C 443.8033447265625 548.1957397460938 445.70123291015625 541.7757568359375 456.50067138671875 534.6084594726562 C 418.2881774902344 554.2091674804688 411.166748046875 561.6826782226562 409.1351623535156 561.9485473632812" stroke-width="6.0" fill="none" stroke="rgb(0, 0, 0)" stroke-opacity="1.0" stroke-linecap="round" stroke-linejoin="round"/>
    <path d="M 117.95796966552734 482.00250244140625 C 95.83019256591797 487.2220153808594 101.00910186767578 497.99462890625 122.63968658447266 479.634521484375 C 116.72950744628906 458.2744140625 120.64484405517578 479.14532470703125 105.1840591430664 490.2310485839844 C 86.62733459472656 457.7061462402344 66.42953491210938 486.5885009765625 70.74126434326172 494.32232666015625 C 89.5945053100586 518.691162109375 81.56395721435547 507.23565673828125 70.85332489013672 494.47589111328125 C 50.461647033691406 477.1544189453125 28.076433181762695 468.0985412597656 19.325037002563477 485.08563232421875" stroke-width="6.0" fill="none" stroke="rgb(0, 0, 0)" stroke-opacity="1.0" stroke-linecap="round" stroke-linejoin="round"/>
    <path d="M 407.1703796386719 197.36248779296875 C 429.0321044921875 204.47421264648438 459.4295959472656 224.94822692871094 470.6075439453125 226.66143798828125 C 483.6321716308594 221.06773376464844 456.6360168457031 246.2577667236328 428.23199462890625 256.70068359375 C 416.6391296386719 277.1828918457031 422.9403991699219 249.82872009277344 440.5921936035156 262.56695556640625 C 413.1439514160156 294.72564697265625 397.81048583984375 274.4083251953125 410.33062744140625 271.76080322265625 C 439.6211242675781 252.44204711914062 452.15008544921875 245.1156463623047 454.7816467285156 213.24063110351562" stroke-width="6.0" fill="none" stroke="rgb(0, 0, 0)" stroke-opacity="1.0" stroke-linecap="round" stroke-linejoin="round"/>
    <path d="M 513.1988525390625 417.59771728515625 C 536.1727905273438 398.40216064453125 549.5384521484375 370.38885498046875 567.81494140625 359.8849182128906 C 565.13427734375 328.3138122558594 580.4791870117188 352.694091796875 565.8445434570312 338.77154541015625 C 583.3887329101562 312.00189208984375 563.3527221679688 322.03887939453125 548.8031005859375 336.4335021972656 C 545.5311279296875 340.5243225097656 565.3275146484375 359.18475341796875 573.4225463867188 334.6132507324219 C 591.1655883789062 324.3832092285156 599.1221923828125 312.5390319824219 622.1678466796875 310.2660217285156" stroke-width="6.0" fill="none" stroke="rgb(0, 0, 0)" stroke-opacity="1.0" stroke-linecap="round" stroke-linejoin="round"/>
    <path d="M 580.0908203125 462.2906188964844 C 603.14306640625 437.1125183105469 593.72900390625 457.4258728027344 614.8457641601562 451.7734375 C 642.791748046875 420.61492919921875 661.7838134765625 415.8094787597656 649.0823974609375 398.08489990234375 C 630.4008178710938 383.99774169921875 617.4900512695312 403.0942077636719 608.9319458007812 428.2623291015625 C 630.023193359375 407.312744140625 639.230224609375 399.5636291503906 629.8809814453125 419.3067321777344 C 630.6088256835938 412.7867126464844 632.6535034179688 436.20599365234375 617.7387084960938 437.3097839355469" stroke-width="6.0" fill="none" stroke="rgb(0, 0, 0)" stroke-opacity="1.0" stroke-linecap="round" stroke-linejoin="round"/>
    <path d="M 186.8876495361328 258.3986511230469 C 204.30274963378906 254.99954223632812 200.12095642089844 233.7937774658203 164.1264190673828 234.5513153076172 C 188.12802124023438 256.8110046386719 171.63868713378906 252.66848754882812 174.48779296875 243.9761505126953 C 163.71449279785156 254.09317016601562 174.03443908691406 286.56622314453125 177.10769653320312 282.3406677246094 C 163.2628173828125 287.7844543457031 181.64366149902344 287.2695007324219 149.27662658691406 264.0310363769531 C 144.5924530029297 269.6303405761719 153.11045837402344 252.01388549804688 142.3777618408203 275.7610778808594" stroke-width="6.0" fill="none" stroke="rgb(0, 0, 0)" stroke-opacity="1.0" stroke-linecap="round" stroke-linejoin="round"/>
    <path d="M 369.1121826171875 560.8333740234375 C 370.4474182128906 551.1502685546875 349.0555419921875 572.2705078125 369.920166015625 595.3023071289062 C 371.78106689453125 624.3276977539062 367.384765625 617.0928344726562 335.64947509765625 607.4467163085938 C 359.4462585449219 576.1953125 385.0125427246094 554.1500244140625 358.6283874511719 578.8851318359375 C 381.086669921875 542.8411254882812 354.1922912597656 533.4859619140625 342.6233825683594 510.86236572265625 C 336.6518249511719 486.37286376953125 331.1440734863281 477.8625183105469 329.28302001953125 477.7305908203125" stroke-width="6.0" fill="none" stroke="rgb(0, 0, 0)" stroke-opacity="1.0" stroke-linecap="round" stroke-linejoin="round"/>
    <path d="M 9.445362091064453 446.3559875488281 C 3.07828426361084 448.2733154296875 20.547489166259766 432.83258056640625 25.119068145751953 447.09796142578125 C 51.338321685791016 472.6708068847656 57.773681640625 446.9477844238281 71.133544921875 443.472900390625 C 66.81465148925781 432.96051025390625 91.96184539794922 441.9153137207031 73.44120788574219 437.4893798828125 C 62.88085174560547 434.8342590332031 68.24272918701172 434.1459655761719 92.05146789550781 448.8044738769531 C 111.6965560913086 417.6450500488281 105.48949432373047 446.3735656738281 115.40605163574219 442.3128967285156" stroke-width="6.0" fill="none" stroke="rgb(0, 0, 0)" stroke-opacity="1.0" stroke-linecap="round" stroke-linejoin="round"/>
    <path d="M 161.34378051757812 538.8357543945312 C 143.18150329589844 515.5779418945312 126.46097564697266 523.2943725585938 99.92939758300781 495.6465148925781 C 107.45531463623047 475.1663818359375 122.17730712890625 474.95709228515625 114.00948333740234 482.9256896972656 C 119.4605712890625 459.4553527832031 124.90225982666016 475.20233154296875 150.01661682128906 455.3391418457031 C 129.36781311035156 472.1429138183594 126.22177124023438 478.52728271484375 127.2127685546875 471.01177978515625 C 108.11542510986328 485.40380859375 121.32496643066406 481.42169189453125 125.33342742919922 476.3691101074219" stroke-width="6.0" fill="none" stroke="rgb(0, 0, 0)" stroke-opacity="1.0" stroke-linecap="round" stroke-linejoin="round"/>
    <path d="M 182.35777282714844 81.9892578125 C 184.318115234375 59.62760543823242 166.66778564453125 67.67494201660156 171.64991760253906 86.37871551513672 C 170.07984924316406 54.18593215942383 148.65147399902344 64.5471420288086 160.448974609375 57.325767517089844 C 156.62916564941406 60.63039779663086 156.89080810546875 36.89130401611328 176.2164306640625 67.3427505493164 C 182.6798553466797 74.75104522705078 153.56451416015625 97.2955322265625 121.63927459716797 93.68496704101562 C 131.1075897216797 113.238525390625 150.87069702148438 121.58592987060547 123.99885559082031 101.91654205322266" stroke-width="6.0" fill="none" stroke="rgb(0, 0, 0)" stroke-opacity="1.0" stroke-linecap="round" stroke-linejoin="round"/>
    <path d="M 594.1921997070312 541.5335083007812 C 573.4638061523438 539.5419921875 593.5781860351562 517.6705322265625 576.685791015625 530.367919921875 C 604.9793701171875 524.778076171875 596.989501953125 556.856689453125 615.9281616210938 544.031005859375 C 608.872314453125 542.7763671875 613.9005737304688 530.6727905273438 606.8828735351562 498.5345764160156 C 586.0139770507812 517.9486694335938 610.2120971679688 519.2282104492188 578.7005004882812 521.8410034179688 C 563.5687255859375 522.7014770507812 555.8462524414062 528.7964477539062 548.7322998046875 537.8478393554688" stroke-width="6.0" fill="none" stroke="rgb(0, 0, 0)" stroke-opacity="1.0" stroke-linecap="round" stroke-linejoin="round"/>
    <path d="M 388.0684509277344 228.29039001464844 C 392.3501892089844 210.34275817871094 403.57159423828125 192.83328247070312 399.7709045410156 197.33497619628906 C 397.48992919921875 212.17715454101562 390.4956359863281 211.2731170654297 396.72412109375 215.77310180664062 C 423.6601257324219 239.59507751464844 425.5419616699219 234.57713317871094 436.0530700683594 222.86798095703125 C 449.50238037109375 210.0211944580078 421.9490051269531 237.54623413085938 422.4541015625 233.31884765625 C 431.8659973144531 245.00196838378906 447.06890869140625 245.29409790039062 466.3951416015625 261.021484375" stroke-width="6.0" fill="none" stroke="rgb(0, 0, 0)" stroke-opacity="1.0" stroke-linecap="round" stroke-linejoin="round"/>
    <path d="M 122.9259033203125 379.9191589355469 C 123.13860321044922 375.3682556152344 106.76734161376953 395.2296447753906 133.9570770263672 421.2199401855469 C 106.58619689941406 426.69317626953125 117.769775390625 448.6265869140625 115.20188903808594 449.52984619140625 C 121.37287139892578 444.9853210449219 120.14212036132812 452.59857177734375 141.21649169921875 431.0420227050781 C 131.72232055664062 434.6479187011719 123.57189178466797 447.32427978515625 124.7437515258789 478.1632995605469 C 138.93470764160156 472.1883544921875 153.34933471679688 456.7474060058594 193.7804412841797 433.5429992675781" stroke-width="6.0" fill="none" stroke="rgb(0, 0, 0)" stroke-opacity="1.0" stroke-linecap="round" stroke-linejoin="round"/>
    <path d="M 446.52166748046875 325.7789001464844 C 461.36285400390625 314.8188171386719 448.79730224609375 334.1399841308594 445.5958557128906 299.454345703125 C 436.644287109375 296.3945007324219 465.6968994140625 280.3261413574219 481.3254089355469 268.7456359863281 C 482.9139404296875 245.65415954589844 486.0270080566406 223.73162841796875 497.0393981933594 199.31044006347656 C 503.734619140625 214.31878662109375 520.7941284179688 220.8373565673828 549.106689453125 189.51795959472656 C 573.8511962890625 170.5081024169922 564.0657958984375 172.49964904785156 536.4323120117188 154.32521057128906" stroke-width="6.0" fill="none" stroke="rgb(0, 0, 0)" stroke-opacity="1.0" stroke-linecap="round" stroke-linejoin="round"/>
    <path d="M 238.36976623535156 249.1103515625 C 227.80258178710938 235.342529296875 242.8741455078125 220.82611083984375 274.2905578613281 209.72215270996094 C 282.82000732421875 200.97296142578125 252.59796142578125 173.0671844482422 261.8927307128906 142.15150451660156 C 299.6380310058594 123.87352752685547 286.76593017578125 115.2828369140625 307.417724609375 129.51046752929688 C 342.4043273925781 149.06910705566406 337.47454833984375 146.6391143798828 327.2359619140625 144.0832977294922 C 315.48211669921875 168.6901397705078 313.4844665527344 185.46096801757812 316.5016784667969 202.55491638183594" stroke-width="6.0" fill="none" stroke="rgb(0, 0, 0)" stroke-opacity="1.0" stroke-linecap="round" stroke-linejoin="round"/>
    <path d="M 377.952880859375 56.97022247314453 C 382.7489929199219 84.9896469116211 398.8728942871094 63.517818450927734 402.5864562988281 86.64737701416016 C 391.26300048828125 101.748779296875 421.3210144042969 114.1763687133789 414.3227844238281 116.50537872314453 C 432.4352111816406 132.88327026367188 429.8764343261719 102.77892303466797 416.1685485839844 126.99147033691406 C 433.63250732421875 110.49312591552734 422.21240234375 119.88648986816406 415.3749694824219 134.4730987548828 C 389.6260681152344 112.61603546142578 359.1085510253906 100.82707977294922 363.22650146484375 94.00981903076172" stroke-width="6.0" fill="none" stroke="rgb(0, 0, 0)" stroke-opacity="1.0" stroke-linecap="round" stroke-linejoin="round"/>
    <path d="M 417.65380859375 37.77824020385742 C 427.0471496582031 12.804320335388184 432.1901550292969 34.975486755371094 472.0444030761719 10.043115615844727 C 482.0033874511719 -9.012530326843262 444.0509948730469 -9.088679313659668 439.08148193359375 10.238658905029297 C 426.31488037109375 1.3580894470214844 395.0315856933594 3.6054060459136963 407.6902770996094 -8.936650276184082 C 396.31927490234375 -1.3932569026947021 409.7729797363281 20.552261352539062 377.7868957519531 34.651771545410156 C 389.72674560546875 17.287601470947266 409.5943298339844 6.272850513458252 439.76885986328125 3.164698839187622" stroke-width="6.0" fill="none" stroke="rgb(0, 0, 0)" stroke-opacity="1.0" stroke-linecap="round" stroke-linejoin="round"/>
    <path d="M 94.30475616455078 603.3712768554688 C 91.00475311279297 614.898681640625 91.58229064941406 630.4053955078125 106.32151794433594 641.009033203125 C 78.93510437011719 629.7811889648438 56.579586029052734 624.1544799804688 72.14765167236328 642.7371826171875 C 43.90346908569336 663.9558715820312 31.348142623901367 674.0220336914062 50.87865447998047 678.58642578125 C 73.64960479736328 649.218994140625 89.31209564208984 660.4722290039062 92.57492065429688 661.4268798828125 C 104.05046081542969 648.273193359375 132.36415100097656 634.6095581054688 150.93746948242188 652.7550659179688" stroke-width="6.0" fill="none" stroke="rgb(0, 0, 0)" stroke-opacity="1.0" stroke-linecap="round" stroke-linejoin="round"/>
    <path d="M 351.0246276855469 417.5721130371094 C 374.36138916015625 394.3278503417969 356.9065856933594 407.16607666015625 365.1695861816406 407.6427917480469 C 345.0259704589844 426.4170837402344 342.1038818359375 420.6691589355469 324.1577453613281 401.177734375 C 330.65283203125 386.9544982910156 343.6345520019531 383.4340515136719 355.6227111816406 406.4883117675781 C 340.4506530761719 388.06207275390625 337.86749267578125 405.92913818359375 360.7016906738281 366.0763244628906 C 342.3372497558594 359.72222900390625 322.5252990722656 338.4216003417969 345.24908447265625 356.9821472167969" stroke-width="6.0" fill="none" stroke="rgb(0, 0, 0)" stroke-opacity="1.0" stroke-linecap="round" stroke-linejoin="round"/>
    <path d="M 194.3085479736328 239.30975341796875 C 194.09536743164062 233.51409912109375 193.75738525390625 250.88919067382812 217.4688720703125 263.59124755859375 C 230.648681640625 255.7222137451172 215.654052734375 232.86111450195312 237.9767608642578 228.93601989746094 C 236.4900665283203 258.35552978515625 238.1237335205078 253.79843139648438 206.68475341796875 274.2267150878906 C 177.05625915527344 289.06829833984375 180.19863891601562 318.0675048828125 213.00221252441406 293.0963134765625 C 199.33824157714844 313.5980529785156 208.89227294921875 285.82379150390625 186.2312469482422 276.7570495605469" stroke-width="6.0" fill="none" stroke="rgb(0, 0, 0)" stroke-opacity="1.0" stroke-linecap="round" stroke-linejoin="round"/>
    <path d="M 480.1911926269531 356.7462158203125 C 502.5397644042969 369.8502502441406 502.70220947265625 390.160888671875 519.7966918945312 420.7124938964844 C 528.0302124023438 436.9715270996094 503.81219482421875 451.18267822265625 490.99127197265625 455.67596435546875 C 489.724609375 471.38775634765625 466.95452880859375 437.3964538574219 448.85699462890625 453.7176513671875 C 463.2007141113281 456.6502990722656 448.08270263671875 458.024658203125 437.07379150390625 461.7039489746094 C 422.6643371582031 443.3572692871094 420.101318359375 452.7733154296875 427.9747619628906 454.14825439453125" stroke-width="6.0" fill="none" stroke="rgb(0, 0, 0)" stroke-opacity="1.0" stroke-linecap="round" stroke-linejoin="round"/>
    <path d="M 523.761474609375 403.9308776855469 C 540.2089233398438 393.95098876953125 565.7420043945312 406.15582275390625 591.4706420898438 409.6195373535156 C 619.203369140625 413.2294616699219 614.55126953125 399.524169921875 638.0037231445312 424.441162109375 C 659.8292236328125 412.9317932128906 666.7958984375 424.2485656738281 649.613525390625 436.0046691894531 C 678.97314453125 447.21478271484375 705.7970581054688 453.7306213378906 727.70947265625 478.0988464355469 C 722.265625 484.4874572753906 745.9201049804688 504.3473815917969 772.10107421875 502.1761169433594" stroke-width="6.0" fill="none" stroke="rgb(0, 0, 0)" stroke-opacity="1.0" stroke-linecap="round" stroke-linejoin="round"/>
    <path d="M 586.4578247070312 205.23439025878906 C 586.6682739257812 190.4223175048828 561.3493041992188 176.30113220214844 573.4442749023438 195.4037628173828 C 584.8629760742188 208.30868530273438 601.5513916015625 194.8313446044922 602.1193237304688 190.1933135986328 C 630.6659545898438 170.5872802734375 619.0736083984375 186.6103973388672 630.2122802734375 195.90614318847656 C 607.9518432617188 217.04795837402344 606.625244140625 217.76702880859375 624.5235595703125 221.55294799804688 C 610.2969360351562 208.1114044189453 608.9841918945312 230.1802520751953 604.8764038085938 214.5021209716797" stroke-width="6.0" fill="none" stroke="rgb(0, 0, 0)" stroke-opacity="1.0" stroke-linecap="round" stroke-linejoin="round"/>
    <path d="M 311.0519104003906 70.494384765625 C 327.44500732421875 58.82818603515625 355.9266357421875 47.06540298461914 347.2520751953125 52.167457580566406 C 360.3562927246094 40.808929443359375 386.8476257324219 66.11489868164062 365.59527587890625 67.67320251464844 C 392.6392822265625 53.493873596191406 382.01080322265625 65.24974060058594 377.4127502441406 58.318607330322266 C 402.7181396484375 41.866966247558594 425.3431701660156 29.221410751342773 411.1134338378906 63.2680549621582 C 419.038818359375 83.9651107788086 451.67755126953125 114.36602020263672 468.23480224609375 94.50555419921875" stroke-width="6.0" fill="none" stroke="rgb(0, 0, 0)" stroke-opacity="1.0" stroke-linecap="round" stroke-linejoin="round"/>
    <path d="M 461.1893005371094 88.19548797607422 C 449.31744384765625 62.4582633972168 433.2818603515625 69.31878662109375 439.5003967285156 75.87448120117188 C 448.23541259765625 68.4406509399414 452.6197814941406 82.32762908935547 441.8825378417969 67.75594329833984 C 418.1827697753906 86.89998626708984 418.837646484375 73.93376922607422 403.7513122558594 76.75987243652344 C 377.1695251464844 98.53154754638672 358.6450500488281 81.059814453125 375.93145751953125 86.73572540283203 C 362.25714111328125 80.5638656616211 341.72283935546875 69.06385040283203 332.906982421875 56.30193328857422" stroke-width="6.0" fill="none" stroke="rgb(0, 0, 0)" stroke-opacity="1.0" stroke-linecap="round" stroke-linejoin="round"/>
    <path d="M 196.155029296875 233.5788116455078 C 190.36920166015625 219.57579040527344 211.15859985351562 213.13369750976562 238.5123291015625 194.52090454101562 C 233.14468383789062 193.2216033935547 215.76712036132812 180.7165069580078 204.7807159423828 180.01156616210938 C 198.42108154296875 204.80799865722656 184.02542114257812 226.9534149169922 184.5484161376953 237.80271911621094 C 174.75889587402344 233.48092651367188 198.47105407714844 249.29261779785156 180.45994567871094 234.1747283935547 C 150.6929931640625 222.58042907714844 171.3618621826172 204.82484436035156 159.623046875 216.9754638671875" stroke-width="6.0" fill="none" stroke="rgb(0, 0, 0)" stroke-opacity="1.0" stroke-linecap="round" stroke-linejoin="round"/>
    <path d="M 302.2014465332031 210.80612182617188 C 307.92315673828125 213.53907775878906 272.29986572265625 222.410400390625 298.52960205078125 244.43492126464844 C 334.17169189453125 266.3107604980469 349.4771423339844 274.95294189453125 373.27520751953125 291.7928466796875 C 380.7956848144531 297.8227844238281 375.59967041015625 292.3346252441406 383.77435302734375 300.1066589355469 C 343.8609619140625 324.78533935546875 325.4192199707031 355.03338623046875 297.9443359375 327.6007080078125 C 279.1125183105469 338.74609375 253.5775604248047 349.0156555175781 237.8821563720703 361.4097900390625" stroke-width="6.0" fill="none" stroke="rgb(0, 0, 0)" stroke-opacity="1.0" stroke-linecap="round" stroke-linejoin="round"/>
    <path d="M 117.36239624023438 117.54749298095703 C 110.02584838867188 106.72223663330078 90.0287857055664 102.87798309326172 73.4154052734375 79.31702423095703 C 58.17570114135742 72.85225677490234 35.382362365722656 90.06929016113281 21.361404418945312 88.32539367675781 C 30.32318115234375 67.47818756103516 37.497371673583984 55.4432258605957 27.313323974609375 75.50148010253906 C 15.517118453979492 94.41462707519531 31.166025161743164 83.41532135009766 39.26441955566406 102.55859375 C 49.615966796875 93.70879364013672 70.20626831054688 111.61223602294922 40.57530212402344 102.3760757446289" stroke-width="6.0" fill="none" stroke="rgb(0, 0, 0)" stroke-opacity="1.0" stroke-linecap="round" stroke-linejoin="round"/>
    <path d="M 92.54297637939453 128.20286560058594 C 102.25141906738281 139.5714569091797 93.54367065429688 122.57038879394531 98.85408782958984 129.31800842285156 C 76.1626205444336 115.27650451660156 56.31708526611328 122.14515686035156 28.330453872680664 98.37669372558594 C 40.19498825073242 119.80946350097656 63.428199768066406 104.62126922607422 76.88301849365234 107.55570983886719 C 47.22846984863281 101.71849822998047 21.605655670166016 126.58147430419922 0.712920069694519 158.99949645996094 C 0.6791797280311584 123.44625854492188 17.95785140991211 159.19366455078125 1.7376015186309814 162.98805236816406" stroke-width="6.0" fill="none" stroke="rgb(0, 0, 0)" stroke-opacity="1.0" stroke-linecap="round" stroke-linejoin="round"/>
    <path d="M 132.51722717285156 178.4790496826172 C 128.7309112548828 183.9786376953125 108.7181396484375 160.5970458984375 101.59613037109375 156.6127166748047 C 87.04166412353516 147.80764770507812 66.76215362548828 174.138671875 39.1024169921875 189.52894592285156 C 40.48773956298828 189.77218627929688 15.007600784301758 201.03717041015625 19.047792434692383 216.6060791015625 C 39.01216506958008 237.2969512939453 41.65928649902344 233.0806121826172 26.019929885864258 245.14132690429688 C 13.146749496459961 262.62200927734375 4.154109477996826 262.8724365234375 -0.6205847263336182 269.8326721191406" stroke-width="6.0" fill="none" stroke="rgb(0, 0, 0)" stroke-opacity="1.0" stroke-linecap="round" stroke-linejoin="round"/>
    <path d="M 466.5702819824219 562.6580810546875 C 460.1369934082031 573.6491088867188 447.28656005859375 566.7863159179688 420.0690002441406 599.7662963867188 C 442.107666015625 589.0692749023438 424.1824035644531 618.3605346679688 441.5738220214844 617.652587890625 C 413.35626220703125 626.4910278320312 408.5445556640625 607.0300903320312 379.46484375 630.1183471679688 C 396.0417175292969 617.0191040039062 399.75927734375 643.7578735351562 409.4532470703125 648.0377807617188 C 407.4437255859375 677.8905639648438 391.1298522949219 672.9617309570312 409.8275451660156 684.1435546875" stroke-width="6.0" fill="none" stroke="rgb(0, 0, 0)" stroke-opacity="1.0" stroke-linecap="round" stroke-linejoin="round"/>
    <path d="M 532.7802734375 122.33043670654297 C 528.3319091796875 146.0000457763672 522.9207153320312 121.5262222290039 518.1629638671875 114.82119750976562 C 488.6301574707031 146.916015625 476.5419921875 141.54779052734375 496.7970886230469 114.30269622802734 C 523.4765014648438 131.4512939453125 545.0938110351562 132.63211059570312 525.2542114257812 114.47586822509766 C 506.0973815917969 142.13531494140625 493.5099792480469 108.8600082397461 482.0932922363281 93.89266204833984 C 473.8150634765625 113.26603698730469 461.7864990234375 121.81466674804688 483.32586669921875 97.19383239746094" stroke-width="6.0" fill="none" stroke="rgb(0, 0, 0)" stroke-opacity="1.0" stroke-linecap="round" stroke-linejoin="round"/>
    <path d="M 596.7938232421875 50.655616760253906 C 583.7256469726562 48.63552474975586 569.9055786132812 55.03724670410156 584.4556274414062 51.43265151977539 C 611.233154296875 27.322988510131836 629.57666015625 1.552990436553955 628.2828369140625 24.068401336669922 C 616.7332763671875 36.37079620361328 606.33837890625 22.65626335144043 591.2528076171875 46.55707550048828 C 595.7442626953125 41.97562789916992 585.06787109375 51.1602668762207 610.1340942382812 59.43065643310547 C 624.8916625976562 53.781124114990234 653.2955932617188 81.85641479492188 665.2420654296875 110.0572280883789" stroke-width="6.0" fill="none" stroke="rgb(0, 0, 0)" stroke-opacity="1.0" stroke-linecap="round" stroke-linejoin="round"/>
  </g>
</svg>
