<?xml version="1.0" ?>
<svg xmlns="http://www.w3.org/2000/svg" version="1.1" width="600" height="600">
  <defs/>
  <g>
    <path d="M 328.4798278808594 202.43338012695312 C 344.87921142578125 222.53599548339844 350.46270751953125 217.41290283203125 354.3403625488281 208.33477783203125 C 366.8042297363281 190.61167907714844 389.8910217285156 186.19256591796875 369.8442077636719 206.7278594970703 C 374.7463684082031 217.68890380859375 386.3480224609375 230.73001098632812 375.9444274902344 219.21475219726562 C 364.287353515625 228.75830078125 356.591796875 202.73965454101562 342.8305969238281 215.8590850830078 C 359.27703857421875 186.42306518554688 369.0762023925781 191.3260955810547 378.26275634765625 226.8250274658203" stroke-width="6.0" fill="none" stroke="rgb(0, 0, 0)" stroke-opacity="1.0" stroke-linecap="round" stroke-linejoin="round"/>
    <path d="M 94.54901123046875 578.2214965820312 C 83.86844635009766 588.2642822265625 108.4437484741211 565.18701171875 131.15748596191406 550.6181030273438 C 91.00749206542969 573.8824462890625 104.70442199707031 585.517333984375 134.64732360839844 591.1655883789062 C 126.58226013183594 581.0706176757812 123.51873016357422 574.0218505859375 134.10720825195312 591.42236328125 C 145.67819213867188 584.9478149414062 158.095947265625 599.885498046875 165.71856689453125 617.6963500976562 C 190.5867919921875 623.8726196289062 177.09974670410156 633.0643310546875 169.13912963867188 610.2643432617188" stroke-width="6.0" fill="none" stroke="rgb(0, 0, 0)" stroke-opacity="1.0" stroke-linecap="round" stroke-linejoin="round"/>
    <path d="M 52.6551628112793 299.2001953125 C 55.49313735961914 298.6666564941406 29.671241760253906 307.6923828125 41.01784133911133 294.14691162109375 C 45.85837173461914 301.7774963378906 30.457279205322266 304.0815124511719 40.989376068115234 299.7267150878906 C 51.78969192504883 274.927978515625 39.308570861816406 312.69354248046875 43.421424865722656 284.8692932128906 C 56.91149139404297 240.9409942626953 60.40577697753906 235.45046997070312 65.32711791992188 257.9422302246094 C 68.51583862304688 266.18792724609375 86.21630859375 284.6729431152344 65.81144714355469 293.144287109375" stroke-width="6.0" fill="none" stroke="rgb(0, 0, 0)" stroke-opacity="1.0" stroke-linecap="round" stroke-linejoin="round"/>
    <path d="M 575.5076293945312 550.2761840820312 C 565.73046875 548.4451293945312 545.3616943359375 546.7146606445312 553.4088745117188 522.2625732421875 C 529.3657836914062 503.961181640625 507.818115234375 518.1781616210938 532.5725708007812 469.3355407714844 C 562.2654418945312 476.39385986328125 550.3028564453125 484.9036865234375 552.6917724609375 489.75067138671875 C 546.9605102539062 484.1518859863281 560.2523803710938 496.2790832519531 569.0360717773438 508.8157043457031 C 563.8826904296875 510.20147705078125 565.0077514648438 507.01837158203125 603.5924072265625 506.30572509765625" stroke-width="6.0" fill="none" stroke="rgb(0, 0, 0)" stroke-opacity="1.0" stroke-linecap="round" stroke-linejoin="round"/>
    <path d="M 320.855224609375 126.96763610839844 C 296.92047119140625 156.1078643798828 290.7640380859375 141.45297241210938 272.0576171875 159.04437255859375 C 319.8612976074219 161.39297485351562 290.5267639160156 144.12461853027344 256.318115234375 157.823974609375 C 227.7318115234375 143.82534790039062 228.34608459472656 178.63113403320312 220.17152404785156 135.87733459472656 C 211.9973907470703 111.05118560791016 210.0481414794922 116.26002502441406 190.36544799804688 155.19955444335938 C 214.59996032714844 163.46588134765625 207.5506134033203 153.8338623046875 212.85629272460938 180.93508911132812" stroke-width="6.0" fill="none" stroke="rgb(0, 0, 0)" stroke-opacity="1.0" stroke-linecap="round" stroke-linejoin="round"/>
    <path d="M 355.52752685546875 247.50074768066406 C 337.4775695800781 292.5012512207031 338.7505187988281 263.9971618652344 345.9486999511719 226.57940673828125 C 323.3609313964844 200.10195922851562 319.8045959472656 178.08059692382812 330.1293640136719 172.5006561279297 C 326.09521484375 154.4837646484375 356.9093322753906 136.0535430908203 337.5380859375 145.45045471191406 C 353.3963623046875 137.72618103027344 326.0074157714844 157.5718231201172 297.80584716796875 163.10250854492188 C 294.22705078125 185.08160400390625 293.2104797363281 191.8780517578125 294.0943603515625 223.79298400878906" stroke-width="6.0" fill="none" stroke="rgb(0, 0, 0)" stroke-opacity="1.0" stroke-linecap="round" stroke-linejoin="round"/>
    <path d="M 322.2581481933594 356.4460754394531 C 341.52789306640625 340.7955017089844 369.6406555175781 342.45794677734375 360.2889709472656 361.9140625 C 383.78143310546875 371.0362548828125 399.5625915527344 382.7037048339844 385.0341796875 373.55145263671875 C 365.04925537109375 364.1730041503906 354.1512145996094 326.17791748046875 343.08544921875 331.710693359375 C 315.7674255371094 360.3887939453125 350.63494873046875 369.78472900390625 341.0867004394531 372.2966003417969 C 343.2980651855469 357.26043701171875 375.8661193847656 379.902587890625 372.5707702636719 366.1041564941406" stroke-width="6.0" fill="none" stroke="rgb(0, 0, 0)" stroke-opacity="1.0" stroke-linecap="round" stroke-linejoin="round"/>
    <path d="M 258.7642517089844 565.0369262695312 C 281.1695861816406 584.7061767578125 266.8712463378906 607.2139282226562 291.6333923339844 602.2566528320312 C 279.2585754394531 578.412841796875 252.61834716796875 589.1320190429688 284.6572570800781 568.6104125976562 C 264.7282409667969 580.9964599609375 268.8099365234375 579.7250366210938 283.505615234375 614.4246215820312 C 279.52001953125 611.252685546875 293.3678894042969 610.0320434570312 294.2685546875 639.9093627929688 C 317.55340576171875 651.7822265625 311.8816833496094 658.7593994140625 336.5348815917969 673.5144653320312" stroke-width="6.0" fill="none" stroke="rgb(0, 0, 0)" stroke-opacity="1.0" stroke-linecap="round" stroke-linejoin="round"/>
    <path d="M 427.85638427734375 416.8525390625 C 443.49505615234375 402.9493103027344 459.00579833984375 432.2198486328125 479.1240539550781 458.688720703125 C 474.9225769042969 470.912109375 479.5675048828125 494.4281921386719 494.9423828125 510.876953125 C 494.6929931640625 492.56585693359375 470.6019287109375 514.7216186523438 461.7454833984375 545.33203125 C 449.98565673828125 545.3602905273438 450.81756591796875 519.3148193359375 475.3382263183594 497.89019775390625 C 466.9682312011719 518.3787231445312 457.4078063964844 511.1752624511719 463.2596435546875 482.9494934082031" stroke-width="6.0" fill="none" stroke="rgb(0, 0, 0)" stroke-opacity="1.0" stroke-linecap="round" stroke-linejoin="round"/>
    <path d="M 447.0268249511719 357.4174499511719 C 438.7176208496094 343.4956970214844 450.61590576171875 341.8191223144531 459.0856628417969 297.7704772949219 C 471.4162292480469 320.638916015625 465.0250244140625 301.3406066894531 471.11767578125 285.38543701171875 C 464.6767272949219 266.1707763671875 483.3973083496094 247.2624969482422 470.9639892578125 233.19398498535156 C 466.8927307128906 215.4910125732422 467.4311218261719 190.87860107421875 459.12103271484375 179.65670776367188 C 445.7808532714844 192.2262420654297 426.93792724609375 182.95947265625 416.63702392578125 169.7527618408203" stroke-width="6.0" fill="none" stroke="rgb(0, 0, 0)" stroke-opacity="1.0" stroke-linecap="round" stroke-linejoin="round"/>
    <path d="M 104.14932250976562 487.79376220703125 C 94.5777359008789 484.39410400390625 113.5528564453125 459.0225524902344 96.85151672363281 462.1184387207031 C 76.70060729980469 490.1681213378906 68.93025970458984 462.8274230957031 57.99106979370117 442.2526550292969 C 55.86344909667969 474.96710205078125 44.6740837097168 470.3841857910156 46.76189041137695 487.95867919921875 C 37.89826202392578 470.09619140625 39.521427154541016 484.56396484375 34.67393493652344 481.96478271484375 C 49.83291244506836 502.9307556152344 54.83534240722656 528.8531494140625 63.592628479003906 516.5430297851562" stroke-width="6.0" fill="none" stroke="rgb(0, 0, 0)" stroke-opacity="1.0" stroke-linecap="round" stroke-linejoin="round"/>
    <path d="M 38.750022888183594 46.88673400878906 C 37.82914733886719 48.18130874633789 31.429901123046875 55.90332794189453 11.710152626037598 61.188079833984375 C 0.3564586937427521 88.05006408691406 16.171323776245117 79.63848114013672 1.5310994386672974 80.49211120605469 C 17.610525131225586 78.3862533569336 -3.0232460498809814 76.95745849609375 -15.195724487304688 91.5069351196289 C 7.521218299865723 124.92976379394531 -7.8013129234313965 142.77597045898438 -35.370670318603516 143.46629333496094 C -10.71670150756836 157.5391387939453 -9.691006660461426 138.0971221923828 2.064337730407715 136.35377502441406" stroke-width="6.0" fill="none" stroke="rgb(0, 0, 0)" stroke-opacity="1.0" stroke-linecap="round" stroke-linejoin="round"/>
    <path d="M 368.9388122558594 139.36923217773438 C 371.5849609375 95.32384490966797 395.9790344238281 105.43084716796875 368.96441650390625 144.06381225585938 C 347.6072082519531 119.54020690917969 343.64996337890625 113.3443832397461 355.7685241699219 92.99884033203125 C 335.8432922363281 89.80205535888672 336.7952880859375 105.90813446044922 338.6165466308594 68.43569946289062 C 322.26806640625 72.02206420898438 316.3177490234375 72.77320098876953 298.6095886230469 44.052101135253906 C 280.3430480957031 68.84246826171875 268.3663330078125 52.021305084228516 264.3550720214844 37.00092315673828" stroke-width="6.0" fill="none" stroke="rgb(0, 0, 0)" stroke-opacity="1.0" stroke-linecap="round" stroke-linejoin="round"/>
    <path d="M 102.67658996582031 569.6961059570312 C 100.66034698486328 560.3751220703125 81.68458557128906 531.0405883789062 86.87102508544922 546.3345947265625 C 61.9870491027832 551.1828002929688 63.58180236816406 573.8717041015625 62.6987190246582 573.6466064453125 C 65.29373931884766 551.6364135742188 64.5450439453125 579.8977661132812 55.29323959350586 611.7794799804688 C 30.51457977294922 608.3035888671875 52.538883209228516 616.2327270507812 31.42003631591797 627.226318359375 C 56.058982849121094 602.6854858398438 58.928165435791016 592.5037841796875 72.64546966552734 620.5479125976562" stroke-width="6.0" fill="none" stroke="rgb(0, 0, 0)" stroke-opacity="1.0" stroke-linecap="round" stroke-linejoin="round"/>
    <path d="M 129.73028564453125 426.6322326660156 C 111.36538696289062 397.0708923339844 103.0026626586914 396.2263488769531 130.7518310546875 409.16253662109375 C 162.8437042236328 429.9203186035156 169.833251953125 443.56597900390625 179.78282165527344 466.3360595703125 C 152.4453887939453 456.5025939941406 173.47860717773438 452.82391357421875 150.30728149414062 468.4361267089844 C 162.76144409179688 456.4358215332031 141.00521850585938 450.0596618652344 162.0745086669922 459.93798828125 C 175.46217346191406 456.80535888671875 175.88034057617188 480.0464172363281 204.42138671875 461.6297912597656" stroke-width="6.0" fill="none" stroke="rgb(0, 0, 0)" stroke-opacity="1.0" stroke-linecap="round" stroke-linejoin="round"/>
    <path d="M 438.2030029296875 225.93389892578125 C 450.15936279296875 233.54010009765625 439.4395446777344 213.71173095703125 424.8299255371094 196.40118408203125 C 442.049560546875 212.52806091308594 461.9692687988281 206.03941345214844 474.4096374511719 201.4193878173828 C 462.18316650390625 194.75714111328125 469.2049560546875 202.44906616210938 452.1241149902344 169.4490509033203 C 438.15606689453125 135.54098510742188 418.4813537597656 154.62374877929688 454.37872314453125 146.511962890625 C 492.4642333984375 149.41848754882812 478.9359436035156 156.95870971679688 456.3388366699219 150.197021484375" stroke-width="6.0" fill="none" stroke="rgb(0, 0, 0)" stroke-opacity="1.0" stroke-linecap="round" stroke-linejoin="round"/>
    <path d="M 216.82965087890625 353.5284118652344 C 205.1553955078125 345.2477722167969 218.62808227539062 343.2950134277344 230.64797973632812 332.676025390625 C 247.166748046875 327.1128234863281 217.34217834472656 350.80682373046875 230.50303649902344 333.2469787597656 C 263.76007080078125 309.1639099121094 272.1911926269531 313.05072021484375 299.5083923339844 325.4540710449219 C 321.1474914550781 292.5375671386719 345.7047424316406 288.1002502441406 347.1836853027344 321.2217102050781 C 351.5672302246094 312.2286071777344 359.1549072265625 303.9651184082031 378.8903503417969 318.66021728515625" stroke-width="6.0" fill="none" stroke="rgb(0, 0, 0)" stroke-opacity="1.0" stroke-linecap="round" stroke-linejoin="round"/>
    <path d="M 479.9317321777344 458.09130859375 C 462.7063293457031 445.2424011230469 481.0036926269531 433.5688171386719 492.3672180175781 403.3174133300781 C 486.2755126953125 391.15130615234375 508.58758544921875 370.6496887207031 499.3035888671875 381.46783447265625 C 505.0635681152344 363.5565490722656 480.256591796875 340.0701599121094 477.2025451660156 344.104248046875 C 464.1180725097656 310.8822021484375 446.3236083984375 333.9921569824219 461.3744201660156 310.05462646484375 C 474.4190979003906 335.5733337402344 512.275146484375 338.58831787109375 498.54632568359375 313.051025390625" stroke-width="6.0" fill="none" stroke="rgb(0, 0, 0)" stroke-opacity="1.0" stroke-linecap="round" stroke-linejoin="round"/>
    <path d="M 502.3169860839844 459.683349609375 C 510.20745849609375 418.84161376953125 496.90216064453125 382.980224609375 472.7203674316406 401.57928466796875 C 447.1775207519531 447.73187255859375 465.5389099121094 412.6588439941406 477.2890319824219 396.366455078125 C 504.622802734375 403.9599914550781 497.5387878417969 394.1676940917969 489.2969055175781 369.24639892578125 C 479.4345703125 346.4967956542969 455.34832763671875 367.2647705078125 463.744873046875 340.2483825683594 C 469.371337890625 304.6366882324219 459.11328125 309.74273681640625 487.0119934082031 289.7698669433594" stroke-width="6.0" fill="none" stroke="rgb(0, 0, 0)" stroke-opacity="1.0" stroke-linecap="round" stroke-linejoin="round"/>
    <path d="M 545.0166015625 -3.5743305683135986 C 545.693603515625 -3.193300724029541 555.8939208984375 -19.28400421142578 579.131103515625 -26.373994827270508 C 598.0430297851562 -10.752102851867676 574.7875366210938 -30.57855987548828 551.3956909179688 -54.47438049316406 C 578.7466430664062 -63.03590774536133 585.6884155273438 -85.93484497070312 611.0875854492188 -60.742435455322266 C 634.8228149414062 -54.47205352783203 615.5068969726562 -52.64321517944336 621.4835815429688 -41.87721633911133 C 600.4967651367188 -31.840810775756836 588.590576171875 -12.787059783935547 579.4937133789062 -36.55170440673828" stroke-width="6.0" fill="none" stroke="rgb(0, 0, 0)" stroke-opacity="1.0" stroke-linecap="round" stroke-linejoin="round"/>
    <path d="M 557.8284301757812 400.0104675292969 C 566.1804809570312 412.5250549316406 575.7296142578125 391.2260437011719 548.9014892578125 407.1342468261719 C 536.4088134765625 424.9524230957031 530.9661865234375 423.844970703125 537.243896484375 436.47772216796875 C 530.5046997070312 416.68243408203125 537.8004150390625 428.0329895019531 539.0214233398438 419.7493591308594 C 556.3540649414062 397.3956604003906 551.4473876953125 397.5918273925781 554.0225219726562 405.00726318359375 C 544.1405639648438 412.8399353027344 534.5271606445312 425.3602294921875 542.3314819335938 416.44683837890625" stroke-width="6.0" fill="none" stroke="rgb(0, 0, 0)" stroke-opacity="1.0" stroke-linecap="round" stroke-linejoin="round"/>
    <path d="M 258.983642578125 295.6156005859375 C 253.68016052246094 296.996337890625 276.1507568359375 295.85076904296875 282.8708801269531 291.9524230957031 C 286.1144714355469 295.98382568359375 295.983642578125 310.9350891113281 281.18585205078125 289.5065002441406 C 309.8215026855469 256.8005676269531 322.28070068359375 289.01507568359375 341.802734375 260.7664489746094 C 328.4596862792969 278.9408874511719 351.55609130859375 305.5509948730469 343.8099060058594 269.59454345703125 C 381.311279296875 306.287353515625 394.596435546875 298.2951354980469 412.3115234375 237.60302734375" stroke-width="6.0" fill="none" stroke="rgb(0, 0, 0)" stroke-opacity="1.0" stroke-linecap="round" stroke-linejoin="round"/>
    <path d="M 90.66644287109375 583.4615478515625 C 96.3988037109375 570.606689453125 79.15093994140625 609.1278686523438 80.90775299072266 631.9680786132812 C 67.97916412353516 593.4201049804688 89.07524108886719 611.8165893554688 62.3937873840332 598.6018676757812 C 41.99393844604492 566.6790161132812 43.12889862060547 595.0407104492188 19.009607315063477 577.1470947265625 C 40.05445861816406 593.09619140625 52.38657760620117 581.825439453125 47.53956985473633 558.644287109375 C 48.76986312866211 558.2028198242188 31.53551483154297 546.7320556640625 58.39125061035156 523.20361328125" stroke-width="6.0" fill="none" stroke="rgb(0, 0, 0)" stroke-opacity="1.0" stroke-linecap="round" stroke-linejoin="round"/>
    <path d="M 450.91436767578125 286.94390869140625 C 427.71533203125 334.76129150390625 430.4342041015625 355.9677734375 432.4457702636719 361.0384521484375 C 462.72308349609375 360.37384033203125 476.67608642578125 355.2221984863281 453.4732666015625 394.5303649902344 C 453.2232971191406 423.5264587402344 428.7518005371094 403.7721862792969 442.1128234863281 390.8775329589844 C 431.66766357421875 412.2716369628906 427.0656433105469 413.50115966796875 444.63385009765625 414.5542907714844 C 438.9159240722656 421.3154296875 447.1915283203125 396.818115234375 457.5762634277344 415.1361999511719" stroke-width="6.0" fill="none" stroke="rgb(0, 0, 0)" stroke-opacity="1.0" stroke-linecap="round" stroke-linejoin="round"/>
    <path d="M 112.6310806274414 71.24952697753906 C 92.20487213134766 76.71188354492188 110.00431060791016 60.01424026489258 89.62493896484375 51.34459686279297 C 72.71162414550781 47.29305648803711 75.82487487792969 47.4384765625 90.03897094726562 52.196537017822266 C 58.387393951416016 42.09164047241211 81.2437515258789 49.47129440307617 83.13555908203125 49.44512176513672 C 50.42607498168945 43.319400787353516 81.67433166503906 6.745424747467041 86.46690368652344 -5.28322696685791 C 76.52679443359375 -11.740010261535645 96.24467468261719 -4.1229047775268555 120.341064453125 -4.219636917114258" stroke-width="6.0" fill="none" stroke="rgb(0, 0, 0)" stroke-opacity="1.0" stroke-linecap="round" stroke-linejoin="round"/>
    <path d="M 55.646629333496094 241.7360076904297 C 67.98431396484375 217.9576873779297 96.4557113647461 205.72552490234375 96.86377716064453 194.16098022460938 C 94.2794189453125 207.5554656982422 94.10806274414062 196.61849975585938 87.2120361328125 208.4479522705078 C 61.40028381347656 222.83961486816406 84.4410400390625 249.16213989257812 84.27599334716797 254.94500732421875 C 69.15741729736328 286.6682434082031 70.3703384399414 307.42095947265625 81.99191284179688 325.34161376953125 C 76.00495147705078 343.9268493652344 74.4102783203125 337.1687927246094 79.98280334472656 330.3556823730469" stroke-width="6.0" fill="none" stroke="rgb(0, 0, 0)" stroke-opacity="1.0" stroke-linecap="round" stroke-linejoin="round"/>
    <path d="M 525.7744140625 479.314697265625 C 526.9073486328125 452.9985656738281 527.6934814453125 420.56817626953125 511.3663024902344 416.5020751953125 C 517.93359375 451.6791076660156 497.1245422363281 479.0871887207031 501.4497985839844 508.3440246582031 C 521.1138916015625 477.01177978515625 496.4881591796875 454.5125732421875 512.9588623046875 439.64892578125 C 498.0904235839844 436.01263427734375 472.0373840332031 415.801025390625 495.2120056152344 395.7249755859375 C 486.00787353515625 385.307373046875 493.71942138671875 396.56256103515625 482.0406799316406 365.8111267089844" stroke-width="6.0" fill="none" stroke="rgb(0, 0, 0)" stroke-opacity="1.0" stroke-linecap="round" stroke-linejoin="round"/>
    <path d="M 347.6116638183594 16.120262145996094 C 380.1909484863281 -0.6354743838310242 393.789794921875 28.22907829284668 362.4167785644531 44.70347213745117 C 376.8929748535156 68.79452514648438 380.2723083496094 64.45836639404297 378.81414794921875 54.60255813598633 C 385.3285827636719 69.24799346923828 387.24237060546875 70.42341613769531 413.5738220214844 55.701622009277344 C 439.4770812988281 30.044029235839844 471.6577453613281 6.345191478729248 458.9870300292969 3.7729332447052 C 408.27825927734375 13.196797370910645 412.71142578125 -12.644098281860352 415.2500305175781 -10.003747940063477" stroke-width="6.0" fill="none" stroke="rgb(0, 0, 0)" stroke-opacity="1.0" stroke-linecap="round" stroke-linejoin="round"/>
    <path d="M 526.2476196289062 292.20025634765625 C 497.00958251953125 307.1266174316406 521.869384765625 328.4431457519531 547.6334838867188 308.274658203125 C 544.6156005859375 279.09747314453125 568.3330688476562 278.42388916015625 588.156982421875 278.0549011230469 C 584.7881469726562 256.7049865722656 558.2792358398438 255.38230895996094 567.5777587890625 250.43299865722656 C 531.8970336914062 252.81642150878906 523.5798950195312 280.8076477050781 523.2008056640625 279.5923156738281 C 526.2846069335938 259.6407165527344 535.8795776367188 273.6602478027344 537.8933715820312 260.6551208496094" stroke-width="6.0" fill="none" stroke="rgb(0, 0, 0)" stroke-opacity="1.0" stroke-linecap="round" stroke-linejoin="round"/>
    <path d="M 376.2235412597656 60.57078552246094 C 356.41912841796875 46.56772232055664 354.2628479003906 52.07455825805664 362.711669921875 46.30651092529297 C 368.578857421875 36.85546875 391.16656494140625 17.740694046020508 418.18292236328125 8.688803672790527 C 434.5462646484375 -11.037895202636719 427.25421142578125 -14.479037284851074 432.3683166503906 -1.171030879020691 C 415.1804504394531 2.1415154933929443 408.9137878417969 8.450295448303223 403.4981689453125 -22.230091094970703 C 403.7377014160156 -8.236305236816406 379.279052734375 1.6246223449707031 386.9425964355469 -8.191926956176758" stroke-width="6.0" fill="none" stroke="rgb(0, 0, 0)" stroke-opacity="1.0" stroke-linecap="round" stroke-linejoin="round"/>
    <path d="M 601.8431396484375 562.1220092773438 C 611.468994140625 573.6258544921875 603.6787719726562 548.826416015625 603.974853515625 534.6581420898438 C 613.3970336914062 510.32086181640625 638.2899780273438 501.48187255859375 637.6472778320312 469.9564514160156 C 641.233154296875 496.8350524902344 618.776123046875 493.79473876953125 646.943603515625 469.64154052734375 C 630.0609741210938 498.3834533691406 625.271484375 501.14862060546875 605.6602783203125 494.2799072265625 C 596.4328002929688 521.28515625 624.1564331054688 525.3820190429688 603.033935546875 539.3989868164062" stroke-width="6.0" fill="none" stroke="rgb(0, 0, 0)" stroke-opacity="1.0" stroke-linecap="round" stroke-linejoin="round"/>
    <path d="M 1.5047035217285156 548.5601196289062 C 2.1830403804779053 556.9719848632812 18.985334396362305 560.1882934570312 0.7818590998649597 552.4231567382812 C -4.75055456161499 552.5523681640625 -3.296537399291992 573.5696411132812 -24.1235294342041 559.7116088867188 C -15.812569618225098 543.2317504882812 -10.119060516357422 545.7975463867188 -31.04145050048828 580.3690795898438 C -20.089086532592773 576.57275390625 -30.160823822021484 580.6006469726562 -4.0375261306762695 600.7932739257812 C 19.823131561279297 626.2994995117188 -2.4741063117980957 634.527099609375 6.168915271759033 627.4838256835938" stroke-width="6.0" fill="none" stroke="rgb(0, 0, 0)" stroke-opacity="1.0" stroke-linecap="round" stroke-linejoin="round"/>
    <path d="M 304.0953369140625 454.3407897949219 C 337.423583984375 430.7208251953125 332.99981689453125 429.56787109375 285.7178039550781 421.2099304199219 C 280.5707702636719 409.498046875 287.26031494140625 384.25469970703125 258.7529602050781 384.3677978515625 C 229.93478393554688 418.877685546875 258.9708557128906 418.63970947265625 277.7161865234375 430.5726013183594 C 285.4584655761719 387.7118835449219 282.44000244140625 378.5019226074219 282.367919921875 409.1440124511719 C 276.0805358886719 422.5340270996094 287.27752685546875 412.7431945800781 268.5746154785156 447.87786865234375" stroke-width="6.0" fill="none" stroke="rgb(0, 0, 0)" stroke-opacity="1.0" stroke-linecap="round" stroke-linejoin="round"/>
    <path d="M 237.1175079345703 22.72903823852539 C 222.90475463867188 10.851125717163086 244.4658203125 29.672565460205078 247.65847778320312 27.426010131835938 C 283.92645263671875 37.778987884521484 261.8067626953125 61.751529693603516 254.22523498535156 71.84495544433594 C 269.2379150390625 98.11884307861328 261.9228820800781 83.15554809570312 277.802978515625 104.98165130615234 C 255.1406707763672 122.66767120361328 255.97415161132812 118.81344604492188 231.924560546875 139.10728454589844 C 232.20152282714844 156.23046875 246.7989044189453 179.24673461914062 264.8461608886719 162.76596069335938" stroke-width="6.0" fill="none" stroke="rgb(0, 0, 0)" stroke-opacity="1.0" stroke-linecap="round" stroke-linejoin="round"/>
    <path d="M 333.6391906738281 559.3320922851562 C 316.9197082519531 545.0990600585938 320.3592529296875 546.0101318359375 312.2301330566406 529.812255859375 C 323.39306640625 552.2442016601562 305.2491760253906 530.8203125 312.63824462890625 504.9103698730469 C 316.9776306152344 510.3073425292969 298.0879821777344 489.3209533691406 313.63665771484375 476.8326110839844 C 326.6864318847656 487.7995910644531 341.06719970703125 509.9189147949219 360.0135498046875 521.5313110351562 C 355.3554382324219 538.4713745117188 354.7544250488281 537.0776977539062 362.45550537109375 514.6940307617188" stroke-width="6.0" fill="none" stroke="rgb(0, 0, 0)" stroke-opacity="1.0" stroke-linecap="round" stroke-linejoin="round"/>
    <path d="M 262.8133850097656 351.1874084472656 C 240.20167541503906 339.7936706542969 271.1477355957031 322.59210205078125 276.7665100097656 313.58795166015625 C 291.2191162109375 302.53466796875 300.07183837890625 286.25531005859375 275.5827331542969 312.2315979003906 C 247.01890563964844 323.8162536621094 227.81427001953125 318.4969787597656 252.26202392578125 323.12811279296875 C 228.87022399902344 300.86083984375 204.81268310546875 306.99176025390625 225.57418823242188 271.4737548828125 C 261.04486083984375 293.6152648925781 252.46786499023438 297.6931457519531 269.4080505371094 294.699951171875" stroke-width="6.0" fill="none" stroke="rgb(0, 0, 0)" stroke-opacity="1.0" stroke-linecap="round" stroke-linejoin="round"/>
    <path d="M 448.7999267578125 553.9229736328125 C 429.92236328125 519.5094604492188 399.6997375488281 523.6460571289062 374.3506774902344 550.30224609375 C 352.39227294921875 537.0820922851562 351.26885986328125 515.6341552734375 360.0813903808594 534.292236328125 C 347.817626953125 527.678955078125 368.7375183105469 520.9172973632812 369.77728271484375 519.087890625 C 385.06622314453125 530.63525390625 381.0028381347656 527.880615234375 371.0008544921875 499.90216064453125 C 384.1606140136719 521.8626708984375 371.6546630859375 516.3670654296875 374.2843017578125 527.1502075195312" stroke-width="6.0" fill="none" stroke="rgb(0, 0, 0)" stroke-opacity="1.0" stroke-linecap="round" stroke-linejoin="round"/>
    <path d="M 195.2600860595703 487.6968078613281 C 216.7083740234375 484.251220703125 226.31484985351562 471.8909606933594 237.1151885986328 498.2031555175781 C 246.85333251953125 500.61285400390625 248.93116760253906 511.12042236328125 253.59104919433594 511.2128601074219 C 218.970947265625 491.0155029296875 186.27967834472656 495.2147521972656 192.16795349121094 485.7069091796875 C 218.6202850341797 484.5473327636719 248.3134765625 479.6201477050781 219.47348022460938 464.9183044433594 C 223.98924255371094 457.9317321777344 210.23272705078125 429.4725646972656 209.943603515625 422.465087890625" stroke-width="6.0" fill="none" stroke="rgb(0, 0, 0)" stroke-opacity="1.0" stroke-linecap="round" stroke-linejoin="round"/>
    <path d="M 467.75689697265625 71.77349090576172 C 468.8876647949219 48.5585823059082 454.2576599121094 52.412017822265625 470.06280517578125 61.49734115600586 C 467.1261901855469 51.01676559448242 472.5 58.214420318603516 438.5118408203125 54.99747085571289 C 459.45672607421875 61.45499801635742 480.55804443359375 45.1791877746582 498.2044982910156 36.945491790771484 C 518.3009033203125 28.411579132080078 515.2713623046875 18.463483810424805 528.708984375 12.118056297302246 C 555.7791137695312 1.9772626161575317 535.298583984375 -15.70313835144043 526.0377197265625 -19.509241104125977" stroke-width="6.0" fill="none" stroke="rgb(0, 0, 0)" stroke-opacity="1.0" stroke-linecap="round" stroke-linejoin="round"/>
    <path d="M 353.43017578125 178.54086303710938 C 369.1007080078125 177.5393829345703 392.1385498046875 205.54022216796875 357.02996826171875 249.68995666503906 C 365.595703125 280.043701171875 405.1742858886719 250.86181640625 404.4818115234375 203.2694091796875 C 371.4416809082031 216.074462890625 390.2667541503906 213.4525604248047 394.3019714355469 199.60752868652344 C 397.1645812988281 183.46975708007812 399.5045471191406 171.1101531982422 417.22216796875 176.092041015625 C 448.1288146972656 211.01736450195312 423.0638427734375 195.42889404296875 430.1748962402344 179.11143493652344" stroke-width="6.0" fill="none" stroke="rgb(0, 0, 0)" stroke-opacity="1.0" stroke-linecap="round" stroke-linejoin="round"/>
    <path d="M 27.67974090576172 -4.012289524078369 C 3.2658352851867676 -3.0693442821502686 13.888078689575195 -6.342462062835693 -0.1852562129497528 -29.103124618530273 C 30.493837356567383 -44.0835075378418 59.4200325012207 -19.603206634521484 57.8322639465332 -6.191192626953125 C 44.05990219116211 21.71424674987793 24.549705505371094 48.49153137207031 -5.1012163162231445 42.44599914550781 C -1.8027315139770508 65.8987808227539 -13.1547212600708 51.484745025634766 -30.24349594116211 51.904117584228516 C -43.632957458496094 68.81710052490234 -28.450868606567383 92.08499908447266 -3.1507132053375244 87.35541534423828" stroke-width="6.0" fill="none" stroke="rgb(0, 0, 0)" stroke-opacity="1.0" stroke-linecap="round" stroke-linejoin="round"/>
    <path d="M 265.5722351074219 92.21910095214844 C 265.4767761230469 82.49758911132812 277.43975830078125 111.56109619140625 263.1363525390625 125.60173034667969 C 251.72779846191406 110.20243072509766 245.86090087890625 78.29261779785156 251.06971740722656 99.18657684326172 C 257.26654052734375 107.14215850830078 236.7781982421875 92.64380645751953 260.77642822265625 64.48019409179688 C 231.0835418701172 40.82981491088867 268.0831604003906 30.570762634277344 238.2130584716797 25.68561363220215 C 230.634033203125 18.999937057495117 253.1493682861328 31.893922805786133 242.21932983398438 26.089895248413086" stroke-width="6.0" fill="none" stroke="rgb(0, 0, 0)" stroke-opacity="1.0" stroke-linecap="round" stroke-linejoin="round"/>
    <path d="M 100.84333801269531 301.6156311035156 C 115.73284149169922 293.650390625 107.38441467285156 316.0970153808594 136.80712890625 312.9503173828125 C 162.30503845214844 302.92425537109375 133.22647094726562 279.1346130371094 113.61833953857422 291.17767333984375 C 130.42726135253906 281.06011962890625 143.80880737304688 296.6064453125 147.08352661132812 299.7475280761719 C 131.96954345703125 284.0417785644531 122.9407958984375 282.72802734375 104.80144500732422 298.7181091308594 C 88.97962951660156 305.700439453125 69.57561492919922 308.8114929199219 72.78105926513672 289.71429443359375" stroke-width="6.0" fill="none" stroke="rgb(0, 0, 0)" stroke-opacity="1.0" stroke-linecap="round" stroke-linejoin="round"/>
    <path d="M 163.63894653320312 82.07586669921875 C 163.26251220703125 83.31444549560547 162.48353576660156 80.03816986083984 169.72976684570312 79.13639068603516 C 164.60110473632812 79.88363647460938 153.9468994140625 86.2036361694336 164.41468811035156 94.0609130859375 C 155.96934509277344 73.67222595214844 109.3084487915039 76.28141784667969 94.20046997070312 52.984375 C 85.60638427734375 53.231483459472656 83.68738555908203 43.00607681274414 68.9079818725586 53.923274993896484 C 89.93995666503906 40.690982818603516 67.69677734375 54.521522521972656 71.0379867553711 52.04716491699219" stroke-width="6.0" fill="none" stroke="rgb(0, 0, 0)" stroke-opacity="1.0" stroke-linecap="round" stroke-linejoin="round"/>
    <path d="M 352.0398864746094 449.1647644042969 C 343.9628601074219 446.34698486328125 349.8389892578125 442.9853820800781 334.4856872558594 462.5037536621094 C 315.0937805175781 449.78497314453125 286.9253845214844 438.2828369140625 317.42974853515625 402.81463623046875 C 295.793701171875 394.6681823730469 270.5982971191406 392.217529296875 250.9992218017578 380.1424865722656 C 275.31219482421875 389.3468017578125 291.6279602050781 402.3013610839844 282.4466857910156 407.433349609375 C 277.566650390625 387.453125 296.77459716796875 387.6110534667969 327.81304931640625 408.02923583984375" stroke-width="6.0" fill="none" stroke="rgb(0, 0, 0)" stroke-opacity="1.0" stroke-linecap="round" stroke-linejoin="round"/>
    <path d="M 309.6100158691406 106.72650909423828 C 286.12396240234375 75.54156494140625 281.7998962402344 84.35665130615234 283.1653747558594 107.71582794189453 C 314.5191650390625 99.57046508789062 299.39324951171875 99.37503051757812 285.8822326660156 80.38163757324219 C 286.0380554199219 98.90397644042969 308.1614990234375 115.83568572998047 333.0262145996094 125.60162353515625 C 310.9110107421875 139.92135620117188 323.2920837402344 109.99097442626953 354.5866394042969 130.96331787109375 C 366.4126281738281 107.74089050292969 364.02154541015625 88.39173889160156 377.9629821777344 116.61160278320312" stroke-width="6.0" fill="none" stroke="rgb(0, 0, 0)" stroke-opacity="1.0" stroke-linecap="round" stroke-linejoin="round"/>
    <path d="M 219.58111572265625 452.1143493652344 C 199.06002807617188 474.61590576171875 207.6969757080078 496.50982666015625 231.1946258544922 510.6249694824219 C 248.4275360107422 513.3248901367188 273.00494384765625 513.095458984375 251.30870056152344 521.8397216796875 C 277.085693359375 531.5676879882812 281.0156555175781 552.75927734375 261.16009521484375 508.15850830078125 C 266.29132080078125 487.2992248535156 279.3879089355469 488.4517517089844 283.8423767089844 528.63916015625 C 297.0525817871094 517.6822509765625 322.4468994140625 505.8992919921875 328.95013427734375 512.5478515625" stroke-width="6.0" fill="none" stroke="rgb(0, 0, 0)" stroke-opacity="1.0" stroke-linecap="round" stroke-linejoin="round"/>
    <path d="M 95.15895080566406 573.6421508789062 C 101.71074676513672 577.9910278320312 85.83578491210938 573.5897216796875 100.46495819091797 550.2254028320312 C 71.78871154785156 538.908935546875 87.99552154541016 505.1541748046875 75.47402954101562 491.71923828125 C 90.56745147705078 467.3860778808594 75.78394317626953 461.5010986328125 57.69337463378906 488.0799560546875 C 49.57301712036133 490.2592468261719 42.05258560180664 469.8990173339844 34.84251022338867 517.4096069335938 C -3.7590174674987793 529.1671752929688 -27.360746383666992 512.7765502929688 -28.154499053955078 501.8213806152344" stroke-width="6.0" fill="none" stroke="rgb(0, 0, 0)" stroke-opacity="1.0" stroke-linecap="round" stroke-linejoin="round"/>
    <path d="M 479.3270568847656 369.5498046875 C 479.8839111328125 413.50128173828125 476.6083984375 391.8057861328125 450.7312927246094 382.6918640136719 C 449.7061767578125 384.0836486816406 430.7134094238281 384.90887451171875 445.320556640625 386.1360168457031 C 442.3695373535156 375.8048400878906 433.2261047363281 343.2658996582031 435.17254638671875 359.2253112792969 C 423.31048583984375 360.2637939453125 441.07086181640625 352.39642333984375 430.62957763671875 359.7515563964844 C 417.3800964355469 385.0334167480469 425.7911071777344 373.59014892578125 424.27001953125 373.28546142578125" stroke-width="6.0" fill="none" stroke="rgb(0, 0, 0)" stroke-opacity="1.0" stroke-linecap="round" stroke-linejoin="round"/>
    <path d="M 250.36526489257812 28.916763305664062 C 252.3233184814453 33.616722106933594 245.5288543701172 50.28150939941406 245.66726684570312 47.166107177734375 C 237.35678100585938 50.54447555541992 214.67604064941406 51.77484893798828 224.82696533203125 32.82903289794922 C 244.0346221923828 25.638660430908203 228.8388214111328 1.3961904048919678 236.8680877685547 26.1102294921875 C 227.47142028808594 -8.02911376953125 213.99192810058594 -4.038773059844971 233.4599609375 -7.76930570602417 C 204.39901733398438 -7.298364639282227 203.13037109375 -18.037439346313477 166.8839874267578 -5.302452087402344" stroke-width="6.0" fill="none" stroke="rgb(0, 0, 0)" stroke-opacity="1.0" stroke-linecap="round" stroke-linejoin="round"/>
    <path d="M 402.5760192871094 454.9331970214844 C 372.6287536621094 431.7312316894531 362.7203369140625 438.4503479003906 367.1969909667969 412.78314208984375 C 380.3392639160156 442.4776611328125 351.1661682128906 425.79852294921875 372.72967529296875 392.9454345703125 C 389.3868408203125 413.2369384765625 359.2267150878906 383.97344970703125 363.4015808105469 370.6745910644531 C 340.77227783203125 344.7857666015625 348.56036376953125 356.0494384765625 337.1199951171875 338.4958801269531 C 318.6454772949219 329.3173522949219 347.1388244628906 348.6948547363281 361.4878845214844 359.0830993652344" stroke-width="6.0" fill="none" stroke="rgb(0, 0, 0)" stroke-opacity="1.0" stroke-linecap="round" stroke-linejoin="round"/>
    <path d="M 507.1296081542969 394.9158630371094 C 515.827392578125 415.6783142089844 512.953125 426.5431213378906 506.4418640136719 453.9019775390625 C 509.1853332519531 430.21051025390625 510.7841491699219 420.44464111328125 511.7933654785156 414.619140625 C 527.3814086914062 435.8887939453125 524.1483154296875 443.34161376953125 511.7388000488281 470.9951477050781 C 479.07891845703125 470.4783630371094 484.8731384277344 448.68951416015625 498.0895080566406 429.66900634765625 C 474.6732482910156 408.85223388671875 486.393798828125 443.6259460449219 468.1654968261719 415.7254638671875" stroke-width="6.0" fill="none" stroke="rgb(0, 0, 0)" stroke-opacity="1.0" stroke-linecap="round" stroke-linejoin="round"/>
    <path d="M 546.5303955078125 603.0245361328125 C 546.8054809570312 600.4357299804688 536.848876953125 629.8513793945312 532.5587158203125 654.444580078125 C 520.5809326171875 632.2474365234375 532.9544067382812 625.6848754882812 506.7203369140625 635.0401000976562 C 497.8323669433594 648.192626953125 488.1898193359375 661.1035766601562 505.39166259765625 647.803955078125 C 521.1480712890625 635.9797973632812 514.7838134765625 660.9494018554688 523.4918823242188 653.540771484375 C 521.7969970703125 663.0790405273438 526.3593139648438 688.7237548828125 542.8832397460938 690.2498168945312" stroke-width="6.0" fill="none" stroke="rgb(0, 0, 0)" stroke-opacity="1.0" stroke-linecap="round" stroke-linejoin="round"/>
    <path d="M 84.9232177734375 196.74278259277344 C 105.79299926757812 189.92913818359375 105.62841033935547 180.50485229492188 106.74822998046875 196.47543334960938 C 88.2608871459961 182.43551635742188 56.9022331237793 218.6869354248047 58.531978607177734 218.70315551757812 C 64.02650451660156 242.0563201904297 67.88838195800781 220.38368225097656 101.29530334472656 196.08116149902344 C 136.37371826171875 211.57901000976562 146.10604858398438 191.25656127929688 139.79571533203125 170.5082550048828 C 159.32533264160156 146.3704071044922 160.59194946289062 155.33119201660156 190.34771728515625 170.178955078125" stroke-width="6.0" fill="none" stroke="rgb(0, 0, 0)" stroke-opacity="1.0" stroke-linecap="round" stroke-linejoin="round"/>
    <path d="M 207.72076416015625 422.9410400390625 C 203.9727325439453 465.74078369140625 188.06045532226562 441.6187744140625 176.54554748535156 423.51556396484375 C 154.9256591796875 404.1797180175781 131.18959045410156 413.47161865234375 166.06166076660156 404.7449951171875 C 171.11190795898438 415.6434631347656 182.95217895507812 401.99041748046875 205.486083984375 422.5072326660156 C 188.8065185546875 423.8647155761719 189.81304931640625 402.3240051269531 166.40838623046875 414.2258605957031 C 195.49855041503906 416.7574462890625 205.16224670410156 427.6993103027344 211.4678192138672 433.4582214355469" stroke-width="6.0" fill="none" stroke="rgb(0, 0, 0)" stroke-opacity="1.0" stroke-linecap="round" stroke-linejoin="round"/>
    <path d="M 227.23680114746094 370.431640625 C 229.40016174316406 337.06201171875 201.54359436035156 334.5978698730469 180.7948455810547 309.75689697265625 C 143.70962524414062 337.835205078125 147.593994140625 309.5098571777344 139.59083557128906 311.2632751464844 C 121.99205017089844 305.01458740234375 153.56402587890625 329.9508361816406 140.55455017089844 345.0421142578125 C 116.201416015625 374.9117431640625 122.55533599853516 351.6664733886719 133.910888671875 366.40521240234375 C 162.80526733398438 362.4533386230469 151.32406616210938 326.36181640625 169.35595703125 312.3773193359375" stroke-width="6.0" fill="none" stroke="rgb(0, 0, 0)" stroke-opacity="1.0" stroke-linecap="round" stroke-linejoin="round"/>
    <path d="M 282.9845275878906 537.376708984375 C 268.3667907714844 523.0313110351562 245.3275604248047 508.5748596191406 246.8113555908203 520.4765625 C 233.90818786621094 532.1809692382812 245.7147216796875 551.8535766601562 260.4120178222656 566.8799438476562 C 241.9537811279297 550.5070190429688 271.1137390136719 567.3637084960938 276.6595764160156 598.0388793945312 C 248.072265625 621.2583618164062 273.1013488769531 624.4552612304688 279.7565612792969 599.0132446289062 C 282.89959716796875 625.33642578125 270.7624816894531 597.4580078125 246.77508544921875 604.78271484375" stroke-width="6.0" fill="none" stroke="rgb(0, 0, 0)" stroke-opacity="1.0" stroke-linecap="round" stroke-linejoin="round"/>
    <path d="M 390.09814453125 249.44366455078125 C 368.1555480957031 267.0362548828125 396.98675537109375 241.06936645507812 385.751708984375 251.90524291992188 C 404.3502197265625 262.883544921875 424.46435546875 276.5039978027344 437.107666015625 280.60205078125 C 421.5465393066406 312.8535461425781 422.5923156738281 306.1157531738281 411.8182067871094 282.7312316894531 C 415.311279296875 307.7027893066406 438.84368896484375 308.2767639160156 419.109375 299.8409423828125 C 409.54400634765625 258.27789306640625 407.3083801269531 250.9111328125 414.6688232421875 283.4313659667969" stroke-width="6.0" fill="none" stroke="rgb(0, 0, 0)" stroke-opacity="1.0" stroke-linecap="round" stroke-linejoin="round"/>
    <path d="M 476.9903259277344 353.4303283691406 C 500.16143798828125 304.8343505859375 521.6055297851562 327.3939208984375 487.9927978515625 310.0196533203125 C 481.09185791015625 279.0192565917969 463.2951354980469 298.6918640136719 447.74078369140625 279.6484069824219 C 459.7655029296875 261.39361572265625 444.80328369140625 236.14642333984375 430.03076171875 240.8623809814453 C 422.033203125 269.85784912109375 410.91534423828125 298.35260009765625 404.468505859375 305.3843688964844 C 429.94384765625 307.54681396484375 415.2291564941406 324.5374755859375 418.9914855957031 320.18023681640625" stroke-width="6.0" fill="none" stroke="rgb(0, 0, 0)" stroke-opacity="1.0" stroke-linecap="round" stroke-linejoin="round"/>
    <path d="M 429.4051513671875 304.87664794921875 C 407.1477355957031 349.6195373535156 409.8934326171875 360.4664611816406 368.9595947265625 338.5986633300781 C 358.7891845703125 344.0199890136719 358.76239013671875 366.31695556640625 337.8675537109375 337.70574951171875 C 342.34967041015625 320.1496887207031 370.1918640136719 340.301025390625 383.43634033203125 344.4046325683594 C 364.5687561035156 334.48150634765625 347.2565612792969 311.39971923828125 340.4015808105469 336.8578186035156 C 318.29736328125 325.48724365234375 318.1455993652344 329.3808288574219 326.1479797363281 317.28729248046875" stroke-width="6.0" fill="none" stroke="rgb(0, 0, 0)" stroke-opacity="1.0" stroke-linecap="round" stroke-linejoin="round"/>
    <path d="M 16.370399475097656 130.35719299316406 C -7.722342014312744 133.12374877929688 -35.55729675292969 123.34785461425781 -33.64105987548828 114.47594451904297 C -46.050228118896484 105.89686584472656 -22.284231185913086 131.13906860351562 -6.1281304359436035 152.9793243408203 C -0.4532051086425781 157.7490997314453 -9.291851997375488 178.4354248046875 -10.899587631225586 178.60009765625 C 7.849462509155273 194.95960998535156 -18.881269454956055 170.92657470703125 -41.30089569091797 189.86485290527344 C -29.51556968688965 209.12100219726562 -1.0296359062194824 204.75096130371094 -3.5826406478881836 205.9003448486328" stroke-width="6.0" fill="none" stroke="rgb(0, 0, 0)" stroke-opacity="1.0" stroke-linecap="round" stroke-linejoin="round"/>
    <path d="M 314.5942077636719 103.347412109375 C 291.6032409667969 110.0313720703125 320.79193115234375 85.56494903564453 307.84356689453125 113.39866638183594 C 328.20806884765625 76.23284912109375 315.85809326171875 85.67134857177734 312.97308349609375 79.68156433105469 C 310.1255798339844 76.04114532470703 311.3915710449219 97.13330841064453 328.7511291503906 94.82838439941406 C 307.1318054199219 110.72465515136719 295.83380126953125 95.4809799194336 291.22064208984375 89.82734680175781 C 300.9215087890625 100.80045318603516 318.8149108886719 93.18122863769531 335.9837341308594 57.20783996582031" stroke-width="6.0" fill="none" stroke="rgb(0, 0, 0)" stroke-opacity="1.0" stroke-linecap="round" stroke-linejoin="round"/>
    <path d="M 19.8939151763916 570.6405639648438 C 18.748884201049805 568.0237426757812 2.058870315551758 541.6490478515625 -11.679413795471191 554.6549072265625 C -22.063871383666992 581.8648071289062 -44.43052291870117 589.68505859375 -65.61641693115234 596.7620849609375 C -92.64163208007812 573.6288452148438 -120.33153533935547 584.6953735351562 -98.69731140136719 589.48876953125 C -126.17996978759766 602.5302124023438 -152.5312042236328 615.4032592773438 -166.9879150390625 600.8499145507812 C -156.28465270996094 622.29931640625 -165.0845489501953 635.3984985351562 -159.0498046875 626.3822631835938" stroke-width="6.0" fill="none" stroke="rgb(0, 0, 0)" stroke-opacity="1.0" stroke-linecap="round" stroke-linejoin="round"/>
    <path d="M 46.86140823364258 267.8951721191406 C 52.7670783996582 256.29559326171875 46.060306549072266 251.7030487060547 59.74785614013672 244.82723999023438 C 70.67607879638672 251.94662475585938 53.2127799987793 241.5520782470703 59.11824035644531 236.0749053955078 C 49.78570556640625 242.72279357910156 49.559234619140625 274.1472473144531 53.020877838134766 248.70709228515625 C 32.931419372558594 288.81500244140625 51.296607971191406 258.8016052246094 56.655357360839844 280.3089294433594 C 65.01785278320312 287.4629821777344 66.32771301269531 292.25640869140625 55.96184158325195 278.1952209472656" stroke-width="6.0" fill="none" stroke="rgb(0, 0, 0)" stroke-opacity="1.0" stroke-linecap="round" stroke-linejoin="round"/>
    <path d="M 504.327880859375 20.768844604492188 C 516.5823974609375 18.88222312927246 552.1048583984375 -1.1356227397918701 522.2525024414062 19.804834365844727 C 507.05902099609375 21.78156852722168 509.25482177734375 25.81527328491211 499.978271484375 35.20995330810547 C 516.80224609375 28.16362190246582 493.33203125 26.707191467285156 501.8098449707031 24.3559513092041 C 473.2601318359375 39.79823303222656 464.15875244140625 33.552303314208984 441.12249755859375 45.25812911987305 C 437.736083984375 37.081878662109375 452.17919921875 19.602354049682617 439.8451843261719 34.65938186645508" stroke-width="6.0" fill="none" stroke="rgb(0, 0, 0)" stroke-opacity="1.0" stroke-linecap="round" stroke-linejoin="round"/>
    <path d="M 526.3790283203125 223.5174102783203 C 521.4042358398438 222.07473754882812 537.8760986328125 233.8020782470703 542.7142944335938 223.73617553710938 C 538.04541015625 221.8850555419922 563.6538696289062 208.11880493164062 554.2553100585938 213.0249786376953 C 543.9312133789062 222.461181640625 541.4635009765625 211.52960205078125 526.7637939453125 206.54275512695312 C 501.1268615722656 204.7970428466797 530.0547485351562 202.46009826660156 544.2194213867188 217.16897583007812 C 543.0032958984375 237.0537872314453 521.38671875 222.925048828125 525.8890380859375 223.67941284179688" stroke-width="6.0" fill="none" stroke="rgb(0, 0, 0)" stroke-opacity="1.0" stroke-linecap="round" stroke-linejoin="round"/>
    <path d="M 536.7152099609375 441.5342102050781 C 529.968017578125 427.6456298828125 524.1637573242188 420.3721618652344 567.2025756835938 399.2388610839844 C 584.078125 433.7935485839844 597.87841796875 422.14544677734375 602.2046508789062 423.138427734375 C 620.27099609375 410.1769714355469 642.8543701171875 432.8414306640625 644.8856201171875 436.3077697753906 C 673.0490112304688 407.6533508300781 687.3738403320312 398.9508056640625 684.3076171875 393.4832763671875 C 681.2928466796875 413.5715637207031 668.6503295898438 412.1979064941406 646.7265625 393.2049865722656" stroke-width="6.0" fill="none" stroke="rgb(0, 0, 0)" stroke-opacity="1.0" stroke-linecap="round" stroke-linejoin="round"/>
    <path d="M 456.5220031738281 552.259033203125 C 492.34674072265625 525.6227416992188 514.0078125 528.1082153320312 502.217529296875 535.0857543945312 C 497.7675476074219 539.2105712890625 494.2679443359375 540.851806640625 522.3445434570312 506.84185791015625 C 509.7380676269531 510.0028991699219 508.9020690917969 529.4088134765625 513.7706909179688 541.58349609375 C 510.7664489746094 532.9585571289062 514.3858642578125 518.9656982421875 490.3204650878906 545.6041870117188 C 482.7684020996094 553.1694946289062 469.8053894042969 562.1380615234375 466.3393859863281 564.3377075195312" stroke-width="6.0" fill="none" stroke="rgb(0, 0, 0)" stroke-opacity="1.0" stroke-linecap="round" stroke-linejoin="round"/>
    <path d="M 37.75601577758789 172.32785034179688 C 38.398345947265625 170.8726043701172 27.704002380371094 180.9397735595703 26.277536392211914 204.1629638671875 C 53.510215759277344 215.94248962402344 75.65422821044922 226.46719360351562 50.7411994934082 214.63551330566406 C 73.50726318359375 223.8123321533203 52.3233528137207 259.8940124511719 75.89418029785156 270.2844543457031 C 100.68806457519531 240.3416290283203 101.31786346435547 200.61480712890625 95.33350372314453 234.99264526367188 C 93.7051773071289 238.35955810546875 95.74601745605469 252.9575653076172 99.20020294189453 233.4256591796875" stroke-width="6.0" fill="none" stroke="rgb(0, 0, 0)" stroke-opacity="1.0" stroke-linecap="round" stroke-linejoin="round"/>
    <path d="M 427.44244384765625 512.0714111328125 C 429.61474609375 507.4915466308594 413.7734375 528.412841796875 437.2270812988281 536.578125 C 417.81268310546875 529.4526977539062 386.42730712890625 546.7383422851562 401.1833190917969 536.9390869140625 C 414.4505615234375 529.7781982421875 427.7720031738281 522.6568603515625 429.896728515625 537.9110107421875 C 396.8111572265625 559.8330078125 388.7109375 592.5977783203125 411.6250915527344 579.0934448242188 C 447.6839904785156 577.3753051757812 475.6686706542969 559.0654296875 474.8569030761719 530.2251586914062" stroke-width="6.0" fill="none" stroke="rgb(0, 0, 0)" stroke-opacity="1.0" stroke-linecap="round" stroke-linejoin="round"/>
    <path d="M 95.3855972290039 237.26336669921875 C 109.52434539794922 240.82821655273438 97.69666290283203 221.862548828125 111.32833862304688 240.1078338623047 C 121.01626586914062 214.87257385253906 128.43304443359375 237.15066528320312 149.32835388183594 246.82583618164062 C 113.2967758178711 224.19924926757812 113.6896743774414 212.10987854003906 103.48047637939453 195.35719299316406 C 91.4945297241211 197.3695526123047 90.60482025146484 208.1559295654297 70.15406036376953 220.32229614257812 C 66.70631408691406 211.27777099609375 74.7262191772461 203.49884033203125 62.31250762939453 214.2847137451172" stroke-width="6.0" fill="none" stroke="rgb(0, 0, 0)" stroke-opacity="1.0" stroke-linecap="round" stroke-linejoin="round"/>
    <path d="M 230.27626037597656 222.57176208496094 C 224.56201171875 186.11865234375 215.04579162597656 207.6507568359375 224.56935119628906 196.1886749267578 C 264.1844482421875 193.15353393554688 276.7450256347656 176.90098571777344 271.6969299316406 158.07916259765625 C 238.62750244140625 162.05560302734375 251.22018432617188 181.17239379882812 254.0692596435547 195.10281372070312 C 243.54672241210938 193.09107971191406 222.72938537597656 173.88026428222656 233.5105438232422 193.93333435058594 C 255.3917999267578 191.86392211914062 270.7013854980469 178.48190307617188 255.65174865722656 162.8312225341797" stroke-width="6.0" fill="none" stroke="rgb(0, 0, 0)" stroke-opacity="1.0" stroke-linecap="round" stroke-linejoin="round"/>
    <path d="M 257.1342468261719 233.42514038085938 C 293.8199768066406 227.69361877441406 301.5592956542969 215.7041473388672 313.4139099121094 193.53677368164062 C 319.8291015625 190.49766540527344 292.5496520996094 170.51370239257812 305.11834716796875 207.3706512451172 C 307.76373291015625 197.79896545410156 306.8773498535156 163.6037139892578 324.28271484375 194.55722045898438 C 299.4148864746094 207.34837341308594 333.6837463378906 216.49322509765625 342.2962951660156 226.2613983154297 C 340.93072509765625 229.3512725830078 320.5215148925781 213.08316040039062 324.0180358886719 231.77377319335938" stroke-width="6.0" fill="none" stroke="rgb(0, 0, 0)" stroke-opacity="1.0" stroke-linecap="round" stroke-linejoin="round"/>
    <path d="M 142.87498474121094 471.0810852050781 C 148.75331115722656 458.80126953125 136.99365234375 477.6536865234375 173.2953643798828 457.1366271972656 C 140.333251953125 478.5382080078125 118.00325775146484 473.8609313964844 116.27538299560547 449.48876953125 C 93.92264556884766 434.7510681152344 115.6179428100586 425.4253234863281 100.48177337646484 420.5400390625 C 113.937744140625 417.72186279296875 102.37257385253906 420.4019470214844 81.98776245117188 399.50946044921875 C 60.65620803833008 412.4969177246094 73.90049743652344 404.2784118652344 70.65192413330078 406.70391845703125" stroke-width="6.0" fill="none" stroke="rgb(0, 0, 0)" stroke-opacity="1.0" stroke-linecap="round" stroke-linejoin="round"/>
    <path d="M 368.98040771484375 89.00242614746094 C 375.40185546875 122.11676025390625 358.30352783203125 128.67962646484375 352.788330078125 106.55406951904297 C 340.3701477050781 80.70918273925781 333.4892272949219 52.396366119384766 337.83355712890625 65.5206527709961 C 327.07708740234375 63.370670318603516 303.7830810546875 92.0503158569336 305.62603759765625 89.76443481445312 C 323.3136291503906 76.77537536621094 310.4371032714844 52.849605560302734 305.6121826171875 55.55046081542969 C 304.4183044433594 50.462188720703125 289.3174133300781 43.84004592895508 310.5802001953125 34.696144104003906" stroke-width="6.0" fill="none" stroke="rgb(0, 0, 0)" stroke-opacity="1.0" stroke-linecap="round" stroke-linejoin="round"/>
    <path d="M 142.03591918945312 228.6667938232422 C 144.88150024414062 223.7785186767578 132.41078186035156 241.65118408203125 150.46543884277344 214.20457458496094 C 130.8896026611328 244.28799438476562 135.0770721435547 237.60812377929688 131.23680114746094 232.15171813964844 C 133.404296875 241.16488647460938 128.47291564941406 223.16232299804688 122.09186553955078 224.1327362060547 C 117.3726806640625 222.877197265625 105.07083129882812 201.55697631835938 105.82061767578125 190.1796875 C 79.16060638427734 210.35641479492188 96.2433090209961 231.32080078125 97.96259307861328 223.17730712890625" stroke-width="6.0" fill="none" stroke="rgb(0, 0, 0)" stroke-opacity="1.0" stroke-linecap="round" stroke-linejoin="round"/>
    <path d="M 399.0039978027344 192.8662872314453 C 407.4679870605469 185.68887329101562 428.8283386230469 216.360107421875 393.29473876953125 182.37472534179688 C 395.1004333496094 175.51666259765625 425.35430908203125 168.75411987304688 446.7405700683594 156.04112243652344 C 428.29876708984375 170.20652770996094 413.0702819824219 176.9518585205078 390.6234436035156 194.2224578857422 C 397.3419189453125 202.2442626953125 398.24359130859375 204.06234741210938 383.75390625 196.7490997314453 C 368.5027160644531 224.4547882080078 376.7065734863281 223.85545349121094 377.1824951171875 218.01992797851562" stroke-width="6.0" fill="none" stroke="rgb(0, 0, 0)" stroke-opacity="1.0" stroke-linecap="round" stroke-linejoin="round"/>
    <path d="M 384.2850341796875 92.4859390258789 C 398.0405578613281 76.37916564941406 399.7370300292969 91.95911407470703 386.20733642578125 77.02437591552734 C 379.3120422363281 91.770263671875 411.7385559082031 99.0234375 448.1586608886719 78.47638702392578 C 439.123291015625 102.22528839111328 397.10528564453125 105.58766174316406 382.4074401855469 84.27591705322266 C 422.7053527832031 55.52529525756836 409.452392578125 64.81590270996094 406.0714111328125 62.089637756347656 C 377.36993408203125 63.0025520324707 351.4283752441406 52.3853874206543 363.74359130859375 44.17312240600586" stroke-width="6.0" fill="none" stroke="rgb(0, 0, 0)" stroke-opacity="1.0" stroke-linecap="round" stroke-linejoin="round"/>
    <path d="M 382.82049560546875 558.375244140625 C 365.31597900390625 580.4571533203125 382.3035888671875 583.3609008789062 377.302734375 579.796875 C 371.1121826171875 581.3666381835938 372.82183837890625 588.8760375976562 350.3295593261719 564.8005981445312 C 356.01605224609375 548.2207641601562 337.7171325683594 525.2702026367188 354.7677917480469 527.3233032226562 C 381.8710632324219 519.3519897460938 401.7874450683594 526.7086181640625 389.9530944824219 544.9094848632812 C 405.1132507324219 558.3269653320312 400.4026794433594 540.8615112304688 409.9075012207031 565.8140258789062" stroke-width="6.0" fill="none" stroke="rgb(0, 0, 0)" stroke-opacity="1.0" stroke-linecap="round" stroke-linejoin="round"/>
    <path d="M 45.805747985839844 488.5154724121094 C 31.299575805664062 469.45733642578125 60.772735595703125 456.5812072753906 89.77340698242188 429.0683288574219 C 79.24646759033203 414.2298278808594 98.87748718261719 416.04248046875 97.9520034790039 395.5823059082031 C 89.1894760131836 380.8786926269531 85.83423614501953 379.3423156738281 69.18659210205078 389.82391357421875 C 74.88175964355469 404.4901428222656 96.54732513427734 432.70123291015625 123.38336944580078 451.7418518066406 C 142.7975311279297 466.0337219238281 148.8112335205078 463.0447998046875 175.84835815429688 477.46685791015625" stroke-width="6.0" fill="none" stroke="rgb(0, 0, 0)" stroke-opacity="1.0" stroke-linecap="round" stroke-linejoin="round"/>
    <path d="M 341.3046875 260.9117431640625 C 331.0191345214844 226.5401611328125 319.1080017089844 226.96388244628906 320.29559326171875 248.45521545410156 C 312.5353698730469 248.08607482910156 344.2747802734375 277.1283874511719 333.6907958984375 255.44041442871094 C 342.5503845214844 231.87672424316406 340.5534973144531 230.7933349609375 317.97509765625 207.98086547851562 C 293.0775451660156 206.1892852783203 279.8031311035156 235.13577270507812 288.7711486816406 208.95472717285156 C 275.9236755371094 211.6645050048828 246.20883178710938 220.1744842529297 232.34791564941406 223.4784698486328" stroke-width="6.0" fill="none" stroke="rgb(0, 0, 0)" stroke-opacity="1.0" stroke-linecap="round" stroke-linejoin="round"/>
    <path d="M 588.5039672851562 507.052978515625 C 613.1466064453125 510.04693603515625 646.0110473632812 515.7896118164062 646.5068359375 513.4365844726562 C 656.2236938476562 541.0264282226562 674.6694946289062 513.3179931640625 646.3997192382812 536.9739379882812 C 625.5911865234375 551.1456909179688 647.8460083007812 529.0446166992188 649.3390502929688 550.3397216796875 C 627.3969116210938 562.03125 605.0070190429688 541.904296875 601.2153930664062 562.14599609375 C 574.199462890625 565.9827270507812 556.8140869140625 596.1619262695312 567.4094848632812 582.050048828125" stroke-width="6.0" fill="none" stroke="rgb(0, 0, 0)" stroke-opacity="1.0" stroke-linecap="round" stroke-linejoin="round"/>
    <path d="M 427.0500183105469 541.7479858398438 C 434.9377746582031 562.6993408203125 429.03033447265625 582.8761596679688 424.72955322265625 605.7727661132812 C 430.1802673339844 573.9995727539062 442.0000915527344 577.0848388671875 467.377685546875 563.8060302734375 C 467.9841613769531 540.8694458007812 448.2754211425781 540.8594970703125 438.3097229003906 563.4486083984375 C 467.4765625 528.0856323242188 456.15521240234375 518.6748046875 436.24212646484375 529.3370971679688 C 439.6083984375 540.4755859375 434.3123779296875 518.0292358398438 409.9816589355469 530.4153442382812" stroke-width="6.0" fill="none" stroke="rgb(0, 0, 0)" stroke-opacity="1.0" stroke-linecap="round" stroke-linejoin="round"/>
    <path d="M 126.76858520507812 360.53948974609375 C 141.01104736328125 376.9302978515625 154.8299102783203 357.107421875 157.76119995117188 331.07611083984375 C 162.60009765625 311.8260192871094 179.6141357421875 317.49700927734375 214.5327606201172 302.061279296875 C 231.383544921875 272.5033264160156 203.1733856201172 294.8297119140625 190.07318115234375 269.3271484375 C 165.60316467285156 264.2061767578125 161.91311645507812 290.9808044433594 143.6144561767578 262.6972961425781 C 144.8297576904297 263.323486328125 143.52633666992188 264.1463317871094 144.8137969970703 262.8292236328125" stroke-width="6.0" fill="none" stroke="rgb(0, 0, 0)" stroke-opacity="1.0" stroke-linecap="round" stroke-linejoin="round"/>
    <path d="M 266.1126403808594 365.6419982910156 C 277.20501708984375 341.40582275390625 304.0672607421875 343.58367919921875 320.0215148925781 341.39459228515625 C 328.44537353515625 324.7829284667969 339.7912902832031 335.2303771972656 334.2105712890625 355.7085876464844 C 326.6964416503906 360.7165832519531 334.81817626953125 331.7899475097656 355.1282043457031 320.3046875 C 361.8027648925781 298.2666931152344 343.98968505859375 304.2749328613281 330.04913330078125 274.1541748046875 C 305.8393249511719 272.5494079589844 296.176513671875 271.0954895019531 281.2239074707031 289.41748046875" stroke-width="6.0" fill="none" stroke="rgb(0, 0, 0)" stroke-opacity="1.0" stroke-linecap="round" stroke-linejoin="round"/>
    <path d="M 388.2845458984375 526.5106201171875 C 352.467529296875 525.0801391601562 334.1949462890625 527.161865234375 300.8255310058594 555.050537109375 C 289.3471984863281 561.408935546875 269.1044616699219 528.1466064453125 295.23760986328125 520.5062866210938 C 305.5419616699219 510.2494812011719 292.5837707519531 526.027099609375 288.34112548828125 524.0035400390625 C 273.9346618652344 533.6010131835938 270.6692199707031 548.8035278320312 292.3422546386719 576.0279541015625 C 312.94219970703125 579.4937133789062 312.16790771484375 588.26611328125 336.7563781738281 586.0841674804688" stroke-width="6.0" fill="none" stroke="rgb(0, 0, 0)" stroke-opacity="1.0" stroke-linecap="round" stroke-linejoin="round"/>
    <path d="M 39.02985763549805 298.5528869628906 C 42.976688385009766 326.79364013671875 67.1669921875 367.9320068359375 57.33658981323242 393.4983825683594 C 65.17462158203125 365.3695983886719 57.03580093383789 402.80120849609375 82.36808013916016 382.3687438964844 C 102.53997039794922 398.1192932128906 89.36677551269531 387.8788146972656 66.70413970947266 364.4230651855469 C 95.49229431152344 330.02008056640625 71.62543487548828 324.1941223144531 49.45355987548828 300.69671630859375 C 23.789051055908203 303.2359924316406 48.276039123535156 299.37872314453125 51.111881256103516 300.01922607421875" stroke-width="6.0" fill="none" stroke="rgb(0, 0, 0)" stroke-opacity="1.0" stroke-linecap="round" stroke-linejoin="round"/>
    <path d="M 272.79962158203125 429.79376220703125 C 280.4811096191406 448.8487854003906 300.8546142578125 458.1552734375 319.0826721191406 469.7084655761719 C 296.1854553222656 452.2569274902344 308.0423583984375 437.1461181640625 322.2777099609375 455.9155578613281 C 330.2699279785156 454.1099853515625 328.0362548828125 458.8650817871094 313.8730163574219 464.3511657714844 C 331.4599304199219 467.43743896484375 323.65155029296875 478.2218017578125 332.60693359375 463.8851013183594 C 323.25457763671875 472.4440002441406 332.3880615234375 489.3251953125 357.57452392578125 510.6266174316406" stroke-width="6.0" fill="none" stroke="rgb(0, 0, 0)" stroke-opacity="1.0" stroke-linecap="round" stroke-linejoin="round"/>
    <path d="M 80.68138122558594 111.84575653076172 C 65.88335418701172 111.07561492919922 58.121437072753906 114.7780990600586 57.129058837890625 110.57508850097656 C 53.12886428833008 135.6231231689453 29.296768188476562 158.52345275878906 12.501538276672363 129.3455047607422 C 17.26205825805664 136.03224182128906 16.799449920654297 130.78640747070312 33.948299407958984 126.2301254272461 C 39.12836456298828 132.02362060546875 23.162132263183594 109.99798583984375 34.57706069946289 103.9547348022461 C 33.46886444091797 99.5837631225586 55.34524917602539 96.70431518554688 51.38950729370117 97.33607482910156" stroke-width="6.0" fill="none" stroke="rgb(0, 0, 0)" stroke-opacity="1.0" stroke-linecap="round" stroke-linejoin="round"/>
    <path d="M 157.87115478515625 379.5248107910156 C 168.09800720214844 389.9718933105469 161.50390625 384.5816345214844 159.16983032226562 379.6945495605469 C 153.5237274169922 376.3985290527344 173.26722717285156 398.0274963378906 173.87075805664062 388.06964111328125 C 193.5465087890625 377.78924560546875 171.26942443847656 388.9267578125 188.00743103027344 381.45452880859375 C 220.77059936523438 392.5174255371094 212.3312530517578 371.68768310546875 181.52639770507812 360.9617919921875 C 187.90435791015625 332.8113708496094 217.91073608398438 347.6239929199219 206.54722595214844 330.4766845703125" stroke-width="6.0" fill="none" stroke="rgb(0, 0, 0)" stroke-opacity="1.0" stroke-linecap="round" stroke-linejoin="round"/>
    <path d="M 182.67398071289062 484.4521789550781 C 187.80484008789062 478.1686706542969 174.47872924804688 446.67431640625 163.90756225585938 442.64178466796875 C 175.75421142578125 434.9870910644531 142.80569458007812 454.5679016113281 129.07327270507812 426.7331237792969 C 81.13154602050781 433.3546142578125 89.30266571044922 430.53057861328125 94.44375610351562 472.8587646484375 C 116.25023651123047 451.4374694824219 136.23318481445312 468.7409362792969 139.09072875976562 469.9573669433594 C 131.731689453125 456.74554443359375 127.6045913696289 439.169677734375 164.45468139648438 442.5260009765625" stroke-width="6.0" fill="none" stroke="rgb(0, 0, 0)" stroke-opacity="1.0" stroke-linecap="round" stroke-linejoin="round"/>
    <path d="M 542.6650390625 222.29843139648438 C 554.5772094726562 202.68626403808594 573.0147705078125 219.6395263671875 572.7131958007812 191.05641174316406 C 606.2752075195312 178.0274200439453 618.2089233398438 205.1163787841797 633.6688842773438 199.9474639892578 C 611.733154296875 171.10308837890625 599.4807739257812 160.70611572265625 612.0476684570312 188.35520935058594 C 584.0904541015625 190.07676696777344 569.689453125 186.31814575195312 602.2427368164062 188.67771911621094 C 608.5372314453125 205.8478240966797 599.7809448242188 221.18328857421875 607.6399536132812 252.82508850097656" stroke-width="6.0" fill="none" stroke="rgb(0, 0, 0)" stroke-opacity="1.0" stroke-linecap="round" stroke-linejoin="round"/>
    <path d="M 411.2961730957031 162.89488220214844 C 411.6383056640625 130.54998779296875 399.9242248535156 110.41548919677734 380.09930419921875 107.09903717041016 C 417.1441650390625 101.04881286621094 395.4208068847656 84.87095642089844 371.6723327636719 62.98798370361328 C 370.84478759765625 58.329833984375 384.6522216796875 55.101287841796875 381.87890625 49.65602111816406 C 377.67779541015625 76.31355285644531 344.8015441894531 77.34928894042969 354.23681640625 78.66494750976562 C 343.450439453125 87.0445327758789 318.6506042480469 105.96458435058594 335.3471984863281 81.28231811523438" stroke-width="6.0" fill="none" stroke="rgb(0, 0, 0)" stroke-opacity="1.0" stroke-linecap="round" stroke-linejoin="round"/>
    <path d="M 18.873064041137695 521.41845703125 C 29.26978874206543 522.8215942382812 36.33610153198242 514.9464721679688 30.822755813598633 542.0393676757812 C 17.667367935180664 526.0894165039062 16.331592559814453 540.800537109375 -5.314852714538574 553.2413330078125 C -33.594356536865234 535.6369018554688 -37.70250701904297 565.386474609375 -66.29800415039062 593.7879028320312 C -62.91163635253906 593.2333374023438 -78.82852172851562 618.50390625 -100.92668151855469 624.93115234375 C -79.94659423828125 600.75 -96.8482666015625 630.27783203125 -92.60356903076172 610.9951782226562" stroke-width="6.0" fill="none" stroke="rgb(0, 0, 0)" stroke-opacity="1.0" stroke-linecap="round" stroke-linejoin="round"/>
    <path d="M 102.39215850830078 467.7081604003906 C 112.77023315429688 455.2880554199219 103.493896484375 470.11590576171875 97.35049438476562 470.6457824707031 C 84.82560729980469 469.3462829589844 64.15480041503906 495.062255859375 88.38235473632812 506.7177429199219 C 83.93126678466797 511.4521484375 82.79724884033203 540.22802734375 79.82429504394531 525.97314453125 C 78.8458023071289 516.7100219726562 97.59297180175781 494.4075622558594 88.70573425292969 506.1709289550781 C 94.00019836425781 509.20977783203125 70.58332061767578 526.9696044921875 83.41056823730469 540.8982543945312" stroke-width="6.0" fill="none" stroke="rgb(0, 0, 0)" stroke-opacity="1.0" stroke-linecap="round" stroke-linejoin="round"/>
    <path d="M 586.1143798828125 268.9862060546875 C 603.5836791992188 268.3680725097656 585.7418823242188 262.09234619140625 612.2288818359375 260.8428649902344 C 611.658203125 296.3739929199219 598.551025390625 284.0180969238281 620.26611328125 281.2829895019531 C 594.6137084960938 271.8770751953125 605.6575317382812 292.5131530761719 611.5314331054688 296.817138671875 C 629.6600341796875 315.88922119140625 609.3427124023438 308.0331115722656 631.82177734375 288.5457458496094 C 658.0502319335938 313.8288879394531 647.4136352539062 301.4078063964844 671.0803833007812 283.8282470703125" stroke-width="6.0" fill="none" stroke="rgb(0, 0, 0)" stroke-opacity="1.0" stroke-linecap="round" stroke-linejoin="round"/>
    <path d="M 287.04376220703125 149.83299255371094 C 283.50933837890625 192.05758666992188 292.9925231933594 222.11073303222656 299.5680236816406 185.36965942382812 C 314.7367858886719 171.5988311767578 331.2111511230469 141.5420684814453 321.10528564453125 174.74508666992188 C 299.5556640625 152.14825439453125 305.2709045410156 177.19627380371094 340.6073913574219 188.7827911376953 C 313.478759765625 185.4986114501953 297.1874694824219 199.48817443847656 273.5777282714844 220.71493530273438 C 293.0665588378906 225.17050170898438 262.5452880859375 214.96783447265625 272.4810485839844 196.8590850830078" stroke-width="6.0" fill="none" stroke="rgb(0, 0, 0)" stroke-opacity="1.0" stroke-linecap="round" stroke-linejoin="round"/>
    <path d="M 237.0713348388672 496.0411682128906 C 253.71783447265625 484.4627380371094 267.2697448730469 485.3074035644531 273.21533203125 485.3894348144531 C 258.6625061035156 447.44317626953125 255.7327423095703 455.1387939453125 260.5876770019531 455.20172119140625 C 239.56161499023438 453.7342834472656 225.15625 473.1431579589844 247.39248657226562 460.4979248046875 C 228.40127563476562 475.5481262207031 204.46299743652344 503.55059814453125 194.93763732910156 479.8266906738281 C 178.53125 457.21136474609375 170.76309204101562 477.7934265136719 186.71583557128906 484.2685546875" stroke-width="6.0" fill="none" stroke="rgb(0, 0, 0)" stroke-opacity="1.0" stroke-linecap="round" stroke-linejoin="round"/>
    <path d="M 363.97515869140625 454.7125244140625 C 344.8140869140625 435.53973388671875 317.9846496582031 436.43621826171875 303.8722229003906 418.3172302246094 C 330.45916748046875 397.22454833984375 339.88531494140625 395.6851501464844 340.591796875 390.47198486328125 C 359.5955810546875 397.9428405761719 325.204833984375 391.26995849609375 328.4709777832031 387.257080078125 C 306.0654296875 365.3429870605469 286.5728454589844 371.4897155761719 280.426513671875 392.1372985839844 C 286.2470703125 432.8321228027344 276.921875 447.8974609375 250.7308807373047 432.7126159667969" stroke-width="6.0" fill="none" stroke="rgb(0, 0, 0)" stroke-opacity="1.0" stroke-linecap="round" stroke-linejoin="round"/>
    <path d="M 85.80564880371094 504.57708740234375 C 78.30049133300781 502.9897766113281 101.62552642822266 503.5772705078125 81.36072540283203 506.11163330078125 C 52.664249420166016 518.1892700195312 36.939754486083984 556.8884887695312 37.73771286010742 546.464111328125 C 16.03923797607422 533.6989135742188 37.53997039794922 549.1038208007812 35.48268127441406 533.425048828125 C 36.316585540771484 562.0382080078125 58.571468353271484 583.8185424804688 77.32276153564453 598.59326171875 C 72.17543029785156 591.8549194335938 64.58418273925781 592.1214599609375 63.306129455566406 575.614990234375" stroke-width="6.0" fill="none" stroke="rgb(0, 0, 0)" stroke-opacity="1.0" stroke-linecap="round" stroke-linejoin="round"/>
    <path d="M 212.2085723876953 32.1676139831543 C 210.93170166015625 29.22458839416504 225.94761657714844 60.065975189208984 246.3308868408203 46.28583526611328 C 248.32911682128906 39.825321197509766 244.7918701171875 52.13520812988281 247.8193359375 47.5451774597168 C 215.7579803466797 55.774200439453125 215.3373260498047 35.65382766723633 238.05043029785156 24.767807006835938 C 219.72921752929688 -7.858952522277832 224.4437255859375 -23.58322525024414 241.74581909179688 -15.852994918823242 C 226.13668823242188 -26.447431564331055 231.27732849121094 -21.57120704650879 229.13360595703125 -19.355188369750977" stroke-width="6.0" fill="none" stroke="rgb(0, 0, 0)" stroke-opacity="1.0" stroke-linecap="round" stroke-linejoin="round"/>
    <path d="M 463.7564392089844 197.4794921875 C 460.524169921875 184.67263793945312 445.9794006347656 152.36061096191406 440.6628112792969 145.4602813720703 C 402.888427734375 153.8618927001953 407.2809143066406 147.9456787109375 429.3038330078125 132.7834930419922 C 465.9621276855469 157.80654907226562 460.13018798828125 157.25318908691406 454.1864929199219 154.33758544921875 C 416.5796203613281 170.18675231933594 428.2666320800781 177.09091186523438 403.92181396484375 165.981689453125 C 393.4954833984375 190.92445373535156 384.1762390136719 229.7216796875 376.8138122558594 217.42054748535156" stroke-width="6.0" fill="none" stroke="rgb(0, 0, 0)" stroke-opacity="1.0" stroke-linecap="round" stroke-linejoin="round"/>
    <path d="M 344.64599609375 178.85208129882812 C 322.0044860839844 220.3224334716797 359.43206787109375 215.7457275390625 349.1412658691406 244.25099182128906 C 342.5486145019531 221.04624938964844 321.89739990234375 217.99171447753906 306.345703125 243.231201171875 C 297.91552734375 249.02345275878906 310.0863037109375 227.1712646484375 311.48553466796875 235.15469360351562 C 301.026611328125 244.61630249023438 294.96661376953125 257.7398376464844 274.0992126464844 244.8892364501953 C 275.9847106933594 248.76026916503906 251.8896484375 229.09524536132812 274.488037109375 255.8885040283203" stroke-width="6.0" fill="none" stroke="rgb(0, 0, 0)" stroke-opacity="1.0" stroke-linecap="round" stroke-linejoin="round"/>
    <path d="M 512.5818481445312 363.4082336425781 C 490.491943359375 386.2874450683594 519.1903686523438 403.79595947265625 536.4429321289062 427.142578125 C 520.2523803710938 454.9643859863281 511.95233154296875 482.27490234375 510.4801940917969 453.274169921875 C 505.7648620605469 433.490234375 514.009033203125 431.92620849609375 511.56195068359375 431.052734375 C 507.74761962890625 446.0041809082031 497.2920837402344 469.6064453125 489.88031005859375 482.41754150390625 C 511.2767028808594 511.09869384765625 489.643798828125 524.302734375 468.9619445800781 533.129150390625" stroke-width="6.0" fill="none" stroke="rgb(0, 0, 0)" stroke-opacity="1.0" stroke-linecap="round" stroke-linejoin="round"/>
    <path d="M 190.79879760742188 223.99179077148438 C 171.04351806640625 246.63046264648438 165.92343139648438 245.26600646972656 144.3972930908203 224.20809936523438 C 133.501953125 248.6416778564453 109.03929138183594 235.3807373046875 105.74049377441406 236.38998413085938 C 118.92903137207031 233.23455810546875 147.59500122070312 205.79835510253906 150.4619140625 218.20494079589844 C 169.30209350585938 210.89170837402344 172.35711669921875 206.25717163085938 164.29608154296875 191.35023498535156 C 168.6834259033203 180.04051208496094 168.11952209472656 200.31593322753906 143.11630249023438 181.9382781982422" stroke-width="6.0" fill="none" stroke="rgb(0, 0, 0)" stroke-opacity="1.0" stroke-linecap="round" stroke-linejoin="round"/>
    <path d="M 466.5626525878906 202.6445770263672 C 465.97186279296875 190.66177368164062 450.9060363769531 161.459228515625 442.87164306640625 150.04132080078125 C 407.7189636230469 138.25643920898438 412.2922058105469 153.11203002929688 399.0273132324219 151.9734649658203 C 391.1579895019531 126.12981414794922 407.3419494628906 101.92704010009766 415.934814453125 115.3012466430664 C 389.8218994140625 130.13555908203125 419.8612976074219 121.22017669677734 454.9801940917969 109.5520248413086 C 444.48919677734375 108.87621307373047 428.4440612792969 113.96932220458984 451.0037536621094 108.0764389038086" stroke-width="6.0" fill="none" stroke="rgb(0, 0, 0)" stroke-opacity="1.0" stroke-linecap="round" stroke-linejoin="round"/>
    <path d="M 438.8651123046875 5.253376007080078 C 424.4766845703125 5.523401737213135 425.9767150878906 -0.5049271583557129 390.5648498535156 7.469264030456543 C 407.0984191894531 3.404695987701416 386.5797119140625 8.905726432800293 370.01812744140625 8.293120384216309 C 382.4427185058594 19.27161407470703 386.5719299316406 30.271997451782227 380.85113525390625 48.429988861083984 C 380.3507995605469 77.93746185302734 393.56414794921875 90.74803161621094 423.0685119628906 101.5947494506836 C 396.5340881347656 115.93103790283203 399.4394226074219 151.70169067382812 414.029052734375 158.90196228027344" stroke-width="6.0" fill="none" stroke="rgb(0, 0, 0)" stroke-opacity="1.0" stroke-linecap="round" stroke-linejoin="round"/>
    <path d="M 253.76963806152344 156.1217498779297 C 244.68731689453125 172.86843872070312 256.45526123046875 187.19277954101562 235.06187438964844 199.15591430664062 C 240.44834899902344 201.59291076660156 244.8765411376953 211.08505249023438 241.4442596435547 202.1208953857422 C 252.29257202148438 176.1094970703125 263.4502868652344 127.67666625976562 249.5117645263672 134.05026245117188 C 232.8131103515625 128.73410034179688 243.86573791503906 116.544677734375 241.66221618652344 115.99195098876953 C 255.46963500976562 121.08185577392578 240.34310913085938 138.8351287841797 278.7599182128906 132.2831573486328" stroke-width="6.0" fill="none" stroke="rgb(0, 0, 0)" stroke-opacity="1.0" stroke-linecap="round" stroke-linejoin="round"/>
    <path d="M 468.85736083984375 112.9843978881836 C 440.7546691894531 104.06339263916016 452.2300720214844 110.49971771240234 482.6537780761719 108.38937377929688 C 519.8405151367188 107.77429962158203 489.4468078613281 106.01614379882812 448.2073059082031 95.85466003417969 C 450.80194091796875 58.96921920776367 492.10791015625 50.083038330078125 492.58453369140625 38.553260803222656 C 507.981689453125 28.775903701782227 528.9559326171875 17.0800724029541 515.3211669921875 19.967857360839844 C 528.6972045898438 15.84041690826416 527.1780395507812 14.404128074645996 518.9039916992188 17.76454734802246" stroke-width="6.0" fill="none" stroke="rgb(0, 0, 0)" stroke-opacity="1.0" stroke-linecap="round" stroke-linejoin="round"/>
    <path d="M 484.06475830078125 46.20337677001953 C 453.6690979003906 64.69924926757812 472.3988952636719 47.663944244384766 498.43939208984375 35.96088790893555 C 495.3390197753906 40.4376220703125 507.1024475097656 25.852502822875977 482.0364074707031 46.69826889038086 C 509.4999694824219 37.4071044921875 505.9687194824219 19.061092376708984 502.33154296875 -8.537822723388672 C 521.4738159179688 -16.254650115966797 546.697265625 -28.340167999267578 574.0692138671875 -1.1812012195587158 C 560.0192260742188 26.48774528503418 547.5158081054688 56.376651763916016 529.5730590820312 67.89107513427734" stroke-width="6.0" fill="none" stroke="rgb(0, 0, 0)" stroke-opacity="1.0" stroke-linecap="round" stroke-linejoin="round"/>
    <path d="M 231.01377868652344 275.6942138671875 C 256.5461120605469 261.8836364746094 269.27996826171875 249.50465393066406 258.6764831542969 223.13792419433594 C 261.0376281738281 221.97145080566406 230.1946258544922 247.0009002685547 234.03509521484375 223.01795959472656 C 272.60711669921875 237.1304168701172 296.93585205078125 228.29071044921875 275.7223205566406 197.8350372314453 C 248.3470001220703 221.72593688964844 285.19140625 244.77488708496094 296.6329040527344 225.90049743652344 C 323.1142883300781 201.07260131835938 300.98114013671875 202.4951934814453 287.8444519042969 213.61782836914062" stroke-width="6.0" fill="none" stroke="rgb(0, 0, 0)" stroke-opacity="1.0" stroke-linecap="round" stroke-linejoin="round"/>
    <path d="M 532.2300415039062 156.72967529296875 C 517.8421630859375 164.48629760742188 515.8411865234375 189.6295166015625 501.02545166015625 223.017333984375 C 515.302734375 188.418701171875 512.3173217773438 194.07666015625 518.1674194335938 176.01724243164062 C 478.0290222167969 195.26547241210938 459.99468994140625 232.08448791503906 435.4626159667969 231.84422302246094 C 470.4877014160156 263.8959655761719 472.73675537109375 243.34352111816406 472.3070068359375 239.98577880859375 C 457.7328796386719 220.98458862304688 476.2692565917969 201.93031311035156 482.5996398925781 206.67298889160156" stroke-width="6.0" fill="none" stroke="rgb(0, 0, 0)" stroke-opacity="1.0" stroke-linecap="round" stroke-linejoin="round"/>
    <path d="M 380.78387451171875 433.70550537109375 C 367.76885986328125 451.68927001953125 386.3879699707031 427.7672119140625 364.27581787109375 396.175537109375 C 380.22552490234375 384.08868408203125 361.5937194824219 355.4901123046875 362.85369873046875 395.83953857421875 C 337.1277770996094 365.63800048828125 316.77020263671875 370.3678894042969 305.6706237792969 397.1231384277344 C 338.24603271484375 400.8853454589844 341.1533508300781 432.4556579589844 344.19610595703125 415.9714050292969 C 343.4342956542969 429.1836242675781 354.3434143066406 451.64837646484375 325.91497802734375 470.11090087890625" stroke-width="6.0" fill="none" stroke="rgb(0, 0, 0)" stroke-opacity="1.0" stroke-linecap="round" stroke-linejoin="round"/>
    <path d="M 234.8507843017578 18.478368759155273 C 226.3345489501953 -3.732473611831665 204.39178466796875 -31.418724060058594 220.8544464111328 -50.59458541870117 C 198.50732421875 -34.17343521118164 197.5380096435547 -43.539329528808594 205.2607879638672 -24.51995849609375 C 209.8928680419922 -27.39371109008789 192.7830352783203 -20.114957809448242 195.5358123779297 -43.04581069946289 C 182.2941131591797 -26.935148239135742 207.72726440429688 -36.69987106323242 231.27886962890625 -51.38280487060547 C 249.6981964111328 -52.14149856567383 252.63221740722656 -42.346614837646484 262.7129821777344 -51.804115295410156" stroke-width="6.0" fill="none" stroke="rgb(0, 0, 0)" stroke-opacity="1.0" stroke-linecap="round" stroke-linejoin="round"/>
    <path d="M 314.54217529296875 42.20404052734375 C 306.6337585449219 48.343624114990234 332.5581970214844 25.47517967224121 318.3013000488281 28.63780975341797 C 304.1910400390625 35.0684814453125 287.6318664550781 55.21482849121094 285.4107666015625 57.0938720703125 C 312.2299499511719 27.129138946533203 330.5531311035156 20.980854034423828 318.5771484375 35.67132568359375 C 334.21728515625 19.256900787353516 360.7950744628906 11.223055839538574 333.8807678222656 24.387556076049805 C 323.220947265625 30.970474243164062 303.8336181640625 45.40461349487305 312.8789978027344 64.75045013427734" stroke-width="6.0" fill="none" stroke="rgb(0, 0, 0)" stroke-opacity="1.0" stroke-linecap="round" stroke-linejoin="round"/>
    <path d="M 215.2988739013672 134.0347442626953 C 238.73284912109375 141.90460205078125 229.70541381835938 124.54472351074219 212.870849609375 114.6610107421875 C 223.40150451660156 141.23988342285156 229.73309326171875 124.33222198486328 268.2480163574219 135.6797637939453 C 299.96826171875 111.01738739013672 318.4676208496094 129.90753173828125 296.8607482910156 169.64529418945312 C 333.4954528808594 199.03419494628906 331.793701171875 173.43072509765625 357.0626525878906 143.85726928710938 C 342.74945068359375 143.2147979736328 329.5274963378906 170.89190673828125 335.4018249511719 191.07510375976562" stroke-width="6.0" fill="none" stroke="rgb(0, 0, 0)" stroke-opacity="1.0" stroke-linecap="round" stroke-linejoin="round"/>
    <path d="M 23.26128387451172 249.6690673828125 C 9.103075981140137 266.3649597167969 29.29393768310547 288.71124267578125 48.24372863769531 271.5068359375 C 70.34921264648438 283.7637023925781 75.8065185546875 269.0542297363281 98.84648132324219 240.55874633789062 C 125.73955535888672 229.57025146484375 148.33587646484375 205.42837524414062 149.30235290527344 218.0767364501953 C 140.06082153320312 225.81497192382812 146.8757781982422 241.8919219970703 112.93502044677734 217.65472412109375 C 101.71720123291016 189.28225708007812 107.62449645996094 183.55845642089844 109.31145477294922 171.47630310058594" stroke-width="6.0" fill="none" stroke="rgb(0, 0, 0)" stroke-opacity="1.0" stroke-linecap="round" stroke-linejoin="round"/>
    <path d="M 62.29145050048828 445.7606506347656 C 82.03683471679688 419.68023681640625 116.82904052734375 437.7109680175781 98.79508972167969 438.03143310546875 C 122.24526977539062 428.1072082519531 136.00621032714844 393.6946716308594 131.77627563476562 408.17901611328125 C 165.59754943847656 415.9025573730469 179.82289123535156 426.78094482421875 159.65225219726562 409.602783203125 C 207.03585815429688 410.7563781738281 200.76480102539062 412.542724609375 220.51853942871094 424.4239196777344 C 248.2306671142578 435.98541259765625 244.7389678955078 438.3221435546875 267.0364685058594 445.06781005859375" stroke-width="6.0" fill="none" stroke="rgb(0, 0, 0)" stroke-opacity="1.0" stroke-linecap="round" stroke-linejoin="round"/>
    <path d="M 438.37518310546875 164.19216918945312 C 420.1474304199219 161.83450317382812 408.8746032714844 179.2432403564453 441.8534851074219 160.41285705566406 C 417.8399353027344 177.66783142089844 399.57275390625 174.7559356689453 404.9965515136719 181.04718017578125 C 394.9694519042969 192.08973693847656 409.844970703125 199.18235778808594 422.61016845703125 204.8236083984375 C 426.0168762207031 231.78829956054688 402.9814758300781 233.1011505126953 426.1726379394531 235.8165283203125 C 460.6553039550781 246.7845916748047 436.74761962890625 280.53778076171875 432.8974914550781 283.759033203125" stroke-width="6.0" fill="none" stroke="rgb(0, 0, 0)" stroke-opacity="1.0" stroke-linecap="round" stroke-linejoin="round"/>
    <path d="M 541.749267578125 259.5119323730469 C 524.4291381835938 261.3006286621094 515.1300659179688 301.8713073730469 540.6804809570312 306.2389831542969 C 559.6968383789062 308.6638488769531 570.5774536132812 313.0605773925781 560.5839233398438 332.01507568359375 C 544.3496704101562 331.7878112792969 513.3230590820312 350.2684326171875 503.1614990234375 371.2434387207031 C 526.0563354492188 400.07708740234375 535.316650390625 382.706298828125 543.9500732421875 364.5245056152344 C 584.04736328125 371.119873046875 575.6484985351562 338.24658203125 577.0270385742188 353.6774597167969" stroke-width="6.0" fill="none" stroke="rgb(0, 0, 0)" stroke-opacity="1.0" stroke-linecap="round" stroke-linejoin="round"/>
    <path d="M 160.46798706054688 473.79327392578125 C 145.49002075195312 475.4039001464844 144.4470672607422 467.9170227050781 136.44898986816406 469.6851806640625 C 160.03016662597656 487.27093505859375 183.48040771484375 478.8919372558594 196.6996307373047 493.3326416015625 C 218.29737854003906 494.9989013671875 233.8015594482422 465.6319885253906 235.50405883789062 474.5062255859375 C 217.86102294921875 466.5994567871094 206.08645629882812 452.40960693359375 188.8277130126953 469.1209716796875 C 183.6851348876953 489.5370788574219 211.0751953125 509.7195129394531 248.07057189941406 506.13250732421875" stroke-width="6.0" fill="none" stroke="rgb(0, 0, 0)" stroke-opacity="1.0" stroke-linecap="round" stroke-linejoin="round"/>
    <path d="M 61.171504974365234 337.7596740722656 C 89.86650085449219 362.975341796875 94.18016052246094 373.01544189453125 86.6965103149414 373.3872985839844 C 97.88984680175781 349.2789001464844 87.0134506225586 358.4134826660156 98.85462951660156 342.3019104003906 C 91.38880920410156 360.4978942871094 86.937255859375 348.5491638183594 113.1377182006836 337.3940734863281 C 135.58767700195312 360.94573974609375 155.27183532714844 335.5204772949219 171.0165252685547 311.71588134765625 C 200.07608032226562 305.5328674316406 169.28298950195312 316.337646484375 183.5304412841797 312.2011413574219" stroke-width="6.0" fill="none" stroke="rgb(0, 0, 0)" stroke-opacity="1.0" stroke-linecap="round" stroke-linejoin="round"/>
    <path d="M 286.2348937988281 494.3392333984375 C 314.2723693847656 490.0201721191406 298.0464172363281 506.0250549316406 286.1455383300781 472.3681335449219 C 275.77783203125 427.32537841796875 276.0421447753906 445.8480224609375 272.7845764160156 451.81182861328125 C 281.8422546386719 450.0818176269531 297.51861572265625 463.762451171875 316.9730224609375 474.62066650390625 C 343.00421142578125 492.1330261230469 352.3186950683594 526.7831420898438 375.7671813964844 514.6201782226562 C 364.31463623046875 537.6007080078125 398.3713073730469 524.7716674804688 386.9283752441406 544.3275146484375" stroke-width="6.0" fill="none" stroke="rgb(0, 0, 0)" stroke-opacity="1.0" stroke-linecap="round" stroke-linejoin="round"/>
    <path d="M 76.4743423461914 511.53741455078125 C 101.53239440917969 492.27496337890625 108.265869140625 471.35345458984375 141.424560546875 493.02313232421875 C 144.52073669433594 504.2693786621094 125.48670959472656 513.699951171875 139.0069580078125 523.570068359375 C 162.31605529785156 528.4951782226562 165.28225708007812 544.7737426757812 150.1973876953125 556.9273071289062 C 127.60509490966797 572.8687744140625 127.96589660644531 573.7850341796875 152.77610778808594 554.2886352539062 C 169.05673217773438 537.3885498046875 148.40518188476562 526.2306518554688 148.8625030517578 527.799072265625" stroke-width="6.0" fill="none" stroke="rgb(0, 0, 0)" stroke-opacity="1.0" stroke-linecap="round" stroke-linejoin="round"/>
    <path d="M 397.29547119140625 58.27465057373047 C 409.5223693847656 51.198246002197266 441.2967224121094 58.053646087646484 464.6181335449219 55.74174499511719 C 467.6024169921875 92.51721954345703 499.8949890136719 72.74454498291016 497.15240478515625 72.41474151611328 C 520.0330810546875 62.86060333251953 530.8018798828125 77.10726928710938 540.1129150390625 60.843711853027344 C 535.7384643554688 72.22250366210938 539.0336303710938 53.929866790771484 534.7687377929688 69.51620483398438 C 542.6082153320312 48.20924377441406 561.9168701171875 37.4107666015625 554.3638916015625 35.32081604003906" stroke-width="6.0" fill="none" stroke="rgb(0, 0, 0)" stroke-opacity="1.0" stroke-linecap="round" stroke-linejoin="round"/>
    <path d="M 444.30401611328125 145.8030548095703 C 459.8506774902344 161.2103271484375 435.4515380859375 146.96156311035156 418.0385437011719 156.584228515625 C 402.1458740234375 130.49041748046875 437.9028625488281 128.19143676757812 464.3355407714844 111.53266143798828 C 471.216796875 119.32867431640625 450.14990234375 110.59264373779297 417.4676513671875 111.71975708007812 C 428.39532470703125 128.44715881347656 429.2101135253906 108.95457458496094 420.96630859375 104.53936767578125 C 445.11456298828125 113.7133560180664 422.25567626953125 123.7983627319336 428.3685607910156 100.29147338867188" stroke-width="6.0" fill="none" stroke="rgb(0, 0, 0)" stroke-opacity="1.0" stroke-linecap="round" stroke-linejoin="round"/>
    <path d="M 361.0723571777344 587.0860595703125 C 346.5962219238281 577.8809204101562 326.8621826171875 599.0372314453125 319.22509765625 566.406982421875 C 308.2322692871094 548.275390625 342.1558837890625 551.7982788085938 367.5795593261719 581.5311889648438 C 336.1414794921875 593.7405395507812 312.80853271484375 574.6026000976562 305.9292297363281 599.4739990234375 C 333.71942138671875 604.9562377929688 340.8182678222656 625.205810546875 357.22198486328125 646.5659790039062 C 338.58343505859375 626.2096557617188 355.3492736816406 599.7391967773438 317.88311767578125 602.4017944335938" stroke-width="6.0" fill="none" stroke="rgb(0, 0, 0)" stroke-opacity="1.0" stroke-linecap="round" stroke-linejoin="round"/>
    <path d="M 592.0000610351562 564.7449340820312 C 599.59814453125 559.7572631835938 580.2965698242188 546.0881958007812 559.4613037109375 548.7653198242188 C 587.7222290039062 544.5722045898438 598.6150512695312 568.3530883789062 629.0208740234375 590.002685546875 C 642.7023315429688 604.0223999023438 636.0330810546875 600.8984985351562 613.0159912109375 604.1661987304688 C 603.316650390625 596.1078491210938 587.6837158203125 615.1629638671875 568.984130859375 609.4200439453125 C 560.4833984375 634.4166870117188 585.7509155273438 653.0711059570312 610.3309326171875 665.5293579101562" stroke-width="6.0" fill="none" stroke="rgb(0, 0, 0)" stroke-opacity="1.0" stroke-linecap="round" stroke-linejoin="round"/>
  </g>
</svg>
