<?xml version="1.0" ?>
<svg xmlns="http://www.w3.org/2000/svg" version="1.1" width="600" height="600">
  <defs/>
  <g>
    <path d="M 374.7030334472656 -3.865483522415161 C 369.03448486328125 -6.3354363441467285 381.5203552246094 4.686923027038574 404.01080322265625 -20.219205856323242 C 403.19219970703125 -43.994773864746094 386.31048583984375 -43.67345428466797 357.90264892578125 -61.743194580078125 C 366.89569091796875 -59.04670333862305 350.12213134765625 -53.690765380859375 368.68798828125 -83.30083465576172 C 387.037109375 -71.4124755859375 377.4521484375 -92.08370208740234 404.8849182128906 -101.88803100585938 C 380.4496765136719 -126.08505249023438 401.2993469238281 -119.86148071289062 419.72705078125 -106.07758331298828" stroke-width="6.0" fill="none" stroke="rgb(0, 0, 0)" stroke-opacity="1.0" stroke-linecap="round" stroke-linejoin="round"/>
    <path d="M 324.2236328125 591.1290283203125 C 313.385009765625 579.1915283203125 334.0821228027344 592.6588134765625 357.1988830566406 596.2457275390625 C 375.860595703125 553.2521362304688 369.5462341308594 544.4097290039062 319.1216125488281 549.256591796875 C 299.2256164550781 545.6111450195312 315.465576171875 519.1339111328125 300.4070739746094 490.05419921875 C 282.00543212890625 522.2706909179688 290.5810241699219 530.217529296875 281.095947265625 539.3618774414062 C 279.6468811035156 532.755126953125 300.26361083984375 540.9544067382812 298.75482177734375 558.1992797851562" stroke-width="6.0" fill="none" stroke="rgb(0, 0, 0)" stroke-opacity="1.0" stroke-linecap="round" stroke-linejoin="round"/>
    <path d="M 493.40264892578125 452.86865234375 C 487.1244812011719 449.5104064941406 480.37005615234375 434.08673095703125 463.17791748046875 466.5858459472656 C 498.7247619628906 454.8607177734375 496.72442626953125 438.02020263671875 511.0287170410156 438.6236877441406 C 495.7878723144531 423.4436340332031 508.4448547363281 393.1366882324219 509.0296630859375 426.9321594238281 C 502.89312744140625 408.372314453125 524.9163208007812 405.9132995605469 505.7996826171875 386.43133544921875 C 498.39984130859375 383.5745849609375 514.2031860351562 374.948974609375 493.2122802734375 370.07098388671875" stroke-width="6.0" fill="none" stroke="rgb(0, 0, 0)" stroke-opacity="1.0" stroke-linecap="round" stroke-linejoin="round"/>
    <path d="M 604.2789306640625 323.9730529785156 C 626.92822265625 343.6274108886719 597.715576171875 356.8935546875 602.7352905273438 360.74102783203125 C 588.3330688476562 356.9054260253906 576.6934204101562 352.1777038574219 565.3165893554688 376.5659484863281 C 572.8482055664062 359.439453125 583.9491577148438 347.661376953125 616.486083984375 368.890625 C 602.705810546875 383.4400634765625 609.2439575195312 362.6103820800781 625.78857421875 365.19976806640625 C 643.2545776367188 367.81146240234375 615.300537109375 359.1831970214844 601.7857055664062 376.592529296875" stroke-width="6.0" fill="none" stroke="rgb(0, 0, 0)" stroke-opacity="1.0" stroke-linecap="round" stroke-linejoin="round"/>
    <path d="M 516.123291015625 479.9958801269531 C 523.5578002929688 468.4584045410156 521.9503784179688 483.70355224609375 503.1717224121094 482.048583984375 C 486.380859375 509.8376159667969 502.31463623046875 489.5926208496094 499.10516357421875 492.3772888183594 C 486.5965881347656 515.9151000976562 482.0613098144531 496.7065734863281 492.3271484375 506.4669494628906 C 473.43743896484375 497.0150451660156 499.48565673828125 510.25494384765625 497.7897033691406 509.2412109375 C 467.223388671875 500.8207092285156 462.0811767578125 503.55718994140625 448.9942932128906 475.87158203125" stroke-width="6.0" fill="none" stroke="rgb(0, 0, 0)" stroke-opacity="1.0" stroke-linecap="round" stroke-linejoin="round"/>
    <path d="M 23.50718116760254 382.46392822265625 C 10.924752235412598 399.0079040527344 23.941375732421875 378.5857238769531 22.042728424072266 391.3467102050781 C 24.27532196044922 365.3232727050781 52.73416519165039 358.8373718261719 52.27665710449219 381.223388671875 C 52.959877014160156 365.0574951171875 35.26603698730469 369.0768127441406 43.019657135009766 366.46038818359375 C 51.145328521728516 381.2961730957031 67.72924041748047 350.11053466796875 72.85628509521484 344.3086853027344 C 98.25353240966797 332.53173828125 75.25921630859375 326.1152648925781 69.2572250366211 309.489013671875" stroke-width="6.0" fill="none" stroke="rgb(0, 0, 0)" stroke-opacity="1.0" stroke-linecap="round" stroke-linejoin="round"/>
    <path d="M 152.73248291015625 563.6803588867188 C 151.8114776611328 570.6842041015625 153.12017822265625 548.2537841796875 176.47677612304688 569.26171875 C 199.9729461669922 596.9915771484375 224.03477478027344 575.2742919921875 225.0130615234375 566.003662109375 C 226.69107055664062 552.7117309570312 228.2171630859375 577.8336791992188 207.33154296875 582.7593383789062 C 203.28958129882812 567.2666625976562 226.1162109375 600.354248046875 226.6557159423828 616.7666015625 C 207.734619140625 602.9164428710938 235.85719299316406 607.667236328125 238.38888549804688 622.5457763671875" stroke-width="6.0" fill="none" stroke="rgb(0, 0, 0)" stroke-opacity="1.0" stroke-linecap="round" stroke-linejoin="round"/>
    <path d="M 33.567893981933594 368.94390869140625 C 27.651981353759766 370.9901123046875 19.20313835144043 407.6905822753906 -6.380720615386963 387.3254089355469 C -5.400873184204102 391.1550598144531 -21.290437698364258 368.3465270996094 -5.659658908843994 356.1790466308594 C -3.1041605472564697 370.6625671386719 -6.535393238067627 374.6139831542969 -3.3485124111175537 393.3178405761719 C -10.055851936340332 407.98504638671875 -25.194379806518555 402.154541015625 -15.526265144348145 389.4682922363281 C -30.00522232055664 401.0408020019531 -55.65263748168945 398.5379638671875 -25.74536895751953 428.3037109375" stroke-width="6.0" fill="none" stroke="rgb(0, 0, 0)" stroke-opacity="1.0" stroke-linecap="round" stroke-linejoin="round"/>
    <path d="M 47.55579376220703 136.9073486328125 C 33.35771179199219 153.9599609375 55.182247161865234 168.30691528320312 42.42863464355469 157.9003448486328 C 63.51544189453125 173.59951782226562 74.03486633300781 202.46299743652344 90.74087524414062 177.17665100097656 C 95.52597045898438 161.29527282714844 104.96340942382812 182.89138793945312 80.41900634765625 157.47012329101562 C 63.535343170166016 152.4473876953125 72.04953002929688 155.3697967529297 68.95579528808594 158.14027404785156 C 70.95500183105469 146.4146270751953 79.50360107421875 170.1306610107422 86.30452728271484 144.97677612304688" stroke-width="6.0" fill="none" stroke="rgb(0, 0, 0)" stroke-opacity="1.0" stroke-linecap="round" stroke-linejoin="round"/>
    <path d="M 257.8749694824219 169.7392578125 C 226.04454040527344 192.82772827148438 236.79217529296875 178.9556427001953 252.9767608642578 165.02511596679688 C 249.9759521484375 142.203857421875 218.8549346923828 167.8637237548828 248.1941680908203 175.42318725585938 C 265.8431701660156 175.49488830566406 242.59031677246094 148.29989624023438 238.37924194335938 169.1314697265625 C 250.90354919433594 194.16709899902344 273.1642150878906 181.1397705078125 255.80001831054688 152.68614196777344 C 276.8184814453125 165.6712646484375 268.23980712890625 186.90701293945312 237.7904510498047 214.6868896484375" stroke-width="6.0" fill="none" stroke="rgb(0, 0, 0)" stroke-opacity="1.0" stroke-linecap="round" stroke-linejoin="round"/>
    <path d="M 524.605712890625 589.7150268554688 C 540.3310546875 606.6978759765625 510.5172119140625 620.3753051757812 499.52142333984375 647.1256713867188 C 516.962158203125 670.4952392578125 535.6071166992188 656.5036010742188 552.8495483398438 632.9893188476562 C 575.1795654296875 654.5049438476562 558.525634765625 673.5001220703125 556.143798828125 661.8115844726562 C 573.864501953125 645.46728515625 545.284423828125 627.0551147460938 534.9801025390625 648.916259765625 C 562.9934692382812 635.663818359375 571.4823608398438 629.6444702148438 600.351318359375 631.8174438476562" stroke-width="6.0" fill="none" stroke="rgb(0, 0, 0)" stroke-opacity="1.0" stroke-linecap="round" stroke-linejoin="round"/>
    <path d="M 568.884521484375 67.89823913574219 C 589.655029296875 48.375579833984375 616.3824462890625 38.451568603515625 597.0321655273438 37.895816802978516 C 603.2813110351562 13.119865417480469 605.537353515625 10.457590103149414 615.3171997070312 32.06586837768555 C 598.984375 42.932044982910156 568.3080444335938 68.90753173828125 567.1705322265625 68.54875946044922 C 570.26806640625 69.55677795410156 573.9700927734375 59.8589973449707 585.5927734375 54.0928840637207 C 564.1353149414062 67.8493881225586 580.6430053710938 58.956390380859375 577.6909790039062 60.329647064208984" stroke-width="6.0" fill="none" stroke="rgb(0, 0, 0)" stroke-opacity="1.0" stroke-linecap="round" stroke-linejoin="round"/>
    <path d="M 243.69778442382812 173.81980895996094 C 221.2166290283203 170.9894256591797 245.76809692382812 183.10182189941406 267.3642272949219 192.1531982421875 C 257.3760681152344 186.88734436035156 228.2212677001953 169.3666534423828 220.65196228027344 184.7489471435547 C 232.75448608398438 183.78656005859375 233.76986694335938 169.46690368652344 229.30331420898438 181.6749267578125 C 246.708984375 176.6626434326172 219.5753631591797 180.63125610351562 223.67112731933594 171.5244903564453 C 244.93402099609375 177.4393768310547 255.57334899902344 160.70504760742188 226.73582458496094 135.49557495117188" stroke-width="6.0" fill="none" stroke="rgb(0, 0, 0)" stroke-opacity="1.0" stroke-linecap="round" stroke-linejoin="round"/>
    <path d="M 150.15646362304688 300.0132141113281 C 183.39694213867188 269.6239318847656 174.4925537109375 277.9585876464844 144.161865234375 297.2200622558594 C 157.83450317382812 266.1673583984375 156.76573181152344 226.1094970703125 165.90493774414062 266.71380615234375 C 161.0354461669922 267.6968688964844 139.40377807617188 298.8710632324219 141.85675048828125 257.111083984375 C 128.72279357910156 273.1630859375 130.95477294921875 282.47564697265625 147.5878448486328 305.3718566894531 C 126.87069702148438 344.03265380859375 149.28382873535156 343.3883972167969 153.22988891601562 348.36065673828125" stroke-width="6.0" fill="none" stroke="rgb(0, 0, 0)" stroke-opacity="1.0" stroke-linecap="round" stroke-linejoin="round"/>
    <path d="M 482.9444885253906 325.9124755859375 C 505.838134765625 360.0436096191406 497.7759094238281 347.1375732421875 506.638916015625 346.2596435546875 C 517.2301025390625 338.4855041503906 524.7526245117188 326.197265625 504.4000549316406 310.95635986328125 C 497.27301025390625 294.6848449707031 486.4288635253906 275.7505798339844 480.17681884765625 289.3749694824219 C 489.3461608886719 274.55902099609375 475.3258972167969 277.9029541015625 472.5519714355469 249.6407928466797 C 476.63958740234375 267.50640869140625 483.59332275390625 284.1862487792969 505.1758728027344 300.6637878417969" stroke-width="6.0" fill="none" stroke="rgb(0, 0, 0)" stroke-opacity="1.0" stroke-linecap="round" stroke-linejoin="round"/>
    <path d="M 227.3767547607422 -0.301653116941452 C 229.19223022460938 13.932587623596191 255.97865295410156 39.8316535949707 241.47393798828125 49.4559211730957 C 239.9900360107422 60.89329147338867 221.69346618652344 47.98920822143555 202.80401611328125 26.427568435668945 C 197.01661682128906 24.594833374023438 204.3896942138672 9.518447875976562 205.8392333984375 -10.959343910217285 C 207.6383056640625 -38.16828536987305 201.27952575683594 -34.30476760864258 172.90565490722656 -25.739789962768555 C 151.04762268066406 -28.03788185119629 124.06470489501953 -35.291648864746094 106.76432037353516 -45.680904388427734" stroke-width="6.0" fill="none" stroke="rgb(0, 0, 0)" stroke-opacity="1.0" stroke-linecap="round" stroke-linejoin="round"/>
    <path d="M 452.8226623535156 230.10733032226562 C 467.6496276855469 251.77195739746094 453.9635009765625 222.69113159179688 423.4839782714844 214.11968994140625 C 450.68292236328125 229.14649963378906 465.9168701171875 238.36097717285156 479.8455505371094 248.9414825439453 C 509.7178955078125 238.50735473632812 472.8784484863281 212.30026245117188 462.6020812988281 213.97293090820312 C 460.7267761230469 204.27101135253906 466.2979431152344 212.02603149414062 457.193603515625 226.50448608398438 C 466.9290466308594 198.2544403076172 472.7234802246094 228.2066650390625 457.12628173828125 203.04156494140625" stroke-width="6.0" fill="none" stroke="rgb(0, 0, 0)" stroke-opacity="1.0" stroke-linecap="round" stroke-linejoin="round"/>
    <path d="M 184.1075439453125 405.38238525390625 C 223.34152221679688 407.9929504394531 230.63758850097656 379.00201416015625 238.4882049560547 374.5484924316406 C 228.2620849609375 407.759033203125 232.33477783203125 400.57086181640625 211.33779907226562 428.3106689453125 C 233.3369598388672 429.25579833984375 225.98338317871094 431.3587341308594 217.1460418701172 427.3918151855469 C 252.01968383789062 437.4666442871094 233.2685089111328 466.3595275878906 226.70440673828125 474.6728210449219 C 246.5360107421875 474.2607421875 260.81591796875 495.93646240234375 246.7643280029297 520.9168090820312" stroke-width="6.0" fill="none" stroke="rgb(0, 0, 0)" stroke-opacity="1.0" stroke-linecap="round" stroke-linejoin="round"/>
    <path d="M 311.5024719238281 276.8890075683594 C 308.3026428222656 294.3190002441406 296.4950866699219 312.4874267578125 313.9045715332031 297.30859375 C 353.8365173339844 286.0772705078125 354.5606689453125 289.10150146484375 345.420654296875 262.3154296875 C 368.4583435058594 248.28887939453125 345.60418701171875 265.1487731933594 337.9480285644531 282.7175598144531 C 332.82476806640625 262.9956970214844 301.8725280761719 286.38861083984375 291.5147399902344 309.3533935546875 C 282.982421875 333.95941162109375 287.2257995605469 351.563232421875 286.2825622558594 361.92913818359375" stroke-width="6.0" fill="none" stroke="rgb(0, 0, 0)" stroke-opacity="1.0" stroke-linecap="round" stroke-linejoin="round"/>
    <path d="M 58.57838439941406 127.0783920288086 C 67.11402893066406 119.82996368408203 83.18408966064453 130.421875 86.32357788085938 122.5286636352539 C 106.32935333251953 112.3890151977539 119.03441619873047 89.06661224365234 80.69879913330078 79.43951416015625 C 61.60164260864258 51.461727142333984 66.98966979980469 62.292545318603516 46.713226318359375 47.914634704589844 C 68.60684967041016 62.54673385620117 89.46293640136719 73.76065826416016 71.61600494384766 41.8139533996582 C 45.119319915771484 22.978673934936523 28.025362014770508 -10.686196327209473 28.64191436767578 -22.887548446655273" stroke-width="6.0" fill="none" stroke="rgb(0, 0, 0)" stroke-opacity="1.0" stroke-linecap="round" stroke-linejoin="round"/>
    <path d="M 591.5263061523438 322.4294128417969 C 600.211669921875 312.61541748046875 621.3198852539062 311.94873046875 644.2950439453125 316.8844909667969 C 639.0567016601562 309.9168395996094 620.1184692382812 282.99945068359375 646.5823364257812 281.6632080078125 C 665.9092407226562 275.7056579589844 640.3541259765625 283.4723815917969 613.5706787109375 262.42425537109375 C 617.341064453125 250.65438842773438 646.9761962890625 227.761474609375 662.8427734375 234.14053344726562 C 680.2872314453125 217.68174743652344 681.6416015625 214.71263122558594 678.204833984375 236.32261657714844" stroke-width="6.0" fill="none" stroke="rgb(0, 0, 0)" stroke-opacity="1.0" stroke-linecap="round" stroke-linejoin="round"/>
    <path d="M 603.2687377929688 175.24647521972656 C 603.50830078125 189.43157958984375 615.6673583984375 217.33949279785156 607.8731689453125 191.4747772216797 C 615.5242919921875 172.52957153320312 595.2008666992188 144.15769958496094 571.2891235351562 144.07240295410156 C 573.3716430664062 146.66348266601562 559.7472534179688 157.4452667236328 559.6015625 155.4610595703125 C 566.2142944335938 175.85513305664062 591.6966552734375 178.06405639648438 610.754638671875 194.23184204101562 C 599.983642578125 206.90736389160156 606.7098999023438 235.7310333251953 623.2228393554688 211.83229064941406" stroke-width="6.0" fill="none" stroke="rgb(0, 0, 0)" stroke-opacity="1.0" stroke-linecap="round" stroke-linejoin="round"/>
    <path d="M 108.50236511230469 193.1366729736328 C 119.6292953491211 197.7554931640625 111.47392272949219 153.5716552734375 120.90743255615234 187.19110107421875 C 145.33299255371094 179.08592224121094 143.02542114257812 158.8710479736328 110.90335083007812 139.53009033203125 C 101.79804992675781 122.11079406738281 62.885963439941406 159.83885192871094 95.26311492919922 168.3802032470703 C 109.67798614501953 205.5587921142578 124.72624969482422 178.89158630371094 110.0819320678711 199.00576782226562 C 106.21858215332031 211.17031860351562 129.30105590820312 188.08738708496094 136.2337188720703 203.77085876464844" stroke-width="6.0" fill="none" stroke="rgb(0, 0, 0)" stroke-opacity="1.0" stroke-linecap="round" stroke-linejoin="round"/>
    <path d="M 294.95294189453125 56.88590621948242 C 288.3616943359375 44.34409713745117 291.354248046875 67.84103393554688 289.12249755859375 90.97444915771484 C 267.87164306640625 116.4102554321289 280.36712646484375 112.69293212890625 284.83319091796875 97.70057678222656 C 261.9468078613281 128.5850067138672 250.1754608154297 150.33108520507812 288.9716491699219 132.82568359375 C 304.417236328125 114.08769989013672 290.1986083984375 103.59718322753906 306.2617492675781 125.22705841064453 C 339.5409851074219 110.23241424560547 325.26123046875 124.0857925415039 300.8227844238281 140.5990753173828" stroke-width="6.0" fill="none" stroke="rgb(0, 0, 0)" stroke-opacity="1.0" stroke-linecap="round" stroke-linejoin="round"/>
    <path d="M 69.08757781982422 582.5286865234375 C 78.00761413574219 563.6112060546875 68.42814636230469 562.8329467773438 68.89158630371094 544.4093017578125 C 96.36784362792969 561.4656982421875 81.64764404296875 541.88818359375 103.90534973144531 550.1486206054688 C 131.61859130859375 545.6421508789062 120.16716003417969 579.1195068359375 146.0724639892578 569.9344482421875 C 151.86805725097656 559.6460571289062 165.09576416015625 553.92236328125 183.95816040039062 579.9503784179688 C 173.08111572265625 587.395263671875 164.91041564941406 608.3799438476562 166.74488830566406 626.9762573242188" stroke-width="6.0" fill="none" stroke="rgb(0, 0, 0)" stroke-opacity="1.0" stroke-linecap="round" stroke-linejoin="round"/>
    <path d="M 163.76535034179688 185.77334594726562 C 168.46775817871094 212.77708435058594 167.80596923828125 181.69198608398438 170.3977508544922 169.34034729003906 C 169.33560180664062 165.99560546875 176.32748413085938 163.64434814453125 150.55972290039062 192.2985382080078 C 157.30416870117188 167.3646240234375 185.09312438964844 139.734375 189.9083251953125 158.22747802734375 C 214.18521118164062 145.6726531982422 223.156982421875 165.68014526367188 245.2230224609375 162.36436462402344 C 211.28878784179688 172.65545654296875 215.878662109375 200.8087158203125 244.50637817382812 190.5488739013672" stroke-width="6.0" fill="none" stroke="rgb(0, 0, 0)" stroke-opacity="1.0" stroke-linecap="round" stroke-linejoin="round"/>
    <path d="M 308.1693115234375 278.83587646484375 C 318.4917907714844 260.83612060546875 336.2497863769531 242.46392822265625 340.3627014160156 264.79669189453125 C 329.0819396972656 278.4276428222656 341.256103515625 302.1528015136719 363.09051513671875 322.5688171386719 C 349.4053039550781 316.1874084472656 368.3197326660156 337.2190246582031 377.2004089355469 295.8885192871094 C 355.7140197753906 313.982421875 381.9778137207031 346.0966491699219 404.0697937011719 342.875 C 376.046875 352.99359130859375 397.9115295410156 340.9110107421875 410.7881774902344 387.5587463378906" stroke-width="6.0" fill="none" stroke="rgb(0, 0, 0)" stroke-opacity="1.0" stroke-linecap="round" stroke-linejoin="round"/>
    <path d="M 34.50440979003906 477.9170227050781 C 19.38792610168457 458.6425476074219 -2.6531546115875244 464.5421447753906 -4.772582530975342 488.4459228515625 C -21.914461135864258 464.3357849121094 0.33591410517692566 471.5184020996094 -15.214298248291016 496.2881774902344 C -36.627235412597656 493.9571533203125 -51.38859558105469 479.2767333984375 -80.82474517822266 497.55474853515625 C -56.7521858215332 508.21136474609375 -77.27364349365234 504.7151794433594 -86.53971099853516 509.969482421875 C -78.2033920288086 505.42803955078125 -93.19749450683594 526.146240234375 -111.24447631835938 519.2278442382812" stroke-width="6.0" fill="none" stroke="rgb(0, 0, 0)" stroke-opacity="1.0" stroke-linecap="round" stroke-linejoin="round"/>
    <path d="M 277.8912658691406 159.88136291503906 C 300.0655212402344 158.94863891601562 337.673583984375 146.0366973876953 361.7869567871094 147.06959533691406 C 351.40948486328125 155.19602966308594 344.62030029296875 155.02700805664062 312.1314392089844 170.90834045410156 C 301.9291687011719 177.39186096191406 289.5936584472656 206.3985137939453 307.9337463378906 203.59417724609375 C 323.3802795410156 208.0082550048828 331.8909912109375 226.72854614257812 344.66571044921875 241.88949584960938 C 354.2555236816406 275.86700439453125 367.3963623046875 264.0419006347656 358.93768310546875 277.17852783203125" stroke-width="6.0" fill="none" stroke="rgb(0, 0, 0)" stroke-opacity="1.0" stroke-linecap="round" stroke-linejoin="round"/>
    <path d="M 442.5671081542969 43.19540023803711 C 427.5386962890625 67.1320571899414 414.1993103027344 58.16493606567383 400.9813232421875 78.78959655761719 C 421.4582214355469 100.14756774902344 433.7781066894531 84.78229522705078 458.5384216308594 80.1489028930664 C 478.2055358886719 81.87599182128906 469.3328857421875 78.62177276611328 497.52679443359375 70.79238891601562 C 510.49127197265625 81.25714874267578 520.2632446289062 110.41111755371094 549.867431640625 116.99759674072266 C 547.1397705078125 136.50059509277344 521.5731201171875 139.3448944091797 525.5414428710938 147.31492614746094" stroke-width="6.0" fill="none" stroke="rgb(0, 0, 0)" stroke-opacity="1.0" stroke-linecap="round" stroke-linejoin="round"/>
    <path d="M 402.7510986328125 349.21624755859375 C 427.5381774902344 383.98370361328125 402.9281005859375 367.082275390625 379.00054931640625 380.5381774902344 C 390.70977783203125 401.69775390625 352.7909851074219 397.3984375 379.005615234375 411.75299072265625 C 369.6596374511719 408.3829650878906 341.58026123046875 428.6517639160156 331.1966552734375 427.9743347167969 C 310.4989318847656 453.89202880859375 294.89691162109375 466.3760681152344 296.5838317871094 475.7218322753906 C 335.8829040527344 461.3692626953125 345.4034118652344 453.8282165527344 336.7525329589844 415.93609619140625" stroke-width="6.0" fill="none" stroke="rgb(0, 0, 0)" stroke-opacity="1.0" stroke-linecap="round" stroke-linejoin="round"/>
    <path d="M 303.13580322265625 244.234619140625 C 329.6060485839844 218.4224090576172 313.32244873046875 217.26622009277344 336.3809814453125 238.7490997314453 C 306.7051086425781 244.0100860595703 310.02960205078125 272.789794921875 317.5325012207031 259.5043640136719 C 295.9914855957031 240.49452209472656 313.4498291015625 242.3504638671875 314.611083984375 253.281494140625 C 330.7771301269531 222.35415649414062 345.6622619628906 204.3216094970703 316.14031982421875 208.95880126953125 C 286.7851867675781 225.17678833007812 272.3975524902344 211.11293029785156 299.8611755371094 185.66334533691406" stroke-width="6.0" fill="none" stroke="rgb(0, 0, 0)" stroke-opacity="1.0" stroke-linecap="round" stroke-linejoin="round"/>
    <path d="M 95.47626495361328 548.07275390625 C 76.18817138671875 558.9503173828125 46.456111907958984 530.6334228515625 28.174591064453125 517.4613647460938 C 22.421754837036133 492.2227478027344 -7.128963947296143 509.43017578125 -14.786540985107422 502.5321960449219 C -32.291080474853516 471.60845947265625 -17.78799819946289 473.1736145019531 -15.671401977539062 459.6068420410156 C -2.4489519596099854 457.1938171386719 -28.983171463012695 455.3775329589844 13.410122871398926 427.2930908203125 C 50.49382019042969 448.05999755859375 35.2311897277832 456.3583679199219 58.33594512939453 441.7137756347656" stroke-width="6.0" fill="none" stroke="rgb(0, 0, 0)" stroke-opacity="1.0" stroke-linecap="round" stroke-linejoin="round"/>
    <path d="M 282.89794921875 231.96286010742188 C 295.90557861328125 236.30711364746094 324.76568603515625 212.2073974609375 299.8612365722656 223.89846801757812 C 272.0728454589844 213.02865600585938 270.57965087890625 207.58749389648438 255.24026489257812 224.0751190185547 C 266.0940856933594 227.9899444580078 264.9219055175781 214.73837280273438 286.9817810058594 230.14974975585938 C 305.2851867675781 249.4805908203125 312.67523193359375 234.54669189453125 316.9200134277344 219.8076934814453 C 295.8604431152344 218.27267456054688 296.5301818847656 193.14578247070312 282.3752746582031 207.42684936523438" stroke-width="6.0" fill="none" stroke="rgb(0, 0, 0)" stroke-opacity="1.0" stroke-linecap="round" stroke-linejoin="round"/>
    <path d="M 233.5712432861328 98.27933502197266 C 250.68460083007812 67.67943572998047 272.9328308105469 48.54175567626953 259.1589660644531 62.30243682861328 C 260.19329833984375 59.38418197631836 260.15936279296875 63.5402946472168 261.9373474121094 59.65495300292969 C 255.73094177246094 58.226478576660156 257.9949951171875 83.30787658691406 275.532470703125 100.84667205810547 C 285.68670654296875 92.64501953125 286.7925720214844 73.3652114868164 294.8646545410156 54.42613983154297 C 276.7264404296875 78.37322998046875 268.03985595703125 96.1617431640625 251.89016723632812 116.41605377197266" stroke-width="6.0" fill="none" stroke="rgb(0, 0, 0)" stroke-opacity="1.0" stroke-linecap="round" stroke-linejoin="round"/>
    <path d="M 526.2667236328125 587.9210205078125 C 525.2999267578125 588.6921997070312 537.6753540039062 561.2040405273438 557.2424926757812 574.4329833984375 C 535.4916381835938 565.408203125 548.5624389648438 549.403564453125 550.6622314453125 529.9822998046875 C 572.9481811523438 516.9679565429688 581.791748046875 512.7930908203125 581.6795654296875 482.53924560546875 C 589.7932739257812 453.8227844238281 594.0355224609375 458.30059814453125 582.6441040039062 459.8057861328125 C 597.2474975585938 460.763671875 576.9342041015625 425.5128479003906 570.5342407226562 433.48577880859375" stroke-width="6.0" fill="none" stroke="rgb(0, 0, 0)" stroke-opacity="1.0" stroke-linecap="round" stroke-linejoin="round"/>
    <path d="M 397.9493408203125 160.0962677001953 C 411.76885986328125 154.5285186767578 413.1687316894531 144.9252471923828 413.6251220703125 121.1330337524414 C 418.32421875 113.24486541748047 435.98590087890625 116.48863220214844 434.6451416015625 87.50316619873047 C 434.7489013671875 95.24849700927734 398.3713073730469 85.64078521728516 376.32763671875 65.15758514404297 C 386.3441467285156 45.94935989379883 353.85528564453125 59.567649841308594 339.6014099121094 61.556007385253906 C 342.4985656738281 54.582847595214844 349.02899169921875 54.49446105957031 307.47296142578125 93.97294616699219" stroke-width="6.0" fill="none" stroke="rgb(0, 0, 0)" stroke-opacity="1.0" stroke-linecap="round" stroke-linejoin="round"/>
    <path d="M 36.224632263183594 4.214370250701904 C 55.375858306884766 26.769474029541016 59.91007614135742 31.6478271484375 59.73712158203125 33.57463073730469 C 47.556617736816406 11.284183502197266 45.166526794433594 27.564924240112305 38.1793327331543 33.71767807006836 C 58.19743728637695 6.810012340545654 71.313232421875 -17.801816940307617 78.4312744140625 -14.761133193969727 C 86.81232452392578 -9.511255264282227 77.30416870117188 -19.001272201538086 57.27225875854492 -18.487546920776367 C 33.48448181152344 -17.159334182739258 57.839847564697266 -26.196821212768555 71.48258972167969 -7.059903144836426" stroke-width="6.0" fill="none" stroke="rgb(0, 0, 0)" stroke-opacity="1.0" stroke-linecap="round" stroke-linejoin="round"/>
    <path d="M 491.5161437988281 136.84710693359375 C 469.6125183105469 125.32334899902344 471.6312561035156 134.2381591796875 486.3803405761719 116.37944793701172 C 501.9890441894531 115.07537078857422 511.3590087890625 130.30538940429688 501.62774658203125 153.67271423339844 C 520.2714233398438 163.37313842773438 523.5169677734375 174.66539001464844 521.9636840820312 169.28598022460938 C 511.8744201660156 160.25486755371094 498.9544677734375 144.0753631591797 470.4461364746094 144.55299377441406 C 449.84014892578125 145.3409423828125 427.8197326660156 169.30078125 394.4831237792969 191.9063720703125" stroke-width="6.0" fill="none" stroke="rgb(0, 0, 0)" stroke-opacity="1.0" stroke-linecap="round" stroke-linejoin="round"/>
    <path d="M 520.1190185546875 370.9776611328125 C 517.9152221679688 368.996337890625 516.9996337890625 392.2659912109375 523.7672119140625 389.3873596191406 C 550.177978515625 389.79840087890625 550.0650634765625 378.4905700683594 531.0897216796875 355.6171569824219 C 502.8573913574219 384.5970764160156 502.98834228515625 402.4621276855469 502.57843017578125 370.1336975097656 C 473.6901550292969 367.9991455078125 477.5035095214844 376.8729553222656 465.0613098144531 353.344970703125 C 442.51397705078125 351.9707946777344 438.16583251953125 365.75396728515625 456.0885314941406 379.6387023925781" stroke-width="6.0" fill="none" stroke="rgb(0, 0, 0)" stroke-opacity="1.0" stroke-linecap="round" stroke-linejoin="round"/>
    <path d="M 43.35331344604492 51.32114791870117 C 44.83345413208008 48.10139465332031 66.79155731201172 52.90604019165039 82.41988372802734 81.36226654052734 C 87.80084991455078 80.37617492675781 68.15414428710938 68.89041137695312 84.418212890625 81.34196472167969 C 72.40190887451172 79.89639282226562 91.75252532958984 76.31572723388672 103.75729370117188 92.17800903320312 C 132.49061584472656 89.46369934082031 137.92108154296875 115.18985748291016 144.24969482421875 120.75774383544922 C 168.70252990722656 113.39618682861328 156.51951599121094 102.16902923583984 156.85960388183594 101.24032592773438" stroke-width="6.0" fill="none" stroke="rgb(0, 0, 0)" stroke-opacity="1.0" stroke-linecap="round" stroke-linejoin="round"/>
    <path d="M 556.13720703125 285.9150695800781 C 537.854736328125 260.52545166015625 520.6105346679688 278.484375 512.3817138671875 315.68499755859375 C 522.279296875 328.4087219238281 493.83062744140625 317.4204406738281 520.4740600585938 300.6535949707031 C 510.4921875 282.14642333984375 520.0070190429688 293.227294921875 537.4591674804688 271.4677429199219 C 520.3171997070312 254.73178100585938 530.4801635742188 245.9077911376953 542.5249633789062 244.7416229248047 C 551.5650634765625 229.05731201171875 556.6890258789062 210.336181640625 567.7137451171875 216.29931640625" stroke-width="6.0" fill="none" stroke="rgb(0, 0, 0)" stroke-opacity="1.0" stroke-linecap="round" stroke-linejoin="round"/>
    <path d="M 500.5350341796875 217.94642639160156 C 531.0402221679688 246.58924865722656 523.7665405273438 238.2518310546875 525.3712768554688 237.19790649414062 C 536.2794799804688 261.822509765625 548.6448364257812 233.3809356689453 548.5891723632812 238.39239501953125 C 563.4354858398438 250.46620178222656 552.1234741210938 261.1903381347656 580.8853149414062 257.73992919921875 C 586.9779052734375 244.90684509277344 614.3441772460938 228.05760192871094 613.3116455078125 243.56063842773438 C 590.1151123046875 242.86170959472656 573.6580810546875 219.83883666992188 562.0387573242188 211.9651641845703" stroke-width="6.0" fill="none" stroke="rgb(0, 0, 0)" stroke-opacity="1.0" stroke-linecap="round" stroke-linejoin="round"/>
    <path d="M 142.84527587890625 611.2372436523438 C 148.60585021972656 575.0873413085938 167.70816040039062 587.0899658203125 175.23289489746094 601.6669921875 C 148.64698791503906 596.3218994140625 166.92214965820312 608.8626098632812 147.75421142578125 613.0025634765625 C 151.49449157714844 577.685302734375 132.40548706054688 561.4254760742188 139.47122192382812 575.4716186523438 C 148.1365966796875 575.206298828125 125.12299346923828 565.3670043945312 114.28471374511719 546.189453125 C 111.3809585571289 563.988525390625 117.28801727294922 545.99267578125 122.4576644897461 536.5657348632812" stroke-width="6.0" fill="none" stroke="rgb(0, 0, 0)" stroke-opacity="1.0" stroke-linecap="round" stroke-linejoin="round"/>
    <path d="M -3.5355653762817383 313.9132385253906 C -6.026325225830078 287.473388671875 -7.76359748840332 292.2054443359375 -35.64968490600586 279.30712890625 C -24.702680587768555 256.34716796875 11.108611106872559 238.42149353027344 24.747726440429688 231.4706573486328 C 42.76939010620117 239.5740203857422 37.685462951660156 240.08285522460938 53.896305084228516 251.4962921142578 C 14.89676570892334 223.0426788330078 22.929346084594727 224.82418823242188 62.49540710449219 231.70021057128906 C 71.78852844238281 255.07276916503906 61.80381774902344 230.7381591796875 66.64881134033203 245.33401489257812" stroke-width="6.0" fill="none" stroke="rgb(0, 0, 0)" stroke-opacity="1.0" stroke-linecap="round" stroke-linejoin="round"/>
    <path d="M 103.46189880371094 467.7336730957031 C 97.7219009399414 466.99908447265625 97.84648132324219 488.17913818359375 75.1244888305664 503.9347839355469 C 72.8644027709961 499.2102966308594 59.18051528930664 480.40386962890625 32.647823333740234 515.1725463867188 C 32.7203483581543 527.3326416015625 26.9306583404541 516.1799926757812 44.239933013916016 503.4839782714844 C 36.56874084472656 508.2724304199219 45.0986213684082 502.0854187011719 48.443660736083984 500.2577819824219 C 65.56553649902344 522.1716918945312 70.9074478149414 507.67279052734375 84.43620300292969 495.67340087890625" stroke-width="6.0" fill="none" stroke="rgb(0, 0, 0)" stroke-opacity="1.0" stroke-linecap="round" stroke-linejoin="round"/>
    <path d="M 302.2596740722656 555.6505126953125 C 302.3563537597656 576.500732421875 310.7070617675781 553.9928588867188 316.664794921875 579.5452270507812 C 313.21820068359375 566.273681640625 287.4405212402344 565.819580078125 299.5453186035156 561.4810180664062 C 300.8258972167969 575.3538818359375 289.9464416503906 558.93310546875 295.119140625 548.8665771484375 C 321.9902648925781 538.9517211914062 359.0797119140625 561.0371704101562 338.19635009765625 572.7568359375 C 328.79193115234375 594.2109375 341.2191162109375 624.6492919921875 320.2732238769531 632.5560913085938" stroke-width="6.0" fill="none" stroke="rgb(0, 0, 0)" stroke-opacity="1.0" stroke-linecap="round" stroke-linejoin="round"/>
    <path d="M 457.611328125 26.50066375732422 C 447.9618225097656 38.926063537597656 446.8221740722656 38.82102584838867 445.12237548828125 40.54995346069336 C 442.0845642089844 48.17177200317383 424.5172119140625 61.22537612915039 430.9120788574219 67.1854248046875 C 438.61834716796875 90.10030364990234 428.8880920410156 63.8984375 432.8086242675781 71.67715454101562 C 433.5378112792969 66.25254821777344 419.86370849609375 54.65045166015625 409.9095153808594 84.00477600097656 C 401.2925720214844 111.30635833740234 402.5247497558594 87.143798828125 415.9476623535156 85.62586212158203" stroke-width="6.0" fill="none" stroke="rgb(0, 0, 0)" stroke-opacity="1.0" stroke-linecap="round" stroke-linejoin="round"/>
    <path d="M 529.2653198242188 259.7170104980469 C 521.8986206054688 261.7198181152344 530.4161987304688 257.9080505371094 530.1676025390625 248.5654296875 C 523.2368774414062 269.0499572753906 545.02880859375 275.3012390136719 569.5264282226562 288.8863525390625 C 578.3819580078125 294.626708984375 554.1536865234375 279.90216064453125 538.2942504882812 273.02728271484375 C 518.187744140625 286.5896301269531 510.2768859863281 302.2144470214844 523.499267578125 305.250732421875 C 488.3660583496094 299.28668212890625 513.3735961914062 318.739501953125 508.79827880859375 337.360107421875" stroke-width="6.0" fill="none" stroke="rgb(0, 0, 0)" stroke-opacity="1.0" stroke-linecap="round" stroke-linejoin="round"/>
    <path d="M 503.1335144042969 45.36775207519531 C 526.8865356445312 54.29642868041992 523.0654296875 60.01932907104492 512.1848754882812 86.82662963867188 C 517.730224609375 80.86322021484375 497.3639831542969 106.9482192993164 506.9865417480469 141.13055419921875 C 469.6019287109375 130.8092803955078 442.3592224121094 112.04707336425781 435.76214599609375 119.13944244384766 C 426.28497314453125 141.20468139648438 462.96624755859375 154.07814025878906 451.08868408203125 161.81463623046875 C 453.7641906738281 146.6442108154297 440.38629150390625 147.3430633544922 438.3817138671875 135.662841796875" stroke-width="6.0" fill="none" stroke="rgb(0, 0, 0)" stroke-opacity="1.0" stroke-linecap="round" stroke-linejoin="round"/>
    <path d="M 564.024658203125 99.4961166381836 C 581.1150512695312 107.70897674560547 592.0409545898438 117.22154235839844 584.0730590820312 146.94967651367188 C 544.9962158203125 133.98785400390625 557.5774536132812 134.11532592773438 571.49169921875 147.3525390625 C 564.335693359375 152.5198974609375 563.2813720703125 152.53338623046875 549.5884399414062 174.20950317382812 C 546.7284545898438 195.7518310546875 556.6087646484375 189.71653747558594 537.8018188476562 160.7041015625 C 537.3511352539062 159.98626708984375 518.9680786132812 167.431640625 520.1406860351562 168.72804260253906" stroke-width="6.0" fill="none" stroke="rgb(0, 0, 0)" stroke-opacity="1.0" stroke-linecap="round" stroke-linejoin="round"/>
    <path d="M 448.5460205078125 510.4071350097656 C 462.2040710449219 486.97662353515625 457.4450988769531 495.23114013671875 460.5613708496094 482.1451110839844 C 455.54742431640625 469.11004638671875 428.81396484375 467.03564453125 419.2021179199219 491.3824157714844 C 399.27655029296875 504.0534973144531 367.1816711425781 489.665283203125 368.796630859375 474.8546447753906 C 375.1384582519531 465.0494079589844 379.6280212402344 462.2825927734375 386.55059814453125 456.3548889160156 C 415.1703796386719 450.8809509277344 449.48992919921875 439.2557067871094 442.83880615234375 412.4128112792969" stroke-width="6.0" fill="none" stroke="rgb(0, 0, 0)" stroke-opacity="1.0" stroke-linecap="round" stroke-linejoin="round"/>
    <path d="M 288.66912841796875 532.9404907226562 C 299.0250549316406 530.7368774414062 300.2573547363281 560.4007568359375 305.7301025390625 573.6151123046875 C 317.90435791015625 587.6610717773438 307.79559326171875 583.6822509765625 301.15228271484375 558.4890747070312 C 296.2576599121094 533.6043701171875 300.88824462890625 550.1178588867188 313.1579895019531 583.8468017578125 C 313.4790344238281 542.1860961914062 338.6518859863281 550.7135620117188 361.9434814453125 544.4427490234375 C 393.7818908691406 554.2298583984375 377.6651916503906 550.3818969726562 367.327880859375 541.9683227539062" stroke-width="6.0" fill="none" stroke="rgb(0, 0, 0)" stroke-opacity="1.0" stroke-linecap="round" stroke-linejoin="round"/>
    <path d="M 72.18588256835938 209.09071350097656 C 71.56089782714844 210.47244262695312 71.66554260253906 209.13536071777344 73.51715850830078 207.58595275878906 C 50.864261627197266 232.94140625 71.77647399902344 230.33644104003906 65.3683853149414 260.2561340332031 C 61.77622604370117 260.36328125 56.181983947753906 281.6902770996094 60.88417053222656 273.0765686035156 C 81.50133514404297 289.07318115234375 90.21370697021484 312.91973876953125 97.52698516845703 290.9051818847656 C 97.01781463623047 299.83038330078125 120.35240936279297 313.3223571777344 111.79849243164062 318.5573425292969" stroke-width="6.0" fill="none" stroke="rgb(0, 0, 0)" stroke-opacity="1.0" stroke-linecap="round" stroke-linejoin="round"/>
    <path d="M 334.3077087402344 110.07758331298828 C 353.3704528808594 103.5471420288086 375.9212951660156 87.2676773071289 379.99822998046875 45.0119514465332 C 418.4129638671875 21.77591896057129 396.8272705078125 25.249801635742188 361.514892578125 52.611717224121094 C 343.30352783203125 52.003395080566406 374.11810302734375 66.1698989868164 395.0768737792969 32.9067497253418 C 390.44183349609375 30.00999641418457 373.26025390625 48.47945022583008 379.5646667480469 43.256900787353516 C 352.0905456542969 58.573848724365234 340.18060302734375 54.46572494506836 344.6336975097656 64.36536407470703" stroke-width="6.0" fill="none" stroke="rgb(0, 0, 0)" stroke-opacity="1.0" stroke-linecap="round" stroke-linejoin="round"/>
    <path d="M 388.582763671875 413.20977783203125 C 399.368408203125 403.7057800292969 385.19610595703125 408.3977355957031 360.9537048339844 430.10186767578125 C 348.0550537109375 426.4118347167969 337.7699279785156 433.11077880859375 332.0117492675781 410.4075012207031 C 335.3808898925781 463.4635009765625 328.6352844238281 422.69384765625 348.2539367675781 415.3741149902344 C 364.5738830566406 430.74822998046875 406.52447509765625 433.0787048339844 385.8978271484375 427.20941162109375 C 393.34637451171875 421.2750244140625 391.7326965332031 403.4696350097656 401.80426025390625 375.6992492675781" stroke-width="6.0" fill="none" stroke="rgb(0, 0, 0)" stroke-opacity="1.0" stroke-linecap="round" stroke-linejoin="round"/>
    <path d="M 320.35662841796875 558.8558349609375 C 329.1485595703125 541.169189453125 333.5429382324219 542.2984008789062 318.1715393066406 561.6572875976562 C 313.3692932128906 581.0317993164062 289.33056640625 563.6369018554688 307.81695556640625 529.3636474609375 C 325.39324951171875 508.82733154296875 334.3962707519531 534.9755859375 328.7465515136719 548.9022827148438 C 356.8716735839844 556.3653564453125 338.0621643066406 581.8551025390625 328.9725036621094 595.0390625 C 343.20819091796875 559.6630859375 342.66778564453125 565.91455078125 382.8021545410156 590.5371704101562" stroke-width="6.0" fill="none" stroke="rgb(0, 0, 0)" stroke-opacity="1.0" stroke-linecap="round" stroke-linejoin="round"/>
    <path d="M 548.4756469726562 101.01383972167969 C 561.3086547851562 88.87911224365234 593.61083984375 119.18690490722656 583.2868041992188 122.93619537353516 C 616.3818969726562 142.82061767578125 646.0810546875 161.26478576660156 633.2931518554688 190.2605743408203 C 605.3602294921875 215.23974609375 585.3460083007812 237.64715576171875 584.4426879882812 230.89413452148438 C 612.7972412109375 258.382568359375 620.7388305664062 219.91342163085938 589.5241088867188 197.30091857910156 C 576.800048828125 183.49354553222656 553.997802734375 206.43618774414062 563.5134887695312 214.2050018310547" stroke-width="6.0" fill="none" stroke="rgb(0, 0, 0)" stroke-opacity="1.0" stroke-linecap="round" stroke-linejoin="round"/>
    <path d="M 446.1640319824219 121.08622741699219 C 472.0776062011719 131.68824768066406 489.5693359375 128.26548767089844 469.9582214355469 129.14437866210938 C 444.8223876953125 122.39353942871094 432.3537902832031 113.65216064453125 434.3761291503906 86.88804626464844 C 439.8938293457031 103.03787994384766 420.2159423828125 120.18083953857422 407.1128845214844 128.80506896972656 C 417.2566223144531 104.39287567138672 397.0862731933594 97.28075408935547 384.68963623046875 101.32396697998047 C 410.6642761230469 103.29837036132812 404.98992919921875 89.60089111328125 415.22607421875 74.43045806884766" stroke-width="6.0" fill="none" stroke="rgb(0, 0, 0)" stroke-opacity="1.0" stroke-linecap="round" stroke-linejoin="round"/>
    <path d="M 376.5265197753906 131.25479125976562 C 343.6416931152344 114.98822021484375 360.8353271484375 120.96453094482422 360.3265075683594 124.47986602783203 C 362.0201721191406 135.76544189453125 389.6480407714844 129.65054321289062 351.91876220703125 133.7202911376953 C 375.322021484375 79.7063980102539 372.85491943359375 94.92060089111328 343.36431884765625 111.08721923828125 C 308.5881042480469 116.90019989013672 299.1573791503906 126.35099029541016 300.585693359375 110.20918273925781 C 320.15985107421875 73.00079345703125 302.8899841308594 88.46489715576172 267.9197082519531 97.87711334228516" stroke-width="6.0" fill="none" stroke="rgb(0, 0, 0)" stroke-opacity="1.0" stroke-linecap="round" stroke-linejoin="round"/>
    <path d="M 485.8118591308594 271.8038635253906 C 488.16461181640625 269.12158203125 466.3083190917969 262.5068359375 485.174560546875 271.6166687011719 C 475.1495666503906 306.060791015625 487.2046813964844 308.3783264160156 455.62689208984375 282.8424072265625 C 421.3148193359375 312.14337158203125 445.4880065917969 284.8377380371094 476.96337890625 259.37640380859375 C 486.847412109375 276.18487548828125 507.8347473144531 301.120849609375 514.6962890625 306.557861328125 C 541.5386352539062 304.4183044433594 562.9161376953125 320.9720458984375 560.3884887695312 327.5649719238281" stroke-width="6.0" fill="none" stroke="rgb(0, 0, 0)" stroke-opacity="1.0" stroke-linecap="round" stroke-linejoin="round"/>
    <path d="M 390.3757019042969 317.6882629394531 C 400.63946533203125 314.3130187988281 391.43206787109375 318.60015869140625 389.8368835449219 338.6640625 C 376.8191833496094 294.0604248046875 348.4212646484375 282.64508056640625 356.0826416015625 282.475341796875 C 357.2541198730469 312.7021789550781 347.8648986816406 309.30694580078125 330.39459228515625 331.45135498046875 C 348.69085693359375 305.9834289550781 373.01629638671875 296.2288818359375 378.2087097167969 321.0346984863281 C 357.1658935546875 294.09222412109375 336.5448303222656 262.986083984375 341.2575378417969 276.6812438964844" stroke-width="6.0" fill="none" stroke="rgb(0, 0, 0)" stroke-opacity="1.0" stroke-linecap="round" stroke-linejoin="round"/>
    <path d="M 30.346708297729492 438.02288818359375 C 11.396017074584961 418.9081115722656 -4.116318702697754 436.7752380371094 -29.07989501953125 438.7507629394531 C -32.87968444824219 469.3897705078125 -18.988636016845703 458.5239562988281 -13.113574981689453 468.8758850097656 C -23.873666763305664 456.98175048828125 -45.278045654296875 466.5945129394531 -62.015480041503906 454.62457275390625 C -88.35801696777344 481.5357666015625 -65.57518768310547 506.2304382324219 -58.01559829711914 501.8624572753906 C -58.278350830078125 530.1998901367188 -31.783166885375977 540.4804077148438 -14.63489055633545 529.6044921875" stroke-width="6.0" fill="none" stroke="rgb(0, 0, 0)" stroke-opacity="1.0" stroke-linecap="round" stroke-linejoin="round"/>
    <path d="M 253.4014434814453 88.71897888183594 C 243.01625061035156 104.72920989990234 239.00608825683594 123.92707824707031 229.88238525390625 132.93687438964844 C 249.05186462402344 161.4282684326172 249.51272583007812 192.4428253173828 260.6832275390625 171.72488403320312 C 240.06866455078125 141.4085693359375 245.47434997558594 170.6354522705078 271.52899169921875 152.61123657226562 C 291.4586486816406 124.497314453125 257.1154479980469 148.50440979003906 264.36102294921875 161.81240844726562 C 252.00938415527344 194.0263671875 272.3182067871094 187.7247314453125 255.8057403564453 197.52305603027344" stroke-width="6.0" fill="none" stroke="rgb(0, 0, 0)" stroke-opacity="1.0" stroke-linecap="round" stroke-linejoin="round"/>
    <path d="M 202.56419372558594 579.9444580078125 C 160.66407775878906 583.2398071289062 194.5728759765625 577.7684936523438 218.45863342285156 580.3370971679688 C 221.87380981445312 590.333740234375 209.12559509277344 621.78564453125 210.49761962890625 637.1819458007812 C 191.1884307861328 625.9371948242188 182.74400329589844 611.6309204101562 183.5129852294922 611.467529296875 C 159.4294891357422 640.3466186523438 157.59890747070312 660.7305297851562 182.458740234375 652.9727783203125 C 177.2945556640625 656.7243041992188 160.5709991455078 635.4796142578125 146.21743774414062 661.5651245117188" stroke-width="6.0" fill="none" stroke="rgb(0, 0, 0)" stroke-opacity="1.0" stroke-linecap="round" stroke-linejoin="round"/>
    <path d="M 351.9985656738281 245.3446807861328 C 333.70404052734375 238.3711395263672 330.50323486328125 264.36663818359375 325.46685791015625 259.9182434082031 C 341.5287170410156 240.1503448486328 357.7317810058594 272.5733642578125 355.41326904296875 282.90716552734375 C 343.9452819824219 309.73248291015625 309.23785400390625 313.5615539550781 307.1977844238281 321.51776123046875 C 317.8177185058594 351.4484558105469 299.8651428222656 317.4974060058594 313.5050048828125 348.62823486328125 C 327.6636657714844 363.2941589355469 315.47723388671875 372.0381164550781 296.9241943359375 380.6375427246094" stroke-width="6.0" fill="none" stroke="rgb(0, 0, 0)" stroke-opacity="1.0" stroke-linecap="round" stroke-linejoin="round"/>
    <path d="M -3.925584077835083 311.3008117675781 C -5.963415145874023 309.6950988769531 -0.19944317638874054 318.34503173828125 -7.9404497146606445 316.1402893066406 C -23.640409469604492 318.9370422363281 -52.04770278930664 321.62615966796875 -64.39449310302734 351.2122497558594 C -94.50474548339844 369.0741271972656 -84.06277465820312 387.4442443847656 -59.47637176513672 363.865234375 C -83.69754028320312 342.7990417480469 -102.18161010742188 344.38641357421875 -83.26875305175781 330.4259033203125 C -89.45496368408203 322.8089904785156 -95.09332275390625 326.7091064453125 -65.67933654785156 310.26055908203125" stroke-width="6.0" fill="none" stroke="rgb(0, 0, 0)" stroke-opacity="1.0" stroke-linecap="round" stroke-linejoin="round"/>
    <path d="M 419.4001770019531 509.79052734375 C 418.045166015625 528.9824829101562 423.5556945800781 497.0480041503906 419.6018981933594 509.067626953125 C 408.2028503417969 481.3177490234375 390.1368408203125 486.9524230957031 373.4947814941406 502.04473876953125 C 368.4793701171875 513.65234375 362.3468933105469 512.2827758789062 326.2060241699219 502.6385498046875 C 338.4034729003906 514.0284423828125 333.42999267578125 485.0384216308594 320.2974853515625 523.9531860351562 C 346.54083251953125 531.1781005859375 315.1065368652344 548.1634521484375 316.7699890136719 586.2581176757812" stroke-width="6.0" fill="none" stroke="rgb(0, 0, 0)" stroke-opacity="1.0" stroke-linecap="round" stroke-linejoin="round"/>
    <path d="M 346.2427062988281 449.170166015625 C 372.88702392578125 434.3063659667969 355.5592346191406 423.5696716308594 324.31500244140625 446.0131530761719 C 310.49041748046875 463.58673095703125 292.867431640625 471.1302185058594 284.0628356933594 511.176513671875 C 292.1382751464844 496.4449462890625 310.98199462890625 455.0279846191406 320.7998962402344 481.32403564453125 C 317.5408630371094 514.1030883789062 341.8936767578125 511.9775695800781 351.11981201171875 483.4114990234375 C 340.4551696777344 509.7442932128906 341.31048583984375 497.4962463378906 350.6746826171875 490.1324768066406" stroke-width="6.0" fill="none" stroke="rgb(0, 0, 0)" stroke-opacity="1.0" stroke-linecap="round" stroke-linejoin="round"/>
    <path d="M 407.9977111816406 391.578857421875 C 383.8879089355469 403.7357177734375 394.1930847167969 415.4434814453125 376.9903259277344 387.24884033203125 C 387.67584228515625 395.4898681640625 404.3963623046875 384.684814453125 382.2034912109375 353.8598937988281 C 360.6996154785156 360.0546875 342.75128173828125 345.5178527832031 334.53497314453125 327.53997802734375 C 349.2362365722656 309.70458984375 321.2012023925781 308.9368591308594 292.4432067871094 321.7975158691406 C 282.9510192871094 309.61505126953125 270.5553894042969 308.9841003417969 261.2831726074219 325.0268249511719" stroke-width="6.0" fill="none" stroke="rgb(0, 0, 0)" stroke-opacity="1.0" stroke-linecap="round" stroke-linejoin="round"/>
    <path d="M 544.5579223632812 571.9392700195312 C 551.54931640625 562.9993286132812 543.82568359375 542.072265625 519.6886596679688 536.8370971679688 C 494.5774230957031 550.2012939453125 505.5522155761719 538.0985717773438 470.0232849121094 518.7985229492188 C 448.7917785644531 536.1826782226562 463.0157775878906 521.3216552734375 442.1271057128906 508.3900146484375 C 462.310546875 488.3132019042969 454.63720703125 500.2081604003906 460.97528076171875 497.15704345703125 C 481.1371154785156 517.7819213867188 501.08984375 500.2523193359375 496.9275207519531 513.4017944335938" stroke-width="6.0" fill="none" stroke="rgb(0, 0, 0)" stroke-opacity="1.0" stroke-linecap="round" stroke-linejoin="round"/>
    <path d="M 118.5495834350586 192.67428588867188 C 148.38076782226562 218.41983032226562 138.19447326660156 234.5499267578125 134.234375 233.4224090576172 C 122.79986572265625 223.36920166015625 131.57693481445312 216.34259033203125 125.79019927978516 215.62832641601562 C 133.43011474609375 238.51698303222656 132.5316162109375 240.72239685058594 156.3693084716797 209.25399780273438 C 177.68885803222656 217.54592895507812 161.16397094726562 239.47418212890625 175.5187225341797 261.70147705078125 C 184.04734802246094 256.9564514160156 190.17926025390625 231.4378204345703 188.38914489746094 244.22486877441406" stroke-width="6.0" fill="none" stroke="rgb(0, 0, 0)" stroke-opacity="1.0" stroke-linecap="round" stroke-linejoin="round"/>
    <path d="M 503.55535888671875 45.45475387573242 C 501.8122863769531 46.43832778930664 502.0256042480469 40.78467559814453 522.793701171875 56.27979278564453 C 519.2559204101562 63.767784118652344 511.3507385253906 90.29141998291016 511.7627868652344 94.72020721435547 C 487.160888671875 98.6777114868164 496.577392578125 98.09764862060547 513.375732421875 94.04218292236328 C 533.7169799804688 110.83930206298828 535.7608642578125 123.69697570800781 549.8612670898438 100.0150375366211 C 538.623779296875 89.57173156738281 543.3320922851562 95.29505157470703 542.0166625976562 92.87236022949219" stroke-width="6.0" fill="none" stroke="rgb(0, 0, 0)" stroke-opacity="1.0" stroke-linecap="round" stroke-linejoin="round"/>
    <path d="M 255.88351440429688 227.079833984375 C 287.12506103515625 229.6529998779297 290.5477600097656 221.40277099609375 260.556396484375 212.03164672851562 C 245.9345245361328 227.4966278076172 217.2340545654297 256.2565002441406 213.04611206054688 250.3430938720703 C 204.55406188964844 223.91986083984375 207.90118408203125 227.96519470214844 199.43246459960938 253.8086395263672 C 194.64173889160156 234.5453338623047 210.85826110839844 202.15512084960938 231.24769592285156 216.57167053222656 C 235.62362670898438 190.89012145996094 266.91363525390625 181.8748321533203 244.58299255371094 165.47988891601562" stroke-width="6.0" fill="none" stroke="rgb(0, 0, 0)" stroke-opacity="1.0" stroke-linecap="round" stroke-linejoin="round"/>
    <path d="M 333.208984375 577.0321044921875 C 315.3551025390625 563.283935546875 294.1579895019531 577.905517578125 291.69500732421875 542.7874755859375 C 291.6379699707031 515.59130859375 294.6041564941406 511.49884033203125 317.6446228027344 492.4249572753906 C 339.5428161621094 519.2843627929688 309.1474304199219 496.0147705078125 323.7021789550781 469.1272888183594 C 311.2351989746094 471.17669677734375 293.6789245605469 486.4273376464844 307.4591369628906 497.767822265625 C 306.56439208984375 506.35552978515625 307.4365539550781 486.1663513183594 322.9629211425781 497.6294860839844" stroke-width="6.0" fill="none" stroke="rgb(0, 0, 0)" stroke-opacity="1.0" stroke-linecap="round" stroke-linejoin="round"/>
    <path d="M 470.95281982421875 422.29388427734375 C 471.4123229980469 435.3174133300781 453.1339111328125 408.2394104003906 446.9999084472656 399.47967529296875 C 416.4388427734375 418.6646423339844 416.4106750488281 410.1602478027344 390.6216735839844 392.08441162109375 C 363.1146240234375 411.451171875 371.6113586425781 415.033203125 404.45916748046875 416.0043640136719 C 406.81573486328125 396.7306213378906 397.3472900390625 389.0594482421875 381.18182373046875 377.2690124511719 C 352.12762451171875 355.8228759765625 376.52154541015625 373.9537048339844 367.4537048339844 374.67706298828125" stroke-width="6.0" fill="none" stroke="rgb(0, 0, 0)" stroke-opacity="1.0" stroke-linecap="round" stroke-linejoin="round"/>
    <path d="M 416.47137451171875 263.16595458984375 C 440.5680236816406 249.2555389404297 409.8117980957031 220.2432098388672 420.2619934082031 220.31918334960938 C 399.09234619140625 211.31988525390625 381.2525634765625 203.9866943359375 406.6623229980469 227.83909606933594 C 385.41827392578125 215.256591796875 368.0116271972656 221.2342071533203 396.0723571777344 204.6298065185547 C 415.3706970214844 173.6385498046875 420.9619445800781 170.13763427734375 463.37152099609375 144.82508850097656 C 500.5915832519531 170.40921020507812 491.41455078125 208.6100311279297 486.8582763671875 205.3374786376953" stroke-width="6.0" fill="none" stroke="rgb(0, 0, 0)" stroke-opacity="1.0" stroke-linecap="round" stroke-linejoin="round"/>
    <path d="M 487.8257141113281 268.77630615234375 C 521.6769409179688 280.40826416015625 510.8433532714844 294.4859313964844 513.6654663085938 288.4530334472656 C 523.07861328125 295.9111022949219 505.0157775878906 272.7591552734375 474.6899108886719 265.69683837890625 C 455.29742431640625 245.18626403808594 444.3072204589844 243.83612060546875 436.82373046875 258.0938415527344 C 425.05267333984375 244.2556610107422 434.2410583496094 268.01519775390625 446.1907043457031 246.27491760253906 C 491.0802307128906 264.6509704589844 518.8815307617188 298.9006652832031 522.0391845703125 287.21588134765625" stroke-width="6.0" fill="none" stroke="rgb(0, 0, 0)" stroke-opacity="1.0" stroke-linecap="round" stroke-linejoin="round"/>
    <path d="M 524.9461669921875 148.15785217285156 C 537.5933837890625 163.44142150878906 549.8050537109375 176.61279296875 547.4337768554688 182.05465698242188 C 542.6187133789062 178.57504272460938 538.6790771484375 193.88690185546875 553.368408203125 166.8785858154297 C 558.7371826171875 153.2183837890625 580.100830078125 142.50511169433594 597.4141845703125 126.21308135986328 C 572.3859252929688 138.2670135498047 592.8637084960938 152.68690490722656 594.666748046875 158.89707946777344 C 578.4782104492188 144.44174194335938 591.6463012695312 122.57331848144531 580.5864868164062 112.01376342773438" stroke-width="6.0" fill="none" stroke="rgb(0, 0, 0)" stroke-opacity="1.0" stroke-linecap="round" stroke-linejoin="round"/>
    <path d="M 167.73892211914062 504.41583251953125 C 159.69253540039062 509.80419921875 161.2028350830078 508.6676025390625 147.1715850830078 513.1963500976562 C 124.56700897216797 489.26702880859375 140.9847412109375 496.1825256347656 120.61591339111328 497.35986328125 C 100.2328872680664 463.3658447265625 134.46214294433594 453.01605224609375 151.62777709960938 447.353271484375 C 149.95277404785156 414.4550476074219 189.2314910888672 410.4646911621094 190.67208862304688 396.4766845703125 C 185.31210327148438 411.1103820800781 164.1367950439453 400.4673156738281 155.96128845214844 429.15472412109375" stroke-width="6.0" fill="none" stroke="rgb(0, 0, 0)" stroke-opacity="1.0" stroke-linecap="round" stroke-linejoin="round"/>
    <path d="M 157.092041015625 365.93536376953125 C 162.7621612548828 365.93878173828125 156.2423095703125 337.3542175292969 132.70162963867188 343.05364990234375 C 111.06600189208984 358.97113037109375 125.6020278930664 371.9191589355469 118.59136199951172 358.5991516113281 C 105.33717346191406 349.56719970703125 109.1271743774414 339.59783935546875 92.53102111816406 358.85260009765625 C 79.13224029541016 378.3084716796875 88.86991882324219 355.367431640625 123.50570678710938 333.6366271972656 C 119.14739227294922 297.7064514160156 129.9036102294922 295.1952209472656 140.08929443359375 311.6429138183594" stroke-width="6.0" fill="none" stroke="rgb(0, 0, 0)" stroke-opacity="1.0" stroke-linecap="round" stroke-linejoin="round"/>
    <path d="M 95.50704956054688 255.31935119628906 C 105.21549224853516 266.12481689453125 85.95062255859375 242.9768524169922 98.22761535644531 259.0325927734375 C 87.8493881225586 285.66815185546875 73.80165100097656 261.0826721191406 61.184417724609375 231.5564727783203 C 64.71820831298828 236.79478454589844 68.65631866455078 257.623779296875 86.59545135498047 271.7620849609375 C 109.09451293945312 262.0460510253906 88.4402847290039 251.46865844726562 93.48106384277344 237.9866943359375 C 86.31548309326172 260.3321838378906 115.34525299072266 260.25433349609375 99.75200653076172 258.3712463378906" stroke-width="6.0" fill="none" stroke="rgb(0, 0, 0)" stroke-opacity="1.0" stroke-linecap="round" stroke-linejoin="round"/>
    <path d="M 358.59796142578125 311.35980224609375 C 387.3034973144531 348.09808349609375 412.178466796875 332.07012939453125 441.2242431640625 333.4351501464844 C 442.8775634765625 328.1830139160156 458.23614501953125 372.8543701171875 468.8897705078125 341.1978759765625 C 444.55657958984375 307.8999328613281 407.2658996582031 290.0431823730469 425.1465759277344 287.84661865234375 C 426.7312316894531 299.1240539550781 421.127685546875 304.59649658203125 416.7127990722656 298.26055908203125 C 412.4902038574219 300.0051574707031 383.2716369628906 293.450927734375 366.09600830078125 311.08935546875" stroke-width="6.0" fill="none" stroke="rgb(0, 0, 0)" stroke-opacity="1.0" stroke-linecap="round" stroke-linejoin="round"/>
    <path d="M 320.64227294921875 231.16522216796875 C 335.18194580078125 261.6179504394531 336.3086242675781 234.81024169921875 343.0040588378906 240.9362030029297 C 360.9222106933594 230.199951171875 333.320068359375 231.02882385253906 329.0407409667969 228.98580932617188 C 330.7619934082031 235.87139892578125 341.74285888671875 218.77162170410156 348.35614013671875 229.47430419921875 C 338.63037109375 253.150634765625 339.91961669921875 267.9270935058594 359.53448486328125 249.40548706054688 C 324.0948181152344 255.4771728515625 308.0419006347656 275.60693359375 337.0168151855469 247.10394287109375" stroke-width="6.0" fill="none" stroke="rgb(0, 0, 0)" stroke-opacity="1.0" stroke-linecap="round" stroke-linejoin="round"/>
    <path d="M 485.2353820800781 174.69955444335938 C 463.1714172363281 171.67356872558594 451.9009704589844 158.41432189941406 450.40167236328125 154.73875427246094 C 453.02728271484375 157.22207641601562 442.772705078125 137.10214233398438 431.966064453125 133.93719482421875 C 440.5950927734375 116.79446411132812 433.7546691894531 88.78099822998047 464.1462097167969 81.70249938964844 C 461.7639465332031 73.04605102539062 436.7894287109375 94.77367401123047 454.41583251953125 107.56977844238281 C 476.7274169921875 117.67777252197266 477.392333984375 99.46589660644531 476.8653869628906 104.30957794189453" stroke-width="6.0" fill="none" stroke="rgb(0, 0, 0)" stroke-opacity="1.0" stroke-linecap="round" stroke-linejoin="round"/>
    <path d="M 169.9483184814453 40.968345642089844 C 168.1710205078125 43.34163284301758 177.8439178466797 19.635986328125 199.89251708984375 50.777099609375 C 227.1297149658203 36.50502014160156 214.28260803222656 15.179548263549805 230.38743591308594 8.422541618347168 C 240.6311798095703 -32.02876663208008 226.8581085205078 -22.10209846496582 203.88304138183594 -24.280309677124023 C 201.7694549560547 -16.678293228149414 208.01666259765625 9.574653625488281 196.94186401367188 28.247386932373047 C 212.35377502441406 3.9802894592285156 193.43882751464844 -0.8738436102867126 195.88153076171875 0.19606125354766846" stroke-width="6.0" fill="none" stroke="rgb(0, 0, 0)" stroke-opacity="1.0" stroke-linecap="round" stroke-linejoin="round"/>
    <path d="M 511.8075866699219 514.9811401367188 C 527.0454711914062 481.2449035644531 531.832275390625 504.5273132324219 551.8873901367188 488.7215576171875 C 552.3721923828125 479.15045166015625 559.4854125976562 454.2392272949219 589.2881469726562 460.12689208984375 C 570.8182373046875 503.1959228515625 585.8868408203125 495.9062805175781 602.7354736328125 490.55743408203125 C 625.99169921875 459.25738525390625 600.8870239257812 436.3594055175781 620.9019775390625 411.6210021972656 C 623.9476928710938 406.67242431640625 651.8008422851562 390.87872314453125 637.460205078125 379.7792663574219" stroke-width="6.0" fill="none" stroke="rgb(0, 0, 0)" stroke-opacity="1.0" stroke-linecap="round" stroke-linejoin="round"/>
    <path d="M 467.5826416015625 412.2449035644531 C 489.4029541015625 401.452880859375 477.2939758300781 372.7511901855469 467.4507751464844 398.6063232421875 C 458.2744140625 387.801025390625 444.3660888671875 379.7785339355469 440.6133117675781 368.2911071777344 C 472.487548828125 351.44415283203125 469.234619140625 329.3735046386719 451.33978271484375 314.8460998535156 C 466.3625183105469 351.5996398925781 474.7130432128906 332.6569519042969 488.2008056640625 311.0075378417969 C 464.0272216796875 286.8364562988281 456.915771484375 288.9651184082031 460.8705139160156 281.576416015625" stroke-width="6.0" fill="none" stroke="rgb(0, 0, 0)" stroke-opacity="1.0" stroke-linecap="round" stroke-linejoin="round"/>
    <path d="M 598.6827392578125 24.526479721069336 C 598.9095458984375 23.956518173217773 613.5217895507812 7.606614112854004 618.8099365234375 24.82476234436035 C 598.5896606445312 6.361625671386719 612.2313842773438 28.604944229125977 581.3211059570312 40.56373596191406 C 584.6029663085938 35.75876235961914 602.064208984375 44.661773681640625 566.4583129882812 68.63607025146484 C 524.8438110351562 50.805477142333984 550.9934692382812 51.33788299560547 528.1629638671875 55.288211822509766 C 542.797607421875 51.541595458984375 520.23974609375 60.05668640136719 518.0269165039062 54.00937271118164" stroke-width="6.0" fill="none" stroke="rgb(0, 0, 0)" stroke-opacity="1.0" stroke-linecap="round" stroke-linejoin="round"/>
    <path d="M 483.4933776855469 248.0540313720703 C 473.6907958984375 245.21578979492188 451.7039489746094 224.63540649414062 424.5569763183594 209.5889892578125 C 447.91973876953125 185.18771362304688 469.9091796875 187.37142944335938 449.6138916015625 179.50672912597656 C 460.2979431152344 140.3970184326172 424.4471740722656 114.18741607666016 406.1134948730469 143.79627990722656 C 403.4740905761719 162.4036102294922 431.9375915527344 170.24119567871094 465.0260314941406 185.81155395507812 C 457.21905517578125 190.11956787109375 453.73004150390625 209.8591766357422 454.81976318359375 202.19354248046875" stroke-width="6.0" fill="none" stroke="rgb(0, 0, 0)" stroke-opacity="1.0" stroke-linecap="round" stroke-linejoin="round"/>
    <path d="M 104.79133605957031 197.4615936279297 C 101.2337417602539 233.73548889160156 115.90541076660156 194.84329223632812 134.25473022460938 192.78884887695312 C 153.28550720214844 227.97344970703125 189.45118713378906 207.04248046875 207.33010864257812 191.48570251464844 C 226.91519165039062 215.12442016601562 182.80039978027344 229.1160888671875 172.1719970703125 262.90771484375 C 213.60421752929688 238.90365600585938 223.478759765625 251.4629669189453 179.83612060546875 274.9644470214844 C 191.84036254882812 281.56591796875 207.86544799804688 250.29461669921875 234.9387969970703 276.3697509765625" stroke-width="6.0" fill="none" stroke="rgb(0, 0, 0)" stroke-opacity="1.0" stroke-linecap="round" stroke-linejoin="round"/>
    <path d="M 339.21099853515625 343.7679443359375 C 306.11956787109375 364.0206298828125 333.7229919433594 368.3314208984375 324.1446533203125 365.64556884765625 C 308.05279541015625 350.6359558105469 296.1275634765625 355.5175476074219 261.518798828125 384.0616455078125 C 247.7107696533203 348.6334228515625 265.6712951660156 381.1146545410156 279.2864685058594 376.7798156738281 C 245.667236328125 369.2819519042969 268.5184020996094 395.52423095703125 285.4566345214844 409.3675231933594 C 306.4969482421875 390.4774169921875 338.47991943359375 389.37744140625 334.85699462890625 390.2586364746094" stroke-width="6.0" fill="none" stroke="rgb(0, 0, 0)" stroke-opacity="1.0" stroke-linecap="round" stroke-linejoin="round"/>
    <path d="M 103.61946105957031 109.06041717529297 C 108.8023681640625 117.08604431152344 141.85321044921875 123.31710815429688 124.28824615478516 145.0495147705078 C 141.62965393066406 178.73953247070312 147.40533447265625 165.74497985839844 157.39735412597656 147.79881286621094 C 150.81643676757812 165.5872802734375 121.9295425415039 175.92605590820312 146.16351318359375 192.5218048095703 C 134.3759765625 233.19891357421875 170.70960998535156 198.7183074951172 183.8353271484375 205.48460388183594 C 202.77117919921875 179.23974609375 210.4394989013672 221.30613708496094 190.33724975585938 251.59405517578125" stroke-width="6.0" fill="none" stroke="rgb(0, 0, 0)" stroke-opacity="1.0" stroke-linecap="round" stroke-linejoin="round"/>
    <path d="M 148.46311950683594 595.6492919921875 C 125.05795288085938 614.3478393554688 95.45548248291016 622.0834350585938 119.24834442138672 633.9016723632812 C 117.7988510131836 620.180908203125 101.25083923339844 596.0140380859375 73.7081298828125 579.6239624023438 C 30.4429874420166 580.2176513671875 39.904624938964844 610.76513671875 62.03299331665039 611.8361206054688 C 73.5380630493164 608.3953857421875 49.62377166748047 607.1647338867188 71.46681213378906 616.222900390625 C 82.69644165039062 595.9822998046875 57.11900329589844 616.72802734375 44.81352233886719 605.85107421875" stroke-width="6.0" fill="none" stroke="rgb(0, 0, 0)" stroke-opacity="1.0" stroke-linecap="round" stroke-linejoin="round"/>
    <path d="M 583.456298828125 38.78544235229492 C 577.2483520507812 37.47153854370117 581.2154541015625 49.540103912353516 601.36669921875 27.120616912841797 C 600.4149780273438 26.996116638183594 597.6103515625 -3.3209338188171387 621.3896484375 -25.86493682861328 C 643.5479125976562 -46.53889846801758 619.6234130859375 -64.20586395263672 601.0224609375 -52.37406539916992 C 614.3447265625 -38.57562255859375 600.2606201171875 -51.684242248535156 584.5134887695312 -78.70611572265625 C 588.8197021484375 -58.314842224121094 568.0350952148438 -66.66510772705078 563.6914672851562 -78.99213409423828" stroke-width="6.0" fill="none" stroke="rgb(0, 0, 0)" stroke-opacity="1.0" stroke-linecap="round" stroke-linejoin="round"/>
    <path d="M 396.35003662109375 369.6657409667969 C 379.2597351074219 331.9393005371094 360.161865234375 319.8412170410156 343.9373474121094 338.3466796875 C 324.0588684082031 318.4914855957031 328.2442321777344 342.0185852050781 292.0810241699219 337.8916931152344 C 277.5492248535156 378.41119384765625 265.7893371582031 384.4869079589844 256.5710754394531 367.0799255371094 C 244.3554229736328 346.7485046386719 210.13912963867188 365.32537841796875 231.741943359375 356.7677917480469 C 231.4436492919922 352.4368896484375 255.47816467285156 350.41302490234375 252.1427001953125 362.00457763671875" stroke-width="6.0" fill="none" stroke="rgb(0, 0, 0)" stroke-opacity="1.0" stroke-linecap="round" stroke-linejoin="round"/>
    <path d="M 497.7144775390625 261.8583984375 C 494.07293701171875 264.7667541503906 493.53143310546875 282.3296813964844 496.0114440917969 272.2831115722656 C 524.1161499023438 280.8774108886719 514.4788208007812 310.335693359375 533.326416015625 310.64990234375 C 542.4393310546875 291.105224609375 562.27734375 266.094970703125 597.266357421875 296.6317443847656 C 620.3676147460938 286.17791748046875 602.5848388671875 303.77496337890625 602.584716796875 330.59381103515625 C 608.9602661132812 358.82177734375 597.346923828125 388.83685302734375 621.4092407226562 367.29632568359375" stroke-width="6.0" fill="none" stroke="rgb(0, 0, 0)" stroke-opacity="1.0" stroke-linecap="round" stroke-linejoin="round"/>
    <path d="M 225.6563262939453 250.17706298828125 C 216.93521118164062 238.13955688476562 211.26573181152344 253.83453369140625 228.44683837890625 248.1502685546875 C 233.9473876953125 251.5250701904297 220.7433624267578 236.9759063720703 233.28562927246094 247.2794952392578 C 287.7456359863281 263.8562316894531 282.92645263671875 254.21107482910156 246.6298370361328 241.6270751953125 C 215.4267120361328 240.4170379638672 203.56918334960938 248.1674346923828 231.3515167236328 215.85992431640625 C 215.16294860839844 185.55511474609375 232.05880737304688 207.4097137451172 212.5575714111328 235.16368103027344" stroke-width="6.0" fill="none" stroke="rgb(0, 0, 0)" stroke-opacity="1.0" stroke-linecap="round" stroke-linejoin="round"/>
    <path d="M 213.95565795898438 117.3543701171875 C 196.64479064941406 165.58758544921875 230.49124145507812 136.23849487304688 243.4111328125 130.1696319580078 C 243.76016235351562 136.81314086914062 260.9175109863281 108.97582244873047 285.5035400390625 88.37769317626953 C 311.4923400878906 88.13076782226562 323.453369140625 64.74193572998047 309.9700622558594 83.40258026123047 C 315.3770446777344 65.55973815917969 335.4306335449219 69.2566909790039 333.6033020019531 72.31439208984375 C 348.00286865234375 65.06702423095703 333.19287109375 65.55846405029297 337.18597412109375 62.13145446777344" stroke-width="6.0" fill="none" stroke="rgb(0, 0, 0)" stroke-opacity="1.0" stroke-linecap="round" stroke-linejoin="round"/>
    <path d="M 508.65093994140625 517.0200805664062 C 486.4158630371094 505.0644226074219 496.8356628417969 527.0767822265625 480.3221435546875 528.2453002929688 C 515.9503173828125 547.939453125 497.1960144042969 543.47802734375 491.08306884765625 561.0425415039062 C 474.6612548828125 551.4480590820312 470.6704406738281 554.0331420898438 453.0498046875 574.8636474609375 C 446.4682312011719 557.564697265625 427.2347412109375 576.5577392578125 438.955322265625 590.06298828125 C 433.56689453125 571.6798095703125 415.38690185546875 580.7506713867188 441.8915710449219 608.98974609375" stroke-width="6.0" fill="none" stroke="rgb(0, 0, 0)" stroke-opacity="1.0" stroke-linecap="round" stroke-linejoin="round"/>
    <path d="M 373.52899169921875 410.1888427734375 C 356.059814453125 400.2730712890625 331.8358154296875 424.8038024902344 363.2121276855469 398.38140869140625 C 388.38311767578125 389.8169860839844 395.9049987792969 355.6881408691406 381.086669921875 379.1188049316406 C 369.0044860839844 421.99267578125 377.0278015136719 417.035400390625 369.2897644042969 407.9804992675781 C 347.1790771484375 410.9078369140625 356.9081115722656 426.84197998046875 349.55889892578125 402.4909362792969 C 351.09368896484375 409.89044189453125 377.73211669921875 398.494140625 397.79461669921875 397.86224365234375" stroke-width="6.0" fill="none" stroke="rgb(0, 0, 0)" stroke-opacity="1.0" stroke-linecap="round" stroke-linejoin="round"/>
    <path d="M 163.79800415039062 83.62877655029297 C 147.0319061279297 93.2147445678711 166.8394012451172 110.00627136230469 153.9001007080078 115.8807144165039 C 175.0220947265625 93.04366302490234 165.47845458984375 123.78097534179688 175.02011108398438 160.67965698242188 C 193.1268310546875 152.6376190185547 193.89974975585938 173.91607666015625 203.34800720214844 178.1372528076172 C 239.7513885498047 158.96255493164062 230.215087890625 148.08627319335938 190.0764923095703 163.01861572265625 C 201.02578735351562 142.32891845703125 228.94076538085938 129.0753631591797 228.07420349121094 142.68527221679688" stroke-width="6.0" fill="none" stroke="rgb(0, 0, 0)" stroke-opacity="1.0" stroke-linecap="round" stroke-linejoin="round"/>
    <path d="M 539.2657470703125 412.03033447265625 C 555.3147583007812 408.65869140625 576.8421630859375 428.7964172363281 555.6666870117188 413.68609619140625 C 526.1430053710938 409.2909240722656 530.0972900390625 416.16766357421875 511.7015686035156 433.5250244140625 C 504.2372131347656 404.55731201171875 502.0124816894531 420.4649658203125 492.43994140625 444.9308166503906 C 488.51702880859375 428.68829345703125 479.3159484863281 457.3789367675781 464.5381164550781 472.17138671875 C 469.75811767578125 490.7927551269531 440.2049255371094 510.4222717285156 452.2056579589844 514.9069213867188" stroke-width="6.0" fill="none" stroke="rgb(0, 0, 0)" stroke-opacity="1.0" stroke-linecap="round" stroke-linejoin="round"/>
    <path d="M 224.1873016357422 169.36448669433594 C 207.4939422607422 189.30760192871094 182.2332763671875 170.43948364257812 157.10264587402344 187.0030517578125 C 184.76231384277344 188.83847045898438 176.43798828125 183.9990234375 217.3922576904297 181.27938842773438 C 225.89437866210938 174.9476318359375 237.7735595703125 143.8826904296875 208.61929321289062 159.97494506835938 C 185.3893585205078 177.51060485839844 190.48397827148438 193.83575439453125 154.16445922851562 197.25367736816406 C 163.98162841796875 181.69711303710938 206.16336059570312 172.11463928222656 181.41842651367188 163.8521270751953" stroke-width="6.0" fill="none" stroke="rgb(0, 0, 0)" stroke-opacity="1.0" stroke-linecap="round" stroke-linejoin="round"/>
    <path d="M 220.75303649902344 20.632410049438477 C 215.81155395507812 41.84028244018555 215.02284240722656 41.38068771362305 199.74923706054688 22.651187896728516 C 207.54794311523438 1.5182944536209106 197.36622619628906 -6.937301158905029 206.521240234375 -26.459856033325195 C 216.32765197753906 -24.438371658325195 203.77732849121094 -10.76845645904541 208.84556579589844 -21.72487449645996 C 234.09225463867188 5.993401050567627 233.6552276611328 18.268657684326172 229.23280334472656 1.6642566919326782 C 233.581787109375 18.95336151123047 227.49496459960938 9.799806594848633 236.90318298339844 -12.672553062438965" stroke-width="6.0" fill="none" stroke="rgb(0, 0, 0)" stroke-opacity="1.0" stroke-linecap="round" stroke-linejoin="round"/>
    <path d="M 451.06390380859375 351.8973083496094 C 431.49908447265625 334.75506591796875 435.72308349609375 321.2225036621094 451.443115234375 309.02166748046875 C 445.0079650878906 257.9402160644531 472.4284973144531 270.1777648925781 496.2052917480469 263.886962890625 C 507.979736328125 255.4580535888672 498.1199951171875 254.57321166992188 487.7645568847656 242.3627166748047 C 495.21051025390625 248.30581665039062 486.24322509765625 241.0519561767578 495.9817810058594 224.83486938476562 C 498.2320251464844 202.2310333251953 529.9356079101562 192.2258758544922 549.3677978515625 179.123291015625" stroke-width="6.0" fill="none" stroke="rgb(0, 0, 0)" stroke-opacity="1.0" stroke-linecap="round" stroke-linejoin="round"/>
    <path d="M 67.5217514038086 60.4334716796875 C 40.24492263793945 43.850826263427734 45.776771545410156 48.5000114440918 28.051448822021484 63.254783630371094 C -1.9446450471878052 31.84010124206543 -2.0041725635528564 13.015632629394531 25.803606033325195 -2.12188982963562 C 3.976649761199951 10.397965431213379 9.168156623840332 15.059873580932617 17.420509338378906 1.8037371635437012 C 10.357129096984863 20.261676788330078 21.09293556213379 -7.198798179626465 3.9030470848083496 -23.452558517456055 C 39.906829833984375 -38.22835922241211 37.76347351074219 -62.23982238769531 18.245580673217773 -89.87315368652344" stroke-width="6.0" fill="none" stroke="rgb(0, 0, 0)" stroke-opacity="1.0" stroke-linecap="round" stroke-linejoin="round"/>
    <path d="M 177.09059143066406 493.36541748046875 C 171.8019561767578 504.3602600097656 145.11109924316406 517.4049072265625 110.72760772705078 530.039794921875 C 127.31712341308594 522.416259765625 126.05462646484375 526.6302490234375 118.39173889160156 526.6618041992188 C 93.07157897949219 544.987548828125 95.57498931884766 558.4307250976562 100.40034484863281 544.260986328125 C 92.26163482666016 550.9374389648438 117.7582778930664 562.0021362304688 124.54359436035156 527.9209594726562 C 147.6587371826172 513.6107177734375 175.92909240722656 495.2103271484375 169.54991149902344 505.00469970703125" stroke-width="6.0" fill="none" stroke="rgb(0, 0, 0)" stroke-opacity="1.0" stroke-linecap="round" stroke-linejoin="round"/>
    <path d="M 475.2098388671875 412.2283630371094 C 463.8233947753906 399.0079345703125 455.2850341796875 366.9142761230469 461.332763671875 390.68536376953125 C 487.88494873046875 363.514892578125 517.33740234375 342.14825439453125 515.5044555664062 318.54327392578125 C 502.29803466796875 310.2240295410156 505.8020324707031 330.06573486328125 525.5293579101562 326.7598571777344 C 537.910888671875 341.2798767089844 535.22216796875 335.2195739746094 532.638671875 352.94476318359375 C 524.9071044921875 374.0888671875 516.5781860351562 356.8798828125 515.9945068359375 341.6780700683594" stroke-width="6.0" fill="none" stroke="rgb(0, 0, 0)" stroke-opacity="1.0" stroke-linecap="round" stroke-linejoin="round"/>
    <path d="M 508.39166259765625 341.775390625 C 540.8104858398438 309.7765197753906 546.789794921875 271.2676086425781 563.8735961914062 288.9328918457031 C 581.583984375 281.0221252441406 587.2191772460938 272.6285095214844 623.295166015625 248.95494079589844 C 604.0384521484375 243.07693481445312 598.5376586914062 231.30984497070312 584.2811279296875 252.6041717529297 C 575.6917114257812 264.0186767578125 581.5924072265625 252.03810119628906 576.0078125 258.25457763671875 C 546.6360473632812 261.6327819824219 556.1082153320312 223.02459716796875 540.6729736328125 216.60243225097656" stroke-width="6.0" fill="none" stroke="rgb(0, 0, 0)" stroke-opacity="1.0" stroke-linecap="round" stroke-linejoin="round"/>
    <path d="M 365.7582092285156 184.09332275390625 C 395.1625061035156 169.97702026367188 385.6269226074219 200.37945556640625 366.5442199707031 177.35011291503906 C 364.2781982421875 160.2202606201172 356.1068115234375 173.92050170898438 359.2566833496094 187.7028045654297 C 372.4485778808594 157.29763793945312 396.26727294921875 148.53526306152344 381.5857849121094 159.9264373779297 C 408.62396240234375 136.8649444580078 425.0140075683594 139.23178100585938 373.25048828125 136.40765380859375 C 350.16778564453125 139.2271728515625 358.1664123535156 113.11615753173828 382.81280517578125 101.04183959960938" stroke-width="6.0" fill="none" stroke="rgb(0, 0, 0)" stroke-opacity="1.0" stroke-linecap="round" stroke-linejoin="round"/>
    <path d="M 550.8863525390625 229.68971252441406 C 550.7238159179688 250.68312072753906 553.69677734375 243.63946533203125 566.2510986328125 259.5789794921875 C 582.2329711914062 256.0899963378906 594.0302734375 257.5101623535156 609.2275390625 290.07318115234375 C 598.510986328125 279.9793395996094 600.2590942382812 253.61978149414062 625.60791015625 274.181396484375 C 614.5065307617188 278.0899658203125 639.7763061523438 258.7221374511719 644.4895629882812 272.5517883300781 C 622.1924438476562 265.796142578125 628.2252197265625 288.75787353515625 628.4718017578125 281.837646484375" stroke-width="6.0" fill="none" stroke="rgb(0, 0, 0)" stroke-opacity="1.0" stroke-linecap="round" stroke-linejoin="round"/>
    <path d="M 604.105224609375 545.1744995117188 C 604.181884765625 533.5304565429688 629.3239135742188 562.9224243164062 628.30126953125 541.8469848632812 C 623.1940307617188 554.194580078125 638.099609375 542.1293334960938 650.1892700195312 563.7717895507812 C 662.9017333984375 589.9025268554688 670.8567504882812 571.9558715820312 678.3067626953125 559.390625 C 669.0244140625 569.7330322265625 697.904541015625 578.7382202148438 725.4041137695312 578.9718627929688 C 737.0628662109375 568.3147583007812 713.9871826171875 559.448974609375 712.809326171875 563.6873168945312" stroke-width="6.0" fill="none" stroke="rgb(0, 0, 0)" stroke-opacity="1.0" stroke-linecap="round" stroke-linejoin="round"/>
    <path d="M 402.0728759765625 260.52117919921875 C 430.9864807128906 257.45379638671875 418.6609191894531 291.7802429199219 441.85223388671875 278.8043212890625 C 393.4560241699219 263.0243225097656 404.3797912597656 259.930419921875 412.484130859375 237.19515991210938 C 399.2637023925781 215.36317443847656 425.14080810546875 226.64990234375 414.3945617675781 247.95277404785156 C 376.21563720703125 258.7167663574219 353.51715087890625 276.446533203125 371.2759094238281 308.1000061035156 C 391.17547607421875 317.666259765625 370.0321044921875 333.78582763671875 386.4384765625 315.95758056640625" stroke-width="6.0" fill="none" stroke="rgb(0, 0, 0)" stroke-opacity="1.0" stroke-linecap="round" stroke-linejoin="round"/>
    <path d="M 402.24908447265625 542.4258422851562 C 399.39288330078125 573.23193359375 415.0318908691406 562.9379272460938 419.20111083984375 556.0425415039062 C 415.7342834472656 550.4853515625 427.0848083496094 571.5048828125 444.70635986328125 598.1751708984375 C 452.0543212890625 610.1888427734375 473.6174011230469 607.3320922851562 483.47747802734375 620.6588745117188 C 507.0060729980469 612.83447265625 487.651611328125 623.7940063476562 464.5343933105469 610.3929443359375 C 463.78009033203125 601.579833984375 460.47589111328125 602.7216796875 439.1942138671875 605.6341552734375" stroke-width="6.0" fill="none" stroke="rgb(0, 0, 0)" stroke-opacity="1.0" stroke-linecap="round" stroke-linejoin="round"/>
    <path d="M 147.36940002441406 199.0880126953125 C 160.0670166015625 189.33990478515625 140.26211547851562 176.95751953125 114.77902221679688 196.3765106201172 C 116.61520385742188 201.00164794921875 123.6575927734375 222.05520629882812 112.47700500488281 241.14573669433594 C 105.03784942626953 199.0449981689453 106.38426971435547 167.2713623046875 78.84278869628906 158.93702697753906 C 95.98228454589844 136.87319946289062 86.79624938964844 123.78616333007812 64.04727172851562 124.51879119873047 C 28.46535873413086 142.0850067138672 39.95399856567383 157.6252899169922 70.71311950683594 184.8710174560547" stroke-width="6.0" fill="none" stroke="rgb(0, 0, 0)" stroke-opacity="1.0" stroke-linecap="round" stroke-linejoin="round"/>
    <path d="M -17.019886016845703 418.7529296875 C -13.550684928894043 436.5395812988281 9.095117568969727 424.203125 38.81098937988281 441.66180419921875 C 40.13317108154297 453.5828552246094 49.83848571777344 450.649658203125 53.25300979614258 442.3299560546875 C 65.69230651855469 468.28118896484375 61.7865104675293 482.2178649902344 56.241214752197266 442.1752624511719 C 85.94890594482422 428.7772216796875 101.5190658569336 469.80712890625 79.91141510009766 473.2007751464844 C 68.40052032470703 454.1283874511719 38.18656539916992 471.22076416015625 38.36564254760742 480.35992431640625" stroke-width="6.0" fill="none" stroke="rgb(0, 0, 0)" stroke-opacity="1.0" stroke-linecap="round" stroke-linejoin="round"/>
    <path d="M 260.67913818359375 60.35051727294922 C 253.73670959472656 84.3157730102539 279.0043029785156 100.55884552001953 282.890625 108.31053161621094 C 302.4300842285156 82.61943817138672 298.88323974609375 97.67639923095703 280.61138916015625 77.231201171875 C 295.39794921875 58.9817008972168 302.648193359375 33.6549072265625 302.76092529296875 28.661527633666992 C 301.36578369140625 41.1643180847168 286.0821838378906 61.539005279541016 286.40960693359375 63.5870361328125 C 282.75701904296875 60.46065139770508 286.7689514160156 83.89948272705078 259.5491027832031 122.86246490478516" stroke-width="6.0" fill="none" stroke="rgb(0, 0, 0)" stroke-opacity="1.0" stroke-linecap="round" stroke-linejoin="round"/>
    <path d="M 60.11831283569336 460.9172668457031 C 54.122894287109375 439.22845458984375 56.79628372192383 447.1412048339844 49.505733489990234 444.6501770019531 C 64.85618591308594 446.6625671386719 48.144107818603516 443.53662109375 56.165287017822266 444.9474182128906 C 80.53746795654297 424.2091979980469 84.34182739257812 463.1519470214844 102.80381774902344 467.8626403808594 C 90.14582061767578 485.3768310546875 98.34062957763672 493.06585693359375 84.00638580322266 474.7566833496094 C 90.8301773071289 458.1005859375 94.42190551757812 461.3028869628906 113.67648315429688 472.384521484375" stroke-width="6.0" fill="none" stroke="rgb(0, 0, 0)" stroke-opacity="1.0" stroke-linecap="round" stroke-linejoin="round"/>
    <path d="M 207.47799682617188 240.40646362304688 C 216.50949096679688 249.65765380859375 194.18606567382812 226.77757263183594 224.12901306152344 216.8395538330078 C 198.60171508789062 246.4261016845703 211.41883850097656 258.5795593261719 237.04379272460938 279.82257080078125 C 236.3721466064453 283.1551818847656 218.54278564453125 254.17430114746094 208.0650177001953 261.333740234375 C 203.71072387695312 259.210205078125 172.93243408203125 266.9406433105469 164.9449462890625 287.7845153808594 C 190.82725524902344 267.3916931152344 188.61605834960938 279.69842529296875 156.917724609375 299.72698974609375" stroke-width="6.0" fill="none" stroke="rgb(0, 0, 0)" stroke-opacity="1.0" stroke-linecap="round" stroke-linejoin="round"/>
    <path d="M 336.32977294921875 223.9034423828125 C 318.4000244140625 220.30133056640625 299.61541748046875 197.1208038330078 280.9010009765625 211.32534790039062 C 263.1501159667969 225.7783660888672 230.78294372558594 234.79440307617188 249.3703155517578 240.94822692871094 C 241.16806030273438 235.32875061035156 252.3615264892578 222.46673583984375 277.756103515625 230.84339904785156 C 296.1900329589844 207.2881622314453 294.3412780761719 190.03363037109375 309.9949035644531 186.71495056152344 C 285.4615783691406 170.08065795898438 297.2684326171875 123.14930725097656 309.8008728027344 96.28324890136719" stroke-width="6.0" fill="none" stroke="rgb(0, 0, 0)" stroke-opacity="1.0" stroke-linecap="round" stroke-linejoin="round"/>
    <path d="M 355.8601989746094 547.6298828125 C 356.4697570800781 544.2078857421875 388.4185485839844 544.5062866210938 395.0325927734375 531.6096801757812 C 378.5190734863281 545.2575073242188 395.3037109375 533.2579345703125 399.0006103515625 530.2537231445312 C 397.4971008300781 538.8251953125 403.87750244140625 566.5352783203125 420.0221862792969 563.0011596679688 C 406.41082763671875 567.2792358398438 401.4782409667969 551.3465576171875 422.5716857910156 558.1615600585938 C 440.90533447265625 587.128662109375 435.9148864746094 582.2918701171875 427.8907165527344 569.642578125" stroke-width="6.0" fill="none" stroke="rgb(0, 0, 0)" stroke-opacity="1.0" stroke-linecap="round" stroke-linejoin="round"/>
    <path d="M 33.535762786865234 226.2965850830078 C 10.700878143310547 205.93435668945312 35.00647735595703 197.93643188476562 32.33160400390625 197.36534118652344 C 9.598257064819336 226.45367431640625 -17.657756805419922 221.5423126220703 -10.377949714660645 248.7342987060547 C 17.657546997070312 236.53195190429688 30.994022369384766 226.54095458984375 30.19133758544922 224.76055908203125 C 36.267093658447266 229.969482421875 45.57489013671875 225.4197540283203 65.58201599121094 233.7761993408203 C 69.19169616699219 248.2606658935547 68.75692749023438 248.07513427734375 65.0986099243164 240.19944763183594" stroke-width="6.0" fill="none" stroke="rgb(0, 0, 0)" stroke-opacity="1.0" stroke-linecap="round" stroke-linejoin="round"/>
    <path d="M 64.92452239990234 107.106689453125 C 66.51773834228516 108.66739654541016 53.40563201904297 84.69384002685547 43.00039291381836 92.95173645019531 C 23.905494689941406 72.56208801269531 39.38904571533203 88.87924194335938 38.01091003417969 87.45332336425781 C 21.975261688232422 72.36149597167969 35.175228118896484 48.11265563964844 -3.591604471206665 48.44328308105469 C -24.235754013061523 55.32366943359375 -50.33864212036133 60.85733413696289 -72.926025390625 50.1785774230957 C -91.49917602539062 78.51880645751953 -85.53772735595703 82.33509063720703 -114.42052459716797 95.50792694091797" stroke-width="6.0" fill="none" stroke="rgb(0, 0, 0)" stroke-opacity="1.0" stroke-linecap="round" stroke-linejoin="round"/>
    <path d="M 384.76202392578125 172.54605102539062 C 362.4136657714844 170.09901428222656 409.4246826171875 184.3653106689453 388.06787109375 208.2843017578125 C 382.6614990234375 223.15650939941406 404.7762145996094 203.2225341796875 414.1899719238281 189.60276794433594 C 422.4459228515625 189.89332580566406 427.0404968261719 190.58421325683594 397.24835205078125 184.4391326904297 C 362.5858154296875 172.84324645996094 405.8002624511719 169.80433654785156 404.3337707519531 141.03111267089844 C 367.8969421386719 138.93377685546875 385.88970947265625 126.62017059326172 410.6163330078125 120.1651840209961" stroke-width="6.0" fill="none" stroke="rgb(0, 0, 0)" stroke-opacity="1.0" stroke-linecap="round" stroke-linejoin="round"/>
    <path d="M 57.874935150146484 276.79229736328125 C 46.18196105957031 288.1639404296875 73.36107635498047 310.6603698730469 78.96768951416016 324.4639892578125 C 73.08932495117188 312.8745422363281 68.15937805175781 322.69378662109375 67.73408508300781 352.35516357421875 C 70.59093475341797 333.3591003417969 61.99355697631836 339.94482421875 88.601806640625 348.5696105957031 C 59.06199645996094 337.947509765625 63.032432556152344 335.5717468261719 83.35987091064453 312.96160888671875 C 91.85327911376953 306.9833068847656 84.30432891845703 309.4128112792969 107.57058715820312 326.4598388671875" stroke-width="6.0" fill="none" stroke="rgb(0, 0, 0)" stroke-opacity="1.0" stroke-linecap="round" stroke-linejoin="round"/>
    <path d="M 63.38347625732422 -4.142144203186035 C 63.09417724609375 0.44014662504196167 60.856868743896484 -0.19610849022865295 47.54091262817383 21.64110565185547 C 33.814414978027344 44.75194549560547 31.994449615478516 28.555477142333984 16.531965255737305 36.7403564453125 C 25.498233795166016 31.667146682739258 34.87287902832031 36.004432678222656 35.960662841796875 35.923622131347656 C 16.372882843017578 29.516916275024414 0.9290719628334045 42.58580017089844 25.30402374267578 57.86345291137695 C 32.70744705200195 76.7138900756836 30.14942741394043 86.91310119628906 29.442399978637695 72.11369323730469" stroke-width="6.0" fill="none" stroke="rgb(0, 0, 0)" stroke-opacity="1.0" stroke-linecap="round" stroke-linejoin="round"/>
    <path d="M 232.42295837402344 195.8348846435547 C 240.7541961669922 215.2855682373047 249.68658447265625 191.1456298828125 272.8011779785156 171.33946228027344 C 248.77516174316406 131.59884643554688 284.0788269042969 115.04127502441406 250.93707275390625 125.6011734008789 C 234.43431091308594 99.68421173095703 230.30584716796875 127.03923034667969 225.57435607910156 134.102783203125 C 232.7079315185547 144.7135467529297 257.0295104980469 166.10028076171875 276.9082946777344 162.04913330078125 C 270.71942138671875 171.75250244140625 277.6607666015625 143.59877014160156 247.04161071777344 151.94395446777344" stroke-width="6.0" fill="none" stroke="rgb(0, 0, 0)" stroke-opacity="1.0" stroke-linecap="round" stroke-linejoin="round"/>
  </g>
</svg>
