<?xml version="1.0" ?>
<svg xmlns="http://www.w3.org/2000/svg" version="1.1" width="600" height="600">
  <defs/>
  <g>
    <path d="M 328.7457580566406 202.46609497070312 C 339.45965576171875 231.8849639892578 354.9225158691406 225.34873962402344 356.5931701660156 212.3311309814453 C 368.3357849121094 193.9966583251953 389.7109069824219 187.62298583984375 367.60491943359375 202.7989959716797 C 372.3879699707031 221.10330200195312 393.3765563964844 233.6785430908203 390.8284912109375 213.460205078125 C 369.0821533203125 225.21754455566406 356.54705810546875 203.90692138671875 339.67523193359375 218.80987548828125 C 353.7943420410156 189.39784240722656 367.351806640625 193.9387664794922 378.0508728027344 223.247802734375" stroke-width="6.0" fill="none" stroke="rgb(0, 0, 0)" stroke-opacity="1.0" stroke-linecap="round" stroke-linejoin="round"/>
    <path d="M 88.56327819824219 570.2388916015625 C 84.18993377685547 590.738525390625 109.74906158447266 566.5013427734375 138.19857788085938 547.279296875 C 111.34690856933594 576.095947265625 120.352783203125 581.699462890625 148.53639221191406 589.3178100585938 C 142.7760467529297 561.357421875 127.22736358642578 560.6749267578125 138.50640869140625 587.9483032226562 C 147.67422485351562 580.4705810546875 159.18191528320312 598.1900634765625 168.69305419921875 614.8539428710938 C 190.5867919921875 623.8726196289062 177.09974670410156 633.0643310546875 169.13912963867188 610.2643432617188" stroke-width="6.0" fill="none" stroke="rgb(0, 0, 0)" stroke-opacity="1.0" stroke-linecap="round" stroke-linejoin="round"/>
    <path d="M 49.58219528198242 293.53106689453125 C 59.7097282409668 294.115966796875 31.091333389282227 298.494873046875 35.44916915893555 284.91839599609375 C 50.17072296142578 302.5790100097656 31.03652000427246 301.6304931640625 39.712318420410156 297.6498718261719 C 43.997703552246094 273.6163635253906 17.807601928710938 298.1492004394531 35.52109146118164 279.2425842285156 C 54.29316711425781 250.42735290527344 57.65678024291992 252.61236572265625 76.3885498046875 251.92616271972656 C 77.52262115478516 257.00946044921875 90.34756469726562 274.41351318359375 67.79292297363281 289.5928039550781" stroke-width="6.0" fill="none" stroke="rgb(0, 0, 0)" stroke-opacity="1.0" stroke-linecap="round" stroke-linejoin="round"/>
    <path d="M 579.4284057617188 538.581298828125 C 560.2684936523438 544.5275268554688 541.0647583007812 547.8108520507812 559.0955200195312 525.193603515625 C 536.824462890625 507.5673522949219 516.4971313476562 511.2771301269531 537.5841064453125 483.37744140625 C 566.3397827148438 483.746337890625 558.1533813476562 486.4119873046875 553.5364379882812 513.1256713867188 C 523.5816040039062 501.20166015625 550.3544921875 502.3682556152344 567.2825927734375 511.917724609375 C 563.977783203125 516.5419921875 575.683837890625 517.9020385742188 604.8450317382812 508.989013671875" stroke-width="6.0" fill="none" stroke="rgb(0, 0, 0)" stroke-opacity="1.0" stroke-linecap="round" stroke-linejoin="round"/>
    <path d="M 322.90570068359375 125.88370513916016 C 298.84625244140625 145.10951232910156 283.11224365234375 126.3939208984375 271.09478759765625 146.35159301757812 C 298.5401916503906 152.48025512695312 281.5025634765625 143.98416137695312 259.21209716796875 151.3229217529297 C 233.6737060546875 136.6209716796875 226.5806427001953 160.84056091308594 220.58419799804688 135.83580017089844 C 205.8349609375 131.35641479492188 217.46588134765625 133.5106658935547 191.69935607910156 147.51116943359375 C 221.46092224121094 159.31935119628906 203.01856994628906 151.6478729248047 212.4576416015625 170.83834838867188" stroke-width="6.0" fill="none" stroke="rgb(0, 0, 0)" stroke-opacity="1.0" stroke-linecap="round" stroke-linejoin="round"/>
    <path d="M 362.94683837890625 251.83187866210938 C 342.15631103515625 281.3388366699219 338.21392822265625 252.89340209960938 344.43035888671875 227.54489135742188 C 321.9076232910156 204.144287109375 324.80975341796875 178.14186096191406 333.22039794921875 169.91104125976562 C 323.2314453125 156.30621337890625 345.3627624511719 139.85214233398438 315.9145812988281 132.48150634765625 C 344.0409851074219 125.19940948486328 320.3411560058594 150.69757080078125 300.885009765625 164.39723205566406 C 289.27801513671875 183.67782592773438 288.6950988769531 185.41542053222656 300.6824645996094 207.3793487548828" stroke-width="6.0" fill="none" stroke="rgb(0, 0, 0)" stroke-opacity="1.0" stroke-linecap="round" stroke-linejoin="round"/>
    <path d="M 330.9453125 364.5001525878906 C 354.6995849609375 344.7449951171875 381.5301818847656 338.1188049316406 372.240478515625 352.556640625 C 400.320556640625 354.45758056640625 405.99755859375 375.43536376953125 404.5693054199219 353.12969970703125 C 375.13916015625 353.9436340332031 354.4686279296875 331.4857482910156 347.1966552734375 345.611083984375 C 320.3685607910156 359.17620849609375 348.8385314941406 371.6263427734375 333.8252258300781 378.1485595703125 C 346.232421875 359.0948181152344 375.3672180175781 377.0429382324219 375.5009765625 363.5923156738281" stroke-width="6.0" fill="none" stroke="rgb(0, 0, 0)" stroke-opacity="1.0" stroke-linecap="round" stroke-linejoin="round"/>
    <path d="M 256.6590576171875 565.0062255859375 C 279.54229736328125 583.8475952148438 267.85357666015625 605.3228759765625 294.7008361816406 599.7138061523438 C 283.4650573730469 575.1222534179688 258.2335205078125 588.9193725585938 284.9255676269531 568.826171875 C 258.3702697753906 583.4307250976562 261.6198425292969 583.0017700195312 284.0810241699219 610.7317504882812 C 279.52001953125 611.252685546875 293.3678894042969 610.0320434570312 294.2685546875 639.9093627929688 C 317.55340576171875 651.7822265625 311.8816833496094 658.7593994140625 336.5348815917969 673.5144653320312" stroke-width="6.0" fill="none" stroke="rgb(0, 0, 0)" stroke-opacity="1.0" stroke-linecap="round" stroke-linejoin="round"/>
    <path d="M 428.51605224609375 421.57501220703125 C 443.45611572265625 406.2286071777344 457.79510498046875 433.2806701660156 477.1969299316406 456.1005859375 C 478.923583984375 462.61224365234375 485.3260192871094 490.53106689453125 495.79736328125 513.4469604492188 C 497.2483215332031 496.9510192871094 471.7556457519531 517.3155517578125 472.5367431640625 544.464599609375 C 467.90008544921875 537.2103271484375 460.33709716796875 513.9642333984375 485.1797790527344 498.9501953125 C 487.5269775390625 514.9349975585938 464.5989074707031 502.8857116699219 452.21160888671875 485.70965576171875" stroke-width="6.0" fill="none" stroke="rgb(0, 0, 0)" stroke-opacity="1.0" stroke-linecap="round" stroke-linejoin="round"/>
    <path d="M 442.8354187011719 341.2851867675781 C 425.8832092285156 329.5743713378906 451.8299255371094 338.15277099609375 471.3735656738281 310.2785339355469 C 469.19696044921875 317.3834228515625 468.492919921875 308.72808837890625 475.4247741699219 298.4012145996094 C 466.6583251953125 268.71044921875 490.0700988769531 249.8799285888672 481.342041015625 225.96018981933594 C 480.8248291015625 201.08480834960938 481.6839294433594 180.3074493408203 459.114501953125 179.51217651367188 C 438.45233154296875 188.9501953125 422.01806640625 182.67173767089844 410.01513671875 178.37220764160156" stroke-width="6.0" fill="none" stroke="rgb(0, 0, 0)" stroke-opacity="1.0" stroke-linecap="round" stroke-linejoin="round"/>
    <path d="M 109.3292236328125 486.9463195800781 C 85.81092071533203 483.2606506347656 106.17237854003906 462.970703125 97.43663787841797 459.00830078125 C 88.95084381103516 481.19915771484375 70.85871887207031 462.6131896972656 43.314083099365234 456.2859191894531 C 57.929534912109375 480.3258056640625 37.54829025268555 462.26531982421875 36.30598831176758 472.1799011230469 C 22.253963470458984 467.44561767578125 25.261384963989258 485.434814453125 38.12063980102539 474.9281005859375 C 53.98420333862305 497.8340759277344 54.09572219848633 523.2477416992188 74.67949676513672 516.5786743164062" stroke-width="6.0" fill="none" stroke="rgb(0, 0, 0)" stroke-opacity="1.0" stroke-linecap="round" stroke-linejoin="round"/>
    <path d="M 65.83966827392578 64.72775268554688 C 37.108802795410156 44.060272216796875 37.108856201171875 60.103370666503906 21.299156188964844 70.80198669433594 C 11.827613830566406 99.38829803466797 26.07350730895996 95.44800567626953 13.441506385803223 94.60376739501953 C 29.09549903869629 79.4686050415039 8.245243072509766 80.14299011230469 -6.786749839782715 96.14665222167969 C 15.06325912475586 125.80207824707031 -0.09547910839319229 145.03863525390625 -18.190731048583984 157.42628479003906 C 0.40641656517982483 169.4949951171875 0.5464531779289246 150.3662872314453 30.099552154541016 155.8380584716797" stroke-width="6.0" fill="none" stroke="rgb(0, 0, 0)" stroke-opacity="1.0" stroke-linecap="round" stroke-linejoin="round"/>
    <path d="M 380.706298828125 137.6505126953125 C 358.6440734863281 109.91250610351562 388.0679626464844 135.6584014892578 383.6061706542969 142.6864471435547 C 359.06231689453125 115.74375915527344 353.54010009765625 104.13052368164062 361.5386962890625 88.01617431640625 C 351.6694030761719 86.76789093017578 352.26123046875 95.40027618408203 340.5586242675781 81.51505279541016 C 327.3919677734375 72.57652282714844 322.4364318847656 61.80697250366211 295.2898254394531 34.26032257080078 C 268.4576416015625 48.94560241699219 251.17630004882812 47.22909164428711 275.6452331542969 23.274795532226562" stroke-width="6.0" fill="none" stroke="rgb(0, 0, 0)" stroke-opacity="1.0" stroke-linecap="round" stroke-linejoin="round"/>
    <path d="M 110.90400695800781 568.9969482421875 C 102.71887969970703 557.25830078125 78.53211212158203 528.0780029296875 81.63819885253906 549.7964477539062 C 71.51091003417969 564.2739868164062 63.194007873535156 581.0025024414062 64.92572784423828 573.2980346679688 C 73.94062805175781 555.9000244140625 66.98358917236328 579.1316528320312 44.81271743774414 593.6868896484375 C 22.03397560119629 598.880615234375 46.76458740234375 608.1419067382812 28.190603256225586 620.4215087890625 C 53.72064208984375 594.914306640625 56.515380859375 585.4881591796875 70.03642272949219 614.8668212890625" stroke-width="6.0" fill="none" stroke="rgb(0, 0, 0)" stroke-opacity="1.0" stroke-linecap="round" stroke-linejoin="round"/>
    <path d="M 121.17947387695312 432.4816589355469 C 93.80814361572266 413.98406982421875 96.87786865234375 399.0956115722656 119.50239562988281 420.3019104003906 C 143.87127685546875 448.8494873046875 167.56605529785156 445.7583923339844 180.60562133789062 470.40936279296875 C 154.7081298828125 465.5096130371094 180.54808044433594 465.7417907714844 151.90057373046875 471.6910400390625 C 163.70294189453125 449.4270935058594 136.42965698242188 453.3975524902344 154.09307861328125 465.0257263183594 C 168.53599548339844 458.8753967285156 179.61764526367188 481.0907287597656 207.9099578857422 461.0218200683594" stroke-width="6.0" fill="none" stroke="rgb(0, 0, 0)" stroke-opacity="1.0" stroke-linecap="round" stroke-linejoin="round"/>
    <path d="M 450.41668701171875 230.47024536132812 C 467.17901611328125 224.52117919921875 453.4686584472656 205.6051788330078 433.06884765625 188.67364501953125 C 444.8721618652344 211.3829345703125 462.3509521484375 208.7093963623047 474.7762145996094 210.21377563476562 C 462.9808349609375 193.47396850585938 475.47607421875 196.60301208496094 455.7426452636719 169.33978271484375 C 440.0756530761719 141.64520263671875 418.9240417480469 164.66134643554688 444.598876953125 150.88743591308594 C 462.0361328125 159.43222045898438 446.9766540527344 178.8368377685547 449.0523681640625 148.9208526611328" stroke-width="6.0" fill="none" stroke="rgb(0, 0, 0)" stroke-opacity="1.0" stroke-linecap="round" stroke-linejoin="round"/>
    <path d="M 208.45713806152344 363.1156921386719 C 200.6437530517578 338.1104736328125 212.97145080566406 341.0270080566406 226.29623413085938 335.56756591796875 C 232.9851531982422 325.0456848144531 206.38095092773438 343.9610290527344 225.81686401367188 327.1577453613281 C 253.7705078125 307.7618713378906 282.02679443359375 310.0052185058594 310.7525634765625 326.6564025878906 C 327.5833435058594 303.0429382324219 342.32952880859375 295.9618225097656 351.5989685058594 318.1633605957031 C 359.6173400878906 321.2160339355469 378.628173828125 304.4543762207031 364.7957763671875 309.3941650390625" stroke-width="6.0" fill="none" stroke="rgb(0, 0, 0)" stroke-opacity="1.0" stroke-linecap="round" stroke-linejoin="round"/>
    <path d="M 484.6597595214844 451.75860595703125 C 463.9582824707031 435.62200927734375 477.53546142578125 427.74041748046875 501.66552734375 403.3619079589844 C 482.55633544921875 384.5035400390625 504.2974548339844 365.795166015625 503.7685546875 379.5639343261719 C 512.6224365234375 350.8267822265625 492.39752197265625 331.4908447265625 486.0093994140625 338.0001525878906 C 460.1766357421875 312.2830810546875 444.93182373046875 336.8309631347656 473.114990234375 312.8849792480469 C 474.7217102050781 326.45086669921875 493.2012634277344 332.64849853515625 485.9137878417969 303.89141845703125" stroke-width="6.0" fill="none" stroke="rgb(0, 0, 0)" stroke-opacity="1.0" stroke-linecap="round" stroke-linejoin="round"/>
    <path d="M 495.9173583984375 458.0874328613281 C 504.6262512207031 430.671875 489.48687744140625 405.6875915527344 468.0450134277344 413.3306579589844 C 438.8548278808594 441.3122863769531 466.3518371582031 417.7326354980469 480.5197448730469 408.0360107421875 C 492.96710205078125 390.1753234863281 491.7926025390625 393.9464111328125 488.4122009277344 373.7350769042969 C 478.3175964355469 353.005859375 451.6701354980469 364.5283203125 459.31927490234375 341.8728942871094 C 478.854736328125 318.0817565917969 466.61907958984375 318.7343444824219 486.8080749511719 297.284423828125" stroke-width="6.0" fill="none" stroke="rgb(0, 0, 0)" stroke-opacity="1.0" stroke-linecap="round" stroke-linejoin="round"/>
    <path d="M 547.3001708984375 14.400522232055664 C 542.9283447265625 -6.756887435913086 552.2501831054688 -23.20382308959961 574.9895629882812 -30.11919593811035 C 598.0430297851562 -10.752102851867676 574.7875366210938 -30.57855987548828 551.3956909179688 -54.47438049316406 C 578.7466430664062 -63.03590774536133 585.6884155273438 -85.93484497070312 611.0875854492188 -60.742435455322266 C 634.8228149414062 -54.47205352783203 615.5068969726562 -52.64321517944336 621.4835815429688 -41.87721633911133 C 600.4967651367188 -31.840810775756836 588.590576171875 -12.787059783935547 579.4937133789062 -36.55170440673828" stroke-width="6.0" fill="none" stroke="rgb(0, 0, 0)" stroke-opacity="1.0" stroke-linecap="round" stroke-linejoin="round"/>
    <path d="M 549.7205810546875 397.05902099609375 C 575.6934814453125 415.70220947265625 588.4119262695312 390.28436279296875 558.5426635742188 416.2700500488281 C 537.4212036132812 425.5813293457031 526.6365966796875 419.0572814941406 539.9171752929688 436.1900634765625 C 538.6231689453125 410.1888732910156 543.333740234375 437.76397705078125 530.002197265625 413.1908264160156 C 559.6885375976562 394.1031494140625 552.7896118164062 383.2621154785156 548.219482421875 394.8673400878906 C 543.09619140625 412.5174255371094 533.1041259765625 430.6459045410156 542.3413696289062 415.4003601074219" stroke-width="6.0" fill="none" stroke="rgb(0, 0, 0)" stroke-opacity="1.0" stroke-linecap="round" stroke-linejoin="round"/>
    <path d="M 251.2157745361328 298.24139404296875 C 253.2020263671875 300.18988037109375 272.48626708984375 293.2674865722656 277.38409423828125 288.57794189453125 C 282.0566711425781 300.1878662109375 296.9136962890625 312.4134521484375 281.0252990722656 282.5854187011719 C 310.6995849609375 253.61471557617188 314.20208740234375 281.0716552734375 339.456298828125 254.6462860107422 C 330.377197265625 275.5713806152344 352.383544921875 294.7120056152344 340.1053466796875 273.3204345703125 C 361.3040771484375 301.6296081542969 386.04132080078125 286.179443359375 405.7106628417969 259.5314025878906" stroke-width="6.0" fill="none" stroke="rgb(0, 0, 0)" stroke-opacity="1.0" stroke-linecap="round" stroke-linejoin="round"/>
    <path d="M 82.68079376220703 577.231201171875 C 94.9185562133789 569.8788452148438 66.49937438964844 597.7736206054688 58.8004264831543 609.8577270507812 C 68.56526184082031 584.283935546875 88.8115005493164 606.5125732421875 60.62263870239258 598.42724609375 C 35.362239837646484 573.0511474609375 39.51322555541992 591.873779296875 18.496261596679688 572.8192749023438 C 33.109737396240234 587.7057495117188 45.02357482910156 575.6762084960938 39.71492385864258 565.9163818359375 C 56.59873580932617 577.6312255859375 43.80488204956055 556.9844360351562 66.67430877685547 528.91162109375" stroke-width="6.0" fill="none" stroke="rgb(0, 0, 0)" stroke-opacity="1.0" stroke-linecap="round" stroke-linejoin="round"/>
    <path d="M 450.6997375488281 301.99725341796875 C 421.3517761230469 321.95806884765625 432.10601806640625 344.51666259765625 435.3553771972656 364.2877197265625 C 460.54437255859375 364.40008544921875 473.1055603027344 359.8203125 452.5135803222656 388.2076110839844 C 453.80364990234375 416.88323974609375 431.27166748046875 399.5950622558594 438.4542541503906 382.72943115234375 C 419.4759216308594 397.48919677734375 423.0335693359375 417.9519958496094 442.0270690917969 416.0581359863281 C 430.77850341796875 424.5716247558594 450.4136962890625 404.50103759765625 468.61407470703125 413.29986572265625" stroke-width="6.0" fill="none" stroke="rgb(0, 0, 0)" stroke-opacity="1.0" stroke-linecap="round" stroke-linejoin="round"/>
    <path d="M 116.85835266113281 65.0205307006836 C 91.48686981201172 71.25193786621094 112.2834243774414 42.934871673583984 99.2158432006836 45.38894271850586 C 73.13499450683594 51.21559143066406 88.52633666992188 39.76280975341797 91.66775512695312 48.066131591796875 C 63.60976791381836 34.216217041015625 92.20954895019531 38.10402297973633 95.9939193725586 55.51756286621094 C 68.73475646972656 44.39238357543945 95.34529876708984 14.901108741760254 86.74425506591797 1.8452396392822266 C 80.65243530273438 -16.44173812866211 95.76296997070312 -2.9004504680633545 124.19400787353516 9.258957862854004" stroke-width="6.0" fill="none" stroke="rgb(0, 0, 0)" stroke-opacity="1.0" stroke-linecap="round" stroke-linejoin="round"/>
    <path d="M 58.407901763916016 244.35194396972656 C 72.89498138427734 220.412109375 91.34464263916016 199.4232940673828 96.5751724243164 192.3900146484375 C 101.79666137695312 213.5116424560547 89.20381927490234 192.5639190673828 86.95020294189453 215.7161407470703 C 62.54765319824219 228.82391357421875 85.61177825927734 247.27247619628906 94.90498352050781 263.4019775390625 C 74.56780242919922 291.2220458984375 75.54585266113281 304.9452819824219 84.58956146240234 330.7588806152344 C 75.07564544677734 347.8403625488281 65.4157485961914 339.4590148925781 86.81285858154297 335.3131103515625" stroke-width="6.0" fill="none" stroke="rgb(0, 0, 0)" stroke-opacity="1.0" stroke-linecap="round" stroke-linejoin="round"/>
    <path d="M 534.427978515625 464.4850158691406 C 527.68603515625 447.0542297363281 534.2692260742188 421.55413818359375 513.413330078125 429.22149658203125 C 513.3047485351562 447.50506591796875 491.862060546875 469.7325439453125 494.6902160644531 497.869384765625 C 511.5769348144531 473.0594482421875 487.2237548828125 461.882568359375 513.2671508789062 441.5709228515625 C 500.07415771484375 433.3706359863281 475.387939453125 414.1617736816406 491.7443542480469 399.6383972167969 C 490.1400146484375 385.0 512.739501953125 394.01751708984375 491.16632080078125 371.4554748535156" stroke-width="6.0" fill="none" stroke="rgb(0, 0, 0)" stroke-opacity="1.0" stroke-linecap="round" stroke-linejoin="round"/>
    <path d="M 341.26007080078125 23.775585174560547 C 362.80023193359375 17.831937789916992 384.2203369140625 42.820343017578125 361.9593811035156 34.82427978515625 C 382.6495056152344 61.94697570800781 375.07049560546875 72.87903594970703 375.3870544433594 58.68867874145508 C 397.9192199707031 69.60202026367188 405.15606689453125 78.23402404785156 419.6186218261719 62.92302703857422 C 438.9327087402344 33.439605712890625 460.1163024902344 20.879240036010742 439.608642578125 14.836065292358398 C 413.9673767089844 8.109445571899414 411.7041015625 -16.280366897583008 409.65673828125 -7.731298923492432" stroke-width="6.0" fill="none" stroke="rgb(0, 0, 0)" stroke-opacity="1.0" stroke-linecap="round" stroke-linejoin="round"/>
    <path d="M 540.055908203125 278.8918151855469 C 515.2453002929688 292.7984924316406 540.2929077148438 318.14794921875 556.3458862304688 300.1161804199219 C 546.109130859375 289.1532897949219 575.8954467773438 288.3709716796875 588.0328979492188 286.94415283203125 C 574.6953125 259.2410888671875 554.039794921875 257.43914794921875 562.4528198242188 246.6503448486328 C 534.3322143554688 252.67498779296875 527.1492919921875 278.8625793457031 518.8388671875 274.7091369628906 C 517.243408203125 247.95379638671875 539.3246459960938 275.11248779296875 550.385009765625 261.2633972167969" stroke-width="6.0" fill="none" stroke="rgb(0, 0, 0)" stroke-opacity="1.0" stroke-linecap="round" stroke-linejoin="round"/>
    <path d="M 381.39239501953125 50.17477035522461 C 355.5879211425781 44.4788818359375 343.4481506347656 57.211280822753906 365.7254943847656 58.657958984375 C 375.9041442871094 44.224788665771484 395.7370910644531 19.77126693725586 419.8356018066406 10.292415618896484 C 435.046142578125 -9.815587043762207 426.00274658203125 -14.669523239135742 424.5326843261719 -3.339693307876587 C 404.1740417480469 8.461711883544922 395.4555969238281 20.035797119140625 388.8038635253906 -9.368310928344727 C 405.7882080078125 -3.540592908859253 380.45672607421875 6.537156581878662 387.44744873046875 -4.038889408111572" stroke-width="6.0" fill="none" stroke="rgb(0, 0, 0)" stroke-opacity="1.0" stroke-linecap="round" stroke-linejoin="round"/>
    <path d="M 591.8207397460938 563.3814697265625 C 606.3909301757812 577.5845947265625 595.3818969726562 556.614990234375 592.8814086914062 535.4441528320312 C 614.739501953125 512.2605590820312 642.9380493164062 506.643798828125 644.1796264648438 476.86444091796875 C 641.233154296875 496.8350524902344 618.776123046875 493.79473876953125 646.943603515625 469.64154052734375 C 630.0609741210938 498.3834533691406 625.271484375 501.14862060546875 605.2376098632812 493.802001953125 C 596.1226806640625 520.944580078125 624.4274291992188 525.5548095703125 595.2896728515625 544.381591796875" stroke-width="6.0" fill="none" stroke="rgb(0, 0, 0)" stroke-opacity="1.0" stroke-linecap="round" stroke-linejoin="round"/>
    <path d="M 9.714760780334473 537.992919921875 C 9.839873313903809 560.0584106445312 21.79890251159668 568.9931030273438 19.158750534057617 563.6163330078125 C 10.291424751281738 566.1643676757812 11.68161392211914 582.0692138671875 -11.515585899353027 562.6180419921875 C -15.812569618225098 543.2317504882812 -10.119060516357422 545.7975463867188 -17.225261688232422 566.5030517578125 C -5.912222385406494 562.752685546875 -18.917320251464844 569.9752197265625 6.590815544128418 591.3950805664062 C 36.31260681152344 609.75146484375 12.54133129119873 618.7289428710938 19.516952514648438 613.40576171875" stroke-width="6.0" fill="none" stroke="rgb(0, 0, 0)" stroke-opacity="1.0" stroke-linecap="round" stroke-linejoin="round"/>
    <path d="M 297.8229675292969 451.01605224609375 C 323.4966735839844 426.9981994628906 320.14288330078125 431.8721923828125 292.10101318359375 419.2664794921875 C 287.3394775390625 402.6392517089844 284.61724853515625 395.5040283203125 266.35089111328125 393.71844482421875 C 243.81732177734375 421.7754211425781 268.6590576171875 416.5115051269531 287.8841247558594 428.74163818359375 C 302.3133544921875 399.2379150390625 294.7919616699219 382.67413330078125 281.8082275390625 405.4105529785156 C 267.6781921386719 425.7196044921875 285.386474609375 420.60260009765625 269.8797302246094 444.65380859375" stroke-width="6.0" fill="none" stroke="rgb(0, 0, 0)" stroke-opacity="1.0" stroke-linecap="round" stroke-linejoin="round"/>
    <path d="M 248.73399353027344 9.318038940429688 C 227.9365234375 1.7823833227157593 246.93893432617188 20.984447479248047 252.91566467285156 11.109843254089355 C 280.46533203125 40.63958740234375 264.9751892089844 69.04901123046875 246.53480529785156 77.71508026123047 C 266.28778076171875 95.79497528076172 270.9590148925781 73.56719970703125 279.1354064941406 102.16853332519531 C 259.5184631347656 126.41881561279297 260.5550842285156 122.66291809082031 236.52975463867188 140.7732391357422 C 236.78518676757812 148.65969848632812 253.84205627441406 169.2415313720703 261.5211486816406 154.81533813476562" stroke-width="6.0" fill="none" stroke="rgb(0, 0, 0)" stroke-opacity="1.0" stroke-linecap="round" stroke-linejoin="round"/>
    <path d="M 331.7432861328125 569.22021484375 C 313.96905517578125 544.8161010742188 310.2143249511719 552.5497436523438 315.83160400390625 524.1988525390625 C 328.24615478515625 549.4345092773438 302.9725341796875 542.3787841796875 317.5129089355469 520.211669921875 C 314.7352600097656 528.101806640625 306.2225341796875 512.485107421875 330.09710693359375 500.30047607421875 C 332.22216796875 485.05572509765625 349.0238952636719 502.2185974121094 365.24737548828125 511.7740478515625 C 351.7850646972656 537.8726806640625 359.39154052734375 546.1358032226562 364.15283203125 522.3409423828125" stroke-width="6.0" fill="none" stroke="rgb(0, 0, 0)" stroke-opacity="1.0" stroke-linecap="round" stroke-linejoin="round"/>
    <path d="M 275.4966125488281 357.5166931152344 C 251.92123413085938 344.4644470214844 275.5575256347656 320.0310974121094 275.2122497558594 311.7149353027344 C 295.5511474609375 305.2029113769531 294.973388671875 276.4803466796875 269.3879699707031 304.0733642578125 C 244.0067138671875 315.31353759765625 236.48196411132812 304.1286315917969 260.9801330566406 322.6416015625 C 241.80850219726562 293.25 222.5291290283203 297.2476501464844 228.92843627929688 269.1746826171875 C 257.4433898925781 298.7990417480469 256.4780578613281 305.6393127441406 259.3069763183594 285.1026611328125" stroke-width="6.0" fill="none" stroke="rgb(0, 0, 0)" stroke-opacity="1.0" stroke-linecap="round" stroke-linejoin="round"/>
    <path d="M 445.0380859375 555.9699096679688 C 426.6087951660156 527.7432250976562 397.9911193847656 528.4479370117188 377.1318664550781 550.4603881835938 C 353.97918701171875 533.4778442382812 343.6315612792969 516.6635131835938 357.29620361328125 543.0543823242188 C 343.3916015625 541.9489135742188 370.5453796386719 532.822021484375 373.6352233886719 520.5213623046875 C 388.3468933105469 520.2293701171875 389.10626220703125 514.2259521484375 370.7295227050781 494.603515625 C 381.9529724121094 517.8424072265625 368.81793212890625 511.4120178222656 373.7968444824219 527.39892578125" stroke-width="6.0" fill="none" stroke="rgb(0, 0, 0)" stroke-opacity="1.0" stroke-linecap="round" stroke-linejoin="round"/>
    <path d="M 186.97108459472656 476.4397277832031 C 214.19680786132812 475.7496032714844 237.16824340820312 471.1338806152344 251.9929962158203 490.08740234375 C 259.3676452636719 496.525146484375 255.08642578125 500.5536804199219 247.5240478515625 508.5555419921875 C 221.38003540039062 488.59051513671875 193.4056396484375 489.27191162109375 198.65780639648438 476.88031005859375 C 218.25897216796875 485.586181640625 246.16770935058594 476.681396484375 217.96409606933594 457.5156555175781 C 207.2849578857422 474.96942138671875 198.7496337890625 449.2878723144531 208.1669158935547 441.605712890625" stroke-width="6.0" fill="none" stroke="rgb(0, 0, 0)" stroke-opacity="1.0" stroke-linecap="round" stroke-linejoin="round"/>
    <path d="M 467.7287292480469 73.36216735839844 C 456.84405517578125 44.0162239074707 446.57623291015625 41.93882369995117 464.29058837890625 65.86346435546875 C 467.9490661621094 59.03891372680664 474.0571594238281 60.6346549987793 450.2723693847656 47.31756591796875 C 456.7066345214844 70.31917572021484 478.3013916015625 44.80862045288086 501.9012145996094 40.153629302978516 C 517.2332763671875 29.22062873840332 506.44061279296875 11.008024215698242 524.6040649414062 10.927083969116211 C 554.0396728515625 6.221316814422607 531.4852294921875 -13.510298728942871 521.0977172851562 -20.538846969604492" stroke-width="6.0" fill="none" stroke="rgb(0, 0, 0)" stroke-opacity="1.0" stroke-linecap="round" stroke-linejoin="round"/>
    <path d="M 345.82830810546875 171.0021514892578 C 354.44830322265625 192.4083251953125 383.7255859375 217.06692504882812 370.78753662109375 237.56549072265625 C 364.9561767578125 261.3552551269531 390.0782470703125 233.7024688720703 398.7647705078125 207.86972045898438 C 374.4319763183594 225.9805145263672 387.8271789550781 212.46092224121094 403.08868408203125 206.52159118652344 C 406.4757080078125 195.31207275390625 413.2149658203125 188.91172790527344 424.96240234375 186.1866455078125 C 445.88275146484375 214.2157745361328 423.2074890136719 206.61013793945312 430.2861328125 178.40745544433594" stroke-width="6.0" fill="none" stroke="rgb(0, 0, 0)" stroke-opacity="1.0" stroke-linecap="round" stroke-linejoin="round"/>
    <path d="M 28.700544357299805 6.237616062164307 C 5.008685111999512 -4.390841484069824 16.264619827270508 -8.249894142150879 -3.523893356323242 -26.780311584472656 C 20.612695693969727 -34.64754104614258 44.7855339050293 -5.2736382484436035 70.8321533203125 16.807252883911133 C 56.413414001464844 33.90389633178711 33.06163024902344 60.73258972167969 7.564159870147705 50.49232482910156 C 14.329197883605957 69.241455078125 0.5239211320877075 49.46177673339844 -21.21027946472168 47.1034049987793 C -43.632957458496094 68.81710052490234 -28.450868606567383 92.08499908447266 -0.5006914734840393 86.88262939453125" stroke-width="6.0" fill="none" stroke="rgb(0, 0, 0)" stroke-opacity="1.0" stroke-linecap="round" stroke-linejoin="round"/>
    <path d="M 268.08782958984375 73.40399169921875 C 269.7431640625 78.07707214355469 279.4193115234375 106.65803527832031 268.6940002441406 120.5499038696289 C 252.2438201904297 106.37863159179688 240.0178680419922 81.30628967285156 243.5688018798828 103.67862701416016 C 253.09764099121094 117.83472442626953 235.45111083984375 92.5157241821289 263.7970275878906 66.13174438476562 C 234.5447235107422 49.099876403808594 253.6553955078125 30.374919891357422 229.92747497558594 12.894606590270996 C 235.3988800048828 14.513285636901855 256.9064025878906 30.142562866210938 245.575927734375 27.383880615234375" stroke-width="6.0" fill="none" stroke="rgb(0, 0, 0)" stroke-opacity="1.0" stroke-linecap="round" stroke-linejoin="round"/>
    <path d="M 92.41934967041016 302.6868591308594 C 117.2668685913086 285.8139343261719 109.04549407958984 314.3577880859375 131.1170196533203 315.12567138671875 C 147.9182891845703 296.4028625488281 134.62860107421875 276.2546691894531 123.0573959350586 298.4445495605469 C 131.92037963867188 277.3218994140625 154.53216552734375 292.0234680175781 138.9259033203125 315.6693420410156 C 120.14768981933594 287.384521484375 129.86082458496094 284.50299072265625 115.83554077148438 310.11865234375 C 90.83954620361328 306.007080078125 69.87675476074219 306.1784973144531 70.35236358642578 279.367919921875" stroke-width="6.0" fill="none" stroke="rgb(0, 0, 0)" stroke-opacity="1.0" stroke-linecap="round" stroke-linejoin="round"/>
    <path d="M 163.57333374023438 58.66761779785156 C 172.4906005859375 72.6277084350586 167.80592346191406 60.268070220947266 162.00746154785156 65.9110107421875 C 163.78121948242188 65.48799896240234 159.79513549804688 76.35762786865234 168.57583618164062 103.93592834472656 C 151.7106170654297 77.12419128417969 123.85189819335938 63.09489059448242 97.84273529052734 39.15681076049805 C 81.43063354492188 46.370052337646484 94.3800277709961 39.88453674316406 70.45828247070312 53.91999435424805 C 93.20995330810547 39.99601364135742 75.55227661132812 57.13967514038086 66.41026306152344 44.419227600097656" stroke-width="6.0" fill="none" stroke="rgb(0, 0, 0)" stroke-opacity="1.0" stroke-linecap="round" stroke-linejoin="round"/>
    <path d="M 357.76806640625 440.3493347167969 C 333.46258544921875 440.5437316894531 345.4908752441406 439.1492614746094 333.810302734375 463.5093688964844 C 318.1274719238281 452.4161071777344 292.29473876953125 433.6567687988281 316.2868957519531 412.1667785644531 C 287.0509948730469 410.6428527832031 277.09423828125 391.2937316894531 262.88421630859375 365.912353515625 C 273.6363830566406 387.1376953125 279.27667236328125 415.3102111816406 284.3061828613281 414.56866455078125 C 269.15679931640625 391.1318054199219 288.29241943359375 395.1678161621094 317.7171936035156 415.28936767578125" stroke-width="6.0" fill="none" stroke="rgb(0, 0, 0)" stroke-opacity="1.0" stroke-linecap="round" stroke-linejoin="round"/>
    <path d="M 315.1815185546875 100.40283966064453 C 293.9764709472656 76.03744506835938 282.2525939941406 90.20863342285156 279.4095764160156 104.29753112792969 C 308.79718017578125 89.73789978027344 307.9867858886719 81.55526733398438 278.7604675292969 72.71285247802734 C 291.369873046875 96.23519134521484 307.8414611816406 117.6125717163086 332.0114440917969 123.35718536376953 C 308.7371520996094 134.5042266845703 322.4300537109375 105.74786376953125 351.1483459472656 127.1238021850586 C 360.75030517578125 105.62178039550781 360.6202392578125 90.28385925292969 375.08099365234375 118.68128967285156" stroke-width="6.0" fill="none" stroke="rgb(0, 0, 0)" stroke-opacity="1.0" stroke-linecap="round" stroke-linejoin="round"/>
    <path d="M 215.67196655273438 446.6390380859375 C 197.302490234375 473.92791748046875 205.6265106201172 501.81512451171875 228.25515747070312 512.543212890625 C 252.16842651367188 509.5393371582031 279.66680908203125 511.1537780761719 265.5853576660156 521.8977661132812 C 288.86505126953125 515.359375 283.94268798828125 544.9559326171875 272.5021057128906 517.4219360351562 C 273.6667785644531 508.05841064453125 280.4088134765625 504.0660095214844 277.7504577636719 532.1151733398438 C 295.25091552734375 519.419677734375 323.41912841796875 519.3553466796875 334.55072021484375 517.3343505859375" stroke-width="6.0" fill="none" stroke="rgb(0, 0, 0)" stroke-opacity="1.0" stroke-linecap="round" stroke-linejoin="round"/>
    <path d="M 90.13665008544922 580.0028686523438 C 97.56436157226562 589.8621215820312 85.78309631347656 577.15771484375 103.75019836425781 548.11328125 C 76.20738983154297 535.0942993164062 81.79168701171875 508.2858581542969 70.14097595214844 504.105224609375 C 79.77617645263672 474.1237487792969 64.8621826171875 465.1368408203125 51.85811233520508 486.677490234375 C 61.777671813964844 502.8105773925781 41.079891204833984 477.9707946777344 27.320024490356445 507.72564697265625 C 9.123669624328613 512.8391723632812 -16.033254623413086 495.97064208984375 -17.642587661743164 487.2485656738281" stroke-width="6.0" fill="none" stroke="rgb(0, 0, 0)" stroke-opacity="1.0" stroke-linecap="round" stroke-linejoin="round"/>
    <path d="M 487.0054626464844 382.2068176269531 C 482.3592529296875 410.22119140625 458.2475891113281 395.8968811035156 446.3689270019531 384.541015625 C 450.2433776855469 395.3163757324219 439.5921630859375 400.00640869140625 450.5914306640625 381.93682861328125 C 428.73291015625 385.1938781738281 416.7566223144531 360.3697204589844 420.7965393066406 368.06884765625 C 423.5463562011719 360.6268310546875 446.1016845703125 356.8003845214844 424.41827392578125 353.3544616699219 C 413.1739196777344 379.4472351074219 425.9298095703125 377.54998779296875 421.5899658203125 372.7803039550781" stroke-width="6.0" fill="none" stroke="rgb(0, 0, 0)" stroke-opacity="1.0" stroke-linecap="round" stroke-linejoin="round"/>
    <path d="M 246.1751708984375 16.583765029907227 C 249.709716796875 44.07326889038086 244.96484375 59.424659729003906 251.87734985351562 47.568058013916016 C 236.39608764648438 48.30046463012695 214.03257751464844 50.896636962890625 217.96705627441406 38.45722579956055 C 233.28717041015625 32.01678466796875 227.50369262695312 2.4139561653137207 245.9525604248047 24.908607482910156 C 243.54579162597656 -1.8506168127059937 216.82736206054688 17.94304084777832 225.82015991210938 7.952047824859619 C 201.6641082763672 -4.613336563110352 200.55218505859375 -14.734880447387695 174.20407104492188 -0.3065045475959778" stroke-width="6.0" fill="none" stroke="rgb(0, 0, 0)" stroke-opacity="1.0" stroke-linecap="round" stroke-linejoin="round"/>
    <path d="M 404.6678161621094 443.6380615234375 C 377.80902099609375 425.94189453125 356.4581298828125 440.327392578125 356.21636962890625 423.739990234375 C 366.7572326660156 444.8753356933594 354.7707824707031 433.5287780761719 384.12030029296875 403.91583251953125 C 383.2575988769531 415.18231201171875 360.14013671875 385.1844482421875 366.3276062011719 362.4864807128906 C 342.139404296875 344.7441101074219 340.5639343261719 364.7077331542969 337.1929016113281 338.046875 C 314.5015869140625 332.3203430175781 343.46337890625 351.5365905761719 363.96661376953125 354.3397521972656" stroke-width="6.0" fill="none" stroke="rgb(0, 0, 0)" stroke-opacity="1.0" stroke-linecap="round" stroke-linejoin="round"/>
    <path d="M 492.99188232421875 408.77227783203125 C 514.5907592773438 415.8017883300781 510.491943359375 423.9736328125 491.5804138183594 443.0866394042969 C 501.0283508300781 423.3331604003906 515.5281982421875 426.134033203125 514.1376953125 413.53619384765625 C 524.1898803710938 441.0816650390625 523.7677001953125 451.1436462402344 517.2390747070312 463.0028076171875 C 493.63922119140625 458.05657958984375 489.1291809082031 429.7348327636719 486.5940856933594 433.5473937988281 C 457.2552795410156 421.71307373046875 465.9618225097656 445.3463439941406 473.1543884277344 417.9042053222656" stroke-width="6.0" fill="none" stroke="rgb(0, 0, 0)" stroke-opacity="1.0" stroke-linecap="round" stroke-linejoin="round"/>
    <path d="M 544.2350463867188 577.6779174804688 C 542.3094482421875 591.0618286132812 528.9237060546875 619.9671020507812 520.3886108398438 641.3173828125 C 520.5809326171875 632.2474365234375 532.9544067382812 625.6848754882812 506.7203369140625 635.0401000976562 C 497.8323669433594 648.192626953125 488.1898193359375 661.1035766601562 505.39166259765625 647.803955078125 C 521.1480712890625 635.9797973632812 514.7838134765625 660.9494018554688 523.4918823242188 653.540771484375 C 521.7969970703125 663.0790405273438 526.3593139648438 688.7237548828125 542.8832397460938 690.2498168945312" stroke-width="6.0" fill="none" stroke="rgb(0, 0, 0)" stroke-opacity="1.0" stroke-linecap="round" stroke-linejoin="round"/>
    <path d="M 77.67317199707031 194.46597290039062 C 104.98485565185547 185.3516845703125 112.03335571289062 179.57810974121094 84.6891098022461 200.69998168945312 C 64.2598876953125 176.47239685058594 40.633113861083984 202.5264434814453 39.23788833618164 218.1409912109375 C 68.11759185791016 236.6543426513672 82.076416015625 220.8513641357422 106.06407165527344 201.251220703125 C 129.61245727539062 216.6000518798828 124.8158187866211 190.50225830078125 131.53004455566406 167.3306884765625 C 152.2981414794922 141.7436065673828 168.09925842285156 148.13558959960938 188.5800323486328 173.50863647460938" stroke-width="6.0" fill="none" stroke="rgb(0, 0, 0)" stroke-opacity="1.0" stroke-linecap="round" stroke-linejoin="round"/>
    <path d="M 192.67552185058594 419.2154235839844 C 185.33326721191406 448.5476989746094 189.76004028320312 430.5317687988281 174.94973754882812 426.78265380859375 C 162.11509704589844 408.854248046875 141.80047607421875 427.6844787597656 160.36080932617188 409.26220703125 C 165.28729248046875 417.0091552734375 175.3667755126953 399.2215270996094 194.00732421875 422.8190002441406 C 185.5809783935547 417.2606506347656 188.37582397460938 391.57855224609375 169.45408630371094 405.377197265625 C 194.11338806152344 413.95111083984375 193.92391967773438 433.895263671875 198.14613342285156 432.279296875" stroke-width="6.0" fill="none" stroke="rgb(0, 0, 0)" stroke-opacity="1.0" stroke-linecap="round" stroke-linejoin="round"/>
    <path d="M 211.24363708496094 371.06732177734375 C 214.7654571533203 349.3797302246094 188.79473876953125 345.0304260253906 181.36184692382812 319.282470703125 C 156.09046936035156 336.2257385253906 143.98410034179688 313.3013610839844 127.8185043334961 319.35076904296875 C 117.6336898803711 302.83203125 144.11074829101562 328.1284484863281 129.1536407470703 340.3248291015625 C 103.23082733154297 362.6132507324219 131.3577117919922 337.13983154296875 135.8790740966797 358.2915954589844 C 161.78761291503906 358.2944030761719 155.74078369140625 331.7332763671875 167.55186462402344 308.34576416015625" stroke-width="6.0" fill="none" stroke="rgb(0, 0, 0)" stroke-opacity="1.0" stroke-linecap="round" stroke-linejoin="round"/>
    <path d="M 282.5672302246094 550.454833984375 C 268.3504333496094 522.2535400390625 258.6731262207031 507.9063415527344 248.74560546875 523.75048828125 C 227.10292053222656 526.5757446289062 241.13528442382812 552.0261840820312 250.93545532226562 574.7623901367188 C 235.05247497558594 549.1171264648438 261.9323425292969 573.3765869140625 274.1177673339844 589.3109741210938 C 246.239501953125 618.1743774414062 273.2339782714844 624.063232421875 279.9799499511719 598.8988037109375 C 283.0654296875 625.69482421875 269.29595947265625 598.1993408203125 241.4319610595703 598.6555786132812" stroke-width="6.0" fill="none" stroke="rgb(0, 0, 0)" stroke-opacity="1.0" stroke-linecap="round" stroke-linejoin="round"/>
    <path d="M 390.18218994140625 258.9293212890625 C 378.4272766113281 279.9193420410156 406.7152099609375 251.20594787597656 380.03662109375 267.62274169921875 C 398.67840576171875 269.67388916015625 420.3360595703125 280.5503845214844 434.6114807128906 283.70013427734375 C 407.6999206542969 299.6809997558594 419.4263610839844 295.42413330078125 415.036376953125 273.7303466796875 C 411.353515625 297.55914306640625 440.265625 289.6216735839844 421.88433837890625 285.8131408691406 C 395.35968017578125 269.73516845703125 400.71673583984375 253.36273193359375 415.5652770996094 276.62286376953125" stroke-width="6.0" fill="none" stroke="rgb(0, 0, 0)" stroke-opacity="1.0" stroke-linecap="round" stroke-linejoin="round"/>
    <path d="M 475.9284973144531 340.8491516113281 C 505.38482666015625 311.7430725097656 518.574462890625 330.5003967285156 493.1311340332031 308.10333251953125 C 473.9667663574219 280.72650146484375 464.9468078613281 290.0390319824219 449.6014709472656 277.58380126953125 C 456.00885009765625 276.2658996582031 433.3514404296875 250.91412353515625 418.3233947753906 253.53289794921875 C 418.0191650390625 267.6060485839844 409.4366760253906 292.5120849609375 392.6539001464844 305.30010986328125 C 419.1794738769531 322.152587890625 406.7005310058594 331.3712158203125 408.3111877441406 317.42333984375" stroke-width="6.0" fill="none" stroke="rgb(0, 0, 0)" stroke-opacity="1.0" stroke-linecap="round" stroke-linejoin="round"/>
    <path d="M 418.64300537109375 302.0472412109375 C 391.9228515625 326.1127624511719 404.2529602050781 333.38507080078125 391.0400085449219 315.6383361816406 C 369.2678527832031 344.19464111328125 353.10003662109375 358.6692199707031 335.7461853027344 351.0126037597656 C 354.72900390625 329.5302734375 383.403564453125 341.4307861328125 392.3980712890625 338.6965637207031 C 369.21240234375 338.6309814453125 341.23779296875 325.30902099609375 334.2883605957031 344.93975830078125 C 309.35797119140625 331.6853332519531 315.9428405761719 331.3667907714844 337.74920654296875 324.44659423828125" stroke-width="6.0" fill="none" stroke="rgb(0, 0, 0)" stroke-opacity="1.0" stroke-linecap="round" stroke-linejoin="round"/>
    <path d="M 26.649328231811523 123.43807220458984 C 7.714937686920166 119.30316925048828 -19.149484634399414 107.612060546875 -16.656532287597656 98.4803237915039 C -45.097007751464844 105.00468444824219 -21.506845474243164 130.36660766601562 2.9401297569274902 148.98123168945312 C 8.3976469039917 164.41635131835938 -1.145689606666565 184.1707305908203 -5.101129055023193 179.8236846923828 C 8.65243911743164 193.94854736328125 -17.92044448852539 170.50115966796875 -24.633811950683594 183.77899169921875 C -13.955639839172363 205.28982543945312 12.322924613952637 203.0999755859375 16.6790771484375 207.1981658935547" stroke-width="6.0" fill="none" stroke="rgb(0, 0, 0)" stroke-opacity="1.0" stroke-linecap="round" stroke-linejoin="round"/>
    <path d="M 311.3277282714844 97.50932312011719 C 304.2052001953125 112.24736022949219 329.68487548828125 90.15972137451172 300.5958557128906 108.175048828125 C 327.6539001464844 83.30726623535156 312.64984130859375 85.87553405761719 302.90179443359375 79.55160522460938 C 309.8746032714844 71.21330261230469 319.42840576171875 88.15888214111328 338.0439758300781 94.63883209228516 C 315.5023498535156 98.78528594970703 304.76171875 84.61634826660156 285.44879150390625 82.37980651855469 C 281.8433532714844 80.36617279052734 309.83648681640625 79.21864318847656 330.4960021972656 62.24919891357422" stroke-width="6.0" fill="none" stroke="rgb(0, 0, 0)" stroke-opacity="1.0" stroke-linecap="round" stroke-linejoin="round"/>
    <path d="M 35.150901794433594 563.300537109375 C 21.737640380859375 569.9202880859375 10.579233169555664 543.7628784179688 -8.63253116607666 559.7214965820312 C -22.063871383666992 581.8648071289062 -44.43052291870117 589.68505859375 -65.61641693115234 596.7620849609375 C -92.64163208007812 573.6288452148438 -120.33153533935547 584.6953735351562 -98.69731140136719 589.48876953125 C -126.17996978759766 602.5302124023438 -152.5312042236328 615.4032592773438 -166.9879150390625 600.8499145507812 C -156.28465270996094 622.29931640625 -165.0845489501953 635.3984985351562 -159.0498046875 626.3822631835938" stroke-width="6.0" fill="none" stroke="rgb(0, 0, 0)" stroke-opacity="1.0" stroke-linecap="round" stroke-linejoin="round"/>
    <path d="M 46.48748779296875 266.2876281738281 C 47.14961624145508 250.50634765625 36.69696044921875 242.7878875732422 56.058536529541016 237.74607849121094 C 64.57176208496094 260.2972717285156 43.15652847290039 249.8896942138672 60.44639587402344 239.9888458251953 C 54.93465042114258 249.10752868652344 53.175750732421875 277.5176086425781 60.4907341003418 257.1363830566406 C 33.16736602783203 282.95489501953125 57.879722595214844 254.4870147705078 64.42201232910156 272.96905517578125 C 65.06978607177734 289.82147216796875 65.56072235107422 294.7106628417969 56.20388412475586 277.6028137207031" stroke-width="6.0" fill="none" stroke="rgb(0, 0, 0)" stroke-opacity="1.0" stroke-linecap="round" stroke-linejoin="round"/>
    <path d="M 498.43603515625 19.559717178344727 C 512.0116577148438 12.425097465515137 541.8809204101562 -12.868205070495605 516.4996948242188 13.243143081665039 C 499.9744567871094 13.45263385772705 504.4407958984375 16.346603393554688 499.525634765625 30.329341888427734 C 520.3812866210938 31.994731903076172 493.4671936035156 30.37447738647461 494.97406005859375 26.835521697998047 C 481.0850524902344 46.9560546875 468.6689758300781 31.637798309326172 453.2533874511719 47.65639877319336 C 444.9712829589844 45.00566864013672 459.862548828125 21.930686950683594 444.32537841796875 35.89858627319336" stroke-width="6.0" fill="none" stroke="rgb(0, 0, 0)" stroke-opacity="1.0" stroke-linecap="round" stroke-linejoin="round"/>
    <path d="M 528.1160278320312 217.1086883544922 C 519.235107421875 217.4873046875 544.1132202148438 226.68710327148438 550.4664306640625 223.62518310546875 C 545.597412109375 227.74571228027344 565.2044677734375 205.26258850097656 567.46142578125 221.8494873046875 C 561.87841796875 226.97482299804688 540.1668090820312 212.59153747558594 527.3799438476562 201.42221069335938 C 502.27032470703125 196.68356323242188 531.26513671875 201.24427795410156 539.2630004882812 217.60296630859375 C 563.2553100585938 240.1472930908203 534.18603515625 217.39463806152344 519.9486083984375 220.6693572998047" stroke-width="6.0" fill="none" stroke="rgb(0, 0, 0)" stroke-opacity="1.0" stroke-linecap="round" stroke-linejoin="round"/>
    <path d="M 558.0551147460938 445.7323913574219 C 535.6389770507812 417.7769470214844 531.564208984375 429.1397399902344 560.960205078125 407.12237548828125 C 582.9730224609375 432.2397766113281 607.1885986328125 423.5018615722656 601.32763671875 426.91827392578125 C 614.066650390625 404.0400695800781 637.9122924804688 427.9412841796875 643.4009399414062 434.9390869140625 C 673.0490112304688 407.6533508300781 687.3738403320312 398.9508056640625 684.3076171875 393.4832763671875 C 681.2928466796875 413.5715637207031 668.6503295898438 412.1979064941406 646.7265625 393.2049865722656" stroke-width="6.0" fill="none" stroke="rgb(0, 0, 0)" stroke-opacity="1.0" stroke-linecap="round" stroke-linejoin="round"/>
    <path d="M 459.5934143066406 549.8251342773438 C 485.79071044921875 524.8524780273438 509.5266418457031 530.4656982421875 501.7191162109375 539.4299926757812 C 494.44158935546875 535.7051391601562 494.96160888671875 540.989990234375 521.687744140625 516.803955078125 C 509.5285949707031 507.31097412109375 513.3765258789062 531.1491088867188 518.1661987304688 551.7930297851562 C 513.7275390625 541.1610107421875 502.84228515625 521.865966796875 481.4340515136719 540.7052001953125 C 495.5315856933594 570.0375366210938 478.17242431640625 571.1856079101562 482.6806640625 578.1142578125" stroke-width="6.0" fill="none" stroke="rgb(0, 0, 0)" stroke-opacity="1.0" stroke-linecap="round" stroke-linejoin="round"/>
    <path d="M 59.6799201965332 170.87457275390625 C 36.79298400878906 157.30548095703125 33.12799072265625 180.4264373779297 20.43671989440918 205.48802185058594 C 49.765052795410156 220.69615173339844 75.23600769042969 230.6821746826172 53.69619369506836 213.09274291992188 C 74.02359008789062 228.38462829589844 45.66460037231445 252.537109375 73.2760009765625 254.9468994140625 C 91.21552276611328 225.3468017578125 111.16578674316406 196.89344787597656 93.354248046875 223.36181640625 C 97.62415313720703 237.28717041015625 98.87779235839844 257.1494445800781 86.57427978515625 233.726318359375" stroke-width="6.0" fill="none" stroke="rgb(0, 0, 0)" stroke-opacity="1.0" stroke-linecap="round" stroke-linejoin="round"/>
    <path d="M 423.81329345703125 506.8664855957031 C 420.47760009765625 502.80242919921875 406.260986328125 524.672607421875 435.8456115722656 538.5305786132812 C 412.81341552734375 529.77392578125 387.55743408203125 547.3731079101562 401.2191162109375 537.0200805664062 C 401.6427307128906 523.5865478515625 409.48016357421875 524.357177734375 426.1029052734375 536.7657470703125 C 414.97149658203125 562.2295532226562 410.97418212890625 588.171630859375 428.62493896484375 577.2229614257812 C 449.0929260253906 586.8743896484375 471.74627685546875 559.00927734375 479.8561096191406 529.4874877929688" stroke-width="6.0" fill="none" stroke="rgb(0, 0, 0)" stroke-opacity="1.0" stroke-linecap="round" stroke-linejoin="round"/>
    <path d="M 82.1447982788086 225.70542907714844 C 108.69454956054688 236.10629272460938 94.61170959472656 215.23220825195312 113.48384094238281 229.20591735839844 C 100.4398193359375 211.1202850341797 122.99165344238281 238.17025756835938 144.3810577392578 253.17703247070312 C 114.57292938232422 227.21270751953125 118.03715515136719 209.7255096435547 98.72406005859375 204.81507873535156 C 84.50849151611328 197.6324920654297 89.54243469238281 205.89537048339844 88.59645080566406 215.31182861328125 C 69.4202651977539 203.2978515625 53.333866119384766 190.82481384277344 52.437469482421875 208.62957763671875" stroke-width="6.0" fill="none" stroke="rgb(0, 0, 0)" stroke-opacity="1.0" stroke-linecap="round" stroke-linejoin="round"/>
    <path d="M 235.3060302734375 214.29672241210938 C 234.16357421875 190.08871459960938 210.90562438964844 212.9424285888672 226.2432861328125 200.1787109375 C 254.36500549316406 189.6625213623047 264.110107421875 166.61167907714844 261.9942932128906 155.78604125976562 C 238.84645080566406 167.60415649414062 251.13558959960938 184.0250701904297 250.15989685058594 202.26834106445312 C 249.51036071777344 196.98851013183594 233.60195922851562 184.44432067871094 234.0511932373047 207.8729705810547 C 251.0208740234375 181.52117919921875 267.3287658691406 167.2174835205078 256.3858947753906 160.66017150878906" stroke-width="6.0" fill="none" stroke="rgb(0, 0, 0)" stroke-opacity="1.0" stroke-linecap="round" stroke-linejoin="round"/>
    <path d="M 265.19091796875 239.18771362304688 C 289.89306640625 225.28672790527344 303.6242370605469 215.7172393798828 322.7357177734375 204.1878662109375 C 317.3244323730469 208.5382080078125 297.27655029296875 190.91024780273438 304.79376220703125 217.82293701171875 C 311.6319580078125 207.60398864746094 317.92962646484375 178.79917907714844 331.223388671875 196.90396118164062 C 306.67852783203125 209.18777465820312 331.4122314453125 225.1982879638672 334.58587646484375 234.49420166015625 C 335.7048034667969 226.2200469970703 317.6112060546875 205.6396484375 319.7531433105469 227.22300720214844" stroke-width="6.0" fill="none" stroke="rgb(0, 0, 0)" stroke-opacity="1.0" stroke-linecap="round" stroke-linejoin="round"/>
    <path d="M 137.6206817626953 480.7912292480469 C 162.25990295410156 470.6813659667969 145.1968231201172 484.6814270019531 171.59764099121094 456.8459167480469 C 142.79934692382812 483.2672119140625 118.9505844116211 477.1034851074219 118.0445785522461 456.5202331542969 C 106.09257507324219 440.3605041503906 122.4372787475586 425.1590576171875 108.7847671508789 402.6175842285156 C 125.86797332763672 411.9341735839844 103.73957061767578 426.3656921386719 89.89949798583984 401.460693359375 C 64.37289428710938 414.7875061035156 80.1156997680664 409.7101135253906 50.988399505615234 429.5163269042969" stroke-width="6.0" fill="none" stroke="rgb(0, 0, 0)" stroke-opacity="1.0" stroke-linecap="round" stroke-linejoin="round"/>
    <path d="M 362.943115234375 91.08853912353516 C 377.09552001953125 108.68573760986328 358.71258544921875 115.02722930908203 347.4439392089844 104.4508285522461 C 348.1852722167969 75.85675048828125 334.6282958984375 58.016754150390625 320.4844665527344 67.37979125976562 C 318.8084716796875 54.8541145324707 294.35223388671875 82.86729431152344 298.01202392578125 81.82826232910156 C 322.47198486328125 83.82050323486328 307.18878173828125 54.853248596191406 307.0108642578125 48.471961975097656 C 299.3751220703125 51.266845703125 275.8734130859375 34.71049880981445 304.38482666015625 28.591415405273438" stroke-width="6.0" fill="none" stroke="rgb(0, 0, 0)" stroke-opacity="1.0" stroke-linecap="round" stroke-linejoin="round"/>
    <path d="M 139.28933715820312 221.87298583984375 C 143.07852172851562 230.44207763671875 132.98464965820312 249.02291870117188 161.57371520996094 224.78627014160156 C 141.7290496826172 246.6359405517578 141.1177215576172 231.6340789794922 119.5975570678711 238.62339782714844 C 117.96844482421875 252.0053253173828 122.00679016113281 235.9911346435547 138.0513153076172 221.11256408691406 C 126.6986083984375 211.38467407226562 105.77531433105469 200.63124084472656 109.69405364990234 195.0633087158203 C 80.02835845947266 206.4871368408203 95.33064270019531 224.16888427734375 98.06596374511719 212.90985107421875" stroke-width="6.0" fill="none" stroke="rgb(0, 0, 0)" stroke-opacity="1.0" stroke-linecap="round" stroke-linejoin="round"/>
    <path d="M 391.1852111816406 193.08277893066406 C 403.7572326660156 193.94863891601562 425.27642822265625 223.553955078125 400.12249755859375 199.85659790039062 C 412.1178283691406 192.39776611328125 427.5310363769531 172.12335205078125 442.419921875 152.0951690673828 C 438.676025390625 180.41014099121094 411.0197448730469 175.861083984375 391.22308349609375 194.05029296875 C 390.4546813964844 208.9899139404297 393.27978515625 202.95423889160156 381.0848693847656 199.04299926757812 C 368.7382507324219 224.3612060546875 379.3792724609375 225.7100372314453 386.2852783203125 218.04786682128906" stroke-width="6.0" fill="none" stroke="rgb(0, 0, 0)" stroke-opacity="1.0" stroke-linecap="round" stroke-linejoin="round"/>
    <path d="M 390.15240478515625 84.89055633544922 C 391.5075378417969 67.15827178955078 398.34747314453125 80.0267562866211 399.5502624511719 65.10111999511719 C 397.3230895996094 91.27326965332031 422.9478454589844 104.48108673095703 444.09161376953125 82.6014404296875 C 445.5543212890625 102.36592102050781 416.1036376953125 97.34410095214844 395.12457275390625 71.40697479248047 C 423.7831115722656 60.11740493774414 405.0436096191406 71.76011657714844 407.3074645996094 61.62222671508789 C 380.9339904785156 59.743873596191406 360.3211364746094 50.77103805541992 363.9104919433594 34.33280944824219" stroke-width="6.0" fill="none" stroke="rgb(0, 0, 0)" stroke-opacity="1.0" stroke-linecap="round" stroke-linejoin="round"/>
    <path d="M 377.29302978515625 556.7277221679688 C 363.76788330078125 575.9729614257812 385.85345458984375 581.0410766601562 374.198486328125 588.5111083984375 C 368.3946228027344 573.7960815429688 370.8556213378906 583.358154296875 345.4842834472656 562.4834594726562 C 359.32366943359375 549.2825317382812 345.0999450683594 525.421875 362.9529724121094 530.700927734375 C 378.9162292480469 520.5105590820312 395.19500732421875 526.000732421875 381.8292236328125 544.438720703125 C 404.1294250488281 554.5685424804688 402.5338439941406 534.6544799804688 419.53570556640625 563.9996948242188" stroke-width="6.0" fill="none" stroke="rgb(0, 0, 0)" stroke-opacity="1.0" stroke-linecap="round" stroke-linejoin="round"/>
    <path d="M 54.80296325683594 482.0122985839844 C 33.59246063232422 461.9013977050781 56.069305419921875 451.3016662597656 79.84650421142578 424.4530334472656 C 80.54881286621094 420.8343811035156 90.4393539428711 410.459716796875 90.46186065673828 387.4975280761719 C 94.070556640625 380.1360778808594 87.20166015625 378.60333251953125 75.90806579589844 379.8839111328125 C 77.74919891357422 402.8810729980469 98.28067779541016 430.2026672363281 125.01007080078125 450.2189636230469 C 137.69093322753906 470.6115417480469 141.32008361816406 470.01715087890625 158.65798950195312 481.1391906738281" stroke-width="6.0" fill="none" stroke="rgb(0, 0, 0)" stroke-opacity="1.0" stroke-linecap="round" stroke-linejoin="round"/>
    <path d="M 334.7230529785156 261.22802734375 C 325.65386962890625 232.74575805664062 317.5951232910156 230.71029663085938 327.7974548339844 244.41978454589844 C 310.6242370605469 248.0074462890625 340.49822998046875 274.37188720703125 333.4456787109375 255.11219787597656 C 348.30340576171875 225.7925567626953 344.8282165527344 227.3126983642578 315.16510009765625 215.9761505126953 C 290.8116149902344 208.1082000732422 276.0372314453125 233.40203857421875 282.4436950683594 205.3737335205078 C 268.90081787109375 204.0978240966797 241.5358428955078 215.8277587890625 226.71812438964844 223.3839874267578" stroke-width="6.0" fill="none" stroke="rgb(0, 0, 0)" stroke-opacity="1.0" stroke-linecap="round" stroke-linejoin="round"/>
    <path d="M 582.6643676757812 494.0154113769531 C 604.45556640625 519.669921875 634.2894287109375 527.6043701171875 633.7074584960938 526.01123046875 C 656.2236938476562 541.0264282226562 674.6694946289062 513.3179931640625 646.3997192382812 536.9739379882812 C 625.5911865234375 551.1456909179688 647.8460083007812 529.0446166992188 643.0203857421875 549.7927856445312 C 616.38330078125 558.0414428710938 590.122802734375 533.8900146484375 592.767822265625 562.8942260742188 C 574.4187622070312 569.7344360351562 545.419189453125 589.9708251953125 566.3130493164062 578.9596557617188" stroke-width="6.0" fill="none" stroke="rgb(0, 0, 0)" stroke-opacity="1.0" stroke-linecap="round" stroke-linejoin="round"/>
    <path d="M 425.58538818359375 543.4348754882812 C 430.79620361328125 570.0928955078125 431.7766418457031 596.525634765625 425.967041015625 616.7886352539062 C 436.1455078125 590.6859130859375 455.6483459472656 590.7774658203125 469.38580322265625 565.8155517578125 C 465.9897155761719 552.3471069335938 447.91070556640625 552.675048828125 428.3088073730469 567.4650268554688 C 448.58038330078125 537.6982421875 435.00616455078125 528.7393188476562 425.49334716796875 532.8297119140625 C 437.2308654785156 536.8010864257812 435.0511779785156 513.7767944335938 410.48486328125 527.5498046875" stroke-width="6.0" fill="none" stroke="rgb(0, 0, 0)" stroke-opacity="1.0" stroke-linecap="round" stroke-linejoin="round"/>
    <path d="M 111.41532897949219 354.6691589355469 C 139.32125854492188 370.71246337890625 156.6454620361328 353.7640075683594 149.1172332763672 328.6005554199219 C 162.57383728027344 313.40447998046875 182.81234741210938 321.9435119628906 206.90110778808594 303.4086608886719 C 222.25103759765625 281.3727722167969 195.4911651611328 293.72760009765625 176.13140869140625 272.15313720703125 C 165.10386657714844 255.71075439453125 146.39859008789062 278.7248840332031 127.02531433105469 266.42083740234375 C 138.8387908935547 252.29351806640625 138.23193359375 257.01531982421875 129.16348266601562 265.5248718261719" stroke-width="6.0" fill="none" stroke="rgb(0, 0, 0)" stroke-opacity="1.0" stroke-linecap="round" stroke-linejoin="round"/>
    <path d="M 269.8238830566406 378.6358337402344 C 289.72772216796875 350.8396911621094 309.8111572265625 343.98052978515625 312.08807373046875 326.62030029296875 C 324.2193298339844 317.43560791015625 342.8738098144531 335.1719055175781 325.2806701660156 347.19110107421875 C 325.506591796875 366.9825744628906 343.1642761230469 342.42803955078125 359.5688171386719 327.8808898925781 C 357.630126953125 299.8077392578125 334.5480041503906 309.3076477050781 315.7735290527344 287.6566162109375 C 320.9827880859375 280.0335388183594 313.6573791503906 285.3370056152344 285.6883544921875 297.414306640625" stroke-width="6.0" fill="none" stroke="rgb(0, 0, 0)" stroke-opacity="1.0" stroke-linecap="round" stroke-linejoin="round"/>
    <path d="M 377.7032470703125 521.6174926757812 C 348.1771240234375 516.9019165039062 338.21990966796875 525.7748413085938 314.23236083984375 550.5237426757812 C 302.64886474609375 548.57421875 283.81854248046875 519.8792114257812 302.371826171875 517.2659912109375 C 306.9297180175781 513.3640747070312 300.8897399902344 533.4098510742188 286.0442199707031 525.7626953125 C 276.3169250488281 536.51611328125 264.3273010253906 564.7620239257812 286.9732360839844 580.5523071289062 C 311.0052185058594 580.9500732421875 306.2643737792969 597.3944091796875 333.5032958984375 591.4393920898438" stroke-width="6.0" fill="none" stroke="rgb(0, 0, 0)" stroke-opacity="1.0" stroke-linecap="round" stroke-linejoin="round"/>
    <path d="M 17.133102416992188 307.3226013183594 C 42.47431945800781 330.518310546875 70.38845825195312 357.089111328125 52.296180725097656 385.43475341796875 C 67.40718841552734 363.22821044921875 57.39601516723633 390.8230285644531 85.6355209350586 379.35943603515625 C 101.54491424560547 397.44879150390625 99.0677261352539 377.4093322753906 69.11831665039062 356.2587890625 C 92.11559295654297 344.31573486328125 66.93811798095703 328.48675537109375 49.13743591308594 303.8967590332031 C 33.82138442993164 314.97955322265625 54.561485290527344 307.43505859375 53.20213317871094 298.11773681640625" stroke-width="6.0" fill="none" stroke="rgb(0, 0, 0)" stroke-opacity="1.0" stroke-linecap="round" stroke-linejoin="round"/>
    <path d="M 282.4604187011719 412.0918273925781 C 294.38720703125 436.86181640625 304.493408203125 456.7426452636719 316.9068603515625 472.48602294921875 C 292.6563415527344 450.1961975097656 308.43902587890625 428.207763671875 324.8345947265625 452.08905029296875 C 344.0220947265625 465.911376953125 339.4976501464844 459.5823974609375 313.7970275878906 458.88092041015625 C 328.2227783203125 464.0267028808594 311.5244445800781 470.53802490234375 327.5550842285156 462.6860046386719 C 317.98614501953125 482.08026123046875 324.6200866699219 497.18133544921875 349.4952697753906 505.9559631347656" stroke-width="6.0" fill="none" stroke="rgb(0, 0, 0)" stroke-opacity="1.0" stroke-linecap="round" stroke-linejoin="round"/>
    <path d="M 82.84793853759766 112.7823257446289 C 65.52188110351562 108.90636444091797 55.89707946777344 118.14906311035156 51.43975830078125 105.24691009521484 C 44.64868927001953 124.5234146118164 16.73828887939453 152.03416442871094 12.042503356933594 131.84674072265625 C 22.982891082763672 151.90069580078125 20.878252029418945 126.85912322998047 32.04219055175781 102.94343566894531 C 53.79017639160156 121.15644836425781 24.52364730834961 110.2979965209961 29.004579544067383 103.33740997314453 C 26.286104202270508 102.50577545166016 53.88136672973633 96.60797119140625 70.1629409790039 84.7852554321289" stroke-width="6.0" fill="none" stroke="rgb(0, 0, 0)" stroke-opacity="1.0" stroke-linecap="round" stroke-linejoin="round"/>
    <path d="M 155.20944213867188 380.4503173828125 C 161.38758850097656 398.6354064941406 158.40377807617188 391.0049133300781 156.81661987304688 381.1087341308594 C 158.91807556152344 373.00042724609375 176.0877685546875 401.8045349121094 177.950439453125 394.8128356933594 C 188.43359375 373.8360595703125 178.70054626464844 399.9266662597656 184.10972595214844 381.783447265625 C 202.83981323242188 395.4411926269531 200.17918395996094 368.3138122558594 187.04200744628906 345.64691162109375 C 186.45932006835938 337.6731262207031 209.76925659179688 348.85638427734375 194.9088592529297 339.1040954589844" stroke-width="6.0" fill="none" stroke="rgb(0, 0, 0)" stroke-opacity="1.0" stroke-linecap="round" stroke-linejoin="round"/>
    <path d="M 177.6666717529297 491.5216064453125 C 180.23158264160156 472.2452697753906 171.6446990966797 443.2564697265625 161.1626739501953 451.4154357910156 C 166.90939331054688 442.85009765625 139.10614013671875 457.1708984375 124.02373504638672 432.2137145996094 C 99.65809631347656 445.8609313964844 107.63329315185547 441.6869812011719 94.11506652832031 469.9981689453125 C 105.45458221435547 454.6841735839844 124.9888687133789 474.77923583984375 138.9501190185547 476.1927795410156 C 136.4953155517578 450.7849426269531 128.863037109375 429.5899658203125 157.43362426757812 437.81884765625" stroke-width="6.0" fill="none" stroke="rgb(0, 0, 0)" stroke-opacity="1.0" stroke-linecap="round" stroke-linejoin="round"/>
    <path d="M 529.2421264648438 229.12779235839844 C 558.0181274414062 203.8536834716797 583.70458984375 218.8096923828125 579.056396484375 190.1527099609375 C 606.037841796875 175.56419372558594 615.2115478515625 198.5797119140625 635.4628295898438 194.58583068847656 C 612.4483642578125 176.08445739746094 598.1068725585938 164.2765350341797 598.9492797851562 185.53115844726562 C 583.5744018554688 203.46839904785156 576.028564453125 201.84352111816406 591.6717529296875 198.06024169921875 C 606.4839477539062 214.7587890625 593.0551147460938 225.045166015625 599.3324584960938 249.58995056152344" stroke-width="6.0" fill="none" stroke="rgb(0, 0, 0)" stroke-opacity="1.0" stroke-linecap="round" stroke-linejoin="round"/>
    <path d="M 406.9449157714844 163.587646484375 C 401.37591552734375 134.71078491210938 396.23541259765625 112.4968032836914 382.25860595703125 118.48155212402344 C 410.8124694824219 107.57112121582031 394.0518798828125 78.6554946899414 383.5683898925781 52.43885040283203 C 370.7983093261719 65.20086669921875 390.456787109375 70.47571563720703 398.54315185546875 60.200836181640625 C 391.885498046875 85.99319458007812 362.6395568847656 76.38896179199219 353.38153076171875 73.05194091796875 C 351.0984191894531 87.60621643066406 333.7366638183594 99.46973419189453 344.11578369140625 84.81129455566406" stroke-width="6.0" fill="none" stroke="rgb(0, 0, 0)" stroke-opacity="1.0" stroke-linecap="round" stroke-linejoin="round"/>
    <path d="M 19.359905242919922 511.3750305175781 C 47.42332458496094 519.258056640625 51.102867126464844 509.97601318359375 33.555938720703125 539.068115234375 C 25.707426071166992 526.5775146484375 14.627710342407227 537.047607421875 -13.598414421081543 544.5393676757812 C -33.594356536865234 535.6369018554688 -37.70250701904297 565.386474609375 -66.29800415039062 593.7879028320312 C -62.91163635253906 593.2333374023438 -78.82852172851562 618.50390625 -100.92668151855469 624.93115234375 C -79.94659423828125 600.75 -96.8482666015625 630.27783203125 -92.60356903076172 610.9951782226562" stroke-width="6.0" fill="none" stroke="rgb(0, 0, 0)" stroke-opacity="1.0" stroke-linecap="round" stroke-linejoin="round"/>
    <path d="M 95.45051574707031 466.49481201171875 C 109.51815795898438 460.56182861328125 104.02912902832031 475.67864990234375 99.15991973876953 481.59356689453125 C 88.32412719726562 473.4240417480469 64.62246704101562 496.5094909667969 92.23682403564453 512.1746826171875 C 81.34333038330078 514.3123168945312 74.87373352050781 535.895751953125 74.52372741699219 533.6905517578125 C 94.092041015625 530.6578979492188 119.52666473388672 511.3155212402344 106.87113189697266 513.3154907226562 C 96.91442108154297 511.15673828125 77.25066375732422 535.5936279296875 70.25186157226562 544.7799072265625" stroke-width="6.0" fill="none" stroke="rgb(0, 0, 0)" stroke-opacity="1.0" stroke-linecap="round" stroke-linejoin="round"/>
    <path d="M 584.5684814453125 246.15628051757812 C 592.7134399414062 253.28883361816406 571.0277709960938 260.48406982421875 600.9623413085938 266.4581604003906 C 614.9111938476562 293.2074890136719 604.4124755859375 278.2039489746094 608.5908813476562 276.4987487792969 C 584.048828125 268.71649169921875 598.6267700195312 291.7272644042969 607.8737182617188 294.8507080078125 C 629.6600341796875 315.88922119140625 609.3427124023438 308.0331115722656 631.82177734375 288.5457458496094 C 658.0502319335938 313.8288879394531 647.4136352539062 301.4078063964844 671.0803833007812 283.8282470703125" stroke-width="6.0" fill="none" stroke="rgb(0, 0, 0)" stroke-opacity="1.0" stroke-linecap="round" stroke-linejoin="round"/>
    <path d="M 276.6877746582031 147.04818725585938 C 282.8826904296875 176.4309844970703 300.6878967285156 204.79930114746094 300.7008056640625 181.42874145507812 C 306.94122314453125 171.30429077148438 332.1905517578125 150.8602752685547 329.92327880859375 178.60873413085938 C 300.3362731933594 150.54806518554688 310.9486389160156 172.5718536376953 340.6806945800781 194.30198669433594 C 314.8626708984375 189.32736206054688 300.46441650390625 202.28594970703125 277.72332763671875 218.88174438476562 C 286.5486755371094 220.9720001220703 257.9718933105469 219.82044982910156 271.5338134765625 207.39822387695312" stroke-width="6.0" fill="none" stroke="rgb(0, 0, 0)" stroke-opacity="1.0" stroke-linecap="round" stroke-linejoin="round"/>
    <path d="M 239.01803588867188 493.3694763183594 C 255.1437225341797 485.1718444824219 268.1412353515625 485.86541748046875 277.1190185546875 481.58074951171875 C 254.60240173339844 460.33978271484375 240.31234741210938 479.8534851074219 255.5270233154297 456.6004943847656 C 235.70423889160156 451.37408447265625 226.0943145751953 476.1525573730469 243.8275146484375 458.7576599121094 C 219.65504455566406 467.27978515625 194.09921264648438 491.1915588378906 193.55381774902344 475.91522216796875 C 179.15379333496094 463.6327209472656 175.83413696289062 480.87518310546875 187.8078155517578 484.96905517578125" stroke-width="6.0" fill="none" stroke="rgb(0, 0, 0)" stroke-opacity="1.0" stroke-linecap="round" stroke-linejoin="round"/>
    <path d="M 356.6768493652344 456.7736511230469 C 335.55828857421875 444.0794677734375 318.819580078125 436.3305358886719 310.5430908203125 423.80364990234375 C 337.2305908203125 403.3017883300781 345.3042297363281 401.8588562011719 341.69598388671875 389.5516357421875 C 356.2799987792969 401.2165832519531 335.1115417480469 388.756591796875 328.1651306152344 396.9623107910156 C 299.8054504394531 379.66204833984375 288.0228271484375 384.7161560058594 273.548095703125 398.02447509765625 C 288.2755432128906 427.7915344238281 282.626220703125 434.8991394042969 262.850830078125 425.55194091796875" stroke-width="6.0" fill="none" stroke="rgb(0, 0, 0)" stroke-opacity="1.0" stroke-linecap="round" stroke-linejoin="round"/>
    <path d="M 93.54611206054688 511.5862731933594 C 82.3638916015625 504.0080261230469 104.28841400146484 503.122802734375 84.47566223144531 504.6769714355469 C 64.9789047241211 528.4849853515625 35.83285903930664 555.3019409179688 26.3748779296875 543.8604125976562 C 9.833477973937988 530.559326171875 26.514339447021484 547.915771484375 35.51414108276367 539.3058471679688 C 33.07344436645508 564.0679931640625 57.451560974121094 584.4666748046875 78.19631958007812 601.451904296875 C 79.64342498779297 585.1541748046875 61.79521942138672 595.0088500976562 55.70469284057617 570.939208984375" stroke-width="6.0" fill="none" stroke="rgb(0, 0, 0)" stroke-opacity="1.0" stroke-linecap="round" stroke-linejoin="round"/>
    <path d="M 197.7290496826172 40.29863357543945 C 200.8861083984375 42.42387008666992 215.40159606933594 64.78079986572266 243.62782287597656 38.13929748535156 C 247.6299591064453 23.017606735229492 232.99427795410156 37.383758544921875 244.376220703125 46.392189025878906 C 229.0414276123047 57.77043533325195 226.40541076660156 30.184404373168945 232.9536590576172 33.34294509887695 C 208.43521118164062 14.743793487548828 228.27674865722656 -11.436073303222656 252.46478271484375 -10.082637786865234 C 226.13668823242188 -26.447431564331055 231.27732849121094 -21.57120704650879 229.13360595703125 -19.355188369750977" stroke-width="6.0" fill="none" stroke="rgb(0, 0, 0)" stroke-opacity="1.0" stroke-linecap="round" stroke-linejoin="round"/>
    <path d="M 468.82757568359375 191.2949981689453 C 476.8619079589844 173.08055114746094 453.8862609863281 148.08372497558594 435.73004150390625 150.6658477783203 C 418.5896911621094 149.8596954345703 422.74945068359375 154.7624969482422 444.41778564453125 131.49395751953125 C 467.6088562011719 148.1376953125 449.2967529296875 166.48365783691406 456.16156005859375 163.81890869140625 C 426.23126220703125 179.13253784179688 432.3125 178.6888427734375 412.9043884277344 179.08641052246094 C 413.7164611816406 206.1725616455078 401.6947021484375 228.2082061767578 386.635986328125 214.7255096435547" stroke-width="6.0" fill="none" stroke="rgb(0, 0, 0)" stroke-opacity="1.0" stroke-linecap="round" stroke-linejoin="round"/>
    <path d="M 336.7386169433594 185.3024139404297 C 333.1412353515625 213.9361572265625 359.8830261230469 213.19097900390625 349.0354919433594 241.65223693847656 C 347.2658996582031 221.44009399414062 321.199462890625 217.32098388671875 309.4779357910156 242.8386993408203 C 306.0697937011719 251.1516876220703 308.3852233886719 232.1110382080078 325.11273193359375 247.88218688964844 C 307.9057312011719 247.98898315429688 297.1066589355469 249.8129425048828 273.2817077636719 237.81661987304688 C 279.8932800292969 242.03712463378906 259.16912841796875 221.42037963867188 275.1529846191406 238.5690460205078" stroke-width="6.0" fill="none" stroke="rgb(0, 0, 0)" stroke-opacity="1.0" stroke-linecap="round" stroke-linejoin="round"/>
    <path d="M 511.3943786621094 366.09393310546875 C 490.8623046875 393.45635986328125 519.7315673828125 402.7057800292969 537.0565185546875 419.4910888671875 C 523.219482421875 445.4617004394531 521.5384521484375 466.8359375 509.7554626464844 445.4951477050781 C 499.7787780761719 436.7711486816406 514.49169921875 433.75360107421875 509.96954345703125 427.326171875 C 504.9969482421875 443.0595397949219 499.2418212890625 471.1803283691406 490.45855712890625 489.5025634765625 C 518.9576416015625 505.5654602050781 490.16644287109375 517.8258056640625 472.6829833984375 530.8262329101562" stroke-width="6.0" fill="none" stroke="rgb(0, 0, 0)" stroke-opacity="1.0" stroke-linecap="round" stroke-linejoin="round"/>
    <path d="M 176.85812377929688 224.0651092529297 C 166.20889282226562 241.56031799316406 155.74998474121094 245.15866088867188 137.67710876464844 228.01744079589844 C 137.8537139892578 249.40162658691406 114.2637939453125 233.9899139404297 103.79278564453125 232.77085876464844 C 117.06861877441406 230.9631805419922 145.33660888671875 203.72315979003906 154.90170288085938 215.03125 C 179.4349365234375 214.25372314453125 166.24349975585938 220.65602111816406 158.78463745117188 196.702392578125 C 167.162353515625 183.26516723632812 159.28927612304688 208.68153381347656 135.9511260986328 186.77862548828125" stroke-width="6.0" fill="none" stroke="rgb(0, 0, 0)" stroke-opacity="1.0" stroke-linecap="round" stroke-linejoin="round"/>
    <path d="M 449.875732421875 194.70729064941406 C 466.3902893066406 189.533935546875 445.4966735839844 168.59913635253906 433.427978515625 150.59878540039062 C 408.748291015625 135.2723846435547 413.07232666015625 151.03961181640625 398.7154541015625 152.90126037597656 C 386.20062255859375 124.25237274169922 402.5266418457031 98.33260345458984 419.6806945800781 111.01676177978516 C 408.5184020996094 132.18276977539062 432.8245544433594 128.9331817626953 455.9396667480469 110.02159118652344 C 454.0392761230469 107.66981506347656 444.0199890136719 118.28994750976562 456.2236328125 103.65140533447266" stroke-width="6.0" fill="none" stroke="rgb(0, 0, 0)" stroke-opacity="1.0" stroke-linecap="round" stroke-linejoin="round"/>
    <path d="M 448.59014892578125 13.88298511505127 C 425.7416076660156 8.529722213745117 419.5200500488281 7.711174011230469 392.40191650390625 9.415016174316406 C 417.1808776855469 10.150716781616211 388.1529541015625 6.383131504058838 360.0579833984375 6.655825138092041 C 377.9546813964844 24.064075469970703 377.4752502441406 28.55300521850586 385.5776672363281 42.6190299987793 C 389.45611572265625 71.07267761230469 406.2914123535156 72.97843170166016 424.20684814453125 93.71639251708984 C 399.47064208984375 119.06620025634766 406.07257080078125 148.68319702148438 421.22698974609375 164.6700897216797" stroke-width="6.0" fill="none" stroke="rgb(0, 0, 0)" stroke-opacity="1.0" stroke-linecap="round" stroke-linejoin="round"/>
    <path d="M 258.5880432128906 166.13894653320312 C 255.66534423828125 188.97137451171875 270.00152587890625 197.9980010986328 244.3430938720703 206.868408203125 C 234.73167419433594 208.49122619628906 246.28683471679688 227.74375915527344 242.23068237304688 199.0327606201172 C 246.71493530273438 169.37399291992188 266.4083251953125 140.50628662109375 249.9621124267578 136.13526916503906 C 235.4932861328125 119.50867462158203 245.96559143066406 109.10582733154297 243.39076232910156 119.06993103027344 C 259.6264343261719 123.53623962402344 250.90516662597656 146.35494995117188 272.93975830078125 125.51123046875" stroke-width="6.0" fill="none" stroke="rgb(0, 0, 0)" stroke-opacity="1.0" stroke-linecap="round" stroke-linejoin="round"/>
    <path d="M 463.77520751953125 123.66650390625 C 444.71038818359375 95.27997589111328 450.78570556640625 115.96186828613281 467.5534973144531 118.36643981933594 C 494.8331298828125 107.97411346435547 483.7533264160156 91.78034210205078 466.28173828125 79.95611572265625 C 461.7787170410156 66.26078033447266 487.9568786621094 49.29493713378906 479.2775573730469 27.533666610717773 C 503.2103271484375 23.912124633789062 523.2598266601562 16.378957748413086 519.89697265625 31.015501022338867 C 534.2916870117188 23.84049415588379 531.1004638671875 17.79119110107422 513.4383544921875 10.66147518157959" stroke-width="6.0" fill="none" stroke="rgb(0, 0, 0)" stroke-opacity="1.0" stroke-linecap="round" stroke-linejoin="round"/>
    <path d="M 488.71966552734375 55.7310905456543 C 469.2254333496094 80.52808380126953 482.6965637207031 57.83030700683594 498.0929260253906 35.05180740356445 C 497.439453125 41.30271911621094 512.42041015625 30.315486907958984 493.8392639160156 59.42461395263672 C 511.8267517089844 51.01612091064453 497.1438293457031 27.735668182373047 494.56103515625 -1.7890340089797974 C 512.7857055664062 -7.790499687194824 534.2352905273438 -16.509634017944336 560.999267578125 3.702444076538086 C 557.0481567382812 24.570934295654297 545.08984375 54.55332946777344 520.1168823242188 63.168243408203125" stroke-width="6.0" fill="none" stroke="rgb(0, 0, 0)" stroke-opacity="1.0" stroke-linecap="round" stroke-linejoin="round"/>
    <path d="M 233.83172607421875 282.83685302734375 C 260.87030029296875 269.31982421875 269.7518310546875 258.6761169433594 248.1959991455078 243.61598205566406 C 252.03074645996094 221.33290100097656 231.3762664794922 233.037109375 247.11351013183594 206.70799255371094 C 265.29632568359375 228.648681640625 274.9534606933594 220.950927734375 269.8460388183594 200.39988708496094 C 250.15126037597656 226.57737731933594 278.1092529296875 241.0953826904297 296.6884460449219 221.9922637939453 C 319.43310546875 198.5957794189453 299.175537109375 198.40908813476562 287.5393981933594 205.92784118652344" stroke-width="6.0" fill="none" stroke="rgb(0, 0, 0)" stroke-opacity="1.0" stroke-linecap="round" stroke-linejoin="round"/>
    <path d="M 545.4085083007812 159.12879943847656 C 534.6328735351562 176.08493041992188 524.5277709960938 199.41416931152344 496.62115478515625 221.77587890625 C 521.435791015625 194.56582641601562 514.0579833984375 200.4762725830078 515.5702514648438 179.9666290283203 C 486.466552734375 203.79795837402344 461.9939880371094 233.08944702148438 438.7386169433594 231.59080505371094 C 467.74078369140625 252.959228515625 469.94439697265625 231.02354431152344 476.1406555175781 239.23486328125 C 464.8265075683594 237.444091796875 488.9994812011719 215.13601684570312 498.3819274902344 207.0709686279297" stroke-width="6.0" fill="none" stroke="rgb(0, 0, 0)" stroke-opacity="1.0" stroke-linecap="round" stroke-linejoin="round"/>
    <path d="M 368.18572998046875 429.7691650390625 C 366.8131408691406 444.6922912597656 387.9712219238281 426.46954345703125 371.1298828125 404.25799560546875 C 397.62725830078125 387.7911071777344 372.5586242675781 363.47845458984375 366.7889099121094 386.69354248046875 C 343.142578125 370.2669372558594 324.18023681640625 379.8291320800781 313.89776611328125 408.2665100097656 C 324.03912353515625 409.4615173339844 328.6691589355469 432.5164794921875 344.2627868652344 410.41888427734375 C 339.58404541015625 420.09100341796875 344.34613037109375 446.1684875488281 316.399658203125 470.5293273925781" stroke-width="6.0" fill="none" stroke="rgb(0, 0, 0)" stroke-opacity="1.0" stroke-linecap="round" stroke-linejoin="round"/>
    <path d="M 230.9980010986328 28.8310604095459 C 212.91175842285156 9.721426010131836 191.48875427246094 -18.2314510345459 209.1634063720703 -38.5063591003418 C 198.50732421875 -34.17343521118164 197.5380096435547 -43.539329528808594 205.2607879638672 -24.51995849609375 C 209.8928680419922 -27.39371109008789 192.7830352783203 -20.114957809448242 195.5358123779297 -43.04581069946289 C 182.2941131591797 -26.935148239135742 207.72726440429688 -36.69987106323242 231.27886962890625 -51.38280487060547 C 249.6981964111328 -52.14149856567383 252.63221740722656 -42.346614837646484 262.7129821777344 -51.804115295410156" stroke-width="6.0" fill="none" stroke="rgb(0, 0, 0)" stroke-opacity="1.0" stroke-linecap="round" stroke-linejoin="round"/>
    <path d="M 311.4637451171875 37.890663146972656 C 303.38909912109375 46.428226470947266 331.2742919921875 24.001914978027344 314.9017639160156 21.447919845581055 C 291.57000732421875 24.475807189941406 279.31280517578125 46.87421417236328 267.6946716308594 43.004058837890625 C 296.75335693359375 18.022092819213867 318.77142333984375 18.30551528930664 312.6249084472656 44.78049850463867 C 342.57757568359375 26.473176956176758 362.97833251953125 9.784603118896484 333.9414978027344 23.74934196472168 C 325.17767333984375 29.805519104003906 304.28399658203125 51.401092529296875 305.82666015625 69.41669464111328" stroke-width="6.0" fill="none" stroke="rgb(0, 0, 0)" stroke-opacity="1.0" stroke-linecap="round" stroke-linejoin="round"/>
    <path d="M 217.6136932373047 138.234130859375 C 244.44351196289062 140.08633422851562 236.91183471679688 116.09461975097656 216.84996032714844 124.19337463378906 C 223.94102478027344 144.78770446777344 239.0072784423828 123.9107666015625 265.4988098144531 130.49070739746094 C 286.99652099609375 117.19598388671875 314.5398864746094 144.1299285888672 302.3297119140625 168.14730834960938 C 330.6902160644531 191.77198791503906 328.77044677734375 169.9792022705078 355.0590515136719 140.0004119873047 C 340.0988464355469 143.30584716796875 328.83514404296875 168.68898010253906 335.5821838378906 196.2855224609375" stroke-width="6.0" fill="none" stroke="rgb(0, 0, 0)" stroke-opacity="1.0" stroke-linecap="round" stroke-linejoin="round"/>
    <path d="M 35.5333366394043 246.22532653808594 C 14.160829544067383 265.57177734375 30.036407470703125 283.9910888671875 57.07216262817383 268.5205078125 C 74.24984741210938 277.28399658203125 67.70979309082031 258.88623046875 87.80953216552734 233.1581268310547 C 115.61097717285156 219.731201171875 139.16929626464844 197.0994873046875 153.54859924316406 223.79995727539062 C 132.65936279296875 220.40283203125 142.99365234375 236.0379180908203 113.59979248046875 213.03541564941406 C 102.26942443847656 189.23216247558594 110.02216339111328 187.49871826171875 119.60745239257812 175.38804626464844" stroke-width="6.0" fill="none" stroke="rgb(0, 0, 0)" stroke-opacity="1.0" stroke-linecap="round" stroke-linejoin="round"/>
    <path d="M 74.9386978149414 445.72705078125 C 72.20073699951172 419.9512023925781 100.94032287597656 444.5821838378906 91.4229507446289 430.9477233886719 C 120.70050811767578 423.83782958984375 144.1675262451172 400.60809326171875 142.15907287597656 405.66680908203125 C 164.69358825683594 417.1929931640625 182.36093139648438 432.7005615234375 165.83892822265625 408.88360595703125 C 195.6952667236328 415.0426025390625 201.63807678222656 406.8355407714844 223.8397674560547 416.73016357421875 C 244.00228881835938 444.5248107910156 239.302734375 452.7684326171875 261.2127990722656 439.6206359863281" stroke-width="6.0" fill="none" stroke="rgb(0, 0, 0)" stroke-opacity="1.0" stroke-linecap="round" stroke-linejoin="round"/>
    <path d="M 434.451416015625 165.53939819335938 C 419.5516662597656 166.0087890625 414.6903991699219 186.1465606689453 443.67559814453125 161.13217163085938 C 419.74346923828125 179.49166870117188 404.30810546875 179.19021606445312 409.7731628417969 189.1279296875 C 386.05108642578125 205.98324584960938 398.56280517578125 209.6634979248047 418.767578125 202.2128448486328 C 419.90557861328125 227.6874237060547 412.8608093261719 233.7871551513672 418.32135009765625 251.4031524658203 C 445.52569580078125 255.940673828125 422.61407470703125 271.822509765625 414.2561340332031 282.1790771484375" stroke-width="6.0" fill="none" stroke="rgb(0, 0, 0)" stroke-opacity="1.0" stroke-linecap="round" stroke-linejoin="round"/>
    <path d="M 542.2937622070312 253.1175994873047 C 535.87841796875 267.77618408203125 526.7167358398438 285.0643615722656 547.8907470703125 289.4250793457031 C 549.2566528320312 315.8768615722656 568.0062866210938 323.56396484375 584.6641235351562 333.6680908203125 C 556.2025146484375 337.68389892578125 527.6511840820312 364.44085693359375 503.5794982910156 389.7210388183594 C 521.6931762695312 403.4645080566406 542.6589965820312 388.6753234863281 561.7610473632812 379.2783508300781 C 590.2158813476562 364.2403564453125 586.976318359375 337.10833740234375 584.4285888671875 366.52691650390625" stroke-width="6.0" fill="none" stroke="rgb(0, 0, 0)" stroke-opacity="1.0" stroke-linecap="round" stroke-linejoin="round"/>
    <path d="M 157.88421630859375 476.2046203613281 C 140.44708251953125 492.4131774902344 143.2837371826172 481.7260437011719 137.3629913330078 472.6783752441406 C 156.29116821289062 493.3615417480469 177.7299346923828 483.3873596191406 184.714111328125 497.7389221191406 C 204.84825134277344 481.3931884765625 224.56922912597656 457.4710693359375 237.88568115234375 465.8381652832031 C 226.6611328125 465.7096862792969 207.87266540527344 458.6715087890625 193.7534942626953 471.1152648925781 C 184.74911499023438 489.4291076660156 208.4959259033203 504.71539306640625 236.0944366455078 494.0809631347656" stroke-width="6.0" fill="none" stroke="rgb(0, 0, 0)" stroke-opacity="1.0" stroke-linecap="round" stroke-linejoin="round"/>
    <path d="M 66.90835571289062 349.0881042480469 C 91.43817138671875 361.101806640625 95.06729125976562 376.508056640625 97.36255645751953 370.3863220214844 C 109.10072326660156 352.3434753417969 84.53325653076172 358.2216491699219 107.10924530029297 352.45989990234375 C 92.91144561767578 365.4131774902344 94.92110443115234 359.258544921875 120.15660858154297 335.4761047363281 C 147.52110290527344 354.3504943847656 170.76817321777344 341.9852294921875 174.97457885742188 316.9179382324219 C 204.9809112548828 313.4700927734375 177.42727661132812 316.309326171875 187.43856811523438 302.776611328125" stroke-width="6.0" fill="none" stroke="rgb(0, 0, 0)" stroke-opacity="1.0" stroke-linecap="round" stroke-linejoin="round"/>
    <path d="M 296.6757507324219 499.92877197265625 C 325.6715087890625 484.6898498535156 309.2214660644531 493.5635681152344 292.21954345703125 464.2687072753906 C 276.80035400390625 435.51513671875 283.5335998535156 455.79095458984375 278.44512939453125 458.904541015625 C 282.49029541015625 453.6439514160156 303.36456298828125 458.4976501464844 311.03985595703125 481.7739562988281 C 339.7877197265625 496.5815124511719 352.1925048828125 525.4964599609375 370.3980407714844 511.3099365234375 C 362.61175537109375 535.3130493164062 388.8270568847656 524.5223388671875 380.2515563964844 552.0078125" stroke-width="6.0" fill="none" stroke="rgb(0, 0, 0)" stroke-opacity="1.0" stroke-linecap="round" stroke-linejoin="round"/>
    <path d="M 80.7156753540039 515.98681640625 C 109.89102935791016 500.800537109375 112.18755340576172 478.5263977050781 141.0482177734375 495.57952880859375 C 141.49545288085938 494.1238098144531 130.2645263671875 512.5590209960938 136.51002502441406 525.7654418945312 C 149.60389709472656 534.42333984375 152.80825805664062 563.5679931640625 150.7254638671875 568.0234985351562 C 123.93754577636719 575.1318969726562 123.76551818847656 571.3029174804688 150.9353790283203 551.5634765625 C 154.5328826904297 555.1031494140625 127.98563385009766 545.9593505859375 150.04025268554688 524.8721923828125" stroke-width="6.0" fill="none" stroke="rgb(0, 0, 0)" stroke-opacity="1.0" stroke-linecap="round" stroke-linejoin="round"/>
    <path d="M 409.1842346191406 39.227657318115234 C 422.3563232421875 43.412872314453125 449.1973876953125 57.0785026550293 461.97412109375 56.56708908081055 C 474.2272033691406 83.1319808959961 503.39959716796875 66.04422760009766 500.5662841796875 68.30797576904297 C 511.0463562011719 58.13996505737305 515.1978149414062 80.69808959960938 542.013916015625 59.352073669433594 C 544.3510131835938 70.23137664794922 533.2181396484375 40.63789749145508 539.8338012695312 53.404720306396484 C 531.3347778320312 30.585723876953125 559.9359741210938 37.416751861572266 561.7623291015625 51.23957061767578" stroke-width="6.0" fill="none" stroke="rgb(0, 0, 0)" stroke-opacity="1.0" stroke-linecap="round" stroke-linejoin="round"/>
    <path d="M 439.5538024902344 149.2997283935547 C 445.62530517578125 164.80897521972656 426.38580322265625 145.68325805664062 435.37017822265625 145.3617706298828 C 412.5401916503906 120.70811462402344 439.30902099609375 125.1482925415039 466.2508239746094 118.43534851074219 C 460.70526123046875 130.2202606201172 438.9758605957031 120.8179702758789 414.76763916015625 112.08740234375 C 427.2033996582031 134.83126831054688 427.1842956542969 115.94525146484375 421.2699890136719 99.503662109375 C 450.4081726074219 107.48410034179688 440.7513732910156 122.59303283691406 442.223388671875 93.81707763671875" stroke-width="6.0" fill="none" stroke="rgb(0, 0, 0)" stroke-opacity="1.0" stroke-linecap="round" stroke-linejoin="round"/>
    <path d="M 363.6956787109375 589.2060546875 C 337.24444580078125 581.5949096679688 317.355224609375 609.410888671875 319.10247802734375 579.6905517578125 C 312.18768310546875 551.3497314453125 336.49639892578125 555.151611328125 358.05792236328125 582.4943237304688 C 339.3668212890625 589.7466430664062 320.2740173339844 572.84912109375 310.9888916015625 595.1749267578125 C 335.74578857421875 601.1580810546875 340.1849060058594 624.6442260742188 352.5669250488281 647.424560546875 C 333.21649169921875 626.3555297851562 352.3561706542969 598.1760864257812 324.6826477050781 600.4314575195312" stroke-width="6.0" fill="none" stroke="rgb(0, 0, 0)" stroke-opacity="1.0" stroke-linecap="round" stroke-linejoin="round"/>
    <path d="M 574.8187866210938 564.42236328125 C 593.2510986328125 553.122314453125 580.7369995117188 544.0655517578125 561.5619506835938 545.1749267578125 C 585.5758056640625 545.033935546875 591.7860107421875 574.8744506835938 616.9859619140625 601.1435546875 C 642.7023315429688 604.0223999023438 636.0330810546875 600.8984985351562 613.0159912109375 604.1661987304688 C 603.316650390625 596.1078491210938 587.6837158203125 615.1629638671875 568.984130859375 609.4200439453125 C 560.4833984375 634.4166870117188 585.7509155273438 653.0711059570312 610.3309326171875 665.5293579101562" stroke-width="6.0" fill="none" stroke="rgb(0, 0, 0)" stroke-opacity="1.0" stroke-linecap="round" stroke-linejoin="round"/>
  </g>
</svg>
