<?xml version="1.0" ?>
<svg xmlns="http://www.w3.org/2000/svg" version="1.1" width="600" height="600">
  <defs/>
  <g>
    <path d="M 383.6560974121094 15.006453514099121 C 370.1578369140625 -1.6009025573730469 384.3460998535156 9.001066207885742 407.8768615722656 -15.78260326385498 C 403.19219970703125 -43.994773864746094 386.31048583984375 -43.67345428466797 357.90264892578125 -61.743194580078125 C 366.89569091796875 -59.04670333862305 350.12213134765625 -53.690765380859375 368.68798828125 -83.30083465576172 C 387.037109375 -71.4124755859375 377.4521484375 -92.08370208740234 404.8849182128906 -101.88803100585938 C 380.4496765136719 -126.08505249023438 401.2993469238281 -119.86148071289062 419.72705078125 -106.07758331298828" stroke-width="6.0" fill="none" stroke="rgb(0, 0, 0)" stroke-opacity="1.0" stroke-linecap="round" stroke-linejoin="round"/>
    <path d="M 321.73687744140625 583.8694458007812 C 314.44891357421875 586.9918823242188 334.21319580078125 594.1030883789062 355.9156188964844 598.7442016601562 C 368.1899108886719 571.49365234375 351.8638000488281 558.85693359375 326.67132568359375 542.8043823242188 C 302.7314147949219 529.4827880859375 310.87249755859375 521.3727416992188 303.0433349609375 503.9432067871094 C 289.06201171875 530.1424560546875 297.94415283203125 536.7303466796875 278.25244140625 550.4379272460938 C 258.0566101074219 543.2052612304688 287.4280090332031 551.605224609375 290.8449401855469 562.6820678710938" stroke-width="6.0" fill="none" stroke="rgb(0, 0, 0)" stroke-opacity="1.0" stroke-linecap="round" stroke-linejoin="round"/>
    <path d="M 505.73114013671875 465.5799560546875 C 489.4740295410156 437.5059814453125 478.3612060546875 423.5704040527344 461.02020263671875 450.14501953125 C 483.6422424316406 439.065673828125 492.9285888671875 432.7635803222656 517.8013916015625 430.2947082519531 C 503.7342224121094 415.09234619140625 507.4162902832031 400.8968200683594 512.4915161132812 424.7262268066406 C 506.41552734375 407.8854675292969 536.3078002929688 408.4570617675781 511.7623291015625 381.3240051269531 C 488.3013000488281 388.97076416015625 505.8260192871094 384.30035400390625 479.6377258300781 377.197509765625" stroke-width="6.0" fill="none" stroke="rgb(0, 0, 0)" stroke-opacity="1.0" stroke-linecap="round" stroke-linejoin="round"/>
    <path d="M 597.6728515625 317.4686279296875 C 625.9375610351562 339.11541748046875 596.6264038085938 352.3586730957031 607.5096435546875 354.5602722167969 C 593.5184936523438 363.0146789550781 570.211669921875 359.1005554199219 567.43505859375 386.3294982910156 C 590.0062866210938 372.1528625488281 590.0414428710938 352.8719482421875 614.799072265625 375.1030578613281 C 602.705810546875 383.4400634765625 609.2439575195312 362.6103820800781 624.99462890625 364.97314453125 C 641.7122192382812 366.79437255859375 611.74658203125 356.24371337890625 582.9151611328125 381.9896240234375" stroke-width="6.0" fill="none" stroke="rgb(0, 0, 0)" stroke-opacity="1.0" stroke-linecap="round" stroke-linejoin="round"/>
    <path d="M 527.253173828125 498.97930908203125 C 515.7039794921875 472.49481201171875 538.3845825195312 499.311767578125 513.4837646484375 498.43121337890625 C 487.6764831542969 514.0673217773438 503.6265563964844 491.81085205078125 502.103515625 494.7590637207031 C 488.0069274902344 517.1050415039062 483.3951721191406 499.8129577636719 485.7529602050781 513.6488037109375 C 467.822021484375 502.35174560546875 497.531005859375 511.3444519042969 493.8169860839844 512.3989868164062 C 471.0772705078125 495.8808288574219 461.36236572265625 501.17938232421875 445.1692810058594 484.39239501953125" stroke-width="6.0" fill="none" stroke="rgb(0, 0, 0)" stroke-opacity="1.0" stroke-linecap="round" stroke-linejoin="round"/>
    <path d="M 42.59585189819336 378.6617736816406 C 26.332359313964844 402.98699951171875 47.910484313964844 377.2384338378906 32.19076156616211 387.3770751953125 C 15.04496955871582 365.3157958984375 41.17582321166992 369.578369140625 39.53608703613281 386.6555480957031 C 57.985904693603516 368.08013916015625 33.801753997802734 363.9432067871094 29.19647216796875 361.9447021484375 C 42.94102096557617 372.3465881347656 72.03092956542969 348.25164794921875 66.1882095336914 338.6497802734375 C 87.88856506347656 323.5691833496094 69.30109405517578 320.4859619140625 64.57400512695312 307.1986999511719" stroke-width="6.0" fill="none" stroke="rgb(0, 0, 0)" stroke-opacity="1.0" stroke-linecap="round" stroke-linejoin="round"/>
    <path d="M 149.8838653564453 553.9593505859375 C 146.47171020507812 575.6403198242188 149.49122619628906 548.6755981445312 179.44818115234375 568.8372802734375 C 207.58795166015625 594.4193115234375 228.50970458984375 574.39794921875 227.62815856933594 557.2427978515625 C 221.69058227539062 530.7609252929688 214.42897033691406 559.8792114257812 200.34117126464844 576.8837280273438 C 197.66165161132812 572.2841186523438 225.1007080078125 602.009521484375 228.4468231201172 615.114013671875 C 207.734619140625 602.9164428710938 235.85719299316406 607.667236328125 238.38888549804688 622.5457763671875" stroke-width="6.0" fill="none" stroke="rgb(0, 0, 0)" stroke-opacity="1.0" stroke-linecap="round" stroke-linejoin="round"/>
    <path d="M 34.299163818359375 350.5065612792969 C 34.470184326171875 371.66973876953125 13.91615104675293 399.31646728515625 -11.277161598205566 380.4659729003906 C -5.575055122375488 390.9787292480469 -21.46282196044922 368.1719055175781 1.95441734790802 352.94482421875 C 7.625566482543945 360.10772705078125 2.7790613174438477 365.1280822753906 4.146024227142334 391.21044921875 C -13.598423957824707 404.1819763183594 -29.277265548706055 397.92913818359375 -18.975852966308594 385.9289245605469 C -30.00522232055664 401.0408020019531 -55.65263748168945 398.5379638671875 -25.74536895751953 428.3037109375" stroke-width="6.0" fill="none" stroke="rgb(0, 0, 0)" stroke-opacity="1.0" stroke-linecap="round" stroke-linejoin="round"/>
    <path d="M 43.95643615722656 127.89259338378906 C 29.868457794189453 153.88815307617188 52.720306396484375 176.6443634033203 44.91191864013672 156.12918090820312 C 64.9366226196289 168.34156799316406 71.59729766845703 197.53553771972656 80.83588409423828 168.00494384765625 C 99.86212158203125 156.00767517089844 109.7054443359375 182.30345153808594 87.76290893554688 159.26919555664062 C 64.18507385253906 162.46261596679688 50.52596664428711 168.71238708496094 63.542694091796875 150.92822265625 C 71.59697723388672 136.7672576904297 70.90888977050781 161.12745666503906 91.67510986328125 136.62535095214844" stroke-width="6.0" fill="none" stroke="rgb(0, 0, 0)" stroke-opacity="1.0" stroke-linecap="round" stroke-linejoin="round"/>
    <path d="M 254.12545776367188 165.98812866210938 C 224.33819580078125 182.25527954101562 232.5650177001953 167.97259521484375 247.07887268066406 171.07342529296875 C 242.74009704589844 141.6536102294922 217.25469970703125 164.63998413085938 241.45042419433594 167.3754119873047 C 261.5461120605469 172.34597778320312 240.43174743652344 149.99270629882812 228.947265625 173.95159912109375 C 246.71458435058594 195.59373474121094 270.6500549316406 178.15835571289062 255.62185668945312 154.365966796875 C 272.38885498046875 177.41404724121094 266.771484375 184.65374755859375 246.08468627929688 210.4466094970703" stroke-width="6.0" fill="none" stroke="rgb(0, 0, 0)" stroke-opacity="1.0" stroke-linecap="round" stroke-linejoin="round"/>
    <path d="M 518.763427734375 585.7236328125 C 537.4097290039062 608.6085815429688 508.89691162109375 622.802490234375 498.8280334472656 648.6514282226562 C 516.962158203125 670.4952392578125 535.6071166992188 656.5036010742188 552.8495483398438 632.9893188476562 C 575.1795654296875 654.5049438476562 558.525634765625 673.5001220703125 556.143798828125 661.8115844726562 C 573.864501953125 645.46728515625 545.284423828125 627.0551147460938 534.9801025390625 648.916259765625 C 562.9934692382812 635.663818359375 571.4823608398438 629.6444702148438 600.351318359375 631.8174438476562" stroke-width="6.0" fill="none" stroke="rgb(0, 0, 0)" stroke-opacity="1.0" stroke-linecap="round" stroke-linejoin="round"/>
    <path d="M 563.5422973632812 69.2050552368164 C 591.766357421875 49.91912078857422 619.5183715820312 35.847103118896484 596.0225219726562 31.920927047729492 C 609.7352294921875 20.741567611694336 616.1077880859375 21.426950454711914 609.19970703125 26.003551483154297 C 594.4827880859375 38.529380798339844 564.5842895507812 64.0638656616211 566.9314575195312 77.22966003417969 C 581.428466796875 87.48737335205078 573.28173828125 61.685794830322266 583.135986328125 51.497798919677734 C 571.9708862304688 72.37871551513672 585.1561889648438 60.39805603027344 573.7132568359375 54.90162658691406" stroke-width="6.0" fill="none" stroke="rgb(0, 0, 0)" stroke-opacity="1.0" stroke-linecap="round" stroke-linejoin="round"/>
    <path d="M 241.46023559570312 177.41311645507812 C 219.09750366210938 172.5998992919922 245.51931762695312 183.23898315429688 269.6876525878906 190.1698760986328 C 257.70465087890625 193.0861053466797 227.72898864746094 180.30093383789062 223.5222930908203 185.0600128173828 C 232.84461975097656 182.9593048095703 229.37420654296875 165.82138061523438 227.765380859375 189.85223388671875 C 245.52687072753906 170.07373046875 220.61460876464844 171.00083923339844 228.55105590820312 161.07212829589844 C 247.65646362304688 176.1404266357422 258.02423095703125 159.61886596679688 239.97198486328125 131.08438110351562" stroke-width="6.0" fill="none" stroke="rgb(0, 0, 0)" stroke-opacity="1.0" stroke-linecap="round" stroke-linejoin="round"/>
    <path d="M 146.925537109375 285.06182861328125 C 167.86978149414062 259.4315185546875 162.7762451171875 267.2574157714844 144.44236755371094 279.0386657714844 C 144.10499572753906 263.63775634765625 153.46849060058594 233.9704132080078 168.52635192871094 250.2132110595703 C 144.9215850830078 245.7219696044922 125.47477722167969 273.1999206542969 126.55223846435547 246.17303466796875 C 111.50413513183594 267.0732421875 108.89185333251953 285.1582336425781 118.94651794433594 314.4317932128906 C 124.63365936279297 341.4741516113281 148.11920166015625 348.2332763671875 161.275634765625 348.4800109863281" stroke-width="6.0" fill="none" stroke="rgb(0, 0, 0)" stroke-opacity="1.0" stroke-linecap="round" stroke-linejoin="round"/>
    <path d="M 498.3215026855469 328.7431640625 C 522.1940307617188 343.3225402832031 520.6744995117188 328.91400146484375 505.4688415527344 337.1336975097656 C 521.4176635742188 338.41168212890625 529.0225219726562 324.8875427246094 503.67156982421875 312.0711975097656 C 490.01446533203125 301.21380615234375 492.4236145019531 279.5162353515625 476.2593078613281 291.1932067871094 C 488.6444396972656 265.04693603515625 483.1004333496094 267.6036071777344 478.046875 249.97366333007812 C 473.2954406738281 274.2640075683594 478.3402099609375 285.995361328125 499.744140625 301.9310607910156" stroke-width="6.0" fill="none" stroke="rgb(0, 0, 0)" stroke-opacity="1.0" stroke-linecap="round" stroke-linejoin="round"/>
    <path d="M 228.20860290527344 3.557645559310913 C 219.31414794921875 18.766157150268555 240.56101989746094 45.93198013305664 235.70230102539062 60.78292465209961 C 238.47024536132812 66.97807312011719 221.6625518798828 50.1833610534668 217.81272888183594 21.924861907958984 C 208.00050354003906 32.65337371826172 202.25950622558594 12.55605697631836 200.3029022216797 -9.786273956298828 C 207.6383056640625 -38.16828536987305 201.27952575683594 -34.30476760864258 172.90565490722656 -25.739789962768555 C 151.04762268066406 -28.03788185119629 124.06470489501953 -35.291648864746094 106.76432037353516 -45.680904388427734" stroke-width="6.0" fill="none" stroke="rgb(0, 0, 0)" stroke-opacity="1.0" stroke-linecap="round" stroke-linejoin="round"/>
    <path d="M 456.7198181152344 227.49559020996094 C 471.8385009765625 247.4111785888672 456.9747009277344 222.3255615234375 428.1376953125 224.69070434570312 C 458.1721496582031 215.68832397460938 467.1807861328125 232.5222930908203 476.24609375 247.7762908935547 C 503.2628173828125 229.73793029785156 474.485595703125 208.88087463378906 452.0588684082031 219.0884246826172 C 455.89703369140625 202.16629028320312 467.86492919921875 218.18017578125 447.9322509765625 224.57501220703125 C 462.80780029296875 201.44699096679688 481.96588134765625 229.33023071289062 458.4118347167969 200.91094970703125" stroke-width="6.0" fill="none" stroke="rgb(0, 0, 0)" stroke-opacity="1.0" stroke-linecap="round" stroke-linejoin="round"/>
    <path d="M 187.19435119628906 406.4283752441406 C 214.64471435546875 400.1876525878906 227.54559326171875 374.7474365234375 239.02247619628906 382.3819885253906 C 215.1365509033203 398.77081298828125 236.15414428710938 404.7955017089844 213.41744995117188 433.78619384765625 C 230.3755645751953 424.65838623046875 226.0782470703125 416.89263916015625 226.3958740234375 407.3665466308594 C 247.37042236328125 426.70635986328125 223.7027587890625 454.3136291503906 231.8778839111328 474.0760803222656 C 244.31639099121094 470.2052917480469 258.3440856933594 498.0937194824219 244.54904174804688 516.625732421875" stroke-width="6.0" fill="none" stroke="rgb(0, 0, 0)" stroke-opacity="1.0" stroke-linecap="round" stroke-linejoin="round"/>
    <path d="M 322.9237365722656 290.1184997558594 C 319.0581970214844 303.9800720214844 305.16192626953125 325.08282470703125 324.9658203125 300.2426452636719 C 347.86370849609375 284.87445068359375 345.7461853027344 291.4943542480469 338.4855651855469 263.25634765625 C 359.58270263671875 244.16673278808594 342.30987548828125 262.03668212890625 332.7301940917969 284.8558654785156 C 344.80126953125 271.4319763183594 315.41033935546875 298.31573486328125 290.5470886230469 311.5202331542969 C 289.82177734375 327.0101013183594 301.29833984375 335.7642822265625 300.74761962890625 353.3402404785156" stroke-width="6.0" fill="none" stroke="rgb(0, 0, 0)" stroke-opacity="1.0" stroke-linecap="round" stroke-linejoin="round"/>
    <path d="M 55.812007904052734 132.93783569335938 C 67.35923767089844 121.3501968383789 72.25257110595703 119.74583435058594 74.1078872680664 115.27605438232422 C 88.82402038574219 105.08354187011719 100.99532318115234 91.37852478027344 86.07953643798828 68.61787414550781 C 67.63459777832031 45.791160583496094 69.78643035888672 61.52253723144531 50.89542007446289 44.505619049072266 C 49.94733810424805 57.94071578979492 78.58374786376953 59.41892623901367 65.56367492675781 35.450496673583984 C 47.21072769165039 19.099491119384766 27.976848602294922 -10.051270484924316 30.008892059326172 -23.57678985595703" stroke-width="6.0" fill="none" stroke="rgb(0, 0, 0)" stroke-opacity="1.0" stroke-linecap="round" stroke-linejoin="round"/>
    <path d="M 584.5769653320312 332.015380859375 C 596.4219970703125 309.5921630859375 618.5297241210938 309.04486083984375 640.8928833007812 313.48870849609375 C 639.0567016601562 309.9168395996094 620.1184692382812 282.99945068359375 646.5823364257812 281.6632080078125 C 665.9092407226562 275.7056579589844 640.3541259765625 283.4723815917969 613.5706787109375 262.42425537109375 C 617.341064453125 250.65438842773438 646.9761962890625 227.761474609375 662.8427734375 234.14053344726562 C 680.2872314453125 217.68174743652344 681.6416015625 214.71263122558594 678.204833984375 236.32261657714844" stroke-width="6.0" fill="none" stroke="rgb(0, 0, 0)" stroke-opacity="1.0" stroke-linecap="round" stroke-linejoin="round"/>
    <path d="M 594.0187377929688 183.2281494140625 C 601.2803955078125 189.80599975585938 615.685791015625 216.66140747070312 598.1530151367188 199.3229217529297 C 607.7786865234375 178.746337890625 588.20751953125 153.250244140625 558.3480834960938 150.30047607421875 C 563.9767456054688 137.77603149414062 547.9053344726562 150.1533966064453 560.0445556640625 147.4352569580078 C 571.2876586914062 172.8699188232422 588.557373046875 180.37339782714844 598.2283935546875 206.3934326171875 C 593.7566528320312 209.0472412109375 602.61474609375 233.55194091796875 622.212646484375 207.83653259277344" stroke-width="6.0" fill="none" stroke="rgb(0, 0, 0)" stroke-opacity="1.0" stroke-linecap="round" stroke-linejoin="round"/>
    <path d="M 99.57366943359375 184.54708862304688 C 114.47113800048828 188.6995086669922 101.78778076171875 166.1607208251953 113.10845184326172 178.14474487304688 C 139.6690216064453 178.17306518554688 139.29673767089844 153.0395965576172 111.68839263916016 148.96131896972656 C 101.06768035888672 133.98338317871094 76.54729461669922 161.69805908203125 96.66481018066406 166.20999145507812 C 123.71199798583984 196.18434143066406 134.0488739013672 182.31500244140625 106.4627914428711 197.69113159179688 C 104.73282623291016 206.82171630859375 129.69720458984375 187.7110595703125 134.81698608398438 195.7581329345703" stroke-width="6.0" fill="none" stroke="rgb(0, 0, 0)" stroke-opacity="1.0" stroke-linecap="round" stroke-linejoin="round"/>
    <path d="M 295.0155029296875 54.76544189453125 C 285.8931579589844 44.72395324707031 296.1011657714844 66.18793487548828 285.9293518066406 77.80835723876953 C 273.2224426269531 104.51996612548828 292.0364074707031 107.56575775146484 289.3259582519531 96.4367904663086 C 278.6824035644531 124.60787963867188 272.9728698730469 125.48365783691406 302.2600402832031 134.94326782226562 C 304.8156433105469 129.73812866210938 286.07061767578125 121.44489288330078 301.4571838378906 129.00941467285156 C 317.056640625 111.22290802001953 320.00982666015625 136.88327026367188 316.2568054199219 148.7782745361328" stroke-width="6.0" fill="none" stroke="rgb(0, 0, 0)" stroke-opacity="1.0" stroke-linecap="round" stroke-linejoin="round"/>
    <path d="M 72.85565185546875 583.8880615234375 C 79.38795471191406 568.2459106445312 58.89064025878906 571.2962646484375 62.0057258605957 546.9088745117188 C 91.54129791259766 571.6845092773438 89.24183654785156 548.7196044921875 109.1766128540039 548.6151123046875 C 122.17281341552734 549.1473999023438 108.57830810546875 569.2308959960938 137.3929901123047 553.854736328125 C 140.46890258789062 546.8699340820312 165.78097534179688 547.3643188476562 188.54055786132812 569.2059326171875 C 175.1154022216797 586.6063232421875 170.01194763183594 612.6612548828125 170.47621154785156 631.8941650390625" stroke-width="6.0" fill="none" stroke="rgb(0, 0, 0)" stroke-opacity="1.0" stroke-linecap="round" stroke-linejoin="round"/>
    <path d="M 169.723388671875 179.11351013183594 C 174.9396514892578 209.04763793945312 174.31808471679688 188.00335693359375 176.63291931152344 178.71080017089844 C 179.7079620361328 181.276611328125 177.02862548828125 170.583251953125 158.38778686523438 182.4331512451172 C 162.69564819335938 166.4468994140625 179.2283172607422 139.06573486328125 193.91061401367188 151.37940979003906 C 212.59515380859375 144.5441436767578 222.41647338867188 163.7889862060547 251.26556396484375 163.5087127685547 C 223.44680786132812 163.6461944580078 228.85755920410156 185.8282012939453 251.30899047851562 182.24658203125" stroke-width="6.0" fill="none" stroke="rgb(0, 0, 0)" stroke-opacity="1.0" stroke-linecap="round" stroke-linejoin="round"/>
    <path d="M 315.5506591796875 274.17681884765625 C 328.9372863769531 268.7755432128906 338.1841735839844 247.99722290039062 336.3536376953125 276.14947509765625 C 326.6672668457031 287.7517395019531 335.657470703125 308.857666015625 356.7979736328125 330.4181823730469 C 349.63848876953125 319.4178466796875 362.76153564453125 334.98193359375 385.0645446777344 307.1358947753906 C 359.1697692871094 315.00555419921875 384.425537109375 344.8511047363281 399.23150634765625 340.8493957519531 C 375.1781005859375 348.8742980957031 397.5328369140625 345.4949951171875 409.17291259765625 369.7004699707031" stroke-width="6.0" fill="none" stroke="rgb(0, 0, 0)" stroke-opacity="1.0" stroke-linecap="round" stroke-linejoin="round"/>
    <path d="M 27.594581604003906 477.68609619140625 C 15.196647644042969 470.1765441894531 -6.069164752960205 472.0465087890625 -2.113480806350708 489.59771728515625 C -21.914461135864258 464.3357849121094 0.33591410517692566 471.5184020996094 -15.214298248291016 496.2881774902344 C -36.627235412597656 493.9571533203125 -51.38859558105469 479.2767333984375 -80.82474517822266 497.55474853515625 C -56.7521858215332 508.21136474609375 -77.27364349365234 504.7151794433594 -86.53971099853516 509.969482421875 C -78.2033920288086 505.42803955078125 -93.19749450683594 526.146240234375 -111.24447631835938 519.2278442382812" stroke-width="6.0" fill="none" stroke="rgb(0, 0, 0)" stroke-opacity="1.0" stroke-linecap="round" stroke-linejoin="round"/>
    <path d="M 289.94482421875 142.3034210205078 C 294.22021484375 146.79212951660156 323.7817077636719 134.54598999023438 352.4983825683594 144.03977966308594 C 338.9671936035156 147.99551391601562 350.0751953125 162.63563537597656 323.0178527832031 169.02003479003906 C 322.8215026855469 193.26934814453125 310.0331115722656 211.240966796875 316.4570007324219 202.3402099609375 C 324.6540832519531 209.59368896484375 335.2799987792969 222.88938903808594 344.83087158203125 243.18960571289062 C 352.5257263183594 267.3938293457031 361.3061828613281 255.9298095703125 357.7555847167969 260.66424560546875" stroke-width="6.0" fill="none" stroke="rgb(0, 0, 0)" stroke-opacity="1.0" stroke-linecap="round" stroke-linejoin="round"/>
    <path d="M 439.3958740234375 54.10002517700195 C 427.1424560546875 68.9488754272461 407.6808776855469 46.87846374511719 410.04534912109375 75.16783905029297 C 411.8965148925781 99.93706512451172 431.68487548828125 85.35527038574219 451.20623779296875 84.2661361694336 C 469.5955505371094 99.0596923828125 459.91845703125 76.00987243652344 487.6520690917969 54.455299377441406 C 515.64208984375 76.06373596191406 529.0950317382812 104.86026000976562 557.1312866210938 123.09553527832031 C 549.0777587890625 140.53643798828125 519.952880859375 142.77078247070312 517.2400512695312 153.10047912597656" stroke-width="6.0" fill="none" stroke="rgb(0, 0, 0)" stroke-opacity="1.0" stroke-linecap="round" stroke-linejoin="round"/>
    <path d="M 403.3844909667969 350.75604248046875 C 422.7695007324219 377.1735534667969 399.270263671875 361.2028503417969 370.7717590332031 384.2569580078125 C 374.41619873046875 409.1668701171875 357.7381896972656 382.92535400390625 377.1695556640625 407.52862548828125 C 365.30096435546875 402.0263671875 343.68756103515625 428.8020324707031 331.90948486328125 428.31951904296875 C 307.7409973144531 451.55511474609375 285.8808288574219 448.77374267578125 296.1499938964844 463.402099609375 C 322.8684387207031 458.5497131347656 337.40460205078125 437.7810974121094 332.337646484375 413.722412109375" stroke-width="6.0" fill="none" stroke="rgb(0, 0, 0)" stroke-opacity="1.0" stroke-linecap="round" stroke-linejoin="round"/>
    <path d="M 293.5882263183594 244.8495330810547 C 320.67950439453125 216.81251525878906 312.9113464355469 213.41549682617188 339.984619140625 234.7425079345703 C 315.9058837890625 245.88331604003906 318.5738830566406 274.55389404296875 310.09429931640625 268.48223876953125 C 291.4828186035156 245.8118438720703 312.40478515625 243.09487915039062 322.13092041015625 251.59715270996094 C 327.9596862792969 222.87860107421875 345.1673583984375 207.49273681640625 322.76275634765625 211.36741638183594 C 296.8793640136719 227.27685546875 279.3088073730469 210.1939239501953 301.4905700683594 199.94749450683594" stroke-width="6.0" fill="none" stroke="rgb(0, 0, 0)" stroke-opacity="1.0" stroke-linecap="round" stroke-linejoin="round"/>
    <path d="M 88.51250457763672 540.298583984375 C 58.68264389038086 561.802978515625 37.363922119140625 539.6024780273438 22.403175354003906 520.1123657226562 C 32.08662796020508 491.63916015625 2.9782497882843018 509.0382385253906 -12.745853424072266 498.4645080566406 C -32.291080474853516 471.60845947265625 -17.78799819946289 473.1736145019531 -3.048081874847412 471.74835205078125 C 13.632941246032715 472.5426330566406 -9.82381820678711 472.77294921875 16.88116455078125 445.3548889160156 C 33.87474060058594 467.37371826171875 35.16181182861328 464.85626220703125 63.00338363647461 438.50579833984375" stroke-width="6.0" fill="none" stroke="rgb(0, 0, 0)" stroke-opacity="1.0" stroke-linecap="round" stroke-linejoin="round"/>
    <path d="M 287.4091491699219 240.9903564453125 C 298.5350036621094 240.36648559570312 323.1170654296875 214.7759246826172 297.9644775390625 221.27377319335938 C 271.9454040527344 207.7747344970703 279.8900146484375 210.67611694335938 269.4411315917969 240.39378356933594 C 271.2745361328125 237.61671447753906 277.6001281738281 213.56741333007812 289.7069091796875 234.69497680664062 C 298.76190185546875 250.83273315429688 312.0122985839844 233.73411560058594 309.1055908203125 217.44374084472656 C 299.4414978027344 214.65367126464844 294.40087890625 190.35882568359375 290.0067138671875 200.30531311035156" stroke-width="6.0" fill="none" stroke="rgb(0, 0, 0)" stroke-opacity="1.0" stroke-linecap="round" stroke-linejoin="round"/>
    <path d="M 224.56060791015625 91.56336212158203 C 249.979736328125 65.63134765625 269.8860168457031 41.22515869140625 245.639892578125 55.552921295166016 C 264.3460693359375 58.93516540527344 269.5339660644531 62.59034729003906 259.35272216796875 39.96422576904297 C 250.568603515625 49.84465789794922 265.58563232421875 71.93019104003906 278.8092956542969 100.0740966796875 C 284.8739013671875 91.17286682128906 289.54901123046875 73.93719482421875 298.95318603515625 57.39189529418945 C 275.40631103515625 78.11430358886719 267.4599609375 93.83064270019531 271.9459533691406 112.26392364501953" stroke-width="6.0" fill="none" stroke="rgb(0, 0, 0)" stroke-opacity="1.0" stroke-linecap="round" stroke-linejoin="round"/>
    <path d="M 507.0931091308594 584.7279663085938 C 526.1986694335938 591.5423583984375 534.7606811523438 563.1176147460938 560.5257568359375 582.865234375 C 546.5726318359375 563.690185546875 558.7345581054688 552.229248046875 549.1240234375 522.5955810546875 C 571.3157958984375 526.5748291015625 565.3628540039062 505.08740234375 573.3131103515625 476.966796875 C 588.099853515625 459.8547668457031 583.289794921875 450.30853271484375 575.4729614257812 463.624267578125 C 592.0830688476562 467.6799011230469 567.1804809570312 440.83642578125 546.6251220703125 447.8667297363281" stroke-width="6.0" fill="none" stroke="rgb(0, 0, 0)" stroke-opacity="1.0" stroke-linecap="round" stroke-linejoin="round"/>
    <path d="M 404.4012145996094 163.28170776367188 C 414.07757568359375 162.42141723632812 410.6002197265625 148.77142333984375 425.8968200683594 125.60047912597656 C 421.7315979003906 112.63525390625 432.4007873535156 111.79322052001953 442.4287414550781 84.55826568603516 C 436.14453125 90.51775360107422 406.6057434082031 78.60292053222656 389.31976318359375 56.7970085144043 C 374.65093994140625 46.48435592651367 345.11474609375 61.34519958496094 325.65643310546875 54.157649993896484 C 337.876708984375 54.13338851928711 357.8779602050781 72.50540161132812 332.2024841308594 94.21126556396484" stroke-width="6.0" fill="none" stroke="rgb(0, 0, 0)" stroke-opacity="1.0" stroke-linecap="round" stroke-linejoin="round"/>
    <path d="M 25.401338577270508 11.224923133850098 C 50.67110061645508 32.95152282714844 55.216651916503906 37.35550308227539 67.74659729003906 32.41714096069336 C 44.6769905090332 3.688534736633301 34.163082122802734 21.767864227294922 41.2505989074707 41.68941879272461 C 66.43678283691406 16.977210998535156 87.10585021972656 1.5762001276016235 92.43812561035156 3.0139527320861816 C 86.18412017822266 -8.369573593139648 76.55492401123047 -18.385456085205078 56.642887115478516 -17.756460189819336 C 33.48448181152344 -17.159334182739258 57.839847564697266 -26.196821212768555 71.48258972167969 -7.059903144836426" stroke-width="6.0" fill="none" stroke="rgb(0, 0, 0)" stroke-opacity="1.0" stroke-linecap="round" stroke-linejoin="round"/>
    <path d="M 489.0422058105469 141.74130249023438 C 467.828857421875 123.57762908935547 473.9728088378906 139.2305450439453 483.3033447265625 119.81930541992188 C 499.6342468261719 119.46632385253906 514.9009399414062 135.0989532470703 511.8352966308594 160.5482177734375 C 515.7047729492188 168.66610717773438 523.1760864257812 190.52093505859375 530.8091430664062 169.53836059570312 C 504.9462890625 166.07083129882812 493.11553955078125 152.59127807617188 466.4858703613281 152.99147033691406 C 455.0703430175781 150.10630798339844 428.4837646484375 170.0081024169922 403.1275939941406 191.86309814453125" stroke-width="6.0" fill="none" stroke="rgb(0, 0, 0)" stroke-opacity="1.0" stroke-linecap="round" stroke-linejoin="round"/>
    <path d="M 513.196044921875 369.0250244140625 C 513.6201171875 366.74774169921875 516.8790893554688 384.2568054199219 540.6317138671875 381.2408142089844 C 559.2206420898438 390.35107421875 548.5122680664062 388.8888244628906 527.5639038085938 362.60125732421875 C 503.77398681640625 386.5888366699219 494.3802490234375 399.40777587890625 494.6531982421875 379.8013000488281 C 479.4778747558594 376.0668029785156 475.8431701660156 377.43170166015625 455.367919921875 369.7628173828125 C 442.38153076171875 364.2889709472656 432.6835632324219 370.162109375 450.0372009277344 379.0004577636719" stroke-width="6.0" fill="none" stroke="rgb(0, 0, 0)" stroke-opacity="1.0" stroke-linecap="round" stroke-linejoin="round"/>
    <path d="M 39.527122497558594 56.72356033325195 C 50.2298698425293 43.77238464355469 63.653892517089844 53.16623306274414 88.03445434570312 75.52301788330078 C 78.07617950439453 80.48738098144531 56.52187728881836 71.47663116455078 84.58367156982422 83.42542266845703 C 78.10115814208984 89.08790588378906 104.42127990722656 77.6628189086914 97.02203369140625 95.20252990722656 C 115.81312561035156 105.36952209472656 135.55067443847656 119.69600677490234 146.675537109375 121.27959442138672 C 155.43702697753906 116.6839828491211 147.14671325683594 108.4398422241211 127.96247863769531 91.2914047241211" stroke-width="6.0" fill="none" stroke="rgb(0, 0, 0)" stroke-opacity="1.0" stroke-linecap="round" stroke-linejoin="round"/>
    <path d="M 568.5809326171875 291.7825622558594 C 552.1735229492188 270.0364685058594 526.8034057617188 290.7021789550781 502.8719177246094 306.9146728515625 C 522.9790649414062 329.9755859375 495.2439270019531 320.1814270019531 511.2623596191406 298.04437255859375 C 503.8655700683594 277.7792053222656 523.7062377929688 294.0050964355469 542.2489013671875 273.9374694824219 C 538.54931640625 268.62896728515625 549.131103515625 252.88076782226562 545.7429809570312 239.9364471435547 C 560.6552124023438 236.8721160888672 562.6958618164062 225.440185546875 581.2132568359375 223.5811309814453" stroke-width="6.0" fill="none" stroke="rgb(0, 0, 0)" stroke-opacity="1.0" stroke-linecap="round" stroke-linejoin="round"/>
    <path d="M 501.0880432128906 220.6845703125 C 527.9158935546875 249.7909698486328 525.5765991210938 236.6572723388672 518.5289916992188 238.3048553466797 C 546.5050659179688 257.3583068847656 564.5405883789062 235.66224670410156 549.540771484375 244.1329803466797 C 571.9878540039062 247.4054412841797 548.1431884765625 268.1589660644531 569.2532348632812 255.26275634765625 C 585.0202026367188 241.6102294921875 609.338623046875 220.45114135742188 605.6068725585938 247.21595764160156 C 588.92919921875 244.2836151123047 579.9043579101562 215.88381958007812 553.0997314453125 216.00425720214844" stroke-width="6.0" fill="none" stroke="rgb(0, 0, 0)" stroke-opacity="1.0" stroke-linecap="round" stroke-linejoin="round"/>
    <path d="M 141.4668426513672 596.7152099609375 C 133.96160888671875 568.406494140625 159.8111572265625 588.7570190429688 168.8087921142578 606.2398681640625 C 147.0647735595703 593.45263671875 166.85047912597656 605.2169189453125 145.17803955078125 617.5491333007812 C 142.0941162109375 587.8641967773438 116.84766387939453 573.2196655273438 136.9630584716797 576.1663818359375 C 150.5995330810547 577.794189453125 127.270751953125 565.0802612304688 115.3398208618164 537.9452514648438 C 110.4893569946289 555.6192016601562 107.9561767578125 532.2706909179688 132.26498413085938 538.0750732421875" stroke-width="6.0" fill="none" stroke="rgb(0, 0, 0)" stroke-opacity="1.0" stroke-linecap="round" stroke-linejoin="round"/>
    <path d="M 9.861211776733398 309.2254333496094 C -5.622500896453857 287.8400573730469 -9.86816692352295 294.7286071777344 -25.43431282043457 289.7226867675781 C -15.57203483581543 264.8595275878906 12.907234191894531 238.92027282714844 14.47080135345459 239.3599395751953 C 43.77069091796875 242.6090545654297 37.197914123535156 240.81716918945312 45.35811996459961 269.6595458984375 C 30.57717514038086 240.63404846191406 47.88837814331055 231.32220458984375 61.86484146118164 239.0176239013672 C 78.11492156982422 253.16885375976562 68.0660400390625 225.82899475097656 70.86685943603516 244.6395263671875" stroke-width="6.0" fill="none" stroke="rgb(0, 0, 0)" stroke-opacity="1.0" stroke-linecap="round" stroke-linejoin="round"/>
    <path d="M 105.07347106933594 467.465576171875 C 102.95085144042969 479.18890380859375 110.85499572753906 497.8787841796875 84.64102935791016 514.4501342773438 C 82.101806640625 502.0567321777344 54.73018264770508 484.06494140625 27.204544067382812 510.0671691894531 C 28.147558212280273 539.39453125 30.729398727416992 524.5933837890625 45.92685317993164 506.0596008300781 C 37.34530258178711 522.9100952148438 59.29319763183594 512.8255615234375 36.74170684814453 504.92669677734375 C 60.110897064208984 519.5252075195312 83.82913970947266 512.723876953125 112.25255584716797 512.4560546875" stroke-width="6.0" fill="none" stroke="rgb(0, 0, 0)" stroke-opacity="1.0" stroke-linecap="round" stroke-linejoin="round"/>
    <path d="M 298.5140380859375 554.5862426757812 C 299.67059326171875 572.6551513671875 313.29547119140625 547.3908081054688 319.4426574707031 566.7312622070312 C 322.171142578125 556.0039672851562 296.9752502441406 565.6591186523438 285.3607177734375 571.8089599609375 C 280.9125061035156 583.1824951171875 272.0047912597656 555.7235717773438 294.24700927734375 546.9171752929688 C 324.13604736328125 533.3505249023438 352.89776611328125 560.2247314453125 327.40045166015625 568.4756469726562 C 319.2188415527344 586.5612182617188 329.9834899902344 613.7286376953125 308.55023193359375 620.1830444335938" stroke-width="6.0" fill="none" stroke="rgb(0, 0, 0)" stroke-opacity="1.0" stroke-linecap="round" stroke-linejoin="round"/>
    <path d="M 468.80718994140625 20.89937973022461 C 442.8411865234375 37.61030197143555 434.82086181640625 30.581565856933594 438.8155822753906 36.88725662231445 C 449.5592956542969 63.81666946411133 441.8800964355469 79.56173706054688 446.3153991699219 81.36932373046875 C 440.2374267578125 90.302978515625 425.1741638183594 67.10989379882812 439.3146667480469 67.09252166748047 C 432.53387451171875 70.79288482666016 418.2405090332031 56.410274505615234 415.0168762207031 86.15219116210938 C 402.1514892578125 111.14092254638672 401.6235046386719 88.4991683959961 422.7930603027344 85.6217269897461" stroke-width="6.0" fill="none" stroke="rgb(0, 0, 0)" stroke-opacity="1.0" stroke-linecap="round" stroke-linejoin="round"/>
    <path d="M 539.1873779296875 267.0467224121094 C 514.454833984375 277.9624938964844 535.2261352539062 267.13775634765625 526.0716552734375 241.0341033935547 C 528.5618896484375 264.5539855957031 549.6836547851562 277.2225341796875 575.3231201171875 285.48455810546875 C 592.9049072265625 286.0098876953125 570.2266845703125 268.10870361328125 548.519287109375 285.4910888671875 C 520.0963134765625 288.7323913574219 512.23095703125 306.95208740234375 515.3297729492188 313.6689758300781 C 490.542724609375 302.2264099121094 520.5184326171875 315.3586120605469 522.0201416015625 331.5484619140625" stroke-width="6.0" fill="none" stroke="rgb(0, 0, 0)" stroke-opacity="1.0" stroke-linecap="round" stroke-linejoin="round"/>
    <path d="M 493.983642578125 44.27042770385742 C 522.366455078125 52.81074142456055 519.3649291992188 63.5772819519043 510.0357666015625 86.25489044189453 C 526.8515625 94.6825180053711 507.76934814453125 122.65840148925781 503.7264404296875 147.26113891601562 C 477.0511779785156 124.7108154296875 456.23211669921875 104.5902328491211 445.5917663574219 117.1901626586914 C 436.3132019042969 143.64439392089844 460.00872802734375 164.3604278564453 445.0450744628906 172.46385192871094 C 448.135498046875 149.9740753173828 436.30499267578125 151.9827423095703 436.4194030761719 132.1409149169922" stroke-width="6.0" fill="none" stroke="rgb(0, 0, 0)" stroke-opacity="1.0" stroke-linecap="round" stroke-linejoin="round"/>
    <path d="M 564.9841918945312 92.4965591430664 C 574.5081787109375 105.73453521728516 580.8164672851562 126.28636932373047 584.5935668945312 145.8404998779297 C 556.2959594726562 118.56820678710938 564.783203125 123.17448425292969 573.8510131835938 139.1920166015625 C 568.84619140625 147.4915008544922 568.728515625 155.12132263183594 556.1087646484375 182.5203399658203 C 555.1255493164062 200.80165100097656 566.1849365234375 188.68768310546875 540.5632934570312 162.28245544433594 C 536.9396362304688 161.29750061035156 519.1810302734375 167.69712829589844 507.9759826660156 180.7989044189453" stroke-width="6.0" fill="none" stroke="rgb(0, 0, 0)" stroke-opacity="1.0" stroke-linecap="round" stroke-linejoin="round"/>
    <path d="M 440.53985595703125 516.4864501953125 C 469.0622863769531 494.3323669433594 461.2947082519531 498.0314636230469 450.4017028808594 496.0198059082031 C 436.4899597167969 480.8549499511719 412.29864501953125 468.2676696777344 405.34765625 475.1903381347656 C 390.24383544921875 497.1487731933594 369.7858581542969 486.7948913574219 374.44708251953125 475.517822265625 C 390.234375 475.41375732421875 391.1578369140625 475.3393249511719 379.6702575683594 446.7698974609375 C 406.3442687988281 447.05657958984375 434.345458984375 429.96527099609375 425.55914306640625 402.9976806640625" stroke-width="6.0" fill="none" stroke="rgb(0, 0, 0)" stroke-opacity="1.0" stroke-linecap="round" stroke-linejoin="round"/>
    <path d="M 296.9165344238281 529.4237060546875 C 306.21209716796875 527.658935546875 308.4135437011719 548.4492797851562 304.26922607421875 571.3965454101562 C 317.89971923828125 587.2479858398438 309.8559875488281 581.2828979492188 314.0728759765625 562.9622192382812 C 317.2662353515625 537.3740844726562 317.5215759277344 553.2383422851562 304.2996826171875 582.5758666992188 C 315.10919189453125 559.6926879882812 343.61370849609375 553.32666015625 361.3475036621094 543.6718139648438 C 387.6444396972656 558.9697265625 369.5879211425781 559.5570678710938 369.632568359375 532.2752685546875" stroke-width="6.0" fill="none" stroke="rgb(0, 0, 0)" stroke-opacity="1.0" stroke-linecap="round" stroke-linejoin="round"/>
    <path d="M 82.20182800292969 199.80442810058594 C 80.62647247314453 197.26373291015625 87.04210662841797 198.194091796875 76.68006134033203 204.93817138671875 C 56.43017578125 234.37510681152344 70.82933807373047 222.3291778564453 60.97174835205078 242.02651977539062 C 62.91213607788086 254.55091857910156 50.89957046508789 273.53582763671875 43.04104232788086 283.9642333984375 C 71.794921875 288.9863586425781 89.60021209716797 302.5058288574219 100.88282775878906 274.06463623046875 C 99.35824584960938 302.1288757324219 116.33248901367188 318.6986083984375 120.99054718017578 331.9826354980469" stroke-width="6.0" fill="none" stroke="rgb(0, 0, 0)" stroke-opacity="1.0" stroke-linecap="round" stroke-linejoin="round"/>
    <path d="M 350.0939636230469 102.28723907470703 C 357.8354797363281 109.47138977050781 378.3454895019531 88.33792877197266 389.1890869140625 60.272159576416016 C 416.04144287109375 36.86589050292969 387.1777038574219 25.68743896484375 366.2635498046875 37.117454528808594 C 360.88623046875 53.61579513549805 386.1574401855469 75.98484802246094 400.30767822265625 49.72173309326172 C 378.5526428222656 32.162235260009766 368.0556335449219 41.89583969116211 369.5842590332031 30.720996856689453 C 349.9752197265625 55.448448181152344 340.5148010253906 46.70566940307617 356.8741760253906 59.96113967895508" stroke-width="6.0" fill="none" stroke="rgb(0, 0, 0)" stroke-opacity="1.0" stroke-linecap="round" stroke-linejoin="round"/>
    <path d="M 386.0054626464844 415.9679870605469 C 392.570068359375 397.50384521484375 377.3612060546875 400.9890441894531 360.8532409667969 429.4036865234375 C 348.7101135253906 416.743896484375 331.186767578125 429.00323486328125 320.2091979980469 419.931396484375 C 346.1912536621094 437.6557312011719 332.5987243652344 414.9681701660156 343.23602294921875 407.7498474121094 C 372.0456237792969 426.85247802734375 399.3221740722656 445.1294250488281 386.74932861328125 432.38726806640625 C 399.5578308105469 423.1690673828125 396.140380859375 408.5556945800781 394.8851318359375 390.7197570800781" stroke-width="6.0" fill="none" stroke="rgb(0, 0, 0)" stroke-opacity="1.0" stroke-linecap="round" stroke-linejoin="round"/>
    <path d="M 323.1268005371094 559.7943115234375 C 334.89703369140625 538.0307006835938 341.8376770019531 543.2405395507812 326.3851318359375 553.4306030273438 C 328.2875671386719 561.7073974609375 301.3971252441406 556.50537109375 314.4385986328125 532.5380249023438 C 330.6845397949219 502.8489685058594 333.7057189941406 528.5949096679688 328.1201477050781 554.6968383789062 C 350.8441467285156 553.36376953125 332.81146240234375 581.1986083984375 322.08154296875 589.9524536132812 C 346.5577392578125 565.3201293945312 351.0057373046875 567.4292602539062 364.392822265625 593.6294555664062" stroke-width="6.0" fill="none" stroke="rgb(0, 0, 0)" stroke-opacity="1.0" stroke-linecap="round" stroke-linejoin="round"/>
    <path d="M 547.9578247070312 105.0588607788086 C 570.8525390625 85.60618591308594 596.0305786132812 115.43649291992188 589.850341796875 115.1595230102539 C 616.0667724609375 142.86741638183594 641.629150390625 165.4720001220703 612.1852416992188 169.54971313476562 C 588.623291015625 198.52935791015625 575.6969604492188 227.87530517578125 578.2949829101562 227.51007080078125 C 604.6085815429688 248.5736541748047 602.6898803710938 230.142333984375 579.44873046875 209.89199829101562 C 576.9835815429688 195.327880859375 558.155517578125 209.52496337890625 575.6015625 213.59182739257812" stroke-width="6.0" fill="none" stroke="rgb(0, 0, 0)" stroke-opacity="1.0" stroke-linecap="round" stroke-linejoin="round"/>
    <path d="M 454.3896179199219 105.27694702148438 C 475.7584228515625 129.09950256347656 495.3778381347656 130.016357421875 470.58209228515625 140.1717071533203 C 451.62896728515625 118.64837646484375 441.0450744628906 103.53123474121094 426.6921691894531 87.62252044677734 C 441.9176025390625 114.86460876464844 430.03436279296875 128.237548828125 400.7204895019531 137.45855712890625 C 412.2865905761719 111.18602752685547 389.4200744628906 99.59440612792969 383.7450866699219 99.78562927246094 C 407.4521789550781 111.9990463256836 396.11083984375 89.04399108886719 421.07867431640625 76.74624633789062" stroke-width="6.0" fill="none" stroke="rgb(0, 0, 0)" stroke-opacity="1.0" stroke-linecap="round" stroke-linejoin="round"/>
    <path d="M 368.7552795410156 131.49716186523438 C 346.7694091796875 110.68828582763672 361.6734619140625 117.03262329101562 356.62420654296875 119.9866943359375 C 354.8738708496094 122.23775482177734 364.71954345703125 105.34246063232422 349.52752685546875 120.58683776855469 C 371.9156188964844 95.49905395507812 368.7204895019531 107.72502136230469 343.4066467285156 111.57514190673828 C 317.1121520996094 114.43409729003906 317.4413757324219 118.83619689941406 296.4324951171875 108.48326110839844 C 297.6929626464844 85.45765686035156 280.0170593261719 90.44652557373047 255.43356323242188 91.10903930664062" stroke-width="6.0" fill="none" stroke="rgb(0, 0, 0)" stroke-opacity="1.0" stroke-linecap="round" stroke-linejoin="round"/>
    <path d="M 485.1952819824219 272.0393981933594 C 486.0301208496094 269.4472961425781 459.4543151855469 267.19000244140625 477.8692626953125 280.5867919921875 C 471.6661682128906 299.5740051269531 486.4144287109375 304.2726745605469 459.1318054199219 294.94439697265625 C 432.9574279785156 324.6318054199219 459.0323791503906 298.77294921875 485.0189208984375 270.6370849609375 C 479.5509338378906 286.775390625 495.5006103515625 315.5153503417969 504.25347900390625 310.6971130371094 C 533.8248291015625 303.68585205078125 556.0020751953125 328.0918884277344 548.580810546875 339.05572509765625" stroke-width="6.0" fill="none" stroke="rgb(0, 0, 0)" stroke-opacity="1.0" stroke-linecap="round" stroke-linejoin="round"/>
    <path d="M 397.0954895019531 323.5601806640625 C 406.267578125 314.4263610839844 386.9759826660156 316.6618957519531 388.70654296875 330.3733215332031 C 372.0679626464844 300.5817565917969 343.4320983886719 288.4835205078125 353.8420715332031 291.1502380371094 C 355.7980651855469 310.5518798828125 340.6488037109375 301.3214416503906 327.1877746582031 327.5660705566406 C 340.689208984375 304.33673095703125 359.2579040527344 299.4512023925781 375.22113037109375 322.4765930175781 C 346.15985107421875 304.8814697265625 322.2136535644531 276.8560791015625 328.040771484375 289.0532531738281" stroke-width="6.0" fill="none" stroke="rgb(0, 0, 0)" stroke-opacity="1.0" stroke-linecap="round" stroke-linejoin="round"/>
    <path d="M 29.205791473388672 444.32464599609375 C 23.341712951660156 428.385009765625 6.377866744995117 450.2088317871094 -20.235492706298828 450.44256591796875 C -32.87968444824219 469.3897705078125 -18.988636016845703 458.5239562988281 -13.113574981689453 468.8758850097656 C -23.873666763305664 456.98175048828125 -45.278045654296875 466.5945129394531 -62.015480041503906 454.62457275390625 C -88.35801696777344 481.5357666015625 -65.57518768310547 506.2304382324219 -58.01559829711914 501.8624572753906 C -58.278350830078125 530.1998901367188 -31.783166885375977 540.4804077148438 -14.63489055633545 529.6044921875" stroke-width="6.0" fill="none" stroke="rgb(0, 0, 0)" stroke-opacity="1.0" stroke-linecap="round" stroke-linejoin="round"/>
    <path d="M 249.81478881835938 89.51056671142578 C 242.36239624023438 104.7755355834961 240.77352905273438 125.73599243164062 228.8177032470703 138.19058227539062 C 247.16427612304688 163.1150665283203 250.9074249267578 191.18223571777344 254.3846435546875 169.22779846191406 C 238.91615295410156 151.38800048828125 247.7584991455078 176.72157287597656 268.58648681640625 152.30941772460938 C 282.06158447265625 133.73831176757812 268.1293029785156 144.15863037109375 274.3446044921875 166.5758514404297 C 255.6343994140625 182.27764892578125 269.09271240234375 185.8086700439453 267.8163757324219 207.93710327148438" stroke-width="6.0" fill="none" stroke="rgb(0, 0, 0)" stroke-opacity="1.0" stroke-linecap="round" stroke-linejoin="round"/>
    <path d="M 199.77857971191406 574.2118530273438 C 170.6986083984375 600.4414672851562 198.4232635498047 577.4804077148438 228.3975830078125 576.2156982421875 C 212.95318603515625 582.4797973632812 195.2239532470703 607.3873901367188 198.3487091064453 623.9181518554688 C 191.1884307861328 625.9371948242188 182.74400329589844 611.6309204101562 183.5129852294922 611.467529296875 C 159.4294891357422 640.3466186523438 157.59890747070312 660.7305297851562 182.458740234375 652.9727783203125 C 177.2945556640625 656.7243041992188 160.5709991455078 635.4796142578125 146.21743774414062 661.5651245117188" stroke-width="6.0" fill="none" stroke="rgb(0, 0, 0)" stroke-opacity="1.0" stroke-linecap="round" stroke-linejoin="round"/>
    <path d="M 347.5057373046875 250.52684020996094 C 326.6504211425781 240.3587646484375 319.4408264160156 260.3605041503906 319.39892578125 269.5970153808594 C 330.4897155761719 255.03659057617188 349.78521728515625 283.027099609375 358.2868957519531 282.46282958984375 C 338.3409423828125 300.161376953125 318.49688720703125 313.38018798828125 317.79583740234375 338.3941345214844 C 320.3640441894531 346.9027099609375 293.8879699707031 318.97210693359375 314.6898193359375 345.6434326171875 C 324.7827453613281 361.5037841796875 319.5262756347656 382.096435546875 303.4122619628906 394.4866027832031" stroke-width="6.0" fill="none" stroke="rgb(0, 0, 0)" stroke-opacity="1.0" stroke-linecap="round" stroke-linejoin="round"/>
    <path d="M 5.484877109527588 303.4397277832031 C -2.1230814456939697 310.5098571777344 7.882202625274658 317.5010070800781 6.874451637268066 316.77227783203125 C -22.72880744934082 319.87091064453125 -52.01774597167969 321.6359558105469 -65.5333023071289 350.28472900390625 C -94.50474548339844 369.0741271972656 -84.06277465820312 387.4442443847656 -59.47637176513672 363.865234375 C -83.69754028320312 342.7990417480469 -102.18161010742188 344.38641357421875 -83.26875305175781 330.4259033203125 C -89.45496368408203 322.8089904785156 -95.09332275390625 326.7091064453125 -65.67933654785156 310.26055908203125" stroke-width="6.0" fill="none" stroke="rgb(0, 0, 0)" stroke-opacity="1.0" stroke-linecap="round" stroke-linejoin="round"/>
    <path d="M 410.4449462890625 508.7402648925781 C 419.6690979003906 530.2334594726562 435.2442626953125 505.84344482421875 428.0000915527344 508.9655456542969 C 401.36700439453125 479.5325622558594 381.6500244140625 479.5240478515625 377.6846008300781 496.6266174316406 C 381.635986328125 518.104248046875 357.3177490234375 519.7938232421875 329.8708190917969 502.47882080078125 C 351.95782470703125 525.7321166992188 350.52783203125 498.5257873535156 324.98870849609375 524.0609130859375 C 348.9474182128906 527.8715209960938 320.9215087890625 553.5974731445312 309.79058837890625 581.2855834960938" stroke-width="6.0" fill="none" stroke="rgb(0, 0, 0)" stroke-opacity="1.0" stroke-linecap="round" stroke-linejoin="round"/>
    <path d="M 352.2416687011719 451.3726806640625 C 365.00433349609375 445.23046875 339.6205749511719 424.9774475097656 324.0089416503906 445.0565185546875 C 317.35833740234375 468.8480529785156 307.26214599609375 484.1846008300781 285.6991271972656 513.5333251953125 C 299.1089782714844 513.5408325195312 327.5683898925781 486.76263427734375 323.8336486816406 507.0831298828125 C 314.2292175292969 523.2234497070312 341.520751953125 517.025634765625 357.9740295410156 488.8431396484375 C 344.3736267089844 518.3980102539062 343.7698669433594 509.7070007324219 370.2384338378906 505.6578674316406" stroke-width="6.0" fill="none" stroke="rgb(0, 0, 0)" stroke-opacity="1.0" stroke-linecap="round" stroke-linejoin="round"/>
    <path d="M 407.7969055175781 396.4231262207031 C 382.97857666015625 403.54010009765625 400.8618469238281 416.3266296386719 375.78411865234375 395.5398864746094 C 388.4447937011719 403.5739440917969 402.8240966796875 392.6145935058594 379.2171630859375 362.9263000488281 C 367.7132263183594 354.5213623046875 353.9391784667969 332.4317932128906 335.1427001953125 329.40240478515625 C 338.4271240234375 323.8450927734375 310.04278564453125 315.0799560546875 285.62664794921875 321.0025634765625 C 275.09246826171875 314.07684326171875 262.5633239746094 307.3448181152344 237.685302734375 331.4129638671875" stroke-width="6.0" fill="none" stroke="rgb(0, 0, 0)" stroke-opacity="1.0" stroke-linecap="round" stroke-linejoin="round"/>
    <path d="M 543.1444702148438 586.8839111328125 C 547.4622192382812 567.0587768554688 540.3060913085938 545.3892211914062 528.333984375 545.0166625976562 C 502.1300354003906 541.0972290039062 497.3961486816406 540.151123046875 472.01141357421875 525.2531127929688 C 456.8468322753906 532.715087890625 462.4751892089844 514.447998046875 438.85357666015625 502.7275085449219 C 465.7829895019531 492.6605224609375 473.03448486328125 510.9051513671875 462.8069763183594 500.9892883300781 C 481.6955261230469 522.5997924804688 510.1490478515625 500.7672424316406 499.4289245605469 527.60400390625" stroke-width="6.0" fill="none" stroke="rgb(0, 0, 0)" stroke-opacity="1.0" stroke-linecap="round" stroke-linejoin="round"/>
    <path d="M 120.49089813232422 188.5299835205078 C 148.40538024902344 216.65347290039062 135.8922576904297 228.31094360351562 135.3527069091797 232.86370849609375 C 119.85816192626953 225.42701721191406 138.88783264160156 219.0031280517578 115.72109985351562 222.87416076660156 C 121.2147216796875 225.61190795898438 132.1174774169922 228.61785888671875 159.3377685546875 226.315185546875 C 171.8397674560547 222.6224822998047 159.3196563720703 234.15260314941406 178.4575958251953 251.93202209472656 C 173.00608825683594 251.8902130126953 181.00624084472656 236.41148376464844 190.48602294921875 249.32566833496094" stroke-width="6.0" fill="none" stroke="rgb(0, 0, 0)" stroke-opacity="1.0" stroke-linecap="round" stroke-linejoin="round"/>
    <path d="M 473.4660339355469 44.35907745361328 C 502.86810302734375 43.15316390991211 496.9164123535156 43.549922943115234 522.139892578125 55.05245590209961 C 524.7586059570312 72.4957046508789 516.3704223632812 96.22579956054688 518.5847778320312 104.51661682128906 C 493.6436767578125 120.65385437011719 503.09979248046875 111.91439819335938 511.9197998046875 84.57219696044922 C 540.976318359375 95.22051239013672 534.953369140625 110.38147735595703 562.8963623046875 106.20880889892578 C 533.4891967773438 91.77310943603516 534.1297607421875 92.90097045898438 538.9608764648438 97.41510009765625" stroke-width="6.0" fill="none" stroke="rgb(0, 0, 0)" stroke-opacity="1.0" stroke-linecap="round" stroke-linejoin="round"/>
    <path d="M 267.4471435546875 234.66049194335938 C 283.7876892089844 240.01589965820312 283.81561279296875 230.7139434814453 255.28936767578125 206.98690795898438 C 250.24789428710938 234.65057373046875 227.21205139160156 261.0911560058594 205.7525634765625 249.80455017089844 C 203.0325164794922 232.25660705566406 202.0081024169922 230.82635498046875 198.29803466796875 242.59214782714844 C 187.4326171875 230.6079864501953 206.04376220703125 207.5131072998047 227.03457641601562 216.4313201904297 C 237.66293334960938 196.2925567626953 266.6969299316406 180.92733764648438 247.1241455078125 160.49546813964844" stroke-width="6.0" fill="none" stroke="rgb(0, 0, 0)" stroke-opacity="1.0" stroke-linecap="round" stroke-linejoin="round"/>
    <path d="M 335.9093933105469 575.0775756835938 C 319.8207092285156 569.3804321289062 300.8878173828125 577.8091430664062 296.7958984375 549.5407104492188 C 303.6423034667969 531.380126953125 309.1744689941406 524.7102661132812 321.4586486816406 507.057373046875 C 336.5981750488281 525.6212158203125 310.3519592285156 501.686279296875 332.6707458496094 482.90386962890625 C 322.2698059082031 480.39691162109375 307.9710388183594 502.15509033203125 309.63397216796875 510.5015869140625 C 315.45220947265625 517.1801147460938 320.6724548339844 508.015625 341.4435119628906 515.057373046875" stroke-width="6.0" fill="none" stroke="rgb(0, 0, 0)" stroke-opacity="1.0" stroke-linecap="round" stroke-linejoin="round"/>
    <path d="M 488.22296142578125 423.6130065917969 C 476.06964111328125 430.4820556640625 451.19476318359375 408.5189514160156 428.2264709472656 396.8017578125 C 409.2091369628906 408.407958984375 409.89862060546875 403.5422668457031 388.170654296875 396.52490234375 C 369.27587890625 404.6949768066406 380.8818664550781 413.41058349609375 410.8758239746094 416.7053527832031 C 410.2943420410156 395.0831604003906 399.16912841796875 392.1432189941406 372.38580322265625 383.6855773925781 C 342.9608459472656 361.87762451171875 361.873779296875 389.7073669433594 362.2000732421875 389.40557861328125" stroke-width="6.0" fill="none" stroke="rgb(0, 0, 0)" stroke-opacity="1.0" stroke-linecap="round" stroke-linejoin="round"/>
    <path d="M 410.7980041503906 249.3982696533203 C 431.1915283203125 248.6802215576172 406.1517639160156 220.53187561035156 421.815185546875 208.05726623535156 C 408.3063049316406 210.35379028320312 388.39886474609375 207.79307556152344 402.9499816894531 223.7482452392578 C 405.93353271484375 200.54090881347656 382.8258972167969 217.04769897460938 402.1828918457031 209.01937866210938 C 421.53955078125 181.51602172851562 434.6783752441406 184.29721069335938 464.06494140625 160.48220825195312 C 483.869140625 175.56292724609375 471.77166748046875 205.52169799804688 468.71563720703125 196.39630126953125" stroke-width="6.0" fill="none" stroke="rgb(0, 0, 0)" stroke-opacity="1.0" stroke-linecap="round" stroke-linejoin="round"/>
    <path d="M 490.0571594238281 263.42193603515625 C 519.6946411132812 279.9598693847656 503.9113464355469 298.6020202636719 509.1867980957031 289.6398620605469 C 521.83203125 297.6061096191406 501.79095458984375 275.960205078125 484.1881103515625 258.37677001953125 C 457.74957275390625 249.42568969726562 444.61468505859375 251.75180053710938 434.0339050292969 264.0350036621094 C 421.3539123535156 250.0756072998047 442.8349304199219 279.1649169921875 453.5928649902344 254.9184112548828 C 481.3592224121094 272.05987548828125 506.4853210449219 301.6090393066406 528.5081787109375 279.22235107421875" stroke-width="6.0" fill="none" stroke="rgb(0, 0, 0)" stroke-opacity="1.0" stroke-linecap="round" stroke-linejoin="round"/>
    <path d="M 519.6272583007812 149.82635498046875 C 532.3109741210938 169.53526306152344 547.9993896484375 180.1093292236328 547.4069213867188 184.71485900878906 C 533.5299682617188 179.568359375 530.6094360351562 187.58602905273438 553.4169311523438 163.2117156982422 C 554.353759765625 149.86524963378906 580.5338745117188 142.0495147705078 607.5891723632812 131.68687438964844 C 577.7175903320312 148.11500549316406 591.6810302734375 161.97091674804688 589.1879272460938 171.81954956054688 C 580.6812744140625 145.619384765625 582.7467651367188 128.68919372558594 578.525390625 111.40027618408203" stroke-width="6.0" fill="none" stroke="rgb(0, 0, 0)" stroke-opacity="1.0" stroke-linecap="round" stroke-linejoin="round"/>
    <path d="M 161.12210083007812 497.00616455078125 C 151.38742065429688 501.68218994140625 155.35594177246094 500.8024597167969 146.0003204345703 511.735595703125 C 118.90486907958984 487.7100830078125 135.93826293945312 485.324951171875 113.35249328613281 506.7840576171875 C 109.82965087890625 476.7846374511719 137.31155395507812 458.9237060546875 148.62705993652344 436.8385009765625 C 157.6268768310547 416.3771667480469 183.59042358398438 402.8183288574219 192.86570739746094 387.8416748046875 C 185.21633911132812 412.10968017578125 165.14784240722656 405.8901672363281 153.4783935546875 417.8566589355469" stroke-width="6.0" fill="none" stroke="rgb(0, 0, 0)" stroke-opacity="1.0" stroke-linecap="round" stroke-linejoin="round"/>
    <path d="M 140.46629333496094 393.2711486816406 C 152.6881866455078 363.3363342285156 151.3365936279297 341.2983093261719 134.90805053710938 352.1372375488281 C 105.46524810791016 363.8730773925781 124.4917984008789 393.1224060058594 119.83063507080078 371.0528869628906 C 94.04033660888672 364.07708740234375 107.88613891601562 340.1827392578125 96.68722534179688 363.0820617675781 C 74.91498565673828 379.44970703125 90.10445404052734 357.4384765625 119.68087005615234 336.0096740722656 C 121.55135345458984 306.55810546875 130.5125732421875 302.9640808105469 143.85848999023438 310.6488952636719" stroke-width="6.0" fill="none" stroke="rgb(0, 0, 0)" stroke-opacity="1.0" stroke-linecap="round" stroke-linejoin="round"/>
    <path d="M 90.80448150634766 247.0059356689453 C 101.99845123291016 268.6436767578125 77.23973083496094 244.67160034179688 92.34647369384766 250.04603576660156 C 85.4283676147461 277.8409423828125 74.29859924316406 256.2307434082031 60.916664123535156 231.24569702148438 C 64.0804672241211 237.28616333007812 70.53604888916016 254.0243377685547 81.9646224975586 274.8578796386719 C 91.46894073486328 262.95684814453125 92.53388214111328 263.5281677246094 107.44449615478516 251.2606964111328 C 80.71864318847656 275.135498046875 107.99893951416016 274.8287353515625 84.72356414794922 274.8436584472656" stroke-width="6.0" fill="none" stroke="rgb(0, 0, 0)" stroke-opacity="1.0" stroke-linecap="round" stroke-linejoin="round"/>
    <path d="M 356.3778381347656 316.9519348144531 C 385.0396423339844 346.204833984375 411.07513427734375 324.1238098144531 432.7239685058594 328.22662353515625 C 424.6487121582031 339.1631774902344 440.41229248046875 366.43035888671875 456.59429931640625 337.4717102050781 C 430.64630126953125 323.20281982421875 403.035888671875 296.8309631347656 420.4332580566406 297.22760009765625 C 428.1075134277344 297.25054931640625 423.0334167480469 309.35919189453125 397.9791259765625 311.5530700683594 C 404.9419250488281 298.2011413574219 393.5363464355469 298.8794250488281 375.72821044921875 317.3630065917969" stroke-width="6.0" fill="none" stroke="rgb(0, 0, 0)" stroke-opacity="1.0" stroke-linecap="round" stroke-linejoin="round"/>
    <path d="M 321.8540954589844 234.4188995361328 C 329.9117431640625 254.53048706054688 340.77508544921875 228.49740600585938 352.6956481933594 242.29489135742188 C 373.4837341308594 215.76925659179688 348.61651611328125 211.83827209472656 345.8188171386719 218.3282012939453 C 334.41619873046875 232.8698272705078 348.8157043457031 210.0364227294922 361.2897644042969 222.1263885498047 C 341.1596984863281 249.30735778808594 342.5400085449219 266.28656005859375 355.7459716796875 246.2643585205078 C 333.40179443359375 263.1717834472656 319.52764892578125 286.3566589355469 335.7734680175781 258.1180419921875" stroke-width="6.0" fill="none" stroke="rgb(0, 0, 0)" stroke-opacity="1.0" stroke-linecap="round" stroke-linejoin="round"/>
    <path d="M 484.2846984863281 163.20835876464844 C 458.0770263671875 175.94775390625 462.6761169433594 150.5719451904297 459.9880065917969 142.13938903808594 C 460.0046081542969 146.15255737304688 452.0658264160156 131.4595184326172 428.2401428222656 135.93426513671875 C 441.60687255859375 119.63851928710938 442.1363220214844 92.28079986572266 463.91204833984375 76.91388702392578 C 462.2179260253906 69.93264770507812 441.18304443359375 95.80225372314453 462.63214111328125 98.9741439819336 C 487.50897216796875 113.41409301757812 482.6711120605469 102.72220611572266 477.6465148925781 115.93949127197266" stroke-width="6.0" fill="none" stroke="rgb(0, 0, 0)" stroke-opacity="1.0" stroke-linecap="round" stroke-linejoin="round"/>
    <path d="M 162.7747802734375 46.712242126464844 C 155.14328002929688 46.83470153808594 179.2197265625 27.595359802246094 197.48001098632812 56.52019119262695 C 224.76478576660156 30.615779876708984 222.67042541503906 17.59419059753418 243.36122131347656 7.232243537902832 C 246.5266876220703 -22.30960464477539 228.56695556640625 -18.481199264526367 216.80152893066406 -11.118147850036621 C 214.63848876953125 -5.615647315979004 214.25831604003906 10.759511947631836 195.94410705566406 34.746700286865234 C 211.5730438232422 19.454315185546875 181.95578002929688 14.056548118591309 165.93919372558594 4.846092224121094" stroke-width="6.0" fill="none" stroke="rgb(0, 0, 0)" stroke-opacity="1.0" stroke-linecap="round" stroke-linejoin="round"/>
    <path d="M 503.7643737792969 526.2991333007812 C 530.7838134765625 496.38690185546875 540.2220458984375 517.3272705078125 553.8949584960938 493.6041564941406 C 555.683837890625 477.89422607421875 555.20556640625 451.4879455566406 585.0231323242188 464.1871032714844 C 560.584716796875 489.4435729980469 584.4219360351562 490.62908935546875 596.4727783203125 482.9786071777344 C 624.946044921875 458.0727844238281 600.6807250976562 436.0836181640625 619.8784790039062 410.5734558105469 C 623.9476928710938 406.67242431640625 651.8008422851562 390.87872314453125 637.460205078125 379.7792663574219" stroke-width="6.0" fill="none" stroke="rgb(0, 0, 0)" stroke-opacity="1.0" stroke-linecap="round" stroke-linejoin="round"/>
    <path d="M 480.5101013183594 420.4553527832031 C 494.59124755859375 409.4988098144531 480.9486083984375 384.0200500488281 463.1113586425781 400.8162841796875 C 468.15386962890625 380.1009216308594 448.0563659667969 378.0642395019531 442.4071350097656 380.2197265625 C 470.2851867675781 362.6778869628906 458.8236389160156 348.5783386230469 436.0184631347656 328.0352783203125 C 447.1417541503906 347.61846923828125 458.9944152832031 320.0782775878906 479.1499328613281 309.745849609375 C 454.58270263671875 294.6390075683594 445.9672546386719 295.4066162109375 456.5982666015625 281.05657958984375" stroke-width="6.0" fill="none" stroke="rgb(0, 0, 0)" stroke-opacity="1.0" stroke-linecap="round" stroke-linejoin="round"/>
    <path d="M 594.406005859375 18.649255752563477 C 588.6694946289062 15.781326293945312 603.55419921875 0.7724838852882385 601.2767944335938 19.006290435791016 C 579.6643676757812 -10.27629566192627 599.4867553710938 18.677738189697266 577.3492431640625 38.11752700805664 C 569.68408203125 45.93598556518555 578.3651733398438 50.87542724609375 563.8944091796875 69.60025024414062 C 535.202392578125 43.468570709228516 559.3121337890625 40.0744514465332 537.0396118164062 64.37913513183594 C 556.8009643554688 54.3121223449707 529.36279296875 51.97181701660156 509.48211669921875 56.404869079589844" stroke-width="6.0" fill="none" stroke="rgb(0, 0, 0)" stroke-opacity="1.0" stroke-linecap="round" stroke-linejoin="round"/>
    <path d="M 493.0312194824219 237.01922607421875 C 464.76019287109375 248.01199340820312 445.12860107421875 230.89495849609375 426.3976745605469 217.6862335205078 C 449.36309814453125 189.72518920898438 456.5137023925781 174.4722900390625 444.260009765625 169.2318115234375 C 447.3013000488281 142.85055541992188 434.04791259765625 121.084716796875 416.05535888671875 144.1638641357422 C 417.6042175292969 152.00912475585938 435.69427490234375 169.7399139404297 465.0585021972656 186.61483764648438 C 456.6452331542969 189.2859649658203 455.6860046386719 214.0865478515625 455.82958984375 207.3494110107422" stroke-width="6.0" fill="none" stroke="rgb(0, 0, 0)" stroke-opacity="1.0" stroke-linecap="round" stroke-linejoin="round"/>
    <path d="M 107.8695297241211 191.30654907226562 C 91.05072784423828 215.09243774414062 107.76303100585938 188.60791015625 137.21490478515625 190.37384033203125 C 153.22543334960938 220.35018920898438 181.6642303466797 196.35824584960938 191.07608032226562 182.34986877441406 C 210.05319213867188 207.3854522705078 183.40773010253906 237.16896057128906 166.5724334716797 257.9192810058594 C 184.45587158203125 249.24754333496094 204.8092041015625 269.9208068847656 185.37521362304688 275.47198486328125 C 203.70782470703125 287.3295593261719 228.546630859375 259.02197265625 240.6202850341797 285.87548828125" stroke-width="6.0" fill="none" stroke="rgb(0, 0, 0)" stroke-opacity="1.0" stroke-linecap="round" stroke-linejoin="round"/>
    <path d="M 338.18389892578125 337.8453369140625 C 319.4779052734375 367.1257019042969 342.3754577636719 366.6593322753906 330.9186706542969 366.08551025390625 C 306.2941589355469 350.0828857421875 289.462646484375 351.6697998046875 259.46368408203125 376.74359130859375 C 241.55152893066406 354.57293701171875 254.56777954101562 379.6997985839844 275.224853515625 369.1151123046875 C 246.53961181640625 374.3116760253906 271.5730895996094 390.7736511230469 292.4018859863281 412.37384033203125 C 320.0354309082031 404.789306640625 346.5508117675781 398.56500244140625 322.57275390625 386.6709289550781" stroke-width="6.0" fill="none" stroke="rgb(0, 0, 0)" stroke-opacity="1.0" stroke-linecap="round" stroke-linejoin="round"/>
    <path d="M 81.85099792480469 94.52233123779297 C 108.77262115478516 112.03288269042969 136.4523468017578 120.98369598388672 116.864501953125 149.06826782226562 C 128.47811889648438 174.79898071289062 145.6976318359375 158.19320678710938 151.03463745117188 138.7143096923828 C 139.44403076171875 150.06422424316406 117.0849380493164 163.79408264160156 144.01222229003906 190.7159881591797 C 137.54830932617188 220.3329620361328 165.4593505859375 192.27590942382812 171.6026611328125 217.5382080078125 C 199.65457153320312 200.79193115234375 203.58758544921875 227.033203125 182.02618408203125 241.75379943847656" stroke-width="6.0" fill="none" stroke="rgb(0, 0, 0)" stroke-opacity="1.0" stroke-linecap="round" stroke-linejoin="round"/>
    <path d="M 142.79754638671875 589.4277954101562 C 122.87079620361328 612.5469970703125 98.1943588256836 625.0849609375 106.54052734375 648.2841796875 C 103.33831787109375 634.1969604492188 88.3107681274414 608.2645874023438 73.71024322509766 584.7466430664062 C 43.78711700439453 577.9028930664062 57.742183685302734 606.0490112304688 80.8153076171875 605.6339111328125 C 73.5380630493164 608.3953857421875 49.62377166748047 607.1647338867188 71.46681213378906 616.222900390625 C 82.69644165039062 595.9822998046875 57.11900329589844 616.72802734375 44.81352233886719 605.85107421875" stroke-width="6.0" fill="none" stroke="rgb(0, 0, 0)" stroke-opacity="1.0" stroke-linecap="round" stroke-linejoin="round"/>
    <path d="M 571.0172729492188 44.500240325927734 C 551.2236328125 37.027713775634766 565.1026611328125 39.85049057006836 588.9901123046875 15.436771392822266 C 594.6519775390625 22.275455474853516 593.6162109375 -5.864953517913818 620.1627197265625 -25.96512222290039 C 643.5479125976562 -46.53889846801758 619.6234130859375 -64.20586395263672 601.0224609375 -52.37406539916992 C 614.3447265625 -38.57562255859375 600.2606201171875 -51.684242248535156 584.5134887695312 -78.70611572265625 C 588.8197021484375 -58.314842224121094 568.0350952148438 -66.66510772705078 563.6914672851562 -78.99213409423828" stroke-width="6.0" fill="none" stroke="rgb(0, 0, 0)" stroke-opacity="1.0" stroke-linecap="round" stroke-linejoin="round"/>
    <path d="M 397.192138671875 360.1493225097656 C 379.1726379394531 331.6934509277344 359.42254638671875 319.16217041015625 334.3387145996094 339.7882995605469 C 322.8399353027344 333.6363220214844 322.18572998046875 343.29876708984375 297.6539611816406 345.9862976074219 C 278.78680419921875 369.1158447265625 270.9508972167969 365.8223876953125 256.7486572265625 363.7258605957031 C 240.32322692871094 349.839599609375 213.98158264160156 364.97369384765625 224.02967834472656 340.1560974121094 C 214.69715881347656 342.6030578613281 242.8994903564453 348.0266418457031 246.15560913085938 368.4744567871094" stroke-width="6.0" fill="none" stroke="rgb(0, 0, 0)" stroke-opacity="1.0" stroke-linecap="round" stroke-linejoin="round"/>
    <path d="M 491.0631103515625 251.19923400878906 C 493.1939697265625 273.17291259765625 491.6834716796875 296.0721130371094 490.2591552734375 270.8094177246094 C 514.4258422851562 283.66778564453125 514.5519409179688 307.695068359375 532.5789794921875 318.34716796875 C 539.7953491210938 295.60406494140625 555.2266845703125 275.976806640625 584.2887573242188 304.30670166015625 C 602.7763671875 281.85784912109375 598.1788330078125 311.1546630859375 594.3024291992188 340.9908142089844 C 601.93603515625 361.0373229980469 587.4091796875 385.6855773925781 612.2596435546875 359.706298828125" stroke-width="6.0" fill="none" stroke="rgb(0, 0, 0)" stroke-opacity="1.0" stroke-linecap="round" stroke-linejoin="round"/>
    <path d="M 232.83949279785156 238.43299865722656 C 222.4470977783203 225.0050506591797 219.93653869628906 247.4130401611328 237.1295623779297 254.79649353027344 C 238.48329162597656 249.93211364746094 233.34983825683594 228.8240966796875 238.62588500976562 244.32675170898438 C 265.0048828125 269.82244873046875 268.7658996582031 245.88186645507812 255.9314727783203 248.05987548828125 C 246.56362915039062 242.67327880859375 239.54623413085938 241.80836486816406 246.08396911621094 214.05630493164062 C 232.5688018798828 192.68746948242188 239.088134765625 204.30714416503906 211.4150848388672 227.6815948486328" stroke-width="6.0" fill="none" stroke="rgb(0, 0, 0)" stroke-opacity="1.0" stroke-linecap="round" stroke-linejoin="round"/>
    <path d="M 198.91644287109375 142.52757263183594 C 213.62142944335938 167.7776641845703 237.4433135986328 138.9916534423828 256.5264587402344 127.1749496459961 C 243.34727478027344 126.6720962524414 255.0782470703125 102.56514739990234 277.2122497558594 80.62828063964844 C 305.6654357910156 77.21491241455078 325.2148132324219 63.38010787963867 320.2211608886719 72.15339660644531 C 301.497314453125 54.836830139160156 320.9355163574219 69.29351043701172 336.5050964355469 91.3248519897461 C 355.7661437988281 92.20103454589844 335.3444519042969 80.86842346191406 335.7521667480469 59.007408142089844" stroke-width="6.0" fill="none" stroke="rgb(0, 0, 0)" stroke-opacity="1.0" stroke-linecap="round" stroke-linejoin="round"/>
    <path d="M 510.7972106933594 527.5795288085938 C 482.4941101074219 509.1453552246094 502.46990966796875 529.3639526367188 487.4393005371094 526.7908935546875 C 512.5612182617188 539.0689086914062 498.99981689453125 558.4793090820312 499.2674255371094 566.6039428710938 C 476.6997985839844 538.4376831054688 469.04779052734375 544.080322265625 449.70281982421875 566.3091430664062 C 454.93560791015625 557.2747192382812 434.7464294433594 580.9442749023438 449.6841125488281 592.2752685546875 C 436.78826904296875 585.46923828125 416.5627136230469 589.8046875 444.457763671875 611.2313842773438" stroke-width="6.0" fill="none" stroke="rgb(0, 0, 0)" stroke-opacity="1.0" stroke-linecap="round" stroke-linejoin="round"/>
    <path d="M 388.4479064941406 406.63714599609375 C 374.59295654296875 401.20758056640625 345.79608154296875 418.0257873535156 361.8504638671875 388.5596618652344 C 386.5413513183594 397.4019470214844 392.6098937988281 367.9097595214844 377.7532958984375 386.2149353027344 C 366.0409240722656 414.1964111328125 374.6452941894531 409.62481689453125 367.2338562011719 400.54736328125 C 352.31378173828125 398.54925537109375 362.945556640625 418.0079040527344 356.77471923828125 394.18658447265625 C 357.4655456542969 403.9279479980469 378.0625915527344 396.3817138671875 386.9031066894531 402.9247131347656" stroke-width="6.0" fill="none" stroke="rgb(0, 0, 0)" stroke-opacity="1.0" stroke-linecap="round" stroke-linejoin="round"/>
    <path d="M 179.0655517578125 64.8827133178711 C 152.93577575683594 94.18437194824219 161.37147521972656 115.87386322021484 147.040283203125 128.5395050048828 C 170.54270935058594 116.42697143554688 149.57846069335938 132.3554229736328 173.51968383789062 150.72122192382812 C 191.70150756835938 156.68321228027344 201.3333282470703 167.528564453125 214.61033630371094 176.8525848388672 C 244.45848083496094 162.4581756591797 239.57241821289062 155.75466918945312 211.69155883789062 168.23880004882812 C 216.01409912109375 149.63372802734375 229.5670928955078 132.9755096435547 231.68521118164062 150.0693359375" stroke-width="6.0" fill="none" stroke="rgb(0, 0, 0)" stroke-opacity="1.0" stroke-linecap="round" stroke-linejoin="round"/>
    <path d="M 543.9359130859375 403.1410827636719 C 544.3748168945312 423.8262634277344 564.8131103515625 446.4159240722656 545.6812744140625 422.3121032714844 C 523.3579711914062 407.8312072753906 541.8585205078125 423.56634521484375 522.8026123046875 434.3890380859375 C 512.9405517578125 409.7470397949219 504.297607421875 424.3996276855469 492.72271728515625 441.6850280761719 C 482.561767578125 427.318603515625 470.24481201171875 448.3914489746094 468.47698974609375 470.37506103515625 C 473.45147705078125 496.9931335449219 447.7244567871094 520.3587036132812 447.75311279296875 542.4485473632812" stroke-width="6.0" fill="none" stroke="rgb(0, 0, 0)" stroke-opacity="1.0" stroke-linecap="round" stroke-linejoin="round"/>
    <path d="M 229.02154541015625 179.03346252441406 C 202.2652587890625 200.287841796875 180.4671630859375 182.30564880371094 175.01866149902344 186.4698486328125 C 199.4159393310547 183.9241485595703 188.43894958496094 196.82423400878906 205.1754150390625 196.07908630371094 C 213.03738403320312 176.72854614257812 221.06732177734375 147.01136779785156 207.47897338867188 162.64295959472656 C 187.5953369140625 178.51197814941406 186.96994018554688 194.3261260986328 162.25242614746094 201.19491577148438 C 170.2616729736328 195.3985137939453 198.2213592529297 188.3975067138672 170.48487854003906 170.40235900878906" stroke-width="6.0" fill="none" stroke="rgb(0, 0, 0)" stroke-opacity="1.0" stroke-linecap="round" stroke-linejoin="round"/>
    <path d="M 223.88084411621094 8.466269493103027 C 213.21363830566406 28.459991455078125 194.6482391357422 39.06488037109375 202.2494659423828 23.9942684173584 C 213.8409423828125 14.635252952575684 191.5767822265625 7.648282051086426 196.89703369140625 -12.330507278442383 C 216.32765197753906 -24.438371658325195 203.77732849121094 -10.76845645904541 209.5595245361328 -20.498348236083984 C 232.83795166015625 9.229996681213379 223.40191650390625 33.31302261352539 214.9569854736328 14.618585586547852 C 241.842041015625 39.71091079711914 236.0455322265625 23.416006088256836 249.67567443847656 1.288353681564331" stroke-width="6.0" fill="none" stroke="rgb(0, 0, 0)" stroke-opacity="1.0" stroke-linecap="round" stroke-linejoin="round"/>
    <path d="M 440.4259948730469 353.835693359375 C 420.5650939941406 345.8311767578125 429.59747314453125 318.0329895019531 452.1901550292969 303.38037109375 C 454.274169921875 276.2955627441406 483.9549560546875 286.0137634277344 493.16900634765625 257.1982727050781 C 504.5539855957031 252.2047882080078 497.4091796875 255.04173278808594 495.87298583984375 234.22935485839844 C 507.5445556640625 242.0480499267578 495.61151123046875 251.7479248046875 505.3605041503906 237.94654846191406 C 511.6985778808594 216.17636108398438 531.5377197265625 192.47120666503906 544.6636962890625 169.5352783203125" stroke-width="6.0" fill="none" stroke="rgb(0, 0, 0)" stroke-opacity="1.0" stroke-linecap="round" stroke-linejoin="round"/>
    <path d="M 68.42752838134766 63.738224029541016 C 50.34633255004883 45.72318649291992 36.1259651184082 47.11195373535156 18.226356506347656 59.31816101074219 C 5.927429676055908 31.70250129699707 5.708712577819824 14.164141654968262 31.6961727142334 4.0003581047058105 C 1.8604531288146973 14.298345565795898 26.273256301879883 34.41227722167969 36.414573669433594 13.360945701599121 C 11.819531440734863 14.06326675415039 25.233348846435547 -9.859305381774902 10.586875915527344 -25.989686965942383 C 39.906829833984375 -38.22835922241211 37.76347351074219 -62.23982238769531 18.245580673217773 -89.87315368652344" stroke-width="6.0" fill="none" stroke="rgb(0, 0, 0)" stroke-opacity="1.0" stroke-linecap="round" stroke-linejoin="round"/>
    <path d="M 174.36032104492188 480.9776611328125 C 163.08273315429688 495.2500915527344 138.7826385498047 510.7423095703125 111.5359878540039 531.8621826171875 C 121.33729553222656 512.0929565429688 112.78893280029297 508.3958435058594 120.09735870361328 531.0643920898438 C 95.6744384765625 549.9622192382812 76.68659973144531 544.0088500976562 104.42518615722656 530.35888671875 C 97.52812957763672 551.399169921875 115.5220718383789 560.3299560546875 133.33663940429688 537.0733642578125 C 145.10682678222656 510.5921325683594 171.6548614501953 490.1558532714844 166.6165008544922 495.60089111328125" stroke-width="6.0" fill="none" stroke="rgb(0, 0, 0)" stroke-opacity="1.0" stroke-linecap="round" stroke-linejoin="round"/>
    <path d="M 481.3388977050781 407.0158996582031 C 462.21453857421875 399.8409118652344 453.77044677734375 371.5299072265625 464.79827880859375 391.84210205078125 C 493.2049865722656 369.6814270019531 518.4288330078125 346.4576721191406 513.1459350585938 319.2160339355469 C 498.8426513671875 308.0703125 511.1167297363281 318.74603271484375 527.1284790039062 323.3449401855469 C 531.0692138671875 352.0187072753906 541.2598876953125 342.3167419433594 542.6060791015625 354.3515319824219 C 518.3206176757812 364.0943298339844 503.2352294921875 354.83929443359375 513.8129272460938 347.931884765625" stroke-width="6.0" fill="none" stroke="rgb(0, 0, 0)" stroke-opacity="1.0" stroke-linecap="round" stroke-linejoin="round"/>
    <path d="M 503.3998107910156 335.02655029296875 C 532.7073364257812 308.3005065917969 541.311279296875 287.6761779785156 562.2420043945312 308.8283996582031 C 584.4069213867188 283.3203125 583.9058227539062 267.7738342285156 612.1143188476562 240.794677734375 C 595.4568481445312 249.37393188476562 589.6535034179688 233.4739227294922 587.1991577148438 251.54959106445312 C 584.0850830078125 272.9449462890625 580.9091796875 250.06736755371094 580.7315673828125 259.28973388671875 C 556.89013671875 254.03005981445312 560.3179931640625 224.04025268554688 535.771728515625 230.25242614746094" stroke-width="6.0" fill="none" stroke="rgb(0, 0, 0)" stroke-opacity="1.0" stroke-linecap="round" stroke-linejoin="round"/>
    <path d="M 371.4596862792969 182.73876953125 C 371.91998291015625 165.14984130859375 382.20843505859375 192.21116638183594 374.00897216796875 165.46766662597656 C 357.3840637207031 162.73526000976562 361.0330810546875 169.92074584960938 359.4211120605469 179.3507843017578 C 372.3759460449219 156.1921844482422 387.8951416015625 139.49700927734375 378.3765869140625 159.25003051757812 C 406.2425842285156 146.76905822753906 407.56170654296875 158.93482971191406 380.3083801269531 138.7841339111328 C 358.77532958984375 151.75550842285156 372.06884765625 128.21319580078125 378.719970703125 109.4657974243164" stroke-width="6.0" fill="none" stroke="rgb(0, 0, 0)" stroke-opacity="1.0" stroke-linecap="round" stroke-linejoin="round"/>
    <path d="M 558.1497802734375 235.71792602539062 C 555.572509765625 252.60311889648438 568.579833984375 229.06906127929688 563.4479370117188 254.66665649414062 C 583.6759643554688 260.01531982421875 600.0046997070312 257.04559326171875 609.5120849609375 284.4170227050781 C 587.5902709960938 284.34674072265625 589.412109375 257.26104736328125 615.5306396484375 277.5899963378906 C 614.5065307617188 278.0899658203125 639.7763061523438 258.7221374511719 644.4895629882812 272.5517883300781 C 622.1924438476562 265.796142578125 628.2252197265625 288.75787353515625 628.4718017578125 281.837646484375" stroke-width="6.0" fill="none" stroke="rgb(0, 0, 0)" stroke-opacity="1.0" stroke-linecap="round" stroke-linejoin="round"/>
    <path d="M 587.700439453125 549.546142578125 C 603.4429321289062 535.9619140625 631.258544921875 564.19140625 628.4292602539062 542.1937255859375 C 623.1940307617188 554.194580078125 638.099609375 542.1293334960938 650.1892700195312 563.7717895507812 C 662.9017333984375 589.9025268554688 670.8567504882812 571.9558715820312 678.3067626953125 559.390625 C 669.0244140625 569.7330322265625 697.904541015625 578.7382202148438 725.4041137695312 578.9718627929688 C 737.0628662109375 568.3147583007812 713.9871826171875 559.448974609375 712.809326171875 563.6873168945312" stroke-width="6.0" fill="none" stroke="rgb(0, 0, 0)" stroke-opacity="1.0" stroke-linecap="round" stroke-linejoin="round"/>
    <path d="M 400.27435302734375 250.5067596435547 C 415.146484375 270.9901123046875 402.3421630859375 291.7881774902344 420.8404235839844 293.1520080566406 C 392.3167724609375 271.9115905761719 402.5320129394531 253.86572265625 417.5431213378906 233.5218505859375 C 404.780029296875 218.55551147460938 425.1429443359375 229.99119567871094 412.85137939453125 245.24684143066406 C 384.7897644042969 264.0884094238281 360.8985900878906 286.13055419921875 375.30810546875 308.0210266113281 C 389.8529052734375 311.697265625 374.1086120605469 328.7956848144531 391.9979248046875 316.0539855957031" stroke-width="6.0" fill="none" stroke="rgb(0, 0, 0)" stroke-opacity="1.0" stroke-linecap="round" stroke-linejoin="round"/>
    <path d="M 398.69329833984375 555.8904418945312 C 391.9299011230469 583.2763061523438 420.4787902832031 572.0322875976562 423.6062927246094 542.8501586914062 C 408.6867370605469 550.0838623046875 425.542236328125 572.2509765625 445.3413391113281 596.9403076171875 C 457.63897705078125 605.818115234375 472.9454345703125 608.614990234375 479.1486511230469 625.1837768554688 C 507.0060729980469 612.83447265625 487.651611328125 623.7940063476562 468.8702087402344 604.2216796875 C 469.70098876953125 596.8535766601562 465.4114685058594 600.24951171875 443.2154846191406 605.2886962890625" stroke-width="6.0" fill="none" stroke="rgb(0, 0, 0)" stroke-opacity="1.0" stroke-linecap="round" stroke-linejoin="round"/>
    <path d="M 152.98968505859375 198.3176727294922 C 165.571044921875 177.60601806640625 144.833251953125 167.0038299560547 117.8445816040039 192.9467315673828 C 124.78109741210938 202.66014099121094 124.254150390625 207.02076721191406 115.7392807006836 224.02264404296875 C 104.81082916259766 207.22035217285156 85.84297180175781 181.31094360351562 86.15139770507812 176.26683044433594 C 88.37355041503906 151.7835693359375 71.64543151855469 134.5847930908203 61.51844787597656 126.232666015625 C 44.62516784667969 141.39199829101562 46.455101013183594 171.1898651123047 65.91639709472656 200.057861328125" stroke-width="6.0" fill="none" stroke="rgb(0, 0, 0)" stroke-opacity="1.0" stroke-linecap="round" stroke-linejoin="round"/>
    <path d="M 5.282217979431152 401.3630676269531 C 2.0222525596618652 425.63287353515625 8.844318389892578 432.9007873535156 36.358154296875 443.8338928222656 C 25.614349365234375 468.789794921875 52.31360626220703 461.9423828125 54.76784896850586 448.912109375 C 79.44800567626953 468.2386779785156 71.94548034667969 486.40765380859375 68.67889404296875 459.0787353515625 C 92.57579040527344 440.62945556640625 93.40946960449219 467.4822082519531 73.45316314697266 494.8587646484375 C 75.69165802001953 465.3385925292969 49.619964599609375 475.5187072753906 66.03490447998047 497.45574951171875" stroke-width="6.0" fill="none" stroke="rgb(0, 0, 0)" stroke-opacity="1.0" stroke-linecap="round" stroke-linejoin="round"/>
    <path d="M 254.54566955566406 62.336082458496094 C 256.77093505859375 74.54065704345703 285.3443908691406 91.05306243896484 294.1780090332031 117.43812561035156 C 308.9914855957031 96.6234130859375 306.54498291015625 86.52632904052734 281.7962341308594 59.78240966796875 C 299.4491271972656 63.26746368408203 303.94683837890625 46.9661979675293 289.4257507324219 40.20815658569336 C 297.2388000488281 36.189659118652344 268.25225830078125 46.587581634521484 270.3423156738281 55.07294845581055 C 277.44329833984375 70.43058776855469 282.5797424316406 82.52350616455078 256.97509765625 108.20636749267578" stroke-width="6.0" fill="none" stroke="rgb(0, 0, 0)" stroke-opacity="1.0" stroke-linecap="round" stroke-linejoin="round"/>
    <path d="M 63.66132354736328 472.1551208496094 C 51.74237060546875 447.3454284667969 67.65882110595703 443.5660400390625 61.36561584472656 453.20941162109375 C 59.844879150390625 455.21746826171875 38.02776336669922 448.6770324707031 55.83684158325195 451.4205017089844 C 83.48489379882812 430.0650329589844 94.0822525024414 454.9151611328125 111.8232650756836 468.7146301269531 C 104.21109771728516 495.6425476074219 107.42254638671875 498.9467468261719 84.77666473388672 469.28851318359375 C 90.61595153808594 471.4776611328125 117.4347152709961 459.7591247558594 132.33251953125 483.9718933105469" stroke-width="6.0" fill="none" stroke="rgb(0, 0, 0)" stroke-opacity="1.0" stroke-linecap="round" stroke-linejoin="round"/>
    <path d="M 206.33099365234375 247.61270141601562 C 215.08688354492188 248.36585998535156 194.744140625 231.61314392089844 214.82904052734375 213.27272033691406 C 195.67051696777344 231.2523193359375 216.8055877685547 252.33558654785156 242.78778076171875 281.9543762207031 C 240.4636993408203 284.9742126464844 227.90286254882812 259.0159912109375 203.7949981689453 272.55133056640625 C 202.98641967773438 262.3624267578125 180.6793212890625 271.6907958984375 156.7220458984375 278.86175537109375 C 180.72915649414062 267.9688720703125 177.76792907714844 274.9494323730469 166.1084442138672 279.9996337890625" stroke-width="6.0" fill="none" stroke="rgb(0, 0, 0)" stroke-opacity="1.0" stroke-linecap="round" stroke-linejoin="round"/>
    <path d="M 339.3511962890625 218.67605590820312 C 328.29119873046875 214.41452026367188 298.58111572265625 199.18502807617188 281.8726806640625 213.57400512695312 C 278.080078125 233.9405975341797 256.138427734375 247.9189453125 278.7716064453125 245.68984985351562 C 270.29608154296875 234.05816650390625 273.3963928222656 214.60438537597656 279.83404541015625 235.0719451904297 C 301.31689453125 213.4720458984375 303.63397216796875 199.26614379882812 326.8141174316406 173.85386657714844 C 301.3381042480469 145.01170349121094 301.7688293457031 116.88335418701172 306.6822509765625 111.19142150878906" stroke-width="6.0" fill="none" stroke="rgb(0, 0, 0)" stroke-opacity="1.0" stroke-linecap="round" stroke-linejoin="round"/>
    <path d="M 354.0018005371094 543.8021850585938 C 357.1374206542969 546.3703002929688 387.06109619140625 544.736572265625 403.57293701171875 536.6856689453125 C 386.9713439941406 553.014404296875 400.9649658203125 540.474365234375 398.8470153808594 541.0990600585938 C 392.65411376953125 541.1890869140625 402.4148254394531 562.0679931640625 420.8071594238281 568.910400390625 C 400.7378845214844 569.7783203125 397.5111083984375 550.5270385742188 424.43377685546875 560.0918579101562 C 452.4979248046875 574.2470092773438 451.5081481933594 565.7747802734375 434.63726806640625 565.0332641601562" stroke-width="6.0" fill="none" stroke="rgb(0, 0, 0)" stroke-opacity="1.0" stroke-linecap="round" stroke-linejoin="round"/>
    <path d="M 37.71669387817383 221.66111755371094 C 10.285202980041504 204.0675506591797 34.7487678527832 195.74264526367188 32.929222106933594 193.021240234375 C 5.715469837188721 221.85662841796875 -4.840263366699219 234.080810546875 -3.557888984680176 253.85963439941406 C 16.534446716308594 239.65859985351562 19.195449829101562 220.08958435058594 28.396278381347656 211.98741149902344 C 37.5961799621582 232.1155242919922 38.59593963623047 224.6952667236328 63.030479431152344 225.6775665283203 C 54.20436096191406 247.74073791503906 53.4560546875 246.7073516845703 59.70871353149414 246.81756591796875" stroke-width="6.0" fill="none" stroke="rgb(0, 0, 0)" stroke-opacity="1.0" stroke-linecap="round" stroke-linejoin="round"/>
    <path d="M 83.4009780883789 99.38349151611328 C 58.02627944946289 107.99210357666016 40.7172966003418 89.16645812988281 32.45063018798828 102.20462799072266 C 9.530494689941406 86.04540252685547 28.20085334777832 99.26073455810547 27.09185028076172 97.98961639404297 C 9.734086990356445 77.66439056396484 29.73598861694336 49.01115036010742 2.3246474266052246 53.420345306396484 C -18.007604598999023 61.192771911621094 -45.656150817871094 65.5289306640625 -72.30143737792969 51.024505615234375 C -91.49917602539062 78.51880645751953 -85.53772735595703 82.33509063720703 -114.42052459716797 95.50792694091797" stroke-width="6.0" fill="none" stroke="rgb(0, 0, 0)" stroke-opacity="1.0" stroke-linecap="round" stroke-linejoin="round"/>
    <path d="M 397.0270690917969 170.05276489257812 C 372.1719665527344 167.00497436523438 401.77850341796875 189.04312133789062 382.01251220703125 208.86492919921875 C 388.0628356933594 226.5819091796875 407.2500305175781 207.4949188232422 416.8289489746094 193.32618713378906 C 430.32012939453125 183.9264678955078 427.5283508300781 189.3622283935547 411.3171691894531 182.44993591308594 C 387.8313903808594 164.630859375 409.36688232421875 164.8924102783203 404.55462646484375 143.86610412597656 C 380.33251953125 142.41824340820312 387.2574157714844 114.76043701171875 404.2494812011719 114.96018981933594" stroke-width="6.0" fill="none" stroke="rgb(0, 0, 0)" stroke-opacity="1.0" stroke-linecap="round" stroke-linejoin="round"/>
    <path d="M 70.4898452758789 289.3245849609375 C 48.34957504272461 295.5330505371094 68.0008773803711 319.3511657714844 84.49310302734375 328.30511474609375 C 85.81575012207031 320.5677185058594 58.42205810546875 322.3567199707031 42.19123458862305 340.4947509765625 C 59.524566650390625 333.32891845703125 64.86746215820312 347.8525390625 80.59980773925781 359.6150207519531 C 56.46281814575195 337.64801025390625 55.051292419433594 321.5987854003906 76.59449768066406 308.59478759765625 C 99.24047088623047 303.11358642578125 80.54173278808594 315.7025146484375 97.9070816040039 320.3817443847656" stroke-width="6.0" fill="none" stroke="rgb(0, 0, 0)" stroke-opacity="1.0" stroke-linecap="round" stroke-linejoin="round"/>
    <path d="M 70.6971664428711 4.316431522369385 C 79.96992492675781 15.582435607910156 68.92403411865234 7.318623065948486 48.210750579833984 16.413179397583008 C 33.4287109375 37.711795806884766 28.842403411865234 29.650440216064453 15.376035690307617 40.48678207397461 C 30.67435073852539 35.28047180175781 47.701656341552734 34.228538513183594 39.91443634033203 37.52322006225586 C 25.14109230041504 25.92240333557129 15.802470207214355 38.25208282470703 29.949417114257812 59.5520133972168 C 39.506385803222656 74.42086791992188 36.30208206176758 86.37955474853516 16.00978660583496 69.24703979492188" stroke-width="6.0" fill="none" stroke="rgb(0, 0, 0)" stroke-opacity="1.0" stroke-linecap="round" stroke-linejoin="round"/>
    <path d="M 240.31654357910156 203.0827178955078 C 243.39111328125 214.90615844726562 255.7584991455078 194.5104217529297 283.6327209472656 164.82786560058594 C 259.1380310058594 143.54757690429688 284.6497497558594 139.6702117919922 258.4945983886719 123.01643371582031 C 233.2969512939453 95.28175354003906 226.3565216064453 124.30864715576172 233.23446655273438 125.56897735595703 C 245.93081665039062 131.41732788085938 272.6737365722656 150.6310577392578 281.0512390136719 146.96937561035156 C 263.19366455078125 156.4224395751953 281.3882751464844 143.54281616210938 253.4048309326172 149.5137176513672" stroke-width="6.0" fill="none" stroke="rgb(0, 0, 0)" stroke-opacity="1.0" stroke-linecap="round" stroke-linejoin="round"/>
  </g>
</svg>
