<?xml version="1.0" ?>
<svg xmlns="http://www.w3.org/2000/svg" version="1.1" width="600" height="600">
  <defs/>
  <g>
    <path d="M 328.9615783691406 201.27752685546875 C 341.11114501953125 230.47467041015625 355.54522705078125 224.73475646972656 356.5615234375 211.79464721679688 C 367.55670166015625 193.7030029296875 390.0263977050781 190.17848205566406 369.1471862792969 206.5597686767578 C 371.27386474609375 220.16775512695312 391.9909973144531 230.78103637695312 391.75347900390625 212.9788818359375 C 373.0283203125 221.74583435058594 358.95623779296875 199.5513153076172 341.6889953613281 217.6636962890625 C 354.1551208496094 188.75083923339844 366.1546936035156 193.29928588867188 379.3018798828125 229.33688354492188" stroke-width="6.0" fill="none" stroke="rgb(0, 0, 0)" stroke-opacity="1.0" stroke-linecap="round" stroke-linejoin="round"/>
    <path d="M 89.92376708984375 573.8047485351562 C 86.32202911376953 591.9674072265625 110.80064392089844 567.7257690429688 128.4335479736328 542.5980224609375 C 101.43095397949219 572.955810546875 115.11614990234375 581.5479736328125 141.45098876953125 586.1014404296875 C 135.31954956054688 569.578125 129.80801391601562 562.8158569335938 141.4520721435547 591.0533447265625 C 144.42340087890625 586.1837158203125 156.97715759277344 601.4381713867188 166.4247589111328 617.2688598632812 C 190.5867919921875 623.8726196289062 177.09974670410156 633.0643310546875 169.13912963867188 610.2643432617188" stroke-width="6.0" fill="none" stroke="rgb(0, 0, 0)" stroke-opacity="1.0" stroke-linecap="round" stroke-linejoin="round"/>
    <path d="M 53.968563079833984 291.676513671875 C 55.8745231628418 297.69439697265625 27.821828842163086 305.2643127441406 35.881614685058594 291.9150390625 C 44.299983978271484 297.0229187011719 26.860450744628906 299.0817565917969 38.16166305541992 298.55517578125 C 44.2724723815918 270.55291748046875 28.828125 302.4471435546875 39.88135528564453 282.4629211425781 C 53.09656524658203 245.11248779296875 56.644142150878906 247.68101501464844 69.53970336914062 256.5688171386719 C 72.90751647949219 259.7525634765625 85.54047393798828 272.7890625 66.87007904052734 290.67535400390625" stroke-width="6.0" fill="none" stroke="rgb(0, 0, 0)" stroke-opacity="1.0" stroke-linecap="round" stroke-linejoin="round"/>
    <path d="M 571.4436645507812 546.2501220703125 C 562.0872192382812 547.5042724609375 543.15576171875 550.0279541015625 555.0460815429688 531.9948120117188 C 530.7884521484375 512.0473022460938 512.35546875 516.2289428710938 533.6144409179688 478.62872314453125 C 568.4774169921875 481.2913818359375 559.0978393554688 484.1671142578125 555.0613403320312 501.4547119140625 C 535.2991333007812 496.2958679199219 557.6334228515625 499.8886413574219 568.9512939453125 511.3896789550781 C 568.603271484375 514.7131958007812 571.1669921875 513.1699829101562 600.33984375 504.130126953125" stroke-width="6.0" fill="none" stroke="rgb(0, 0, 0)" stroke-opacity="1.0" stroke-linecap="round" stroke-linejoin="round"/>
    <path d="M 320.6946716308594 125.31967163085938 C 301.2493896484375 150.61102294921875 286.783203125 132.1024932861328 271.8847961425781 150.18235778808594 C 307.5542907714844 152.73886108398438 285.4891357421875 142.09756469726562 261.4177551269531 153.28456115722656 C 234.83779907226562 137.86740112304688 227.32553100585938 161.69381713867188 218.84376525878906 133.0751190185547 C 207.1127471923828 128.362548828125 214.90065002441406 130.3092041015625 187.60986328125 150.65841674804688 C 221.19874572753906 162.39907836914062 207.53424072265625 154.87701416015625 214.06396484375 177.46217346191406" stroke-width="6.0" fill="none" stroke="rgb(0, 0, 0)" stroke-opacity="1.0" stroke-linecap="round" stroke-linejoin="round"/>
    <path d="M 366.34954833984375 254.28182983398438 C 342.2358093261719 287.9687194824219 339.51715087890625 259.2052001953125 348.13433837890625 228.00914001464844 C 321.502197265625 205.19967651367188 324.0484313964844 176.7588348388672 329.0577087402344 169.84385681152344 C 324.05694580078125 156.7893524169922 353.1428527832031 136.94619750976562 326.983642578125 141.80050659179688 C 344.5585021972656 126.7762451171875 317.58282470703125 147.90248107910156 300.37115478515625 161.4359588623047 C 293.1546325683594 184.82803344726562 290.721923828125 190.16754150390625 292.3370666503906 216.6280517578125" stroke-width="6.0" fill="none" stroke="rgb(0, 0, 0)" stroke-opacity="1.0" stroke-linecap="round" stroke-linejoin="round"/>
    <path d="M 332.3839111328125 366.2041320800781 C 356.70404052734375 346.548828125 381.845947265625 339.7958984375 375.08319091796875 351.2215576171875 C 398.6800231933594 355.7855529785156 403.7938232421875 375.7408752441406 396.4716491699219 361.6451416015625 C 371.2959289550781 356.8186950683594 353.0604553222656 329.04058837890625 339.3701171875 337.8337097167969 C 312.5729675292969 354.47747802734375 346.0904541015625 369.3670654296875 333.76141357421875 378.2036437988281 C 344.865234375 360.94580078125 371.152099609375 379.1153259277344 375.4561462402344 362.3910217285156" stroke-width="6.0" fill="none" stroke="rgb(0, 0, 0)" stroke-opacity="1.0" stroke-linecap="round" stroke-linejoin="round"/>
    <path d="M 252.64454650878906 569.7723388671875 C 277.6243591308594 586.4384765625 267.6589050292969 603.4140014648438 290.2826232910156 601.6865234375 C 279.0552978515625 578.2105712890625 255.35340881347656 588.3347778320312 286.60528564453125 570.5245971679688 C 263.6388854980469 585.7686767578125 265.85894775390625 583.577392578125 283.954833984375 612.5134887695312 C 279.52001953125 611.252685546875 293.3678894042969 610.0320434570312 294.2685546875 639.9093627929688 C 317.55340576171875 651.7822265625 311.8816833496094 658.7593994140625 336.5348815917969 673.5144653320312" stroke-width="6.0" fill="none" stroke="rgb(0, 0, 0)" stroke-opacity="1.0" stroke-linecap="round" stroke-linejoin="round"/>
    <path d="M 431.63861083984375 417.71026611328125 C 443.2451477050781 404.54937744140625 461.28778076171875 430.50018310546875 478.5172119140625 455.5646057128906 C 478.79339599609375 463.78955078125 481.9418029785156 493.7335205078125 495.4972229003906 514.53759765625 C 498.7445373535156 497.69989013671875 473.0346984863281 518.641845703125 471.3558349609375 546.6875 C 466.3756103515625 543.1939697265625 462.0078430175781 518.4248657226562 483.069091796875 494.0556640625 C 485.15069580078125 516.5977172851562 465.0011291503906 503.1347961425781 454.4937438964844 487.6025695800781" stroke-width="6.0" fill="none" stroke="rgb(0, 0, 0)" stroke-opacity="1.0" stroke-linecap="round" stroke-linejoin="round"/>
    <path d="M 442.6685791015625 347.0469055175781 C 429.35498046875 333.6621398925781 450.1928405761719 337.9950866699219 464.6246337890625 303.6482238769531 C 465.60894775390625 314.0914306640625 464.3875732421875 304.6498107910156 472.63433837890625 294.3646545410156 C 468.0356140136719 270.4467468261719 485.2537841796875 248.97779846191406 475.72515869140625 225.92982482910156 C 473.6747741699219 206.51280212402344 476.3450622558594 182.8550567626953 459.0038146972656 179.6250762939453 C 443.04718017578125 193.82142639160156 426.0373229980469 184.89190673828125 414.9512939453125 178.09580993652344" stroke-width="6.0" fill="none" stroke="rgb(0, 0, 0)" stroke-opacity="1.0" stroke-linecap="round" stroke-linejoin="round"/>
    <path d="M 105.6529312133789 493.2016906738281 C 89.30267333984375 483.2259826660156 109.13045501708984 465.1425476074219 97.0122299194336 460.0628967285156 C 89.66019439697266 479.42559814453125 74.1207504272461 458.53143310546875 47.15684127807617 452.55987548828125 C 56.34890365600586 473.33526611328125 38.57086181640625 462.0663146972656 40.97615432739258 476.1263427734375 C 35.8493537902832 473.1627502441406 35.23979568481445 483.5028076171875 41.60758972167969 472.388427734375 C 55.7315673828125 496.942626953125 56.521427154541016 525.6702880859375 68.31829071044922 517.6134643554688" stroke-width="6.0" fill="none" stroke="rgb(0, 0, 0)" stroke-opacity="1.0" stroke-linecap="round" stroke-linejoin="round"/>
    <path d="M 56.495601654052734 59.5515022277832 C 37.83777618408203 45.73979568481445 35.35040283203125 59.78940963745117 18.259599685668945 69.45024871826172 C 5.211901664733887 96.50252532958984 18.85245132446289 84.13983154296875 10.609504699707031 88.5990219116211 C 19.346355438232422 79.40343475341797 -0.7331074476242065 77.98990631103516 -10.732629776000977 92.39185333251953 C 10.98325252532959 122.39840698242188 -4.950194358825684 141.85121154785156 -22.047542572021484 156.29562377929688 C 0.7106612324714661 169.27822875976562 0.36304789781570435 149.2370147705078 19.41764259338379 151.68588256835938" stroke-width="6.0" fill="none" stroke="rgb(0, 0, 0)" stroke-opacity="1.0" stroke-linecap="round" stroke-linejoin="round"/>
    <path d="M 377.8957824707031 138.9656219482422 C 366.43487548828125 102.98270416259766 400.3865051269531 124.94953155517578 382.3370056152344 150.3553924560547 C 350.8057861328125 122.51548767089844 348.9120788574219 109.8755874633789 362.4055480957031 94.30699920654297 C 347.29736328125 89.5517807006836 347.4339599609375 101.42816925048828 341.34320068359375 79.12217712402344 C 329.9638366699219 69.17852020263672 320.1795349121094 63.76375961303711 294.1836853027344 35.282684326171875 C 277.8769836425781 45.5076904296875 258.5137023925781 39.02923583984375 266.1893005371094 24.042787551879883" stroke-width="6.0" fill="none" stroke="rgb(0, 0, 0)" stroke-opacity="1.0" stroke-linecap="round" stroke-linejoin="round"/>
    <path d="M 111.06844329833984 566.5927124023438 C 106.85225677490234 552.3418579101562 83.65445709228516 523.7274780273438 81.32544708251953 549.385986328125 C 66.97286987304688 560.0286254882812 60.6809196472168 577.412353515625 63.44402313232422 572.0741577148438 C 68.85852813720703 552.0224609375 64.81192779541016 578.366455078125 49.187896728515625 599.5797119140625 C 25.350656509399414 603.1616821289062 47.90619659423828 611.1246948242188 27.090045928955078 623.02392578125 C 52.430843353271484 598.7899780273438 55.64512252807617 589.2303466796875 69.657470703125 618.0247192382812" stroke-width="6.0" fill="none" stroke="rgb(0, 0, 0)" stroke-opacity="1.0" stroke-linecap="round" stroke-linejoin="round"/>
    <path d="M 125.01830291748047 433.042236328125 C 97.94881439208984 409.5814514160156 98.49980926513672 398.21875 121.0306167602539 418.5484313964844 C 145.8312530517578 448.0087585449219 169.1123504638672 446.8800964355469 189.30264282226562 467.9961853027344 C 151.17027282714844 467.44720458984375 179.55355834960938 464.56500244140625 148.8286895751953 471.49169921875 C 159.76576232910156 452.17657470703125 131.34039306640625 454.4046325683594 153.1918487548828 464.950927734375 C 167.708251953125 455.9642639160156 174.75791931152344 474.2399597167969 204.05752563476562 455.30242919921875" stroke-width="6.0" fill="none" stroke="rgb(0, 0, 0)" stroke-opacity="1.0" stroke-linecap="round" stroke-linejoin="round"/>
    <path d="M 444.0656433105469 232.72509765625 C 460.0747985839844 226.18690490722656 449.00604248046875 207.53134155273438 429.8672180175781 189.99337768554688 C 448.0493469238281 207.32357788085938 465.62384033203125 203.61228942871094 474.92828369140625 203.96829223632812 C 464.6240234375 195.3890838623047 476.04443359375 197.4147186279297 458.0149230957031 166.6134796142578 C 443.85198974609375 135.79017639160156 422.5464172363281 158.55767822265625 446.64349365234375 150.281005859375 C 466.14129638671875 155.30279541015625 452.00634765625 172.2061004638672 447.820556640625 150.18948364257812" stroke-width="6.0" fill="none" stroke="rgb(0, 0, 0)" stroke-opacity="1.0" stroke-linecap="round" stroke-linejoin="round"/>
    <path d="M 211.5326690673828 364.7106018066406 C 207.4271697998047 340.9053649902344 216.7152099609375 341.6749267578125 227.5880889892578 333.742919921875 C 238.7268829345703 322.178955078125 208.00152587890625 341.5982360839844 221.94261169433594 323.538818359375 C 252.59571838378906 306.6728515625 280.1240539550781 309.94183349609375 303.90966796875 321.4794616699219 C 320.95440673828125 300.7593994140625 337.2761535644531 298.016845703125 350.7286071777344 318.7984313964844 C 356.5286560058594 317.9460144042969 378.123779296875 301.9796142578125 366.0486145019531 310.611328125" stroke-width="6.0" fill="none" stroke="rgb(0, 0, 0)" stroke-opacity="1.0" stroke-linecap="round" stroke-linejoin="round"/>
    <path d="M 487.1291198730469 453.1207580566406 C 462.0908508300781 437.74273681640625 478.7941589355469 431.4989013671875 500.8325500488281 407.2494201660156 C 478.8978576660156 386.8298034667969 503.10260009765625 367.2039794921875 504.9095764160156 381.3349914550781 C 511.1434326171875 354.9961242675781 488.66900634765625 332.85443115234375 480.80584716796875 344.0424499511719 C 455.0689697265625 317.7818908691406 442.3122863769531 339.6192626953125 471.8973388671875 307.7275390625 C 479.8582458496094 323.81829833984375 497.3926696777344 332.0439758300781 487.845947265625 303.05401611328125" stroke-width="6.0" fill="none" stroke="rgb(0, 0, 0)" stroke-opacity="1.0" stroke-linecap="round" stroke-linejoin="round"/>
    <path d="M 500.54803466796875 459.72991943359375 C 506.4228820800781 429.2392578125 489.6576843261719 400.13568115234375 470.53741455078125 411.7024230957031 C 438.2075500488281 440.36834716796875 463.51336669921875 414.6982116699219 480.0722351074219 406.80242919921875 C 494.17474365234375 386.9958801269531 496.3305358886719 387.3979187011719 487.7787170410156 372.06451416015625 C 479.0235900878906 350.9009704589844 450.6936950683594 366.37725830078125 458.9439392089844 342.63726806640625 C 478.35986328125 315.50701904296875 464.4868469238281 314.3846740722656 484.33319091796875 294.9033203125" stroke-width="6.0" fill="none" stroke="rgb(0, 0, 0)" stroke-opacity="1.0" stroke-linecap="round" stroke-linejoin="round"/>
    <path d="M 544.2518310546875 6.029492378234863 C 542.4276123046875 -4.823719024658203 552.6573486328125 -21.477819442749023 576.18310546875 -28.60686492919922 C 598.0430297851562 -10.752102851867676 574.7875366210938 -30.57855987548828 551.3956909179688 -54.47438049316406 C 578.7466430664062 -63.03590774536133 585.6884155273438 -85.93484497070312 611.0875854492188 -60.742435455322266 C 634.8228149414062 -54.47205352783203 615.5068969726562 -52.64321517944336 621.4835815429688 -41.87721633911133 C 600.4967651367188 -31.840810775756836 588.590576171875 -12.787059783935547 579.4937133789062 -36.55170440673828" stroke-width="6.0" fill="none" stroke="rgb(0, 0, 0)" stroke-opacity="1.0" stroke-linecap="round" stroke-linejoin="round"/>
    <path d="M 549.206298828125 400.8210144042969 C 569.9113159179688 421.0518493652344 587.8553466796875 397.6433410644531 555.8887329101562 414.2766418457031 C 539.7410278320312 424.9617614746094 536.4539794921875 421.2719421386719 540.3324584960938 433.2321472167969 C 534.5308227539062 412.03094482421875 545.1952514648438 432.621337890625 536.322021484375 416.2462463378906 C 557.970703125 395.9068908691406 550.4386596679688 385.3334045410156 551.4180908203125 398.64923095703125 C 540.8925170898438 410.53204345703125 529.5778198242188 426.3992614746094 539.3665161132812 417.58404541015625" stroke-width="6.0" fill="none" stroke="rgb(0, 0, 0)" stroke-opacity="1.0" stroke-linecap="round" stroke-linejoin="round"/>
    <path d="M 250.47601318359375 293.315185546875 C 248.4746551513672 295.29547119140625 269.76934814453125 289.79803466796875 279.3825988769531 287.4986877441406 C 286.6732482910156 295.4970703125 296.08282470703125 311.2162780761719 277.4754333496094 284.24981689453125 C 309.9641418457031 255.8834686279297 318.6007995605469 286.5545959472656 337.59417724609375 259.8801574707031 C 327.4538269042969 277.0039367675781 350.92913818359375 296.7088317871094 337.7388916015625 275.1814880371094 C 362.4069519042969 301.739013671875 385.82147216796875 285.97802734375 405.52557373046875 253.01913452148438" stroke-width="6.0" fill="none" stroke="rgb(0, 0, 0)" stroke-opacity="1.0" stroke-linecap="round" stroke-linejoin="round"/>
    <path d="M 86.03826141357422 581.609130859375 C 94.69976043701172 570.03857421875 70.23523712158203 601.4105834960938 66.83704376220703 618.3070678710938 C 69.48112487792969 589.0307006835938 89.39009094238281 609.0912475585938 56.05105972290039 602.9637451171875 C 31.845630645751953 574.3799438476562 39.73369598388672 591.0089111328125 19.53253173828125 572.9998779296875 C 32.847076416015625 590.8640747070312 46.85908126831055 577.6290283203125 43.041046142578125 561.1978149414062 C 49.72831726074219 569.251953125 36.313568115234375 550.4204711914062 60.91250991821289 525.3152465820312" stroke-width="6.0" fill="none" stroke="rgb(0, 0, 0)" stroke-opacity="1.0" stroke-linecap="round" stroke-linejoin="round"/>
    <path d="M 452.7207336425781 294.1937255859375 C 420.9391174316406 327.9646301269531 426.9336853027344 350.20703125 433.9051208496094 364.7261657714844 C 459.10137939453125 363.2525634765625 473.244384765625 360.264404296875 456.68804931640625 396.7920227050781 C 457.7093200683594 423.2702331542969 431.52325439453125 402.875244140625 436.0865478515625 381.5852966308594 C 421.39398193359375 396.13604736328125 426.755126953125 415.70556640625 446.8208923339844 415.9346008300781 C 434.903564453125 420.8812561035156 452.0188903808594 395.62774658203125 461.491455078125 412.5882568359375" stroke-width="6.0" fill="none" stroke="rgb(0, 0, 0)" stroke-opacity="1.0" stroke-linecap="round" stroke-linejoin="round"/>
    <path d="M 115.83758544921875 62.62778854370117 C 92.99198913574219 69.82659149169922 114.34280395507812 49.365997314453125 97.41246795654297 46.985496520996094 C 71.9094467163086 50.144874572753906 82.10414123535156 42.0079231262207 92.0673599243164 49.6867790222168 C 65.40565490722656 34.246307373046875 84.88892364501953 45.99856948852539 94.76769256591797 48.090816497802734 C 65.39797973632812 43.042057037353516 93.90016174316406 14.919631004333496 87.85315704345703 0.3659893572330475 C 77.40050506591797 -13.103306770324707 97.60468292236328 -4.821370601654053 118.83049774169922 -0.18547643721103668" stroke-width="6.0" fill="none" stroke="rgb(0, 0, 0)" stroke-opacity="1.0" stroke-linecap="round" stroke-linejoin="round"/>
    <path d="M 56.314388275146484 242.2592010498047 C 71.39671325683594 219.15480041503906 95.01974487304688 203.02674865722656 99.11107635498047 198.10885620117188 C 96.3708724975586 211.09652709960938 91.80358123779297 196.40882873535156 84.72467803955078 213.1007843017578 C 58.92879867553711 226.19996643066406 84.6637191772461 246.48365783691406 92.83837890625 262.32635498046875 C 74.1717758178711 290.6012268066406 75.91708374023438 304.7996520996094 85.46105194091797 327.85272216796875 C 69.46592712402344 340.80609130859375 64.52638244628906 337.1712646484375 82.30266571044922 331.52252197265625" stroke-width="6.0" fill="none" stroke="rgb(0, 0, 0)" stroke-opacity="1.0" stroke-linecap="round" stroke-linejoin="round"/>
    <path d="M 534.3739013671875 470.9492492675781 C 524.830810546875 448.8763122558594 532.4215087890625 418.59295654296875 509.655029296875 421.004638671875 C 513.0941162109375 447.06890869140625 493.98284912109375 471.205322265625 501.7906799316406 504.0542297363281 C 520.74658203125 473.5464782714844 496.2457580566406 453.96295166015625 511.7173156738281 440.1269836425781 C 498.8932800292969 433.05035400390625 470.8130187988281 410.4848937988281 489.50640869140625 396.11236572265625 C 488.97052001953125 381.6286315917969 502.3365783691406 393.77093505859375 486.799072265625 371.4627685546875" stroke-width="6.0" fill="none" stroke="rgb(0, 0, 0)" stroke-opacity="1.0" stroke-linecap="round" stroke-linejoin="round"/>
    <path d="M 344.0122375488281 23.696165084838867 C 363.6908264160156 13.365124702453613 381.9654235839844 38.671871185302734 358.9710693359375 35.11711883544922 C 384.2112121582031 61.973812103271484 381.25421142578125 64.30109405517578 378.02520751953125 54.648040771484375 C 395.18597412109375 68.79467010498047 398.71990966796875 75.22298431396484 416.697021484375 58.05979919433594 C 442.19635009765625 34.67052459716797 467.04669189453125 20.32303810119629 444.90924072265625 14.618743896484375 C 407.8412170410156 15.055526733398438 409.04400634765625 -10.88855266571045 409.70751953125 -6.046716690063477" stroke-width="6.0" fill="none" stroke="rgb(0, 0, 0)" stroke-opacity="1.0" stroke-linecap="round" stroke-linejoin="round"/>
    <path d="M 533.47705078125 282.28131103515625 C 511.33966064453125 297.8375549316406 535.1647338867188 320.4778137207031 552.41943359375 303.66009521484375 C 547.5751342773438 289.30987548828125 575.2643432617188 286.24127197265625 590.8350219726562 281.8225402832031 C 581.80029296875 252.59011840820312 557.7616577148438 254.31468200683594 562.4925537109375 249.1273193359375 C 534.7133178710938 252.89723205566406 530.4077758789062 281.62872314453125 519.7719116210938 273.11669921875 C 517.0288696289062 247.42306518554688 537.3082275390625 272.97882080078125 543.0654907226562 260.41900634765625" stroke-width="6.0" fill="none" stroke="rgb(0, 0, 0)" stroke-opacity="1.0" stroke-linecap="round" stroke-linejoin="round"/>
    <path d="M 382.05078125 51.74885940551758 C 356.6521911621094 45.13727951049805 346.70684814453125 52.56733322143555 367.1497802734375 52.253944396972656 C 375.93621826171875 44.06703567504883 395.2850646972656 19.76447105407715 419.06878662109375 10.654233932495117 C 432.1708679199219 -12.784071922302246 423.3049621582031 -17.5567626953125 423.1114501953125 -4.448996067047119 C 405.2124328613281 9.399669647216797 396.9766540527344 18.90681266784668 391.7340087890625 -10.994444847106934 C 403.7681579589844 -8.187125205993652 379.2996826171875 1.6721006631851196 386.9515380859375 -8.146455764770508" stroke-width="6.0" fill="none" stroke="rgb(0, 0, 0)" stroke-opacity="1.0" stroke-linecap="round" stroke-linejoin="round"/>
    <path d="M 597.690673828125 563.675048828125 C 612.6466674804688 572.3150024414062 604.2659301757812 548.041259765625 601.114990234375 535.8043212890625 C 616.8975830078125 514.2693481445312 643.7612915039062 507.2710876464844 644.17578125 476.7721862792969 C 641.233154296875 496.8350524902344 618.776123046875 493.79473876953125 646.943603515625 469.64154052734375 C 630.0609741210938 498.3834533691406 625.271484375 501.14862060546875 605.6602783203125 494.2799072265625 C 596.4328002929688 521.28515625 624.1564331054688 525.3820190429688 601.918701171875 542.3306884765625" stroke-width="6.0" fill="none" stroke="rgb(0, 0, 0)" stroke-opacity="1.0" stroke-linecap="round" stroke-linejoin="round"/>
    <path d="M 6.883476257324219 541.0760498046875 C 7.606682300567627 560.979248046875 21.802526473999023 566.7156372070312 16.62963104248047 561.7766723632812 C 6.96984338760376 564.57958984375 8.025328636169434 582.403564453125 -15.088741302490234 564.0018310546875 C -15.812569618225098 543.2317504882812 -10.119060516357422 545.7975463867188 -24.676959991455078 573.9509887695312 C -12.909956932067871 569.5581665039062 -24.040958404541016 574.7734375 5.657243728637695 591.233642578125 C 29.743080139160156 616.2095947265625 6.853945732116699 625.0891723632812 14.931230545043945 618.5712890625" stroke-width="6.0" fill="none" stroke="rgb(0, 0, 0)" stroke-opacity="1.0" stroke-linecap="round" stroke-linejoin="round"/>
    <path d="M 296.3822937011719 451.613037109375 C 322.6533508300781 425.0487365722656 320.888671875 430.4967346191406 288.56634521484375 420.7672119140625 C 280.6005859375 408.5901184082031 280.0046081542969 391.0240478515625 271.5146179199219 394.59332275390625 C 247.15785217285156 425.81866455078125 268.28179931640625 419.7120056152344 280.5354309082031 428.0968933105469 C 292.16107177734375 392.6028137207031 288.7166442871094 381.29266357421875 284.01287841796875 408.402099609375 C 272.2192077636719 427.9662780761719 285.2945556640625 421.165283203125 272.02001953125 449.0034484863281" stroke-width="6.0" fill="none" stroke="rgb(0, 0, 0)" stroke-opacity="1.0" stroke-linecap="round" stroke-linejoin="round"/>
    <path d="M 242.1209716796875 16.582122802734375 C 221.7841339111328 9.110044479370117 247.74996948242188 21.977602005004883 253.15493774414062 16.303621292114258 C 284.5562744140625 39.02243423461914 266.794189453125 68.2327880859375 248.45892333984375 81.56459045410156 C 265.9719543457031 100.19236755371094 271.7613220214844 75.6331558227539 280.91302490234375 102.83042907714844 C 255.71200561523438 122.3817138671875 255.97988891601562 117.81848907470703 235.57603454589844 139.49755859375 C 237.36746215820312 149.82933044433594 252.9221954345703 171.77157592773438 262.8523254394531 156.23458862304688" stroke-width="6.0" fill="none" stroke="rgb(0, 0, 0)" stroke-opacity="1.0" stroke-linecap="round" stroke-linejoin="round"/>
    <path d="M 333.2487487792969 563.3071899414062 C 315.8572998046875 544.055908203125 318.00311279296875 547.1741943359375 313.4891052246094 529.6453247070312 C 325.2958068847656 552.9710083007812 304.7959289550781 535.7517700195312 314.2184143066406 511.1797180175781 C 314.6993103027344 519.8525390625 300.55157470703125 502.6072082519531 320.549072265625 492.590087890625 C 327.3847351074219 488.80865478515625 343.41717529296875 507.64288330078125 364.2456970214844 516.4696044921875 C 357.8226013183594 543.7806396484375 357.2588195800781 543.0785522460938 364.5987854003906 521.807373046875" stroke-width="6.0" fill="none" stroke="rgb(0, 0, 0)" stroke-opacity="1.0" stroke-linecap="round" stroke-linejoin="round"/>
    <path d="M 275.65545654296875 355.4775085449219 C 253.47662353515625 344.54913330078125 277.9745788574219 322.6239929199219 276.9190368652344 313.82757568359375 C 296.235107421875 304.884033203125 298.1412658691406 278.5191955566406 269.173095703125 305.1211853027344 C 245.23155212402344 318.80194091796875 229.82801818847656 311.4137268066406 257.09844970703125 323.8398132324219 C 232.85443115234375 298.7760925292969 209.95045471191406 306.5868835449219 219.169677734375 271.6556396484375 C 258.0287170410156 297.3681945800781 256.3870544433594 303.2774658203125 260.16357421875 290.36004638671875" stroke-width="6.0" fill="none" stroke="rgb(0, 0, 0)" stroke-opacity="1.0" stroke-linecap="round" stroke-linejoin="round"/>
    <path d="M 446.75836181640625 554.1641845703125 C 428.5543212890625 522.3623657226562 398.3055419921875 524.8842163085938 376.42626953125 548.8361206054688 C 352.7429504394531 535.1680908203125 345.6676025390625 517.9967651367188 361.47222900390625 536.0260009765625 C 344.6388244628906 531.474609375 368.99493408203125 524.0709838867188 371.42041015625 519.912841796875 C 388.9203186035156 522.6597900390625 387.5059814453125 519.16845703125 372.0073547363281 497.35107421875 C 386.3784484863281 517.1453247070312 372.00958251953125 514.4130859375 372.0649108886719 525.544189453125" stroke-width="6.0" fill="none" stroke="rgb(0, 0, 0)" stroke-opacity="1.0" stroke-linecap="round" stroke-linejoin="round"/>
    <path d="M 185.88328552246094 483.1875305175781 C 215.13803100585938 482.4361267089844 234.65328979492188 474.73046875 249.53399658203125 493.66461181640625 C 260.0839538574219 493.9473571777344 257.3800964355469 501.6197204589844 247.68862915039062 512.6717529296875 C 217.96287536621094 491.4429016113281 189.15492248535156 492.5374450683594 194.6119384765625 480.8167419433594 C 219.65200805664062 487.2170104980469 247.5233612060547 478.5995178222656 215.1361083984375 462.3753356933594 C 209.12181091308594 470.72503662109375 198.20909118652344 440.5337829589844 204.77333068847656 433.9720153808594" stroke-width="6.0" fill="none" stroke="rgb(0, 0, 0)" stroke-opacity="1.0" stroke-linecap="round" stroke-linejoin="round"/>
    <path d="M 472.61846923828125 70.98561096191406 C 460.6424255371094 43.158897399902344 446.6097717285156 43.84225082397461 468.9553527832031 61.458892822265625 C 467.11529541015625 59.91081237792969 473.0761413574219 61.802799224853516 445.56597900390625 50.42069625854492 C 454.1777038574219 67.07977294921875 477.50347900390625 44.0399055480957 501.19647216796875 40.59634017944336 C 519.2000732421875 29.728408813476562 513.8540649414062 17.879520416259766 525.3502197265625 9.692522048950195 C 552.017578125 2.26001238822937 531.31494140625 -17.361799240112305 522.1546630859375 -22.321189880371094" stroke-width="6.0" fill="none" stroke="rgb(0, 0, 0)" stroke-opacity="1.0" stroke-linecap="round" stroke-linejoin="round"/>
    <path d="M 347.9002990722656 174.51132202148438 C 356.6767272949219 189.4219207763672 383.79705810546875 213.08804321289062 365.93072509765625 244.00372314453125 C 363.84771728515625 267.83447265625 397.1419982910156 240.8140411376953 401.4334411621094 212.49102783203125 C 377.523193359375 228.42715454101562 390.3081970214844 214.36691284179688 403.3101806640625 206.4334259033203 C 406.17724609375 194.1307373046875 410.2690734863281 184.6036376953125 422.9588623046875 180.0449981689453 C 453.0989990234375 205.06961059570312 427.2906799316406 198.34829711914062 433.8704528808594 177.26882934570312" stroke-width="6.0" fill="none" stroke="rgb(0, 0, 0)" stroke-opacity="1.0" stroke-linecap="round" stroke-linejoin="round"/>
    <path d="M 27.697851181030273 -3.4662668704986572 C 3.652294874191284 -3.444283962249756 14.296122550964355 -6.75396728515625 -5.313882350921631 -24.554311752319336 C 22.469829559326172 -36.2637939453125 49.52627182006836 -9.880162239074707 65.31875610351562 10.632296562194824 C 51.27668380737305 28.349777221679688 29.187068939208984 55.27859115600586 4.611415386199951 47.211944580078125 C 5.632735252380371 69.62374114990234 -6.527684688568115 51.635498046875 -26.049455642700195 49.90726089477539 C -43.632957458496094 68.81710052490234 -28.450868606567383 92.08499908447266 -3.1423354148864746 87.36375427246094" stroke-width="6.0" fill="none" stroke="rgb(0, 0, 0)" stroke-opacity="1.0" stroke-linecap="round" stroke-linejoin="round"/>
    <path d="M 268.4964294433594 79.8038330078125 C 265.4619445800781 83.06180572509766 276.93560791015625 109.9034652709961 266.5525207519531 119.97744750976562 C 251.3889617919922 107.40790557861328 240.9353485107422 80.6431655883789 250.3697052001953 97.80048370361328 C 254.90121459960938 116.91588592529297 235.9239501953125 92.0771484375 261.11627197265625 66.1097412109375 C 232.98304748535156 48.24175262451172 256.4233093261719 27.95598793029785 234.55731201171875 10.146942138671875 C 235.72132873535156 13.719202041625977 255.51148986816406 30.95110321044922 247.14183044433594 24.722219467163086" stroke-width="6.0" fill="none" stroke="rgb(0, 0, 0)" stroke-opacity="1.0" stroke-linecap="round" stroke-linejoin="round"/>
    <path d="M 99.41456604003906 308.1519470214844 C 118.61680603027344 289.53564453125 107.89973449707031 316.683837890625 136.55108642578125 319.814208984375 C 157.83876037597656 296.25146484375 142.12631225585938 276.9469909667969 121.32688903808594 298.32501220703125 C 134.2970733642578 280.26715087890625 154.0565185546875 291.6742248535156 144.4842071533203 304.1854248046875 C 127.71809387207031 284.3623046875 133.35328674316406 286.3504638671875 112.47847747802734 303.4792175292969 C 86.90904235839844 305.6109924316406 66.49507141113281 309.49444580078125 69.41438293457031 285.2315979003906" stroke-width="6.0" fill="none" stroke="rgb(0, 0, 0)" stroke-opacity="1.0" stroke-linecap="round" stroke-linejoin="round"/>
    <path d="M 161.42132568359375 69.80085754394531 C 162.5109405517578 81.09518432617188 159.8381805419922 69.18316650390625 162.3041229248047 70.51555633544922 C 161.29934692382812 70.13502502441406 154.32305908203125 81.21197509765625 169.5066680908203 98.9076919555664 C 152.61477661132812 77.3662109375 119.73863220214844 67.41454315185547 96.25888061523438 47.694244384765625 C 84.24846649169922 50.94678497314453 92.85237884521484 39.117698669433594 69.37415313720703 53.50643539428711 C 90.65264892578125 40.924800872802734 67.61212158203125 54.82041931152344 69.66600036621094 53.47538375854492" stroke-width="6.0" fill="none" stroke="rgb(0, 0, 0)" stroke-opacity="1.0" stroke-linecap="round" stroke-linejoin="round"/>
    <path d="M 358.6268005371094 443.2509460449219 C 339.6462707519531 447.1231384277344 346.9776916503906 443.20758056640625 332.0633850097656 460.6597900390625 C 320.0093688964844 450.0285949707031 294.6034851074219 435.3045959472656 320.87969970703125 408.8780822753906 C 288.3926696777344 404.45513916015625 272.61785888671875 393.2998352050781 258.7317199707031 370.04754638671875 C 272.35150146484375 387.8689880371094 281.3674011230469 412.54168701171875 286.3257751464844 413.9603576660156 C 271.7362976074219 390.76690673828125 291.1834716796875 392.92584228515625 320.4341125488281 412.2770080566406" stroke-width="6.0" fill="none" stroke="rgb(0, 0, 0)" stroke-opacity="1.0" stroke-linecap="round" stroke-linejoin="round"/>
    <path d="M 316.0697937011719 100.28729248046875 C 297.03173828125 77.6965103149414 286.7954406738281 94.10686492919922 283.0329284667969 105.63616943359375 C 309.1596374511719 91.57797241210938 305.8355712890625 84.92420196533203 282.7713623046875 72.76235961914062 C 292.28704833984375 94.99408721923828 309.31842041015625 115.38204956054688 330.6553649902344 118.56275939941406 C 306.6293640136719 130.80213928222656 323.57763671875 99.8383560180664 348.7951354980469 125.496337890625 C 360.7235412597656 106.61579895019531 358.5696716308594 93.43830108642578 374.0613708496094 119.21244049072266" stroke-width="6.0" fill="none" stroke="rgb(0, 0, 0)" stroke-opacity="1.0" stroke-linecap="round" stroke-linejoin="round"/>
    <path d="M 215.29360961914062 447.3466796875 C 199.29222106933594 475.36456298828125 206.51834106445312 500.0931091308594 231.39691162109375 508.84564208984375 C 250.99794006347656 511.15338134765625 279.220458984375 512.8416137695312 263.5782470703125 524.6460571289062 C 286.1000671386719 520.3804931640625 280.6420593261719 549.6630859375 267.0047912597656 517.044677734375 C 270.3468322753906 502.2703552246094 278.37664794921875 500.5454406738281 278.7790832519531 533.9685668945312 C 296.3811950683594 517.9985961914062 320.38812255859375 514.68359375 326.1737976074219 517.3806762695312" stroke-width="6.0" fill="none" stroke="rgb(0, 0, 0)" stroke-opacity="1.0" stroke-linecap="round" stroke-linejoin="round"/>
    <path d="M 90.45394897460938 577.0706176757812 C 96.88015747070312 587.5701293945312 85.00286102294922 577.5504760742188 104.46553039550781 550.2739868164062 C 76.39657592773438 534.004638671875 87.12935638427734 500.9481201171875 74.6324462890625 499.7612609863281 C 82.294677734375 472.41839599609375 67.1354751586914 463.7613220214844 51.759849548339844 487.2349853515625 C 55.089637756347656 500.2466735839844 44.17398452758789 478.3487243652344 33.49762725830078 511.8037109375 C 5.6499199867248535 515.9170532226562 -19.67462730407715 499.4723815917969 -21.266490936279297 490.8261413574219" stroke-width="6.0" fill="none" stroke="rgb(0, 0, 0)" stroke-opacity="1.0" stroke-linecap="round" stroke-linejoin="round"/>
    <path d="M 481.8936767578125 377.1640319824219 C 480.9669494628906 412.9388732910156 463.3388977050781 396.37274169921875 449.25274658203125 381.487060546875 C 448.1208190917969 385.06768798828125 441.0102844238281 395.4818115234375 450.7231750488281 381.89764404296875 C 429.1234436035156 384.95770263671875 415.5168151855469 360.9774169921875 419.3494567871094 365.98040771484375 C 419.1690673828125 355.6580505371094 440.9255676269531 350.8119201660156 424.38238525390625 350.31768798828125 C 413.2568359375 380.0230712890625 424.5628967285156 377.42559814453125 419.917236328125 369.358642578125" stroke-width="6.0" fill="none" stroke="rgb(0, 0, 0)" stroke-opacity="1.0" stroke-linecap="round" stroke-linejoin="round"/>
    <path d="M 243.07223510742188 18.886137008666992 C 248.1673126220703 42.52547073364258 244.1524658203125 57.10110855102539 247.84088134765625 46.54241180419922 C 231.17860412597656 47.181217193603516 210.62313842773438 52.415462493896484 222.09727478027344 46.55320739746094 C 235.73773193359375 35.569923400878906 224.2394561767578 -1.1401896476745605 240.8881072998047 21.615236282348633 C 235.0548553466797 -3.3244121074676514 210.27163696289062 13.69803524017334 226.62625122070312 4.8083271980285645 C 204.44151306152344 -7.296048641204834 203.4639434814453 -18.217758178710938 170.3567657470703 -4.014232635498047" stroke-width="6.0" fill="none" stroke="rgb(0, 0, 0)" stroke-opacity="1.0" stroke-linecap="round" stroke-linejoin="round"/>
    <path d="M 402.7718200683594 450.14794921875 C 377.30889892578125 427.36212158203125 360.60479736328125 440.2827453613281 359.41448974609375 422.9610595703125 C 367.5531921386719 449.20025634765625 357.2086486816406 436.9322204589844 386.4521484375 406.0440979003906 C 385.34954833984375 414.4944763183594 363.30224609375 382.9439392089844 367.0941162109375 366.6679992675781 C 341.2823486328125 345.55926513671875 342.988525390625 362.71514892578125 338.192138671875 340.5294189453125 C 316.03875732421875 331.7662048339844 344.2488098144531 351.3439025878906 361.1759033203125 356.2966613769531" stroke-width="6.0" fill="none" stroke="rgb(0, 0, 0)" stroke-opacity="1.0" stroke-linecap="round" stroke-linejoin="round"/>
    <path d="M 497.873291015625 408.81475830078125 C 513.7694091796875 416.2999572753906 509.4937438964844 426.37200927734375 499.11224365234375 452.0870361328125 C 506.4303894042969 427.44927978515625 513.6294555664062 424.46661376953125 512.2064208984375 415.86614990234375 C 531.190185546875 437.1902160644531 531.8971557617188 447.8411865234375 519.0358276367188 462.4056701660156 C 489.4211730957031 461.221923828125 487.20318603515625 434.1298522949219 488.1800231933594 432.7646789550781 C 459.48065185546875 421.0401916503906 468.2357482910156 445.4838562011719 473.0208740234375 414.7915954589844" stroke-width="6.0" fill="none" stroke="rgb(0, 0, 0)" stroke-opacity="1.0" stroke-linecap="round" stroke-linejoin="round"/>
    <path d="M 542.9425659179688 583.9592895507812 C 541.0990600585938 589.7830810546875 528.9088745117188 620.1547241210938 521.65478515625 642.8343505859375 C 520.5809326171875 632.2474365234375 532.9544067382812 625.6848754882812 506.7203369140625 635.0401000976562 C 497.8323669433594 648.192626953125 488.1898193359375 661.1035766601562 505.39166259765625 647.803955078125 C 521.1480712890625 635.9797973632812 514.7838134765625 660.9494018554688 523.4918823242188 653.540771484375 C 521.7969970703125 663.0790405273438 526.3593139648438 688.7237548828125 542.8832397460938 690.2498168945312" stroke-width="6.0" fill="none" stroke="rgb(0, 0, 0)" stroke-opacity="1.0" stroke-linecap="round" stroke-linejoin="round"/>
    <path d="M 81.908447265625 197.7330322265625 C 103.85651397705078 186.5580596923828 115.69161987304688 185.13246154785156 96.37596893310547 203.471923828125 C 73.40023040771484 179.16839599609375 46.511680603027344 209.25172424316406 46.137168884277344 214.7620391845703 C 71.05101776123047 237.72486877441406 75.83330535888672 220.16244506835938 98.02178192138672 199.60464477539062 C 132.7377166748047 219.24673461914062 127.63700866699219 193.65765380859375 133.2545623779297 171.33091735839844 C 154.045654296875 144.44830322265625 165.02914428710938 151.14178466796875 192.0911865234375 176.63140869140625" stroke-width="6.0" fill="none" stroke="rgb(0, 0, 0)" stroke-opacity="1.0" stroke-linecap="round" stroke-linejoin="round"/>
    <path d="M 195.65606689453125 416.3254089355469 C 194.1654510498047 455.2154846191406 189.17234802246094 434.32977294921875 172.76687622070312 427.8764953613281 C 159.04795837402344 408.16619873046875 140.008056640625 424.8215026855469 162.21331787109375 411.61322021484375 C 163.9931640625 414.3207702636719 176.52978515625 393.4872741699219 194.78988647460938 420.6711120605469 C 185.6321258544922 418.7822265625 185.85304260253906 395.4595947265625 175.4816436767578 406.9532470703125 C 197.16964721679688 409.02923583984375 193.94290161132812 434.8074951171875 200.5970458984375 435.5354919433594" stroke-width="6.0" fill="none" stroke="rgb(0, 0, 0)" stroke-opacity="1.0" stroke-linecap="round" stroke-linejoin="round"/>
    <path d="M 218.12425231933594 373.4007568359375 C 220.98306274414062 342.36260986328125 196.533447265625 338.3130798339844 183.625244140625 313.18402099609375 C 155.5293426513672 334.6925048828125 147.50454711914062 310.3453063964844 132.6424560546875 318.3363342285156 C 116.38976287841797 304.4651184082031 145.48800659179688 332.1195983886719 136.15261840820312 346.2538146972656 C 113.04113006591797 371.62506103515625 127.83833312988281 344.18817138671875 134.49679565429688 363.38751220703125 C 161.8754425048828 359.14666748046875 156.13433837890625 332.0390930175781 169.40443420410156 313.95623779296875" stroke-width="6.0" fill="none" stroke="rgb(0, 0, 0)" stroke-opacity="1.0" stroke-linecap="round" stroke-linejoin="round"/>
    <path d="M 281.1175537109375 542.2297973632812 C 268.46728515625 520.7055053710938 258.52099609375 507.1187744140625 249.29917907714844 523.9998779296875 C 228.30397033691406 529.2161865234375 242.71212768554688 551.792236328125 252.60125732421875 573.5952758789062 C 235.7103729248047 550.9254150390625 262.3160095214844 573.8795776367188 274.47088623046875 597.5008544921875 C 249.28128051757812 621.7095947265625 275.83258056640625 627.0845947265625 285.518798828125 597.9407958984375 C 285.274169921875 624.1690063476562 270.5909729003906 597.23046875 243.8394775390625 603.6705322265625" stroke-width="6.0" fill="none" stroke="rgb(0, 0, 0)" stroke-opacity="1.0" stroke-linecap="round" stroke-linejoin="round"/>
    <path d="M 390.3854064941406 250.22850036621094 C 372.7635192871094 274.3564147949219 398.9771728515625 244.06678771972656 379.42010498046875 262.1359558105469 C 402.4179992675781 266.114013671875 423.1166687011719 278.00006103515625 435.8724365234375 283.02667236328125 C 410.8465576171875 305.3543701171875 420.8288879394531 301.0955505371094 413.9429626464844 279.89202880859375 C 413.68341064453125 302.58062744140625 442.3024597167969 296.4931335449219 418.6157531738281 293.5920715332031 C 398.19110107421875 268.9537658691406 400.8688049316406 255.6828155517578 411.5723876953125 281.0296630859375" stroke-width="6.0" fill="none" stroke="rgb(0, 0, 0)" stroke-opacity="1.0" stroke-linecap="round" stroke-linejoin="round"/>
    <path d="M 477.88189697265625 349.07867431640625 C 506.83782958984375 311.9334716796875 516.972900390625 329.45196533203125 491.2737121582031 309.3804931640625 C 473.5696716308594 281.4483642578125 462.3807373046875 293.16741943359375 451.4029846191406 278.9098815917969 C 462.1529846191406 269.03515625 440.92205810546875 244.0060272216797 423.5342102050781 250.77781677246094 C 418.40509033203125 268.38275146484375 410.21612548828125 293.46514892578125 393.4938659667969 301.0433349609375 C 424.1561279296875 316.251953125 406.1477966308594 329.1826171875 406.4543762207031 321.29827880859375" stroke-width="6.0" fill="none" stroke="rgb(0, 0, 0)" stroke-opacity="1.0" stroke-linecap="round" stroke-linejoin="round"/>
    <path d="M 424.45538330078125 300.9591369628906 C 394.009521484375 329.0235595703125 404.6078186035156 336.69830322265625 383.9770812988281 313.916015625 C 368.2845458984375 345.349365234375 356.6335144042969 363.0371398925781 335.72735595703125 344.5013427734375 C 350.97119140625 320.1126403808594 383.0265197753906 333.8848571777344 396.43719482421875 334.3933410644531 C 374.80645751953125 333.3363342285156 344.0615539550781 322.52777099609375 338.67578125 341.3594665527344 C 315.40869140625 326.7222595214844 320.7869567871094 333.565673828125 335.1862487792969 322.62054443359375" stroke-width="6.0" fill="none" stroke="rgb(0, 0, 0)" stroke-opacity="1.0" stroke-linecap="round" stroke-linejoin="round"/>
    <path d="M 19.88195037841797 123.82920837402344 C 3.871459722518921 123.0143814086914 -22.65274429321289 111.06159973144531 -20.508413314819336 102.0059585571289 C -44.812965393066406 104.71344757080078 -20.656843185424805 129.5159454345703 -2.140639066696167 151.9620819091797 C 2.715815782546997 159.59896850585938 -6.597587585449219 180.14613342285156 -7.035487174987793 175.51565551757812 C 12.183165550231934 191.36204528808594 -14.26855182647705 167.39219665527344 -33.9580078125 188.8387908935547 C -22.093441009521484 209.035400390625 5.9813714027404785 205.5821990966797 11.368643760681152 206.64886474609375" stroke-width="6.0" fill="none" stroke="rgb(0, 0, 0)" stroke-opacity="1.0" stroke-linecap="round" stroke-linejoin="round"/>
    <path d="M 309.8066711425781 95.29791259765625 C 297.83624267578125 106.61209869384766 322.494384765625 83.4778060913086 302.22515869140625 107.51619720458984 C 331.8794250488281 82.2696533203125 317.2076110839844 84.47079467773438 305.224609375 78.77788543701172 C 306.9158630371094 74.16886901855469 317.4631042480469 89.75187683105469 337.81024169921875 96.1172866821289 C 312.2006530761719 102.52227783203125 300.3121643066406 88.72919464111328 286.9025573730469 84.5883560180664 C 285.3623352050781 85.04721069335938 309.58355712890625 80.344970703125 329.51727294921875 62.82967758178711" stroke-width="6.0" fill="none" stroke="rgb(0, 0, 0)" stroke-opacity="1.0" stroke-linecap="round" stroke-linejoin="round"/>
    <path d="M 31.769664764404297 566.6643676757812 C 18.711360931396484 571.6962280273438 10.067667007446289 542.8113403320312 -6.214445114135742 558.3828735351562 C -22.063871383666992 581.8648071289062 -44.43052291870117 589.68505859375 -65.61641693115234 596.7620849609375 C -92.64163208007812 573.6288452148438 -120.33153533935547 584.6953735351562 -98.69731140136719 589.48876953125 C -126.17996978759766 602.5302124023438 -152.5312042236328 615.4032592773438 -166.9879150390625 600.8499145507812 C -156.28465270996094 622.29931640625 -165.0845489501953 635.3984985351562 -159.0498046875 626.3822631835938" stroke-width="6.0" fill="none" stroke="rgb(0, 0, 0)" stroke-opacity="1.0" stroke-linecap="round" stroke-linejoin="round"/>
    <path d="M 46.62255096435547 267.85498046875 C 52.3699951171875 255.1995391845703 43.60560989379883 249.56265258789062 62.425445556640625 242.1883544921875 C 67.08064270019531 259.2962341308594 47.02872085571289 249.0408935546875 59.431190490722656 238.6609649658203 C 48.324825286865234 243.36851501464844 43.84273910522461 268.85662841796875 55.29594039916992 252.61563110351562 C 32.252525329589844 287.95068359375 52.028499603271484 259.0492858886719 58.592041015625 279.81170654296875 C 62.01885223388672 289.79608154296875 62.9693603515625 295.4650573730469 57.983219146728516 276.6221923828125" stroke-width="6.0" fill="none" stroke="rgb(0, 0, 0)" stroke-opacity="1.0" stroke-linecap="round" stroke-linejoin="round"/>
    <path d="M 497.2532043457031 20.283742904663086 C 514.8182373046875 15.430074691772461 546.6490478515625 -6.943426609039307 518.1636352539062 14.62634563446045 C 499.376220703125 13.376883506774902 503.2619934082031 15.766914367675781 497.8589782714844 29.597932815551758 C 518.109619140625 35.37678909301758 494.8390808105469 31.714080810546875 496.1515197753906 23.275882720947266 C 477.854248046875 43.890625 465.2497863769531 30.421384811401367 449.67205810546875 42.78038787841797 C 444.5742492675781 40.028106689453125 457.4197998046875 20.133832931518555 443.51910400390625 36.41106033325195" stroke-width="6.0" fill="none" stroke="rgb(0, 0, 0)" stroke-opacity="1.0" stroke-linecap="round" stroke-linejoin="round"/>
    <path d="M 527.7777099609375 220.34156799316406 C 522.015625 217.83981323242188 543.5372314453125 229.407470703125 543.3632202148438 223.2059783935547 C 541.97412109375 226.45538330078125 568.8289794921875 210.0293426513672 562.546875 216.2178955078125 C 554.9208374023438 224.97744750976562 541.797119140625 212.06666564941406 528.846435546875 203.3710174560547 C 504.9385986328125 194.3462677001953 531.732177734375 199.047119140625 545.0806884765625 212.93202209472656 C 555.8214111328125 236.58740234375 526.0345458984375 218.93382263183594 523.17333984375 218.94972229003906" stroke-width="6.0" fill="none" stroke="rgb(0, 0, 0)" stroke-opacity="1.0" stroke-linecap="round" stroke-linejoin="round"/>
    <path d="M 554.6383666992188 448.178955078125 C 528.9918823242188 423.7181091308594 528.4358520507812 430.2943420410156 566.7830810546875 408.51031494140625 C 582.3551635742188 435.76104736328125 602.9754028320312 426.5519104003906 602.1571044921875 428.53314208984375 C 615.9342041015625 405.8955078125 639.8353271484375 429.84503173828125 644.80615234375 436.2157287597656 C 673.0490112304688 407.6533508300781 687.3738403320312 398.9508056640625 684.3076171875 393.4832763671875 C 681.2928466796875 413.5715637207031 668.6503295898438 412.1979064941406 646.7265625 393.2049865722656" stroke-width="6.0" fill="none" stroke="rgb(0, 0, 0)" stroke-opacity="1.0" stroke-linecap="round" stroke-linejoin="round"/>
    <path d="M 457.8341979980469 550.3004150390625 C 487.77410888671875 529.2203979492188 514.2835693359375 535.057373046875 502.1192932128906 540.9824829101562 C 496.3547058105469 534.6768798828125 495.600830078125 541.4554443359375 523.5426635742188 513.9550170898438 C 516.387451171875 512.9224243164062 514.386962890625 539.2279663085938 519.1654052734375 548.9600219726562 C 517.6182861328125 538.3917846679688 508.6069641113281 523.078857421875 490.4303894042969 545.352294921875 C 493.9554748535156 562.54248046875 472.8348083496094 563.8952026367188 478.10174560546875 568.1324462890625" stroke-width="6.0" fill="none" stroke="rgb(0, 0, 0)" stroke-opacity="1.0" stroke-linecap="round" stroke-linejoin="round"/>
    <path d="M 53.27696990966797 167.8485870361328 C 36.254398345947266 158.8867645263672 31.363710403442383 180.10183715820312 21.827713012695312 199.5072021484375 C 50.560211181640625 219.66781616210938 72.86138916015625 231.3168182373047 52.167354583740234 219.11203002929688 C 75.8274917602539 227.08633422851562 45.68459701538086 255.2430419921875 74.13027954101562 257.8975524902344 C 94.18413543701172 228.57131958007812 107.28993225097656 193.48098754882812 91.14046478271484 224.95343017578125 C 96.74323272705078 235.69093322753906 98.12162780761719 254.62136840820312 88.93562316894531 234.24603271484375" stroke-width="6.0" fill="none" stroke="rgb(0, 0, 0)" stroke-opacity="1.0" stroke-linecap="round" stroke-linejoin="round"/>
    <path d="M 421.0954895019531 508.679931640625 C 422.2624816894531 505.71148681640625 406.7052001953125 525.356201171875 434.3341064453125 539.2948608398438 C 411.1024169921875 529.4773559570312 385.92230224609375 545.8572387695312 401.9454040527344 535.0791625976562 C 402.6610107421875 525.85595703125 410.9833068847656 525.770263671875 425.09027099609375 536.598388671875 C 412.7229919433594 563.1766967773438 407.9998474121094 593.2467651367188 424.0591125488281 581.6419677734375 C 447.8583679199219 585.4461669921875 470.34356689453125 557.764892578125 476.5965270996094 523.0416870117188" stroke-width="6.0" fill="none" stroke="rgb(0, 0, 0)" stroke-opacity="1.0" stroke-linecap="round" stroke-linejoin="round"/>
    <path d="M 88.60700225830078 229.79904174804688 C 110.88500213623047 241.11611938476562 98.44857788085938 218.8168487548828 109.73818969726562 233.4481201171875 C 109.8517837524414 205.98294067382812 126.91058349609375 234.85757446289062 145.41015625 251.19271850585938 C 116.03278350830078 223.53196716308594 118.98648071289062 208.2481231689453 102.77561950683594 201.88734436035156 C 90.34832000732422 199.7179412841797 89.58628845214844 208.1471405029297 79.67007446289062 218.3062744140625 C 66.18173217773438 206.54759216308594 58.79566955566406 192.69862365722656 52.49061584472656 205.44625854492188" stroke-width="6.0" fill="none" stroke="rgb(0, 0, 0)" stroke-opacity="1.0" stroke-linecap="round" stroke-linejoin="round"/>
    <path d="M 230.82225036621094 217.03135681152344 C 228.20584106445312 191.07345581054688 209.53814697265625 211.95474243164062 227.0064239501953 201.32308959960938 C 253.22882080078125 188.37094116210938 267.4488830566406 165.8955078125 267.6820373535156 154.9752197265625 C 236.71282958984375 164.8837432861328 248.48312377929688 183.96961975097656 249.6649169921875 198.83419799804688 C 252.19764709472656 192.84320068359375 232.7223663330078 180.3844757080078 231.01226806640625 204.10340881347656 C 251.7427978515625 181.99032592773438 269.27532958984375 170.46217346191406 257.7051086425781 163.35057067871094" stroke-width="6.0" fill="none" stroke="rgb(0, 0, 0)" stroke-opacity="1.0" stroke-linecap="round" stroke-linejoin="round"/>
    <path d="M 261.9598083496094 237.3957977294922 C 292.6235046386719 228.1751708984375 305.7732238769531 217.9821014404297 323.1075439453125 202.9847412109375 C 321.5185852050781 202.76251220703125 298.6833801269531 184.6773223876953 304.38336181640625 213.1689453125 C 308.70770263671875 203.44757080078125 314.1907958984375 172.46832275390625 327.550048828125 193.92013549804688 C 301.6399230957031 208.2412567138672 329.13372802734375 224.03311157226562 335.16046142578125 233.98046875 C 340.0637512207031 233.480224609375 318.9345397949219 213.82940673828125 319.8824768066406 229.63368225097656" stroke-width="6.0" fill="none" stroke="rgb(0, 0, 0)" stroke-opacity="1.0" stroke-linecap="round" stroke-linejoin="round"/>
    <path d="M 143.93539428710938 474.32568359375 C 160.77676391601562 469.5155944824219 144.50885009765625 484.0830078125 172.488525390625 456.7457275390625 C 147.8446807861328 478.7131042480469 123.96566009521484 470.32489013671875 117.32283020019531 453.664794921875 C 101.91415405273438 443.7247619628906 122.43925476074219 425.79119873046875 106.19407653808594 406.2889709472656 C 119.3875503540039 409.5935974121094 104.25212860107422 420.1522521972656 93.18838500976562 401.673583984375 C 63.365962982177734 415.6226501464844 74.24520874023438 405.2861328125 56.84599304199219 426.5526123046875" stroke-width="6.0" fill="none" stroke="rgb(0, 0, 0)" stroke-opacity="1.0" stroke-linecap="round" stroke-linejoin="round"/>
    <path d="M 362.91949462890625 93.4001693725586 C 379.8459167480469 111.44688415527344 362.7086486816406 117.56259155273438 352.9965515136719 100.82534790039062 C 346.633056640625 78.46720886230469 331.904052734375 60.36525344848633 322.3700866699219 69.77217102050781 C 323.1084289550781 58.24301528930664 300.1153869628906 88.3560791015625 300.873779296875 83.34970092773438 C 321.5652160644531 81.47677612304688 304.6880798339844 56.995567321777344 305.7109069824219 47.79772186279297 C 305.2736511230469 46.66474151611328 282.1131896972656 32.26120376586914 306.16259765625 29.112873077392578" stroke-width="6.0" fill="none" stroke="rgb(0, 0, 0)" stroke-opacity="1.0" stroke-linecap="round" stroke-linejoin="round"/>
    <path d="M 144.67176818847656 226.92164611816406 C 147.98422241210938 225.04795837402344 132.82691955566406 244.1100616455078 152.4367218017578 216.1358642578125 C 132.3146209716797 245.25241088867188 137.3225555419922 237.02182006835938 121.23922729492188 235.93101501464844 C 118.7457504272461 251.0736846923828 119.71342468261719 230.55494689941406 127.03092956542969 220.445556640625 C 120.8158187866211 217.9160919189453 102.18497467041016 204.06643676757812 104.82550048828125 196.47784423828125 C 76.50983428955078 207.76805114746094 93.03839111328125 223.399169921875 97.47056579589844 215.6199188232422" stroke-width="6.0" fill="none" stroke="rgb(0, 0, 0)" stroke-opacity="1.0" stroke-linecap="round" stroke-linejoin="round"/>
    <path d="M 388.9492492675781 195.89553833007812 C 402.18865966796875 194.94859313964844 425.5670471191406 223.68356323242188 400.05712890625 195.2252655029297 C 409.28857421875 189.5937957763672 428.41607666015625 172.0577850341797 445.0796203613281 154.45748901367188 C 434.36346435546875 176.1448211669922 412.59466552734375 177.5316619873047 391.8646240234375 195.59072875976562 C 392.13275146484375 204.18630981445312 399.00164794921875 199.82826232910156 383.4757995605469 196.44400024414062 C 372.0877380371094 226.87269592285156 381.79913330078125 225.3017578125 384.5111083984375 216.4648895263672" stroke-width="6.0" fill="none" stroke="rgb(0, 0, 0)" stroke-opacity="1.0" stroke-linecap="round" stroke-linejoin="round"/>
    <path d="M 392.087646484375 82.54598236083984 C 397.91241455078125 73.09584045410156 402.53326416015625 83.50077819824219 395.8197326660156 66.53433990478516 C 394.5617980957031 88.08919525146484 420.0654296875 99.6850357055664 444.93829345703125 81.9056167602539 C 445.2903747558594 105.58252716064453 414.9082946777344 100.82308959960938 392.4507141113281 73.43505859375 C 423.017822265625 59.37309646606445 402.6518249511719 71.58718872070312 402.59307861328125 66.43338775634766 C 383.859130859375 57.60795593261719 361.9383544921875 47.41114044189453 364.30206298828125 34.86028289794922" stroke-width="6.0" fill="none" stroke="rgb(0, 0, 0)" stroke-opacity="1.0" stroke-linecap="round" stroke-linejoin="round"/>
    <path d="M 373.290771484375 557.4865112304688 C 363.38214111328125 575.46533203125 382.8029479980469 580.8407592773438 375.46087646484375 579.4362182617188 C 370.1744689941406 573.5731811523438 369.7896423339844 584.5288696289062 348.9429626464844 566.921630859375 C 355.0671691894531 555.7554321289062 340.40264892578125 531.3258666992188 362.136962890625 530.6901245117188 C 381.4269104003906 519.009033203125 399.07843017578125 525.0326538085938 383.9915771484375 551.7948608398438 C 404.3182678222656 558.8555908203125 401.1287536621094 535.4420776367188 412.6200866699219 563.8779296875" stroke-width="6.0" fill="none" stroke="rgb(0, 0, 0)" stroke-opacity="1.0" stroke-linecap="round" stroke-linejoin="round"/>
    <path d="M 49.88701248168945 485.1000671386719 C 30.90660285949707 467.2525939941406 59.27222442626953 455.6911926269531 86.30602264404297 431.0960693359375 C 82.59911346435547 422.195556640625 91.15142059326172 410.2386779785156 92.28392791748047 386.3404846191406 C 93.46570587158203 378.7309875488281 88.02299499511719 377.6305847167969 69.99910736083984 381.4658203125 C 72.59232330322266 408.1351013183594 92.69158172607422 435.7776184082031 120.56657409667969 454.62060546875 C 137.75701904296875 471.03643798828125 139.96255493164062 471.5379333496094 162.79833984375 482.3173828125" stroke-width="6.0" fill="none" stroke="rgb(0, 0, 0)" stroke-opacity="1.0" stroke-linecap="round" stroke-linejoin="round"/>
    <path d="M 339.283935546875 263.625 C 327.8451232910156 231.45114135742188 319.0480651855469 231.47671508789062 327.1769714355469 251.24090576171875 C 308.2250671386719 252.13861083984375 338.5018005371094 277.8726501464844 334.5675048828125 258.73968505859375 C 345.2297668457031 227.513671875 341.4949951171875 231.2574005126953 315.2231750488281 210.97393798828125 C 290.4148864746094 203.8901824951172 276.440185546875 230.9850616455078 282.9285583496094 203.3511199951172 C 270.1541442871094 206.18235778808594 243.85511779785156 217.8519287109375 229.73448181152344 223.76112365722656" stroke-width="6.0" fill="none" stroke="rgb(0, 0, 0)" stroke-opacity="1.0" stroke-linecap="round" stroke-linejoin="round"/>
    <path d="M 586.2168579101562 495.061279296875 C 606.5430297851562 517.3472900390625 637.2866821289062 524.3135986328125 637.5989990234375 522.0263671875 C 656.2236938476562 541.0264282226562 674.6694946289062 513.3179931640625 646.3997192382812 536.9739379882812 C 625.5911865234375 551.1456909179688 647.8460083007812 529.0446166992188 650.5855102539062 553.1758422851562 C 627.299072265625 563.6051025390625 603.6840209960938 541.9912719726562 600.5455322265625 561.1671752929688 C 572.844482421875 566.9550170898438 547.1749267578125 589.9022216796875 563.7904052734375 576.43896484375" stroke-width="6.0" fill="none" stroke="rgb(0, 0, 0)" stroke-opacity="1.0" stroke-linecap="round" stroke-linejoin="round"/>
    <path d="M 426.64312744140625 542.4000244140625 C 432.44970703125 568.0958862304688 433.30792236328125 595.444091796875 426.73931884765625 616.04248046875 C 433.66229248046875 587.0985107421875 451.6696472167969 585.8547973632812 470.27105712890625 564.9212646484375 C 465.63568115234375 552.2655639648438 446.09356689453125 552.2255859375 430.3871154785156 567.90234375 C 451.15313720703125 539.12109375 436.115234375 527.7423706054688 424.4885559082031 532.2698364257812 C 435.45562744140625 543.3021240234375 430.8891296386719 521.0676879882812 409.5843811035156 533.8571166992188" stroke-width="6.0" fill="none" stroke="rgb(0, 0, 0)" stroke-opacity="1.0" stroke-linecap="round" stroke-linejoin="round"/>
    <path d="M 117.78640747070312 351.54095458984375 C 142.45025634765625 368.8798522949219 158.5917205810547 354.1478576660156 156.0847625732422 331.0492248535156 C 167.1986083984375 316.6933288574219 183.7444610595703 321.8734436035156 211.88494873046875 301.64862060546875 C 231.01979064941406 276.03619384765625 200.32119750976562 294.197998046875 180.10487365722656 271.01019287109375 C 169.1409149169922 262.7832946777344 153.62953186035156 286.42401123046875 131.38864135742188 266.08209228515625 C 139.91159057617188 254.0973358154297 137.752197265625 256.9181213378906 129.89308166503906 264.03912353515625" stroke-width="6.0" fill="none" stroke="rgb(0, 0, 0)" stroke-opacity="1.0" stroke-linecap="round" stroke-linejoin="round"/>
    <path d="M 272.91845703125 380.4875183105469 C 286.3912353515625 347.6079406738281 307.80743408203125 341.90765380859375 313.369873046875 332.79217529296875 C 321.30499267578125 324.46136474609375 340.5047912597656 339.39727783203125 328.17779541015625 349.4006652832031 C 321.5848388671875 358.7000732421875 337.7406311035156 336.6283264160156 357.674560546875 324.2586364746094 C 359.75421142578125 295.81781005859375 341.06842041015625 303.6575622558594 320.923583984375 280.9510192871094 C 319.1232604980469 276.5032043457031 311.2584228515625 282.7956237792969 286.57861328125 299.3002624511719" stroke-width="6.0" fill="none" stroke="rgb(0, 0, 0)" stroke-opacity="1.0" stroke-linecap="round" stroke-linejoin="round"/>
    <path d="M 378.5937194824219 519.9548950195312 C 345.1427307128906 515.1188354492188 336.4138488769531 523.4527587890625 311.8891906738281 553.1671142578125 C 298.7308044433594 550.2615356445312 278.14312744140625 520.9351196289062 300.6811218261719 522.0451049804688 C 306.6844177246094 512.3892822265625 297.26324462890625 529.1624755859375 287.9488220214844 527.6724853515625 C 274.3785095214844 537.3910522460938 263.63543701171875 559.2566528320312 289.98028564453125 577.9506225585938 C 309.5263366699219 583.6019897460938 306.880126953125 597.0794677734375 332.18756103515625 590.904296875" stroke-width="6.0" fill="none" stroke="rgb(0, 0, 0)" stroke-opacity="1.0" stroke-linecap="round" stroke-linejoin="round"/>
    <path d="M 31.934200286865234 302.0229797363281 C 45.83626937866211 325.0195617675781 71.4862289428711 357.543212890625 54.84910583496094 387.9410705566406 C 65.46024322509766 364.97357177734375 55.925411224365234 394.5891418457031 85.33364868164062 379.119140625 C 97.4054946899414 402.0643310546875 92.38416290283203 383.8916015625 65.64482116699219 359.46478271484375 C 89.8199462890625 339.7870788574219 67.05489349365234 326.1680908203125 49.88208770751953 301.4982604980469 C 29.737770080566406 309.958984375 49.64998245239258 302.7223205566406 49.235931396484375 295.8591613769531" stroke-width="6.0" fill="none" stroke="rgb(0, 0, 0)" stroke-opacity="1.0" stroke-linecap="round" stroke-linejoin="round"/>
    <path d="M 277.9155578613281 415.52227783203125 C 289.34765625 441.38067626953125 302.1482849121094 458.21966552734375 320.040771484375 470.802734375 C 298.8857421875 451.7304382324219 311.9083557128906 434.9223327636719 323.12933349609375 454.1099853515625 C 345.72039794921875 457.80712890625 337.73272705078125 461.0732116699219 312.1914978027344 462.2551574707031 C 327.59564208984375 465.1001892089844 311.574462890625 471.4730529785156 327.0127868652344 459.4911804199219 C 319.2970275878906 475.3883056640625 329.1651306152344 491.787353515625 351.7583923339844 509.6059875488281" stroke-width="6.0" fill="none" stroke="rgb(0, 0, 0)" stroke-opacity="1.0" stroke-linecap="round" stroke-linejoin="round"/>
    <path d="M 83.26764678955078 114.21509552001953 C 65.77567291259766 114.10212707519531 56.742897033691406 117.72706604003906 60.05731201171875 112.49077606201172 C 47.75431823730469 126.57426452636719 20.518911361694336 150.39804077148438 18.259992599487305 124.55055236816406 C 20.127445220947266 138.4839324951172 14.720455169677734 122.65271759033203 32.8159294128418 113.30850219726562 C 46.75637435913086 124.03858184814453 24.874048233032227 111.02073669433594 34.316261291503906 105.67167663574219 C 27.10986328125 101.9569320678711 54.59675216674805 96.86698913574219 65.02039337158203 87.33682250976562" stroke-width="6.0" fill="none" stroke="rgb(0, 0, 0)" stroke-opacity="1.0" stroke-linecap="round" stroke-linejoin="round"/>
    <path d="M 156.95237731933594 382.0433654785156 C 164.80804443359375 393.1890869140625 162.16702270507812 383.8500061035156 158.31451416015625 383.18695068359375 C 157.17221069335938 374.68963623046875 176.22747802734375 400.6171569824219 173.82774353027344 388.73345947265625 C 186.3186492919922 371.4541320800781 175.80442810058594 394.09442138671875 184.5684356689453 378.9185485839844 C 207.26693725585938 393.3384094238281 202.6240997314453 369.14349365234375 184.79058837890625 351.0903625488281 C 189.63255310058594 337.61248779296875 210.9841766357422 346.9958801269531 195.47738647460938 336.1299743652344" stroke-width="6.0" fill="none" stroke="rgb(0, 0, 0)" stroke-opacity="1.0" stroke-linecap="round" stroke-linejoin="round"/>
    <path d="M 177.2611541748047 489.0925598144531 C 180.17037963867188 468.6729736328125 175.79678344726562 441.5101623535156 164.7861785888672 449.06304931640625 C 170.39508056640625 438.3783874511719 141.7438201904297 453.55621337890625 123.55394744873047 427.7799987792969 C 94.64256286621094 442.2647399902344 100.97959899902344 436.6797790527344 91.2511215209961 465.6093444824219 C 110.98057556152344 447.6949462890625 129.38223266601562 469.3405456542969 140.71969604492188 474.0563049316406 C 136.4412078857422 450.2701416015625 127.8556137084961 430.8659973144531 158.2344970703125 440.76934814453125" stroke-width="6.0" fill="none" stroke="rgb(0, 0, 0)" stroke-opacity="1.0" stroke-linecap="round" stroke-linejoin="round"/>
    <path d="M 535.481201171875 227.49168395996094 C 561.6099243164062 209.4875946044922 585.6150512695312 222.72842407226562 581.9505615234375 191.45123291015625 C 604.8098754882812 177.17184448242188 614.6034545898438 201.6193389892578 633.015625 197.80935668945312 C 610.4066772460938 170.73446655273438 597.5452270507812 160.18521118164062 602.0400390625 190.7939453125 C 586.7736206054688 203.28775024414062 577.2691040039062 201.0548553466797 599.0850830078125 194.8242645263672 C 609.3713989257812 211.46522521972656 597.2654418945312 223.18959045410156 602.87548828125 250.74595642089844" stroke-width="6.0" fill="none" stroke="rgb(0, 0, 0)" stroke-opacity="1.0" stroke-linecap="round" stroke-linejoin="round"/>
    <path d="M 407.2176818847656 160.25123596191406 C 403.7408447265625 132.7919921875 398.4527282714844 111.10620880126953 377.1026916503906 110.22807312011719 C 409.91949462890625 99.2200698852539 396.1939697265625 73.81986999511719 382.204833984375 52.971458435058594 C 370.30792236328125 63.40408706665039 391.2923278808594 68.63321685791016 393.3416748046875 56.40564727783203 C 385.7770080566406 84.96377563476562 356.7726135253906 78.44889068603516 352.89495849609375 75.82583618164062 C 347.4501953125 83.88069152832031 330.9975891113281 98.33292388916016 342.49322509765625 83.54289245605469" stroke-width="6.0" fill="none" stroke="rgb(0, 0, 0)" stroke-opacity="1.0" stroke-linecap="round" stroke-linejoin="round"/>
    <path d="M 19.95262908935547 510.40850830078125 C 39.033721923828125 519.135986328125 41.054134368896484 505.3071594238281 27.10591697692871 537.7982177734375 C 22.016407012939453 527.7103271484375 15.794731140136719 538.8676147460938 -11.556282997131348 546.5457763671875 C -33.594356536865234 535.6369018554688 -37.70250701904297 565.386474609375 -66.29800415039062 593.7879028320312 C -62.91163635253906 593.2333374023438 -78.82852172851562 618.50390625 -100.92668151855469 624.93115234375 C -79.94659423828125 600.75 -96.8482666015625 630.27783203125 -92.60356903076172 610.9951782226562" stroke-width="6.0" fill="none" stroke="rgb(0, 0, 0)" stroke-opacity="1.0" stroke-linecap="round" stroke-linejoin="round"/>
    <path d="M 93.84727478027344 464.00201416015625 C 106.25214385986328 456.3793640136719 101.31498718261719 472.39202880859375 98.8172836303711 480.398681640625 C 86.3079833984375 474.9342041015625 60.88541030883789 495.0580139160156 88.37220001220703 507.91619873046875 C 81.4864501953125 511.6316833496094 79.79975128173828 539.2796020507812 77.20346069335938 533.2432250976562 C 90.9867935180664 528.10107421875 116.7707290649414 509.96142578125 106.90373229980469 518.2994995117188 C 101.25908660888672 516.4630737304688 74.20978546142578 533.6339721679688 76.90298461914062 534.3751220703125" stroke-width="6.0" fill="none" stroke="rgb(0, 0, 0)" stroke-opacity="1.0" stroke-linecap="round" stroke-linejoin="round"/>
    <path d="M 591.5701293945312 260.28436279296875 C 595.8442993164062 258.2148132324219 576.6288452148438 255.91030883789062 603.5319213867188 260.3808288574219 C 610.3223266601562 297.6905517578125 597.1861572265625 285.34765625 617.82080078125 282.7983703613281 C 592.0374145507812 272.36663818359375 603.4832153320312 292.0058288574219 610.0574951171875 295.4938659667969 C 629.6600341796875 315.88922119140625 609.3427124023438 308.0331115722656 631.82177734375 288.5457458496094 C 658.0502319335938 313.8288879394531 647.4136352539062 301.4078063964844 671.0803833007812 283.8282470703125" stroke-width="6.0" fill="none" stroke="rgb(0, 0, 0)" stroke-opacity="1.0" stroke-linecap="round" stroke-linejoin="round"/>
    <path d="M 278.8087158203125 148.1917724609375 C 278.34429931640625 186.22088623046875 295.8674011230469 215.37242126464844 305.6288146972656 190.77117919921875 C 306.2077941894531 168.04541015625 326.87518310546875 146.57684326171875 324.6293640136719 174.330078125 C 298.79510498046875 153.2011260986328 306.7521057128906 176.9036102294922 338.303466796875 194.9229736328125 C 313.5878601074219 187.89102172851562 299.7427062988281 201.85006713867188 276.8843078613281 219.39271545410156 C 289.1834716796875 221.71429443359375 261.7956237792969 217.65171813964844 274.4126892089844 207.9581756591797" stroke-width="6.0" fill="none" stroke="rgb(0, 0, 0)" stroke-opacity="1.0" stroke-linecap="round" stroke-linejoin="round"/>
    <path d="M 233.5802001953125 493.5562438964844 C 255.00254821777344 485.3380432128906 267.7917785644531 484.7694091796875 276.8222351074219 484.6570739746094 C 252.80889892578125 459.978515625 242.7573699951172 477.3488464355469 257.112548828125 460.9349670410156 C 233.5538787841797 452.20361328125 222.14236450195312 472.8680419921875 248.1561279296875 462.3162536621094 C 225.99533081054688 473.4423522949219 198.71400451660156 500.10015869140625 192.62841796875 479.69891357421875 C 179.17752075195312 466.4375305175781 177.37486267089844 478.19110107421875 191.27967834472656 481.7627868652344" stroke-width="6.0" fill="none" stroke="rgb(0, 0, 0)" stroke-opacity="1.0" stroke-linecap="round" stroke-linejoin="round"/>
    <path d="M 359.8182067871094 451.0874328613281 C 337.6175842285156 441.77294921875 316.9794921875 437.5206604003906 305.5291748046875 422.1186218261719 C 336.37640380859375 402.6102600097656 344.90167236328125 400.3370361328125 340.4331970214844 394.8216247558594 C 352.53009033203125 405.99627685546875 329.97857666015625 390.9438171386719 328.98052978515625 391.68963623046875 C 302.0842590332031 375.7789611816406 287.3675842285156 380.76885986328125 277.03643798828125 393.4713134765625 C 289.82470703125 426.13385009765625 279.33856201171875 438.57794189453125 264.72564697265625 425.850830078125" stroke-width="6.0" fill="none" stroke="rgb(0, 0, 0)" stroke-opacity="1.0" stroke-linecap="round" stroke-linejoin="round"/>
    <path d="M 87.90312957763672 504.38677978515625 C 80.5111312866211 502.559326171875 103.03376770019531 503.7215881347656 81.17680358886719 503.67620849609375 C 59.58729553222656 525.6267700195312 36.16190719604492 558.3118286132812 34.74806213378906 540.6185302734375 C 13.769346237182617 525.8618774414062 29.504886627197266 543.5242309570312 33.947715759277344 534.7298583984375 C 35.3675651550293 561.9287719726562 60.83328628540039 580.7173461914062 81.146240234375 596.7999267578125 C 76.72059631347656 586.4857788085938 62.381649017333984 594.0208740234375 54.13385772705078 574.1637573242188" stroke-width="6.0" fill="none" stroke="rgb(0, 0, 0)" stroke-opacity="1.0" stroke-linecap="round" stroke-linejoin="round"/>
    <path d="M 205.92022705078125 38.90414810180664 C 202.82298278808594 36.19977951049805 221.11074829101562 59.9316291809082 248.00794982910156 42.554603576660156 C 249.73580932617188 28.05009651184082 239.94534301757812 44.85723876953125 246.9004669189453 45.59898376464844 C 225.30288696289062 56.62504959106445 223.48609924316406 33.69264221191406 233.3223114013672 37.05559158325195 C 213.01316833496094 5.086365699768066 226.4991455078125 -19.28044891357422 247.74227905273438 -16.17009925842285 C 226.13668823242188 -26.447431564331055 231.27732849121094 -21.57120704650879 229.13360595703125 -19.355188369750977" stroke-width="6.0" fill="none" stroke="rgb(0, 0, 0)" stroke-opacity="1.0" stroke-linecap="round" stroke-linejoin="round"/>
    <path d="M 467.802001953125 193.43675231933594 C 473.8858947753906 173.3837432861328 453.7009582519531 148.5730438232422 436.8558654785156 150.63526916503906 C 420.3095703125 148.390625 420.6156921386719 150.06491088867188 435.6661071777344 134.04437255859375 C 467.54736328125 154.93548583984375 454.7608642578125 168.37652587890625 452.4250793457031 156.904052734375 C 419.4693908691406 172.6030731201172 427.37957763671875 176.5948944091797 411.20037841796875 176.17886352539062 C 407.8326110839844 200.58145141601562 393.9607849121094 227.6154022216797 384.93194580078125 208.6060333251953" stroke-width="6.0" fill="none" stroke="rgb(0, 0, 0)" stroke-opacity="1.0" stroke-linecap="round" stroke-linejoin="round"/>
    <path d="M 338.53515625 186.50160217285156 C 330.36279296875 215.93991088867188 361.7644348144531 213.94496154785156 351.8502197265625 240.7481231689453 C 348.4919128417969 220.66590881347656 322.18798828125 219.00445556640625 311.6017150878906 244.3978729248047 C 301.762939453125 247.8504638671875 309.2185974121094 227.19342041015625 326.9454040527344 243.98863220214844 C 307.1952209472656 246.74658203125 293.8697814941406 250.9178924560547 270.14166259765625 241.04708862304688 C 275.5888977050781 246.95692443847656 257.2480773925781 223.63909912109375 277.5597839355469 245.03482055664062" stroke-width="6.0" fill="none" stroke="rgb(0, 0, 0)" stroke-opacity="1.0" stroke-linecap="round" stroke-linejoin="round"/>
    <path d="M 509.9469299316406 364.37567138671875 C 493.6958923339844 385.44342041015625 524.528564453125 398.324462890625 541.9890747070312 420.465087890625 C 524.550048828125 452.6048278808594 520.1520385742188 476.2795715332031 510.9418640136719 447.8920593261719 C 500.2212829589844 430.92120361328125 510.1134033203125 427.4435119628906 508.85711669921875 427.30279541015625 C 500.3645324707031 438.6107482910156 494.14501953125 466.1111755371094 489.49017333984375 483.76495361328125 C 512.7076416015625 501.87109375 486.64886474609375 517.5003662109375 471.50531005859375 532.308837890625" stroke-width="6.0" fill="none" stroke="rgb(0, 0, 0)" stroke-opacity="1.0" stroke-linecap="round" stroke-linejoin="round"/>
    <path d="M 184.1044464111328 226.96498107910156 C 169.77615356445312 246.72581481933594 158.23394775390625 249.20533752441406 141.09022521972656 231.66171264648438 C 140.70802307128906 246.4687957763672 114.6788101196289 232.3449249267578 103.96582794189453 229.09814453125 C 115.48384094238281 229.9449462890625 144.96499633789062 204.72608947753906 152.64288330078125 218.83116149902344 C 173.36277770996094 214.9068145751953 165.1919403076172 218.97430419921875 161.74095153808594 193.37191772460938 C 168.48504638671875 182.79637145996094 162.04200744628906 205.80087280273438 138.79763793945312 187.41981506347656" stroke-width="6.0" fill="none" stroke="rgb(0, 0, 0)" stroke-opacity="1.0" stroke-linecap="round" stroke-linejoin="round"/>
    <path d="M 455.19879150390625 204.12490844726562 C 462.74957275390625 194.34036254882812 444.3280334472656 168.9591827392578 437.8197937011719 149.1378631591797 C 408.3097229003906 138.4503936767578 414.0741271972656 154.35195922851562 398.5373840332031 156.5418243408203 C 387.3929748535156 126.46871185302734 404.4576416015625 99.16648864746094 418.04766845703125 112.31439208984375 C 405.16949462890625 129.2978973388672 432.1826477050781 127.59583282470703 457.07000732421875 110.8816909790039 C 456.2347412109375 108.0062484741211 445.91192626953125 121.09088897705078 456.45452880859375 109.39579772949219" stroke-width="6.0" fill="none" stroke="rgb(0, 0, 0)" stroke-opacity="1.0" stroke-linecap="round" stroke-linejoin="round"/>
    <path d="M 448.8934326171875 15.04786205291748 C 422.8580627441406 11.988645553588867 416.2428894042969 10.467204093933105 389.4798583984375 8.748610496520996 C 416.5246276855469 10.769710540771484 391.91436767578125 10.816091537475586 365.2426452636719 13.89848804473877 C 383.09002685546875 20.12445640563965 382.83355712890625 24.594263076782227 381.24993896484375 46.85288619995117 C 379.2780456542969 76.54977416992188 399.7109375 79.611083984375 425.23565673828125 99.1527099609375 C 399.12469482421875 120.0157470703125 404.3506164550781 147.72059631347656 420.1081848144531 162.0072784423828" stroke-width="6.0" fill="none" stroke="rgb(0, 0, 0)" stroke-opacity="1.0" stroke-linecap="round" stroke-linejoin="round"/>
    <path d="M 260.2809143066406 158.81170654296875 C 256.9051818847656 185.0540771484375 267.928466796875 195.5121307373047 242.02162170410156 203.33560180664062 C 236.53036499023438 207.19625854492188 243.71176147460938 223.062744140625 240.32838439941406 199.4323272705078 C 246.0728759765625 167.66758728027344 265.059814453125 132.2376708984375 252.8893280029297 132.9576416015625 C 231.7085723876953 122.10987091064453 240.8238525390625 114.19322967529297 244.248291015625 117.12226867675781 C 261.6382751464844 118.76961517333984 247.32305908203125 144.19728088378906 275.71124267578125 132.73974609375" stroke-width="6.0" fill="none" stroke="rgb(0, 0, 0)" stroke-opacity="1.0" stroke-linecap="round" stroke-linejoin="round"/>
    <path d="M 460.0109558105469 122.30210876464844 C 447.9276123046875 96.0938720703125 453.8153381347656 111.06891632080078 466.7069396972656 108.66857147216797 C 497.9294738769531 102.89763641357422 484.9235534667969 97.70142364501953 458.8318786621094 83.5497055053711 C 459.77679443359375 65.55940246582031 491.97845458984375 52.550193786621094 483.28216552734375 31.52850341796875 C 507.4729919433594 27.067180633544922 528.9022827148438 18.411128997802734 515.9677124023438 20.63486099243164 C 529.8406982421875 16.177886962890625 530.1607666015625 17.60199737548828 513.7616577148438 11.5199613571167" stroke-width="6.0" fill="none" stroke="rgb(0, 0, 0)" stroke-opacity="1.0" stroke-linecap="round" stroke-linejoin="round"/>
    <path d="M 488.2039489746094 51.3905029296875 C 461.8950500488281 73.94298553466797 476.1763610839844 51.85548400878906 498.4722595214844 36.062538146972656 C 496.8602294921875 41.18929672241211 510.3065185546875 28.678607940673828 488.4300537109375 53.25104522705078 C 509.81201171875 42.1086311340332 503.048828125 20.05254554748535 499.02130126953125 -6.920437812805176 C 508.6278991699219 -3.607147455215454 531.6793212890625 -13.609274864196777 561.90380859375 2.8580245971679688 C 557.4532470703125 25.59008026123047 548.3432006835938 59.628875732421875 524.8421630859375 68.45552825927734" stroke-width="6.0" fill="none" stroke="rgb(0, 0, 0)" stroke-opacity="1.0" stroke-linecap="round" stroke-linejoin="round"/>
    <path d="M 231.0468292236328 279.37042236328125 C 259.9358215332031 261.92376708984375 275.6536560058594 251.98460388183594 254.59762573242188 237.83816528320312 C 253.53765869140625 220.43820190429688 225.82699584960938 237.07199096679688 240.605712890625 213.35675048828125 C 265.2491149902344 233.5540008544922 279.7901916503906 225.5026397705078 268.60198974609375 202.5213165283203 C 248.37936401367188 223.06605529785156 280.83294677734375 240.6260223388672 297.58203125 224.08010864257812 C 319.5185241699219 196.0537872314453 299.8585205078125 198.2593231201172 285.60137939453125 208.22921752929688" stroke-width="6.0" fill="none" stroke="rgb(0, 0, 0)" stroke-opacity="1.0" stroke-linecap="round" stroke-linejoin="round"/>
    <path d="M 543.1530151367188 161.81607055664062 C 530.6090087890625 171.82363891601562 521.8734741210938 196.72520446777344 501.6667175292969 226.27285766601562 C 521.3408813476562 196.19786071777344 514.0161743164062 201.12506103515625 516.3289794921875 180.5851593017578 C 483.84423828125 201.61166381835938 462.27099609375 235.2938232421875 443.7750549316406 232.31341552734375 C 474.10040283203125 258.3326721191406 474.4718017578125 240.6019287109375 476.9013671875 239.0037078857422 C 465.13433837890625 234.56800842285156 488.67901611328125 213.03384399414062 495.28167724609375 210.85232543945312" stroke-width="6.0" fill="none" stroke="rgb(0, 0, 0)" stroke-opacity="1.0" stroke-linecap="round" stroke-linejoin="round"/>
    <path d="M 367.1391296386719 427.6917419433594 C 363.30706787109375 440.5466003417969 384.1047058105469 424.5289306640625 366.22943115234375 405.0174865722656 C 394.9927673339844 383.7586975097656 371.83575439453125 358.330322265625 361.2953796386719 393.2493896484375 C 333.0748291015625 371.383544921875 320.8305969238281 375.9448547363281 311.6239013671875 406.80462646484375 C 328.2008972167969 409.6726989746094 334.73297119140625 436.5616760253906 347.4142150878906 418.46539306640625 C 338.9551696777344 421.895263671875 346.64483642578125 450.1553039550781 319.96197509765625 474.0480041503906" stroke-width="6.0" fill="none" stroke="rgb(0, 0, 0)" stroke-opacity="1.0" stroke-linecap="round" stroke-linejoin="round"/>
    <path d="M 229.75059509277344 25.8416805267334 C 219.4025421142578 3.1786131858825684 197.08824157714844 -23.971765518188477 213.9092559814453 -43.45197296142578 C 198.50732421875 -34.17343521118164 197.5380096435547 -43.539329528808594 205.2607879638672 -24.51995849609375 C 209.8928680419922 -27.39371109008789 192.7830352783203 -20.114957809448242 195.5358123779297 -43.04581069946289 C 182.2941131591797 -26.935148239135742 207.72726440429688 -36.69987106323242 231.27886962890625 -51.38280487060547 C 249.6981964111328 -52.14149856567383 252.63221740722656 -42.346614837646484 262.7129821777344 -51.804115295410156" stroke-width="6.0" fill="none" stroke="rgb(0, 0, 0)" stroke-opacity="1.0" stroke-linecap="round" stroke-linejoin="round"/>
    <path d="M 314.5580139160156 40.908626556396484 C 304.5834045410156 48.72341537475586 328.52294921875 30.63934326171875 312.28216552734375 27.147064208984375 C 295.7315368652344 28.623254776000977 279.5043029785156 47.65049362182617 274.94158935546875 48.628631591796875 C 306.0943908691406 24.78609275817871 326.15435791015625 20.5015811920166 315.2425842285156 40.416988372802734 C 340.3253479003906 24.329132080078125 364.9726867675781 13.67412281036377 337.4106750488281 27.876718521118164 C 325.0765380859375 31.429216384887695 305.07025146484375 49.42647933959961 307.5243835449219 67.03329467773438" stroke-width="6.0" fill="none" stroke="rgb(0, 0, 0)" stroke-opacity="1.0" stroke-linecap="round" stroke-linejoin="round"/>
    <path d="M 218.76943969726562 141.88174438476562 C 244.0581512451172 143.14920043945312 233.4297637939453 123.10035705566406 211.65658569335938 123.95258331298828 C 223.2419891357422 141.99349975585938 234.5052490234375 121.02832794189453 267.179931640625 134.11599731445312 C 293.3570251464844 113.84734344482422 315.6628112792969 136.69606018066406 297.3716125488281 171.2158660888672 C 330.0929870605469 199.46597290039062 329.5748291015625 173.3856201171875 355.9425048828125 143.11566162109375 C 339.96429443359375 141.6866912841797 331.2086486816406 167.54672241210938 338.4544982910156 194.68862915039062" stroke-width="6.0" fill="none" stroke="rgb(0, 0, 0)" stroke-opacity="1.0" stroke-linecap="round" stroke-linejoin="round"/>
    <path d="M 33.881141662597656 243.73992919921875 C 16.864614486694336 266.1566162109375 31.62404441833496 285.0141296386719 51.167518615722656 271.17767333984375 C 70.10608673095703 278.0962219238281 65.67705535888672 257.5367736816406 91.20183563232422 236.8838348388672 C 121.82838439941406 225.8787841796875 145.6980743408203 201.78756713867188 154.96560668945312 222.12918090820312 C 140.8717041015625 219.60824584960938 148.4559783935547 234.24412536621094 111.4245834350586 210.5795135498047 C 97.53759765625 189.70494079589844 104.64561462402344 181.46661376953125 114.73579406738281 168.3516082763672" stroke-width="6.0" fill="none" stroke="rgb(0, 0, 0)" stroke-opacity="1.0" stroke-linecap="round" stroke-linejoin="round"/>
    <path d="M 72.9832534790039 446.3002624511719 C 77.20177459716797 417.3509216308594 108.23945617675781 437.81768798828125 94.45657348632812 432.97564697265625 C 122.00050354003906 425.75421142578125 143.47666931152344 399.8080139160156 139.6599884033203 405.46673583984375 C 163.6865997314453 416.5735778808594 173.1873779296875 434.71575927734375 158.70301818847656 407.081298828125 C 201.7685546875 415.5218505859375 199.11700439453125 413.8091125488281 227.87063598632812 416.225830078125 C 249.04159545898438 435.6695861816406 241.50823974609375 441.7055969238281 263.9860534667969 436.396484375" stroke-width="6.0" fill="none" stroke="rgb(0, 0, 0)" stroke-opacity="1.0" stroke-linecap="round" stroke-linejoin="round"/>
    <path d="M 436.79302978515625 167.93511962890625 C 423.1611633300781 166.9476318359375 415.95428466796875 186.75970458984375 442.7987060546875 160.67324829101562 C 419.3949890136719 178.94566345214844 401.3534851074219 175.6869354248047 407.3099060058594 186.47012329101562 C 387.0349426269531 202.16537475585938 399.8017578125 207.36865234375 420.88128662109375 205.6082000732422 C 425.3847961425781 233.1150665283203 413.5331115722656 236.92538452148438 418.2115478515625 245.3877410888672 C 452.67718505859375 256.5291442871094 430.8573303222656 278.452392578125 418.41473388671875 282.41021728515625" stroke-width="6.0" fill="none" stroke="rgb(0, 0, 0)" stroke-opacity="1.0" stroke-linecap="round" stroke-linejoin="round"/>
    <path d="M 545.7600708007812 258.5040283203125 C 527.4542236328125 260.8826599121094 519.763427734375 289.8055725097656 545.291259765625 298.8794250488281 C 551.5023193359375 314.6786193847656 567.5851440429688 323.9222412109375 578.6444091796875 331.0333557128906 C 553.1644287109375 335.76715087890625 522.2698364257812 359.3853454589844 500.9931945800781 383.5533447265625 C 520.5272216796875 404.3292541503906 541.3595581054688 388.1206359863281 559.3219604492188 376.227294921875 C 589.3193969726562 367.523193359375 583.8719482421875 339.4311828613281 581.8209228515625 362.00347900390625" stroke-width="6.0" fill="none" stroke="rgb(0, 0, 0)" stroke-opacity="1.0" stroke-linecap="round" stroke-linejoin="round"/>
    <path d="M 158.2124481201172 476.6971740722656 C 146.11402893066406 484.6313171386719 146.82431030273438 473.8319396972656 140.65142822265625 468.6090393066406 C 157.343994140625 491.7728271484375 177.1119384765625 485.3273620605469 188.28738403320312 499.3608703613281 C 213.8594207763672 490.372314453125 229.4668731689453 461.72540283203125 240.525390625 462.8280029296875 C 225.3037109375 464.6733703613281 205.6116943359375 457.65582275390625 189.74923706054688 467.9903869628906 C 184.70555114746094 490.2652893066406 208.8128662109375 507.9757995605469 235.8627166748047 496.9579162597656" stroke-width="6.0" fill="none" stroke="rgb(0, 0, 0)" stroke-opacity="1.0" stroke-linecap="round" stroke-linejoin="round"/>
    <path d="M 68.58322143554688 347.0393981933594 C 94.24852752685547 358.6507873535156 97.99700927734375 373.804931640625 93.27922058105469 367.9952392578125 C 104.9547119140625 350.1220703125 85.88133239746094 359.79656982421875 102.91696166992188 347.94989013671875 C 90.50984954833984 361.6349792480469 92.21449279785156 356.0945129394531 117.17121887207031 334.9980773925781 C 147.7530517578125 353.7786865234375 166.14422607421875 340.2957763671875 169.61012268066406 312.3890075683594 C 206.4399871826172 309.6988830566406 178.01614379882812 314.08807373046875 188.22695922851562 304.349853515625" stroke-width="6.0" fill="none" stroke="rgb(0, 0, 0)" stroke-opacity="1.0" stroke-linecap="round" stroke-linejoin="round"/>
    <path d="M 291.84832763671875 498.0376892089844 C 327.3302001953125 484.13739013671875 310.22528076171875 493.0528564453125 289.8099060058594 465.8571472167969 C 274.3922119140625 432.44061279296875 277.66998291015625 450.79437255859375 275.7858581542969 456.0335998535156 C 276.17425537109375 457.2020568847656 297.711181640625 464.2640686035156 308.81317138671875 482.47674560546875 C 335.1355285644531 499.4168701171875 349.8304443359375 526.0324096679688 378.01861572265625 515.1694946289062 C 367.5470886230469 531.8776245117188 395.7509765625 521.1415405273438 384.9134521484375 551.3697509765625" stroke-width="6.0" fill="none" stroke="rgb(0, 0, 0)" stroke-opacity="1.0" stroke-linecap="round" stroke-linejoin="round"/>
    <path d="M 75.77859497070312 510.47332763671875 C 105.04826354980469 493.5539855957031 106.44193267822266 474.15771484375 137.11288452148438 498.81243896484375 C 140.60623168945312 493.86907958984375 127.82379913330078 511.87579345703125 137.2416534423828 521.8970947265625 C 151.8875732421875 531.6137084960938 156.07379150390625 558.9334106445312 147.45578002929688 559.3831787109375 C 129.88783264160156 576.1571655273438 133.89703369140625 580.3350219726562 153.6348419189453 556.0330810546875 C 163.73916625976562 546.7630004882812 138.4892120361328 534.36767578125 146.31585693359375 529.9132080078125" stroke-width="6.0" fill="none" stroke="rgb(0, 0, 0)" stroke-opacity="1.0" stroke-linecap="round" stroke-linejoin="round"/>
    <path d="M 409.34393310546875 47.38191604614258 C 417.4279479980469 47.6661491394043 445.8283996582031 58.67400360107422 464.5754089355469 55.637176513671875 C 475.00177001953125 82.92559814453125 504.6669921875 66.6851577758789 501.19140625 71.85476684570312 C 511.265380859375 59.80083084106445 519.3773803710938 78.8207778930664 541.1220703125 61.16651916503906 C 538.3778686523438 73.27574920654297 533.9071044921875 46.52440643310547 539.1243286132812 59.07709884643555 C 534.1630249023438 37.49686813354492 564.0897827148438 42.376129150390625 564.8673706054688 42.722328186035156" stroke-width="6.0" fill="none" stroke="rgb(0, 0, 0)" stroke-opacity="1.0" stroke-linecap="round" stroke-linejoin="round"/>
    <path d="M 439.3838806152344 150.80770874023438 C 448.319580078125 162.25840759277344 429.0420837402344 143.0917205810547 431.3397216796875 149.47225952148438 C 409.7383728027344 124.94080352783203 437.78472900390625 127.99837493896484 464.4993896484375 114.92351531982422 C 456.83892822265625 128.1251983642578 436.58013916015625 121.79102325439453 415.97967529296875 114.20631408691406 C 429.7713623046875 135.88539123535156 427.7282409667969 118.16029357910156 420.36175537109375 100.78034210205078 C 451.37603759765625 106.8069839477539 438.4042053222656 120.486328125 439.749267578125 95.22305297851562" stroke-width="6.0" fill="none" stroke="rgb(0, 0, 0)" stroke-opacity="1.0" stroke-linecap="round" stroke-linejoin="round"/>
    <path d="M 359.1221923828125 590.5579833984375 C 338.8408508300781 583.1941528320312 319.73199462890625 608.44970703125 314.9236145019531 577.9352416992188 C 307.98284912109375 551.2286376953125 337.1751708984375 554.545166015625 363.8952941894531 585.6303100585938 C 342.986572265625 595.6516723632812 321.093017578125 577.5267333984375 311.0549011230469 597.0044555664062 C 335.58990478515625 601.6611938476562 340.4878234863281 624.5665283203125 354.56256103515625 646.1466064453125 C 335.7038879394531 624.9984741210938 354.1612854003906 597.1854248046875 325.43560791015625 600.7515869140625" stroke-width="6.0" fill="none" stroke="rgb(0, 0, 0)" stroke-opacity="1.0" stroke-linecap="round" stroke-linejoin="round"/>
    <path d="M 583.0177612304688 568.0891723632812 C 594.7817993164062 555.9306640625 580.5383911132812 543.539306640625 561.4384155273438 544.0261840820312 C 587.9254760742188 544.2177734375 598.0164184570312 569.6907958984375 625.1520385742188 593.4735107421875 C 642.7023315429688 604.0223999023438 636.0330810546875 600.8984985351562 613.0159912109375 604.1661987304688 C 603.316650390625 596.1078491210938 587.6837158203125 615.1629638671875 568.984130859375 609.4200439453125 C 560.4833984375 634.4166870117188 585.7509155273438 653.0711059570312 610.3309326171875 665.5293579101562" stroke-width="6.0" fill="none" stroke="rgb(0, 0, 0)" stroke-opacity="1.0" stroke-linecap="round" stroke-linejoin="round"/>
  </g>
</svg>
