<?xml version="1.0" ?>
<svg xmlns="http://www.w3.org/2000/svg" version="1.1" width="600" height="600">
  <defs/>
  <g>
    <path d="M 377.0455322265625 0.05306423082947731 C 371.59051513671875 -5.169347763061523 383.1356201171875 6.154858589172363 405.466064453125 -18.73129653930664 C 403.19219970703125 -43.994773864746094 386.31048583984375 -43.67345428466797 357.90264892578125 -61.743194580078125 C 366.89569091796875 -59.04670333862305 350.12213134765625 -53.690765380859375 368.68798828125 -83.30083465576172 C 387.037109375 -71.4124755859375 377.4521484375 -92.08370208740234 404.8849182128906 -101.88803100585938 C 380.4496765136719 -126.08505249023438 401.2993469238281 -119.86148071289062 419.72705078125 -106.07758331298828" stroke-width="6.0" fill="none" stroke="rgb(0, 0, 0)" stroke-opacity="1.0" stroke-linecap="round" stroke-linejoin="round"/>
    <path d="M 319.9908447265625 581.7196044921875 C 310.7847900390625 586.3567504882812 333.5043029785156 594.193115234375 356.4354553222656 599.797119140625 C 367.5054626464844 569.3709106445312 353.4344482421875 556.3048095703125 322.8279113769531 547.9744262695312 C 302.380615234375 531.3698120117188 312.95355224609375 520.1260375976562 300.6380920410156 501.8332824707031 C 285.2003173828125 525.7319946289062 296.21319580078125 535.4573364257812 279.4730224609375 545.8623046875 C 264.932373046875 537.66748046875 292.2793884277344 547.1841430664062 292.6514892578125 559.7144775390625" stroke-width="6.0" fill="none" stroke="rgb(0, 0, 0)" stroke-opacity="1.0" stroke-linecap="round" stroke-linejoin="round"/>
    <path d="M 499.28131103515625 465.4385986328125 C 485.4685974121094 445.11907958984375 476.4082946777344 428.9626159667969 461.8399963378906 456.609130859375 C 491.8390197753906 447.3448486328125 495.86065673828125 433.84228515625 512.9793701171875 428.98291015625 C 502.5849914550781 421.5825500488281 511.54754638671875 400.3178405761719 514.3480834960938 424.0190124511719 C 504.2126770019531 407.1336364746094 530.9848022460938 407.09063720703125 507.58026123046875 383.058349609375 C 486.55096435546875 386.5761413574219 506.2605895996094 381.6940612792969 483.5590515136719 374.9167175292969" stroke-width="6.0" fill="none" stroke="rgb(0, 0, 0)" stroke-opacity="1.0" stroke-linecap="round" stroke-linejoin="round"/>
    <path d="M 601.1420288085938 317.0992736816406 C 624.5685424804688 340.4503479003906 594.702880859375 354.3709411621094 608.790283203125 354.9723205566406 C 596.8482666015625 364.3441162109375 576.4490356445312 363.2897644042969 567.05224609375 382.402587890625 C 583.3386840820312 366.30340576171875 586.8692016601562 350.0191650390625 612.9472045898438 371.799560546875 C 602.705810546875 383.4400634765625 609.2439575195312 362.6103820800781 625.8775024414062 365.864013671875 C 642.4425048828125 367.51190185546875 613.7538452148438 357.7979736328125 590.1382446289062 384.8730773925781" stroke-width="6.0" fill="none" stroke="rgb(0, 0, 0)" stroke-opacity="1.0" stroke-linecap="round" stroke-linejoin="round"/>
    <path d="M 522.986572265625 486.97845458984375 C 519.458740234375 466.1470947265625 531.49462890625 494.0543212890625 503.90020751953125 493.94757080078125 C 481.8482666015625 506.9949951171875 504.5808410644531 493.02825927734375 502.82366943359375 495.417236328125 C 485.4093017578125 516.3785400390625 480.0652770996094 499.6990661621094 484.47088623046875 515.8748779296875 C 468.10882568359375 504.1924743652344 496.781005859375 512.9779052734375 492.4310607910156 514.6829833984375 C 467.0645751953125 500.21807861328125 458.4850158691406 504.8343505859375 448.726806640625 478.4150695800781" stroke-width="6.0" fill="none" stroke="rgb(0, 0, 0)" stroke-opacity="1.0" stroke-linecap="round" stroke-linejoin="round"/>
    <path d="M 40.517845153808594 377.5422058105469 C 25.351991653442383 402.5263977050781 44.786460876464844 377.3201904296875 35.58302688598633 386.55718994140625 C 19.148157119750977 367.5368957519531 47.49845504760742 368.2649230957031 39.60329055786133 379.849853515625 C 57.03861618041992 361.1926574707031 36.406742095947266 361.9970703125 37.632469177246094 358.3216247558594 C 48.5318603515625 374.124267578125 76.06462860107422 352.0690612792969 70.83831024169922 342.30975341796875 C 90.87731170654297 328.7129821777344 68.7247543334961 326.7835388183594 64.92245483398438 308.0165100097656" stroke-width="6.0" fill="none" stroke="rgb(0, 0, 0)" stroke-opacity="1.0" stroke-linecap="round" stroke-linejoin="round"/>
    <path d="M 152.9956817626953 549.728759765625 C 151.51971435546875 574.4663696289062 153.5478057861328 547.3602294921875 181.0026092529297 566.4031372070312 C 208.55218505859375 597.041748046875 234.16494750976562 578.2406616210938 226.70787048339844 563.8860473632812 C 227.057861328125 539.3524169921875 222.29446411132812 567.6708374023438 201.23822021484375 576.4922485351562 C 200.71717834472656 568.861572265625 225.3179168701172 601.1592407226562 226.11993408203125 616.9970092773438 C 207.734619140625 602.9164428710938 235.85719299316406 607.667236328125 238.38888549804688 622.5457763671875" stroke-width="6.0" fill="none" stroke="rgb(0, 0, 0)" stroke-opacity="1.0" stroke-linecap="round" stroke-linejoin="round"/>
    <path d="M 36.91501235961914 358.37176513671875 C 37.876625061035156 372.8410949707031 14.48495864868164 401.1058044433594 -11.887112617492676 382.89422607421875 C -5.400873184204102 391.1550598144531 -21.290437698364258 368.3465270996094 -2.8051462173461914 354.63909912109375 C 1.6529408693313599 366.3153076171875 -1.2818562984466553 370.0125732421875 -0.2960215210914612 392.5307312011719 C -12.224699020385742 405.7037048339844 -27.355304718017578 399.958251953125 -16.927642822265625 388.0769958496094 C -30.00522232055664 401.0408020019531 -55.65263748168945 398.5379638671875 -25.74536895751953 428.3037109375" stroke-width="6.0" fill="none" stroke="rgb(0, 0, 0)" stroke-opacity="1.0" stroke-linecap="round" stroke-linejoin="round"/>
    <path d="M 45.2757682800293 132.3029022216797 C 37.517303466796875 143.91146850585938 60.38563537597656 167.82676696777344 45.374237060546875 155.77593994140625 C 60.33670425415039 176.5771484375 68.34085083007812 207.1642608642578 82.11542510986328 175.62478637695312 C 92.42890930175781 161.0858154296875 102.23640441894531 188.96340942382812 80.4930648803711 157.3194122314453 C 63.16782760620117 159.54071044921875 51.96489334106445 166.7413330078125 63.72224807739258 149.12916564941406 C 69.43910217285156 139.84263610839844 69.18840026855469 166.4315643310547 91.08501434326172 145.1501922607422" stroke-width="6.0" fill="none" stroke="rgb(0, 0, 0)" stroke-opacity="1.0" stroke-linecap="round" stroke-linejoin="round"/>
    <path d="M 257.30035400390625 168.06935119628906 C 226.42141723632812 184.4658966064453 235.48440551757812 169.00762939453125 248.22174072265625 168.21511840820312 C 244.79620361328125 140.86578369140625 218.7801513671875 164.905029296875 243.02621459960938 168.37315368652344 C 261.4367980957031 173.40939331054688 238.8005828857422 148.55819702148438 231.52041625976562 169.3445281982422 C 245.3696746826172 194.01397705078125 269.7894287109375 177.44525146484375 253.54086303710938 155.80194091796875 C 274.5968017578125 174.7382354736328 267.00067138671875 183.1045684814453 244.13119506835938 211.04710388183594" stroke-width="6.0" fill="none" stroke="rgb(0, 0, 0)" stroke-opacity="1.0" stroke-linecap="round" stroke-linejoin="round"/>
    <path d="M 522.5585327148438 585.0595092773438 C 540.8875122070312 603.5348510742188 511.01361083984375 618.1080932617188 499.99920654296875 644.4977416992188 C 516.962158203125 670.4952392578125 535.6071166992188 656.5036010742188 552.8495483398438 632.9893188476562 C 575.1795654296875 654.5049438476562 558.525634765625 673.5001220703125 556.143798828125 661.8115844726562 C 573.864501953125 645.46728515625 545.284423828125 627.0551147460938 534.9801025390625 648.916259765625 C 562.9934692382812 635.663818359375 571.4823608398438 629.6444702148438 600.351318359375 631.8174438476562" stroke-width="6.0" fill="none" stroke="rgb(0, 0, 0)" stroke-opacity="1.0" stroke-linecap="round" stroke-linejoin="round"/>
    <path d="M 564.9365234375 70.3719482421875 C 587.0918579101562 46.09172058105469 612.1063842773438 33.17454147338867 592.5995483398438 31.462902069091797 C 604.61669921875 15.387666702270508 610.3905639648438 15.619882583618164 612.3068237304688 29.02952003479004 C 597.3885498046875 41.40943908691406 565.5986938476562 66.31165313720703 566.5936279296875 71.17890930175781 C 579.5023193359375 82.85702514648438 572.49365234375 59.15797805786133 582.19775390625 50.48120880126953 C 568.7916870117188 70.3228530883789 581.83447265625 58.650596618652344 577.6499633789062 58.58114242553711" stroke-width="6.0" fill="none" stroke="rgb(0, 0, 0)" stroke-opacity="1.0" stroke-linecap="round" stroke-linejoin="round"/>
    <path d="M 240.99618530273438 176.42127990722656 C 220.19381713867188 171.88235473632812 246.69850158691406 182.0853729248047 271.3200988769531 188.56146240234375 C 263.4772644042969 187.1070098876953 233.8951416015625 174.13955688476562 224.5552520751953 184.32139587402344 C 233.33843994140625 182.7122344970703 234.94482421875 170.6379852294922 229.9632568359375 185.28858947753906 C 247.5655517578125 172.79225158691406 220.62060546875 173.1758270263672 230.4730224609375 160.300048828125 C 249.1470489501953 175.09054565429688 258.32415771484375 161.35848999023438 238.54605102539062 133.64691162109375" stroke-width="6.0" fill="none" stroke="rgb(0, 0, 0)" stroke-opacity="1.0" stroke-linecap="round" stroke-linejoin="round"/>
    <path d="M 146.88719177246094 283.9483642578125 C 170.42080688476562 261.7331237792969 163.89634704589844 268.3003234863281 140.0326385498047 279.5780029296875 C 142.83860778808594 261.2317199707031 152.69146728515625 230.14791870117188 167.0476531982422 256.161376953125 C 150.89418029785156 256.3566589355469 125.01619720458984 286.460693359375 131.4316864013672 259.7943115234375 C 119.11381530761719 273.7287902832031 114.8597183227539 286.51861572265625 130.41455078125 306.39642333984375 C 128.4284210205078 337.3400573730469 152.5807647705078 346.9566650390625 154.24761962890625 348.3150634765625" stroke-width="6.0" fill="none" stroke="rgb(0, 0, 0)" stroke-opacity="1.0" stroke-linecap="round" stroke-linejoin="round"/>
    <path d="M 489.1581115722656 329.3489074707031 C 519.5760498046875 345.6429748535156 516.829833984375 330.9748840332031 505.39068603515625 341.24212646484375 C 520.8800048828125 338.97979736328125 529.12255859375 324.96099853515625 504.5511779785156 311.9356384277344 C 491.08856201171875 301.45574951171875 488.19805908203125 282.615234375 475.93194580078125 291.79864501953125 C 484.182861328125 265.62615966796875 476.3570861816406 273.2148132324219 475.4962158203125 250.48736572265625 C 473.1568298339844 273.5013732910156 478.9488830566406 286.031005859375 498.9954833984375 302.5895080566406" stroke-width="6.0" fill="none" stroke="rgb(0, 0, 0)" stroke-opacity="1.0" stroke-linecap="round" stroke-linejoin="round"/>
    <path d="M 227.30313110351562 1.5708885192871094 C 223.71884155273438 17.220619201660156 244.04551696777344 42.40409851074219 235.1689910888672 52.80642318725586 C 239.3542938232422 63.85287094116211 217.4090118408203 51.6461067199707 207.80361938476562 28.24678611755371 C 205.61825561523438 34.29426193237305 202.3201141357422 15.143271446228027 197.81829833984375 -7.373700141906738 C 207.6383056640625 -38.16828536987305 201.27952575683594 -34.30476760864258 172.90565490722656 -25.739789962768555 C 151.04762268066406 -28.03788185119629 124.06470489501953 -35.291648864746094 106.76432037353516 -45.680904388427734" stroke-width="6.0" fill="none" stroke="rgb(0, 0, 0)" stroke-opacity="1.0" stroke-linecap="round" stroke-linejoin="round"/>
    <path d="M 455.20916748046875 227.21200561523438 C 472.4368896484375 246.2108612060547 457.8354187011719 219.73289489746094 424.5710754394531 221.4793243408203 C 454.43170166015625 222.44979858398438 466.7000427246094 235.678466796875 475.27252197265625 250.92221069335938 C 504.2118225097656 234.03277587890625 471.63946533203125 211.57716369628906 455.7530517578125 219.3798370361328 C 458.88763427734375 201.50259399414062 467.706787109375 215.45973205566406 450.8899841308594 227.0906982421875 C 464.8005676269531 203.7700653076172 478.431396484375 232.8739471435547 456.8295593261719 201.9790496826172" stroke-width="6.0" fill="none" stroke="rgb(0, 0, 0)" stroke-opacity="1.0" stroke-linecap="round" stroke-linejoin="round"/>
    <path d="M 189.2106475830078 410.31915283203125 C 217.37686157226562 404.29107666015625 227.44557189941406 374.5989074707031 234.16868591308594 375.0782165527344 C 215.03176879882812 398.0857238769531 232.61788940429688 402.79302978515625 212.5448455810547 433.3212585449219 C 230.02337646484375 423.1551818847656 226.29783630371094 418.192138671875 220.37501525878906 416.8975524902344 C 248.66831970214844 431.09326171875 225.9502410888672 457.0292053222656 232.49513244628906 474.0393981933594 C 249.94215393066406 467.05828857421875 259.51739501953125 491.68670654296875 246.51242065429688 520.8201293945312" stroke-width="6.0" fill="none" stroke="rgb(0, 0, 0)" stroke-opacity="1.0" stroke-linecap="round" stroke-linejoin="round"/>
    <path d="M 321.9335021972656 290.50750732421875 C 316.76824951171875 302.1368713378906 305.95074462890625 326.1495666503906 321.5361022949219 294.5482177734375 C 348.1802062988281 278.5245056152344 351.5085144042969 288.7427673339844 345.61846923828125 264.9102478027344 C 364.58477783203125 247.6576690673828 345.0699462890625 264.7476501464844 334.80413818359375 284.1595764160156 C 336.5191345214844 261.62591552734375 306.21881103515625 288.9248046875 290.1059265136719 309.25103759765625 C 287.4366149902344 331.0329284667969 296.4159851074219 342.2399597167969 298.91424560546875 353.94927978515625" stroke-width="6.0" fill="none" stroke="rgb(0, 0, 0)" stroke-opacity="1.0" stroke-linecap="round" stroke-linejoin="round"/>
    <path d="M 54.21332550048828 129.85911560058594 C 67.66445922851562 122.43037414550781 75.20470428466797 121.99519348144531 79.95262908935547 120.6202621459961 C 95.6463851928711 106.9676742553711 108.13257598876953 92.34038543701172 85.13713073730469 73.04999542236328 C 63.22073745727539 49.944419860839844 66.16435241699219 63.112091064453125 47.52653121948242 46.22178268432617 C 56.56840133666992 57.29623031616211 79.53224182128906 64.19102478027344 63.77287292480469 37.76034927368164 C 45.793731689453125 20.24994468688965 25.308591842651367 -7.705563545227051 27.018020629882812 -20.706560134887695" stroke-width="6.0" fill="none" stroke="rgb(0, 0, 0)" stroke-opacity="1.0" stroke-linecap="round" stroke-linejoin="round"/>
    <path d="M 582.6163940429688 327.17608642578125 C 594.91552734375 308.695068359375 617.9383544921875 308.2811584472656 640.124267578125 312.3828125 C 639.0567016601562 309.9168395996094 620.1184692382812 282.99945068359375 646.5823364257812 281.6632080078125 C 665.9092407226562 275.7056579589844 640.3541259765625 283.4723815917969 613.5706787109375 262.42425537109375 C 617.341064453125 250.65438842773438 646.9761962890625 227.761474609375 662.8427734375 234.14053344726562 C 680.2872314453125 217.68174743652344 681.6416015625 214.71263122558594 678.204833984375 236.32261657714844" stroke-width="6.0" fill="none" stroke="rgb(0, 0, 0)" stroke-opacity="1.0" stroke-linecap="round" stroke-linejoin="round"/>
    <path d="M 600.6470947265625 181.1142120361328 C 602.4400024414062 188.68568420410156 617.1220703125 215.3487548828125 599.7703857421875 198.1439971923828 C 607.9706420898438 178.3861541748047 589.0701904296875 150.68162536621094 564.0769653320312 150.08816528320312 C 572.0379028320312 147.59793090820312 556.7623291015625 158.976318359375 563.0012817382812 150.5313720703125 C 568.8839111328125 175.1181640625 587.8837280273438 180.94659423828125 600.1892700195312 204.76158142089844 C 598.11181640625 205.65310668945312 606.4515380859375 231.58726501464844 624.8309326171875 206.90811157226562" stroke-width="6.0" fill="none" stroke="rgb(0, 0, 0)" stroke-opacity="1.0" stroke-linecap="round" stroke-linejoin="round"/>
    <path d="M 103.84169006347656 185.78114318847656 C 114.93364715576172 189.9554443359375 104.62458038330078 158.72702026367188 120.93119049072266 180.82559204101562 C 143.47007751464844 180.95040893554688 142.78628540039062 153.92771911621094 111.8986587524414 144.67396545410156 C 97.95526885986328 128.53330993652344 72.125732421875 157.1875762939453 88.70304107666016 173.06597900390625 C 116.98313903808594 201.9665069580078 130.67935180664062 186.11105346679688 106.8685302734375 195.2801513671875 C 104.04940795898438 203.96295166015625 127.48931884765625 187.18295288085938 138.5945281982422 201.81625366210938" stroke-width="6.0" fill="none" stroke="rgb(0, 0, 0)" stroke-opacity="1.0" stroke-linecap="round" stroke-linejoin="round"/>
    <path d="M 295.18096923828125 55.97930145263672 C 287.7423095703125 43.357608795166016 299.21734619140625 64.46637725830078 290.12890625 84.58903503417969 C 271.6031494140625 109.08386993408203 288.9215087890625 109.10236358642578 289.5729675292969 100.89713287353516 C 275.2956848144531 136.11981201171875 261.85235595703125 136.7179412841797 295.0277099609375 133.04052734375 C 310.0150451660156 124.61614990234375 291.3460693359375 118.62423706054688 307.74114990234375 131.05593872070312 C 325.9361877441406 109.29447174072266 322.60064697265625 130.09202575683594 309.35137939453125 139.2442169189453" stroke-width="6.0" fill="none" stroke="rgb(0, 0, 0)" stroke-opacity="1.0" stroke-linecap="round" stroke-linejoin="round"/>
    <path d="M 71.25070190429688 584.1886596679688 C 79.57471466064453 565.53271484375 61.21379089355469 568.1444702148438 65.33550262451172 540.656982421875 C 100.21805572509766 570.7449340820312 91.08480834960938 549.883056640625 108.91687774658203 549.4187622070312 C 125.58976745605469 548.4357299804688 111.45156860351562 571.6021118164062 137.9164581298828 555.603759765625 C 137.38134765625 548.464111328125 162.19151306152344 549.7534790039062 181.525390625 571.64306640625 C 170.07293701171875 582.7362060546875 163.10093688964844 606.56591796875 163.3475341796875 624.746337890625" stroke-width="6.0" fill="none" stroke="rgb(0, 0, 0)" stroke-opacity="1.0" stroke-linecap="round" stroke-linejoin="round"/>
    <path d="M 166.12689208984375 182.8143768310547 C 172.16067504882812 212.52426147460938 175.80923461914062 190.35462951660156 179.6376190185547 177.55979919433594 C 179.5088653564453 176.33909606933594 178.3238525390625 168.31680297851562 158.69422912597656 186.97802734375 C 157.99459838867188 161.95445251464844 176.50364685058594 136.67874145507812 194.1683349609375 151.97659301757812 C 211.84005737304688 144.6535186767578 221.45912170410156 165.2879638671875 248.3904266357422 166.5963592529297 C 221.66000366210938 167.95675659179688 227.88722229003906 190.1981964111328 245.78651428222656 184.41529846191406" stroke-width="6.0" fill="none" stroke="rgb(0, 0, 0)" stroke-opacity="1.0" stroke-linecap="round" stroke-linejoin="round"/>
    <path d="M 313.17431640625 280.8291320800781 C 328.9999694824219 269.08441162109375 335.4984436035156 245.42678833007812 338.6275329589844 271.0420837402344 C 328.56982421875 282.7723693847656 337.82415771484375 307.90966796875 355.7078857421875 330.5521240234375 C 347.05291748046875 316.7302551269531 362.0745544433594 333.550537109375 382.2890930175781 303.51458740234375 C 358.1678771972656 316.8950500488281 382.1357727050781 346.33148193359375 403.20709228515625 343.8006896972656 C 378.52484130859375 353.46075439453125 397.2570495605469 345.29718017578125 408.5074768066406 376.7976379394531" stroke-width="6.0" fill="none" stroke="rgb(0, 0, 0)" stroke-opacity="1.0" stroke-linecap="round" stroke-linejoin="round"/>
    <path d="M 26.40713119506836 480.8457336425781 C 14.647143363952637 467.7633972167969 -7.336493015289307 469.2186279296875 -3.807162046432495 488.2334899902344 C -21.914461135864258 464.3357849121094 0.33591410517692566 471.5184020996094 -15.214298248291016 496.2881774902344 C -36.627235412597656 493.9571533203125 -51.38859558105469 479.2767333984375 -80.82474517822266 497.55474853515625 C -56.7521858215332 508.21136474609375 -77.27364349365234 504.7151794433594 -86.53971099853516 509.969482421875 C -78.2033920288086 505.42803955078125 -93.19749450683594 526.146240234375 -111.24447631835938 519.2278442382812" stroke-width="6.0" fill="none" stroke="rgb(0, 0, 0)" stroke-opacity="1.0" stroke-linecap="round" stroke-linejoin="round"/>
    <path d="M 284.8658142089844 147.20062255859375 C 296.59283447265625 153.98980712890625 329.00006103515625 140.92381286621094 358.3691101074219 144.7799530029297 C 346.3234558105469 151.68443298339844 347.7942199707031 158.5006866455078 315.3353576660156 163.4293975830078 C 318.3219299316406 192.4610595703125 306.3834228515625 208.4635772705078 310.34515380859375 203.43020629882812 C 324.9933776855469 209.47242736816406 337.47882080078125 220.97341918945312 341.1442565917969 245.7248077392578 C 347.008544921875 275.7902526855469 359.07403564453125 263.1597900390625 364.02783203125 265.0541687011719" stroke-width="6.0" fill="none" stroke="rgb(0, 0, 0)" stroke-opacity="1.0" stroke-linecap="round" stroke-linejoin="round"/>
    <path d="M 439.87164306640625 47.93092727661133 C 425.4314270019531 64.81538391113281 408.9137878417969 48.909332275390625 409.80242919921875 75.57801055908203 C 414.4160461425781 94.9566650390625 430.74267578125 81.57703399658203 456.3087158203125 77.5821304321289 C 472.0632629394531 92.62632751464844 463.1900329589844 78.40594482421875 488.4106750488281 63.943843841552734 C 510.4190673828125 81.23897552490234 528.4310913085938 105.2889633178711 555.4677734375 120.98291015625 C 545.8563232421875 137.7412567138672 520.2183227539062 142.38336181640625 518.267578125 149.88209533691406" stroke-width="6.0" fill="none" stroke="rgb(0, 0, 0)" stroke-opacity="1.0" stroke-linecap="round" stroke-linejoin="round"/>
    <path d="M 400.6913757324219 351.35040283203125 C 425.2260437011719 379.401611328125 398.652587890625 361.6559143066406 368.51190185546875 380.7309875488281 C 378.185546875 408.14031982421875 362.323974609375 382.0726013183594 381.42584228515625 415.04449462890625 C 366.53436279296875 406.93914794921875 340.3934326171875 427.6162109375 330.8001403808594 427.7129211425781 C 311.6336364746094 454.65167236328125 294.1987609863281 458.28692626953125 304.0459289550781 466.47833251953125 C 331.2724304199219 465.545654296875 340.92822265625 447.1220397949219 332.60546875 418.7912902832031" stroke-width="6.0" fill="none" stroke="rgb(0, 0, 0)" stroke-opacity="1.0" stroke-linecap="round" stroke-linejoin="round"/>
    <path d="M 300.91070556640625 244.8890380859375 C 326.4273986816406 218.43980407714844 315.18548583984375 214.38775634765625 338.0911560058594 233.89622497558594 C 315.0190734863281 245.52383422851562 316.374267578125 273.2812805175781 313.84820556640625 264.24053955078125 C 293.4878234863281 248.9905242919922 316.08599853515625 244.7017364501953 318.3603820800781 248.90847778320312 C 324.3165283203125 216.6065673828125 340.9249267578125 193.48995971679688 323.92071533203125 209.6318817138672 C 297.5598449707031 228.01988220214844 277.1441955566406 209.38571166992188 306.2806091308594 195.32130432128906" stroke-width="6.0" fill="none" stroke="rgb(0, 0, 0)" stroke-opacity="1.0" stroke-linecap="round" stroke-linejoin="round"/>
    <path d="M 89.83894348144531 541.1396484375 C 59.9946403503418 561.4484252929688 38.56119155883789 538.7445678710938 25.198589324951172 521.4786987304688 C 28.463159561157227 495.95172119140625 -3.644706964492798 511.5083312988281 -20.57220458984375 500.9554138183594 C -32.291080474853516 471.60845947265625 -17.78799819946289 473.1736145019531 -6.769472599029541 467.6235046386719 C 8.834407806396484 467.65966796875 -15.342635154724121 468.5615234375 20.563610076904297 441.5387878417969 C 40.82029342651367 462.00018310546875 35.72138214111328 463.03045654296875 61.8934440612793 443.3806457519531" stroke-width="6.0" fill="none" stroke="rgb(0, 0, 0)" stroke-opacity="1.0" stroke-linecap="round" stroke-linejoin="round"/>
    <path d="M 283.4405517578125 233.45877075195312 C 294.1077575683594 234.64874267578125 320.78350830078125 210.0703125 297.33209228515625 222.27224731445312 C 273.03314208984375 211.14768981933594 277.35321044921875 211.8488311767578 263.4253234863281 235.93310546875 C 272.4942626953125 236.23934936523438 275.4999084472656 213.97830200195312 290.88153076171875 232.0492706298828 C 300.6356506347656 248.82679748535156 312.5484619140625 232.37120056152344 312.8372497558594 215.5060577392578 C 303.0998840332031 211.8132781982422 301.54473876953125 194.2326202392578 287.2532043457031 206.65846252441406" stroke-width="6.0" fill="none" stroke="rgb(0, 0, 0)" stroke-opacity="1.0" stroke-linecap="round" stroke-linejoin="round"/>
    <path d="M 226.3427734375 91.79290008544922 C 246.4702606201172 62.561424255371094 266.4969177246094 40.13199234008789 252.4013214111328 58.958534240722656 C 263.05450439453125 59.679664611816406 271.1219787597656 61.15034866333008 259.825927734375 45.76467514038086 C 249.5923614501953 53.28164291381836 263.05718994140625 75.13917541503906 280.8621826171875 97.37611389160156 C 289.4480285644531 95.10684204101562 292.0328674316406 77.08731079101562 294.4975891113281 52.831459045410156 C 271.77227783203125 73.7931900024414 265.38140869140625 91.74174499511719 262.5250549316406 115.52359771728516" stroke-width="6.0" fill="none" stroke="rgb(0, 0, 0)" stroke-opacity="1.0" stroke-linecap="round" stroke-linejoin="round"/>
    <path d="M 511.9624328613281 589.331298828125 C 528.5646362304688 593.5106811523438 540.3757934570312 562.8233642578125 558.6384887695312 579.9564208984375 C 543.786376953125 572.1808471679688 558.0372314453125 559.5138549804688 545.616943359375 526.5255126953125 C 573.8355712890625 525.1116333007812 571.6665649414062 508.6498107910156 580.2574462890625 482.85113525390625 C 589.150390625 460.6159362792969 583.4652099609375 452.74932861328125 575.6925048828125 458.9613037109375 C 593.2962036132812 464.5625 569.0970458984375 435.1257629394531 555.277099609375 444.6268310546875" stroke-width="6.0" fill="none" stroke="rgb(0, 0, 0)" stroke-opacity="1.0" stroke-linecap="round" stroke-linejoin="round"/>
    <path d="M 402.3154602050781 164.0493621826172 C 414.2926940917969 160.6193389892578 412.57550048828125 148.79443359375 424.4548034667969 122.67324829101562 C 420.3219909667969 111.6693344116211 428.9201965332031 110.02021789550781 432.16204833984375 82.8749771118164 C 432.56732177734375 96.22299194335938 405.8290710449219 81.05403137207031 387.6058654785156 60.2744255065918 C 375.8124084472656 51.326045989990234 348.82623291015625 64.19773864746094 328.8727722167969 52.8031005859375 C 338.01678466796875 53.953575134277344 356.30645751953125 70.76312255859375 323.28515625 98.90062713623047" stroke-width="6.0" fill="none" stroke="rgb(0, 0, 0)" stroke-opacity="1.0" stroke-linecap="round" stroke-linejoin="round"/>
    <path d="M 29.450929641723633 9.893353462219238 C 53.92167663574219 29.110166549682617 60.5973014831543 31.835926055908203 60.64033126831055 34.21742630004883 C 48.30009078979492 5.164193153381348 37.08565139770508 25.105798721313477 37.37360763549805 37.15258026123047 C 63.064945220947266 13.25066089630127 84.27487182617188 -3.132197380065918 90.86309814453125 -0.259074330329895 C 86.8160171508789 -9.51121997833252 77.30419921875 -19.001272201538086 57.27225875854492 -18.487546920776367 C 33.48448181152344 -17.159334182739258 57.839847564697266 -26.196821212768555 71.48258972167969 -7.059903144836426" stroke-width="6.0" fill="none" stroke="rgb(0, 0, 0)" stroke-opacity="1.0" stroke-linecap="round" stroke-linejoin="round"/>
    <path d="M 491.9437561035156 136.4590301513672 C 468.9598083496094 122.72208404541016 471.3683776855469 133.9136505126953 485.0668029785156 118.8698959350586 C 501.3840637207031 117.13825225830078 513.5945434570312 132.7763214111328 507.0911560058594 164.80690002441406 C 516.5834350585938 166.6173858642578 519.8088989257812 181.2990264892578 522.0505981445312 171.89480590820312 C 504.4555969238281 166.85365295410156 493.8233947753906 150.1595916748047 470.7092590332031 151.11795043945312 C 458.25445556640625 153.01873779296875 432.0332946777344 173.90823364257812 403.2856140136719 195.10792541503906" stroke-width="6.0" fill="none" stroke="rgb(0, 0, 0)" stroke-opacity="1.0" stroke-linecap="round" stroke-linejoin="round"/>
    <path d="M 517.3348388671875 367.90966796875 C 515.39306640625 364.3645324707031 519.0558471679688 380.3326721191406 535.47998046875 379.12841796875 C 551.8992919921875 396.427490234375 544.026123046875 393.3538513183594 524.7904052734375 358.265625 C 502.93878173828125 386.0989074707031 502.1105041503906 404.3642272949219 498.6050720214844 376.8677673339844 C 479.0706787109375 374.4641418457031 475.89947509765625 378.26849365234375 460.9867858886719 366.0010986328125 C 445.3526611328125 363.6739501953125 436.1729431152344 371.517333984375 453.8003845214844 379.71240234375" stroke-width="6.0" fill="none" stroke="rgb(0, 0, 0)" stroke-opacity="1.0" stroke-linecap="round" stroke-linejoin="round"/>
    <path d="M 37.43122482299805 52.54517364501953 C 49.73038101196289 47.17975616455078 63.92738342285156 53.5904426574707 85.84410858154297 80.03831481933594 C 86.44188690185547 80.2978286743164 62.782806396484375 71.0339126586914 83.83362579345703 81.73172760009766 C 73.58892822265625 79.71080017089844 94.75731658935547 73.27293395996094 97.18128967285156 88.75863647460938 C 120.21736907958984 100.75167083740234 136.79269409179688 119.08086395263672 147.31011962890625 125.72595977783203 C 162.98228454589844 113.06282043457031 151.99932861328125 105.50503540039062 133.80453491210938 95.42024993896484" stroke-width="6.0" fill="none" stroke="rgb(0, 0, 0)" stroke-opacity="1.0" stroke-linecap="round" stroke-linejoin="round"/>
    <path d="M 566.7528076171875 285.15350341796875 C 552.7948608398438 261.2536926269531 523.8599853515625 285.2177734375 505.14935302734375 308.0450744628906 C 526.5513916015625 327.85479736328125 497.3447570800781 318.62030029296875 513.2993774414062 298.3170166015625 C 506.46453857421875 278.6431884765625 525.818115234375 295.6287536621094 541.6873168945312 275.8387145996094 C 531.34716796875 262.63299560546875 542.0753173828125 246.27560424804688 547.5325927734375 244.48403930664062 C 561.7022705078125 238.10780334472656 561.5269165039062 220.962646484375 573.0244140625 224.7247772216797" stroke-width="6.0" fill="none" stroke="rgb(0, 0, 0)" stroke-opacity="1.0" stroke-linecap="round" stroke-linejoin="round"/>
    <path d="M 501.3778381347656 216.22811889648438 C 530.8574829101562 246.92987060546875 526.1032104492188 236.55465698242188 520.0072021484375 238.96603393554688 C 543.36572265625 259.9192810058594 557.0687866210938 234.90895080566406 547.8041381835938 242.465087890625 C 571.5218505859375 246.66885375976562 551.6481323242188 263.0030517578125 575.8466796875 258.5897216796875 C 586.7888793945312 243.76319885253906 611.232177734375 223.09613037109375 608.5363159179688 243.9347381591797 C 586.968017578125 245.2487335205078 574.665283203125 219.23422241210938 555.4119873046875 212.48223876953125" stroke-width="6.0" fill="none" stroke="rgb(0, 0, 0)" stroke-opacity="1.0" stroke-linecap="round" stroke-linejoin="round"/>
    <path d="M 139.01913452148438 600.6780395507812 C 138.0651092529297 569.4322509765625 164.52772521972656 586.215087890625 172.87234497070312 601.7220458984375 C 151.33877563476562 593.4703369140625 170.7781982421875 607.0682373046875 143.4368896484375 619.2020263671875 C 142.76666259765625 587.1865844726562 120.93315124511719 570.8299560546875 136.8988800048828 574.0199584960938 C 143.52684020996094 582.0921630859375 118.93692016601562 572.5382690429688 112.0955581665039 547.5239868164062 C 115.7248306274414 562.7900390625 115.31879425048828 540.5686645507812 129.48944091796875 539.1024780273438" stroke-width="6.0" fill="none" stroke="rgb(0, 0, 0)" stroke-opacity="1.0" stroke-linecap="round" stroke-linejoin="round"/>
    <path d="M 0.23703983426094055 307.7468566894531 C -2.4685184955596924 283.8416748046875 -4.278895378112793 288.5722961425781 -25.88174819946289 288.7173767089844 C -16.411348342895508 263.997314453125 13.012582778930664 239.0399932861328 17.28603744506836 234.40347290039062 C 40.70486068725586 244.1085205078125 32.35636520385742 245.99020385742188 49.2302360534668 261.8126525878906 C 26.413894653320312 233.30685424804688 42.59783935546875 227.027099609375 65.025146484375 234.36399841308594 C 71.89971160888672 255.59091186523438 62.310340881347656 230.0191192626953 69.0243148803711 246.08518981933594" stroke-width="6.0" fill="none" stroke="rgb(0, 0, 0)" stroke-opacity="1.0" stroke-linecap="round" stroke-linejoin="round"/>
    <path d="M 110.62715148925781 470.961181640625 C 105.44097900390625 476.35589599609375 106.02960205078125 494.86920166015625 82.99934387207031 515.66748046875 C 80.87140655517578 497.4443359375 57.048728942871094 478.8139343261719 26.97301483154297 511.8666687011719 C 28.200124740600586 540.2449951171875 32.984657287597656 527.3082885742188 51.257083892822266 511.2947692871094 C 39.583553314208984 518.3563232421875 57.8351936340332 513.5913696289062 36.73655700683594 505.5290222167969 C 57.316654205322266 518.6136474609375 80.61229705810547 510.6328430175781 102.66258239746094 513.38427734375" stroke-width="6.0" fill="none" stroke="rgb(0, 0, 0)" stroke-opacity="1.0" stroke-linecap="round" stroke-linejoin="round"/>
    <path d="M 297.14111328125 558.8095092773438 C 298.8781433105469 575.3812866210938 311.6071472167969 551.5497436523438 322.1219787597656 570.5090942382812 C 319.4328308105469 557.7660522460938 291.25848388671875 562.4750366210938 284.3464050292969 566.6507568359375 C 289.46563720703125 586.8965454101562 281.360107421875 558.752197265625 296.9937744140625 547.3652954101562 C 324.1982116699219 530.8316040039062 352.0472106933594 562.0139770507812 331.10614013671875 572.26220703125 C 320.3402404785156 587.02001953125 330.3634948730469 613.432861328125 308.2528991699219 619.4370727539062" stroke-width="6.0" fill="none" stroke="rgb(0, 0, 0)" stroke-opacity="1.0" stroke-linecap="round" stroke-linejoin="round"/>
    <path d="M 464.0838928222656 21.58771324157715 C 442.51690673828125 35.988712310791016 441.0347900390625 32.451175689697266 442.7674865722656 38.47891616821289 C 450.8743896484375 60.064735412597656 438.60394287109375 76.51399993896484 442.31829833984375 78.22168731689453 C 444.0873107910156 86.68999481201172 428.60101318359375 64.93434143066406 438.5304260253906 72.40413665771484 C 433.6274719238281 73.33251953125 419.86090087890625 58.97679901123047 413.4227294921875 86.65221405029297 C 399.14208984375 111.79053497314453 397.36297607421875 86.69341278076172 418.43682861328125 84.9272232055664" stroke-width="6.0" fill="none" stroke="rgb(0, 0, 0)" stroke-opacity="1.0" stroke-linecap="round" stroke-linejoin="round"/>
    <path d="M 537.2756958007812 265.5347595214844 C 516.2349853515625 271.4408264160156 532.5076293945312 263.803955078125 527.9110107421875 243.72406005859375 C 525.383544921875 269.70587158203125 544.6065673828125 280.9411926269531 575.5225219726562 282.44500732421875 C 585.9480590820312 293.1733703613281 564.5626220703125 274.72149658203125 536.66845703125 277.1978454589844 C 516.1856689453125 282.6698913574219 512.0051879882812 301.2366943359375 517.6686401367188 311.7005310058594 C 491.7682800292969 300.8430480957031 521.857177734375 314.0070495605469 522.2941284179688 331.3836364746094" stroke-width="6.0" fill="none" stroke="rgb(0, 0, 0)" stroke-opacity="1.0" stroke-linecap="round" stroke-linejoin="round"/>
    <path d="M 494.9112854003906 44.75950241088867 C 524.9954833984375 54.71259689331055 521.419189453125 60.12760543823242 514.5576171875 83.82028198242188 C 530.8445434570312 89.70209503173828 507.77545166015625 120.59581756591797 504.5615234375 144.5430908203125 C 474.19403076171875 126.71696472167969 455.3270263671875 105.06822204589844 442.01190185546875 118.37554168701172 C 431.5275573730469 144.69598388671875 457.58367919921875 162.67791748046875 447.8134460449219 165.7814178466797 C 455.24444580078125 145.48611450195312 438.6826171875 150.59600830078125 435.6398620605469 133.4841766357422" stroke-width="6.0" fill="none" stroke="rgb(0, 0, 0)" stroke-opacity="1.0" stroke-linecap="round" stroke-linejoin="round"/>
    <path d="M 561.5184936523438 102.14971923828125 C 578.16650390625 108.17240142822266 589.6929321289062 119.47140502929688 587.7791137695312 145.23939514160156 C 554.5504760742188 121.24613952636719 563.1852416992188 125.75135040283203 578.7660522460938 139.35928344726562 C 568.3085327148438 148.6431884765625 570.9378051757812 157.61009216308594 556.0347900390625 183.84219360351562 C 551.2496948242188 202.10400390625 562.693115234375 192.1592254638672 537.6989135742188 164.7024688720703 C 538.853271484375 162.1697998046875 522.622802734375 170.81826782226562 509.2262878417969 186.22396850585938" stroke-width="6.0" fill="none" stroke="rgb(0, 0, 0)" stroke-opacity="1.0" stroke-linecap="round" stroke-linejoin="round"/>
    <path d="M 447.9102783203125 517.6776733398438 C 470.9972839355469 496.05364990234375 462.6077575683594 501.3988037109375 455.6339416503906 491.4454345703125 C 443.05865478515625 474.3069152832031 421.4338073730469 464.49200439453125 409.0798034667969 477.84722900390625 C 386.23211669921875 501.0826110839844 364.78936767578125 493.6436462402344 369.40948486328125 480.87237548828125 C 384.0929870605469 472.05718994140625 386.8829345703125 469.93133544921875 385.0559387207031 450.93206787109375 C 410.73223876953125 450.0469665527344 438.9876403808594 434.32537841796875 432.07830810546875 404.14996337890625" stroke-width="6.0" fill="none" stroke="rgb(0, 0, 0)" stroke-opacity="1.0" stroke-linecap="round" stroke-linejoin="round"/>
    <path d="M 296.1056823730469 527.9352416992188 C 305.3764343261719 525.6417846679688 311.2574462890625 552.274169921875 308.2122802734375 571.3392333984375 C 317.8915710449219 586.1854858398438 309.2992858886719 580.7305297851562 309.216064453125 557.8275756835938 C 310.65692138671875 531.06396484375 311.9110412597656 549.3973388671875 304.40093994140625 580.9888305664062 C 309.9773254394531 555.3450927734375 343.4200439453125 554.9226684570312 364.1717529296875 543.1348876953125 C 391.05657958984375 555.5281372070312 374.074462890625 554.4542236328125 373.47503662109375 534.855224609375" stroke-width="6.0" fill="none" stroke="rgb(0, 0, 0)" stroke-opacity="1.0" stroke-linecap="round" stroke-linejoin="round"/>
    <path d="M 74.03841400146484 203.86138916015625 C 72.78401184082031 204.93296813964844 75.18608093261719 201.4761505126953 74.70101928710938 203.3684539794922 C 56.922298431396484 235.08114624023438 70.23152923583984 221.57041931152344 58.05317687988281 247.28103637695312 C 64.74384307861328 259.3491516113281 54.616756439208984 276.9444274902344 48.17268753051758 282.5993347167969 C 68.15814971923828 292.2042541503906 86.95460510253906 303.58087158203125 98.32886505126953 274.77215576171875 C 100.60832977294922 299.7490234375 119.90412139892578 315.35009765625 116.67300415039062 327.9698181152344" stroke-width="6.0" fill="none" stroke="rgb(0, 0, 0)" stroke-opacity="1.0" stroke-linecap="round" stroke-linejoin="round"/>
    <path d="M 348.821044921875 107.38216400146484 C 354.01922607421875 107.31268310546875 378.651123046875 87.46416473388672 389.30914306640625 58.412437438964844 C 414.3841552734375 38.729469299316406 385.3587341308594 30.986671447753906 363.4384765625 45.237892150878906 C 355.8617858886719 52.35532760620117 383.5426025390625 70.54702758789062 400.74560546875 44.28266525268555 C 384.30615234375 30.829914093017578 373.095458984375 45.61320877075195 371.8656921386719 35.35234451293945 C 350.9554443359375 57.63631820678711 338.71820068359375 51.534645080566406 354.5420227050781 58.730201721191406" stroke-width="6.0" fill="none" stroke="rgb(0, 0, 0)" stroke-opacity="1.0" stroke-linecap="round" stroke-linejoin="round"/>
    <path d="M 388.909423828125 412.6609802246094 C 396.3003234863281 401.39483642578125 380.9627990722656 404.5740661621094 358.61895751953125 433.0162658691406 C 348.1534729003906 423.3573303222656 335.2255554199219 430.0649719238281 324.8716125488281 416.5310363769531 C 347.7373962402344 442.39385986328125 335.0269775390625 421.90887451171875 348.0574951171875 412.48333740234375 C 372.6775207519531 425.6675109863281 404.3182067871094 438.9866943359375 384.51312255859375 428.0701599121094 C 396.0511779785156 419.5289001464844 394.8951721191406 404.77935791015625 399.4601745605469 384.4056091308594" stroke-width="6.0" fill="none" stroke="rgb(0, 0, 0)" stroke-opacity="1.0" stroke-linecap="round" stroke-linejoin="round"/>
    <path d="M 321.8530578613281 562.2418212890625 C 330.5004577636719 539.3200073242188 338.38433837890625 549.9673461914062 320.74188232421875 560.7725219726562 C 320.88116455078125 569.50390625 298.1898498535156 563.9647216796875 317.067138671875 536.6824340820312 C 328.32305908203125 507.53778076171875 329.96685791015625 532.7230834960938 327.2613830566406 552.8931274414062 C 349.53131103515625 550.4520874023438 330.51141357421875 578.118408203125 322.06243896484375 590.6544799804688 C 343.8122863769531 567.2498168945312 344.4576110839844 572.018798828125 369.0753173828125 594.544189453125" stroke-width="6.0" fill="none" stroke="rgb(0, 0, 0)" stroke-opacity="1.0" stroke-linecap="round" stroke-linejoin="round"/>
    <path d="M 545.5825805664062 104.33641815185547 C 563.9224243164062 90.77484130859375 590.3294677734375 121.47627258300781 588.251708984375 116.96761322021484 C 618.6271362304688 140.35882568359375 644.9450073242188 162.18692016601562 616.2477416992188 173.6309051513672 C 592.0263061523438 201.98414611816406 578.9000854492188 230.93377685546875 581.319091796875 229.7213134765625 C 608.92138671875 253.02333068847656 608.3860473632812 227.9588165283203 582.9793090820312 205.4534454345703 C 578.9401245117188 192.58071899414062 559.2158203125 212.66966247558594 565.5084228515625 218.76490783691406" stroke-width="6.0" fill="none" stroke="rgb(0, 0, 0)" stroke-opacity="1.0" stroke-linecap="round" stroke-linejoin="round"/>
    <path d="M 454.6239318847656 112.07769775390625 C 474.75341796875 128.78439331054688 489.51568603515625 128.86280822753906 468.6388244628906 137.848388671875 C 449.8406677246094 120.37216186523438 438.1243896484375 106.17076110839844 428.35186767578125 85.67156982421875 C 437.8848876953125 105.64176177978516 421.6226806640625 121.76278686523438 398.8719482421875 130.9315643310547 C 409.9461975097656 113.44690704345703 387.4253234863281 100.82515716552734 383.01190185546875 97.37443542480469 C 408.4632568359375 108.20545196533203 401.1273498535156 91.09407806396484 418.7818603515625 75.7464828491211" stroke-width="6.0" fill="none" stroke="rgb(0, 0, 0)" stroke-opacity="1.0" stroke-linecap="round" stroke-linejoin="round"/>
    <path d="M 371.43060302734375 129.0481414794922 C 348.9234924316406 108.7295913696289 362.0473937988281 118.20264434814453 355.8482360839844 119.6742172241211 C 358.1990051269531 123.79960632324219 370.59185791015625 109.78874969482422 354.7665100097656 126.43565368652344 C 370.00701904296875 91.65342712402344 363.1224060058594 101.35102844238281 341.25244140625 111.84965515136719 C 318.0452880859375 119.68376159667969 313.6131286621094 124.41576385498047 295.8877868652344 112.3202133178711 C 302.1954345703125 84.25819396972656 283.5455017089844 93.43111419677734 260.2020263671875 98.39324188232422" stroke-width="6.0" fill="none" stroke="rgb(0, 0, 0)" stroke-opacity="1.0" stroke-linecap="round" stroke-linejoin="round"/>
    <path d="M 486.41400146484375 271.6864318847656 C 487.0979919433594 269.92803955078125 461.9090881347656 265.8641662597656 483.3175964355469 281.1466064453125 C 472.2524719238281 303.03692626953125 484.200927734375 308.8328552246094 457.4112854003906 296.4200744628906 C 431.51153564453125 323.071044921875 454.0574951171875 293.3743591308594 476.94354248046875 265.0783386230469 C 479.83013916015625 283.7373352050781 499.6188049316406 309.8080139160156 510.2451171875 310.3439025878906 C 534.8736572265625 304.9291076660156 558.328369140625 326.99298095703125 553.9945678710938 336.824462890625" stroke-width="6.0" fill="none" stroke="rgb(0, 0, 0)" stroke-opacity="1.0" stroke-linecap="round" stroke-linejoin="round"/>
    <path d="M 390.3302307128906 322.9653625488281 C 401.5487976074219 313.28363037109375 389.1257629394531 318.723388671875 391.17919921875 331.74859619140625 C 372.0147705078125 300.33941650390625 341.7410583496094 289.61248779296875 352.2384033203125 290.5405578613281 C 354.2145690917969 309.95550537109375 340.4227294921875 301.0451354980469 330.79052734375 332.22271728515625 C 348.3506774902344 308.4591064453125 366.8289794921875 299.995361328125 376.15191650390625 321.2970886230469 C 346.43963623046875 304.587890625 321.7797546386719 277.192138671875 328.3132629394531 290.1476135253906" stroke-width="6.0" fill="none" stroke="rgb(0, 0, 0)" stroke-opacity="1.0" stroke-linecap="round" stroke-linejoin="round"/>
    <path d="M 24.358539581298828 445.2423400878906 C 12.616209030151367 424.0020751953125 -1.3847981691360474 443.5946350097656 -24.755292892456055 445.7203063964844 C -32.87968444824219 469.3897705078125 -18.988636016845703 458.5239562988281 -13.113574981689453 468.8758850097656 C -23.873666763305664 456.98175048828125 -45.278045654296875 466.5945129394531 -62.015480041503906 454.62457275390625 C -88.35801696777344 481.5357666015625 -65.57518768310547 506.2304382324219 -58.01559829711914 501.8624572753906 C -58.278350830078125 530.1998901367188 -31.783166885375977 540.4804077148438 -14.63489055633545 529.6044921875" stroke-width="6.0" fill="none" stroke="rgb(0, 0, 0)" stroke-opacity="1.0" stroke-linecap="round" stroke-linejoin="round"/>
    <path d="M 254.48570251464844 84.12040710449219 C 243.2243194580078 105.46391296386719 240.2154998779297 124.40077209472656 227.64051818847656 138.49676513671875 C 243.13987731933594 167.2626953125 247.56451416015625 197.0699005126953 257.5457763671875 173.0711212158203 C 239.24160766601562 149.06141662597656 249.36695861816406 175.89988708496094 272.56573486328125 154.25267028808594 C 283.7336120605469 124.9226303100586 265.6769714355469 146.9708709716797 274.4085693359375 167.65098571777344 C 256.92657470703125 188.18869018554688 269.6054992675781 191.35726928710938 260.7495422363281 202.7841033935547" stroke-width="6.0" fill="none" stroke="rgb(0, 0, 0)" stroke-opacity="1.0" stroke-linecap="round" stroke-linejoin="round"/>
    <path d="M 201.65841674804688 574.609619140625 C 167.8041229248047 593.1972045898438 197.09884643554688 578.132568359375 227.08164978027344 578.3446044921875 C 216.18446350097656 584.3782348632812 199.77223205566406 611.7996826171875 202.50050354003906 628.4693603515625 C 191.1884307861328 625.9371948242188 182.74400329589844 611.6309204101562 183.5129852294922 611.467529296875 C 159.4294891357422 640.3466186523438 157.59890747070312 660.7305297851562 182.458740234375 652.9727783203125 C 177.2945556640625 656.7243041992188 160.5709991455078 635.4796142578125 146.21743774414062 661.5651245117188" stroke-width="6.0" fill="none" stroke="rgb(0, 0, 0)" stroke-opacity="1.0" stroke-linecap="round" stroke-linejoin="round"/>
    <path d="M 348.0984191894531 247.52505493164062 C 329.4010925292969 241.03538513183594 321.7690124511719 261.9045715332031 322.0956726074219 268.6192321777344 C 335.98046875 249.0931854248047 353.6095275878906 279.5434875488281 354.47259521484375 281.4612121582031 C 338.42352294921875 300.92974853515625 316.8008117675781 312.94134521484375 317.0361633300781 337.0443115234375 C 317.31610107421875 350.11480712890625 292.5361633300781 322.5528564453125 317.41534423828125 345.58349609375 C 326.8202209472656 357.2222900390625 317.8304748535156 378.296630859375 298.08245849609375 389.1659851074219" stroke-width="6.0" fill="none" stroke="rgb(0, 0, 0)" stroke-opacity="1.0" stroke-linecap="round" stroke-linejoin="round"/>
    <path d="M 0.998265266418457 311.28875732421875 C -2.718794345855713 311.5154113769531 5.475986480712891 319.4507141113281 -0.8281517624855042 316.3245849609375 C -23.62113380432129 318.9577331542969 -52.040706634521484 321.6402587890625 -64.39440155029297 351.2127380371094 C -94.50474548339844 369.0741271972656 -84.06277465820312 387.4442443847656 -59.47637176513672 363.865234375 C -83.69754028320312 342.7990417480469 -102.18161010742188 344.38641357421875 -83.26875305175781 330.4259033203125 C -89.45496368408203 322.8089904785156 -95.09332275390625 326.7091064453125 -65.67933654785156 310.26055908203125" stroke-width="6.0" fill="none" stroke="rgb(0, 0, 0)" stroke-opacity="1.0" stroke-linecap="round" stroke-linejoin="round"/>
    <path d="M 411.5615539550781 514.060546875 C 418.4630126953125 532.4291381835938 431.85845947265625 505.7951354980469 425.1253967285156 509.8892822265625 C 405.981201171875 478.0565185546875 386.6288146972656 480.9376525878906 373.1351013183594 495.5511779785156 C 375.0274658203125 511.97125244140625 356.5804443359375 514.01611328125 327.08624267578125 502.8421325683594 C 352.4465637207031 523.1589965820312 350.3429870605469 497.4788513183594 319.3235778808594 524.8145751953125 C 342.03955078125 532.5752563476562 320.9127197265625 559.4755859375 312.41070556640625 583.961181640625" stroke-width="6.0" fill="none" stroke="rgb(0, 0, 0)" stroke-opacity="1.0" stroke-linecap="round" stroke-linejoin="round"/>
    <path d="M 356.81695556640625 454.8337097167969 C 371.74359130859375 437.8334655761719 350.0359191894531 422.8945007324219 322.6022644042969 445.927490234375 C 309.5857238769531 460.6018981933594 300.13909912109375 476.7530822753906 285.751953125 511.9766540527344 C 293.61016845703125 505.5373840332031 321.3201904296875 473.8119201660156 325.6827697753906 498.6612548828125 C 314.9075622558594 518.6488037109375 339.4374084472656 513.3857421875 357.9034118652344 488.2196960449219 C 343.9300231933594 518.0977172851562 341.3160705566406 507.14324951171875 367.9246520996094 501.5514831542969" stroke-width="6.0" fill="none" stroke="rgb(0, 0, 0)" stroke-opacity="1.0" stroke-linecap="round" stroke-linejoin="round"/>
    <path d="M 408.5538024902344 397.5382080078125 C 382.58984375 405.2480163574219 395.88201904296875 419.5449523925781 375.3830261230469 389.9338684082031 C 390.12738037109375 396.8143615722656 404.63006591796875 387.6724548339844 384.3142395019531 357.3742370605469 C 369.2384033203125 353.7861328125 350.90777587890625 336.28643798828125 331.1668701171875 330.7160339355469 C 342.0156555175781 317.0513610839844 315.4763488769531 310.33038330078125 293.3733215332031 322.88287353515625 C 279.241455078125 315.0478820800781 263.910400390625 309.5669860839844 244.30892944335938 334.517578125" stroke-width="6.0" fill="none" stroke="rgb(0, 0, 0)" stroke-opacity="1.0" stroke-linecap="round" stroke-linejoin="round"/>
    <path d="M 541.3560180664062 577.5921630859375 C 547.8657836914062 568.2193603515625 539.6231689453125 546.3695068359375 523.0834350585938 547.2164916992188 C 495.0785827636719 549.3745727539062 500.18701171875 540.7769165039062 469.15972900390625 519.8675537109375 C 442.18402099609375 537.3590087890625 453.0036315917969 523.281982421875 437.4132995605469 500.305908203125 C 462.57843017578125 488.8705139160156 470.85345458984375 507.529541015625 465.3955078125 496.2972717285156 C 484.7641296386719 517.8822021484375 502.0619812011719 501.7903747558594 494.3144226074219 521.78515625" stroke-width="6.0" fill="none" stroke="rgb(0, 0, 0)" stroke-opacity="1.0" stroke-linecap="round" stroke-linejoin="round"/>
    <path d="M 118.97743225097656 191.31265258789062 C 147.8358612060547 218.19622802734375 136.1823272705078 230.39605712890625 135.94725036621094 230.3427734375 C 121.12442779541016 225.516357421875 138.12982177734375 219.87794494628906 122.08060455322266 220.36227416992188 C 125.76937866210938 222.88433837890625 133.7711639404297 228.72972106933594 162.62905883789062 225.59051513671875 C 174.7142333984375 222.1713409423828 159.12564086914062 235.79531860351562 178.33729553222656 254.02069091796875 C 179.68243408203125 256.7151794433594 190.0056610107422 239.30780029296875 192.6595458984375 249.60498046875" stroke-width="6.0" fill="none" stroke="rgb(0, 0, 0)" stroke-opacity="1.0" stroke-linecap="round" stroke-linejoin="round"/>
    <path d="M 479.4919738769531 44.846378326416016 C 500.0165710449219 43.19023895263672 494.84515380859375 45.409996032714844 519.991943359375 56.64409255981445 C 521.8973388671875 68.6814193725586 514.4188842773438 94.46834564208984 519.7703857421875 111.34931945800781 C 496.6356201171875 122.23342895507812 502.7674865722656 108.9128189086914 513.8312377929688 87.7038803100586 C 535.71240234375 102.2558822631836 528.5452880859375 115.58354949951172 552.740966796875 100.07730865478516 C 533.2393188476562 92.22454071044922 537.17626953125 91.7524642944336 539.4544067382812 93.35830688476562" stroke-width="6.0" fill="none" stroke="rgb(0, 0, 0)" stroke-opacity="1.0" stroke-linecap="round" stroke-linejoin="round"/>
    <path d="M 260.9374694824219 228.99085998535156 C 283.1103820800781 234.39231872558594 284.7094421386719 228.5577850341797 260.9505920410156 212.4963836669922 C 256.19659423828125 240.01731872558594 230.60589599609375 265.98016357421875 207.6957244873047 253.95912170410156 C 202.74122619628906 230.45416259765625 206.06057739257812 231.22645568847656 197.6233673095703 248.98260498046875 C 192.260498046875 233.17123413085938 209.75465393066406 203.19281005859375 232.67213439941406 214.59674072265625 C 241.55772399902344 199.066650390625 270.8602600097656 185.071533203125 248.04031372070312 160.3932342529297" stroke-width="6.0" fill="none" stroke="rgb(0, 0, 0)" stroke-opacity="1.0" stroke-linecap="round" stroke-linejoin="round"/>
    <path d="M 336.52294921875 574.2987060546875 C 318.7740173339844 566.6832885742188 298.88134765625 577.7685546875 293.82623291015625 545.340087890625 C 297.8868713378906 526.0010986328125 306.1407165527344 523.7776489257812 324.73870849609375 508.2861022949219 C 340.2062072753906 519.7991943359375 310.2994384765625 494.7767333984375 328.9449768066406 477.46148681640625 C 321.19256591796875 480.4538269042969 302.8819580078125 499.35052490234375 306.0321044921875 511.8465270996094 C 313.869873046875 521.5531616210938 317.0238037109375 506.1790771484375 336.71185302734375 510.5523376464844" stroke-width="6.0" fill="none" stroke="rgb(0, 0, 0)" stroke-opacity="1.0" stroke-linecap="round" stroke-linejoin="round"/>
    <path d="M 480.7259521484375 420.4330139160156 C 472.5718078613281 433.52587890625 447.52398681640625 412.4078674316406 425.1130065917969 394.5135498046875 C 406.33795166015625 410.3735046386719 410.7987365722656 406.8486328125 391.7826232910156 392.1639404296875 C 368.40716552734375 405.45849609375 379.8547058105469 414.7970275878906 413.8493957519531 418.248046875 C 409.9186706542969 395.3454284667969 397.2322082519531 394.80743408203125 371.8721618652344 386.47625732421875 C 345.83074951171875 357.7062683105469 364.4154968261719 386.8340759277344 360.6777038574219 387.2461242675781" stroke-width="6.0" fill="none" stroke="rgb(0, 0, 0)" stroke-opacity="1.0" stroke-linecap="round" stroke-linejoin="round"/>
    <path d="M 408.7516174316406 252.85206604003906 C 430.5032043457031 246.60452270507812 403.05609130859375 219.75433349609375 418.2462158203125 210.16769409179688 C 405.4173583984375 206.84634399414062 385.9700927734375 205.77853393554688 400.5255432128906 225.8238983154297 C 397.5967712402344 206.5814666748047 380.9786071777344 222.30291748046875 399.5708312988281 208.49742126464844 C 416.3158264160156 175.8533477783203 425.8365173339844 175.64932250976562 458.9664306640625 155.5214080810547 C 488.7254943847656 174.55950927734375 477.0036315917969 207.8338623046875 471.31689453125 202.81394958496094" stroke-width="6.0" fill="none" stroke="rgb(0, 0, 0)" stroke-opacity="1.0" stroke-linecap="round" stroke-linejoin="round"/>
    <path d="M 485.25634765625 269.0174255371094 C 517.4341430664062 285.7993469238281 506.35711669921875 301.8275451660156 516.5111083984375 286.6713562011719 C 526.30224609375 293.57177734375 504.8232421875 273.71075439453125 477.6663818359375 264.3920593261719 C 457.4115905761719 248.3854217529297 448.2417297363281 252.10276794433594 440.0246887207031 265.008544921875 C 421.13726806640625 249.69931030273438 443.08929443359375 279.40484619140625 451.9200744628906 252.18887329101562 C 484.3226318359375 269.045654296875 511.7578125 298.58099365234375 530.9288330078125 283.87469482421875" stroke-width="6.0" fill="none" stroke="rgb(0, 0, 0)" stroke-opacity="1.0" stroke-linecap="round" stroke-linejoin="round"/>
    <path d="M 522.5426025390625 146.69992065429688 C 535.8181762695312 165.9801025390625 549.96630859375 177.828125 550.3541870117188 176.65499877929688 C 538.7777099609375 176.81158447265625 535.5804443359375 190.7384033203125 551.8712158203125 162.64279174804688 C 554.0989379882812 149.5304412841797 581.5816040039062 143.6890411376953 603.7469482421875 129.75192260742188 C 576.1583251953125 141.2332763671875 592.0091552734375 160.2064666748047 591.4700317382812 169.58033752441406 C 587.7053833007812 138.89816284179688 587.8313598632812 124.23466491699219 579.4111938476562 109.82742309570312" stroke-width="6.0" fill="none" stroke="rgb(0, 0, 0)" stroke-opacity="1.0" stroke-linecap="round" stroke-linejoin="round"/>
    <path d="M 163.2309112548828 498.1512145996094 C 153.0789031982422 502.8335266113281 156.9425048828125 502.2055969238281 148.6628875732422 509.0834045410156 C 118.85521697998047 490.59991455078125 137.70364379882812 492.0498962402344 114.96278381347656 502.5945739746094 C 106.43286895751953 473.9844665527344 137.07676696777344 459.3971862792969 147.58575439453125 438.5751953125 C 153.1662139892578 413.15325927734375 182.21450805664062 401.76580810546875 186.60418701171875 386.6799011230469 C 185.8378143310547 410.8486633300781 162.77784729003906 401.2375793457031 153.93093872070312 420.00799560546875" stroke-width="6.0" fill="none" stroke="rgb(0, 0, 0)" stroke-opacity="1.0" stroke-linecap="round" stroke-linejoin="round"/>
    <path d="M 142.32481384277344 385.537353515625 C 156.23452758789062 358.2314453125 157.85946655273438 333.746826171875 138.6197967529297 350.0418701171875 C 108.50148010253906 364.4716796875 122.83361053466797 387.7585754394531 120.57330322265625 364.8709716796875 C 102.66854858398438 353.5852355957031 110.4867935180664 337.55712890625 91.92964172363281 357.61090087890625 C 72.89077758789062 376.1365051269531 90.24227905273438 357.49383544921875 116.8487319946289 335.6390380859375 C 112.62435150146484 297.86737060546875 122.00852966308594 298.45098876953125 141.37303161621094 308.56707763671875" stroke-width="6.0" fill="none" stroke="rgb(0, 0, 0)" stroke-opacity="1.0" stroke-linecap="round" stroke-linejoin="round"/>
    <path d="M 92.5806884765625 252.07139587402344 C 104.56535339355469 264.9469299316406 83.50961303710938 241.8180694580078 96.03675079345703 256.4599304199219 C 87.4689712524414 284.37255859375 75.59754180908203 259.5970764160156 61.743892669677734 231.26780700683594 C 64.22760009765625 237.53028869628906 70.63990783691406 254.05078125 85.84392547607422 270.6628723144531 C 93.40757751464844 265.29107666015625 90.53465270996094 262.7001647949219 102.83659362792969 248.69320678710938 C 80.08958435058594 272.3952331542969 106.86888885498047 268.82666015625 89.10391998291016 267.8084411621094" stroke-width="6.0" fill="none" stroke="rgb(0, 0, 0)" stroke-opacity="1.0" stroke-linecap="round" stroke-linejoin="round"/>
    <path d="M 354.8086242675781 319.64825439453125 C 383.06036376953125 348.5303955078125 413.0980529785156 327.5426025390625 432.5353088378906 332.0291442871094 C 426.65606689453125 336.9751281738281 443.41644287109375 367.0667419433594 461.8962097167969 336.9889831542969 C 436.53961181640625 316.99981689453125 407.01483154296875 291.4345397949219 424.1856994628906 294.5182189941406 C 429.4476318359375 296.11334228515625 421.685791015625 306.9888610839844 404.2099304199219 308.4169006347656 C 406.4883728027344 296.447998046875 389.7301025390625 294.84075927734375 373.8968505859375 314.5256652832031" stroke-width="6.0" fill="none" stroke="rgb(0, 0, 0)" stroke-opacity="1.0" stroke-linecap="round" stroke-linejoin="round"/>
    <path d="M 320.0163879394531 231.98866271972656 C 336.2654113769531 257.1670227050781 344.5738220214844 231.10874938964844 347.9627990722656 237.5226287841797 C 371.1671142578125 218.87745666503906 347.58441162109375 219.18814086914062 345.67352294921875 220.34925842285156 C 332.5655212402344 233.42063903808594 349.0617980957031 211.72898864746094 359.73968505859375 224.90032958984375 C 336.7547607421875 248.47865295410156 336.9749755859375 265.71234130859375 356.7803649902344 247.9409942626953 C 327.9945983886719 258.2101745605469 311.7880554199219 279.48748779296875 334.09735107421875 255.23580932617188" stroke-width="6.0" fill="none" stroke="rgb(0, 0, 0)" stroke-opacity="1.0" stroke-linecap="round" stroke-linejoin="round"/>
    <path d="M 484.6173400878906 170.50286865234375 C 463.1295471191406 176.7865753173828 465.4606018066406 148.9158477783203 457.1352844238281 147.5603790283203 C 456.3522644042969 148.90252685546875 449.48858642578125 132.7866668701172 432.244873046875 138.28822326660156 C 445.7399597167969 123.27808380126953 443.0057067871094 93.02253723144531 464.79046630859375 78.40209197998047 C 466.1698913574219 74.50118255615234 444.5953674316406 94.70115661621094 463.9225158691406 99.58467102050781 C 486.4859619140625 115.2081527709961 480.9275817871094 103.13754272460938 477.6891784667969 109.21310424804688" stroke-width="6.0" fill="none" stroke="rgb(0, 0, 0)" stroke-opacity="1.0" stroke-linecap="round" stroke-linejoin="round"/>
    <path d="M 165.08010864257812 47.279029846191406 C 162.71719360351562 48.70039749145508 181.65235900878906 26.298839569091797 195.84837341308594 50.95663833618164 C 220.77711486816406 26.994094848632812 216.31222534179688 16.023916244506836 240.054443359375 11.479589462280273 C 245.1740264892578 -25.946096420288086 228.8168182373047 -19.471778869628906 214.02867126464844 -14.709452629089355 C 210.012451171875 -10.72514533996582 210.115478515625 7.206690788269043 197.46029663085938 35.45441818237305 C 208.20852661132812 19.797311782836914 179.66773986816406 16.05290985107422 169.5536651611328 11.85309886932373" stroke-width="6.0" fill="none" stroke="rgb(0, 0, 0)" stroke-opacity="1.0" stroke-linecap="round" stroke-linejoin="round"/>
    <path d="M 509.037353515625 525.55810546875 C 532.21630859375 497.9947509765625 538.7595825195312 515.83984375 551.874267578125 491.0252380371094 C 557.1375732421875 479.72662353515625 556.8077392578125 453.9638671875 587.8351440429688 463.5951843261719 C 565.0953979492188 495.5718078613281 585.3368530273438 494.51275634765625 602.8925170898438 489.4496765136719 C 626.32373046875 459.58465576171875 601.0772094726562 436.54534912109375 620.9031982421875 411.6222839355469 C 623.9476928710938 406.67242431640625 651.8008422851562 390.87872314453125 637.460205078125 379.7792663574219" stroke-width="6.0" fill="none" stroke="rgb(0, 0, 0)" stroke-opacity="1.0" stroke-linecap="round" stroke-linejoin="round"/>
    <path d="M 476.4638671875 419.73577880859375 C 491.38031005859375 409.91265869140625 479.2434387207031 386.2400207519531 465.7572937011719 402.63525390625 C 464.2496643066406 383.92266845703125 444.51959228515625 379.77838134765625 440.1142578125 375.3541564941406 C 472.9380187988281 357.86004638671875 462.658203125 346.00347900390625 441.79486083984375 324.49945068359375 C 452.4750671386719 348.45263671875 460.9938659667969 322.3356628417969 481.4161376953125 309.9127197265625 C 457.46954345703125 292.58111572265625 448.0828552246094 292.6579284667969 458.4781494140625 278.17608642578125" stroke-width="6.0" fill="none" stroke="rgb(0, 0, 0)" stroke-opacity="1.0" stroke-linecap="round" stroke-linejoin="round"/>
    <path d="M 590.7200927734375 19.415321350097656 C 588.83837890625 14.813297271728516 603.9203491210938 -0.32275596261024475 605.5576171875 17.16947364807129 C 586.1331787109375 -4.996296405792236 602.7819213867188 21.242042541503906 571.8228149414062 34.394805908203125 C 570.7511596679688 47.247676849365234 587.4382934570312 55.85161590576172 565.0669555664062 74.92240142822266 C 526.3409423828125 51.44990539550781 554.6947021484375 47.513492584228516 534.7238159179688 60.030029296875 C 555.9539184570312 55.08774185180664 527.2491455078125 55.10237503051758 513.5822143554688 53.670989990234375" stroke-width="6.0" fill="none" stroke="rgb(0, 0, 0)" stroke-opacity="1.0" stroke-linecap="round" stroke-linejoin="round"/>
    <path d="M 488.5223388671875 241.356689453125 C 464.57257080078125 251.53932189941406 443.7269592285156 232.91493225097656 427.06982421875 215.5679473876953 C 451.1929931640625 188.34591674804688 464.6026916503906 177.89752197265625 449.0811767578125 172.89447021484375 C 449.55633544921875 143.7965087890625 430.3249816894531 119.17422485351562 415.10455322265625 143.05308532714844 C 416.3174133300781 152.3384552001953 436.738525390625 168.14244079589844 470.2300109863281 184.07833862304688 C 461.7027282714844 195.02378845214844 459.4903869628906 217.89588928222656 453.08270263671875 203.42283630371094" stroke-width="6.0" fill="none" stroke="rgb(0, 0, 0)" stroke-opacity="1.0" stroke-linecap="round" stroke-linejoin="round"/>
    <path d="M 108.42557525634766 189.4658203125 C 103.37718200683594 224.7229766845703 111.638916015625 190.50424194335938 134.5068817138672 189.81524658203125 C 155.58277893066406 217.85914611816406 186.19070434570312 198.0929412841797 198.17686462402344 183.2889862060547 C 215.6337890625 210.2194061279297 184.95819091796875 237.23703002929688 167.8428497314453 260.96075439453125 C 193.35537719726562 247.25460815429688 209.13470458984375 263.31903076171875 183.0465850830078 275.9178466796875 C 198.98101806640625 284.7524108886719 220.07962036132812 253.1781005859375 238.8370361328125 277.8530578613281" stroke-width="6.0" fill="none" stroke="rgb(0, 0, 0)" stroke-opacity="1.0" stroke-linecap="round" stroke-linejoin="round"/>
    <path d="M 334.6736145019531 336.384765625 C 319.9669494628906 362.5054931640625 344.9854431152344 365.494140625 325.19024658203125 368.9671936035156 C 301.9231872558594 347.681396484375 285.7848205566406 347.15771484375 260.6684875488281 375.25506591796875 C 241.98281860351562 353.83868408203125 257.0736999511719 380.4098205566406 276.7938537597656 371.3397521972656 C 246.14479064941406 374.74102783203125 270.6418151855469 392.17230224609375 288.9072265625 408.8861389160156 C 318.1689758300781 401.4141540527344 347.0814514160156 394.546142578125 332.7647399902344 388.00042724609375" stroke-width="6.0" fill="none" stroke="rgb(0, 0, 0)" stroke-opacity="1.0" stroke-linecap="round" stroke-linejoin="round"/>
    <path d="M 81.80635833740234 99.50911712646484 C 104.59619140625 118.38432312011719 136.4488067626953 124.97591400146484 120.48483276367188 148.30905151367188 C 132.05665588378906 169.62828063964844 144.3629608154297 154.1336212158203 156.86837768554688 144.81741333007812 C 144.55328369140625 157.32278442382812 120.2944107055664 164.78030395507812 147.67762756347656 189.1171875 C 132.6625213623047 227.65138244628906 168.4025421142578 197.22528076171875 179.85792541503906 214.51856994628906 C 198.72793579101562 197.92665100097656 204.72666931152344 227.8701934814453 185.25352478027344 247.24217224121094" stroke-width="6.0" fill="none" stroke="rgb(0, 0, 0)" stroke-opacity="1.0" stroke-linecap="round" stroke-linejoin="round"/>
    <path d="M 144.36907958984375 590.03955078125 C 126.41065216064453 616.1278076171875 101.59091186523438 628.4840087890625 111.50198364257812 645.81005859375 C 107.88310241699219 629.7052612304688 92.73756408691406 603.9194946289062 76.28626251220703 585.3385620117188 C 45.60390853881836 582.71875 57.169090270996094 609.7157592773438 79.20178985595703 606.86474609375 C 73.5380630493164 608.3953857421875 49.62377166748047 607.1647338867188 71.46681213378906 616.222900390625 C 82.69644165039062 595.9822998046875 57.11900329589844 616.72802734375 44.81352233886719 605.85107421875" stroke-width="6.0" fill="none" stroke="rgb(0, 0, 0)" stroke-opacity="1.0" stroke-linecap="round" stroke-linejoin="round"/>
    <path d="M 574.2396850585938 44.58588790893555 C 561.0519409179688 39.50602722167969 571.61083984375 43.77210235595703 592.2612915039062 19.971086502075195 C 594.7971801757812 22.578937530517578 595.5372314453125 -3.850545883178711 622.84375 -23.215974807739258 C 643.5479125976562 -46.53889846801758 619.6234130859375 -64.20586395263672 601.0224609375 -52.37406539916992 C 614.3447265625 -38.57562255859375 600.2606201171875 -51.684242248535156 584.5134887695312 -78.70611572265625 C 588.8197021484375 -58.314842224121094 568.0350952148438 -66.66510772705078 563.6914672851562 -78.99213409423828" stroke-width="6.0" fill="none" stroke="rgb(0, 0, 0)" stroke-opacity="1.0" stroke-linecap="round" stroke-linejoin="round"/>
    <path d="M 395.0266418457031 366.658935546875 C 379.3615417480469 329.49737548828125 360.1614074707031 315.2914733886719 337.0172119140625 335.5989990234375 C 325.7197265625 329.0516052246094 323.3522644042969 341.2220764160156 299.9657287597656 347.8451232910156 C 282.5841369628906 374.64544677734375 273.26385498046875 371.5327453613281 258.8229675292969 362.64544677734375 C 243.72891235351562 345.98931884765625 208.45970153808594 366.4863586425781 221.30332946777344 348.839111328125 C 214.65003967285156 343.5660400390625 243.0878448486328 348.479736328125 247.02430725097656 365.2612609863281" stroke-width="6.0" fill="none" stroke="rgb(0, 0, 0)" stroke-opacity="1.0" stroke-linecap="round" stroke-linejoin="round"/>
    <path d="M 495.5516357421875 257.7804260253906 C 495.1636047363281 266.2069396972656 493.84954833984375 289.3929443359375 494.85687255859375 266.88397216796875 C 515.4176635742188 283.2642517089844 511.4501037597656 309.9359436035156 532.634033203125 313.89031982421875 C 543.3936767578125 294.7506408691406 560.7045288085938 270.17523193359375 587.8987426757812 297.1588439941406 C 607.8779296875 276.9704284667969 602.5784912109375 305.9270324707031 599.6956176757812 342.3924560546875 C 605.3871459960938 358.5654296875 591.3344116210938 384.5168151855469 615.558349609375 359.5691833496094" stroke-width="6.0" fill="none" stroke="rgb(0, 0, 0)" stroke-opacity="1.0" stroke-linecap="round" stroke-linejoin="round"/>
    <path d="M 227.64923095703125 241.88206481933594 C 224.40614318847656 230.37367248535156 219.63095092773438 250.68484497070312 237.0830535888672 255.17327880859375 C 238.43307495117188 249.48106384277344 230.94374084472656 231.59097290039062 234.1834259033203 246.06675720214844 C 269.8193054199219 267.1302490234375 275.8738708496094 241.846923828125 261.13525390625 242.36207580566406 C 245.61769104003906 238.6175537109375 234.5011444091797 241.46653747558594 243.60250854492188 216.70526123046875 C 227.87686157226562 189.78280639648438 237.55921936035156 202.646728515625 214.6117706298828 232.63075256347656" stroke-width="6.0" fill="none" stroke="rgb(0, 0, 0)" stroke-opacity="1.0" stroke-linecap="round" stroke-linejoin="round"/>
    <path d="M 202.2904052734375 138.15316772460938 C 212.66172790527344 166.30169677734375 237.5448760986328 138.3433837890625 253.68482971191406 134.32789611816406 C 243.13316345214844 131.06561279296875 255.39456176757812 102.22261047363281 278.5147399902344 75.54943084716797 C 309.42315673828125 77.95616912841797 329.2702941894531 66.25142669677734 323.4173889160156 71.86228942871094 C 305.8514709472656 50.63822937011719 320.990234375 68.54301452636719 334.74951171875 88.76702880859375 C 356.7452697753906 87.51317596435547 338.7594909667969 77.27901458740234 339.0402526855469 54.5143928527832" stroke-width="6.0" fill="none" stroke="rgb(0, 0, 0)" stroke-opacity="1.0" stroke-linecap="round" stroke-linejoin="round"/>
    <path d="M 507.7743225097656 525.1585693359375 C 484.4308776855469 508.25274658203125 501.32061767578125 528.0169067382812 482.5298156738281 530.4741821289062 C 515.1072998046875 545.116455078125 499.4438781738281 554.951416015625 494.91644287109375 567.5181274414062 C 472.875 543.9810180664062 472.0958251953125 549.0339965820312 452.56201171875 570.771484375 C 451.0794372558594 557.4320068359375 430.2916259765625 579.60595703125 445.25494384765625 592.4329223632812 C 432.75616455078125 582.82470703125 413.748291015625 587.1939086914062 443.1952209472656 608.6797485351562" stroke-width="6.0" fill="none" stroke="rgb(0, 0, 0)" stroke-opacity="1.0" stroke-linecap="round" stroke-linejoin="round"/>
    <path d="M 383.9779052734375 407.7068786621094 C 369.4568176269531 404.2784423828125 343.13873291015625 424.3039245605469 366.76611328125 394.12591552734375 C 390.6073303222656 398.8739318847656 397.26422119140625 368.1504211425781 377.2391662597656 383.52569580078125 C 363.6680603027344 413.1454162597656 373.8638916015625 409.14105224609375 370.1092224121094 397.6909484863281 C 355.82025146484375 396.2893371582031 366.3394775390625 414.10430908203125 362.81402587890625 388.1631774902344 C 361.61846923828125 402.7874755859375 376.26092529296875 397.57342529296875 389.93145751953125 404.3096618652344" stroke-width="6.0" fill="none" stroke="rgb(0, 0, 0)" stroke-opacity="1.0" stroke-linecap="round" stroke-linejoin="round"/>
    <path d="M 176.82276916503906 69.69579315185547 C 149.27322387695312 93.76176452636719 158.27362060546875 116.26197814941406 147.2275848388672 123.66250610351562 C 168.34642028808594 110.12255859375 150.41819763183594 129.169189453125 172.5345916748047 154.48594665527344 C 193.1627960205078 155.6874542236328 196.47195434570312 172.6635284423828 208.4979705810547 180.05455017089844 C 241.2666778564453 160.0068817138672 237.0444793701172 154.9039764404297 204.21829223632812 165.73153686523438 C 206.5704345703125 144.3296356201172 220.70704650878906 131.3297119140625 231.79310607910156 149.236328125" stroke-width="6.0" fill="none" stroke="rgb(0, 0, 0)" stroke-opacity="1.0" stroke-linecap="round" stroke-linejoin="round"/>
    <path d="M 542.2897338867188 401.45562744140625 C 543.967529296875 420.4600524902344 568.3245849609375 440.7585754394531 550.3522338867188 417.1314697265625 C 530.4169921875 407.4390869140625 540.2723999023438 421.5267028808594 519.138671875 437.8452453613281 C 511.23858642578125 409.880126953125 504.5611877441406 424.3397216796875 496.5508117675781 448.19696044921875 C 482.9895935058594 428.7470397949219 469.3368225097656 448.30633544921875 465.8790283203125 466.76080322265625 C 468.6585388183594 489.7050476074219 445.65667724609375 516.6201171875 449.0354919433594 530.1473388671875" stroke-width="6.0" fill="none" stroke="rgb(0, 0, 0)" stroke-opacity="1.0" stroke-linecap="round" stroke-linejoin="round"/>
    <path d="M 226.0089569091797 176.51002502441406 C 203.42428588867188 196.9901580810547 181.5841064453125 177.28799438476562 173.38055419921875 181.4333953857422 C 192.08929443359375 187.8618621826172 183.1680145263672 194.6827392578125 210.71395874023438 192.15402221679688 C 215.20899963378906 178.468994140625 225.29104614257812 149.49021911621094 211.1105194091797 165.43548583984375 C 186.07318115234375 177.8106231689453 187.25149536132812 195.13482666015625 161.0423583984375 199.7584228515625 C 169.59156799316406 190.84486389160156 201.12640380859375 187.0074005126953 177.6253204345703 171.4116668701172" stroke-width="6.0" fill="none" stroke="rgb(0, 0, 0)" stroke-opacity="1.0" stroke-linecap="round" stroke-linejoin="round"/>
    <path d="M 226.17041015625 15.110461235046387 C 219.19772338867188 30.154685974121094 196.11724853515625 33.593788146972656 199.96453857421875 24.048555374145508 C 211.22166442871094 16.463224411010742 193.14085388183594 6.371154308319092 200.88772583007812 -15.823885917663574 C 216.32765197753906 -24.438371658325195 203.77732849121094 -10.76845645904541 212.59947204589844 -24.632627487182617 C 235.4394989013672 5.176739692687988 226.86964416503906 24.18377685546875 221.98068237304688 10.54947280883789 C 242.30052185058594 36.213863372802734 231.86505126953125 19.92749786376953 243.71945190429688 -4.504124641418457" stroke-width="6.0" fill="none" stroke="rgb(0, 0, 0)" stroke-opacity="1.0" stroke-linecap="round" stroke-linejoin="round"/>
    <path d="M 444.2281188964844 352.9920654296875 C 421.1228332519531 340.8236389160156 430.1022033691406 320.2179870605469 454.14691162109375 304.9497985839844 C 451.6437683105469 272.2499694824219 481.75433349609375 283.2783203125 494.363037109375 258.6479187011719 C 507.0218505859375 252.0360107421875 499.9976501464844 250.9623260498047 497.3414001464844 233.94119262695312 C 506.3768615722656 242.8294677734375 490.5205993652344 246.59278869628906 499.3848571777344 231.8591766357422 C 508.1653747558594 213.055908203125 531.6524658203125 192.59255981445312 547.232177734375 173.39962768554688" stroke-width="6.0" fill="none" stroke="rgb(0, 0, 0)" stroke-opacity="1.0" stroke-linecap="round" stroke-linejoin="round"/>
    <path d="M 68.58507537841797 61.602725982666016 C 51.888729095458984 43.498321533203125 43.77949905395508 49.77176284790039 21.297582626342773 60.160308837890625 C 5.686003684997559 36.630218505859375 7.747525215148926 16.188779830932617 36.37956619262695 10.075226783752441 C 3.331690549850464 15.467608451843262 25.322921752929688 33.17314147949219 32.912254333496094 13.473688125610352 C 12.60220718383789 17.19520378112793 27.699668884277344 -9.355690002441406 14.170662879943848 -27.242881774902344 C 39.906829833984375 -38.22835922241211 37.76347351074219 -62.23982238769531 18.245580673217773 -89.87315368652344" stroke-width="6.0" fill="none" stroke="rgb(0, 0, 0)" stroke-opacity="1.0" stroke-linecap="round" stroke-linejoin="round"/>
    <path d="M 177.98643493652344 483.1332702636719 C 166.0662841796875 497.79852294921875 137.76853942871094 509.6909484863281 110.28876495361328 529.1212158203125 C 124.53162384033203 516.922119140625 118.56029510498047 516.1151123046875 116.82780456542969 524.5687255859375 C 89.41547393798828 542.8475952148438 78.73875427246094 543.5337524414062 101.53897857666016 533.9916381835938 C 93.81250762939453 550.8890991210938 110.36482238769531 557.9727783203125 133.39791870117188 536.2725830078125 C 148.86524963378906 514.451416015625 175.04336547851562 493.37548828125 167.21217346191406 496.7320861816406" stroke-width="6.0" fill="none" stroke="rgb(0, 0, 0)" stroke-opacity="1.0" stroke-linecap="round" stroke-linejoin="round"/>
    <path d="M 481.6255187988281 406.1813659667969 C 462.4856872558594 398.8103332519531 454.2275390625 369.6559143066406 462.7315368652344 388.2530212402344 C 491.77978515625 367.2556457519531 520.524169921875 347.3208923339844 513.4776000976562 320.4818115234375 C 497.3564147949219 308.7562255859375 508.84527587890625 320.4405212402344 525.4421997070312 324.4106140136719 C 533.3391723632812 349.1012268066406 538.22802734375 343.4515380859375 536.0972290039062 353.3654479980469 C 522.2838745117188 365.6783142089844 510.68218994140625 354.28350830078125 516.3602294921875 345.83441162109375" stroke-width="6.0" fill="none" stroke="rgb(0, 0, 0)" stroke-opacity="1.0" stroke-linecap="round" stroke-linejoin="round"/>
    <path d="M 502.8608703613281 339.53179931640625 C 539.5567626953125 311.5407409667969 545.677490234375 282.513916015625 560.6801147460938 304.574951171875 C 582.0585327148438 281.68072509765625 586.5812377929688 271.1684265136719 618.2073974609375 246.1221923828125 C 599.2158203125 249.33067321777344 593.011474609375 234.6999053955078 581.83203125 248.22494506835938 C 578.2544555664062 268.82440185546875 577.6318969726562 249.63340759277344 575.3486328125 259.7696533203125 C 550.5519409179688 260.1612548828125 559.9815673828125 221.225341796875 538.5242309570312 224.19134521484375" stroke-width="6.0" fill="none" stroke="rgb(0, 0, 0)" stroke-opacity="1.0" stroke-linecap="round" stroke-linejoin="round"/>
    <path d="M 372.7073974609375 182.84080505371094 C 383.166015625 170.16049194335938 383.2367858886719 193.88134765625 369.5411376953125 173.0998077392578 C 356.2893371582031 159.77159118652344 364.0149230957031 168.54359436035156 361.89581298828125 177.67652893066406 C 373.9468994140625 158.8495635986328 392.7701721191406 145.49440002441406 376.7491455078125 156.92527770996094 C 403.77313232421875 142.69639587402344 408.73834228515625 155.3579559326172 380.04107666015625 137.83734130859375 C 358.05902099609375 148.35598754882812 370.9747009277344 126.68607330322266 384.13787841796875 107.55683135986328" stroke-width="6.0" fill="none" stroke="rgb(0, 0, 0)" stroke-opacity="1.0" stroke-linecap="round" stroke-linejoin="round"/>
    <path d="M 555.767822265625 235.8920440673828 C 549.8233032226562 252.88525390625 560.8457641601562 236.8221893310547 561.69775390625 258.8334655761719 C 584.2515258789062 259.8262023925781 601.1389770507812 256.3072509765625 614.5563354492188 283.8661193847656 C 595.8638305664062 284.2854919433594 598.18115234375 257.2348327636719 624.0526123046875 277.21429443359375 C 614.5065307617188 278.0899658203125 639.7763061523438 258.7221374511719 644.4895629882812 272.5517883300781 C 622.1924438476562 265.796142578125 628.2252197265625 288.75787353515625 628.4718017578125 281.837646484375" stroke-width="6.0" fill="none" stroke="rgb(0, 0, 0)" stroke-opacity="1.0" stroke-linecap="round" stroke-linejoin="round"/>
    <path d="M 593.081298828125 545.2108764648438 C 602.1441650390625 532.8233032226562 628.4734497070312 562.0862426757812 626.9000244140625 540.8016357421875 C 623.1940307617188 554.194580078125 638.099609375 542.1293334960938 650.1892700195312 563.7717895507812 C 662.9017333984375 589.9025268554688 670.8567504882812 571.9558715820312 678.3067626953125 559.390625 C 669.0244140625 569.7330322265625 697.904541015625 578.7382202148438 725.4041137695312 578.9718627929688 C 737.0628662109375 568.3147583007812 713.9871826171875 559.448974609375 712.809326171875 563.6873168945312" stroke-width="6.0" fill="none" stroke="rgb(0, 0, 0)" stroke-opacity="1.0" stroke-linecap="round" stroke-linejoin="round"/>
    <path d="M 401.93463134765625 253.62840270996094 C 416.543701171875 268.3892517089844 406.98388671875 287.81243896484375 427.59930419921875 285.21514892578125 C 391.7491760253906 273.2220458984375 404.51800537109375 257.97064208984375 414.6965637207031 237.2116241455078 C 398.3765869140625 222.78895568847656 421.6735534667969 233.82199096679688 413.3603515625 245.50967407226562 C 383.6800537109375 262.7712707519531 360.9992370605469 284.674560546875 376.8083801269531 306.506591796875 C 386.8659973144531 314.57366943359375 371.0055847167969 330.3465576171875 390.226318359375 320.2313537597656" stroke-width="6.0" fill="none" stroke="rgb(0, 0, 0)" stroke-opacity="1.0" stroke-linecap="round" stroke-linejoin="round"/>
    <path d="M 399.8782958984375 550.4072265625 C 395.43267822265625 577.9569702148438 419.1477966308594 568.0127563476562 423.40924072265625 550.5975952148438 C 408.2919921875 560.0480346679688 419.7913513183594 579.5153198242188 444.8152160644531 596.09423828125 C 456.8802185058594 606.2800903320312 474.40972900390625 607.0935668945312 481.5072326660156 622.8919067382812 C 507.0060729980469 612.83447265625 487.651611328125 623.7940063476562 464.5743713378906 610.3522338867188 C 463.8214111328125 601.5401000976562 460.5195007324219 602.6865234375 439.2423400878906 605.6105346679688" stroke-width="6.0" fill="none" stroke="rgb(0, 0, 0)" stroke-opacity="1.0" stroke-linecap="round" stroke-linejoin="round"/>
    <path d="M 152.85275268554688 200.05178833007812 C 163.60231018066406 179.6707000732422 143.23052978515625 167.74365234375 116.06035614013672 193.3870391845703 C 122.41653442382812 205.14356994628906 126.95109558105469 214.81724548339844 118.87747955322266 227.72109985351562 C 109.17507934570312 203.13327026367188 93.8233642578125 173.6513214111328 85.64856719970703 167.02755737304688 C 86.0230941772461 148.35218811035156 76.06681060791016 127.99061584472656 62.4730224609375 123.70441436767578 C 37.094635009765625 136.63287353515625 45.020713806152344 163.97105407714844 69.85295867919922 192.21066284179688" stroke-width="6.0" fill="none" stroke="rgb(0, 0, 0)" stroke-opacity="1.0" stroke-linecap="round" stroke-linejoin="round"/>
    <path d="M -1.7505449056625366 405.4325256347656 C -3.7840490341186523 428.6824035644531 5.030482769012451 434.206787109375 31.711061477661133 444.81494140625 C 24.651256561279297 463.7275390625 47.65744400024414 456.7815856933594 51.896724700927734 445.32415771484375 C 76.2177734375 469.8667907714844 68.35543823242188 488.3818054199219 70.40271759033203 462.57867431640625 C 98.0044937133789 436.8266296386719 96.78621673583984 461.9149475097656 72.91009521484375 481.529541015625 C 77.24147033691406 465.468505859375 46.773658752441406 478.2502746582031 60.371910095214844 493.9688720703125" stroke-width="6.0" fill="none" stroke="rgb(0, 0, 0)" stroke-opacity="1.0" stroke-linecap="round" stroke-linejoin="round"/>
    <path d="M 258.1681823730469 60.6220588684082 C 258.043701171875 74.74500274658203 283.3617248535156 93.3021011352539 288.1138000488281 116.9229965209961 C 310.2421569824219 91.50758361816406 310.4411926269531 83.3220443725586 285.670654296875 59.31023025512695 C 292.93548583984375 54.464481353759766 303.2087707519531 37.17752456665039 293.9608459472656 35.270355224609375 C 297.2614440917969 35.99261474609375 269.3587951660156 47.37911605834961 275.9283447265625 50.071136474609375 C 281.5137023925781 62.50296401977539 282.6458435058594 78.81889343261719 259.8356018066406 115.45532989501953" stroke-width="6.0" fill="none" stroke="rgb(0, 0, 0)" stroke-opacity="1.0" stroke-linecap="round" stroke-linejoin="round"/>
    <path d="M 68.70983123779297 464.1998291015625 C 51.1124382019043 443.02978515625 61.047828674316406 442.6774597167969 54.02776336669922 450.0314636230469 C 63.5655403137207 454.5543518066406 42.044227600097656 450.2995910644531 52.4503288269043 446.2083740234375 C 81.24617004394531 426.95904541015625 89.1919937133789 457.2269287109375 110.35736846923828 469.0601806640625 C 100.02294158935547 495.2034606933594 104.23989868164062 500.9262390136719 81.96280670166016 472.1423645019531 C 82.91670989990234 464.40057373046875 115.69445037841797 456.5936584472656 126.65218353271484 474.62469482421875" stroke-width="6.0" fill="none" stroke="rgb(0, 0, 0)" stroke-opacity="1.0" stroke-linecap="round" stroke-linejoin="round"/>
    <path d="M 204.94581604003906 250.12265014648438 C 210.7308807373047 249.46192932128906 191.48316955566406 229.97987365722656 219.87330627441406 217.4612579345703 C 199.53138732910156 233.23008728027344 218.35691833496094 251.28872680664062 242.57179260253906 280.5111083984375 C 243.46681213378906 280.20062255859375 228.93991088867188 255.19320678710938 202.6433563232422 268.9151916503906 C 201.2547149658203 259.99749755859375 178.59326171875 269.50030517578125 156.22145080566406 278.2644348144531 C 179.65673828125 262.0017395019531 187.0592803955078 280.3207702636719 162.78924560546875 286.3357238769531" stroke-width="6.0" fill="none" stroke="rgb(0, 0, 0)" stroke-opacity="1.0" stroke-linecap="round" stroke-linejoin="round"/>
    <path d="M 337.6650085449219 220.68357849121094 C 325.8764953613281 216.44818115234375 296.0124206542969 200.0942840576172 282.2371520996094 212.41827392578125 C 278.1906433105469 234.27560424804688 253.8523406982422 245.65821838378906 269.21551513671875 247.3876190185547 C 261.8056945800781 242.6305694580078 266.0027160644531 222.435302734375 277.9367980957031 233.21035766601562 C 301.1275329589844 213.03314208984375 303.389404296875 199.20948791503906 327.6847839355469 175.76605224609375 C 298.5462341308594 146.73300170898438 299.19464111328125 117.41537475585938 311.36376953125 107.73313903808594" stroke-width="6.0" fill="none" stroke="rgb(0, 0, 0)" stroke-opacity="1.0" stroke-linecap="round" stroke-linejoin="round"/>
    <path d="M 353.94952392578125 542.8368530273438 C 355.9947814941406 542.7730102539062 385.5697937011719 542.5923461914062 398.296630859375 532.5379028320312 C 383.1856994628906 549.989013671875 398.83148193359375 538.7418212890625 399.85516357421875 542.0623168945312 C 393.48834228515625 545.1043701171875 399.29241943359375 568.6913452148438 418.67779541015625 569.1248779296875 C 402.507568359375 570.1550903320312 400.002685546875 551.677978515625 428.65167236328125 556.7670288085938 C 451.7709045410156 575.8989868164062 450.2368469238281 567.9899291992188 436.6600341796875 563.8953857421875" stroke-width="6.0" fill="none" stroke="rgb(0, 0, 0)" stroke-opacity="1.0" stroke-linecap="round" stroke-linejoin="round"/>
    <path d="M 36.235145568847656 223.12997436523438 C 11.084372520446777 199.30560302734375 33.33266830444336 193.42486572265625 31.98305892944336 192.9560089111328 C 2.1690971851348877 219.70791625976562 -11.37420654296875 227.6683349609375 -7.300239562988281 250.00831604003906 C 18.928037643432617 239.90809631347656 22.095726013183594 222.81161499023438 27.971696853637695 213.33004760742188 C 40.86481857299805 235.260986328125 43.46135711669922 230.86378479003906 65.79358673095703 229.68080139160156 C 57.171539306640625 250.1226806640625 57.387916564941406 248.359130859375 60.544342041015625 245.2298583984375" stroke-width="6.0" fill="none" stroke="rgb(0, 0, 0)" stroke-opacity="1.0" stroke-linecap="round" stroke-linejoin="round"/>
    <path d="M 77.60494232177734 103.87039947509766 C 62.32889175415039 111.87664031982422 44.97860336303711 86.52071380615234 31.50455093383789 99.3442611694336 C 15.731600761413574 80.05110168457031 31.798677444458008 95.60726165771484 32.29636764526367 94.58378601074219 C 15.570191383361816 71.92982482910156 31.377534866333008 45.783203125 -0.5044558644294739 46.73270034790039 C -24.344755172729492 55.0262565612793 -50.594940185546875 60.51799774169922 -73.65646362304688 49.257545471191406 C -91.49917602539062 78.51880645751953 -85.53772735595703 82.33509063720703 -114.42052459716797 95.50792694091797" stroke-width="6.0" fill="none" stroke="rgb(0, 0, 0)" stroke-opacity="1.0" stroke-linecap="round" stroke-linejoin="round"/>
    <path d="M 396.2194519042969 173.0457763671875 C 365.867431640625 171.14608764648438 397.7491455078125 189.53573608398438 381.5159606933594 207.48265075683594 C 389.7225036621094 223.1899871826172 410.32745361328125 208.55564880371094 419.5829162597656 195.4274444580078 C 428.875732421875 183.85977172851562 429.1805114746094 188.4360809326172 411.2568664550781 181.08413696289062 C 385.4020690917969 165.32066345214844 408.34674072265625 167.6273956298828 400.270263671875 148.25611877441406 C 376.1220703125 145.4252166748047 386.6725769042969 121.14402770996094 405.7413635253906 115.65741729736328" stroke-width="6.0" fill="none" stroke="rgb(0, 0, 0)" stroke-opacity="1.0" stroke-linecap="round" stroke-linejoin="round"/>
    <path d="M 65.61243438720703 288.1317138671875 C 48.56462097167969 290.9054870605469 69.37753295898438 317.5773010253906 76.73519134521484 329.97906494140625 C 76.00324249267578 319.0570373535156 61.498260498046875 322.2457580566406 49.16549301147461 337.85052490234375 C 60.78314208984375 323.60528564453125 62.08353042602539 344.11517333984375 83.89175415039062 354.0378112792969 C 54.29774475097656 338.23358154296875 54.49250793457031 327.9468688964844 78.7297134399414 310.9255676269531 C 92.86711120605469 302.83184814453125 80.1626968383789 312.7405090332031 95.21884155273438 322.3702087402344" stroke-width="6.0" fill="none" stroke="rgb(0, 0, 0)" stroke-opacity="1.0" stroke-linecap="round" stroke-linejoin="round"/>
    <path d="M 71.57303619384766 5.749410152435303 C 72.08769989013672 12.746932029724121 69.33338165283203 9.030477523803711 48.28676223754883 20.265562057495117 C 36.232574462890625 40.849369049072266 30.857465744018555 28.92125129699707 19.137107849121094 41.379661560058594 C 27.745798110961914 31.463890075683594 38.330509185791016 32.26313018798828 41.67245101928711 35.54929733276367 C 23.953445434570312 28.442827224731445 13.316490173339844 41.68701171875 27.771682739257812 61.46985626220703 C 38.398075103759766 77.63416290283203 33.894351959228516 90.8104476928711 22.634958267211914 74.0560531616211" stroke-width="6.0" fill="none" stroke="rgb(0, 0, 0)" stroke-opacity="1.0" stroke-linecap="round" stroke-linejoin="round"/>
    <path d="M 237.2941131591797 200.07794189453125 C 240.63465881347656 214.7450714111328 254.04978942871094 193.02911376953125 281.021484375 164.3395538330078 C 257.8001708984375 136.05149841308594 286.91064453125 132.9990997314453 263.36737060546875 120.7416763305664 C 237.87428283691406 96.22471618652344 230.28314208984375 128.17811584472656 234.4837646484375 126.62918853759766 C 246.72183227539062 130.5699005126953 272.2366027832031 151.70181274414062 281.3883361816406 150.41526794433594 C 269.5268859863281 162.56906127929688 285.080078125 143.77268981933594 253.6891326904297 152.48377990722656" stroke-width="6.0" fill="none" stroke="rgb(0, 0, 0)" stroke-opacity="1.0" stroke-linecap="round" stroke-linejoin="round"/>
  </g>
</svg>
